<svg width="62" height="34" viewBox="0 0 62 34" fill="none" xmlns="http://www.w3.org/2000/svg">
<g clip-path="url(#clip0_9_688)">
<path d="M0 33.98C16.39 22.94 41.63 12.46 61.6 15.63C39.91 17.03 19.92 26.03 0 33.98Z" fill="#3B65EE"/>
<path d="M8.09009 29.84C8.09009 29.84 11.5101 7.09999 17.3301 8.25999C23.1501 9.41999 8.09009 29.84 8.09009 29.84Z" stroke="#3B65EE" stroke-width="0.74" stroke-miterlimit="10"/>
<path d="M16.1701 11.75C14.7701 15.99 12.9101 20.04 10.5901 23.86C11.9901 19.61 13.8601 15.58 16.1701 11.75Z" fill="#3B65EE"/>
<path d="M31.85 19.12C31.85 19.12 40.94 -2.01001 46.27 0.589986C51.6 3.18999 31.85 19.12 31.85 19.12Z" stroke="#3B65EE" stroke-width="0.74" stroke-miterlimit="10"/>
<path d="M44.26 3.66998C41.83 7.41998 39 10.86 35.79 13.96C38.22 10.21 41.05 6.77998 44.26 3.66998Z" fill="#3B65EE"/>
<path d="M22.5601 23.7C22.5601 23.7 45.4801 21.77 45.6901 27.7C45.9001 33.63 22.5601 23.7 22.5601 23.7Z" stroke="#3B65EE" stroke-width="0.74" stroke-miterlimit="10"/>
<path d="M42.03 27.38C37.58 27 33.22 26.12 28.96 24.75C33.41 25.13 37.77 26.01 42.03 27.38Z" fill="#3B65EE"/>
</g>
<defs>
<clipPath id="clip0_9_688">
<rect width="61.6" height="33.98" fill="white"/>
</clipPath>
</defs>
</svg>
