<svg width="843" height="598" viewBox="0 0 843 598" fill="none" xmlns="http://www.w3.org/2000/svg">
<path d="M800.9 530.71H39.9102V596.61H800.9V530.71Z" fill="#E5ECF9" stroke="#3B65EE" stroke-width="0.75" stroke-miterlimit="10" stroke-linecap="round" stroke-linejoin="round"/>
<path d="M171.83 596.61H121.99L191.01 530.71H229.34L171.83 596.61Z" fill="#E5ECF9" stroke="#3B65EE" stroke-width="0.75" stroke-miterlimit="10" stroke-linecap="round" stroke-linejoin="round"/>
<path d="M121.99 596.61H72.1504L152.68 530.71H191.01L121.99 596.61Z" fill="#E5ECF9" stroke="#3B65EE" stroke-width="0.75" stroke-miterlimit="10" stroke-linecap="round" stroke-linejoin="round"/>
<path d="M421.029 596.61H371.189L382.699 530.71H421.029V596.61Z" fill="#E5ECF9" stroke="#3B65EE" stroke-width="0.75" stroke-miterlimit="10" stroke-linecap="round" stroke-linejoin="round"/>
<path d="M371.19 596.61H321.35L344.37 530.71H382.7L371.19 596.61Z" fill="#E5ECF9" stroke="#3B65EE" stroke-width="0.75" stroke-miterlimit="10" stroke-linecap="round" stroke-linejoin="round"/>
<path d="M321.35 596.61H271.51L306.04 530.71H344.37L321.35 596.61Z" fill="#E5ECF9" stroke="#3B65EE" stroke-width="0.75" stroke-miterlimit="10" stroke-linecap="round" stroke-linejoin="round"/>
<path d="M271.51 596.61H221.67L267.71 530.71H306.04L271.51 596.61Z" fill="#E5ECF9" stroke="#3B65EE" stroke-width="0.75" stroke-miterlimit="10" stroke-linecap="round" stroke-linejoin="round"/>
<path d="M221.67 596.61H171.83L229.39 530.71H267.71L221.67 596.61Z" fill="#E5ECF9" stroke="#3B65EE" stroke-width="0.75" stroke-miterlimit="10" stroke-linecap="round" stroke-linejoin="round"/>
<path d="M670.231 596.61H720.061L651.051 530.71H612.721L670.231 596.61Z" fill="#E5ECF9" stroke="#3B65EE" stroke-width="0.75" stroke-miterlimit="10" stroke-linecap="round" stroke-linejoin="round"/>
<path d="M720.061 596.61H769.901L689.381 530.71H651.051L720.061 596.61Z" fill="#E5ECF9" stroke="#3B65EE" stroke-width="0.75" stroke-miterlimit="10" stroke-linecap="round" stroke-linejoin="round"/>
<path d="M421.031 596.61H470.871L459.361 530.71H421.031V596.61Z" fill="#E5ECF9" stroke="#3B65EE" stroke-width="0.75" stroke-miterlimit="10" stroke-linecap="round" stroke-linejoin="round"/>
<path d="M470.871 596.61H520.711L497.691 530.71H459.361L470.871 596.61Z" fill="#E5ECF9" stroke="#3B65EE" stroke-width="0.75" stroke-miterlimit="10" stroke-linecap="round" stroke-linejoin="round"/>
<path d="M520.711 596.61H570.551L536.011 530.71H497.691L520.711 596.61Z" fill="#E5ECF9" stroke="#3B65EE" stroke-width="0.75" stroke-miterlimit="10" stroke-linecap="round" stroke-linejoin="round"/>
<path d="M570.552 596.61H620.392L574.342 530.71H536.012L570.552 596.61Z" fill="#E5ECF9" stroke="#3B65EE" stroke-width="0.75" stroke-miterlimit="10" stroke-linecap="round" stroke-linejoin="round"/>
<path d="M620.392 596.61H670.232L612.672 530.71H574.342L620.392 596.61Z" fill="#E5ECF9" stroke="#3B65EE" stroke-width="0.75" stroke-miterlimit="10" stroke-linecap="round" stroke-linejoin="round"/>
<path d="M136.699 530.71L159.639 596.61H683.029L705.959 530.71H136.699Z" stroke="#3B65EE" stroke-width="2.5" stroke-miterlimit="10" stroke-linecap="round" stroke-linejoin="round"/>
<path d="M102.66 421.75L141.83 491.03C145.11 496.83 142.96 504.18 137.08 507.31C130.53 510.79 122.42 507.46 120.22 500.37L96.7402 424.86L102.66 421.75Z" fill="#E5ECF9" stroke="#3B65EE" stroke-width="2.5" stroke-miterlimit="10" stroke-linecap="round" stroke-linejoin="round"/>
<path d="M739.999 421.75L700.829 491.03C697.549 496.83 699.699 504.18 705.579 507.31C712.129 510.79 720.239 507.46 722.439 500.37L745.92 424.86L739.999 421.75Z" fill="#E5ECF9" stroke="#3B65EE" stroke-width="2.5" stroke-miterlimit="10" stroke-linecap="round" stroke-linejoin="round"/>
<path d="M231.329 97.4802C129.919 97.4802 135.229 1.7002 135.229 1.7002H337.969C337.969 1.7002 332.739 97.4802 231.329 97.4802Z" fill="#B0C3EA" stroke="#3B65EE" stroke-width="2.5" stroke-miterlimit="10" stroke-linecap="round" stroke-linejoin="round"/>
<path d="M231.329 97.4802C129.919 97.4802 135.229 1.7002 135.229 1.7002H337.969C337.969 1.7002 332.739 97.4802 231.329 97.4802Z" stroke="#3B65EE" stroke-width="2.5" stroke-miterlimit="10" stroke-linecap="round" stroke-linejoin="round"/>
<path d="M283.391 50.1304C285.631 46.7804 287.781 43.4804 289.761 40.0904C290.261 39.2504 290.741 38.3904 291.211 37.5304C291.691 36.6804 292.171 35.8304 292.601 34.9504C293.521 33.2304 294.401 31.4804 295.211 29.7004C296.871 26.1604 298.401 22.5504 299.811 18.8804C301.221 15.2004 302.521 11.4704 303.921 7.69043C303.751 11.7104 303.071 15.7004 302.041 19.5904C301.011 23.4904 299.661 27.3104 297.921 30.9704C297.031 32.7904 296.111 34.5904 295.071 36.3304C294.561 37.2104 294.011 38.0504 293.451 38.9004L292.611 40.1704L291.701 41.3804C289.301 44.6304 286.541 47.6204 283.391 50.1304Z" fill="#3B65EE"/>
<path d="M135.18 7.7002C138.61 21.9702 144.76 35.6502 154.21 46.6602C156.59 49.3802 159.16 51.9202 161.88 54.2902C164.62 56.6402 167.57 58.7202 170.62 60.6402C176.78 64.3702 183.45 67.2802 190.44 69.1302C197.4 71.0802 204.6 72.1502 211.85 72.5802C215.46 72.7902 219.13 72.8702 222.78 72.8402C226.42 72.8402 230.05 72.6202 233.68 72.3302C237.3 71.9702 240.9 71.4502 244.47 70.7402C248.03 70.0102 251.56 69.0902 255.02 67.9402C258.47 66.7802 261.86 65.4002 265.13 63.7702C268.4 62.1302 271.56 60.2602 274.58 58.1602C268.93 62.9002 262.38 66.5302 255.52 69.3202C252.06 70.6602 248.5 71.7502 244.9 72.6602C241.29 73.5502 237.62 74.1602 233.94 74.6602C230.25 75.0902 226.54 75.4202 222.83 75.4702C219.13 75.5702 215.44 75.5602 211.71 75.4202C204.28 75.0702 196.86 73.9902 189.64 72.0202C182.43 70.0402 175.49 67.0202 169.13 63.0402C165.99 60.9902 162.97 58.7602 160.17 56.2702C157.38 53.7702 154.79 51.0502 152.43 48.1602C147.73 42.3402 143.96 35.8402 141.11 29.0002C138.32 22.1202 136.29 14.9702 135.18 7.7002Z" fill="#3B65EE"/>
<path d="M610.73 97.4802C712.14 97.4802 706.83 1.7002 706.83 1.7002H504.09C504.09 1.7002 509.32 97.4802 610.73 97.4802Z" fill="#B0C3EA" stroke="#3B65EE" stroke-width="2.5" stroke-miterlimit="10" stroke-linecap="round" stroke-linejoin="round"/>
<path d="M586.73 44.2803C589.43 47.0803 592.49 49.3403 595.71 51.2303C598.95 53.1003 602.371 54.5703 605.931 55.6403C607.741 56.0803 609.52 56.6303 611.37 56.9003C612.29 57.0503 613.201 57.3103 614.141 57.3803C615.071 57.4603 616.01 57.5703 616.95 57.7003C617.89 57.8603 618.831 57.8503 619.781 57.9003L622.641 58.0603C624.551 58.1003 626.47 58.0303 628.44 58.1503C626.58 58.6903 624.67 59.1503 622.74 59.5303L619.82 59.8603C618.84 59.9703 617.86 60.0603 616.87 60.0303C615.88 60.0303 614.891 60.0303 613.901 59.9903C612.911 59.9903 611.93 59.7903 610.94 59.7003C608.95 59.5303 607.03 58.9803 605.09 58.5103C603.21 57.8403 601.301 57.2303 599.521 56.3003C599.071 56.0703 598.621 55.8703 598.181 55.6203L596.901 54.8503L595.62 54.0703L594.421 53.1703C591.251 50.7903 588.43 47.8303 586.73 44.2803Z" fill="#3B65EE"/>
<path d="M610.73 97.4802C712.14 97.4802 706.83 1.7002 706.83 1.7002H504.09C504.09 1.7002 509.32 97.4802 610.73 97.4802Z" stroke="#3B65EE" stroke-width="2.5" stroke-miterlimit="10" stroke-linecap="round" stroke-linejoin="round"/>
<path d="M706.88 7.7002C706.47 10.1302 705.98 12.5402 705.41 14.9402C704.8 17.3302 704.15 19.7102 703.36 22.0502C701.83 26.7502 699.91 31.3302 697.6 35.7202C695.27 40.1002 692.54 44.2802 689.4 48.1602C686.25 52.0302 682.67 55.5502 678.76 58.6702C674.85 61.7902 670.6 64.4902 666.11 66.7102C661.62 68.9202 656.91 70.6702 652.1 72.0302C649.7 72.7602 647.25 73.2302 644.81 73.7702C642.35 74.1702 639.89 74.6402 637.41 74.8702C634.94 75.2102 632.45 75.3302 629.97 75.5102C628.73 75.6002 627.48 75.5902 626.24 75.6302C625 75.6502 623.74 75.7102 622.52 75.6802C621.3 75.7202 620.04 75.6502 618.8 75.6302C617.56 75.5902 616.31 75.6002 615.07 75.5102C612.59 75.3402 610.1 75.2102 607.63 74.8702C605.15 74.6402 602.69 74.1602 600.23 73.7702C597.79 73.2302 595.34 72.7602 592.94 72.0402C588.13 70.6802 583.42 68.9402 578.93 66.7202C574.44 64.5002 570.19 61.8002 566.28 58.6802C562.37 55.5602 558.78 52.0402 555.64 48.1702C552.5 44.2902 549.77 40.1102 547.44 35.7302C545.13 31.3402 543.21 26.7602 541.68 22.0602C540.89 19.7202 540.24 17.3402 539.63 14.9502C539.06 12.5502 538.57 10.1302 538.16 7.71021C540.42 17.2802 543.77 26.6102 548.73 35.0202C553.58 43.4702 560.01 51.0002 567.73 56.8302C571.59 59.7502 575.74 62.2602 580.09 64.3502C584.46 66.4202 589.03 68.0502 593.7 69.2902C596.03 69.9502 598.41 70.4102 600.77 70.9202C603.17 71.2902 605.55 71.7402 607.97 71.9602C610.38 72.2802 612.8 72.3902 615.23 72.5502C616.44 72.6302 617.66 72.6102 618.87 72.6502C620.09 72.6702 621.29 72.7202 622.53 72.6802C623.77 72.7202 624.97 72.6702 626.19 72.6502C627.4 72.6102 628.62 72.6302 629.83 72.5502C632.25 72.3902 634.68 72.2802 637.09 71.9602C639.51 71.7402 641.89 71.2902 644.29 70.9202C646.66 70.4102 649.04 69.9502 651.37 69.2902C656.04 68.0402 660.62 66.4202 664.98 64.3502C669.33 62.2502 673.49 59.7502 677.34 56.8302C685.06 50.9902 691.48 43.4702 696.34 35.0102C701.27 26.6002 704.62 17.2602 706.88 7.7002Z" fill="#3B65EE"/>
<path d="M227.199 1.7002H9.68945V596.6H159.639L98.2894 420.33C207.549 346.22 224.769 280.61 227.199 1.7002Z" fill="#D1DAED" stroke="#3B65EE" stroke-width="2.5" stroke-miterlimit="10" stroke-linecap="round" stroke-linejoin="round"/>
<path d="M615.461 1.7002H832.971V596.6H683.021L744.371 420.33C635.111 346.22 617.891 280.61 615.461 1.7002Z" fill="#D1DAED" stroke="#3B65EE" stroke-width="2.5" stroke-miterlimit="10" stroke-linecap="round" stroke-linejoin="round"/>
<path d="M832.979 391.79C832.549 392.03 832.139 392.31 831.749 392.64C831.299 393.02 795.559 422.6 746.159 418.03C744.359 417.86 742.659 418.31 741.229 419.19C742.269 419.91 743.309 420.62 744.369 421.34L740.539 432.33C741.699 433.22 743.109 433.82 744.679 433.96C785.899 437.77 818.019 421.2 832.969 411.46V391.79H832.979Z" fill="#B0C3EA"/>
<path d="M9.68945 391.79C10.1195 392.03 10.5295 392.31 10.9195 392.64C11.3695 393.02 47.1095 422.6 96.5095 418.03C98.3095 417.86 100.009 418.31 101.439 419.19C100.399 419.91 99.3594 420.62 98.2994 421.34L102.129 432.33C100.969 433.22 99.5594 433.82 97.9894 433.96C56.7694 437.77 24.6495 421.2 9.69946 411.46V391.79H9.68945Z" fill="#B0C3EA"/>
<path d="M227.199 1.7002H9.68945V596.6H159.639L98.2894 420.33C207.549 346.22 224.769 280.61 227.199 1.7002Z" stroke="#3B65EE" stroke-width="2.5" stroke-miterlimit="10" stroke-linecap="round" stroke-linejoin="round"/>
<path d="M615.461 1.7002H832.971V596.6H683.021L744.371 420.33C635.111 346.22 617.891 280.61 615.461 1.7002Z" stroke="#3B65EE" stroke-width="2.5" stroke-miterlimit="10" stroke-linecap="round" stroke-linejoin="round"/>
<path d="M114.88 356.42C112.76 362.43 110.19 368.29 107.33 374.01C104.46 379.72 101.24 385.27 97.71 390.61C94.21 395.97 90.3601 401.11 86.2801 406.06C82.1801 411.01 77.87 415.72 73.06 420.13L73.52 418.84C75.11 427.11 76.62 435.39 78.13 443.67C79.6 451.96 81.09 460.24 82.47 468.55C83.19 472.7 83.87 476.85 84.54 481.01C85.22 485.16 85.8901 489.32 86.5301 493.48C87.1901 497.64 87.8 501.81 88.4 505.97C89.01 510.14 89.63 514.3 90.17 518.48C89.21 514.38 88.32 510.26 87.43 506.14C86.53 502.03 85.64 497.91 84.8 493.78C83.94 489.66 83.1 485.53 82.29 481.4C81.46 477.27 80.64 473.14 79.86 469.01C78.25 460.75 76.73 452.47 75.2 444.19C73.71 435.91 72.21 427.62 70.8 419.32C70.72 418.82 70.9 418.34 71.26 418.02C75.92 413.9 80.28 409.22 84.44 404.48C88.6 399.71 92.49 394.7 96.17 389.54C99.84 384.37 103.23 379 106.4 373.5C109.51 367.97 112.32 362.25 114.88 356.42Z" fill="#3B65EE"/>
<path d="M196.95 165.72C197.76 177.92 197.55 190.17 196.9 202.37C196.22 214.58 195 226.77 193.11 238.87C189.34 263.05 183.43 286.99 174.44 309.84C165.49 332.67 153.63 354.48 138.43 373.84C123.28 393.22 104.61 409.83 83.6696 422.73C83.0296 423.12 82.1996 422.93 81.7996 422.29C81.6596 422.07 81.5996 421.81 81.5996 421.57L81.6196 411.27V411.26C81.6196 410.52 82.2197 409.93 82.9597 409.93C83.5697 409.93 84.0796 410.34 84.2396 410.89C87.9496 423.71 91.7296 436.51 95.3696 449.34L106.37 487.83L111.87 507.08L117.28 526.35L128.04 564.91L116.26 526.65L110.4 507.51L104.63 488.34L93.0897 450.01C89.2097 437.24 85.4796 424.43 81.6796 411.64L84.2896 411.26L84.3096 421.56L82.2396 420.41C92.5096 413.95 102.31 406.72 111.29 398.56C120.33 390.46 128.56 381.5 136.12 372.01C151.2 352.98 163.04 331.46 172.02 308.87C176.52 297.57 180.34 286 183.59 274.26C186.8 262.51 189.4 250.6 191.43 238.58C195.42 214.57 197.61 190.15 196.95 165.72Z" fill="#3B65EE"/>
<path d="M98.2899 428.34C41.6799 428.34 5.47995 391.91 3.95995 390.36C0.869951 387.2 0.939966 382.13 4.09997 379.05C7.25997 375.97 12.32 376.03 15.4 379.18C15.82 379.6 48.6799 412.35 98.2899 412.35C102.71 412.35 106.29 415.93 106.29 420.35C106.29 424.77 102.71 428.34 98.2899 428.34Z" fill="#E5ECF9" stroke="#3B65EE" stroke-width="2.5" stroke-miterlimit="10" stroke-linecap="round" stroke-linejoin="round"/>
<path d="M165.77 22.0801C166.66 33.1801 167.21 44.3001 167.8 55.4201C168.29 66.5401 168.67 77.6701 168.98 88.8101C169.31 99.9401 169.42 111.08 169.49 122.22C169.52 133.36 169.42 144.5 169.22 155.64C168.95 166.78 168.6 177.91 168.06 189.04C167.45 200.17 166.78 211.29 165.75 222.39C164.71 233.49 163.46 244.57 161.85 255.6C161.4 258.35 161.01 261.11 160.51 263.85L159 272.07L157.28 280.25L155.26 288.36C157.52 277.46 159.17 266.45 160.4 255.41C161.71 244.37 162.7 233.3 163.46 222.21C164.93 200.03 165.8 177.81 166.23 155.57C166.71 133.34 166.76 111.09 166.69 88.8401C166.66 77.7201 166.53 66.5901 166.35 55.4601C166.25 44.3401 165.99 33.2101 165.77 22.0801Z" fill="#3B65EE"/>
<path d="M118.441 162.66C120.011 179.44 120.131 196.35 119.361 213.2C118.571 230.05 116.851 246.88 114.081 263.54C111.271 280.19 107.531 296.71 102.391 312.81C101.151 316.85 99.7507 320.83 98.3507 324.81C97.6507 326.8 96.8507 328.76 96.1107 330.73C95.3507 332.7 94.6208 334.68 93.7708 336.61L91.2808 342.43C90.4208 344.35 89.5107 346.26 88.6307 348.17C86.9307 352.02 84.8807 355.72 82.9707 359.47C89.8307 344.08 95.5607 328.27 100.161 312.13C101.361 308.11 102.361 304.04 103.461 299.99L104.941 293.88C105.451 291.85 105.901 289.8 106.341 287.75C108.201 279.57 109.761 271.33 111.131 263.05C112.561 254.78 113.691 246.47 114.661 238.13C115.661 229.8 116.411 221.44 117.051 213.06C117.651 204.68 118.091 196.29 118.331 187.89C118.621 179.48 118.641 171.07 118.441 162.66Z" fill="#3B65EE"/>
<path d="M28.4004 564.94C27.7804 554.6 27.4503 544.25 27.2303 533.91C27.0903 528.74 27.0603 523.57 26.9803 518.4L26.9004 502.89L26.9803 487.38C27.0603 482.21 27.0903 477.04 27.2303 471.87C27.4503 461.53 27.7804 451.18 28.4004 440.84C29.0204 451.18 29.3504 461.53 29.5704 471.87C29.7104 477.04 29.7404 482.21 29.8204 487.38L29.9004 502.89L29.8204 518.4C29.7404 523.57 29.7104 528.74 29.5704 533.91C29.3504 544.26 29.0204 554.6 28.4004 564.94Z" fill="#3B65EE"/>
<path d="M727.781 356.42C730.341 362.26 733.151 367.97 736.281 373.5C739.441 379.01 742.841 384.38 746.511 389.54C750.191 394.7 754.071 399.71 758.241 404.48C762.401 409.22 766.751 413.9 771.421 418.02C771.801 418.35 771.951 418.85 771.881 419.32C770.471 427.62 768.971 435.9 767.481 444.19C765.951 452.47 764.431 460.75 762.821 469.01C762.041 473.15 761.221 477.27 760.391 481.4C759.571 485.53 758.741 489.66 757.881 493.78C757.041 497.91 756.151 502.02 755.251 506.14C754.361 510.26 753.471 514.37 752.511 518.48C753.051 514.3 753.661 510.13 754.281 505.97C754.881 501.8 755.491 497.63 756.151 493.48C756.791 489.32 757.461 485.16 758.141 481.01C758.811 476.85 759.491 472.7 760.211 468.55C761.601 460.25 763.081 451.96 764.551 443.67C766.061 435.39 767.571 427.11 769.161 418.84L769.621 420.13C764.811 415.72 760.501 411.01 756.401 406.06C752.321 401.11 748.471 395.97 744.971 390.61C741.441 385.27 738.221 379.72 735.351 374.01C732.471 368.29 729.901 362.43 727.781 356.42Z" fill="#3B65EE"/>
<path d="M645.71 165.72C645.05 190.15 647.24 214.57 651.22 238.61C653.25 250.63 655.85 262.55 659.06 274.29C662.31 286.02 666.13 297.6 670.63 308.9C679.61 331.49 691.45 353 706.53 372.04C714.09 381.53 722.32 390.49 731.36 398.59C740.33 406.76 750.14 413.99 760.41 420.44L758.34 421.59L758.36 411.29L760.97 411.67C757.17 424.46 753.43 437.27 749.56 450.04L738.02 488.37L732.25 507.54L726.39 526.68L714.61 564.94L725.37 526.38L730.78 507.11L736.28 487.86L747.28 449.37C750.92 436.53 754.69 423.73 758.41 410.92C758.61 410.21 759.35 409.81 760.06 410.01C760.64 410.18 761.02 410.71 761.02 411.28V411.29L761.04 421.59C761.04 422.34 760.44 422.95 759.69 422.95C759.43 422.95 759.18 422.87 758.97 422.75C738.04 409.85 719.36 393.24 704.21 373.86C689.02 354.5 677.15 332.69 668.2 309.86C659.21 287.01 653.3 263.07 649.53 238.89C647.64 226.79 646.42 214.6 645.74 202.39C645.11 190.17 644.9 177.92 645.71 165.72Z" fill="#3B65EE"/>
<path d="M744.371 428.34C800.981 428.34 837.181 391.91 838.701 390.36C841.791 387.2 841.721 382.13 838.561 379.05C835.401 375.97 830.341 376.03 827.261 379.18C826.841 379.6 793.981 412.35 744.371 412.35C739.951 412.35 736.371 415.93 736.371 420.35C736.371 424.77 739.961 428.34 744.371 428.34Z" fill="#E5ECF9" stroke="#3B65EE" stroke-width="2.5" stroke-miterlimit="10" stroke-linecap="round" stroke-linejoin="round"/>
<path d="M676.891 22.0801C676.671 33.2101 676.411 44.3401 676.321 55.4701C676.131 66.6001 676.011 77.7201 675.981 88.8501C675.911 111.1 675.961 133.34 676.441 155.58C676.871 177.81 677.751 200.03 679.211 222.22C679.971 233.31 680.951 244.38 682.271 255.42C683.501 266.47 685.151 277.47 687.411 288.37L685.391 280.26L683.671 272.08L682.161 263.86C681.661 261.12 681.271 258.36 680.821 255.61C679.211 244.58 677.961 233.5 676.921 222.4C675.891 211.3 675.221 200.17 674.611 189.05C674.081 177.92 673.721 166.78 673.451 155.65C673.261 144.51 673.151 133.37 673.181 122.23C673.251 111.09 673.361 99.9501 673.691 88.8201C674.001 77.6901 674.381 66.5601 674.871 55.4301C675.451 44.3001 676.001 33.1801 676.891 22.0801Z" fill="#3B65EE"/>
<path d="M724.22 162.66C724.02 171.08 724.04 179.49 724.35 187.89C724.59 196.29 725.03 204.68 725.63 213.06C726.27 221.43 727.01 229.8 728.02 238.13C728.99 246.46 730.12 254.78 731.55 263.05C732.91 271.33 734.47 279.57 736.34 287.75C736.78 289.8 737.23 291.85 737.74 293.88L739.22 299.99C740.32 304.04 741.32 308.11 742.52 312.13C747.12 328.27 752.85 344.08 759.71 359.47C757.8 355.72 755.75 352.03 754.05 348.17C753.17 346.26 752.26 344.35 751.4 342.43L748.91 336.61C748.06 334.68 747.33 332.7 746.57 330.73C745.83 328.76 745.02 326.8 744.33 324.81C742.92 320.83 741.53 316.84 740.29 312.81C735.16 296.71 731.41 280.19 728.6 263.54C725.83 246.88 724.1 230.05 723.32 213.2C722.53 196.34 722.64 179.43 724.22 162.66Z" fill="#3B65EE"/>
<path d="M814.26 564.94C813.64 554.6 813.31 544.25 813.09 533.91C812.95 528.74 812.92 523.57 812.84 518.4L812.76 502.89L812.84 487.38C812.92 482.21 812.95 477.04 813.09 471.87C813.31 461.53 813.64 451.18 814.26 440.84C814.88 451.18 815.21 461.53 815.43 471.87C815.57 477.04 815.6 482.21 815.68 487.38L815.76 502.89L815.68 518.4C815.6 523.57 815.57 528.74 815.43 533.91C815.21 544.26 814.88 554.6 814.26 564.94Z" fill="#3B65EE"/>
<path d="M522.399 1.7002H319.659C319.659 1.7002 318.309 120.03 419.719 120.03C420.159 120.03 420.589 120.01 421.029 120.01C421.469 120.01 421.899 120.03 422.339 120.03C523.749 120.03 522.399 1.7002 522.399 1.7002Z" fill="#D1DAED" stroke="#3B65EE" stroke-width="2.5" stroke-miterlimit="10" stroke-linecap="round" stroke-linejoin="round"/>
<path d="M336.66 18.8203C337.19 21.4203 337.75 24.0103 338.42 26.5803C339.06 29.1503 339.77 31.7003 340.55 34.2303C342.13 39.2803 344 44.2303 346.22 49.0203C350.58 58.6103 356.43 67.5503 363.89 74.8803C371.34 82.2003 380.34 87.8803 390.19 91.2903C395.12 92.9903 400.21 94.1903 405.37 94.9603C410.54 95.7903 415.76 95.9503 421.02 95.9603C426.28 95.9403 431.51 95.7803 436.67 94.9503C441.83 94.1803 446.92 92.9803 451.85 91.2803C456.77 89.5703 461.49 87.3003 465.9 84.5503C470.31 81.7803 474.42 78.5303 478.15 74.8703C485.61 67.5403 491.47 58.6003 495.82 49.0103C498.04 44.2303 499.92 39.2803 501.5 34.2303C502.29 31.7003 503 29.1503 503.63 26.5803C504.3 24.0103 504.86 21.4203 505.39 18.8203C503.95 29.3403 501.23 39.7203 497.17 49.6103C493.03 59.4503 487.29 68.7303 479.8 76.5003C472.35 84.3003 462.97 90.2703 452.81 93.9603C442.61 97.6003 431.74 99.0403 421.03 98.9603C410.32 99.0403 399.44 97.6003 389.25 93.9503C379.09 90.2603 369.72 84.2903 362.26 76.4903C354.77 68.7203 349.02 59.4503 344.89 49.6003C340.82 39.7203 338.1 29.3403 336.66 18.8203Z" fill="#3B65EE"/>
<path d="M462.84 48.7106C465.98 46.2006 468.96 43.6406 471.7 40.8606C473.06 39.4606 474.38 38.0406 475.61 36.5406C476.86 35.0606 478.05 33.5406 479.15 31.9406C481.37 28.7706 483.37 25.4406 485.12 21.9506C486.88 18.4606 488.39 14.8306 489.9 11.1006C489.61 15.1106 488.69 19.0906 487.26 22.8806C485.85 26.6806 483.96 30.3306 481.6 33.6706C479.21 36.9806 476.46 40.0406 473.27 42.5906C470.11 45.1606 466.6 47.2806 462.84 48.7106Z" fill="#3B65EE"/>
<path d="M352.17 11.1104C354.94 20.4304 359.45 29.1703 365.85 36.2403C372.23 43.3103 380.44 48.5403 389.37 51.7703C398.3 55.0803 407.89 56.4903 417.49 56.9303C427.14 57.4103 436.82 57.1304 446.4 55.2904C437.13 58.3404 427.2 59.3203 417.44 59.2703C412.53 59.3003 407.61 58.9404 402.72 58.2304C397.84 57.4704 393.01 56.2803 388.34 54.5903C383.69 52.8503 379.2 50.6103 375.08 47.8003C374.05 47.1103 373.07 46.3303 372.07 45.5903C371.12 44.7903 370.13 44.0304 369.23 43.1704C367.36 41.5204 365.68 39.6803 364.09 37.7703C357.74 30.1003 353.73 20.7204 352.17 11.1104Z" fill="#3B65EE"/>
</svg>
