<svg width="216" height="134" viewBox="0 0 216 134" fill="none" xmlns="http://www.w3.org/2000/svg">
<path d="M42.6506 70.2313C48.179 70.2313 52.6606 64.2543 52.6606 56.8813C52.6606 49.5083 48.179 43.5312 42.6506 43.5312C37.1222 43.5312 32.6406 49.5083 32.6406 56.8813C32.6406 64.2543 37.1222 70.2313 42.6506 70.2313Z" fill="#3B65EE" stroke="#3B65EE" stroke-width="3" stroke-miterlimit="10" stroke-linecap="round"/>
<path d="M214.089 93.4012C199.799 124.411 135.169 126.341 135.169 126.341C135.169 126.341 67.7392 135.661 29.5292 131.311C2.89922 128.281 0.709222 103.831 1.82922 89.2812C2.32922 82.8412 6.29921 77.1912 12.1792 74.5212L28.4592 67.1212C34.7892 64.2412 38.8592 57.9312 38.8592 50.9712V48.2013C38.8592 43.3813 41.1992 38.8713 45.1492 36.1013C58.7792 26.5413 90.9592 4.84124 105.149 2.68124C114.659 1.23124 125.449 2.64126 133.599 4.32126C143.509 6.37126 153.529 7.75124 163.619 8.49124C172.219 9.12124 181.609 10.2012 185.519 12.0012C193.539 15.6812 208.509 20.0812 214.109 36.8612" fill="#B0C6ED"/>
<path d="M214.089 93.4012C199.799 124.411 135.169 126.341 135.169 126.341C135.169 126.341 67.7392 135.661 29.5292 131.311C2.89922 128.281 0.709222 103.831 1.82922 89.2812C2.32922 82.8412 6.29921 77.1912 12.1792 74.5212L28.4592 67.1212C34.7892 64.2412 38.8592 57.9312 38.8592 50.9712V48.2013C38.8592 43.3813 41.1992 38.8713 45.1492 36.1013C58.7792 26.5413 90.9592 4.84124 105.149 2.68124C114.659 1.23124 125.449 2.64126 133.599 4.32126C143.509 6.37126 153.529 7.75124 163.619 8.49124C172.219 9.12124 181.609 10.2012 185.519 12.0012C193.539 15.6812 208.509 20.0812 214.109 36.8612" stroke="#3B65EE" stroke-width="3" stroke-miterlimit="10" stroke-linecap="round"/>
<path d="M129.787 75.743C135.316 75.743 139.797 69.766 139.797 62.393C139.797 55.02 135.316 49.043 129.787 49.043C124.259 49.043 119.777 55.02 119.777 62.393C119.777 69.766 124.259 75.743 129.787 75.743Z" fill="#3B65EE" stroke="#3B65EE" stroke-width="3" stroke-miterlimit="10" stroke-linecap="round"/>
<path d="M171.32 94.1797C133.61 100.66 90.9501 122.75 69.2401 126.17C47.5301 129.59 25.4402 107.51 25.4402 107.51C25.4402 107.51 15.5602 115.54 6.41016 116.86" stroke="#3B65EE" stroke-width="3" stroke-miterlimit="10" stroke-linecap="round"/>
<path d="M60.8581 80.0898L50.5781 85.7998" stroke="#3B65EE" stroke-width="3" stroke-miterlimit="10" stroke-linecap="round"/>
<path d="M11.1984 85.8031L7.39844 77.7031" stroke="#3B65EE" stroke-width="3" stroke-miterlimit="10" stroke-linecap="round"/>
</svg>
