<svg width="188" height="426" viewBox="0 0 188 426" fill="none" xmlns="http://www.w3.org/2000/svg">
<path d="M183.74 206.19C168.73 175.84 117.36 81.9501 22.7401 4.85005C13.1701 -2.94995 -0.779833 6.10003 2.42017 18.02C8.39017 40.28 14.1601 61.77 14.4401 62.81C19.1501 80.47 22.6201 98.54 25.4001 116.71C30.8801 153.15 33.3101 190.17 33.5901 227.32C33.3101 264.46 30.8801 301.48 25.4001 337.92C22.6201 356.09 19.1401 374.15 14.4401 391.82C14.2901 392.38 12.5901 398.73 10.1201 407.92C6.90012 419.93 21.0801 429 30.5801 420.97C120.21 345.17 169.15 255.63 183.75 226.13C186.85 219.84 186.85 212.47 183.74 206.19Z" fill="#D1DAED" stroke="#4D67B0" stroke-width="2.5" stroke-miterlimit="10" stroke-linecap="round" stroke-linejoin="round"/>
<path d="M79.3287 171.56C84.222 171.56 88.1887 167.593 88.1887 162.7C88.1887 157.807 84.222 153.84 79.3287 153.84C74.4355 153.84 70.4688 157.807 70.4688 162.7C70.4688 167.593 74.4355 171.56 79.3287 171.56Z" fill="#4D67B0" stroke="#4D67B0" stroke-width="2.5" stroke-miterlimit="10" stroke-linecap="round" stroke-linejoin="round"/>
<path d="M93.9609 252.7C100.851 256.04 107.961 258.57 115.191 260.19C122.421 261.8 129.781 262.36 136.991 261.57C140.591 261.15 144.141 260.35 147.601 259.27C151.081 258.22 154.391 256.64 157.661 254.96C164.121 251.43 170.051 246.77 175.721 241.6C171.661 248.12 166.201 253.85 159.701 258.32C158.901 258.9 158.031 259.36 157.191 259.89C156.341 260.4 155.501 260.91 154.601 261.33C153.711 261.77 152.831 262.23 151.931 262.64L149.161 263.75C145.421 265.12 141.521 266.06 137.561 266.54C129.631 267.41 121.591 266.41 114.151 263.97C106.741 261.48 99.7309 257.81 93.9609 252.7Z" fill="#4D67B0"/>
</svg>
