<?xml version="1.0" encoding="UTF-8"?><svg id="Layer_2" xmlns="http://www.w3.org/2000/svg" viewBox="0 0 2742.16 3792.43"><defs><style>.cls-1{fill:#0069ff;}.cls-2{fill:#e9f0ff;}.cls-3{fill:#fff;}.cls-4{fill:#a3c9ff;}</style></defs><g id="Layer_1-2"><rect class="cls-3" x="4.65" y="442.75" width="2732.86" height="1951"/><path class="cls-1" d="m2737.51,2390H45.79c-11.8,0-24.78-1.53-36.5,0-1.49.2-3.13,0-4.64,0l3.75,3.75V472.29c0-8,1.8-18.43,0-26.27-.23-.98,0-2.24,0-3.27l-3.75,3.75h2691.72c11.8,0,24.78,1.53,36.5,0,1.49-.2,3.13,0,4.64,0l-3.75-3.75v1871.74c0,25.03-2.03,51.02,0,75.99.09,1.07,0,2.19,0,3.27,0,4.83,7.5,4.83,7.5,0V522.01c0-25.03,2.03-51.02,0-75.99-.09-1.07,0-2.19,0-3.27,0-2.03-1.72-3.75-3.75-3.75H115.45c-35.37,0-70.78-.43-106.15,0-1.55.02-3.09,0-4.64,0-2.03,0-3.75,1.72-3.75,3.75v1871.74c0,25.03-2.03,51.02,0,75.99.09,1.07,0,2.19,0,3.27,0,2.03,1.72,3.75,3.75,3.75h271.75c98.36,0,196.72,0,295.08,0,119.18,0,238.36,0,357.54,0h394.28c131.76,0,263.53,0,395.29,0,123.7,0,247.4,0,371.1,0h537.03c35.37,0,70.78.43,106.15,0,1.55-.02,3.09,0,4.64,0,4.83,0,4.83-7.5,0-7.5Z"/><rect class="cls-4" x="853.89" y="2841.75" width="1005" height="107" transform="translate(-1538.86 4251.64) rotate(-90)"/><path class="cls-1" d="m1406.14,2392.75v989.87c0,4.42-.37,9.02,0,13.42.05.56,0,1.14,0,1.71l3.75-3.75h-107l3.75,3.75v-989.87c0-4.42.37-9.02,0-13.42-.05-.56,0-1.14,0-1.71l-3.75,3.75h107c4.83,0,4.83-7.5,0-7.5h-107c-2.03,0-3.75,1.72-3.75,3.75v964.26c0,13-.24,26.03,0,39.04.01.57,0,1.14,0,1.71,0,2.03,1.72,3.75,3.75,3.75h107c2.03,0,3.75-1.72,3.75-3.75v-964.26c0-13,.24-26.03,0-39.04-.01-.57,0-1.14,0-1.71,0-4.83-7.5-4.83-7.5,0Z"/><rect class="cls-2" x="658.68" y="3110.25" width="1424.5" height="123"/><path class="cls-1" d="m2083.18,3229.5h-686.61c-69.19,0-138.39,0-207.58,0-64.08,0-128.16,0-192.23,0h-316.6c-6.23,0-12.85-.64-19.05,0-.79.08-1.63,0-2.42,0l3.75,3.75v-123l-3.75,3.75h1403.03c6.23,0,12.85.64,19.05,0,.79-.08,1.63,0,2.42,0l-3.75-3.75v123c0,4.83,7.5,4.83,7.5,0v-123c0-2.03-1.72-3.75-3.75-3.75H716.5c-18.46,0-36.95-.31-55.4,0-.81.01-1.62,0-2.42,0-2.03,0-3.75,1.72-3.75,3.75v123c0,2.03,1.72,3.75,3.75,3.75h1366.68c18.46,0,36.95.31,55.4,0,.81-.01,1.62,0,2.42,0,4.83,0,4.83-7.5,0-7.5Z"/><polyline class="cls-4" points="617.89 3788.75 648.95 3760.02 874.94 2422.65 844.43 2451.75"/><path class="cls-1" d="m620.54,3791.4c9.36-8.66,18.72-17.31,28.08-25.97,2.01-1.86,3.46-3.09,4.15-5.62,1.45-5.32,1.88-11.14,2.8-16.57,4.73-28.02,9.47-56.03,14.2-84.05,7.76-45.9,15.51-91.8,23.27-137.69,9.87-58.38,19.73-116.76,29.6-175.14,11.05-65.4,22.1-130.8,33.16-196.2s22.71-134.37,34.06-201.56c10.69-63.25,21.38-126.5,32.06-189.74,9.06-53.64,18.13-107.28,27.19-160.92,6.56-38.79,13.11-77.59,19.67-116.38,3.13-18.51,6.31-37.02,9.39-55.54.13-.79.27-1.58.4-2.37.6-3.57-3.38-6.4-6.27-3.65-10.17,9.7-20.35,19.4-30.52,29.1-3.5,3.34,1.81,8.64,5.3,5.3,10.17-9.7,20.35-19.4,30.52-29.1l-6.27-3.65c-2.14,12.64-4.27,25.29-6.41,37.93-5.8,34.29-11.59,68.59-17.39,102.88-8.53,50.49-17.06,100.97-25.59,151.46-10.35,61.22-20.69,122.44-31.04,183.66-11.24,66.5-22.47,132.99-33.71,199.49-11.21,66.31-22.41,132.63-33.62,198.94-10.25,60.67-20.51,121.35-30.76,182.02-8.38,49.58-16.76,99.15-25.13,148.73-5.57,32.94-11.13,65.89-16.7,98.83l-4.38,25.91c-.33,1.93-1.05,4.16-1.04,6.13,0,.41-.18.84-.21,1.25-.06.73-.99.29.9-1.47-1.3,1.21-2.61,2.42-3.92,3.63-9.03,8.35-18.06,16.71-27.09,25.06-3.55,3.28,1.76,8.58,5.3,5.3h0Z"/><polyline class="cls-4" points="1897.43 2451.75 1866.91 2422.65 2092.9 3760.02 2123.96 3788.75"/><path class="cls-1" d="m1900.08,2449.1c-10.17-9.7-20.35-19.4-30.52-29.1-2.88-2.74-6.87.08-6.27,3.65,2.15,12.73,4.3,25.45,6.45,38.18,5.83,34.5,11.66,69,17.49,103.5,8.55,50.58,17.09,101.15,25.64,151.73,10.35,61.27,20.71,122.55,31.06,183.82,11.24,66.51,22.48,133.02,33.72,199.54,11.24,66.51,22.48,133.02,33.72,199.53,10.27,60.78,20.54,121.55,30.81,182.33,8.35,49.39,16.69,98.78,25.04,148.17,5.54,32.76,11.07,65.53,16.61,98.29l4.28,25.32c1.03,6.11,1.18,7.74,6.11,12.29,9.03,8.35,18.06,16.71,27.09,25.06,3.54,3.27,8.86-2.02,5.3-5.3-9.36-8.66-18.72-17.31-28.08-25.97-.62-.57-1.26-1.45-2-1.85-1.38-.74-.6-1.94-.02.75-.01-.06-.03-.13-.03-.2-.04-.43-.21-.87-.22-1.3-.11-5.58-1.97-11.65-2.9-17.14-4.77-28.23-9.54-56.47-14.31-84.7-7.79-46.1-15.58-92.2-23.37-138.3-9.89-58.51-19.77-117.02-29.66-175.52-11.06-65.46-22.12-130.92-33.18-196.37s-22.63-133.9-33.94-200.85c-10.64-62.98-21.29-125.97-31.93-188.95-9.05-53.56-18.1-107.12-27.15-160.68-6.52-38.58-13.04-77.16-19.56-115.74-2.04-12.09-4.09-24.18-6.13-36.27-1.05-6.22-1.56-12.88-3.21-18.98-.21-.76-.27-1.59-.4-2.37l-6.27,3.65c10.17,9.7,20.35,19.4,30.52,29.1,3.49,3.33,8.81-1.96,5.3-5.3h0Z"/><polygon class="cls-2" points="618.36 3788.65 506.91 3788.15 732.9 2432.78 844.35 2451.28 618.36 3788.65"/><path class="cls-1" d="m618.36,3784.9c-37.15-.17-74.3-.33-111.45-.5l3.62,4.75c2.03-12.16,4.05-24.31,6.08-36.47,5.47-32.79,10.94-65.59,16.4-98.38,8.14-48.81,16.28-97.61,24.41-146.42,9.86-59.14,19.72-118.28,29.58-177.42,10.83-64.98,21.67-129.96,32.5-194.94,10.94-65.59,21.87-131.18,32.81-196.78,10.2-61.16,20.39-122.32,30.59-183.47,8.62-51.68,17.23-103.36,25.85-155.04,6.19-37.15,12.39-74.31,18.58-111.46,1.93-11.58,3.86-23.17,5.79-34.75.98-5.87,2.66-12.05,3-18,.04-.74.25-1.51.37-2.24l-4.61,2.62c37.15,6.17,74.3,12.33,111.45,18.5l-2.62-4.61c-2.03,11.99-4.05,23.98-6.08,35.97-5.46,32.34-10.93,64.68-16.39,97.02-8.13,48.13-16.27,96.27-24.4,144.4-9.86,58.32-19.71,116.65-29.57,174.97-10.87,64.32-21.74,128.63-32.6,192.95-10.9,64.48-21.79,128.96-32.69,193.44-10.23,60.53-20.46,121.07-30.69,181.6-8.59,50.81-17.17,101.62-25.76,152.44-6.22,36.79-12.43,73.58-18.65,110.37-2.93,17.32-5.93,34.62-8.78,51.95-.12.76-.26,1.51-.38,2.27-.8,4.72,6.43,6.75,7.23,1.99,2.03-11.99,4.05-23.98,6.08-35.97,5.46-32.34,10.93-64.68,16.39-97.02,8.13-48.13,16.27-96.27,24.4-144.4,9.86-58.32,19.71-116.65,29.57-174.97,10.87-64.32,21.74-128.63,32.6-192.95,10.9-64.48,21.79-128.96,32.69-193.44,10.23-60.53,20.46-121.07,30.69-181.6,8.59-50.81,17.17-101.62,25.76-152.44,6.22-36.79,12.43-73.58,18.65-110.37,2.93-17.32,5.93-34.62,8.78-51.95.12-.76.26-1.51.38-2.27.31-1.83-.46-4.26-2.62-4.61-37.15-6.17-74.3-12.33-111.45-18.5-1.83-.3-4.25.46-4.61,2.62-2.03,12.16-4.05,24.31-6.08,36.47-5.47,32.79-10.94,65.59-16.4,98.38-8.14,48.81-16.28,97.61-24.41,146.42-9.86,59.14-19.72,118.28-29.58,177.42-10.83,64.98-21.67,129.96-32.5,194.94-10.94,65.59-21.87,131.18-32.81,196.78-10.2,61.16-20.39,122.32-30.59,183.47-8.62,51.68-17.23,103.36-25.85,155.04-6.19,37.15-12.39,74.31-18.58,111.46-2.93,17.58-5.94,35.15-8.8,52.75-.12.75-.25,1.49-.37,2.24-.4,2.37.98,4.74,3.62,4.75,37.15.17,74.3.33,111.45.5,4.83.02,4.83-7.48,0-7.5Z"/><polygon class="cls-2" points="2123.49 3788.65 2234.94 3788.15 2008.95 2432.78 1897.5 2451.28 2123.49 3788.65"/><path class="cls-1" d="m2123.49,3792.4c37.15-.17,74.3-.33,111.45-.5,2.64-.01,4.01-2.38,3.62-4.75-2.03-12.16-4.05-24.31-6.08-36.47-5.47-32.79-10.94-65.59-16.4-98.38-8.14-48.81-16.28-97.61-24.41-146.42-9.86-59.14-19.72-118.28-29.58-177.42-10.83-64.98-21.67-129.96-32.5-194.94s-21.87-131.18-32.81-196.78c-10.2-61.16-20.39-122.32-30.59-183.47-8.62-51.68-17.23-103.36-25.85-155.04-6.19-37.15-12.39-74.31-18.58-111.46-2.93-17.55-5.35-35.29-8.8-52.75-.15-.74-.25-1.5-.37-2.24-.36-2.14-2.79-2.92-4.61-2.62-37.15,6.17-74.3,12.33-111.45,18.5-2.14.35-2.93,2.79-2.62,4.61,2.03,11.99,4.05,23.98,6.08,35.97,5.46,32.34,10.93,64.68,16.39,97.02,8.13,48.13,16.27,96.27,24.4,144.4,9.86,58.32,19.71,116.65,29.57,174.97,10.87,64.32,21.74,128.63,32.6,192.95,10.9,64.48,21.79,128.96,32.69,193.44,10.23,60.53,20.46,121.07,30.69,181.6,8.59,50.81,17.17,101.62,25.76,152.44,6.22,36.79,12.43,73.58,18.65,110.37,2.92,17.29,5.35,34.75,8.78,51.95.15.75.26,1.51.38,2.27.8,4.75,8.03,2.74,7.23-1.99-2.03-11.99-4.05-23.98-6.08-35.97-5.46-32.34-10.93-64.68-16.39-97.02-8.13-48.13-16.27-96.27-24.4-144.4-9.86-58.32-19.71-116.65-29.57-174.97-10.87-64.32-21.74-128.63-32.6-192.95-10.9-64.48-21.79-128.96-32.69-193.44-10.23-60.53-20.46-121.07-30.69-181.6-8.59-50.81-17.17-101.62-25.76-152.44-6.22-36.79-12.43-73.58-18.65-110.37-1.92-11.36-3.84-22.72-5.76-34.09-.99-5.86-1.5-12.11-3.02-17.86-.19-.73-.26-1.52-.38-2.27l-2.62,4.61c37.15-6.17,74.3-12.33,111.45-18.5l-4.61-2.62c2.03,12.16,4.05,24.31,6.08,36.47,5.47,32.79,10.94,65.59,16.4,98.38,8.14,48.81,16.28,97.61,24.41,146.42,9.86,59.14,19.72,118.28,29.58,177.42,10.83,64.98,21.67,129.96,32.5,194.94,10.94,65.59,21.87,131.18,32.81,196.78,10.2,61.16,20.39,122.32,30.59,183.47,8.62,51.68,17.23,103.36,25.85,155.04,6.19,37.15,12.39,74.31,18.58,111.46,1.93,11.58,3.86,23.17,5.79,34.75.98,5.9,1.45,12.22,3,18,.19.72.25,1.5.37,2.24l3.62-4.75c-37.15.17-74.3.33-111.45.5-4.82.02-4.83,7.52,0,7.5Z"/><polyline class="cls-2" points="1183.02 443.92 1233.63 144.38 1122.18 125.88 1068.19 449.69"/><path class="cls-1" d="m1186.63,444.91c5.71-33.76,11.41-67.53,17.12-101.29,9.09-53.78,18.18-107.56,27.27-161.35,2.08-12.3,4.16-24.6,6.24-36.9.31-1.83-.46-4.26-2.62-4.61-32.52-5.4-65.05-10.8-97.57-16.2-4.63-.77-9.25-1.54-13.88-2.3-1.83-.3-4.25.46-4.61,2.62-6.12,36.67-12.23,73.35-18.35,110.02-9.67,57.99-19.34,115.98-29.01,173.98-2.21,13.27-4.43,26.54-6.64,39.81-.79,4.72,6.44,6.75,7.23,1.99,6.12-36.67,12.23-73.35,18.35-110.02,9.67-57.99,19.34-115.98,29.01-173.98,2.21-13.27,4.43-26.54,6.64-39.81l-4.61,2.62c32.52,5.4,65.05,10.8,97.57,16.2,4.63.77,9.25,1.54,13.88,2.3l-2.62-4.61c-5.71,33.76-11.41,67.53-17.12,101.29-9.09,53.78-18.18,107.56-27.27,161.35-2.08,12.3-4.16,24.6-6.24,36.9-.8,4.72,6.43,6.75,7.23,1.99h0Z"/><path class="cls-4" d="m1197.11,361.75l36.31-217.5,22.1,20.48.14,1.13-46.43,275.32"/><path class="cls-1" d="m1200.73,362.75c4.08-24.45,8.16-48.9,12.25-73.36,6.52-39.02,13.03-78.05,19.55-117.07,1.51-9.02,3.01-18.05,4.52-27.07l-6.27,1.65c7.37,6.83,14.74,13.66,22.1,20.48l-1.1-2.65c.14,1.15.49-.33.21.51-.15.44-.18.99-.24,1.45-.24,1.75-.59,3.49-.88,5.23-1.12,6.61-2.23,13.23-3.35,19.84-3.69,21.9-7.39,43.79-11.08,65.69-8.36,49.58-16.72,99.16-25.09,148.75-1.91,11.33-3.82,22.66-5.73,33.99-.8,4.72,6.43,6.75,7.23,1.99,6.33-37.55,12.67-75.1,19-112.65,8.51-50.47,17.03-100.95,25.54-151.42.62-3.7,1.58-7.5,1.9-11.24.48-5.68-6.29-9.58-10.01-13.03-4.4-4.08-8.8-8.16-13.2-12.23-1.88-1.74-5.78-1.29-6.27,1.65-4.08,24.45-8.16,48.9-12.25,73.36-6.52,39.02-13.03,78.05-19.55,117.07-1.51,9.02-3.01,18.05-4.52,27.07-.79,4.72,6.44,6.75,7.23,1.99h0Z"/><polyline class="cls-2" points="1558.84 443.92 1508.22 144.38 1619.67 125.88 1673.66 449.69"/><path class="cls-1" d="m1562.45,442.92c-5.71-33.76-11.41-67.53-17.12-101.29-9.09-53.78-18.18-107.56-27.27-161.35-2.08-12.3-4.16-24.6-6.24-36.9l-2.62,4.61c32.52-5.4,65.05-10.8,97.57-16.2,4.63-.77,9.25-1.54,13.88-2.3l-4.61-2.62c6.12,36.67,12.23,73.35,18.35,110.02,9.67,57.99,19.34,115.98,29.01,173.98,2.21,13.27,4.43,26.54,6.64,39.81.79,4.75,8.02,2.74,7.23-1.99-6.12-36.67-12.23-73.35-18.35-110.02-9.67-57.99-19.34-115.98-29.01-173.98-2.21-13.27-4.43-26.54-6.64-39.81-.36-2.14-2.79-2.92-4.61-2.62-32.52,5.4-65.05,10.8-97.57,16.2-4.63.77-9.25,1.54-13.88,2.3-2.14.35-2.93,2.79-2.62,4.61,5.71,33.76,11.41,67.53,17.12,101.29,9.09,53.78,18.18,107.56,27.27,161.35,2.08,12.3,4.16,24.6,6.24,36.9.8,4.75,8.03,2.74,7.23-1.99h0Z"/><path class="cls-4" d="m1532.62,441.18l-46.43-275.32.14-1.13,22.1-20.48,36.31,217.5"/><path class="cls-1" d="m1536.24,440.18c-5.26-31.17-10.51-62.34-15.77-93.52-8.35-49.49-16.69-98.99-25.04-148.48l-4.13-24.47-1.1-6.55c-.09-.56-.13-1.19-.29-1.74-.3-.98.07.17.18-.69l-1.1,2.65c7.37-6.83,14.74-13.66,22.1-20.48l-6.27-1.65c4.08,24.45,8.16,48.9,12.25,73.36,6.52,39.02,13.03,78.05,19.55,117.07,1.51,9.02,3.01,18.05,4.52,27.07.79,4.75,8.02,2.74,7.23-1.99-4.08-24.45-8.16-48.9-12.25-73.36-6.52-39.02-13.03-78.05-19.55-117.07-1.51-9.02-3.01-18.05-4.52-27.07-.49-2.94-4.39-3.4-6.27-1.65-3.68,3.41-7.37,6.83-11.05,10.24-3.43,3.18-8.28,6.43-11.05,10.24-2.27,3.12-.51,8.31.09,11.83l9.73,57.71c9.49,56.28,18.98,112.55,28.47,168.83,2.35,13.91,4.69,27.82,7.04,41.73.8,4.75,8.03,2.74,7.23-1.99h0Z"/><polyline class="cls-2" points="1673.03 449.69 1619.04 125.88 1507.59 144.38 1558.2 443.92"/><path class="cls-1" d="m1676.65,448.69c-6.12-36.67-12.23-73.35-18.35-110.02-9.67-57.99-19.34-115.98-29.01-173.98-2.21-13.27-4.43-26.54-6.64-39.81-.36-2.14-2.79-2.92-4.61-2.62-32.52,5.4-65.05,10.8-97.57,16.2-4.63.77-9.25,1.54-13.88,2.3-2.14.35-2.93,2.79-2.62,4.61,5.71,33.76,11.41,67.53,17.12,101.29,9.09,53.78,18.18,107.56,27.27,161.35,2.08,12.3,4.16,24.6,6.24,36.9.8,4.75,8.03,2.74,7.23-1.99-5.71-33.76-11.41-67.53-17.12-101.29-9.09-53.78-18.18-107.56-27.27-161.35-2.08-12.3-4.16-24.6-6.24-36.9l-2.62,4.61c32.52-5.4,65.05-10.8,97.57-16.2,4.63-.77,9.25-1.54,13.88-2.3l-4.61-2.62c6.12,36.67,12.23,73.35,18.35,110.02,9.67,57.99,19.34,115.98,29.01,173.98,2.21,13.27,4.43,26.54,6.64,39.81.79,4.75,8.02,2.74,7.23-1.99h0Z"/><rect class="cls-4" x="1326.93" y="3.75" width="88" height="411"/><path class="cls-1" d="m1414.93,411h-88l3.75,3.75V20.49c0-4.93,1.04-11.17,0-16.03-.05-.22,0-.49,0-.72l-3.75,3.75h88l-3.75-3.75v394.26c0,5.29-.37,10.74,0,16.03.02.24,0,.48,0,.72,0,4.83,7.5,4.83,7.5,0V20.49c0-5.29.37-10.74,0-16.03-.02-.24,0-.48,0-.72,0-2.03-1.72-3.75-3.75-3.75h-88c-2.03,0-3.75,1.72-3.75,3.75v394.26c0,5.29-.37,10.74,0,16.03.02.24,0,.48,0,.72,0,2.03,1.72,3.75,3.75,3.75h88c4.83,0,4.83-7.5,0-7.5Z"/><rect class="cls-2" x="506.43" y="2355.25" width="1729" height="110.5"/><path class="cls-1" d="m2235.43,2462H532.49c-7.53,0-15.63-.85-23.12,0-.95.11-1.98,0-2.94,0l3.75,3.75v-110.5l-3.75,3.75h1702.94c7.53,0,15.63.85,23.12,0,.95-.11,1.98,0,2.94,0l-3.75-3.75v110.5c0,4.83,7.5,4.83,7.5,0v-110.5c0-2.03-1.72-3.75-3.75-3.75H576.61c-22.41,0-44.84-.35-67.25,0-.98.02-1.96,0-2.94,0-2.03,0-3.75,1.72-3.75,3.75v110.5c0,2.03,1.72,3.75,3.75,3.75h1658.81c22.41,0,44.84.35,67.25,0,.98-.02,1.96,0,2.94,0,4.83,0,4.83-7.5,0-7.5Z"/><path class="cls-3" d="m506.42,2353.23l66.5-28.98v-.74h1232.7c121.1,0,242.2,0,363.3,0h-39.83l40.32.74,66.5,28.98"/><path class="cls-1" d="m508.32,2356.47c22.17-9.66,44.34-19.32,66.5-28.98,1.17-.51,1.86-2.04,1.86-3.24v-.74l-3.75,3.75h1596c4.83,0,4.83-7.5,0-7.5h-39.83c-4.83,0-4.83,7.41,0,7.5,10.29.19,20.59.38,30.88.57,2.35.04,4.86.32,7.21.13,1.69-.13,3.15.4.54-.38,2.97.9,5.92,2.58,8.76,3.82,19.18,8.36,38.37,16.72,57.55,25.08,4.38,1.91,8.2-4.55,3.79-6.48-19.73-8.6-39.45-17.19-59.18-25.79-6.43-2.8-10.14-3.72-17.21-3.85-10.78-.2-21.55-.4-32.33-.6v7.5h39.83c4.83,0,4.83-7.5,0-7.5H572.93c-2.03,0-3.75,1.72-3.75,3.75v.74l1.86-3.24c-22.17,9.66-44.34,19.32-66.5,28.98-4.41,1.92-.6,8.39,3.79,6.48h0Z"/><rect class="cls-2" x="981.96" y="363.15" width="777.93" height="110.5"/><path class="cls-1" d="m1759.89,469.9h-766.15c-3.39,0-7.09-.41-10.46,0-.43.05-.89,0-1.32,0l3.75,3.75v-110.5l-3.75,3.75h766.15c3.39,0,7.09.41,10.46,0,.43-.05.89,0,1.32,0l-3.75-3.75v110.5c0,4.83,7.5,4.83,7.5,0v-110.5c0-2.03-1.72-3.75-3.75-3.75h-746.18c-10.13,0-20.3-.26-30.43,0-.44.01-.88,0-1.32,0-2.03,0-3.75,1.72-3.75,3.75v110.5c0,2.03,1.72,3.75,3.75,3.75h746.18c10.13,0,20.3.26,30.43,0,.44-.01.88,0,1.32,0,4.83,0,4.83-7.5,0-7.5Z"/></g></svg>