<svg width="924" height="546" viewBox="0 0 924 546" fill="none" xmlns="http://www.w3.org/2000/svg">
<path d="M831.844 17.9004H80.1641V32.8904H831.844V17.9004Z" fill="#A3BAE2" stroke="#3B65EE" stroke-width="3" stroke-miterlimit="10" stroke-linecap="round"/>
<path d="M73.8919 534.531V2.14062H95.7419V534.531H120.702V544.001H48.9219V534.531H73.8919Z" fill="#D1DAED" stroke="#3B65EE" stroke-width="3" stroke-miterlimit="10" stroke-linecap="round" stroke-linejoin="round"/>
<path d="M101.76 91.2402L48.4297 194.11L132.56 218.04L129.94 127.33L101.76 91.2402Z" fill="white" stroke="#3B65EE" stroke-width="3" stroke-miterlimit="10" stroke-linecap="round" stroke-linejoin="round"/>
<path d="M198.84 53.5911V34.9311C198.84 34.9311 181.56 24.5611 190.2 14.8911C198.84 5.21111 211.62 18.5211 211.62 18.5211" stroke="#3B65EE" stroke-width="3" stroke-miterlimit="10" stroke-linecap="round" stroke-linejoin="round"/>
<path d="M263.143 71.9203L216.973 52.8003C205.863 48.2003 193.373 48.2003 182.263 52.8103L136.233 71.9103C127.283 75.6303 124.013 86.6403 129.483 94.6403L129.493 94.6503L185.073 75.6903C194.553 72.4603 204.843 72.4603 214.333 75.6903L269.913 94.6503C275.373 86.6403 272.103 75.6303 263.143 71.9203Z" fill="#D1DAED" stroke="#3B65EE" stroke-width="3" stroke-miterlimit="10" stroke-linecap="round" stroke-linejoin="round"/>
<path d="M290.818 91.2417L248.308 67.0117C248.308 67.0117 232.858 80.4317 196.288 81.9417C159.718 80.4217 144.268 67.0117 144.268 67.0117L101.758 91.2417L106.298 101.122C111.938 113.412 114.748 126.812 114.508 140.332L111.098 334.662H189.508H203.078H281.488L278.078 140.332C277.838 126.812 280.648 113.412 286.288 101.122L290.818 91.2417Z" fill="white" stroke="#3B65EE" stroke-width="3" stroke-miterlimit="10" stroke-linecap="round" stroke-linejoin="round"/>
<path d="M186.839 148.082C185.649 154.402 184.049 160.642 182.249 166.812C180.439 172.992 178.329 179.072 175.959 185.062C173.509 191.012 170.819 196.892 167.529 202.442C164.249 207.972 160.419 213.292 155.539 217.502C157.839 215.252 159.889 212.782 161.739 210.172C163.609 207.572 165.319 204.862 166.859 202.062C169.979 196.472 172.659 190.642 175.029 184.692C177.459 178.762 179.549 172.692 181.509 166.582C182.499 163.532 183.419 160.452 184.299 157.372C185.209 154.292 186.039 151.192 186.839 148.082Z" fill="#3B65EE"/>
<path d="M290.819 91.2401L254.669 70.6402C251.189 70.2402 247.889 69.8202 244.879 69.4102C241.439 71.5402 235.319 74.7101 226.169 77.3601C224.229 89.8501 221.309 113.77 219.879 150.7C218.799 178.87 222.279 259.41 226.149 334.67H281.479L278.069 140.34C277.829 126.82 280.639 113.42 286.279 101.13L290.819 91.2401Z" fill="#D1DAED"/>
<path d="M290.818 91.2417L248.308 67.0117C248.308 67.0117 232.858 80.4317 196.288 81.9417C159.718 80.4217 144.268 67.0117 144.268 67.0117L101.758 91.2417L106.298 101.122C111.938 113.412 114.748 126.812 114.508 140.332L111.098 334.662H189.508H203.078H281.488L278.078 140.332C277.838 126.812 280.648 113.412 286.288 101.122L290.818 91.2417Z" stroke="#3B65EE" stroke-width="3" stroke-miterlimit="10" stroke-linecap="round" stroke-linejoin="round"/>
<path d="M317.794 53.5911V34.9311C317.794 34.9311 300.514 24.5611 309.154 14.8911C317.794 5.21111 330.574 18.5211 330.574 18.5211" stroke="#3B65EE" stroke-width="3" stroke-miterlimit="10" stroke-linecap="round"/>
<path d="M382.095 71.9203L335.925 52.8003C324.815 48.2003 312.325 48.2003 301.215 52.8103L255.185 71.9103C246.235 75.6303 248.445 94.6503 248.445 94.6503L304.025 75.6903C313.505 72.4603 323.795 72.4603 333.285 75.6903C333.265 75.6903 391.055 75.6303 382.095 71.9203Z" fill="#D1DAED" stroke="#3B65EE" stroke-width="3" stroke-miterlimit="10" stroke-linecap="round"/>
<path d="M394.846 150.701C392.616 92.8314 386.686 66.8613 386.686 66.8613C386.686 66.8613 346.646 73.9413 319.206 72.8813V72.8013C318.886 72.8213 318.566 72.8313 318.246 72.8413C317.926 72.8313 317.596 72.8213 317.286 72.8013V72.8813C289.846 73.9413 249.806 66.8613 249.806 66.8613C249.806 66.8613 243.866 92.8314 241.646 150.701C239.416 208.571 256.486 487.541 256.486 487.541H304.716L318.256 193.331L331.786 487.541H380.016C380.006 487.541 397.076 208.571 394.846 150.701Z" fill="white" stroke="#3B65EE" stroke-width="3" stroke-miterlimit="10" stroke-linecap="round" stroke-linejoin="round"/>
<path d="M394.848 150.702C393.268 109.652 389.828 84.6716 387.958 73.6016L331.568 111.962C331.568 111.962 324.248 147.412 320.738 194.692C317.238 241.972 336.498 410.062 336.498 410.062H375.058L373.268 374.162H386.498C391.058 289.862 396.128 183.902 394.848 150.702Z" fill="#D1DAED"/>
<path d="M394.846 150.701C392.616 92.8314 386.686 66.8613 386.686 66.8613C386.686 66.8613 346.646 73.9413 319.206 72.8813V72.8013C318.886 72.8213 318.566 72.8313 318.246 72.8413C317.926 72.8313 317.596 72.8213 317.286 72.8013V72.8813C289.846 73.9413 249.806 66.8613 249.806 66.8613C249.806 66.8613 243.866 92.8314 241.646 150.701C239.416 208.571 256.486 487.541 256.486 487.541H304.716L318.256 193.331L331.786 487.541H380.016C380.006 487.541 397.076 208.571 394.846 150.701Z" stroke="#3B65EE" stroke-width="3" stroke-miterlimit="10" stroke-linecap="round" stroke-linejoin="round"/>
<path d="M265.965 110.73C265.965 110.73 263.935 140.14 241.625 156.36" stroke="#3B65EE" stroke-width="3" stroke-miterlimit="10" stroke-linecap="round" stroke-linejoin="round"/>
<path d="M370.523 110.73C370.523 110.73 372.553 140.14 394.863 156.36" stroke="#3B65EE" stroke-width="3" stroke-miterlimit="10" stroke-linecap="round" stroke-linejoin="round"/>
<path d="M437.789 47.3206C437.789 47.3206 471.049 31.4206 506.839 47.3206L506.269 272.161L499.149 364.771L449.279 355.611L437.789 47.3206Z" fill="#D1DAED" stroke="#3B65EE" stroke-width="3" stroke-miterlimit="10" stroke-linecap="round" stroke-linejoin="round"/>
<path d="M471.551 53.5911V34.9311C471.551 34.9311 454.271 24.5611 462.911 14.8911C471.551 5.21111 484.331 18.5211 484.331 18.5211" stroke="#3B65EE" stroke-width="3" stroke-miterlimit="10" stroke-linecap="round" stroke-linejoin="round"/>
<path d="M516.009 64.4206L489.658 52.7906C478.548 48.1906 466.059 48.1905 454.949 52.8005L423.929 66.7906C414.979 70.5106 396.688 86.6306 402.158 94.6306L402.168 94.6406L457.749 75.6805C467.229 72.4505 477.519 72.4505 487.009 75.6805L542.589 94.6406C548.079 86.6406 516.009 64.4206 516.009 64.4206Z" fill="#D1DAED" stroke="#3B65EE" stroke-width="3" stroke-miterlimit="10" stroke-linecap="round" stroke-linejoin="round"/>
<path d="M353.341 111.961C353.341 111.961 346.011 147.411 342.511 194.691C339.011 241.971 358.271 410.061 358.271 410.061H396.831L395.041 374.161L423.931 184.181L385.411 126.401L353.341 111.961Z" fill="white" stroke="#3B65EE" stroke-width="3" stroke-miterlimit="10" stroke-linecap="round" stroke-linejoin="round"/>
<path d="M440.388 65.5703L416.928 68.7003L353.328 111.97C353.328 111.97 395.578 160.82 404.938 197.46C414.298 234.1 395.038 374.18 395.038 374.18H466.828L464.888 99.4603L440.388 65.5703Z" fill="white" stroke="#3B65EE" stroke-width="3" stroke-miterlimit="10" stroke-linecap="round" stroke-linejoin="round"/>
<path d="M416.93 68.7003L464.89 99.4503L437.79 47.3203L416.93 68.7003Z" fill="white" stroke="#3B65EE" stroke-width="3" stroke-miterlimit="10" stroke-linecap="round" stroke-linejoin="round"/>
<path d="M591.278 111.961C591.278 111.961 598.597 147.411 602.107 194.691C605.607 241.971 586.347 410.061 586.347 410.061H547.787L549.578 374.161L520.688 184.181L559.208 126.401L591.278 111.961Z" fill="white" stroke="#3B65EE" stroke-width="3" stroke-miterlimit="10" stroke-linecap="round" stroke-linejoin="round"/>
<path d="M504.229 65.5703L527.689 68.7003L591.289 111.97C591.289 111.97 549.039 160.82 539.679 197.46C530.319 234.1 549.579 374.18 549.579 374.18H492.219L479.719 99.4603L504.229 65.5703Z" fill="white" stroke="#3B65EE" stroke-width="3" stroke-miterlimit="10" stroke-linecap="round" stroke-linejoin="round"/>
<path d="M591.281 111.96L534.411 73.2695L502.881 91.2395L496.971 110.65C492.071 126.75 488.901 143.32 487.521 160.09L484.281 199.47L492.231 374.17H518.391L520.261 334.66H544.741C539.761 290.35 533.541 221.54 539.691 197.45C549.031 160.82 591.281 111.96 591.281 111.96Z" fill="#D1DAED"/>
<path d="M504.229 65.5703L527.689 68.7003L591.289 111.97C591.289 111.97 549.039 160.82 539.679 197.46C530.319 234.1 549.579 374.18 549.579 374.18H492.219L479.719 99.4603L504.229 65.5703Z" stroke="#3B65EE" stroke-width="3" stroke-miterlimit="10" stroke-linecap="round" stroke-linejoin="round"/>
<path d="M527.677 68.7003L479.727 99.4503L506.827 47.3203L527.677 68.7003Z" fill="white" stroke="#3B65EE" stroke-width="3" stroke-miterlimit="10" stroke-linecap="round" stroke-linejoin="round"/>
<path d="M524.65 91.2402L518.74 110.65C513.84 126.75 510.67 143.32 509.29 160.09L496.27 318.15C495.28 330.14 495.34 342.19 496.45 354.17L498.55 376.88H540.02L545.3 265.3L552.84 127.33L524.65 91.2402Z" fill="white" stroke="#3B65EE" stroke-width="3" stroke-miterlimit="10" stroke-linecap="round" stroke-linejoin="round"/>
<path d="M617.88 53.5911V34.9311C617.88 34.9311 600.6 24.5611 609.24 14.8911C617.88 5.21111 630.66 18.5211 630.66 18.5211" stroke="#3B65EE" stroke-width="3" stroke-miterlimit="10" stroke-linecap="round" stroke-linejoin="round"/>
<path d="M671.202 67.0205L636.002 52.7906C624.892 48.1906 612.402 48.1905 601.292 52.8005L567.162 67.0106C567.162 67.0106 543.032 86.6306 548.502 94.6306L548.512 94.6406L604.092 75.6805C613.572 72.4505 623.862 72.4505 633.352 75.6805L688.932 94.6406C694.412 86.6406 671.202 67.0205 671.202 67.0205Z" fill="#D1DAED" stroke="#3B65EE" stroke-width="3" stroke-miterlimit="10" stroke-linecap="round" stroke-linejoin="round"/>
<path d="M713.706 91.2422L719.616 110.652C724.516 126.752 727.686 143.322 729.066 160.092L742.086 318.152C743.076 330.142 743.016 342.192 741.906 354.172L739.806 376.882H698.336L693.056 265.302L685.516 127.332L713.706 91.2422Z" fill="white" stroke="#3B65EE" stroke-width="3" stroke-miterlimit="10" stroke-linecap="round" stroke-linejoin="round"/>
<path d="M713.708 91.2417L671.198 67.0117C671.198 67.0117 655.748 80.4317 619.178 81.9417C582.608 80.4217 567.158 67.0117 567.158 67.0117L524.648 91.2417L529.188 101.122C534.828 113.412 537.638 126.812 537.398 140.332L533.988 334.662H612.398H625.968H704.378L700.968 140.332C700.728 126.812 703.538 113.412 709.178 101.122L713.708 91.2417Z" fill="white" stroke="#3B65EE" stroke-width="3" stroke-miterlimit="10" stroke-linecap="round" stroke-linejoin="round"/>
<path d="M713.705 91.2417L676.885 70.2617L660.245 78.4217C660.245 78.4217 639.445 87.3817 633.155 122.842C626.865 158.302 630.785 319.712 630.785 319.712L663.205 324.452L666.035 296.782L704.135 321.272L700.965 140.332C700.725 126.812 703.535 113.412 709.175 101.122L713.705 91.2417Z" fill="#D1DAED"/>
<path d="M582.078 153.381C584.148 158.631 586.448 163.791 588.888 168.871C591.308 173.971 593.888 178.981 596.618 183.921C602.088 193.781 608.058 203.371 614.848 212.361C618.228 216.861 621.748 221.271 625.538 225.431C629.338 229.591 633.318 233.571 637.548 237.291C641.798 240.971 646.268 244.431 651.008 247.461C655.768 250.481 660.778 253.081 665.988 255.261C660.688 253.291 655.608 250.771 650.748 247.871C645.928 244.901 641.388 241.501 637.048 237.861C628.438 230.491 620.858 221.981 614.058 212.951C610.658 208.421 607.508 203.721 604.478 198.941C601.468 194.151 598.598 189.271 595.948 184.281C590.648 174.311 585.878 164.021 582.078 153.381Z" fill="#3B65EE"/>
<path d="M572.281 173.062C573.021 178.662 574.001 184.222 575.141 189.742C576.251 195.272 577.541 200.763 578.991 206.213C581.911 217.103 585.381 227.852 589.791 238.222C591.981 243.402 594.331 248.532 597.001 253.492C599.681 258.442 602.571 263.282 605.781 267.912C609.021 272.512 612.511 276.942 616.381 281.042C620.261 285.122 624.501 288.862 629.031 292.242C624.371 289.052 620.051 285.373 616.031 281.383C612.071 277.333 608.491 272.932 605.161 268.352C598.591 259.112 593.301 249.032 588.881 238.612C586.681 233.402 584.751 228.073 582.981 222.703C581.221 217.323 579.611 211.902 578.261 206.412C575.531 195.442 573.391 184.312 572.281 173.062Z" fill="#3B65EE"/>
<path d="M713.708 91.2417L671.198 67.0117C671.198 67.0117 655.748 80.4317 619.178 81.9417C582.608 80.4217 567.158 67.0117 567.158 67.0117L524.648 91.2417L529.188 101.122C534.828 113.412 537.638 126.812 537.398 140.332L533.988 334.662H612.398H625.968H704.378L700.968 140.332C700.728 126.812 703.538 113.412 709.178 101.122L713.708 91.2417Z" stroke="#3B65EE" stroke-width="3" stroke-miterlimit="10" stroke-linecap="round" stroke-linejoin="round"/>
<path d="M726.878 56.4206L727.788 56.0005C748.268 46.5605 771.748 46.0205 792.648 54.5205L797.328 56.4206L798.418 299.521L719.078 290.901L726.878 56.4206Z" fill="white" stroke="#3B65EE" stroke-width="3" stroke-miterlimit="10" stroke-linecap="round" stroke-linejoin="round"/>
<path d="M760.473 53.5911V34.9311C760.473 34.9311 743.193 24.5611 751.833 14.8911C760.473 5.21111 773.253 18.5211 773.253 18.5211" stroke="#3B65EE" stroke-width="3" stroke-miterlimit="10" stroke-linecap="round" stroke-linejoin="round"/>
<path d="M824.76 71.9203L778.59 52.8003C767.48 48.2003 754.99 48.2003 743.88 52.8103L697.85 71.9103C688.9 75.6303 685.63 86.6403 691.1 94.6403L691.11 94.6503L746.69 75.6903C756.17 72.4603 766.46 72.4603 775.95 75.6903L831.53 94.6503C837 86.6403 833.72 75.6303 824.76 71.9203Z" fill="#D1DAED" stroke="#3B65EE" stroke-width="3" stroke-miterlimit="10" stroke-linecap="round" stroke-linejoin="round"/>
<path d="M705.528 123.632L682.018 78.4219C682.018 78.4219 661.218 87.3819 654.928 122.842C648.638 158.302 652.558 319.712 652.558 319.712L684.978 324.452L705.528 123.632Z" fill="white" stroke="#3B65EE" stroke-width="3" stroke-miterlimit="10" stroke-linecap="round" stroke-linejoin="round"/>
<path d="M726.882 56.4219L737.582 73.4419C745.902 86.6819 749.632 102.292 748.182 117.872L729.082 323.312L677.602 290.222L682.012 78.4219L726.882 56.4219Z" fill="white" stroke="#3B65EE" stroke-width="3" stroke-miterlimit="10" stroke-linecap="round" stroke-linejoin="round"/>
<path d="M818.672 123.632L842.182 78.4219C842.182 78.4219 862.982 87.3819 869.272 122.842C875.562 158.302 871.642 319.712 871.642 319.712L839.222 324.452L818.672 123.632Z" fill="white" stroke="#3B65EE" stroke-width="3" stroke-miterlimit="10" stroke-linecap="round" stroke-linejoin="round"/>
<path d="M797.325 56.4219L786.625 73.4419C778.305 86.6819 774.575 102.292 776.025 117.872L795.125 323.312L846.605 290.222L842.195 78.4219L797.325 56.4219Z" fill="white" stroke="#3B65EE" stroke-width="3" stroke-miterlimit="10" stroke-linecap="round" stroke-linejoin="round"/>
<path d="M850.609 534.531V2.14062H828.749V534.531H803.789V544.001H875.569V534.531H850.609Z" fill="#D1DAED" stroke="#3B65EE" stroke-width="3" stroke-miterlimit="10" stroke-linecap="round" stroke-linejoin="round"/>
<path d="M600.567 542.321L590.278 542.601L579.987 542.811L559.398 543.221C545.668 543.441 531.947 543.621 518.227 543.761C504.497 543.931 490.727 543.971 477.047 544.071L435.878 544.171L394.698 544.071C380.978 543.971 367.258 543.941 353.528 543.771C339.798 543.601 326.027 543.441 312.357 543.231L291.768 542.811L281.477 542.601L271.188 542.321L281.477 542.041L291.768 541.831L312.357 541.411C326.067 541.201 326.507 539.221 340.237 539.071C353.967 538.901 346.357 532.951 346.357 532.951L579.977 541.831L600.567 542.321Z" fill="#D1DAED"/>
<path d="M609.719 314.282C549.109 272.502 345.569 231.852 345.569 231.852C345.569 231.852 318.719 351.882 305.609 486.842C395.309 487.142 570.069 528.352 570.069 528.352C570.069 528.352 581.319 407.202 609.719 314.282Z" fill="white" stroke="#3B65EE" stroke-width="3" stroke-miterlimit="10" stroke-linecap="round"/>
<path d="M607.519 314.821C600.829 316.621 580.589 323.211 570.329 339.081C548.269 298.851 508.029 274.721 491.719 267.551C537.899 280.951 583.259 296.851 607.809 312.991C608.539 313.471 608.369 314.591 607.519 314.821Z" fill="#D1DAED" stroke="#D1DAED" stroke-width="3" stroke-miterlimit="10" stroke-linecap="round"/>
<path d="M609.069 314.591C606.029 316.131 592.959 323.461 582.079 340.281C560.019 300.051 508.029 274.711 491.719 267.541C538.729 281.181 584.899 297.411 609.119 313.851C609.389 314.041 609.359 314.451 609.069 314.591Z" fill="white" stroke="#3B65EE" stroke-width="3" stroke-miterlimit="10" stroke-linecap="round"/>
<path d="M487.769 351.842C495.949 352.132 502.819 345.692 503.109 337.472C503.399 329.252 496.999 322.342 488.819 322.062C480.639 321.772 473.769 328.212 473.479 336.432C473.179 344.652 479.579 351.562 487.769 351.842Z" fill="#3B65EE"/>
<path d="M443.317 350.282C451.497 350.572 458.367 344.132 458.657 335.912C458.947 327.692 452.547 320.792 444.357 320.502C436.177 320.212 429.307 326.652 429.017 334.872C428.727 343.092 435.137 349.992 443.317 350.282Z" fill="#3B65EE"/>
<path d="M520.808 376.321C521.628 376.471 522.408 376.791 523.098 377.261C523.788 377.731 524.368 378.331 524.808 379.041C525.248 379.741 525.538 380.531 525.668 381.361C525.788 382.181 525.738 383.021 525.518 383.831C520.988 398.561 511.148 411.081 497.908 418.961C484.668 426.851 468.978 429.541 453.868 426.511C438.758 423.481 425.318 414.961 416.138 402.581C406.958 390.201 402.708 374.861 404.198 359.521C404.308 358.701 404.578 357.901 405.008 357.191C405.438 356.481 406.008 355.861 406.678 355.381C407.358 354.901 408.128 354.561 408.938 354.391C409.748 354.221 410.588 354.221 411.408 354.391L520.808 376.321Z" fill="#3B65EE"/>
<path d="M429.109 309.882C437.509 292.242 454.159 299.232 454.159 299.232Z" fill="white"/>
<path d="M429.109 309.882C429.159 309.212 429.279 308.552 429.419 307.892C429.569 307.232 429.689 306.551 429.939 305.921C430.199 305.301 430.479 304.681 430.789 304.061C430.939 303.751 431.089 303.442 431.269 303.142C431.469 302.862 431.659 302.571 431.869 302.291C432.289 301.731 432.699 301.162 433.169 300.632C433.669 300.142 434.209 299.671 434.749 299.191C435.259 298.681 435.919 298.362 436.519 297.962L437.449 297.411C437.769 297.241 438.109 297.121 438.439 296.971C441.089 295.821 444.049 295.482 446.789 295.892C449.529 296.322 452.149 297.351 454.159 299.221C451.459 299.321 449.039 299.492 446.749 299.822C444.459 300.162 442.349 300.732 440.379 301.582C440.129 301.682 439.869 301.752 439.629 301.882C439.389 302.012 439.159 302.152 438.919 302.272C438.439 302.522 437.929 302.721 437.489 303.051C437.029 303.351 436.569 303.651 436.079 303.931C435.639 304.271 435.199 304.631 434.729 304.971C434.499 305.151 434.259 305.311 434.019 305.481L433.369 306.072C432.929 306.472 432.469 306.862 431.989 307.262C431.069 308.102 430.209 309.022 429.109 309.882Z" fill="#3B65EE"/>
<path d="M507.241 314.422C501.421 295.772 483.961 300.332 483.961 300.332Z" fill="white"/>
<path d="M507.243 314.422C506.263 313.412 505.553 312.382 504.763 311.422C504.343 310.962 503.943 310.502 503.563 310.052L503.003 309.372C502.793 309.172 502.573 308.972 502.373 308.762C501.963 308.362 501.583 307.942 501.183 307.542C500.733 307.202 500.323 306.832 499.913 306.472C499.523 306.082 499.043 305.822 498.613 305.502C498.393 305.352 498.183 305.182 497.963 305.022C497.743 304.862 497.493 304.762 497.263 304.622C495.433 303.512 493.423 302.642 491.203 301.982C488.983 301.322 486.613 300.822 483.953 300.332C486.213 298.772 488.953 298.122 491.723 298.082C494.493 298.072 497.373 298.822 499.843 300.342C500.153 300.532 500.473 300.702 500.763 300.912L501.613 301.582C502.153 302.062 502.753 302.472 503.183 303.052C503.643 303.602 504.113 304.142 504.543 304.702C504.933 305.292 505.253 305.912 505.593 306.522C505.763 306.822 505.913 307.142 506.073 307.442C506.203 307.762 506.313 308.092 506.413 308.422C506.623 309.072 506.813 309.732 506.983 310.382C507.143 311.032 507.173 311.732 507.223 312.402C507.253 313.082 507.283 313.752 507.243 314.422Z" fill="#3B65EE"/>
<path d="M275.168 439.592C275.168 439.592 268.348 361.822 283.168 363.002C297.988 364.182 312.758 434.672 312.758 434.672" stroke="#3B65EE" stroke-width="3" stroke-miterlimit="10" stroke-linecap="round" stroke-linejoin="round"/>
<path d="M191.789 542.962H314.429V410.332L206.529 421.382L191.789 542.962Z" fill="white" stroke="#3B65EE" stroke-width="3" stroke-miterlimit="10" stroke-linecap="round" stroke-linejoin="round"/>
<path d="M290.438 471.043C290.438 471.043 279.498 512.823 250.148 521.283C250.148 521.283 268.158 519.353 278.808 508.443C289.468 497.533 290.438 471.043 290.438 471.043Z" fill="#D1DAED"/>
<path d="M290.442 471.043C289.512 476.593 287.762 481.983 285.582 487.183C283.392 492.383 280.652 497.383 277.372 502.033C275.692 504.323 273.912 506.563 271.962 508.643C269.962 510.683 267.882 512.653 265.582 514.353C263.282 516.053 260.822 517.523 258.252 518.743C255.642 519.893 252.932 520.773 250.172 521.273C252.752 520.143 255.222 518.913 257.552 517.453C259.872 515.973 262.042 514.313 264.112 512.533C268.182 508.893 271.792 504.773 274.942 500.293C276.572 498.093 278.022 495.763 279.442 493.403C280.882 491.063 282.182 488.633 283.482 486.193C286.002 481.283 288.332 476.243 290.442 471.043Z" fill="#3B65EE"/>
<path d="M325.58 417.912L314.43 410.332V542.962L325.58 513.112V417.912Z" fill="#D1DAED" stroke="#3B65EE" stroke-width="3" stroke-miterlimit="10" stroke-linecap="round" stroke-linejoin="round"/>
<path d="M340.078 418.652L325.578 417.912V513.112L350.858 541.752L340.078 418.652Z" fill="#D1DAED" stroke="#3B65EE" stroke-width="3" stroke-miterlimit="10" stroke-linecap="round" stroke-linejoin="round"/>
<path d="M325.58 513.113L314.43 542.963H333.01L325.58 513.113Z" fill="#A3BAE2" stroke="#3B65EE" stroke-width="3" stroke-miterlimit="10" stroke-linecap="round" stroke-linejoin="round"/>
<path d="M350.858 541.753L325.578 513.113L333.008 542.963L350.858 541.753Z" fill="#A3BAE2" stroke="#3B65EE" stroke-width="3" stroke-miterlimit="10" stroke-linecap="round" stroke-linejoin="round"/>
<path d="M239.289 439.592C239.289 439.592 254.979 360.862 269.799 362.052C284.619 363.242 276.879 434.672 276.879 434.672" stroke="#3B65EE" stroke-width="3" stroke-miterlimit="10" stroke-linecap="round" stroke-linejoin="round"/>
<path d="M831.305 544C838.975 543.38 846.645 543.05 854.315 542.83C858.155 542.69 861.985 542.66 865.825 542.58L877.335 542.5L888.845 542.58C892.685 542.66 896.515 542.69 900.355 542.83C908.025 543.05 915.695 543.38 923.365 544C915.695 544.62 908.025 544.95 900.355 545.17C896.515 545.31 892.685 545.34 888.845 545.42L877.335 545.5L865.825 545.42C861.985 545.34 858.155 545.31 854.315 545.17C846.645 544.94 838.975 544.62 831.305 544Z" fill="#3B65EE"/>
<path d="M771.633 544C779.303 543.38 786.973 543.05 794.643 542.83C798.483 542.69 802.313 542.66 806.153 542.58L817.663 542.5L829.173 542.58C833.013 542.66 836.843 542.69 840.683 542.83C848.353 543.05 856.023 543.38 863.693 544C856.023 544.62 848.353 544.95 840.683 545.17C836.843 545.31 833.013 545.34 829.173 545.42L817.663 545.5L806.153 545.42C802.313 545.34 798.483 545.31 794.643 545.17C786.973 544.94 779.303 544.62 771.633 544Z" fill="#3B65EE"/>
<path d="M0.351562 544C8.02156 543.38 15.6915 543.05 23.3615 542.83C27.2015 542.69 31.0316 542.66 34.8716 542.58L46.3816 542.5L57.8916 542.58C61.7316 542.66 65.5616 542.69 69.4016 542.83C77.0716 543.05 84.7415 543.38 92.4115 544C84.7415 544.62 77.0716 544.95 69.4016 545.17C65.5616 545.31 61.7316 545.34 57.8916 545.42L46.3816 545.5L34.8716 545.42C31.0316 545.34 27.2015 545.31 23.3615 545.17C15.6915 544.94 8.02156 544.62 0.351562 544Z" fill="#3B65EE"/>
</svg>
