<?xml version="1.0" encoding="UTF-8"?>
<svg id="Layer_2" xmlns="http://www.w3.org/2000/svg" viewBox="0 0 233 44.5">
  <defs>
    <style>
      .cls-1, .cls-2 {
        fill: none;
        stroke: #3b65ee;
        stroke-linejoin: round;
      }

      .cls-3, .cls-4 {
        fill: #3b65ee;
      }

      .cls-5 {
        fill: #fff;
      }

      .cls-4 {
        opacity: .2;
      }

      .cls-2 {
        stroke-width: 2px;
      }
    </style>
  </defs>
  <g id="Layer_7">
    <g>
      <polyline class="cls-5" points="27.5 43.5 230 10 232 8 232 3 230 1 227.45 1.39 24.09 29.64"/>
      <polyline class="cls-5" points="24.09 29.64 1 40 27.5 43.5"/>
      <polygon class="cls-2" points="227.45 1.39 24.09 29.64 30.5 32.5 25.5 36.5 31.58 39 27.5 43.5 230 10 232 8 232 3 230 1 227.45 1.39"/>
      <polyline class="cls-2" points="24.09 29.64 1 40 27.5 43.5"/>
      <path class="cls-2" d="M12.91,34.66s3.39,1.68.74,7.01"/>
      <line class="cls-1" x1="30.5" y1="32.5" x2="232.5" y2="3.5"/>
      <line class="cls-1" x1="31.58" y1="39" x2="232.5" y2="7.5"/>
      <path class="cls-3" d="M35.5,35.5c20.51-3.99,41.27-7.34,62-10-20.52,3.99-41.27,7.34-62,10h0Z"/>
      <path class="cls-4" d="M2.53,39.31c.47-.31,29.04-.31,29.04-.31L233,7l-3,4L27.5,43.6l-26.5-3.6,1.53-.69Z"/>
    </g>
  </g>
</svg>