<svg width="100" height="270" viewBox="0 0 100 270" fill="none" xmlns="http://www.w3.org/2000/svg">
<g clip-path="url(#clip0_9_728)">
<path d="M72.16 66.76C60.21 60.24 60.75 32 60.75 32V3.64C60.75 3.64 58.88 1.06 49.64 1.06C40.4 1.06 37.69 3.64 37.69 3.64V32C37.69 32 38.23 60.24 26.28 66.76C9.97999 75.65 9.98999 96.93 9.98999 96.93V257.39C9.98999 257.39 14.28 267.06 50.42 267.06C86.56 267.06 88.44 257.39 88.44 257.39V96.93C88.44 96.93 88.44 75.65 72.15 66.76H72.16Z" fill="white" stroke="#3B65EE" stroke-width="2.13" stroke-linecap="round" stroke-linejoin="round"/>
<path d="M37.7 23.49C37.7 23.49 46.87 28.88 60.75 23.49" stroke="#3B65EE" stroke-width="1.28" stroke-linecap="round" stroke-linejoin="round"/>
<path d="M37.7 21.36C37.7 21.36 46.87 26.75 60.75 21.36" stroke="#3B65EE" stroke-width="1.28" stroke-linecap="round" stroke-linejoin="round"/>
<path d="M37.7 28.18C37.7 28.18 46.87 33.57 60.75 28.18" stroke="#3B65EE" stroke-width="2.13" stroke-linecap="round" stroke-linejoin="round"/>
<path d="M37.7 4.32001C37.7 4.32001 46.87 9.71001 60.75 4.32001" stroke="#3B65EE" stroke-width="2.13" stroke-linecap="round" stroke-linejoin="round"/>
<path d="M37.7 62.26C44.92 59.25 53.56 59.14 60.75 62.26C52.96 62.08 45.54 62.16 37.7 62.26Z" fill="#3B65EE"/>
<path d="M20.62 253.12C38.63 247.83 59.87 247.57 77.84 253.12C58.83 250.48 39.65 250.72 20.62 253.12Z" fill="#3B65EE"/>
<path opacity="0.2" d="M13.52 95.78V256.27C13.52 256.61 13.72 256.92 14.03 257.06C18.28 258.91 48.31 270.89 83.83 257.05C84.16 256.92 84.38 256.6 84.38 256.25V95.82C84.38 95.22 83.78 94.8 83.22 95.02C77.17 97.3 48.26 106.84 14.66 94.97C14.1 94.77 13.51 95.18 13.51 95.78H13.52Z" fill="#3B65EE"/>
<path d="M21.48 137.88V205.51C21.48 205.51 46.63 213.72 76.98 205.51V137.88C76.98 137.88 41.26 142.73 21.48 137.88Z" fill="white" stroke="#3B65EE" stroke-width="1.87" stroke-linecap="round" stroke-linejoin="round"/>
<path opacity="0.4" d="M14.16 94.79C18.89 93.46 49.02 85.77 83.58 94.85C83.8 94.91 83.83 95.21 83.62 95.3C80.91 96.49 69.19 101.05 48.87 100.8C28.58 100.55 16.86 96.34 14.14 95.23C13.93 95.14 13.94 94.84 14.16 94.78V94.79Z" fill="#3B65EE"/>
<path d="M24.46 141.71V202.08C24.46 202.08 46.91 209.41 74 202.08V141.71C74 141.71 42.12 146.04 24.46 141.71Z" fill="white" stroke="#3B65EE" stroke-width="1.28" stroke-linecap="round" stroke-linejoin="round"/>
<path d="M52.91 169.46C54.3846 169.46 55.58 168.256 55.58 166.77C55.58 165.284 54.3846 164.08 52.91 164.08C51.4354 164.08 50.24 165.284 50.24 166.77C50.24 168.256 51.4354 169.46 52.91 169.46Z" fill="#3B65EE"/>
<path d="M44.9 169.46C46.3746 169.46 47.57 168.256 47.57 166.77C47.57 165.284 46.3746 164.08 44.9 164.08C43.4254 164.08 42.23 165.284 42.23 166.77C42.23 168.256 43.4254 169.46 44.9 169.46Z" fill="#3B65EE"/>
<path d="M59.01 173.73C59.63 173.83 60.07 174.44 59.9 175.05C58.42 180.57 53 184.17 47.27 183.23C41.54 182.29 37.54 177.14 37.88 171.44C37.92 170.81 38.53 170.37 39.15 170.47L59.01 173.73Z" fill="#3B65EE"/>
<path opacity="0.2" d="M50 269.06C77.6142 269.06 100 266.374 100 263.06C100 259.746 77.6142 257.06 50 257.06C22.3858 257.06 0 259.746 0 263.06C0 266.374 22.3858 269.06 50 269.06Z" fill="#3B65EE"/>
</g>
<defs>
<clipPath id="clip0_9_728">
<rect width="100" height="269.06" fill="white"/>
</clipPath>
</defs>
</svg>
