<svg width="270" height="426" viewBox="0 0 270 426" fill="none" xmlns="http://www.w3.org/2000/svg">
<path d="M37.9883 386.278L44.2876 424.288H64.3748L66.3792 405.9L70.1235 424.288H90.8937L94.792 382.931L37.9883 386.278Z" fill="white" stroke="#3B65EE" stroke-width="2" stroke-linecap="round" stroke-linejoin="round"/>
<path d="M178.8 386.278L172.501 424.288H152.391L150.387 405.9L146.643 424.288H125.873L121.996 382.931L178.8 386.278Z" fill="white" stroke="#3B65EE" stroke-width="2" stroke-linecap="round" stroke-linejoin="round"/>
<path d="M189.724 342.234C187.235 361.9 204.393 369.982 216.022 369.74C217.703 369.705 219.349 369.258 220.815 368.437C222.282 367.616 223.524 366.446 224.432 365.031C225.339 363.617 225.885 362.001 226.02 360.325C226.155 358.65 225.876 356.967 225.207 355.426V355.426C224.555 353.904 223.543 352.563 222.259 351.519C220.974 350.475 219.455 349.758 217.831 349.431C216.208 349.104 214.53 349.176 212.941 349.641C211.352 350.106 209.9 350.95 208.71 352.1C203.269 357.474 198.886 365.115 203.49 374.122C212.542 391.74 224.876 386.984 224.876 386.984" fill="white"/>
<path d="M189.724 342.234C187.235 361.9 204.393 369.982 216.022 369.74C217.703 369.705 219.349 369.258 220.815 368.437C222.282 367.616 223.524 366.446 224.432 365.031C225.339 363.617 225.885 362.001 226.02 360.325C226.155 358.65 225.876 356.967 225.207 355.426V355.426C224.555 353.904 223.543 352.563 222.259 351.519C220.974 350.475 219.455 349.758 217.831 349.431C216.208 349.104 214.53 349.176 212.941 349.641C211.352 350.106 209.9 350.95 208.71 352.1C203.269 357.474 198.886 365.115 203.49 374.122C212.542 391.74 224.876 386.984 224.876 386.984" stroke="#3B65EE" stroke-width="2" stroke-linecap="round" stroke-linejoin="round"/>
<path d="M52.7894 266.014C41.0057 292.067 53.5162 316.335 53.5162 316.335L33.2747 321.246L27.3938 304.685L29.5964 322.149L13.4737 326.047C4.46357 309.403 1.20389 290.25 4.201 271.564C9.59728 241.46 47.5693 194.002 47.5693 194.002L91.8408 220.605C91.8408 220.605 64.5952 239.984 52.7894 266.014Z" fill="white" stroke="#3B65EE" stroke-width="2" stroke-linecap="round" stroke-linejoin="round"/>
<path d="M47.503 194.091L78.0527 157.138L91.7747 220.694C91.7747 220.694 64.595 240.073 52.7892 266.103C50.9331 270.23 49.5728 274.562 48.7366 279.008L4.06836 271.565C9.53074 241.461 47.503 194.091 47.503 194.091Z" fill="#B0C3EA" stroke="#3B65EE" stroke-width="2" stroke-linecap="round" stroke-linejoin="round"/>
<path d="M64.7048 185.942C48.3938 212.76 36.8227 242.186 30.4988 272.93C20.1908 323.581 34.221 394.052 34.221 394.052H100.981L107.192 345.207L120.76 394.052H181.067C181.067 394.052 199.238 335.01 199.238 282.311C199.238 229.612 167.3 187.176 167.3 187.176L64.7048 185.942Z" fill="#40B8A8" stroke="#3B65EE" stroke-width="2" stroke-linecap="round" stroke-linejoin="round"/>
<path d="M75.4976 204.198L66.3789 253.263H131.487L145.143 200.807L75.4976 204.198Z" fill="#B0C3EA" stroke="#3B65EE" stroke-width="2" stroke-linecap="round" stroke-linejoin="round"/>
<path d="M42.2383 188.321C42.2383 188.321 48.8461 204.639 74.8144 212.545C82.376 214.801 90.3581 215.27 98.132 213.917C105.906 212.565 113.26 209.426 119.615 204.75C119.615 204.75 156.75 207.811 178.798 183.256C200.845 158.701 192.454 114.393 192.454 114.393L138.006 111.111L42.2383 188.321Z" fill="white" stroke="#3B65EE" stroke-width="2" stroke-linecap="round" stroke-linejoin="round"/>
<path d="M128.097 197.063C128.097 197.063 119.507 206.071 110.477 209.704Z" fill="#D1DAED"/>
<path d="M128.094 197.063C127.463 198.897 126.5 200.599 125.253 202.085C124.063 203.535 122.703 204.837 121.201 205.961C119.679 207.102 118.013 208.035 116.245 208.735C114.421 209.47 112.46 209.801 110.496 209.704C111.724 208.292 113.057 206.974 114.483 205.762C115.804 204.573 117.17 203.56 118.579 202.437C119.987 201.365 121.458 200.38 122.984 199.486C124.602 198.509 126.314 197.697 128.094 197.063Z" fill="#3B65EE"/>
<path d="M89.7937 21.5467C75.5871 41.3667 92.4587 96.4221 92.4587 96.4221L138.382 88.7583C169.439 77.9014 171.641 1 171.641 1C171.641 1 104.022 1.8589 89.7937 21.5467Z" fill="#D1DAED" stroke="#3B65EE" stroke-width="2" stroke-linecap="round" stroke-linejoin="round"/>
<path d="M178.799 91.9957C178.799 91.9957 150.034 52.5099 98.0311 66.0535C53.5612 77.6592 54.5742 113.467 42.5262 133.904C40.8894 136.63 38.5163 138.839 35.6797 140.276C32.8431 141.714 29.6584 142.322 26.4916 142.03L16.668 141.215L20.8088 176.759C20.8088 176.759 53.8475 197.548 86.3795 191.007C119.418 180.965 124.792 170.262 130.145 164.889" fill="white"/>
<path d="M178.799 91.9957C178.799 91.9957 150.034 52.5099 98.0311 66.0535C53.5612 77.6592 54.5742 113.467 42.5262 133.904C40.8894 136.63 38.5163 138.839 35.6797 140.276C32.8431 141.714 29.6584 142.322 26.4916 142.03L16.668 141.215L20.8088 176.759C20.8088 176.759 53.8475 197.548 86.3795 191.007C119.418 180.965 124.792 170.262 130.145 164.889" stroke="#3B65EE" stroke-width="2" stroke-linecap="round" stroke-linejoin="round"/>
<path d="M100.717 136.965C102.518 136.965 103.977 132.518 103.977 127.033C103.977 121.547 102.518 117.101 100.717 117.101C98.9166 117.101 97.457 121.547 97.457 127.033C97.457 132.518 98.9166 136.965 100.717 136.965Z" fill="#3B65EE"/>
<path d="M62.1503 120.932C63.9505 120.932 65.4099 116.486 65.4099 111C65.4099 105.515 63.9505 101.068 62.1503 101.068C60.35 101.068 58.8906 105.515 58.8906 111C58.8906 116.486 60.35 120.932 62.1503 120.932Z" fill="#3B65EE"/>
<path d="M144.834 95.9157C144.834 95.9157 178.027 50.4841 202.101 52.5101C226.175 54.5362 268.09 114.811 268.09 114.811C268.09 114.811 206.219 154.913 178.797 132.935" fill="white"/>
<path d="M144.834 95.9157C144.834 95.9157 178.027 50.4841 202.101 52.5101C226.175 54.5362 268.09 114.811 268.09 114.811C268.09 114.811 206.219 154.913 178.797 132.935" stroke="#3B65EE" stroke-width="2" stroke-linecap="round" stroke-linejoin="round"/>
<path d="M169.262 101.091C187.94 84.42 199.393 55.9894 232.145 101.091Z" fill="#D1DAED"/>
<path d="M169.262 101.091C173.667 95.8716 177.676 90.4101 182.477 85.2789C184.829 82.6218 187.491 80.2559 190.406 78.2318C193.544 76.0548 197.23 74.8033 201.045 74.6201C204.843 74.6681 208.56 75.7246 211.815 77.6812C214.869 79.508 217.668 81.7294 220.141 84.2879C224.935 89.2871 229.012 94.9272 232.255 101.047C227.695 96.0521 222.872 91.3032 217.807 86.8204C212.785 82.6361 207.058 78.8483 201.133 78.9584C195.208 79.0685 189.812 83.3629 184.878 87.7673C179.985 92.5623 174.767 97.0141 169.262 101.091Z" fill="#3B65EE"/>
<path d="M180.274 266.323C184.899 294.533 166.508 314.772 166.508 314.772L184.811 324.77L194.767 310.279L188.159 326.597L202.718 334.548C215.742 320.825 223.878 303.193 225.867 284.381C228.466 253.946 199.304 216.112 199.304 216.112L174.635 223.82C174.635 223.82 175.671 238.134 180.274 266.323Z" fill="white" stroke="#3B65EE" stroke-width="2" stroke-linecap="round" stroke-linejoin="round"/>
<path d="M164.636 198.495C161.788 202.37 160.167 207.009 159.983 211.814C159.798 216.619 161.058 221.369 163.601 225.45C169.966 235.624 177.719 250.6 180.318 266.367C181.048 270.828 181.24 275.36 180.891 279.867L225.868 284.271C226.292 276.621 225.745 268.947 224.238 261.435C221.487 246.526 215.221 232.488 205.958 220.485C196.696 208.482 184.705 198.86 170.98 192.417V192.417C168.516 194.045 166.367 196.104 164.636 198.495V198.495Z" fill="#B0C3EA" stroke="#3B65EE" stroke-width="2" stroke-linecap="round" stroke-linejoin="round"/>
<path d="M100.43 320.63L107.258 345.184" stroke="#3B65EE" stroke-width="2" stroke-linecap="round" stroke-linejoin="round"/>
<path d="M50.4099 273.15C55.4095 273.15 59.4624 270.557 59.4624 267.358C59.4624 264.159 55.4095 261.566 50.4099 261.566C45.4103 261.566 41.3574 264.159 41.3574 267.358C41.3574 270.557 45.4103 273.15 50.4099 273.15Z" fill="#3B65EE" stroke="#3B65EE" stroke-width="2" stroke-linecap="round" stroke-linejoin="round"/>
<path d="M145.145 273.15C150.144 273.15 154.197 270.557 154.197 267.358C154.197 264.159 150.144 261.566 145.145 261.566C140.145 261.566 136.092 264.159 136.092 267.358C136.092 270.557 140.145 273.15 145.145 273.15Z" fill="#3B65EE" stroke="#3B65EE" stroke-width="2" stroke-linecap="round" stroke-linejoin="round"/>
<path d="M121.246 153.459C121.246 153.459 129.087 145.619 138.537 149.672C141.094 150.598 143.201 152.465 144.429 154.892C145.657 157.318 145.913 160.122 145.144 162.731" fill="white"/>
<path d="M121.246 153.46C122.87 150.768 125.33 148.68 128.25 147.514C131.345 146.223 134.801 146.09 137.986 147.139C139.618 147.621 141.137 148.427 142.45 149.509C143.763 150.591 144.845 151.928 145.629 153.438C146.331 154.904 146.654 156.523 146.57 158.146C146.485 159.769 145.995 161.346 145.145 162.731C145.11 160.017 144.241 157.38 142.656 155.178C141.052 153.344 138.959 152.007 136.62 151.324C134.235 150.538 131.692 150.356 129.22 150.795C126.457 151.333 123.777 152.228 121.246 153.46Z" fill="#3B65EE"/>
<path d="M48.4495 167.135C48.2293 176.825 37.635 181.648 24.7942 178.147C11.9533 174.645 1.31492 163.92 1.00656 154.098C0.698207 144.276 11.2924 138.683 24.6619 142.405C38.0314 146.126 48.6698 157.225 48.4495 167.135Z" fill="white" stroke="#3B65EE" stroke-width="2" stroke-linecap="round" stroke-linejoin="round"/>
<path d="M15.3477 153.218L17.9902 163.568" stroke="#3B65EE" stroke-width="2" stroke-linecap="round" stroke-linejoin="round"/>
<path d="M28.1426 158.393L30.7852 168.743" stroke="#3B65EE" stroke-width="2" stroke-linecap="round" stroke-linejoin="round"/>
</svg>
