<?xml version="1.0" encoding="UTF-8"?><svg id="Layer_1" xmlns="http://www.w3.org/2000/svg" viewBox="0 0 300 300"><defs><style>.cls-1{fill:#ffd96a;}.cls-2{fill:#89a3f5;}.cls-3{fill:#3b66ef;}</style></defs><path class="cls-2" d="m84.84,175.55h138.57c20.37,0,36.98-17.36,34.94-37.64-.06-.61-.14-1.23-.23-1.85-2.64-17.21-17.49-22.54-34.93-22.78,5.39-12.33.07-33.65-10.63-39.48-16.7-9.11-31.93-6.89-39.48,1.52-6.61-26.73-23.98-38.13-50.11-30.37-26.07,7.74-40.82,36.29-31.89,62.26-13.81-5.45-29.38-2.46-39.48,7.59-14.06,13.98-9.46,33.56-9.11,34.93,2.62,10.32,12.49,17.02,20.84,21.02,6.71,3.21,14.08,4.8,21.52,4.8Z"/><path class="cls-3" d="m84.84,178.05h129.99c2.84,0,5.69.04,8.53,0,11.58-.18,22.54-5.27,29.76-14.39,8.21-10.37,10.86-26.08,4.1-37.91-6.82-11.94-21.4-14.69-34.05-14.96l2.41,3.16c5.11-12.6,1.7-31.65-9.13-40.48-12.09-9.86-33.85-11.77-45.16.08l4.18,1.1c-3-11.68-8.59-23.49-19.33-29.88-10.43-6.21-23.3-5.56-34.52-2.03-27.07,8.52-41.73,38.39-32.97,65.13l3.08-3.08c-25.45-9.44-52.5,7.89-52.75,35.37-.08,8.66,2.25,16.41,8.47,22.75,9.67,9.85,23.78,14.91,37.39,15.13,3.22.05,3.22-4.95,0-5-12.11-.2-24.57-4.59-33.36-13.17-5.36-5.23-7.4-11.47-7.5-18.72-.31-24.79,23.59-40.01,46.42-31.54,1.77.66,3.64-1.35,3.08-3.08-7.9-24.09,4.9-51.24,29.47-58.98,9.96-3.13,21.37-4.01,30.67,1.52,9.62,5.72,14.36,16.49,17.04,26.89.46,1.8,2.89,2.46,4.18,1.1,9.72-10.19,30.04-8.15,39.69,1.35,8.27,8.15,10.5,23.67,6.24,34.18-.63,1.57.95,3.13,2.41,3.16,11.38.25,25.25,2.51,30.56,14.07,5.56,12.12.82,27.02-9.02,35.37s-21.74,7.82-33.81,7.82h-126.08c-3.22,0-3.22,5,0,5Z"/><path class="cls-1" d="m106.46,259.46l67.29-69.11h-32.74l34.56-43.65h-32.74c-12.86,16.3-45.47,58.2-45.47,58.2h40.01l-30.92,54.56Z"/><path class="cls-3" d="m108.23,261.23c19.64-20.17,39.27-40.33,58.91-60.5,2.8-2.87,5.59-5.74,8.39-8.61,1.5-1.54.42-4.27-1.77-4.27h-32.74l1.77,4.27c11.52-14.55,23.04-29.1,34.56-43.65,1.28-1.62.58-4.27-1.77-4.27h-28.68c-1.53,0-3.89-.42-5.32.34-2.7,1.44-5.25,6.42-7.12,8.81-3.09,3.94-6.17,7.88-9.25,11.82-6.31,8.08-12.62,16.16-18.92,24.25-3.56,4.57-7.12,9.14-10.68,13.71-1.26,1.62-.59,4.27,1.77,4.27h40.01l-2.16-3.76c-10.31,18.19-20.61,36.38-30.92,54.56-1.59,2.8,2.73,5.33,4.32,2.52,10.31-18.19,20.61-36.38,30.92-54.56.93-1.64-.24-3.76-2.16-3.76h-40.01l1.77,4.27c8.47-10.88,16.94-21.76,25.43-32.62,5.89-7.54,11.77-15.08,17.69-22.59.92-1.17,2.47-2.76.83-2.25.7-.22,1.82,0,2.55,0h29.94l-1.77-4.27c-11.52,14.55-23.04,29.1-34.56,43.65-1.28,1.62-.58,4.27,1.77,4.27h32.74l-1.77-4.27c-19.64,20.17-39.27,40.33-58.91,60.5-2.8,2.87-5.59,5.74-8.39,8.61-2.25,2.31,1.29,5.85,3.54,3.54Z"/></svg>