<svg width="571" height="578" viewBox="0 0 571 578" fill="none" xmlns="http://www.w3.org/2000/svg">
<path d="M569.171 153.84C457.521 76.88 82.571 2 82.571 2C82.571 2 33.1009 223.12 8.96094 471.72C174.201 472.27 496.131 548.18 496.131 548.18C496.131 548.18 516.841 325.01 569.171 153.84Z" fill="white" stroke="#3B65EE" stroke-width="3" stroke-miterlimit="10" stroke-linecap="round"/>
<path d="M418.87 304.51C438.09 304.51 453.67 288.93 453.67 269.71C453.67 250.491 438.09 234.91 418.87 234.91C399.651 234.91 384.07 250.491 384.07 269.71C384.07 288.93 399.651 304.51 418.87 304.51Z" fill="#D1DAED"/>
<path d="M160.8 255.33C180.019 255.33 195.6 239.75 195.6 220.53C195.6 201.311 180.019 185.73 160.8 185.73C141.58 185.73 126 201.311 126 220.53C126 239.75 141.58 255.33 160.8 255.33Z" fill="#D1DAED"/>
<path d="M565.109 154.84C552.789 158.16 515.499 170.3 496.599 199.53C455.959 125.42 381.829 80.9698 351.789 67.7598C436.859 92.4398 520.429 121.74 565.639 151.46C566.989 152.36 566.669 154.42 565.109 154.84Z" fill="#D1DAED" stroke="#D1DAED" stroke-width="3" stroke-miterlimit="10" stroke-linecap="round"/>
<path d="M567.959 154.43C562.349 157.28 538.279 170.77 518.239 201.76C477.599 127.65 381.829 80.9698 351.789 67.7598C438.389 92.8798 523.429 122.79 568.049 153.07C568.539 153.41 568.499 154.15 567.959 154.43Z" fill="white" stroke="#3B65EE" stroke-width="3" stroke-miterlimit="10" stroke-linecap="round"/>
<path d="M376.06 202.76C374.76 198.14 372.35 193.74 369.08 190.01C365.84 186.3 361.69 183.26 357.08 181.23C357.05 181.22 357.01 181.2 356.98 181.19C355.89 180.75 354.76 180.3 353.58 179.91C353.52 179.89 353.47 179.87 353.41 179.86L352.48 179.61C351.64 179.38 350.8 179.15 349.95 178.96C349.89 178.95 349.83 178.93 349.77 178.92C348.35 178.69 347.25 178.53 346.22 178.41C346.14 178.4 346.07 178.39 345.99 178.39L342.53 178.24C342.41 178.24 342.3 178.24 342.18 178.24L338.72 178.49C338.64 178.5 338.57 178.5 338.49 178.51C337.42 178.67 336.34 178.86 335.28 179.06L334.98 179.12C334.91 179.13 334.84 179.15 334.78 179.16C333.93 179.38 333.09 179.63 332.25 179.89L331.34 180.16C331.28 180.18 331.22 180.2 331.16 180.22C329.99 180.65 328.85 181.13 327.79 181.59C327.76 181.6 327.73 181.62 327.69 181.63C323.12 183.81 319.05 186.96 315.94 190.74C312.78 194.56 310.49 199.04 309.32 203.69C308.12 208.51 308.08 213.39 309.21 217.81C309.55 219.14 310.75 220.06 312.12 220.06C312.14 220.06 312.15 220.06 312.17 220.06C313.56 220.04 314.75 219.06 315.05 217.71C316.68 210.36 320.22 204.18 325.31 199.83C330.14 195.66 336.27 193.31 342.56 193.21C348.86 193.12 355.04 195.29 360 199.34C365.2 203.54 368.91 209.62 370.73 216.92C371.07 218.27 372.29 219.16 373.68 219.19C375.07 219.17 376.27 218.21 376.57 216.85C377.58 212.42 377.4 207.54 376.06 202.76Z" fill="#3B65EE"/>
<path d="M271.163 175.321C271.133 175.301 271.093 175.261 271.063 175.241C270.163 174.491 269.223 173.721 268.223 172.991C268.173 172.961 268.123 172.921 268.073 172.891L267.283 172.381C266.553 171.901 265.813 171.421 265.053 170.981C265.003 170.951 264.943 170.921 264.893 170.891C264.023 170.451 262.873 169.871 261.663 169.321C261.593 169.291 261.523 169.261 261.453 169.231L258.203 168.031C258.093 167.991 257.983 167.961 257.873 167.931L254.503 167.111C254.433 167.091 254.353 167.081 254.283 167.071C253.213 166.901 252.143 166.761 251.073 166.621L250.753 166.581C250.683 166.571 250.613 166.561 250.543 166.561C249.673 166.511 248.793 166.501 247.923 166.481L246.973 166.461C246.913 166.461 246.843 166.461 246.783 166.461C245.533 166.511 244.303 166.631 243.163 166.741C243.123 166.741 243.093 166.751 243.063 166.751C238.043 167.441 233.213 169.201 229.093 171.851C224.913 174.531 221.373 178.091 218.843 182.171C216.223 186.391 214.703 191.041 214.443 195.591C214.363 196.981 215.243 198.241 216.573 198.641C217.903 199.041 219.333 198.481 220.033 197.281C223.823 190.781 229.083 185.971 235.253 183.381C241.123 180.881 247.683 180.501 253.703 182.331C259.723 184.161 264.953 188.121 268.453 193.491C272.123 199.071 273.813 205.991 273.323 213.501C273.233 214.891 274.103 216.151 275.433 216.561C275.723 216.651 276.023 216.691 276.313 216.691C277.353 216.691 278.352 216.141 278.902 215.211C281.212 211.281 282.533 206.581 282.703 201.611C282.873 196.821 281.913 191.891 279.943 187.341C277.963 182.821 274.933 178.661 271.163 175.321Z" fill="#3B65EE"/>
<path d="M390.37 269.131C391.88 269.411 393.31 270.001 394.58 270.861C395.85 271.721 396.92 272.841 397.74 274.141C398.55 275.441 399.09 276.891 399.32 278.411C399.54 279.931 399.45 281.481 399.05 282.951C390.7 310.081 372.58 333.141 348.2 347.671C323.82 362.201 294.91 367.151 267.08 361.581C239.25 356.001 214.48 340.301 197.57 317.501C180.66 294.701 172.82 266.441 175.57 238.181C175.76 236.661 176.27 235.201 177.06 233.891C177.85 232.581 178.9 231.441 180.14 230.561C181.39 229.671 182.8 229.051 184.3 228.741C185.8 228.431 187.35 228.431 188.84 228.751L390.37 269.131Z" fill="#3B65EE"/>
<path d="M208.508 157.811C223.988 125.321 254.648 138.201 254.648 138.201L208.508 157.811Z" fill="white"/>
<path d="M208.508 157.811C209.568 153.181 211.718 148.781 214.748 144.921C216.268 143.011 218.028 141.231 220.018 139.731C220.978 138.941 222.058 138.301 223.118 137.631L224.778 136.741C225.338 136.451 225.918 136.221 226.488 135.961C231.108 134.001 236.198 133.291 241.058 133.721C245.918 134.181 250.658 135.581 254.658 138.201C249.968 137.551 245.428 137.341 241.018 137.651C236.608 137.961 232.368 138.911 228.428 140.561C226.448 141.361 224.568 142.401 222.778 143.581C221.858 144.141 221.018 144.821 220.128 145.461C219.698 145.791 219.298 146.161 218.868 146.511C218.438 146.851 218.018 147.201 217.628 147.591C214.348 150.571 211.438 154.071 208.508 157.811Z" fill="#3B65EE"/>
<path d="M398.671 166.46C387.951 132.1 355.781 140.5 355.781 140.5L398.671 166.46Z" fill="white"/>
<path d="M398.673 166.46C396.303 162.34 393.923 158.46 391.103 155.05C390.773 154.61 390.403 154.2 390.023 153.8C389.653 153.4 389.303 152.97 388.923 152.59C388.133 151.84 387.403 151.04 386.573 150.36C384.963 148.94 383.253 147.64 381.403 146.57C377.743 144.38 373.673 142.84 369.353 141.9C365.023 140.97 360.503 140.53 355.773 140.51C360.103 138.48 365.003 137.77 369.873 138.01C374.753 138.27 379.683 139.7 383.983 142.29C384.513 142.63 385.053 142.95 385.563 143.31L387.073 144.42C388.023 145.24 389.003 146.02 389.843 146.94C391.603 148.71 393.083 150.71 394.323 152.83C396.773 157.06 398.273 161.72 398.673 166.46Z" fill="#3B65EE"/>
<path d="M493.44 573.93L478.02 574.45L462.6 574.84L431.75 575.6C411.19 576.01 390.63 576.34 370.08 576.59C349.52 576.9 328.89 576.98 308.39 577.16L246.72 577.34L185.03 577.16C164.48 576.98 143.92 576.92 123.36 576.61C102.8 576.3 82.17 576 61.69 575.62L30.84 574.85L15.42 574.46L0 573.94L15.42 573.42C15.42 573.42 80.25 559.68 170.91 559.68C261.57 559.68 462.61 573.04 462.61 573.04L493.44 573.93Z" fill="#D1DAED"/>
</svg>
