<?xml version="1.0" encoding="UTF-8"?><svg id="Layer_1" xmlns="http://www.w3.org/2000/svg" viewBox="0 0 300 300"><defs><style>.cls-1{fill:#ecf0fe;}.cls-2{fill:#c8d4fa;}.cls-3{fill:#3b66ef;}</style></defs><path class="cls-1" d="m213.83,191.38c14.68.51,29.36,1.01,44.04,1.52,20.27-3.42,33.34-23.43,28.85-42.52-4.3-18.26-23.38-30.27-42.52-25.82,5.45-23.02-5.56-45.98-24.3-54.67-22.68-10.52-53.36,1.39-63.78,28.85-5.4-7.05-13.79-10.74-21.26-9.11-10.52,2.3-18.58,15.01-15.19,28.85"/><path class="cls-3" d="m213.83,193.88c9.57.33,19.15.66,28.72.99,8.38.29,16.12,1.37,24.02-1.92,11.24-4.68,19.89-14.83,22.59-26.73,6.15-27.13-19.46-49.6-45.62-44.07l3.08,3.08c5.7-25.83-8.04-55.68-35.75-60.82-24.66-4.57-48.2,11.01-57.15,33.67l4.18-1.1c-7.12-8.76-19.52-13.66-29.82-7.21-9.91,6.2-13.15,18.46-10.8,29.39.68,3.14,5.5,1.81,4.82-1.33-1.87-8.69.6-18.76,8.5-23.74,8.45-5.33,18.08-.56,23.77,6.43,1.31,1.62,3.57.45,4.18-1.1,7.89-19.99,29.22-34.19,51-30.18,24.97,4.59,37.41,31.33,32.26,54.67-.42,1.92,1.17,3.48,3.08,3.08,24.14-5.11,46.88,17.51,38.39,41.69-3.64,10.38-12.99,19.3-23.96,21.4-7.02,1.34-15.34-.14-22.49-.39-7.66-.26-15.32-.53-22.98-.79-3.22-.11-3.21,4.89,0,5h0Z"/><path class="cls-2" d="m55.75,233.9h138.57c20.37,0,36.98-17.36,34.94-37.64-.06-.61-.14-1.23-.23-1.85-2.64-17.21-17.49-22.54-34.93-22.78,5.39-12.33.07-33.65-10.63-39.48-16.7-9.11-31.93-6.89-39.48,1.52-6.61-26.73-23.98-38.13-50.11-30.37-26.07,7.74-40.82,36.29-31.89,62.26-13.81-5.45-29.38-2.46-39.48,7.59-14.06,13.98-9.46,33.56-9.11,34.93,2.62,10.32,12.49,17.02,20.84,21.02,6.71,3.21,14.08,4.8,21.52,4.8Z"/><path class="cls-3" d="m55.75,236.4h129.99c2.84,0,5.69.04,8.53,0,11.58-.18,22.54-5.27,29.76-14.39,8.21-10.37,10.86-26.08,4.1-37.91s-21.4-14.69-34.05-14.96l2.41,3.16c5.11-12.6,1.7-31.65-9.13-40.48-12.09-9.86-33.85-11.77-45.16.08l4.18,1.1c-3-11.68-8.59-23.49-19.33-29.88-10.43-6.21-23.3-5.56-34.52-2.03-27.07,8.52-41.73,38.39-32.97,65.13l3.08-3.08c-25.45-9.44-52.5,7.89-52.75,35.37-.08,8.66,2.25,16.41,8.47,22.75,9.67,9.85,23.78,14.91,37.39,15.13,3.22.05,3.22-4.95,0-5-12.11-.2-24.57-4.59-33.36-13.17-5.36-5.23-7.4-11.47-7.5-18.72-.31-24.79,23.59-40.01,46.42-31.54,1.77.66,3.64-1.35,3.08-3.08-7.9-24.09,4.9-51.24,29.47-58.98,9.96-3.13,21.37-4.01,30.67,1.52,9.62,5.72,14.36,16.49,17.04,26.89.46,1.8,2.89,2.46,4.18,1.1,9.72-10.19,30.04-8.15,39.69,1.35,8.27,8.15,10.5,23.67,6.24,34.18-.63,1.57.95,3.13,2.41,3.16,11.38.25,25.25,2.51,30.56,14.07s.82,27.02-9.02,35.37-21.74,7.82-33.81,7.82H55.75c-3.22,0-3.22,5,0,5Z"/></svg>