<?xml version="1.0" encoding="UTF-8"?><svg id="Layer_1" xmlns="http://www.w3.org/2000/svg" viewBox="0 0 300 300"><defs><style>.cls-1{fill:#ecf0fe;}.cls-2{fill:#c8d4fa;}.cls-3{fill:#3b66ef;}</style></defs><path class="cls-1" d="m61.36,110.82c6.27,13.6,12.41,27.06,20.06,39.59,6.25,10.22,22.23,20.86,29.52,29.96,6.55,8.18,9.39,11.12,16.7,18.22,6.75,6.56,8.18,17.89,12.36,27.16,3.92,8.68,7.98,17.97,14.45,24.17,1.87-16.88,14.66-34.13,23.54-45.99,8.62-11.51,17.52-22.59,24.85-35.45,5.97-10.49,12.02-19.97,18.9-29.6s11.48-20.29,15.57-32.61c-9.56,14.05-30.87,18.55-44.6,22.18-16.69,4.41-32.72,4.99-49.69,5.01-17.35.02-33.72-2.4-50.22-9.06-7.2-2.91-30.21-5.84-31.44-17.92"/><path class="cls-1" d="m59.2,112.08c6.58,14.27,12.66,30.23,22.29,42.77,7.94,10.33,19.36,17.31,27.68,27.29,3.94,4.73,7.83,9.41,12.18,13.78,2.68,2.69,5.6,5.13,7.61,8.39s3.22,6.86,4.42,10.43c4.36,12.95,9.49,27.06,19.31,36.94,1.68,1.69,4,.26,4.27-1.77,1.76-13.51,9.43-25.62,17.16-36.51,8.04-11.32,16.92-22.01,24.63-33.57,8.19-12.27,15.05-25.32,23.55-37.42,7.76-11.05,13.15-22.71,17.44-35.49.96-2.86-3.02-4.09-4.57-1.93-8.5,11.91-24.04,16.07-37.49,19.58-18.1,4.72-35.96,6.43-54.64,6.38-9.51-.02-19-.71-28.33-2.6-8.28-1.68-15.89-4.81-23.91-7.27-8.44-2.59-25.39-4.48-27.02-15.27-.48-3.17-5.3-1.82-4.82,1.33,1.39,9.2,11.71,13.15,19.47,15.62,4.24,1.34,8.61,2.26,12.81,3.72,7.64,2.66,15.06,5.32,23.03,6.88,30.11,5.87,62.22,2.66,91.49-5.79,12.73-3.68,25.78-8.89,33.73-20.04l-4.57-1.93c-2.31,6.88-4.83,13.69-8.13,20.16s-7.42,12.04-11.43,17.92c-8.47,12.41-15.35,25.8-23.98,38.1-14.71,20.96-35.96,41.6-39.41,68.13l4.27-1.77c-10.95-11.02-14.46-26.58-20.1-40.49-4.49-11.07-14.87-18.54-22.29-27.66-8.18-10.05-19.3-17.14-27.54-27.11-4.82-5.83-8.2-13.12-11.6-19.83-3.93-7.74-7.53-15.63-11.17-23.5-1.35-2.92-5.66-.38-4.32,2.52h0Z"/><path class="cls-3" d="m59.04,97.86c1.54,15.79,5.91,30.89,13.84,44.68,6.86,11.94,15.75,24.31,26.3,33.21,6.51,5.5,13.96,10.07,19.86,16.26,5.49,5.76,7.84,13.55,10.81,20.74,3.18,7.7,8.01,13.54,12.49,20.44,2.33,3.59,3.6,7.68,5.89,11.25,1.81,2.82,4.31,5.13,6.61,7.55,1.48,1.56,4.32.38,4.27-1.77-.59-25.09,20.24-41.39,30.96-62,2.92-5.62,4.63-11.82,7.79-17.31,3.66-6.37,9.78-11.19,14.96-16.28,7.36-7.23,13.36-15.59,18.19-24.7,5.05-9.53,7.43-20.97,9.87-31.41.73-3.13-4.09-4.47-4.82-1.33-2.25,9.67-4.47,20.07-8.79,29.07-4.81,10.03-11.79,18.89-19.76,26.56-4.62,4.44-9.65,8.81-13.16,14.24s-5.29,12.18-8.29,18.07c-5.24,10.31-12.89,19.15-19.34,28.69-7.42,10.97-12.92,22.92-12.6,36.41l4.27-1.77c-2.7-2.84-5.43-5.44-7.19-8.99s-3.22-6.91-5.45-10.16c-4.72-6.88-9.07-12.86-12.19-20.67-2.5-6.25-4.82-12.76-9.11-18.06-4.92-6.06-11.84-10.5-17.92-15.28-23.57-18.52-39.56-47.69-42.47-77.43-.31-3.17-5.31-3.21-5,0h0Z"/><path class="cls-2" d="m188.16,110.54c-.29,6.39-7.62,10.16-12.81,12.19-7.68,3-16.08,4.11-24.28,4.11-8.82,0-18.05-1.23-26.15-4.89-4.51-2.04-10.95-5.73-10.95-11.41s6.44-9.37,10.95-11.41c8.1-3.66,17.33-4.89,26.15-4.89,8.2,0,16.6,1.11,24.28,4.11,5.19,2.03,12.52,5.8,12.81,12.19.15,3.2,5.15,3.22,5,0-.59-12.77-16.85-18.05-27.18-19.95-15.34-2.81-34.38-2.11-47.93,6.56-9.1,5.83-12.4,16.21-3.6,24.07,11.49,10.27,30.7,11.71,45.23,10.17,11.6-1.23,32.8-5.86,33.49-20.85.15-3.22-4.85-3.21-5,0Z"/><path class="cls-2" d="m213.85,102.22c-.22,7.34-6.53,12.55-12.38,16-8.75,5.16-18.9,7.9-28.87,9.54-22.27,3.66-48.37,2.55-68.85-7.78-6.16-3.11-13.68-7.92-15.3-15.18-1.58-7.08,3.79-12.96,9.16-16.71,17.99-12.56,43.7-14.32,64.85-12.62,12.17.98,24.81,3.47,35.79,9.01,6.92,3.49,15.34,9.14,15.6,17.75.1,3.21,5.1,3.22,5,0-.59-19.92-28.68-27.57-44.12-30.22-24.66-4.23-54.6-3.14-76.72,9.9-6.58,3.88-13.3,9.69-14.61,17.62s3.23,14.46,8.99,19.13c8.33,6.76,19.07,10.43,29.42,12.72,14.1,3.12,28.85,3.8,43.2,2.38,13.2-1.31,26.84-4.25,38.45-10.92,7.68-4.41,15.09-11.17,15.37-20.62.1-3.22-4.9-3.22-5,0Z"/><path class="cls-3" d="m236.68,92.61c-.22,10.67-8.72,18.62-17.17,23.91-12.09,7.57-26.25,11.64-40.21,14.04-30.79,5.28-67.17,3.45-95.08-11.87-8.73-4.79-18.5-12.06-20.54-22.47-2.02-10.31,5.15-19.14,12.95-24.9,10.99-8.13,24.55-12.61,37.78-15.45,16.83-3.6,34.31-4.41,51.44-2.93,17.09,1.47,34.79,5.27,49.95,13.58,9.79,5.37,20.64,13.89,20.89,26.08.07,3.21,5.07,3.22,5,0-.23-11.09-7.62-19.75-16.24-25.94-12.78-9.18-28.69-13.98-44.01-16.69-18.55-3.28-37.69-3.58-56.35-1.01-16.11,2.22-32.62,6.52-46.59,15.1-9.21,5.66-18.35,14.05-19.92,25.3-1.46,10.52,4.58,19.9,12.38,26.4,11.25,9.37,25.71,14.63,39.82,17.89,18.79,4.34,38.47,5.31,57.63,3.38,18.11-1.82,36.86-6.08,52.6-15.56,10.44-6.29,20.41-15.9,20.68-28.86.07-3.22-4.93-3.22-5,0Z"/><path class="cls-3" d="m66.7,127.12c12.03,8.07,25.67,12.96,39.62,16.55,14.17,3.64,28.22,5.94,42.9,5.81,22.56-.2,46.92-5.19,66.66-16.42,8.58-4.88,16.68-11.5,20.2-21,1.12-3.02-3.71-4.32-4.82-1.33-3.98,10.71-15.35,17.25-25.2,21.71-12.89,5.84-27.07,9.27-41.09,10.97-15.82,1.92-31.98,1.32-47.53-2.22-16.92-3.85-33.66-8.62-48.21-18.39-2.68-1.8-5.18,2.53-2.52,4.32h0Z"/><path class="cls-3" d="m78.54,149.88c25.35,14.15,55.12,18.43,83.79,15.54,25.16-2.53,50.57-12.03,66.49-32.57,1.95-2.51-1.57-6.08-3.54-3.54-15.48,19.98-40.08,29.04-64.58,31.27-27.31,2.48-55.49-1.54-79.63-15.02-2.81-1.57-5.34,2.75-2.52,4.32h0Z"/><path class="cls-3" d="m96.66,172.58c18.82,11.81,44.43,13.91,65.91,9.96,22.65-4.17,40.54-19.69,55.68-36.09,2.18-2.36-1.35-5.91-3.54-3.54-14.17,15.36-30.66,30.05-51.74,34.46-20.55,4.3-45.74,2.21-63.79-9.11-2.73-1.71-5.25,2.61-2.52,4.32h0Z"/><path class="cls-3" d="m119.55,192.4c10.84,6.66,24.2,4.99,36.24,3.45s25.01-6.55,35.43-13.65c2.64-1.8.15-6.14-2.52-4.32-9.62,6.55-20.97,11.2-32.51,12.89-11.04,1.62-24.15,3.42-34.11-2.69-2.75-1.69-5.26,2.63-2.52,4.32h0Z"/><path class="cls-3" d="m130.18,209.11c9.47,4.09,20.47,3.51,30.38,1.18s17.6-8.43,25.01-14.88c2.43-2.12-1.12-5.64-3.54-3.54-6.37,5.54-13.05,10.92-21.33,13.21s-19.59,3.34-28-.3c-2.92-1.26-5.47,3.04-2.52,4.32h0Z"/><path class="cls-3" d="m137.32,224.16c11.78,6.64,24.71,2.8,32.99-7.39,2.01-2.48-1.5-6.03-3.54-3.54-6.84,8.41-17.02,12.2-26.93,6.6-2.81-1.58-5.33,2.73-2.52,4.32h0Z"/><path class="cls-3" d="m144.18,235.52c1.21,2.69,5.15,3.63,7.77,3.87,3.4.32,7.08-.7,8.78-3.89,1.51-2.84-2.81-5.37-4.32-2.52-1.16,2.18-7.04,1.94-7.91.02-1.32-2.93-5.63-.39-4.32,2.52h0Z"/><path class="cls-3" d="m149.54,245.09c.67,1.14,1.68,2.09,3,2.37s2.72-.1,3.83-.88,1.67-2.23.9-3.42c-.69-1.07-2.27-1.69-3.42-.9-.14.1-.89.43-.3.24-.11.04-.23.08-.35.1.38-.04.44-.05.16-.05.39.07.46.07.19,0,.21.04.38.14.53.3-.09-.08-.18-.17-.26-.27.19.23.2.23.04-.02-.66-1.13-2.29-1.63-3.42-.9s-1.6,2.21-.9,3.42h0Z"/><ellipse class="cls-2" cx="150.19" cy="116.78" rx="18.35" ry="9.05"/><path class="cls-2" d="m166.05,116.78c-.55,5.68-11.89,6.55-15.85,6.55-3.64,0-15.7-.92-15.85-6.55s12.5-6.55,15.85-6.55c3.95,0,15.31.89,15.85,6.55.31,3.17,5.31,3.21,5,0-.9-9.31-13.34-11.55-20.85-11.55-6.77,0-20.85,2.26-20.85,11.55s14.08,11.55,20.85,11.55c7.51,0,19.96-2.24,20.85-11.55.31-3.2-4.69-3.18-5,0Z"/></svg>