<svg width="1237" height="360" viewBox="0 0 1237 360" fill="none" xmlns="http://www.w3.org/2000/svg">
<path d="M1.61719 256.67L564.637 94.4082L1235 244.17" stroke="#B0C3EA" stroke-opacity="0.45" stroke-width="2.5" stroke-miterlimit="10" stroke-linecap="round" stroke-linejoin="round"/>
<path d="M1.61719 332.251L564.637 133.143L1235 316.916" stroke="#B0C3EA" stroke-opacity="0.45" stroke-width="2.5" stroke-miterlimit="10" stroke-linecap="round" stroke-linejoin="round"/>
<path d="M1.83594 66.6004L564.632 14.7988L1234.68 62.6117" stroke="#B0C3EA" stroke-opacity="0.45" stroke-width="2.5" stroke-miterlimit="10" stroke-linecap="round" stroke-linejoin="round"/>
<path d="M1.83594 139.914L564.632 41.4629L1234.68 132.325" stroke="#B0C3EA" stroke-opacity="0.45" stroke-width="2.5" stroke-miterlimit="10" stroke-linecap="round" stroke-linejoin="round"/>
<path d="M1.83594 198.494L564.632 68.1328L1234.99 188.501" stroke="#B0C3EA" stroke-opacity="0.45" stroke-width="2.5" stroke-miterlimit="10" stroke-linecap="round" stroke-linejoin="round"/>
<path d="M1.61719 358.491L564.637 140.74L1235 340.632" stroke="#B0C3EA" stroke-opacity="0.45" stroke-width="2.5" stroke-miterlimit="10" stroke-linecap="round" stroke-linejoin="round"/>
<path d="M582.5 158.306C582.5 158.306 577.245 161.735 564.633 161.735C552.029 161.735 546.766 158.306 546.766 158.306V30.5641C546.766 30.5641 554.924 27.2129 564.633 27.2129C574.342 27.2129 582.5 30.5641 582.5 30.5641V158.306Z" fill="#E9EDF4" stroke="#CCD7EC" stroke-opacity="0.45" stroke-width="2.5" stroke-miterlimit="10" stroke-linecap="round" stroke-linejoin="round"/>
<path d="M546.766 30.5641V114.741C550.22 116.481 555.872 118.385 564.125 118.385C573.239 118.385 579.184 116.067 582.492 114.206V30.5641C582.492 30.5641 574.333 27.2129 564.624 27.2129C554.924 27.2129 546.766 30.5641 546.766 30.5641Z" fill="#DAE1EF" stroke="#CCD7EC" stroke-opacity="0.45" stroke-width="2.5" stroke-miterlimit="10" stroke-linecap="round" stroke-linejoin="round"/>
<path d="M585.766 103.635C585.766 103.635 579.399 110.131 564.125 110.131C548.851 110.131 542.484 103.635 542.484 103.635V6.62247C542.484 6.62247 552.366 4.95117 564.125 4.95117C575.884 4.95117 585.766 6.62247 585.766 6.62247V103.635Z" fill="#E9EDF4" stroke="#C9D8F8" stroke-opacity="0.45" stroke-width="2.5" stroke-miterlimit="10" stroke-linecap="round" stroke-linejoin="round"/>
<path d="M564.141 11.258C576.093 11.258 585.781 9.18287 585.781 6.62312C585.781 4.06337 576.093 1.98828 564.141 1.98828C552.189 1.98828 542.5 4.06337 542.5 6.62312C542.5 9.18287 552.189 11.258 564.141 11.258Z" fill="#DAE1EF" stroke="#CCD7EC" stroke-opacity="0.45" stroke-width="2.5" stroke-miterlimit="10" stroke-linecap="round" stroke-linejoin="round"/>
</svg>
