<?xml version="1.0" encoding="UTF-8"?><svg id="Layer_1" xmlns="http://www.w3.org/2000/svg" viewBox="0 0 500 500"><defs><style>.cls-1{fill:#fff;}.cls-2{fill:#ecf0fe;}.cls-3{fill:#c8d4fa;}.cls-4{fill:#dee5fc;}.cls-5{fill:#89a3f5;}.cls-6{fill:#3b66ef;}</style></defs><path class="cls-1" d="m428.56,336.34l39.44-37.34c-6.19-3.48-70.56-23.09-77.7-22.8-20.3.8-38.28-5.23-57.28-7-15.38-1.43-31.02-4.2-46.48-4.68l-.41-.45c-50.25,10.69-106.67,28.16-156.16,41.81-27.31,8.53-52.91,17.07-80.21,25.6-6.83,3.41-14.95-.16-21.18,4.23,1.84,1.16,3.53,2.48,5.3,3.74l-.23.32c-5.95,1.63-6.85,3.42-11.49,4.72,10.86,10.93,29.79,10.61,43.31,16.23,11.72,4.87,21.9,10.51,34.64,13.04,6.53,1.3,13.44,1.73,20.08,2.37,7.8.75,8.77,2.99,14.59,7.51,12.4,9.63,27.38,5.11,40.97,10.53,6.24,2.49,10.68,6.96,17.35,9.07,6.64,2.1,13.62,3.1,20.35,4.3,13.68,2.45,26.79,8.26,40.35,11.77,10.26,2.65,20.23,5.34,30.81,5.92,2.45.14,5.04-.33,7.44-.14,1.74.14,6.03.61,7.1,1.18.43.23,12.74-9.58,17.52-12.84,6.53-4.46,13.67-7.56,20.28-11.78,8.87-5.66,18.23-11.19,27.6-16,6.45-3.31,13.46-4.78,19.29-8.96,7.29-5.22,11.64-12.83,18.73-18.1,6.51-4.85,17.99-16.56,23.7-21.12"/><path class="cls-1" d="m429.62,337.4c11.5-10.89,23-21.77,34.5-32.66,1.65-1.56,3.29-3.12,4.94-4.68.69-.65.53-1.9-.3-2.36-2.08-1.15-4.44-1.88-6.67-2.68-4.05-1.44-8.13-2.79-12.22-4.1-10.46-3.37-20.99-6.55-31.56-9.57-8.13-2.32-16.34-4.83-24.68-6.28-5.17-.9-10.51-.25-15.74-.67-9.3-.74-18.46-2.6-27.63-4.23-10.41-1.85-20.9-2.77-31.39-4.07-5.6-.69-11.2-1.41-16.82-1.99-2.87-.3-5.74-.56-8.62-.76-1.29-.09-2.58-.17-3.87-.23-.66-.03-1.53.08-2.15-.09.18.05.17.37-.2-.04s-.95-.49-1.46-.39c-34.21,7.3-67.91,16.76-101.53,26.34-16.58,4.72-33.15,9.51-49.76,14.13-17.61,4.9-34.95,10.92-52.35,16.53-9.92,3.2-19.85,6.38-29.79,9.5-2.19.69-4.32,1.68-6.57,2.14-2.12.43-4.3.43-6.45.47-4.04.09-8.01.41-11.47,2.69-.96.63-.97,1.96,0,2.59,1.82,1.18,3.54,2.48,5.3,3.74l-.54-2.05c-.04.06-.33-.03-.9.1s-1.11.38-1.64.59c-.92.37-1.82.77-2.71,1.22-1.84.93-3.58,1.85-5.57,2.44-1.07.32-1.48,1.7-.66,2.51,9.69,9.52,23.94,10.72,36.42,14.11,7.41,2.01,14.26,5.49,21.28,8.54,7.54,3.27,15.24,6.11,23.38,7.46,4.3.72,8.65,1.13,12.99,1.52,3.6.32,7.59.29,10.93,1.84,2.38,1.1,4.29,3.01,6.3,4.64,2.78,2.25,5.7,4.13,9.04,5.45,6.94,2.74,14.49,2.87,21.81,3.72,3.76.44,7.51,1.11,11.08,2.4s6.6,3.33,9.76,5.27c7.17,4.41,15.05,6.05,23.26,7.49s16.59,3.43,24.74,6.09c16.49,5.37,33.4,11.2,50.81,12.53,3.86.3,7.68-.25,11.53.22,1.68.2,4.19,1.37,5.77.62,1.45-.69,2.77-1.93,4.04-2.88,2.17-1.62,4.31-3.27,6.47-4.9,5.28-3.99,10.65-7.55,16.47-10.73,7.72-4.21,15.07-8.98,22.64-13.44,7.63-4.5,15.32-8.78,23.59-12,3.52-1.37,7.07-2.78,10.24-4.86s5.93-4.74,8.51-7.51,4.92-5.58,7.6-8.16c2.3-2.21,4.92-4.04,7.34-6.12,4.94-4.22,9.6-8.77,14.38-13.17,1.91-1.76,3.82-3.51,5.84-5.14,1.5-1.21-.63-3.32-2.12-2.12-4.54,3.66-8.69,7.81-12.96,11.77-2.32,2.15-4.64,4.3-7.05,6.36s-4.81,3.72-7.03,5.8c-5.55,5.18-9.86,11.77-16.35,15.91-3.41,2.18-7.22,3.58-10.98,5.04s-7.3,3.16-10.84,5.05c-7.88,4.2-15.54,8.78-23.08,13.55-6.94,4.4-14.52,7.75-21.28,12.43-4.22,2.92-8.24,6.14-12.34,9.23-.86.64-1.71,1.29-2.58,1.92-.49.35-1.48.78-1.82,1.27-.55.77.74-.35.76.12,0-.17-1.43-.45-1.54-.47-1.39-.31-2.83-.47-4.24-.62-3.8-.42-7.59.12-11.4-.19-4.51-.37-8.98-1.13-13.4-2.07-8.48-1.81-16.92-4.03-25.17-6.69-8.12-2.61-16.15-5.55-24.45-7.55-8.33-2.01-16.93-2.74-25.16-5.24-7.07-2.14-12.56-7.39-19.51-9.83s-14.21-2.52-21.36-3.39c-3.57-.43-7.15-1.09-10.53-2.36-3.78-1.41-6.91-3.7-9.98-6.26-1.79-1.49-3.58-3.02-5.73-3.97-3-1.33-6.28-1.54-9.51-1.84-8.73-.79-17.36-1.64-25.76-4.33-7.7-2.47-14.98-6.02-22.38-9.23-6.19-2.69-12.47-4.47-19.04-5.97s-13.23-2.89-19.28-5.86c-2.96-1.45-5.66-3.27-8.01-5.59l-.66,2.51c2.23-.66,4.22-1.69,6.29-2.74,1.17-.59,2.38-1.1,3.63-1.51s1.96-.44,2.69-1.48c.5-.7.07-1.61-.54-2.05-1.76-1.26-3.48-2.56-5.3-3.74v2.59c3.34-2.2,7.13-2.21,10.99-2.3s7.04-.79,10.68-2.04c8.78-3,17.73-5.6,26.57-8.45,17.45-5.61,34.83-11.48,52.38-16.76,16.41-4.93,33.01-9.32,49.49-14.02,16.89-4.82,33.78-9.61,50.75-14.16,18.68-5.01,37.43-9.73,56.34-13.76l-1.46-.39c1.01,1.12,2.16.91,3.61.97,2.59.12,5.17.29,7.75.5,5.04.42,10.07,1,15.1,1.61,9.9,1.21,19.88,2.03,29.73,3.5,9.03,1.35,17.96,3.3,26.99,4.59,4.55.65,9.12,1.16,13.7,1.36,3.06.14,6.18-.17,9.23.07,2.51.2,5.52,1.01,8.14,1.65,4.53,1.09,9.03,2.31,13.51,3.56,10.65,2.96,21.25,6.14,31.8,9.47,4.93,1.56,9.86,3.15,14.74,4.85,2.64.92,5.5,1.75,7.86,3.05l-.3-2.36c-11.5,10.89-23,21.77-34.5,32.66-1.65,1.56-3.29,3.12-4.94,4.68-1.4,1.33.72,3.45,2.12,2.12h0Z"/><path class="cls-3" d="m29.52,339.45c-4.04,1.15-7.49,3.54-11.49,4.72-1.07.32-1.48,1.7-.66,2.51,5.9,5.8,13.77,8.58,21.63,10.57,8.45,2.14,16.9,3.67,24.94,7.15,9.22,3.99,18.28,8.51,28.05,11.03,5.27,1.36,10.66,2.04,16.07,2.57,4.55.44,9.79.19,14.06,2.04,3.1,1.35,5.52,4.01,8.17,6.03,3.79,2.88,8.16,4.76,12.79,5.81,8.97,2.03,18.42,1.3,27.17,4.36,4.53,1.58,8.33,4.48,12.48,6.81s9.07,3.72,13.92,4.76c5.27,1.12,10.62,1.82,15.88,2.95s10.62,2.77,15.83,4.46c10.35,3.37,20.64,6.63,31.23,9.19,5.34,1.29,10.73,2.38,16.18,3.02,4.9.57,9.77-.05,14.64.52,2.11.25,4.6,1.53,6.5.37,2.31-1.41,4.44-3.24,6.59-4.87,6.22-4.72,12.36-9.21,19.23-12.97,9.72-5.32,18.96-11.41,28.61-16.86,4.81-2.72,9.66-5.49,14.78-7.58,4.55-1.85,9.3-3.38,13.47-6.05,7.89-5.03,12.71-13.4,20.09-19.02,2.53-1.93,5.07-3.86,7.59-5.81,9.78-7.59,19.44-15.34,28.87-23.36,9.05-7.68,18.5-15.51,26.04-24.73,1.12-1.37,2.2-2.78,3.09-4.31.97-1.67-1.62-3.18-2.59-1.51-2.11,3.63-5.17,6.74-8.1,9.72-4.3,4.38-8.85,8.52-13.45,12.57-9.68,8.53-19.7,16.69-29.83,24.68-3.49,2.75-7,5.49-10.53,8.19-4.5,3.43-8.49,7.12-12.29,11.34-3.33,3.71-6.74,7.45-11.05,10.05s-8.99,4.02-13.52,5.93c-9.97,4.2-19.41,10.2-28.56,15.94-8.17,5.12-17.07,9.17-24.89,14.82-4.94,3.57-9.62,7.53-14.66,10.96-.08.06-.83.45-.86.56.02-.09,1.65.15.08-.31s-3.45-.62-5.15-.81c-2.19-.24-4.33-.13-6.53-.03-2.81.12-5.63-.17-8.42-.52-10.8-1.36-21.62-4.27-32-7.49s-20.02-6.98-30.41-9.14-20.94-2.76-30.07-8.29c-3.71-2.24-7.28-4.62-11.4-6.06-4.28-1.5-8.8-2.12-13.29-2.58-9.58-.98-18.91-1.63-26.72-7.9-2.48-1.99-4.8-4.3-7.76-5.58-3.94-1.7-8.48-1.68-12.69-2.06-5.45-.5-10.89-1.06-16.23-2.31-4.99-1.17-9.84-2.88-14.58-4.83-8.58-3.53-16.81-7.98-25.82-10.36-8.08-2.14-16.51-3.34-24.26-6.58-3.78-1.58-7.29-3.71-10.22-6.59l-.66,2.51c4.01-1.18,7.46-3.57,11.49-4.72,1.85-.53,1.07-3.43-.8-2.89h0Z"/><path class="cls-4" d="m46.65,333.52c4,5.99,9.6,10.55,16.13,13.56s13.64,4.62,20.73,5.79c4.07.67,8.16,1.21,12.21,2.01,4.49.9,8.95,2,13.35,3.26,8.76,2.5,17.33,5.62,25.81,8.96,8.45,3.33,16.76,7.02,25.27,10.2,8.44,3.15,17.06,5.77,25.78,8.01s17.64,3.9,26.38,6.19c8.8,2.31,17.47,5.09,26.27,7.37s18.29,3.81,27.58,5.06c4.48.6,9.15.82,13.51,2.05,4.07,1.15,7.91,2.97,11.99,4.09,1.86.51,3.78.85,5.71.89s1.93-2.95,0-3c-4.02-.1-7.84-1.69-11.57-3.07-1.96-.73-3.93-1.44-5.96-1.98s-4.22-.79-6.37-1.05c-9.28-1.15-18.61-2.31-27.74-4.35-8.72-1.95-17.27-4.61-25.86-7.05-8.67-2.47-17.46-4.29-26.24-6.35-8.61-2.03-17.14-4.35-25.53-7.17s-16.73-6.38-25.03-9.76c-16.63-6.78-33.6-13.15-51.4-16.07-13.78-2.26-28.96-4.04-39.06-14.81-1.25-1.34-2.37-2.77-3.39-4.29-1.07-1.6-3.67-.1-2.59,1.51h0Z"/><path class="cls-4" d="m45.69,347.48c16.15-3.93,32.15-8.47,48.18-12.83,8.11-2.21,16.05-4.76,23.91-7.73,7.7-2.91,15.37-5.89,23.26-8.28,18.02-5.46,35.69-12.05,53.9-16.89,17.79-4.73,35.8-8.69,53.26-14.57,2.2-.74,4.38-1.51,6.56-2.32s4.25-1.28,6.43-1.8c4.36-1.05,8.72-2.09,13.07-3.16,8.75-2.16,17.49-4.43,26.1-7.11,2.09-.65,4.16-1.33,6.23-2.03,1.82-.62,1.04-3.52-.8-2.89-8.46,2.88-17.08,5.27-25.73,7.49-4.38,1.12-8.78,2.2-13.17,3.26s-8.77,1.82-12.92,3.36c-17.29,6.41-35.29,10.57-53.12,15.15-9.04,2.32-18.02,4.81-26.89,7.7-8.98,2.92-17.89,6.08-26.91,8.89-8.33,2.59-16.58,5.2-24.73,8.3-7.64,2.9-15.28,5.81-23.14,8.08-16.11,4.65-32.35,8.99-48.61,13.1-1.89.48-3.78.95-5.67,1.41s-1.08,3.35.8,2.89h0Z"/><path class="cls-4" d="m82.57,362.17c15.12-6.85,30.73-12.56,46.49-17.74s32.86-10.17,49.4-14.87,32.48-9.12,48.62-14c8.13-2.46,16.22-5.01,24.16-8.04,8.21-3.14,16.33-6.54,24.71-9.22,7.91-2.53,16.12-3.78,23.97-6.51s15.53-6.28,22.93-10.15c1.72-.9,3.42-1.82,5.11-2.76s.18-3.53-1.51-2.59c-7.21,4.02-14.64,7.7-22.31,10.74-3.76,1.49-7.58,2.83-11.48,3.89s-8.06,1.77-12.04,2.86c-8.56,2.35-16.81,5.64-25.06,8.87s-16.04,5.96-24.24,8.49c-16.02,4.95-32.18,9.46-48.32,14.03-16.56,4.69-33.11,9.43-49.5,14.69-15.88,5.1-31.63,10.68-46.94,17.31-1.84.8-3.67,1.61-5.49,2.43s-.23,3.38,1.51,2.59h0Z"/><path class="cls-4" d="m128.23,377c7.3-4.06,15.27-6.85,23.2-9.42,8.26-2.67,16.61-5.02,24.88-7.65,9.83-3.12,19.6-6.46,29.42-9.64,9.4-3.05,18.5-6.89,27.79-10.24s18.55-7.18,27.81-10.81c9.28-3.64,18.66-6.79,28.16-9.79,9.63-3.04,19.17-6.38,28.71-9.72,6.77-2.37,13.56-4.64,20.19-7.37s12.85-5.54,19.06-8.76c5.61-2.91,11.27-6.05,16.11-10.15.88-.75,1.73-1.54,2.5-2.4,1.29-1.43-.83-3.56-2.12-2.12-3.81,4.23-9.07,7.2-13.99,9.93-6.16,3.42-12.54,6.42-19.01,9.2-5.92,2.54-11.95,4.72-18.03,6.85-9.46,3.31-18.91,6.67-28.44,9.79s-19.2,6.02-28.63,9.6c-9.22,3.51-18.33,7.31-27.56,10.81-4.58,1.73-9.21,3.31-13.78,5.06-4.63,1.78-9.22,3.66-13.9,5.32-9.58,3.42-19.34,6.44-29.01,9.59-8.59,2.8-17.24,5.34-25.87,8-8.1,2.5-16.2,5.17-23.9,8.74-1.73.8-3.43,1.66-5.1,2.59s-.18,3.53,1.51,2.59h0Z"/><path class="cls-4" d="m171.6,391.84c19.84-9.24,40.25-17.12,60.72-24.84s41.07-15.72,61.4-24.15c13.11-5.44,25.54-10.64,38.42-16.21,12.16-5.26,24.22-10.8,35.86-17.15,5.66-3.09,11.24-6.37,16.5-10.12,4.12-2.94,8.21-6.16,11.28-10.23.57-.76,1.09-1.54,1.54-2.38.91-1.7-1.68-3.22-2.59-1.51-2.09,3.89-5.72,6.98-9.22,9.68-4.86,3.75-10.13,6.97-15.46,10-11.63,6.61-23.78,12.28-36.01,17.65-11.65,5.11-23.41,10-35.14,14.91-20.23,8.45-40.6,16.54-61.12,24.28-20.17,7.6-40.34,15.2-60.02,24-2.56,1.14-5.1,2.31-7.64,3.49-1.75.81-.23,3.4,1.51,2.59h0Z"/><path class="cls-4" d="m218.58,407.17c11.22-6.79,22.76-13.06,34.36-19.18,13.25-6.99,26.62-13.76,39.98-20.54,13.92-7.06,27.84-14.12,41.66-21.37,13.28-6.96,26.47-14.1,39.41-21.67,11.37-6.66,22.59-13.65,33.22-21.45,1.19-.88,2.38-1.76,3.55-2.66,1.51-1.16.02-3.76-1.51-2.59-10.23,7.83-21.11,14.78-32.16,21.39-12.73,7.61-25.74,14.74-38.85,21.67-13.79,7.3-27.69,14.38-41.6,21.44s-27,13.66-40.41,20.67c-11.89,6.21-23.73,12.55-35.28,19.38-1.3.77-2.59,1.54-3.89,2.32-1.65,1-.14,3.59,1.51,2.59h0Z"/><path class="cls-4" d="m435.7,298.24c-2.2,3.17-5.51,6.13-8.58,8.75-4.36,3.7-8.98,7.09-13.66,10.38-10.8,7.58-22,14.58-33.26,21.44-8.5,5.18-17.13,10.16-25.55,15.47-16.84,10.62-33.7,21.24-51.07,30.99-8.93,5.01-17.97,9.82-26.93,14.77-7.59,4.19-15.78,7.41-22.88,12.45-1.72,1.22-3.36,2.54-4.89,3.99-1.4,1.33.72,3.45,2.12,2.12,6.32-5.99,14.5-9.48,22.18-13.35,8.94-4.51,17.66-9.51,26.43-14.34,18.28-10.07,36.13-20.99,53.71-32.22,8.35-5.34,16.92-10.33,25.39-15.47,11.26-6.83,22.46-13.77,33.32-21.23,4.97-3.41,9.86-6.93,14.56-10.71,3.55-2.85,7.09-5.85,10.02-9.34.59-.71,1.16-1.44,1.69-2.2,1.1-1.59-1.5-3.09-2.59-1.51h0Z"/><path class="cls-4" d="m272.81,273.2c8.45.08,16.77,1.65,25.07,3.03,13.06,2.16,26.07,4.67,39.06,7.23,14.6,2.88,29.18,5.88,43.76,8.87,13.26,2.72,26.52,5.46,39.81,8.07,9.11,1.79,18.24,3.63,27.45,4.85.68.09,1.36.17,2.04.25,1.92.21,1.9-2.79,0-3-1.75-.19-2.55-.31-4.29-.57-1.91-.29-3.81-.6-5.71-.93-4.99-.86-9.96-1.8-14.93-2.76-13.02-2.52-26-5.19-38.99-7.86-14.58-2.99-29.16-6-43.75-8.9-13.26-2.64-26.54-5.23-39.88-7.51-9.11-1.56-18.34-3.23-27.58-3.7-.69-.04-1.38-.06-2.06-.07-1.93-.02-1.93,2.98,0,3h0Z"/><path class="cls-4" d="m228.65,281.28c16.8,5.57,34.26,8.98,51.66,12,13.97,2.43,28,4.49,41.89,7.31,12.08,2.45,24.14,5.01,36.21,7.55,13.64,2.87,27.28,5.75,40.93,8.58,9.21,1.91,18.41,3.92,27.69,5.48.53.09,1.05.17,1.58.25,1.89.28,2.7-2.61.8-2.89-8.31-1.22-16.56-3.12-24.79-4.81-13.48-2.77-26.94-5.61-40.41-8.45-12.58-2.65-25.15-5.31-37.74-7.89-12.07-2.47-24.19-4.43-36.34-6.47-10.74-1.81-21.55-3.5-32.18-5.91-8.18-1.86-16.32-3.97-24.37-6.35-1.38-.41-2.76-.83-4.12-1.28-1.84-.61-2.62,2.29-.8,2.89h0Z"/><path class="cls-4" d="m186.06,291.4c5.77,2.86,11.94,4.93,18.1,6.74s12.94,3.37,19.53,4.58c16.7,3.06,33.28,6.89,49.79,10.83,8.17,1.95,16.32,3.98,24.43,6.15s16.09,4.68,24.24,6.63c15.11,3.6,30.56,5.41,45.72,8.77,13.06,2.9,26.14,6.58,39.52,7.66,1.42.11,2.85.19,4.27.21,1.93.03,1.93-2.97,0-3-6.23-.09-12.42-1.13-18.52-2.33-6.79-1.33-13.52-2.94-20.27-4.48-14.6-3.35-29.45-5.29-44.09-8.41-8.1-1.73-16.01-4.08-23.99-6.29s-16.23-4.33-24.38-6.32c-16.24-3.97-32.56-7.73-48.96-10.98-6.98-1.38-13.98-2.55-20.87-4.35-6.48-1.69-12.94-3.65-19.12-6.23-1.31-.55-2.6-1.14-3.88-1.77-1.72-.86-3.25,1.73-1.51,2.59h0Z"/><path class="cls-4" d="m152.18,302.04c13.5,7.67,28.32,12.49,43.35,16.16,14.98,3.66,30.18,6.31,45.1,10.21,16.43,4.3,32.67,9.32,49.13,13.53,8.3,2.12,16.64,4.1,25.03,5.83s16.74,3.25,25.09,4.96,16.17,3.49,24.3,4.97c5.48,1,11.1,1.61,16.43,3.28,1.01.31,1.99.67,2.92,1.18,1.69.94,3.2-1.65,1.51-2.59-2.14-1.19-4.59-1.82-6.96-2.37-2.92-.68-5.88-1.18-8.83-1.67-7.14-1.19-14.21-2.73-21.3-4.2-16.76-3.46-33.61-6.45-50.24-10.5s-33.18-8.82-49.7-13.51c-14.91-4.23-30.14-7.08-45.24-10.51s-30.08-7.58-43.9-14.59c-1.74-.88-3.46-1.81-5.16-2.78s-3.19,1.64-1.51,2.59h0Z"/><path class="cls-4" d="m116.05,312.61c7.85,1.73,14.72,6.14,21.85,9.65,7.97,3.92,16.61,6.06,25.01,8.84,8.59,2.84,17.13,5.8,25.82,8.37,8.7,2.57,17.52,4.65,26.3,6.96,17.29,4.55,34.35,9.89,51.52,14.81,8.67,2.48,17.38,4.86,26.15,6.97,6.97,1.67,13.99,3.09,21,4.56,6.63,1.39,13.26,2.86,19.78,4.74,5.58,1.61,11.31,3.43,16.29,6.5.92.57,1.81,1.19,2.64,1.9,1.45,1.26,3.59-.86,2.12-2.12-4.11-3.55-9.39-5.61-14.46-7.35-6.37-2.19-12.94-3.79-19.52-5.25-6.42-1.43-12.88-2.66-19.31-4.08-8.83-1.94-17.58-4.2-26.3-6.61-17.36-4.81-34.55-10.23-51.92-15.01-8.73-2.4-17.55-4.43-26.28-6.84-8.87-2.44-17.65-5.21-26.36-8.16-4.34-1.47-8.67-2.94-13.05-4.31s-8.79-2.6-13.03-4.29c-7.53-3-14.3-7.62-21.89-10.49-1.81-.69-3.67-1.26-5.56-1.67s-2.69,2.48-.8,2.89h0Z"/><path class="cls-4" d="m78.46,324.37c14.36,7.4,30.11,11.37,45.4,16.31,16.54,5.34,32.61,12.08,48.96,17.92s33.66,10.95,50.61,15.98,34.23,9.85,51.62,13.71c8.67,1.93,17.37,3.68,26.03,5.61,4.15.93,8.32,2.05,12.54,2.63,3.61.5,7.28.63,10.86,1.38,1.7.36,3.36.86,4.9,1.66,1.71.89,3.23-1.7,1.51-2.59-3.18-1.66-6.68-2.26-10.21-2.67-3.81-.44-7.55-.82-11.31-1.64-8.7-1.91-17.39-3.89-26.12-5.69-17.44-3.59-34.64-8.19-51.73-13.16-16.98-4.94-34.03-9.89-50.76-15.62-16.67-5.71-32.99-12.41-49.62-18.24-15.22-5.34-31.09-8.96-45.84-15.61-1.8-.81-3.58-1.67-5.33-2.57s-3.23,1.7-1.51,2.59h0Z"/><path class="cls-6" d="m73.93,302.37c.41,0,.74.02,1.15.11.71.16,1.73-.22,1.85-1.05.44-3.25-1.34-5.71-2.64-8.52l-1.69,2.2c2.83,1.17,6.38,4.3,6.2,7.63h3c-.08-7.75-.6-16.55,5.1-22.64l-2.36-1.82c-.85,1.99-2.06,3.8-3,5.74-.87,1.79-1.41,3.6-1.66,5.57-.51,3.96-.06,7.92-.12,11.89-.03,1.66,2.58,2.08,2.95.4.79-3.61,1.62-7.29,3.17-10.65s3.71-6.35,7.48-6.9l-1.69-2.2c-1.59,2.45-2.68,5.95-2.6,8.87.04,1.36.43,2.85,1.72,3.54,1.63.87,3.53-.07,4.93-.97l-1.82-.23c1.18,1.51,2.36,2.94,4.02,3.96.86.53,1.79,1,2.78,1.21,1.17.25,2.47.2,3.45.97,1.5,1.19,3.63-.92,2.12-2.12-.96-.76-1.94-1.27-3.16-1.49-1.11-.2-2.12-.29-3.13-.84-1.69-.92-2.8-2.31-3.97-3.81-.39-.5-1.31-.56-1.82-.23-.55.35-1.11.7-1.75.87-.04,0-.38.15-.21.05-.17.1,0-.14.02.04,0-.14-.03,0-.04-.06-.03-.14-.12-.46-.12-.48-.06-.37-.02-1.07.04-1.56.25-2.11.97-4.42,2.13-6.2.79-1.22-.51-2.38-1.69-2.2-8.73,1.29-11.19,12.53-12.75,19.65l2.95.4c.06-3.7-.37-7.41.03-11.11.2-1.84.7-3.56,1.54-5.21.92-1.8,2.02-3.5,2.82-5.36.61-1.44-1.09-3.17-2.36-1.82-6.33,6.75-6.07,16.11-5.98,24.76.02,1.94,2.89,1.92,3,0,.27-4.79-4.36-8.85-8.4-10.52-1.35-.56-2.17,1.17-1.69,2.2.87,1.86,2.64,4.03,2.34,6.21l1.85-1.05c-.64-.15-1.28-.22-1.94-.22-1.93,0-1.93,3,0,3h0Z"/><path class="cls-6" d="m394.41,392.23c1.7-4.37.89-9.07,1.1-13.63l-2.26,1.3c1.6,1.2,2.08,3.65,2.43,5.48.42,2.15.58,4.34.97,6.5.28,1.55,2.47,1.3,2.89,0,1.28-3.96,1.81-8.12,2.81-12.16s2.38-7.94,5.55-10.67l-2.51-1.46c-2.71,8.49-5.92,17-4.29,26.05.22,1.2,2.25,1.53,2.74.36,1.27-3.01,3.49-5.44,5.41-8.04l-2.59-1.51c-1.73,2.68-3.12,6.06-2.82,9.31.1,1.09,1.21,1.92,2.26,1.3.81-.48,1.63-1.06,2.52-1.37.95-.34,1.19-.02,1.59.87.79,1.76,3.38.23,2.59-1.51-.71-1.58-2.03-2.63-3.81-2.5-1.61.12-3.06,1.12-4.41,1.92l2.26,1.3c-.26-2.77.94-5.52,2.41-7.8,1.07-1.65-1.47-3.03-2.59-1.51-1.93,2.6-4.14,5.03-5.41,8.04l2.74.36c-1.51-8.41,1.78-16.58,4.29-24.45.49-1.53-1.45-2.37-2.51-1.46-6.9,5.95-6.54,16.13-9.13,24.15h2.89c-.84-4.66-.6-10.63-4.78-13.77-.97-.73-2.21.28-2.26,1.3-.2,4.29.6,8.72-1,12.83-.7,1.8,2.2,2.58,2.89.8h0Z"/><ellipse class="cls-1" cx="263.17" cy="362.26" rx="34.93" ry="20.79"/><path class="cls-6" d="m296.6,362.26c-.05,4.55-2.78,8.33-6.18,11.12-4.44,3.65-10.09,5.75-15.65,6.96-12.22,2.66-26.94,1.43-37.43-5.9-3.59-2.5-6.86-6.15-7.5-10.62-.63-4.39,1.57-8.44,4.64-11.41,4.05-3.91,9.47-6.27,14.85-7.7,6.6-1.76,13.55-2.15,20.33-1.39,6.12.68,12.3,2.42,17.6,5.61,3.92,2.36,7.7,5.79,8.94,10.35.27.98.39,1.96.4,2.97.02,1.93,3.02,1.93,3,0-.12-12.12-13.7-18.69-23.85-20.94-7.36-1.63-15.04-1.77-22.47-.53-6.38,1.07-12.86,3.26-18.1,7.14-4.15,3.07-7.65,7.29-8.33,12.56s1.61,9.79,5.08,13.32c4.31,4.38,10.18,7.1,16.03,8.73,7.19,2,14.88,2.48,22.28,1.58,6.65-.82,13.35-2.69,19.06-6.29,4.42-2.79,8.51-6.83,9.84-12.05.29-1.15.43-2.34.45-3.53.02-1.93-2.98-1.93-3,0Z"/><path class="cls-6" d="m268.15,358.72c2.27,2.46,5.68,3.49,7.86,6.03.55.64,1.55.5,2.12,0,3.48-3.06,7.16-5.82,11.15-8.17,1.26-.74.75-2.82-.76-2.8-3.61.07-7.25.68-10.86.44-2.71-.18-5.76-.88-8.39.1-1.79.67-1.02,3.57.8,2.89,2.43-.9,5.35-.11,7.85.03,3.53.19,7.07-.39,10.6-.46l-.76-2.8c-4.21,2.48-8.09,5.42-11.76,8.64h2.12c-2.19-2.56-5.6-3.58-7.86-6.03-1.31-1.42-3.43.7-2.12,2.12h0Z"/><path class="cls-6" d="m276.7,364.52c.28,2.75.55,5.5.76,8.25.07.89.92,1.81,1.9,1.45,4.23-1.55,7.36-4.97,10.84-7.68,1.33-1.03,2.21-2.19,2.17-3.94-.03-1-.17-1.99-.24-2.99-.09-1.34-.19-2.68-.42-4.01-.14-.8-1.12-1.25-1.85-1.05-.85.23-1.19,1.04-1.05,1.85.33,1.94.42,3.97.54,5.93.01.17.02.34.02.51,0,.04-.02.43,0,.24.01-.18-.04.16-.06.2.16-.29-.08.12-.09.13-.21.25-1.03.92-1.49,1.28-2.91,2.28-5.61,5.33-9.16,6.63l1.9,1.45c-.21-2.76-.48-5.51-.76-8.25-.08-.81-.63-1.5-1.5-1.5-.75,0-1.58.69-1.5,1.5h0Z"/><path class="cls-6" d="m250.64,373.15c2.64-2.56,5.32-5.07,8.02-7.57,2.59-2.41,5.1-5.05,7.87-7.24,1.77-1.39,4.4-2.78,4.92-5.18.6-2.78-2.48-4.62-3.84-6.58-.45-.65-1.33-1-2.05-.54-5.79,3.7-10.85,8.31-16.02,12.8-1.59,1.38-3.67,2.52-3.84,4.86-.2,2.84,2.16,5.08,2.13,7.92-.02,1.93,2.98,1.93,3,0,.01-1.36-.24-2.62-.77-3.87-.47-1.11-1.27-2.31-1.37-3.54-.06-.73.37-1.11.89-1.56.89-.77,1.83-1.47,2.7-2.25,4.7-4.19,9.46-8.37,14.78-11.77l-2.05-.54c.72,1.04,1.63,1.9,2.46,2.84.52.59,1.31,1.26.81,2.03-.57.89-1.62,1.56-2.46,2.18-.9.67-1.77,1.35-2.6,2.11-4.93,4.56-9.89,9.1-14.72,13.77-1.39,1.34.73,3.46,2.12,2.12h0Z"/><path class="cls-6" d="m236.62,357.77c9.37-4.56,19.95-5.55,29.68-9.07,1.8-.65,1.02-3.55-.8-2.89-9.99,3.61-20.77,4.69-30.4,9.38-1.74.84-.22,3.43,1.51,2.59h0Z"/><path class="cls-6" d="m234.8,357.78c1.72,1.54,3.68,2.8,5.62,4.05.92.6,1.85,1.2,2.75,1.83.2.14.41.29.61.44,0,0,.31.24.19.15-.13-.1.16.12.18.14.37.3.73.62,1.06.95,1.36,1.37,3.49-.75,2.12-2.12-1.5-1.5-3.35-2.65-5.12-3.8-1.87-1.21-3.76-2.39-5.29-3.77-.6-.54-1.53-.6-2.12,0-.55.55-.61,1.58,0,2.12h0Z"/><path class="cls-6" d="m234.42,356.55c-.5,1.66-.46,3.62-.56,5.34s.36,2.97,1.71,3.99c1.67,1.27,3.43,2.39,5.05,3.74,1.86,1.55,3.66,3.18,5.54,4.71.63.51,1.51.61,2.12,0,.53-.53.63-1.61,0-2.12-3.43-2.81-6.65-5.83-10.34-8.31-.22-.15-.61-.41-.7-.49.07.06-.51-.52-.25-.24-.08-.09-.19-.31-.06-.08-.01-.03-.11-.44-.06-.13-.06-.35-.03-.72,0-1.07.09-1.47.03-3.14.45-4.54.56-1.85-2.33-2.64-2.89-.8h0Z"/><path class="cls-6" d="m259.64,364.63c2.34,2.14,5.1,3.66,7.9,5.08,2.66,1.35,5.43,2.66,7.71,4.61.61.53,1.52.6,2.12,0,.54-.54.62-1.59,0-2.12-4.7-4.03-11.04-5.52-15.61-9.7-1.42-1.3-3.55.81-2.12,2.12h0Z"/><path class="cls-6" d="m335.96,397.26c-1.83,1.7-5.1,2.42-7.35,3.33-4.4,1.78-8.99,3.57-13.09,5.97-7.34,4.31-10.98,12.89-18.93,16.35h1.51c-18.13-8.95-38.95-4-57.77-10.3-8.8-2.94-16.93-7.77-26.14-9.43-4.92-.89-9.76-2.22-14.67-3.2s-9.4-1.78-14.06-2.82c-4.4-.98-8.77-2.14-13-3.74-2.35-.89-4.64-1.92-6.85-3.11s-4.09-2.64-6.42-3.41c-4.78-1.58-9.84-1.77-14.8-2.37-2.7-.33-5.44-.79-8-1.72s-4.73-2.5-6.78-4.13c-6.02-4.77-11.25-11.45-19.1-13.2-4.73-1.06-9.38-2.26-14.19-2.98-4.53-.68-9.09-1.16-13.65-1.65-10.3-1.11-20.78-2.42-30.22-6.96-2.48-1.19-4.87-2.57-7.14-4.13-2.55-1.75-4.25-4.54-6.74-6.27-.91-.63-2.06-.89-3.06-1.38-1.27-.63-2.48-1.39-3.66-2.18-2.1-1.43-4.1-3.01-6.24-4.39v2.59c3.34-2.2,7.13-2.21,10.99-2.3s7.05-.8,10.68-2.04c8.79-2.99,17.73-5.6,26.57-8.45,17.58-5.65,35.08-11.69,52.8-16.89,16.35-4.8,32.82-9.25,49.21-13.93s33.88-9.64,50.89-14.19c18.58-4.98,37.24-9.67,56.06-13.69l-1.46-.39c.93,1.04,1.78.87,3.15.85,2.54-.04,5.07.03,7.61.19,4.97.3,9.92.89,14.85,1.58,9.5,1.32,18.95,2.6,28.49,3.55s19.88,2.18,29.8,3.5c9.24,1.24,18.58,2.07,27.78,3.56,5.59.91,11.53,1.92,16.93,3.7l.8-2.89h-.02c-1.92-.29-2.59,2.15-.8,2.89,5.68,2.33,11.68,3.29,17.74,4,3.32.39,6.65.68,9.92,1.44,2.86.67,5.66,1.59,8.46,2.48,4.24,1.34,8.67,2.08,12.84,3.64,2.42.9,8.47,3.03,8.61,6.26l1.5-1.5c-5.8-.29-10.4,3.49-14.21,7.44-4.89,5.08-9.85,9.91-15.09,14.64-3.15,2.84-6.3,5.67-9.43,8.52s-5.95,5.78-9.31,8.18c-5.33,3.81-11.25,6.6-16.84,9.98-6.89,4.16-13.33,9.11-19.8,13.88-8.71,6.43-17.35,12.96-26.05,19.41-7.17,5.31-14.3,10.97-22.01,15.49-1.66.98-.16,3.57,1.51,2.59,6.47-3.79,12.48-8.45,18.5-12.89,8.55-6.3,17.02-12.7,25.54-19.02,7.04-5.23,14.06-10.53,21.4-15.33,4.18-2.73,8.66-4.96,12.96-7.48,2.97-1.74,5.88-3.59,8.57-5.74,3.22-2.57,6.15-5.58,9.21-8.35,6.4-5.81,13.26-11.33,19.17-17.65,4.23-4.53,8.97-10.99,15.87-10.64.79.04,1.53-.72,1.5-1.5-.17-3.88-4.29-6.22-7.39-7.71-4.08-1.94-8.29-2.71-12.59-3.96-6.27-1.81-12.26-3.93-18.79-4.68-7.15-.83-14.28-1.59-20.99-4.36l-.8,2.89h.02c1.87.28,2.68-2.27.8-2.89-4.53-1.49-9.45-2.31-14.12-3.2-8.5-1.62-17.18-2.22-25.74-3.4-19.31-2.68-38.77-4.18-58.06-6.99-5.2-.76-10.41-1.51-15.64-2.02-2.53-.24-5.07-.43-7.62-.52-1.41-.05-2.82-.08-4.22-.07-.53,0-1.18.09-1.69.03.09.01.29.54-.19.01-.37-.41-.95-.49-1.46-.39-34.17,7.29-67.83,16.74-101.42,26.3-16.5,4.7-32.99,9.46-49.52,14.06-17.73,4.93-35.18,10.98-52.7,16.62-9.92,3.2-19.85,6.38-29.79,9.5-2.18.68-4.33,1.68-6.57,2.14-2.12.43-4.3.43-6.45.47-4.04.09-8.01.41-11.47,2.69-.96.63-.97,1.96,0,2.59,2.34,1.51,4.5,3.26,6.82,4.78s5.2,2.38,7.24,4.41c2.21,2.21,4.29,4.19,6.93,5.89,2.49,1.6,5.11,3,7.83,4.18,10.21,4.44,21.29,5.55,32.24,6.74,5.93.64,11.86,1.34,17.7,2.59,5.08,1.09,10.07,2.14,14.33,5.25s7.58,6.83,11.66,9.89c4.96,3.72,10.26,5.09,16.35,5.77,3.34.37,6.71.59,10,1.31,1.33.29,2.75.59,4,1.14,1.71.75,3.26,1.95,4.91,2.83,4.95,2.66,10.27,4.55,15.69,5.98s11.37,2.51,17.09,3.63,11.48,2.56,17.24,3.7c11.3,2.24,21.07,9.08,32.42,11.13,6.03,1.09,12.05,1.8,18.17,2.15s12.23.52,18.25,1.6c3.26.59,6.48,1.43,9.57,2.61,1.35.52,3.37,2.01,4.83,2.01,1,0,2.17-.84,3.01-1.33,4.7-2.75,7.84-7.24,11.57-11.07,4.49-4.6,10.49-6.96,16.34-9.37,3.11-1.28,7.28-2.22,9.81-4.57,1.42-1.32-.71-3.43-2.12-2.12Z"/><path class="cls-5" d="m241.43,228.86c.96.34,7.54.48,8.65.63,1.65.23,3.16.29,4.84.1.89-.1,4.89-.2,5.36-.94.39-.98-6.09-21.14-4.17-33.27,2.33-14.72,1.43-30.46-5.72-44.23-2.6-5-8.96-11.18-15.02-12.19-3.65-.61-6.83-.51-10.1,1.01-2.41,1.12-4.01,2.02-5.6,3.51-.95.88-1.59,2.05-1.87,3.32h0c-2.12-7.07-10.27-8.63-16.79-8.25-6.67.39-12.32,4.66-16.29,9.68-5.41,6.83-9.06,18.13-10.68,26.76-1.18,6.32-.79,13.16-1.35,18.99-.39,4.13-1.92,27.63-4.95,32.68"/><path class="cls-6" d="m241.03,230.33c1.49.46,3.28.37,4.82.45,1.64.08,3.28.14,4.91.32,2.27.25,4.6.04,6.87-.2,1.52-.16,4.04-.32,4.19-2.3.06-.77-.23-1.66-.4-2.41-.33-1.46-.68-2.92-1.02-4.38-.99-4.27-1.89-8.57-2.49-12.91s-.94-9.06-.26-13.53c.92-6.06,1.35-12.2,1.02-18.33s-1.38-12.3-3.35-18.14c-1.79-5.32-4.14-10.45-8.08-14.53-4.36-4.52-9.83-7.45-16.22-7.26-3.35.1-6.46,1.31-9.32,3-2.44,1.44-4.72,3.42-5.36,6.3h2.94c-2.64-8.35-12.73-10.36-20.41-9.12-9.65,1.56-16.52,10.1-20.39,18.48-2.05,4.44-3.62,9.09-4.81,13.83-1.33,5.28-1.91,10.57-2.09,16-.22,6.65-.76,13.27-1.41,19.88-.4,4.01-.85,8.01-1.51,11.98-.46,2.75-.94,6.22-2.23,8.44-.99,1.7,1.64,3.23,2.63,1.54,1.19-2.04,1.66-4.54,2.11-6.83.66-3.36,1.11-6.77,1.51-10.18.64-5.44,1.04-10.9,1.53-16.35s.29-10.45.86-15.65c.51-4.7,1.76-9.38,3.23-13.86,2.79-8.51,7.08-17.42,15.14-22.08,4.08-2.36,8.82-2.93,13.43-2.15,4.13.7,8.13,2.63,9.47,6.88.43,1.36,2.6,1.54,2.94,0,.52-2.36,2.6-3.75,4.6-4.84,2.39-1.3,4.82-2.21,7.57-2.23,5.31-.04,9.71,2.39,13.38,6.1s5.89,8.51,7.56,13.46c1.79,5.32,2.83,10.87,3.19,16.46s.12,11.15-.61,16.66c-.3,2.27-.67,4.5-.72,6.79-.04,2.1.08,4.2.28,6.29.71,7.34,2.55,14.42,4.08,21.61.05.23.09.46.14.68.08.38.07.12.03.16-.02.03.03.12,0,.15-.02.02.16-1.36.56-1-.01-.01-.64.19-.77.21-1.97.39-4.29.52-6.28.45s-3.82-.31-5.73-.4c-1.51-.07-3.49,0-4.72-.37-1.88-.58-2.68,2.36-.81,2.94h0Z"/><path class="cls-1" d="m177.77,252.15c-.53,2.59-3.98,20.98,8.12,34.51,4.46,4.99,19.28,10.49,19.79,10.66,11.69,3.87,21.32,0,21.32,0,2.64-.88,8.23-2.79,13.2-7.11,14.21-12.36,11.5-34.17,11.17-36.54"/><path class="cls-1" d="m176.3,251.74c-1.61,7.92-1.22,16.55,1.52,24.17,1.92,5.33,5.02,10.72,9.65,14.12,3.99,2.93,8.64,5,13.18,6.91,4.05,1.71,8.03,3.03,12.46,3.46s9.55.03,13.97-1.5c4.8-1.65,9.34-3.68,13.32-6.89,4.49-3.62,7.73-8.48,9.82-13.82,2.89-7.4,3.66-15.83,2.76-23.7-.05-.41-.1-.82-.16-1.23-.11-.82-1.15-1.25-1.87-1.06-.88.23-1.18,1.06-1.06,1.87.04.29-.05-.46,0,.03.02.18.04.36.06.54.06.51.1,1.01.14,1.52.12,1.51.17,3.02.16,4.53-.02,4.29-.52,8.57-1.66,12.71-1.33,4.86-3.58,9.51-6.97,13.26-3.89,4.31-9,7.13-14.44,8.98-7.6,2.58-15.62,2.4-23.1-.56-4-1.58-7.96-3.35-11.69-5.5-1.82-1.05-3.67-2.18-5.14-3.69-2.07-2.12-3.72-4.72-5.04-7.36-3.93-7.88-4.69-17.63-2.99-25.99.39-1.91-2.55-2.73-2.94-.81h0Z"/><path class="cls-6" d="m198.05,225.13c-1.21.11-2.1.75-3.15,1.31-.48.26-1.05.4-1.48.73-.19.15-.39.34-.5.56-.07.13-.28,1.13-.18.58l.7-.91c-.34.23-2.1-.13-2.58-.2-1.02-.15-2.03-.35-3.05-.53-2.23-.38-4.36-.47-6.61-.22-4.51.49-8.95.14-13.45-.29-1.95-.19-1.94,2.86,0,3.05,2.52.24,5.05.46,7.58.56,2.67.1,5.25-.32,7.9-.43,2.45-.09,4.79.52,7.2.86,1.87.26,5.02.88,5.34-1.69l-.45,1.08c.19-.22,1.16-.52,1.46-.69.36-.2.86-.66,1.27-.7,1.93-.18,1.95-3.23,0-3.05h0Z"/><path class="cls-2" d="m233.42,257.35c-.1,5.97.59,11.23-1.72,16.9-.8,1.95-2.08,4.19-3.61,5.66-.84.81-1.85,1.37-2.73,2.09-1.38,1.11-1.49.6-3.03-.12-4.09-1.9-8.67-4.98-13.43-3.28-2.28.81-3.25,3.81-5.7,2.13-2.07-1.42-3.49-3.43-4.74-5.55-1.7-2.88-2.35-6.34-2.86-9.63s-1.02-6.62.15-9.77c-2.64-1.31-5.56-1.95-8.39-2.69-2.01-.53-6.63-1.12-8.11-2.76-1.11-1.23.1-3.43.59-4.77.95-2.56,2.16-4.89,3.65-7.17,2.4-3.67,5.24-7,8.53-9.93,3.07-2.74,7.53-5.25,11.67-5.7,1.63,4.92,6.82,8.1,11.81,8.66,4.47.5,11.23-3.98,12.52-8.18,2.91.74,5.5,2.37,8.11,3.83,2.77,1.55,4.64,3.73,6.55,6.15,2.21,2.79,4.42,5.27,6.18,8.37,1.21,2.13,1.61,4.66,2.09,7.03.18.87.94,2.49.42,3.35-.65,1.07-3.66,1.09-4.7,1.23-2.52.32-4.91.78-7.38,1.37-1.42.34-5.63,2.27-7.02,1.49"/><path class="cls-2" d="m231.9,257.35c-.07,5.32.48,10.74-1.41,15.84-.82,2.23-2.11,4.57-3.98,6.08-.51.41-1.06.76-1.58,1.15-.21.15-.97.72-.83.7.28-.04.09.05-.07-.08-.21-.17-.51-.27-.75-.39-.59-.29-1.19-.57-1.78-.87-4.11-2.06-9.37-4.72-13.91-2.26-.75.41-1.38,1.01-2.03,1.56-.61.52-.88.78-1.59.33-2.02-1.28-3.52-3.66-4.6-5.74-1.29-2.5-1.8-5.36-2.24-8.12-.5-3.13-.98-6.31.08-9.38.2-.59-.13-1.44-.7-1.72-3.17-1.52-6.66-2.42-10.09-3.15-1.35-.29-2.7-.55-4.01-.98-1.06-.34-2.31-.65-2-1.95.36-1.54,1.12-3.13,1.78-4.56.84-1.82,1.86-3.56,2.98-5.23,2.17-3.22,4.72-6.17,7.6-8.78s6.85-5.05,10.93-5.55l-1.47-1.12c1.97,5.61,8.11,9.91,14.12,9.81,5.27-.09,11.46-4.28,13.14-9.33l-1.87,1.06c2.06.56,3.93,1.52,5.79,2.57,1.7.96,3.39,1.88,4.83,3.22s2.6,2.84,3.81,4.34c1.33,1.66,2.7,3.28,3.92,5.02s2.21,3.49,2.75,5.56c.46,1.75.83,3.53,1.24,5.28.04.19,0,.67.21.36-.11.16-.53.21-.7.25-.65.16-1.31.22-1.97.28-1.81.16-3.61.46-5.4.8s-3.44.74-5.13,1.33c-.78.27-1.56.54-2.36.75-.33.08-1.32.39-1.58.27-1.77-.81-3.32,1.81-1.54,2.63,2.88,1.32,6.51-.97,9.35-1.61,2.19-.49,4.42-.93,6.65-1.12,1.53-.13,3.5-.19,4.69-1.31,1.49-1.39.68-3.33.27-4.99-.56-2.3-.86-4.59-1.88-6.76s-2.6-4.18-4.11-6.08-2.91-3.73-4.47-5.5c-1.71-1.93-3.65-3.43-5.88-4.7-2.46-1.4-4.94-2.79-7.69-3.54-.82-.22-1.61.28-1.87,1.06-.66,1.98-2.39,3.59-4.07,4.74-1.77,1.22-3.93,2.32-6.13,2.35-4.59.08-9.66-3.25-11.18-7.58-.2-.57-.79-1.2-1.47-1.12-8.67,1.06-15.42,7.79-20.28,14.57-2.44,3.41-4.38,7.15-5.74,11.12-.56,1.64-.62,3.46.74,4.72,1.12,1.02,2.69,1.52,4.12,1.91,4.16,1.13,8.51,1.66,12.43,3.55l-.7-1.72c-1.05,3.02-.8,6.14-.35,9.24.41,2.87.85,5.79,1.9,8.51s2.51,5.08,4.43,7.08c1.62,1.69,3.87,3.39,6.2,2,.8-.48,1.41-1.2,2.16-1.73,1.06-.75,2.44-.9,3.71-.83,2.79.16,5.37,1.64,7.81,2.86,1.02.51,2.07,1.21,3.16,1.53,1.25.37,2.17-.24,3.14-.96,1.07-.8,2.21-1.51,3.13-2.49s1.76-2.21,2.44-3.43c3.41-6.19,2.84-12.99,2.94-19.79.03-1.96-3.02-1.96-3.05,0h0Z"/><path class="cls-5" d="m217.57,325.42c8.79.12,18.29.03,26.92-1.16,8.14-1.12,16.48-3.63,20.95-11.28,3.99-6.81,6.45-19.14-2.91-22.78-3.79-1.47-6.09-3.05-12.18-3.05-1.35,0-3.84-.05-5.18.34-1.71.5-3.13,3.03-4.57,4.1-7.48,5.52-15.19,8.21-24.51,8.51-5.34.18-8.99-.37-13.72-2.54-4.8-2.2-5.82-2.29-14.09-7.14-9.31-5.46-18.28-5.62-27.26.79-4.56,3.26-7.55,10.02-4.06,15.23,3.19,4.75,6.72,9.6,12.01,11.56,3.68,1.37,8.26,2.58,12.07,3.22,2.56.43,3.88.16,5.97-1.38,3.91-2.87,8.14-5.21,12.25-7.8,3.4-2.14,11.49-7.28,16.02-4.41,1.99,1.26.94,3.22.56,5.14-.49,2.51-.09,4.6.52,7.06.52,2.07,1.04,3.84,1.5,5.89"/><path class="cls-5" d="m217.57,326.95c6.23.09,12.46.07,18.68-.34,5.34-.35,10.79-.86,15.95-2.37,4.54-1.32,8.93-3.55,12.11-7.12,2.74-3.08,4.55-7,5.51-10.99.87-3.59,1.12-7.58-.29-11.06-.71-1.75-1.8-3.3-3.29-4.48-1.62-1.29-3.56-1.94-5.44-2.74s-3.85-1.53-5.91-1.86c-2.4-.39-4.87-.43-7.29-.32s-4.09.67-5.75,2.46c-.76.82-1.44,1.72-2.34,2.4-1.11.84-2.29,1.59-3.48,2.31-4.57,2.76-9.62,4.57-14.91,5.33s-10.63.8-15.59-.95c-3.1-1.09-6.2-2.56-9.13-4.04-4.62-2.32-8.88-5.4-13.81-7.04s-10.59-1.72-15.61.17-9.69,4.95-11.86,9.87c-.97,2.21-1.41,4.6-1.03,6.99s1.82,4.47,3.25,6.47c2.95,4.14,6.39,7.98,11.25,9.84,2.71,1.03,5.53,1.82,8.35,2.47,2.43.56,5.2,1.36,7.7.79s4.69-2.71,6.84-4.09c2.56-1.65,5.19-3.18,7.78-4.79,3.48-2.16,7.06-4.57,11.15-5.39,1.19-.24,4.5-.5,4.56,1.32.03.98-.48,2.07-.64,3.04-.25,1.52-.21,3.02.01,4.54.44,2.97,1.43,5.84,2.09,8.76.44,1.91,3.37,1.1,2.94-.81-.65-2.84-1.65-5.65-2.06-8.54-.19-1.31-.17-2.65.11-3.94.24-1.1.65-2.21.59-3.35-.28-4.83-6.7-4.56-9.97-3.55-3.8,1.17-7.16,3.34-10.51,5.41-2.52,1.56-5.09,3.06-7.58,4.66-1.18.76-2.34,1.55-3.48,2.37-.86.62-1.77,1.29-2.85,1.46s-2.27-.11-3.35-.31c-1.42-.27-2.83-.59-4.24-.95-2.56-.66-5.29-1.33-7.67-2.5-4.37-2.16-7.48-6.41-10.06-10.41s-1-8.77,2.1-11.91c3.55-3.59,9.13-5.78,14.14-5.87,5.72-.1,10.51,2.45,15.33,5.21,2.86,1.63,5.76,3.14,8.78,4.46,3.89,1.7,7.61,3.4,11.87,3.89,5.05.59,10.41.08,15.34-1.12s9.59-3.37,13.79-6.2c.94-.63,1.91-1.27,2.72-2.06s1.49-1.76,2.35-2.52c1.41-1.26,3.89-.87,5.65-.86,4.32.03,7.99,1.33,11.89,3.04,3.2,1.4,4.94,4.27,5.19,7.7.57,7.8-3.73,15.97-10.59,19.69-3.98,2.16-8.55,3.12-13,3.72-5.78.77-11.63,1.02-17.46,1.09-2.94.04-5.87.02-8.81-.02-1.96-.03-1.96,3.02,0,3.05h0Z"/><path class="cls-1" d="m226.02,222.67s-.41-.14-.42-.14c-.12-.04-2.5-.83-2.62-.87v-6.06h-15.15v6.06s-2.36,1.68-3.03,2.02l-.51-.51c.24.41,3.75,6.24,10.61,6.57,4.98.24,9.73-2.53,12.12-7.07"/><path class="cls-6" d="m226.43,221.2c-1.01-.34-2.02-.67-3.03-1.01l1.12,1.47v-6.06c0-.82-.7-1.52-1.52-1.52h-15.15c-.82,0-1.52.7-1.52,1.52v6.06l.75-1.31c-.98.7-1.97,1.45-3.03,2.02l1.85.24-.51-.51c-1.22-1.22-3.27.34-2.39,1.85,1.98,3.39,5.58,6.11,9.41,6.98,6.37,1.44,12.87-1.82,15.95-7.48.94-1.72-1.69-3.26-2.63-1.54-2.53,4.65-7.88,7.41-13.11,5.93-2.91-.82-5.58-3.03-6.98-5.43l-2.39,1.85.51.51c.49.49,1.25.56,1.85.24,1.04-.55,2.1-1.27,3.01-2.01.99-.8.77-1.89.77-3.06v-4.33l-1.52,1.52h15.15l-1.52-1.52v6.06c0,.7.48,1.25,1.12,1.47,1.01.34,2.02.67,3.03,1.01,1.86.62,2.66-2.32.81-2.94h0Z"/><path class="cls-6" d="m203.25,224.07c1.98,3.39,5.57,6.11,9.39,6.98,6.38,1.44,12.87-1.81,15.97-7.48l-1.72.7c6.37,1.24,12.2,4.39,16.5,9.29,3.6,4.11,5.86,9.26,6.91,14.59.3,1.52.48,2.93.56,4.51l.75-1.31c-5.48,2.59-11.45,3.86-17.5,3.85-1.04,0-1.67.97-1.47,1.93,1.96,9.27.58,20.55-8.44,25.69-1.7.97-.17,3.6,1.54,2.63,10.26-5.84,12.09-18.47,9.84-29.13l-1.47,1.93c6.61.01,13.07-1.44,19.04-4.27.46-.22.78-.82.75-1.31-.55-11.23-6.39-22.1-16.32-27.7-3.07-1.73-6.43-2.95-9.88-3.62-.65-.13-1.38.08-1.72.7-2.55,4.68-7.92,7.42-13.18,5.91-2.85-.82-5.49-2.97-6.92-5.41-.99-1.69-3.62-.16-2.63,1.54h0Z"/><path class="cls-1" d="m190.2,180.79c.33-3.14.87-6.15,1.66-8.95l.66-.04c9.54,3.58,22.37-4.54,24.45-13.94,4.05,9.88,15.66,18.54,26.39,14.22,0,0,.37,5.94.32,9.12h-.18c.52-.77.51-1.04,2.05-1.64,2.8-1.08,4.2,1.57,4.76,2.84,1.11,2.52.04,9.58-7.03,6.55h-.08c-.64,5.32-2.01,10.51-4.68,15.09-4.66,7.99-13.13,12.69-22.33,12.69-13.64,0-24.93-10.76-26.2-27.04l-.26-.74c-7.07,3.03-8.14-4.03-7.03-6.55.56-1.27,1.96-3.92,4.76-2.84,1.54.6,1.76,1.55,2.27,2.31l.36-.15"/><path class="cls-6" d="m191.72,180.79c.31-2.89.83-5.74,1.61-8.55l-1.47,1.12c1.04-.06,2.22.51,3.33.66,1.41.19,2.82.21,4.24.05,2.98-.34,5.84-1.33,8.44-2.8,4.92-2.77,9.26-7.39,10.56-13h-2.94c4.41,10.54,16.49,19.87,28.26,15.28l-1.93-1.47c.19,3.03.35,6.08.32,9.12l1.52-1.52h-.18c.44.76.88,1.52,1.31,2.29.84-1.28,2.48-1.51,3.46-.13.73,1.02.95,1.85.87,3.08-.06.97-.4,2.19-1.25,2.82-1.49,1.09-3.17-.13-4.7-.32-.89-.11-1.43.79-1.52,1.52-.78,6.32-2.69,12.86-6.91,17.79-3.58,4.18-8.47,6.99-13.86,8.04-9.55,1.86-19.2-2.32-24.53-10.4-1.54-2.33-2.71-4.87-3.52-7.53-.45-1.49-.8-3.02-1.05-4.56-.2-1.25-.19-2.53-.62-3.73-.25-.7-1.07-1.39-1.87-1.06-1.28.53-3.07,1.18-4.29.19-.85-.69-1.15-1.93-1.18-2.95-.03-1.14.18-1.91.88-2.89.4-.55.92-1.07,1.65-1,1.12.11,1.51.98,2.03,1.81.32.51,1.1.96,1.72.7l.36-.15c.76-.32,1.29-1.01,1.06-1.87-.19-.72-1.11-1.38-1.87-1.06l-.36.15,1.72.7c-.85-1.35-1.6-2.44-3.18-3.01-1.42-.51-2.96-.36-4.19.53-1.73,1.24-2.75,3.44-2.86,5.53s.52,4.2,1.99,5.6c2.02,1.93,4.94,1.65,7.33.66l-1.87-1.06c.38,1.08.39,2.23.56,3.36.23,1.55.56,3.08,1,4.59.79,2.72,1.93,5.36,3.4,7.78,2.68,4.38,6.53,8.1,11.14,10.4,10.35,5.14,23.38,2.88,31.45-5.39,5.55-5.69,7.95-13.43,8.91-21.15l-1.52,1.52c.16.02.75.36,1.01.43.3.08.6.15.9.2.66.11,1.3.15,1.96.08,1.18-.13,2.27-.6,3.14-1.41,1.47-1.39,2.1-3.62,1.99-5.6-.11-2.09-1.13-4.29-2.86-5.53-2.44-1.74-5.64-.5-7.15,1.81-.65.99.21,2.28,1.31,2.29h.18c.83.01,1.51-.7,1.52-1.52.03-3.04-.13-6.09-.32-9.12-.05-.89-.94-1.85-1.93-1.47-10.1,3.93-20.68-4.01-24.51-13.16-.53-1.26-2.56-1.62-2.94,0-1.16,4.99-5.06,8.96-9.46,11.35-2.22,1.21-4.72,2.08-7.25,2.29-1.24.1-2.5.08-3.73-.15-1.1-.21-2.08-.68-3.2-.62-.67.04-1.28.45-1.47,1.12-.84,3.07-1.37,6.19-1.71,9.35-.21,1.95,2.84,1.93,3.05,0h0Z"/><path class="cls-6" d="m207.05,200.48c1.5,3.87,4.65,7.98,9.09,8.34s9.34-3.79,10.07-8.25c.22-1.35-.96-2.25-2.2-1.69.11-.05-.4.15-.54.2-.28.09-.57.17-.85.24-.57.14-1.15.25-1.73.32-1.39.18-2.8.22-4.2.18s-2.67-.13-3.98-.36c-.64-.11-1.28-.25-1.91-.43-.26-.07-.51-.15-.76-.24-.37-.13-.3-.1-.6-.24-.73-.35-1.62-.2-2.05.54-.38.65-.2,1.7.54,2.05,2.69,1.28,5.82,1.61,8.77,1.69s6.1-.13,8.84-1.35l-2.2-1.69c-.51,3.14-3.81,6.45-7.18,6.05-1.62-.19-2.94-1.3-3.97-2.48-.52-.59-.96-1.24-1.35-1.92-.2-.34-.39-.7-.57-1.05-.07-.14-.13-.28-.19-.42-.1-.23.03.09-.11-.26-.29-.76-1.01-1.28-1.85-1.05-.72.2-1.34,1.09-1.05,1.85h0Z"/><ellipse class="cls-1" cx="211.24" cy="185.73" rx="1.84" ry="2.16"/><path class="cls-1" d="m211.56,185.73c0,.11,0,.21-.02.32l.05-.4c-.03.22-.09.44-.17.65l.15-.36c-.08.18-.17.34-.29.5l.24-.31c-.11.13-.22.25-.35.35l.31-.24c-.12.09-.24.16-.37.22l.36-.15c-.13.05-.27.09-.41.12l.4-.05c-.15.02-.29.02-.44,0l.4.05c-.14-.02-.28-.06-.41-.12l.36.15c-.13-.06-.25-.13-.37-.22l.31.24c-.13-.1-.25-.22-.35-.35l.24.31c-.12-.15-.21-.32-.29-.5l.15.36c-.09-.21-.14-.42-.17-.65l.05.4c-.02-.21-.02-.42,0-.64l-.05.4c.03-.22.09-.44.17-.65l-.15.36c.08-.18.17-.34.29-.5l-.24.31c.11-.13.22-.25.35-.35l-.31.24c.12-.09.24-.16.37-.22l-.36.15c.13-.05.27-.09.41-.12l-.4.05c.15-.02.29-.02.44,0l-.4-.05c.14.02.28.06.41.12l-.36-.15c.13.06.25.13.37.22l-.31-.24c.13.1.25.22.35.35l-.24-.31c.12.15.21.32.29.5l-.15-.36c.09.21.14.42.17.65l-.05-.4c.01.11.02.21.02.32,0,.8.69,1.56,1.52,1.52s1.53-.67,1.52-1.52c0-.71-.19-1.44-.56-2.04-.43-.68-1.02-1.16-1.76-1.45-.6-.24-1.36-.25-1.97-.04-.75.26-1.31.72-1.77,1.35-.85,1.17-.83,2.83-.18,4.08.3.57.81,1.11,1.39,1.41.71.36,1.45.46,2.23.3.83-.17,1.49-.74,1.98-1.41.45-.62.65-1.43.66-2.19.01-.8-.71-1.56-1.52-1.52s-1.51.67-1.52,1.52Z"/><ellipse class="cls-1" cx="223.03" cy="185.73" rx="1.84" ry="2.16"/><path class="cls-1" d="m223.35,185.73c0,.11,0,.21-.02.32l.05-.4c-.03.22-.09.44-.17.65l.15-.36c-.08.18-.17.34-.29.5l.24-.31c-.11.13-.22.25-.35.35l.31-.24c-.12.09-.24.16-.37.22l.36-.15c-.13.05-.27.09-.41.12l.4-.05c-.15.02-.29.02-.44,0l.4.05c-.14-.02-.28-.06-.41-.12l.36.15c-.13-.06-.25-.13-.37-.22l.31.24c-.13-.1-.25-.22-.35-.35l.24.31c-.12-.15-.21-.32-.29-.5l.15.36c-.09-.21-.14-.42-.17-.65l.05.4c-.02-.21-.02-.42,0-.64l-.05.4c.03-.22.09-.44.17-.65l-.15.36c.08-.18.17-.34.29-.5l-.24.31c.11-.13.22-.25.35-.35l-.31.24c.12-.09.24-.16.37-.22l-.36.15c.13-.05.27-.09.41-.12l-.4.05c.15-.02.29-.02.44,0l-.4-.05c.14.02.28.06.41.12l-.36-.15c.13.06.25.13.37.22l-.31-.24c.13.1.25.22.35.35l-.24-.31c.12.15.21.32.29.5l-.15-.36c.09.21.14.42.17.65l-.05-.4c.01.11.02.21.02.32,0,.8.69,1.56,1.52,1.52s1.53-.67,1.52-1.52c0-.71-.19-1.44-.56-2.04-.43-.68-1.02-1.16-1.76-1.45-.6-.24-1.36-.25-1.97-.04-.75.26-1.31.72-1.77,1.35-.85,1.17-.83,2.83-.18,4.08.3.57.81,1.11,1.39,1.41.71.36,1.45.46,2.23.3.83-.17,1.49-.74,1.98-1.41.45-.62.65-1.43.66-2.19.01-.8-.71-1.56-1.52-1.52s-1.51.67-1.52,1.52Z"/><path class="cls-6" d="m208.18,282.16c-2.35-.77-4.92-1.52-6.79-3.21s-3.18-3.81-4.05-6.13c-1.56-4.16-1.91-8.68-1.7-13.08.04-.84.1-1.68.19-2.52.03-.3.07-.6.11-.9-.03.26,0,.05.03-.22.15-.96-.39-1.93-1.47-1.93-5.88.01-11.56-1.68-16.49-4.87l.7,1.72c1.54-9.74,6.98-18.91,15.72-23.8,3.29-1.84,6.9-2.99,10.62-3.56,1.93-.3,1.11-3.23-.81-2.94-7.16,1.1-13.91,4.48-18.92,9.74-3.95,4.16-6.76,9.31-8.41,14.79-.49,1.63-.88,3.28-1.14,4.96-.11.71.08,1.32.7,1.72,5.36,3.47,11.64,5.3,18.03,5.28l-1.47-1.93c-1.28,8.4-.68,18.94,5.65,25.29,2.38,2.39,5.52,3.47,8.67,4.51,1.87.61,2.67-2.33.81-2.94h0Z"/><path class="cls-6" d="m249.89,255.09c.04.32-.05-.43,0-.05.02.16.04.31.06.47.05.41.09.83.12,1.24.11,1.25.17,2.51.19,3.77.05,3.53-.2,7.08-.87,10.55-.84,4.33-2.28,8.54-4.57,12.32-2.75,4.53-6.68,8.1-11.34,10.6-6.55,3.51-14,5.26-21.42,4.27-1.53-.2-3.06-.53-4.55-.96-1.16-.33-2.29-.65-3.21-1.47-.25-.23-1.52-1.48-1.27-1.91.23-.4,2.46-.33,3-.33,1.77.01,3.48.64,5.25.48,1.87-.17,3.88-.8,5.36-1.98,2.31-1.83,2.3-5.08.34-7.21-.96-1.04-2.49-1.78-3.91-1.77-.75,0-1.44.12-2.19-.01-.25-.04-.5-.1-.74-.15-.19-.04-.38-.09-.57-.14l.32.21c-.03-.72-.08-1.04.59-1.42.57-.32,1.24-.45,1.87-.59,1.58-.35,3.25-.38,4.68.46,2.47,1.46,4.67,3.48,7.55,4.11,1.91.42,2.73-2.52.81-2.94-2.73-.6-4.74-2.71-7.15-3.99-2.6-1.38-5.98-1.1-8.64.01-1.27.53-2.33,1.41-2.7,2.79-.31,1.15-.14,2.9.79,3.74.8.73,2.3.88,3.33.99,1.47.17,3.02-.39,3.98,1.1,1.4,2.16-1.29,3.16-2.95,3.57-1.93.47-3.77-.25-5.71-.32-2.25-.08-6.29.15-6.37,3.22-.05,2.27,2.04,4.48,3.91,5.44,2.7,1.39,6.04,1.88,9.02,2.18s5.71.21,8.54-.19,5.55-1.2,8.24-2.21c5.41-2.03,10.49-5.06,14.34-9.43,3.35-3.8,5.7-8.34,7.18-13.17,2.16-7.07,2.64-14.81,1.63-22.13-.11-.82-1.15-1.25-1.87-1.06-.88.23-1.18,1.06-1.06,1.87h0Z"/><path class="cls-6" d="m176.3,252.76c-1.19,5.84-1.21,11.96-.16,17.82.85,4.74,2.54,9.38,5.11,13.46,2.61,4.15,5.93,7.3,10.14,9.77,4,2.34,8.44,4.37,12.94,5.52,1.9.49,2.71-2.45.81-2.94-3.64-.93-7.18-2.49-10.49-4.25-4.03-2.14-7.42-4.72-10.03-8.5-4.72-6.85-6.48-15.22-6.14-23.45.1-2.38.3-4.35.76-6.61.39-1.91-2.55-2.73-2.94-.81h0Z"/><path class="cls-1" d="m216.8,309.46c-1.16-1.1-3.67-1.58-5.31-1.91-3.22-.66-5.34,1.31-7.91,2.96-2.82,1.81-5.49,3.82-8.32,5.56s-6.34,3.31-8.79,5.56c-1.64,1.51-3.3,4.82-2.23,7.08,1.27,2.67,4.55,2.55,6.9,2.04,3.78-.81,7.26-2.55,11.12-3.06,2.22-.29,4.4-.48,6.61-.83s4.88-.48,6.97-1.13"/><path class="cls-1" d="m217.88,308.39c-1.8-1.55-4.48-2.17-6.8-2.43-2.63-.3-4.85.95-6.96,2.37-2.54,1.72-5.08,3.46-7.63,5.15s-5.08,2.95-7.59,4.5c-2.1,1.3-4.14,2.79-5.35,5-1.12,2.05-1.71,4.67-.47,6.8,2.71,4.65,9.24,2.38,13.16,1.08,1.54-.51,3.09-1.03,4.67-1.38,1.84-.41,3.73-.54,5.6-.77,3.21-.39,6.63-.6,9.73-1.51,1.88-.55,1.08-3.49-.81-2.94-4.88,1.43-10.16,1.17-15.12,2.23-2.54.54-4.95,1.51-7.43,2.24-1.72.51-3.69,1.09-5.49.66-1.94-.46-2.27-2.23-1.66-3.92.74-2.07,2.38-3.39,4.17-4.54,1.98-1.27,4.1-2.31,6.11-3.54,2.3-1.41,4.48-3,6.72-4.51,1.94-1.3,4.15-3.27,6.47-3.82,1.17-.28,2.34.03,3.49.3,1.01.24,2.21.48,3.02,1.18,1.48,1.27,3.64-.88,2.15-2.15h0Z"/><path class="cls-6" d="m217.88,308.39c-1.8-1.55-4.48-2.17-6.8-2.43-2.63-.3-4.85.95-6.96,2.37-2.54,1.72-5.08,3.46-7.63,5.15s-5.08,2.95-7.59,4.5c-2.1,1.3-4.14,2.79-5.35,5-1.12,2.05-1.71,4.67-.47,6.8,2.71,4.65,9.24,2.38,13.16,1.08,1.54-.51,3.09-1.03,4.67-1.38,1.84-.41,3.73-.54,5.6-.77,3.21-.39,6.63-.6,9.73-1.51,1.88-.55,1.08-3.49-.81-2.94-4.88,1.43-10.16,1.17-15.12,2.23-2.54.54-4.95,1.51-7.43,2.24-1.72.51-3.69,1.09-5.49.66-1.94-.46-2.27-2.23-1.66-3.92.74-2.07,2.38-3.39,4.17-4.54,1.98-1.27,4.1-2.31,6.11-3.54,2.3-1.41,4.48-3,6.72-4.51,1.94-1.3,4.15-3.27,6.47-3.82,1.17-.28,2.34.03,3.49.3,1.01.24,2.21.48,3.02,1.18,1.48,1.27,3.64-.88,2.15-2.15h0Z"/><path class="cls-6" d="m244.66,288.63c1.78-.48,3.76-.41,5.59-.37,2.31.05,4.58.36,6.83.86,4.09.91,7.95,2.85,10.08,6.63,4.39,7.79-1.31,17.68-7.65,22.46-7.33,5.54-17.48,5.6-26.26,5.62-2.86,0-5.72.07-8.58.13-1.36.03-2.73.05-4.09.06-.58,0-2.52.31-2.83-.11-.4-.53-.17-2.06-.23-2.74-.13-1.41-.28-2.81-.33-4.22-.03-1.08-.05-2.17-.02-3.24.03-.89,0-2.09.58-2.84s1.67-1.16,2.49-1.53c.99-.44,2.01-.8,3.01-1.2,2.83-1.12,5.69-2.16,8.58-3.1s5.98-1.8,9.02-2.49c1.52-.34,3.05-.62,4.58-.9s2.95-.67,4.47-.62c1.96.06,1.96-2.98,0-3.05-1.5-.05-2.95.28-4.41.57s-3.04.54-4.55.86c-3.05.65-6.07,1.47-9.05,2.41s-5.92,1.99-8.82,3.13c-2.14.84-4.52,1.53-6.41,2.86-2.04,1.44-2.49,3.49-2.56,5.89-.08,2.8.25,5.55.41,8.34.14,2.29.38,4.84,3.24,5.05s6.08-.07,9.06-.14c10.62-.22,22.64.84,32.18-4.76,8.05-4.73,14.78-15.25,12.09-24.8-1.49-5.28-5.92-9.05-11.04-10.65-2.83-.88-5.88-1.36-8.84-1.5-2.4-.11-5.03-.19-7.38.45-1.89.51-1.09,3.45.81,2.94h0Z"/><path class="cls-6" d="m186,286.55c-5.22-1.48-10.7-2.33-16.11-1.48-5.03.78-10.35,3.31-13.36,7.53-2.8,3.92-3.59,9.55-1.74,14.02,2.06,4.96,6.49,8.78,10.88,11.68,5.63,3.72,12.24,5.56,18.97,5.52,1.96-.01,1.96-3.06,0-3.05-5.3.04-10.59-1.15-15.23-3.75-4.14-2.32-8.25-5.52-10.78-9.59-2.27-3.65-2.34-8.2-.28-11.98,2.19-4.03,6.89-6.35,11.24-7.24,5.19-1.06,10.59-.14,15.61,1.28,1.89.54,2.7-2.4.81-2.94h0Z"/><path class="cls-6" d="m180.42,300.25c4.44,2.23,9.15,3.82,13.84,5.45,1.85.64,3.72,1.2,5.57,1.82s3.7,1.25,5.17,2.45,3.67-.91,2.15-2.15c-3.1-2.54-7.15-3.35-10.86-4.62-4.84-1.66-9.75-3.26-14.33-5.57-1.75-.88-3.29,1.75-1.54,2.63h0Z"/><path class="cls-6" d="m207.65,185.72c.86.86,1.72,1.69,2.88,2.12.66.24,1.4.24,2.07.09s1.32-.54,1.91-.92c.67-.43,1-1.37.55-2.08-.43-.67-1.36-1-2.08-.55-.35.22-.7.44-1.08.61l.36-.15c-.23.09-.45.16-.7.19l.4-.05c-.19.02-.38.02-.57,0l.4.05c-.21-.03-.4-.09-.6-.17l.36.15c-.19-.09-.38-.19-.56-.31-.06-.04-.36-.27-.14-.09s-.08-.07-.13-.12c-.33-.29-.64-.61-.95-.92-.56-.56-1.6-.61-2.15,0s-.6,1.55,0,2.15h0Z"/><path class="cls-6" d="m220.81,186.39c.82,1.41,2.38,2.31,4.03,2.19s3.1-.98,3.85-2.42c.33-.63.18-1.52-.49-1.87-.63-.33-1.52-.19-1.87.49-.06.12-.13.23-.2.34-.14.21.04.01.06-.07-.02.05-.11.13-.15.17-.09.09-.18.18-.27.26-.21.19.2-.13.08-.06-.05.03-.1.07-.16.11-.11.07-.23.13-.35.2-.2.1.33-.12.1-.04-.06.02-.12.04-.18.06-.12.04-.24.07-.36.1-.03,0-.18.04-.18.03,0,0,.42-.04.12-.02-.12,0-.25.01-.37,0-.06,0-.12,0-.18-.01-.25-.02.36.07.12.01-.12-.03-.24-.05-.36-.09-.06-.02-.12-.04-.18-.06-.23-.08.3.15.1.04-.11-.06-.22-.12-.33-.19-.2-.14-.02.03.07.06-.05-.02-.11-.09-.15-.13-.11-.1-.2-.21-.3-.32-.09-.09.2.3.05.05-.04-.07-.09-.14-.13-.22-.36-.62-1.25-.89-1.87-.49s-.88,1.21-.49,1.87h0Z"/><path class="cls-1" d="m350.27,297.35c2.8,5.88,9.3,6.67,14.91,8.14,6.9,1.81,14.44,2.73,21.57,2.8,14.09.14,28.09.66,42.22.52,5.45-.05,14.28.41,18.99-2.92,2.87-2.03,2.66-8.67,1-11.45-2.69-4.53-9.85-3.88-14.04-6.21-4.56-2.53-9.1-3.84-13.86-5.92-2.51-1.1-4.67-2.65-7.44-2.94-.98-.1-2.87.46-3.7.05-.92-.45-3.94-1.42-2.63-2.91,2.39-2.72-10.31,7.49-14.6.71-.43-1.23-.38-2.98-.41-4.32-3.84-1.56-11.13,2.12-15.24,3.09-3.77.89-7.63,1.87-11.38,3.06-2.45.78-4.85,1.65-7.07,2.89s-2.72,1.13-2.92,3.48,1.3,5.77-.26,7.33c-1.42,1.42-4.38.43-4.63,3.31"/><path class="cls-1" d="m348.98,298.11c2.87,5.79,9.11,7.16,14.85,8.59,7.89,1.96,15.79,3.02,23.92,3.11,8.69.1,17.37.33,26.06.45,7.56.11,15.19.31,22.74-.03,5.2-.24,13-.86,14.69-6.86.71-2.53.61-5.5-.22-7.99-.88-2.63-2.85-4.37-5.36-5.41s-5.46-1.4-8.15-2.27c-1.51-.49-2.86-1.35-4.29-2.03-1.75-.83-3.55-1.55-5.35-2.25-1.94-.75-3.89-1.47-5.8-2.3-1.61-.7-3.13-1.59-4.74-2.27s-3.18-1.09-4.88-.91c-1.28.14-1.97.14-3.11-.43-.22-.11-.44-.28-.67-.37-.3-.12-.22-.44-.23.06-.02.61.3,0,.45-.26.53-.97.05-2.19-1.09-2.36s-2.42.85-3.37,1.32c-2.58,1.29-7.38,3.71-9.92,1.18-.99-.99-.67-2.89-.69-4.17-.01-.71-.46-1.21-1.1-1.45-3.29-1.22-7.24.2-10.38,1.26-1.66.56-3.31,1.19-5.01,1.66-2.33.64-4.7,1.14-7.04,1.77-4.63,1.25-9.08,2.7-13.32,4.97-1.2.64-2.19,1.36-2.55,2.75-.48,1.85-.06,3.68.16,5.53.08.66.3,1.78-.23,2.32-.42.42-1.28.47-1.83.63-1.92.56-2.95,1.73-3.21,3.71s2.76,1.89,3,0c.13-.99,1.78-.98,2.52-1.25,1.41-.52,2.41-1.55,2.71-3.05.34-1.73-.2-3.46-.33-5.18-.09-1.16-.14-2.07.79-2.6,7.29-4.16,15.63-5.08,23.45-7.78,1.85-.64,3.71-1.3,5.62-1.75,1.58-.37,3.28-.67,4.84-.09l-1.1-1.45c.03,1.59-.15,3.62.62,5.08.46.88,1.34,1.66,2.18,2.17,1.75,1.05,3.85,1.08,5.81.73s3.85-1.13,5.64-1.98c.67-.32,1.32-.66,1.98-.99.24-.12.48-.24.72-.37.21-.1.04,0-.04-.03-.58-.18-.98-1.99-1.46-2.06-.03,0,.25-.25.03-.05-.48.44-.78,1.16-.79,1.8-.01,1.2.9,2.07,1.86,2.64.89.53,2.05,1.11,3.08,1.21,1.45.13,2.77-.35,4.21.03,1.69.44,3.19,1.34,4.75,2.1,1.74.84,3.55,1.54,5.35,2.24s3.55,1.34,5.29,2.1,3.25,1.65,4.91,2.4c2.48,1.12,5.19,1.48,7.79,2.22,2.26.65,4.56,1.66,5.38,4.05.75,2.17.89,5-.03,7.14-1,2.33-4.28,2.98-6.51,3.39-3,.56-6.09.6-9.13.6-3.57,0-7.13.04-10.7.02-8.52-.03-17.04-.24-25.56-.4s-16.25-.07-24.3-1.51c-3.38-.6-6.71-1.46-10.04-2.3-2.64-.66-5.43-1.42-7.61-3.14-1.17-.92-2.02-2.08-2.67-3.4-.86-1.73-3.45-.21-2.59,1.51h0Z"/><path class="cls-2" d="m401.39,299.49c1.28-2.89,2.94-5.38,4.27-8.25,2.99-6.47,6.07-12.9,9.43-19.19,4.2-7.85,9.02-15.19,14.13-22.48,1.92-2.74,3.85-5.49,6.26-7.81,3.01-2.9,6.6-4.89,10.83-4.88,5.74,0,8.66,6.9,7.51,11.69-3.07,12.74-10.34,24.64-16.73,35.93l-11.88,23.43s-18.44,2.3-24.58,1.54c0,0,2.3-3.84,1.54-6.15s-.77-3.07-.77-3.07"/><path class="cls-6" d="m402.68,300.24c1.48-3.26,3.37-6.32,4.88-9.58s3.1-6.6,4.71-9.87c3.19-6.45,6.61-12.77,10.45-18.86,1.82-2.89,3.71-5.73,5.65-8.54s3.97-5.91,6.29-8.59c1.96-2.26,4.25-4.36,7.05-5.52,2.29-.95,5.28-1.49,7.47-.04,1.77,1.18,2.78,3.26,3.2,5.29.53,2.57-.32,5.04-1.07,7.48-1.98,6.46-4.91,12.57-8.1,18.51-2.44,4.56-5.21,8.96-7.59,13.55-1.1,2.13-2.17,4.28-3.25,6.42-2.82,5.56-5.64,11.13-8.46,16.69l1.3-.74c-3.32.41-6.65.76-9.99,1.06-4.78.43-9.81,1.05-14.6.48l1.3,2.26c.86-1.45,1.56-3.12,1.8-4.8.2-1.35-.12-2.42-.49-3.71-.12-.43-.23-.85-.32-1.29-.07-.34-.02.16-.02-.18-.04-1.93-3.04-1.93-3,0,.03,1.53,1.04,2.97.91,4.48-.12,1.38-.77,2.8-1.48,3.98-.63,1.07.21,2.13,1.3,2.26,5.07.6,10.4-.09,15.45-.56,2.33-.22,4.65-.46,6.98-.72,1.06-.12,2.8-.05,3.45-1.01.48-.7.8-1.58,1.19-2.34l2.7-5.32,6.22-12.26c5.91-11.66,13.29-22.55,17.33-35.1,1.08-3.36,2.09-6.68,1.27-10.21-.66-2.84-2.38-5.67-5-7.08-3.16-1.7-7.05-.99-10.18.41-3.76,1.69-6.68,4.76-9.16,7.98-5.5,7.13-10.46,14.84-14.92,22.65-2.34,4.1-4.49,8.3-6.58,12.54s-3.92,8.66-6.15,12.83c-1.06,1.98-2.19,3.91-3.11,5.96-.79,1.74,1.79,3.27,2.59,1.51h0Z"/><path class="cls-3" d="m409.84,297.33c.19.3.36.62.52.94.08.16.16.33.24.5.04.1.09.2.13.29.11.26-.04-.1.03.07.35.87.66,1.76.91,2.66s.46,1.8.6,2.72c.07.44-.02-.17.01.08.01.11.03.22.04.34.02.22.04.43.04.65.01.39,0,.79-.04,1.18-.09.81.75,1.5,1.5,1.5.88,0,1.41-.69,1.5-1.5.21-1.91-.24-3.94-.76-5.77s-1.15-3.6-2.13-5.17c-.43-.69-1.34-.96-2.05-.54s-.97,1.36-.54,2.05h0Z"/><path class="cls-3" d="m423.19,275.98c.42.72.83,1.44,1.22,2.18.22.43.44.86.64,1.3.11.24.22.48.33.72s-.01-.04.05.11c.06.13.11.27.16.4.36.92.68,1.87.85,2.85,0,.04.06.4.03.18s0,.13.01.17c.02.23.03.47.02.7,0,.09-.02.19-.02.28,0,.18.08-.29,0-.03-.06.2-.1.4-.18.59-.3.75.33,1.65,1.05,1.85.85.23,1.55-.29,1.85-1.05.77-1.96.06-4.34-.66-6.21s-1.69-3.78-2.75-5.56c-.41-.7-1.35-.95-2.05-.54s-.95,1.35-.54,2.05h0Z"/><path class="cls-3" d="m431.55,263.59c2.91,3.28,2.74,8.28,2.53,12.38-.04.81.72,1.5,1.5,1.5.85,0,1.46-.69,1.5-1.5.26-5.01.09-10.54-3.41-14.5-.54-.61-1.57-.55-2.12,0-.6.6-.54,1.51,0,2.12h0Z"/><path class="cls-3" d="m442.6,246.02c.18.2-.09-.15.02.02.05.08.09.15.14.23s.26.51.21.4c.22.5.37,1.04.52,1.56.34,1.19.59,2.41.83,3.63.5,2.57,1.27,5.4.44,7.98-.59,1.84,2.3,2.63,2.89.8,1-3.11.16-6.46-.44-9.57-.45-2.34-.84-5.32-2.49-7.16-1.29-1.44-3.4.68-2.12,2.12h0Z"/><path class="cls-3" d="m416.01,287.17c.1.1.19.21.27.32l-.23-.3c.23.3.4.62.55.97l-.15-.36c.2.49.34,1,.48,1.51.18.62.39,1.23.68,1.81.35.7,1.4.96,2.05.54.72-.46.92-1.3.54-2.05-.06-.12-.12-.24-.17-.36l.15.36c-.28-.67-.43-1.39-.66-2.08-.3-.92-.73-1.76-1.4-2.46-.54-.57-1.58-.59-2.12,0s-.58,1.51,0,2.12h0Z"/><path class="cls-1" d="m419.38,308.89c.94-.42,2.36-.42,3.39-.51,1.69-.15,3.39-.22,5.07-.44,2.01-.27,4.03-.53,6.03-.82,1.66-.24,3.57-.41,5.14-1.02.82-.32,1.55-.91,2.34-1.31,1.05-.54,2.14-1,3.13-1.61,1.44-.88,2.67-2.11,2.38-3.94-.36-2.32-2.69-4.43-4.51-5.69-1.96-1.36-3.92-2.48-6.18-3.3s-4.5-1.62-6.76-2.12c-3.34-.74-6.75.86-9.02,3.32-1.85,2.01-4.46,4.87-4.49,7.73-.01,1.26-.53,9.58,1.78,9.66"/><path class="cls-1" d="m419.78,310.34c1.49-.56,3.26-.48,4.84-.6,2.02-.15,4.01-.4,6.01-.67,1.75-.23,3.49-.48,5.23-.72,1.65-.23,3.3-.54,4.77-1.38,2.48-1.43,6.1-2.53,7.37-5.34,1.37-3.03-.94-6.16-3.16-8.06-2.55-2.19-5.56-3.8-8.7-4.94-3.34-1.21-6.96-2.73-10.57-1.96-3.09.67-5.45,2.73-7.47,5.05s-3.61,4.67-3.71,7.72c-.07,2-.11,4.01.12,6.01s.74,4.61,3.17,4.87c1.92.2,1.9-2.8,0-3,.08,0,.32,0,.37.11.08.19-.03-.09-.04-.07.01-.08-.22-.55-.26-.7-.2-.73-.28-1.48-.33-2.23-.11-1.52-.08-3.05-.04-4.58.07-2.19,1.07-3.89,2.46-5.56,1.64-1.96,3.42-3.87,5.97-4.59,2.82-.8,5.78.49,8.42,1.42,2.79.98,5.41,2.23,7.79,4.01,1.43,1.07,4.43,3.63,3.03,5.64-.65.93-1.88,1.45-2.86,1.94-1.3.65-2.57,1.57-3.93,2.08s-2.93.63-4.39.83c-1.7.24-3.39.47-5.09.7s-3.38.36-5.08.49c-1.55.12-3.24.08-4.71.64-1.79.68-1.01,3.58.8,2.89h0Z"/><path class="cls-5" d="m443.33,294c.45.48,1,.85,1.55,1.22.22.15.44.3.66.46.15.11-.27-.22-.07-.05.05.05.11.09.16.14.11.1.21.2.31.3.05.05.09.12.14.17-.06-.05-.18-.23-.05-.07.1.14.2.28.3.42.2.28.39.57.58.86.38.58.73,1.17,1.08,1.76.4.68,1.37.98,2.05.54s.96-1.33.54-2.05c-.74-1.26-1.5-2.57-2.46-3.68-.43-.5-1-.89-1.54-1.26-.23-.16-.46-.31-.69-.47-.2-.14,0-.02.07.06-.05-.05-.11-.09-.16-.13-.12-.1-.23-.21-.33-.32-.54-.57-1.58-.59-2.12,0s-.58,1.51,0,2.12h0Z"/><path class="cls-5" d="m349.06,295.15c-.02.5.07,1.02.16,1.5.05.28.13.55.21.82.16.55.31,1.1.45,1.66.12.51.25,1.02.44,1.5.12.31.23.62.4.91.29.49.49.66.89.97.88.68,1.9.83,2.98.59.72-.16,1.43-.76,1.79-1.38s.54-1.59.3-2.31-.68-1.43-1.38-1.79c-.73-.39-1.5-.49-2.31-.3h-.06c.27-.02.53-.06.8-.09-.04,0-.08,0-.11,0l.8.11s-.07-.01-.1-.02l.72.3s-.06-.03-.08-.05l.61.47s-.07-.07-.1-.11l.47.61c-.04-.06-.07-.12-.1-.19l.3.72c-.27-.66-.41-1.38-.58-2.07s-.44-1.38-.55-2.1l.11.8c-.02-.18-.03-.36-.03-.54.04-.74-.36-1.6-.88-2.12s-1.37-.91-2.12-.88-1.58.29-2.12.88-.84,1.3-.88,2.12h0Z"/><path class="cls-5" d="m350.61,305.24c2.78,1.83,5.9,2.99,9.11,3.82l.8-2.89c-1.9-.39-3.28-1.1-4.95-2.14-1.57-.97-3.08-2.04-4.74-2.85-.73-.35-1.62-.2-2.05.54-.38.66-.19,1.7.54,2.05,3.53,1.71,6.46,4.48,10.41,5.29.77.16,1.66-.22,1.85-1.05.18-.78-.23-1.63-1.05-1.85-3.09-.8-5.73-1.77-8.39-3.52-.68-.45-1.66-.13-2.05.54-.43.73-.14,1.61.54,2.05h0Z"/><path class="cls-5" d="m416.47,316c3.02-.55,5.95-1.31,9-1.74s5.88-1,8.77-1.67c1.33-.31,2.75-.49,4.03-.94s2.51-.95,3.77-1.41c2.37-.86,5.07-1.62,7.14-3.1,1.4-1,.55-3.04-1.16-2.74-.21.04-.41.07-.62.1l1.69,2.2c.42-.66,1.12-1.11,1.58-1.76.31-.45.57-1.25,1.04-1.56.79-.52,1.03-1.65.3-2.36-.91-.89-2.15-1.22-3.2-.31-.42.37-.6.93-1,1.31-.48.47-1.22.76-1.78,1.14-1.18.8-2.28,1.5-3.69,1.83-1.56.36-3.12.72-4.68,1.1-1.39.34-2.74.66-4.07,1.19s-2.62,1.2-4.04,1.55c-2.82.69-5.27,2.38-8.11,2.98l1.16,2.74c2.1-1.09,4.4-1.9,6.57-2.87,2.4-1.08,4.9-1.68,7.47-2.2s4.97-.97,7.38-1.73c1.79-.57,3.54-1.39,4.05-3.36.27-1.05-.73-2.23-1.85-1.85-1.66.57-3.16,1.51-4.76,2.23-1.76.79-3.51,1.6-5.23,2.46s-3.3,1.78-5.06,2.32c-.75.23-1.51.33-2.28.44-1.02.14-2.03.44-3.06.49l1.3,2.26c1.01-1.34,3.06-1.49,4.01-2.98.66-1.04-.46-2.69-1.69-2.2-1.5.59-2.91,1.35-4.38,2.02-.84.38-1.84.67-2.31,1.54-.91,1.7,1.68,3.22,2.59,1.51-.18.34.32-.07.51-.15.38-.17.76-.33,1.14-.52,1.07-.52,2.13-1.08,3.24-1.52l-1.69-2.2c-.33.51-1.51.9-2.03,1.21-.79.48-1.42,1.03-1.98,1.76-.69.91.24,2.31,1.3,2.26,3.8-.18,7.27-1.33,10.64-3.02,1.81-.91,3.62-1.8,5.47-2.64,1.69-.77,3.34-1.8,5.09-2.4l-1.85-1.85c-.35,1.34-3.4,1.71-4.5,1.98-2.36.58-4.76.96-7.13,1.51-2.2.51-4.25,1.27-6.31,2.2s-4.18,1.66-6.15,2.69c-1.57.82-.44,3.08,1.16,2.74,2.58-.54,4.76-2.08,7.28-2.78,1.26-.35,2.43-.68,3.63-1.21,1.28-.57,2.57-1.09,3.93-1.42s2.79-.69,4.19-1.02,2.71-.53,3.99-1.13c1.13-.53,2.1-1.32,3.17-1.97.52-.31,1.08-.61,1.52-1.04.34-.33.57-1.02.99-1.21l-1.16.15.12.06.3-2.36c-.83.55-1.28,1.29-1.79,2.12s-1.36,1.42-1.9,2.27c-.77,1.23.5,2.38,1.69,2.2.21-.03.42-.06.62-.1l-1.16-2.74c-1.95,1.4-4.57,2.18-6.83,2.93-1.21.4-2.36.95-3.56,1.34-1.38.44-2.88.65-4.3.98-2.75.63-5.59,1.24-8.39,1.57-3.03.35-5.92,1.19-8.92,1.74-1.9.34-1.09,3.23.8,2.89h0Z"/><path class="cls-3" d="m351.05,306.78s5.38,23.81,13.83,26.89c8.45,3.07,38.41,14.6,72.98-1.54,0,0,6.15-1.54,10.75-25.35,0,0-12.29,10.75-49.16,9.22-36.87-1.54-48.4-9.22-48.4-9.22Z"/><path class="cls-6" d="m349.6,307.18c1.51,6.69,3.73,13.48,6.97,19.53,1.87,3.48,4.29,7.06,8.14,8.48,3.04,1.13,6.11,2.17,9.23,3.06,10.94,3.12,22.44,4.42,33.79,3.46,7.5-.63,14.92-2.19,22.02-4.68,2.91-1.02,5.73-2.24,8.55-3.48.4-.18.76-.33,1.12-.58,1.86-1.29,3.17-3.33,4.22-5.29,2.47-4.58,3.96-9.71,5.17-14.74.46-1.91.87-3.84,1.24-5.77.29-1.49-1.35-2.47-2.51-1.46-.38.33.2-.13-.07.06-.37.25-.73.52-1.11.76-1.51.95-3.12,1.75-4.76,2.45-6.45,2.75-14.05,4.24-21.2,4.98-12.3,1.28-24.82.69-37.09-.66-8.05-.89-16.16-2.21-23.9-4.66-1.21-.38-2.41-.8-3.59-1.26-.25-.1-.51-.2-.76-.3-.44-.18-.06-.02-.37-.15-.35-.15-.7-.31-1.05-.47-.62-.29-1.27-.6-1.84-.98-1.61-1.07-3.12,1.53-1.51,2.59,1.98,1.32,4.41,2.13,6.64,2.91,7.26,2.52,14.9,3.87,22.5,4.86,12.58,1.65,25.47,2.39,38.13,1.38,8.03-.64,16.17-1.95,23.71-4.89,2.88-1.12,6.03-2.43,8.4-4.5l-2.51-1.46c-1.14,5.85-2.5,11.8-4.89,17.28-.66,1.51-1.41,2.99-2.31,4.36-.56.85-.86,1.28-1.7,2.07-.11.1-.23.2-.35.3-.14.12.29-.17-.07.05-.15.09-.32.18-.47.28-.29.21.39-.17.11-.04-1.21.52-2.41,1.09-3.63,1.6-6.94,2.9-14.25,4.93-21.7,5.96-11.45,1.59-23.17.76-34.35-2.05-3.51-.88-6.96-1.96-10.36-3.18-1.22-.44-2.39-.76-3.42-1.49-1.41-1-2.5-2.45-3.43-3.89-4.05-6.25-6.1-13.65-7.98-20.78-.04-.15-.07-.31-.11-.46-.43-1.88-3.32-1.09-2.89.8Z"/><path class="cls-1" d="m360.14,305.6l22.41,27.3,41.48-23.81s-51.73,2.24-63.89-3.49Z"/><path class="cls-1" d="m382.42,333.55l-24.08-29.35,2.01.95c11.91,5.61,63.14,3.47,63.65,3.44l2.05-.09-43.63,25.05Zm-20.69-26.79l20.92,25.5,39.35-22.59c-9.34.34-47.21,1.4-60.28-2.91Z"/><path class="cls-6" d="m442.83,292.1c1.89.52,3.61,1.88,4.85,3.38.41.5.84,1.07.98,1.72-.01-.05-.06.5-.02.27.02-.13-.12.4-.16.52.08-.23-.37.64-.4.66-.16.22-.64.7-.96.99-.8.7-1.82,1.29-2.82,1.81-2.97,1.53-6.23,2.49-9.45,3.29-4.39,1.1-8.87,1.85-13.36,2.39-11.06,1.33-22.28,1.55-33.39.89-9.17-.55-18.54-1.61-27.33-4.41-2.82-.9-6.02-2.02-8.23-3.96-.2-.18-.4-.37-.59-.56-.09-.1-.45-.54-.34-.39-.13-.19-.25-.38-.36-.58-.2-.37,0,.04-.14-.35-.03-.08-.04-.16-.06-.24-.09-.34,0,.24-.02-.09-.02-.34.01-.65.13-.97.48-1.25,1.81-2.12,2.88-2.8,1.63-1.03.12-3.63-1.51-2.59-3.05,1.93-5.92,5.31-3.66,8.9,1.4,2.22,3.92,3.62,6.24,4.67,8.51,3.85,18.27,5.1,27.48,5.95,12.29,1.13,24.77,1.07,37.04-.25,5.11-.55,10.21-1.32,15.22-2.51,3.75-.9,7.53-2.02,10.98-3.79,2.3-1.19,4.95-2.94,5.66-5.61.5-1.88-.4-3.53-1.58-4.95-1.6-1.93-3.84-3.6-6.27-4.27-1.86-.52-2.66,2.38-.8,2.89h0Z"/><path class="cls-6" d="m435.1,292.73c.78-.82,1.26-1.99,1.71-3.02.57-1.32,1.16-2.7,1.38-4.13.11-.75.15-1.47-.2-2.17-.48-.95-1.56-1.57-2.58-1.01-1.17.64-1.19,2.4-1.25,3.55-.02.42-.02.84-.06,1.26-.01.15-.03.29-.05.44-.02.18,0-.06.01-.08-.01.09-.02.17-.04.26-.05.32-.11.65-.18.97-.13.61-.31,1.2-.54,1.78-.29.73.32,1.68,1.05,1.85.87.2,1.53-.27,1.85-1.05.59-1.47.89-3.13.94-4.71.01-.41.03-.82.07-1.22,0-.12.02-.23.03-.35.05-.42-.06.36,0,0,.04-.21.09-.41.14-.62.07-.28-.19.37-.06.14.07-.13.16-.13-.16.2.07-.07-.32.22-.4.25-.52.22-1.05.09-1.4-.24.18.17-.25-.39-.03-.03s-.09-.33-.02-.08c.08.27,0-.46-.02-.15,0,.09,0,.18,0,.28,0,.05,0,.09-.01.14-.02.35.06-.35.01-.1-.1.53-.24,1.05-.4,1.57-.1.29-.2.59-.31.87-.06.16-.12.32-.19.48-.05.12-.29.65-.08.2-.27.6-.53,1.2-.84,1.78-.12.23-.25.46-.39.68-.05.08-.1.16-.16.23-.16.24.3-.34.06-.09-.54.57-.61,1.56,0,2.12s1.54.61,2.12,0h0Z"/><path class="cls-6" d="m435.32,290.52c1.84-1.35,3.7-2.85,5.88-3.59,2.58-.88,5.33-.66,8-.54l-1.45-1.9c-.12.7-.13.75-.54,1.34-.18.26.14-.13-.1.12-.09.1-.18.2-.28.3s-.2.19-.31.29c-.34.3.22-.15-.15.12-1.12.81-2.1,1.19-3.38,1.54-1.4.39-2.46.54-3.85.59-.6.02-1.2,0-1.8-.04-.14-.01-.27-.03-.41-.04.34.04-.05-.01-.12-.03-.27-.06-.54-.11-.81-.19-1.86-.54-2.65,2.35-.8,2.89,2.81.83,6.14.45,8.91-.38s6.01-2.57,6.53-5.71c.16-.98-.4-1.85-1.45-1.9-2.93-.13-5.97-.32-8.8.65-2.46.84-4.52,2.37-6.6,3.9-.65.48-.98,1.3-.54,2.05.38.64,1.4,1.02,2.05.54h0Z"/><path class="cls-6" d="m435.66,290.22c-1.1-5.28-7.2-4.8-11.24-3.82-5.42,1.31-9.55,6.06-10.36,11.55-.54,3.67.36,7.46,2.44,10.53,1.08,1.59,3.68.09,2.59-1.51-3.46-5.1-2.75-12.38,2.46-16.05,1.95-1.38,4.4-2,6.77-2.16,1.94-.14,3.98.06,4.44,2.26.4,1.89,3.29,1.09,2.89-.8h0Z"/><path class="cls-6" d="m447.71,301.32c1.97-5.57-3.64-9.9-8.21-11.62-.74-.28-1.68.31-1.85,1.05-.19.85.26,1.55,1.05,1.85.12.05.24.09.36.14.37.14-.17-.08.12.05.22.1.43.2.65.3.47.23.92.49,1.37.76.24.15.47.3.7.46.11.07.21.15.32.23.28.2-.14-.12.11.08.43.35.85.72,1.23,1.13.17.18.34.38.5.57-.21-.25.02.03.07.09.08.12.16.24.24.36.14.22.27.45.38.69.03.06.14.41.04.08.04.11.08.22.12.34.08.25.11.51.18.75.02.11.01.08-.01-.1,0,.08.01.16.02.24,0,.12,0,.24,0,.37s-.01.25-.02.37c-.03.4.07-.29-.02.11-.07.31-.15.61-.25.9-.26.74.3,1.67,1.05,1.85.84.19,1.56-.25,1.85-1.05h0Z"/><path class="cls-6" d="m387.61,310.5c1.4-.16,2.41-.86,3.21-2,.6-.87.98-1.93,1.22-2.96.65-2.84-.38-5.83-2.8-7.51-2-1.39-4.7-1.17-6.93-.58-2.36.62-4.73,1.96-5.2,4.57s.59,5.14,2.36,6.91c1.37,1.37,3.49-.75,2.12-2.12-.14-.15-.28-.3-.41-.45-.04-.04-.17-.22,0,0-.05-.07-.1-.14-.15-.21-.25-.36-.45-.74-.64-1.13-.03-.05-.1-.26,0,0-.03-.08-.06-.16-.09-.25-.07-.21-.14-.41-.19-.63-.04-.17-.07-.34-.1-.51.05.32,0,.04,0-.05,0-.13-.02-.25-.02-.38,0-.19,0-.38.03-.56-.04.33.03-.09.06-.21.03-.1.06-.2.09-.29.07-.22-.18.29.02-.04.04-.07.08-.15.12-.22.02-.03.26-.37.06-.11.12-.16.27-.3.41-.43.05-.05.29-.21.08-.07.07-.05.14-.1.22-.14.45-.28.68-.37,1.04-.49.45-.16.91-.29,1.37-.4.23-.05.46-.1.68-.14.1-.02.2-.03.3-.05.37-.06-.16,0,.17-.02.43-.03.86-.06,1.3-.04.1,0,.19.01.29.02-.29-.03.01,0,.09.02.24.05.48.12.72.19.06.02.26.11,0,0,.08.04.16.08.24.12.19.1.39.22.56.35-.23-.18.17.17.21.21.07.07.13.14.19.21.02.02.27.35.13.16.63.87.91,1.7.88,2.68-.01.39-.1.79-.22,1.25-.06.22-.13.45-.21.67-.04.1-.08.21-.12.31.1-.24-.03.05-.07.13-.1.2-.21.39-.33.58-.05.07-.1.15-.15.21.19-.26-.07.06-.09.09-.06.06-.12.11-.18.17.23-.22-.02,0-.09.05-.01,0-.36.16-.15.08.25-.09-.5.07-.03.02-.8.09-1.5.62-1.5,1.5,0,.74.69,1.59,1.5,1.5h0Z"/><path class="cls-6" d="m399.11,311.19c3.56-1.68,5.14-6.09,3.57-9.7-.74-1.69-2.23-2.86-3.91-3.52s-3.53-.62-5.29-.26c-.89.19-1.74.52-2.46,1.08-.87.68-1.38,1.61-1.76,2.64-.28.76.32,1.64,1.05,1.85.84.23,1.56-.29,1.85-1.05.01-.03.11-.27.02-.07.03-.07.06-.13.09-.2.07-.14.15-.28.23-.42.06-.1.24-.29.07-.1.11-.12.22-.22.33-.33-.24.23.03-.01.12-.07.12-.07.24-.13.36-.19-.26.13.02,0,.15-.05.14-.05.28-.09.43-.12.31-.08.63-.14.95-.19.1-.02.2-.03.3-.04-.03,0-.21.02-.04,0,.18-.02.37-.03.55-.03.3,0,.6,0,.9.05-.29-.03.14.03.22.05.18.04.36.08.54.14.16.05.31.1.46.15.26.09-.09-.06.15.07.31.16.6.33.89.52.19.13-.16-.14.02.01.05.04.1.09.16.13.12.11.23.22.34.33.05.05.31.39.15.17.09.13.18.26.26.4s.16.28.22.43c-.11-.25.04.16.06.24.05.16.08.33.11.5-.04-.23.03.31.03.37.02.33.02.66,0,.99,0,.08-.07.53-.02.26-.03.19-.07.38-.12.56s-.11.36-.17.54c0,.01-.09.22-.03.08.07-.15-.11.21-.1.2-.09.16-.18.33-.28.48-.04.06-.08.12-.12.17-.14.19.13-.15-.03.03-.61.68-.93.91-1.78,1.31-.73.35-.92,1.4-.54,2.05.44.75,1.32.89,2.05.54h0Z"/><path class="cls-6" d="m381.24,299.64c-.37-1.57-1.93-2.39-3.38-2.72s-2.83-.35-4.25-.12c-3.27.53-6.8,3.04-6.47,6.73.09,1.02.44,1.95,1.04,2.78.3.41.63.8.97,1.19.13.15.26.3.39.45.07.08.13.15.19.23.18.22-.05-.07.14.19.47.66,1.31.98,2.05.54.65-.38,1.01-1.39.54-2.05-.43-.59-.9-1.14-1.38-1.7-.11-.13-.22-.26-.32-.39s0,0,.02.02c-.04-.06-.08-.11-.12-.17-.08-.12-.16-.23-.23-.35-.03-.06-.07-.12-.1-.18-.14-.23,0,.06-.05-.09-.05-.14-.09-.28-.12-.42-.02-.07-.03-.15-.04-.22,0,.04.02.18.01,0,0-.2,0-.4.01-.6-.02.24.04-.18.06-.25.02-.07.04-.14.06-.21,0-.01.08-.23.02-.09s.03-.07.04-.08c.03-.06.06-.12.1-.19.08-.14.17-.28.26-.41-.14.2.11-.12.16-.18.1-.1.2-.2.3-.29.05-.05.38-.3.19-.17.25-.18.52-.35.79-.49.15-.08.3-.15.46-.22-.21.1.11-.04.18-.07.31-.12.64-.21.96-.29.27-.07.54-.12.82-.16-.26.04.03,0,.13,0,.11,0,.22-.01.33-.02.51-.02,1.01.01,1.51.06.03,0,.24.03.05,0-.21-.03.18.03.18.03.15.03.29.06.44.09s.28.07.42.12c.11.04.49.21.2.06.12.06.23.12.35.19.3.16-.1-.1.08.05.03.03.07.09.11.11.13.06-.14-.24-.02-.03.1.18-.06-.29.03.1.19.79,1.09,1.26,1.85,1.05.81-.22,1.23-1.05,1.05-1.85h0Z"/><path class="cls-6" d="m352.6,289.51c-.63.45-1.24.91-1.77,1.48-.64.69-.57,1.87.3,2.36,2.58,1.44,3.97,4.79,3.83,7.65-.08,1.62.26,3.04,1.71,3.95.55.35,1.12.47,1.49,1.03.45.69.65,1.54,1.08,2.25,1.8,2.95,4.64,5.19,6.76,7.91,2.46,3.16,5.28,6.01,7.76,9.15,1.46,1.86,2.96,3.71,4.35,5.62,1.11,1.52,2.12,3.06,3.71,4.12.95.63,2.28-.2,2.26-1.3v-.31c-.76.43-1.51.86-2.26,1.3.41.21.8.33,1.25.44.86.21,1.53-.28,1.85-1.05.65-1.61,2.47-2.7,3.94-3.46,1.78-.92,3.68-1.54,5.45-2.51,3.9-2.14,7.5-4.77,11.17-7.28,1.78-1.22,3.6-2.31,5.56-3.22s3.68-2.16,5.54-3.22c3.42-1.94,7.31-2.41,10.51-4.83,1.52-1.15.03-3.76-1.51-2.59-3.28,2.48-7.38,2.98-10.88,5.04-1.99,1.17-3.88,2.36-5.96,3.36s-3.96,2.28-5.83,3.59c-3.87,2.71-7.83,5.6-12.14,7.58-3.45,1.58-7.19,2.93-8.74,6.74l1.85-1.05c-.18-.04-.36-.09-.53-.14-.98-.5-2.28.1-2.26,1.3v.31c.76-.43,1.51-.86,2.26-1.3-1.32-.88-2.12-2.38-3.06-3.62-1.3-1.71-2.62-3.4-3.95-5.09-2.48-3.16-5.28-6.04-7.78-9.19-1.1-1.38-2.17-2.73-3.4-4s-2.53-2.49-3.41-4.01c-.8-1.37-1.09-2.81-2.55-3.68-.51-.3-1.1-.37-1.24-.99-.17-.76.09-1.67,0-2.45-.39-3.37-2.26-6.98-5.29-8.68l.3,2.36c.36-.39.74-.71,1.16-1.02,1.55-1.12.06-3.72-1.51-2.59h0Z"/><path class="cls-6" d="m385.79,298.42c0-.81.06-1.61-.11-2.41-.21-1.01-.91-1.83-1.79-2.35-.33-.2-.78-.25-1.16-.15-.35.1-.73.36-.9.69-.38.72-.18,1.63.54,2.05.11.06.21.13.31.2l-.3-.23c.16.12.3.26.42.41l-.23-.3c.1.13.18.27.24.42l-.15-.36c.08.2.13.41.16.62l-.05-.4c.08.6.02,1.21.02,1.81,0,.38.17.79.44,1.06s.69.46,1.06.44c.81-.04,1.5-.66,1.5-1.5h0Z"/><path class="cls-6" d="m396.67,297.67s-.02-.04-.03-.06l.15.36c-.02-.06-.04-.11-.05-.17l.05.4c0-.07,0-.13,0-.2l-.05.4c.01-.08.04-.16.07-.23l-.15.36c.05-.12.12-.22.2-.32l-.23.3c.14-.18.31-.34.49-.48l-.3.23c.22-.17.46-.32.72-.43l-.36.15c.07-.03.14-.05.21-.08.37-.11.7-.36.9-.69.11-.17.17-.36.18-.56.04-.2.04-.4-.03-.6-.12-.36-.34-.71-.69-.9s-.76-.27-1.16-.15c-.2.06-.38.15-.57.23-.09.04-.17.08-.25.12-.29.16-.55.36-.81.57-.17.13-.32.28-.45.45s-.29.35-.39.54c-.08.15-.14.3-.2.46-.02.04-.03.09-.05.14-.04.17-.06.35-.08.52,0,.05,0,.1,0,.15.03.39.1.65.28,1.01.09.17.22.32.39.42.14.13.31.22.51.27.2.06.4.07.6.03.2,0,.39-.07.56-.18.32-.21.6-.51.69-.9l.05-.4c0-.27-.07-.52-.2-.76h0Z"/><path class="cls-6" d="m375.17,298.19c.05-.71-.07-1.43-.43-2.05-.3-.51-.74-.92-1.16-1.32-.29-.27-.66-.44-1.06-.44-.37,0-.81.16-1.06.44s-.46.66-.44,1.06.15.79.44,1.06c.27.25.55.5.78.79l-.23-.3c.1.13.19.27.25.42l-.15-.36c.06.15.1.3.12.45l-.05-.4c.03.22.03.43.01.65,0,.21.04.4.13.58.06.19.16.35.31.48.26.26.69.46,1.06.44s.79-.14,1.06-.44l.23-.3c.14-.23.2-.49.2-.76h0Z"/><path class="cls-6" d="m356.3,293.87c-.46-3.13-3.33-6.73-.54-9.48,1.08-1.06,2.49-1.74,3.91-2.21,2.05-.68,4.13-1.26,6.2-1.89,4.23-1.29,8.36-2.87,12.6-4.12s8.27-2.74,12.52-3.26c1.89-.23,1.92-3.23,0-3-4.69.57-9.26,2.14-13.77,3.5-4.85,1.46-9.6,3.22-14.45,4.68-3.64,1.1-7.78,2.04-10.1,5.35-2.63,3.74.18,7.38.75,11.23.28,1.9,3.17,1.09,2.89-.8h0Z"/><path class="cls-6" d="m373.93,298.68c2.31-2.07,3.83-4.9,5.73-7.32,2.17-2.76,4.43-5.43,6.68-8.11s4.53-5.21,6.7-7.88c.77-.95,1.77-2.23,1.46-3.55s-1.48-1.49-2.54-1.73c-1.88-.43-2.68,2.46-.8,2.89.22.05.44.13.66.14.08.01.16.03.23.05.45.14.27-.15-.53-.87-.34.18-.73,1.08-1.01,1.41-.93,1.08-1.87,2.15-2.79,3.23-1.95,2.3-3.87,4.62-5.82,6.92-1.84,2.17-3.61,4.38-5.36,6.62-1.58,2.03-2.82,4.35-4.76,6.08-1.44,1.29.69,3.41,2.12,2.12h0Z"/><path class="cls-6" d="m392,272.97c.63,1.19,1.11,2.44,1.69,3.65.26.55.6.83.42,1.38-.15.47-.56.94-.82,1.35-1.39,2.15-2.78,4.24-4.39,6.23s-3.26,3.85-4.85,5.8-3.05,4.07-4.97,5.75c-1.46,1.27.67,3.39,2.12,2.12,2.19-1.92,3.82-4.37,5.67-6.6s3.75-4.39,5.51-6.68c1.6-2.08,3.37-4.38,4.48-6.78.59-1.29.36-2.26-.27-3.47-.73-1.4-1.26-2.88-2-4.27-.9-1.71-3.49-.19-2.59,1.51h0Z"/><path class="cls-6" d="m396.48,280.9c3.28-1.69,6.64-3.21,10.15-4.35.77-.25,1.27-1.04,1.05-1.85-.21-.76-1.07-1.3-1.85-1.05-3.75,1.22-7.36,2.85-10.86,4.65-.72.37-.93,1.38-.54,2.05.43.73,1.33.91,2.05.54h0Z"/><path class="cls-6" d="m405.08,274.87c.13,1.39.69,2.62,1.36,3.83.28.51.58,1.03.82,1.56.03.06.05.12.08.17.08.17-.12-.31-.02-.05.05.13.1.26.14.4s.08.27.11.4c.03.13.09.63.04.15.05.41.14.76.44,1.06.26.26.69.46,1.06.44.74-.03,1.6-.67,1.5-1.5-.08-.68-.21-1.3-.47-1.93s-.58-1.27-.92-1.88c-.28-.51-.58-1.03-.82-1.56-.02-.04-.11-.25-.02-.04.1.23-.01-.04-.03-.09-.05-.13-.1-.27-.14-.4s-.08-.27-.11-.41c-.01-.06-.02-.12-.04-.18-.06-.33.04.36,0,.03-.07-.78-.64-1.54-1.5-1.5-.75.03-1.58.66-1.5,1.5h0Z"/><path class="cls-6" d="m405.4,274.97c-3.7,3.49-6.33,7.88-9.08,12.1-1.38,2.12-2.8,4.21-4.21,6.3-1.25,1.85-3.11,3.3-3.84,5.46-.62,1.83,2.28,2.62,2.89.8.29-.87,1.01-1.6,1.6-2.28.74-.85,1.43-1.71,2.05-2.64,1.36-2.04,2.75-4.07,4.09-6.13,2.62-4.02,5.09-8.18,8.61-11.5,1.41-1.33-.72-3.45-2.12-2.12h0Z"/><path class="cls-6" d="m407.47,281.62c-.73,1.31-1.72,2.42-2.68,3.56-1.07,1.28-2.02,2.64-2.91,4.04-1.7,2.68-3.37,5.43-5.5,7.79-1.29,1.43.83,3.56,2.12,2.12,2.23-2.48,4.04-5.34,5.81-8.15.85-1.35,1.74-2.66,2.77-3.89s2.16-2.52,2.97-3.96c.94-1.69-1.65-3.2-2.59-1.51h0Z"/><path class="cls-6" d="m347.6,299.76c-.32.73-.54,1.46-.53,2.26,0,.67.14,1.36.38,1.99.45,1.2,1.14,2.24,1.83,3.31.43.66,1.35.99,2.05.54.66-.42,1-1.35.54-2.05-.28-.44-.58-.87-.85-1.31-.14-.23-.27-.46-.4-.69-.06-.12-.12-.23-.18-.35-.02-.04-.17-.42-.09-.18s-.05-.14-.07-.18c-.04-.12-.08-.24-.12-.37s-.06-.25-.09-.37c-.03-.16-.02-.12.01.12,0-.06-.01-.13-.02-.19,0-.13-.01-.25,0-.38,0-.06,0-.13.01-.19.02-.16.01-.13-.02.11.02,0,.08-.35.09-.39.03-.08.2-.51.03-.13.17-.38.27-.74.15-1.16-.1-.35-.36-.73-.69-.9-.65-.34-1.71-.23-2.05.54h0Z"/><path class="cls-6" d="m451.4,301.52c0,.09,0,.17,0,.26,0,.32.06-.27.02-.11s-.06.3-.1.44c-.02.07-.05.13-.07.2-.09.26.17-.34.04-.1-.06.13-.12.25-.2.37-.08.13-.17.26-.25.38-.19.27.21-.25.04-.05-.05.06-.09.11-.14.17-.2.23-.42.45-.65.66s-.48.42-.72.62c-.12.1-.24.19-.36.29-.06.05-.12.09-.18.14.38-.3.12-.09.03-.03-.57.44-1.15.87-1.68,1.34-.59.52-.57,1.6,0,2.12.63.58,1.49.55,2.12,0,.25-.22.5-.42.76-.63.06-.05.12-.09.17-.14-.38.3-.15.11-.07.05.14-.11.28-.21.42-.32.61-.47,1.23-.95,1.79-1.48,1.16-1.12,2.02-2.54,2.04-4.19,0-.78-.7-1.54-1.5-1.5s-1.49.66-1.5,1.5h0Z"/><path class="cls-5" d="m345.67,300.64c-.25-1.97-3.87-32.87,19.2-50.7,16.9-13.06,36.2-11.24,40.71-10.75,5.49.59,22.33,2.65,35.34,16.9,16.53,18.11,13.54,41.23,13.06,44.55-.06.08-.6.77-1.54.77-.1,0-.97-.02-1.54-.77.19-2.26,2.25-32.99-19.97-49.16-12.09-8.8-25.67-9.15-30.73-9.22-4.78-.06-19.45-.26-32.26,9.22-21.8,16.12-19.4,46.32-19.2,48.4.02.65-.27,1.25-.77,1.54-.71.4-1.77.12-2.3-.77Z"/><path class="cls-6" d="m347.17,300.64c-.96-7.71-.2-15.84,1.78-23.32,1.74-6.55,4.61-12.83,8.79-18.19,5.25-6.74,12.45-11.91,20.39-15,10.11-3.94,21.4-4.67,31.89-2.83,15.23,2.67,28.87,11.38,36.44,25.07,5.58,10.1,7.53,22.17,6.12,33.59-.03.28,0,.02,0,.02.18,0-.56.73.14-.07.54-.62-.08.05-.2,0-.23-.1-.25,0-.54-.32l.44,1.06c.65-7.99-.47-16.4-2.75-24.05-1.94-6.5-4.94-12.65-9.15-17.98-5.2-6.57-12.21-11.46-20.04-14.38-6.23-2.33-12.88-3.33-19.51-3.46-5.67-.11-11.32.29-16.84,1.63-8.32,2.03-16.11,6.17-22.15,12.27-4.94,4.99-8.56,11.12-10.97,17.7-3.1,8.46-4.45,17.93-3.8,26.93.03.35.21,1.19-.23.58-1.12-1.55-3.72-.06-2.59,1.51s3.38,2.43,4.93.87c.78-.78.95-1.79.9-2.83-.06-1.21-.13-2.42-.13-3.64-.02-4.85.46-9.71,1.47-14.45,1.4-6.54,3.81-12.86,7.54-18.43,4.69-7,11.48-12.44,19.31-15.54,6.45-2.56,13.36-3.63,20.28-3.62,5.87,0,11.69.54,17.35,2.17,8.31,2.39,15.82,7.04,21.42,13.66,4.49,5.31,7.56,11.7,9.48,18.35,1.48,5.14,2.31,10.46,2.55,15.8.08,1.7.09,3.4.04,5.09s-.31,3.02,1.64,3.81c1.38.56,3.14.19,4.02-1.08.42-.61.4-1.45.49-2.17.22-1.88.33-3.78.35-5.67.08-6.52-.83-13.11-2.84-19.33-2.7-8.38-7.44-16.05-13.86-22.09-5.9-5.54-13.06-9.58-20.77-12.01-9.71-3.06-20.33-3.75-30.35-2.03-16.53,2.84-31.28,13.06-38.5,28.36-4.59,9.73-6.42,20.84-5.73,31.56.05.83.12,1.65.22,2.48.24,1.89,3.24,1.91,3,0Z"/></svg>