<?xml version="1.0" encoding="UTF-8"?><svg id="Layer_1" xmlns="http://www.w3.org/2000/svg" viewBox="0 0 300 300"><defs><style>.cls-1{fill:#fff;}.cls-2{fill:#2b67f8;}</style></defs><circle class="cls-1" cx="150" cy="150" r="131.5"/><path class="cls-2" d="m277.75,150c-.28,53.08-33.88,101.96-84.04,120.09-50.32,18.19-107.66,2.58-141.96-38.4-34.49-41.22-38.91-101.72-11.17-147.66C68.11,38.44,122.73,14.2,175.01,24.69c51.81,10.39,92.65,52.85,101.15,104.98,1.1,6.72,1.55,13.52,1.59,20.33.03,4.82,7.53,4.83,7.5,0-.29-56.36-35.92-107.63-88.92-127.09-53.14-19.52-114.84-2.63-150.71,41.11C9.7,107.81,4.76,171.16,34.11,219.77c29.34,48.59,87.28,73.94,142.89,62.78s98.21-56.52,106.6-111.56c1.06-6.95,1.61-13.95,1.64-20.98.03-4.83-7.47-4.83-7.5,0Z"/><path class="cls-2" d="m126.86,116.13c-2.04,6.69-8.57,10.97-15.56,9.24s-11.04-8.77-9.28-15.49c4.19-15.97,28.27-9.81,24.83,6.25-1.01,4.7,6.21,6.71,7.22,1.99,2.31-10.78-3.49-21.83-14.51-24.7s-22.01,3.79-24.77,14.47c-2.75,10.65,3.81,21.96,14.51,24.7s21.54-3.89,24.77-14.47c1.41-4.62-5.82-6.59-7.22-1.99Z"/><path class="cls-2" d="m184.61,104.2c-2.03,6.69-8.55,11.02-15.55,9.27s-11.03-8.82-9.27-15.55c4.19-16.03,28.25-9.82,24.82,6.28-1,4.71,6.22,6.72,7.23,1.99,2.3-10.79-3.47-21.89-14.51-24.77s-22.02,3.82-24.77,14.51,3.8,22.01,14.51,24.77,21.56-3.93,24.77-14.51c1.41-4.63-5.83-6.61-7.23-1.99Z"/><path class="cls-2" d="m210.74,133.96c-40.93,9.79-81.85,19.59-122.78,29.38-1.45.35-2.97.61-4.39,1.05-7.91,2.48-6.95,9.81-3.99,15.74,5.47,10.96,12.72,21.32,21.78,29.62,11.5,10.54,25.9,17.26,41.61,17.88,19.73.78,40.52-7.39,55.71-19.73,12.85-10.43,21.21-25.33,23.56-41.68,1.22-8.51,3.64-33.82-10.48-32.39-4.76.48-4.81,7.99,0,7.5,6.06-.61,3.32,23.02,2.7,26.24-2.53,13.31-9.39,25.05-19.68,33.86-13.66,11.69-33.15,19.24-51.19,18.72-14.62-.43-27.94-7.01-38.36-17.05-7.8-7.52-14.01-16.56-18.89-26.21-1.23-2.44-2.31-4.31.38-5.53,2.15-.97,5.03-1.2,7.31-1.75,21.76-5.21,43.51-10.41,65.27-15.62,17.82-4.26,35.64-8.53,53.46-12.79,4.69-1.12,2.71-8.36-1.99-7.23Z"/></svg>