<?xml version="1.0" encoding="UTF-8"?><svg id="Layer_2" xmlns="http://www.w3.org/2000/svg" viewBox="0 0 595.73 617.45"><defs><style>.cls-1{fill:#fa959d;}.cls-2{fill:#0069ff;}.cls-3{fill:#66a5ff;}.cls-4{fill:#e9f0ff;}.cls-5{fill:#fdd089;}.cls-6{fill:#fff;}.cls-7{fill:#fff1f8;}.cls-8{fill:#3387ff;}</style></defs><g id="Layer_1-2"><path class="cls-5" d="m297.5,610.25c15.22-8.77,22.4-14.77,34.42-25.92-.19,10.14-4.45,20.56-6.41,30.62,11.96-14.05,19.5-29.42,29.66-44.79,2.17,8.6,1,18.46-1.96,26.58,8.32-13.44,21.36-21.73,25.77-37.59,4.68,8.48,2.1,20.07,1.49,29,12.42-13.11,15.13-33.42,15.6-50.69.23-8.34-4.62-17.22-4.86-23.47s5.16-13.29,8.62-18.86c23.08-37.1,57.44-51.96,100.72-42.06-14.94-8.74-35.3-19.43-47.58-32.16,25.53-9.38,68.55-6.31,94.72,1.52-15.3-11.4-35.89-22.09-54.01-28.17,23.94-6.7,57.74-10.28,80.76.93-4.78-15.47-20.03-28.87-28.18-42.55,10.46,6.48,21.27,13.76,31.1,20.95-7.16-31.8-27.56-61.17-35.52-93.3,9.96,3.76,25.09,22.11,33.3,30.35,6.06,6.08,12.21,12.49,18.11,18.47-5.11-15.8-18.67-29.44-24.44-45.68-3.04-8.56-6.12-16.92-9.18-25.45-5.87-16.4-11.41-32.94-18.79-48.66,10.8,5.31,21.42,15.81,32.26,19.33-8.05-18.05-19.61-35.31-30.27-52.2-5.39-8.54-22.15-27.77-21.33-36.1.57-5.81,9.51-15.88,12.71-21.44,11.43-19.81,22.35-42.51,21.2-65.99-1.03-20.92-11.14-34.2-24.39-50.42-15.93,11.63-32.13,23.32-47.98,35.4-8.79,6.7-18.31,13.69-28.97,17.12-8.32,2.67-10.33,1.27-18.78-.74-16.04-3.82-32.67-5.58-49.51-7.09-26.75-2.4-72.96-11.69-86.25,17.07-13.28-28.76-62.77-19.46-89.52-17.07-16.84,1.51-33.48,3.27-49.51,7.09-8.45,2.01-10.46,3.41-18.78.74-10.66-3.42-20.17-10.42-28.97-17.12-15.85-12.08-32.05-23.77-47.98-35.4-13.26,16.23-23.37,29.5-24.39,50.42-1.15,23.47,9.76,46.17,21.2,65.99,3.2,5.55,12.15,15.62,12.71,21.44.81,8.33-15.94,27.56-21.33,36.1-10.66,16.89-22.22,34.15-30.27,52.2,10.84-3.51,21.46-14.02,32.26-19.33-7.38,15.72-12.92,32.26-18.79,48.66-3.05,8.53-6.14,16.89-9.18,25.45-5.77,16.24-19.33,29.88-24.44,45.68,5.9-5.98,12.05-12.4,18.11-18.47,8.21-8.24,23.34-26.58,33.3-30.35-7.96,32.13-28.36,61.5-35.52,93.3,9.83-7.19,20.63-14.48,31.1-20.95-8.15,13.67-23.4,27.08-28.18,42.55,23.02-11.21,56.81-7.63,80.76-.93-18.12,6.08-38.71,16.78-54.01,28.17,26.17-7.82,69.19-10.9,94.72-1.52-12.29,12.73-32.64,23.42-47.58,32.16,43.28-9.91,77.64,4.95,100.72,42.06,3.47,5.57,8.86,12.57,8.62,18.86-.23,6.25-5.09,15.13-4.86,23.47.48,17.26,3.18,37.58,15.6,50.69-.6-8.93-3.19-20.51,1.49-29,4.4,15.86,17.45,24.15,25.77,37.59-2.96-8.12-4.13-17.99-1.96-26.58,10.16,15.38,17.69,30.74,29.66,44.79-1.96-10.06-6.22-20.48-6.41-30.62,12.03,11.14,18.47,17.15,33.7,25.92Z"/><path class="cls-6" d="m345.25,315.88c5.6-12.72,18.74-16.94,31.5-17.01s25.13,9.09,33.74,18.5c5.32,5.82,9.62,11.29,16.36,15.65-13.34,20.8-39.17,40.45-64.87,43.56-12.89,1.56-32.62,3.38-44.22-2.55-10.84-5.54-8.74-19.47-1.99-27.51,6.22-7.39,15.36-11.92,21.32-19.21,6.73-8.23,9.14-18.07,18.9-23.63,9.17-5.22,21.43-6.3,31.11-1.84,7.38,3.4,14.27,9.18,19.16,15.64"/><path class="cls-6" d="m346.55,316.63c2.4-5.37,6.4-9.57,11.62-12.26,5.07-2.61,10.84-3.72,16.49-3.96,6.74-.29,13.01,1.47,18.86,4.81,5.9,3.38,11.05,7.93,15.65,12.91,5.33,5.77,10.28,11.82,16.93,16.17l-.54-2.05c-9.95,15.44-24.75,28.21-41.32,36.08-8.11,3.86-16.59,6.12-25.5,7.11s-17.25,1.6-25.85.85c-3.99-.35-8-1.04-11.77-2.44-3.33-1.23-6.34-3.14-8.03-6.36-3.14-5.98-.82-13.66,2.88-18.82,5.34-7.45,14.06-11.71,20.34-18.25,5.83-6.07,8.69-14.21,14.27-20.43,6.05-6.75,15.55-9.76,24.45-9.45,9.75.34,18.4,5.59,25.2,12.3,1.7,1.68,3.3,3.47,4.75,5.37,1.16,1.51,3.76.02,2.59-1.51-6.01-7.88-14.51-15.07-24.18-17.86s-19.94-1.24-28.31,3.62c-7.93,4.61-11.56,12.81-16.41,20.15-2.62,3.97-5.85,7.27-9.52,10.27s-7.91,6-11.49,9.44c-5.53,5.3-9.67,12.7-8.89,20.6.36,3.63,1.78,7.08,4.42,9.64,2.89,2.8,6.87,4.29,10.71,5.27,8.75,2.22,18.07,2.02,27.01,1.34,9.13-.69,18.16-1.78,26.82-4.9,18.39-6.63,34.79-19.41,46.54-34.94,1.37-1.81,2.67-3.67,3.9-5.58.45-.71.12-1.62-.54-2.05-6.23-4.08-10.93-9.8-15.91-15.25-4.73-5.18-10.07-9.94-16.14-13.52-6.05-3.56-12.79-5.74-19.86-5.57-6.01.14-12.03,1.2-17.54,3.67-6.3,2.83-11.38,7.75-14.21,14.07-.78,1.75,1.8,3.27,2.59,1.51h0Z"/><circle class="cls-2" cx="358.02" cy="360.75" r="3"/><circle class="cls-2" cx="352.02" cy="346.75" r="3"/><circle class="cls-2" cx="382.02" cy="343.75" r="3"/><circle class="cls-2" cx="366.02" cy="337.75" r="3"/><circle class="cls-2" cx="360.02" cy="323.75" r="3"/><circle class="cls-2" cx="375.02" cy="322.75" r="3"/><circle class="cls-2" cx="337.02" cy="355.75" r="3"/><circle class="cls-2" cx="391.02" cy="333.75" r="3"/><circle class="cls-2" cx="378.02" cy="357.75" r="3"/><path class="cls-6" d="m144.84,266.75c0-22.06-.7-41.2,11.29-60.43,10.17-16.3,28.89-21.69,47.31-21.65,14.54.03,44.39-1.06,44.49-21.52.08-16.13-15.24-32.14-28.76-38.75-16.19-7.91-38.55,1.85-40.17,20.76-2.77-9.38.32-18.81,5.55-26.41-8.05,1.13-22.21,2.43-28.54,7.98-6.94,6.08-3.74,25.39-5.11,34.32-1.7,11.07-8.97,19.05-13.95,28.76-6.65,12.96-5.4,28.63-3.27,42.84,1.86,12.35,6.31,22.98,11.16,34.09"/><path class="cls-6" d="m146.93,266.75c0-11.21-.33-22.57,1.52-33.68.9-5.43,2.32-10.78,4.41-15.87s4.77-10.1,8.31-14.28c6.4-7.55,15.34-12.09,24.87-14.32,4.86-1.14,9.82-1.68,14.8-1.81,3.45-.09,6.9-.02,10.35-.17,7.38-.31,14.96-1.09,21.98-3.51s12.99-6.28,15.63-13.12c3.42-8.83-.45-19.28-5.35-26.75-5.67-8.63-13.92-16.15-23.23-20.67-15.36-7.46-36.3-.44-42.03,16.22-.71,2.05-1.09,4.19-1.29,6.35l4.11-.56c-2.5-8.73.37-17.51,5.34-24.8,1.16-1.7-.75-3.3-2.36-3.08-5.22.73-10.47,1.32-15.61,2.49-4.87,1.11-10.28,2.68-14.02,6.18-3.32,3.11-4.24,8.04-4.74,12.35-.57,4.98-.42,10.02-.42,15.02s-.27,9.52-2.09,14.4c-2.21,5.95-5.95,11.2-9.19,16.61-3.41,5.7-6,11.62-7.12,18.21-1.13,6.65-1.11,13.41-.52,20.11.69,7.79,1.85,15.59,4.06,23.1,2.28,7.75,5.46,15.2,8.69,22.59.45,1.04,1.97,1.27,2.87.75,1.07-.63,1.21-1.82.75-2.87-2.73-6.25-5.4-12.53-7.48-19.03s-3.38-13.11-4.2-19.87c-1.56-12.81-1.64-26.12,4.74-37.72,2.96-5.39,6.58-10.4,9.32-15.91,2.47-4.98,4.03-10.2,4.28-15.76.21-4.75-.02-9.5.13-14.25.13-4.15.34-8.95,2.27-12.61,2.2-4.17,7.93-5.83,12.4-6.95,5.58-1.4,11.3-2.02,16.99-2.82l-2.36-3.08c-5.58,8.19-8.55,18.26-5.76,28.02.68,2.38,3.9,1.72,4.11-.56,1.51-16.35,20.32-25.09,34.84-19.87,4.15,1.49,8.06,4.1,11.51,6.81,4.04,3.18,7.78,6.89,10.83,11.03,5.04,6.85,9.61,16.58,6.74,25.09-1.93,5.73-7.72,9.15-13.46,11.04-6.74,2.22-13.82,2.94-20.87,3.21-3.41.13-6.81.05-10.22.16-4.92.15-9.85.7-14.65,1.75-9.42,2.06-18.49,6.29-25.37,13.16-7.61,7.61-12.34,18.23-14.85,28.57s-2.83,21.3-2.86,32.02c0,2.87,0,5.75,0,8.62,0,2.69,4.19,2.7,4.19,0h0Z"/><path class="cls-6" d="m56.5,206.25c7.03-6.52,14.57-11.8,21.68-18.08-1.37,1.21-2.25,11.25-2.68,13.08-1.49,6.42-2.92,12.72-4.59,19.09-3.1,11.82-8.22,28.02-12.22,38.02,5.41-5.01,14.98-14.48,21-19-2,7-4.77,15.43-5.19,18.89-1.02,8.42-2.8,16.3-4.31,24.67-3.05,16.92-6.49,33.44-10.49,50.44-.25,1.06,21.93,6.93,27.84,9.36-6.42,5.85-11.84,9.64-19.04,15.97,13.64-1.99,25.2-.33,39.26.92-5.06,3.75-14.06,10.75-20.7,14.69,13.76-.13,27.14,1.02,40.75,4.59,11.15,2.92,26.03,5.03,35.26,11.97-11.56,2.39-17.37,6.5-31.42,14.14,14.98.28,35.05,6.36,54.58,13.12-5.65,2.92-12.53,3.24-18.34,6.84,4.81,2.4,18.48,6.78,22.5,8.62-5.69,5.78-16.69,10.78-22.53,15.79,9.44,3.41,19.84,6.98,30.37,12.35-2.21.78-5.25.43-7.51,1.23.81-.29,4.78,4.01,5.4,4.64,2.56,2.57,4.82,5.43,6.89,8.41,2.83,4.07,5.24,8.42,7.32,12.92,2.51,5.42,6.42,13.1,6.3,19.22,0,.29-.03.6-.2.85-.21.31-.58.46-.92.6-2.8,1.14-5.14,3.2-7.04,5.56-1.24,1.54-2.36,4.64-3.46,7.19-.12.28-.54.14-.47-.15.72-3.03,1.09-6.88,1.17-9.08.24-6.29-5.16-13.29-8.62-18.86-23.08-37.1-57.44-51.96-100.72-42.06,14.94-8.74,35.3-19.43,47.58-32.16-25.53-9.38-68.55-6.31-94.72,1.52,15.3-11.4,35.89-22.09,54.01-28.17-23.94-6.7-57.74-10.28-80.76.93,4.78-15.47,20.03-28.87,28.18-42.55-10.46,6.48-21.27,13.76-31.1,20.95,7.16-31.8,27.56-61.17,35.52-93.3-9.96,3.76-25.09,22.11-33.3,30.35-6.06,6.08-12.21,12.49-18.11,18.47,9.81-14.97,18.67-29.44,24.44-45.68,3.04-8.56,6.12-16.92,9.18-25.45,5.87-16.4,11.81-35.13,19.19-50.85"/><path class="cls-6" d="m204.79,523.97c-.19,0-.38-.03-.56-.09-.86-.29-1.36-1.17-1.14-2.06.66-2.76,1.04-6.4,1.13-8.78.18-4.8-3.41-10.32-6.58-15.18-.63-.98-1.25-1.92-1.82-2.83-11.37-18.28-25.54-31.09-42.09-38.07-16.7-7.04-35.89-8.16-57.02-3.32-.72.17-1.46-.22-1.73-.91-.27-.69,0-1.47.64-1.85,2.2-1.28,4.51-2.61,6.9-3.98,13.34-7.65,28.36-16.26,38.69-26.25-25.12-8.2-65.76-5.38-91.53,2.32-.7.21-1.44-.11-1.77-.76s-.14-1.44.44-1.88c13.99-10.42,32.69-20.43,49.81-26.76-23.48-5.82-54.18-8.07-75,2.07-.54.26-1.18.18-1.63-.21-.45-.39-.63-1.01-.46-1.58,3.06-9.92,10.23-18.9,17.16-27.59,2.6-3.26,5.11-6.41,7.36-9.54-8.51,5.45-17.09,11.31-25.11,17.18-.5.37-1.19.39-1.71.04-.52-.34-.78-.97-.64-1.58,3.7-16.42,10.99-32.42,18.04-47.89,6.25-13.7,12.69-27.84,16.66-42.3-7.14,4.19-16.4,14.16-23.39,21.69-2.41,2.59-4.68,5.04-6.57,6.94-3.51,3.53-7.1,7.21-10.58,10.78-2.54,2.6-5.05,5.18-7.52,7.69-.54.55-1.41.6-2.01.11-.6-.48-.73-1.34-.31-1.99,9.03-13.78,18.34-28.63,24.28-45.36,1.69-4.76,3.4-9.46,5.1-14.17,1.36-3.75,2.72-7.5,4.08-11.29,1.34-3.75,2.69-7.63,4.06-11.56,4.65-13.38,9.46-27.23,15.19-39.42.08-.17.2-.33.34-.46,3.91-3.62,8.02-6.91,12-10.08,3.22-2.57,6.54-5.22,9.71-8.02,0,0,0,0,0,0,.62-.55,1.57-.49,2.12.13.53.6.49,1.51-.08,2.07-.69,1.02-1.45,6.7-1.78,9.14-.21,1.53-.35,2.63-.49,3.22l-.51,2.22c-1.28,5.53-2.6,11.25-4.08,16.91-2.67,10.2-6.56,22.65-9.96,32.08,5.29-5.03,11.81-11.2,16.39-14.64.51-.39,1.22-.4,1.75-.04.53.37.77,1.03.59,1.65-.57,2-1.21,4.12-1.83,6.2-1.49,4.97-3.03,10.12-3.32,12.46-.72,5.96-1.8,11.51-2.94,17.39-.47,2.43-.94,4.88-1.39,7.37-2.98,16.51-6.34,32.71-10.27,49.5,2.14.91,8.37,2.8,13.07,4.22,5.43,1.65,11.04,3.35,13.65,4.42.47.2.82.62.91,1.13.09.51-.09,1.02-.47,1.37-3.45,3.15-6.59,5.68-9.9,8.36-1.75,1.42-3.54,2.86-5.44,4.44,9.82-.87,18.71-.02,28.78.94,1.93.18,3.89.37,5.91.55.62.06,1.14.49,1.31,1.09.17.6-.05,1.24-.55,1.61-.93.69-2,1.49-3.16,2.36-3.85,2.9-8.77,6.59-13.31,9.63,13.24.2,24.79,1.69,36,4.63,2.37.62,4.89,1.2,7.55,1.81,9.71,2.24,20.72,4.77,28.22,10.41.47.35.69.95.56,1.53s-.58,1.02-1.16,1.14c-9.29,1.92-14.91,5.05-24.22,10.24-.72.4-1.46.81-2.22,1.24,14.97,1.4,33.39,7.22,49.79,12.9.57.2.96.71,1,1.31.04.6-.27,1.17-.81,1.44-2.69,1.39-5.63,2.22-8.48,3.02-2.38.67-4.81,1.35-7.1,2.37,2.88,1.17,6.79,2.57,10.34,3.85,3.87,1.39,7.52,2.7,9.33,3.53.44.2.76.61.85,1.09.09.48-.06.97-.41,1.32-3.31,3.36-8.22,6.39-12.97,9.33-2.75,1.7-5.38,3.32-7.57,4.92l.27.1c8.51,3.06,18.15,6.53,27.72,11.41.53.27.86.84.82,1.44-.04.6-.43,1.12-1,1.32-1.28.45-2.71.57-4.1.69-.04,0-.08,0-.11,0,.65.62,1.41,1.39,2.31,2.33l.36.37c2.4,2.42,4.71,5.23,7.06,8.61,2.71,3.9,5.22,8.32,7.45,13.15l.73,1.57c2.59,5.53,5.82,12.41,5.71,18.31,0,.47-.07,1.08-.45,1.65-.45.69-1.12.96-1.57,1.14-2.33.96-4.5,2.67-6.48,5.12-.83,1.03-1.69,3.09-2.51,5.08-.25.6-.49,1.19-.74,1.76-.29.66-.92,1.06-1.6,1.06Zm-83.44-76.27c31.9,0,58.22,15.51,77.02,45.73.56.89,1.16,1.82,1.78,2.78,3.41,5.24,7.28,11.18,7.06,16.93-.01.39-.04.81-.07,1.25.05-.07.11-.14.17-.21,2.3-2.85,4.87-4.87,7.64-6,.06-.03.13-.05.19-.08h0c.1-5.2-3.09-12.01-5.42-16.98l-.74-1.58c-2.16-4.67-4.58-8.95-7.19-12.7-2.25-3.23-4.45-5.91-6.72-8.2-.08-.08-.22-.22-.39-.41-2.62-2.73-3.65-3.56-4.06-3.79-.58-.04-1.1-.42-1.31-1-.27-.78.14-1.64.92-1.91.95-.33,1.97-.49,2.99-.59-7.88-3.69-15.57-6.45-23.04-9.14l-2.82-1.02c-.5-.18-.87-.62-.96-1.14-.1-.52.09-1.06.5-1.41,2.66-2.29,6.24-4.49,10.02-6.83,3.83-2.36,7.77-4.8,10.74-7.33-1.87-.72-4.38-1.62-6.98-2.56-5.24-1.88-10.65-3.82-13.45-5.21-.49-.24-.8-.73-.83-1.27-.03-.54.25-1.06.71-1.34,3.37-2.09,7.01-3.11,10.53-4.1,1.51-.43,2.98-.84,4.39-1.32-17.2-5.85-36.09-11.49-50.4-11.76-.68-.01-1.27-.48-1.43-1.14-.16-.66.14-1.35.74-1.67,2.49-1.35,4.71-2.59,6.76-3.73,8.39-4.67,13.86-7.72,21.65-9.76-6.85-4.01-16.04-6.12-24.27-8.01-2.69-.62-5.23-1.2-7.64-1.83-12.37-3.24-25.19-4.68-40.36-4.54-.65-.01-1.28-.44-1.46-1.1-.18-.65.1-1.35.68-1.69,5.34-3.17,12.31-8.41,17.4-12.23.01-.01.03-.02.04-.03-.68-.07-1.36-.13-2.04-.19-11.53-1.1-21.49-2.05-32.99-.38-.65.1-1.3-.25-1.58-.86-.28-.6-.13-1.32.37-1.76,3.39-2.98,6.37-5.38,9.25-7.71,2.68-2.16,5.23-4.22,7.92-6.59-2.85-.98-7.02-2.25-11.09-3.48-3.58-1.08-7.28-2.21-9.99-3.11-4.11-1.37-5.76-1.99-5.37-3.66,4.02-17.1,7.45-33.57,10.48-50.36.45-2.5.93-4.96,1.4-7.4,1.13-5.83,2.19-11.33,2.9-17.18.32-2.6,1.82-7.63,3.42-12.96.16-.52.31-1.04.47-1.56-4,3.42-8.69,7.88-12.66,11.64-1.68,1.59-3.22,3.06-4.53,4.27-.51.48-1.29.53-1.87.14-.58-.4-.8-1.14-.54-1.79,3.77-9.42,8.88-25.33,12.16-37.84,1.47-5.61,2.73-11.06,4.06-16.82l.52-2.23c.1-.44.27-1.65.44-2.94.29-2.12.54-3.9.79-5.36-1.98,1.64-3.97,3.23-5.92,4.79-3.86,3.08-7.85,6.27-11.61,9.74-5.6,11.98-10.35,25.65-14.94,38.86-1.37,3.94-2.72,7.83-4.07,11.59-1.36,3.79-2.72,7.54-4.08,11.3-1.7,4.7-3.41,9.39-5.1,14.15-4.32,12.16-10.35,23.29-16.77,33.73,2.64-2.7,5.32-5.44,7.96-8.09,1.85-1.85,4.11-4.29,6.5-6.86,8.6-9.27,19.31-20.8,27.33-23.83.52-.2,1.11-.09,1.53.28.42.37.59.94.46,1.48-3.92,15.83-10.91,31.15-17.66,45.96-6.42,14.08-13.04,28.6-16.89,43.37,9-6.46,18.57-12.86,27.89-18.62.59-.37,1.35-.28,1.84.21.49.48.59,1.24.24,1.84-3.12,5.24-7.14,10.28-11.4,15.62-5.97,7.48-12.11,15.19-15.46,23.35,10.22-4.23,22.8-6.21,37.46-5.86,13.05.3,27.64,2.54,41.09,6.3.63.18,1.08.75,1.1,1.41.02.66-.4,1.25-1.02,1.46-15.43,5.18-32.7,13.77-46.77,23.15,26.95-6.33,64.47-7.79,87.51.67.48.17.83.58.94,1.07.11.5-.03,1.01-.38,1.38-10.42,10.8-26.14,19.91-40.18,27.96,5.65-.88,11.15-1.31,16.5-1.31Zm69.86,16.66s0,0,0,0c0,0,0,0,0,0ZM79.17,189.29h0s0,0,0,0c0,0,0,0,0,0h0Z"/><path class="cls-6" d="m539.83,206.25c-7.03-6.52-14.57-11.8-21.68-18.08,1.37,1.21,2.25,11.25,2.68,13.08,1.49,6.42,2.92,12.72,4.59,19.09,3.1,11.82,8.22,28.02,12.22,38.02-5.41-5.01-14.98-14.48-21-19,2,7,4.77,15.43,5.19,18.89,1.02,8.42,2.8,16.3,4.31,24.67,3.05,16.92,6.49,33.44,10.49,50.44.25,1.06-21.93,6.93-27.84,9.36,6.42,5.85,11.84,9.64,19.04,15.97-13.64-1.99-25.2-.33-39.26.92,5.06,3.75,14.06,10.75,20.7,14.69-13.76-.13-27.14,1.02-40.75,4.59-11.15,2.92-26.03,5.03-35.26,11.97,11.56,2.39,17.37,6.5,31.42,14.14-14.98.28-35.05,6.36-54.58,13.12,5.65,2.92,12.53,3.24,18.34,6.84-4.81,2.4-18.48,6.78-22.5,8.62,5.69,5.78,16.69,10.78,22.53,15.79-9.44,3.41-19.84,6.98-30.37,12.35,2.21.78,5.25.43,7.51,1.23-.81-.29-4.78,4.01-5.4,4.64-2.56,2.57-4.82,5.43-6.89,8.41-2.83,4.07-5.24,8.42-7.32,12.92-2.51,5.42-6.42,13.1-6.3,19.22,0,.29.03.6.2.85.21.31.58.46.92.6,2.8,1.14,5.14,3.2,7.04,5.56,1.24,1.54,2.36,4.64,3.46,7.19.12.28.54.14.47-.15-.72-3.03-1.09-6.88-1.17-9.08-.24-6.29,5.16-13.29,8.62-18.86,23.08-37.1,57.44-51.96,100.72-42.06-14.94-8.74-35.3-19.43-47.58-32.16,25.53-9.38,68.55-6.31,94.72,1.52-15.3-11.4-35.89-22.09-54.01-28.17,23.94-6.7,57.74-10.28,80.76.93-4.78-15.47-20.03-28.87-28.18-42.55,10.46,6.48,21.27,13.76,31.1,20.95-7.16-31.8-27.56-61.17-35.52-93.3,9.96,3.76,25.09,22.11,33.3,30.35,6.06,6.08,12.21,12.49,18.11,18.47-9.81-14.97-18.67-29.44-24.44-45.68-3.04-8.56-6.12-16.92-9.18-25.45-5.87-16.4-11.81-35.13-19.19-50.85"/><path class="cls-6" d="m391.54,523.97c-.68,0-1.31-.4-1.6-1.05-.25-.57-.49-1.16-.74-1.76-.83-1.99-1.68-4.05-2.51-5.08-1.98-2.45-4.15-4.17-6.44-5.11-.48-.2-1.15-.47-1.61-1.16-.38-.58-.44-1.19-.45-1.65-.11-5.89,3.12-12.77,5.71-18.3l.73-1.57c2.24-4.83,4.75-9.26,7.45-13.15,2.34-3.37,4.65-6.19,7.06-8.61l.36-.37c.9-.94,1.66-1.71,2.31-2.33-.04,0-.08,0-.11,0-1.38-.12-2.81-.24-4.1-.69-.57-.2-.96-.72-1-1.32-.04-.6.28-1.16.82-1.44,9.57-4.88,19.22-8.35,27.72-11.41l.27-.1c-2.19-1.6-4.82-3.23-7.57-4.92-4.75-2.93-9.67-5.97-12.97-9.33-.34-.35-.49-.84-.41-1.32.09-.48.41-.89.85-1.09,1.81-.83,5.46-2.14,9.33-3.53,3.56-1.28,7.46-2.67,10.34-3.85-2.29-1.02-4.73-1.7-7.11-2.37-2.85-.8-5.79-1.63-8.48-3.02-.53-.28-.85-.84-.81-1.44.04-.6.44-1.11,1-1.31,16.4-5.68,34.81-11.5,49.79-12.9-.76-.42-1.5-.84-2.22-1.24-9.31-5.19-14.93-8.32-24.22-10.24-.58-.12-1.03-.57-1.16-1.14s.09-1.17.56-1.53c7.5-5.64,18.51-8.17,28.23-10.41,2.67-.61,5.18-1.19,7.55-1.81,11.21-2.94,22.76-4.43,36-4.63-4.53-3.04-9.45-6.74-13.31-9.63-1.16-.87-2.23-1.67-3.16-2.36-.5-.37-.72-1.01-.55-1.61.17-.6.69-1.03,1.31-1.09,2.02-.18,3.98-.37,5.91-.55,10.07-.96,18.96-1.81,28.78-.94-1.89-1.58-3.68-3.03-5.44-4.45-3.32-2.68-6.45-5.21-9.9-8.36-.38-.35-.56-.86-.47-1.37.09-.51.43-.93.91-1.13,2.6-1.07,8.21-2.77,13.65-4.42,4.7-1.42,10.93-3.31,13.07-4.22-3.93-16.77-7.29-32.98-10.27-49.5-.45-2.49-.92-4.94-1.39-7.37-1.14-5.88-2.21-11.43-2.94-17.39-.29-2.35-1.83-7.49-3.32-12.46-.62-2.08-1.26-4.2-1.83-6.2-.18-.62.06-1.28.59-1.65.53-.36,1.24-.35,1.75.04,4.58,3.44,11.1,9.62,16.39,14.64-3.4-9.43-7.29-21.88-9.96-32.08-1.47-5.62-2.79-11.3-4.06-16.79l-.54-2.34c-.13-.58-.28-1.68-.49-3.21-.33-2.44-1.09-8.12-1.78-9.14-.57-.55-.61-1.46-.08-2.07.55-.62,1.5-.68,2.12-.13,0,0,0,0,0,0,3.17,2.8,6.49,5.45,9.71,8.02,3.98,3.18,8.09,6.46,12,10.08.14.13.26.29.34.46,5.72,12.19,10.53,26.02,15.18,39.4,1.37,3.94,2.72,7.82,4.06,11.57,1.35,3.78,2.71,7.53,4.07,11.27,1.71,4.71,3.41,9.41,5.11,14.18,5.94,16.73,15.25,31.58,24.28,45.36.42.64.29,1.5-.31,1.99-.6.48-1.47.44-2.01-.11-2.47-2.5-4.98-5.08-7.51-7.68-3.48-3.57-7.07-7.26-10.59-10.79-1.89-1.89-4.16-4.34-6.57-6.94-6.99-7.53-16.25-17.5-23.39-21.69,3.97,14.46,10.41,28.6,16.66,42.3,7.05,15.47,14.35,31.47,18.04,47.89.14.61-.12,1.24-.64,1.58-.52.34-1.2.33-1.71-.04-8.03-5.87-16.6-11.74-25.11-17.18,2.25,3.13,4.76,6.28,7.36,9.54,6.93,8.69,14.09,17.67,17.16,27.59.18.57,0,1.19-.46,1.58-.46.39-1.1.47-1.63.21-20.83-10.14-51.53-7.89-75-2.07,17.13,6.33,35.82,16.34,49.81,26.76.58.43.77,1.23.44,1.88-.33.65-1.07.97-1.77.76-25.77-7.71-66.41-10.52-91.53-2.32,10.33,9.99,25.35,18.6,38.69,26.25,2.39,1.37,4.7,2.69,6.9,3.98.64.37.91,1.16.64,1.85-.27.69-1.01,1.08-1.73.91-21.13-4.84-40.31-3.72-57.02,3.32-16.56,6.98-30.72,19.78-42.09,38.07-.57.91-1.18,1.86-1.82,2.83-3.17,4.86-6.76,10.38-6.58,15.18.09,2.39.47,6.03,1.13,8.79.21.88-.28,1.77-1.14,2.06-.19.06-.38.09-.56.09Zm-10.35-15.86c.05.02.11.04.15.06,2.81,1.15,5.38,3.17,7.68,6.02.06.07.11.14.17.21-.03-.44-.05-.87-.07-1.26-.22-5.75,3.65-11.69,7.06-16.93.62-.96,1.23-1.89,1.79-2.78,21.95-35.28,54.15-50.51,93.51-44.42-14.04-8.05-29.76-17.16-40.18-27.96-.35-.37-.5-.88-.38-1.38.11-.49.47-.9.94-1.07,23.04-8.46,60.56-7.01,87.51-.67-14.07-9.38-31.34-17.97-46.77-23.15-.62-.21-1.04-.8-1.02-1.46.02-.66.46-1.23,1.1-1.41,13.45-3.76,28.05-6,41.09-6.3,14.65-.34,27.24,1.63,37.46,5.86-3.35-8.16-9.49-15.87-15.46-23.35-4.26-5.34-8.28-10.38-11.4-15.62-.35-.59-.26-1.35.24-1.84.49-.49,1.26-.57,1.84-.21,9.31,5.76,18.88,12.16,27.89,18.62-3.85-14.76-10.47-29.29-16.89-43.37-6.76-14.82-13.74-30.14-17.66-45.96-.13-.54.04-1.11.46-1.48.42-.37,1.01-.48,1.53-.28,8.02,3.03,18.73,14.57,27.33,23.83,2.39,2.57,4.65,5.01,6.5,6.86,2.64,2.65,5.32,5.38,7.96,8.09-6.42-10.44-12.45-21.57-16.77-33.73-1.69-4.76-3.4-9.46-5.1-14.16-1.36-3.75-2.72-7.5-4.08-11.28-1.35-3.77-2.7-7.66-4.07-11.6-4.59-13.21-9.34-26.87-14.94-38.85-3.76-3.47-7.75-6.66-11.61-9.74-1.95-1.56-3.94-3.15-5.92-4.79.25,1.46.51,3.23.8,5.36.17,1.28.33,2.49.44,2.93l.54,2.34c1.33,5.73,2.58,11.13,4.04,16.71,3.28,12.5,8.39,28.42,12.16,37.84.26.65.04,1.4-.54,1.79-.58.4-1.35.34-1.87-.14-1.3-1.21-2.85-2.67-4.53-4.27-3.96-3.76-8.66-8.22-12.66-11.64.16.52.31,1.04.47,1.56,1.6,5.33,3.1,10.36,3.42,12.96.71,5.86,1.78,11.36,2.9,17.18.47,2.44.95,4.9,1.4,7.4,3.03,16.81,6.46,33.28,10.48,50.36.39,1.67-1.26,2.29-5.37,3.66-2.71.9-6.41,2.02-9.99,3.11-4.06,1.23-8.23,2.5-11.09,3.48,2.69,2.36,5.24,4.43,7.92,6.58,2.89,2.33,5.87,4.74,9.26,7.71.5.44.65,1.15.37,1.76-.28.6-.93.96-1.58.86-11.5-1.67-21.46-.72-32.99.38-.67.06-1.35.13-2.04.19.01.01.03.02.04.03,5.09,3.82,12.06,9.06,17.4,12.23.58.35.86,1.04.68,1.69-.18.65-.77,1.1-1.44,1.1h-.01c-15.15-.15-27.99,1.3-40.36,4.54-2.41.63-4.95,1.22-7.64,1.83-8.23,1.89-17.42,4.01-24.27,8.01,7.79,2.04,13.26,5.09,21.65,9.76,2.05,1.14,4.27,2.38,6.76,3.73.6.33.9,1.01.74,1.67-.16.66-.75,1.13-1.43,1.14-14.3.27-33.2,5.91-50.4,11.76,1.41.48,2.88.9,4.39,1.32,3.52.99,7.16,2.01,10.53,4.1.46.29.73.8.71,1.34-.03.54-.34,1.03-.83,1.27-2.8,1.39-8.21,3.33-13.45,5.21-2.61.93-5.12,1.83-6.98,2.56,2.97,2.54,6.91,4.97,10.74,7.33,3.78,2.34,7.36,4.54,10.02,6.83.4.35.59.88.5,1.41-.1.52-.46.96-.96,1.14l-2.82,1.02c-7.47,2.69-15.16,5.45-23.04,9.14,1.02.1,2.04.26,2.99.59.78.27,1.19,1.13.92,1.91-.2.58-.73.96-1.31,1-.41.24-1.44,1.06-4.06,3.79-.18.18-.31.33-.39.41-2.28,2.29-4.48,4.98-6.72,8.2-2.61,3.75-5.03,8.02-7.19,12.7l-.74,1.58c-2.33,4.97-5.52,11.78-5.42,16.98h0Zm23.93-43.75s0,0,0,0c0,0,0,0,0,0Zm112.03-275.08h0s0,0,0,0Zm-.07-.07h0s0,0,0,0Z"/><path class="cls-6" d="m251.77,315.88c-5.6-12.72-18.74-16.94-31.5-17.01s-25.13,9.09-33.74,18.5c-5.32,5.82-9.62,11.29-16.36,15.65,13.34,20.8,39.17,40.45,64.87,43.56,12.89,1.56,32.62,3.38,44.22-2.55,10.84-5.54,8.74-19.47,1.99-27.51-6.22-7.39-15.36-11.92-21.32-19.21-6.73-8.23-9.14-18.07-18.9-23.63-9.17-5.22-21.43-6.3-31.11-1.84-7.38,3.4-14.27,9.18-19.16,15.64"/><path class="cls-6" d="m253.06,315.12c-2.52-5.62-6.83-10.19-12.25-13.1s-11.27-4.15-17.23-4.54c-6.99-.45-13.58.97-19.8,4.19-6.27,3.24-11.81,7.85-16.69,12.91-5.72,5.93-10.69,12.57-17.67,17.13-.66.43-1,1.34-.54,2.05,10.5,16.29,26.23,29.85,43.88,37.85,4.45,2.02,9.06,3.7,13.8,4.89,4.3,1.08,8.68,1.62,13.09,2.09,9.02.96,18.24,1.57,27.27.4,7.53-.98,16.68-3.22,20.03-10.88,2.99-6.82.89-15.1-3.31-20.95-5.61-7.82-14.57-12.22-21.08-19.14-6.09-6.48-8.95-15.34-15.36-21.57-6.84-6.65-17.25-9.53-26.62-8.82-10.14.77-19.14,6.33-26.2,13.4-1.77,1.78-3.4,3.68-4.92,5.68-1.17,1.53,1.43,3.03,2.59,1.51,5.68-7.44,13.96-14.29,23.16-16.69,8.8-2.29,18.97-.69,26.56,4.36,7.03,4.68,10.16,12.78,14.83,19.47,2.62,3.75,5.78,6.9,9.32,9.79s7.47,5.68,10.89,8.89c5.23,4.89,9.29,11.61,8.44,19.05-.37,3.23-1.93,6.24-4.51,8.24-2.95,2.29-6.86,3.36-10.46,4.1-8.5,1.73-17.41,1.35-26,.62s-16.99-1.95-25.12-5c-17.31-6.49-32.96-18.77-44.03-33.52-1.28-1.71-2.51-3.47-3.66-5.27l-.54,2.05c5.91-3.87,10.52-9.07,15.21-14.27,4.56-5.08,9.49-9.84,15.27-13.53s12.08-6.15,18.87-6.13c5.68.02,11.52.87,16.76,3.14,6.04,2.61,10.75,7.11,13.45,13.13.79,1.76,3.37.23,2.59-1.51h0Z"/><path class="cls-6" d="m201.32,516.79c4.97-3.55,10.13-8.35,15.68-6.7,0,0-1.85-3.49-2-.53-.9,17.08,14.12,22.44,30.15,23.81,16.93,1.44,42.08-5.02,52.7,13.43,10.61-18.45,34.5-11.99,51.43-13.43,16.03-1.37,31.05-6.73,30.15-23.81-.16-2.96-.1.5-.1.5,5.55-1.9,11.13,1.58,11.24,4.47.23,6.25,5.09,15.13,4.86,23.47-.48,17.26-3.18,37.58-15.6,50.69.6-8.93,3.19-20.51-1.49-29-4.4,15.86-17.45,24.15-25.77,37.59,2.96-8.12,4.13-17.99,1.96-26.58-10.16,15.38-17.69,30.74-29.66,44.79,1.96-10.06,6.22-20.48,6.41-30.62-12.03,11.14-19.2,17.15-34.42,25.92-15.22-8.77-21.67-14.77-33.7-25.92.19,10.14,4.45,20.56,6.41,30.62-11.96-14.05-19.5-29.42-29.66-44.79-2.17,8.6-1,18.46,1.96,26.58-8.32-13.44-21.36-21.73-25.77-37.59-4.68,8.48-2.1,20.07-1.49,29-12.42-13.11-15.13-33.42-15.6-50.69-.23-8.34,4.62-17.22,4.86-23.47"/><path class="cls-6" d="m324.86,616.99c-.22,0-.44-.05-.65-.15-.61-.3-.95-.97-.82-1.64.71-3.62,1.72-7.34,2.7-10.92,1.42-5.2,2.88-10.54,3.44-15.76-10.34,9.47-17.66,15.35-31.93,23.57-.46.27-1.03.27-1.5,0-14.15-8.16-20.83-13.97-31.2-23.56.57,5.21,2.03,10.55,3.44,15.75.98,3.59,1.99,7.3,2.7,10.92.13.67-.21,1.34-.82,1.64-.61.3-1.35.14-1.79-.38-8.05-9.46-13.97-19.26-20.24-29.65-2.41-4-4.89-8.1-7.51-12.2-.98,6.92-.07,14.79,2.61,22.14.26.72-.06,1.53-.75,1.86-.69.33-1.53.09-1.93-.56-3.07-4.96-6.88-9.29-10.56-13.48-5.36-6.1-10.88-12.38-14.09-20.63-1.75,5.83-1.02,12.77-.36,19.03.21,1.96.4,3.81.52,5.6.04.63-.31,1.22-.89,1.48-.58.25-1.25.12-1.69-.34-13.47-14.21-15.59-36.3-16.01-51.68-.14-4.94,1.41-10.02,2.78-14.51.56-1.85,1.11-3.65,1.5-5.32-.6.2-1.3,0-1.69-.56-.48-.67-.33-1.61.35-2.09.65-.47,1.31-.95,1.97-1.45.18-.63.76-1.09,1.44-1.09h.03c3.02-2.21,6.3-4.36,9.8-4.72.25-.77.72-1.24,1.41-1.39,1.14-.25,2.2.56,3.22,2.47.28.53.22,1.19-.17,1.65-.38.47-1.01.66-1.59.49-.04,0-.07-.02-.11-.03.26,12.08,9.71,18.75,28.81,20.38,3.96.34,8.39.23,13.07.12,14.39-.34,30.62-.72,39.5,12,8.82-12.71,24.49-12.34,38.39-12,4.6.11,8.94.21,12.91-.12,19.53-1.67,28.97-8.6,28.81-21.19-.08-.19-.13-.39-.14-.6-.03-1.98-.05-3.17,1.46-3.22.94-.05,1.35.53,1.51,1.29,3.35-.53,6.4.52,8.31,1.83,1.82,1.25,2.9,2.88,2.96,4.48.1,2.54,1.06,5.71,2.08,9.06,1.37,4.49,2.92,9.57,2.78,14.51-.42,15.38-2.54,37.47-16.02,51.68-.44.46-1.11.6-1.69.34-.58-.25-.94-.84-.89-1.48.12-1.79.32-3.63.52-5.59.66-6.26,1.39-13.2-.36-19.03-3.21,8.25-8.73,14.53-14.09,20.63-3.68,4.19-7.49,8.52-10.56,13.48-.4.65-1.24.9-1.93.56-.69-.34-1.02-1.14-.75-1.86,2.68-7.35,3.59-15.22,2.61-22.14-2.62,4.09-5.1,8.2-7.51,12.2-6.27,10.38-12.19,20.19-20.24,29.64-.29.34-.71.53-1.14.53Zm6.41-33.62c.21,0,.42.04.61.13.55.25.9.8.89,1.4-.13,6.73-1.99,13.56-3.79,20.17-.4,1.45-.8,2.92-1.18,4.39,5.93-7.73,10.79-15.77,15.87-24.19,3.04-5.03,6.18-10.24,9.59-15.4.33-.5.91-.75,1.5-.65.59.1,1.06.54,1.2,1.11,1.47,5.83,1.54,12.53.27,19.2,1.92-2.41,3.93-4.69,5.89-6.93,6.22-7.08,12.09-13.77,14.74-23.32.16-.59.67-1.02,1.27-1.09.62-.07,1.19.23,1.49.77,3.99,7.23,3.03,16.32,2.19,24.34-.03.26-.05.51-.08.77,10.08-13.45,11.8-32.49,12.18-46.11.12-4.45-1.29-9.08-2.65-13.55-1.08-3.54-2.1-6.89-2.21-9.82-.02-.5-.54-1.35-1.66-2.12-1.47-1.01-3.84-1.79-6.44-1.29-.08,13.94-10.69,21.91-31.56,23.69-4.14.35-8.56.25-13.24.13-14.45-.35-29.38-.71-37.01,12.55-.27.46-.76.75-1.3.75s-1.03-.29-1.3-.75c-7.63-13.27-23.14-12.91-38.13-12.55-4.77.11-9.27.22-13.4-.13-20.78-1.77-31.38-9.68-31.56-23.5-2.7.45-5.39,2.31-8.19,4.38-.29,2.64-1.18,5.58-2.12,8.67-1.36,4.48-2.77,9.1-2.65,13.55.38,13.62,2.1,32.66,12.18,46.11-.03-.25-.05-.51-.08-.77-.84-8.02-1.8-17.11,2.19-24.34.29-.53.88-.84,1.49-.77.61.07,1.11.5,1.27,1.09,2.65,9.55,8.52,16.24,14.74,23.32,1.97,2.24,3.97,4.52,5.89,6.93-1.27-6.67-1.2-13.37.27-19.2.14-.58.62-1.01,1.2-1.11.59-.1,1.18.16,1.5.65,3.41,5.16,6.55,10.36,9.59,15.4,5.09,8.42,9.94,16.46,15.88,24.2-.38-1.47-.78-2.94-1.18-4.39-1.8-6.61-3.67-13.44-3.79-20.17-.01-.6.34-1.15.89-1.4.54-.24,1.19-.14,1.63.27l.2.19c11.56,10.71,18.01,16.69,32.48,25.1,14.74-8.55,21.88-14.61,33.4-25.29.28-.26.65-.4,1.02-.4Z"/><path class="cls-3" d="m516.28,32.35c3.42-1.86,7.12-3.53,10.36-5.78-5.7,8.56-22.97,19.42-34.18,19.68,5.31,0,10.35-.93,15.35-1.64-8.57,6.05-22.28,11.65-32.9,11.57,4.53,1.05,9.15.9,13.91.86-10.03,6.06-25.15,7.73-36.52,5.87,6.27,2.31,12.28,5.2,18.44,7.73-9.04,4.58-30.58,1.66-39.41-2.66,1.42,5.71,6.85,11.76,6.54,17.13-29.63-41.57-107.85-39.84-137.37-9.8-29.52-30.04-110.55-31.77-140.18,9.8-.31-5.37,5.12-11.42,6.54-17.13-8.83,4.32-30.36,7.24-39.41,2.66,6.16-2.53,12.17-5.42,18.44-7.73-11.37,1.86-26.49.19-36.52-5.87,4.76.04,9.38.19,13.91-.86-10.62.08-24.33-5.52-32.9-11.57,5,.71,10.04,1.64,15.35,1.64-11.21-.26-28.48-11.12-34.18-19.68,3.24,2.25,6.94,3.92,10.36,5.78-10.05-7.74-16.2-11.81-18.91-24.42.24-.3.48-.6.73-.91.74-.91,1.48-1.82,2.24-2.75,15.93,11.63,32.13,23.32,47.98,35.4,8.79,6.7,18.31,13.69,28.97,17.12,8.32,2.67,10.33,1.27,18.78-.74,16.04-3.82,32.67-5.59,49.51-7.09,26.75-2.4,76.24-11.7,89.52,17.06,13.28-28.76,59.5-19.46,86.25-17.06,16.84,1.5,33.47,3.27,49.51,7.09,8.45,2.01,10.46,3.41,18.78.74,10.66-3.43,20.18-10.42,28.97-17.12,15.85-12.08,32.05-23.77,47.98-35.4.64.78,1.26,1.54,1.88,2.3-2.57,13-7.68,17.97-17.82,25.78Z"/><path class="cls-3" d="m437.87,86.61c-.48,0-.94-.23-1.22-.63-12.43-17.44-35.26-28.68-62.63-30.84-29.09-2.29-57.53,6.03-72.45,21.22-.56.57-1.58.57-2.14,0-14.99-15.25-44.14-23.57-74.23-21.2-28.07,2.21-51.27,13.45-63.66,30.82-.37.52-1.03.74-1.64.57-.61-.18-1.04-.72-1.08-1.35-.21-3.55,1.71-7.18,3.56-10.69.67-1.27,1.36-2.57,1.93-3.85-10.39,3.71-28.93,5.67-37.54,1.32-.52-.26-.84-.81-.82-1.4.02-.59.39-1.11.93-1.33,2.33-.96,4.67-1.98,6.95-2.97.88-.38,1.76-.77,2.65-1.16-9.31-.01-19.88-1.96-27.88-6.8-.58-.35-.85-1.04-.67-1.69.18-.65.77-1.09,1.44-1.09h.49c-7.72-2.28-15.2-6.07-20.35-9.71-.57-.4-.78-1.13-.53-1.78.2-.5.64-.84,1.14-.92-8.33-4.16-16.29-10.42-19.83-15.73-.4-.6-.32-1.4.2-1.9.09-.09.2-.17.31-.23-4.44-4.24-7.55-9-9.27-17.02-.09-.44.01-.9.3-1.25l2.98-3.67c.5-.62,1.4-.74,2.05-.26l8.33,6.08c13.06,9.52,26.57,19.36,39.67,29.34,9.22,7.03,18.34,13.61,28.52,16.89,6.61,2.12,8.74,1.58,14.43.11,1.06-.27,2.22-.57,3.54-.89,16.68-3.97,34.41-5.76,49.72-7.12,3.06-.27,6.43-.64,10-1.03,26.46-2.88,65.97-7.17,79.65,16.32,13.38-23.34,49.4-19.34,75.95-16.39,3.71.41,7.22.8,10.44,1.09,15.31,1.36,33.04,3.15,49.72,7.12,1.32.31,2.49.61,3.54.89,5.69,1.46,7.82,2.01,14.43-.12,10.18-3.28,19.3-9.86,28.52-16.88,13.09-9.98,26.59-19.81,39.64-29.32,2.8-2.04,5.59-4.07,8.37-6.1.64-.47,1.54-.35,2.04.26l1.88,2.3c.28.35.4.8.31,1.24-1.65,8.35-4.32,13.53-8.68,18.23.29.05.57.19.79.41.51.5.6,1.3.2,1.9-3.53,5.31-11.49,11.57-19.83,15.73.51.09.95.43,1.14.92.25.64.04,1.38-.53,1.78-5.14,3.63-12.63,7.42-20.35,9.71h.48s0,0,.01,0c.67,0,1.26.45,1.44,1.09.18.65-.09,1.34-.67,1.69-8.01,4.84-18.58,6.78-27.88,6.8.89.39,1.78.77,2.65,1.16,2.27.99,4.62,2.02,6.95,2.97.54.22.91.74.93,1.33.02.59-.3,1.13-.82,1.4-8.6,4.36-27.15,2.4-37.54-1.32.57,1.28,1.25,2.57,1.93,3.85,1.85,3.51,3.76,7.14,3.56,10.69-.04.64-.47,1.18-1.08,1.36-.14.04-.28.06-.42.06Zm-271.01-20.13c.34,0,.67.11.94.33.45.37.65.96.51,1.53-.63,2.55-1.98,5.1-3.28,7.56-.49.92-.97,1.83-1.4,2.73,13.58-14.89,35.48-24.42,61.33-26.46,30.26-2.38,59.67,5.84,75.54,21.03,15.77-15.12,44.5-23.36,73.75-21.05,25.21,1.99,46.74,11.51,60.28,26.44-.43-.88-.9-1.77-1.38-2.68-1.3-2.46-2.65-5.01-3.28-7.56-.14-.57.06-1.16.51-1.53.45-.37,1.08-.44,1.6-.18,7.34,3.59,24.78,6.3,34.62,3.89-1.16-.5-2.31-1-3.45-1.5-3.7-1.62-7.53-3.29-11.38-4.71-.73-.27-1.13-1.04-.93-1.79.2-.75.92-1.23,1.69-1.1,8.47,1.39,20.16.87,29.8-2.89-2.59-.08-5.2-.3-7.77-.9-.75-.17-1.24-.88-1.15-1.64.09-.76.73-1.32,1.49-1.32.07,0,.15,0,.22,0,8.04,0,17.92-3.4,25.67-7.54-2.71.35-5.49.61-8.35.61-.82,0-1.49-.66-1.5-1.48s.64-1.5,1.46-1.52c7.66-.18,18.61-5.78,26.14-11.92-.53.28-1.05.55-1.57.83-.69.38-1.55.16-1.97-.5-.43-.66-.28-1.53.34-2.01,9.93-7.65,14.64-12.33,17.12-24.19l-.53-.65c-2.4,1.75-4.81,3.51-7.22,5.27-13.04,9.5-26.52,19.32-39.58,29.28-9.44,7.19-18.79,13.93-29.42,17.35-7.44,2.39-10.33,1.65-16.1.16-1.04-.27-2.19-.56-3.49-.87-16.49-3.93-34.09-5.7-49.3-7.05-3.25-.29-6.78-.68-10.51-1.1-26.6-2.96-63.03-7.01-74.25,17.29-.25.53-.78.87-1.36.87s-1.12-.34-1.36-.87c-11.3-24.48-51.42-20.11-77.97-17.23-3.58.39-6.97.76-10.05,1.04-15.21,1.35-32.81,3.13-49.3,7.05-1.3.31-2.45.61-3.49.87-5.76,1.48-8.66,2.22-16.09-.16-10.63-3.42-19.98-10.16-29.42-17.36-13.08-9.97-26.57-19.8-39.62-29.31l-7.18-5.24-1.61,1.99c2.51,10.82,7.82,14.89,16.5,21.55l1.7,1.3c.62.48.77,1.35.34,2.01-.43.66-1.29.87-1.97.5-.52-.28-1.04-.56-1.57-.83,7.53,6.14,18.48,11.74,26.14,11.92.82.02,1.47.7,1.46,1.52s-.68,1.48-1.5,1.48c-2.86,0-5.63-.26-8.35-.61,7.75,4.15,17.63,7.54,25.67,7.54.08,0,.15,0,.22,0,.76,0,1.4.57,1.49,1.32.09.76-.41,1.46-1.15,1.64-2.57.59-5.18.82-7.77.9,9.64,3.76,21.33,4.28,29.8,2.89.77-.13,1.5.35,1.69,1.1.2.75-.21,1.52-.93,1.79-3.85,1.42-7.68,3.09-11.38,4.71-1.13.5-2.29,1-3.45,1.5,9.85,2.4,27.28-.3,34.62-3.89.21-.1.43-.15.66-.15Z"/><path class="cls-8" d="m402.88,363.03c8.13-.11,12.77-6.18,19.89-8.91-2.75,10.34-11.85,19.24-14.53,29.82,4.3-1.91,8.34-5.33,12.16-8.26-24.13,22.98-34.79,56.09-39.59,87.71-2.41,15.87-2.06,32.85-1.23,48.77.9,17.08-14.12,22.44-30.15,23.81-16.93,1.44-40.81-5.02-51.43,13.43v-3c-10.61-18.45-35.77-11.99-52.7-13.43-16.03-1.37-31.05-6.73-30.15-23.81.84-15.92,1.18-32.9-1.23-48.77-4.8-31.62-15.46-64.73-39.59-87.71,3.82,2.92,7.86,6.35,12.16,8.26-2.68-10.58-11.78-19.48-14.53-29.82,7.12,2.74,11.76,8.81,19.89,8.91l-5.72-5.91c2.83,3.73,5.84,7.34,9.27,10.66,13.85,13.44,33,13.44,51.18,13.44,13.47,0,43.27-2.6,41.78-20.47h18c-1.49,17.86,28.31,20.47,41.78,20.47,18.18,0,37.34,0,51.18-13.44,2.18-2.12,4.2-4.35,6.1-6.66,5.8-7.02,10.62-14.73,16.13-22.01"/><path class="cls-2" d="m325.51,617.45c-.37,0-.74-.08-1.08-.25-1.02-.49-1.59-1.62-1.37-2.73.71-3.66,1.73-7.39,2.71-10.99,1.16-4.26,2.35-8.62,3.05-12.91-9.37,8.46-16.67,14.12-30.07,21.84-.77.45-1.72.45-2.5,0-13.29-7.66-20.03-13.26-29.33-21.8.7,4.27,1.88,8.62,3.04,12.87.98,3.61,2,7.33,2.71,10.99.22,1.12-.34,2.24-1.37,2.73-1.02.49-2.25.23-2.99-.63-8.1-9.52-14.05-19.36-20.34-29.78-1.93-3.2-3.91-6.47-5.96-9.74-.39,6.03.58,12.62,2.85,18.83.44,1.21-.1,2.55-1.26,3.11-1.16.56-2.54.16-3.22-.93-3.03-4.89-6.8-9.19-10.46-13.35-4.79-5.45-9.7-11.05-13.04-18.07-.79,4.99-.2,10.59.34,15.71.21,1.97.4,3.83.53,5.63.07,1.05-.52,2.04-1.49,2.46-.97.42-2.09.19-2.82-.57-13.71-14.46-15.86-36.8-16.29-52.34-.14-5.1,1.43-10.27,2.82-14.83,1-3.29,1.95-6.4,2.04-8.81.17-4.48-3.33-9.85-6.42-14.59-.64-.98-1.26-1.94-1.83-2.85-11.26-18.1-25.27-30.78-41.63-37.67-16.51-6.95-35.49-8.05-56.41-3.27-1.21.28-2.43-.37-2.88-1.52-.46-1.15,0-2.46,1.06-3.08,2.2-1.29,4.52-2.62,6.92-3.99,12.75-7.31,27.05-15.51,37.24-24.92-20.5-5.99-57.77-6.61-89.31,2.82-1.17.34-2.41-.19-2.95-1.27-.54-1.08-.23-2.4.74-3.13,13.24-9.86,30.66-19.35,47.02-25.74-22.84-5.21-51.5-6.83-71.17,2.75-.9.43-1.96.3-2.72-.35-.76-.65-1.06-1.68-.76-2.64,3.12-10.1,10.34-19.16,17.33-27.92,1.35-1.7,2.68-3.36,3.96-5.01-6.92,4.54-13.82,9.32-20.34,14.09-.84.62-1.98.64-2.85.07-.87-.57-1.3-1.62-1.07-2.64,3.72-16.52,11.04-32.57,18.11-48.09,5.86-12.86,11.9-26.1,15.88-39.61-6.64,4.66-14.72,13.36-20.97,20.1-2.42,2.6-4.7,5.06-6.59,6.96-3.52,3.53-7.12,7.23-10.6,10.8-2.53,2.59-5.03,5.17-7.5,7.66-.81.82-2.09.98-3.08.38-.99-.6-1.44-1.8-1.08-2.91,2.7-8.36,7.7-16.15,12.53-23.69,4.53-7.06,9.21-14.36,11.94-22.05,1.7-4.77,3.4-9.48,5.11-14.2,1.36-3.74,2.71-7.48,4.07-11.26.89-2.5,1.78-5,2.67-7.5,4.02-11.34,8.15-23,13.02-34.28-2.31,1.49-4.62,3.11-6.88,4.71-6.19,4.34-12.58,8.83-19.15,10.96-.94.3-1.97.03-2.63-.71-.66-.73-.83-1.79-.42-2.69,6.99-15.67,16.6-30.75,25.88-45.34,1.53-2.4,3.05-4.8,4.56-7.18,1.49-2.36,3.72-5.37,6.3-8.86,6.04-8.17,15.16-20.51,14.66-25.66-.32-3.29-4.52-9.13-7.9-13.82-1.75-2.44-3.41-4.74-4.49-6.62-11.32-19.61-22.73-42.95-21.53-67.36,1.04-21.12,10.55-34.26,24.95-51.88.84-1.03,2.33-1.22,3.41-.44l8.12,5.92c13.14,9.57,26.72,19.46,39.9,29.51,9.17,6.98,18.22,13.51,28.22,16.73,6.34,2.04,8.39,1.51,13.87.1,1.06-.27,2.23-.57,3.56-.89,16.65-3.96,33.77-5.71,49.87-7.15,3.05-.27,6.42-.64,9.99-1.03,26.18-2.84,65.02-7.06,79.73,15.41,14.29-22.33,49.76-18.39,76.05-15.47,3.71.41,7.22.8,10.43,1.09,16.1,1.44,33.22,3.18,49.87,7.15,1.33.32,2.5.62,3.56.89,5.48,1.41,7.53,1.94,13.87-.1,10-3.21,19.05-9.75,28.22-16.73,13.19-10.05,26.77-19.94,39.9-29.51l8.12-5.92c1.07-.78,2.57-.59,3.41.44,14.4,17.63,23.92,30.76,24.95,51.88,1.2,24.4-10.21,47.74-21.53,67.36-1.08,1.88-2.74,4.18-4.49,6.62-3.38,4.69-7.58,10.53-7.9,13.81-.5,5.15,8.62,17.5,14.66,25.66,2.58,3.49,4.81,6.51,6.3,8.86,1.51,2.39,3.03,4.78,4.56,7.18,9.29,14.59,18.89,29.67,25.88,45.34.4.9.24,1.96-.42,2.69-.66.74-1.69,1.01-2.63.71-6.57-2.13-12.96-6.62-19.15-10.96-2.27-1.59-4.58-3.21-6.88-4.71,4.87,11.28,9,22.94,13.02,34.28.89,2.5,1.77,5,2.67,7.5,1.35,3.78,2.71,7.52,4.07,11.26,1.71,4.71,3.42,9.42,5.11,14.2,2.73,7.69,7.41,14.99,11.94,22.05,4.83,7.54,9.82,15.33,12.53,23.69.36,1.1-.09,2.3-1.08,2.91-.99.6-2.26.44-3.08-.38-2.46-2.5-4.97-5.07-7.5-7.66-3.48-3.57-7.08-7.27-10.6-10.8-1.9-1.9-4.18-4.36-6.59-6.96-6.25-6.73-14.33-15.43-20.97-20.1,3.98,13.5,10.02,26.75,15.88,39.61,7.08,15.52,14.39,31.56,18.11,48.09.23,1.02-.2,2.07-1.07,2.64-.87.57-2,.54-2.85-.07-6.52-4.77-13.42-9.54-20.34-14.09,1.28,1.65,2.61,3.31,3.96,5.01,6.99,8.76,14.21,17.82,17.33,27.92.29.95,0,1.99-.76,2.64-.76.65-1.82.78-2.72.35-19.67-9.58-48.34-7.96-71.17-2.75,16.36,6.39,33.78,15.88,47.02,25.74.97.72,1.29,2.04.74,3.13-.54,1.08-1.79,1.62-2.95,1.27-31.53-9.43-68.81-8.81-89.31-2.82,10.18,9.41,24.48,17.61,37.24,24.92,2.39,1.37,4.71,2.7,6.92,3.99,1.07.62,1.52,1.93,1.06,3.08-.45,1.15-1.68,1.79-2.88,1.52-20.92-4.79-39.9-3.69-56.41,3.27-16.36,6.9-30.37,19.57-41.63,37.67-.57.92-1.19,1.87-1.83,2.85-3.09,4.74-6.58,10.11-6.42,14.59.09,2.41,1.04,5.52,2.04,8.81,1.39,4.56,2.96,9.73,2.82,14.83-.43,15.54-2.58,37.88-16.29,52.34-.72.76-1.85.99-2.82.57-.97-.42-1.56-1.41-1.49-2.46.12-1.8.32-3.66.53-5.63.54-5.12,1.13-10.72.34-15.71-3.34,7.02-8.25,12.62-13.04,18.07-3.65,4.16-7.43,8.46-10.46,13.35-.68,1.09-2.06,1.49-3.22.93-1.15-.56-1.7-1.9-1.26-3.11,2.27-6.21,3.24-12.8,2.85-18.83-2.05,3.27-4.03,6.54-5.96,9.74-6.29,10.42-12.23,20.26-20.34,29.78-.49.57-1.19.88-1.9.88Zm-61.71-35.62c.62,0,1.23.23,1.7.67l.2.19c11.37,10.54,17.78,16.47,31.8,24.67,14.31-8.35,21.39-14.36,32.72-24.86.73-.68,1.8-.86,2.72-.45.92.41,1.5,1.33,1.48,2.33-.13,6.6-1.88,13.24-3.63,19.68,4.54-6.38,8.53-12.99,12.68-19.86,3.04-5.04,6.19-10.26,9.61-15.43.55-.83,1.53-1.25,2.5-1.09.98.17,1.76.89,2,1.85,1.24,4.91,1.5,10.42.84,16.01,1.2-1.41,2.41-2.79,3.6-4.15,6.14-6.99,11.94-13.59,14.53-22.93.27-.98,1.11-1.7,2.12-1.81,1.01-.11,1.99.39,2.48,1.28,3.61,6.54,3.33,14.43,2.63,21.75,7.97-12.93,9.44-29.89,9.78-42.3.12-4.29-1.27-8.84-2.61-13.24-1.1-3.61-2.14-7.02-2.25-10.07-.23-6.07,3.73-12.15,7.22-17.51.62-.95,1.22-1.88,1.77-2.76,21.24-34.14,51.99-49.7,89.47-45.55-12.89-7.46-26.57-15.82-36.01-25.6-.59-.61-.83-1.47-.64-2.3.19-.82.78-1.5,1.57-1.79,21.71-7.97,56.14-7.22,82.68-1.88-13.05-8.15-28.21-15.46-41.91-20.06-1.04-.35-1.73-1.34-1.7-2.43.03-1.1.77-2.05,1.83-2.34,13.53-3.79,28.21-6.04,41.34-6.34,13.74-.31,25.67,1.38,35.58,5.05-3.44-7.23-8.96-14.16-14.34-20.91-4.09-5.13-8.32-10.44-11.48-15.73-.59-.99-.43-2.25.39-3.06.82-.81,2.09-.95,3.07-.34,8.55,5.29,17.32,11.11,25.66,17.03-3.9-13.76-10.09-27.33-16.1-40.51-6.77-14.86-13.78-30.22-17.72-46.14-.22-.9.07-1.85.77-2.47.7-.62,1.68-.8,2.54-.47,8.24,3.12,19.04,14.74,27.71,24.09,2.38,2.57,4.64,4.99,6.47,6.83,2.63,2.64,5.3,5.36,7.93,8.05-1.84-3.17-3.87-6.33-5.95-9.58-4.68-7.3-9.52-14.85-12.44-23.08-1.69-4.76-3.4-9.46-5.1-14.17-1.36-3.75-2.72-7.5-4.07-11.28-.9-2.5-1.79-5.01-2.67-7.52-4.83-13.62-9.82-27.71-16.02-40.92-.45-.96-.25-2.1.51-2.85.76-.74,1.9-.93,2.85-.46,4.79,2.35,9.53,5.68,14.11,8.89,3.94,2.77,7.98,5.6,11.97,7.74-6.51-13.24-14.74-26.17-22.74-38.73-1.53-2.41-3.06-4.81-4.57-7.2-1.39-2.2-3.57-5.15-6.09-8.56-9.24-12.5-16.25-22.57-15.62-29.12.45-4.63,4.7-10.54,8.81-16.25,1.68-2.33,3.26-4.53,4.22-6.19,10.95-18.98,22-41.51,20.87-64.61-.93-18.88-9.41-31.18-22.34-47.13l-6.21,4.53c-13.11,9.55-26.67,19.43-39.82,29.44-9.52,7.26-18.96,14.05-29.72,17.51-7.72,2.48-10.7,1.71-16.65.18-1.04-.27-2.18-.56-3.47-.87-16.33-3.89-33.24-5.61-49.16-7.03-3.27-.29-6.8-.68-10.54-1.1-26.29-2.92-62.3-6.92-73.21,16.73-.41.89-1.29,1.45-2.27,1.45s-1.86-.57-2.27-1.45c-11-23.83-50.68-19.51-76.94-16.66-3.59.39-6.99.76-10.09,1.04-15.92,1.43-32.83,3.14-49.16,7.03-1.3.31-2.44.6-3.47.87-5.95,1.53-8.93,2.3-16.65-.18-10.75-3.46-20.2-10.25-29.72-17.51-13.14-10.01-26.7-19.89-39.82-29.44l-6.21-4.53c-12.93,15.95-21.41,28.25-22.34,47.13-1.13,23.11,9.91,45.63,20.87,64.61.96,1.66,2.54,3.86,4.22,6.19,4.11,5.71,8.36,11.62,8.81,16.25.64,6.55-6.38,16.62-15.62,29.12-2.52,3.41-4.7,6.36-6.09,8.56-1.51,2.39-3.04,4.79-4.57,7.2-8,12.56-16.23,25.49-22.74,38.73,3.99-2.14,8.03-4.97,11.97-7.74,4.58-3.22,9.32-6.54,14.11-8.89.96-.46,2.1-.28,2.85.46.76.74.96,1.88.51,2.85-6.2,13.21-11.19,27.3-16.02,40.92-.89,2.51-1.78,5.01-2.67,7.52-1.35,3.78-2.71,7.53-4.07,11.28-1.71,4.7-3.41,9.4-5.1,14.17-2.92,8.23-7.76,15.78-12.44,23.08-2.08,3.25-4.11,6.41-5.95,9.58,2.63-2.69,5.3-5.42,7.93-8.05,1.83-1.84,4.09-4.27,6.47-6.83,8.68-9.34,19.47-20.97,27.71-24.09.87-.33,1.85-.15,2.54.47.69.62.99,1.57.77,2.47-3.94,15.92-10.95,31.28-17.72,46.14-6.01,13.18-12.2,26.75-16.1,40.51,8.34-5.92,17.11-11.74,25.66-17.03.98-.61,2.25-.47,3.07.34.82.81.98,2.07.39,3.06-3.16,5.29-7.39,10.6-11.48,15.73-5.38,6.75-10.91,13.68-14.34,20.91,9.92-3.67,21.85-5.35,35.58-5.05,13.13.3,27.81,2.56,41.34,6.34,1.06.3,1.8,1.25,1.83,2.34.03,1.1-.66,2.08-1.7,2.43-13.71,4.6-28.86,11.9-41.91,20.06,26.55-5.34,60.98-6.09,82.68,1.88.79.29,1.39.96,1.57,1.79.19.82-.05,1.69-.64,2.3-9.44,9.78-23.12,18.15-36.01,25.6,37.49-4.15,68.23,11.41,89.47,45.55.55.89,1.15,1.81,1.77,2.76,3.49,5.36,7.45,11.44,7.22,17.51-.12,3.06-1.15,6.47-2.25,10.07-1.34,4.4-2.72,8.95-2.61,13.24.34,12.42,1.81,29.37,9.78,42.31-.7-7.33-.98-15.21,2.63-21.75.49-.89,1.47-1.39,2.48-1.28,1.01.12,1.85.84,2.12,1.81,2.59,9.33,8.39,15.94,14.53,22.93,1.2,1.36,2.41,2.74,3.6,4.15-.66-5.59-.4-11.1.84-16.01.24-.96,1.03-1.69,2-1.85.97-.16,1.96.26,2.5,1.09,3.42,5.17,6.57,10.39,9.61,15.43,4.14,6.86,8.13,13.47,12.68,19.86-1.75-6.44-3.5-13.08-3.63-19.68-.02-1,.56-1.92,1.48-2.33.33-.15.68-.22,1.02-.22Z"/><path class="cls-2" d="m157.73,367.55c-.68,0-1.35-.27-1.85-.81-13.05-14.28-20.01-31.75-25.51-50.29-.46,6.63-.25,13.97,2.16,19.04.35.64.71,1.28,1.08,1.9.68,1.17.31,2.67-.83,3.38-1.15.72-2.65.39-3.41-.74-.49-.73-.92-1.5-1.32-2.31-9.35-17.1-13.8-38.36-12.68-59.91-3.62,6.85-6.42,15.03-7.53,22.47-.17,1.12-1.07,1.99-2.2,2.12-1.13.11-2.2-.53-2.61-1.59-4.47-11.67.97-29.93,5.35-44.61.1-.32.19-.64.29-.96-3.33,4.55-7.03,8.94-11.29,11.19-.9.48-2,.36-2.78-.29-.78-.65-1.08-1.72-.77-2.69,2.39-7.36,6.39-14.52,10.26-21.45,2.39-4.29,4.87-8.72,6.88-13.07,3.33-7.22,7.11-15.8,9.86-24.7,1.07-3.46,1.42-7.39,1.76-11.19.4-4.52.82-9.2,2.44-13.33.5-1.29,1.95-1.92,3.24-1.42,1.29.5,1.92,1.95,1.42,3.24-1.36,3.47-1.73,7.59-2.12,11.95-.36,4.06-.74,8.25-1.96,12.22-2.83,9.18-6.69,17.96-10.09,25.33-2.09,4.52-4.61,9.04-7.05,13.41-1.81,3.24-3.64,6.53-5.31,9.84,1.55-2,3.04-4.14,4.46-6.18,1.78-2.55,3.45-4.95,5.12-6.94.73-.88,1.97-1.15,3-.65s1.59,1.63,1.36,2.76c-.84,4.08-2.33,9.07-3.91,14.36-2.61,8.74-5.61,18.83-6.54,27.62,2.63-7.17,6.24-13.97,10.23-18.92.7-.88,1.9-1.17,2.94-.73,1.03.44,1.64,1.52,1.49,2.63-2.33,17.22-.88,34.64,3.98,50.1.23-4.94.9-10.06,1.67-14.97.18-1.17,1.16-2.05,2.33-2.11,1.17-.08,2.24.71,2.55,1.85,6.01,22.34,12.66,43.75,27.75,60.27.93,1.02.86,2.6-.16,3.53-.48.44-1.08.65-1.69.65Z"/><path class="cls-2" d="m297.2,529.08c-.81,0-1.6-.39-2.08-1.11-2.86-4.29-14.38-3.61-23.64-3.05-6.77.4-13.16.78-17.66-.33-29.1-7.18-27.77-33.51-26.59-56.73.34-6.62.65-12.87.37-18.79-.65-13.78-4.3-27.79-7.23-39.04-1.26-4.84-3.41-9.52-5.68-14.47-3.03-6.61-6.16-13.44-7-20.7-.16-1.37.83-2.61,2.2-2.77,1.37-.17,2.61.83,2.77,2.2.75,6.47,3.58,12.65,6.58,19.19,2.26,4.93,4.6,10.03,5.97,15.3,2.99,11.48,6.71,25.76,7.38,40.07.29,6.16-.05,12.83-.37,19.28-1.18,23.36-2.3,45.43,22.79,51.62,3.76.93,9.78.57,16.16.19,11.63-.69,23.65-1.41,28.1,5.27.76,1.15.45,2.7-.7,3.47-.43.28-.91.42-1.38.42Z"/><path class="cls-3" d="m295.29,93.5c-7.51-16.26-37.41-14.42-51.5-11.62-15.33,3.05-32.29,11.36-46.14,25.19,8.84-5.83,21.22-10.52,31.79-12.82s22.38-3.28,33.23-2.07c15.02,1.67,25.52,4.05,35.82,15.06.87-6.1-1.66-12.01-4.47-16.88"/><path class="cls-3" d="m298.5,109.75c-.68,0-1.35-.28-1.83-.79-9.29-9.94-18.46-12.52-34.27-14.29-10-1.11-21.21-.41-32.42,2.03-11.08,2.41-22.94,7.19-30.95,12.47-1.08.7-2.5.49-3.31-.51-.81-.99-.74-2.44.17-3.35,13.26-13.24,30.1-22.43,47.42-25.88,14.82-2.94,40.64-3.99,51.36,8.51.63.16,1.19.57,1.54,1.17,2.55,4.43,5.82,11.16,4.77,18.48-.13.95-.81,1.74-1.72,2.03-.25.08-.5.12-.75.12Zm-45.67-20.59c3.47,0,6.86.18,10.13.54,12.38,1.38,22.91,3.2,32.85,11.54-.36-1.78-.99-3.65-1.89-5.65-.38-.25-.7-.6-.9-1.05-6.66-14.42-34.79-12.99-48.74-10.21-9.33,1.85-18.74,5.63-27.41,10.88,3.99-1.38,8.06-2.53,12.04-3.4,8.09-1.76,16.2-2.66,23.91-2.66Z"/><path class="cls-3" d="m297.5,75.25c-42.59-35.88-106.97,1.65-133.84,39.38,26.39-20.69,58.12-42.78,93.07-42.45,21.16.2,31.45,9.04,45.5,23.46-.21-7.21-.91-23.38-10.08-24.72"/><path class="cls-3" d="m163.66,117.13c-.62,0-1.25-.23-1.73-.69-.9-.86-1.03-2.25-.31-3.26,16.37-22.99,50.14-49.78,85.59-54.27,17.11-2.17,32.32,1.05,45.35,9.55,11.42,1.72,11.96,20.16,12.17,27.11.03,1.03-.57,1.97-1.52,2.38-.95.4-2.05.18-2.77-.56-13.64-14-23.39-22.52-43.73-22.71-33.07-.34-63.5,19.96-91.51,41.92-.45.36-1,.53-1.54.53Zm93.61-53.87c-3.07,0-6.21.2-9.43.61-25.1,3.18-49.38,18.1-66.69,34.61,23.42-16.35,48.52-29.09,75.61-28.8,19.74.19,30.56,7.71,42.62,19.54-.36-3.9-1.11-8.41-2.72-11.62-.27-.1-.53-.24-.76-.44-10.98-9.25-23.94-13.9-38.62-13.9Z"/><path class="cls-6" d="m74.64,67.37c-3.84-1.06-8.52-4.31-11.26-7.05-2.05-2.05-4.43-4.8-5.47-7.57-.45-1.22-.28-2.53-.87-3.72.69,8.67,3.02,18.6,6.6,26.5,1.4,3.1,3.31,5.74,5.65,8.15,1.06,1.09,2.6,2.08,2.57,3.6-5.38,0-12.62-7.15-14.51-12.03.56,7.25,2.21,16.82,8.5,21.16,5.22,3.61,13.5,4.85,19.8,5.84-2.49,4.71-10.64,3.95-13.29,8.53,6.24,2.84,13.18.13,19.45,1.83-3.06,5.3-8.85,9.32-9.09,16.02,3.04-1.56,5.47-5.78,8.62-7.84,1.94-1.27,4.18-2.32,6.19-3.37-2.06,5.85-6.16,13.16-1.74,19.03l-.28-.22c9.28-10.36,12.76-16.91,26.05-22.14-7.85,9.11-18.27,25.6-17.95,37.91,13.34-11.85,22.88-27.71,38-37.96,11.24-7.62,29.32-14.44,34.44-27.89-6.77,7.67-16.64,12.73-26.6,8.92-16.61-6.36-34.85-15.94-43.45-32.29-1.3,9.71-.7,23.72,6.75,31.18-6.86-7.36-12.88-14.43-18.64-23.18-4.24-6.43-7.66-13.32-10.05-20.64-1.08-3.31-1.64-7.3-3.75-9.94-4.72,8.67-2.7,18.61-5.11,27.78"/><path class="cls-6" d="m103.61,153.52c-.2,0-.4-.04-.6-.12-.54-.23-.89-.75-.9-1.34-.3-11.18,7.63-24.93,14.33-33.94-6.51,3.55-10.1,7.78-15.02,13.58-1.3,1.53-2.63,3.1-4.13,4.79,0,.38-.16.75-.45,1.04-.54.53-1.38.57-1.98.11l-.28-.22c-.27-.21-.46-.52-.54-.85-3.25-5.15-1.23-11.07.69-16.01-.89.47-1.76.97-2.57,1.49-1.32.86-2.59,2.25-3.81,3.59-1.52,1.66-3.09,3.38-4.94,4.33-.47.25-1.04.22-1.49-.07-.45-.29-.71-.79-.7-1.32.17-5.01,3.05-8.55,5.83-11.98.81-1,1.59-1.96,2.29-2.93-1.94-.24-3.96-.16-6.07-.08-3.8.15-7.73.3-11.53-1.43-.38-.17-.68-.5-.81-.91s-.08-.84.13-1.21c1.58-2.73,4.53-3.8,7.39-4.83,1.56-.57,3.07-1.11,4.23-1.89-6.04-.99-12.92-2.37-17.68-5.66-5.28-3.65-8.27-10.94-9.14-22.28-.06-.74.44-1.41,1.16-1.58.72-.16,1.46.23,1.73.92,1.38,3.56,5.58,8.04,9.48,10.03,0,0-.01-.01-.02-.02-2.59-2.68-4.54-5.48-5.94-8.58-3.48-7.7-6-17.79-6.73-27-.06-.72.4-1.37,1.1-1.56.7-.19,1.43.14,1.74.79.43.87.55,1.73.65,2.49.07.5.13.97.28,1.37.75,2.02,2.48,4.39,5.12,7.03,2.37,2.36,6.34,5.19,9.74,6.39.57-2.91.78-5.95.98-8.9.4-5.77.81-11.74,3.82-17.26.24-.44.68-.73,1.19-.78.5-.05.99.16,1.3.56,1.74,2.17,2.5,4.99,3.23,7.71.26.95.5,1.85.78,2.7,2.27,6.95,5.59,13.78,9.88,20.29,3.35,5.08,6.74,9.52,10.1,13.54-2.26-8.43-1.42-17.45-.95-20.92.09-.65.58-1.16,1.22-1.28.64-.11,1.29.2,1.59.78,6.86,13.03,20.41,23.07,42.66,31.59,8.17,3.12,17.49-.05,24.94-8.51.48-.54,1.28-.67,1.9-.29s.88,1.14.63,1.82c-4.02,10.56-15.5,17.14-25.63,22.94-3.39,1.94-6.59,3.77-9.37,5.66-8.75,5.94-15.77,13.98-22.56,21.75-4.79,5.49-9.74,11.16-15.29,16.09-.28.25-.64.38-1,.38Zm17.95-40.91c.47,0,.94.23,1.22.63.4.56.36,1.33-.09,1.85-7.77,9.01-15.96,22.66-17.38,33.3,4.35-4.19,8.39-8.82,12.31-13.31,6.91-7.92,14.06-16.11,23.13-22.26,2.87-1.95,6.12-3.81,9.56-5.78,6.47-3.7,13.52-7.74,18.57-12.85-6.47,3.89-13.51,4.79-19.99,2.3-20.66-7.91-34.12-17.19-41.86-28.96-.49,8.74.87,18.6,5.94,24.5.29.31.57.62.86.92.56.6.53,1.53-.06,2.1-.59.57-1.52.56-2.1-.02-.34-.34-.66-.69-.97-1.05-5.77-6.24-11.88-13.29-17.86-22.37-4.43-6.73-7.87-13.8-10.23-21-.3-.93-.57-1.91-.82-2.85-.4-1.47-.8-2.97-1.36-4.3-1.65,4.24-1.96,8.76-2.29,13.5-.26,3.76-.53,7.64-1.52,11.41-.21.8-1.04,1.28-1.83,1.07-.42-.11-.75-.38-.94-.73-4.16-1.27-8.87-4.65-11.55-7.32-.88-.88-1.67-1.73-2.36-2.56,1.17,5.76,2.93,11.4,5.05,16.1,1.26,2.77,3.01,5.3,5.36,7.73.21.22.44.43.67.64,1.05.96,2.35,2.16,2.31,4.04-.02.82-.68,1.47-1.5,1.47h0c-4.11,0-8.88-3.45-12.21-7.27,1.24,6.76,3.57,11.26,7.06,13.67,4.84,3.34,12.59,4.56,18.81,5.54l.37.06c.48.08.89.38,1.11.81s.21.95-.02,1.37c-1.53,2.89-4.71,4.04-7.51,5.06-1.7.61-3.33,1.21-4.52,2.1,2.59.68,5.33.58,8.2.47,2.98-.11,6.05-.23,9.05.58.45.12.82.45,1,.88.18.43.14.92-.09,1.32-1.06,1.83-2.42,3.51-3.73,5.12-1.64,2.02-3.22,3.97-4.19,6.15.31-.33.63-.68.95-1.03,1.35-1.48,2.75-3,4.38-4.07,1.53-1,3.2-1.85,4.81-2.67.51-.26,1.01-.51,1.5-.77.55-.28,1.21-.21,1.68.19.47.4.64,1.05.43,1.63-.33.93-.7,1.9-1.09,2.89-1.71,4.37-3.46,8.87-1.98,12.75,1.15-1.32,2.22-2.58,3.26-3.8,6.25-7.36,10.76-12.68,21.88-17.05.18-.07.36-.1.55-.1Z"/><path class="cls-3" d="m237.5,238.25c-10.33-8.04-20.5-1.87-29.77-.49-6.03.89-13.86,1.28-19.56-1.43-4.61-2.19-8.51-7.11-12.55-9.07l-1.1-.04c-7.73,6.56-14.65,12.57-20,21.47-4.11,6.84-15.34,20.76-14.83,28.22,2.7-9.35,12-17.51,19.15-23.53,7.52-6.33,17-8.4,25.2-13.11-7.18,2.39-14.53,13.62-17.86,19.84-5.84,10.92-12.05,27.69-11.82,39.91,1.73-3.82,2.54-8.68,3.77-12.81,2.17-7.3,6.1-12.77,10.46-18.95,7.38-10.47,19.04-18.91,31.54-22.52-4.42,7.29-10.92,13.05-15.18,20.91,7.55-8.36,13.95-15.58,24.86-20.14,10.41-4.36,16.7-10.26,27.7-8.26"/><path class="cls-3" d="m154.36,302.52c-.17,0-.33-.02-.5-.05-1.15-.24-1.97-1.23-2-2.4-.25-13.18,6.37-30.4,12.12-41.14.73-1.37,2.91-5.28,5.95-9.4-3.39,1.58-6.59,3.34-9.47,5.77-7.62,6.41-15.95,13.96-18.36,22.31-.34,1.17-1.46,1.93-2.67,1.79-1.21-.13-2.15-1.11-2.23-2.32-.45-6.55,6.11-16.18,11.38-23.91,1.47-2.16,2.87-4.21,3.81-5.77,5.72-9.51,13.25-15.9,20.53-22.09.48-.41,1.09-.61,1.71-.59l1.1.04c.35.01.69.1,1,.25,2.22,1.08,4.32,2.86,6.34,4.58,2.01,1.71,4.09,3.48,6.19,4.48,4.09,1.94,10.35,2.36,18.12,1.21,2.11-.31,4.29-.9,6.61-1.52,7.62-2.04,16.26-4.35,25.07,2.51.91.71,1.22,1.94.75,2.99-.47,1.05-1.59,1.64-2.73,1.44-7.29-1.33-12.3,1.23-18.63,4.46-2.38,1.21-4.84,2.47-7.65,3.65-10.21,4.27-16.41,11.14-23.58,19.08l-.38.43c-.85.94-2.27,1.1-3.3.37-1.03-.73-1.36-2.12-.75-3.23,2.42-4.47,5.5-8.25,8.48-11.91.71-.88,1.42-1.74,2.1-2.6-8.96,4.15-17.12,10.82-22.7,18.75l-.32.45c-4.18,5.92-7.79,11.04-9.79,17.77-.4,1.34-.75,2.75-1.12,4.25-.75,3.02-1.53,6.14-2.77,8.88-.41.91-1.31,1.47-2.28,1.47Zm27.34-58.2c-4.72,3.38-9.84,10.47-13.31,16.96-1.46,2.74-2.93,5.8-4.29,9.03.7-1.01,1.42-2.03,2.14-3.05l.32-.45c7.75-10.99,20.04-19.76,32.88-23.48.99-.28,2.05.06,2.68.88.63.82.69,1.93.15,2.82-.16.27-.32.53-.49.79,2.15-1.33,4.49-2.54,7.07-3.62,2.64-1.1,5.01-2.32,7.31-3.49,2.96-1.51,5.86-2.99,8.95-4.01-3.23.12-6.49.99-9.84,1.89-2.35.63-4.78,1.28-7.17,1.63-8.88,1.31-15.94.76-21-1.64-2.7-1.28-5.03-3.27-7.29-5.19-1.6-1.36-3.13-2.66-4.58-3.51-6.69,5.69-13.51,11.66-18.58,20.09-.78,1.3-1.78,2.8-2.92,4.48,1.17-1.02,2.34-2.02,3.49-2.99,4.91-4.14,10.54-6.53,15.99-8.84,2.06-.88,4.05-1.72,5.98-2.64,1.32-.9,2.68-1.63,4.06-2.08,1.22-.41,2.55.18,3.07,1.35.53,1.17.08,2.55-1.04,3.19-1.18.68-2.38,1.3-3.59,1.89Z"/><path class="cls-3" d="m136.17,200.35c.04-4.96.04-14.3,2.12-19.8,9.1,6.56,14.21,10.94,18.57,21.1,3.71,8.65,11.7,12.02,19.48,16.37-8.88,1.12-14.17-7.78-20.8-12.18-4.75-3.15-13.78-5.1-19.37-5.92"/><path class="cls-3" d="m174.81,220.62c-6.4,0-11.06-4.31-15.21-8.14-1.86-1.72-3.61-3.34-5.44-4.55-3.75-2.49-10.94-4.33-16.92-5.31-.32.15-.68.24-1.07.24h-.02c-1.38,0-2.49-1.14-2.48-2.52v-.3c0-.09,0-.17,0-.26.04-5.43.12-14.39,2.28-20.11.28-.73.87-1.29,1.62-1.51.75-.22,1.55-.09,2.18.37,8.93,6.44,14.69,11.14,19.4,22.15,2.89,6.76,8.69,9.9,15.41,13.53,1,.54,2,1.08,2.99,1.64.94.53,1.44,1.6,1.23,2.66-.21,1.06-1.07,1.87-2.14,2-.63.08-1.25.12-1.85.12Zm-36.12-22.83c3.91.68,10.73,2.12,15.75,4.57-3.57-8.22-7.65-12.36-14.71-17.66-.82,4.11-.99,9.27-1.04,13.09Z"/><path class="cls-3" d="m170.36,160.74c5.32-6.91,10.49-13.26,17.55-18.64,4.14-3.16,8.97-7.59,14.39-7.71-8.18,5.56-9.16,18.04-2.7,24.85,3.25,3.43,7.43,5.78,10.84,9.08,2.57,2.49,4.53,6.52,7.87,8.04-3.79-.99-7.22-4.29-10.27-6.63-4.36-3.34-8.17-5.42-13.42-6.88-3.5-.98-7.22-1.87-10.9-1.7-4.09.19-9.02,3.25-12.5-.41"/><path class="cls-3" d="m218.31,178.86c-.21,0-.42-.03-.63-.08-3.55-.92-6.61-3.41-9.32-5.59-.63-.51-1.24-1.01-1.84-1.47-4.36-3.34-7.89-5.15-12.57-6.46-3.1-.87-6.7-1.77-10.11-1.62-.97.04-2.11.32-3.32.61-2.98.71-6.97,1.66-10.27-1.02-.5-.02-.99-.19-1.42-.52-1.09-.84-1.3-2.41-.46-3.51,5.28-6.85,10.62-13.47,18.01-19.1.54-.41,1.09-.85,1.66-1.29,3.86-3.03,8.66-6.81,14.2-6.93,1.1-.03,2.1.68,2.44,1.74.34,1.05-.06,2.21-.97,2.83-3.2,2.18-5.29,5.82-5.74,10-.45,4.18.84,8.31,3.45,11.07,1.6,1.69,3.48,3.12,5.48,4.63,1.77,1.35,3.61,2.74,5.29,4.38,1.03,1,1.94,2.17,2.81,3.29,1.42,1.82,2.75,3.54,4.35,4.27,1.18.54,1.75,1.89,1.32,3.11-.36,1.02-1.32,1.66-2.36,1.66Zm-33.67-20.23c3.79,0,7.47.93,10.65,1.82,1,.28,1.95.58,2.88.91-.13-.13-.26-.27-.39-.4-3.66-3.86-5.4-9.34-4.79-15.04.22-2,.72-3.92,1.47-5.69-1.14.81-2.26,1.69-3.33,2.53-.58.46-1.16.91-1.72,1.34-6.04,4.61-10.72,10.04-15.19,15.74,1.16.42,2.68.15,5.12-.43,1.38-.33,2.81-.67,4.25-.74.34-.02.69-.02,1.03-.02Z"/><path class="cls-3" d="m290.77,115.26c2.27,7.82-2.17,10.87-8.12,15.18-5.56,4.03-10.07,8.18-12.02,15.13-2.1,7.46-.03,15.87-2.9,23.09-2.43,6.12-9.66,13.09-15.34,16.26,5.15-5.99,9.11-15.27,11.1-22.99,1.37-5.32,1.95-9.33.76-14.73-.94-4.25-2.71-8.55-2.93-12.86-.42-8.27,5.75-14.7,13.87-14.76,5.37-.04,12.26,2.25,15.31-4.34"/><path class="cls-3" d="m252.39,187.43c-.73,0-1.45-.32-1.94-.92-.77-.94-.75-2.29.04-3.21,5.18-6.02,8.85-15.3,10.57-21.98,1.33-5.19,1.81-8.71.74-13.57-.31-1.39-.71-2.79-1.13-4.27-.83-2.9-1.69-5.89-1.85-9-.24-4.67,1.33-9.03,4.4-12.29,3.07-3.25,7.31-5.07,11.95-5.1,1.19,0,2.46.09,3.67.18,4.92.38,7.78.42,9.4-3.07.45-.97,1.45-1.51,2.47-1.44,1.11-.02,2.15.69,2.47,1.8,2.72,9.38-2.85,13.41-8.75,17.68l-.31.22c-5.58,4.04-9.39,7.76-11.08,13.79-.88,3.11-.96,6.47-1.04,10.02-.11,4.42-.22,8.99-1.94,13.32-2.77,6.96-10.54,14.22-16.45,17.52-.38.21-.8.32-1.22.32Zm14.56-29.66c-.25,1.53-.61,3.11-1.04,4.79-.78,3.04-1.95,6.6-3.47,10.2,1.28-1.68,2.32-3.39,2.97-5.02,1.21-3.04,1.44-6.41,1.54-9.97Zm8.39-35.68s-.09,0-.13,0c-3.26.03-6.23,1.28-8.36,3.53-2.13,2.26-3.21,5.31-3.04,8.6.13,2.54.87,5.13,1.66,7.88.43,1.49.87,3.03,1.21,4.57.28,1.27.47,2.48.58,3.64.17-1.82.45-3.63.96-5.42,2.08-7.39,6.69-11.94,12.96-16.48l.31-.22c3.93-2.84,6.33-4.7,7.12-7.18-3.18,1.79-7.05,1.49-10.16,1.25-1.11-.08-2.15-.17-3.11-.17Z"/><path class="cls-3" d="m282.91,240.3c-.51,0-1.01-.15-1.44-.46-2.3-1.62-3.87-3.79-5.38-5.9-1.55-2.16-3.02-4.19-5.14-5.4-.9-.51-4.28-2.33-7.2-2.49-1.01.15-2,.39-2.95.71-.21.15-.41.34-.59.55-.89,1.06-2.46,1.2-3.52.31-.14-.12-.26-.24-.37-.38-.29-.23-.53-.52-.71-.87-.61-1.24-.1-2.74,1.14-3.35.6-.29,1.22-.56,1.85-.8,1.35-.76,2.93-1.15,4.69-1.16,5.16-.71,10.62.29,14.76,2.92,4.85,3.08,7.46,8,7.35,13.85-.02.93-.54,1.77-1.37,2.18-.36.18-.74.27-1.13.27Z"/><path class="cls-6" d="m257.34,382.39c-1.35,1.73-.41,7.93,0,10.59.43,2.83,1.14,5.83,2.14,8.54,3.63-.51,10.13-6.81,8.66-10.06-1.28-2.84-6.99-8.6-10.27-8.57"/><path class="cls-6" d="m259.48,403.02c-.62,0-1.19-.39-1.41-.98-.97-2.64-1.73-5.7-2.21-8.83-.75-4.93-1.24-9.76.3-11.74.51-.65,1.45-.77,2.11-.26.09.07.17.15.24.23,4.19.57,9.78,6.71,11,9.41.43.94.67,2.56-.6,4.87-1.9,3.46-6.2,6.86-9.21,7.29-.07,0-.14.01-.21.01Zm-1.28-18.6c-.14,1.2-.11,3.58.62,8.33.37,2.42.92,4.79,1.61,6.92,1.94-.88,4.59-3.11,5.84-5.39.51-.93.7-1.75.5-2.19-1.11-2.45-6.02-7.28-8.57-7.66Z"/><path class="cls-6" d="m271.99,393.23c.12-.14.46-.34.26-.29-.09,2.87,1.3,7.93,4.49,8.77,2.42-1.12,6.08-6.26,4.57-7.98-1.63-1.85-7.21-2.79-9.32-2.01"/><path class="cls-6" d="m276.74,403.21c-.13,0-.26-.02-.38-.05-3.57-.94-5.32-5.55-5.58-9.04-.35-.48-.39-1.13-.09-1.65-.04-.08-.08-.16-.11-.24-.29-.78.11-1.64.89-1.92,2.7-.99,8.93.12,10.96,2.43.47.53.95,1.49.62,3.05-.55,2.6-3.36,6.21-5.68,7.28-.2.09-.41.14-.63.14Zm-3-9.84c.04,2.37,1.1,5.72,2.87,6.69,1.85-1.26,3.82-4.58,3.53-5.39-.89-1-4.25-1.78-6.34-1.73,0,.13-.02.28-.06.43Z"/><path class="cls-6" d="m284.8,393.98c-.14,2.35,1.18,4.78,2.41,6.75.94,1.51,1.29,2.49,2.88,2.07,1.43-.37,2.88-2.77,3.61-3.89,1.43-2.19,2.29-3.96-.79-5.26-1.88-.8-6.03-1.28-7.59-.18"/><path class="cls-6" d="m289.43,404.4c-1.75,0-2.56-1.36-3.19-2.39l-.29-.48c-1.39-2.23-2.8-4.88-2.64-7.63.03-.52.32-.97.75-1.21.1-.16.24-.31.41-.43,2.24-1.59,7.01-.84,9.04.02,1.57.67,2.51,1.55,2.86,2.69.51,1.66-.41,3.27-1.4,4.78l-.17.26c-1.23,1.91-2.58,3.8-4.32,4.26-.38.1-.73.14-1.05.14Zm.04-2.98h0,0Zm-3.16-6.79c.12,1.78,1.21,3.75,2.18,5.3l.32.52c.21.35.5.83.64.95.01,0,.1-.01.26-.06.76-.2,2.11-2.29,2.55-2.98l.18-.28c.29-.45,1.18-1.81,1.04-2.26-.05-.17-.38-.47-1.16-.8-1.75-.74-5-.94-6.03-.4Z"/><path class="cls-2" d="m241.73,217.97c1.06,6.9,3.32,12.03,5.8,18.64-2.27-5.69-12.53-12.49-18.74-13.67-8.44-1.61-16.45,3.3-24.9,2.03-10.25-1.53-14.96-5.54-17.44-15.58-1.15-4.64-6-11.62-5.95-15.14l-23-28c14.32,18.57,26.21,21.63,42.55,17.45,8.09-2.07,12.67-2.98,20.62.48,9.68,4.22,11.97,6.62,15.59,16.37s6.64,17.68,18.49,17.55c-6.32,4.02-18.34-2.22-22.86-7.46-5.74-6.66-6.35-15.89-13.06-22.42-13.45-13.1-27.33,35.02-30.33,27.02-2.53-6.75-25-44-31.43-48.94"/><path class="cls-2" d="m247.53,239.11c-.99,0-1.93-.6-2.32-1.57-1.92-4.8-11.44-11.11-16.88-12.14-3.84-.73-7.7.08-11.79.95-4.16.88-8.45,1.79-13.01,1.1-8.58-1.28-13.8-4.4-17-10.54-.09-.16-.18-.33-.26-.51-.3-.62-.59-1.27-.85-1.95-3.92-8.11-19.08-33.21-26.76-42.81-.46-.53-.92-1.09-1.38-1.65-.67-.75-1.25-1.32-1.72-1.69-1.09-.84-1.3-2.41-.46-3.51.47-.61,1.16-.94,1.87-.97.89-.19,1.85.11,2.47.86l3.79,4.61c12.67,14.38,23.1,15.36,36.22,12.01,8.39-2.14,13.56-3.17,22.23.62,10.25,4.47,13.1,7.47,16.93,17.79,3.88,10.44,6.36,15.93,15.85,15.93.1,0,.19,0,.29,0,1.11,0,2.08.73,2.4,1.79.32,1.07-.11,2.22-1.05,2.82-3.18,2.03-7.2,2.05-11.19,1.01.93,3.98,2.3,7.53,3.82,11.51.37.97.75,1.96,1.14,2.99.48,1.28-.16,2.71-1.44,3.21-.3.12-.6.17-.9.17Zm-22.35-19c1.34,0,2.7.11,4.08.37,3.47.66,7.86,2.75,11.74,5.48-.65-2.15-1.21-4.38-1.62-6.83-3.97-1.95-7.45-4.6-9.38-6.85-2.91-3.37-4.57-7.25-6.19-11.01-1.79-4.16-3.47-8.09-6.72-11.25-1.66-1.61-2.88-1.65-3.65-1.53-5.21.79-11.34,12.05-15.4,19.51-2.38,4.38-4.01,7.36-5.54,9.03,2.46,3.06,6.08,4.61,11.76,5.46,3.67.55,7.34-.23,11.24-1.05,3.13-.66,6.34-1.34,9.68-1.34Zm-3.83-32.88c3.45,3.69,5.28,7.95,7.05,12.07,1.53,3.56,2.98,6.93,5.38,9.72,1.4,1.63,3.54,3.29,5.93,4.67-2.52-3.43-4.14-7.79-5.8-12.26-3.14-8.46-4.98-10.72-12.57-14.2Zm-44.71-1.62l5.79,7.05c.38.46.58,1.03.57,1.63-.02,1.36,1.5,4.46,2.73,6.96,1.26,2.57,2.57,5.23,3.15,7.55.31,1.24.64,2.37,1.02,3.41,1.09-1.69,2.52-4.32,3.75-6.58,4.46-8.2,9.88-18.17,16.35-21.22-2.76.11-5.62.79-9.33,1.73-8.34,2.13-16.14,2.66-24.03-.51Z"/><path class="cls-6" d="m449.13,266.75c0-22.06.7-41.2-11.29-60.43-10.17-16.3-28.89-21.69-47.31-21.65-14.54.03-44.39-1.06-44.49-21.52-.08-16.13,15.24-32.14,28.76-38.75,16.19-7.91,38.55,1.85,40.17,20.76,2.77-9.38-.32-18.81-5.55-26.41,8.05,1.13,22.21,2.43,28.54,7.98,6.94,6.08,3.74,25.39,5.11,34.32,1.7,11.07,8.97,19.05,13.95,28.76,6.65,12.96,5.4,28.63,3.27,42.84-1.86,12.35-6.31,22.98-11.16,34.09"/><path class="cls-6" d="m451.22,266.75c0-11.08.21-22.22-1.42-33.22-1.59-10.71-5.23-21.45-11.54-30.34-5.74-8.08-13.98-13.71-23.29-16.92-8.81-3.04-17.96-3.61-27.2-3.7-6.77-.07-13.56-.46-20.16-1.91-6.13-1.34-13.09-3.76-16.72-8.77-1.9-2.62-2.74-5.52-2.76-8.74-.03-4.75,1.4-9.42,3.56-13.62,4.59-8.92,12.21-16.43,20.8-21.51,3.5-2.07,7.21-3.64,11.28-4.11s7.84-.06,11.58,1.09c7.08,2.17,13.53,7.29,16.16,14.35.7,1.87,1.16,3.82,1.35,5.81.21,2.26,3.43,2.95,4.11.56,2.79-9.76-.18-19.84-5.76-28.02l-2.36,3.08c4.99.69,9.99,1.26,14.92,2.33,4.36.95,9.73,2.17,13.03,5.41,2.56,2.51,3.19,7.1,3.5,10.79.41,4.88.24,9.79.27,14.68s.55,9.92,2.37,14.68c2.22,5.79,5.64,10.94,8.85,16.2,1.63,2.68,3.26,5.41,4.49,8.3s2.1,6.01,2.68,9.12c1.19,6.38,1.1,12.96.55,19.4-.64,7.57-1.8,15.12-3.94,22.42s-5.19,14.53-8.27,21.59c-.45,1.04-.3,2.25.75,2.87.89.52,2.41.29,2.87-.75,2.87-6.58,5.71-13.19,7.9-20.03s3.43-13.57,4.3-20.56c1.66-13.37,1.65-27.37-4.87-39.54-2.97-5.54-6.69-10.66-9.54-16.27-2.55-5.04-3.8-9.96-3.93-15.38-.12-4.94.1-9.88-.17-14.81-.25-4.5-.72-9.48-3.12-13.42-2.86-4.7-8.82-6.74-13.87-8.07-5.79-1.52-11.75-2.17-17.67-2.99-1.61-.22-3.51,1.39-2.36,3.08,4.96,7.29,7.83,16.06,5.34,24.8l4.11.56c-.8-8.71-5.66-16.22-13.07-20.82-7.15-4.44-16.14-5.91-24.32-3.92-4.46,1.09-8.58,3.36-12.35,5.93-4.4,3-8.45,6.55-11.96,10.56-6.57,7.5-12.24,17.57-11.34,27.88,1.43,16.33,20.18,20.37,33.57,21.51,7.76.66,15.56.12,23.3,1.05,9.52,1.15,19.24,4.3,26.73,10.47,8.35,6.88,13.43,17.16,16.22,27.46s3.18,21.83,3.21,32.85c0,2.87,0,5.75,0,8.62,0,2.69,4.19,2.7,4.19,0h0Z"/><path class="cls-2" d="m436.24,367.55c-.6,0-1.21-.22-1.69-.65-1.02-.93-1.09-2.51-.16-3.53,15.09-16.51,21.74-37.93,27.75-60.27.31-1.14,1.33-1.92,2.55-1.85,1.18.06,2.15.94,2.33,2.11.77,4.91,1.43,10.03,1.67,14.97,4.85-15.46,6.31-32.88,3.98-50.1-.15-1.11.46-2.19,1.49-2.63,1.04-.44,2.23-.14,2.94.73,3.98,4.95,7.6,11.76,10.23,18.92-.93-8.79-3.94-18.88-6.54-27.62-1.58-5.29-3.07-10.29-3.91-14.36-.23-1.12.33-2.26,1.36-2.76s2.27-.23,3,.65c1.66,1.99,3.34,4.39,5.12,6.94,1.42,2.04,2.91,4.17,4.46,6.18-1.67-3.31-3.51-6.6-5.31-9.84-2.44-4.37-4.96-8.89-7.05-13.41-3.4-7.37-7.26-16.14-10.09-25.33-1.22-3.96-1.6-8.16-1.96-12.22-.39-4.37-.76-8.49-2.12-11.95-.5-1.29.13-2.74,1.42-3.24,1.29-.51,2.74.13,3.24,1.42,1.62,4.13,2.04,8.81,2.44,13.33.34,3.8.69,7.73,1.76,11.19,2.74,8.9,6.52,17.48,9.86,24.7,2.01,4.35,4.48,8.78,6.88,13.07,3.87,6.93,7.87,14.1,10.26,21.45.31.97,0,2.03-.77,2.69s-1.88.77-2.78.29c-4.26-2.26-7.96-6.64-11.29-11.19.1.32.19.64.29.96,4.38,14.68,9.82,32.94,5.35,44.61-.41,1.06-1.48,1.71-2.61,1.59-1.13-.12-2.03-.99-2.2-2.12-1.11-7.44-3.9-15.62-7.53-22.47,1.13,21.55-3.33,42.81-12.68,59.91-.39.81-.83,1.58-1.32,2.31-.75,1.13-2.26,1.45-3.41.74-1.15-.72-1.52-2.21-.83-3.38.37-.63.73-1.26,1.08-1.9,2.41-5.07,2.62-12.41,2.16-19.04-5.5,18.54-12.46,36.01-25.51,50.29-.49.54-1.17.81-1.85.81Z"/><path class="cls-3" d="m356.46,238.25c10.33-8.04,20.5-1.87,29.77-.49,6.03.89,13.86,1.28,19.56-1.43,4.61-2.19,8.51-7.11,12.55-9.07l1.1-.04c7.73,6.56,14.65,12.57,20,21.47,4.11,6.84,15.34,20.76,14.83,28.22-2.7-9.35-12-17.51-19.15-23.53-7.52-6.33-17-8.4-25.2-13.11,7.18,2.39,14.53,13.62,17.86,19.84,5.84,10.92,12.05,27.69,11.82,39.91-1.73-3.82-2.54-8.68-3.77-12.81-2.17-7.3-6.1-12.77-10.46-18.95-7.38-10.47-19.04-18.91-31.54-22.52,4.42,7.29,10.92,13.05,15.18,20.91-7.55-8.36-13.95-15.58-24.86-20.14s-16.7-10.26-27.7-8.26"/><path class="cls-3" d="m439.61,302.52c-.97,0-1.87-.56-2.28-1.47-1.24-2.74-2.02-5.87-2.77-8.89-.37-1.5-.72-2.91-1.12-4.25-2-6.73-5.61-11.85-9.79-17.77l-.32-.45c-5.59-7.92-13.75-14.59-22.7-18.75.69.86,1.39,1.72,2.1,2.6,2.98,3.66,6.06,7.43,8.48,11.91.6,1.11.28,2.5-.75,3.23-1.04.73-2.45.57-3.3-.37l-.38-.43c-7.18-7.95-13.38-14.82-23.58-19.08-2.81-1.18-5.27-2.43-7.65-3.65-6.34-3.23-11.34-5.79-18.63-4.46-1.13.2-2.26-.39-2.73-1.44-.47-1.05-.16-2.29.75-2.99,8.81-6.86,17.45-4.55,25.07-2.51,2.32.62,4.5,1.2,6.61,1.52,7.76,1.15,14.03.73,18.12-1.21,2.1-1,4.18-2.77,6.19-4.48,2.02-1.72,4.12-3.5,6.34-4.58.31-.15.65-.24,1-.25l1.1-.04c.62-.02,1.24.19,1.71.59,7.28,6.19,14.81,12.58,20.53,22.09.94,1.56,2.33,3.61,3.81,5.77,5.27,7.73,11.82,17.35,11.38,23.91-.08,1.21-1.02,2.19-2.23,2.32-1.21.13-2.33-.63-2.67-1.79-2.41-8.36-10.74-15.9-18.36-22.31-2.89-2.43-6.08-4.19-9.47-5.77,3.04,4.12,5.22,8.04,5.95,9.41,5.75,10.74,12.37,27.96,12.12,41.14-.02,1.17-.85,2.17-2,2.4-.17.03-.34.05-.5.05Zm-45.76-59.28c.23,0,.46.03.69.1,12.85,3.71,25.14,12.49,32.88,23.48l.32.45c.72,1.02,1.44,2.04,2.14,3.05-1.37-3.23-2.83-6.29-4.29-9.03-3.48-6.5-8.59-13.58-13.31-16.97-1.21-.59-2.41-1.21-3.59-1.89-1.11-.64-1.56-2.02-1.04-3.19.52-1.17,1.85-1.76,3.07-1.35,1.38.46,2.74,1.18,4.06,2.08,1.93.92,3.92,1.77,5.98,2.64,5.44,2.31,11.07,4.71,15.99,8.84,1.15.97,2.32,1.97,3.49,2.99-1.14-1.68-2.14-3.18-2.92-4.48-5.07-8.42-11.89-14.4-18.58-20.09-1.45.85-2.97,2.15-4.58,3.51-2.26,1.92-4.59,3.91-7.29,5.19-5.06,2.4-12.13,2.95-21,1.64-2.39-.35-4.82-1-7.17-1.63-3.35-.9-6.61-1.77-9.84-1.89,3.1,1.02,5.99,2.49,8.95,4.01,2.3,1.17,4.67,2.38,7.31,3.49,2.58,1.08,4.91,2.29,7.07,3.62-.17-.26-.33-.52-.49-.79-.53-.88-.47-2,.15-2.82.48-.63,1.22-.98,1.98-.98Z"/><path class="cls-3" d="m457.8,200.35c-.04-4.96-.04-14.3-2.12-19.8-9.1,6.56-14.21,10.94-18.57,21.1-3.71,8.65-11.7,12.02-19.48,16.37,8.88,1.12,14.17-7.78,20.8-12.18,4.75-3.15,13.78-5.1,19.37-5.92"/><path class="cls-3" d="m419.16,220.62c-.6,0-1.21-.04-1.85-.12-1.07-.13-1.93-.94-2.14-2-.21-1.06.29-2.13,1.23-2.66,1-.56,2-1.1,2.99-1.64,6.71-3.64,12.51-6.78,15.41-13.53,4.71-11,10.48-15.71,19.4-22.15.63-.46,1.44-.59,2.18-.37.75.22,1.34.78,1.62,1.51,2.16,5.72,2.25,14.68,2.28,20.11,0,.09,0,.17,0,.26v.3c.01,1.38-1.1,2.51-2.48,2.52-.43,0-.76-.08-1.08-.24-5.98.98-13.18,2.82-16.92,5.31-1.83,1.21-3.58,2.84-5.44,4.55-4.15,3.84-8.81,8.14-15.21,8.14Zm35.07-35.92c-7.06,5.3-11.14,9.43-14.71,17.65,5.03-2.45,11.85-3.89,15.75-4.57-.05-3.82-.22-8.98-1.04-13.09Z"/><path class="cls-3" d="m423.6,160.74c-5.32-6.91-10.49-13.26-17.55-18.64-4.14-3.16-8.97-7.59-14.39-7.71,8.18,5.56,9.16,18.04,2.7,24.85-3.25,3.43-7.43,5.78-10.84,9.08-2.57,2.49-4.53,6.52-7.87,8.04,3.79-.99,7.22-4.29,10.27-6.63,4.36-3.34,8.17-5.42,13.42-6.88,3.5-.98,7.22-1.87,10.9-1.7,4.09.19,9.02,3.25,12.5-.41"/><path class="cls-3" d="m375.66,178.86c-1.04,0-1.99-.65-2.36-1.66-.43-1.22.14-2.57,1.32-3.11,1.6-.73,2.94-2.45,4.35-4.27.88-1.13,1.78-2.29,2.81-3.29,1.69-1.63,3.52-3.03,5.29-4.37,1.99-1.51,3.87-2.94,5.48-4.63,2.61-2.75,3.9-6.89,3.45-11.07-.45-4.18-2.54-7.82-5.74-10-.92-.62-1.31-1.77-.97-2.83s1.32-1.78,2.44-1.74c5.54.12,10.34,3.9,14.2,6.93.57.44,1.12.88,1.66,1.29,7.39,5.64,12.73,12.25,18.01,19.1.84,1.09.64,2.66-.46,3.51-.42.33-.92.5-1.42.52-3.3,2.68-7.29,1.73-10.27,1.02-1.21-.29-2.35-.56-3.32-.61-3.42-.15-7.01.75-10.11,1.62-4.69,1.31-8.21,3.12-12.57,6.46-.6.46-1.21.96-1.84,1.47-2.7,2.19-5.77,4.67-9.32,5.59-.21.05-.42.08-.63.08Zm23.84-38.64c.76,1.77,1.26,3.69,1.47,5.69.62,5.7-1.13,11.18-4.79,15.04-.13.14-.26.27-.39.4.93-.33,1.88-.63,2.88-.91,3.47-.97,7.52-1.99,11.68-1.79,1.45.07,2.87.41,4.25.74,2.44.58,3.97.85,5.12.43-4.47-5.69-9.14-11.13-15.19-15.74-.56-.43-1.13-.88-1.72-1.34-1.07-.84-2.18-1.72-3.33-2.53Z"/><path class="cls-2" d="m352.24,217.97c-1.06,6.9-3.32,12.03-5.8,18.64,2.27-5.69,12.53-12.49,18.74-13.67,8.44-1.61,16.45,3.3,24.9,2.03,10.25-1.53,14.96-5.54,17.44-15.58,1.15-4.64,6-11.62,5.95-15.14l23-28c-14.32,18.57-26.21,21.63-42.55,17.45-8.09-2.07-12.67-2.98-20.62.48-9.68,4.22-11.97,6.62-15.59,16.37s-6.64,17.68-18.49,17.55c6.32,4.02,18.34-2.22,22.86-7.46,5.74-6.66,6.35-15.89,13.06-22.42,13.45-13.1,27.33,35.02,30.33,27.02,2.53-6.75,25-44,31.43-48.94"/><path class="cls-2" d="m346.44,239.11c-.3,0-.61-.05-.9-.17-1.28-.5-1.92-1.93-1.44-3.21.39-1.03.77-2.03,1.14-3,1.52-3.97,2.89-7.52,3.82-11.5-3.99,1.05-8.01,1.02-11.19-1-.94-.6-1.37-1.75-1.05-2.82.32-1.06,1.29-1.79,2.4-1.79.1,0,.2,0,.29,0,9.5,0,11.98-5.49,15.85-15.93,3.83-10.32,6.68-13.32,16.93-17.79,8.68-3.79,13.85-2.76,22.23-.62,16.49,4.21,26.23-.69,35.65-11.32l4.35-5.3c.62-.75,1.58-1.05,2.47-.86.71.03,1.41.37,1.87.97.84,1.09.64,2.66-.46,3.51-.47.36-1.05.94-1.72,1.69-.46.57-.92,1.12-1.38,1.65-7.68,9.6-22.84,34.7-26.76,42.82-.27.68-.55,1.33-.85,1.95-.08.19-.17.36-.26.52-3.2,6.14-8.42,9.25-17,10.54-4.55.68-8.85-.23-13.01-1.1-4.09-.86-7.95-1.68-11.79-.95-5.44,1.04-14.96,7.35-16.88,12.14-.39.98-1.33,1.57-2.32,1.57Zm8.15-19.97c-.41,2.45-.96,4.68-1.62,6.83,3.88-2.73,8.27-4.82,11.74-5.48,4.83-.92,9.37.04,13.76.97,3.89.82,7.57,1.6,11.24,1.05,5.69-.85,9.3-2.4,11.76-5.46-1.54-1.67-3.16-4.65-5.54-9.03-4.06-7.46-10.18-18.72-15.4-19.51-.77-.12-1.99-.09-3.65,1.53-3.25,3.17-4.94,7.09-6.72,11.25-1.61,3.75-3.28,7.64-6.19,11.01-1.94,2.25-5.41,4.9-9.38,6.85Zm18.03-31.91c-7.59,3.47-9.42,5.74-12.57,14.2-1.66,4.47-3.28,8.83-5.8,12.26,2.4-1.38,4.53-3.04,5.94-4.67,2.4-2.79,3.85-6.15,5.38-9.72,1.77-4.13,3.6-8.39,7.05-12.07Zm11.35-2.84c6.47,3.06,11.89,13.02,16.35,21.22,1.23,2.26,2.66,4.89,3.75,6.58.38-1.03.71-2.17,1.02-3.41.57-2.32,1.88-4.98,3.15-7.55,1.23-2.49,2.75-5.6,2.73-6.96,0-.59.19-1.17.57-1.63l5.79-7.05c-7.9,3.17-15.69,2.65-24.03.51-3.71-.95-6.56-1.63-9.33-1.73Z"/><path class="cls-3" d="m285.39,288.96c-.46,0-.92-.13-1.34-.39-1.16-.74-1.51-2.29-.77-3.45,4.47-7.02-8.3-17.84-15.16-23.65-1.08-.91-2.05-1.73-2.84-2.45-1.03-.92-1.12-2.5-.2-3.53.92-1.03,2.5-1.12,3.53-.2.77.69,1.71,1.48,2.75,2.36,8.59,7.27,22.96,19.45,16.15,30.15-.48.75-1.29,1.16-2.11,1.16Z"/><path class="cls-3" d="m276.71,266.17s-.04,0-.07,0c-1.38-.04-2.47-1.18-2.43-2.56.27-10.15-3.29-18.53-11.2-26.38-.98-.97-.99-2.56-.01-3.54.97-.98,2.56-.99,3.54-.01,8.83,8.76,12.98,18.6,12.68,30.06-.04,1.36-1.15,2.43-2.5,2.43Z"/><path class="cls-2" d="m298.53,529.08c-.48,0-.96-.14-1.38-.42-1.15-.77-1.46-2.32-.7-3.47,4.45-6.68,16.47-5.97,28.1-5.27,6.38.38,12.4.74,16.16-.19,25.1-6.2,23.98-28.26,22.79-51.62-.33-6.45-.66-13.12-.37-19.28.68-14.3,4.4-28.59,7.38-40.07,1.37-5.27,3.71-10.37,5.97-15.3,3-6.54,5.83-12.71,6.58-19.19.16-1.37,1.4-2.37,2.77-2.2,1.37.16,2.36,1.4,2.2,2.77-.84,7.26-3.97,14.09-7,20.7-2.27,4.95-4.42,9.63-5.68,14.47-2.93,11.25-6.58,25.26-7.23,39.04-.28,5.91.04,12.17.37,18.79,1.18,23.22,2.51,49.55-26.59,56.73-4.5,1.11-10.89.73-17.66.33-9.26-.55-20.78-1.24-23.64,3.05-.48.72-1.28,1.11-2.08,1.11Z"/><path class="cls-3" d="m300.44,93.5c7.51-16.26,37.41-14.42,51.5-11.62,15.33,3.05,32.29,11.36,46.14,25.19-8.84-5.83-21.22-10.52-31.79-12.82s-22.38-3.28-33.23-2.07c-15.02,1.67-24.25,4.05-34.55,15.06-.87-6.1.39-12.01,3.19-16.88"/><path class="cls-3" d="m298.5,109.75c-.25,0-.5-.04-.75-.12-.92-.29-1.59-1.08-1.72-2.03-.91-6.41.33-12.97,3.5-18.48.35-.61.91-1.01,1.54-1.17,10.72-12.5,36.54-11.46,51.36-8.51,17.32,3.44,34.16,12.63,47.42,25.88.91.91.98,2.35.17,3.35s-2.24,1.21-3.31.51c-8.01-5.28-19.87-10.06-30.95-12.47-11.21-2.44-22.42-3.14-32.42-2.03-15.16,1.69-23.52,4.15-33,14.29-.48.51-1.15.79-1.83.79Zm3.64-14.42c-.71,1.98-1.16,4.06-1.33,6.17,8.99-7.91,18-10.25,31.96-11.8,10.53-1.17,22.31-.44,34.04,2.11,3.98.87,8.06,2.02,12.04,3.4-8.67-5.25-18.08-9.02-27.41-10.88-13.94-2.77-42.08-4.21-48.74,10.21-.14.31-.34.57-.57.78Z"/><path class="cls-3" d="m298.23,75.25c42.59-35.88,106.97,1.65,133.84,39.38-26.39-20.69-58.12-42.78-93.07-42.45-21.16.2-31.45,9.04-45.5,23.46.21-7.21.91-23.38,10.08-24.72"/><path class="cls-3" d="m432.07,117.13c-.54,0-1.09-.18-1.54-.53-28.01-21.96-58.49-42.26-91.51-41.92-20.34.19-30.09,8.71-43.73,22.71-.72.74-1.82.96-2.77.56-.95-.4-1.55-1.35-1.52-2.38.21-6.95.75-25.39,12.17-27.11,13.03-8.51,28.24-11.72,45.35-9.55,35.45,4.49,69.21,31.28,85.59,54.27.72,1.01.59,2.4-.31,3.26-.48.46-1.1.69-1.73.69Zm-92.29-47.45c26.78,0,51.61,12.62,74.8,28.8-17.32-16.51-41.59-31.43-66.69-34.61-18.62-2.36-34.78,2.11-48.05,13.29-.23.2-.49.34-.76.44-1.61,3.21-2.36,7.72-2.72,11.62,12.06-11.83,22.88-19.35,42.62-19.54.27,0,.54,0,.81,0Z"/><path class="cls-6" d="m523.09,67.37c3.84-1.06,8.52-4.31,11.26-7.05,2.05-2.05,4.43-4.8,5.47-7.57.45-1.22.28-2.53.87-3.72-.69,8.67-3.02,18.6-6.6,26.5-1.4,3.1-3.31,5.74-5.65,8.15-1.06,1.09-2.6,2.08-2.57,3.6,5.38,0,12.62-7.15,14.51-12.03-.56,7.25-2.21,16.82-8.5,21.16-5.22,3.61-13.5,4.85-19.8,5.84,2.49,4.71,10.64,3.95,13.29,8.53-6.24,2.84-13.18.13-19.45,1.83,3.06,5.3,8.85,9.32,9.09,16.02-3.04-1.56-5.47-5.78-8.62-7.84-1.94-1.27-4.18-2.32-6.19-3.37,2.06,5.85,6.16,13.16,1.74,19.03l.28-.22c-9.28-10.36-12.76-16.91-26.05-22.14,7.85,9.11,18.27,25.6,17.95,37.91-13.34-11.85-22.88-27.71-38-37.96-11.24-7.62-29.32-14.44-34.44-27.89,6.77,7.67,16.64,12.73,26.6,8.92,16.61-6.36,34.85-15.94,43.45-32.29,1.3,9.71.7,23.72-6.75,31.18,6.86-7.36,12.88-14.43,18.64-23.18,4.24-6.43,7.66-13.32,10.05-20.64,1.08-3.31,1.64-7.3,3.75-9.94,4.72,8.67,2.7,18.61,5.11,27.78"/><path class="cls-6" d="m494.12,153.52c-.36,0-.72-.13-1-.38-5.54-4.93-10.5-10.6-15.29-16.09-6.79-7.78-13.8-15.82-22.56-21.75-2.78-1.88-5.98-3.72-9.37-5.66-10.13-5.8-21.61-12.37-25.63-22.94-.26-.68,0-1.44.63-1.82.62-.38,1.42-.25,1.9.29,7.46,8.45,16.78,11.63,24.94,8.51,22.25-8.52,35.81-18.56,42.66-31.59.3-.58.95-.89,1.59-.78.64.11,1.14.63,1.22,1.28.47,3.47,1.31,12.49-.95,20.92,3.36-4.02,6.75-8.46,10.1-13.54,4.29-6.51,7.61-13.33,9.88-20.29.28-.85.52-1.75.78-2.7.73-2.72,1.49-5.53,3.23-7.71.31-.39.81-.61,1.3-.56.5.04.95.34,1.19.78,3.01,5.52,3.42,11.49,3.82,17.26.2,2.95.41,5.98.98,8.9,3.4-1.2,7.37-4.02,9.74-6.39,2.65-2.64,4.37-5.01,5.12-7.03.15-.4.21-.87.28-1.37.1-.76.22-1.62.65-2.49.32-.65,1.05-.97,1.74-.79.69.19,1.15.85,1.1,1.56-.73,9.21-3.24,19.31-6.73,27-1.4,3.09-3.34,5.9-5.94,8.58l-.02.02c3.9-1.99,8.1-6.47,9.48-10.03.27-.7,1-1.09,1.73-.92.73.17,1.22.84,1.16,1.58-.87,11.34-3.86,18.63-9.14,22.28-4.76,3.29-11.64,4.67-17.68,5.66,1.16.78,2.66,1.33,4.23,1.89,2.86,1.04,5.81,2.1,7.39,4.83.21.37.26.81.13,1.21s-.42.73-.81.91c-3.8,1.73-7.73,1.58-11.53,1.43-2.11-.08-4.13-.16-6.07.08.7.98,1.48,1.94,2.29,2.93,2.78,3.43,5.65,6.97,5.83,11.98.02.53-.25,1.03-.7,1.32-.45.29-1.02.31-1.49.07-1.85-.95-3.42-2.67-4.94-4.33-1.23-1.34-2.49-2.72-3.81-3.59-.81-.53-1.68-1.02-2.57-1.49,1.92,4.95,3.95,10.86.69,16.01-.08.33-.26.64-.54.85l-.28.22c-.59.46-1.44.42-1.98-.11-.29-.28-.44-.66-.45-1.04-1.5-1.7-2.83-3.27-4.13-4.79-4.92-5.8-8.51-10.03-15.02-13.58,6.7,9,14.62,22.75,14.33,33.94-.01.58-.37,1.1-.9,1.34-.19.08-.39.12-.6.12Zm-65.29-59.33c5.05,5.12,12.1,9.15,18.57,12.85,3.44,1.97,6.69,3.83,9.56,5.78,9.07,6.15,16.22,14.34,23.13,22.26,3.93,4.5,7.96,9.12,12.31,13.31-1.42-10.65-9.61-24.29-17.38-33.3-.45-.52-.49-1.29-.09-1.85.4-.56,1.13-.78,1.77-.53,11.12,4.37,15.63,9.69,21.88,17.05,1.04,1.23,2.11,2.48,3.26,3.8,1.49-3.88-.27-8.38-1.98-12.75-.39-.99-.76-1.96-1.09-2.89-.2-.58-.03-1.23.43-1.63s1.13-.48,1.68-.19c.49.26.99.51,1.5.77,1.61.82,3.28,1.67,4.81,2.67,1.63,1.07,3.03,2.6,4.38,4.07.32.35.63.69.95,1.03-.97-2.18-2.55-4.13-4.19-6.15-1.31-1.62-2.67-3.29-3.73-5.12-.23-.4-.27-.89-.09-1.32.18-.43.54-.75,1-.88,2.99-.81,6.07-.69,9.05-.58,2.87.11,5.61.21,8.2-.47-1.19-.89-2.82-1.49-4.52-2.1-2.8-1.01-5.97-2.16-7.51-5.06-.23-.43-.23-.94-.02-1.37s.63-.74,1.11-.81l.37-.06c6.23-.98,13.98-2.2,18.81-5.54,3.49-2.41,5.82-6.91,7.06-13.67-3.33,3.82-8.1,7.27-12.21,7.27h0c-.82,0-1.48-.65-1.5-1.47-.04-1.87,1.27-3.07,2.31-4.04.23-.21.46-.42.67-.64,2.35-2.42,4.1-4.95,5.36-7.73,2.13-4.7,3.88-10.33,5.05-16.1-.69.83-1.48,1.68-2.36,2.56-2.68,2.68-7.38,6.06-11.55,7.32-.19.35-.52.62-.94.73-.8.21-1.62-.27-1.83-1.07-.99-3.77-1.26-7.65-1.52-11.41-.33-4.74-.64-9.27-2.29-13.5-.56,1.33-.96,2.83-1.36,4.3-.25.95-.52,1.93-.82,2.85-2.35,7.21-5.79,14.27-10.23,21-5.98,9.08-12.09,16.13-17.86,22.37-.31.36-.63.71-.97,1.05-.58.58-1.51.59-2.1.02-.59-.57-.61-1.5-.06-2.1.29-.31.57-.61.86-.92,5.07-5.89,6.43-15.76,5.94-24.5-7.75,11.77-21.2,21.05-41.86,28.96-6.47,2.48-13.51,1.59-19.99-2.3Z"/><path class="cls-4" d="m368.23,208.25c0,9.39,9.61,11,19,11,9.39,0,19-6.61,19-16,0-9.39-9.61-16-19-16-9.39,0-19,11.61-19,21Z"/><path class="cls-2" d="m387.23,221.75c-5.32,0-21.5,0-21.5-13.5,0-10.26,10.43-23.5,21.5-23.5,10.38,0,21.5,7.43,21.5,18.5s-11.12,18.5-21.5,18.5Zm0-32c-7.56,0-16.5,10.03-16.5,18.5,0,5.96,4.93,8.5,16.5,8.5,9.87,0,16.5-6.98,16.5-13.5s-6.63-13.5-16.5-13.5Z"/><path class="cls-3" d="m304.5,117.25c-2.27,7.82,2.63,8.88,8.58,13.19,5.56,4.03,10.07,8.18,12.02,15.13,2.1,7.46.03,15.87,2.9,23.09,2.43,6.12,9.66,13.09,15.34,16.26-5.15-5.99-9.11-15.27-11.1-22.99-1.37-5.32-1.95-9.33-.76-14.73.94-4.25,2.71-8.55,2.93-12.86.42-8.27-5.75-14.7-13.87-14.76-5.37-.04-13.4,3.13-16.45-3.47"/><path class="cls-3" d="m343.34,187.43c-.42,0-.83-.1-1.22-.32-5.91-3.3-13.68-10.56-16.45-17.52-1.72-4.33-1.83-8.9-1.94-13.32-.09-3.55-.17-6.91-1.04-10.02-1.7-6.02-5.5-9.74-11.08-13.78-1.04-.76-2.06-1.41-3.04-2.04-4.21-2.71-8.56-5.52-6.68-13.1-.02-.05-.05-.1-.07-.15-.58-1.25-.04-2.74,1.22-3.32,1.25-.58,2.74-.03,3.32,1.22,1.4,3.03,4.15,3.04,9.66,2.38,1.52-.18,3.09-.36,4.54-.36,4.64.04,8.88,1.85,11.95,5.1,3.07,3.26,4.64,7.62,4.4,12.29-.16,3.11-1.02,6.11-1.85,9-.42,1.48-.83,2.88-1.13,4.27-1.07,4.86-.59,8.38.74,13.57,1.72,6.68,5.39,15.96,10.57,21.98.79.92.81,2.27.04,3.21-.49.6-1.21.92-1.94.92Zm-14.56-29.66c.11,3.56.34,6.93,1.54,9.97.65,1.63,1.69,3.34,2.97,5.02-1.52-3.59-2.69-7.15-3.47-10.2-.43-1.69-.79-3.26-1.05-4.79Zm-22.18-35.83c.5,1.59,2.06,2.59,4.69,4.29.99.64,2.11,1.36,3.26,2.19,6.28,4.54,10.88,9.08,12.96,16.48.5,1.79.79,3.61.96,5.43.11-1.17.3-2.37.58-3.65.34-1.54.78-3.08,1.21-4.57.79-2.75,1.54-5.34,1.66-7.88.17-3.29-.91-6.35-3.04-8.6-2.13-2.25-5.09-3.51-8.36-3.53-1.11-.01-2.47.15-3.9.33-3.08.37-6.86.83-10.02-.48Z"/><path class="cls-3" d="m297.5,129.25c8.14,1.47,12.41,17.74,13.42,24.54,1.13,7.64.95,15.72,5.94,22.1,4.23,5.42,10.25,8.55,13.32,15.22,3.77,8.19-.27,14.38-.2,22.45-1.88-4.48-2.32-10.07-4.23-14.77-2.09-5.11-5.49-10.39-9.07-14.57-6.04-7.06-17.71-10.6-19.17-20.98-1.46,10.38-12.4,13.92-18.45,20.98-3.58,4.18-6.99,9.46-9.07,14.57-1.91,4.69-2.36,10.29-4.23,14.77.06-8.07-3.98-14.27-.2-22.45,3.07-6.67,9.09-9.81,13.32-15.22,4.99-6.39,4.81-14.47,5.94-22.1,1.01-6.81,3.55-23.08,11.7-24.54"/><path class="cls-3" d="m329.98,216.08c-.99,0-1.91-.59-2.3-1.53-1.02-2.44-1.64-5.13-2.24-7.74-.55-2.41-1.13-4.9-2-7.05-1.87-4.59-5.03-9.65-8.66-13.89-1.91-2.23-4.51-4.13-7.26-6.13-3.57-2.6-7.46-5.44-9.98-9.38-2.44,3.98-6.21,6.85-9.67,9.48-2.59,1.97-5.03,3.83-6.92,6.03-3.63,4.24-6.79,9.31-8.66,13.89-.88,2.15-1.45,4.64-2,7.05-.6,2.6-1.22,5.29-2.24,7.74-.46,1.1-1.63,1.72-2.81,1.48-1.17-.24-2.01-1.27-2-2.47.02-2.6-.43-4.99-.9-7.53-.91-4.88-1.85-9.93.92-15.96,2.1-4.55,5.34-7.54,8.47-10.43,1.87-1.73,3.64-3.36,5.15-5.29,3.54-4.53,4.17-10.18,4.84-16.15.18-1.57.36-3.19.59-4.78,1.72-11.56,4.83-25.03,13.73-26.64.32-.06.64-.05.94,0,.3-.06.62-.07.94,0,11.68,2.1,15.31,25.64,15.45,26.64.24,1.6.42,3.22.59,4.78.67,5.97,1.3,11.62,4.84,16.15,1.51,1.93,3.28,3.56,5.15,5.29,3.13,2.89,6.38,5.88,8.47,10.43,2.78,6.03,1.84,11.07.92,15.96-.47,2.53-.92,4.92-.9,7.53,0,1.19-.83,2.23-2,2.47-.17.03-.34.05-.5.05Zm-32.98-84.38s-.04,0-.06.01c-4.32.78-7.57,8.33-9.67,22.45-.22,1.51-.4,3.08-.57,4.6-.72,6.4-1.46,13.02-5.87,18.67-1.76,2.25-3.76,4.1-5.7,5.88-2.9,2.68-5.64,5.2-7.32,8.85-1.45,3.14-1.56,5.94-1.22,8.84.31-1.06.66-2.12,1.08-3.14,2.06-5.06,5.52-10.62,9.49-15.25,2.23-2.61,5-4.72,7.69-6.76,4.81-3.66,9.36-7.12,10.18-12.95.17-1.23,1.23-2.15,2.48-2.15s2.3.92,2.48,2.15c.8,5.72,5.51,9.15,10.49,12.79,2.86,2.09,5.82,4.24,8.11,6.92,3.96,4.63,7.42,10.19,9.49,15.26.42,1.03.77,2.08,1.08,3.14.34-2.9.22-5.7-1.22-8.84-1.68-3.64-4.42-6.17-7.32-8.85-1.94-1.79-3.94-3.63-5.7-5.88-4.41-5.65-5.15-12.27-5.87-18.67-.17-1.52-.35-3.1-.57-4.6-1.29-8.7-5.68-21.42-11.4-22.45-.02,0-.04,0-.06-.01Z"/><path class="cls-3" d="m312.82,240.3c-.39,0-.77-.09-1.13-.27-.83-.42-1.35-1.26-1.37-2.18-.11-5.85,2.51-10.77,7.35-13.85,4.14-2.63,9.61-3.63,14.76-2.92,1.76.01,3.34.4,4.69,1.16.63.24,1.25.5,1.85.8,1.24.61,1.75,2.11,1.14,3.35-.17.35-.42.64-.71.87-.11.13-.23.26-.37.38-1.06.89-2.63.75-3.52-.31-.18-.21-.38-.39-.59-.55-.95-.32-1.94-.55-2.95-.71-2.91.16-6.3,1.98-7.2,2.49-2.12,1.21-3.59,3.25-5.14,5.4-1.52,2.1-3.08,4.27-5.38,5.9-.43.3-.93.46-1.44.46Z"/><path class="cls-1" d="m299.5,500.25c-.47-.15-.98-.26-1.5-.34-.52.08-1.03.19-1.5.34h3Z"/><path class="cls-1" d="m299.5,501.75h-3c-.74,0-1.37-.54-1.48-1.27-.12-.73.32-1.43,1.02-1.66.49-.16,1.04-.28,1.72-.39.16-.03.32-.03.47,0,.69.11,1.24.24,1.73.39.7.23,1.13.93,1.02,1.66s-.74,1.26-1.48,1.26Z"/><path class="cls-1" d="m349.57,426.47c-1.32-12.32-8.99-17.9-20.76-19.1-9.69-.99-24.28,1.35-30.31,9.88-6.03-8.53-21.89-10.87-31.58-9.88-11.77,1.2-19.44,6.78-20.76,19.1-1.2,11.18,4.12,20.99,7.78,31.17,3.37,9.34,6.8,18.67,10.63,27.83,3.26,7.81,6.05,14.88,15.58,15.44,4.81.28,12.68-1.82,17.84-1,5.12-.82,12.77,1.28,17.58,1,3.76-.22,8.27-1.62,10.65-4.69,1.4-1.81,2.25-3.97,3.09-6.1,4.47-11.4,8.81-22.86,13.35-34.23,3.73-9.34,8-19.12,6.9-29.42Z"/><path class="cls-1" d="m314.62,502.43c-2.01,0-4.31-.29-6.73-.59-3.44-.43-6.99-.88-9.66-.45-.16.03-.32.03-.47,0-2.7-.43-6.34.02-9.86.45-2.88.36-5.6.7-7.84.56-10.29-.6-13.4-8.05-16.7-15.94l-.17-.42c-3.65-8.72-6.9-17.46-10.66-27.9-.73-2.04-1.55-4.11-2.34-6.11-3.2-8.09-6.51-16.45-5.52-25.73,1.3-12.2,8.74-19.07,22.09-20.43,8.69-.89,24.4.86,31.74,8.99,5.1-5.58,16.19-10.44,30.46-8.99,13.35,1.36,20.79,8.24,22.09,20.43h0c1.07,10.04-2.68,19.38-6.31,28.41l-.69,1.72c-2.8,7.02-5.58,14.2-8.27,21.14-1.69,4.36-3.38,8.73-5.08,13.08-.82,2.1-1.75,4.48-3.3,6.47-3.46,4.45-9.86,5.15-11.75,5.26-.34.02-.69.03-1.04.03Zm-13.89-4.21c2.39,0,5,.33,7.54.65,2.7.34,5.25.66,7.22.54,3.22-.19,7.42-1.37,9.55-4.11,1.28-1.65,2.09-3.72,2.88-5.72,1.7-4.35,3.39-8.71,5.08-13.07,2.69-6.95,5.47-14.13,8.28-21.17l.69-1.73c3.49-8.69,7.1-17.68,6.11-26.98h0c-1.15-10.74-7.5-16.55-19.42-17.77-8.4-.86-23.03.9-28.93,9.26-.56.8-1.89.8-2.45,0-5.61-7.94-21.04-10.19-30.21-9.26-11.92,1.21-18.27,7.03-19.42,17.77-.91,8.55,2.12,16.2,5.32,24.31.8,2.02,1.63,4.11,2.38,6.19,3.75,10.4,6.98,19.09,10.6,27.76l.17.42c3.18,7.6,5.69,13.61,14.11,14.1,1.97.11,4.56-.21,7.3-.54,3.63-.45,7.38-.91,10.46-.47.87-.12,1.78-.18,2.73-.18Z"/><path class="cls-6" d="m338.36,382.39c1.41,1.73.43,7.93,0,10.59-.45,2.83-1.2,5.83-2.23,8.54-3.79-.51-10.58-6.81-9.05-10.06,1.34-2.84,7.31-8.6,10.73-8.57"/><path class="cls-6" d="m336.13,403.02c-.07,0-.13,0-.2-.01-3.18-.43-7.8-4-9.69-7.48-1.21-2.23-.94-3.79-.51-4.7,1.44-3.05,7.33-8.87,11.48-9.39.06-.07.13-.14.21-.2.64-.53,1.59-.43,2.11.21,1.62,1.99,1.11,6.83.32,11.77-.5,3.14-1.3,6.2-2.31,8.84-.22.59-.79.96-1.4.96Zm1.4-18.61c-2.67.31-7.92,5.22-9.09,7.7-.19.4-.03,1.14.43,1.99,1.27,2.35,4.21,4.72,6.32,5.6.72-2.14,1.3-4.52,1.69-6.96.76-4.77.8-7.14.65-8.33Z"/><path class="cls-6" d="m323.05,393.23c-.13-.14-.48-.34-.27-.29.09,2.87-1.36,7.93-4.7,8.77-2.53-1.12-6.35-6.26-4.77-7.98,1.7-1.85,7.54-2.79,9.74-2.01"/><path class="cls-6" d="m318.09,403.21c-.21,0-.42-.04-.61-.13-2.45-1.08-5.39-4.72-5.93-7.34-.32-1.55.18-2.5.67-3.03,2.1-2.29,8.56-3.39,11.34-2.42.78.27,1.19,1.13.92,1.91-.03.09-.07.18-.12.26.3.52.27,1.18-.1,1.67-.28,3.49-2.09,8.09-5.8,9.03-.12.03-.24.04-.37.04Zm2.88-10.28c-2.25,0-5.58.76-6.55,1.81-.25.8,1.84,4.1,3.79,5.33,1.91-.94,3.04-4.36,3.08-6.74-.04-.14-.06-.27-.06-.4-.08,0-.17,0-.26,0Z"/><path class="cls-6" d="m309.66,393.98c.14,2.35-1.24,4.78-2.52,6.75-.98,1.51-1.35,2.49-3.01,2.07-1.5-.37-3.01-2.77-3.77-3.89-1.5-2.19-2.39-3.96.82-5.26,1.97-.8,6.3-1.28,7.93-.18"/><path class="cls-6" d="m304.84,404.4c-.32,0-.68-.04-1.07-.14-1.79-.45-3.19-2.34-4.47-4.23l-.18-.27c-1.02-1.5-1.98-3.11-1.48-4.77.35-1.17,1.33-2.06,2.98-2.73,2.05-.83,7.06-1.57,9.34-.03.17.12.31.26.42.43.44.24.75.69.78,1.23.17,2.76-1.3,5.42-2.76,7.66l-.31.49c-.68,1.07-1.49,2.37-3.25,2.37Zm1.19-10.07c-1.43,0-3.16.25-4.29.71-.89.36-1.19.68-1.23.81-.09.29.28,1.03,1.08,2.21l.19.28c.47.69,1.88,2.79,2.71,3,.28.07.37.05.37.05.12-.08.45-.59.68-.96l.33-.52c1.01-1.55,2.14-3.5,2.27-5.26-.43-.22-1.21-.32-2.12-.32Z"/><path class="cls-6" d="m245.5,474.25c-2.26,5.53.02,16.84,1.64,22.6,1.11,3.95,4.85,15.15,9.79,15.7,4.59.51,7.5-7.69,8.15-11.18,1.46-7.89-6.19-10.75-11.32-14.66-3.53-2.69-4.16-12.88-8.35-12.96"/><path class="cls-6" d="m257.35,514.07c-.19,0-.39-.01-.59-.03-5.9-.66-9.7-11.96-11.06-16.79-.75-2.66-4.29-16.07-1.75-23.16-.03-.12-.04-.25-.04-.38.02-.82.68-1.47,1.5-1.47h.03c3.37.07,4.82,3.88,6.21,7.57.85,2.24,1.81,4.78,3.01,5.7.97.74,2.03,1.44,3.15,2.18,4.73,3.11,10.09,6.63,8.73,13.95-.62,3.32-3.59,12.43-9.2,12.43Zm-10.83-38.11c-1.38,5.39.59,15.21,2.07,20.48,1.91,6.8,5.39,14.27,8.51,14.62,3.03.34,5.81-6.21,6.51-9.96.99-5.36-2.91-7.92-7.43-10.9-1.12-.73-2.27-1.49-3.32-2.3-1.89-1.44-2.96-4.28-4-7.02-.67-1.77-1.46-3.84-2.33-4.91Z"/><path class="cls-6" d="m270.8,505.64c-2.6.67-1.75,13.93,4.73,11.44s-.29-12.78-4.03-11.82"/><path class="cls-6" d="m273.99,518.88c-1.17,0-2.25-.41-3.16-1.21-2.75-2.41-3.3-7.82-2.63-10.65.48-2,1.48-2.65,2.23-2.85,0,0,.02,0,.03,0,.18-.18.41-.31.68-.38,3.09-.8,6.81,2.99,8.07,6.9,1.15,3.61-.04,6.59-3.12,7.78-.71.27-1.41.41-2.08.41Zm-2.63-11.85c-.62.89-.74,5.37.9,7.76.74,1.07,1.55,1.34,2.74.88,1.56-.6,2.01-1.97,1.34-4.07-.92-2.88-3.43-5.17-4.46-4.9,0,0-.02,0-.03,0-.14.13-.3.24-.49.32Z"/><path class="cls-6" d="m281.42,504.91c-.42,2.11-.38,14.62,5.26,9.27,2.43-2.31-2.05-9.95-5.18-9.93"/><path class="cls-6" d="m284.22,517c-.59,0-1.1-.17-1.5-.39-3.64-2.01-2.96-11.03-2.77-12,.01-.07.03-.14.06-.21,0-.05,0-.1,0-.15,0-.83.66-1.5,1.49-1.51h.02c2.68,0,5.43,3.25,6.66,6.31,1.07,2.66.9,4.92-.46,6.21-1.38,1.31-2.55,1.73-3.49,1.73Zm-1.48-10.62c-.25,3.21.75,7.22,1.43,7.6.11.06.63-.08,1.48-.89.33-.31.35-1.41-.26-2.91-.67-1.67-1.75-3.04-2.65-3.79Z"/><path class="cls-6" d="m293.5,504.25c-.66,1.21-5.18,11.59.17,9.32,2.4-1.02.59-7.5-.17-9.32"/><path class="cls-6" d="m292.35,515.39c-.95,0-1.57-.41-1.97-.84-2.48-2.73,1.76-10.94,1.8-11.02.28-.51.8-.79,1.39-.78.58.03,1.08.39,1.31.92.04.09,3.72,9.43-.63,11.28-.75.32-1.38.44-1.91.44Zm.3-2.79h0,0Zm.57-3.64c-.44,1.4-.74,2.74-.64,3.4.12-.03.28-.08.5-.17.37-.28.39-1.63.15-3.23Z"/><path class="cls-6" d="m350.5,474.25c2.26,5.53-.29,16.84-1.91,22.6-1.11,3.95-4.85,15.15-9.79,15.7-4.59.51-7.5-7.69-8.15-11.18-1.46-7.89,6.19-10.75,11.32-14.66,3.53-2.69,4.16-12.88,8.35-12.96"/><path class="cls-6" d="m338.38,514.07c-5.61,0-8.59-9.12-9.2-12.43-1.36-7.31,4-10.84,8.73-13.95,1.12-.74,2.18-1.44,3.15-2.18,1.2-.92,2.17-3.46,3.01-5.7,1.4-3.69,2.84-7.5,6.21-7.57.77-.04,1.39.53,1.51,1.25.03.06.06.12.09.19,2.55,6.25-.45,18.57-1.86,23.57-1.36,4.83-5.16,16.13-11.06,16.79-.2.02-.4.03-.59.03Zm11.04-38.34c-.96.98-1.82,3.24-2.54,5.15-1.04,2.75-2.12,5.59-4,7.02-1.05.8-2.21,1.56-3.32,2.3-4.52,2.97-8.43,5.54-7.43,10.9.7,3.76,3.45,10.31,6.51,9.96,3.11-.35,6.59-7.82,8.51-14.62.98-3.48,3.91-14.83,2.28-20.71Z"/><path class="cls-6" d="m324.5,505.25c2.68.67,2.2,14.32-4.48,11.82s.65-12.76,4.49-11.8"/><path class="cls-6" d="m321.57,518.87c-.67,0-1.36-.13-2.07-.4-3.03-1.14-4.25-3.97-3.19-7.4,1.21-3.89,4.99-7.8,8.22-7.32.11,0,.22.02.33.04.78.19,1.82.87,2.34,3,.73,2.98.29,8.41-2.46,10.86-.91.81-2,1.22-3.18,1.22Zm2.39-12.17c-1.25,0-3.89,2.38-4.79,5.26-.89,2.86.82,3.5,1.38,3.71,1.22.46,2.04.18,2.76-.93,1.62-2.5,1.36-7.03.7-8.03-.02,0-.03,0-.05,0Z"/><path class="cls-6" d="m312.5,504.25c3,1,1.86,15.28-3.94,9.93-2.5-2.31.72-9.95,3.94-9.93"/><path class="cls-6" d="m310.94,516.88c-.93,0-2.08-.39-3.4-1.6-1.9-1.75-1.55-4.96-.6-7.38.94-2.38,2.95-5.16,5.54-5.16.17,0,.33.02.49.08,1.51.5,2.43,2.33,2.6,5.14.2,3.31-.71,7.41-3.18,8.59-.4.19-.89.33-1.46.33Zm1.16-11.03c-.72.34-1.72,1.52-2.36,3.16-.79,2.01-.67,3.6-.16,4.07.75.69,1.26.86,1.48.78.34-.11.98-.93,1.33-2.71.46-2.37.11-4.55-.29-5.3Z"/><path class="cls-6" d="m302.66,503.82c.68,1.21,4.2,12.01-1.29,9.74-2.47-1.02.35-7.5,1.13-9.32"/><path class="cls-6" d="m302.7,515.38c-.54,0-1.17-.12-1.9-.42-.74-.31-1.3-.88-1.61-1.66-.95-2.35.52-6.36,1.92-9.6.03-.07.06-.13.1-.19.09-.41.34-.77.73-.99.72-.4,1.63-.15,2.03.57.04.08,3.61,8.34.96,11.32-.37.42-1.08.97-2.23.97Zm-.15-7.1c-1.05,3.2-.59,3.9-.57,3.93.45.17.71.18.77.16.21-.26.17-2.11-.2-4.09Z"/><path class="cls-3" d="m310.35,288.96c-.83,0-1.63-.41-2.11-1.16-6.81-10.7,7.56-22.88,16.15-30.15,1.04-.88,1.98-1.68,2.75-2.36,1.03-.92,2.61-.83,3.53.2.92,1.03.83,2.61-.2,3.53-.8.71-1.77,1.53-2.84,2.45-6.86,5.81-19.63,16.63-15.16,23.65.74,1.17.4,2.71-.77,3.45-.42.26-.88.39-1.34.39Z"/><path class="cls-3" d="m319.02,266.17c-1.34,0-2.45-1.07-2.5-2.42-.37-11.41,3.78-21.25,12.68-30.08.98-.97,2.56-.97,3.54.01.97.98.97,2.56-.01,3.54-7.86,7.8-11.52,16.42-11.2,26.37.04,1.38-1.04,2.53-2.42,2.58-.03,0-.05,0-.08,0Z"/><path class="cls-2" d="m381.93,195.03c5.55-10.07,14.91,2.33,10.1,9.54-8,12.01-14.77-9.12-7.3-12.34"/><path class="cls-2" d="m387.16,210.73c-.54,0-1.03-.08-1.48-.19-4.08-1.07-6.29-6.25-6.63-10.61-.13-1.72,0-3.31.39-4.7-.04-.47.06-.96.3-1.41,2.45-4.45,5.55-5.13,7.19-5.08,2.91.02,5.68,1.99,7.42,5.25,1.66,3.13,2.47,7.91-.23,11.96-2.5,3.76-4.99,4.78-6.96,4.78Zm-.44-16.99c-.25.33-.59.6-.99.77-1.48.64-1.83,3.11-1.69,5.03.26,3.41,1.87,5.88,2.91,6.16.52.14,1.63-.44,3.01-2.52,1.48-2.22.91-5.08-.03-6.85-.82-1.54-2.04-2.59-3.04-2.6-.07,0-.12,0-.17,0Z"/><circle class="cls-6" cx="386.5" cy="197.24" r="1.75"/><path class="cls-6" d="m386.51,200.74c-1.42,0-2.77-.87-3.29-2.29-.32-.88-.29-1.83.1-2.68.39-.85,1.09-1.5,1.97-1.82.88-.32,1.83-.29,2.68.1.85.39,1.5,1.09,1.82,1.96.67,1.81-.26,3.83-2.07,4.5,0,0,0,0,0,0-.4.15-.81.22-1.21.22Zm.6-1.86h0,0Z"/><path class="cls-4" d="m227.5,208.25c0,9.39-9.61,11-19,11s-19-6.61-19-16,9.61-16,19-16,19,11.61,19,21Z"/><path class="cls-2" d="m208.5,221.75c-10.38,0-21.5-7.43-21.5-18.5s11.12-18.5,21.5-18.5c11.07,0,21.5,13.24,21.5,23.5,0,13.5-16.18,13.5-21.5,13.5Zm0-32c-9.87,0-16.5,6.98-16.5,13.5s6.63,13.5,16.5,13.5c11.57,0,16.5-2.54,16.5-8.5,0-8.47-8.94-18.5-16.5-18.5Z"/><path class="cls-2" d="m213.8,195.03c-5.55-10.07-14.91,2.33-10.1,9.54,8,12.01,14.77-9.12,7.3-12.34"/><path class="cls-2" d="m208.57,210.73c-1.97,0-4.46-1.02-6.96-4.78-2.7-4.05-1.89-8.83-.23-11.96,1.73-3.26,4.5-5.23,7.42-5.25.02,0,.03,0,.05,0,1.64,0,4.71.67,7.14,5.08.25.45.34.94.3,1.41.38,1.39.52,2.97.39,4.7-.33,4.36-2.55,9.55-6.63,10.61-.45.12-.95.19-1.48.19Zm.28-17h-.01c-1,0-2.22,1.05-3.04,2.6-.94,1.77-1.51,4.62-.03,6.85,1.39,2.08,2.5,2.66,3.01,2.52,1.04-.27,2.65-2.74,2.91-6.16.15-1.92-.21-4.39-1.69-5.03-.41-.17-.74-.45-.99-.77-.05,0-.11,0-.16,0Z"/><circle class="cls-6" cx="207.25" cy="198" r="1.75"/><path class="cls-6" d="m207.25,201.5c-.5,0-.99-.11-1.46-.32-.85-.39-1.5-1.09-1.82-1.97-.32-.88-.29-1.83.1-2.68.39-.85,1.09-1.5,1.96-1.82.88-.33,1.83-.29,2.68.1.85.39,1.5,1.09,1.82,1.96.67,1.81-.26,3.83-2.07,4.5h0c-.4.15-.81.22-1.22.22Zm.61-1.86h0,0Z"/><path class="cls-7" d="m259.99,326.78c2.04,2.93,5.93,5.12,8.51,7.8,2.96,3.07,6.6,8.49,7.8,12.41"/><path class="cls-2" d="m276.3,349.49c-1.07,0-2.06-.69-2.39-1.77-1.09-3.55-4.59-8.69-7.21-11.41-.94-.97-2.12-1.91-3.36-2.9-1.96-1.56-3.99-3.17-5.4-5.21-.79-1.13-.51-2.69.62-3.48,1.13-.79,2.69-.51,3.48.62,1,1.43,2.65,2.75,4.41,4.15,1.32,1.05,2.68,2.13,3.84,3.34,3.05,3.16,7.02,8.93,8.39,13.42.4,1.32-.34,2.72-1.66,3.12-.24.07-.49.11-.73.11Z"/><path class="cls-7" d="m252.57,317.88c-4.6-9.77-4.72-20.26-1.21-30.31-3.48,9.68-2.28,20.07,1.52,30.68"/><path class="cls-2" d="m252.87,320.75c-.83,0-1.61-.41-2.08-1.11-.2-.2-.36-.43-.49-.7-4.34-9.22-5.07-19.4-2.14-29.6.25-.88.52-1.76.83-2.62.47-1.29,1.89-1.97,3.19-1.51,1.3.46,1.98,1.88,1.53,3.18-.26.75-.5,1.51-.72,2.26-2.16,7.76-1.42,16.54,2.23,26.76.46,1.3-.21,2.73-1.51,3.2-.28.1-.56.15-.84.15Z"/><path class="cls-7" d="m297.87,340.25c0,4-.44,8.11.66,13.41s7.68,7.52,11.71,3.75c2.74-2.56,5.74-5.52,6.9-7.26,1.28-1.92,3.12-3.76,2.57-6.29-.13-.61-1.69-1.61-2.07-2.55-.53-1.31-.69-2.49-.72-3.87-.14-5.32,3.55-12.14,8.44-14.59,2.04-1.02,5.79-1.05,7.96-.33,3.99,1.32,2.31,2.54.38,5.66,4.59-2.46,8.28-6.57,8.76-12.04.84-9.61-10.8-18.21-19.87-14.05-3.99,1.83-5.91,5.57-10.26,7.13s-25.14,1.63-29.66,0-6.27-5.3-10.26-7.13c-9.07-4.16-20.71,4.44-19.87,14.05.48,5.47,4.17,9.57,8.76,12.04-1.93-3.12-3.6-4.34.38-5.66,2.17-.72,5.92-.69,7.96.33,4.9,2.45,8.58,9.27,8.44,14.59-.04,1.39-.2,2.56-.72,3.87-.38.94-1.94,1.94-2.07,2.55-.55,2.53,1.29,4.37,2.57,6.29,1.58,2.37,6.41,6.09,9.42,8.28,2.06,1.5,4.94,1.16,6.58-.79,3.97-4.7,4.01-12.39,4.01-17.39"/><path class="cls-2" d="m290.14,361.86c-1.51,0-3.03-.46-4.33-1.41-5.27-3.84-8.64-6.84-10.02-8.92-.21-.31-.44-.62-.66-.94-1.25-1.73-2.97-4.1-2.28-7.27.22-1.02.91-1.7,1.58-2.35.2-.2.53-.52.65-.68.34-.86.48-1.69.51-2.93.12-4.61-3.18-10.35-7.06-12.29-1.31-.66-4.36-.75-6.05-.19-.1.03-.19.06-.27.09.12.18.24.36.35.53.27.41.57.86.88,1.35.6.96.47,2.2-.3,3.03-.78.82-2.01,1.02-3,.49-5.89-3.16-9.56-8.27-10.06-14.02-.47-5.42,2.36-10.99,7.39-14.54,5.03-3.54,11.01-4.29,16.01-2,2.2,1.01,3.84,2.48,5.3,3.79,1.55,1.39,2.9,2.6,4.77,3.27,3.92,1.41,24.05,1.41,27.97,0,1.87-.67,3.21-1.88,4.77-3.27,1.45-1.3,3.1-2.78,5.3-3.78,5-2.29,10.98-1.54,16.01,2,5.03,3.55,7.86,9.12,7.39,14.54-.5,5.75-4.17,10.86-10.06,14.02-1,.54-2.23.33-3-.49-.77-.82-.9-2.07-.3-3.03.31-.49.6-.94.88-1.35.11-.16.23-.35.35-.53-.08-.03-.17-.06-.27-.09-1.69-.56-4.74-.46-6.05.19-3.88,1.94-7.18,7.68-7.06,12.29.03,1.24.18,2.07.51,2.93.12.16.44.48.65.68.67.65,1.36,1.33,1.58,2.35.69,3.17-1.02,5.54-2.28,7.27-.23.31-.45.62-.66.94-1.08,1.63-3.46,4.14-7.27,7.7-2.55,2.38-6.06,3.18-9.39,2.12-2.29-.73-4.15-2.22-5.32-4.2-.43.73-.92,1.43-1.47,2.09-1.44,1.71-3.53,2.6-5.63,2.6Zm-12.45-17.08c0,.76.52,1.56,1.48,2.89.27.37.53.73.77,1.1.99,1.49,4.29,4.35,8.81,7.65,1,.72,2.4.56,3.2-.38,2.45-2.91,3.15-7.5,3.34-11.49,0-.58.02-1.15.04-1.7.02-.87.04-1.73.04-2.58,0-1.38,1.12-2.5,2.5-2.5s2.5,1.12,2.5,2.5,0,2.86-.08,4.52c-.03,2.56.04,5.26.69,8.38.34,1.65,1.5,2.94,3.1,3.45,1.58.5,3.25.12,4.46-1.01,4.55-4.25,6.04-6.1,6.52-6.82.24-.37.51-.73.77-1.1.98-1.36,1.48-2.13,1.48-2.89-.07-.07-.15-.15-.23-.22-.61-.59-1.36-1.33-1.76-2.31-.74-1.83-.87-3.42-.9-4.74-.17-6.52,4.24-14.1,9.83-16.89,2.77-1.39,7.28-1.32,9.86-.46,1.14.38,2.45.93,3.29,1.93,1.31-1.59,2.35-3.62,2.57-6.15.32-3.65-1.71-7.49-5.29-10.01-3.56-2.51-7.68-3.08-11.04-1.54-1.51.69-2.74,1.79-4.04,2.96-1.7,1.52-3.62,3.25-6.41,4.25-5.13,1.85-26.23,1.85-31.36,0-2.79-1-4.71-2.73-6.41-4.25-1.3-1.17-2.54-2.27-4.04-2.96-3.36-1.54-7.49-.96-11.04,1.54-3.58,2.53-5.61,6.36-5.29,10.01.22,2.53,1.26,4.56,2.57,6.15.84-1,2.15-1.55,3.29-1.93,2.58-.86,7.09-.92,9.86.46,5.58,2.79,9.99,10.37,9.83,16.89-.03,1.32-.17,2.91-.9,4.74-.39.98-1.15,1.72-1.76,2.31-.08.08-.16.15-.23.22Z"/><path class="cls-7" d="m335.02,326.78c-2.04,2.93-5.93,5.12-8.51,7.8-2.96,3.07-6.6,8.49-7.8,12.41"/><path class="cls-2" d="m318.71,349.49c-.24,0-.49-.04-.73-.11-1.32-.4-2.06-1.8-1.66-3.12,1.37-4.48,5.35-10.26,8.39-13.42,1.17-1.21,2.53-2.29,3.84-3.34,1.76-1.4,3.42-2.72,4.41-4.15.79-1.13,2.35-1.41,3.48-.62,1.13.79,1.41,2.35.62,3.48-1.41,2.03-3.44,3.65-5.4,5.21-1.24.99-2.42,1.93-3.36,2.9-2.62,2.72-6.12,7.85-7.21,11.41-.33,1.08-1.32,1.77-2.39,1.77Z"/><path class="cls-7" d="m342.44,317.88c4.6-9.77,4.72-20.26,1.21-30.31,3.22,10.68,3.01,20.07-.78,30.68"/><path class="cls-2" d="m342.87,320.75c-.28,0-.56-.05-.84-.15-.39-.14-.73-.37-1-.66-1-.68-1.39-2-.86-3.13,1.08-2.29,1.9-4.65,2.47-7.06,1.38-7.1.9-13.85-1.39-21.46-.39-1.3.33-2.68,1.62-3.1,1.3-.42,2.69.27,3.13,1.55,2.88,8.27,3.36,16.58,1.44,24.43-.53,2.6-1.27,5.23-2.23,7.92-.37,1.02-1.33,1.66-2.35,1.66Z"/><ellipse class="cls-7" cx="324.92" cy="330.13" rx="10.41" ry="3.59" transform="translate(-138.27 326.45) rotate(-45)"/><path class="cls-2" d="m318.77,340.35c-1.11,0-2.1-.35-2.91-1.15h0c-1.03-1.03-1.89-3.04-.1-6.71,1.03-2.1,2.78-4.45,4.93-6.6,4.18-4.18,10.18-7.96,13.3-4.83s-.65,9.12-4.83,13.3c-3.1,3.1-7.21,5.98-10.39,5.98Zm11.29-15.36c-1.31.52-3.53,1.87-5.97,4.3-2.44,2.44-3.78,4.66-4.3,5.97,1.31-.52,3.53-1.87,5.97-4.3,2.44-2.44,3.78-4.66,4.3-5.97Z"/><ellipse class="cls-7" cx="268.92" cy="330.13" rx="3.59" ry="10.41" transform="translate(-154.67 286.85) rotate(-45)"/><path class="cls-2" d="m275.08,340.35c-3.19,0-7.29-2.88-10.39-5.98-4.18-4.18-7.96-10.17-4.83-13.3,3.12-3.13,9.12.64,13.3,4.83,2.15,2.15,3.9,4.49,4.93,6.6,1.79,3.67.94,5.67-.1,6.71h0c-.81.81-1.8,1.16-2.91,1.16Zm-11.29-15.36c.52,1.31,1.87,3.53,4.3,5.97,2.44,2.44,4.66,3.79,5.97,4.3-.52-1.31-1.87-3.53-4.3-5.97-2.44-2.44-4.66-3.78-5.97-4.3Z"/><circle class="cls-2" cx="239" cy="360.75" r="3"/><circle class="cls-2" cx="245" cy="346.75" r="3"/><circle class="cls-2" cx="215" cy="343.75" r="3"/><circle class="cls-2" cx="231" cy="337.75" r="3"/><circle class="cls-2" cx="237" cy="323.75" r="3"/><circle class="cls-2" cx="222" cy="322.75" r="3"/><circle class="cls-2" cx="260" cy="355.75" r="3"/><circle class="cls-2" cx="206" cy="333.75" r="3"/><circle class="cls-2" cx="219" cy="357.75" r="3"/><path class="cls-6" d="m344.5,382.25c11,47,11,55,12,59,0,0,4-8,9-63-7.67,1-13.33,3-21,4Z"/><path class="cls-6" d="m356.5,442.75c-.05,0-.11,0-.17,0-.62-.07-1.14-.52-1.29-1.13-.26-1.04-.44-2.24-.75-4.24-.95-6.24-2.93-19.21-11.26-54.79-.1-.41-.01-.85.23-1.2s.62-.58,1.04-.63c3.77-.49,7.12-1.25,10.37-1.98,3.31-.74,6.73-1.51,10.63-2.02.45-.06.91.09,1.23.41s.5.76.45,1.22c-4.97,54.65-8.98,63.2-9.15,63.54-.26.51-.78.83-1.34.83Zm-10.17-59.25c7.03,30.15,9.4,43.69,10.52,50.75,1.57-7.4,4.09-22.88,6.98-54.25-3.03.48-5.8,1.1-8.5,1.71-2.84.64-5.76,1.3-9,1.79Z"/><path class="cls-6" d="m250.5,382.25c-11,47-11,55-12,59,0,0-4-8-9-63,7.67,1,13.33,3,21,4Z"/><path class="cls-6" d="m238.5,442.75c-.56,0-1.08-.32-1.34-.83-.17-.34-4.18-8.88-9.15-63.54-.04-.45.13-.9.45-1.22s.78-.46,1.23-.41c3.9.51,7.33,1.28,10.64,2.02,3.24.73,6.6,1.48,10.36,1.98.42.05.8.29,1.04.63s.32.78.23,1.2c-8.33,35.58-10.31,48.55-11.26,54.79-.3,2-.49,3.2-.75,4.24-.15.61-.67,1.06-1.29,1.13-.06,0-.11,0-.17,0Zm-7.33-62.75c2.89,31.35,5.41,46.83,6.98,54.25,1.12-7.06,3.49-20.6,10.52-50.75-3.24-.5-6.16-1.15-9-1.79-2.7-.61-5.48-1.23-8.5-1.71Z"/><path class="cls-2" d="m297.5,384.75c-5.32,0-9.9-1.6-14.32-3.14-4.22-1.47-8.21-2.86-12.68-2.86-1.38,0-2.5-1.12-2.5-2.5s1.12-2.5,2.5-2.5c5.32,0,9.9,1.6,14.32,3.14,4.22,1.47,8.21,2.86,12.68,2.86s8.41-1.39,12.69-2.86c4.49-1.54,9.12-3.14,14.32-3.14,1.38,0,2.5,1.12,2.5,2.5s-1.12,2.5-2.5,2.5c-4.36,0-8.41,1.39-12.69,2.86-4.49,1.54-9.12,3.14-14.32,3.14Z"/><path class="cls-8" d="m298.5,548.75c-.87,0-1.71-.45-2.17-1.25-7.34-12.75-22.53-12.39-37.24-12.05-4.79.11-9.32.22-13.51-.14-22.34-1.91-33.25-10.8-32.43-26.43.78-14.82,1.24-32.14-1.2-48.26-5.89-38.77-18.59-66.99-38.84-86.28-.96-.92-1.04-2.42-.18-3.43.87-1.01,2.37-1.17,3.42-.36.62.47,1.24.96,1.87,1.45,1.28,1,2.58,2.01,3.89,2.96-1.33-2.68-2.95-5.34-4.62-8.08-2.95-4.83-5.99-9.82-7.44-15.26-.24-.91.05-1.87.75-2.5.7-.63,1.69-.81,2.57-.47,3.37,1.29,5.86,3.49,8.06,5.42,2.94,2.59,5.27,4.64,9.11,4.69,1.38.02,2.49,1.15,2.47,2.53-.02,1.37-1.13,2.47-2.5,2.47h-.03c-5.69-.07-9.22-3.19-12.35-5.93-.09-.08-.18-.16-.27-.23,1.17,2.21,2.52,4.42,3.9,6.69,3.05,5,6.21,10.17,7.66,15.91.23.93-.08,1.91-.81,2.52-.26.22-.56.38-.87.48,14.67,19.11,24.25,44.38,29.16,76.69,2.51,16.56,2.04,34.2,1.25,49.27-.24,4.63-.98,18.72,27.87,21.18,3.91.33,8.31.23,12.96.12,15.41-.37,32.87-.78,41.69,14.55.69,1.2.28,2.73-.92,3.41-.39.23-.82.33-1.25.33Z"/><path class="cls-8" d="m298.5,548.75c-.42,0-.85-.11-1.25-.33-1.2-.69-1.61-2.22-.92-3.41,8.81-15.32,25.7-14.91,40.58-14.55,4.57.11,8.89.21,12.8-.12,28.85-2.46,28.11-16.55,27.87-21.18-.79-15.07-1.26-32.71,1.25-49.27,4.91-32.32,14.49-57.58,29.16-76.69-.31-.1-.61-.26-.87-.48-.73-.62-1.05-1.6-.81-2.52,1.45-5.74,4.61-10.91,7.66-15.91,1.49-2.44,2.93-4.81,4.16-7.18-.37.3-.75.6-1.13.9-3.7,2.96-7.89,6.32-13.59,6.4h-.03c-1.37,0-2.48-1.1-2.5-2.47-.02-1.38,1.09-2.51,2.47-2.53,3.98-.05,7.16-2.6,10.53-5.3,2.58-2.06,5.25-4.2,8.49-5.45.88-.34,1.87-.16,2.57.47.7.63.99,1.59.75,2.5-1.45,5.44-4.49,10.43-7.44,15.26-1.67,2.74-3.29,5.4-4.62,8.08,1.31-.95,2.61-1.96,3.89-2.96.63-.49,1.25-.98,1.87-1.45,1.05-.81,2.56-.65,3.42.36.86,1.01.79,2.52-.18,3.43-20.25,19.29-32.96,47.51-38.84,86.28-2.45,16.12-1.98,33.44-1.2,48.26.82,15.63-10.09,24.52-32.43,26.43-4.19.36-8.64.25-13.35.14-14.15-.34-28.79-.7-36.12,12.05-.46.8-1.3,1.25-2.17,1.25Z"/><path class="cls-2" d="m301.51,356.7c-2.49-.37-7.43-1.43-9.81-.11-3.01,1.66-2.05,4.41-3.42,7.56-2.13,4.9-7.76,8.17-12.12,11,3.69,3.27,13.87,4.25,18.73,4.53,3.41.2,15.18,1.37,17.67-.44,5.69-4.12-3.26-12.48-5.44-15.8-1.56-2.38-2.49-5.6-5.83-5.8-3.12-.19-3.97,3.7-6.99,2.21"/><path class="cls-2" d="m301.91,355.26c-2.94-.45-6-1.15-8.98-.63s-4.61,2.71-5.16,5.52c-.29,1.46-.54,2.88-1.26,4.21-.76,1.39-1.8,2.58-2.95,3.66-2.45,2.3-5.36,4.03-8.16,5.84-.75.49-1.07,1.7-.3,2.36,2.05,1.75,4.7,2.63,7.29,3.27,2.96.73,6.01,1.14,9.04,1.43,4.79.46,9.66.83,14.46.82,2.19,0,4.7.04,6.75-.85s3.42-3.22,3.27-5.5c-.32-4.98-4.63-8.6-7.31-12.42-1.75-2.5-2.76-5.81-6.08-6.64-1.59-.4-3.18-.09-4.52.85-.82.57-1.85,1.88-2.95,1.39-1.75-.78-3.28,1.81-1.51,2.59,1.12.5,2.22.72,3.41.3,1.08-.38,1.84-1.22,2.78-1.83,2.45-1.58,4.1,1.13,5.14,2.98,2.16,3.85,5.79,6.81,7.51,10.92.66,1.57.9,3.42-.7,4.51-.39.26-1.24.43-1.91.52-1.09.15-2.2.18-3.3.19-4.36.06-8.72-.33-13.07-.65-2.94-.22-5.88-.55-8.76-1.16-2.48-.52-5.45-1.14-7.43-2.83l-.3,2.36c4.98-3.23,11.04-6.63,13.08-12.59.75-2.18.38-5.5,3.14-6.22,2.54-.66,5.45.12,7.98.51,1.89.29,2.7-2.6.8-2.89h0Z"/><path class="cls-2" d="m247.09,380.57c-18.85,0-38.35,0-52.92-14.14-10.02-9.72-20.89-23.56-26.48-30.95-.83-1.1-.62-2.67.48-3.5,1.1-.83,2.67-.62,3.5.48,5.5,7.27,16.2,20.89,25.98,30.38,13.12,12.73,31.58,12.73,49.44,12.73,8.03,0,29.35,0,36.79-8.09,1.94-2.11,2.75-4.61,2.5-7.67-.12-1.38.91-2.58,2.28-2.7,1.34-.12,2.58.91,2.7,2.28.37,4.46-.91,8.32-3.8,11.47-7.91,8.6-25.78,9.71-40.47,9.71Z"/><path class="cls-2" d="m348.64,380.57c-14.68,0-32.55-1.1-40.47-9.71-2.9-3.15-4.17-7-3.8-11.47.11-1.38,1.32-2.41,2.7-2.28,1.38.12,2.4,1.32,2.28,2.7-.25,3.05.56,5.56,2.5,7.67,7.44,8.09,28.76,8.09,36.79,8.09,17.86,0,36.32,0,49.44-12.73,9.78-9.49,20.47-23.11,25.98-30.38.83-1.1,2.4-1.32,3.5-.48,1.1.83,1.32,2.4.48,3.5-5.59,7.39-16.47,21.23-26.48,30.95-14.57,14.14-34.07,14.14-52.92,14.14Z"/><path class="cls-8" d="m298.5,471.67c-1.38,0-2.5-1.12-2.5-2.5v-53.65c0-1.38,1.12-2.5,2.5-2.5s2.5,1.12,2.5,2.5v53.65c0,1.38-1.12,2.5-2.5,2.5Z"/></g></svg>