<?xml version="1.0" encoding="UTF-8"?><svg id="Layer_2" xmlns="http://www.w3.org/2000/svg" viewBox="0 0 277 277"><defs><style>.cls-1{fill:#0069ff;}.cls-2{fill:#eef4ff;}.cls-3{fill:#e6e6e6;}.cls-4{fill:#fff;}</style></defs><g id="Layer_1-2"><circle class="cls-4" cx="138.5" cy="138.5" r="136"/><path class="cls-1" d="m138.5,277C62.13,277,0,214.87,0,138.5S62.13,0,138.5,0s138.5,62.13,138.5,138.5-62.13,138.5-138.5,138.5Zm0-272C64.89,5,5,64.89,5,138.5s59.89,133.5,133.5,133.5,133.5-59.89,133.5-133.5S212.11,5,138.5,5Z"/><ellipse class="cls-2" cx="160" cy="215.5" rx="21.5" ry="23.5"/><path class="cls-1" d="m160,241.5c-13.23,0-24-11.66-24-26s10.77-26,24-26,24,11.66,24,26-10.77,26-24,26Zm0-47c-10.48,0-19,9.42-19,21s8.52,21,19,21,19-9.42,19-21-8.52-21-19-21Z"/><path class="cls-2" d="m129,274c0-4.11.18-8.21.47-12.31.26-3.72.55-7.45,2.24-10.84,2.78-5.58,8-9.78,14.07-11.26,1.63-.4,3.31-.6,4.99-.6h17.45c11.7,0,21.78,9.3,21.78,21v4c-6.72,2.44-12.73,5.04-21,7-13.95,3.31-31,4-40,3Z"/><path class="cls-1" d="m137.95,276.92c-3.54,0-6.69-.15-9.23-.43l-2.22-.25v-2.24c0-3.85.16-7.94.48-12.48.26-3.69.56-7.88,2.5-11.78,3.11-6.24,8.98-10.94,15.72-12.57,1.82-.44,3.7-.67,5.58-.67h17.45c13.39,0,24.28,10.54,24.28,23.5v5.75l-1.65.6c-1.48.54-2.93,1.09-4.38,1.63-5.07,1.91-10.31,3.89-16.9,5.45-10.27,2.44-22.28,3.48-31.63,3.48Zm-6.43-5.2c9.21.65,24.37-.18,36.9-3.15,6.27-1.49,11.14-3.32,16.28-5.26.93-.35,1.85-.7,2.79-1.05v-2.26c0-10.03-8.83-18.5-19.28-18.5h-17.45c-1.49,0-2.97.18-4.4.52-5.32,1.29-9.96,5.01-12.42,9.94-1.5,3.01-1.75,6.52-1.99,9.9-.25,3.54-.4,6.78-.45,9.85Z"/><ellipse class="cls-2" cx="90.7" cy="66.12" rx="21.5" ry="23.5"/><path class="cls-1" d="m90.7,92.12c-13.23,0-24-11.66-24-26s10.77-26,24-26,24,11.66,24,26-10.77,26-24,26Zm0-47c-10.48,0-19,9.42-19,21s8.52,21,19,21,19-9.42,19-21-8.52-21-19-21Z"/><path class="cls-2" d="m121.2,127.9v-16.99c0-11.7-9.57-21.28-21.28-21.28h-17.45c-8.78,0-16.36,5.39-19.6,13.02"/><path class="cls-1" d="m123.7,127.9h-5v-16.99c0-10.35-8.42-18.78-18.78-18.78h-17.45c-7.54,0-14.33,4.51-17.3,11.49l-4.6-1.96c3.75-8.83,12.35-14.54,21.9-14.54h17.45c13.11,0,23.78,10.67,23.78,23.78v16.99Z"/><ellipse class="cls-2" cx="52.26" cy="158.66" rx="21.5" ry="23.5"/><path class="cls-1" d="m52.26,184.66c-13.23,0-24-11.66-24-26s10.77-26,24-26,24,11.66,24,26-10.77,26-24,26Zm0-47c-10.48,0-19,9.42-19,21s8.52,21,19,21,19-9.42,19-21-8.52-21-19-21Z"/><path class="cls-2" d="m36,218l38-31c-3.47-2.47-7.95-4.84-12.52-4.84h-17.45c-11.7,0-21.28,9.57-21.28,21.28l.24,6.56,9,12,4-4Z"/><path class="cls-1" d="m31.73,225.81l-11.2-14.93-.27-7.34c0-13.2,10.66-23.87,23.77-23.87h17.45c4.32,0,9.02,1.78,13.97,5.3l2.67,1.9-40.44,32.99-5.95,5.95Zm-6.26-16.68l6.8,9.07,2.15-2.13,35.33-28.82c-3-1.71-5.77-2.58-8.27-2.58h-17.45c-10.35,0-18.78,8.42-18.78,18.78l.21,5.69Z"/><ellipse class="cls-2" cx="203.35" cy="81.36" rx="21.5" ry="23.5"/><path class="cls-1" d="m203.35,107.36c-13.23,0-24-11.66-24-26s10.77-26,24-26,24,11.66,24,26-10.77,26-24,26Zm0-47c-10.48,0-19,9.42-19,21s8.52,21,19,21,19-9.42,19-21-8.52-21-19-21Z"/><path class="cls-2" d="m172.85,133.13v-6.99c0-11.7,9.57-21.28,21.28-21.28h17.45c11.7,0,21.28,9.57,21.28,21.28v6.99"/><path class="cls-1" d="m235.35,133.13h-5v-6.99c0-10.35-8.42-18.78-18.78-18.78h-17.45c-10.35,0-18.78,8.42-18.78,18.78v6.99h-5v-6.99c0-13.11,10.67-23.78,23.78-23.78h17.45c13.11,0,23.78,10.67,23.78,23.78v6.99Z"/><path class="cls-3" d="m163.83,4.69c-8.35,43.46-16.69,86.92-25.04,130.38"/><rect class="cls-1" x="84.93" y="67.38" width="132.76" height="5" transform="translate(54.15 205.3) rotate(-79.13)"/><path class="cls-3" d="m274,134.86c-44.92-.01-89.84-.03-134.76-.04"/><rect class="cls-1" x="139.24" y="132.33" width="134.76" height="5"/><path class="cls-3" d="m11.13,84.71c42.85,16.85,85.7,33.71,128.54,50.56"/><rect class="cls-1" x="72.9" y="40.92" width="5" height="138.13" transform="translate(-54.55 139.9) rotate(-68.53)"/><path class="cls-3" d="m139.82,134.98c-36.38,29.02-72.77,58.03-109.15,87.05"/><rect class="cls-1" x="15.43" y="176" width="139.61" height="5" transform="translate(-92.69 92.08) rotate(-38.57)"/></g></svg>