<svg width="53" height="26" viewBox="0 0 53 26" fill="none" xmlns="http://www.w3.org/2000/svg">
<path d="M10.5234 24.2001C5.78339 24.2001 1.85336 20.64 1.37336 15.91C1.13336 13.46 1.8534 11.07 3.4134 9.17004C4.9734 7.27004 7.17336 6.09009 9.62336 5.84009C9.93336 5.81009 10.2434 5.79004 10.5534 5.79004C15.2934 5.79004 19.2233 9.35008 19.7033 14.0801C20.2033 19.1301 16.5133 23.6501 11.4633 24.1501C11.1333 24.1901 10.8234 24.2001 10.5234 24.2001Z" fill="white"/>
<path d="M10.5417 7.04004C14.6417 7.04004 18.0316 10.1201 18.4416 14.2001C18.8816 18.5601 15.6816 22.4701 11.3216 22.9001C11.0516 22.9301 10.7817 22.9401 10.5217 22.9401C6.42167 22.9401 3.03164 19.8601 2.62164 15.7801C2.41164 13.6701 3.03165 11.6001 4.38165 9.95007C5.73165 8.31007 7.63164 7.28007 9.74164 7.07007C10.0016 7.06007 10.2717 7.04004 10.5417 7.04004ZM10.5417 4.54004C10.1917 4.54004 9.84164 4.56009 9.49164 4.59009C3.75164 5.16009 -0.448346 10.2901 0.131654 16.0301C0.671654 21.4201 5.21167 25.4401 10.5217 25.4401C10.8717 25.4401 11.2216 25.4201 11.5716 25.3901C17.3116 24.8201 21.5117 19.6901 20.9317 13.9501C20.3917 8.57007 15.8517 4.54004 10.5417 4.54004Z" fill="#4D67B0"/>
<path d="M41.6016 19.8397C36.8616 19.8397 32.9316 16.2797 32.4516 11.5497C31.9516 6.49968 35.6416 1.97968 40.6916 1.47968C41.0016 1.44968 41.3117 1.42969 41.6217 1.42969C46.3617 1.42969 50.2917 4.98967 50.7717 9.71967C51.0117 12.1697 50.2916 14.5597 48.7316 16.4597C47.1716 18.3597 44.9717 19.5397 42.5217 19.7897C42.2217 19.8297 41.9116 19.8397 41.6016 19.8397Z" fill="white"/>
<path d="M41.6315 2.67969C45.7315 2.67969 49.1216 5.75972 49.5316 9.83972C49.9716 14.1997 46.7716 18.1097 42.4116 18.5397C42.1416 18.5697 41.8715 18.5797 41.6115 18.5797C37.5115 18.5797 34.1215 15.4997 33.7115 11.4197C33.2715 7.05968 36.4715 3.14967 40.8315 2.71967C41.0915 2.69967 41.3615 2.67969 41.6315 2.67969ZM41.6315 0.179688C41.2815 0.179688 40.9315 0.199675 40.5815 0.229675C34.8415 0.799675 30.6415 5.92968 31.2215 11.6697C31.7615 17.0597 36.3015 21.0797 41.6115 21.0797C41.9615 21.0797 42.3116 21.0597 42.6616 21.0297C48.4016 20.4597 52.6015 15.3297 52.0215 9.58972C51.4815 4.19972 46.9315 0.179688 41.6315 0.179688Z" fill="#4D67B0"/>
</svg>
