<svg width="267" height="441" viewBox="0 0 267 441" fill="none" xmlns="http://www.w3.org/2000/svg">
<path d="M37.9883 401.033L44.2876 439.043H64.3752L66.4016 420.655L70.1239 439.043H90.8944L94.793 397.686L37.9883 401.033Z" fill="white" stroke="#3B65EE" stroke-width="2" stroke-linecap="round" stroke-linejoin="round"/>
<path d="M178.798 401.033L172.499 439.043H152.411L150.385 420.655L146.663 439.043H125.893L121.994 397.686L178.798 401.033Z" fill="white" stroke="#3B65EE" stroke-width="2" stroke-linecap="round" stroke-linejoin="round"/>
<path d="M199.26 319.792C217.96 326.399 229.457 311.27 231.66 299.973C231.981 298.323 231.892 296.62 231.399 295.014C230.907 293.407 230.026 291.946 228.836 290.76C227.645 289.574 226.181 288.7 224.572 288.213C222.964 287.727 221.26 287.643 219.612 287.971C217.998 288.303 216.489 289.021 215.213 290.063C213.936 291.104 212.931 292.439 212.282 293.953C211.633 295.467 211.36 297.116 211.485 298.758C211.611 300.401 212.132 301.988 213.004 303.386C217.101 309.816 223.664 315.718 233.4 313.098C252.606 307.967 250.47 294.908 250.47 294.908" fill="white"/>
<path d="M199.26 319.792C217.96 326.399 229.457 311.27 231.66 299.973C231.981 298.323 231.892 296.62 231.399 295.014C230.907 293.407 230.026 291.946 228.836 290.76C227.645 289.574 226.181 288.7 224.572 288.213C222.964 287.727 221.26 287.643 219.612 287.971C217.998 288.303 216.489 289.021 215.213 290.063C213.936 291.104 212.931 292.439 212.282 293.953C211.633 295.467 211.36 297.116 211.485 298.758C211.611 300.401 212.132 301.988 213.004 303.386C217.101 309.816 223.664 315.718 233.4 313.098C252.606 307.967 250.47 294.908 250.47 294.908" stroke="#3B65EE" stroke-width="2" stroke-linecap="round" stroke-linejoin="round"/>
<path d="M47.9431 172.046C43.2957 143.836 61.6871 123.598 61.6871 123.598L43.4057 113.622L33.428 128.112L40.0357 111.794L25.4547 103.844C12.4382 117.581 4.32375 135.232 2.37184 154.054C-0.227193 184.511 24.1332 240.205 24.1332 240.205L73.8013 225.979C73.8013 225.979 52.5685 200.257 47.9431 172.046Z" fill="white" stroke="#3B65EE" stroke-width="2" stroke-linecap="round" stroke-linejoin="round"/>
<path d="M24.1332 240.227L44.0666 283.831L73.8013 226C73.8013 226 52.5685 200.257 47.9431 172.046C47.2025 167.579 47.0102 163.038 47.3704 158.525L2.37184 154.12C-0.227193 184.445 24.1332 240.227 24.1332 240.227Z" fill="#B0C3EA" stroke="#3B65EE" stroke-width="2" stroke-linecap="round" stroke-linejoin="round"/>
<path d="M64.7064 200.697C48.3723 227.511 36.7787 256.937 30.4343 287.685C20.1263 338.336 34.1568 408.807 34.1568 408.807H101.049L107.26 359.94L120.828 408.807H181.156C181.156 408.807 199.305 349.765 199.305 297.066C199.305 244.367 167.39 201.908 167.39 201.908L64.7064 200.697Z" fill="#F44336" stroke="#3B65EE" stroke-width="2" stroke-linecap="round" stroke-linejoin="round"/>
<path d="M75.499 218.954L66.4023 268.019H131.51L136.356 215.54L75.499 218.954Z" fill="#B0C3EA" stroke="#3B65EE" stroke-width="2" stroke-linecap="round" stroke-linejoin="round"/>
<path d="M40.2344 196.909C43.5056 204.127 48.2839 210.562 54.2484 215.781C60.2128 221 67.2253 224.882 74.8147 227.167C82.3748 229.424 90.3555 229.896 98.1291 228.547C105.903 227.198 113.257 224.065 119.615 219.394C119.615 219.394 156.75 222.455 178.798 197.878C200.846 173.301 192.476 129.037 192.476 129.037L153.072 93.3828L40.2344 196.909Z" fill="white" stroke="#3B65EE" stroke-width="2" stroke-linecap="round" stroke-linejoin="round"/>
<path d="M169.679 147.8C169.679 147.8 168.314 193.584 139.262 218.161C151.596 215.959 167.257 210.739 178.908 197.878C179.789 196.909 180.604 195.896 181.375 194.861L186.243 164.845L169.679 147.8Z" fill="#D1DAED"/>
<path d="M119.615 219.395C119.615 219.395 156.75 222.456 178.798 197.879" stroke="#3B65EE" stroke-width="2" stroke-linecap="round" stroke-linejoin="round"/>
<path d="M128.117 211.796C128.117 211.796 119.505 220.803 110.496 224.437Z" fill="#D1DAED"/>
<path d="M128.116 211.796C127.468 213.628 126.506 215.335 125.275 216.839C124.072 218.285 122.704 219.585 121.2 220.715C119.689 221.852 118.029 222.779 116.267 223.468C114.443 224.201 112.481 224.532 110.518 224.437C111.755 223.041 113.079 221.724 114.482 220.495C115.804 219.32 117.169 218.219 118.579 217.191C119.992 216.12 121.463 215.128 122.984 214.218C124.609 213.24 126.329 212.428 128.116 211.796V211.796Z" fill="#3B65EE"/>
<path d="M83.0954 61.7371C81.4655 85.9615 125.076 123.862 125.076 123.862L159.965 93.0306C180.537 67.3748 141.64 1 141.64 1C141.64 1 84.7253 37.4907 83.0954 61.7371Z" fill="#D1DAED" stroke="#3B65EE" stroke-width="2" stroke-linecap="round" stroke-linejoin="round"/>
<path d="M178.798 106.728C169.346 94.9843 156.656 86.2694 142.301 81.6623C127.945 77.0553 112.553 76.7584 98.0303 80.8083C60.5866 90.5861 53.7586 120.668 44.9263 142.823C34.7064 163.788 19.7949 156.036 19.7949 156.036L20.8301 191.382L38.4506 199.133C48.2913 203.425 59.1966 204.652 69.7453 202.657C80.294 200.661 89.997 195.535 97.5896 187.946L98.0964 187.418C100.51 184.821 103.82 183.238 107.357 182.988C110.894 182.739 114.394 183.842 117.148 186.074" fill="white"/>
<path d="M178.798 106.728C169.346 94.9843 156.656 86.2694 142.301 81.6623C127.945 77.0553 112.553 76.7584 98.0303 80.8083C60.5866 90.5861 53.7586 120.668 44.9263 142.823C34.7064 163.788 19.7949 156.036 19.7949 156.036L20.8301 191.382L38.4506 199.133C48.2913 203.425 59.1966 204.652 69.7453 202.657C80.294 200.661 89.997 195.535 97.5896 187.946L98.0964 187.418C100.51 184.821 103.82 183.238 107.357 182.988C110.894 182.739 114.394 183.842 117.148 186.074" stroke="#3B65EE" stroke-width="2" stroke-linecap="round" stroke-linejoin="round"/>
<path d="M48.4501 181.89C48.2298 191.558 37.6354 196.403 24.7945 192.902C11.9535 189.4 1.31492 178.675 1.00656 168.853C0.698204 159.031 11.2926 153.438 24.6622 157.159C38.0318 160.881 48.6923 171.98 48.4501 181.89Z" fill="white" stroke="#3B65EE" stroke-width="2" stroke-linecap="round" stroke-linejoin="round"/>
<path d="M15.3457 167.949L17.989 178.322" stroke="#3B65EE" stroke-width="2" stroke-linecap="round" stroke-linejoin="round"/>
<path d="M28.1641 173.146L30.8071 183.497" stroke="#3B65EE" stroke-width="2" stroke-linecap="round" stroke-linejoin="round"/>
<path d="M110.518 183.212C112.07 182.712 113.728 182.64 115.318 183.004C116.908 183.369 118.369 184.156 119.549 185.282C120.773 186.353 121.718 187.706 122.302 189.224C122.926 190.746 123.049 192.428 122.654 194.025C121.354 192.946 120.451 191.999 119.394 191.096L116.619 188.563C115.716 187.748 114.813 186.934 113.8 186.119C112.787 185.304 111.707 184.445 110.518 183.212Z" fill="#3B65EE"/>
<path d="M100.717 151.72C102.517 151.72 103.977 147.273 103.977 141.788C103.977 136.302 102.517 131.855 100.717 131.855C98.9165 131.855 97.457 136.302 97.457 141.788C97.457 147.273 98.9165 151.72 100.717 151.72Z" fill="#3B65EE"/>
<path d="M62.1504 135.687C63.9507 135.687 65.4102 131.241 65.4102 125.755C65.4102 120.27 63.9507 115.823 62.1504 115.823C60.35 115.823 58.8906 120.27 58.8906 125.755C58.8906 131.241 60.35 135.687 62.1504 135.687Z" fill="#3B65EE"/>
<path d="M103.977 110.648C104.147 115.346 105.731 119.883 108.521 123.666C111.311 127.45 115.177 130.304 119.615 131.856" fill="white"/>
<path d="M103.976 110.648C105.634 114.796 107.747 118.748 110.275 122.43C111.51 124.157 112.904 125.764 114.438 127.231C115.958 128.817 117.764 130.138 119.615 131.856C117.095 131.891 114.61 131.26 112.412 130.028C110.143 128.815 108.189 127.088 106.707 124.985C105.206 122.927 104.169 120.567 103.668 118.07C103.13 115.611 103.236 113.054 103.976 110.648V110.648Z" fill="#3B65EE"/>
<path d="M154.217 113.445C156.199 95.8277 161.529 67.9036 175.648 59.8214C196.682 47.7753 265.336 73.7835 265.336 73.7835C265.336 73.7835 237.166 141.898 202.079 139.365" fill="white"/>
<path d="M154.217 113.445C156.199 95.8277 161.529 67.9036 175.648 59.8214C196.682 47.7753 265.336 73.7835 265.336 73.7835C265.336 73.7835 237.166 141.898 202.079 139.365" stroke="#3B65EE" stroke-width="2" stroke-linecap="round" stroke-linejoin="round"/>
<path d="M176.156 118.489C182.059 94.2641 175.363 64.2478 227.939 82.8126Z" fill="#D1DAED"/>
<path d="M176.156 118.489C176.861 111.662 177.015 104.923 177.962 98.052C178.396 94.5213 179.246 91.0544 180.495 87.7236C181.85 84.1532 184.177 81.0332 187.213 78.7165C190.367 76.6081 194.021 75.3698 197.807 75.1269C201.379 74.9045 204.965 75.1638 208.468 75.8977C215.246 77.2948 221.798 79.6218 227.939 82.8127C221.345 81.296 214.677 80.1199 207.962 79.2891C201.354 78.6945 194.592 78.8266 189.768 82.2841C184.945 85.7416 182.896 92.2602 181.332 98.6907C180.06 105.4 178.331 112.015 176.156 118.489Z" fill="#3B65EE"/>
<path d="M74.814 101.487C74.814 101.487 74.814 108.094 58.8672 110.142Z" fill="white"/>
<path d="M74.8164 101.487C75.1462 102.398 75.1462 103.395 74.8164 104.306C74.5013 105.214 74.0236 106.057 73.4067 106.795C72.1935 108.157 70.6874 109.226 69.0015 109.922C67.3991 110.555 65.7012 110.912 63.9796 110.979C62.2296 111.055 60.4827 110.771 58.8477 110.142C60.2232 109.146 61.6997 108.297 63.2528 107.61C64.6845 106.949 66.0501 106.376 67.3937 105.848C68.7373 105.319 70.0368 104.769 71.2703 104.152C72.6479 103.559 73.8638 102.646 74.8164 101.487V101.487Z" fill="#3B65EE"/>
<path d="M173.424 185.832C178.071 157.622 159.68 137.383 159.68 137.383L177.961 127.407L187.939 141.876L181.331 125.557L195.912 117.607C208.925 131.356 217.038 149.013 218.995 167.84C221.594 198.297 192.3 249.719 192.3 249.719L167.763 228.489C167.763 228.489 168.798 214.043 173.424 185.832Z" fill="white" stroke="#3B65EE" stroke-width="2" stroke-linecap="round" stroke-linejoin="round"/>
<path d="M157.763 253.704C154.914 249.844 153.288 245.219 153.095 240.425C152.903 235.632 154.153 230.891 156.683 226.815C163.049 216.641 170.846 201.622 173.423 185.832C174.164 181.372 174.356 176.839 173.996 172.332L218.994 167.928C220.822 189.465 209.192 223.6 202.21 241.768C201.704 243.111 200.757 245.468 199.589 248.375C197.998 252.373 195.365 255.872 191.963 258.508C188.562 261.144 184.516 262.822 180.247 263.366C175.978 263.91 171.641 263.3 167.687 261.601C163.733 259.902 160.306 257.175 157.763 253.704V253.704Z" fill="#B0C3EA" stroke="#3B65EE" stroke-width="2" stroke-linecap="round" stroke-linejoin="round"/>
<path d="M100.451 335.385L107.257 359.917" stroke="#3B65EE" stroke-width="2" stroke-linecap="round" stroke-linejoin="round"/>
<path d="M50.41 287.883C55.4097 287.883 59.4626 285.289 59.4626 282.091C59.4626 278.892 55.4097 276.299 50.41 276.299C45.4104 276.299 41.3574 278.892 41.3574 282.091C41.3574 285.289 45.4104 287.883 50.41 287.883Z" fill="#3B65EE" stroke="#3B65EE" stroke-width="2" stroke-linecap="round" stroke-linejoin="round"/>
<path d="M145.166 287.883C150.166 287.883 154.219 285.289 154.219 282.091C154.219 278.892 150.166 276.299 145.166 276.299C140.167 276.299 136.113 278.892 136.113 282.091C136.113 285.289 140.167 287.883 145.166 287.883Z" fill="#3B65EE" stroke="#3B65EE" stroke-width="2" stroke-linecap="round" stroke-linejoin="round"/>
</svg>
