<?xml version="1.0" encoding="UTF-8"?><svg id="Layer_1" xmlns="http://www.w3.org/2000/svg" viewBox="0 0 300 300"><defs><style>.cls-1{fill:#ecf0fe;}.cls-2{fill:#c8d4fa;}.cls-3{fill:#3b66ef;}</style></defs><path class="cls-2" d="m84.84,175h138.57c20.37,0,36.98-17.36,34.94-37.64-.06-.61-.14-1.23-.23-1.85-2.64-17.21-17.49-22.54-34.93-22.78,5.39-12.33.07-33.65-10.63-39.48-16.7-9.11-31.93-6.89-39.48,1.52-6.61-26.73-23.98-38.13-50.11-30.37-26.07,7.74-40.82,36.29-31.89,62.26-13.81-5.45-29.38-2.46-39.48,7.59-14.06,13.98-9.46,33.56-9.11,34.93,2.62,10.32,12.49,17.02,20.84,21.02,6.71,3.21,14.08,4.8,21.52,4.8Z"/><path class="cls-3" d="m84.84,177.5h129.99c2.84,0,5.69.04,8.53,0,11.58-.18,22.54-5.27,29.76-14.39,8.21-10.37,10.86-26.08,4.1-37.91s-21.4-14.69-34.05-14.96l2.41,3.16c5.11-12.6,1.7-31.65-9.13-40.48-12.09-9.86-33.85-11.77-45.16.08l4.18,1.1c-3-11.68-8.59-23.49-19.33-29.88s-23.3-5.56-34.52-2.03c-27.07,8.52-41.73,38.39-32.97,65.13l3.08-3.08c-25.45-9.44-52.5,7.89-52.75,35.37-.08,8.66,2.25,16.41,8.47,22.75,9.67,9.85,23.78,14.91,37.39,15.13,3.22.05,3.22-4.95,0-5-12.11-.2-24.57-4.59-33.36-13.17-5.36-5.23-7.4-11.47-7.5-18.72-.31-24.79,23.59-40.01,46.42-31.54,1.77.66,3.64-1.35,3.08-3.08-7.9-24.09,4.9-51.24,29.47-58.98,9.96-3.13,21.37-4.01,30.67,1.52s14.36,16.49,17.04,26.89c.46,1.8,2.89,2.46,4.18,1.1,9.72-10.19,30.04-8.15,39.69,1.35,8.27,8.15,10.5,23.67,6.24,34.18-.63,1.57.95,3.13,2.41,3.16,11.38.25,25.25,2.51,30.56,14.07s.82,27.02-9.02,35.37c-9.98,8.47-21.74,7.82-33.81,7.82h-126.08c-3.22,0-3.22,5,0,5Z"/><path class="cls-1" d="m175.27,183.2c-2.33,5.03-8.29,7.22-13.32,4.89-5.03-2.33-7.22-8.29-4.89-13.32,2.33-5.03,18.59-16.27,18.59-16.27,0,0,1.95,19.67-.38,24.7Z"/><path class="cls-3" d="m173.11,181.94c-3.26,5.96-12.72,6.18-14.32-1.39-.92-4.36,2.19-7.13,5.08-9.74,4.08-3.69,8.52-7.01,13.04-10.15l-3.76-2.16c.71,7.27,2.46,17.1-.29,24.03-1.19,2.99,3.64,4.29,4.82,1.33,2.93-7.37,1.22-17.65.47-25.36-.17-1.71-2.06-3.34-3.76-2.16-3.35,2.32-6.62,4.78-9.8,7.33-3.85,3.09-8.95,6.72-10.42,11.7-4.3,14.53,16.18,22.03,23.27,9.08,1.55-2.82-2.77-5.35-4.32-2.52Z"/><path class="cls-1" d="m210.7,213.72c-2.33,5.03-8.29,7.22-13.32,4.89s-7.22-8.29-4.89-13.32,18.59-16.27,18.59-16.27c0,0,1.95,19.67-.38,24.7Z"/><path class="cls-3" d="m208.54,212.46c-3.26,5.96-12.72,6.18-14.32-1.39-.92-4.36,2.19-7.13,5.08-9.74,4.08-3.69,8.52-7.01,13.04-10.15l-3.76-2.16c.71,7.27,2.46,17.1-.29,24.03-1.19,2.99,3.64,4.29,4.82,1.33,2.93-7.37,1.22-17.65.47-25.36-.17-1.71-2.06-3.34-3.76-2.16-3.35,2.32-6.62,4.78-9.8,7.33-3.85,3.09-8.95,6.72-10.42,11.7-4.3,14.53,16.18,22.03,23.27,9.08,1.55-2.82-2.77-5.35-4.32-2.52Z"/><path class="cls-1" d="m164.77,240.17c-2.33,5.03-8.29,7.22-13.32,4.89-5.03-2.33-7.22-8.29-4.89-13.32,2.33-5.03,18.59-16.27,18.59-16.27,0,0,1.95,19.67-.38,24.7Z"/><path class="cls-3" d="m162.61,238.91c-3.26,5.96-12.72,6.18-14.32-1.39-.92-4.36,2.19-7.13,5.08-9.74,4.08-3.69,8.52-7.01,13.04-10.15l-3.76-2.16c.71,7.27,2.46,17.1-.29,24.03-1.19,2.99,3.64,4.29,4.82,1.33,2.93-7.37,1.22-17.65.47-25.36-.17-1.71-2.06-3.34-3.76-2.16-3.35,2.32-6.62,4.78-9.8,7.33-3.85,3.09-8.95,6.72-10.42,11.7-4.3,14.53,16.18,22.03,23.27,9.08,1.55-2.82-2.77-5.35-4.32-2.52Z"/><path class="cls-1" d="m141.36,210.94c-2.33,5.03-8.29,7.22-13.32,4.89-5.03-2.33-7.22-8.29-4.89-13.32,2.33-5.03,18.59-16.27,18.59-16.27,0,0,1.95,19.67-.38,24.7Z"/><path class="cls-3" d="m139.21,209.68c-3.26,5.96-12.72,6.18-14.32-1.39-.92-4.36,2.19-7.13,5.08-9.74,4.08-3.69,8.52-7.01,13.04-10.15l-3.76-2.16c.71,7.27,2.46,17.1-.29,24.03-1.19,2.99,3.64,4.29,4.82,1.33,2.93-7.37,1.22-17.65.47-25.36-.17-1.71-2.06-3.34-3.76-2.16-3.35,2.32-6.62,4.78-9.8,7.33-3.85,3.09-8.95,6.72-10.42,11.7-4.3,14.53,16.18,22.03,23.27,9.08,1.55-2.82-2.77-5.35-4.32-2.52Z"/><path class="cls-1" d="m100.75,219.29c-2.33,5.03-8.29,7.22-13.32,4.89-5.03-2.33-7.22-8.29-4.89-13.32,2.33-5.03,18.59-16.27,18.59-16.27,0,0,1.95,19.67-.38,24.7Z"/><path class="cls-3" d="m98.59,218.03c-3.26,5.96-12.72,6.18-14.32-1.39-.92-4.36,2.19-7.13,5.08-9.74,4.08-3.69,8.52-7.01,13.04-10.15l-3.76-2.16c.71,7.27,2.46,17.1-.29,24.03-1.19,2.99,3.64,4.29,4.82,1.33,2.93-7.37,1.22-17.65.47-25.36-.17-1.71-2.06-3.34-3.76-2.16-3.35,2.32-6.62,4.78-9.8,7.33-3.85,3.09-8.95,6.72-10.42,11.7-4.3,14.53,16.18,22.03,23.27,9.08,1.55-2.82-2.77-5.35-4.32-2.52Z"/></svg>