<?xml version="1.0" encoding="UTF-8"?>
<svg xmlns="http://www.w3.org/2000/svg" xmlns:xlink="http://www.w3.org/1999/xlink" viewBox="0 0 145.49 143.78">
  <defs>
    <style>
      .cls-1, .cls-2 {
        fill: none;
      }

      .cls-3 {
        fill: #3b65ef;
      }

      .cls-4 {
        mix-blend-mode: multiply;
      }

      .cls-4, .cls-5 {
        fill: #3b65ee;
        opacity: .2;
      }

      .cls-6 {
        isolation: isolate;
      }

      .cls-7 {
        fill: #fff;
        stroke-miterlimit: 10;
        stroke-width: 3px;
      }

      .cls-7, .cls-2 {
        stroke: #3b65ef;
      }

      .cls-2 {
        stroke-linecap: round;
        stroke-linejoin: round;
        stroke-width: 2px;
      }

      .cls-8 {
        clip-path: url(#clippath);
      }
    </style>
    <clipPath id="clippath">
      <path class="cls-1" d="M57.07,141.71s-46-2-49-42S35.34-2.6,62.07,1.71c31,5,53,62,44,104-8.49,39.6-49,36-49,36Z"/>
    </clipPath>
  </defs>
  <g class="cls-6">
    <g id="Layer_2" data-name="Layer 2">
      <g id="Layer_2-2" data-name="Layer 2">
        <g>
          <ellipse class="cls-5" cx="92.07" cy="135.71" rx="53.5" ry="7.5" transform="translate(-7.46 5.37) rotate(-3.21)"/>
          <path class="cls-7" d="M57.07,141.71s-46-2-49-42S35.34-2.6,62.07,1.71c31,5,53,62,44,104-8.49,39.6-49,36-49,36Z"/>
          <g class="cls-8">
            <g>
              <ellipse class="cls-3" cx="24.21" cy="44.74" rx="12.88" ry="10.68" transform="translate(-25.71 54.55) rotate(-72.71)"/>
              <ellipse class="cls-3" cx="77.21" cy="37.74" rx="10.97" ry="10.08" transform="translate(18.22 100.24) rotate(-72.71)"/>
              <ellipse class="cls-3" cx="33.21" cy="101.74" rx="10.97" ry="10.08" transform="translate(-62.22 53.28) rotate(-45)"/>
              <ellipse class="cls-3" cx="97.79" cy="98.32" rx="15.17" ry="12" transform="translate(-13.73 180.75) rotate(-81.63)"/>
              <path class="cls-2" d="M22.57,90.21s-7-26,13-26,10,24,10,24c0,0,28-14,27,12s-23,13-23,13c0,0,2.63,27.82-20.68,22.91s-7.5-21.21-7.5-21.21c0,0-15.81,8.3-19.81-10.7s14-20,21-14Z"/>
              <path class="cls-2" d="M74.57,22.21s-14-23-27-3,15.01,18.53,15.01,18.53c0,0-23.01,10.47-6.01,24.47s25-10,25-10c0,0,16.74,14.21,24.87-1.89s-9.87-17.11-9.87-17.11c0,0,10-7,0-17s-19-9-22,6Z"/>
            </g>
          </g>
          <path class="cls-4" d="M95.74,118.24c-13.35,19.05-39.9,22.69-54.07,11.83-12.53-9.61,17.97-13.88,29.99-33.8,12.02-19.92,9.16-56.48,20.91-43.06,14,16,13,51,3.17,65.03Z"/>
        </g>
      </g>
    </g>
  </g>
</svg>