<?xml version="1.0" encoding="UTF-8"?><svg id="Layer_2" xmlns="http://www.w3.org/2000/svg" viewBox="0 0 2703.75 3654.37"><defs><style>.cls-1{fill:none;opacity:.8;}.cls-2{fill:#0069ff;}.cls-3{fill:#fff;}.cls-4{fill:#c1d5ff;}.cls-5{fill:#dae6ff;}</style></defs><g id="Layer_1-2"><path class="cls-3" d="m267.66,3279.69l-135.39,44.47-.2.07v141.04s-127.42,43.71-127.42,43.71l-.45.15v140.96h2695.8v-141.11l-127.87-43.71v-141.11l-132.12-44.47H263.07c683.4,0,1366.8,0,2050.21,0,42.62,0,85.25,0,127.87,0"/><path class="cls-5" d="m1983.77,3321.91c-33.48,11.73-52.69-1.26-85.22,1.78-16.95,1.58-37.66,3.64-51.2,6.07-11.19,2.01-30.92,5.13-41.36,4.3-29.11-2.32-48.63,5.39-73.38,11.6-6.84,1.72-98.91-28.2-190.55-23.74H133.49v141.11h2440.07v-141.11h-613.07"/><path class="cls-4" d="m998.94,146.52c-.16,1.85-.15,2.03.03.54-.13.74-.28,1.48-.46,2.22-.34,1.47-.76,2.93-1.22,4.37-1,3.16-2.22,6.25-3.33,9.38-2.58,7.24-4.3,14.74-4.25,22.47s6.86,15.36,15,15,15.06-6.59,15-15c-.03-1.1-.02-2.19.06-3.29.14-1.75.18-2.14.11-1.18-.14.89.69-2.74.87-3.39.88-3.24,2.05-6.38,3.2-9.53,2.6-7.12,4.5-13.96,5-21.58s-7.27-15.35-15-15c-8.56.38-14.45,6.6-15,15h0Z"/><path class="cls-4" d="m2415.74,2347.29c9.36-13.78,19.01-27.68,25.49-43.1,2.52-6.01-1.69-13.9-6.89-16.94-5.74-3.36-13.47-2.36-18.18,2.35-.58.58-1.32,1.08-1.86,1.7-1.15,1.3,2.77-1.76,1.17-.94-.36.18-.67.48-1.01.69-1.91,1.16-3.81,2.3-5.81,3.33-4.33,2.23-8.81,4.15-13.27,6.1-9.09,3.96-18.44,7.86-25.85,14.65-9.07,8.3-11.17,21.4-4.33,31.79s16.94,13.38,26.43,19.55c.58.38,1.15.83,1.74,1.19-.86-.51-1.86-1.66-.52-.37,1.03.99,2.02,2.1,3.07,3.06-2.4-2.19.13.49.86,1.63,1.38,2.15.2.42-.02-.24.28.82.56,1.64.78,2.48,1.27,4.82,2.1,9.64,3.68,14.39,1.68,5.05,3.61,10.02,5.3,15.07l27.42-11.56c-6.15-10.66-16.29-17.84-25.87-25.14-.35-.27-3.47-2.67-2.11-1.61s-2.16-1.74-2.51-2.03c-1.89-1.56-3.75-3.18-5.49-4.91-.82-.82-1.57-1.7-2.39-2.53-2.28-2.35,1.1,2.1-.33-.45-.51-.9-1.04-1.82-1.56-2.71,1.96,3.32.21.19-.08-1.16-1.69-7.93-10.97-12.53-18.45-10.48-8.2,2.25-12.17,10.5-10.48,18.45,2.53,11.89,11.92,20.63,21.09,27.82,2.89,2.27,5.81,4.51,8.75,6.72,3.47,2.61-2.27-1.85,1.11.85,1.17.94,2.35,1.87,3.5,2.83,2.04,1.71,4.03,3.49,5.88,5.42.8.84,1.56,1.71,2.31,2.6-2.48-2.95.32.74.75,1.49,8.3,14.4,32.92,4.9,27.42-11.56-2.77-8.28-6.24-16.37-8.05-24.94-1.5-7.12-3.9-13.48-8.39-19.26-6.98-8.99-16.77-12.86-26.11-18.64-.18-.11-2.21-1.41-2.18-1.45.75-1.08,2.49,2.53,1.12.78-.29-.37-.73-.74-1.07-1.06-2.41-2.2.94,1.68-.12,0-.19-.3-.44-.64-.56-.97-.62-1.73,1.22,3.33.72,1.7-.88-2.9.11,3.35.16,1.3-.03.96-.88,4.08-.11,1.74-1.42,4.29-1.1,2.49-.26,1.18.66-1.03-1.37,1.76-1.34,1.76.27,0,.99-1.07,1.22-1.24.8-.63,2.38-1.27.5-.51-2.3.92.47-.25,1.16-.69,1.78-1.13,3.64-2.15,5.52-3.11,4.2-2.15,8.54-4.01,12.86-5.89,9.43-4.11,19.44-8.16,26.85-15.57l-25.07-14.59c1.4-3.35.14-.5-.62.97-.84,1.64-1.73,3.26-2.64,4.86-1.98,3.49-4.07,6.92-6.2,10.31-4.19,6.68-8.57,13.25-13,19.78s-1.28,16.63,5.38,20.52c7.4,4.33,15.96,1.34,20.52-5.38h0Z"/><path class="cls-5" d="m2439.5,3057.01c0-57.3-14.18-108.35-14.08-162.42.05-27.25.12-53.53,3.22-80.15,1.26-10.8,11.13-18.83,11.08-29.61-.04-10.17-12.78-18.79-12.33-26.21,1.55-25.8,12.65-44.62,9.94-71.79-1.42-14.25-17.07-22.26-17.01-38.12.06-16.15,12.82-15.51,14.5-26.43-1.59,10.32,6.39-12.74,2.25-138.47-1.09-33.07,2.96-68.09-19.46-82.83-17.48-11.49-13.26-48.25-29.71-72.32,32.24-38.44,20.18-16.39,52.05-45.31v7.97s-.1-1394.41-.1-1394.41l1.79,14.33c-5.74-18.88-20.48-33.47-40.47-32.81,0,0,0,0,0,0,5.28-4.04,9.4-10.6,13.34-13.99-7.28-2.91-10.35,2-13.44,2.86l7.17-3.55h-136.98c-28.2-97.85-96.26-284.65-313.18-520.29l-.5.46c-10.9-6.41-19.13,6.56-28.17,10.95l-25.04,53.2c18.33-17.2,35.89-36.77,51.24-57.39h0c-24.51,2.35-32.45,25.28-43.68,45.72h0c12.41-19.24,25.09-36.78,42.51-52.14-10.61,15.07-25.73,28.99-33.9,45.84,9.53-12.73,20.41-30.93,33.47-39.68.4,19.95-37.04,49.96-52.76,60.78l-7.82,1.56c20.69-25.85,40.79-64.34,37.56-98.58l-.2.19c-13.61-15.36-28.97-29.84-44.36-45.02C1698.06,83.58,1462.14,27.2,1352.43,3.62c0,0-157.05,36.32-317.12,116.87,0,0-7.28,10.32-12.09,17.93-12.6,19.92-3.43,33.32-15.63,52.63h0c-10.14-10.98-49.49-28-49.49-28-50.59,30.62-98.9,65.97-139.8,106.31-274.2,270.43-353.74,486.49-384.84,594.39h-149.94c-5.45,0-6.96,4.61-10.74,8.54l-8.43,5.58-.18,1242.45,54.26,31.1s-13.99,10.68-21.7,17.52c-23.22,20.6-32.58,68.52-32.58,69.14l-.15,1040.52h2176.01l-.52-221.57"/><path class="cls-2" d="m2443.25,3057.01c-.38-44.02-9.09-87.09-12.7-130.84-1.88-22.87-1.64-45.9-1.01-68.82.28-10.21.62-20.47,1.62-30.64,1.28-13.09,6.08-20.54,10.22-32.19,5.27-14.84-4.07-19.51-9.02-32-3.81-9.6,2.36-26.11,4.64-35.86,1.8-7.7,3.5-15.47,4.15-23.36,1.34-16.33-2.13-25.22-10.75-38.4-7.3-11.17-7.62-20.6,1.26-30.6,3.29-3.7,5.45-6.18,6.78-11.02l-7.23-1.99c-.29,2-.81,4.21.8,5.83,1.3,1.31,4.05,1.6,5.3,0,5.87-7.49,3.61-26.44,3.97-35.06,1.85-44.33.03-88.74-.8-133.07-.32-17.27-.49-37.44-11.22-51.97-5.85-7.92-14.21-11.75-18.19-21.23-4.38-10.42-5.81-21.87-8.81-32.71-2.07-7.48-9.69-19.48-7.73-26.43,1.48-5.26,12.62-14.56,17.31-18.17,10.19-7.83,20.99-13.73,30.77-22.46l-6.4-2.65v7.97c0,4.83,7.5,4.83,7.5,0,0-46.4,0-92.8-.01-139.2,0-110.85-.02-221.69-.02-332.54,0-134.04-.02-268.08-.03-402.12,0-116.36-.02-232.71-.03-349.07,0-38.07,0-76.14,0-114.21,0-12.06,0-24.12,0-36.18,0-4.78,1.87-14.18,0-18.66-.25-.59,0-1.75,0-2.42h-7.5l1.79,14.33,7.37-1c-3.57-10.28-8.74-19.9-17.48-26.71-2.71-2.11-5.63-3.9-8.76-5.32-2.3-1.04-14.81-2.06-15.2-2.44v5.3c4.81-4.37,8.79-9.38,13.34-13.99,1.92-1.94,1.14-5.62-1.65-6.27-7.14-1.66-10.02.2-16.33,3.24l3.79,6.48,7.17-3.55c3.42-1.7,1.67-6.99-1.89-6.99h-123.96c-2.73,0-10.44,1.38-12.91,0,5.35,2.98,1.21-5.14.49-7.54-1.09-3.64-2.2-7.27-3.32-10.9-2.58-8.31-5.28-16.59-8.08-24.83-32.77-96.4-80.63-187.15-137.27-271.59-48.54-72.37-103.57-140.16-162.45-204.34-1.41-1.54-3.86-1.33-5.3,0,2.63-2.42-9.35-1.32-10.16-1.01-5.15,1.89-10.17,6.47-14.39,9.85-5.04,4.04-6,6.09-8.88,12.22-6.95,14.78-13.91,29.55-20.86,44.33-1.76,3.74,2.66,7.62,5.89,4.54,18.89-17.98,36.1-37.34,51.83-58.15.78-1.04.61-2.73,0-3.79h0c-.92-1.57-2.56-1.98-4.23-1.73-25.58,3.93-34.9,26.94-45.92,47.45-1.33,2.48.32,5.64,3.24,5.64,5.49,0,10.08-12.28,12.67-15.96,9.58-13.64,20.18-26.04,32.49-37.27l-5.89-4.54c-11.3,15.4-24.91,28.83-33.9,45.84-2.3,4.35,3.67,7.62,6.48,3.79,9.83-13.42,18.58-28.26,32.12-38.34l-5.64-3.24c-.98,15.54-16.4,28.94-27.15,38.67-9.15,8.28-18.38,17.6-30.68,20.06l3.65,6.27c22.41-28.71,40.98-63.81,38.65-101.24-.2-3.22-3.97-4.98-6.4-2.65l-.2.19h5.3c-123.82-137.29-286.32-229.98-462.49-282.23-29.85-8.85-60.01-16.58-90.36-23.5-8.95-2.04-20.17-6.47-29.33-5.96-4.66.26-9.82,2.41-14.31,3.57-78.2,20.22-154.98,47.09-229.14,79.02-12.38,5.33-24.69,10.84-36.92,16.51-11.41,5.3-28.68,10.45-38.23,18.7-12.01,10.37-18.91,29.76-20.93,44.87-.77,5.79-2.25,11.59-2.96,17.32-1.45,11.64.59,5.24-4.36,3.42-7.82-2.87-15.85-9.88-23.47-13.75-6.78-3.44-16.95-10.97-24.73-9.88-4.45.63-11.25,6.9-15.1,9.33-5.84,3.68-11.64,7.43-17.4,11.25-11.5,7.61-22.82,15.49-33.93,23.66-20.66,15.2-40.63,31.37-59.5,48.74-41.63,38.33-80.37,80.42-117.67,122.94-101.97,116.25-191.48,245.98-249.41,390-8.9,22.13-17.02,44.57-24.3,67.29-2.87,8.93-4.52,19.43-8.51,27.89,1.1-2.33,4.71-.18-.68-.91-3.6-.49-7.59,0-11.23,0-27.49,0-54.99,0-82.48,0-16.65,0-36.54-3.05-52.97.07-6.71,1.27-8.13,5.27-13.01,9.56-3.18,2.79-7.71,3.72-9.34,7.74-.3.73.09,1.67-.07,2.41-1.07,4.97,0,11.4,0,16.45,0,25.78,0,51.56-.01,77.34-.01,93.8-.03,187.61-.04,281.41-.02,119.33-.03,238.65-.05,357.98-.02,107.25-.03,214.49-.05,321.74,0,59.17-.02,118.35-.03,177.52,0,2.7,0,5.4,0,8.1,0,1.31.71,2.58,1.86,3.24,18.09,10.37,36.17,20.74,54.26,31.1v-6.48c-23.43,17.95-39.17,35.25-49.03,63.56-3.16,9.06-6.46,18.65-7.1,28.28-1.02,15.51,0,31.44,0,46.97-.01,77.52-.02,155.04-.03,232.56-.02,106.76-.03,213.53-.05,320.29-.01,97.08-.03,194.16-.04,291.24,0,32.62,0,65.24-.01,97.86,0,14.62-3.08,33.14,0,47.55.14.64,0,1.45,0,2.11,0,2.03,1.72,3.75,3.75,3.75h2087.64c27.83,0,56.9,2.44,84.65,0,1.22-.11,2.49,0,3.72,0,2.02,0,3.75-1.72,3.75-3.75-.17-73.86-.35-147.72-.52-221.57-.01-4.83-7.51-4.83-7.5,0,.17,73.86.35,147.72.52,221.57l3.75-3.75H296.42c-8.35,0-20.58-2.32-28.68,0-1.05.3-2.6,0-3.72,0l3.75,3.75c.02-129.67.04-259.34.06-389.01.03-190.56.06-381.12.08-571.68,0-23.63,0-47.26.01-70.89,0-3.55.07-8.65.28-10.08,2.16-14.89,8.49-30.88,15.44-44.01,8.74-16.52,22.15-27.12,36.7-38.26,2.14-1.64,2.68-4.94,0-6.48-10.9-6.25-21.8-12.5-32.7-18.74-5.48-3.14-11.95-8.5-18.01-10.32-4.43-1.33-2.27-2.51-1.69.92-.82-4.88,0-10.61,0-15.54,0-30.73,0-61.46.01-92.19.02-117.13.03-234.27.05-351.4.02-140.84.04-281.67.06-422.51.01-102.02.03-204.03.04-306.05,0-12.6,0-25.21,0-37.81,0-4.68-1.36-11.71,0-16.24-.71,2.36-.61,1.73,3.6-.79,5.01-2.99,7.23-8.48,12.95-9.99,8.51-2.24,20.62,0,29.35,0h119.45c1.66,0,3.16-1.17,3.62-2.75,25.87-89.48,64.39-174.52,112.06-254.47,37.75-63.31,80.82-123.39,127.44-180.46,56.76-69.47,117.98-139.55,187.56-196.49,17.99-14.72,36.73-28.5,55.97-41.53,8.17-5.53,16.44-10.92,24.78-16.18s9.35-10.29,17.62-6.5c11.62,5.33,23.51,10.9,34.14,18.04,8.54,5.73,11.28,12.43,17,.65,8.22-16.92,4.96-34.74,15.36-51.47,5.06-8.14,8.27-12.78,16.85-16.94,12.42-6.01,24.83-12.02,37.39-17.75,41.85-19.09,84.63-36.14,128.01-51.45,31.18-11.01,62.67-21.14,94.45-30.27,13.98-4.02,31.35-11.8,46.03-12.31,15.8-.54,35.99,7.62,51.72,11.46,26.3,6.42,52.43,13.54,78.31,21.51,170.13,52.4,326.47,143.51,446.36,276.43,1.38,1.53,3.9,1.34,5.3,0l.2-.19-6.4-2.65c2.2,35.37-15.24,68.75-36.46,95.93-2.28,2.92-.24,7.05,3.65,6.27,14.75-2.95,26.43-14.81,37.19-24.93,11.46-10.78,25.1-24.39,26.15-41.03.17-2.66-3.39-4.92-5.64-3.24-14.67,10.92-24.15,26.47-34.81,41.03l6.48,3.79c8.96-16.95,22.63-30.48,33.9-45.84,2.62-3.57-2.89-7.28-5.89-4.54-9.07,8.27-17.29,17.11-24.83,26.81-2,2.57-16.24,24.23-15.03,24.23l3.24,5.64c4.08-7.59,7.71-15.53,12.3-22.83,2.66-4.24,5.55-8.52,9.17-12.02,5.19-5.02,10.1-4.97,15.57-8.47-6.04,3.87-9,5.76-14,11.75-3.82,4.58-7.74,9.07-11.74,13.49-7.91,8.73-16.21,17.08-24.75,25.2l5.89,4.54c6.87-14.59,23.75-72.29,48.97-62.43,1.25.49,2.73-.12,3.65-.96l.5-.46h-5.3c119.09,129.78,224.53,276.65,287,442.5,9.43,25.03,17.78,50.44,25.21,76.13.46,1.59,1.95,2.75,3.62,2.75h136.98l-1.89-6.99-7.17,3.55c-4.34,2.15-.54,8.56,3.79,6.48,3.84-1.85,5.21-3.72,10.55-2.48l-1.65-6.27c-4.55,4.62-8.53,9.62-13.34,13.99-1.5,1.36-1.38,3.92,0,5.3,3.03,3.03,10.63,1.52,14.61,2.81,12.93,4.21,20.68,16.18,24.9,28.35,1.29,3.71,7.92,3.46,7.37-1-.6-4.78-1.2-9.55-1.79-14.33s-7.5-4.97-7.5,0c0,46.4,0,92.8.01,139.2,0,110.85.02,221.69.02,332.54,0,134.04.02,268.08.03,402.12,0,116.36.02,232.71.03,349.07,0,38.07,0,76.14,0,114.21,0,12.06,0,24.12,0,36.18,0,4.78-1.87,14.18,0,18.66.25.59,0,1.75,0,2.42h7.5v-7.97c0-3.39-4.03-4.76-6.4-2.65-8.42,7.51-17.17,13.18-26.45,19.3-10.14,6.69-17.85,16.85-25.6,26-1.06,1.25-1.51,3.06-.59,4.54,14.19,22.77,10.08,55.46,31.05,73.67,16.25,14.11,16.88,34.5,17.25,54.77.35,19.29.85,38.57,1.21,57.86.52,27.18.71,54.44-.71,81.6-.33,6.23-.97,12.42-1.39,18.63-.15,2.16-2.1,7.33-.08,4.74h5.3c.8.81.88,3.22,1.13,1.47.68-4.64-5.92-6.78-7.23-1.99-3.36,12.23-15.56,14.66-14.46,29.5,1.19,16.04,16.46,25.33,17.22,41.75.95,20.65-7.84,39.87-9.78,60.16-.52,5.46-.64,8.71,1.71,13.61,1.66,3.46,4.61,6.32,6.56,9.61,5.02,8.45,1.26,15.48-2.14,23.84-6.8,16.72-7.41,33.3-8.07,51.45-.87,23.98-1.23,48.17.59,72.11,3.4,44.72,12.54,88.71,12.93,133.69.04,4.82,7.54,4.84,7.5,0h0Z"/><line class="cls-3" x1="264.36" y1="3279.68" x2="132.28" y2="3323.06"/><path class="cls-2" d="m263.37,3276.06c-38.57,12.67-77.14,25.34-115.7,38.01-5.46,1.79-10.92,3.59-16.38,5.38-4.56,1.5-2.61,8.74,1.99,7.23,38.57-12.67,77.14-25.34,115.7-38.01,5.46-1.79,10.92-3.59,16.38-5.38,4.56-1.5,2.61-8.74-1.99-7.23h0Z"/><line class="cls-3" x1="2439.85" y1="3279.51" x2="2571.93" y2="3322.9"/><path class="cls-2" d="m2438.85,3283.13c38.57,12.67,77.14,25.34,115.7,38.01,5.46,1.79,10.92,3.59,16.38,5.38,4.6,1.51,6.57-5.73,1.99-7.23-38.57-12.67-77.14-25.34-115.7-38.01-5.46-1.79-10.92-3.59-16.38-5.38-4.6-1.51-6.57,5.73-1.99,7.23h0Z"/><path class="cls-2" d="m135.73,3460.88c-33.49,12.68-66.98,25.36-100.47,38.03-4.81,1.82-9.62,3.64-14.43,5.46-4.47,1.69-2.53,8.95,1.99,7.23,33.49-12.68,66.98-25.36,100.47-38.03,4.81-1.82,9.62-3.64,14.43-5.46,4.47-1.69,2.53-8.95-1.99-7.23h0Z"/><path class="cls-2" d="m2566.48,3467.95c38.57,12.67,77.14,25.34,115.7,38.01,5.46,1.79,10.92,3.59,16.38,5.38,4.6,1.51,6.57-5.73,1.99-7.23-38.57-12.67-77.14-25.34-115.7-38.01-5.46-1.79-10.92-3.59-16.38-5.38-4.6-1.51-6.57,5.73-1.99,7.23h0Z"/><path class="cls-2" d="m263.07,3282.34c284.39,0,568.78,0,853.16,0,282.94,0,565.87,0,848.81,0h476.1c4.83,0,4.83-7.5,0-7.5-283.48,0-566.96,0-850.45,0s-565.87,0-848.81,0c-159.61,0-319.21,0-478.82,0-4.83,0-4.83,7.5,0,7.5h0Z"/><g class="cls-1"><path class="cls-3" d="m357.9,3186.22l.32-2230.1h146.25l19.25-66.78c9.1-31.55,19.4-61.38,31.51-91.17,16.73-41.16,37.3-83.13,61.14-124.74,64.43-112.44,154.7-226.26,268.3-338.3,67.71-66.79,172.81-129.47,303.93-181.28,73.47-29.03,136.58-47.23,166.94-55.34,44.21,9.9,119.71,28.66,200.25,62.36,104.42,43.69,194.34,102.31,267.28,174.25,113.6,112.04,203.87,225.87,268.3,338.3,54.87,95.75,79.16,169.08,92.65,215.91l19.25,66.78h145.72l.16,2230.1H357.9Z"/><path class="cls-3" d="m361.65,3186.22c0-19.93,0-39.87,0-59.8,0-53.92.02-107.84.02-161.76.01-80.11.02-160.21.03-240.32.01-97.28.03-194.56.04-291.85.02-107.07.03-214.14.05-321.22.02-108.09.03-216.19.05-324.28.01-100.33.03-200.66.04-300.99.01-85.21.02-170.42.04-255.63,0-61.25.02-122.5.03-183.75,0-18.9,0-37.79,0-56.69,0-9.15,2.05-21.05,0-30.02-.26-1.13,0-2.61,0-3.79l-3.75,3.75h146.25c1.66,0,3.16-1.17,3.62-2.75,15.59-54.09,30.37-108.36,51.82-160.53,35.99-87.54,85.01-169.33,140.98-245.49,57.7-78.51,122.83-153.26,193.63-220.26,60.16-56.92,133.26-99.74,207.6-135.32,78.71-37.67,161.34-67.81,245.46-90.95,14.29-3.93,30.49,2.95,44.58,6.5,19.67,4.95,39.22,10.35,58.63,16.24,47.08,14.28,93.31,31.43,137.92,52.18,81.47,37.9,157.68,87.56,222.8,149.66,71.2,67.91,137.09,142.67,195.35,221.95,53.05,72.2,100.01,149.49,135.36,231.94,21.22,49.48,36.27,100.65,51.15,152.26,2.1,7.27,4.19,14.55,6.29,21.82.46,1.59,1.95,2.75,3.62,2.75h145.72l-3.75-3.75c0,19.93,0,39.87,0,59.8v161.76c.02,80.11.02,160.21.03,240.32,0,97.28.01,194.56.02,291.85,0,107.07.02,214.14.02,321.22,0,108.09.02,216.19.02,324.28,0,100.33.01,200.66.02,300.99,0,85.21.01,170.42.02,255.63,0,61.25,0,122.5.01,183.75,0,18.9,0,37.79,0,56.69,0,9.15-2.04,21.05,0,30.02.26,1.13,0,2.61,0,3.79l3.75-3.75H439.45c-25.67,0-52.65-2.4-78.24,0-1.08.1-2.23,0-3.32,0-4.83,0-4.83,7.5,0,7.5h1909.7c25.67,0,52.65,2.4,78.24,0,1.08-.1,2.23,0,3.32,0,2.03,0,3.75-1.72,3.75-3.75,0-19.93,0-39.87,0-59.8v-161.76c-.02-80.11-.02-160.21-.03-240.32,0-97.28-.01-194.56-.02-291.85,0-107.07-.02-214.14-.02-321.22,0-108.09-.02-216.19-.02-324.28,0-100.33-.01-200.66-.02-300.99,0-85.21-.01-170.42-.02-255.63,0-61.25,0-122.5-.01-183.75,0-28.58,2.22-58.18,0-86.71-.1-1.25,0-2.54,0-3.79,0-2.03-1.72-3.75-3.75-3.75h-116.28c-7.57,0-20.92-2.67-28.1,0-2.92,1.09,2.02.26,2.23,2.58-.14-1.54-1.09-3.01-1.31-4.54-.96-6.62-3.9-13.51-5.75-19.94-3.91-13.56-7.8-27.12-11.72-40.67-10.21-35.28-22.23-69.94-36.49-103.8-44.7-106.11-108.13-203.59-180.12-293.11s-158.04-184.48-257.6-251.61c-97.51-65.75-208-109.49-321.72-137.97-9.71-2.43-19.46-4.75-29.22-6.98-7.93-1.81-12.31-.4-20.16,1.78-21.66,6.01-43.17,12.55-64.53,19.52-57.88,18.88-114.8,40.91-169.96,66.71-51.25,23.97-101.16,51.3-147.61,83.69-42.96,29.96-80.27,65.12-116.53,102.79-83.18,86.39-159.55,180.4-220.99,283.61-32.05,53.85-59.94,110.28-81.73,169.06-13.35,36-23.62,72.93-34.24,109.79-1.51,5.22-5.18,12.47-5.16,17.92,0,1.88-2.77,5.16.66,2.45s1.07-.58-.19-1.29c-2.04-1.16-8.26,0-10.56,0h-133.67c-2.03,0-3.75,1.72-3.75,3.75,0,19.93,0,39.87,0,59.8,0,53.92-.02,107.84-.02,161.76-.01,80.11-.02,160.21-.03,240.32-.01,97.28-.03,194.56-.04,291.85-.02,107.07-.03,214.14-.05,321.22-.02,108.09-.03,216.19-.05,324.28-.01,100.33-.03,200.66-.04,300.99-.01,85.21-.02,170.42-.04,255.63,0,61.25-.02,122.5-.03,183.75,0,28.58-2.23,58.18-.01,86.71.1,1.25,0,2.54,0,3.79,0,4.83,7.5,4.83,7.5,0Z"/></g><path class="cls-2" d="m1898.6,405.43c-9.63,10-20.73,18.32-31.94,26.44-1.26.92-2.33,2.59-1.72,4.23,4.4,11.91-3.95,20.91-10.58,29.98-.73,1-.69,2.78,0,3.79,11.51,16.74,11.62,36.03,10.28,55.57-.33,4.82,7.17,4.8,7.5,0,1.43-20.8.93-41.57-11.3-59.36v3.79c7.92-10.85,16.53-21.67,11.33-35.76l-1.72,4.23c11.72-8.49,23.39-17.17,33.46-27.62,3.35-3.48-1.95-8.79-5.3-5.3h0Z"/><path class="cls-2" d="m1871.85,428.32c-10.19-4.3-23.18,2.04-32.79,5.51-6.66,2.41-13.07,4.83-19.2,8.46-7.56,4.48-14.63,9.73-22.21,14.19-4.16,2.45-.39,8.93,3.79,6.48,12.58-7.41,23.75-16.28,37.65-21.19,5-1.76,9.94-3.67,15.02-5.17,3.78-1.11,10.02-3.47,13.96-1.81,4.39,1.85,8.22-4.6,3.79-6.48h0Z"/><path class="cls-2" d="m958.1,167.67c5.94,0,5.95-9.24,0-9.24s-5.95,9.24,0,9.24h0Z"/><path class="cls-2" d="m2441.2,894.18c5.21-.95,2.22,2.14,2.29,0,.03-.76-.45-1.76-.6-2.54-.37-1.92-.58-3.87-.86-5.8-.64-4.52-1.52-6.61-6.01-8.19-8.35-2.94-17.64-4.56-26.48-4.93-5.96-.25-5.9,8.89,0,9.24,7.03.42,15.32,1.38,19.83,7.48s5.54,14.81,6.97,22.04c1.07,5.43,8.66,3.64,9.07-1.23.75-8.78,2.5-19.59-3-27.26-3.43-4.79-11.45-.18-7.98,4.66,4.39,6.13,2.33,15.57,1.74,22.59l9.07-1.23c-1.8-9.08-3.43-19.24-9.64-26.52s-16.68-9.23-26.07-9.78v9.24c8.74.37,17.96,2.16,26.1,5.39l-3.23-3.23c1.39,6.62.84,20.88,11.24,18.98,5.84-1.07,3.37-9.97-2.46-8.91h0Z"/><path class="cls-2" d="m2427.23,2627.25c-6.27,8.95-14.09,16.88-24.65,20.46-9.42,3.19-19.53,3.37-29.37,3.84-13,.62-25.84,1.75-38.59,4.46-14.15,3.01-27.98,7.32-41.98,10.91-16.55,4.24-33.24,7.13-50.38,6.38-4.83-.21-4.82,7.29,0,7.5,31.28,1.37,60.26-9.76,90.27-16.65,14.1-3.24,28.19-4.5,42.6-5.19,10.18-.49,20.76-.85,30.43-4.37,12.07-4.38,20.9-13.21,28.14-23.56,2.77-3.96-3.73-7.72-6.48-3.79h0Z"/><path class="cls-2" d="m2256.93,2673.44c-14.37-5.72-29.49-5.02-43.09,2.44s-23.92,19.33-33.27,31.2c-9.8,12.43-18.67,25.35-27.42,38.53-4.81,7.25-9.75,14.56-15.84,20.82-5.07,5.21-10.8,8.42-17.58,10.91-16.59,6.09-34.28,9.03-50.47,16.25-4.4,1.96-.59,8.43,3.79,6.48,14.13-6.3,29.67-9.11,44.32-13.98,6.15-2.04,12.58-4.28,17.93-8.03,5.81-4.07,10.47-9.51,14.76-15.09,18.97-24.68,33.2-53.98,57.79-73.97,13.97-11.37,30.12-15.08,47.11-8.32,4.49,1.78,6.43-5.47,1.99-7.23h0Z"/><path class="cls-2" d="m2335.42,2660.71c-15.15,16.85-27.72,35.94-44.49,51.33-3.56,3.27,1.75,8.56,5.3,5.3,16.76-15.39,29.34-34.48,44.49-51.33,3.22-3.58-2.07-8.9-5.3-5.3h0Z"/><path class="cls-2" d="m2290.75,2714.04c.05,19.8-.19,39.64,3.56,59.17.91,4.73,8.14,2.73,7.23-1.99-3.62-18.85-3.24-38.07-3.29-57.18-.01-4.83-7.51-4.83-7.5,0h0Z"/><path class="cls-2" d="m2253.29,2674.4c-13.99,12.37-26.23,26.67-41.28,37.86-3.35,2.49-7.67,3.84-7.96,8.37-.47,7.33.01,14.81-.25,22.17-.52,14.62-1.69,29.2-2.94,43.77-.41,4.81,7.09,4.78,7.5,0,1.91-22.26,3.52-44.55,3.18-66.91l-1.86,3.24c18.63-11.47,32.68-28.83,48.91-43.19,3.62-3.2-1.7-8.49-5.3-5.3h0Z"/><path class="cls-2" d="m2284.31,2666.59c-13.93-2.41-25.43-13.83-36.95-21.25-5.43-3.5-11.34-5.86-16.9-9.09-2.01-1.17-3.97-2.87-6.4-3.02s-4.63,1.2-6.75,2.03c-7.09,2.76-14.47,4.63-21.57,7.35-15.58,5.98-30.36,13.93-46.88,17.14-4.73.92-2.73,8.15,1.99,7.23,15.95-3.1,30.27-10.61,45.27-16.51,7.01-2.76,14.29-4.66,21.35-7.28,1.68-.62,3.36-1.27,5.02-1.98,1.27-.54,1.81-.33.82-.57-.77-.18,1.15.74,1.68,1.06,1.64,1,3.3,1.95,5.01,2.81,6.05,3.04,11.82,6.03,17.43,9.87,10.7,7.31,21.72,17.16,34.89,19.44,4.72.82,6.75-6.41,1.99-7.23h0Z"/><path class="cls-2" d="m2389.46,2328.52c7.47,6.52,14.92,12.6,23.57,17.51,1.88,1.07,5.15.23,5.51-2.24,1.38-9.52,8.51-15.4,13.85-22.84,5.84-8.14,7.59-17.95,11.07-27.15,1.71-4.52-5.54-6.47-7.23-1.99-3.73,9.85-5.6,19.69-12.43,28.07-5.5,6.75-11.2,12.97-12.49,21.92l5.51-2.24c-8.1-4.6-15.05-10.23-22.05-16.33-3.62-3.16-8.95,2.12-5.3,5.3h0Z"/><path class="cls-2" d="m2410.47,2344.02c3.99,13.41,9.17,26.44,13.18,39.84s7.85,28.5,5.81,42.87c-.83,5.81,8.07,8.33,8.91,2.46,4.32-30.36-10.55-59.29-18.99-87.62-1.69-5.68-10.61-3.26-8.91,2.46h0Z"/><path class="cls-2" d="m300.51,2146.29c-15.13,7.04-23.56,24.99-29.23,39.69-6.25,16.21-10.91,34.45-10.27,51.95.15,4.01,6.65,5.36,7.37,1,3.63-22.09,9.11-43.88,17.74-64.57,1.63-3.92-4.93-6.64-6.85-2.89-10.47,20.35-13.27,43.39-18.12,65.47l7.37,1c-.89-7.9.04-16.13.91-24,.99-8.96,2.28-18.09,5.02-26.71,2.51-7.93,6.25-15.25,12.59-20.77,6.68-5.81,15.19-9.54,23.01-13.51l-4.54-5.89c-11.85,10.86-23.1,22.27-31.63,35.99-2.41,3.88,2.77,7.03,5.89,4.54,11.12-8.86,20.17-20.27,26.95-32.73,2.38-4.37-3.61-7.51-6.48-3.79-10,13.01-23.84,22.55-31.57,37.34l6.85,2.89c4.9-15.85,19.69-31.43,35.7-36.18,4.63-1.37,2.71-8.33-1.99-7.23-19.65,4.61-30.88,25.77-37.71,42.95-7.36,18.51-12.79,40.27-10.98,60.34.43,4.77,7.93,4.81,7.5,0-1.66-18.36,3.09-37.84,9.41-54.94,5.8-15.7,15.77-36.9,33.77-41.12l-1.99-7.23c-18.56,5.5-35.26,23.05-40.93,41.42-1.24,4.02,4.87,6.68,6.85,2.89,7.65-14.65,21.62-24.4,31.57-37.34l-6.48-3.79c-6.51,11.96-15.1,22.71-25.77,31.21l5.89,4.54c8.19-13.18,19.07-24.05,30.45-34.48,3.27-2.99-.89-7.75-4.54-5.89-8.32,4.23-16.97,8.26-24.14,14.35-6.76,5.74-11.06,13.43-14.01,21.7-3.21,9-4.62,18.57-5.8,28.01-1.12,8.95-2.32,18.39-1.31,27.41.43,3.87,6.38,5.48,7.37,1,4.69-21.37,7.23-43.99,17.36-63.68l-6.85-2.89c-8.63,20.69-14.11,42.49-17.74,64.57l7.37,1c-.58-16.05,3.61-32.56,9.09-47.52,5.01-13.69,12.64-31.1,26.7-37.64,4.37-2.04.57-8.5-3.79-6.48h0Z"/><path class="cls-2" d="m322.01,2153.14c12.94-4.96,25.4-15.55,39.82-15.08,13.17.43,25.55,6.54,38.82,6.44,12.37-.1,21.04-6.72,28.16-16.29,3.82-5.14,7.13-10.67,11.46-15.42,3.87-4.24,8.38-7.05,13.54-9.48,8.98-4.24,24.03-7.8,27.54-18.44,1.52-4.59-5.72-6.56-7.23-1.99-1.24,3.75-6.57,5.92-9.8,7.51-4.88,2.4-9.97,4.37-14.87,6.72-10.21,4.88-16.74,12.54-23.12,21.69-3.28,4.71-6.54,9.65-11.06,13.29-5.03,4.06-11.11,5.21-17.44,4.84-12.21-.72-23.73-5.96-36-6.36-15.5-.5-28,10.05-41.81,15.35-4.46,1.71-2.52,8.96,1.99,7.23h0Z"/><path class="cls-2" d="m403.12,2136.82c-.77-11.4,3.06-22.47,2.12-33.88-.39-4.78-7.9-4.82-7.5,0,.94,11.41-2.89,22.48-2.12,33.88.32,4.79,7.82,4.83,7.5,0h0Z"/><path class="cls-2" d="m407.62,2104.06c7.74-5.07,15.76-11.29,24.52-14.45,4.51-1.62,2.56-8.87-1.99-7.23-9.45,3.41-17.97,9.73-26.31,15.2-4.02,2.64-.27,9.13,3.79,6.48h0Z"/><path class="cls-2" d="m434.89,2081.76c.53-8.28-1.62-17.15-3.14-25.23s-2.63-16.06-5.84-23.26c-1.96-4.4-8.43-.59-6.48,3.79,2.66,5.96,3.8,14.65,5.08,21.46,1.41,7.47,3.36,15.58,2.88,23.23-.31,4.82,7.19,4.8,7.5,0h0Z"/><path class="cls-2" d="m444.46,2103.93c3.76,9.21,9.39,17.86,12.57,27.27s-.79,18.52-4.93,27.02c-.82,1.68-.52,3.13.59,4.54,6.04,7.77,11.24,16.24,18.15,23.3,3.38,3.45,8.68-1.85,5.3-5.3-6.9-7.05-12.12-15.53-18.15-23.3l.59,4.54c4.54-9.32,8.92-19.46,6.5-30s-9.32-20.14-13.38-30.07c-1.8-4.41-9.06-2.48-7.23,1.99h0Z"/><path class="cls-2" d="m320.48,2152.18c11.18,13.67,19.86,28.98,27.2,44.99l2.24-5.51c-10.06,3.17-15.95,10.6-13.31,21.32,2.42,9.83,9.42,18.32,15.64,26.03,3.03,3.76,8.31-1.58,5.3-5.3-4.66-5.78-9.46-11.88-12.38-18.77-3.27-7.74-1.65-13.4,6.74-16.04,2.48-.78,3.27-3.27,2.24-5.51-7.63-16.64-16.77-32.31-28.37-46.51-3.06-3.74-8.33,1.59-5.3,5.3h0Z"/><path class="cls-2" d="m1889.28,424.05c5.65-5.89,8.84-13.47,14.16-19.58s11.82-10.99,16.86-17.35,8.52-13.66,12.01-20.97c1.56-3.26,3.14-6.62,5.85-9.12,3.24-2.99,7.56-4.68,11.19-7.13l-4.54-5.89c-2.65,2.7-6.03,4.52-8.65,7.25-2.05,2.14-3.72,4.67-5.27,7.18-4.24,6.88-7.78,14.02-12.49,20.62-2.14,3.01-4.5,5.93-6.42,9.09s-3.09,6.38-4.95,9.4c-3.38,5.51-8,10.82-14.11,13.28-4.42,1.78-2.49,9.04,1.99,7.23,5.46-2.2,10.13-5.53,13.72-10.17,4.77-6.18,7.72-13.14,12.22-19.46,4.81-6.74,9.34-13.39,13.34-20.65,2.01-3.65,3.98-7.53,6.77-10.66s6.34-4.94,9.16-7.82-.91-8.34-4.54-5.89c-6.31,4.26-12.8,6.97-16.99,13.68-4.48,7.18-7.12,15.33-11.92,22.38s-12.05,12.61-17.95,19.06-8.92,14.14-14.74,20.19c-3.34,3.48,1.95,8.79,5.3,5.3h0Z"/><path class="cls-2" d="m1032.37,117.78c-10.32,7.18-24.32,10.12-32.04,20.68-8.49,11.6-6.89,28.32-8.56,41.86-.72,5.89,8.52,5.83,9.24,0,1.41-11.5-.47-27.67,7.34-37.19,7.03-8.57,19.8-11.19,28.68-17.37,4.84-3.37.23-11.38-4.66-7.98h0Z"/><path class="cls-4" d="m2572.55,3374.92c-1.05-8.88-4.1-21.84-6.92-30.46-18.46.79-74.03-7.31-82.01-23.48-19.52,16.21-42.97,5.28-64.49,2.32,30.67-6.7,74.15-9.7,108.13-4.32,6.2.98,39.31,9.55,44.88,11.18l.41,44.76Z"/><path class="cls-2" d="m2576.3,3374.92c-1.35-10.66-3.77-21.23-7.06-31.46-.49-1.53-1.93-2.81-3.62-2.75-14.24.52-28.9-1.89-42.75-4.98-7.67-1.71-15.39-3.76-22.62-6.87-4.88-2.1-10.79-4.85-13.39-9.77-1.24-2.34-4.1-2.18-5.89-.76-17.96,14.26-40.83,4.27-60.84,1.35v7.23c31.23-6.72,64.23-8.88,96.03-5.62,18.56,1.9,37.1,7.3,54.98,12.48l-2.75-3.62c.14,14.92.28,29.84.41,44.76.04,4.82,7.54,4.84,7.5,0-.14-14.92-.28-29.84-.41-44.76-.02-1.67-1.16-3.15-2.75-3.62-18.57-5.37-37.71-10.77-56.98-12.75-32.46-3.32-66.15-.97-98.02,5.89-3.45.74-3.7,6.69,0,7.23,23.48,3.42,47.27,13.29,68.14-3.28l-5.89-.76c2.93,5.53,8.77,9.05,14.25,11.63,7.6,3.58,15.72,5.99,23.88,7.91,15.17,3.58,31.46,6.36,47.11,5.79l-3.62-2.75c3.07,9.56,5.52,19.5,6.79,29.47.6,4.72,8.11,4.78,7.5,0Z"/><path class="cls-2" d="m1540.64,3326.81c21.45-.15,42.47,2.8,63.53,6.64,19.28,3.52,40.72,4.78,58.8,12.56,11.94,5.14,23.21,13.22,36.52,14.19,13.76,1.01,25.07-4.98,37.21-10.43,35.71-16.02,79-10.51,117.01-17.33,42.83-7.69,85.5-2.67,128.64-5.63l-1-7.37c-17.57,5.85-35.37,8.22-53.82,8.98-15.81.65-33.82-1.13-48.94,4.3-11.3,4.06-21.25,14.3-33.61,14.72-8.32.28-16.02-4.14-24.03-5.64s-16.97-.93-25.31-.07c-14.97,1.54-29.88,5.26-45.01,4.74-9.57-.33-18.1-3.39-27.17-5.84-22.24-6.02-44.95-10.5-67.7-14.06-47.04-7.35-93.91-7.27-141.26-7.27H205.71c-23.38,0-47.1-1.16-70.46,0-1.06.05-2.13,0-3.19,0-2.03,0-3.75,1.72-3.75,3.75v141.11c0,2.03,1.72,3.75,3.75,3.75h2341.02c31.62,0,63.28.41,94.9,0,1.38-.02,2.77,0,4.15,0,2.03,0,3.75-1.72,3.75-3.75v-141.11c0-2.03-1.72-3.75-3.75-3.75h-613.07c-4.83,0-4.83,7.5,0,7.5h613.07l-3.75-3.75v141.11l3.75-3.75H168.85c-10.56,0-22.14-1.34-32.63,0-1.34.17-2.8,0-4.15,0l3.75,3.75v-141.11l-3.75,3.75h1365.17c22.97,0,46.01-.67,68.96-.5,53.85.42,109.73,7.8,161.48,23.31,27.72,8.31,52.42-1.08,80.46-1.19,14.09-.06,27.54,8.55,41.55,6.03,12.52-2.26,21.99-12.16,34.1-15.55,16.2-4.54,35.16-2.35,51.87-3.37,16.33-1,32.13-3.68,47.68-8.86,3.81-1.27,3.44-7.67-1-7.37-40.48,2.77-81.41-2.86-121.59,4.14-21.11,3.68-42.03,5.81-63.39,7.5-17.7,1.39-36.8,2.29-53.76,8-14.7,4.95-27.88,15.18-44.13,13.76s-29.16-13.14-44.21-17.51c-17.77-5.16-37.41-6.96-55.66-10.15-19.55-3.43-39.1-5.87-58.99-5.73-4.82.03-4.84,7.53,0,7.5h0Z"/><path class="cls-2" d="m8.26,3539.47c2.24-10.02,2.87-26.42,15.88-28.05,6.01-.75,12.47.12,18.47.68,8.23.76,16.47.47,24.71.97,4.82.29,4.8-7.21,0-7.5-8.98-.55-17.94-.4-26.91-1.17-6.84-.59-14.77-1.71-21.42.5-13.85,4.61-15.24,20.42-17.96,32.58-1.05,4.7,6.18,6.71,7.23,1.99h0Z"/><path class="cls-4" d="m580.98,3528.23c27.73.17,55.2,4.11,82.85,5.62,27.74,1.52,55.23-2.21,82.95-1.9,9.35.11,14.39-14.42,5.05-18.63-12.94-5.84-27.3-5.55-41.2-4.63-15.91,1.06-31.82,2.15-47.72,3.25-18.13,1.25-36.2,1.79-54.32-.05-13.1-1.33-26.59-8.89-39.85-4.78-12.25,3.8-7.02,23.11,5.32,19.29,4.26-1.32,10.49.66,15.55,1.98,6.64,1.74,13.11,2.94,19.96,3.61,17.15,1.66,34.27,1.24,51.44.08,15.11-1.02,30.24-1.94,45.34-3.07,10.93-.81,25.59-2.83,35.38,1.59l5.05-18.63c-27.72-.31-55.2,3.41-82.95,1.9s-55.13-5.45-82.85-5.62c-12.87-.08-12.89,19.92,0,20h0Z"/><path class="cls-5" d="m824.64,3509.32c-30.1,5.37-59.19,3.32-88.39,10.77-5.03,1.28-15.59,7.45-20.25,7.48-9.18.05-14.63-9.36-22.54-9.64-13.53-.48-27.04,5.17-34.91,15.82-22.84-17.93-26.21.36-48.24-3.84-14.3-2.72-55.48-24.96-71.15-20.58H22.59c-10.16,0-18.39,8.23-18.39,18.39v122.72h2695.8v-141.11H824.64"/><path class="cls-2" d="m823.64,3505.71c-33.78,5.6-68.51,2.89-100.68,15.8-12.53,5.03-22.24-8.33-35.57-7.09-12.6,1.17-23.46,6.98-31.5,16.68l4.54-.59c-7.26-5.3-14.62-9.54-23.86-8.2-11.32,1.64-19.04,6.15-30.96,2.42-19-5.95-36.94-17.06-56.99-19.36-10.01-1.15-21.52.21-31.67.21H142.4c-39.37,0-79.13-1.61-118.48,0-29.2,1.2-23.47,33.67-23.47,53.95v90.9c0,2.03,1.72,3.75,3.75,3.75h1299.38c130.95,0,261.9,0,392.84,0,121.26,0,242.53,0,363.79,0h530.35c34.94,0,69.91.42,104.85,0,1.53-.02,3.06,0,4.58,0,2.03,0,3.75-1.72,3.75-3.75v-141.11c0-2.03-1.72-3.75-3.75-3.75H901.14c-24.13,0-49.26-2.01-73.33,0-1.04.09-2.13,0-3.17,0-4.83,0-4.83,7.5,0,7.5h1847c7.59,0,17.76,1.78,25.19,0,.94-.23,2.19,0,3.17,0l-3.75-3.75v141.11l3.75-3.75H44.84c-11.65,0-24.47-1.51-36.05,0-1.47.19-3.09,0-4.58,0l3.75,3.75v-115.73c0-10.56,1.94-20.13,15.68-21.62,11.38-1.24,23.59,0,35.02,0h445.19c11.71,0,23.55.49,35.25,0,20.21-.85,38.72,9.18,57.29,16.25,8,3.04,15.88,5.69,24.56,4.71,4.59-.52,8.63-2.3,13.05-3.41,8.99-2.25,15.34,1,22.67,6.36,1.23.9,3.57.59,4.54-.59,5.61-6.76,12.5-11.59,21.23-13.66,9.99-2.37,14.49.62,22.59,5.12s14.32,3.31,22.86-.32c30.31-12.89,65.64-9.27,97.75-14.59,4.75-.79,2.74-8.02-1.99-7.23h0Z"/><path class="cls-2" d="m541.61,3512.77c19.71-.17,39.34-3.01,59.07-2.37,18.38.6,36.29,6.38,54.73,5.85,9.88-.28,19.51-2.95,29.33-3.94s19.88-1.22,29.84-1.05c19.64.34,39.21,2.24,58.84,2.78,22.99.64,46.01-.54,69-.56,4.83,0,4.83-7.51,0-7.5-20.41.02-40.81.86-61.22.71s-39.28-2.02-58.94-2.72c-9.94-.35-19.89-.41-29.82.21-9.93.63-19.51,2.49-29.32,3.92-18.48,2.69-36.69-3.19-54.99-4.77-22.17-1.91-44.36,1.74-66.52,1.94-4.82.04-4.84,7.54,0,7.5h0Z"/></g></svg>