<svg width="379" height="233" viewBox="0 0 379 233" fill="none" xmlns="http://www.w3.org/2000/svg">
<path d="M368.802 129.27C354.922 121.82 338.732 119.97 323.522 124.07C308.872 128.02 291.072 132.4 281.972 133.05C264.882 134.27 297.162 153.82 297.162 153.82L368.802 129.27Z" fill="#EFB68B" stroke="#3B65EE" stroke-width="2.5" stroke-miterlimit="10" stroke-linecap="round" stroke-linejoin="round"/>
<path d="M10.6309 129.27C24.5109 121.82 40.7009 119.97 55.9109 124.07C70.5609 128.02 88.3608 132.4 97.4608 133.05C114.551 134.27 82.2708 153.82 82.2708 153.82L10.6309 129.27Z" fill="#EFB68B" stroke="#3B65EE" stroke-width="2.5" stroke-miterlimit="10" stroke-linecap="round" stroke-linejoin="round"/>
<path d="M33.8018 136.22C35.1218 138.54 69.6318 196.69 189.712 196.69C309.792 196.69 344.302 138.54 345.712 136.06C347.102 133.5 349.052 131.44 351.322 129.96C345.822 132.75 303.242 151.47 189.712 151.47C69.6318 151.47 28.9218 130.53 27.6018 129.7L27.5918 129.74C30.1118 131.26 32.2918 133.44 33.8018 136.22Z" fill="#EFB68B" stroke="#3B65EE" stroke-width="2.5" stroke-miterlimit="10" stroke-linecap="round" stroke-linejoin="round"/>
<path d="M304.441 184.51L189.441 215.26L74.4414 184.51V107.99C74.4414 51.6301 114.981 10.2501 168.501 1.65009C175.291 0.560089 179.291 9.17005 189.441 9.17005C199.591 9.17005 203.611 0.560037 210.411 1.66004C263.911 10.27 304.441 51.6501 304.441 108V184.51Z" fill="#F7D3B5" stroke="#3B65EE" stroke-width="2.5" stroke-miterlimit="10" stroke-linecap="round" stroke-linejoin="round"/>
<path d="M209.441 1.65006H210.411C210.081 1.60006 209.761 1.61006 209.441 1.65006Z" fill="#B0C3EA" stroke="#B0C3EA" stroke-width="2.5" stroke-miterlimit="10" stroke-linecap="round" stroke-linejoin="round"/>
<path d="M168.5 1.65017H169.47C169.16 1.61017 168.84 1.59017 168.5 1.65017Z" fill="#B0C3EA" stroke="#B0C3EA" stroke-width="2.5" stroke-miterlimit="10" stroke-linecap="round" stroke-linejoin="round"/>
<path d="M189.449 30.4006C199.099 30.4006 203.209 2.48063 209.439 1.65063H208.039C202.539 2.52063 198.359 9.16058 189.439 9.16058C180.519 9.16058 176.349 2.51063 170.859 1.64062H169.469C175.699 2.48062 179.789 30.4006 189.449 30.4006Z" fill="#EFB68B" stroke="#EFB68B" stroke-width="2.5" stroke-miterlimit="10" stroke-linecap="round" stroke-linejoin="round"/>
<path d="M243.957 46.4125L110.561 101.401L135.45 161.781L268.846 106.792L243.957 46.4125Z" fill="white" stroke="#3B65EE" stroke-width="2.5" stroke-miterlimit="10" stroke-linecap="round" stroke-linejoin="round"/>
<path d="M304.441 127.93C280.271 135.12 242.251 141.38 189.891 141.38C133.951 141.38 98.5414 134.22 74.4414 126.45V184.5L184.311 214.39C186.181 214.42 189.931 214.5 191.831 214.5C191.971 214.5 190.171 214.49 190.311 214.49L304.441 184.49V127.93Z" fill="#F7D3B5" stroke="#3B65EE" stroke-width="2.5" stroke-miterlimit="10" stroke-linecap="round" stroke-linejoin="round"/>
<path d="M368.8 129.27C368.24 128.97 367.68 128.71 367.11 128.47L367.1 128.42C360.03 124.9 352.41 122.79 344.65 122.15C345.19 122.29 352.69 124.41 345.71 136.05C344.3 138.53 309.79 196.68 189.71 196.68C73.84 196.68 37.65 142.53 34.07 136.66C33.97 136.47 33.85 136.26 33.73 136.05C26.75 124.41 34.25 122.28 34.79 122.14C27.03 122.77 19.41 124.89 12.34 128.41L12.32 128.55C11.76 128.78 11.22 129.04 10.68 129.33C2.38997 133.82 -0.690037 144.18 3.79996 152.47C5.52996 155.67 47.88 230.82 189.72 230.82C331.56 230.82 373.91 155.67 375.64 152.47C380.12 144.19 377.09 133.76 368.8 129.27Z" fill="#F7D3B5" stroke="#3B65EE" stroke-width="2.5" stroke-miterlimit="10" stroke-linecap="round" stroke-linejoin="round"/>
<path d="M168.5 1.65009C175.29 0.560089 179.29 9.17005 189.44 9.17005C199.59 9.17005 203.61 0.560037 210.41 1.66004" stroke="#3B65EE" stroke-width="2.5" stroke-miterlimit="10" stroke-linecap="round" stroke-linejoin="round"/>
<path d="M294.798 159.83C286.388 162.54 277.768 164.57 269.078 166.18C264.738 166.99 260.358 167.65 255.988 168.28C251.608 168.87 247.218 169.35 242.818 169.8C238.418 170.19 234.008 170.52 229.608 170.8C225.198 171 220.788 171.23 216.368 171.27C207.538 171.43 198.708 171.27 189.898 170.67C198.708 170.03 207.488 169.53 216.268 168.93C225.038 168.32 233.798 167.67 242.538 166.81C246.908 166.42 251.278 165.95 255.638 165.46C257.818 165.23 259.998 164.95 262.178 164.7L268.708 163.87C277.418 162.71 286.088 161.33 294.798 159.83Z" fill="#3B65EE"/>
<path d="M148.88 154.88C143.78 155.12 138.68 154.98 133.6 154.64C131.06 154.5 128.53 154.23 125.99 153.98C123.46 153.7 120.94 153.35 118.42 153C115.91 152.59 113.39 152.17 110.89 151.7C108.4 151.18 105.9 150.69 103.43 150.05C98.4801 148.84 93.5801 147.39 88.8301 145.53C93.9001 146.18 98.9001 146.98 103.89 147.75L111.38 148.9C113.87 149.29 116.37 149.68 118.87 150.04L133.86 152.32C138.86 153.1 143.87 153.88 148.88 154.88Z" fill="#3B65EE"/>
</svg>
