<?xml version="1.0" encoding="UTF-8"?><svg id="Layer_1" xmlns="http://www.w3.org/2000/svg" viewBox="0 0 300 300"><defs><style>.cls-1{fill:#fff;}.cls-2{fill:#2b67f8;}</style></defs><circle class="cls-1" cx="150" cy="150" r="131.5"/><path class="cls-2" d="m277.75,150c-.28,53.08-33.88,101.96-84.04,120.09s-107.66,2.58-141.96-38.4c-34.49-41.22-38.91-101.72-11.17-147.66C68.11,38.44,122.73,14.2,175.01,24.69c51.81,10.39,92.65,52.85,101.15,104.98,1.1,6.72,1.55,13.52,1.59,20.33.03,4.82,7.53,4.83,7.5,0-.29-56.36-35.92-107.63-88.92-127.09-53.14-19.52-114.84-2.63-150.71,41.11C9.7,107.81,4.76,171.16,34.11,219.77s87.28,73.94,142.89,62.78c54.56-10.95,98.21-56.52,106.6-111.56,1.06-6.95,1.61-13.95,1.64-20.98.03-4.83-7.47-4.83-7.5,0Z"/><path class="cls-2" d="m55.44,236.02c15.06-25.94,39.74-45.45,69.01-52.68s61.31-1.3,86.41,15.91c14.02,9.61,25.48,22.48,33.94,37.19,2.41,4.18,8.89.41,6.48-3.79-15.94-27.71-42.43-48.79-73.62-56.51s-65.87-1.66-92.67,16.9c-14.79,10.24-26.99,23.67-36.01,39.21-2.43,4.18,4.05,7.96,6.48,3.79h0Z"/><circle class="cls-1" cx="150" cy="123.7" r="58.2"/><path class="cls-2" d="m204.45,123.7c-.27,22.77-14.5,43.68-36.18,51.32s-46.24.71-60.69-17.13-15.89-43.38-3.93-62.78,35.36-29.45,57.57-24.7c25.12,5.37,42.93,27.77,43.23,53.3.06,4.82,7.56,4.84,7.5,0-.3-25.77-16.22-49.01-40.44-58.1-24.28-9.11-52.8-1.44-69.23,18.61-16.44,20.06-18.86,48.98-5.44,71.31s39.63,33.79,65.06,28.97c28.98-5.49,49.71-31.64,50.05-60.8.06-4.83-7.44-4.83-7.5,0Z"/></svg>