<svg width="59" height="36" viewBox="0 0 59 36" fill="none" xmlns="http://www.w3.org/2000/svg">
<g clip-path="url(#clip0_9_718)">
<path d="M58.95 25.64C39.33 23.54 13.21 15.27 0 0C17.49 12.9 38.58 18.89 58.95 25.64Z" fill="#3B65EE"/>
<path d="M50.09 23.59C50.09 23.59 32.82 38.78 29.12 34.14C25.42 29.5 50.09 23.59 50.09 23.59Z" stroke="#3B65EE" stroke-width="0.74" stroke-miterlimit="10"/>
<path d="M32.25 32.23C36.06 29.89 40.08 27.99 44.32 26.57C40.52 28.92 36.49 30.8 32.25 32.23Z" fill="#3B65EE"/>
<path d="M25.01 16.49C25.01 16.49 4.44997 26.8 2.04997 21.38C-0.350029 15.96 25.01 16.49 25.01 16.49Z" stroke="#3B65EE" stroke-width="0.74" stroke-miterlimit="10"/>
<path d="M5.56995 20.31C9.84995 19.01 14.2199 18.2 18.6799 17.89C14.3999 19.2 10.0299 20 5.56995 20.31Z" fill="#3B65EE"/>
<path d="M35.07 18.97C35.07 18.97 16.3 5.67999 19.95 0.999992C23.61 -3.67001 35.07 18.96 35.07 18.96V18.97Z" stroke="#3B65EE" stroke-width="0.74" stroke-miterlimit="10"/>
<path d="M22.55 3.60999C25.71 6.76999 28.4801 10.25 30.85 14.04C27.69 10.88 24.92 7.39999 22.55 3.60999Z" fill="#3B65EE"/>
</g>
<defs>
<clipPath id="clip0_9_718">
<rect width="58.95" height="35.4" fill="white"/>
</clipPath>
</defs>
</svg>
