<?xml version="1.0" encoding="UTF-8"?><svg id="Layer_2" xmlns="http://www.w3.org/2000/svg" viewBox="0 0 79.68 53.51"><defs><style>.cls-1{fill:#fff6ae;}.cls-2{fill:#ffea5a;}</style></defs><g id="Layer_1-2"><path class="cls-1" d="m57.53,13.68c0,.45-.06.88-.17,1.3v.03c-.52,2.02-2.19,3.87-4.71,5.47-5.06,3.2-13.55,5.29-23.17,5.29s-18.1-2.09-23.16-5.29c-2.52-1.6-4.19-3.45-4.71-5.47-.11-.42-.17-.88-.17-1.33C1.44,7,14,1.59,29.48,1.59s28.05,5.41,28.05,12.09Z"/><path class="cls-2" d="m56.03,13.68c-.16,3.79-4.83,6.22-8.1,7.5-4.25,1.67-8.83,2.53-13.37,2.89-5.11.4-10.32.24-15.37-.66-4.01-.72-8.08-1.83-11.61-3.92-2.71-1.61-5.93-4.56-4.06-7.91,1.41-2.52,4.33-4.07,6.89-5.16,8.4-3.57,18.43-4.03,27.37-2.8,4.5.62,9.15,1.73,13.15,3.96,2.26,1.26,5.05,3.27,5.1,6.09.04,1.93,3.04,1.93,3,0-.06-3.26-2.26-5.76-4.79-7.56-3.52-2.51-7.89-3.88-12.08-4.76C32.04-.76,20.57-.56,10.8,3.07c-3.45,1.28-7.05,3.07-9.28,6.11s-1.85,7.05.75,9.93c3.07,3.4,7.86,5.19,12.18,6.34,5.48,1.45,11.25,1.96,16.91,1.8s11.89-1.01,17.37-3.17c4.56-1.79,10.07-4.91,10.3-10.39.08-1.93-2.92-1.93-3,0Z"/><path class="cls-1" d="m57.36,15.01v9.82c-1.53,6.04-13.43,10.76-27.88,10.76S3.14,30.88,1.61,24.84v-9.82c.52,2.02,2.19,3.87,4.71,5.47,5.06,3.2,13.54,5.29,23.16,5.29s18.12-2.09,23.17-5.29c2.52-1.6,4.19-3.45,4.71-5.47Z"/><path class="cls-2" d="m55.86,15.01v4.79c0,1.61.23,3.41,0,5.02.06-.4-.22.41-.31.59-.22.44-.51.86-.82,1.24-.77.92-1.73,1.68-2.75,2.32-2.68,1.71-5.72,2.77-8.78,3.54-7.92,1.99-16.54,2.15-24.56.63-3.33-.63-6.68-1.54-9.72-3.07-2.09-1.05-4.32-2.44-5.46-4.57-.1-.19-.17-.39-.27-.58-.13-.26-.11-.26-.09-.13-.03-.25,0-.52,0-.77v-9l-2.95.4c1.1,3.87,4.82,6.34,8.31,7.92,3.94,1.79,8.18,2.79,12.45,3.37,9.23,1.24,19.42.78,28.13-2.75,3.97-1.61,8.5-4.12,9.75-8.54.53-1.86-2.36-2.65-2.89-.8-.92,3.25-4.62,5.17-7.52,6.38-3.54,1.48-7.38,2.34-11.18,2.81-8.38,1.04-17.37.59-25.35-2.31-3.29-1.19-7.77-3.22-8.81-6.88-.46-1.62-2.95-1.31-2.95.4v5.29c0,1.66-.33,3.71.17,5.32.77,2.49,2.84,4.39,4.96,5.78,2.87,1.9,6.23,3.1,9.55,3.95,8.51,2.18,17.72,2.31,26.34.68,3.64-.69,7.27-1.75,10.58-3.45,2.41-1.23,4.83-2.93,6.25-5.3,1.15-1.93.92-3.85.92-6.01v-6.27c0-1.93-3-1.93-3,0Z"/><path class="cls-1" d="m78.18,36.63c0,.32-.04.61-.12.91v.02c-.38,1.42-1.61,2.71-3.46,3.83-3.71,2.25-9.94,3.71-17.01,3.71s-13.29-1.46-17-3.71c-1.85-1.12-3.08-2.41-3.46-3.83-.08-.3-.12-.61-.12-.93,0-4.68,9.22-8.47,20.58-8.47s20.59,3.79,20.59,8.47Z"/><path class="cls-2" d="m76.68,36.63c-.17,2.58-3.81,4.18-6.12,4.99-3.06,1.08-6.29,1.63-9.52,1.86-6.27.44-13.56.03-19.19-3.09-1.86-1.03-4.34-2.98-2.86-5.2,1.11-1.67,3.24-2.66,5.05-3.35,6.15-2.33,13.24-2.66,19.71-1.8,3.18.43,6.47,1.17,9.32,2.68,1.49.79,3.54,2.09,3.59,3.91.05,1.93,3.05,1.93,3,0-.15-5.77-7.98-8.1-12.5-9.03-7.62-1.57-16.25-1.45-23.61,1.23-2.56.93-5.27,2.24-6.92,4.5-1.75,2.4-1.3,5.34.72,7.45,2.39,2.49,6.02,3.77,9.29,4.57,4.01.99,8.2,1.34,12.32,1.22,4.38-.12,8.91-.73,13.02-2.31,3.46-1.33,7.4-3.55,7.67-7.65.13-1.93-2.87-1.92-3,0Z"/><path class="cls-1" d="m78.05,37.57v6.88c-1.13,4.24-9.86,7.54-20.47,7.54s-19.33-3.3-20.46-7.54v-6.88c.38,1.42,1.61,2.71,3.46,3.83,3.71,2.25,9.94,3.71,17,3.71s13.3-1.46,17.01-3.71c1.85-1.12,3.08-2.41,3.46-3.83Z"/><path class="cls-2" d="m76.55,37.57v3.44c0,1.05.23,2.4,0,3.43.11-.47-.21.25-.26.34-.16.27-.34.5-.55.73-.61.67-1.36,1.18-2.14,1.63-1.94,1.12-4.1,1.8-6.27,2.31-5.68,1.33-11.83,1.43-17.56.4-2.33-.42-4.71-1.01-6.86-2.02-1.47-.69-3.18-1.59-4.02-3.05-.08-.14-.34-.77-.26-.35-.03-.15,0-.33,0-.48,0-.81,0-1.63,0-2.44v-3.93l-2.95.4c1.16,3.71,5.23,5.6,8.65,6.73,4.24,1.4,8.81,1.91,13.25,1.91s9.03-.51,13.26-1.91c3.42-1.13,7.5-3.02,8.65-6.73.58-1.85-2.32-2.64-2.89-.8-.89,2.87-5.03,4.21-7.61,4.96-3.7,1.07-7.57,1.48-11.42,1.48s-7.71-.41-11.41-1.48c-2.58-.75-6.71-2.1-7.6-4.96-.5-1.59-2.95-1.33-2.95.4v3.93c0,1.25-.22,2.71.24,3.9,1.62,4.16,7.07,5.96,10.99,6.9,6.28,1.5,13,1.58,19.34.44,4.33-.78,9.92-2.28,12.52-6.18.94-1.42.84-2.73.84-4.34v-4.65c0-1.93-3-1.93-3,0Z"/></g></svg>