<?xml version="1.0" encoding="UTF-8"?>
<svg id="Layer_2" xmlns="http://www.w3.org/2000/svg" viewBox="0 0 113.68 209.23">
  <defs>
    <style>
      .cls-1, .cls-2, .cls-3, .cls-4, .cls-5 {
        fill: none;
        stroke: #3b65ee;
      }

      .cls-1, .cls-2, .cls-5 {
        stroke-linejoin: round;
      }

      .cls-1, .cls-3 {
        stroke-width: .51px;
      }

      .cls-2, .cls-4, .cls-5 {
        stroke-width: 1.03px;
      }

      .cls-3, .cls-4 {
        stroke-miterlimit: 10;
      }

      .cls-6, .cls-7 {
        fill: #3b65ee;
      }

      .cls-8 {
        fill: #fff;
      }

      .cls-7 {
        opacity: .2;
      }

      .cls-5 {
        stroke-linecap: round;
      }
    </style>
  </defs>
  <g id="Layer_7">
    <g>
      <g>
        <path class="cls-8" d="M111.27,197.17v.03l-.03-.03h.03v-75.41h-.07c.5-.02,1.01-.04,1.52-.06v-6.15c-1.79.22-14.14.46-15.68.49h.02s4.09-43.92,4.09-43.92l-2.83-12.72-4.47,12.89c0-.18-.02-.3-.04-.35-.48-1.42-2.09-1.67-2.09-1.67l.27,1.26-.27-.23-2.51-18.81s-.06-3.33-2.54-3.33-2.76,2.32-2.76,2.32l-3.12,12.28h0c0-.17-.02-.34-.03-.51-.34-6.82-.92-12.07-1.85-14l-.33-25.32c1.03-5.43,1.54-23.4,1.54-23.4h-5.56l-1.13,1.54-.37-1.54h-2.72c0,5.66,1.55,23.63,1.55,23.63-.07,6.03,1.34,25.32,1.34,25.32,0,0-2.6,37.56,2.86,66.03v.68c-3.77-.02-7.37-.07-10.75-.13l5.77.03-1.51-40.35-4.46-12.24-2.79,13.48,2.97,39.08c-1.75-.03-3.44-.06-5.06-.1l-5.69-51.56-5.33-11.89-1.8,13.64,7.42,49.67c-9.01-.25-14.74-.52-14.74-.52v6.33s3.15.2,8.92.4l-6-.04v75.2c-2.06,0-1.89.48-1.89.48v6.25s8.29,4.08,40.07,4.03l3.65-.19c22.09-.8,28.27-3.84,28.27-3.84v-6.25s.17-.48-1.89-.48ZM86.65,116.14v.03c-3.57.02-7.05.02-10.41,0h0s10.41-.03,10.41-.03ZM76.23,116.17h0s0,0-.01,0h.01ZM60.24,115.94c-1.88-.04-3.67-.09-5.34-.13l5.34.13Z"/>
        <path class="cls-8" d="M51.03,115.56c-2.82-9.41-11.07-35.95-15.7-40.5l-9.25-23.57c-4.63-20.59-11.84-20.08-11.84-20.08-3.6,12.36,5.66,22.65,5.66,22.65,2.06,5.66,10.2,23.21,10.2,23.21,0,0,3.3,17.14,16.96,38.29h3.98Z"/>
      </g>
      <g>
        <line class="cls-5" x1="43.06" y1="197.17" x2="43.06" y2="121.97"/>
        <path class="cls-5" d="M92.27,122.29c-31.96.58-52.13-.68-52.13-.68v-6.33s27.46,1.32,56.74.76"/>
        <path class="cls-5" d="M96.88,116.05s13.93-.25,15.83-.49v6.15c-6.27.25-12.23.42-17.85.54"/>
        <path class="cls-5" d="M81.24,207.93c-31.77.05-40.07-4.03-40.07-4.03v-6.25s-.17-.48,1.89-.48v1.03s13.68,3.28,35.19,3.21l6.53-.16c16.43-.65,26.49-3.05,26.49-3.05v-1.03c2.06,0,1.89.48,1.89.48v6.25s-6.17,3.03-28.27,3.84l-3.65.19Z"/>
        <line class="cls-5" x1="111.27" y1="197.17" x2="111.27" y2="121.76"/>
        <polyline class="cls-2" points="54.88 115.81 47.46 66.14 49.77 68.23 51.06 65.11 53.12 67.68 54.59 64.38 60.28 115.94"/>
        <polyline class="cls-2" points="54.59 64.38 49.26 52.49 47.46 66.14"/>
        <path class="cls-2" d="M52.01,58.63s-.87,1.74-3.61.38"/>
        <line class="cls-1" x1="53.12" y1="67.68" x2="58.76" y2="115.91"/>
        <line class="cls-1" x1="49.77" y1="68.23" x2="56.37" y2="115.76"/>
        <path class="cls-6" d="M51.58,70.25c1.66,10.22,3.13,21.53,4.12,31.84-1.67-10.22-3.12-21.53-4.12-31.84h0Z"/>
        <polyline class="cls-2" points="65.34 116.04 62.37 76.96 64.53 79.22 66.04 76.19 67.91 78.91 69.61 75.72 71.12 116.07"/>
        <polyline class="cls-2" points="69.61 75.72 65.16 63.48 62.37 76.96"/>
        <path class="cls-2" d="M67.46,69.8s-.99,1.68-3.63.12"/>
        <line class="cls-1" x1="67.91" y1="78.91" x2="69.54" y2="116.07"/>
        <line class="cls-1" x1="64.53" y1="79.22" x2="66.94" y2="116.07"/>
        <path class="cls-6" d="M66.18,81.36c.92,10.32,1.56,21.7,1.8,32.05-.92-10.32-1.56-21.7-1.8-32.05h0Z"/>
        <polyline class="cls-2" points="91.42 116.13 93.81 72.4 95.65 74.92 97.54 72.12 99.04 75.05 101.14 72.12 97.06 116.04"/>
        <polyline class="cls-2" points="101.14 72.12 98.32 59.4 93.81 72.4"/>
        <path class="cls-2" d="M99.78,65.96s-1.2,1.53-3.61-.36"/>
        <line class="cls-1" x1="99.04" y1="75.05" x2="95.49" y2="116.07"/>
        <line class="cls-1" x1="95.65" y1="74.92" x2="92.96" y2="116.35"/>
        <path class="cls-6" d="M97.01,77.26c-.43,10.35-1.27,21.71-2.38,32.01.43-10.35,1.27-21.71,2.38-32.01h0Z"/>
        <path class="cls-2" d="M51.03,115.56c-2.82-9.41-11.07-35.95-15.7-40.5l-5.23,2.21s3.3,17.14,16.96,38.29"/>
        <path class="cls-2" d="M30.1,77.26s-8.14-17.55-10.2-23.21l6.18-2.57,9.25,23.57-5.23,2.21Z"/>
        <path class="cls-2" d="M19.9,54.05s-9.27-10.3-5.66-22.65c0,0,7.21-.51,11.84,20.08l-6.18,2.57Z"/>
        <line class="cls-1" x1="28.21" y1="73.17" x2="33.62" y2="70.71"/>
        <line class="cls-1" x1="29.08" y1="75.05" x2="34.4" y2="72.69"/>
        <path class="cls-6" d="M13.97,32.43c.84,5.25,2.22,10.44,4.65,15.19-3.05-4.41-4.5-9.87-4.65-15.19h0Z"/>
        <path class="cls-6" d="M15.52,31.66c4.05,5.08,6.75,11.2,8.24,17.5-2.16-6.1-4.76-12.04-8.24-17.5h0Z"/>
        <path class="cls-2" d="M80.79,63.91c-.01-.22-.02-.44-.03-.66-.34-6.82-.92-12.07-1.85-14l-5.68.22s-2.65,38.16,2.99,66.71"/>
        <path class="cls-2" d="M73.24,49.46s-1.41-19.29-1.34-25.32l6.69-.23.33,25.32-5.68.22Z"/>
        <line class="cls-1" x1="72.92" y1="44.96" x2="78.85" y2="44.57"/>
        <line class="cls-1" x1="73.06" y1="47.03" x2="78.88" y2="46.7"/>
        <path class="cls-2" d="M76.09,116.17l.69-44.87s.3-.95,2.47-1.51l-.33,1.54s5.1,1.46,13.06.19l-.27-1.26s1.61.25,2.09,1.67c.41,1.21-2.15,34.41-2.92,44.19"/>
        <path class="cls-6" d="M78.38,72.4s3.52,1.61,11.77.77c0,0-8.12,2.39-11.77-.77Z"/>
        <path class="cls-3" d="M76.54,87.33s6.09,3.39,16.42,1.02"/>
        <path class="cls-3" d="M76.54,99.17s5.36,3.39,15.69,1.02"/>
        <path class="cls-4" d="M79.25,69.8l1.53-6.04,3.12-12.28s.29-2.32,2.76-2.32,2.54,3.33,2.54,3.33l2.51,18.81"/>
        <path class="cls-4" d="M71.9,24.14s-1.55-17.97-1.55-23.63h2.72l.37,1.54,1.13-1.54h5.56s-.51,17.98-1.54,23.4"/>
        <path class="cls-6" d="M73.44,5.15c.88,5.48,1.05,10.95.52,16.47-.88-5.45-1.05-10.98-.52-16.47h0Z"/>
        <path class="cls-6" d="M76.64.51c.4,3.09.45,6.18.14,9.27-.4-3.07-.45-6.19-.14-9.27h0Z"/>
        <path class="cls-7" d="M80.79,208.18c-1.4.2-20.51-.96-20.51-.96v-6.31h3.14v-78.59h-1.83v-6.36c2.83.4,35.28.08,35.28.08l13.92-.37v5.87l-2.91.21v76.86l3.12.61v5.41l-30.23,3.54Z"/>
        <path class="cls-7" d="M78.38,116.17l.87-43.16,2.35-1.4s2.03-15.04,3.37-13.72,2.92,13.72,2.92,13.72l-1.38,1.8-2.71,42.5-5.43.26Z"/>
        <path class="cls-7" d="M79.25,69.8s-.67-13.69-2.47-13.94-3.19,3.33-.69,49.42l1.17-34.56,1.99-.91Z"/>
        <path class="cls-7" d="M48.4,115.29s-8.78-32.06-15.55-39.18c0,0-8.47-27.2-12.25-20.25l9.51,21.41s9.62,31.32,16.96,38.29l1.35-.27Z"/>
      </g>
      <path class="cls-7" d="M40.56,202.55S.18,203.38,0,205.94s71.89,3.29,71.89,3.29l7.36-1.3s-29.94.13-38.08-3.9v-1.48s-.61,0-.61,0Z"/>
    </g>
  </g>
</svg>