<svg width="324" height="483" viewBox="0 0 324 483" fill="none" xmlns="http://www.w3.org/2000/svg">
<path d="M119.018 76.1014L115.448 98.5414C115.448 98.5414 65.1676 102.391 78.0876 89.6914C91.0076 76.9914 89.0276 55.6914 89.0276 55.6914L119.018 76.1014Z" fill="white" stroke="#3B65EE" stroke-width="2.5" stroke-miterlimit="10" stroke-linecap="round" stroke-linejoin="round"/>
<path d="M85.3781 40.3105C83.6981 38.8405 81.0781 40.0405 81.0781 42.2705V53.3105C81.0781 55.2505 82.4881 56.9005 84.3981 57.2005C87.4881 57.6905 90.2381 55.2005 90.0581 52.0805L89.9081 49.5205C89.6881 45.9705 88.0681 42.6505 85.3781 40.3105Z" fill="white" stroke="#3B65EE" stroke-width="2.5" stroke-miterlimit="10" stroke-linecap="round" stroke-linejoin="round"/>
<path d="M109.589 81.24C117.059 81.74 123.889 77.03 126.069 69.87C126.069 69.87 135.509 45.9 135.509 31.55L89.0391 30.25V54.16C89.0391 63.58 93.4891 72.45 101.039 78.08C103.519 79.93 106.489 81.03 109.589 81.24Z" fill="white" stroke="#3B65EE" stroke-width="2.5" stroke-miterlimit="10" stroke-linecap="round" stroke-linejoin="round"/>
<path d="M127.8 43.5311C127.16 44.1511 126.42 44.4711 125.67 44.7311C124.9 44.9611 124.12 45.1211 123.23 44.9811C123.87 44.3611 124.61 44.0311 125.36 43.7811C126.13 43.5611 126.92 43.4011 127.8 43.5311Z" fill="#3B65EE"/>
<path d="M110.98 44.2607C109.67 44.2507 108.45 43.9607 107.25 43.5907C106.06 43.2007 104.89 42.7307 103.82 41.9707C105.13 41.9707 106.36 42.2707 107.55 42.6407C108.74 43.0407 109.91 43.5007 110.98 44.2607Z" fill="#3B65EE"/>
<path d="M99.3477 35.2695C100.708 35.5195 101.978 35.9295 103.228 36.3695C104.478 36.8295 105.688 37.3496 106.868 37.9196C109.238 39.0596 111.508 40.3896 113.658 41.9496L112.608 42.1495C113.488 41.4195 114.398 40.6995 115.438 40.0995C115.028 41.2295 114.478 42.2495 113.908 43.2395C113.748 43.5195 113.408 43.6395 113.108 43.5295L112.858 43.4395C110.368 42.5295 107.998 41.3796 105.728 40.0396C104.598 39.3696 103.488 38.6495 102.418 37.8695C101.358 37.0795 100.308 36.2595 99.3477 35.2695Z" fill="#3B65EE"/>
<path d="M133 36.0312C132.1 37.1013 131.07 37.9312 130.02 38.7112C128.96 39.4812 127.85 40.1612 126.71 40.7712C125.56 41.3812 124.38 41.9113 123.15 42.3513C121.91 42.7813 120.64 43.1512 119.25 43.3012C120.15 42.2312 121.18 41.3912 122.23 40.6112C123.29 39.8412 124.4 39.1612 125.55 38.5612C126.7 37.9612 127.88 37.4313 129.12 36.9813C130.34 36.5513 131.61 36.1813 133 36.0312Z" fill="#3B65EE"/>
<path d="M118.669 40.7812C117.269 55.6012 121.289 59.2013 121.289 59.2013L111.039 57.4912" fill="white"/>
<path d="M118.668 40.7812C118.848 42.3913 118.928 43.9612 119.068 45.5312C119.208 47.1013 119.348 48.6513 119.578 50.1713C119.758 51.7013 120.088 53.1912 120.478 54.6212C120.668 55.3412 120.918 56.0312 121.198 56.6812C121.338 57.0012 121.488 57.3212 121.658 57.6112C121.738 57.7612 121.828 57.8812 121.918 58.0212C121.988 58.1212 122.128 58.2913 122.108 58.2812L121.088 60.4012C119.378 60.1012 117.688 59.7413 115.988 59.4113C115.138 59.2513 114.288 59.0512 113.448 58.8612C112.598 58.6712 111.758 58.4912 110.908 58.2812C110.468 58.1712 110.208 57.7313 110.318 57.2913C110.418 56.9013 110.788 56.6413 111.178 56.6713C112.048 56.7413 112.898 56.8613 113.768 56.9513C114.628 57.0513 115.488 57.1413 116.348 57.2613C118.068 57.4913 119.788 57.7113 121.498 57.9813L120.478 60.1013C120.178 59.8113 120.078 59.6713 119.908 59.4513C119.778 59.2513 119.628 59.0612 119.528 58.8612C119.288 58.4712 119.098 58.0713 118.918 57.6713C118.588 56.8713 118.298 56.0612 118.118 55.2412C117.718 53.6112 117.558 51.9612 117.488 50.3312C117.468 49.5112 117.498 48.7013 117.518 47.8913C117.568 47.0813 117.648 46.2813 117.738 45.4813C117.848 44.6813 117.978 43.8913 118.118 43.1013C118.268 42.3413 118.448 41.5512 118.668 40.7812Z" fill="#3B65EE"/>
<path d="M96.8495 30.6897C90.4595 47.1897 92.9195 53.7997 98.8195 54.4297L89.0195 56.9797L87.7695 29.4397C87.7795 29.4397 100.95 17.4897 96.8495 30.6897Z" fill="#B0C3EA"/>
<path d="M96.8474 30.6914C96.5774 31.8014 96.2373 32.8814 95.9373 33.9814C95.6873 35.0914 95.3473 36.1714 95.1173 37.2714C94.5773 39.4614 94.1773 41.6714 93.9373 43.8714C93.7073 46.0614 93.7373 48.3014 94.4273 50.2514C95.0473 52.2614 96.7874 53.5414 98.8874 53.8314L98.9273 53.8414C99.2573 53.8914 99.4974 54.1914 99.4474 54.5314C99.4074 54.7914 99.2174 54.9914 98.9774 55.0414C97.3274 55.4114 95.6773 55.7714 94.0173 56.1014L91.5273 56.5714C90.6973 56.7314 89.8673 56.8814 89.0273 57.0014C89.8173 56.7014 90.6173 56.4214 91.4273 56.1614L93.8273 55.3514C95.4373 54.8314 97.0474 54.3414 98.6674 53.8614L98.7574 55.0714C97.5474 54.9614 96.3074 54.5714 95.2574 53.8214C94.1874 53.0914 93.4773 51.9414 93.0473 50.7914C92.1673 48.4514 92.2573 46.0214 92.5473 43.7314C92.8773 41.4314 93.4374 39.1914 94.1974 37.0314C94.9374 34.8314 95.8574 32.7314 96.8474 30.6914Z" fill="#3B65EE"/>
<path d="M160.269 29.4414V32.7914L64.8086 32.0314V29.5614L160.269 29.4414Z" fill="#D1DAED" stroke="#3B65EE" stroke-width="2.5" stroke-miterlimit="10" stroke-linecap="round" stroke-linejoin="round"/>
<path d="M135.499 29.4405L134.779 1.98047H86.5586V29.4405H135.499Z" fill="#D1DAED" stroke="#3B65EE" stroke-width="2.5" stroke-miterlimit="10" stroke-linecap="round" stroke-linejoin="round"/>
<path d="M234.641 105.451C234.641 105.451 253.761 109.291 258.311 106.941C262.861 104.591 275.041 83.3111 275.041 83.3111L272.251 81.1211L237.171 90.5011L234.641 105.451Z" fill="white" stroke="#3B65EE" stroke-width="2.5" stroke-miterlimit="10" stroke-linecap="round" stroke-linejoin="round"/>
<path d="M281.91 73.0508L255.32 82.5508L266.36 91.7308L281.91 73.0508Z" fill="#B0C3EA" stroke="#3B65EE" stroke-width="2.5" stroke-miterlimit="10" stroke-linecap="round" stroke-linejoin="round"/>
<path d="M257.011 99.3813L273.861 75.9313L282.801 72.7413C285.441 71.8013 288.211 73.7513 288.211 76.5513V76.7513L319.461 71.3213C321.021 71.0513 322.441 72.2513 322.441 73.8313V74.0013C322.441 75.2313 321.561 76.2913 320.351 76.5013L289.441 82.0713L289.101 84.0013C288.811 85.6713 287.511 86.9813 285.841 87.2913L276.931 88.9213L270.001 105.561C268.771 108.511 265.881 110.431 262.691 110.431C257.001 110.441 253.691 104.001 257.011 99.3813Z" fill="#B0C3EA" stroke="#3B65EE" stroke-width="2.5" stroke-miterlimit="10" stroke-linecap="round" stroke-linejoin="round"/>
<path d="M272.641 90.02L266.401 102.34C265.151 104.8 266.541 107.77 269.221 108.41L270.831 108.79C272.931 109.28 275.071 108.13 275.811 106.11L280.441 93.41C281.201 91.34 280.241 89.03 278.251 88.1C276.161 87.12 273.681 87.97 272.641 90.02Z" fill="white" stroke="#3B65EE" stroke-width="2.5" stroke-miterlimit="10" stroke-linecap="round" stroke-linejoin="round"/>
<path d="M173.52 118.23L171.97 186.27C171.41 211.01 173.67 235.74 178.71 259.98L188.94 309.11L1.32031 317.82L4.22031 263.41C8.48031 228.31 18.0303 208.19 34.8103 177.07L64.8203 121.43L173.52 118.23Z" fill="#D1DAED" stroke="#3B65EE" stroke-width="2.5" stroke-miterlimit="10" stroke-linecap="round" stroke-linejoin="round"/>
<path d="M70.9615 441.02L74.4516 450.87C76.9516 457.94 77.9316 465.449 77.3216 472.919L76.6416 481.229H60.8015L60.5116 468.549L47.2216 481.53H2.60156L3.11154 480.56C6.39154 474.34 12.3116 469.93 19.2216 468.58L30.8516 466.31C36.5316 465.2 40.8016 460.489 41.3516 454.729L42.6716 441.02H70.9615Z" fill="#D1DAED" stroke="#3B65EE" stroke-width="2.5" stroke-miterlimit="10" stroke-linecap="round" stroke-linejoin="round"/>
<path d="M115.751 441.02L112.261 450.87C109.761 457.94 108.781 465.449 109.391 472.919L110.071 481.229H125.891L126.181 468.549L139.471 481.53H184.091L183.581 480.56C180.301 474.34 174.381 469.93 167.471 468.58L154.801 466.099C149.631 465.089 145.581 461.08 144.511 455.93L142.731 447.33L115.751 441.02Z" fill="#D1DAED" stroke="#3B65EE" stroke-width="2.5" stroke-miterlimit="10" stroke-linecap="round" stroke-linejoin="round"/>
<path d="M237.17 90.4897L125.42 89.6797L48.6603 165.33L19.0703 194.49V226.72L29.0403 229.36L48.6603 183.19V210.32H126C126.46 186.52 142.54 159.53 146.64 126.66L237.17 112.43V90.4897Z" fill="white" stroke="#3B65EE" stroke-width="2.5" stroke-miterlimit="10" stroke-linecap="round" stroke-linejoin="round"/>
<path d="M48.6484 166.75V184.19" stroke="#3B65EE" stroke-width="2.5" stroke-miterlimit="10" stroke-linecap="round" stroke-linejoin="round"/>
<path d="M145.051 136.451C144.951 134.581 145.021 132.741 145.151 130.911C145.271 129.081 145.501 127.261 145.741 125.441C146.021 123.631 146.321 121.821 146.731 120.031C147.121 118.241 147.581 116.451 148.221 114.691C148.331 116.561 148.261 118.401 148.121 120.231C148.001 122.061 147.771 123.881 147.521 125.701C147.241 127.511 146.941 129.321 146.531 131.111C146.141 132.911 145.691 134.691 145.051 136.451Z" fill="#3B65EE"/>
<path d="M29.0292 229.361L20.5492 255.701L14.1992 229.361L23.3492 227.861L29.0292 229.361Z" fill="white" stroke="#3B65EE" stroke-width="2.5" stroke-miterlimit="10" stroke-linecap="round" stroke-linejoin="round"/>
<path d="M119.841 145.221L121.861 144.201C125.261 142.481 127.651 138.621 128.041 134.191L128.551 128.301L114.191 127.051L113.681 132.941C113.291 137.361 114.971 141.581 118.031 143.871L119.841 145.221Z" fill="#B0C3EA"/>
<path d="M119.851 145.101L121.851 143.581C122.501 143.101 123.081 142.551 123.601 141.961C124.621 140.761 125.441 139.411 126.001 137.941C126.271 137.211 126.511 136.461 126.701 135.701C126.901 134.931 127.041 134.191 127.201 133.321C127.531 131.641 127.921 129.961 128.141 128.271L128.521 128.721C127.331 128.571 126.131 128.461 124.931 128.411C123.731 128.351 122.521 128.351 121.321 128.361C120.111 128.371 118.911 128.401 117.701 128.381C116.501 128.361 115.301 128.301 114.091 128.241L115.381 127.151C115.291 128.851 115.231 130.561 115.071 132.251C115.001 133.131 114.941 133.851 114.931 134.641C114.931 135.421 115.021 136.181 115.131 136.951C115.371 138.491 115.901 139.981 116.691 141.351C117.101 142.031 117.571 142.671 118.131 143.261L119.851 145.101ZM119.831 145.351C119.121 145.011 118.271 144.571 117.471 144.101C116.701 143.631 115.981 143.041 115.371 142.351C114.141 140.981 113.261 139.281 112.781 137.491C112.531 136.601 112.391 135.671 112.331 134.741C112.261 133.821 112.321 132.841 112.421 132.031C112.561 130.331 112.791 128.641 113.001 126.951L113.011 126.861C113.091 126.231 113.661 125.791 114.291 125.861C115.481 126.011 116.671 126.161 117.861 126.351C119.051 126.541 120.231 126.781 121.421 126.991C122.611 127.211 123.791 127.421 124.991 127.571C126.181 127.731 127.381 127.831 128.581 127.881C128.801 127.891 128.971 128.081 128.961 128.301V128.331C128.881 130.031 128.971 131.751 129.011 133.461C129.031 134.291 129.001 135.241 128.851 136.141C128.701 137.051 128.411 137.931 128.041 138.771C127.311 140.461 126.191 142.001 124.751 143.151C124.041 143.731 123.231 144.191 122.381 144.531C121.511 144.891 120.581 145.151 119.831 145.351Z" fill="#3B65EE"/>
<path d="M125.42 89.6914H171.89C171.89 89.6914 137.41 118.181 96.4805 118.211L125.42 89.6914Z" fill="#D1DAED" stroke="#3B65EE" stroke-width="2.5" stroke-miterlimit="10" stroke-linecap="round" stroke-linejoin="round"/>
<path d="M125.99 210.311C131.92 222.331 130.82 287.021 137.5 346.111C143.8 401.781 158.06 452.381 158.06 452.381H110.64L89.0296 269.831L81.4496 452.381H40.0496C40.0496 452.381 39.7796 391.121 44.6596 337.721C49.5396 284.321 42.9996 255.691 48.6596 210.311H125.99Z" fill="white" stroke="#3B65EE" stroke-width="2.5" stroke-miterlimit="10" stroke-linecap="round" stroke-linejoin="round"/>
<path d="M87.93 297.491C87.5 292.951 87.36 288.431 87.33 283.911C87.29 281.651 87.35 279.391 87.36 277.131L87.56 270.361C87.74 265.851 88.05 261.341 88.45 256.841C88.86 252.341 89.37 247.841 90.18 243.361C90.62 247.901 90.76 252.421 90.79 256.941C90.82 261.461 90.75 265.981 90.56 270.491L90.2 277.251C90.03 279.501 89.9 281.761 89.67 284.011C89.25 288.501 88.73 293.001 87.93 297.491Z" fill="#3B65EE"/>
<path d="M118.219 267.07H125.989C125.989 267.07 131.889 218.69 125.989 210.32H118.219C123.419 227.86 118.219 267.07 118.219 267.07Z" fill="#D1DAED" stroke="#3B65EE" stroke-width="2.5" stroke-miterlimit="10" stroke-linecap="round" stroke-linejoin="round"/>
<path d="M126.86 201.171C100.91 209.931 48.6602 200.621 48.6602 200.621V210.311C48.6602 210.311 107.07 221.351 126 210.311C125.99 210.311 126.36 204.271 126.86 201.171Z" fill="#D1DAED" stroke="#3B65EE" stroke-width="2.5" stroke-miterlimit="10" stroke-linecap="round" stroke-linejoin="round"/>
<path d="M96.3187 219.521C99.6687 219.521 102.459 216.961 102.739 213.621L103.209 208.101C103.529 204.341 100.559 201.111 96.7887 201.111C93.4387 201.111 90.6487 203.671 90.3687 207.011L89.8987 212.531C89.5787 216.291 92.5387 219.521 96.3187 219.521Z" fill="white" stroke="#3B65EE" stroke-width="2.5" stroke-miterlimit="10" stroke-linecap="round" stroke-linejoin="round"/>
<path d="M20.481 256.62L21.761 240.09C23.831 213.38 34.8209 188.14 52.9609 168.43L125.421 89.6797H78.0909L72.8109 92.1597C57.3909 99.4097 45.661 112.72 40.391 128.92L17.4309 199.48C12.0909 215.9 8.26095 232.77 6.00095 249.89L4.21094 263.41" fill="#D1DAED"/>
<path d="M20.481 256.62L21.761 240.09C23.831 213.38 34.8209 188.14 52.9609 168.43L125.421 89.6797H78.0909L72.8109 92.1597C57.3909 99.4097 45.661 112.72 40.391 128.92L17.4309 199.48C12.0909 215.9 8.26095 232.77 6.00095 249.89L4.21094 263.41" stroke="#3B65EE" stroke-width="2.5" stroke-miterlimit="10" stroke-linecap="round" stroke-linejoin="round"/>
<path d="M22.3021 233.66C22.4821 237.92 22.4121 242.17 22.2521 246.4C22.1121 250.64 21.8221 254.86 21.5121 259.09C21.1521 263.31 20.7621 267.53 20.2221 271.73C19.7021 275.94 19.0921 280.14 18.2321 284.32C18.0521 280.06 18.1221 275.81 18.2721 271.58C18.4121 267.34 18.7021 263.12 19.0121 258.89C19.3721 254.67 19.7721 250.45 20.3021 246.25C20.8421 242.04 21.4521 237.84 22.3021 233.66Z" fill="#3B65EE"/>
<path d="M127.301 103.951C129.761 103.351 132.051 102.351 134.301 101.301C136.551 100.231 138.741 99.0614 140.881 97.7814C143.051 96.5514 145.131 95.1714 147.251 93.8314C148.291 93.1314 149.341 92.4414 150.391 91.7614C151.431 91.0614 152.471 90.3514 153.561 89.6914C152.681 90.6114 151.761 91.4714 150.841 92.3414C149.881 93.1714 148.921 93.9914 147.931 94.7814C145.921 96.3314 143.841 97.7914 141.641 99.0714C140.551 99.7214 139.411 100.301 138.281 100.881C137.121 101.411 135.961 101.951 134.761 102.381C132.371 103.241 129.861 103.961 127.301 103.951Z" fill="#3B65EE"/>
<path d="M95.8601 103.43C94.0101 105.55 92.1002 107.6 90.2202 109.68L84.4702 115.82C80.6302 119.91 76.7102 123.92 72.7902 127.93C68.8402 131.92 64.9001 135.9 60.8701 139.8L54.8202 145.65C52.7602 147.56 50.7502 149.51 48.6602 151.39C50.5102 149.27 52.4201 147.22 54.3001 145.14L60.0501 139C63.8901 134.91 67.8102 130.9 71.7302 126.89C75.6802 122.91 79.6202 118.92 83.6602 115.02L89.7101 109.17C91.7501 107.26 93.7701 105.31 95.8601 103.43Z" fill="#3B65EE"/>
<path d="M148.222 208.42C148.452 212.7 148.532 216.97 148.852 221.24C149.042 225.51 149.382 229.77 149.682 234.04C150.372 242.56 151.072 251.08 152.012 259.58C152.842 268.09 153.852 276.58 154.862 285.07C155.362 289.32 155.882 293.56 156.442 297.8C156.942 302.05 157.522 306.29 158.062 310.54C157.192 306.35 156.462 302.13 155.712 297.91C155.012 293.69 154.352 289.46 153.722 285.22C152.472 276.75 151.472 268.24 150.522 259.73C149.702 251.2 148.982 242.66 148.532 234.11C148.372 229.83 148.162 225.55 148.112 221.27C148.052 216.98 148.122 212.7 148.222 208.42Z" fill="#3B65EE"/>
<path d="M121.499 70.1595C122.267 70.1595 122.889 68.897 122.889 67.3395C122.889 65.7821 122.267 64.5195 121.499 64.5195C120.732 64.5195 120.109 65.7821 120.109 67.3395C120.109 68.897 120.732 70.1595 121.499 70.1595Z" fill="#3B65EE" stroke="#3B65EE" stroke-width="2.5" stroke-miterlimit="10" stroke-linecap="round" stroke-linejoin="round"/>
<path d="M88.2188 32.2207L89.0487 58.7507" stroke="#3B65EE" stroke-width="2.5" stroke-miterlimit="10" stroke-linecap="round" stroke-linejoin="round"/>
<path d="M143.019 64L120.109 67.28C120.109 67.3 120.109 67.32 120.109 67.34C120.109 68.57 120.499 69.61 121.039 69.99L121.499 70.16H141.969L143.019 64Z" fill="white" stroke="#3B65EE" stroke-width="2.5" stroke-miterlimit="10" stroke-linecap="round" stroke-linejoin="round"/>
</svg>
