<svg id="Layer_1" data-name="Layer 1" xmlns="http://www.w3.org/2000/svg" viewBox="0 0 4800 3000"><defs><style>.cls-1,.cls-13,.cls-14,.cls-18,.cls-20{fill:#fff;}.cls-12,.cls-15,.cls-17,.cls-19,.cls-2,.cls-22,.cls-4{fill:none;}.cls-11,.cls-12,.cls-13,.cls-14,.cls-15,.cls-16,.cls-17,.cls-18,.cls-19,.cls-2,.cls-20,.cls-22,.cls-4{stroke:#3b65ee;}.cls-12,.cls-14,.cls-15,.cls-17,.cls-18,.cls-19,.cls-2,.cls-20{stroke-linecap:round;stroke-linejoin:round;}.cls-11,.cls-14,.cls-2{stroke-width:4.83px;}.cls-10,.cls-11,.cls-16,.cls-3,.cls-5,.cls-9{fill:#3b65ee;}.cls-21,.cls-22,.cls-3{opacity:0.2;}.cls-11,.cls-13,.cls-16,.cls-22,.cls-4{stroke-miterlimit:10;}.cls-12,.cls-4{stroke-width:6.44px;}.cls-5{font-size:106.42px;font-family:Rubik-Medium, Rubik;font-weight:500;}.cls-6{letter-spacing:-0.01em;}.cls-7{letter-spacing:-0.01em;}.cls-8{letter-spacing:-0.02em;}.cls-11,.cls-9{opacity:0.1;}.cls-12{stroke-dasharray:16.11 32.22;}.cls-13{stroke-width:3.75px;fill-rule:evenodd;}.cls-15{stroke-width:4.58px;}.cls-16{stroke-width:2.45px;}.cls-17{stroke-width:7.35px;}.cls-18{stroke-width:8.05px;}.cls-19,.cls-20{stroke-width:7.67px;}.cls-22{stroke-width:4.84px;}</style></defs><title>box</title><rect class="cls-1" width="4800" height="3000"/><ellipse class="cls-2" cx="1102.04" cy="1035.06" rx="38.18" ry="18.22" transform="translate(-202.24 270.4) rotate(-12.82)"/><ellipse class="cls-3" cx="1102.04" cy="1035.06" rx="28.63" ry="13.67" transform="translate(-202.24 270.4) rotate(-12.82)"/><polygon class="cls-4" points="3766.48 577.91 3586.96 577.91 3460.02 704.85 3460.02 884.37 3586.96 1011.31 3766.48 1011.31 3893.42 884.37 3893.42 704.85 3766.48 577.91"/><polygon class="cls-3" points="3754.06 607.89 3599.38 607.89 3490 717.27 3490 871.95 3599.38 981.33 3754.06 981.33 3863.44 871.95 3863.44 717.27 3754.06 607.89"/><text class="cls-5" transform="translate(3542.42 834.38)"><tspan class="cls-6">S</tspan><tspan class="cls-7" x="67.58" y="0">T</tspan><tspan x="130.68" y="0">O</tspan><tspan class="cls-8" x="204.64" y="0">P</tspan></text><path class="cls-9" d="M3779.11,910.5s-10.76,77.46-13.27,88.93L3678,976.12l6.45-10.75Z"/><path class="cls-1" d="M3699.67,905.3l79.61,5s-11.47,54.51-21.15,74.95c0,0-76.75-14-80-15.06C3678.15,970.21,3696.8,918.92,3699.67,905.3Z"/><path class="cls-10" d="M3758.64,986.27l-.67-.12c-3.14-.57-76.85-14-80.1-15.09l-.87-.29.31-.87c.19-.51,18.66-51.38,21.48-64.79l.16-.76,81.43,5.14-.22,1c-.11.55-11.61,54.85-21.22,75.15Zm-79.31-16.69c7.31,1.66,53.12,10.1,78.28,14.68,8.74-19,19-65.64,20.58-73.11l-77.81-4.91C3697.28,919.84,3681.9,962.5,3679.33,969.58Z"/><ellipse class="cls-10" cx="3737.93" cy="927.95" rx="5.37" ry="5.4"/><ellipse class="cls-10" cx="3721.82" cy="927.95" rx="5.37" ry="5.4"/><path class="cls-10" d="M3750.18,941.92a2.2,2.2,0,0,1,1.8,2.66,22.53,22.53,0,0,1-44.26-7.27,2.19,2.19,0,0,1,2.55-1.94Z"/><line class="cls-11" x1="3656.14" y1="1011.31" x2="3656.14" y2="1115.2"/><line class="cls-11" x1="3697.05" y1="1011.31" x2="3697.05" y2="1115.2"/><polygon class="cls-9" points="3698.57 1047.41 3654.71 1066.78 3654.71 1011.51 3698.57 1011.51 3698.57 1047.41"/><path class="cls-2" d="M1566.42,933.87s71.18,37.29,139.27,93"/><polyline class="cls-2" points="1709.03 1012.9 1717.86 1035.8 1693.26 1036.1"/><path class="cls-2" d="M3018.09,1041.12s62.87-50,141.35-89.84"/><polyline class="cls-2" points="3147.99 942.58 3172.51 943.75 3162.85 966.38"/><circle class="cls-12" cx="2352.92" cy="2227.27" r="184.59" transform="translate(-885.76 2316.12) rotate(-45)"/><circle class="cls-3" cx="2352.92" cy="2227.27" r="152.68"/><path class="cls-13" d="M2440.39,2251.43c-.6.61-1.27,1.21-2,1.82a18.37,18.37,0,0,1-13,4.83l-15.71-.12,15.71.12a18.37,18.37,0,0,0,13-4.83c.72-.61,1.39-1.21,2-1.82L2413.55,2294a13.54,13.54,0,0,1-3,3.15,13.81,13.81,0,0,1-8.82,3.08l-22.61-.3-.3,17.52-22.18-38.56,22.3-41.28-.48,20.13,31.25.24-24.42-42.49,39.16-22.61,19.89,34.76a21.33,21.33,0,0,1,1.63,5.08,19.71,19.71,0,0,1-3.26,15.53,16.41,16.41,0,0,1-2.12,3A.94.94,0,0,0,2440.39,2251.43Zm-126-109a19.76,19.76,0,0,1,15-5.2l3.5.6,50.72.55,4.29,1a13.4,13.4,0,0,1,7.13,5.93l11.48,19.52,15.17-8.83-21.51,38.93-46.91,2.3,17.53-10-15.83-26.89-23.88,43-39.65-21.82,19.46-35.06A23.23,23.23,0,0,1,2314.37,2142.46Zm-17.95,113.93h48.9l.06,45.27h-38a18.93,18.93,0,0,1-7.38-1.27,19.64,19.64,0,0,1-11.72-10.52,16.12,16.12,0,0,1-1.45-3.32,26.7,26.7,0,0,1-.73-2.84,18.58,18.58,0,0,1,2.3-13.6l8-13.72-8,13.72a18.58,18.58,0,0,0-2.3,13.6,26.7,26.7,0,0,0,.73,2.84l-23.82-44.79a13.92,13.92,0,0,1-1.2-4.17,13.42,13.42,0,0,1,1.75-9.13l11.54-19.46-15.11-9h44.55l24.66,39.89L2312,2229.43Zm36.44-118.53,2.91.49a18.67,18.67,0,0,1,10.69,8.7l8.47,13.3-8.47-13.3a18.67,18.67,0,0,0-10.69-8.7Z"/><path class="cls-14" d="M1175.66,734.87a138.4,138.4,0,1,0-233,128.46c36.18,36.2,61.84,81.55,73.2,131.45l3.46,15.22a45,45,0,0,0,53.81,33.86l58.28-13.27a45,45,0,0,0,33.86-53.81l-3.16-13.88c-11.36-49.91-8.7-102.15,8.74-150.27A137.81,137.81,0,0,0,1175.66,734.87Z"/><path class="cls-15" d="M1001.66,950.61s2.5,7.29,79.07-10.14c75.3-17.14,74.9-24.91,74.9-24.91"/><path class="cls-2" d="M1011.69,979.39c6.67.81,25,0,75.3-11.43,49.68-11.3,66.41-18.53,72-22.14"/><path class="cls-2" d="M1017.1,1002.26c6.84.76,25.31-.12,75.09-11.45s66.49-18.57,72.08-22.17"/><path class="cls-2" d="M1025.69,1025.3c8.91.15,28.54-1.82,71.7-11.65s61.4-16.55,69.16-20.51"/><ellipse class="cls-16" cx="1079.03" cy="933.96" rx="78.96" ry="5.21" transform="translate(-180.37 262.77) rotate(-12.82)"/><path class="cls-17" d="M1018.05,802.5h0a23.86,23.86,0,0,1,23.86,23.86v23.86a0,0,0,0,1,0,0h-23.86a23.86,23.86,0,0,1-23.86-23.86v0a23.86,23.86,0,0,1,23.86-23.86Z" transform="translate(-158.01 246.55) rotate(-12.82)"/><line class="cls-17" x1="1046.62" y1="844.34" x2="1067.61" y2="936.56"/><path class="cls-17" d="M1087.43,786.71h23.86a0,0,0,0,1,0,0v23.86a23.86,23.86,0,0,1-23.86,23.86h0a23.86,23.86,0,0,1-23.86-23.86v0a23.86,23.86,0,0,1,23.86-23.86Z" transform="translate(2327.64 1359.59) rotate(167.18)"/><line class="cls-17" x1="1069.46" y1="839.14" x2="1090.45" y2="931.36"/><path class="cls-3" d="M952.81,844.29A156,156,0,0,1,1085.87,654.9,118.16,118.16,0,0,0,953.33,846.5C953.15,845.76,953,845,952.81,844.29Z"/><path class="cls-3" d="M1013.43,960.46s7.54,21.42,15.84,52,42,22.47,42,22.47l29.19-6.65-18-79.1S1054.83,958.6,1013.43,960.46Z"/><line class="cls-18" x1="1002.36" y1="611.05" x2="993.7" y2="573"/><line class="cls-18" x1="1207.6" y1="836.47" x2="1239.72" y2="846.39"/><line class="cls-18" x1="1135.92" y1="628.68" x2="1158.43" y2="592.39"/><line class="cls-18" x1="1203.19" y1="726.69" x2="1235.71" y2="717.5"/><line class="cls-18" x1="895.25" y1="907.57" x2="870.59" y2="930.41"/><line class="cls-18" x1="869.93" y1="689.23" x2="833.94" y2="666.25"/><line class="cls-18" x1="851.72" y1="806.69" x2="818.42" y2="812.48"/><polygon class="cls-19" points="1998.57 1283.46 2357.32 1147.33 2697.23 1198.7 2688.66 1548.03 2351.32 1685.02 2013.13 1602.82 1998.57 1283.46"/><polyline class="cls-19" points="2351.32 1685.02 2347.9 1353.67 1998.57 1283.46"/><line class="cls-19" x1="2347.9" y1="1353.67" x2="2687.81" y2="1203.84"/><path class="cls-10" d="M2354.75,1160.17c1.6,15.44,2.39,30.88,3,46.32s.83,30.88.83,46.32-.25,30.88-.82,46.32-1.4,30.88-3,46.31c-1.61-15.43-2.41-30.87-3-46.31s-.82-30.88-.81-46.32.26-30.88.83-46.32S2353.15,1175.61,2354.75,1160.17Z"/><path class="cls-19" d="M1998.57,1283.46c-.85-1.71-146.41-126.71-146.41-126.71l347.62-127.58,157.54,118.16Z"/><polygon class="cls-20" points="2448.93 1234.66 2347.9 1353.67 2697.23 1198.7 2813.67 1084.83 2448.93 1234.66"/><polygon class="cls-3" points="2448.93 1234.66 2347.9 1353.67 2697.23 1198.7 2813.67 1084.83 2448.93 1234.66"/><path class="cls-9" d="M2258.64,1398s-23.55,169.61-29,194.74l-192.39-51,14.14-23.56Z"/><path class="cls-1" d="M2084.71,1386.57l174.33,11s-25.13,119.35-46.33,164.11c0,0-168-30.62-175.12-33C2037.59,1528.7,2078.43,1416.41,2084.71,1386.57Z"/><path class="cls-10" d="M2213.84,1563.89l-1.49-.27c-6.86-1.26-168.26-30.68-175.38-33l-1.91-.64.69-1.9c.41-1.12,40.86-112.5,47-141.86l.35-1.66,178.28,11.24L2261,1398c-.25,1.2-25.42,120.1-46.48,164.55Zm-173.66-36.55c16,3.62,116.31,22.1,171.39,32.14,19.14-41.6,41.55-143.73,45.07-160.1l-170.38-10.74C2079.47,1418.41,2045.79,1511.83,2040.18,1527.34Z"/><ellipse class="cls-10" cx="2168.47" cy="1436.18" rx="11.75" ry="11.82"/><ellipse class="cls-10" cx="2133.21" cy="1436.18" rx="11.75" ry="11.82"/><path class="cls-10" d="M2195.3,1466.77a4.79,4.79,0,0,1,3.94,5.82,49.33,49.33,0,0,1-96.9-15.91,4.77,4.77,0,0,1,5.57-4.26Z"/><polygon class="cls-9" points="2347.9 1353.67 2351.32 1685.02 2688.66 1548.03 2697.23 1198.7 2347.9 1353.67"/><polygon class="cls-9" points="2347.9 1353.67 2697.23 1283.46 2697.23 1198.7 2347.9 1353.67"/><polygon class="cls-3" points="2354.75 1145.62 2357.32 1340.83 2347.9 1353.67 2002.85 1283.46 2354.75 1145.62"/><polygon class="cls-3" points="2351.32 1686.73 2897.58 1547.17 2689.59 1510.14 2688.66 1548.03 2351.32 1686.73"/><g class="cls-21"><path class="cls-10" d="M2400.13,1206.41a171.21,171.21,0,0,1,20.95-6.24q10.58-2.49,21.28-4.19t21.53-2.66a169,169,0,0,1,21.86-.61,169.1,169.1,0,0,1-21,6.24c-7.05,1.67-14.14,3-21.28,4.19s-14.31,2-21.53,2.65A170.72,170.72,0,0,1,2400.13,1206.41Z"/></g><line class="cls-22" x1="1881.51" y1="1179.03" x2="2230.35" y2="1049.54"/><line class="cls-22" x1="2426.67" y1="1261.2" x2="2794.58" y2="1103.5"/><path class="cls-10" d="M2535.71,1581.75a9.38,9.38,0,0,1,3.39-3.07c1.18-.51,2-.52,2.56,0a9.73,9.73,0,0,1,1.59-1.42,10.51,10.51,0,0,1,1.85-1c1.51-.65,2.5-.48,3,.49a12.63,12.63,0,0,1,.38,2.31q.26,1.37.6,4.65a1.49,1.49,0,0,1-.48,1.07,3.52,3.52,0,0,1-1.18.85q-1.32.57-1.5-.39c-.11-.57-.21-1.41-.31-2.52s-.18-2.06-.25-2.55q-.24-1.53-.72-1.32a8,8,0,0,0-1.23,1,17,17,0,0,0-1.42,1.34,19.06,19.06,0,0,0,.18,2.92,19.27,19.27,0,0,1,.18,2.91,1.76,1.76,0,0,1-.49,1.08,3,3,0,0,1-1.16.85,1.52,1.52,0,0,1-1.12.15.64.64,0,0,1-.42-.69,20.63,20.63,0,0,0-.14-3,22.38,22.38,0,0,1-.14-3,2.45,2.45,0,0,0-.09-.9,18.6,18.6,0,0,0-2.79,3.25l-.21.29c-.08,1.27-.14,2.26-.17,3,0,.17,0,.41-.06.71s-.05.53-.05.67a1.6,1.6,0,0,1-.55,1,3.85,3.85,0,0,1-1.16.77c-.66.28-1.09.25-1.31-.11a2.68,2.68,0,0,1-.17-1.38l.15-3.48c0-.31,0-.76,0-1.35s0-1,0-1.35a4.2,4.2,0,0,1,.44-1.67,2.69,2.69,0,0,1,1.32-1.39,1.45,1.45,0,0,1,1.14-.09.63.63,0,0,1,.47.67A4.42,4.42,0,0,0,2535.71,1581.75Z"/><path class="cls-10" d="M2556.43,1581.24a8.1,8.1,0,0,1-4.41.89,2.07,2.07,0,0,1-1.78-2.46,8.73,8.73,0,0,1,1.7-4.63,10.71,10.71,0,0,1,4.63-3.76,9.83,9.83,0,0,1,3.27-.91c1.12,0,1.66.43,1.62,1.39a4,4,0,0,1-1.48,2.4c-.43.43-1.3,1.15-2.6,2.17l-3.91,3.05a2.32,2.32,0,0,0,1.29.14,6.5,6.5,0,0,0,1.77-.53,9.66,9.66,0,0,0,2.61-1.63,6.19,6.19,0,0,1,1.53-1.11c.78-.34,1.16-.2,1.13.42s-.68,1.55-2,2.54A16,16,0,0,1,2556.43,1581.24Zm0-7.72a4.93,4.93,0,0,0-1.83,1.35,7.38,7.38,0,0,0-1.29,2.25l2.61-2q1.56-1.23,2.49-2.1A4.79,4.79,0,0,0,2556.47,1573.52Z"/><path class="cls-10" d="M2572,1566.77c-.16.07-.34.15-.56.23l-.55.23a11.62,11.62,0,0,0-1.07.53c0,2.42,0,4,0,4.77,0,.08,0,.23,0,.44s0,.39,0,.53a2.91,2.91,0,0,1-1.73,2.82,1.62,1.62,0,0,1-1.06.16.55.55,0,0,1-.46-.61c0-.22,0-.56.08-1s.07-.79.08-1c0-.75,0-2.31,0-4.69-.46.19-1.17.44-2.11.77s-1.4.13-1.37-.58a1.82,1.82,0,0,1,.47-1.06,2.8,2.8,0,0,1,1.13-.84c.28-.12.91-.36,1.91-.72,0-.19,0-.51,0-1s0-.68,0-.89a1.7,1.7,0,0,1,.5-1.06,3.08,3.08,0,0,1,1.13-.82c1.11-.48,1.63,0,1.56,1.57l0,.77a12.42,12.42,0,0,1,1.14-.58,8.47,8.47,0,0,1,1.75-.62c.6-.09.88.16.85.73a1.73,1.73,0,0,1-.47,1.06A3,3,0,0,1,2572,1566.77Z"/><path class="cls-10" d="M2584.24,1562.24a2.46,2.46,0,0,1-1.61,2.07c-.93.4-1.38.21-1.35-.58v-.9a8.88,8.88,0,0,0-3.69,3.67l-.19,4.6a1.83,1.83,0,0,1-.48,1.06,3,3,0,0,1-1.12.83,1.25,1.25,0,0,1-1.06.1.66.66,0,0,1-.32-.69l.27-6c0-.19,0-.48.06-.86s.05-.67.06-.86a1.77,1.77,0,0,1,.41-1,2.61,2.61,0,0,1,1.09-.8c.82-.36,1.3-.23,1.43.4a14,14,0,0,1,4.43-3.1c1.49-.64,2.19-.15,2.12,1.47C2584.27,1561.93,2584.25,1562.14,2584.24,1562.24Z"/><path class="cls-10" d="M2590.11,1566.67a4.68,4.68,0,0,1-3.47.38,2.47,2.47,0,0,1-1.55-2.65,7.55,7.55,0,0,1,1.51-4.18,10.85,10.85,0,0,1,4.76-3.89c1.47-.63,2.62-.65,3.44,0a3,3,0,0,1,1,2.74,8,8,0,0,1-1.52,4.19A9.67,9.67,0,0,1,2590.11,1566.67Zm1-7.87a4.68,4.68,0,0,0-2.19,2,4.77,4.77,0,0,0-.75,2.31c0,.73.19,1.18.67,1.36a1.87,1.87,0,0,0,1.38-.15,4.66,4.66,0,0,0,1.69-1.26,3.73,3.73,0,0,0,.93-2.07Q2593.13,1557.94,2591.11,1558.8Z"/><path class="cls-10" d="M2606.91,1552.43a2.41,2.41,0,0,1-1.57,2c-.92.39-1.36.2-1.33-.58v-.9a8.73,8.73,0,0,0-3.61,3.62l-.2,4.56a1.72,1.72,0,0,1-.46,1,2.89,2.89,0,0,1-1.1.82,1.16,1.16,0,0,1-1,.09.65.65,0,0,1-.31-.68l.26-6c0-.19,0-.47.06-.85s.05-.66.06-.85a1.82,1.82,0,0,1,.41-1,2.64,2.64,0,0,1,1.06-.79c.81-.35,1.28-.21,1.4.41a13.67,13.67,0,0,1,4.35-3.05q2.17-.94,2.07,1.47C2606.94,1552.12,2606.92,1552.33,2606.91,1552.43Z"/><path class="cls-10" d="M2613.66,1556.29a7.55,7.55,0,0,1-4.19.82,2,2,0,0,1-1.69-2.42,8.58,8.58,0,0,1,1.62-4.49,10.06,10.06,0,0,1,4.41-3.62,9,9,0,0,1,3.1-.85c1.06,0,1.57.43,1.53,1.37a3.93,3.93,0,0,1-1.4,2.33c-.42.41-1.24,1.1-2.48,2.08l-3.71,2.93a2.27,2.27,0,0,0,1.23.16,6.56,6.56,0,0,0,1.68-.5,8.77,8.77,0,0,0,2.47-1.57,6.26,6.26,0,0,1,1.46-1.06q1.11-.48,1.08.42c0,.69-.66,1.5-1.88,2.46A14.74,14.74,0,0,1,2613.66,1556.29Zm.05-7.53a4.72,4.72,0,0,0-1.75,1.3,7.21,7.21,0,0,0-1.22,2.18l2.47-1.93c1-.79,1.78-1.46,2.37-2A4.52,4.52,0,0,0,2613.71,1548.76Z"/><path class="cls-10" d="M2628.48,1542.35l-.53.22-.53.21c-.29.13-.63.3-1,.52,0,2.35,0,3.91,0,4.65,0,.07,0,.22,0,.43s0,.38,0,.51a2.85,2.85,0,0,1-1.64,2.74,1.51,1.51,0,0,1-1,.13.52.52,0,0,1-.43-.6c0-.21,0-.54.07-1s.07-.77.08-1c0-.72,0-2.24,0-4.56-.44.17-1.11.41-2,.72s-1.33.12-1.3-.58a1.7,1.7,0,0,1,.45-1,2.84,2.84,0,0,1,1.06-.81c.27-.11.88-.34,1.83-.68,0-.18,0-.49,0-.92s0-.66,0-.87a1.7,1.7,0,0,1,.48-1,3,3,0,0,1,1.07-.79c1.06-.45,1.55.07,1.49,1.55l-.06.75c.45-.25.81-.43,1.09-.55a8.25,8.25,0,0,1,1.67-.59c.56-.08.83.17.8.73a1.7,1.7,0,0,1-.45,1A2.9,2.9,0,0,1,2628.48,1542.35Z"/><path class="cls-10" d="M2640.09,1538.06a2.33,2.33,0,0,1-1.53,2c-.89.39-1.31.2-1.28-.58v-.88a8.5,8.5,0,0,0-3.51,3.55l-.19,4.49a1.78,1.78,0,0,1-.45,1,2.82,2.82,0,0,1-1.07.79,1.1,1.1,0,0,1-1,.09.65.65,0,0,1-.3-.67l.26-5.86q0-.29.06-.84t.06-.84a1.73,1.73,0,0,1,.39-1,2.57,2.57,0,0,1,1-.77c.79-.34,1.24-.2,1.36.41a13.17,13.17,0,0,1,4.22-3c1.41-.61,2.08-.13,2,1.45C2640.12,1537.77,2640.1,1538,2640.09,1538.06Z"/><path class="cls-10" d="M2645.66,1542.45a4.3,4.3,0,0,1-3.3.33,2.45,2.45,0,0,1-1.46-2.6,7.49,7.49,0,0,1,1.43-4.06,10.2,10.2,0,0,1,4.53-3.74c1.4-.6,2.49-.61,3.27,0a3,3,0,0,1,1,2.69,7.83,7.83,0,0,1-1.46,4.07A9,9,0,0,1,2645.66,1542.45Zm1-7.66a4.4,4.4,0,0,0-2.08,1.87,4.72,4.72,0,0,0-.72,2.25c0,.71.18,1.15.64,1.33a1.75,1.75,0,0,0,1.3-.13,4.36,4.36,0,0,0,1.61-1.21,3.65,3.65,0,0,0,.9-2C2648.44,1534.94,2647.89,1534.24,2646.62,1534.79Z"/><path class="cls-10" d="M2656.14,1538.27a1.76,1.76,0,0,1-1.19.16.56.56,0,0,1-.47-.6,1.81,1.81,0,0,1,.54-1.07,3.38,3.38,0,0,1,1.23-.9,1.72,1.72,0,0,1,1.2-.18.6.6,0,0,1,.44.66,1.82,1.82,0,0,1-.54,1.05A3.49,3.49,0,0,1,2656.14,1538.27Z"/><path class="cls-10" d="M2665.3,1529.33c0,.33,0,.87,0,1.6s0,1.26,0,1.59a1.83,1.83,0,0,1-.44,1,2.86,2.86,0,0,1-1,.77,1.35,1.35,0,0,1-1,.12.62.62,0,0,1-.37-.67c0-.33,0-.86,0-1.59s0-1.27,0-1.6c0-.53.08-1.2.19-2s.16-1.49.19-2a1.67,1.67,0,0,1,.44-1,2.67,2.67,0,0,1,1-.77,1.27,1.27,0,0,1,1-.11.6.6,0,0,1,.37.66c0,.53-.09,1.2-.19,2S2665.32,1528.81,2665.3,1529.33Zm-.59-6.08a1.55,1.55,0,0,1-1.13.12.66.66,0,0,1-.45-.72,2,2,0,0,1,.53-1.13,3.23,3.23,0,0,1,1.16-.87,1.55,1.55,0,0,1,1.13-.12.67.67,0,0,1,.44.72,1.92,1.92,0,0,1-.52,1.13A3.23,3.23,0,0,1,2664.71,1523.25Z"/><path class="cls-10" d="M2672,1531a4.15,4.15,0,0,1-3.21.31,2.41,2.41,0,0,1-1.43-2.58,7.34,7.34,0,0,1,1.4-4,9.87,9.87,0,0,1,4.42-3.67c1.36-.59,2.43-.59,3.19,0a3,3,0,0,1,.94,2.65,7.75,7.75,0,0,1-1.42,4A8.88,8.88,0,0,1,2672,1531Zm.94-7.57a4.31,4.31,0,0,0-2,1.85,4.62,4.62,0,0,0-.7,2.21c0,.71.17,1.14.62,1.32a1.62,1.62,0,0,0,1.27-.12,4.18,4.18,0,0,0,1.57-1.19,3.61,3.61,0,0,0,.88-2C2674.73,1523.56,2674.19,1522.86,2673,1523.39Z"/><path class="cls-10" d="M2453.83,1413.94a18.86,18.86,0,0,0-.48,3.79c0,.52,0,1.36-.13,2.49s-.13,2-.13,2.5q0,2.7-.24,8.08t-.24,8.07q0,2.07.26,6.07t.27,6.06a5.44,5.44,0,0,1-.94,3,5,5,0,0,1-2.32,2,2.59,2.59,0,0,1-2.45-.07,2.37,2.37,0,0,1-1-2.17q0-2.07-.15-6.12t-.16-6.12c0-1.08,0-2,.05-2.88a87.68,87.68,0,0,0-9.36,5.1l-9.32,5.7c0,1.22-.15,3.27-.34,6.16-.16,2.54-.25,4.59-.25,6.17a5,5,0,0,1-.94,2.84,5.24,5.24,0,0,1-2.37,2,2.37,2.37,0,0,1-2.37-.11,2.5,2.5,0,0,1-.95-2.2q0-2.8.43-8.56c.28-3.83.43-6.68.43-8.55,0-2.37,0-6,.14-10.77s.15-8.39.15-10.76a5.27,5.27,0,0,1,.95-3,5,5,0,0,1,2.37-2,2.32,2.32,0,0,1,2.36.16,2.65,2.65,0,0,1,1,2.27q0,2.16-.14,6.54c-.08,2.92-.13,5.1-.13,6.54,0,.47-.06,1.41-.17,2.79s-.14,2.26-.12,2.92l9.32-5.71a81.53,81.53,0,0,1,9.36-5c.06-1.3.17-4.77.31-10.4a19.58,19.58,0,0,1,1.13-5.49c.9-2.68,1.91-4.25,3-4.69a2.42,2.42,0,0,1,2.25.12,2.46,2.46,0,0,1,1.06,2.28A3.9,3.9,0,0,1,2453.83,1413.94Z"/><path class="cls-10" d="M2474.25,1446.71q-7,2.82-12,0-5.29-3-5.3-11.14a42.3,42.3,0,0,1,5.08-19.43q5.7-11.07,14.29-14.4,8.22-3.19,12.3-.31t4.08,11.8a43.39,43.39,0,0,1-4.59,19Q2482.84,1443.25,2474.25,1446.71Zm2.11-37.35q-5.28,2.06-9.05,9.59a31,31,0,0,0-3.55,14c0,3.11,1,5.23,3.07,6.36s4.44,1,7.42-.16q5.2-2.07,8.66-9.48a32,32,0,0,0,3.17-13.76c0-3.91-.73-6.33-2.21-7.28S2480,1408,2476.36,1409.36Z"/><path class="cls-10" d="M2503.83,1417.66c-.26.1-.91.3-1.95.58q-.14,3.94-.14,12.82a5.44,5.44,0,0,1-.86,2.87,4.53,4.53,0,0,1-2.19,1.94,2.08,2.08,0,0,1-2.2-.17,2.62,2.62,0,0,1-.88-2.18v-7.76q0-4.32.47-13t.47-13c0-4.82,1.15-7.57,3.4-8.24a15.51,15.51,0,0,1,2.19-1.22q1.4-.67,3.39-1.44a10.09,10.09,0,0,1,8.51.21q4.41,2.21,4.41,7.84a20.86,20.86,0,0,1-4.68,13.09A23.61,23.61,0,0,1,2503.83,1417.66Zm1.16-21.4-1.31.53a9,9,0,0,0-1,.44c0,.87,0,2.18,0,3.92,0,2.07-.17,5.33-.44,9.78a11.6,11.6,0,0,0,1.58-.4,14.12,14.12,0,0,0,6-4.42,10.7,10.7,0,0,0,2.54-6.78,3.26,3.26,0,0,0-2.38-3.25A6.73,6.73,0,0,0,2505,1396.26Z"/><path class="cls-10" d="M2544.82,1381.58a3,3,0,0,1-1,.21,23.71,23.71,0,0,0-7.16,1.58,29.25,29.25,0,0,0-3.66,1.76c-1.31.73-2.71,1.6-4.18,2.62q0,3.66-.21,11,1.28-.62,8.92-4.53c2.89-1.48,4.72-2.38,5.5-2.68a2.3,2.3,0,0,1,2.28.13,2.63,2.63,0,0,1,.95,2.35,5.15,5.15,0,0,1-2.87,4.83q-1.82.89-5.43,2.7-3.23,1.71-9.76,4.93c-.11,2.37-.16,4.28-.16,5.71,0,3.6.17,5.57.52,5.93.17.17,1.13-.09,2.88-.79q1.43-.57,4.27-1.79c1.89-.81,3.31-1.41,4.25-1.78a12.16,12.16,0,0,0,1.34-.7,9.68,9.68,0,0,1,1.32-.69,2.47,2.47,0,0,1,2.24,0,2.51,2.51,0,0,1,1.06,2.42,5.28,5.28,0,0,1-2.65,4.73,70.35,70.35,0,0,1-9.43,4.32c-5,2-8.21,2.49-9.72,1.48q-2.51-1.68-2.5-10.59,0-3.69.45-11.28t.44-11.25a22.11,22.11,0,0,0-.23-2.77,24.26,24.26,0,0,1-.23-2.76q0-4.2,3.22-5.44a2.38,2.38,0,0,1,1.85,0q2.65-1.83,5-3.15a36.14,36.14,0,0,1,4.5-2.15q5.73-2.22,9.15-1.95c1.39.1,2.08,1,2.08,2.67a5.63,5.63,0,0,1-.81,2.83A4.53,4.53,0,0,1,2544.82,1381.58Z"/><path class="cls-10" d="M2561.52,1411.67c-3.81,1.52-6.8,1.7-9,.52a5,5,0,0,1-2.77-4.82,6.27,6.27,0,0,1,.86-3.2,4.65,4.65,0,0,1,2.37-2.08c1.35-.54,2.34-.09,3,1.33q1.28,2.85,5.79,1a23.12,23.12,0,0,0,7.44-5c2.49-2.38,3.72-4.4,3.72-6.07,0-2.28-.77-3.48-2.31-3.59q-1.65-.13-6.63,1.7a14.42,14.42,0,0,1-7,1c-2.77-.42-4.14-2-4.09-4.89q.06-5.36,4.68-11.59t10.12-8.37a15.33,15.33,0,0,1,5.4-.88c2.65,0,4,.64,4,2a5.51,5.51,0,0,1-.8,2.8,4.55,4.55,0,0,1-2.28,2.12,14.29,14.29,0,0,1-3.13.68,14.23,14.23,0,0,0-3.16.69,16,16,0,0,0-5.48,3.83q-2.68,2.75-2.69,4.74a1.34,1.34,0,0,0,.82,1.38,4.2,4.2,0,0,0,2.45,0l5.7-1.86q4.95-1.48,7.82.32,3.15,2,3.15,7.75,0,7-6.53,13.21A35.87,35.87,0,0,1,2561.52,1411.67Z"/><path class="cls-10" d="M2625.48,1386.86a1.82,1.82,0,0,1-2.39-.8c-.44-.72-1.08-1.8-2-3.26q-4.33,6.15-9.54,8.25-4.38,1.74-7.51-.19-3.35-2-3.35-7.22a18.09,18.09,0,0,1,3.28-10q1-1.62,6.84-8.47a22.47,22.47,0,0,1-1.26-7,15.27,15.27,0,0,1,2-6.79q2.15-4.21,4.7-5.2,2.94-1.14,4.82.46a5.84,5.84,0,0,1,1.79,4.73q0,6.2-5.14,13a51.21,51.21,0,0,0,3.33,6l.71-4.48q.74-2.83,2.46-3.51a1.56,1.56,0,0,1,2.05.66,4.5,4.5,0,0,1,.66,2.54,28.4,28.4,0,0,1-2.11,10.37q3.47,5,3.47,6.57a4.68,4.68,0,0,1-.88,2.67A4.5,4.5,0,0,1,2625.48,1386.86Zm-12.17-16.93-4.5,5.32a10.7,10.7,0,0,0-2.43,6.15,3.19,3.19,0,0,0,1.56,3.11,4.26,4.26,0,0,0,3.66-.06q3.65-1.46,6.45-6Q2616.73,1376.54,2613.31,1369.93Zm3-17.17a2.41,2.41,0,0,0-1,1.43,5.56,5.56,0,0,0-.33,1.81,11.25,11.25,0,0,0,.41,1.91c.3,1.13.46,1.75.48,1.87a17.68,17.68,0,0,0,1.38-2.82,8.11,8.11,0,0,0,.76-2.73,3.1,3.1,0,0,0-.24-1.54C2617.53,1352.36,2617,1352.38,2616.3,1352.76Z"/><path class="cls-10" d="M2429.64,1532.92a2.37,2.37,0,0,1-2.41-.14,2.65,2.65,0,0,1-1-2.3c0-1.89.07-4.77.23-8.62s.23-6.72.23-8.61c0-2.11,0-5.24-.11-9.42s-.11-7.31-.11-9.41a7.2,7.2,0,0,1,1.29-3.64,6.29,6.29,0,0,1,2.75-2.67,10.61,10.61,0,0,1,4,.11,37.8,37.8,0,0,0,4.45.53,19.11,19.11,0,0,1,12,3.35q5.92,4.25,5.92,12.31a27.78,27.78,0,0,1-2,10.11,32.66,32.66,0,0,1-5.58,9.54,29.29,29.29,0,0,1-11.25,7.8A17.8,17.8,0,0,1,2434,1533,10,10,0,0,1,2429.64,1532.92Zm13.6-34.8q-2.34-.75-10.06-1.28v28.06a4.79,4.79,0,0,0,2.17.15,10.51,10.51,0,0,0,2.72-.79q5.22-2.19,7.48-4.84a19.53,19.53,0,0,0,3.4-5.8,17.55,17.55,0,0,0,1.26-6.28Q2450.21,1500.35,2443.24,1498.12Z"/><path class="cls-10" d="M2485.12,1509.55a2.28,2.28,0,0,1-2.33-.19,24.41,24.41,0,0,0-15.74-4.41q.25,8.05.26,9a5.8,5.8,0,0,1-.95,3.11,5.21,5.21,0,0,1-2.38,2.11,2.27,2.27,0,0,1-2.38-.1,2.67,2.67,0,0,1-1-2.31q0-2.12.05-6.33t0-6.33l.05-22.71a8.27,8.27,0,0,1,.93-3.7,5.68,5.68,0,0,1,3.35-3.08l5.91-1.89a12.93,12.93,0,0,1,5.64-.43q10.05,1.89,10.05,10.75a14.66,14.66,0,0,1-2.1,7.33,29.47,29.47,0,0,1-6.33,7.37c4.17,1,7.29,2.52,9.39,4.5a2.8,2.8,0,0,1,.82,2.14,5.76,5.76,0,0,1-1,3.1A5.24,5.24,0,0,1,2485.12,1509.55ZM2470,1480.68c-.13,0-1,.34-2.78.91v14.9c.4-.14.75-.28,1.05-.41a25.65,25.65,0,0,0,8.59-5.28,16.12,16.12,0,0,0,2.21-2.84,5.54,5.54,0,0,0,1-2.23q0-3.13-3.35-4.66A9.46,9.46,0,0,0,2470,1480.68Z"/><path class="cls-10" d="M2515.24,1461.06a3.15,3.15,0,0,1-1,.24,24.46,24.46,0,0,0-7.29,1.77,31.74,31.74,0,0,0-3.74,1.87c-1.33.77-2.75,1.68-4.26,2.75q0,3.69-.21,11.06c.87-.43,3.91-2,9.09-4.79,3-1.57,4.81-2.52,5.6-2.84a2.36,2.36,0,0,1,2.33.07,2.6,2.6,0,0,1,1,2.35,5.37,5.37,0,0,1-2.93,5q-1.86.93-5.53,2.85-3.29,1.82-9.94,5.23c-.11,2.39-.17,4.32-.17,5.76q0,5.45.54,6c.17.17,1.15-.12,2.93-.87q1.44-.6,4.34-1.91c1.94-.87,3.38-1.5,4.34-1.9a12.22,12.22,0,0,0,1.36-.74,10.51,10.51,0,0,1,1.34-.73,2.56,2.56,0,0,1,2.29-.05,2.47,2.47,0,0,1,1.08,2.42,5.48,5.48,0,0,1-2.7,4.84,74.39,74.39,0,0,1-9.61,4.59c-5.05,2.14-8.36,2.72-9.9,1.74q-2.55-1.64-2.55-10.62,0-3.73.46-11.4t.45-11.37a22.38,22.38,0,0,0-.23-2.78,22.51,22.51,0,0,1-.23-2.79q0-4.23,3.27-5.57a2.45,2.45,0,0,1,1.89-.07q2.7-1.92,5.13-3.31a39,39,0,0,1,4.59-2.28c3.89-1.58,7-2.32,9.32-2.2,1.41.07,2.11,1,2.11,2.64a5.8,5.8,0,0,1-.82,2.89A4.82,4.82,0,0,1,2515.24,1461.06Z"/><path class="cls-10" d="M2547.67,1483.64q-1.78.67-3.6-3.57a35.75,35.75,0,0,1-2.06-6.59c-1.12.67-3,1.63-5.5,2.9s-4.24,2.22-5.52,3q-1,3.46-3.66,10.64a5.49,5.49,0,0,1-2.79,3.17,2.41,2.41,0,0,1-2.28-.08,2.36,2.36,0,0,1-1-2.21c0-.93,1.12-4.59,3.36-10.94a3.1,3.1,0,0,1-.28-1.49c.06-.91.8-1.91,2.22-3q3.25-8.13,7.23-17,5.68-12.76,7-13.29,2.5-1,3.34,2.28c.3,1.83.78,4.56,1.42,8.2q1.38,7.32,3.37,16.64a27.21,27.21,0,0,0,1.16,3.13,9.18,9.18,0,0,1,.81,3.18,5.52,5.52,0,0,1-1,3.07A4.78,4.78,0,0,1,2547.67,1483.64Zm-8.45-24.58q-1.78,4.41-4.9,12a29.79,29.79,0,0,1,3.19-1.77c1.7-.83,2.77-1.38,3.21-1.63Q2540.17,1464.37,2539.22,1459.06Z"/><path class="cls-10" d="M2565.14,1453.94q-1,4.83-2.82,14.5-.42,3.25-.83,6.48c-.61,2.84-1.74,4.6-3.39,5.3a2.06,2.06,0,0,1-2.45-.25,3.08,3.08,0,0,1-.76-2.27,55.68,55.68,0,0,1,1.55-11.44c1.54-7,2.38-10.85,2.49-11.59q.66-4.47,1.33-9a34.79,34.79,0,0,1,2.18-8.6,6,6,0,0,1,3-3.13,2.08,2.08,0,0,1,3,1.28q.9,2,1.92,8.89a128.77,128.77,0,0,0,2.92,14q2.53-9.12,4.71-19.64l1.24-6.75c.8-2.91,2-4.7,3.7-5.39s2.8.36,3.58,3a44.44,44.44,0,0,1,1,6.33,136.41,136.41,0,0,0,3.22,18.39c1.3,5,2,7.76,2,8.25a5.44,5.44,0,0,1-1,3.1,5.16,5.16,0,0,1-2.18,1.9q-2.4,1-3.57-2.71l-1.23-6q-1.07-4.43-2.3-13-1,4-3.3,12.78l-1.33,5.54a47.53,47.53,0,0,1-1.71,5.58,6.5,6.5,0,0,1-3.29,3.91q-2.1.88-3.21-1.66l-1.25-4.53Q2566.53,1461,2565.14,1453.94Z"/><path class="cls-10" d="M2606,1459.85q-5.54,2.34-8.74.65a4.88,4.88,0,0,1-2.7-4.71,6.27,6.27,0,0,1,.84-3.17,4.64,4.64,0,0,1,2.3-2.08,2,2,0,0,1,2.89,1.26q1.24,2.79,5.63,1a23,23,0,0,0,7.24-5.06c2.41-2.38,3.62-4.4,3.62-6q0-3.37-2.25-3.51-1.61-.11-6.45,1.78a13.92,13.92,0,0,1-6.76,1.07q-4-.56-4-4.76.07-5.28,4.55-11.5t9.85-8.41a14.88,14.88,0,0,1,5.24-.94q3.87-.09,3.87,1.86a5.7,5.7,0,0,1-.77,2.78,4.62,4.62,0,0,1-2.23,2.13,13.27,13.27,0,0,1-3,.71,14.13,14.13,0,0,0-3.07.73,15.94,15.94,0,0,0-5.33,3.86c-1.74,1.83-2.62,3.4-2.62,4.71a1.31,1.31,0,0,0,.8,1.35,4.06,4.06,0,0,0,2.39-.06l5.54-1.92c3.21-1,5.74-1,7.6.19,2,1.29,3.06,3.83,3.06,7.6q0,6.9-6.35,13.13A35.3,35.3,0,0,1,2606,1459.85Z"/><path class="cls-2" d="M2352.67,1773.68s-7,80.06,3.26,167.45"/><polyline class="cls-2" points="2342.35 1936.4 2356.88 1956.18 2370.39 1935.62"/></svg>