<svg width="436" height="61" viewBox="0 0 436 61" fill="none" xmlns="http://www.w3.org/2000/svg">
<path d="M431.268 2H4.3602C3.12456 2 2.18454 3.10932 2.38731 4.3282L11.2042 57.3282C11.3646 58.2929 12.1991 59 13.177 59H425.699C426.723 59 427.581 58.227 427.688 57.209L433.257 4.20898C433.381 3.02824 432.455 2 431.268 2Z" fill="#C38173" stroke="#944231" stroke-width="4"/>
<path d="M324.257 42.5316L323.392 42.6009C322.653 42.7624 321.36 42.4623 319.513 41.7006C319.421 41.7006 319.375 41.7121 319.375 41.7352C318.567 41.2966 318.048 40.9619 317.817 40.731C316.94 39.4152 316.489 38.388 316.466 37.6493C316.466 37.5339 316.663 37.2569 317.055 36.8183C317.078 36.749 317.251 36.6336 317.574 36.472C317.921 36.3104 318.232 36.2181 318.509 36.195C318.879 36.2412 319.133 36.3566 319.271 36.5413L319.998 37.5108L320.379 37.9263L321.002 38.4457L321.487 38.9305L322.18 39.4845C322.272 39.5307 322.353 39.5653 322.422 39.5884C322.514 39.5884 322.676 39.6115 322.907 39.6576C323.161 39.6807 323.345 39.6692 323.461 39.623C323.576 39.5768 323.726 39.5307 323.911 39.4845C324.096 39.4152 324.257 39.346 324.396 39.2767C324.696 38.9766 324.88 38.8035 324.95 38.7574L325.4 38.2033C325.446 38.1572 325.515 37.961 325.608 37.6147C325.608 37.3146 325.608 37.1184 325.608 37.026C325.631 36.9337 325.631 36.8529 325.608 36.7837C325.585 36.6913 325.561 36.5874 325.538 36.472C325.515 36.3566 325.492 36.2643 325.469 36.195C325.446 36.1027 325.273 35.918 324.95 35.641C324.811 35.364 324.615 35.0754 324.361 34.7753C324.292 34.7061 323.726 34.4175 322.664 33.9097L321.626 33.3557L321.002 32.8363C320.633 32.7209 320.31 32.5362 320.033 32.2823C319.779 32.0283 319.629 31.8898 319.583 31.8667C319.259 31.7513 318.717 31.2781 317.955 30.4471C317.955 30.424 317.747 29.9969 317.332 29.1659L316.951 27.8155L317.09 26.9152C316.905 26.4535 316.836 26.0034 316.882 25.5648C316.974 25.4263 317.078 25.1493 317.193 24.7338C317.147 24.526 317.228 24.2028 317.436 23.7642C317.667 23.3025 317.817 23.0255 317.886 22.9332C317.955 22.8409 318.013 22.7485 318.059 22.6562C318.059 22.4946 318.555 21.9175 319.548 20.9249L321.245 19.99C322.491 19.8515 323.288 19.7822 323.634 19.7822C324.442 19.8515 324.996 19.9669 325.296 20.1285C325.804 20.4517 326.196 20.7171 326.473 20.9249C327.489 21.8021 328.066 22.5869 328.205 23.2795C328.689 24.5722 328.759 25.8303 328.412 27.0537C328.412 27.1691 328.089 27.3654 327.443 27.6424H326.577C326.208 27.6424 325.873 27.5731 325.573 27.4346C325.273 27.273 324.892 26.9845 324.43 26.569C324.246 26.4766 324.096 26.165 323.98 25.634C323.957 25.08 323.83 24.7453 323.599 24.6299C323.576 24.6068 323.484 24.399 323.322 24.0066L322.941 23.5911C322.78 23.3833 322.63 23.2795 322.491 23.2795C322.376 23.2795 322.237 23.3256 322.076 23.418C321.753 23.6719 321.464 24.0066 321.21 24.4221C320.979 24.8376 320.852 25.2993 320.829 25.8072C320.829 26.315 320.864 26.7075 320.933 26.9845C321.002 27.2615 321.187 27.6193 321.487 28.0579C321.787 28.4734 321.972 28.6811 322.041 28.6811C322.11 28.7966 322.561 29.2352 323.392 29.9969L324.88 31.0357L325.469 31.5897L326.162 32.0053C326.531 32.1438 326.9 32.3515 327.27 32.6285C327.639 32.8824 327.87 33.0902 327.962 33.2518L328.482 33.7712L329.001 34.4983C329.139 34.6599 329.347 35.2717 329.624 36.3335L329.693 37.6839L329.52 38.4803C329.451 38.5496 329.336 38.792 329.174 39.2075C329.197 39.2767 329.082 39.5884 328.828 40.1424C328.759 40.2809 328.482 40.5464 327.997 40.9388C327.535 41.3081 327.258 41.5159 327.166 41.5621C327.143 41.6313 326.912 41.7467 326.473 41.9083C326.404 41.9776 326.196 42.0699 325.85 42.1853C325.527 42.2777 325.204 42.3123 324.88 42.2892L324.257 42.5316Z" fill="#F9E9E5"/>
<path d="M293.989 26.1188C294.289 24.3875 294.578 23.3833 294.855 23.1063C294.855 23.0832 294.89 23.0024 294.959 22.8639C295.213 22.3791 295.351 22.1368 295.374 22.1368C295.398 22.1368 295.548 22.0213 295.825 21.7905C296.032 21.5135 296.275 21.3404 296.552 21.2711C297.313 21.2019 297.706 21.1903 297.729 21.2365C297.752 21.2596 297.96 21.2711 298.352 21.2711C298.722 21.2249 298.976 21.2249 299.114 21.2711C299.253 21.3173 299.414 21.375 299.599 21.4442C299.807 21.4904 300.049 21.5597 300.326 21.652C300.603 21.7443 300.799 21.8482 300.915 21.9636C301.03 22.056 301.134 22.3791 301.226 22.9332C301.342 23.4872 301.446 23.8219 301.538 23.9373C301.584 24.4452 301.619 24.7337 301.642 24.803C301.665 24.8722 301.688 24.9992 301.711 25.1839C301.757 25.6225 301.815 26.2342 301.884 27.019C302.161 29.0504 302.3 30.297 302.3 30.7587C302.507 30.9664 302.623 31.1973 302.646 31.4512C302.715 31.959 302.808 32.7324 302.923 33.7711C302.946 33.7711 303.027 34.1174 303.165 34.8099C303.304 35.4794 303.373 35.8833 303.373 36.0218C303.465 36.068 303.535 36.2181 303.581 36.472C303.765 36.8644 303.916 36.9106 304.031 36.6105C304.1 36.3104 304.32 35.4794 304.689 34.1174C304.689 33.5634 304.747 33.2864 304.862 33.2864C304.931 33.2864 304.943 33.1479 304.897 32.8709C304.943 32.4554 305.058 32.0398 305.243 31.6243C305.543 30.9318 305.785 30.2393 305.97 29.5468C305.947 29.3852 305.958 29.212 306.005 29.0274C306.259 28.3579 306.409 27.7693 306.455 27.2614C306.432 27.0075 306.455 26.7767 306.524 26.5689C306.593 26.3381 306.628 26.188 306.628 26.1188L306.801 25.0454C306.801 24.7453 306.859 24.3067 306.974 23.7296C307.09 23.1294 307.205 22.7485 307.32 22.5869C307.367 22.3561 307.39 22.1598 307.39 21.9983C307.505 21.8598 307.597 21.7212 307.667 21.5827C307.759 21.4442 307.851 21.3173 307.944 21.2019C308.059 20.694 308.579 20.6017 309.502 20.9248C309.848 21.0864 310.067 21.2019 310.16 21.2711C310.252 21.3404 310.344 21.4673 310.437 21.652C310.737 21.9752 310.875 22.2637 310.852 22.5177C310.783 22.4484 310.76 22.5061 310.783 22.6908C310.783 22.7369 310.795 22.7947 310.818 22.8639C310.91 22.8639 310.945 23.014 310.922 23.3141C310.898 23.5911 310.852 23.7988 310.783 23.9373C310.737 24.0758 310.691 24.2605 310.645 24.4913C310.645 24.5375 310.598 24.7222 310.506 25.0454C310.414 25.3455 310.368 25.6571 310.368 25.9803C310.368 26.2804 310.171 27.019 309.779 28.1963C309.663 28.3118 309.525 28.7388 309.363 29.4775C309.225 30.2162 309.109 30.6663 309.017 30.8279C309.086 30.9664 308.982 31.2204 308.705 31.5897C308.752 31.8667 308.729 32.0629 308.636 32.1783C308.544 32.2707 308.475 32.4438 308.428 32.6977C308.405 32.9517 308.405 33.1017 308.428 33.1479C308.475 33.194 308.452 33.4249 308.359 33.8404C308.29 34.2559 308.232 34.5098 308.186 34.6022C308.117 34.6483 308.082 34.7522 308.082 34.9138C308.082 35.0754 308.013 35.4678 307.874 36.0911C307.736 36.6913 307.632 37.0375 307.563 37.1299C307.609 37.2453 307.528 37.6377 307.32 38.3072C307.113 38.9535 306.974 39.4037 306.905 39.6576C306.766 40.4425 306.651 40.9388 306.559 41.1465C306.489 41.3312 306.351 41.4466 306.143 41.4928C306.143 41.4235 305.982 41.3774 305.658 41.3543C305.358 41.3312 305.127 41.3312 304.966 41.3543C304.827 41.3543 304.677 41.3427 304.516 41.3196C304.377 41.2966 304.227 41.2735 304.066 41.2504C303.904 41.2042 303.754 41.1581 303.615 41.1119C303.5 41.0657 303.396 41.0311 303.304 41.008C303.235 40.9618 303.211 40.9272 303.235 40.9041L302.819 40.731C302.819 40.8464 302.507 40.858 301.884 40.7656C301.584 40.7656 301.342 40.6156 301.157 40.3155C301.042 40.2001 300.972 40.0269 300.949 39.7961C300.811 39.8423 300.591 39.4498 300.291 38.6188C299.991 37.7647 299.783 37.0722 299.668 36.5412C299.576 35.9872 299.483 35.5717 299.391 35.2947C299.322 35.0177 299.253 34.6022 299.183 34.0482C299.137 33.4941 299.068 33.171 298.976 33.0786C299.022 32.9863 299.033 32.8478 299.01 32.6631C298.987 32.4784 298.814 31.3127 298.491 29.1659C298.491 28.7273 298.479 28.508 298.456 28.508C298.318 28.508 298.248 28.3695 298.248 28.0925L298.214 27.6423C298.145 27.8039 298.087 28.0925 298.041 28.508C297.994 29.0389 297.902 29.5814 297.764 30.1354C297.625 30.6663 297.591 30.9433 297.66 30.9664L297.417 33.3556C297.417 33.8635 297.348 34.2675 297.21 34.5675C297.233 34.5675 297.244 34.5791 297.244 34.6022C297.244 34.7176 297.221 34.8792 297.175 35.0869C297.152 35.2947 297.129 35.8833 297.106 36.8529C297.083 37.7993 297.048 38.6188 297.002 39.3113C296.956 40.0039 296.944 40.4078 296.967 40.5232C296.99 40.6156 296.944 40.7656 296.829 40.9734C296.829 41.2042 296.702 41.3889 296.448 41.5274C296.102 41.8275 295.709 41.8275 295.271 41.5274C294.878 41.412 294.624 41.3543 294.509 41.3543C294.416 41.3543 294.324 41.3312 294.232 41.285C294.093 41.285 293.909 41.2735 293.678 41.2504C293.678 41.2966 293.574 41.2389 293.366 41.0773C293.32 41.0773 293.297 40.9734 293.297 40.7656C293.297 40.5348 293.251 40.4194 293.158 40.4194C293.089 40.4194 293.043 40.454 293.02 40.5232V40.1424C293.112 40.05 293.112 39.9115 293.02 39.7268L292.985 38.7227C292.916 38.5611 292.881 38.2841 292.881 37.8917C292.881 37.4992 292.904 37.2799 292.951 37.2338V36.7144C293.02 36.5759 293.054 36.0334 293.054 35.0869C292.985 34.4406 293.054 33.8173 293.262 33.2171C293.239 33.171 293.274 32.894 293.366 32.3861C293.297 32.2476 293.297 31.936 293.366 31.4512L293.435 30.3432L293.608 29.1659C293.608 28.9812 293.632 28.7042 293.678 28.3348C293.886 27.6654 293.989 26.9267 293.989 26.1188Z" fill="#F9E9E5"/>
<path d="M275.766 31.382C275.697 31.4512 275.639 31.9013 275.593 32.7324C275.547 33.5634 275.501 34.0251 275.455 34.1174L275.489 36.0565C275.605 36.749 275.72 37.2453 275.836 37.5454C275.951 37.8455 276.02 38.0302 276.043 38.0994C276.066 38.1687 276.089 38.2495 276.113 38.3418C276.136 38.4111 276.251 38.5611 276.459 38.792C276.667 39.0228 276.84 39.2421 276.978 39.4498C277.001 39.4498 277.094 39.5191 277.255 39.6576C277.648 39.9577 277.971 40.05 278.225 39.9346C278.248 39.9346 278.375 39.8769 278.606 39.7615C278.606 39.6922 278.744 39.623 279.021 39.5537C279.044 39.5537 279.113 39.4614 279.229 39.2767C279.275 39.2767 279.367 39.1959 279.506 39.0343C279.506 38.9651 279.575 38.8727 279.714 38.7573C279.852 38.6188 279.968 38.5034 280.06 38.4111C280.037 38.3649 280.152 38.1456 280.406 37.7532C280.499 37.7532 280.752 37.303 281.168 36.4027C281.653 35.387 281.895 34.8561 281.895 34.8099C281.895 34.7407 281.953 34.5099 282.068 34.1174C282.184 33.7019 282.253 33.4134 282.276 33.2518C282.322 33.0671 282.368 32.917 282.415 32.8016C282.461 32.6862 282.484 32.4207 282.484 32.0052C282.53 31.9821 282.611 31.4628 282.726 30.4471V29.2698L282.692 27.677C282.645 27.5385 282.622 27.3884 282.622 27.2268C282.622 27.0652 282.599 26.9383 282.553 26.8459C282.53 26.7536 282.507 26.6035 282.484 26.3958C282.368 25.4493 282.172 24.8376 281.895 24.5606C281.895 24.4683 281.71 24.2605 281.341 23.9373L280.995 23.8681C280.625 23.8219 279.968 24.0758 279.021 24.6299C278.975 24.6299 278.779 24.7684 278.433 25.0454C278.109 25.3224 277.913 25.5071 277.844 25.5994C277.775 25.6225 277.648 25.7264 277.463 25.911C276.817 26.5112 276.251 28.3349 275.766 31.382ZM280.614 20.1631C280.868 20.1631 281.122 20.1631 281.376 20.1631L282.449 20.4055C282.703 20.4516 282.934 20.5901 283.142 20.821C284.573 21.929 285.335 22.737 285.427 23.2448C285.542 23.5218 285.623 23.718 285.669 23.8335C285.716 23.9489 285.762 24.0643 285.808 24.1797V24.2143C285.808 24.2605 285.819 24.3298 285.842 24.4221C285.981 24.8376 286.108 25.5186 286.223 26.465C286.408 27.3653 286.431 28.3349 286.293 29.3736C286.293 29.7199 286.27 29.9854 286.223 30.17C286.246 30.424 286.212 30.8049 286.12 31.3127C286.189 31.4974 286.12 31.7859 285.912 32.1784C285.912 32.4554 285.808 32.9517 285.6 33.6673C285.669 33.8058 285.473 34.4637 285.011 35.641C284.55 36.8183 283.961 38.0417 283.246 39.3113C282.922 39.9577 282.403 40.6848 281.687 41.4928C281.549 41.7005 281.214 42.0237 280.683 42.4623C280.106 43.0856 279.575 43.478 279.09 43.6396C279.021 43.6627 278.848 43.6627 278.571 43.6396C278.294 43.6396 278.121 43.605 278.052 43.5357C277.752 43.5357 277.555 43.5126 277.463 43.4665C277.394 43.4203 277.348 43.3972 277.324 43.3972C277.209 43.3511 277.071 43.3049 276.909 43.2587C276.77 43.2356 276.62 43.1895 276.459 43.1202C276.297 43.051 276.193 43.0163 276.147 43.0163C276.101 43.0163 276.055 43.0048 276.009 42.9817C275.986 42.9586 275.882 42.924 275.697 42.8778C275.535 42.8317 275.085 42.6239 274.347 42.2546C274.324 42.2546 274.22 42.1507 274.035 41.9429L273.481 41.562C273.319 41.562 273.181 41.3889 273.065 41.0427C272.927 40.9041 272.823 40.7426 272.754 40.5579C272.5 40.5579 272.281 39.8884 272.096 38.5496C271.98 37.9725 271.888 37.2915 271.819 36.5066C271.773 36.4143 271.75 36.2527 271.75 36.0219C271.68 35.6063 271.646 35.2139 271.646 34.8446C271.6 34.6599 271.577 34.4175 271.577 34.1174C271.577 33.8173 271.565 33.6557 271.542 33.6327C271.519 33.6096 271.496 33.3326 271.473 32.8016C271.473 32.2707 271.484 31.9937 271.507 31.9706C271.53 31.9244 271.553 31.7051 271.577 31.3127L271.646 29.5121V28.8889L271.715 27.5038C271.715 27.3884 271.75 27.1576 271.819 26.8113C271.865 26.7651 271.934 26.4304 272.027 25.8071C272.211 25.0223 272.338 24.5606 272.408 24.4221C272.5 24.2605 272.558 24.1335 272.581 24.0412C272.627 23.9489 272.685 23.8565 272.754 23.7642C272.823 23.6719 272.938 23.4641 273.1 23.1409L273.723 22.206C273.723 22.1599 273.793 22.0675 273.931 21.929C274.093 21.7905 274.22 21.7097 274.312 21.6866C274.358 21.5481 274.451 21.4673 274.589 21.4443C274.751 21.3981 274.993 21.2711 275.316 21.0634C275.57 20.971 275.697 20.9018 275.697 20.8556C276.113 20.5786 276.597 20.4401 277.151 20.4401L277.671 20.4747L278.675 20.8556C279.506 20.5324 280.002 20.3708 280.164 20.3708C280.21 20.3016 280.36 20.2323 280.614 20.1631Z" fill="#F9E9E5"/>
<path d="M265.382 23.4529C265.452 23.753 265.394 23.9608 265.209 24.0762C265.025 24.1685 264.828 24.2147 264.621 24.2147C264.436 24.2147 263.928 24.2378 263.097 24.2839C262.566 24.3994 262.035 24.5494 261.504 24.7341H261.47C261.47 25.1496 261.354 25.7613 261.123 26.5693C261.123 26.8463 261.066 27.2964 260.95 27.9197C260.95 28.1044 260.916 28.289 260.846 28.4737C260.777 28.6584 260.743 28.9469 260.743 29.3394C260.581 30.2858 260.512 30.8052 260.535 30.8975C260.558 30.9899 260.558 31.1168 260.535 31.2784C260.512 31.44 260.466 31.6824 260.396 32.0056C260.327 32.3287 260.292 32.7096 260.292 33.1482C260.292 33.5868 260.235 33.9793 260.119 34.3255V34.7064C260.165 35.5374 260.131 36.1261 260.015 36.4723C259.923 36.8186 259.877 37.1187 259.877 37.3726C259.877 37.6035 259.819 37.9728 259.704 38.4807C259.588 38.9885 259.554 39.5887 259.6 40.2812H259.808C260.385 40.235 260.685 40.2235 260.708 40.2466C260.754 40.2466 260.916 40.212 261.193 40.1427L261.747 40.1773H262.093C262.162 40.1773 262.312 40.2697 262.543 40.4543C262.774 40.6159 262.936 40.7775 263.028 40.9391C263.189 41.1007 263.236 41.2623 263.166 41.4239C263.12 41.5624 262.866 41.8048 262.405 42.151L261.747 42.3588C261.677 42.428 261.516 42.5088 261.262 42.6012C261.008 42.6935 260.789 42.7397 260.604 42.7397C260.073 42.8551 259.762 43.0513 259.669 43.3283C259.577 43.513 259.023 43.5822 258.007 43.5361H256.83L256.172 43.7438C255.595 43.9747 255.087 44.0324 254.648 43.917C254.21 43.8015 253.91 43.7092 253.748 43.6399C253.61 43.5938 253.436 43.4784 253.229 43.2937C253.021 43.1321 252.929 42.9359 252.952 42.705C252.998 42.4973 253.079 42.1857 253.194 41.7701C253.587 41.447 253.864 41.2392 254.025 41.1469C255.133 40.8006 255.837 40.5698 256.137 40.4543C256.137 39.6926 256.114 39.2424 256.068 39.1039C256.137 39.0808 256.218 38.5845 256.31 37.615C256.334 37.5227 256.276 37.3034 256.137 36.9571V36.7493C256.207 36.103 256.195 35.5144 256.103 34.9834C256.103 34.9603 256.149 34.5564 256.241 33.7715C256.357 33.633 256.357 33.2637 256.241 32.6635C256.334 32.2249 256.414 31.8786 256.484 31.6247L256.518 31.1399C256.518 31.0014 256.587 30.5859 256.726 29.8934V29.5471L256.795 29.2701C257.211 27.5619 257.488 26.3153 257.626 25.5305C257.442 25.5766 257.326 25.5997 257.28 25.5997L256.137 25.7729C255.26 26.0037 254.487 25.8075 253.817 25.1842C253.24 24.3994 253.229 23.7299 253.783 23.1759C254.129 22.8758 254.66 22.6681 255.376 22.5526C255.999 22.3449 256.403 22.1948 256.587 22.1025C256.818 22.1025 257.361 21.8486 258.215 21.3407C259.069 21.2253 259.565 21.1676 259.704 21.1676L261.331 20.9598C261.539 20.9367 261.816 20.9598 262.162 21.0291C262.509 21.0752 262.716 21.1445 262.786 21.2368C263.086 21.3061 263.455 21.4446 263.894 21.6524L264.725 22.4141C265.048 22.8758 265.267 23.2221 265.382 23.4529Z" fill="#F9E9E5"/>
<path d="M242.337 23.7646C242.29 24.1801 242.267 24.6071 242.267 25.0457C242.267 25.8768 242.221 26.627 242.129 27.2964C242.037 27.9659 241.979 28.4275 241.956 28.6815C241.933 28.9123 241.898 29.1432 241.852 29.374V29.6164C241.852 30.0319 241.76 30.4474 241.575 30.8629L241.471 32.4211L241.332 35.7106V37.4419C241.332 38.3191 241.286 38.7923 241.194 38.8616L241.229 39.7618V40.1427L241.194 40.5582C241.194 40.6506 241.171 40.6967 241.125 40.6967C241.171 40.9738 241.055 41.2738 240.778 41.597C240.525 41.8971 240.201 42.0933 239.809 42.1857L239.186 42.2895C239.093 42.2895 238.966 42.3011 238.805 42.3242C238.643 42.3242 238.505 42.3011 238.389 42.2549C238.274 42.2088 238.158 42.151 238.043 42.0818C237.812 41.9433 237.651 41.6778 237.558 41.2854C237.489 41.17 237.35 40.4659 237.143 39.1732C237.143 38.8962 237.12 38.5499 237.073 38.1344L237.177 37.3034V36.6455C237.177 36.23 237.224 35.9414 237.316 35.7798C237.224 35.6413 237.281 35.3412 237.489 34.8795C237.327 34.6718 237.339 34.2101 237.524 33.4945C237.431 33.1944 237.431 32.9982 237.524 32.9059C237.57 32.7674 237.593 32.4442 237.593 31.9363L237.627 31.5901C237.627 30.9206 237.697 30.3089 237.835 29.7549C237.789 29.6856 237.789 29.501 237.835 29.2009C237.881 28.9008 237.916 28.543 237.939 28.1275V27.8851C237.962 27.5388 237.974 27.1695 237.974 26.777L238.008 26.4654C238.008 26.3269 238.031 26.0499 238.078 25.6344C238.147 25.2189 238.205 24.7803 238.251 24.3186H238.182C235.735 24.988 234.234 25.3227 233.68 25.3227L233.091 25.3574C232.745 25.3574 232.387 25.2996 232.018 25.1842C231.833 25.0919 231.695 24.8495 231.603 24.4571C231.603 23.6953 231.764 23.1413 232.087 22.795C232.434 22.4488 233.068 22.1256 233.992 21.8255C234.223 21.8024 235.654 21.3176 238.285 20.3712L239.774 20.0249C240.051 19.9326 240.49 19.8864 241.09 19.8864C241.69 19.8864 242.187 19.8172 242.579 19.6787C242.995 19.5171 243.445 19.4017 243.929 19.3324C244.414 19.2401 244.922 19.1477 245.453 19.0554C245.707 18.9631 246.169 18.9861 246.838 19.1247C247.092 19.1247 247.496 19.3901 248.05 19.9211L248.258 20.4058C248.258 20.5443 248.292 20.6482 248.362 20.7175C248.454 21.3407 248.315 21.7447 247.946 21.9294C247.808 21.9986 247.565 22.091 247.219 22.2064C246.757 22.2064 245.603 22.4372 243.756 22.8989C243.664 22.8989 243.202 22.9682 242.371 23.1067L242.337 23.5568V23.7646Z" fill="#F9E9E5"/>
<path d="M219.109 31.2782V30.5856C219.109 30.1701 219.075 29.6854 219.005 29.1313C219.121 28.5773 219.086 27.931 218.902 27.1923C218.948 26.6613 218.855 25.9688 218.625 25.1147C218.625 24.9531 218.578 24.7223 218.486 24.4222L216.789 29.5122C216.443 30.9204 216.282 31.7976 216.305 32.1438L216.547 31.9361C217.609 31.8206 218.463 31.6013 219.109 31.2782ZM211.838 32.8017C211.976 31.9014 212.046 31.3705 212.046 31.2089C212.115 30.4933 212.403 29.6392 212.911 28.6466C212.911 28.6004 213.027 28.3003 213.257 27.7463C213.257 27.654 213.361 27.3192 213.569 26.7421C213.685 26.419 213.858 26.0035 214.089 25.4956C214.319 24.9647 214.458 24.63 214.504 24.4914C214.55 24.3529 214.608 24.2029 214.677 24.0413C214.769 23.8566 214.839 23.6489 214.885 23.418C214.977 22.9794 215.254 22.3792 215.716 21.6175C216.201 20.8326 216.662 20.3478 217.101 20.1632C217.54 19.9554 218.117 19.8746 218.832 19.9208L219.94 20.0593C219.963 20.0824 220.056 20.117 220.217 20.1632C220.748 20.3248 221.175 20.5094 221.499 20.7172C222.029 20.925 222.376 21.1558 222.537 21.4097C222.722 21.6636 222.791 22.0676 222.745 22.6216C222.791 23.4527 222.814 24.376 222.814 25.3917L222.849 26.0842C222.849 28.0926 222.86 29.2237 222.884 29.4776L223.022 30.9665C222.999 31.0589 223.195 32.7209 223.611 35.9527L223.888 37.1992C224.534 39.2537 224.892 40.3502 224.961 40.4887C225.03 40.6041 225.134 40.9619 225.273 41.5621C225.365 41.7699 225.342 41.9892 225.204 42.22C225.065 42.4509 224.834 42.6125 224.511 42.7048C223.888 42.7971 223.426 42.7279 223.126 42.497C222.964 42.4509 222.699 42.3355 222.33 42.1508C222.306 42.0354 222.191 41.9315 221.983 41.8391C221.776 41.7237 221.625 41.6198 221.533 41.5275C221.279 41.4583 221.06 41.1005 220.875 40.4541C220.76 40.3848 220.644 40.1886 220.529 39.8655C220.367 39.5423 220.321 39.2768 220.39 39.0691C220.252 38.8382 220.194 38.4112 220.217 37.7879C219.986 37.3724 219.906 36.7029 219.975 35.7796C219.975 35.2948 219.871 34.8331 219.663 34.3945C219.248 34.5792 218.786 34.7523 218.278 34.9139C217.77 35.0524 217.17 35.1217 216.478 35.1217C215.808 35.1217 215.474 35.1678 215.474 35.2602C215.474 35.5141 215.393 35.8834 215.231 36.3682C215.185 36.6452 214.989 37.6263 214.643 39.3114C214.573 39.7962 214.527 40.0732 214.504 40.1425C214.666 41.8738 214.435 42.774 213.812 42.8433C213.604 42.8433 213.281 42.8664 212.842 42.9126C212.403 42.9818 212.069 42.901 211.838 42.6702C211.307 42.3701 210.938 42.0584 210.73 41.7353C210.453 41.2736 210.407 40.5926 210.591 39.6923L210.834 37.7879C210.811 37.3955 210.845 37.0492 210.938 36.7491C211.215 35.6872 211.422 34.9601 211.561 34.5677C211.63 34.5215 211.688 34.383 211.734 34.1521C211.78 33.8982 211.826 33.702 211.872 33.5635C211.849 33.5173 211.838 33.4019 211.838 33.2172V32.8017Z" fill="#F9E9E5"/>
<path d="M195.108 26.9846C195.108 27.4462 194.946 28.7159 194.623 30.7934L194.519 31.2782C194.611 31.232 194.796 31.0704 195.073 30.7934C195.512 30.401 196.204 29.9278 197.151 29.3738L197.67 28.9929L198.744 28.5427L199.921 27.8156C199.875 27.7694 199.932 27.654 200.094 27.4693C200.556 26.6845 200.833 26.0266 200.925 25.4956C200.925 25.1725 200.879 24.9416 200.786 24.8031C200.717 24.6415 200.44 24.5376 199.955 24.4915C199.886 24.4222 199.667 24.353 199.298 24.2837C198.374 24.2145 197.601 24.2953 196.978 24.5261H196.701L196.181 24.6646H195.593L195.419 25.5995C195.419 25.6457 195.362 25.8765 195.246 26.292C195.246 26.4767 195.2 26.7076 195.108 26.9846ZM190.122 34.2907C190.191 34.0829 190.306 33.3442 190.468 32.0746L191.126 28.1965C191.172 28.1041 191.23 27.8618 191.299 27.4693C191.299 27.2154 191.322 26.9615 191.368 26.7076C191.437 26.4305 191.472 25.9573 191.472 25.2879L191.057 25.0109L190.399 24.6992C190.122 24.5607 189.833 24.3414 189.533 24.0413C189.418 23.9721 189.383 23.799 189.429 23.5219C189.475 23.2219 189.648 22.991 189.949 22.8294C190.018 22.8294 190.26 22.7486 190.676 22.587C190.814 22.587 191.045 22.4832 191.368 22.2754C191.437 22.2754 191.645 22.1715 191.991 21.9638L193.515 21.4098C193.63 21.4098 193.815 21.352 194.069 21.2366C194.346 21.1212 194.623 21.0519 194.9 21.0289L196.25 20.925C196.943 20.8096 197.543 20.8442 198.051 21.0289C198.397 21.0289 198.72 21.0981 199.021 21.2366C199.228 21.2366 199.54 21.3174 199.955 21.479C200.256 21.5252 200.567 21.6521 200.89 21.8599C201.052 21.8599 201.202 21.9061 201.341 21.9984C201.618 22.2062 201.906 22.3793 202.206 22.5178L203.037 23.2449C203.499 23.6143 203.926 24.1221 204.318 24.7685C204.757 25.2302 204.745 25.9227 204.284 26.8461C204.261 26.9846 204.168 27.2039 204.007 27.504C203.314 28.9121 202.045 30.3087 200.198 31.6937L199.159 32.1092L197.428 33.1134C197.636 33.4366 198.063 34.0483 198.709 34.9486L201.479 38.5151L201.86 39.173L202.76 40.2464C202.829 40.408 203.026 40.6042 203.349 40.835L203.903 41.4237C204.411 41.8623 204.607 42.347 204.491 42.878C204.399 43.4089 204.076 43.6744 203.522 43.6744L202.691 43.5705L201.029 43.0511L200.475 42.4971C199.967 42.2431 199.575 41.9777 199.298 41.7007C199.044 41.4006 198.674 41.0197 198.19 40.558C197.774 40.281 197.208 39.7154 196.493 38.8613C196.493 38.8382 196.424 38.6536 196.285 38.3073C196.008 38.0765 195.766 37.5571 195.558 36.7491C195.535 36.726 195.5 36.6799 195.454 36.6106C195.408 36.5414 195.327 36.4375 195.212 36.299C195.119 36.1374 195.05 35.9989 195.004 35.8835C194.865 35.2602 194.623 34.7177 194.277 34.2561H194.138C194.138 34.3946 194.092 34.5908 194 34.8447V35.5372L193.723 37.5455L193.238 40.0386C193.238 40.1079 193.203 40.2579 193.134 40.4888C193.088 40.7196 193.065 40.8581 193.065 40.9043C193.088 40.9274 193.099 41.0543 193.099 41.2852C193.099 41.4929 193.076 41.666 193.03 41.8046C193.03 41.9892 192.961 42.2893 192.822 42.7048C192.707 43.1203 192.522 43.3858 192.268 43.5012C192.038 43.6397 191.599 43.6513 190.953 43.5359C190.722 43.4435 190.41 43.1088 190.018 42.5317C189.833 42.4624 189.614 42.0816 189.36 41.389C189.406 40.9735 189.429 40.7196 189.429 40.6273C189.429 40.5349 189.418 40.408 189.394 40.2464C189.418 39.8309 189.441 39.4846 189.464 39.2076V38.9652C189.464 38.919 189.475 38.8613 189.498 38.7921C189.521 38.6997 189.545 38.5728 189.568 38.4112C189.614 38.2265 189.66 38.0765 189.706 37.9611C189.752 37.7764 189.775 37.5109 189.775 37.1646C189.775 36.8184 189.856 36.4837 190.018 36.1605C190.018 35.8604 190.052 35.2371 190.122 34.2907Z" fill="#F9E9E5"/>
<path d="M171.725 31.382C171.656 31.4512 171.598 31.9013 171.552 32.7324C171.506 33.5634 171.46 34.0251 171.414 34.1174L171.448 36.0565C171.564 36.749 171.679 37.2453 171.795 37.5454C171.91 37.8455 171.979 38.0302 172.002 38.0994C172.025 38.1687 172.048 38.2495 172.072 38.3418C172.095 38.4111 172.21 38.5611 172.418 38.792C172.626 39.0228 172.799 39.2421 172.937 39.4498C172.96 39.4498 173.053 39.5191 173.214 39.6576C173.607 39.9577 173.93 40.05 174.184 39.9346C174.207 39.9346 174.334 39.8769 174.565 39.7615C174.565 39.6922 174.703 39.623 174.98 39.5537C175.003 39.5537 175.072 39.4614 175.188 39.2767C175.234 39.2767 175.326 39.1959 175.465 39.0343C175.465 38.9651 175.534 38.8727 175.673 38.7573C175.811 38.6188 175.927 38.5034 176.019 38.4111C175.996 38.3649 176.111 38.1456 176.365 37.7532C176.458 37.7532 176.711 37.303 177.127 36.4027C177.612 35.387 177.854 34.8561 177.854 34.8099C177.854 34.7407 177.912 34.5099 178.027 34.1174C178.143 33.7019 178.212 33.4134 178.235 33.2518C178.281 33.0671 178.327 32.917 178.374 32.8016C178.42 32.6862 178.443 32.4207 178.443 32.0052C178.489 31.9821 178.57 31.4628 178.685 30.4471V29.2698L178.651 27.677C178.604 27.5385 178.581 27.3884 178.581 27.2268C178.581 27.0652 178.558 26.9383 178.512 26.8459C178.489 26.7536 178.466 26.6035 178.443 26.3958C178.327 25.4493 178.131 24.8376 177.854 24.5606C177.854 24.4683 177.669 24.2605 177.3 23.9373L176.954 23.8681C176.584 23.8219 175.927 24.0758 174.98 24.6299C174.934 24.6299 174.738 24.7684 174.391 25.0454C174.068 25.3224 173.872 25.5071 173.803 25.5994C173.734 25.6225 173.607 25.7264 173.422 25.911C172.776 26.5112 172.21 28.3349 171.725 31.382ZM176.573 20.1631C176.827 20.1631 177.081 20.1631 177.335 20.1631L178.408 20.4055C178.662 20.4516 178.893 20.5901 179.101 20.821C180.532 21.929 181.294 22.737 181.386 23.2448C181.501 23.5218 181.582 23.718 181.628 23.8335C181.675 23.9489 181.721 24.0643 181.767 24.1797V24.2143C181.767 24.2605 181.778 24.3298 181.801 24.4221C181.94 24.8376 182.067 25.5186 182.182 26.465C182.367 27.3653 182.39 28.3349 182.252 29.3736C182.252 29.7199 182.229 29.9854 182.182 30.17C182.205 30.424 182.171 30.8049 182.079 31.3127C182.148 31.4974 182.078 31.7859 181.871 32.1784C181.871 32.4554 181.767 32.9517 181.559 33.6673C181.628 33.8058 181.432 34.4637 180.97 35.641C180.509 36.8183 179.92 38.0417 179.205 39.3113C178.881 39.9577 178.362 40.6848 177.646 41.4928C177.508 41.7005 177.173 42.0237 176.642 42.4623C176.065 43.0856 175.534 43.478 175.049 43.6396C174.98 43.6627 174.807 43.6627 174.53 43.6396C174.253 43.6396 174.08 43.605 174.011 43.5357C173.711 43.5357 173.514 43.5126 173.422 43.4665C173.353 43.4203 173.307 43.3972 173.283 43.3972C173.168 43.3511 173.03 43.3049 172.868 43.2587C172.729 43.2356 172.579 43.1895 172.418 43.1202C172.256 43.051 172.152 43.0163 172.106 43.0163C172.06 43.0163 172.014 43.0048 171.968 42.9817C171.945 42.9586 171.841 42.924 171.656 42.8778C171.494 42.8317 171.044 42.6239 170.306 42.2546C170.283 42.2546 170.179 42.1507 169.994 41.9429L169.44 41.562C169.278 41.562 169.14 41.3889 169.024 41.0427C168.886 40.9041 168.782 40.7426 168.713 40.5579C168.459 40.5579 168.24 39.8884 168.055 38.5496C167.939 37.9725 167.847 37.2915 167.778 36.5066C167.732 36.4143 167.709 36.2527 167.709 36.0219C167.639 35.6063 167.605 35.2139 167.605 34.8446C167.559 34.6599 167.536 34.4175 167.536 34.1174C167.536 33.8173 167.524 33.6557 167.501 33.6327C167.478 33.6096 167.455 33.3326 167.432 32.8016C167.432 32.2707 167.443 31.9937 167.466 31.9706C167.489 31.9244 167.512 31.7051 167.536 31.3127L167.605 29.5121V28.8889L167.674 27.5038C167.674 27.3884 167.709 27.1576 167.778 26.8113C167.824 26.7651 167.893 26.4304 167.986 25.8071C168.17 25.0223 168.297 24.5606 168.367 24.4221C168.459 24.2605 168.517 24.1335 168.54 24.0412C168.586 23.9489 168.644 23.8565 168.713 23.7642C168.782 23.6719 168.897 23.4641 169.059 23.1409L169.682 22.206C169.682 22.1599 169.752 22.0675 169.89 21.929C170.052 21.7905 170.179 21.7097 170.271 21.6866C170.317 21.5481 170.409 21.4673 170.548 21.4443C170.71 21.3981 170.952 21.2711 171.275 21.0634C171.529 20.971 171.656 20.9018 171.656 20.8556C172.072 20.5786 172.556 20.4401 173.11 20.4401L173.63 20.4747L174.634 20.8556C175.465 20.5324 175.961 20.3708 176.123 20.3708C176.169 20.3016 176.319 20.2323 176.573 20.1631Z" fill="#F9E9E5"/>
<path d="M147.717 28.7158L147.89 28.1272C147.89 27.7348 147.96 27.4462 148.098 27.2615L148.237 26.9153C148.283 26.9153 148.341 26.7883 148.41 26.5344C148.502 26.2805 148.537 26.0842 148.514 25.9457C148.514 25.7841 148.629 25.5648 148.86 25.2878L149.553 23.6604C149.599 23.3834 149.61 23.2218 149.587 23.1756C149.587 23.1064 149.679 22.9563 149.864 22.7255C150.049 22.4947 150.118 22.3446 150.072 22.2754C150.072 22.0445 150.407 21.6752 151.076 21.1673C151.33 21.0519 151.515 20.9827 151.63 20.9596C151.746 20.9365 151.884 20.8903 152.046 20.8211C152.23 20.7287 152.346 20.671 152.392 20.6479C152.438 20.6018 152.542 20.5441 152.704 20.4748C152.865 20.4056 152.992 20.3709 153.084 20.3709C153.177 20.3478 153.304 20.3248 153.465 20.3017C153.627 20.2555 153.777 20.2324 153.915 20.2324C154.446 20.2324 154.85 20.3017 155.127 20.4402C155.404 20.5787 155.566 20.6479 155.612 20.6479C156.812 21.3174 157.482 21.7329 157.62 21.8945C157.851 21.8945 158.14 22.1484 158.486 22.6563C158.717 22.7486 158.832 22.8409 158.832 22.9333C158.855 23.0025 158.959 23.1179 159.144 23.2795C159.329 23.418 159.49 23.5104 159.629 23.5565C159.767 23.5796 159.86 23.7643 159.906 24.1105L159.733 26.7768C159.756 26.8922 159.733 27.1807 159.663 27.6424C159.594 28.081 159.444 28.4388 159.213 28.7158C158.728 28.9236 158.151 29.0275 157.482 29.0275C156.836 29.0275 156.501 29.0159 156.478 28.9928C156.224 28.9467 156.097 28.6235 156.097 28.0233C156.097 27.4 156.074 26.9037 156.028 26.5344C156.028 25.9111 156.039 25.4033 156.062 25.0108C156.062 24.9416 155.924 24.78 155.647 24.5261C155.393 24.2721 155.197 24.1336 155.058 24.1105C154.458 24.0644 154.031 24.3298 153.777 24.9069C153.5 25.1378 153.246 25.4148 153.015 25.738C152.854 25.7841 152.704 26.0265 152.565 26.4651C152.426 26.8806 152.334 27.2846 152.288 27.677C151.595 29.8239 151.249 30.9088 151.249 30.9319C151.111 32.617 151.053 33.5404 151.076 33.702C151.099 33.8636 151.076 34.1175 151.007 34.4638C151.007 35.2948 151.065 36.2297 151.18 37.2685C151.434 37.961 151.665 38.3996 151.872 38.5843C152.219 38.9305 152.807 39.1152 153.638 39.1383C154.469 39.1383 155.047 38.9998 155.37 38.7228L156.27 37.9264L156.512 37.6147C156.605 37.6147 156.697 37.4301 156.789 37.0607C157.366 36.299 157.736 35.8488 157.897 35.7103C158.082 35.5487 158.267 35.5025 158.451 35.5718C158.521 35.6411 158.625 35.7103 158.763 35.7796C158.925 35.8257 159.052 35.9065 159.144 36.0219C159.329 36.3451 159.479 36.5067 159.594 36.5067C159.733 36.5067 159.94 36.8761 160.217 37.6147C160.448 38.4458 160.448 39.0344 160.217 39.3807L160.01 39.9693C159.825 40.154 159.686 40.3271 159.594 40.4887L159.352 41.2159C159.352 41.262 159.248 41.3775 159.04 41.5621C158.832 41.7237 158.694 41.816 158.625 41.8391C158.555 41.8391 158.348 41.9661 158.001 42.22C157.424 42.6817 156.72 42.9241 155.889 42.9472C155.081 42.9933 154.608 42.9472 154.469 42.8087C154.216 42.8087 154.065 42.7971 154.019 42.774C153.95 42.6355 153.731 42.5663 153.361 42.5663L153.084 42.5317L152.461 42.3239H151.976C151.63 42.3239 151.295 42.22 150.972 42.0123C150.649 41.8045 150.418 41.7122 150.28 41.7353C150.164 41.7353 149.864 41.5044 149.379 41.0427C148.895 40.5811 148.583 40.2694 148.444 40.1078C148.306 39.9232 148.144 39.6461 147.96 39.2768C147.775 38.9075 147.59 38.5496 147.406 38.2034C147.221 37.834 147.117 37.4416 147.094 37.0261C147.071 36.6106 147.048 36.3336 147.025 36.1951C147.002 36.0566 146.956 35.7911 146.886 35.3987C146.817 35.0062 146.829 34.66 146.921 34.3599C147.036 34.0598 147.036 33.4827 146.921 32.6286C146.921 32.1438 146.967 31.6821 147.059 31.2435C147.221 30.6433 147.371 30.0893 147.51 29.5815C147.648 29.0505 147.717 28.762 147.717 28.7158Z" fill="#F9E9E5"/>
<path d="M132.919 34.4291V35.8142C132.919 37.2454 133 38.0418 133.162 38.2034C133.139 38.2264 133.196 38.5035 133.335 39.0344C133.335 39.2191 133.427 39.5076 133.612 39.9C133.612 40.0155 133.935 40.2925 134.581 40.7311C134.858 40.7311 135.539 40.5002 136.624 40.0385L139.083 39.1036C139.383 39.0113 139.66 39.0575 139.914 39.2421C140.191 39.4037 140.352 39.7038 140.398 40.1424C140.468 40.5579 140.456 40.858 140.364 41.0427C140.295 41.2274 140.098 41.4582 139.775 41.7352C139.475 42.0122 139.279 42.2085 139.187 42.3239C139.094 42.4393 138.921 42.5547 138.667 42.6701C138.413 42.8086 138.125 42.9471 137.802 43.0856C137.501 43.2242 137.294 43.328 137.178 43.3973C136.278 43.8128 135.585 43.9744 135.101 43.882C134.801 43.882 134.489 43.8243 134.166 43.7089C133.866 43.5935 133.693 43.5358 133.646 43.5358C133.623 43.5589 133.531 43.5473 133.369 43.5012C133.231 43.4781 133.092 43.4434 132.954 43.3973C132.815 43.3742 132.458 43.3049 131.88 43.1895C131.88 43.0972 131.719 43.0049 131.396 42.9125L130.461 42.1507C130.299 42.0584 130.126 41.7699 129.941 41.2851L129.63 40.7657C129.537 40.6964 129.41 40.431 129.249 39.9693C129.157 39.8539 129.099 39.6461 129.076 39.346C128.96 39.0921 128.903 38.7343 128.903 38.2726C128.81 38.1572 128.706 37.7186 128.591 36.9568C128.429 35.9642 128.418 35.0755 128.556 34.2906C128.556 33.852 128.637 33.425 128.799 33.0094C128.822 32.8248 128.845 32.6401 128.868 32.4554C128.983 31.8552 129.064 31.3936 129.11 31.0704C129.018 30.7472 129.168 29.9739 129.56 28.7504C129.56 28.5658 129.63 28.3003 129.768 27.954C129.93 27.5847 130.022 27.2038 130.045 26.8114L130.322 26.1535C130.322 25.9688 130.495 25.2878 130.842 24.1105C131.026 23.6719 131.119 23.418 131.119 23.3487L131.984 21.5136L132.4 20.9595C132.561 20.798 132.804 20.6594 133.127 20.544C133.265 20.4286 133.635 20.4401 134.235 20.5787C134.604 20.7172 134.858 20.8557 134.997 20.9942C135.158 21.0634 135.355 21.098 135.585 21.098L138.252 20.9249C138.921 20.9711 139.371 21.0519 139.602 21.1673C139.833 21.2596 140.052 21.4328 140.26 21.6867C140.491 21.9406 140.572 22.1945 140.502 22.4485C140.456 22.7024 140.364 22.8986 140.225 23.0371C139.925 23.291 139.371 23.5911 138.563 23.9374C137.155 24.6992 136.393 25.1031 136.278 25.1493L135.447 25.5302C135.101 25.761 134.881 26.0034 134.789 26.2573C134.073 28.8428 133.681 30.2855 133.612 30.5856C133.566 30.8626 133.531 31.0357 133.508 31.105C133.508 31.1512 133.508 31.1858 133.508 31.2089L134.2 31.1396C135.216 30.8165 135.816 30.7126 136.001 30.828C136.093 30.828 136.22 30.7934 136.382 30.7241C137.236 30.424 137.986 30.2971 138.633 30.3432C138.748 30.274 138.875 30.3201 139.013 30.4817C139.152 30.6433 139.256 30.8395 139.325 31.0704C139.464 31.6475 139.29 32.0976 138.806 32.4208C137.836 33.0671 136.682 33.5865 135.343 33.979C134.904 34.3252 134.293 34.5445 133.508 34.6369L132.919 34.4291Z" fill="#F9E9E5"/>
<path d="M117.47 32.5939C117.608 32.3168 117.7 31.809 117.747 31.0703C117.793 30.3316 117.839 29.8238 117.885 29.5468C117.885 26.8459 117.146 25.08 115.669 24.249C115.069 23.9027 114.492 23.8104 113.938 23.9719C113.684 23.9719 113.291 24.1335 112.76 24.4567C112.737 24.7799 112.726 25.3224 112.726 26.0841L112.553 27.3653L112.241 30.5509C112.241 30.5971 112.218 30.9318 112.172 31.5551C111.826 35.1793 111.652 37.8917 111.652 39.6922C112.068 39.5999 112.426 39.4037 112.726 39.1036C113.534 38.4341 113.984 38.0763 114.076 38.0302L114.561 37.58C114.676 37.5569 114.977 37.2799 115.461 36.749V36.7144L116.119 35.8487L116.812 34.429C116.996 34.1751 117.216 33.5634 117.47 32.5939ZM107.463 37.8224C107.417 37.7301 107.393 37.5685 107.393 37.3376C107.393 37.0837 107.428 36.7952 107.497 36.472C107.567 36.1488 107.601 35.7679 107.601 35.3293C107.601 34.8907 107.67 34.3252 107.809 33.6326C107.717 33.4941 107.728 32.9747 107.844 32.0745C107.959 31.8667 108.005 31.5897 107.982 31.2434C107.959 30.8972 107.947 30.6202 107.947 30.4124C107.947 29.4198 107.971 28.8542 108.017 28.7157C108.063 28.5772 108.074 28.3002 108.051 27.8847C108.19 27.7462 108.305 27.2037 108.398 26.2573C107.613 26.2804 107.024 26.0726 106.632 25.634C106.239 25.1723 105.916 24.526 105.662 23.6949C105.685 23.5564 105.708 23.4295 105.731 23.314C105.778 23.1755 105.812 23.0601 105.835 22.9678C105.858 22.8754 105.904 22.7831 105.974 22.6908C106.043 22.5754 106.089 22.4946 106.112 22.4484C106.158 22.3791 106.239 22.2983 106.355 22.206C106.47 22.0906 106.551 22.0213 106.597 21.9983C106.643 21.9521 106.747 21.8828 106.909 21.7905C107.07 21.6751 107.174 21.6058 107.22 21.5827C107.266 21.5366 107.382 21.4558 107.567 21.3404C107.774 21.2019 107.913 21.1095 107.982 21.0633C108.051 20.9479 108.236 20.8671 108.536 20.821C108.836 20.7517 109.286 20.5901 109.886 20.3362C109.979 20.2439 110.521 20.0938 111.514 19.8861C112.507 19.6552 113.476 19.736 114.423 20.1284C114.953 20.1284 115.334 20.1746 115.565 20.2669C115.796 20.4747 116.108 20.6247 116.5 20.7171L118.266 21.652C118.52 21.9059 119.039 22.5061 119.824 23.4526C120.678 24.9761 121.221 26.5227 121.452 28.0925C121.475 28.5311 121.486 29.3044 121.486 30.4124C121.278 32.5131 120.898 34.0366 120.344 34.9831C120.297 35.2601 120.17 35.6063 119.963 36.0218C119.963 36.068 119.801 36.3566 119.478 36.8875C119.178 37.3953 118.832 37.9032 118.439 38.411C118.047 38.8958 117.793 39.219 117.677 39.3806C116.731 40.2578 116.2 40.7425 116.085 40.8349C115.554 41.2273 115.254 41.4351 115.184 41.4581C113.43 42.3353 112.495 42.8086 112.38 42.8778C112.287 42.9471 112.01 43.0279 111.549 43.1202C110.879 43.1895 110.464 43.1548 110.302 43.0163C109.933 42.8547 109.598 42.6124 109.298 42.2892C109.206 42.2661 109.021 42.0814 108.744 41.7352C108.374 41.4581 108.167 41.2966 108.121 41.2504C107.82 40.8118 107.601 39.9808 107.463 38.7573C107.44 38.665 107.44 38.3533 107.463 37.8224Z" fill="#F9E9E5"/>
<path d="M92.8557 28.5744C91.4916 28.7657 90.0669 29.0354 88.2373 29.447C87.3264 29.6483 86.4259 29.8716 85.6594 30.0672C85.7238 29.9328 85.7867 29.8011 85.8479 29.6676C86.2698 28.7561 86.5522 28.0253 86.763 27.2994C86.8168 27.114 86.7367 26.9191 86.5701 26.823C86.4051 26.7287 86.1996 26.7578 86.0679 26.8926L86.0628 26.8985C85.5462 27.4461 85.0612 28.0603 84.4878 28.8896C84.4039 29.0102 84.3217 29.1326 84.2397 29.2561C84.0177 28.4922 83.7511 27.6012 83.4646 26.7201C82.889 24.9316 82.3977 23.5672 81.8713 22.2967C81.7899 22.101 81.5834 21.9989 81.3786 22.0548C81.1737 22.1107 81.0466 22.3038 81.0769 22.5134C81.2685 23.8742 81.5382 25.2991 81.9504 27.131C82.1498 28.0347 82.3729 28.9387 82.57 29.7105C82.4353 29.645 82.3026 29.5824 82.1701 29.5208C81.2563 29.0985 80.5266 28.8157 79.8021 28.6056C79.6167 28.5517 79.4215 28.6308 79.3258 28.7985C79.23 28.9662 79.261 29.1745 79.4016 29.3069C79.9491 29.8236 80.5633 30.3086 81.3923 30.8811C81.5115 30.9642 81.6339 31.0465 81.7587 31.1293C80.9959 31.3509 80.1048 31.6165 79.223 31.9043C77.4327 32.4804 76.0685 32.9717 74.8001 33.4974C74.6045 33.5789 74.5024 33.7853 74.5584 33.9902C74.6143 34.1951 74.8073 34.3222 75.0169 34.292C76.3776 34.1004 77.8023 33.8308 79.6339 33.4186C80.5449 33.2172 81.4457 32.9951 82.2119 32.7983C82.1475 32.9327 82.0835 33.0648 82.022 33.1973C81.5994 34.1101 81.3177 34.8395 81.1083 35.5661C81.0552 35.7502 81.1346 35.9465 81.3009 36.0415C81.4672 36.1365 81.6769 36.1063 81.8082 35.966C82.3266 35.4168 82.8129 34.8034 83.3845 33.9757C83.4666 33.8567 83.5491 33.7353 83.6308 33.6108C83.8519 34.3716 84.1167 35.2598 84.405 36.1437C84.9798 37.929 85.4711 39.2934 85.9994 40.5668C86.0808 40.7625 86.2883 40.8643 86.4921 40.8086C86.697 40.7527 86.823 40.56 86.7938 40.35C86.6021 38.9848 86.3327 37.561 85.921 35.7312C85.7182 34.8149 85.4955 33.9164 85.301 33.154C85.4343 33.2187 85.5671 33.2814 85.6996 33.3429C86.6136 33.7664 87.3441 34.0478 88.0683 34.2568C88.2523 34.3099 88.4486 34.2306 88.5436 34.0642C88.6386 33.8979 88.6083 33.6883 88.4681 33.5569C87.9186 33.0374 87.3042 32.5513 86.4779 31.9803C86.3575 31.8975 86.2365 31.8159 86.113 31.7339C86.8716 31.5135 87.7607 31.2484 88.6466 30.9595C90.4328 30.3846 91.797 29.8933 93.0692 29.3653C93.2649 29.2838 93.3666 29.0763 93.311 28.8725C93.2586 28.6722 93.0656 28.5452 92.8557 28.5744ZM92.9366 29.151L92.9308 29.1133L92.9366 29.151Z" fill="#F9E9E5"/>
<path d="M363.874 32.8816C362.583 32.4026 361.201 31.9638 359.395 31.4577C358.498 31.2026 357.599 30.9717 356.832 30.7801C356.952 30.6924 357.07 30.6063 357.187 30.5178C357.991 29.9158 358.587 29.4066 359.117 28.8677C359.252 28.7301 359.274 28.5204 359.173 28.3568C359.072 28.1955 358.878 28.1236 358.698 28.1798L358.691 28.1825C357.976 28.4193 357.258 28.7297 356.359 29.1875C356.228 29.2539 356.098 29.3226 355.967 29.3923C356.134 28.6146 356.322 27.7038 356.488 26.7923C356.831 24.9449 357.046 23.5108 357.185 22.1427C357.207 21.9318 357.073 21.744 356.866 21.6959C356.66 21.6479 356.456 21.7575 356.383 21.9564C355.906 23.2451 355.467 24.6272 354.961 26.4353C354.707 27.3254 354.474 28.227 354.282 28.9999C354.194 28.8783 354.107 28.7602 354.02 28.6431C353.416 27.8376 352.908 27.2424 352.37 26.7137C352.232 26.5783 352.023 26.5552 351.859 26.6574C351.695 26.7595 351.623 26.9576 351.684 27.1408C351.921 27.8555 352.231 28.5739 352.689 29.4712C352.755 29.601 352.824 29.7315 352.894 29.8636C352.118 29.6966 351.207 29.5075 350.294 29.3423C348.445 28.9996 347.011 28.7846 345.645 28.6454C345.434 28.6242 345.247 28.7575 345.199 28.9644C345.151 29.1713 345.26 29.3748 345.459 29.4476C346.748 29.9248 348.13 30.3637 349.937 30.8702C350.835 31.1253 351.733 31.3573 352.501 31.5478C352.38 31.6355 352.261 31.7214 352.144 31.8088C351.339 32.4117 350.745 32.9201 350.216 33.4602C350.082 33.5971 350.058 33.8075 350.16 33.97C350.261 34.1326 350.46 34.2055 350.642 34.1443C351.359 33.907 352.078 33.5979 352.974 33.1406C353.103 33.0749 353.233 33.0072 353.364 32.9364C353.198 33.711 353.009 34.6184 352.844 35.5333C352.502 37.3775 352.287 38.8116 352.148 40.1831C352.126 40.394 352.261 40.5821 352.467 40.6299C352.673 40.6779 352.876 40.568 352.95 40.3694C353.429 39.0767 353.868 37.6956 354.374 35.8897C354.63 34.9869 354.86 34.0904 355.051 33.327C355.138 33.4472 355.225 33.5654 355.312 33.6824C355.916 34.489 356.425 35.0834 356.963 35.6111C357.1 35.7452 357.311 35.7685 357.473 35.6671C357.636 35.5658 357.709 35.3669 357.647 35.1848C357.41 34.4667 357.1 33.7472 356.644 32.8525C356.577 32.7225 356.51 32.5932 356.44 32.4624C357.212 32.6284 358.121 32.8171 359.037 32.9833C360.882 33.325 362.316 33.54 363.687 33.6791C363.898 33.7003 364.086 33.5659 364.134 33.3601C364.182 33.159 364.073 32.9555 363.874 32.8816ZM363.672 33.4275L363.685 33.3916L363.672 33.4275Z" fill="#F9E9E5"/>
</svg>
