<?xml version="1.0" encoding="UTF-8"?><svg id="Finals" xmlns="http://www.w3.org/2000/svg" viewBox="0 0 300 300"><defs><style>.cls-1{fill:#c8d4fa;}.cls-2{fill:#3b66ef;}</style></defs><polygon class="cls-1" points="81 283.5 15 283.5 15 193.5 105 193.5 81 283.5"/><path class="cls-2" d="m81,278.5H15l5,5v-90l-5,5c26.21,0,52.43,0,78.64,0h11.36l-4.82-6.33c-7,26.24-13.99,52.48-20.99,78.72-1,3.76-2.01,7.52-3.01,11.28-1.66,6.22,7.98,8.88,9.64,2.66,7-26.24,13.99-52.48,20.99-78.72,1-3.76,2.01-7.52,3.01-11.28.84-3.14-1.55-6.33-4.82-6.33H15c-2.7,0-5,2.29-5,5v90c0,2.7,2.29,5,5,5h66c6.43,0,6.45-10,0-10Z"/><polygon class="cls-1" points="219 283.5 285 283.5 285 193.5 195 193.5 219 283.5"/><path class="cls-2" d="m219,288.5c22,0,44,0,66,0,2.7,0,5-2.29,5-5,0-26.21,0-52.43,0-78.64,0-3.79,0-7.57,0-11.36,0-2.7-2.29-5-5-5-26.21,0-52.43,0-78.64,0-3.79,0-7.57,0-11.36,0-3.27,0-5.66,3.19-4.82,6.33,7,26.24,13.99,52.48,20.99,78.72,1,3.76,2.01,7.52,3.01,11.28,1.66,6.21,11.31,3.58,9.64-2.66-7-26.24-13.99-52.48-20.99-78.72-1-3.76-2.01-7.52-3.01-11.28l-4.82,6.33c26.21,0,52.43,0,78.64,0,3.79,0,7.57,0,11.36,0l-5-5c0,26.21,0,52.43,0,78.64,0,3.79,0,7.57,0,11.36l5-5c-22,0-44,0-66,0-6.43,0-6.45,10,0,10Z"/><circle class="cls-2" cx="162.65" cy="74.26" r="10.53"/><path class="cls-2" d="m162.65,85.28c-6.08,0-11.03-4.95-11.03-11.03s4.95-11.03,11.03-11.03,11.03,4.95,11.03,11.03-4.95,11.03-11.03,11.03Zm0-21.05c-5.53,0-10.03,4.5-10.03,10.03s4.5,10.03,10.03,10.03,10.03-4.5,10.03-10.03-4.5-10.03-10.03-10.03Z"/><path class="cls-2" d="m150.89,128.11c4.41-6.46,8.27-13.29,12.13-20.09,1.83-3.22,3.23-6.73,3.6-10.45.94-9.4-8.8-12.15-14.92-5.79-5.59,5.81-9.05,16.11-10.79,23.88-1.11,4.94-.39,10.44,4.41,13.19s9.66-.28,10.58-5.34c.99-5.48-5.94-8.8-9.14-3.85-1.58,1.73-.2,2.57,4.13,2.53l-9.82-1.33c-.25,4.8,1.73,10.83,7.63,10.34s9.45-7.29,11.03-12.44,2.87-9.18,5.06-13.81c1.63-3.44,4.42-7.98,4.02-11.97-.63-6.34-10.64-6.41-10,0,.35,3.52-3.98,9.49-5.49,12.9-1.07,2.42-1.77,4.79-2.45,7.34-.51,1.9-.89,4.04-1.85,5.78-.43.98-1.07,1.81-1.92,2.48,2.98,1.96,4.3,1.76,3.96-.61.28-5.52-9.02-6.96-9.82-1.33-.58,4.03-.35,9.09,4.46,10.39,4.17,1.13,7.62-2,9.69-5.22l-9.14-3.85c3.03.94,4.38.63,4.07-.94.05-.78.18-1.53.41-2.27.22-.97.53-1.92.83-2.87.64-2.04,1.39-4.06,2.18-6.05.87-2.18,1.82-4.33,2.92-6.4.48-.9,2.54-3.18,2.72-3.96.23-1-1.82-2.86-2.65-1.92-.29.33-.36,1.82-.48,2.25-.34,1.24-.81,2.35-1.39,3.48-3.67,7.16-8.08,14.26-12.61,20.9-3.64,5.33,5.03,10.34,8.63,5.05h0Z"/><path class="cls-2" d="m162.81,98.96c6.66-2.7,14.99,1.5,22.04-.2,3.63-.87,5.76-3.42,7.78-6.4,3.07-4.52,6.04-8.81,9.41-13.13,3.91-5.02-3.12-12.14-7.07-7.07-2.86,3.67-5.95,7.12-8.42,11.08-1.04,1.66-1.93,3.7-3.28,5.13-.81.86-.69.73-2.52.82-6.61.33-14.22-2.46-20.59.12-5.89,2.39-3.31,12.07,2.66,9.64h0Z"/><path class="cls-2" d="m148.61,130.72c7.75.85,16.79-.41,24.2,2.23,7.88,2.81,12.78,12.79,17.3,19.24,3.67,5.23,12.34.24,8.63-5.05-5.79-8.26-11.48-18.77-21.15-23.02-8.78-3.85-19.64-2.37-28.99-3.4-6.39-.7-6.34,9.3,0,10h0Z"/><path class="cls-2" d="m139.72,123.24c-1.34,6.66-6.26,13.65-10.61,18.73-5.47,6.4-14.42,8.72-21.71,12.39-5.75,2.9-.69,11.53,5.05,8.63,8.54-4.3,18.16-7.09,24.41-14.77,5.12-6.29,10.88-14.22,12.51-22.33,1.26-6.28-8.37-8.97-9.64-2.66h0Z"/><path class="cls-2" d="m165.15,88.15c-7.64-2.17-15.69-1.45-23.52-1.57-8.75-.13-16.46-2.64-24.41-6.12-5.84-2.56-10.94,6.06-5.05,8.63,8.01,3.5,15.87,6.51,24.64,7.26s17.38-.92,25.67,1.43c6.2,1.76,8.85-7.89,2.66-9.64h0Z"/><path class="cls-2" d="m89.24,222.71h-36.52c-6.43,0-6.45,10,0,10h36.52c6.43,0,6.45-10,0-10h0Z"/><path class="cls-2" d="m84.02,242.53h-17.74c-6.43,0-6.45,10,0,10h17.74c6.43,0,6.45-10,0-10h0Z"/><path class="cls-2" d="m205.07,221.23h37.57c6.43,0,6.45-10,0-10h-37.57c-6.43,0-6.45,10,0,10h0Z"/><path class="cls-2" d="m213.41,243.14h41.74c6.43,0,6.45-10,0-10h-41.74c-6.43,0-6.45,10,0,10h0Z"/></svg>