<svg width="341" height="315" viewBox="0 0 341 315" fill="none" xmlns="http://www.w3.org/2000/svg">
<path d="M329.39 312.47L319.1 312.75L308.8 312.96L288.21 313.37C274.49 313.59 260.77 313.77 247.05 313.91C233.32 314.08 219.55 314.12 205.87 314.22L164.7 314.32L123.52 314.22C109.8 314.12 96.08 314.09 82.35 313.92C68.62 313.75 54.85 313.59 41.18 313.38L20.59 312.96L10.3 312.75L0 312.47L10.3 312.19L20.59 311.98L41.18 311.56C54.8933 311.354 68.6167 311.174 82.35 311.02C96.08 310.85 102.45 304.48 102.45 304.48L308.8 311.98L329.39 312.47Z" fill="#D1DAED"/>
<path d="M338.541 84.4301C277.941 42.6501 74.3906 2 74.3906 2C74.3906 2 47.5406 122 34.3906 257C124.091 257.3 298.851 298.5 298.851 298.5C298.851 298.5 310.141 177.35 338.541 84.4301Z" fill="white" stroke="#3B65EE" stroke-width="3" stroke-miterlimit="10" stroke-linecap="round"/>
<path d="M216.592 121.99C219.539 122.106 222.455 121.346 224.97 119.804C227.485 118.262 229.486 116.009 230.718 113.329C231.951 110.649 232.361 107.663 231.896 104.751C231.43 101.838 230.111 99.1283 228.104 96.966C226.098 94.8037 223.494 93.2856 220.624 92.6042C217.754 91.9227 214.746 92.1086 211.982 93.1381C209.218 94.1677 206.821 95.9946 205.096 98.3874C203.371 100.78 202.395 103.631 202.291 106.579C202.146 110.519 203.57 114.355 206.251 117.245C208.933 120.134 212.652 121.841 216.592 121.99V121.99Z" fill="#3B65EE"/>
<path d="M172.143 120.43C175.09 120.543 178.004 119.779 180.516 118.234C183.029 116.69 185.026 114.435 186.256 111.755C187.486 109.074 187.893 106.089 187.425 103.177C186.957 100.266 185.636 97.5582 183.628 95.3979C181.621 93.2376 179.017 91.7215 176.148 91.0418C173.278 90.3621 170.271 90.5492 167.508 91.5795C164.745 92.6098 162.349 94.437 160.625 96.8295C158.901 99.2221 157.926 102.072 157.823 105.02C157.75 106.972 158.064 108.919 158.744 110.751C159.425 112.582 160.46 114.261 161.79 115.692C163.12 117.123 164.718 118.278 166.495 119.091C168.271 119.904 170.19 120.359 172.143 120.43V120.43Z" fill="#3B65EE"/>
<path d="M249.632 146.471C250.449 146.623 251.226 146.943 251.912 147.411C252.602 147.88 253.187 148.486 253.632 149.191C254.072 149.894 254.362 150.681 254.482 151.501C254.604 152.326 254.553 153.167 254.332 153.971C249.803 168.701 239.965 181.224 226.727 189.112C213.488 197 197.792 199.691 182.682 196.663C167.572 193.635 154.125 185.105 144.948 172.725C135.77 160.345 131.517 144.999 133.012 129.661C133.121 128.837 133.397 128.045 133.822 127.331C134.251 126.618 134.823 126.001 135.502 125.521C136.175 125.036 136.941 124.695 137.752 124.521C138.567 124.35 139.408 124.35 140.222 124.521L249.632 146.471Z" fill="#3B65EE"/>
<path d="M157.93 80.0295C157.988 79.3566 158.091 78.6885 158.24 78.0295C158.351 77.3483 158.525 76.6788 158.76 76.0295C159.02 75.4195 159.3 74.7895 159.61 74.1695C159.76 73.8595 159.91 73.5495 160.08 73.2595C160.25 72.9695 160.47 72.6795 160.68 72.4095C161.1 71.8495 161.51 71.2795 161.98 70.7495C162.45 70.2195 162.98 69.7495 163.56 69.3095C164.109 68.8687 164.698 68.4804 165.32 68.1495L166.26 67.5995C166.57 67.4295 166.92 67.3095 167.26 67.1595C169.889 66.0335 172.78 65.6595 175.61 66.0795C178.343 66.4298 180.91 67.5895 182.98 69.4095C180.501 69.4739 178.027 69.6742 175.57 70.0095C173.379 70.3156 171.237 70.9073 169.2 71.7695C168.95 71.8695 168.69 71.9395 168.45 72.0595C168.21 72.1795 167.98 72.3295 167.74 72.4495C167.242 72.668 166.763 72.929 166.31 73.2295C165.86 73.5195 165.4 73.8295 164.91 74.0995C164.42 74.3695 164.03 74.7995 163.56 75.0995C163.33 75.2795 163.09 75.4395 162.85 75.6095L162.2 76.2095C161.76 76.5995 161.3 76.9995 160.81 77.3995C159.89 78.2495 159.03 79.1495 157.93 80.0295Z" fill="#3B65EE"/>
<path d="M236.059 84.5701C235.059 83.5701 234.369 82.5701 233.579 81.5701C233.159 81.1101 232.759 80.6601 232.379 80.2001L231.819 79.5201C231.599 79.3201 231.389 79.1201 231.189 78.9101C230.769 78.5101 230.389 78.0901 229.999 77.6901C229.609 77.2901 229.139 76.9901 228.729 76.6301C228.324 76.2617 227.889 75.9272 227.429 75.6301L226.819 75.1501C226.599 75.0001 226.349 74.8901 226.119 74.7501C224.24 73.6188 222.223 72.7317 220.119 72.1101C217.73 71.4319 215.307 70.8811 212.859 70.4601C215.17 68.9586 217.874 68.1756 220.629 68.2101C223.493 68.1973 226.304 68.9797 228.749 70.4701C229.049 70.6601 229.379 70.8301 229.669 71.0401L230.509 71.7201C231.08 72.1565 231.609 72.6453 232.089 73.1801C232.549 73.7301 233.009 74.2701 233.439 74.8301C233.869 75.3901 234.159 76.0501 234.489 76.6501C234.659 76.9601 234.809 77.2701 234.969 77.5801C235.129 77.8901 235.199 78.2301 235.309 78.5801C235.519 79.2301 235.709 79.8901 235.879 80.5801C236.019 81.2382 236.099 81.9076 236.119 82.5801C236.139 83.244 236.119 83.9085 236.059 84.5701V84.5701Z" fill="#3B65EE"/>
</svg>
