<svg width="62" height="34" viewBox="0 0 62 34" fill="none" xmlns="http://www.w3.org/2000/svg">
<g clip-path="url(#clip0_9_678)">
<path d="M61.6 33.98C41.68 26.03 21.69 17.03 0 15.63C19.96 12.47 45.21 22.94 61.6 33.98Z" fill="#3B65EE"/>
<path d="M53.51 29.84C53.51 29.84 50.09 7.09999 44.27 8.25999C38.45 9.41999 53.51 29.84 53.51 29.84Z" stroke="#3B65EE" stroke-width="0.74" stroke-miterlimit="10"/>
<path d="M45.4299 11.75C47.7499 15.57 49.6099 19.61 51.0099 23.86C48.6899 20.04 46.8299 16 45.4299 11.75Z" fill="#3B65EE"/>
<path d="M29.75 19.12C29.75 19.12 20.67 -2.01001 15.33 0.589986C9.98996 3.18999 29.75 19.12 29.75 19.12Z" stroke="#3B65EE" stroke-width="0.74" stroke-miterlimit="10"/>
<path d="M17.3401 3.66998C20.5501 6.77998 23.3801 10.21 25.8101 13.96C22.6001 10.85 19.7701 7.41998 17.3401 3.66998Z" fill="#3B65EE"/>
<path d="M39.0401 23.7C39.0401 23.7 16.1201 21.77 15.9101 27.7C15.7001 33.63 39.0401 23.7 39.0401 23.7Z" stroke="#3B65EE" stroke-width="0.74" stroke-miterlimit="10"/>
<path d="M19.5701 27.38C23.8201 26.01 28.1801 25.13 32.6401 24.75C28.3901 26.12 24.0201 27 19.5701 27.38Z" fill="#3B65EE"/>
</g>
<defs>
<clipPath id="clip0_9_678">
<rect width="61.6" height="33.98" fill="white"/>
</clipPath>
</defs>
</svg>
