<?xml version="1.0" encoding="UTF-8"?><svg id="Layer_2" xmlns="http://www.w3.org/2000/svg" viewBox="0 0 294.01 270.74"><defs><style>.cls-1{fill:#0069ff;}.cls-2{fill:#fff;}.cls-3{fill:#c1d5ff;}</style></defs><g id="Layer_1-2"><path class="cls-3" d="m127.75,13.86L5.27,235.61c-8.1,14.66,2.51,32.62,19.25,32.62h244.96c16.74,0,27.35-17.97,19.25-32.62L166.26,13.86c-8.37-15.15-30.14-15.15-38.5,0Z"/><path class="cls-1" d="m269.49,270.74H24.53c-8.76,0-16.64-4.5-21.09-12.04-4.45-7.54-4.58-16.62-.35-24.29L125.57,12.65l2.19,1.21-2.19-1.21c4.38-7.92,12.39-12.65,21.44-12.65s17.06,4.73,21.44,12.65l122.48,221.75c4.23,7.67,4.1,16.75-.35,24.29-4.45,7.54-12.34,12.04-21.09,12.04ZM147.01,5c-7.2,0-13.58,3.76-17.06,10.07L7.46,236.82c-3.37,6.1-3.27,13.33.28,19.33,3.54,6,9.82,9.59,16.79,9.59h244.96c6.97,0,13.24-3.58,16.79-9.59,3.54-6,3.65-13.23.28-19.33L164.07,15.07c-3.48-6.3-9.86-10.07-17.06-10.07Z"/><path class="cls-2" d="m47.19,221.78L137.3,58.64c4.22-7.64,15.2-7.64,19.42,0l90.11,163.15c4.08,7.39-1.26,16.46-9.71,16.46H56.9c-8.45,0-13.79-9.06-9.71-16.46Z"/><path class="cls-1" d="m237.11,240.74H56.9c-4.86,0-9.24-2.5-11.71-6.68-2.47-4.19-2.54-9.23-.19-13.48h0S135.11,57.43,135.11,57.43c2.43-4.4,6.88-7.02,11.9-7.02s9.47,2.62,11.9,7.02l90.11,163.15c2.35,4.25,2.28,9.29-.19,13.48-2.47,4.19-6.85,6.68-11.71,6.68Zm-187.74-17.75c-1.49,2.69-1.44,5.88.12,8.52,1.56,2.65,4.33,4.23,7.4,4.23h180.22c3.07,0,5.84-1.58,7.4-4.23,1.56-2.65,1.61-5.83.12-8.52L154.53,59.84c-1.53-2.78-4.35-4.44-7.52-4.44s-5.99,1.66-7.52,4.44L49.37,222.99h0Z"/><circle class="cls-3" cx="147.01" cy="210.87" r="13.5"/><path class="cls-1" d="m147.01,226.87c-8.82,0-16-7.18-16-16s7.18-16,16-16,16,7.18,16,16-7.18,16-16,16Zm0-27c-6.07,0-11,4.93-11,11s4.93,11,11,11,11-4.93,11-11-4.93-11-11-11Z"/><path class="cls-3" d="m148.01,187.37h0c-3.68,0-6.74-2.81-7.06-6.48l-6.2-72.08c-.67-7.77,5.46-14.45,13.26-14.45h0c7.8,0,13.93,6.68,13.26,14.45l-6.2,72.08c-.32,3.66-3.38,6.48-7.06,6.48Z"/><path class="cls-1" d="m148.01,189.87c-5.01,0-9.12-3.77-9.55-8.76l-6.2-72.08c-.38-4.4,1.12-8.79,4.1-12.04,2.99-3.25,7.23-5.12,11.65-5.12s8.66,1.87,11.65,5.12c2.99,3.25,4.48,7.64,4.1,12.04l-6.2,72.08c-.43,4.99-4.53,8.76-9.55,8.76Zm0-93c-3.06,0-5.89,1.24-7.96,3.5-2.07,2.26-3.07,5.18-2.8,8.23l6.2,72.08c.21,2.39,2.17,4.19,4.57,4.19s4.36-1.8,4.57-4.19l6.2-72.08c.26-3.05-.73-5.98-2.8-8.23-2.07-2.26-4.9-3.5-7.96-3.5Z"/></g></svg>