<svg width="183" height="252" viewBox="0 0 183 252" fill="none" xmlns="http://www.w3.org/2000/svg">
<path d="M96.752 250.368H80.082V10.1681C80.082 5.56809 83.812 1.82812 88.422 1.82812C93.022 1.82812 96.762 5.55809 96.762 10.1681V250.368H96.752Z" fill="#D1DAED" stroke="#3B65EE" stroke-width="3" stroke-miterlimit="10" stroke-linecap="round" stroke-linejoin="round"/>
<path d="M96.752 18.6172L80.082 19.7772V160.577L96.752 159.417V18.6172Z" fill="#90ACDD" stroke="#90ACDD" stroke-width="3" stroke-miterlimit="10" stroke-linecap="round" stroke-linejoin="round"/>
<path d="M96.752 250.368H80.082V10.1681C80.082 5.56809 83.812 1.82812 88.422 1.82812C93.022 1.82812 96.762 5.55809 96.762 10.1681V250.368H96.752Z" stroke="#3B65EE" stroke-width="3" stroke-miterlimit="10" stroke-linecap="round" stroke-linejoin="round"/>
<path d="M180.411 138.639L173.451 136.759L180.251 136.549L179.301 123.489L177.181 123.199L177.071 114.179L173.851 112.919L177.241 112.589L176.621 106.499L170.411 105.629L177.951 104.899L176.891 90.3294L171.671 89.5994L176.781 88.8094L176.251 81.5094L169.691 80.5994L176.101 79.5094L175.391 69.7394L174.401 69.5994L173.941 63.9894L166.901 63.0094L174.861 62.4094L174.051 51.2494L173.311 50.9794L172.961 43.3094L170.891 43.0194L170.651 39.2894L152.431 37.9094L173.041 37.3694L172.191 25.7494L162.501 25.9194L172.091 24.2894L171.821 20.6094L1.94141 32.4594L2.32141 37.7094L20.5014 37.5594L2.48138 39.9294L2.9314 46.0294L6.92139 46.5794L3.09143 48.2994L3.42139 52.8394L4.80139 53.0394L3.52142 54.1494L3.94141 59.9794L12.7814 59.5694L4.16138 62.9494L4.6814 70.1294L6.3714 69.9494L4.80139 71.8194L4.8714 72.7094L8.72137 72.4394L4.98138 74.2394L5.61139 82.8794L13.8414 82.1994L6.4314 85.0294L6.61139 87.3394L5.94141 87.4294L6.14142 90.2394L10.0814 90.7894L6.27142 92.0194L6.53143 95.5494L7.80139 95.7194L8.3114 101.729L12.3514 102.869L7.11139 103.489L8.26141 119.329L9.92139 120.109L8.3714 120.889L8.83142 127.199L21.2614 127.739L8.97137 129.079L9.33142 134.079L10.7214 134.269L11.1514 138.099L16.2614 138.809L9.79138 140.379L10.7114 152.989L14.5114 153.519L10.7814 154.029L10.9314 156.089L180.811 144.239L180.411 138.639Z" fill="white" stroke="#3B65EE" stroke-width="3" stroke-miterlimit="10" stroke-linecap="round" stroke-linejoin="round"/>
<path d="M38.8595 79.7898L36.9095 84.0398L37.6995 97.8898L30.6095 98.2998L28.0195 53.1998L35.1095 52.7898L36.2295 72.3098L36.3595 72.2998L44.3895 52.2498L51.4795 51.8398L42.7795 72.5098L54.0695 96.9398L46.7895 97.3598L38.8595 79.7898Z" fill="#3B65EE"/>
<path d="M61.1994 51.3L63.1994 86.09C63.3794 89.31 64.8694 90.39 67.1194 90.26C69.3694 90.13 70.7294 88.89 70.5394 85.67L68.5394 50.88L75.2394 50.5L77.2094 84.84C77.6194 92.06 74.2494 96.39 67.2994 96.78C60.3394 97.18 56.4994 93.26 56.0794 86.05L54.1094 51.71L61.1994 51.3Z" fill="#3B65EE"/>
<path d="M80.0781 50.2213L91.2881 49.5813C98.3781 49.1713 102.078 52.9013 102.498 60.1213L103.808 82.9313C104.218 90.1513 100.968 94.2713 93.8781 94.6813L82.6681 95.3213L80.0781 50.2213ZM87.5281 56.2513L89.3781 88.4613L93.3681 88.2313C95.6281 88.1013 96.9081 86.8613 96.7281 83.6413L95.3781 60.1913C95.1981 56.9713 93.7781 55.8913 91.5181 56.0213L87.5281 56.2513Z" fill="#3B65EE"/>
<path d="M106.399 59.57C105.989 52.35 109.549 48.01 116.509 47.61C123.469 47.21 127.509 51.12 127.919 58.33L129.269 81.78C129.679 89 126.119 93.34 119.159 93.74C112.199 94.14 108.159 90.23 107.749 83.02L106.399 59.57ZM114.859 83.06C115.039 86.28 116.529 87.42 118.789 87.29C121.039 87.16 122.389 85.86 122.209 82.63L120.809 58.28C120.629 55.06 119.139 53.92 116.879 54.05C114.619 54.18 113.279 55.48 113.459 58.71L114.859 83.06Z" fill="#3B65EE"/>
<path d="M141.379 46.1802C148.269 45.7802 152.049 49.7002 152.469 56.9202L152.549 58.3403L145.849 58.7202L145.739 56.8502C145.559 53.6302 144.199 52.4802 141.939 52.6102C139.679 52.7402 138.469 54.0402 138.649 57.2602C138.839 60.5502 140.399 62.9102 145.269 66.7002C151.499 71.5802 153.579 75.2102 153.869 80.3602C154.279 87.5802 150.909 91.9102 143.959 92.3002C136.999 92.7002 133.159 88.7802 132.739 81.5702L132.579 78.8002L139.279 78.4202L139.459 81.6402C139.639 84.8602 141.129 85.9402 143.379 85.8102C145.629 85.6802 146.989 84.4402 146.799 81.2202C146.609 77.9302 145.049 75.5703 140.179 71.7803C133.949 66.9003 131.869 63.2702 131.579 58.1202C131.179 50.9102 134.479 46.5802 141.379 46.1802Z" fill="#3B65EE"/>
<path d="M55.1778 112.162C55.1778 113.052 55.2378 114.382 55.3678 116.162L55.4778 118.062C57.7878 117.902 59.8478 117.742 61.6478 117.582C61.9678 117.562 62.2678 117.662 62.5378 117.872C62.8078 118.082 62.9478 118.352 62.9678 118.682C62.9878 119.002 62.8878 119.302 62.6778 119.572C62.4678 119.842 62.1978 119.982 61.8678 120.002C60.0378 120.162 57.9478 120.322 55.5778 120.482C55.5678 121.262 55.4978 122.762 55.3678 124.972C55.2378 127.182 55.2278 128.952 55.3278 130.302C55.4278 131.642 55.7378 132.982 56.2478 134.302C56.6678 135.442 57.4378 136.002 58.5678 135.992C59.0778 135.992 59.5878 135.842 60.0978 135.562C60.6078 135.272 61.0378 134.862 61.3878 134.332C61.6078 133.992 61.7678 133.582 61.8478 133.092C61.9278 132.602 61.9678 132.202 61.9578 131.892C61.9578 131.582 61.9278 130.992 61.8778 130.132C61.8578 129.812 61.9678 129.522 62.1878 129.262C62.4178 129.002 62.6878 128.872 63.0178 128.852C63.3378 128.832 63.6278 128.942 63.8878 129.162C64.1478 129.392 64.2778 129.662 64.2978 129.992L64.3278 130.602L64.3678 131.292C64.3778 131.402 64.3778 131.622 64.3878 131.962C64.3978 132.302 64.3878 132.552 64.3678 132.712C64.3478 132.872 64.3178 133.112 64.2678 133.422C64.2178 133.732 64.1578 133.992 64.0878 134.202C64.0178 134.412 63.9278 134.642 63.8078 134.902C63.6878 135.162 63.5578 135.422 63.4078 135.672C62.8578 136.512 62.1578 137.182 61.2978 137.672C60.4378 138.162 59.5278 138.412 58.5878 138.412C57.5578 138.412 56.6378 138.142 55.8078 137.602C54.9778 137.052 54.3578 136.242 53.9478 135.162C53.5278 134.022 53.2378 132.762 53.0678 131.382C52.8978 130.002 52.8178 128.812 52.8378 127.812C52.8578 126.812 52.9178 125.542 53.0078 123.992C53.0978 122.452 53.1478 121.322 53.1578 120.622L49.8878 120.812C49.5678 120.832 49.2778 120.722 49.0178 120.502C48.7578 120.272 48.6278 120.002 48.6078 119.672C48.5878 119.352 48.6978 119.062 48.9178 118.802C49.1478 118.542 49.4178 118.412 49.7478 118.392L53.0578 118.202L52.9478 116.342C52.8178 114.512 52.7478 113.112 52.7478 112.142C52.7578 111.822 52.8778 111.532 53.1278 111.292C53.3678 111.052 53.6578 110.932 53.9778 110.942C54.2978 110.952 54.5878 111.072 54.8278 111.322C55.0678 111.552 55.1878 111.832 55.1778 112.162Z" fill="#3B65EE"/>
<path d="M69.6369 117.043C69.7469 117.063 70.3269 117.013 71.3669 116.903C72.4669 116.783 73.2669 116.833 73.7669 117.053C74.5069 117.333 75.0469 117.803 75.3869 118.463C75.6369 118.153 75.8969 117.883 76.1469 117.653C77.1969 116.733 78.5669 116.123 80.2569 115.833C82.2369 115.503 83.7869 115.803 84.9269 116.743C85.0969 116.873 85.2869 117.083 85.4869 117.403C85.6069 117.613 85.7569 117.863 85.9369 118.143C86.2669 118.693 86.4869 119.093 86.6169 119.363C86.8369 119.833 87.0069 120.273 87.1369 120.673C87.3669 121.393 87.4369 121.993 87.3669 122.483C87.2369 123.463 86.8169 124.233 86.1269 124.803C85.4269 125.373 84.7069 125.633 83.9469 125.593C83.4869 125.563 83.0769 125.413 82.7069 125.133C82.3369 124.853 82.1269 124.453 82.0669 123.913C81.9969 123.103 82.3769 122.233 83.2169 121.293C83.6469 120.813 84.1469 120.723 84.6969 121.043C84.6269 120.833 84.5369 120.603 84.4169 120.373C84.3269 120.193 84.1469 119.853 83.8769 119.353C83.7269 119.093 83.5969 118.883 83.4769 118.723C83.4469 118.673 83.4069 118.623 83.3469 118.573C82.7569 118.153 81.8669 118.033 80.6969 118.243C79.4669 118.453 78.4769 118.873 77.7369 119.503C77.5569 119.653 77.3369 119.913 77.0969 120.313C76.6169 120.963 76.3369 121.343 76.2269 121.453C76.0769 121.653 75.8969 121.783 75.6869 121.853L75.6769 122.423C75.6469 122.833 75.6369 123.113 75.6469 123.273C75.6969 124.623 75.8169 126.513 75.9969 128.943C76.1769 131.373 76.2969 133.033 76.3469 133.923C76.3569 134.063 76.3369 134.193 76.2869 134.333C78.0969 134.333 79.5369 134.313 80.6169 134.243C80.9369 134.223 81.2269 134.333 81.4869 134.553C81.7469 134.783 81.8769 135.053 81.8969 135.383C81.9169 135.703 81.8069 135.993 81.5869 136.253C81.3569 136.513 81.0869 136.643 80.7569 136.663C79.5969 136.733 77.8869 136.763 75.6169 136.753C73.3769 136.773 71.7069 136.813 70.6069 136.883C70.2869 136.903 69.9969 136.793 69.7369 136.573C69.4769 136.343 69.3469 136.073 69.3269 135.743C69.3069 135.423 69.4169 135.133 69.6369 134.873C69.8669 134.613 70.1369 134.483 70.4669 134.463C71.4369 134.403 72.6069 134.363 73.9869 134.343C73.9569 134.263 73.9369 134.173 73.9269 134.063C73.8769 133.173 73.7569 131.503 73.5769 129.063C73.3969 126.613 73.2769 124.733 73.2369 123.413C73.2169 123.143 73.2269 122.783 73.2569 122.323L73.3069 121.143C73.3369 120.303 73.3169 119.763 73.2569 119.523C73.1969 119.443 73.0969 119.373 72.9369 119.323C72.7869 119.263 72.3569 119.273 71.6669 119.333C70.4369 119.463 69.7369 119.513 69.5669 119.493C69.2469 119.483 68.9669 119.353 68.7369 119.093C68.5069 118.833 68.3969 118.543 68.4069 118.223C68.4169 117.903 68.5469 117.623 68.8069 117.393C69.0169 117.143 69.3069 117.033 69.6369 117.043Z" fill="#3B65EE"/>
<path d="M110.679 127.962C110.429 131.112 109.209 133.392 107.019 134.812C105.039 136.082 102.829 136.332 100.379 135.562C98.8086 135.062 97.4586 134.182 96.3186 132.942C95.1786 131.702 94.3586 130.112 93.8586 128.182C93.3586 126.252 93.4086 124.042 94.0286 121.552C94.5086 119.582 95.5286 117.952 97.0886 116.682C98.6486 115.402 100.379 114.662 102.289 114.442C104.269 114.192 106.059 114.602 107.639 115.652C109.229 116.712 110.249 118.382 110.699 120.682C110.739 120.892 110.789 121.352 110.859 122.052C110.909 122.402 110.939 122.692 110.949 122.942L110.969 123.302C110.949 123.382 110.939 123.452 110.939 123.502C110.919 123.692 110.879 123.852 110.809 123.992C110.569 124.462 110.099 124.812 109.409 125.042C108.989 125.172 108.439 125.272 107.769 125.342C106.749 125.452 105.359 125.492 103.609 125.462C102.579 125.472 101.159 125.432 99.3486 125.342C97.8086 125.272 96.8986 125.242 96.6286 125.252C96.3886 125.262 96.1686 125.212 95.9686 125.092C95.9286 127.232 96.4086 129.012 97.4086 130.432C98.4086 131.862 99.6386 132.802 101.099 133.262C102.829 133.812 104.379 133.652 105.729 132.792C107.239 131.812 108.069 130.142 108.239 127.792C108.279 127.462 108.419 127.192 108.679 126.982C108.939 126.762 109.229 126.662 109.549 126.692C109.879 126.712 110.149 126.852 110.359 127.112C110.579 127.352 110.679 127.642 110.679 127.962ZM108.509 122.782C108.469 122.652 108.449 122.492 108.439 122.302C108.379 121.662 108.329 121.272 108.289 121.132C107.979 119.502 107.299 118.332 106.249 117.622C105.199 116.912 103.969 116.642 102.579 116.802C101.129 116.992 99.8286 117.572 98.6686 118.522C97.5086 119.482 96.7586 120.682 96.4086 122.132C96.3386 122.382 96.2886 122.622 96.2486 122.872C96.3586 122.842 96.4586 122.822 96.5686 122.812C96.8886 122.792 97.8486 122.822 99.4486 122.892C101.419 122.972 102.819 123.012 103.629 123.012C105.309 123.052 106.599 123.022 107.509 122.912C107.909 122.872 108.249 122.832 108.509 122.782Z" fill="#3B65EE"/>
<path d="M134.077 126.622C133.827 129.772 132.607 132.052 130.417 133.472C128.437 134.742 126.227 134.992 123.777 134.222C122.207 133.722 120.857 132.842 119.717 131.602C118.577 130.362 117.757 128.772 117.257 126.842C116.757 124.912 116.807 122.702 117.427 120.212C117.907 118.242 118.927 116.612 120.487 115.342C122.047 114.062 123.777 113.322 125.687 113.102C127.667 112.852 129.457 113.262 131.037 114.312C132.627 115.372 133.647 117.042 134.097 119.342C134.137 119.552 134.187 120.012 134.257 120.712C134.307 121.062 134.337 121.352 134.347 121.602L134.367 121.962C134.347 122.042 134.337 122.112 134.337 122.162C134.317 122.352 134.277 122.512 134.207 122.652C133.967 123.122 133.497 123.472 132.807 123.702C132.387 123.832 131.837 123.932 131.167 124.002C130.147 124.112 128.757 124.152 127.007 124.122C125.977 124.132 124.557 124.092 122.747 124.002C121.207 123.932 120.297 123.902 120.027 123.912C119.787 123.922 119.567 123.872 119.367 123.752C119.327 125.892 119.807 127.672 120.807 129.092C121.807 130.522 123.037 131.462 124.497 131.922C126.227 132.472 127.777 132.312 129.127 131.452C130.637 130.472 131.467 128.802 131.637 126.452C131.677 126.122 131.817 125.852 132.077 125.642C132.337 125.422 132.627 125.322 132.947 125.352C133.277 125.372 133.547 125.512 133.757 125.772C133.987 126.012 134.087 126.302 134.077 126.622ZM131.917 121.442C131.877 121.312 131.857 121.152 131.847 120.962C131.787 120.322 131.737 119.932 131.697 119.792C131.387 118.162 130.707 116.992 129.657 116.282C128.607 115.572 127.377 115.302 125.987 115.462C124.537 115.652 123.237 116.232 122.077 117.182C120.917 118.142 120.167 119.342 119.817 120.792C119.747 121.042 119.697 121.282 119.657 121.532C119.767 121.502 119.867 121.482 119.977 121.472C120.297 121.452 121.257 121.482 122.857 121.552C124.827 121.632 126.227 121.672 127.037 121.672C128.717 121.712 130.007 121.682 130.917 121.572C131.317 121.532 131.657 121.482 131.917 121.442Z" fill="#3B65EE"/>
<path d="M88.4117 36.3781C89.461 36.3781 90.3117 35.5274 90.3117 34.4781C90.3117 33.4287 89.461 32.5781 88.4117 32.5781C87.3623 32.5781 86.5117 33.4287 86.5117 34.4781C86.5117 35.5274 87.3623 36.3781 88.4117 36.3781Z" fill="#D1DAED" stroke="#D1DAED" stroke-width="3" stroke-miterlimit="10" stroke-linecap="round" stroke-linejoin="round"/>
<path d="M88.4117 144.417C89.461 144.417 90.3117 143.567 90.3117 142.517C90.3117 141.468 89.461 140.617 88.4117 140.617C87.3623 140.617 86.5117 141.468 86.5117 142.517C86.5117 143.567 87.3623 144.417 88.4117 144.417Z" fill="#D1DAED" stroke="#D1DAED" stroke-width="3" stroke-miterlimit="10" stroke-linecap="round" stroke-linejoin="round"/>
</svg>
