<svg width="937" height="34" viewBox="0 0 937 34" fill="none" xmlns="http://www.w3.org/2000/svg">
<path d="M1.68945 17.1602C1.68945 13.0802 3.79944 9.7502 6.42944 9.6602C56.7394 7.8702 107.049 6.5202 157.359 5.4102C261.139 3.2102 364.919 2.19021 468.709 2.17021C572.489 2.15021 676.27 3.17022 780.06 5.37022C830.37 6.48022 880.679 7.83022 930.989 9.62022C933.629 9.71022 935.729 13.0502 935.729 17.1202V17.2002C935.729 21.2802 933.619 24.6102 930.989 24.7002C880.679 26.4902 830.37 27.8502 780.06 28.9502C676.28 31.1502 572.499 32.1703 468.709 32.1503C364.929 32.1303 261.149 31.1102 157.359 28.9102C107.049 27.8002 56.7394 26.4502 6.42944 24.6602C3.79944 24.5702 1.68945 21.2402 1.68945 17.1602Z" fill="#D1DAED" stroke="#4D67B0" stroke-width="2.5" stroke-miterlimit="10" stroke-linecap="round" stroke-linejoin="round"/>
</svg>
