<svg xmlns="http://www.w3.org/2000/svg" viewBox="0 0 4800 3000"><defs><style>.cls-1,.cls-12,.cls-16,.cls-17,.cls-18,.cls-24,.cls-3{fill:#fff;}.cls-10,.cls-15,.cls-2,.cls-23,.cls-4,.cls-6,.cls-7{fill:#3b65ee;}.cls-10,.cls-11,.cls-12,.cls-14,.cls-15,.cls-16,.cls-17,.cls-18,.cls-19,.cls-2,.cls-20,.cls-21,.cls-22,.cls-24,.cls-25,.cls-3,.cls-5,.cls-8,.cls-9{stroke:#3b65ee;}.cls-10,.cls-11,.cls-12,.cls-14,.cls-15,.cls-16,.cls-17,.cls-18,.cls-19,.cls-2,.cls-20,.cls-21,.cls-24,.cls-25,.cls-3,.cls-8,.cls-9{stroke-linecap:round;}.cls-10,.cls-11,.cls-12,.cls-14,.cls-15,.cls-16,.cls-17,.cls-18,.cls-19,.cls-2,.cls-20,.cls-21,.cls-24,.cls-3,.cls-8,.cls-9{stroke-linejoin:round;}.cls-2{stroke-width:2.56px;}.cls-11,.cls-3{stroke-width:3.08px;}.cls-11,.cls-14,.cls-19,.cls-20,.cls-21,.cls-22,.cls-25,.cls-5,.cls-8,.cls-9{fill:none;}.cls-22,.cls-25,.cls-5{stroke-miterlimit:10;}.cls-12,.cls-19,.cls-5,.cls-8{stroke-width:3.27px;}.cls-16,.cls-17,.cls-6{opacity:0.2;}.cls-7{opacity:0.1;}.cls-10,.cls-9{stroke-width:3.77px;}.cls-13,.cls-19,.cls-23{opacity:0.4;}.cls-14,.cls-15{stroke-width:2.89px;}.cls-16{stroke-width:2.72px;}.cls-17{stroke-width:3.54px;}.cls-18{stroke-width:4.02px;}.cls-20,.cls-22{stroke-width:5.89px;}.cls-21{stroke-width:2.95px;}.cls-24,.cls-25{stroke-width:3.21px;}</style></defs><title>Speedcar_Abyss</title><g id="Layer_2" data-name="Layer 2"><rect class="cls-1" width="4800" height="3000"/><path class="cls-2" d="M2168.63,1311.75l26.91-6.16c17.9-4.21,36.55,10,41.67,31.83s-5.24,42.85-23.13,47.06l-28.22,6.51c-17.9,4.2-36.55-10-41.67-31.83s5.24-42.86,23.13-47.06,36.55,10.05,41.67,31.83"/><path class="cls-3" d="M2159.06,1300.45c4.32-.22,30.07.29,53.07,40.91a7.13,7.13,0,0,1-4.4,10.42l-25.88,6.73a7.13,7.13,0,0,1-8.38-4.18c-3.83-9.33-13.23-27.64-31-37.74a7.13,7.13,0,0,1,2-13.2l13.5-2.8A7.5,7.5,0,0,1,2159.06,1300.45Z"/><path class="cls-3" d="M1706.41,1258l9.37-20.21a9.49,9.49,0,0,1,7.93-5.47l60.64-4.39a9.94,9.94,0,0,1,3.12.29l38.75,10.24a9.49,9.49,0,0,1,5,3.22l34.1,42.25a9.47,9.47,0,0,0,3.76,2.81l62.58,25.9a9.5,9.5,0,0,0,10.74-2.48l25.21-28.43a9.41,9.41,0,0,1,5.37-3l95-17.62a9.5,9.5,0,0,1,6,.85c16.06,8.09,94.89,50.59,138.46,125.33a9.5,9.5,0,0,1-3.2,12.91c-11.76,7.18-41.48,20.12-113.66,32.7"/><ellipse class="cls-4" cx="1935.15" cy="1177.5" rx="3.93" ry="3.96"/><ellipse class="cls-4" cx="1946.96" cy="1177.5" rx="3.93" ry="3.96"/><path class="cls-4" d="M1926.17,1187.74a1.6,1.6,0,0,0-1.32,2,16.52,16.52,0,0,0,32.44-5.33,1.59,1.59,0,0,0-1.86-1.43Z"/><path class="cls-5" d="M1972.21,1235.24a3.79,3.79,0,0,0,1.93-2.72c2.33-14,14.4-104.63-63.22-107.65,0,0-43.3-4.08-49,36-5,34.82-1.29,53.57-.25,57.85a3.85,3.85,0,0,0,.89,1.68c3.87,4.28,26,21.57,53.28,23.79C1941.81,1246.24,1965.77,1238.76,1972.21,1235.24Z"/><ellipse class="cls-5" cx="1885.19" cy="1179.19" rx="4.08" ry="5.72"/><path class="cls-5" d="M1966.6,1158.42s-38.53,8.11-69.57,1.58-28.59,32.67-9.8,44.93,66.86,20,89,1.81"/><path class="cls-6" d="M1861.9,1160.82c2.22-15.49,10-24.37,18.83-29.44,29.6-6.8,46.9,8.42,56.9,30.73-12.47.8-27.23.7-40.6-2.11-31-6.54-28.59,32.67-9.8,44.93,13,8.46,39.93,14.76,62.65,11.86.75,9.15,1,17.77,1,25.1a128.61,128.61,0,0,1-35.07,2.25c-27.29-2.22-49.41-19.51-53.28-23.79a3.85,3.85,0,0,1-.89-1.68C1860.61,1214.39,1856.93,1195.64,1861.9,1160.82Z"/><polygon class="cls-6" points="1949.88 1216.79 1949.88 1216.79 1949.88 1216.78 1949.88 1216.79"/><path class="cls-6" d="M1949.59,1213.47l0-.16Z"/><path class="cls-6" d="M1947.3,1195.9v0Z"/><polygon class="cls-6" points="1937.63 1162.11 1937.63 1162.11 1937.63 1162.11 1937.63 1162.11"/><path class="cls-6" d="M1946,1188.82v0Z"/><path class="cls-6" d="M1948.84,1206.54l0-.26Z"/><path class="cls-7" d="M1886.41,1205.74c-18.79-12.25-21.24-51.46,9.8-44.92,13.38,2.81,28.13,2.91,40.61,2.1h0a130.66,130.66,0,0,1,8.31,26.65v.05c.49,2.32.93,4.66,1.33,7v.1c.6,3.47,1.09,6.94,1.52,10.38l0,.26c.27,2.27.52,4.53.73,6.76v.17c.11,1.11.2,2.21.29,3.31h0C1926.34,1220.5,1899.39,1214.21,1886.41,1205.74Z"/><path class="cls-5" d="M1955,1295.6c-5.28-.17-10.85-1.16-12.25-3.27-3.27-4.9-1.64-38.39,1.63-40.84s13.07-5.72,17.15-4.09,17.16,9,20.43,15.53c0,0-1.73,7.11-4.29,14.7"/><path class="cls-8" d="M1941.14,1262.93s-52.28-13.89-62.08-19.61-18.79-1.63-21.24,5.72-.82,13.89,11.44,22,46.17,21.87,77.6,23.69"/><path class="cls-8" d="M2015.48,1250.67s-22.52-3-35.36,9.52"/><path class="cls-8" d="M2004.28,1238.22s-22.71-.63-34.17,13.18"/><path class="cls-8" d="M2017.11,1253.94s-3.27-12.25-18-18.79"/><path class="cls-8" d="M1991.79,1238.42l1.63-10.62s18.79-7.35,26.14.82S2031,1245,2031,1253.94"/><path class="cls-8" d="M1859.86,1206.54l-28.55,2.58a16.78,16.78,0,0,0-12.26,7.15l-.48.7a16.77,16.77,0,0,0-2.88,7.68l-1.16,10.5"/><path class="cls-9" d="M1731.38,1384c26.56-5.4,42.76-36,36.19-68.31"/><path class="cls-10" d="M1709.53,1266.41l39.93-7.88c26.56-5.39,53.41,16.44,60,48.77s-9.63,62.92-36.19,68.31l-41.87,8.34c-26.56,5.4-53.41-16.43-60-48.76s9.63-62.92,36.19-68.32,53.41,16.44,60,48.77"/><path class="cls-3" d="M1857.76,1384l-30.79,2.19a1.71,1.71,0,0,1-1.83-1.7v-89a1.76,1.76,0,0,0-.44-1.16l-27.13-29.59a1.71,1.71,0,0,1,2.16-2.6l53.26,33a1.68,1.68,0,0,1,.8,1.34l5.55,85.65A1.71,1.71,0,0,1,1857.76,1384Z"/><line class="cls-1" x1="1859.45" y1="1383.82" x2="1922.35" y2="1404.25"/><path class="cls-4" d="M1859.93,1382.36l62.42,21.89-63.37-19a1.54,1.54,0,0,1,.88-3Z"/><polygon class="cls-6" points="1795.74 1262.93 1718.13 1235.15 1704.25 1265.38 1792.38 1357.15 1825.14 1365.91 1825.14 1294.78 1795.74 1262.93"/><line class="cls-11" x1="1797.37" y1="1262.11" x2="1718.13" y2="1235.15"/><path class="cls-8" d="M2040.8,1396.08a74.59,74.59,0,0,1,2.45,31s31,9.8,52.28,5.72"/><path class="cls-4" d="M2146.18,1372.39q-10.2-13.77-21.34-26.69l-5.62-6.41c-1.88-2.13-3.83-4.19-5.74-6.29s-3.9-4.13-5.85-6.19l-3-3.08c-1-1-2-2-3-3-8-8.09-16.47-15.63-25.19-22.89l-6.63-5.35c-2.25-1.73-4.56-3.38-6.84-5.09l-3.42-2.56-3.54-2.39q-3.54-2.38-7.06-4.84c2.52,1.34,5,2.69,7.54,4.07,1.26.69,2.51,1.38,3.76,2.1l3.62,2.3c2.4,1.55,4.83,3.08,7.2,4.68l6.94,5.08c1.15.86,2.35,1.66,3.44,2.58l3.33,2.73,3.32,2.73c1.12.9,2.22,1.82,3.27,2.79l6.38,5.77c2.11,1.94,4.12,4,6.18,6,1,1,2,2,3,3l3,3.13c1.94,2.1,4,4.13,5.82,6.32s3.78,4.3,5.62,6.5,3.64,4.42,5.43,6.66,3.5,4.52,5.21,6.82,3.38,4.62,5,7C2140.25,1362.61,2143.38,1367.4,2146.18,1372.39Z"/><path class="cls-6" d="M2156,1380.55l-10.4,3.47a3.4,3.4,0,0,0-.76,6.1l9.63,6.17a3.41,3.41,0,0,0,5.23-2.6l.77-9.63A3.4,3.4,0,0,0,2156,1380.55Z"/><polyline class="cls-8" points="1859.36 1198.22 1718.13 1209.83 1718.13 1200.03 1859.36 1192.43"/><polyline class="cls-8" points="1718.13 1200.84 1673.2 1151.83 1686.27 1206.56 1718.13 1209.83"/><polygon class="cls-6" points="1718.13 1200.84 1718.13 1209.83 1686.27 1206.56 1673.2 1151.83 1718.13 1200.84"/><line class="cls-8" x1="1683.82" y1="1162.45" x2="1861.68" y2="1162.45"/><path class="cls-4" d="M2093.11,1432.75a103.24,103.24,0,0,0-2.54-10.83c-1-3.61-2.2-7.17-3.48-10.71a197.43,197.43,0,0,0-8.9-20.75,229.67,229.67,0,0,0-24.17-38.22,254.89,254.89,0,0,0-31-33.12,293.61,293.61,0,0,0-36.13-27.6,295.15,295.15,0,0,1,36.81,26.83,258.17,258.17,0,0,1,31.92,32.61,233,233,0,0,1,25.3,38.11,200.6,200.6,0,0,1,9.52,20.89c1.38,3.58,2.67,7.19,3.8,10.87a105.77,105.77,0,0,1,2.9,11.28,2,2,0,1,1-4,.77v-.13Z"/><polygon class="cls-12" points="1756.34 1206.69 1791.24 1240.46 1769.19 1233.93 1748.24 1207.35 1756.34 1206.69"/><g class="cls-13"><path class="cls-4" d="M1599.15,1184.26a61.22,61.22,0,0,0-9.78,1.21,16.34,16.34,0,0,0-7.67,3.72,14.78,14.78,0,0,0-4,7.43,77.77,77.77,0,0,0-1.49,9.75,21.53,21.53,0,0,1-2.23-10.26l.08-1.38.23-1.38a8.18,8.18,0,0,1,.34-1.38,11.6,11.6,0,0,1,.46-1.37,13.28,13.28,0,0,1,3.3-4.89,14.32,14.32,0,0,1,5-3,17.65,17.65,0,0,1,5.5-.94A20.38,20.38,0,0,1,1599.15,1184.26Z"/></g><g class="cls-13"><path class="cls-4" d="M1617.8,1179.86a34.63,34.63,0,0,0-9.71,1.27,15.22,15.22,0,0,0-7.21,4.59,24.27,24.27,0,0,0-4.24,8c-1,3-1.77,6.28-2.72,9.68a25.77,25.77,0,0,1-1-10.5,19.35,19.35,0,0,1,4.29-10.26,15.31,15.31,0,0,1,4.63-3.6,15.48,15.48,0,0,1,5.52-1.54A16.93,16.93,0,0,1,1617.8,1179.86Z"/></g><g class="cls-13"><path class="cls-4" d="M1555.46,1266.55a60.57,60.57,0,0,0,3.64,9.15,16.31,16.31,0,0,0,5.54,6.48,14.76,14.76,0,0,0,8.19,2,77,77,0,0,0,9.81-1,21.53,21.53,0,0,1-9.36,4.75l-1.35.27-1.4.13a8.39,8.39,0,0,1-1.42,0,11.75,11.75,0,0,1-1.44-.1,13.26,13.26,0,0,1-5.57-2,14.37,14.37,0,0,1-4.19-4.1,17.67,17.67,0,0,1-2.3-5.08A20.34,20.34,0,0,1,1555.46,1266.55Z"/></g><g class="cls-13"><path class="cls-4" d="M1546.48,1249.61a34.73,34.73,0,0,0,3.69,9.07,15.15,15.15,0,0,0,6.27,5.82,24.09,24.09,0,0,0,8.75,2.09c3.2.24,6.53.12,10.06.19a25.92,25.92,0,0,1-9.92,3.57,19.3,19.3,0,0,1-11-1.56,15.14,15.14,0,0,1-4.65-3.57,15.38,15.38,0,0,1-2.89-4.94A17,17,0,0,1,1546.48,1249.61Z"/></g><g class="cls-13"><path class="cls-4" d="M1590.82,1213.58c-8.38-1.83-16.6-4.11-24.77-6.54s-16.28-5-24.33-7.8-16.07-5.67-24-8.8-15.82-6.36-23.55-10.06c8.37,1.82,16.6,4.1,24.77,6.53s16.27,5,24.33,7.81,16.06,5.68,24,8.8S1583.08,1209.88,1590.82,1213.58Z"/></g><g class="cls-13"><path class="cls-4" d="M1540.31,1216.15c-9.46-2.25-18.77-5-28-7.81s-18.45-5.88-27.59-9.06-18.22-6.52-27.24-10.06-18-7.2-26.79-11.33c9.46,2.25,18.77,4.95,28,7.8s18.45,5.89,27.59,9.08,18.22,6.51,27.23,10.06S1531.5,1212,1540.31,1216.15Z"/></g><g class="cls-13"><path class="cls-4" d="M1571.65,1236.27c-7,0-13.88-.43-20.76-1s-13.74-1.4-20.58-2.35-13.64-2.07-20.43-3.37-13.55-2.78-20.24-4.72c7,0,13.87.42,20.76,1s13.74,1.4,20.57,2.35,13.65,2.08,20.44,3.38S1565,1234.33,1571.65,1236.27Z"/></g><path class="cls-6" d="M2084.8,1433.83s-22.76-98.2-112.62-142.31c0,0-22,30.22-34.31,29.4s-76-31-76-31l-33.49-44.11-31,15.52,55.55,33.49,6.53,88.23,87.41,26.14,98,12.25-.52,6.06S2061,1434,2084.8,1433.83Z"/><path class="cls-14" d="M1975.29,1448.78c20.21-4.75,31.9-28.53,26.12-53.13"/><path class="cls-15" d="M1955.85,1359.32l30.38-7c20.2-4.74,41.26,11.35,47,35.94s-5.91,48.38-26.12,53.13l-31.86,7.35c-20.2,4.75-41.26-11.34-47-35.94s5.92-48.38,26.12-53.13,41.26,11.35,47,35.94"/><path class="cls-3" d="M2004.11,1341.34c1.6-.17,31.88-2.63,57.18,47.51a1.36,1.36,0,0,1-.88,1.93l-38,9.87a1.36,1.36,0,0,1-1.64-.88c-2.38-7.07-16.08-43-50.68-48.69a1.36,1.36,0,0,1-.06-2.68l33.91-7Z"/><polygon class="cls-6" points="1853.73 1296.42 1858.64 1383.01 1825.96 1384.64 1825.96 1295.6 1853.73 1296.42"/><path class="cls-6" d="M1980.12,1268.53l-22.64-17-15.08,6.22-1.34,15.47s-33.41,2-81.61-26.59c0,0-7.25,10.3,3.32,19.44s54.68,28.75,92.26,30.39c0,0,10.62-16.34,16.34-17.16s6.53-3.26,6.53-3.26Z"/><polyline class="cls-6" points="1854.55 1187.77 1714.37 1196.74 1687.74 1167.69 1855.37 1187.77"/><ellipse class="cls-16" cx="1964.01" cy="1404.25" rx="35.45" ry="43.15" transform="translate(-269.1 486.39) rotate(-13.22)"/><ellipse class="cls-17" cx="1719.39" cy="1326.83" rx="46.08" ry="56.09" transform="translate(-257.88 428.39) rotate(-13.22)"/><ellipse class="cls-3" cx="1963.91" cy="1404.65" rx="13.85" ry="19.03" transform="translate(-269.2 486.38) rotate(-13.22)"/><ellipse class="cls-18" cx="1717.77" cy="1325.84" rx="18.09" ry="24.85" transform="translate(-229.65 368.68) rotate(-11.49)"/><text/><line class="cls-19" x1="1943.4" y1="1364.66" x2="1857" y2="1337.26"/><line class="cls-19" x1="1900.3" y1="1361.77" x2="1856.85" y2="1347.86"/><path class="cls-7" d="M2195.19,1407.51s-55-96-145.12-143.15l-43.83,8.13s96.34,58.26,123,153.82C2129.28,1426.31,2188.66,1412.42,2195.19,1407.51Z"/><line class="cls-1" x1="1954.11" y1="1446.48" x2="1840.67" y2="1411.6"/><path class="cls-4" d="M1953.63,1448l-113-36.44,113.92,33.31a1.64,1.64,0,1,1-.92,3.14Z"/><line class="cls-1" x1="1939.51" y1="1435.29" x2="1868.44" y2="1413.23"/><path class="cls-4" d="M1939,1436.85l-70.58-23.62,71.55,20.5a1.63,1.63,0,0,1-.9,3.14Z"/><line class="cls-1" x1="1935.42" y1="1427.12" x2="1900.3" y2="1416.5"/><path class="cls-4" d="M1935,1428.68l-34.65-12.18,35.6,9.06a1.64,1.64,0,0,1-.81,3.17Z"/><line class="cls-1" x1="1708.84" y1="1382.24" x2="1595.69" y2="1346.4"/><path class="cls-4" d="M1708.35,1383.79l-112.66-37.39,113.64,34.28a1.63,1.63,0,1,1-.94,3.13Z"/><line class="cls-1" x1="1728.08" y1="1270.03" x2="1612.44" y2="1239.24"/><path class="cls-4" d="M1727.66,1271.61l-115.22-32.37,116.06,29.21a1.63,1.63,0,1,1-.8,3.17Z"/><line class="cls-1" x1="1723.85" y1="1263.74" x2="1651.97" y2="1241.69"/><path class="cls-4" d="M1723.37,1265.3l-71.4-23.61,72.36,20.49a1.64,1.64,0,1,1-.89,3.15Z"/><ellipse class="cls-6" cx="1053.36" cy="881.67" rx="163.38" ry="56.36" transform="translate(-311.11 1040.2) rotate(-46.56)"/><ellipse class="cls-6" cx="1037.36" cy="873.27" rx="146.49" ry="35.31" transform="translate(-306.55 1053.92) rotate(-47.75)"/><path class="cls-8" d="M943,1002.13S778.85,867.34,851.55,746.44s308.78,13.07,308.78,13.07"/><ellipse class="cls-8" cx="1053.36" cy="881.67" rx="163.38" ry="56.36" transform="translate(-311.11 1040.2) rotate(-46.56)"/><path class="cls-4" d="M841.75,766.05a141.49,141.49,0,0,0,5.59,25.07,245.6,245.6,0,0,0,8.83,24.11,328.18,328.18,0,0,0,24,45.31l7,10.77c2.42,3.52,5,7,7.45,10.44l3.74,5.2c.61.88,1.27,1.72,1.94,2.55l2,2.51,8,10,2,2.51c.68.83,1.4,1.62,2.1,2.43l4.22,4.82,8.44,9.65c5.87,6.21,11.83,12.33,17.74,18.5l-3.49,3.44c-5.82-6.37-11.69-12.68-17.45-19.09l-8.28-9.93-4.14-5c-.68-.83-1.39-1.65-2.06-2.49l-2-2.58L899.63,894l-2-2.57c-.66-.85-1.3-1.72-1.9-2.62l-3.64-5.33c-2.42-3.57-4.9-7.09-7.25-10.69l-6.77-11A329.93,329.93,0,0,1,855,815.7a245.12,245.12,0,0,1-8.29-24.41A141.3,141.3,0,0,1,841.75,766.05Z"/><path class="cls-4" d="M895.66,718.67A100.12,100.12,0,0,1,909,716.36c4.48-.51,9-.81,13.49-1a228.16,228.16,0,0,1,27,.81c9,.8,17.94,2.09,26.82,3.77,4.45.8,8.85,1.82,13.26,2.8s8.78,2.14,13.12,3.41a380.31,380.31,0,0,1,51,18.39A476.29,476.29,0,0,1,1102,769.23l-2.52,4.21a471.52,471.52,0,0,0-47.31-25.53A377.74,377.74,0,0,0,1002,728.52c-4.28-1.35-8.62-2.49-13-3.68s-8.7-2.18-13.1-3.08c-8.78-1.87-17.65-3.35-26.58-4.35A226.07,226.07,0,0,0,922.47,716c-4.49.07-9,.27-13.47.67A100.35,100.35,0,0,0,895.66,718.67Z"/><path class="cls-4" d="M861.5,748.5c14,5.79,27.73,12,41.41,18.47s27.26,13.11,40.7,20.06,26.8,14.05,40,21.48,26.25,15.08,39.22,22.92l-2.62,4.14c-12.69-8.14-25.44-16.2-38.44-23.88s-26.07-15.21-39.29-22.5-26.6-14.3-40.08-21.12S875.3,754.67,861.5,748.5Z"/><path class="cls-4" d="M944,939.42l673.72,283.52-675.61-279a2.45,2.45,0,1,1,1.87-4.53Z"/><path class="cls-4" d="M1101.34,769l543.33,402.51L1098.43,772.92a2.45,2.45,0,0,1,2.89-4Z"/><path class="cls-4" d="M1022.74,831.39,1665.9,1211.5,1020.26,835.61a2.45,2.45,0,0,1,2.47-4.23Z"/><g class="cls-13"><polygon class="cls-4" points="1007.39 989.32 1605.45 1222.94 1006.21 992.36 1007.39 989.32"/></g><g class="cls-13"><polygon class="cls-4" points="1101.27 912.06 1656.92 1211.5 1099.73 914.94 1101.27 912.06"/></g><g class="cls-13"><polygon class="cls-4" points="1168.67 809.67 1656.92 1178.01 1166.7 812.28 1168.67 809.67"/></g><path class="cls-6" d="M843.38,761.15s63.72,89,128.25,131.51c0,0-21.24,23.69-28.59,49C943,941.68,834.4,824.86,843.38,761.15Z"/><path class="cls-6" d="M834,796.83s19.71,87.34,102.39,165.11c0,0-7.19,25.55,2.21,36.55C938.55,998.49,817.16,888.88,834,796.83Z"/><path class="cls-4" d="M2301.28,1396.83l15.92,3.39,15.89,3.47,31.83,6.69,31.85,6.56,31.89,6.38,31.92,6.15,32,5.93,32,5.73,32.05,5.43,32.08,5.24,32.13,4.93,32.17,4.7,32.21,4.42,32.24,4.15,32.29,3.88,32.31,3.67,16.18,1.65,16.18,1.74-16.24-1-16.24-1.06-32.45-2.51-32.41-3-32.36-3.51-32.32-3.94-32.26-4.34-32.21-4.79-32.15-5.13-32.08-5.56-32-5.89-31.94-6.3c-10.63-2.17-21.25-4.41-31.87-6.65l-31.78-7-31.69-7.4-31.59-7.82-15.76-4Z"/><path class="cls-4" d="M1268.64,1281.77c53.29,27.08,107.6,52.07,162.33,76s109.93,46.87,165.57,68.63q166.9,65.35,338.49,117.67,85.77,25.92,172.48,48.58c3.6,1,7.22,1.89,10.85,2.79l10.86,2.71,21.74,5.44,21.73,5.43,21.81,5.09,43.65,10.12,43.79,9.48,10.95,2.37c3.65.78,7.29,1.62,11,2.31l22,4.34,22,4.34,11,2.17c3.66.72,7.32,1.47,11,2.09l44.12,7.85,11,2c3.67.65,7.35,1.33,11,1.88l22.13,3.49,22.13,3.54,11.06,1.77c3.69.57,7.37,1.22,11.08,1.7l44.39,6.14c7.4,1,14.8,2.1,22.21,3l22.26,2.58,44.52,5.28a3225,3225,0,0,1-354.64-52.94l-43.92-9.14-43.74-10-21.86-5-21.78-5.35-21.78-5.35-10.89-2.68c-3.63-.89-7.27-1.77-10.88-2.74L2062.91,1586l-10.84-2.86c-3.62-1-7.21-2-10.81-3l-21.6-6.05c-28.85-7.89-57.46-16.6-86.14-25q-85.76-26.35-170.47-55.92l-42.25-15.07-42.08-15.53c-14-5.25-27.94-10.63-41.91-16-7-2.64-13.93-5.43-20.88-8.18l-20.85-8.26-10.41-4.14-10.39-4.24-20.76-8.48c-6.93-2.79-13.82-5.69-20.71-8.59l-20.67-8.68c-13.78-5.8-27.47-11.8-41.21-17.69l-20.51-9.06c-6.83-3-13.69-6-20.48-9.13l-20.41-9.3c-6.8-3.09-13.55-6.29-20.33-9.43l-10.17-4.74-10.12-4.8c-6.74-3.23-13.52-6.39-20.23-9.67C1321.75,1309.2,1295,1295.88,1268.64,1281.77Z"/><path class="cls-4" d="M1249.19,1293.44q9.21,4.43,18.47,8.74c6.15,2.93,12.32,5.8,18.5,8.67l9.26,4.3,9.3,4.24c6.2,2.82,12.37,5.68,18.59,8.46,12.43,5.56,24.8,11.26,37.28,16.72l18.66,8.28c6.21,2.8,12.48,5.46,18.72,8.19,12.49,5.42,25,10.91,37.48,16.23l18.78,8,9.39,4,9.42,3.94,37.67,15.79,37.81,15.43c12.57,5.24,25.25,10.21,37.89,15.27l19,7.56,9.49,3.77,9.52,3.69,38.07,14.81c6.33,2.5,12.71,4.87,19.08,7.26l19.11,7.23c50.91,19.35,102.2,37.7,153.52,56l-19.48-6.19-19.45-6.28c-13-4.2-26-8.31-38.83-12.76l-38.67-13.26-9.66-3.33-9.61-3.47-19.23-7c-12.8-4.66-25.67-9.16-38.39-14l-38.24-14.48-9.55-3.63-9.51-3.75-19-7.52c-12.67-5-25.38-10-38-15.16q-75.78-30.72-150.25-64.56c-24.84-11.2-49.5-22.8-74.08-34.58-6.14-3-12.24-6-18.36-9l-9.17-4.5-9.14-4.57Q1267.25,1303,1249.19,1293.44Z"/><path class="cls-20" d="M2685.28,1686.75s353.23-174.77,653.13,67.45"/><path class="cls-4" d="M2690.27,1707.25c6.37-3.27,12.89-6.25,19.44-9.14s13.21-5.56,19.89-8.16q20-7.79,40.55-14.31a704.06,704.06,0,0,1,83.5-20.82,682.06,682.06,0,0,1,85.52-10.36c14.35-.84,28.73-1.06,43.11-.9s28.75.79,43.08,2,28.63,2.91,42.83,5.17,28.34,5,42.33,8.33c3.5.83,7,1.76,10.46,2.64l5.23,1.34,5.19,1.47c3.45,1,6.93,1.91,10.36,3l10.3,3.21c13.66,4.48,27.24,9.26,40.48,14.85l5,2,4.93,2.17c3.29,1.46,6.59,2.88,9.86,4.37,6.47,3.11,13,6,19.38,9.41,12.85,6.42,25.3,13.61,37.61,21l9.09,5.76,4.55,2.88,4.46,3,8.91,6c2.94,2,5.83,4.17,8.75,6.25,5.88,4.11,11.52,8.53,17.22,12.87,2.86,2.15,5.6,4.46,8.38,6.72l8.31,6.8c-11.42-8.63-22.91-17.16-34.8-25.11-3-2-5.92-4-8.91-6l-9.07-5.72-4.53-2.86-4.61-2.73-9.22-5.45c-12.44-7-25-13.89-37.86-20-6.38-3.19-12.93-6-19.4-9-3.27-1.43-6.57-2.78-9.85-4.17l-4.93-2.08-5-1.94-10-3.86-10.06-3.6c-3.35-1.23-6.73-2.33-10.12-3.45l-5.07-1.67c-1.69-.57-3.38-1.12-5.09-1.62l-10.24-3.07c-3.41-1-6.86-1.9-10.29-2.86l-5.16-1.4-5.18-1.28c-3.47-.83-6.91-1.72-10.39-2.5q-20.82-4.77-41.95-8.08c-14.07-2.2-28.23-3.79-42.42-5-56.8-4.79-114.17-1.63-170.43,7.89-14.07,2.36-28.06,5.2-42,8.36s-27.76,6.72-41.49,10.69A613.51,613.51,0,0,0,2690.27,1707.25Z"/><path class="cls-4" d="M2852.14,1519.52q19.59-18.93,39.68-37.38-16.41,18.39-33.31,36.28"/><path class="cls-4" d="M2784.19,1586.89l-20.67,21.1c-8.31,8.64-16.69,17.2-24.92,25.91q-14.16,14.86-28.14,29.92l.63,2.91q15.52-14.67,30.77-29.61c8.61-8.33,17.08-16.81,25.61-25.22l25.38-25.44,1.12-1.14"/><path class="cls-4" d="M3333.55,1598.88c-.11-9.82-.32-19.64-.32-29.46-.11-19.64-2.44-47.33-1.76-67,1.76,19.6,5.37,47.25,6.34,66.87.54,9.8.53,27.73,1,37.54"/><path class="cls-20" d="M3339.88,1754.16l44.87-109.54c-337.06-307.49-730.39-37.32-730.39-37.32l30.17,78.74"/><path class="cls-20" d="M2714.41,1674.16s-17.19-62.14,53-83.23,102.1,42.12,102.1,42.12"/><path class="cls-20" d="M2906.14,1627.62s.83-76.57,84.88-74.54c85.52,2.06,77.32,78.9,77.32,78.9"/><path class="cls-20" d="M3105.4,1639.8s45.16-72,121-46.07c80.27,27.41,59.36,122.14,59.36,122.14"/><path class="cls-21" d="M2887.48,1485.21,2863,1400.42s255.84-126.41,500.18,24.51l-31.67,80.44c-273.83-151.58-444.07-20.16-444.07-20.16"/><path class="cls-4" d="M2791.66,1645.84,2821,1613l-24.72,36.45a3,3,0,1,1-4.89-3.31A2.51,2.51,0,0,1,2791.66,1645.84Z"/><path class="cls-4" d="M2892.61,1510.77a60.77,60.77,0,0,1,4.26-7.11c1.56-2.27,3.2-4.46,4.92-6.59s3.52-4.19,5.41-6.18a60.47,60.47,0,0,1,6.07-5.66,60.42,60.42,0,0,1-4.27,7.12c-1.55,2.26-3.2,4.45-4.92,6.58s-3.52,4.19-5.41,6.18A61.46,61.46,0,0,1,2892.61,1510.77Z"/><polygon class="cls-4" points="3009.98 1439.1 2983.82 1478.87 3004.09 1439.26 3009.98 1439.1"/><polyline class="cls-4" points="3070.84 1502.21 3090.65 1452.34 3072.41 1502.82"/><path class="cls-4" d="M3047.68,1571.27,3026.82,1629a2.94,2.94,0,1,1-5.54-2l0-.09,23.33-58.74"/><path class="cls-4" d="M3174.54,1521.73l13.34-72.73a2.94,2.94,0,1,1,5.79,1.06.36.36,0,0,1,0,.1l-16,73.11"/><polyline class="cls-4" points="3161.66 1596.12 3157.07 1617.01 3160.88 1596.26"/><path class="cls-4" d="M3269.61,1621.15l-.3,2.58c-1.33,12-2.86,24-5,36-.32-12.15-.06-24.25.4-36.34q.12-3.89.32-7.75"/><path class="cls-4" d="M3268.84,1563.26c.39-4.08.78-8.15,1.27-12.22,1.32-12,2.86-24,5-36,.32,12.15.07,24.26-.4,36.35-.13,4.55-.39,9.1-.63,13.65"/><polygon class="cls-4" points="2689.67 1599.17 2703.85 1642.1 2685.73 1600.68 2689.67 1599.17"/><polygon class="cls-4" points="3365.08 1628.24 3333.02 1718.98 3359.46 1626.45 3365.08 1628.24"/><path class="cls-4" d="M2744,1571.68c11.53-5.68,23.41-10.62,35.42-15.21s24.16-8.82,36.42-12.72a683.53,683.53,0,0,1,74.83-19q19-3.69,38.13-6.27c12.78-1.71,25.6-3.09,38.46-4a610.17,610.17,0,0,1,77.33-.82c6.44.31,12.87.87,19.3,1.38s12.84,1.25,19.24,2.09c12.8,1.61,25.57,3.56,38.21,6.15l4.75.94,4.73,1c3.14.71,6.3,1.37,9.43,2.13l9.39,2.34c3.14.76,6.23,1.69,9.35,2.53,6.23,1.65,12.38,3.63,18.55,5.49,6.1,2.1,12.26,4,18.28,6.33,12.14,4.36,24.06,9.32,35.79,14.64l8.75,4.1c2.92,1.37,5.77,2.87,8.66,4.3,5.78,2.83,11.41,6,17.08,9,11.18,6.38,22.24,13,32.91,20.16,2.66,1.8,5.38,3.51,8,5.39l7.87,5.57c2.64,1.84,5.18,3.8,7.73,5.75l7.67,5.83-7.93-5.47c-2.63-1.83-5.26-3.67-8-5.38l-8.05-5.28c-2.66-1.78-5.44-3.39-8.16-5.09-10.87-6.8-22.1-13-33.43-18.93a521.55,521.55,0,0,0-70.44-30.27c-6-2.17-12.15-4-18.23-6-6.14-1.75-12.23-3.67-18.43-5.23-3.09-.79-6.16-1.69-9.27-2.4l-9.32-2.22c-3.11-.72-6.25-1.34-9.37-2l-4.68-1-4.71-.88c-3.15-.56-6.27-1.21-9.42-1.73l-9.45-1.57c-3.15-.51-6.32-.91-9.48-1.37l-4.74-.67-4.76-.56c-6.33-.82-12.7-1.39-19.05-2s-12.74-1-19.12-1.3a619.91,619.91,0,0,0-76.62.49,704,704,0,0,0-76.13,9.27c-12.61,2.2-25.15,4.8-37.63,7.65s-24.9,6-37.22,9.54A604.09,604.09,0,0,0,2744,1571.68Z"/><line class="cls-22" x1="2866.67" y1="1532.01" x2="2886.85" y2="1631.1"/><line class="cls-22" x1="3116.24" y1="1525.12" x2="3087.5" y2="1636.7"/><path class="cls-21" d="M2907.83,1472.51s-3.16-58.5,51.07-68.84,77,30.68,77,30.68"/><path class="cls-21" d="M3062.82,1431.75s10.56-44.5,54.85-41.3,39.68,49.72,39.68,49.72"/><path class="cls-21" d="M3176.4,1444.17s22.45-48.59,73-32.31,47.75,75.31,47.75,75.31"/><path class="cls-6" d="M3294.3,1487.61q18.3,8.75,37.29,19.24l31.67-80.44c-244.34-150.92-500.18-24.52-500.18-24.52l24.44,84.79a170,170,0,0,1,20.35-12.7h0s-3.16-58.5,51.07-68.84,77,30.69,77,30.69h0c10.85-1.1,22.25-1.79,34.18-2l-7.25-.64s10.56-44.5,54.85-41.3,39.68,49.72,39.68,49.72h0q9.4,1.78,19.1,4h0s22.45-48.6,73-32.31,47.76,75.3,47.76,75.3Z"/><path class="cls-6" d="M2668.45,1610.6l23.4,73.76q18.53-9,36.75-16.58l-12.8,3.4s-17.19-62.15,53-83.24c61-18.34,94.76,30,102.09,42.12,13-2.12,24.09-2.74,36.73-4,1-13.08,9.82-77.82,84.83-76,85.52,2.06,77.37,80.38,77.37,80.38l3,1.39c13.33,2.41,20.08,3.36,32.6,6.47l1.47,0s45.12-73.44,121-47.54c76.54,26.13,61,117,59.44,125.08,30.95,18.91,46.58,32.6,46.58,32.6l31.06-102.53C3031.48,1390.62,2668.45,1610.6,2668.45,1610.6Z"/><path class="cls-4" d="M2880.83,1404.35c9.11-4.24,18.5-7.89,28-11.29s19-6.5,28.69-9.36a582.06,582.06,0,0,1,58.76-13.83,559.06,559.06,0,0,1,120.35-8.49,493.81,493.81,0,0,1,119,19.62l3.62,1.07,3.6,1.15,7.2,2.3c4.75,1.67,9.54,3.21,14.25,5,9.47,3.41,18.76,7.3,28,11.29a487.86,487.86,0,0,1,53.41,28,523.18,523.18,0,0,0-54-26.69c-9.28-3.83-18.58-7.6-28.07-10.86-4.7-1.74-9.5-3.21-14.25-4.81l-7.19-2.19-3.6-1.1-3.62-1-7.24-2-7.29-1.86c-2.42-.64-4.86-1.22-7.3-1.79s-4.87-1.17-7.32-1.7c-9.79-2.16-19.65-4-29.54-5.62s-19.84-2.82-29.82-3.81-20-1.64-30-2.06a570.76,570.76,0,0,0-119.83,7.77,587.69,587.69,0,0,0-58.76,13A464.77,464.77,0,0,0,2880.83,1404.35Z"/><path class="cls-23" d="M2683.85,1688.27s351.43-186.51,657.59,68.79l-5.89,15s-250.54-230.42-643.89-67.8Z"/><path class="cls-24" d="M3113,2078.56s20.84-17.63-7.21-35.27-36.88,9.61-36.88,15.23c0,0-12-4.82-14.43,3.2s4,15.23,9.62,21.64l-10.42,16.84,32.06,14.43,8.82-20s16,6.42,24-1.6S3117,2077.76,3113,2078.56Z"/><circle class="cls-4" cx="3097.78" cy="2072.15" r="5.61"/><circle class="cls-4" cx="3084.95" cy="2065.73" r="5.61"/><line class="cls-25" x1="3084.15" y1="2097.8" x2="3077.13" y2="2110.75"/><line class="cls-25" x1="3076.93" y1="2093.79" x2="3069.86" y2="2107.48"/><line class="cls-25" x1="3069.72" y1="2091.38" x2="3060.69" y2="2103.35"/><path class="cls-6" d="M3090.56,2093c4.81-8.82,12.83-4,16-6.41s-6.41-7.22-6.41-7.22v-5.61c9.19-6.64,8.63-20.42,7-29.56,25.95,17.33,5.82,34.37,5.82,34.37,4-.8,13.62,6.42,5.61,14.43s-24,1.6-24,1.6l-8.82,20-7.4-3.33Z"/><path class="cls-4" d="M3273.36,2065.05c-8.16-6.94-16.11-14.1-24.08-21.24l-11.86-10.8-11.77-10.9c-3.94-3.62-7.8-7.31-11.69-11s-7.8-7.31-11.65-11L3190.74,1989q-5.79-5.54-11.52-11.15l4.81-3c1.94,6.28,4,12.52,5.82,18.84l2.83,9.44c.94,3.15,1.81,6.33,2.72,9.49,1.83,6.31,3.53,12.67,5.22,19s3.29,12.76,4.71,19.2c-2.58-6.07-5-12.21-7.32-18.36s-4.64-12.32-6.83-18.52c-1.09-3.1-2.23-6.19-3.29-9.3l-3.2-9.33c-2.17-6.21-4.14-12.48-6.21-18.72l-3.68-11.06,8.48,8.08c3.87,3.69,7.69,7.43,11.51,11.17l11.46,11.22c3.82,3.73,7.58,7.53,11.38,11.3s7.59,7.53,11.33,11.35l11.26,11.42,11.16,11.53C3258.77,2049.39,3266.16,2057.11,3273.36,2065.05Z"/><path class="cls-4" d="M3170.61,2060.08c-.72-4.37-1.14-8.74-1.55-13.11s-.65-8.74-.86-13.11-.31-8.74-.38-13.11-.05-8.74,0-13.11l.11-6,4.45,3.9q7.07,6.21,13.83,12.76c2.25,2.2,4.49,4.4,6.65,6.7s4.33,4.58,6.39,7c-2.72-1.64-5.35-3.39-7.94-5.18s-5.15-3.61-7.69-5.47q-7.56-5.61-14.82-11.59l4.56-2.11c.08,4.37.07,8.74,0,13.11s-.18,8.74-.38,13.11-.49,8.74-.87,13.11S3171.33,2055.71,3170.61,2060.08Z"/><path class="cls-4" d="M3170.1,2036.65l-72.2-13.93.44,0-32.6-.2,1-.22-75.35,36.37.84-.95-14.43,41,0-1,27.92,66.78-.33-.4,40.92,28.61h0a.6.6,0,0,1,.24.35l4.16,15.61-.16-.25,15.5,14.27a.45.45,0,0,1,.1.14l25.14,58.26-25.86-58,.09.14-15.67-14.08a.51.51,0,0,1-.16-.25h0l-4.34-15.56.24.35-41.27-28.1a.86.86,0,0,1-.32-.39h0l-28.75-66.44a1.36,1.36,0,0,1,0-1v0l13.92-41.19a1.59,1.59,0,0,1,.81-.93l0,0,74.88-37.3a2.08,2.08,0,0,1,.93-.22h0l32.6-.2.39,0h0l72.36,13Z"/><path class="cls-4" d="M2982.27,2085.28l55.17,56.94-.78-.49,19.77,7.28-.18-.06,108.86,28h0a.56.56,0,0,1,.19.09l69,41.77-69.84-40.43.21.08-109.38-25.88-.15,0h0l-19.91-6.89a1.93,1.93,0,0,1-.74-.46l0,0-56.25-55.86Z"/><path class="cls-4" d="M3146.51,2157.86c3-3.28,6.28-6.35,9.57-9.35s6.67-5.89,10.08-8.74l5.18-4.2c1.76-1.35,3.49-2.75,5.29-4.07,3.56-2.67,7.18-5.27,11-7.65-3.05,3.29-6.28,6.36-9.57,9.36-1.63,1.52-3.33,2.95-5,4.43L3168,2142c-3.44,2.81-6.91,5.6-10.48,8.26S3150.31,2155.48,3146.51,2157.86Z"/><path class="cls-4" d="M3187.75,2141.11c3.89-2.23,7.88-4.21,11.91-6.1s8.11-3.65,12.21-5.38l6.19-2.47c2.09-.77,4.15-1.6,6.26-2.32,4.19-1.51,8.41-2.92,12.75-4.07-3.89,2.24-7.88,4.22-11.91,6.11-2,1-4,1.84-6.07,2.76l-6.14,2.61c-4.12,1.67-8.25,3.31-12.45,4.8S3192.08,2140,3187.75,2141.11Z"/><circle class="cls-4" cx="3054.4" cy="2082.74" r="2.13"/><circle class="cls-4" cx="3043.06" cy="2084.15" r="2.13"/><circle class="cls-4" cx="3056.52" cy="2090.53" r="2.83"/><circle class="cls-4" cx="3125.97" cy="2073.54" r="1.42"/><circle class="cls-4" cx="3131.63" cy="2089.13" r="2.83"/><circle class="cls-4" cx="3125.96" cy="2094.79" r="1.42"/><path class="cls-4" d="M3334.34,1777.36l-3.56,13.92-3.6,13.9-7.29,27.78,0-.16c-1.62,13.73-3.36,27.45-5,41.18l-5.23,41.16v.07l0,.11q-9.87,46.74-20,93.42l-5.08,23.34-2.57,11.66c-1,3.86-2.12,7.68-3.17,11.52l-12.87,46c-1.06,3.83-2.23,7.64-3.2,11.5l-2.88,11.58L3254,2147.5l-11.73,46.27c-7.9,30.83-15.9,61.63-24.24,92.36,6.64-31.14,13.61-62.21,20.69-93.25l10.73-46.55,5.46-23.24,2.74-11.63c.93-3.87,2-7.68,3.06-11.53l12.6-46c1-3.84,2.14-7.66,3.12-11.51l2.55-11.66,5.17-23.29q10.29-46.59,21-93.1l0,.18,6.12-41c2.1-13.67,4.14-27.35,6.3-41l0-.11v0l8.31-27.49,4.2-13.74Z"/><polygon class="cls-6" points="2979.99 2087.69 2977.16 2099.03 3005.49 2164.22 3046.59 2193.99 3050.84 2209.58 3066.43 2223.75 3185.45 2432.1 3202.46 2349.9 3233.66 2218.11 3164.22 2178.41 3036.67 2144.39 2979.99 2087.69"/><path class="cls-4" d="M2912.73,1660.39l1.71,18.4,1.65,18.41,1.63,18.4,1.56,18.42,0-.2,9.44,29.69c3.17,9.89,6.21,19.82,9.33,29.73l0,.08,0,.1,7.92,51c2.65,17,5.13,34,7.7,51l-.06-.26,11.95,32.63c4,10.87,7.88,21.79,11.82,32.68l0,.12v.12l3.24,35.46,3.08,35.48h0l-.22,12.75-.22-12.75v0l-4-35.38-3.83-35.4.06.24c-4.09-10.84-8.24-21.66-12.27-32.52l-12.12-32.56,0-.13,0-.13c-2.62-17-5.33-34-7.88-51l-7.65-51,0,.18c-3-9.93-6.12-19.84-9.09-29.79l-9-29.84,0-.1v-.1l-1.27-18.43-1.2-18.44-1.18-18.44Z"/><path class="cls-4" d="M2690.93,1707.84l6,17.33,5.87,17.36,11.72,34.72c3.92,11.57,7.72,23.17,11.59,34.76l11.5,34.79,0,.06,0,.11,6.25,26.17,6.18,26.18c4.09,17.46,8.26,34.91,12.27,52.38l-.58-1.15,31.24,36.8.37.43.17.54,19.74,63.1,19.53,63.16-.26-.56,26.56,42.75.15.25.07.24,8.51,29.87,4.24,14.93,4.18,15,8.35,29.91c2.81,10,5.51,20,8.24,30-3.18-9.86-6.37-19.71-9.47-29.58l-9.36-29.62-4.67-14.8-4.61-14.83-9.2-29.66.22.5-27.29-42.29-.16-.26-.1-.31-20.14-63-19.92-63,.54,1-31.11-36.9-.43-.51-.15-.65c-4-17.48-7.87-35-11.81-52.49l-5.86-26.26-5.79-26.27.05.17-10.82-35c-3.57-11.68-7.2-23.34-10.72-35L2701.42,1743l-5.29-17.54Z"/><path class="cls-6" d="M2910.6,1652.59l-85.75,56-59.53,56.69-12.75,9.91-20.65,60.91-42.41-128.23S2795.81,1651.16,2910.6,1652.59Z"/><path class="cls-4" d="M2729,1861.2a46.78,46.78,0,0,1,4.29-5.78q2.32-2.72,4.88-5.19t5.31-4.74a47.18,47.18,0,0,1,5.91-4.13,46.15,46.15,0,0,1-4.29,5.79q-2.33,2.71-4.88,5.19t-5.32,4.73A45.07,45.07,0,0,1,2729,1861.2Z"/><path class="cls-4" d="M2727.47,1867.66a45.74,45.74,0,0,1,5.38-4.8q2.82-2.19,5.82-4.09c2-1.28,4-2.47,6.17-3.56a44.79,44.79,0,0,1,6.61-2.85,45.75,45.75,0,0,1-5.37,4.8c-1.88,1.46-3.83,2.82-5.82,4.09s-4.06,2.46-6.17,3.55A46.53,46.53,0,0,1,2727.47,1867.66Z"/><path class="cls-4" d="M2955.2,1898.34a9.68,9.68,0,0,1,1.38-2.93,14.74,14.74,0,0,1,2-2.33,14.24,14.24,0,0,1,2.41-1.87,9.43,9.43,0,0,1,3-1.26,9.68,9.68,0,0,1-1.38,2.93,14.67,14.67,0,0,1-2,2.32,14.24,14.24,0,0,1-2.41,1.87A9.68,9.68,0,0,1,2955.2,1898.34Z"/><path class="cls-4" d="M2956.85,1900.46a3.87,3.87,0,0,1,1.45-1.2,3.69,3.69,0,0,1,1.46-.36,3.57,3.57,0,0,1,1.48.28,3.73,3.73,0,0,1,1.5,1.11,3.78,3.78,0,0,1-1.44,1.2,3.69,3.69,0,0,1-1.46.36,3.73,3.73,0,0,1-1.48-.28A4,4,0,0,1,2956.85,1900.46Z"/><path class="cls-4" d="M2955.26,1896.08a6.56,6.56,0,0,1-.43-2.56,9,9,0,0,1,.37-2.33,8.53,8.53,0,0,1,1-2.13,1.45,1.45,0,1,1,2.21.67,8.16,8.16,0,0,1-.37,2.32,8.9,8.9,0,0,1-1,2.13A6.59,6.59,0,0,1,2955.26,1896.08Z"/><circle class="cls-4" cx="2857.25" cy="1872.93" r="1.47"/><circle class="cls-4" cx="2855.03" cy="1883.42" r="1.47"/><circle class="cls-4" cx="2856.54" cy="1862.65" r="1.47"/><circle class="cls-4" cx="2863.92" cy="1873.21" r="0.74"/><circle class="cls-4" cx="2873.51" cy="1905.03" r="0.74"/><circle class="cls-4" cx="2847.95" cy="1909.02" r="2.95"/><polygon class="cls-6" points="2821.28 1992.72 2902.06 1948.79 2947.42 1921.87 2902.06 1964.38 2851.04 2002.64 2821.28 1992.72"/><polygon class="cls-6" points="3101.82 2021.04 3080.64 1904.88 3157.15 2033.86 3101.82 2021.04"/><path class="cls-4" d="M2893.51,2301.68l-.8-16.29-.73-16.29-1.34-32.58-1.19-32.59-1.06-32.59-.25-7.92,4.47,6.6,8.62,12.68-4.47,1.35-.24-36.85-.1-36.85,0-13.06,5.36,11.94c9.06,20.16,17.95,40.39,26.88,60.6l13.31,30.36,13.24,30.39,13.13,30.45,13,30.49c8.62,20.36,17.22,40.72,25.57,61.19-9.6-19.92-18.95-39.95-28.28-60l-13.91-30.1-13.79-30.15-13.68-30.19-13.61-30.23c-9-20.18-18.06-40.34-27-60.58l5.33-1.12-.11,36.84-.24,36.85-.06,8.11-4.41-6.76-8.39-12.83,4.22-1.33.35,32.61.22,32.61.08,32.6,0,16.31Z"/><path class="cls-4" d="M2919.75,2153.58c.79,6.24,1.51,12.49,2.22,18.74l2.13,18.74,2,18.76,1.95,18.76-.11-.41,8.61,18,8.54,18,8.49,18.08,8.43,18.1,0,.08,0,.07,6.58,20.6,6.48,20.63q3.22,10.32,6.37,20.67c2.09,6.9,4.21,13.79,6.24,20.71-2.46-6.78-4.83-13.59-7.22-20.39s-4.75-13.61-7.09-20.43l-7-20.47-6.88-20.5.06.15-8.56-18-8.52-18.06-8.46-18.09-8.39-18.13-.1-.2v-.21L2924,2210l-1.52-18.8-1.41-18.82C2920.61,2166.13,2920.15,2159.86,2919.75,2153.58Z"/><path class="cls-4" d="M2977.84,2261.3q-.81-12.39-1.41-24.79c-.42-8.26-.76-16.52-1.09-24.79s-.57-16.53-.87-24.79-.44-16.53-.67-24.8l-.31-11.6,5.31,10.4c3.78,7.38,7.41,14.84,11.12,22.26l5.53,11.14,5.45,11.18c3.62,7.46,7.3,14.89,10.86,22.38l10.7,22.46-4.38.53,3.08-12.7,1.37-5.65,2.53,5.15q3.42,7,6.76,14c2.23,4.67,4.5,9.33,6.69,14s4.43,9.36,6.58,14.08,4.32,9.42,6.45,14.14c-2.6-4.48-5.19-9-7.73-13.49s-5.06-9-7.58-13.56-5-9.08-7.49-13.61-5-9.09-7.4-13.66l3.9-.5-2.59,12.81-1.33,6.56-3.06-6L3007,2230.23c-3.76-7.39-7.4-14.84-11.1-22.26l-5.53-11.14-5.45-11.19c-3.61-7.46-7.3-14.89-10.85-22.38l5-1.2c0,8.26.08,16.53,0,24.8s-.05,16.54-.17,24.81-.2,16.54-.38,24.81S2978.15,2253,2977.84,2261.3Z"/><path class="cls-4" d="M3014,2236c-.5,3.82-1.08,7.62-1.69,11.42s-1.23,7.58-1.91,11.36-1.34,7.56-2.06,11.33-1.44,7.55-2.2,11.31l0-.66c1.35,4.47,2.61,9,3.88,13.47s2.48,9,3.7,13.52,2.37,9,3.49,13.58,2.21,9.09,3.18,13.67c-1.63-4.39-3.12-8.82-4.61-13.26s-2.9-8.89-4.3-13.34-2.78-8.93-4.09-13.41-2.66-9-3.92-13.46l-.09-.34.07-.33c.78-3.75,1.57-7.51,2.41-11.26s1.67-7.49,2.54-11.23,1.78-7.48,2.7-11.21S3013,2239.71,3014,2236Z"/><polygon class="cls-6" points="2944.12 2211.44 2948.8 2158.55 2977.14 2207.34 2977.29 2286.1 2944.12 2211.44"/><path class="cls-4" d="M3373.43,1753.67l119.07-6.08,119-6.17,119-6.34c39.68-2.14,79.36-4.27,119.08-6.15l-14.84,1.46-14.85,1.37c-9.89.9-19.79,1.84-29.69,2.68-19.81,1.63-39.62,3.29-59.44,4.68s-39.66,2.74-59.49,4c-9.92.66-19.84,1.19-29.76,1.76l-29.77,1.68c-19.85,1-39.7,2-59.56,2.82l-29.79,1.17-14.89.56-14.9.47c-19.87.66-39.74,1.13-59.61,1.52l-29.82.39-14.9.14Z"/><path class="cls-4" d="M3362.09,1525.5q59.05,2.52,118.08,4.43l29.52.93c9.84.31,19.68.64,29.52.87l29.52.85,29.52.71,29.52.7,14.77.33,14.76.27,29.53.61,29.53.48,29.53.48,29.54.45c9.84.23,19.69.26,29.54.43l14.77.23,14.78.31-14.77.55-14.77.48c-9.85.3-19.7.61-29.54.78-19.7.32-39.41.72-59.11.72-39.41.29-78.82-.32-118.22-1.15l-29.54-.85q-14.78-.46-29.54-1c-9.85-.36-19.69-.83-29.53-1.27l-14.76-.67-14.76-.81C3440.63,1532.17,3401.3,1529.52,3362.09,1525.5Z"/></g></svg>