<svg width="161" height="102" viewBox="0 0 161 102" fill="none" xmlns="http://www.w3.org/2000/svg">
<g clip-path="url(#clip0_9_115)">
<path d="M159.86 40.14L61.22 9.59998C61.22 9.59998 21.06 13.17 12.76 40.14H159.86Z" fill="white" stroke="#3B65EE" stroke-width="1.69" stroke-linecap="round" stroke-linejoin="round"/>
<path d="M61.22 9.59998C61.22 9.59998 54.76 -2.29002 45.76 1.63998C45.76 1.63998 20.47 2.70999 15.13 19.04C15.13 19.04 -1.41002 20.95 1.09998 37.71C1.09998 37.71 2.87998 55.03 15.05 52.5L12.76 40.14C12.76 40.14 18.79 14.18 61.22 9.59998Z" fill="white" stroke="#3B65EE" stroke-width="1.69" stroke-linecap="round" stroke-linejoin="round"/>
<path d="M10.48 38.32C8.00999 38.25 6.53999 37.55 4.23999 38.32C4.94999 35.4 9.37999 35.93 10.48 38.32Z" fill="#3B65EE"/>
<path d="M159.86 40.14L159.58 83.67L27.62 101.06C27.62 101.06 24.29 100.64 23.51 98.07C22.72 95.5 12.76 40.14 12.76 40.14H159.86Z" fill="white" stroke="#3B65EE" stroke-width="1.69" stroke-linecap="round" stroke-linejoin="round"/>
<path d="M159.82 46.37L15.05 52.5L12.76 40.14H159.86L159.82 46.37Z" fill="white" stroke="#3B65EE" stroke-width="1.69" stroke-linecap="round" stroke-linejoin="round"/>
<path opacity="0.2" d="M159.86 40.14L159.58 83.67L27.62 101.06C27.62 101.06 24.29 100.64 23.51 98.07C22.72 95.5 12.76 40.14 12.76 40.14H159.86Z" fill="#3B65EE"/>
<path opacity="0.2" d="M57.85 5.10001C57.85 5.10001 50.72 2.66001 48.95 5.10001C47.18 7.54001 21.32 9.79001 18.51 20.47C18.51 20.47 8.02 27.39 7.36 37.14C7.36 37.14 0.750002 37.09 2.32 43.11C3.89 49.13 9.9 54.19 15.05 52.51L12.76 40.15C12.76 40.15 14.01 17.53 57.85 10.01L61.22 9.61001C61.22 9.61001 57.85 4.92001 57.85 5.11001V5.10001Z" fill="#3B65EE"/>
<path d="M127.26 67.12C128.039 67.12 128.67 66.4887 128.67 65.71C128.67 64.9313 128.039 64.3 127.26 64.3C126.481 64.3 125.85 64.9313 125.85 65.71C125.85 66.4887 126.481 67.12 127.26 67.12Z" fill="#3B65EE"/>
<path d="M94.0999 60.38C94.8787 60.38 95.5099 59.7487 95.5099 58.97C95.5099 58.1913 94.8787 57.56 94.0999 57.56C93.3212 57.56 92.6899 58.1913 92.6899 58.97C92.6899 59.7487 93.3212 60.38 94.0999 60.38Z" fill="#3B65EE"/>
<path d="M107.03 74.43C107.809 74.43 108.44 73.7987 108.44 73.02C108.44 72.2413 107.809 71.61 107.03 71.61C106.251 71.61 105.62 72.2413 105.62 73.02C105.62 73.7987 106.251 74.43 107.03 74.43Z" fill="#3B65EE"/>
<path d="M75.71 17.1C77.49 17.41 83.97 18.85 82.36 23.48C82.27 23.75 82.49 24.03 82.83 24.01C84.99 23.88 91.32 23.87 90.4 28.56C90.38 28.68 90.29 28.79 90.16 28.85C88.4 29.67 75.04 35.34 52.24 29.99C52.07 29.95 51.94 29.84 51.9 29.69C51.57 28.25 50.29 20.81 59.88 21.69C60.06 21.71 60.24 21.64 60.33 21.51C60.87 20.73 63.01 18.03 67.39 17.03C70.88 16.23 69.47 14.9 68.21 14.12C67.86 13.9 68.02 13.42 68.45 13.4C70.96 13.29 75.91 13.46 75.36 16.63C75.32 16.84 75.46 17.05 75.71 17.09V17.1Z" fill="white" stroke="#3B65EE" stroke-width="1.12" stroke-miterlimit="10"/>
<path d="M76.64 24.07C76.64 24.07 69.78 24.07 65.67 22.9Z" fill="white"/>
<path d="M76.64 24.07C73.04 25.05 68.91 24.84 65.67 22.9C69.4 22.79 73.06 22.97 76.64 24.07Z" fill="#3B65EE"/>
<path opacity="0.2" d="M85.48 30.48C85.48 30.48 86.92 27 78.69 27C70.46 27 78.69 22.31 74.58 21.14C70.47 19.97 66.64 21.14 65.12 24.07C63.6 27 62.23 24.66 59.49 25.83C56.75 27 54.72 27.47 55.73 30.75C55.73 30.75 77.17 33.95 85.47 30.48H85.48Z" fill="#3B65EE"/>
</g>
<defs>
<clipPath id="clip0_9_115">
<rect width="160.7" height="101.9" fill="white"/>
</clipPath>
</defs>
</svg>
