<?xml version="1.0" encoding="UTF-8"?>
<svg id="Layer_2" xmlns="http://www.w3.org/2000/svg" viewBox="0 0 232.37 205.53">
  <defs>
    <style>
      .cls-1, .cls-2, .cls-3, .cls-4, .cls-5, .cls-6, .cls-7 {
        stroke: #3b65ee;
      }

      .cls-1, .cls-2, .cls-5 {
        fill: none;
      }

      .cls-1, .cls-3, .cls-7 {
        stroke-width: 3px;
      }

      .cls-1, .cls-4, .cls-5, .cls-7 {
        stroke-miterlimit: 10;
      }

      .cls-2 {
        stroke-width: 2px;
      }

      .cls-2, .cls-3, .cls-6 {
        stroke-linecap: round;
        stroke-linejoin: round;
      }

      .cls-3, .cls-8, .cls-9 {
        fill: #3b65ee;
      }

      .cls-4, .cls-5, .cls-6 {
        stroke-width: 1.04px;
      }

      .cls-4, .cls-6, .cls-7 {
        fill: #fff;
      }

      .cls-9 {
        opacity: .2;
      }

      .cls-10 {
        opacity: .5;
      }
    </style>
  </defs>
  <g id="Layer_3">
    <g>
      <path class="cls-9" d="M139.17,181.75l2.32-3.7c2.32-3.7.02-6.75-2.95-7.77-2.97-1.03-8.92,4.9-8.92,4.9.34.53.39,1.8.31,3.24-.05-2.39-.47-4.77-1.3-6.5-1.69-3.48-9.44-4.5-15.58-3.25.73-2.3-.57-4.58-2.51-5.88-2.62-1.76-9.85,2.42-9.85,2.42.2.6-.07,1.84-.51,3.22.54-2.32.74-4.74.36-6.62-.8-3.95-8.59-7.03-14.99-7.22.24-.42.68-1.18,1.5-2.59,1.79-3.08-.18-5.5-2.62-6.24-2.45-.75-7.12,4.25-7.12,4.25.29.42.37,1.46.34,2.63-.11-1.94-.52-3.87-1.24-5.25-1.72-3.24-10.07-3.53-15.12-1.44-3,1.24-3.28,5.06-3.29,6.3-.06-.52-.08-.89-.04-.97,0,0-8.66-9.9-12.56-5.65-3.9,4.25,1.08,8.49,2.95,8.16,0,0-3.08.98-3.9,3.17-2.47-3.36-5.77-6.38-8.9-4.54-6.06,3.58-1.67,10.37.65,10.65,0,0-2.44.02-4.32,1.12-3.76-1.74-8.1-2.78-9.97.39-1.23,2.09-1.22,3.91-.59,5.36-3.61,1.45-4.12,6.02-4.18,7.53-.05-.64-.06-1.1,0-1.19,0,0-10.2-12.53-15.17-7.49-4.97,5.04.96,10.47,3.27,10.14,0,0-7.27,1.99-4.65,7.4s11.61,2.63,17.22-3.19c0,0,0-.01,0-.01.73,2.87,2.17,4.86,5.16,5.95,2.27.83,5.92.94,9.26.51.19.45.47.92.87,1.4,2.61,3.12,7.16,1.84,11.08-1.52,4.18,2.54,9.91,1.67,10.8-1.39,0-.02,0-.05.01-.07.15.02.3.05.46.06,4.19.41,11.94-2.33,14.69-5.11.48,1.63,1.45,3.02,3.15,4.2,3.98,2.78,14.02,4.23,16.62,2.14.37-.3.74-.72,1.09-1.22.09.02.18.04.27.07,1.18,7.55,11.04,10.06,13.24,6.36,1.85-3.12-1.33-5.79-2.48-6.62.43-.36.85-.87,1.25-1.48,0,.01-.02.04-.02.04.92,7.82,11.08,10.46,13.31,6.7.81-1.37.65-2.65.12-3.73,4.69.08,10.18-1.07,11.59-2.99.35-.47.64-1.1.88-1.83,0,.01,0,.04,0,.04,2.83,7.33,13.31,7.25,14.53,3.03,1.22-4.22-4.49-5.92-4.49-5.92ZM77.91,159.05c-.36.74-.59,1.4-.72,1.82.11-.63.21-1.08.29-1.15,0,0-.22-.47-.6-1.22.1-.24.2-.5.29-.79,0,.01,0,.03,0,.03.21.48.47.91.74,1.31ZM58.69,156.86s0,0,0-.01c.14.49.31.95.51,1.37-.32-.29-.68-.54-1.11-.73.2-.2.41-.41.6-.62Z"/>
      <g>
        <path class="cls-4" d="M45.13,170.92s.02-6.23,4.51-7.73c6.3-2.1,16.43-1.12,18.27,2.87s1.28,11.52-.77,14.08-12.07,3.46-16.53,1.73-5.33-5.37-5.48-10.95Z"/>
        <path class="cls-6" d="M45.18,169.29s-9.77-12.44-14.84-7.68.66,10.19,2.97,9.93c0,0-7.27,1.74-4.81,7.06s11.45,2.87,17.17-2.63c0,0-.71-6.32-.47-6.68Z"/>
        <path class="cls-6" d="M68.8,169.25s6.07-5.59,8.99-4.51,5.12,4.1,2.71,7.63l-2.41,3.53s5.62,1.8,4.29,5.87-11.72,3.86-14.33-3.33c0,0,1.69-7.63.75-9.18Z"/>
        <ellipse class="cls-8" cx="60.05" cy="170.24" rx=".94" ry=".93" transform="translate(-120.45 167.69) rotate(-69.76)"/>
        <ellipse class="cls-8" cx="57.43" cy="169.27" rx=".94" ry=".93" transform="translate(-121.26 164.59) rotate(-69.76)"/>
        <path class="cls-8" d="M61.21,173.26c.19.11.26.36.13.54-1.15,1.63-3.37,2.16-5.13,1.15s-2.45-3.17-1.65-5c.09-.2.34-.27.53-.16l6.12,3.47Z"/>
        <path class="cls-5" d="M50.01,163.08s2.64,11.9,1.54,19.14"/>
        <path class="cls-5" d="M64.15,163.22s2.34,9.39-.79,18.79"/>
        <path class="cls-8" d="M32.33,171.18s2.66-1.23,5.58-.15c0,0-4.81,1.07-6.04,1.41l.46-1.25Z"/>
        <path class="cls-8" d="M78.01,175.12s-3.16,1.7-4.44,2c0,0,1.31.68,5.11-.65l-.68-1.35Z"/>
        <path class="cls-9" d="M44.67,170.39s-8.35-8.51-11.1-6.63-.43,5.75.88,6.87l1.98.4s-3.84,1.88-3.24,5.33,9.97,1.43,12.21-.76l-.73-5.21Z"/>
        <path class="cls-9" d="M45.46,168.46c.05-.32,2.48-4.88,12.21-4.8,0,0,6.27,5.25,2.8,18.88,0,0-9.85,1.67-13.63-3.6,0,0-2.06-5.72-1.38-10.48Z"/>
        <path class="cls-9" d="M69.02,174.92s4.57-4.18,6.51-3.1,2.79,2.57,1.13,4.39-5.8,1.3-5.8,1.3c0,0,12.35,1.68,8.33,6.69,0,0-8.08,1.42-11.12-5.77l.96-3.51Z"/>
        <path class="cls-8" d="M49.01,173.92s10.22,4.55,17.03,5.11c0,0-11.39-.3-17.03-5.11Z"/>
        <path class="cls-8" d="M44.86,171.73s-1.3-1.58-3.8-1.91,3.8,1.91,3.8,1.91Z"/>
        <path class="cls-8" d="M45.08,171.64s-2.01-.35-4.13,1.02,4.13-1.02,4.13-1.02Z"/>
        <path class="cls-8" d="M68.84,174.84s1.85.86,4.25.07-4.25-.07-4.25-.07Z"/>
        <path class="cls-8" d="M68.67,175.03s1.97-.56,3.28-2.71-3.28,2.71-3.28,2.71Z"/>
      </g>
      <g>
        <path class="cls-4" d="M28.99,190.62s-2.14-5.86,1.55-8.81c5.18-4.15,15.03-6.74,18.14-3.63,3.11,3.11,5.18,10.37,4.15,13.47s-10.13,7.42-14.91,7.34-6.86-3.19-8.93-8.37Z"/>
        <path class="cls-6" d="M28.47,189.06s-13.47-8.29-16.58-2.07c-3.11,6.22,4.15,9.33,6.22,8.29,0,0-6.22,4.15-2.07,8.29s11.73-1.27,15.19-8.41c0,0-2.85-5.68-2.76-6.1Z"/>
        <path class="cls-6" d="M50.62,180.86s3.76-7.34,6.87-7.34,6.22,2.07,5.18,6.22l-1.04,4.15s5.9-.25,6.06,4.02-9.66,7.68-14.6,1.83c0,0-1.05-7.75-2.47-8.87Z"/>
        <ellipse class="cls-8" cx="42.75" cy="184.81" rx=".93" ry=".94"/>
        <ellipse class="cls-8" cx="39.95" cy="184.81" rx=".93" ry=".94"/>
        <path class="cls-8" d="M44.88,187.24c.22.04.37.25.31.46-.52,1.93-2.41,3.19-4.41,2.86-2-.33-3.4-2.13-3.28-4.12.01-.22.23-.37.44-.34l6.94,1.14Z"/>
        <path class="cls-5" d="M30.85,181.56s6.6,10.25,8.06,17.43"/>
        <path class="cls-5" d="M44.17,176.81s5.45,8,5.75,17.9"/>
        <path class="cls-8" d="M17.07,195.28s2.07-2.07,5.18-2.07c0,0-4.15,2.67-5.18,3.41v-1.34Z"/>
        <path class="cls-8" d="M61.29,183.18s-2.37,2.68-3.47,3.41c0,0,1.46.18,4.57-2.38l-1.1-1.04Z"/>
        <path class="cls-9" d="M28.37,190.28s-10.78-5.1-12.71-2.38,1.58,5.54,3.21,6.14l1.99-.31s-2.95,3.09-1.2,6.12,9.85-2.11,11.2-4.94l-2.48-4.63Z"/>
        <path class="cls-9" d="M28.45,188.19c-.07-.32.64-5.44,9.79-8.73,0,0,7.7,2.76,9.16,16.75,0,0-8.66,4.97-14.03,1.34,0,0-3.91-4.65-4.92-9.36Z"/>
        <path class="cls-9" d="M52.78,186.1s2.84-5.5,5.03-5.16,3.51,1.45,2.58,3.73-4.99,3.22-4.99,3.22c0,0,12.16-2.7,10.13,3.4,0,0-7.09,4.13-12.43-1.57l-.31-3.63Z"/>
        <path class="cls-8" d="M33.67,192.08s11.16.73,17.75-1.1c0,0-10.79,3.66-17.75,1.1Z"/>
        <path class="cls-8" d="M29.01,191.47s-1.76-1.03-4.22-.48,4.22.48,4.22.48Z"/>
        <path class="cls-8" d="M29.19,191.3s-2.01.36-3.52,2.38,3.52-2.38,3.52-2.38Z"/>
        <path class="cls-8" d="M52.59,186.09s2.04.16,4.01-1.4-4.01,1.4-4.01,1.4Z"/>
        <path class="cls-8" d="M52.49,186.32s1.65-1.2,2.14-3.68-2.14,3.68-2.14,3.68Z"/>
      </g>
      <g>
        <path class="cls-4" d="M214.19,186.07s1.34-6.09-2.71-8.53c-5.69-3.42-15.79-4.68-18.46-1.18s-3.76,10.96-2.32,13.91c1.44,2.94,11.02,6,15.75,5.29s6.37-4.07,7.74-9.49Z"/>
        <path class="cls-6" d="M214.5,184.46s12.25-10.01,16.16-4.26c3.91,5.75-2.87,9.8-5.06,9.05,0,0,6.72,3.28,3.16,7.94s-11.8.3-16.18-6.31c0,0,2.07-6.01,1.92-6.41Z"/>
        <path class="cls-6" d="M191.45,179.28s-4.7-6.78-7.79-6.36-5.89,2.88-4.31,6.85l1.58,3.97s-5.88.53-5.47,4.79,10.6,6.32,14.71-.13c0,0,.01-7.82,1.27-9.12Z"/>
        <ellipse class="cls-8" cx="199.77" cy="182.15" rx=".93" ry=".94" transform="translate(-22.46 28.2) rotate(-7.65)"/>
        <ellipse class="cls-8" cx="202.55" cy="181.78" rx=".93" ry=".94" transform="translate(-22.39 28.57) rotate(-7.65)"/>
        <path class="cls-8" d="M197.98,184.85c-.21.06-.33.3-.25.5.77,1.84,2.81,2.84,4.75,2.25s3.09-2.56,2.7-4.52c-.04-.22-.27-.34-.48-.28l-6.73,2.05Z"/>
        <path class="cls-5" d="M211.13,177.35s-5.17,11.04-5.67,18.34"/>
        <path class="cls-5" d="M197.3,174.41s-4.33,8.66-3.32,18.51"/>
        <path class="cls-8" d="M226.62,189.11s-2.33-1.78-5.41-1.36c0,0,4.46,2.1,5.59,2.69l-.18-1.32Z"/>
        <path class="cls-8" d="M181.19,183s2.71,2.34,3.89,2.92c0,0-1.43.38-4.85-1.75l.95-1.17Z"/>
        <path class="cls-9" d="M214.75,185.65s10-6.49,12.28-4.05-.83,5.7-2.36,6.52l-2.02-.04s3.34,2.67,2.01,5.9-10.04-.78-11.75-3.4l1.84-4.92Z"/>
        <path class="cls-9" d="M214.4,183.6c.03-.33-1.36-5.3-10.87-7.35,0,0-7.27,3.76-6.85,17.82,0,0,9.25,3.78,14.09-.54,0,0,3.26-5.13,3.63-9.93Z"/>
        <path class="cls-9" d="M190,184.76s-3.54-5.08-5.67-4.44-3.29,1.9-2.06,4.04,5.38,2.53,5.38,2.53c0,0-12.42-1.06-9.58,4.71,0,0,7.58,3.15,12.11-3.21l-.17-3.64Z"/>
        <path class="cls-8" d="M209.75,188.15s-10.96,2.21-17.73,1.27c0,0,11.19,2.19,17.73-1.27Z"/>
        <path class="cls-8" d="M214.28,186.92s1.61-1.26,4.12-1.04-4.12,1.04-4.12,1.04Z"/>
        <path class="cls-8" d="M214.08,186.78s2.04.09,3.81,1.89-3.81-1.89-3.81-1.89Z"/>
        <path class="cls-8" d="M190.2,184.73s-2,.43-4.16-.86,4.16.86,4.16.86Z"/>
        <path class="cls-8" d="M190.32,184.94s-1.8-.97-2.61-3.36,2.61,3.36,2.61,3.36Z"/>
      </g>
      <ellipse class="cls-9" cx="116.36" cy="200.01" rx="62" ry="4"/>
      <path class="cls-7" d="M46.23,88.01c-.27-1.09-.05-2.25.64-3.14,2.88-3.68,13.41-13.02,49.98-22.36,47-12,67-4,68-2s12.48,93.85,12.98,97.86c.01.11.02.21.03.33.09,2.43.07,27.4-37.01,38.81-39,12-66-7-66-7,0,0-3-2-4-5-.93-2.78-21.58-85.32-24.63-97.5Z"/>
      <path class="cls-1" d="M164.86,60.51s8.22,9.95-54,24c0,0-53.25,11.99-64.63,3.5"/>
      <path class="cls-1" d="M48.98,99s23.88,7.52,66.88-4.48,50.88-21.97,50.88-21.97"/>
      <polygon class="cls-3" points="82.86 139.51 89.86 108.51 112.86 129.51 95.86 127.51 82.86 139.51"/>
      <polygon class="cls-3" points="136.86 122.51 143.86 94.51 160.86 116.51 146.86 113.51 136.86 122.51"/>
      <polygon class="cls-3" points="124.08 128.77 121.86 143.51 136.22 139.51 124.08 128.77"/>
      <path class="cls-2" d="M73.87,91.4s1.99,7.11,2.99,9.11"/>
      <line class="cls-2" x1="113.66" y1="83.83" x2="115.86" y2="93.51"/>
      <path class="cls-2" d="M143.31,75.21s1.79,6.5,2.17,9.4"/>
      <path class="cls-8" d="M50.11,89.51s6.44-11.09,49.75-23c40-11,63.79-2.28,63.79-2.28,0,0-9.29,9.78-51.78,19.06-38.21,8.34-57.51,8.22-61.76,6.22Z"/>
      <path class="cls-9" d="M47.36,89.01s9.19-12.59,52.5-24.5c40-11,65.5-1.5,65.5-1.5,0,0-11,9-53.49,18.28-38.21,8.34-60.26,9.72-64.51,7.72Z"/>
      <path class="cls-8" d="M78.86,106.51c4.95,19.46,10.54,42.46,16.55,61.42,2.57,8.04,5.27,16.1,8.98,23.69,1.41,2.81,2.95,5.63,5.13,7.92.72.76,1.53,1.46,2.48,1.95-1.99-.82-3.55-2.42-4.89-4.07-3.98-5.05-6.64-11-9.09-16.89-3.22-7.9-5.81-16.03-8.18-24.21-4.62-16.37-8.36-32.99-10.98-49.8h0Z"/>
      <path class="cls-8" d="M116.86,98.51c6.87,29.76,13.78,63.01,19.37,93.06-6.86-29.79-13.79-63.02-19.37-93.06h0Z"/>
      <path class="cls-8" d="M152.44,120c2.52,11.53,4.28,23.2,5.58,34.93.96,11.68,2.32,23.74-.46,35.27.17-1.33.54-3.06.64-4.37.36-4.05.37-9.13.18-13.21-.81-17.65-3.4-35.15-5.94-52.62h0Z"/>
      <path class="cls-9" d="M53.36,100.01l20.51,85.77s2.16,5.74,7.82,8.49,27.57,10.26,52.62,5l-24.78-103.09s-36.17,8.84-56.17,3.84Z"/>
      <path class="cls-8" d="M75.83,155.14c1.46-2.72,5.24-3.98,8.02-2.63-2.96.14-5.52.97-8.02,2.63h0Z"/>
      <path class="cls-8" d="M159.6,133.76c2.26-2.1,6.25-2.06,8.44.12-2.84-.83-5.53-.88-8.44-.12h0Z"/>
      <path class="cls-3" d="M162.86,137.51s-1.86,1.86-8.16,4.88c.1.31.16.65.16,1v10.64c0,1.47-.97,2.75-2.38,3.15l-8.4,2.39c-1.86.53-3.78-.66-4.12-2.57l-1.5-8.21c-2.6.87-5.45,1.78-8.6,2.71-3.63,1.08-7.13,1.96-10.48,2.7l1.15,10.31c.19,1.69-.95,3.25-2.63,3.58l-9.86,1.95c-1.47.29-2.96-.46-3.6-1.82l-4.83-10.23c-.12-.26-.2-.53-.25-.81-10.23.78-16.49.08-16.49.08,1,9.75,12,25.25,23,26.25,4.27.39,11.3.41,19-1,0,0,0-1-.64-2.21l-.85-4.87c-.29-1.66.73-3.27,2.35-3.72l12.46-3.46c1.54-.43,3.17.32,3.85,1.77l2.56,5.48c.17.35.24.72.27,1.08,4.94-1.79,9.2-3.85,11.99-6.08,10-8,6-33,6-33Z"/>
      <path class="cls-9" d="M48.36,92.01s6.03,4,30.01,1.5,35.99-6.58,35.99-6.58l1.99,8.08s-45.5,11.96-66.25,4.98l-1.75-7.98Z"/>
      <g>
        <path class="cls-4" d="M85.53,59.05s.46-6.22,5.04-7.39c6.43-1.65,16.47.05,18.02,4.16s.46,11.58-1.77,13.99-12.28,2.59-16.61.55-4.93-5.73-4.69-11.31Z"/>
        <path class="cls-6" d="M85.7,57.42s-8.87-13.1-14.26-8.72-.06,10.21,2.25,10.12c0,0-7.37,1.22-5.3,6.7s11.21,3.67,17.31-1.41c0,0-.26-6.35,0-6.7Z"/>
        <path class="cls-6" d="M109.26,59.06s6.45-5.14,9.28-3.86,4.81,4.45,2.16,7.8l-2.65,3.35s5.48,2.2,3.87,6.16-11.97,3.02-14.06-4.34c0,0,2.23-7.49,1.4-9.1Z"/>
        <ellipse class="cls-8" cx="100.47" cy="59.43" rx=".94" ry=".93" transform="translate(4.95 126.53) rotate(-65.69)"/>
        <ellipse class="cls-8" cx="97.91" cy="58.27" rx=".94" ry=".93" transform="translate(4.5 123.52) rotate(-65.69)"/>
        <path class="cls-8" d="M101.41,62.52c.18.12.23.38.09.55-1.26,1.54-3.51,1.91-5.2.79-1.69-1.12-2.22-3.34-1.29-5.11.1-.19.36-.25.54-.13l5.85,3.89Z"/>
        <path class="cls-5" d="M90.96,51.57s1.79,12.06.18,19.2"/>
        <path class="cls-5" d="M105.05,52.71s1.67,9.54-2.12,18.68"/>
        <path class="cls-8" d="M72.75,58.39s2.74-1.04,5.58.24c0,0-4.88.73-6.13.97l.55-1.22Z"/>
        <path class="cls-8" d="M118.03,65.57s-3.27,1.47-4.57,1.68c0,0,1.26.77,5.15-.28l-.58-1.4Z"/>
        <path class="cls-9" d="M85.11,58.49s-7.72-9.08-10.61-7.4-.84,5.7.4,6.92l1.94.54s-3.96,1.6-3.61,5.08,9.84,2.13,12.24.11l-.35-5.25Z"/>
        <path class="cls-9" d="M86.04,56.61c.07-.32,2.82-4.69,12.52-3.93,0,0,5.89,5.68,1.45,19.03,0,0-9.94.97-13.34-4.56,0,0-1.65-5.85-.63-10.55Z"/>
        <path class="cls-9" d="M109.08,64.73s4.85-3.85,6.71-2.63,2.6,2.76.81,4.46-5.88.88-5.88.88c0,0,12.2,2.55,7.83,7.26,0,0-8.16.84-10.68-6.54l1.21-3.43Z"/>
        <path class="cls-8" d="M89.19,62.31s9.87,5.26,16.63,6.3c0,0-11.34-1.11-16.63-6.3Z"/>
        <path class="cls-8" d="M85.2,59.83s-1.18-1.67-3.65-2.18,3.65,2.18,3.65,2.18Z"/>
        <path class="cls-8" d="M85.43,59.76s-1.98-.5-4.19.72,4.19-.72,4.19-.72Z"/>
        <path class="cls-8" d="M108.9,64.64s1.79.99,4.24.37-4.24-.37-4.24-.37Z"/>
        <path class="cls-8" d="M108.72,64.81s2-.41,3.46-2.47-3.46,2.47-3.46,2.47Z"/>
      </g>
      <g class="cls-10">
        <path class="cls-8" d="M51.52,97.04c-3.25,1.06-6.76-.75-7.63-3.94-3.41-12.64-9.4-43.04,3.98-65.95,7.59-13,20.1-21.47,37.19-25.18,19.07-4.14,35.57-1.73,49.03,7.16,24.6,16.25,29.22,47.49,29.42,48.84l-11.87-2.66c-.62-4.99-3.98-23.46-24.31-36.84-10.63-7-23.98-8.82-39.68-5.41-13.66,2.97-23.57,9.57-29.45,19.62-11.24,19.2-5.8,46.41-2.83,57.56.77,2.88-.91,5.85-3.85,6.8h0Z"/>
      </g>
    </g>
  </g>
</svg>