<?xml version="1.0" encoding="UTF-8"?><svg id="Finals" xmlns="http://www.w3.org/2000/svg" viewBox="0 0 300 300"><defs><style>.cls-1{fill:#fff;}.cls-2{fill:#c8d4fa;}.cls-3{fill:#3b66ef;}</style></defs><path class="cls-1" d="m82.29,103.07c-5.13,8.66-7.87,18-12.09,27.01-2.88,6.16-11.73,18.42-11.24,25.3.42,5.98,5.04,5.44,9.28,7.63,4.45,2.3,4.67,3.18,7.48,8.17,2.49,4.43,3.33,6.62,8.04,7.89,3.69.99,8.38-2.18,9.57,2.55s-7.77,7.57-1.58,12.81c5.01,4.24,10.09-1.65,13.83-4.34-.14,3.24-.39,10.36,1.58,13.08,4.1,5.66,9.96.68,14.59-3.83-2.24,5.75-7.11,15.43,2.58,16.29,7.5.67,13.28-8.33,16.46-13.89,2.29,2.23,2.98,7.61,5.81,10.96,3.2,3.79,6.7,4.66,10.83,6.71,2.84,1.42,5.4,4.53,9.11,3.4,4.29-1.31,4.47-7.22,8.22-9.14s7.04.61,10.95-2.07c4.82-3.3,3.07-7.25,6.97-10.47,4.88-4.04,20.12-3.78,15.41-14.1,10.23-.17,19.35-4.29,14.82-16.63,8.2.53,14.68-3.61,13.54-11.42-.98-6.72-3.54-14.3-5.6-20.83-4.68-14.85-20.04-29.06-19.28-45.25-13.1,8.07-24.41,2.07-37.18-3.27-5.08-2.12-11.04-6.36-16.65-6.47-6.62-.13-14.37,5.99-19.82,10.19,1.02-11.15-35.88-3.26-43.15-1.81-14.15,2.83-14.16,15.33-19.77,26.15"/><path class="cls-1" d="m77.97,100.55c-4.94,8.63-7.76,18.11-12.09,27.01-2.76,5.68-6.4,10.89-9.01,16.66-2.37,5.24-4.56,11.74-1.2,17.1,3.1,4.95,9.41,4.1,13.11,8.01,4,4.22,4.51,10.15,10.04,13.19,2.91,1.6,5.91,1.84,9.13,1.58.66-.09,1.33-.14,2-.15l-1.52-1.41c-.15,0-1.35,1.81-1.56,2.15-3.27,5.02-2.8,10.45,2.34,14.08,7.03,4.96,13.21-.03,18.87-4.34l-7.52-4.32c-.26,6.32-.59,14.3,5.03,18.52,7,5.25,14.54-.81,19.67-5.74l-8.36-4.86c-2.88,7.27-6.77,18.71,3.68,21.96,11.36,3.54,19.52-7.14,24.49-15.71l-7.85,1.01c1.48,1.75,1.97,4.49,2.96,6.53,1.22,2.54,2.88,4.75,5.03,6.58,3.81,3.25,9.01,5.22,13.35,7.68s9.59,2.8,13.46-.83c1.8-1.68,2.55-3.86,3.98-5.77,1.74-2.32,4.17-1.33,6.83-1.67,5.69-.73,9.13-4.6,11.28-9.58,1.71-3.95,3.76-4.25,7.67-5.62,7.68-2.7,14.77-7.77,11.09-16.89l-4.82,6.33c5.87-.19,12.45-1.23,16.83-5.53,4.8-4.72,4.82-11.4,2.81-17.42l-4.82,6.33c7.14.23,15.03-2.33,17.73-9.61,2.96-7.98-1.57-18.26-3.98-25.89-2.57-8.12-6.44-15.21-10.82-22.47s-9.42-15.41-9.25-24.53c.07-3.83-4.29-6.18-7.52-4.32-13.19,7.58-27.32-1.06-39.49-6.89-5.54-2.66-11.1-4.48-17.23-2.75s-11.79,6.12-16.94,10.08l7.52,4.32c.56-16.25-28.82-10.29-37.64-8.85-6.86,1.12-14.84,1.87-20.64,5.96-8.27,5.84-9.72,16.2-13.97,24.7-2.87,5.74,5.76,10.81,8.63,5.05,3.16-6.33,4.43-14.75,9.31-20.04,3.74-4.06,10.45-4.46,15.63-5.39,6.2-1.12,12.46-2.05,18.76-2.26,2.62-.09,5.35-.16,7.93.38.95.2,1.75.45,2.44.86-.49-.29-.42-1.55-.46-.41-.12,3.47,4.48,6.66,7.52,4.32,4.61-3.55,10.51-9.09,16.61-9.46,3.71-.23,7.29,2.06,10.48,3.66,2.97,1.49,5.99,2.79,9.05,4.09,12.7,5.37,24.81,8.56,37.5,1.26l-7.52-4.32c-.27,14.74,9.31,26.33,15.95,38.66,3.48,6.47,5.52,13.64,7.39,20.72.72,2.75,2.59,7.28,1.4,10.09-1.31,3.07-5.64,3.12-8.4,3.03-3.13-.1-5.83,3.29-4.82,6.33.93,2.81,1.92,6-.73,8.1-2.46,1.94-6.3,2.1-9.27,2.2s-6.09,3.17-4.82,6.33c1.07,2.65.97,2.51-1.81,3.76-2.61,1.17-5.44,1.79-8.07,2.93-2.99,1.3-5.45,3.19-7.07,6.09-.82,1.47-1.08,3.46-2.04,4.83-1.77,2.52-4.17,1.75-6.81,1.95-4.01.3-7.21,2.2-9.46,5.51-.7,1.02-1.54,3.85-2.65,4.31-1.38.56-3.07-1.28-4.36-2.04-3.84-2.27-8.66-3.18-11.22-7.15-2.17-3.37-2.81-7.21-5.46-10.34-2.11-2.49-6.34-1.59-7.85,1.01-1.94,3.35-6.95,12.91-12.1,11.41-1.54-.45-.86-1.38-.28-3.37.66-2.25,1.62-4.41,2.48-6.59,1.94-4.9-5.03-8.05-8.36-4.86-1.48,1.42-2.95,2.92-4.71,4q-1.85,1.13-2.62-.69c-1.05-2.48-.41-6.38-.3-9.02.14-3.49-4.48-6.63-7.52-4.32-2.29,1.74-4.41,3.7-7,4.96-.66.4-1.21.17-1.65-.67-.08,1.34.12,1.47.59.38.41-.79,1.11-1.43,1.58-2.19,2.3-3.7,2.66-8.74-.68-12.03-3.94-3.89-8.94-.03-12.74-2.73-3.51-2.49-4.42-8.41-7.57-11.52-1.65-1.63-3.77-2.82-5.87-3.77-1.22-.55-4.76-1.06-5.55-2.2-2.03-2.95,3.49-11.07,4.83-13.44,2.79-4.97,5.56-9.78,7.78-15.05,3.13-7.4,5.84-14.92,9.85-21.92,3.2-5.59-5.43-10.64-8.63-5.05h0Z"/><rect class="cls-2" x="229.46" y="77.31" width="36" height="92.26" transform="translate(-28.86 112.56) rotate(-24.26)"/><path class="cls-3" d="m280.27,153.73c-10.94,4.93-21.88,9.86-32.82,14.79l6.93,1.82c-11.03-24.48-22.06-48.95-33.09-73.43-1.6-3.56-3.21-7.12-4.81-10.69l-1.82,6.93c10.94-4.93,21.88-9.86,32.82-14.79l-6.93-1.82c11.03,24.48,22.06,48.95,33.09,73.43,1.6,3.56,3.21,7.12,4.81,10.69,2.67,5.93,11.4.79,8.74-5.11-11.03-24.48-22.06-48.95-33.09-73.43-1.6-3.56-3.21-7.12-4.81-10.69-1.2-2.67-4.66-2.84-6.93-1.82-10.94,4.93-21.88,9.86-32.82,14.79-2.67,1.2-2.84,4.66-1.82,6.93,11.03,24.48,22.06,48.95,33.09,73.43,1.6,3.56,3.21,7.12,4.81,10.69,1.2,2.67,4.66,2.84,6.93,1.82,10.94-4.93,21.88-9.86,32.82-14.79,5.93-2.67.79-11.4-5.11-8.74Z"/><path class="cls-3" d="m258.62,153.16c6.43,0,6.45-10,0-10s-6.45,10,0,10h0Z"/><rect class="cls-2" x="34.33" y="77.31" width="36" height="92.26" transform="translate(49.33 257.48) rotate(-155.74)"/><path class="cls-3" d="m14.41,162.47c10.94,4.93,21.88,9.86,32.82,14.79,2.28,1.03,5.71.88,6.93-1.82,11.03-24.48,22.06-48.95,33.09-73.43,1.6-3.56,3.21-7.12,4.81-10.69,1.03-2.28.88-5.71-1.82-6.93-10.94-4.93-21.88-9.86-32.82-14.79-2.28-1.03-5.71-.88-6.93,1.82-11.03,24.48-22.06,48.95-33.09,73.43-1.6,3.56-3.21,7.12-4.81,10.69-2.66,5.89,6.07,11.05,8.74,5.11,11.03-24.48,22.06-48.95,33.09-73.43,1.6-3.56,3.21-7.12,4.81-10.69l-6.93,1.82c10.94,4.93,21.88,9.86,32.82,14.79l-1.82-6.93c-11.03,24.48-22.06,48.95-33.09,73.43-1.6,3.56-3.21,7.12-4.81,10.69l6.93-1.82c-10.94-4.93-21.88-9.86-32.82-14.79-5.89-2.66-11.05,6.07-5.11,8.74Z"/><path class="cls-3" d="m41.17,153.16c6.43,0,6.45-10,0-10s-6.45,10,0,10h0Z"/><path class="cls-3" d="m88.73,95.37c9.19-1.02,18.35-2.04,27.58-2.54,7-.38,14.49-1.75,21.41-.13,6.26,1.47,8.93-8.17,2.66-9.64-7.5-1.76-15.13-.78-22.72-.31-9.68.6-19.29,1.55-28.93,2.62-6.33.7-6.4,10.71,0,10h0Z"/><path class="cls-3" d="m243.18,159.6c-6.76.9-11.91,5.73-18.51,6.98s-3.64,10.84,2.66,9.64c3.11-.59,6.01-1.94,8.81-3.37,2.13-1.08,4.63-2.93,7.04-3.26,2.7-.36,4.97-2.04,5-5,.03-2.43-2.32-5.36-5-5h0Z"/><path class="cls-3" d="m136.18,213.43c3.15,4.44,7.5,7.99,12.3,10.54s11.23,7.11,17.16,7.03c5.1-.06,10.26-4.11,12.14-8.7,2.53-6.18-1.39-11.78-5.76-15.93-4.66-4.44-11.74,2.62-7.07,7.07,1.94,1.85,5.58,5.03,1.72,7.03-2.59,1.35-6.07-1.4-8.4-2.65-4.76-2.56-10.23-4.86-13.47-9.44-3.69-5.21-12.37-.22-8.63,5.05h0Z"/><path class="cls-3" d="m145.96,199.44c3.87,4.4,8.97,7.91,13.82,11.15s9.86,6.48,15.3,8.3c6.26,2.08,13.86.7,18.42-4.34,3.98-4.41,4.7-12.23,1.31-17.16-3.62-5.27-12.29-.28-8.63,5.05,2.61,3.8-1.33,7.49-5.26,7.51-3.32.02-6.81-2.34-9.56-3.92-6.46-3.71-13.37-8.01-18.33-13.66-4.26-4.84-11.31,2.25-7.07,7.07h0Z"/><path class="cls-3" d="m146.74,172.44c12.2,12.08,26.68,24.18,42.5,31.23,6.22,2.77,13.31,3.91,19.38.13s7.8-10.57,5.7-17.22c-1.93-6.12-11.58-3.5-9.64,2.66,1.47,4.67-1.2,7.46-6.07,6.96-5.61-.57-11.17-4.67-15.81-7.59-10.52-6.63-20.15-14.5-28.98-23.24-4.58-4.53-11.65,2.53-7.07,7.07h0Z"/><path class="cls-3" d="m207.03,87.83c-3.77,1.62-7.75,3.77-11.98,3.2-4.44-.6-8.88-2.75-13.08-4.22-6.51-2.28-12.55-6.07-19.35-7.5-7.7-1.61-13.38,1-19.91,4.93s-13.74,6.05-20.07,10.03-9.24,9.3-10.34,16.4c-.51,3.32-.67,6.67-1.6,9.92-1.04,3.62-2.5,7.08-2.96,10.84-1.88,15.26,16.28,14.62,25.54,8.88,2.94-1.82,5.23-4.33,7.23-7.12s3.36-6.34,5.87-8.62c2.16-1.97,4.9-2.04,7.68-2.24,4.57-.33,10.23-2.07,14.57-.03,5.79,2.73,10.87-5.89,5.05-8.63-6.55-3.09-12.68-1.84-19.61-1.34-5.31.38-10.3,1.05-14.36,4.81s-5.7,9.39-9.71,13.14c-1.91,1.79-4.16,2.72-6.68,3.34-.93.23-5.23,1.32-5.84.49-.99-1.36,1.69-7.1,2.19-8.68.97-3,1.55-5.92,1.92-9.05s.57-6.78,2.13-9.61,4.86-4.51,7.74-5.91c6.04-2.94,12-5.47,17.81-8.9,2.69-1.59,5.44-3.4,8.67-3.28s6.79,1.6,9.84,2.91c7.01,3.01,13.97,6.09,21.32,8.24,8.57,2.5,15.07.04,22.98-3.36,5.89-2.54.81-11.15-5.05-8.63h0Z"/><path class="cls-3" d="m162.32,154.53c11.03,11.44,24.32,21.32,37.38,30.33,5.32,3.67,11.87,8.01,18.44,8.78s12.76-3.27,14.66-9.48c2-6.53-1.4-11.4-5.61-16.01-5.45-5.96-11.44-11.41-17.58-16.65-12.59-10.73-24.29-21.24-33.23-35.36-3.43-5.42-12.09-.41-8.63,5.05,6.68,10.55,14.81,20.19,24.16,28.47s20.08,16.46,28.8,26.21c1.43,1.6,3.37,3.25,2.46,5.61-1.48,3.84-5.74,1.89-8.26.75-5.62-2.55-10.68-6.25-15.59-9.94-10.37-7.79-20.89-15.45-29.92-24.81-4.48-4.64-11.54,2.44-7.07,7.07h0Z"/><path class="cls-3" d="m56.07,168.11c4.03,1.9,7.62,4.49,11.91,5.86,6.14,1.96,8.77-7.69,2.66-9.64-3.41-1.09-6.3-3.33-9.52-4.85-2.44-1.15-5.39-.68-6.84,1.79-1.27,2.17-.66,5.68,1.79,6.84h0Z"/><path class="cls-3" d="m96.57,175.77c5.81-7.26,3.14-15.55-5.49-18.77-7.39-2.76-17.91-1.25-21.84,6.38-3.68,7.17-1.48,21.39,7.22,24.11s17.06-6.28,20.89-12.73c3.29-5.55-5.35-10.58-8.63-5.05-1.06,1.78-2.4,3.32-3.89,4.75-.96.93-3.55,3.68-5.04,3.41-2.18-.39-2.53-7.32-1.89-9.22,1.01-2.98,5.18-3.27,7.87-2.8,1.53.27,2.81,1.08,3.9,1.65.33.17.28.8.31.02-.01.46.09.47-.47,1.18-3.98,4.98,3.05,12.1,7.07,7.07h0Z"/><path class="cls-3" d="m92.57,167.31c-5.44,7.07-14.55,19.67-9.41,28.98,4.81,8.72,15.86,4.57,21.51-.63,5.95-5.48,14.51-14.14,13.67-22.97-.51-5.42-4.4-8.01-9.15-9.64-5.97-2.06-9.66-.48-14.67,2.87-5.33,3.56-.33,12.22,5.05,8.63,2.92-1.95,3.63-3.1,6.97-1.86,2.61.97,2.14,1.51.87,4.07-2.21,4.49-6.13,8.5-9.81,11.83-1.46,1.32-2.78,2-4.61,2.72s-1.38-.31-1.06-2.26c.97-6.01,5.67-12,9.28-16.7,3.92-5.1-4.76-10.08-8.63-5.05h0Z"/><path class="cls-3" d="m110,175.78c-3.84,6.07-8.28,12.35-9.57,19.58-.94,5.24-.51,12.39,4.48,15.58,8.82,5.64,19.35-6.31,25.01-11.79,6.94-6.71,16.94-18.77,8.54-28.26-6.53-7.37-19.89-5-25.96,1.82-4.27,4.79,2.78,11.89,7.07,7.07,2.1-2.36,9.63-5.76,11.76-1.79,2.5,4.66-6.63,12.34-9.4,14.96-2.34,2.21-8.55,9.77-12.15,9.37.94.65,1.06.38.38-.83-.19-1.09-.23-2.18-.11-3.27.23-2.27,1.17-4.54,2.13-6.58,1.78-3.8,4.22-7.28,6.46-10.82,3.45-5.45-5.2-10.48-8.63-5.05h0Z"/><path class="cls-3" d="m138.98,189.74c2.54-1.73,3.89-.7,3.46,2.58-.52,3.95-3,7.92-5.06,11.26-2.26,3.66-5.28,7.53-9.49,8.95-.95.32-3.2.97-4.04.36-.7-.5-1.97-5.25-1.5-6.15,2.99-5.69-5.64-10.75-8.63-5.05-3.42,6.52-.29,18.71,7.44,20.92,9.34,2.66,18.16-4.43,23.2-11.5,4.6-6.45,10.23-16.33,7.47-24.46-2.61-7.7-11.37-10.01-17.89-5.56-5.29,3.6-.29,12.27,5.05,8.63h0Z"/></svg>