<svg width="178" height="317" viewBox="0 0 178 317" fill="none" xmlns="http://www.w3.org/2000/svg">
<path d="M168.93 298.46V228.28C173.05 227.66 176.22 224.11 176.22 219.81C176.22 215.51 173.06 211.97 168.93 211.34V211.229H167.65H10.4098H9.12982V211.34C5.00982 211.96 1.83984 215.51 1.83984 219.81C1.83984 224.11 4.99982 227.65 9.12982 228.28V298.46C5.00982 299.08 1.83984 302.63 1.83984 306.93C1.83984 311.23 4.99982 314.77 9.12982 315.4V315.51H10.4098H167.65H168.93V315.4C173.05 314.78 176.22 311.23 176.22 306.93C176.22 302.62 173.06 299.08 168.93 298.46Z" fill="#E5ECF9" stroke="#3B65EE" stroke-width="2.5" stroke-miterlimit="10" stroke-linecap="round" stroke-linejoin="round"/>
<path d="M134.721 298.46H168.931V270.729C168.931 270.719 163.391 298.46 134.721 298.46Z" fill="#B0C3EA" stroke="#B0C3EA" stroke-width="2.5" stroke-miterlimit="10" stroke-linecap="round"/>
<path d="M27.6398 307.08C27.6398 302.78 30.7998 299.24 34.9298 298.61V228.43C30.8098 227.81 27.6398 224.26 27.6398 219.96C27.6398 215.66 30.7998 212.12 34.9298 211.49V211.38H36.2098H169.22C169.13 211.36 169.03 211.34 168.94 211.32V211.21H167.66H10.4098H9.12982V211.32C5.00982 211.94 1.83984 215.49 1.83984 219.79C1.83984 224.09 4.99982 227.63 9.12982 228.26V298.44C5.00982 299.06 1.83984 302.61 1.83984 306.91C1.83984 311.21 4.99982 314.75 9.12982 315.38V315.49H10.4098H34.6398C30.6598 314.75 27.6398 311.28 27.6398 307.08Z" fill="white" stroke="white" stroke-width="2.5" stroke-miterlimit="10" stroke-linecap="round" stroke-linejoin="round"/>
<path d="M154.449 246.62H23.6094V278.94H154.449V246.62Z" fill="white" stroke="#3B65EE" stroke-width="2.5" stroke-miterlimit="10" stroke-linecap="round"/>
<path d="M168.93 298.46V228.28C173.05 227.66 176.22 224.11 176.22 219.81C176.22 215.51 173.06 211.97 168.93 211.34V211.229H167.65H10.4098H9.12982V211.34C5.00982 211.96 1.83984 215.51 1.83984 219.81C1.83984 224.11 4.99982 227.65 9.12982 228.28V298.46C5.00982 299.08 1.83984 302.63 1.83984 306.93C1.83984 311.23 4.99982 314.77 9.12982 315.4V315.51H10.4098H167.65H168.93V315.4C173.05 314.78 176.22 311.23 176.22 306.93C176.22 302.62 173.06 299.08 168.93 298.46Z" stroke="#3B65EE" stroke-width="2.5" stroke-miterlimit="10" stroke-linecap="round" stroke-linejoin="round"/>
<path d="M168.939 228.28H9.12891V298.46H168.939V228.28Z" stroke="#3B65EE" stroke-width="2.5" stroke-miterlimit="10" stroke-linecap="round" stroke-linejoin="round"/>
<path d="M3.68945 29.4099C3.68945 29.4099 8.89942 7.29989 27.7194 2.30989C46.5394 -2.68011 68.4595 21.8299 68.4595 21.8299L3.68945 29.4099Z" fill="#B0C3EA" stroke="#3B65EE" stroke-width="2.5" stroke-miterlimit="10" stroke-linecap="round" stroke-linejoin="round"/>
<path d="M86.0897 60.4596C86.0897 60.4596 102.51 32.2295 77.1197 17.2795C51.7297 2.32955 3.67969 29.4095 3.67969 29.4095C3.67969 29.4095 43.5897 26.1695 63.2897 38.6795C82.9897 51.1895 80.1197 61.5896 80.1197 61.5896L86.0897 60.4596Z" fill="#E5ECF9" stroke="#3B65EE" stroke-width="2.5" stroke-miterlimit="10" stroke-linecap="round" stroke-linejoin="round"/>
<path d="M82.5193 61.1396L86.0893 60.4596C86.0893 60.4596 96.1193 43.2296 88.3893 28.5596C77.2793 39.8496 81.4093 57.2396 82.5193 61.1396Z" fill="#B0C3EA" stroke="#B0C3EA" stroke-width="2.5" stroke-miterlimit="10" stroke-linecap="round" stroke-linejoin="round"/>
<path d="M86.0897 60.4596C86.0897 60.4596 102.51 32.2295 77.1197 17.2795C51.7297 2.32955 3.67969 29.4095 3.67969 29.4095C3.67969 29.4095 43.5897 26.1695 63.2897 38.6795C82.9897 51.1895 80.1197 61.5896 80.1197 61.5896L86.0897 60.4596Z" stroke="#3B65EE" stroke-width="2.5" stroke-miterlimit="10" stroke-linecap="round" stroke-linejoin="round"/>
<path d="M174.37 29.4099C174.37 29.4099 169.16 7.29989 150.34 2.30989C131.52 -2.68011 109.6 21.8299 109.6 21.8299L174.37 29.4099Z" fill="#B0C3EA" stroke="#3B65EE" stroke-width="2.5" stroke-miterlimit="10" stroke-linecap="round" stroke-linejoin="round"/>
<path d="M91.9589 60.4596C91.9589 60.4596 75.5389 32.2295 100.929 17.2795C126.319 2.32955 174.369 29.4095 174.369 29.4095C174.369 29.4095 134.459 26.1695 114.759 38.6795C95.0589 51.1895 97.9289 61.5896 97.9289 61.5896L91.9589 60.4596Z" fill="#E5ECF9" stroke="#3B65EE" stroke-width="2.5" stroke-miterlimit="10" stroke-linecap="round" stroke-linejoin="round"/>
<path d="M89.03 83.7798C96.2263 83.7798 102.06 77.2924 102.06 69.2898C102.06 61.2872 96.2263 54.7998 89.03 54.7998C81.8338 54.7998 76 61.2872 76 69.2898C76 77.2924 81.8338 83.7798 89.03 83.7798Z" fill="#E5ECF9" stroke="#3B65EE" stroke-width="2.5" stroke-miterlimit="10" stroke-linecap="round" stroke-linejoin="round"/>
<path d="M71.7178 81.2137C72.9612 72.9785 68.1477 65.4236 60.9665 64.3393C53.7853 63.255 46.9558 69.0519 45.7124 77.2871C44.4689 85.5223 49.2824 93.0772 56.4636 94.1615C63.6448 95.2458 70.4744 89.4489 71.7178 81.2137Z" fill="#E5ECF9" stroke="#3B65EE" stroke-width="2.5" stroke-miterlimit="10" stroke-linecap="round" stroke-linejoin="round"/>
<path d="M88.5518 76.326C90.4457 68.2157 86.2478 60.3023 79.1755 58.6508C72.1033 56.9993 64.8348 62.2351 62.9409 70.3454C61.047 78.4556 65.2449 86.3691 72.3172 88.0206C79.3894 89.6721 86.658 84.4362 88.5518 76.326Z" fill="#E5ECF9" stroke="#3B65EE" stroke-width="2.5" stroke-miterlimit="10" stroke-linecap="round" stroke-linejoin="round"/>
<path d="M121.553 94.2485C128.734 93.1642 133.547 85.6093 132.304 77.3741C131.06 69.1389 124.231 63.3421 117.05 64.4263C109.868 65.5106 105.055 73.0655 106.298 81.3007C107.542 89.5359 114.371 95.3328 121.553 94.2485Z" fill="#E5ECF9" stroke="#3B65EE" stroke-width="2.5" stroke-miterlimit="10" stroke-linecap="round" stroke-linejoin="round"/>
<path d="M105.785 87.9215C112.857 86.27 117.055 78.3565 115.161 70.2462C113.267 62.136 105.999 56.9002 98.9266 58.5517C91.8543 60.2032 87.6564 68.1166 89.5503 76.2269C91.4442 84.3371 98.7127 89.573 105.785 87.9215Z" fill="#E5ECF9" stroke="#3B65EE" stroke-width="2.5" stroke-miterlimit="10" stroke-linecap="round" stroke-linejoin="round"/>
<path d="M51.7122 116.02C60.5322 116.02 67.6822 108.252 67.6822 98.6703C67.6822 89.0881 60.5322 81.3203 51.7122 81.3203C42.8922 81.3203 35.7422 89.0881 35.7422 98.6703C35.7422 108.252 42.8922 116.02 51.7122 116.02Z" fill="#E5ECF9" stroke="#3B65EE" stroke-width="2.5" stroke-miterlimit="10" stroke-linecap="round" stroke-linejoin="round"/>
<path d="M67.0012 110.15C75.8212 110.15 82.9712 102.382 82.9712 92.8002C82.9712 83.218 75.8212 75.4502 67.0012 75.4502C58.1812 75.4502 51.0312 83.218 51.0312 92.8002C51.0312 102.382 58.1812 110.15 67.0012 110.15Z" fill="#E5ECF9" stroke="#3B65EE" stroke-width="2.5" stroke-miterlimit="10" stroke-linecap="round" stroke-linejoin="round"/>
<path d="M126.062 116.02C134.882 116.02 142.032 108.252 142.032 98.6703C142.032 89.0881 134.882 81.3203 126.062 81.3203C117.242 81.3203 110.092 89.0881 110.092 98.6703C110.092 108.252 117.242 116.02 126.062 116.02Z" fill="#E5ECF9" stroke="#3B65EE" stroke-width="2.5" stroke-miterlimit="10" stroke-linecap="round" stroke-linejoin="round"/>
<path d="M110.771 110.15C119.591 110.15 126.741 102.382 126.741 92.8002C126.741 83.218 119.591 75.4502 110.771 75.4502C101.951 75.4502 94.8008 83.218 94.8008 92.8002C94.8008 102.382 101.951 110.15 110.771 110.15Z" fill="#E5ECF9" stroke="#3B65EE" stroke-width="2.5" stroke-miterlimit="10" stroke-linecap="round" stroke-linejoin="round"/>
<path d="M89.0323 107.46C98.1229 107.46 105.492 99.6919 105.492 90.1097C105.492 80.5276 98.1229 72.7598 89.0323 72.7598C79.9417 72.7598 72.5723 80.5276 72.5723 90.1097C72.5723 99.6919 79.9417 107.46 89.0323 107.46Z" fill="#E5ECF9" stroke="#3B65EE" stroke-width="2.5" stroke-miterlimit="10" stroke-linecap="round" stroke-linejoin="round"/>
<path d="M130.562 134.159C140.575 134.159 148.692 126.042 148.692 116.029C148.692 106.016 140.575 97.8994 130.562 97.8994C120.549 97.8994 112.432 106.016 112.432 116.029C112.432 126.042 120.549 134.159 130.562 134.159Z" fill="#E5ECF9" stroke="#3B65EE" stroke-width="2.5" stroke-miterlimit="10" stroke-linecap="round" stroke-linejoin="round"/>
<path d="M107.151 129.05C117.164 129.05 125.281 120.933 125.281 110.92C125.281 100.907 117.164 92.79 107.151 92.79C97.1386 92.79 89.0215 100.907 89.0215 110.92C89.0215 120.933 97.1386 129.05 107.151 129.05Z" fill="#E5ECF9" stroke="#3B65EE" stroke-width="2.5" stroke-miterlimit="10" stroke-linecap="round" stroke-linejoin="round"/>
<path d="M47.4913 134.159C57.5043 134.159 65.6213 126.042 65.6213 116.029C65.6213 106.016 57.5043 97.8994 47.4913 97.8994C37.4784 97.8994 29.3613 106.016 29.3613 116.029C29.3613 126.042 37.4784 134.159 47.4913 134.159Z" fill="#E5ECF9" stroke="#3B65EE" stroke-width="2.5" stroke-miterlimit="10" stroke-linecap="round" stroke-linejoin="round"/>
<path d="M70.9015 129.05C80.9144 129.05 89.0315 120.933 89.0315 110.92C89.0315 100.907 80.9144 92.79 70.9015 92.79C60.8886 92.79 52.7715 100.907 52.7715 110.92C52.7715 120.933 60.8886 129.05 70.9015 129.05Z" fill="#E5ECF9" stroke="#3B65EE" stroke-width="2.5" stroke-miterlimit="10" stroke-linecap="round" stroke-linejoin="round"/>
<path d="M89.03 211.031C96.2263 211.031 102.06 204.543 102.06 196.541C102.06 188.538 96.2263 182.051 89.03 182.051C81.8338 182.051 76 188.538 76 196.541C76 204.543 81.8338 211.031 89.03 211.031Z" fill="#E5ECF9" stroke="#3B65EE" stroke-width="2.5" stroke-miterlimit="10" stroke-linecap="round" stroke-linejoin="round"/>
<path d="M132.282 188.469C133.526 180.233 128.712 172.678 121.531 171.594C114.35 170.51 107.52 176.307 106.277 184.542C105.033 192.777 109.847 200.332 117.028 201.416C124.209 202.501 131.039 196.704 132.282 188.469Z" fill="#E5ECF9" stroke="#3B65EE" stroke-width="2.5" stroke-miterlimit="10" stroke-linecap="round" stroke-linejoin="round"/>
<path d="M115.185 195.571C117.079 187.461 112.881 179.547 105.808 177.896C98.7361 176.244 91.4676 181.48 89.5737 189.59C87.6798 197.701 91.8777 205.614 98.95 207.266C106.022 208.917 113.291 203.681 115.185 195.571Z" fill="#E5ECF9" stroke="#3B65EE" stroke-width="2.5" stroke-miterlimit="10" stroke-linecap="round" stroke-linejoin="round"/>
<path d="M60.9763 201.498C68.1575 200.413 72.971 192.858 71.7276 184.623C70.4841 176.388 63.6546 170.591 56.4734 171.675C49.2922 172.76 44.4787 180.315 45.7221 188.55C46.9656 196.785 53.7951 202.582 60.9763 201.498Z" fill="#E5ECF9" stroke="#3B65EE" stroke-width="2.5" stroke-miterlimit="10" stroke-linecap="round" stroke-linejoin="round"/>
<path d="M79.1619 207.173C86.2342 205.522 90.432 197.608 88.5382 189.498C86.6443 181.388 79.3758 176.152 72.3035 177.804C65.2313 179.455 61.0333 187.369 62.9272 195.479C64.8211 203.589 72.0897 208.825 79.1619 207.173Z" fill="#E5ECF9" stroke="#3B65EE" stroke-width="2.5" stroke-miterlimit="10" stroke-linecap="round" stroke-linejoin="round"/>
<path d="M126.341 184.511C135.161 184.511 142.311 176.743 142.311 167.161C142.311 157.578 135.161 149.811 126.341 149.811C117.521 149.811 110.371 157.578 110.371 167.161C110.371 176.743 117.521 184.511 126.341 184.511Z" fill="#E5ECF9" stroke="#3B65EE" stroke-width="2.5" stroke-miterlimit="10" stroke-linecap="round" stroke-linejoin="round"/>
<path d="M111.05 190.381C119.87 190.381 127.02 182.613 127.02 173.031C127.02 163.449 119.87 155.681 111.05 155.681C102.23 155.681 95.0801 163.449 95.0801 173.031C95.0801 182.613 102.23 190.381 111.05 190.381Z" fill="#E5ECF9" stroke="#3B65EE" stroke-width="2.5" stroke-miterlimit="10" stroke-linecap="round" stroke-linejoin="round"/>
<path d="M51.9915 184.511C60.8114 184.511 67.9615 176.743 67.9615 167.161C67.9615 157.578 60.8114 149.811 51.9915 149.811C43.1715 149.811 36.0215 157.578 36.0215 167.161C36.0215 176.743 43.1715 184.511 51.9915 184.511Z" fill="#E5ECF9" stroke="#3B65EE" stroke-width="2.5" stroke-miterlimit="10" stroke-linecap="round" stroke-linejoin="round"/>
<path d="M67.2806 190.381C76.1006 190.381 83.2505 182.613 83.2505 173.031C83.2505 163.449 76.1006 155.681 67.2806 155.681C58.4606 155.681 51.3105 163.449 51.3105 173.031C51.3105 182.613 58.4606 190.381 67.2806 190.381Z" fill="#E5ECF9" stroke="#3B65EE" stroke-width="2.5" stroke-miterlimit="10" stroke-linecap="round" stroke-linejoin="round"/>
<path d="M89.0303 193.07C98.1209 193.07 105.49 185.302 105.49 175.72C105.49 166.138 98.1209 158.37 89.0303 158.37C79.9397 158.37 72.5703 166.138 72.5703 175.72C72.5703 185.302 79.9397 193.07 89.0303 193.07Z" fill="#E5ECF9" stroke="#3B65EE" stroke-width="2.5" stroke-miterlimit="10" stroke-linecap="round" stroke-linejoin="round"/>
<path d="M47.4913 167.93C57.5043 167.93 65.6213 159.813 65.6213 149.8C65.6213 139.787 57.5043 131.67 47.4913 131.67C37.4784 131.67 29.3613 139.787 29.3613 149.8C29.3613 159.813 37.4784 167.93 47.4913 167.93Z" fill="#E5ECF9" stroke="#3B65EE" stroke-width="2.5" stroke-miterlimit="10" stroke-linecap="round" stroke-linejoin="round"/>
<path d="M41.5206 157.33C51.5336 157.33 59.6506 149.213 59.6506 139.2C59.6506 129.187 51.5336 121.07 41.5206 121.07C31.5077 121.07 23.3906 129.187 23.3906 139.2C23.3906 149.213 31.5077 157.33 41.5206 157.33Z" fill="#E5ECF9" stroke="#3B65EE" stroke-width="2.5" stroke-miterlimit="10" stroke-linecap="round" stroke-linejoin="round"/>
<path d="M70.9015 173.04C80.9144 173.04 89.0315 164.923 89.0315 154.91C89.0315 144.897 80.9144 136.78 70.9015 136.78C60.8886 136.78 52.7715 144.897 52.7715 154.91C52.7715 164.923 60.8886 173.04 70.9015 173.04Z" fill="#E5ECF9" stroke="#3B65EE" stroke-width="2.5" stroke-miterlimit="10" stroke-linecap="round" stroke-linejoin="round"/>
<path d="M130.56 167.93C140.573 167.93 148.69 159.813 148.69 149.8C148.69 139.787 140.573 131.67 130.56 131.67C120.547 131.67 112.43 139.787 112.43 149.8C112.43 159.813 120.547 167.93 130.56 167.93Z" fill="#E5ECF9" stroke="#3B65EE" stroke-width="2.5" stroke-miterlimit="10" stroke-linecap="round" stroke-linejoin="round"/>
<path d="M107.151 173.04C117.164 173.04 125.281 164.923 125.281 154.91C125.281 144.897 117.164 136.78 107.151 136.78C97.1386 136.78 89.0215 144.897 89.0215 154.91C89.0215 164.923 97.1386 173.04 107.151 173.04Z" fill="#E5ECF9" stroke="#3B65EE" stroke-width="2.5" stroke-miterlimit="10" stroke-linecap="round" stroke-linejoin="round"/>
<path d="M59.6515 152.68C69.6644 152.68 77.7815 144.563 77.7815 134.55C77.7815 124.537 69.6644 116.42 59.6515 116.42C49.6386 116.42 41.5215 124.537 41.5215 134.55C41.5215 144.563 49.6386 152.68 59.6515 152.68Z" fill="#E5ECF9" stroke="#3B65EE" stroke-width="2.5" stroke-miterlimit="10" stroke-linecap="round" stroke-linejoin="round"/>
<path d="M136.53 157.33C146.543 157.33 154.66 149.213 154.66 139.2C154.66 129.187 146.543 121.07 136.53 121.07C126.517 121.07 118.4 129.187 118.4 139.2C118.4 149.213 126.517 157.33 136.53 157.33Z" fill="#E5ECF9" stroke="#3B65EE" stroke-width="2.5" stroke-miterlimit="10" stroke-linecap="round" stroke-linejoin="round"/>
<path d="M118.401 152.68C128.414 152.68 136.531 144.563 136.531 134.55C136.531 124.537 128.414 116.42 118.401 116.42C108.389 116.42 100.271 124.537 100.271 134.55C100.271 144.563 108.389 152.68 118.401 152.68Z" fill="#E5ECF9" stroke="#3B65EE" stroke-width="2.5" stroke-miterlimit="10" stroke-linecap="round" stroke-linejoin="round"/>
<path d="M89.0304 149.3C99.0433 149.3 107.16 141.183 107.16 131.17C107.16 121.157 99.0433 113.04 89.0304 113.04C79.0175 113.04 70.9004 121.157 70.9004 131.17C70.9004 141.183 79.0175 149.3 89.0304 149.3Z" fill="#E5ECF9" stroke="#3B65EE" stroke-width="2.5" stroke-miterlimit="10" stroke-linecap="round" stroke-linejoin="round"/>
<path d="M96.4606 206.97C96.1806 207.06 95.9006 207.15 95.6006 207.22C90.0106 208.52 84.3106 205.51 81.2206 200.19C80.0606 200.81 78.7906 201.25 77.4406 201.45C70.2606 202.53 63.4306 196.74 62.1906 188.5C61.9106 186.66 61.9506 184.85 62.2406 183.14C56.5006 180.51 52.4806 174.34 52.4806 167.15C52.4806 166.09 52.5806 165.05 52.7506 164.04C49.3006 161.32 46.8706 157.38 46.1006 152.87C42.2806 149.55 39.8506 144.66 39.8506 139.2C39.8506 132.97 43.0006 127.47 47.7906 124.21C46.5406 121.75 45.8206 118.98 45.8206 116.03C45.8206 110.36 48.4206 105.31 52.4906 101.98C52.3006 100.91 52.1906 99.8 52.1906 98.67C52.1906 91.37 56.3506 85.1301 62.2206 82.5701C61.9506 80.8901 61.9206 79.1301 62.1906 77.3201C63.4306 69.0801 70.2606 63.2801 77.4406 64.3701C78.7906 64.5701 80.0606 65.0101 81.2206 65.6301C84.3006 60.3101 90.0106 57.3 95.6006 58.6C95.8906 58.67 96.1706 58.76 96.4606 58.85C96.7106 58.58 96.9806 58.3201 97.2606 58.0701C95.0206 56.0301 92.1606 54.79 89.0306 54.79C85.5206 54.79 82.3506 56.3401 80.0006 58.8401C79.7206 58.7501 79.4406 58.6601 79.1406 58.5901C73.5506 57.2801 67.8506 60.3001 64.7606 65.6201C63.6006 65.0001 62.3306 64.56 60.9806 64.36C53.8006 63.28 46.9706 69.0701 45.7306 77.3101C45.4606 79.1101 45.4906 80.8801 45.7606 82.5601C39.8806 85.1201 35.7306 91.36 35.7306 98.66C35.7306 99.79 35.8406 100.9 36.0306 101.97C31.9606 105.29 29.3606 110.35 29.3606 116.02C29.3606 118.97 30.0806 121.74 31.3306 124.2C26.5406 127.46 23.3906 132.96 23.3906 139.19C23.3906 144.65 25.8206 149.54 29.6406 152.86C30.4106 157.37 32.8406 161.31 36.2906 164.03C36.1206 165.04 36.0206 166.08 36.0206 167.14C36.0206 174.33 40.0506 180.5 45.7806 183.13C45.4906 184.84 45.4506 186.64 45.7306 188.49C46.9706 196.73 53.8006 202.53 60.9806 201.44C62.3306 201.24 63.6006 200.8 64.7606 200.18C67.8406 205.5 73.5506 208.51 79.1406 207.21C79.4306 207.14 79.7106 207.05 80.0006 206.96C82.3406 209.47 85.5206 211.01 89.0306 211.01C92.1606 211.01 95.0206 209.77 97.2606 207.73C96.9806 207.5 96.7106 207.25 96.4606 206.97Z" fill="white" stroke="white" stroke-width="2.5" stroke-miterlimit="10" stroke-linecap="round" stroke-linejoin="round"/>
<path d="M47.0996 193.08C49.7096 198.77 55.2296 202.33 60.9896 201.46C61.3896 201.4 61.7896 201.31 62.1696 201.21C62.2896 201.18 62.4097 201.14 62.5197 201.11C62.7997 201.03 63.0697 200.94 63.3397 200.84C63.4597 200.8 63.5796 200.75 63.6896 200.7C64.0196 200.56 64.3496 200.41 64.6696 200.24C64.6996 200.22 64.7296 200.21 64.7596 200.2C65.5196 201.5 66.4297 202.67 67.4597 203.66C67.4997 203.7 67.5397 203.74 67.5897 203.78C67.7297 203.91 67.8696 204.06 68.0096 204.18C68.1096 204.26 68.2096 204.34 68.3096 204.42C68.3496 204.45 68.3896 204.49 68.4296 204.52C69.1496 205.11 69.9196 205.61 70.7196 206.04C70.8496 206.11 70.9896 206.18 71.1196 206.25C71.3196 206.35 71.5196 206.44 71.7196 206.52C71.8896 206.59 72.0696 206.66 72.2496 206.73C72.4296 206.8 72.6196 206.87 72.8096 206.93C73.0496 207.01 73.2897 207.07 73.5297 207.13C73.6697 207.16 73.7996 207.21 73.9396 207.24C74.3096 207.32 74.6896 207.38 75.0596 207.43C75.1896 207.45 75.3297 207.45 75.4597 207.47C75.7297 207.49 75.9997 207.51 76.2697 207.52C76.4097 207.52 76.5596 207.52 76.6996 207.52C76.9796 207.52 77.2497 207.5 77.5297 207.47C77.6597 207.46 77.7896 207.45 77.9096 207.43C78.3096 207.38 78.7196 207.31 79.1196 207.22H79.1296C79.4196 207.15 79.6996 207.06 79.9796 206.98C80.8596 207.92 81.8496 208.72 82.9296 209.35H82.9396C82.9596 209.36 82.9696 209.37 82.9896 209.38C83.3296 209.58 83.6796 209.76 84.0396 209.93L84.0496 209.94C84.0996 209.97 84.1596 209.98 84.2196 210.01C84.5396 210.15 84.8696 210.29 85.1996 210.4C85.2096 210.4 85.2096 210.41 85.2196 210.41C85.3296 210.45 85.4396 210.47 85.5596 210.5C85.8496 210.59 86.1296 210.68 86.4196 210.74C86.4296 210.74 86.4296 210.74 86.4396 210.75C86.6396 210.79 86.8496 210.82 87.0496 210.85C87.1896 210.87 87.3296 210.9 87.4696 210.92H90.5297C90.5897 210.91 90.6497 210.9 90.7097 210.89C90.9497 210.85 91.1796 210.82 91.4196 210.77C91.4696 210.76 91.5297 210.75 91.5797 210.74C91.7297 210.71 91.8797 210.66 92.0297 210.62C92.2097 210.57 92.3896 210.52 92.5696 210.47C92.6496 210.45 92.7296 210.43 92.7996 210.4C92.9496 210.35 93.0996 210.28 93.2496 210.23C93.3796 210.18 93.5096 210.13 93.6396 210.07C93.6896 210.05 93.7396 210.03 93.7896 210.01C93.8496 209.98 93.9097 209.97 93.9597 209.94C94.1097 209.87 94.2496 209.8 94.3896 209.72C94.4596 209.68 94.5297 209.65 94.5897 209.61C94.7297 209.54 94.8696 209.46 95.0096 209.38C95.0296 209.37 95.0496 209.36 95.0596 209.35C96.1496 208.71 97.1396 207.91 98.0096 206.97C98.2896 207.06 98.5696 207.15 98.8696 207.22C99.2696 207.31 99.6797 207.38 100.08 207.43C100.21 207.45 100.34 207.45 100.46 207.47C100.74 207.5 101.02 207.51 101.29 207.52C101.44 207.52 101.58 207.52 101.72 207.52C101.99 207.51 102.26 207.5 102.53 207.47C102.66 207.46 102.8 207.45 102.93 207.43C103.31 207.38 103.68 207.32 104.05 207.24C104.19 207.21 104.32 207.17 104.45 207.13C104.69 207.07 104.93 207 105.17 206.93C105.36 206.87 105.54 206.8 105.73 206.73C105.91 206.66 106.08 206.59 106.26 206.52C106.46 206.43 106.66 206.34 106.86 206.25C107 206.18 107.13 206.11 107.27 206.04C108.07 205.62 108.84 205.11 109.56 204.52C109.6 204.49 109.64 204.45 109.69 204.42C109.94 204.22 110.17 204 110.41 203.78C110.45 203.74 110.5 203.7 110.54 203.66C111.57 202.66 112.48 201.5 113.24 200.2C113.27 200.22 113.3 200.23 113.33 200.24C113.65 200.41 113.97 200.56 114.31 200.7C114.43 200.75 114.54 200.79 114.66 200.84C114.93 200.94 115.2 201.03 115.48 201.11C115.6 201.14 115.71 201.18 115.83 201.21C116.22 201.31 116.61 201.4 117.01 201.46C117.91 201.6 118.8 201.62 119.68 201.55C120.56 201.48 121.42 201.31 122.25 201.05C124.34 200.4 126.26 199.19 127.86 197.55C129.09 196.29 130.12 194.78 130.89 193.08H47.0996V193.08Z" fill="#B0C3EA" stroke="#B0C3EA" stroke-width="2.5" stroke-miterlimit="10" stroke-linecap="round"/>
<path d="M47.1096 193.09C47.4096 193.73 47.7396 194.35 48.1096 194.93C48.1496 195 48.1896 195.07 48.2296 195.13C48.3896 195.37 48.5496 195.6 48.7196 195.83C48.7996 195.94 48.8797 196.05 48.9597 196.16C49.1197 196.37 49.2896 196.58 49.4696 196.79C49.5596 196.9 49.6596 197.01 49.7596 197.11C49.9396 197.3 50.1096 197.5 50.2996 197.68C50.3896 197.77 50.4897 197.86 50.5897 197.95C50.9197 198.26 51.2596 198.55 51.6096 198.83C51.7596 198.95 51.8996 199.06 52.0496 199.17C52.2196 199.29 52.3896 199.4 52.5596 199.51C52.7296 199.62 52.8997 199.73 53.0797 199.84C53.2497 199.94 53.4097 200.03 53.5797 200.12C53.7797 200.23 53.9796 200.33 54.1896 200.42C54.3396 200.49 54.4997 200.57 54.6497 200.63C54.9697 200.76 55.2896 200.88 55.6196 200.99C55.7196 201.02 55.8196 201.05 55.9196 201.08C56.2396 201.18 56.5696 201.26 56.8896 201.33C57.0296 201.36 57.1596 201.38 57.2996 201.4C57.5596 201.44 57.8296 201.48 58.0996 201.51C58.2496 201.52 58.3896 201.54 58.5396 201.55C58.8196 201.57 59.0996 201.57 59.3796 201.57C59.5096 201.57 59.6397 201.57 59.7697 201.57C60.1797 201.55 60.5896 201.52 60.9996 201.46C60.9996 201.46 60.9996 201.46 61.0096 201.46C61.4096 201.4 61.7996 201.31 62.1896 201.21C62.3096 201.18 62.4296 201.14 62.5396 201.11C62.8196 201.03 63.0896 200.94 63.3596 200.84C63.3996 200.83 63.4396 200.81 63.4796 200.8C63.5596 200.77 63.6397 200.74 63.7097 200.71C64.0397 200.57 64.3696 200.42 64.6796 200.25C64.7096 200.23 64.7397 200.22 64.7697 200.2C64.9597 200.53 65.1596 200.85 65.3696 201.16C65.4796 201.32 65.5896 201.46 65.6996 201.61C65.8096 201.76 65.9097 201.91 66.0197 202.05C66.1997 202.28 66.3897 202.5 66.5797 202.71C66.6297 202.77 66.6696 202.83 66.7196 202.88C66.9596 203.15 67.2097 203.4 67.4597 203.65C67.4997 203.69 67.5397 203.73 67.5897 203.77C67.8197 203.99 68.0596 204.21 68.3096 204.41C68.3496 204.44 68.3896 204.47 68.4296 204.51C68.7796 204.79 69.1296 205.05 69.4996 205.29C69.5396 205.32 69.5796 205.34 69.6196 205.37C69.9796 205.61 70.3496 205.83 70.7296 206.03C70.8596 206.1 70.9996 206.17 71.1296 206.24C71.2996 206.32 71.4696 206.4 71.6396 206.47C71.6696 206.48 71.6996 206.5 71.7296 206.51C71.8996 206.58 72.0796 206.65 72.2596 206.72C72.2796 206.73 72.2996 206.73 72.3196 206.74C72.4896 206.8 72.6496 206.86 72.8196 206.92C73.0596 207 73.2996 207.06 73.5396 207.12C73.6796 207.15 73.8096 207.2 73.9496 207.23C74.3196 207.31 74.6996 207.37 75.0696 207.42C75.1996 207.44 75.3396 207.44 75.4696 207.46C75.7396 207.48 76.0097 207.5 76.2797 207.51C76.3597 207.51 76.4296 207.51 76.5096 207.51C76.5796 207.51 76.6496 207.51 76.7196 207.51C76.9996 207.51 77.2696 207.49 77.5496 207.46C77.6796 207.45 77.8096 207.44 77.9296 207.42C78.3296 207.37 78.7396 207.3 79.1396 207.21C79.4296 207.14 79.7096 207.05 79.9896 206.96C80.2496 207.24 80.5296 207.51 80.8196 207.77C80.8996 207.84 80.9796 207.91 81.0596 207.98C81.2796 208.17 81.5096 208.35 81.7396 208.53C81.8196 208.59 81.8996 208.66 81.9896 208.72C82.2996 208.94 82.6196 209.15 82.9396 209.35H82.9496C83.2696 209.54 83.6096 209.71 83.9496 209.87C83.9796 209.89 84.0196 209.91 84.0496 209.92L84.0596 209.93C84.0596 209.93 84.0696 209.93 84.0696 209.94C84.3896 210.09 84.7196 210.21 85.0596 210.33C85.1096 210.35 85.1597 210.37 85.2097 210.39C85.2197 210.39 85.2196 210.4 85.2296 210.4C85.2396 210.4 85.2396 210.4 85.2496 210.4C85.6396 210.53 86.0296 210.64 86.4296 210.73C86.4396 210.73 86.4396 210.73 86.4496 210.73C86.4696 210.73 86.4896 210.74 86.5096 210.74C86.8296 210.81 87.1496 210.86 87.4796 210.9H90.5197C90.5897 210.89 90.6496 210.88 90.7196 210.87C90.9596 210.83 91.1896 210.8 91.4296 210.75C91.6396 210.71 91.8396 210.65 92.0396 210.6C92.2196 210.55 92.3997 210.5 92.5797 210.45C92.8097 210.38 93.0396 210.3 93.2596 210.21C93.3896 210.16 93.5197 210.11 93.6497 210.05C93.8997 209.94 94.1597 209.83 94.3997 209.7C94.4697 209.66 94.5396 209.63 94.5996 209.59C94.8696 209.45 95.1296 209.3 95.3896 209.14C95.4296 209.12 95.4596 209.09 95.4996 209.07C95.7896 208.88 96.0796 208.68 96.3496 208.47C96.3596 208.46 96.3696 208.46 96.3796 208.45C96.6796 208.22 96.9596 207.98 97.2396 207.73C96.9696 207.48 96.6996 207.23 96.4396 206.95C96.1596 207.04 95.8797 207.13 95.5797 207.2C89.9897 208.5 84.2896 205.49 81.1996 200.17C80.0396 200.79 78.7696 201.23 77.4196 201.43C71.6596 202.3 66.1397 198.74 63.5297 193.05H47.0996C47.1096 193.08 47.1096 193.09 47.1096 193.09Z" fill="#E5ECF9" stroke="#E5ECF9" stroke-width="2.5" stroke-miterlimit="10" stroke-linecap="round"/>
<path d="M146.719 124.21C147.969 121.75 148.689 118.98 148.689 116.03C148.689 110.25 145.969 105.11 141.759 101.79C141.929 100.78 142.029 99.7396 142.029 98.6796C142.029 91.4896 137.999 85.3196 132.269 82.6896C132.559 80.9796 132.599 79.1796 132.319 77.3296C131.079 69.0896 124.249 63.2896 117.069 64.3796C115.719 64.5796 114.449 65.0196 113.289 65.6396C110.209 60.3196 104.499 57.3096 98.9089 58.6096C98.6189 58.6796 98.3389 58.7696 98.0489 58.8596C95.7089 56.3496 92.5289 54.8096 89.0189 54.8096C85.5089 54.8096 82.3389 56.3596 79.9889 58.8596C79.7089 58.7696 79.4289 58.6796 79.1289 58.6096C73.5389 57.2996 67.8389 60.3196 64.7489 65.6396C63.5889 65.0196 62.3189 64.5796 60.9689 64.3796C53.7889 63.2996 46.9589 69.0896 45.7189 77.3296C45.4489 79.1296 45.4789 80.8996 45.7489 82.5796C39.8689 85.1396 35.7189 91.3796 35.7189 98.6796C35.7189 99.8096 35.8289 100.92 36.0189 101.99C31.9489 105.31 29.3489 110.37 29.3489 116.04C29.3489 118.99 30.0689 121.76 31.3189 124.22C26.5289 127.48 23.3789 132.98 23.3789 139.21C23.3789 144.67 25.8089 149.56 29.6289 152.88C30.3989 157.39 32.8289 161.33 36.2789 164.05C36.1089 165.06 36.0089 166.1 36.0089 167.16C36.0089 174.35 40.0389 180.52 45.7689 183.15C45.4789 184.86 45.4389 186.66 45.7189 188.51C46.9589 196.75 53.7889 202.55 60.9689 201.46C62.3189 201.26 63.5889 200.82 64.7489 200.2C67.8289 205.52 73.5389 208.53 79.1289 207.23C79.4189 207.16 79.6989 207.07 79.9889 206.98C82.3289 209.49 85.5089 211.03 89.0189 211.03C92.5289 211.03 95.6989 209.48 98.0489 206.98C98.3289 207.07 98.6089 207.16 98.9089 207.23C104.499 208.53 110.199 205.52 113.289 200.2C114.449 200.82 115.719 201.26 117.069 201.46C124.249 202.54 131.079 196.75 132.319 188.51C132.589 186.71 132.559 184.94 132.289 183.26C138.169 180.7 142.319 174.46 142.319 167.16C142.319 166.03 142.209 164.92 142.019 163.85C145.339 161.14 147.659 157.28 148.409 152.87C152.229 149.55 154.659 144.66 154.659 139.2C154.659 132.97 151.509 127.47 146.719 124.21Z" stroke="#3B65EE" stroke-width="2.5" stroke-miterlimit="10" stroke-linecap="round" stroke-linejoin="round"/>
<path d="M64.7597 65.6398C63.5997 65.0198 62.3396 64.5798 60.9896 64.3698C53.8096 63.2898 46.9796 69.0798 45.7396 77.3198C45.4696 79.1298 45.4897 80.8998 45.7597 82.5698C47.5997 81.7698 49.5997 81.3098 51.7097 81.3098C52.7597 81.3098 53.7797 81.4298 54.7697 81.6398C54.6997 81.7298 54.6397 81.8198 54.5797 81.9098C56.6097 79.1698 59.3897 77.1198 62.5797 76.1198C62.3597 74.2498 62.4596 72.2798 62.9196 70.2998C63.3096 68.6098 63.9497 67.0498 64.7597 65.6398Z" stroke="#3B65EE" stroke-width="2.5" stroke-miterlimit="10" stroke-linecap="round" stroke-linejoin="round"/>
<path d="M47.4905 97.9003C49.0105 97.9003 50.4905 98.1003 51.9005 98.4503C51.3405 96.6803 51.0205 94.7803 51.0205 92.8003C51.0205 88.5503 52.4305 84.6703 54.7605 81.6503C53.7705 81.4403 52.7505 81.3203 51.7005 81.3203C42.8805 81.3203 35.7305 89.0903 35.7305 98.6703C35.7305 99.8003 35.8405 100.91 36.0305 101.98C39.1605 99.4303 43.1405 97.9003 47.4905 97.9003Z" stroke="#3B65EE" stroke-width="2.5" stroke-miterlimit="10" stroke-linecap="round" stroke-linejoin="round"/>
<path d="M46.7313 121.84C48.7213 119.82 51.1914 118.27 53.9514 117.35C53.1914 115.35 52.7714 113.19 52.7714 110.92C52.7714 106.9 54.1013 103.2 56.3113 100.19C53.7013 98.7296 50.6913 97.8896 47.4913 97.8896C37.4813 97.8896 29.3613 106.01 29.3613 116.02C29.3613 118.97 30.0814 121.74 31.3314 124.2C34.2314 122.22 37.7414 121.06 41.5214 121.06C43.3314 121.07 45.0813 121.34 46.7313 121.84Z" stroke="#3B65EE" stroke-width="2.5" stroke-miterlimit="10" stroke-linecap="round" stroke-linejoin="round"/>
<path d="M62.9114 195.529C62.4414 193.519 62.3514 191.519 62.5814 189.619C59.4714 188.579 56.7714 186.519 54.7914 183.819C54.8814 183.939 54.9614 184.069 55.0514 184.179C54.0614 184.389 53.0414 184.509 52.0014 184.509C49.7914 184.509 47.6915 184.019 45.7815 183.149C45.4915 184.859 45.4614 186.669 45.7414 188.509C46.9814 196.749 53.8114 202.549 60.9914 201.459C62.3414 201.259 63.6014 200.819 64.7614 200.189C63.9514 198.779 63.3114 197.219 62.9114 195.529Z" stroke="#3B65EE" stroke-width="2.5" stroke-miterlimit="10" stroke-linecap="round" stroke-linejoin="round"/>
<path d="M51.3115 173.03C51.3115 171.02 51.6414 169.09 52.2214 167.3C52.2214 167.3 52.2214 167.3 52.2314 167.3C50.7214 167.71 49.1315 167.93 47.4915 167.93C43.2615 167.93 39.3814 166.47 36.2914 164.04C36.1214 165.05 36.0215 166.09 36.0215 167.15C36.0215 176.73 43.1715 184.5 51.9915 184.5C53.0415 184.5 54.0514 184.38 55.0414 184.17C52.7214 181.16 51.3115 177.28 51.3115 173.03Z" stroke="#3B65EE" stroke-width="2.5" stroke-miterlimit="10" stroke-linecap="round" stroke-linejoin="round"/>
<path d="M72.5706 175.72C72.5706 174.76 72.6605 173.83 72.8005 172.92C72.1705 172.99 71.5406 173.03 70.9006 173.03C64.9106 173.03 59.6105 170.11 56.3105 165.63C55.0305 166.34 53.6605 166.9 52.2205 167.29C51.6405 169.09 51.3105 171.01 51.3105 173.02C51.3105 182.6 58.4606 190.37 67.2806 190.37C70.7706 190.37 73.9805 189.14 76.6105 187.08C74.1005 184.05 72.5706 180.08 72.5706 175.72Z" stroke="#3B65EE" stroke-width="2.5" stroke-miterlimit="10" stroke-linecap="round" stroke-linejoin="round"/>
<path d="M52.8406 153.33C49.7406 155.82 45.8106 157.33 41.5206 157.33C36.9706 157.33 32.8206 155.64 29.6406 152.87C31.1006 161.42 38.5306 167.93 47.4906 167.93C50.6906 167.93 53.7006 167.09 56.3106 165.63C54.0906 162.62 52.7706 158.92 52.7706 154.9C52.7706 154.37 52.8006 153.85 52.8406 153.33Z" stroke="#3B65EE" stroke-width="2.5" stroke-miterlimit="10" stroke-linecap="round" stroke-linejoin="round"/>
<path d="M53.1106 151.45C46.3306 148.83 41.5206 142.25 41.5206 134.55C41.5206 129.6 43.5106 125.11 46.7306 121.84C45.0806 121.34 43.3306 121.07 41.5206 121.07C31.5106 121.07 23.3906 129.19 23.3906 139.2C23.3906 149.21 31.5106 157.33 41.5206 157.33C45.8106 157.33 49.7406 155.82 52.8506 153.33C52.9006 152.69 52.9906 152.07 53.1106 151.45Z" stroke="#3B65EE" stroke-width="2.5" stroke-miterlimit="10" stroke-linecap="round" stroke-linejoin="round"/>
<path d="M76.4603 186.89C76.5103 186.96 76.5603 187.03 76.6203 187.1C73.9903 189.16 70.7803 190.39 67.2903 190.39C65.6503 190.39 64.0703 190.12 62.5803 189.62C62.3503 191.51 62.4403 193.51 62.9103 195.53C64.8003 203.64 72.0703 208.88 79.1403 207.23C85.1803 205.82 89.1003 199.84 88.9503 193.08C83.9303 193.05 79.4603 190.65 76.4603 186.89Z" stroke="#3B65EE" stroke-width="2.5" stroke-miterlimit="10" stroke-linecap="round" stroke-linejoin="round"/>
<path d="M115.149 195.64C115.619 193.63 115.709 191.63 115.479 189.73C118.589 188.69 121.289 186.63 123.269 183.93C123.179 184.05 123.099 184.18 123.009 184.29C123.999 184.5 125.019 184.62 126.059 184.62C128.269 184.62 130.369 184.13 132.279 183.26C132.569 184.97 132.599 186.78 132.319 188.62C131.079 196.86 124.249 202.66 117.069 201.57C115.719 201.37 114.459 200.93 113.299 200.3C114.109 198.89 114.749 197.33 115.149 195.64Z" stroke="#3B65EE" stroke-width="2.5" stroke-miterlimit="10" stroke-linecap="round" stroke-linejoin="round"/>
<path d="M101.59 186.89C101.54 186.96 101.49 187.03 101.43 187.1C104.06 189.16 107.27 190.39 110.76 190.39C112.4 190.39 113.99 190.23 115.48 189.73C115.71 191.62 115.6 193.52 115.13 195.53C113.24 203.64 105.97 208.88 98.9001 207.23C92.8601 205.82 88.9401 199.84 89.0901 193.08C94.1101 193.05 98.5801 190.65 101.59 186.89Z" stroke="#3B65EE" stroke-width="2.5" stroke-miterlimit="10" stroke-linecap="round" stroke-linejoin="round"/>
<path d="M89.0997 193.07C89.0797 193.07 89.0498 193.07 89.0298 193.07C89.0098 193.07 88.9798 193.07 88.9598 193.07C89.1098 199.51 85.5598 205.22 80.0098 206.98C82.3498 209.48 85.5298 211.03 89.0298 211.03C92.5398 211.03 95.7098 209.48 98.0598 206.98C92.5098 205.22 88.9597 199.51 89.0997 193.07Z" stroke="#3B65EE" stroke-width="2.5" stroke-miterlimit="10" stroke-linecap="round" stroke-linejoin="round"/>
<path d="M98.05 58.8596C95.71 56.3496 92.53 54.8096 89.02 54.8096C85.52 54.8096 82.34 56.3596 80 58.8596C85.54 60.6196 89.09 66.3296 88.95 72.7696C88.92 72.7696 88.89 72.7696 88.86 72.7796C88.92 72.7796 88.97 72.7696 89.03 72.7696C89.05 72.7696 89.08 72.7696 89.1 72.7696C88.95 66.3196 92.51 60.6096 98.05 58.8596Z" stroke="#3B65EE" stroke-width="2.5" stroke-miterlimit="10" stroke-linecap="round" stroke-linejoin="round"/>
<path d="M66.9989 75.4403C70.5689 75.4403 73.8489 76.7303 76.5089 78.8803C79.5089 75.1603 83.9589 72.7803 88.9489 72.7603C89.0989 65.9903 85.1789 60.0203 79.1389 58.6103C72.0689 56.9603 64.7989 62.2003 62.9089 70.3103C62.4489 72.2903 62.3489 74.2703 62.5689 76.1403C63.9789 75.6903 65.4589 75.4403 66.9989 75.4403Z" stroke="#3B65EE" stroke-width="2.5" stroke-miterlimit="10" stroke-linecap="round" stroke-linejoin="round"/>
</svg>
