<svg width="387" height="387" viewBox="0 0 387 387" fill="none" xmlns="http://www.w3.org/2000/svg">
<circle cx="193.5" cy="193.5" r="193.5" fill="#F13B4D"/>
<path d="M286.141 94.4314C301.649 94.4314 314.218 107.001 314.218 122.506V181.383C314.218 196.888 301.649 209.458 286.141 209.458C270.638 209.458 258.07 196.888 258.07 181.383V122.506C258.07 107.001 270.638 94.4314 286.141 94.4314Z" fill="white"/>
<path d="M74.2354 195.876C74.2354 203.191 78.0948 209.565 83.8651 213.194C77.8675 216.967 73.9214 223.725 74.257 231.424C74.7388 242.464 84.1519 251.007 95.2052 251.007C95.2052 251.007 157.909 251.487 158.093 251.487C159.436 251.487 160.556 252.706 160.318 254.128C155.998 279.989 158.245 298.968 162.591 312.503C165.422 321.325 173.861 327.258 183.106 326.624C183.242 326.615 183.377 326.605 183.512 326.596C190.116 326.067 194.907 319.99 193.83 313.444C192.801 307.14 199.578 269.287 200.347 265.527C204.022 247.53 213.251 230.967 226.962 218.305L232.879 212.846C235.071 210.821 235.098 204.862 235.098 204.862V111.331C235.098 108.443 232.76 106.1 229.869 106.1H118.627C107.368 106.1 97.863 114.989 97.6681 126.25C97.5761 132.009 99.8604 137.241 103.612 141.024C93.6463 142.425 85.949 150.892 85.949 161.241C85.949 166.866 88.2225 171.963 91.9033 175.659C81.938 177.061 74.2354 185.528 74.2354 195.876Z" fill="white"/>
</svg>
