<svg width="161" height="102" viewBox="0 0 161 102" fill="none" xmlns="http://www.w3.org/2000/svg">
<g clip-path="url(#clip0_9_95)">
<path d="M0.839966 40.14L99.48 9.59998C99.48 9.59998 139.64 13.17 147.94 40.14H0.839966Z" fill="white" stroke="#3B65EE" stroke-width="1.69" stroke-linecap="round" stroke-linejoin="round"/>
<path d="M99.48 9.59998C99.48 9.59998 105.94 -2.29002 114.94 1.63998C114.94 1.63998 140.23 2.70999 145.57 19.04C145.57 19.04 162.11 20.95 159.6 37.71C159.6 37.71 157.82 55.03 145.65 52.5L147.94 40.14C147.94 40.14 141.91 14.18 99.48 9.59998Z" fill="white" stroke="#3B65EE" stroke-width="1.69" stroke-linecap="round" stroke-linejoin="round"/>
<path d="M150.22 38.32C151.32 35.93 155.75 35.4 156.46 38.32C154.16 37.55 152.69 38.25 150.22 38.32Z" fill="#3B65EE"/>
<path d="M0.839966 40.14L1.11997 83.67L133.07 101.06C133.07 101.06 136.4 100.64 137.18 98.07C137.96 95.5 147.93 40.14 147.93 40.14H0.839966Z" fill="white" stroke="#3B65EE" stroke-width="1.69" stroke-linecap="round" stroke-linejoin="round"/>
<path d="M0.889966 46.37L145.65 52.5L147.94 40.14H0.839966L0.889966 46.37Z" fill="white" stroke="#3B65EE" stroke-width="1.69" stroke-linecap="round" stroke-linejoin="round"/>
<path opacity="0.2" d="M0.839966 40.14L1.11997 83.67L133.07 101.06C133.07 101.06 136.4 100.64 137.18 98.07C137.96 95.5 147.93 40.14 147.93 40.14H0.839966Z" fill="#3B65EE"/>
<path opacity="0.2" d="M102.85 5.10001C102.85 5.10001 109.98 2.66001 111.75 5.10001C113.52 7.54001 139.38 9.79001 142.19 20.47C142.19 20.47 152.68 27.39 153.34 37.14C153.34 37.14 159.95 37.09 158.38 43.11C156.81 49.13 150.8 54.19 145.65 52.51L147.94 40.15C147.94 40.15 146.69 17.53 102.85 10.01L99.48 9.61001C99.48 9.61001 102.85 4.92001 102.85 5.11001V5.10001Z" fill="#3B65EE"/>
<path d="M33.4399 67.12C34.2186 67.12 34.8499 66.4887 34.8499 65.71C34.8499 64.9313 34.2186 64.3 33.4399 64.3C32.6612 64.3 32.0299 64.9313 32.0299 65.71C32.0299 66.4887 32.6612 67.12 33.4399 67.12Z" fill="#3B65EE"/>
<path d="M66.5999 60.38C67.3787 60.38 68.0099 59.7487 68.0099 58.97C68.0099 58.1913 67.3787 57.56 66.5999 57.56C65.8212 57.56 65.1899 58.1913 65.1899 58.97C65.1899 59.7487 65.8212 60.38 66.5999 60.38Z" fill="#3B65EE"/>
<path d="M53.68 74.43C54.4587 74.43 55.09 73.7987 55.09 73.02C55.09 72.2413 54.4587 71.61 53.68 71.61C52.9013 71.61 52.27 72.2413 52.27 73.02C52.27 73.7987 52.9013 74.43 53.68 74.43Z" fill="#3B65EE"/>
<path d="M86.37 14.33C84.69 14.66 78.59 16.21 80.1 21.17C80.19 21.46 79.97 21.76 79.66 21.74C77.62 21.6 71.66 21.59 72.53 26.62C72.55 26.75 72.64 26.87 72.76 26.93C74.42 27.81 87.01 33.88 108.48 28.15C108.64 28.11 108.77 27.98 108.8 27.83C109.11 26.29 110.32 18.32 101.28 19.25C101.11 19.27 100.94 19.2 100.86 19.05C100.35 18.22 98.33 15.32 94.21 14.25C90.92 13.4 92.25 11.97 93.44 11.13C93.77 10.9 93.62 10.38 93.21 10.36C90.84 10.24 86.18 10.42 86.7 13.82C86.73 14.05 86.6 14.27 86.37 14.32V14.33Z" fill="white" stroke="#3B65EE" stroke-width="1.12" stroke-miterlimit="10"/>
<path d="M85.49 21.8C85.49 21.8 91.95 21.8 95.83 20.54Z" fill="white"/>
<path d="M85.49 21.8C88.86 20.69 92.3 20.5 95.83 20.54C92.85 22.54 88.88 22.78 85.49 21.8Z" fill="#3B65EE"/>
<path opacity="0.2" d="M77.16 28.67C77.16 28.67 75.8 24.95 83.55 24.95C91.3 24.95 83.55 19.92 87.43 18.67C91.31 17.42 94.91 18.67 96.34 21.81C97.77 24.95 99.06 22.44 101.64 23.69C104.22 24.94 106.13 25.44 105.18 28.96C105.18 28.96 84.98 32.39 77.16 28.67Z" fill="#3B65EE"/>
</g>
<defs>
<clipPath id="clip0_9_95">
<rect width="160.7" height="101.9" fill="white"/>
</clipPath>
</defs>
</svg>
