<svg width="381" height="509" viewBox="0 0 381 509" fill="none" xmlns="http://www.w3.org/2000/svg">
<path d="M355.5 318.33C344.78 317.45 335.5 324.69 335.45 333.98L335.13 395.65L372.74 351.42C383.84 338.37 374.19 319.86 355.5 318.33ZM363.79 343.8L347.06 363.47L347.21 334.04C347.21 333.14 347.84 332.38 348.36 331.91C349.67 330.71 351.64 330.03 353.74 330.03C354 330.03 354.27 330.04 354.54 330.06C360.57 330.55 363.98 333.78 365.16 336.64C366.19 339.11 365.73 341.52 363.79 343.8Z" fill="white" stroke="#3B65EE" stroke-width="2.5" stroke-miterlimit="10" stroke-linecap="round" stroke-linejoin="round"/>
<path d="M298.05 351.41L335.66 395.64L335.34 333.97C335.29 324.68 326.02 317.44 315.29 318.32C296.61 319.86 286.96 338.37 298.05 351.41ZM305.64 336.63C306.82 333.77 310.23 330.54 316.26 330.05C316.53 330.03 316.79 330.02 317.06 330.02C319.16 330.02 321.12 330.7 322.44 331.9C322.96 332.38 323.59 333.14 323.59 334.03L323.74 363.46L307.01 343.79C305.08 341.52 304.61 339.11 305.64 336.63Z" fill="white" stroke="#3B65EE" stroke-width="2.5" stroke-miterlimit="10" stroke-linecap="round" stroke-linejoin="round"/>
<path d="M291.252 488.684L379.542 488.684L379.542 360.184L291.252 360.184L291.252 488.684Z" fill="#D1DAED" stroke="#3B65EE" stroke-width="2.5" stroke-miterlimit="10" stroke-linecap="round" stroke-linejoin="round"/>
<path d="M379.55 456.88L339.9 488.68H291.26V482.51L379.55 411.71V456.88Z" fill="#E5ECF9" stroke="#3B65EE" stroke-width="2.5" stroke-miterlimit="10" stroke-linecap="round" stroke-linejoin="round"/>
<path d="M379.55 360.17V364.06L291.26 434.86V389.69L328.06 360.17H379.55Z" fill="#E5ECF9" stroke="#3B65EE" stroke-width="2.5" stroke-miterlimit="10" stroke-linecap="round" stroke-linejoin="round"/>
<path d="M214.47 473.71H131.01V507.42H214.47V473.71Z" fill="#D1DAED" stroke="#3B65EE" stroke-width="2.5" stroke-miterlimit="10" stroke-linecap="round" stroke-linejoin="round"/>
<path d="M301.59 424.25L308.41 445.21C311.48 454.64 318.15 462.51 327.01 466.95C334.77 470.84 342 476.23 336.21 481.11C325.6 490.06 285.2 471.78 285.2 471.78C285.2 471.78 294.2 494.82 271.75 497.65C249.29 500.48 243.35 473.69 243.35 473.69C243.35 473.69 237.38 493.02 212.9 495.95C188.43 498.88 167.15 479.02 167.15 479.02C167.15 479.02 152.36 493.86 128.03 493.86C103.7 493.86 99.1098 476.35 99.1098 476.35C99.1098 476.35 69.8698 495.28 50.7698 490.43C31.6698 485.58 44.2998 468.74 44.2998 468.74C44.2998 468.74 11.7698 481.52 2.59979 473.69C-2.96021 468.95 10.4998 460.94 21.9698 455.36C31.1198 450.91 38.0598 442.95 41.1998 433.28L47.3498 414.32L206.82 397.57L301.59 424.25Z" fill="#D1DAED" stroke="#3B65EE" stroke-width="2.5" stroke-miterlimit="10" stroke-linecap="round" stroke-linejoin="round"/>
<path d="M314.37 456.5C311.78 453.14 309.75 449.32 308.41 445.21L301.59 424.25L206.81 397.57L48.2199 414.22C47.7799 414.79 47.3199 415.35 46.8399 415.89L41.2 433.27C39.3 439.11 36.0099 444.33 31.6899 448.52C49.7499 445.09 72.2 435.86 72.2 435.86C72.2 435.86 75.02 457.27 94.42 458.09C113.83 458.91 135.84 432.83 135.84 432.83C135.84 432.83 127.46 463.54 147.85 464.75C168.24 465.96 186.26 434.11 186.26 434.11C186.26 434.11 200.08 471.55 220.03 471.55C239.97 471.55 252.02 433.83 252.02 433.83C252.02 433.83 291.1 452.73 314.37 456.5Z" fill="#B0C3EA" stroke="#B0C3EA" stroke-width="2.5" stroke-miterlimit="10" stroke-linecap="round" stroke-linejoin="round"/>
<path d="M301.59 424.25L308.41 445.21C311.48 454.64 318.15 462.51 327.01 466.95C334.77 470.84 342 476.23 336.21 481.11C325.6 490.06 285.2 471.78 285.2 471.78C285.2 471.78 294.2 494.82 271.75 497.65C249.29 500.48 243.35 473.69 243.35 473.69C243.35 473.69 237.38 493.02 212.9 495.95C188.43 498.88 167.15 479.02 167.15 479.02C167.15 479.02 152.36 493.86 128.03 493.86C103.7 493.86 99.1098 476.35 99.1098 476.35C99.1098 476.35 69.8698 495.28 50.7698 490.43C31.6698 485.58 44.2998 468.74 44.2998 468.74C44.2998 468.74 11.7698 481.52 2.59979 473.69C-2.96021 468.95 10.4998 460.94 21.9698 455.36C31.1198 450.91 38.0598 442.95 41.1998 433.28L47.3498 414.32L206.82 397.57L301.59 424.25Z" stroke="#3B65EE" stroke-width="2.5" stroke-miterlimit="10" stroke-linecap="round" stroke-linejoin="round"/>
<path d="M285.09 373.55L292.5 396.3C294.26 401.72 297.57 406.5 302.02 410.05C314.53 420.03 339.12 441.45 328.46 447.72C314.4 455.98 252.02 425.83 252.02 425.83C252.02 425.83 239.97 463.55 220.03 463.55C200.09 463.55 186.26 426.11 186.26 426.11C186.26 426.11 168.25 457.95 147.85 456.75C127.45 455.55 135.84 424.83 135.84 424.83C135.84 424.83 113.83 450.9 94.4198 450.09C75.0098 449.28 72.1898 427.86 72.1898 427.86C72.1898 427.86 17.8698 450.19 10.2298 438.3C5.16982 430.42 23.6898 420.75 36.7598 415.12C44.4398 411.82 50.2998 405.34 52.8898 397.4L55.0898 390.63L136.01 351.52L285.09 373.55Z" fill="#D1DAED" stroke="#3B65EE" stroke-width="2.5" stroke-miterlimit="10" stroke-linecap="round" stroke-linejoin="round"/>
<path d="M260.77 382.65C260.77 382.65 278.38 392.15 292.28 395.64L285.09 373.56L136.02 351.52L55.0997 390.63L52.8997 397.4C51.9797 400.24 50.6297 402.89 48.9297 405.27C68.1497 402.97 95.0597 388.54 95.0597 388.54C95.0597 388.54 93.9497 408.61 112.95 408.61C131.95 408.61 151.34 377.94 151.34 377.94C151.34 377.94 155.56 408.61 176.26 408.61C196.96 408.61 214.31 378.61 214.31 378.61C214.31 378.61 222.33 401.5 239.23 403.53C256.12 405.56 260.77 382.65 260.77 382.65Z" fill="#B0C3EA" stroke="#B0C3EA" stroke-width="2.5" stroke-miterlimit="10" stroke-linecap="round" stroke-linejoin="round"/>
<path d="M285.09 373.55L292.5 396.3C294.26 401.72 297.57 406.5 302.02 410.05C314.53 420.03 339.12 441.45 328.46 447.72C314.4 455.98 252.02 425.83 252.02 425.83C252.02 425.83 239.97 463.55 220.03 463.55C200.09 463.55 186.26 426.11 186.26 426.11C186.26 426.11 168.25 457.95 147.85 456.75C127.45 455.55 135.84 424.83 135.84 424.83C135.84 424.83 113.83 450.9 94.4198 450.09C75.0098 449.28 72.1898 427.86 72.1898 427.86C72.1898 427.86 17.8698 450.19 10.2298 438.3C5.16982 430.42 23.6898 420.75 36.7598 415.12C44.4398 411.82 50.2998 405.34 52.8898 397.4L55.0898 390.63L136.01 351.52L285.09 373.55Z" stroke="#3B65EE" stroke-width="2.5" stroke-miterlimit="10" stroke-linecap="round" stroke-linejoin="round"/>
<path d="M66.37 355.98C62.95 366.5 55.27 375.04 45.29 379.8C35.62 384.41 26.46 390.75 35.17 395.66C50.63 404.37 95.06 380.53 95.06 380.53C95.06 380.53 93.95 400.6 112.95 400.6C131.95 400.6 151.34 369.93 151.34 369.93C151.34 369.93 155.56 400.6 176.26 400.6C196.96 400.6 214.31 370.6 214.31 370.6C214.31 370.6 222.33 393.49 239.23 395.52C256.13 397.55 260.78 374.64 260.78 374.64C260.78 374.64 300.18 395.89 307.6 386.49C312.15 380.73 300.81 371.46 291.35 365.16C283.9 360.2 278.37 352.86 275.59 344.36L269.24 324.86L133.37 312.3L73.85 333L66.37 355.98Z" fill="#D1DAED" stroke="#3B65EE" stroke-width="2.5" stroke-miterlimit="10" stroke-linecap="round" stroke-linejoin="round"/>
<path d="M236.19 355.71C252.98 355.71 253.45 337.19 253.45 337.19C253.45 337.19 264.96 343.57 276.12 345.89C275.93 345.39 275.76 344.88 275.59 344.37L269.24 324.87L133.37 312.31L73.85 333L66.73 354.87C81.1 351.72 99.22 339.21 99.22 339.21C99.22 339.21 100.45 353.02 119.33 354.36C138.21 355.71 151.99 327.08 151.99 327.08C151.99 327.08 164.73 342.62 181.66 342.53C198.58 342.44 208.23 328.43 208.23 328.43C208.23 328.43 219.4 355.71 236.19 355.71Z" fill="#B0C3EA" stroke="#B0C3EA" stroke-width="2.5" stroke-miterlimit="10" stroke-linecap="round" stroke-linejoin="round"/>
<path d="M66.37 355.98C62.95 366.5 55.27 375.04 45.29 379.8C35.62 384.41 26.46 390.75 35.17 395.66C50.63 404.37 95.06 380.53 95.06 380.53C95.06 380.53 93.95 400.6 112.95 400.6C131.95 400.6 151.34 369.93 151.34 369.93C151.34 369.93 155.56 400.6 176.26 400.6C196.96 400.6 214.31 370.6 214.31 370.6C214.31 370.6 222.33 393.49 239.23 395.52C256.13 397.55 260.78 374.64 260.78 374.64C260.78 374.64 300.18 395.89 307.6 386.49C312.15 380.73 300.81 371.46 291.35 365.16C283.9 360.2 278.37 352.86 275.59 344.36L269.24 324.86L133.37 312.3L73.85 333L66.37 355.98Z" stroke="#3B65EE" stroke-width="2.5" stroke-miterlimit="10" stroke-linecap="round" stroke-linejoin="round"/>
<path d="M83.9299 302.06C81.0799 310.82 75.5299 318.44 68.1199 323.92C58.2799 331.2 46.6599 341.74 54.5799 346.18C67.2599 353.28 99.2299 331.21 99.2299 331.21C99.2299 331.21 100.46 345.02 119.34 346.36C138.22 347.71 152 319.08 152 319.08C152 319.08 164.74 334.62 181.67 334.53C198.6 334.44 208.24 320.43 208.24 320.43C208.24 320.43 219.4 347.71 236.19 347.71C252.98 347.71 253.45 329.19 253.45 329.19C253.45 329.19 283.91 346.09 293.78 334.92C299.65 328.27 287.61 319.1 276.89 312.76C267.6 307.26 260.67 298.53 257.33 288.26L251.32 269.81L160.38 249.89L91.89 277.61L83.9299 302.06Z" fill="#D1DAED" stroke="#3B65EE" stroke-width="2.5" stroke-miterlimit="10" stroke-linecap="round" stroke-linejoin="round"/>
<path d="M255.5 282.65L251.32 269.81L160.38 249.89L91.8898 277.61L85.3198 297.79C97.5598 294.28 109.9 288.27 109.9 288.27C109.9 288.27 111.64 302.78 130.16 302.78C148.68 302.78 153.15 277.05 153.15 277.05C153.15 277.05 159.82 298.13 174.09 298.13C188.36 298.13 200.44 274.54 200.44 274.54C200.44 274.54 211.86 296.87 224.31 295.89C236.76 294.91 241.16 278.19 241.16 278.19C241.16 278.19 247.57 280.5 255.5 282.65Z" fill="#B0C3EA" stroke="#B0C3EA" stroke-width="2.5" stroke-miterlimit="10" stroke-linecap="round" stroke-linejoin="round"/>
<path d="M83.9299 302.06C81.0799 310.82 75.5299 318.44 68.1199 323.92C58.2799 331.2 46.6599 341.74 54.5799 346.18C67.2599 353.28 99.2299 331.21 99.2299 331.21C99.2299 331.21 100.46 345.02 119.34 346.36C138.22 347.71 152 319.08 152 319.08C152 319.08 164.74 334.62 181.67 334.53C198.6 334.44 208.24 320.43 208.24 320.43C208.24 320.43 219.4 347.71 236.19 347.71C252.98 347.71 253.45 329.19 253.45 329.19C253.45 329.19 283.91 346.09 293.78 334.92C299.65 328.27 287.61 319.1 276.89 312.76C267.6 307.26 260.67 298.53 257.33 288.26L251.32 269.81L160.38 249.89L91.89 277.61L83.9299 302.06Z" stroke="#3B65EE" stroke-width="2.5" stroke-miterlimit="10" stroke-linecap="round" stroke-linejoin="round"/>
<path d="M168.75 211.83L105.43 235.98L101.39 248.38C97.9699 258.89 90.3799 267.53 80.3999 272.3C69.6499 277.43 58.0199 284.59 63.0799 289.79C71.8599 298.8 109.89 280.27 109.89 280.27C109.89 280.27 111.63 294.78 130.15 294.78C148.67 294.78 153.14 269.05 153.14 269.05C153.14 269.05 159.81 290.13 174.08 290.13C188.35 290.13 200.43 266.54 200.43 266.54C200.43 266.54 211.85 288.87 224.3 287.89C236.75 286.91 241.15 270.19 241.15 270.19C241.15 270.19 280.8 284.54 285.07 275.08C287.58 269.52 273.27 261.81 261.02 256.39C250.54 251.75 242.53 242.89 238.99 231.99L237.33 226.9L168.75 211.83Z" fill="#D1DAED" stroke="#3B65EE" stroke-width="2.5" stroke-miterlimit="10" stroke-linecap="round" stroke-linejoin="round"/>
<path d="M239 231.98L237.34 226.89L168.75 211.83L105.43 235.98L101.53 247.97C113.64 246.41 126.95 242.16 126.95 242.16C126.95 242.16 127.13 254.02 141.02 254.02C154.92 254.02 182.25 236.96 182.25 236.96C182.25 236.96 206.48 255.3 221.3 253C236.11 250.69 227.02 237.63 227.02 237.63C227.02 237.63 234.38 239.08 242.51 239.83C241.09 237.37 239.9 234.74 239 231.98Z" fill="#B0C3EA" stroke="#B0C3EA" stroke-width="2.5" stroke-miterlimit="10" stroke-linecap="round" stroke-linejoin="round"/>
<path d="M168.75 211.83L105.43 235.98L101.39 248.38C97.9699 258.89 90.3799 267.53 80.3999 272.3C69.6499 277.43 58.0199 284.59 63.0799 289.79C71.8599 298.8 109.89 280.27 109.89 280.27C109.89 280.27 111.63 294.78 130.15 294.78C148.67 294.78 153.14 269.05 153.14 269.05C153.14 269.05 159.81 290.13 174.08 290.13C188.35 290.13 200.43 266.54 200.43 266.54C200.43 266.54 211.85 288.87 224.3 287.89C236.75 286.91 241.15 270.19 241.15 270.19C241.15 270.19 280.8 284.54 285.07 275.08C287.58 269.52 273.27 261.81 261.02 256.39C250.54 251.75 242.53 242.89 238.99 231.99L237.33 226.9L168.75 211.83Z" stroke="#3B65EE" stroke-width="2.5" stroke-miterlimit="10" stroke-linecap="round" stroke-linejoin="round"/>
<path d="M171.22 162.29L122.82 182.59L117.66 198.44C114.39 208.5 107.42 216.99 98.0998 221.98C88.9099 226.9 79.3498 233.48 83.6298 237.84C91.2398 245.59 126.97 234.16 126.97 234.16C126.97 234.16 127.15 246.02 141.04 246.02C154.93 246.02 182.27 228.96 182.27 228.96C182.27 228.96 206.5 247.3 221.32 245C236.14 242.7 227.04 229.63 227.04 229.63C227.04 229.63 257.45 235.61 262.92 229.63C265.52 226.79 259 223.33 251.44 220.48C239.71 216.06 230.69 206.45 226.81 194.53L221.31 177.64L171.22 162.29Z" fill="#D1DAED" stroke="#3B65EE" stroke-width="2.5" stroke-miterlimit="10" stroke-linecap="round" stroke-linejoin="round"/>
<path d="M221.31 177.63L171.22 162.29L122.82 182.59L118.89 194.67C128.26 191.6 137.28 187.27 137.28 187.27C137.28 187.27 141.26 197.44 156.17 197.12C171.08 196.8 181.08 183.43 181.08 183.43C181.08 183.43 199.3 200.4 209 198.76C218.7 197.12 213.65 188.36 213.65 188.36C213.65 188.36 219.39 190.53 226.13 192.43L221.31 177.63Z" fill="#B0C3EA" stroke="#B0C3EA" stroke-width="2.5" stroke-miterlimit="10" stroke-linecap="round" stroke-linejoin="round"/>
<path d="M171.22 162.29L122.82 182.59L117.66 198.44C114.39 208.5 107.42 216.99 98.0998 221.98C88.9099 226.9 79.3498 233.48 83.6298 237.84C91.2398 245.59 126.97 234.16 126.97 234.16C126.97 234.16 127.15 246.02 141.04 246.02C154.93 246.02 182.27 228.96 182.27 228.96C182.27 228.96 206.5 247.3 221.32 245C236.14 242.7 227.04 229.63 227.04 229.63C227.04 229.63 257.45 235.61 262.92 229.63C265.52 226.79 259 223.33 251.44 220.48C239.71 216.06 230.69 206.45 226.81 194.53L221.31 177.64L171.22 162.29Z" stroke="#3B65EE" stroke-width="2.5" stroke-miterlimit="10" stroke-linecap="round" stroke-linejoin="round"/>
<path d="M176.69 105.08L144.39 116.33L138 135.94C133.52 149.71 124.88 161.76 113.27 170.43C104.42 177.04 96.0997 184.64 99.2197 188.02C105.31 194.61 137.27 179.26 137.27 179.26C137.27 179.26 141.25 189.43 156.16 189.11C171.07 188.79 181.07 175.42 181.07 175.42C181.07 175.42 199.29 192.39 208.99 190.75C218.69 189.11 213.64 180.35 213.64 180.35C213.64 180.35 240.5 190.5 246.21 186.1C249.21 183.79 240.3 175.76 231.16 168.65C220.06 160.02 211.75 148.31 207.4 134.94L201.77 117.64L176.69 105.08Z" fill="#D1DAED" stroke="#3B65EE" stroke-width="2.5" stroke-miterlimit="10" stroke-linecap="round" stroke-linejoin="round"/>
<path d="M199.75 127.78C199.75 127.78 202.36 128.82 205.77 129.88L201.79 117.64L176.7 105.07L144.4 116.32L139.22 132.24C145.03 129.61 149.91 126.81 149.91 126.81C149.91 126.81 149.22 141.33 156.44 141.33C163.66 141.33 173.28 126.08 173.28 126.08C173.28 126.08 188.12 141.33 195.16 141.33C202.19 141.33 199.75 127.78 199.75 127.78Z" fill="#B0C3EA" stroke="#B0C3EA" stroke-width="2.5" stroke-miterlimit="10" stroke-linecap="round" stroke-linejoin="round"/>
<path d="M176.69 105.08L144.39 116.33L138 135.94C133.52 149.71 124.88 161.76 113.27 170.43C104.42 177.04 96.0997 184.64 99.2197 188.02C105.31 194.61 137.27 179.26 137.27 179.26C137.27 179.26 141.25 189.43 156.16 189.11C171.07 188.79 181.07 175.42 181.07 175.42C181.07 175.42 199.29 192.39 208.99 190.75C218.69 189.11 213.64 180.35 213.64 180.35C213.64 180.35 240.5 190.5 246.21 186.1C249.21 183.79 240.3 175.76 231.16 168.65C220.06 160.02 211.75 148.31 207.4 134.94L201.77 117.64L176.69 105.08Z" stroke="#3B65EE" stroke-width="2.5" stroke-miterlimit="10" stroke-linecap="round" stroke-linejoin="round"/>
<path d="M172.87 28.8199L157.72 75.3499C155.16 83.2299 150.78 90.3899 144.94 96.2599C134.06 107.22 117.37 125.08 121.19 127.93C126.76 132.09 149.88 118.8 149.88 118.8C149.88 118.8 149.19 133.32 156.41 133.32C163.63 133.32 173.25 118.07 173.25 118.07C173.25 118.07 188.09 133.32 195.13 133.32C202.17 133.32 199.73 119.77 199.73 119.77C199.73 119.77 218.54 127.28 221.29 122.61C222.67 120.27 216.42 114.85 209.83 110C200.86 103.4 194.13 94.2099 190.69 83.6199L172.87 28.8199Z" fill="#D1DAED" stroke="#3B65EE" stroke-width="2.5" stroke-miterlimit="10" stroke-linecap="round" stroke-linejoin="round"/>
<path d="M181.94 56.6899L172.87 28.8199L163.8 56.6899H181.94Z" fill="#E5ECF9" stroke="#3B65EE" stroke-width="2.5" stroke-miterlimit="10" stroke-linecap="round" stroke-linejoin="round"/>
<path d="M166.15 49.4799L172.91 44.0599L179.57 49.3999L172.87 28.8199L166.15 49.4799Z" fill="#D1DAED" stroke="#D1DAED" stroke-width="2.5" stroke-miterlimit="10" stroke-linecap="round" stroke-linejoin="round"/>
<path d="M181.94 56.6899L172.87 28.8199L163.8 56.6899H181.94Z" stroke="#3B65EE" stroke-width="2.5" stroke-miterlimit="10" stroke-linecap="round" stroke-linejoin="round"/>
<path d="M198.92 18.77H178.61L172.91 1.46997L167.21 18.77H146.9L162.65 29.49L157.16 48.72L172.91 36.08L188.66 48.72L183.16 29.49L198.92 18.77Z" fill="white" stroke="#3B65EE" stroke-width="2.5" stroke-miterlimit="10" stroke-linecap="round" stroke-linejoin="round"/>
<path d="M145.08 160.13C147.317 160.13 149.13 158.317 149.13 156.08C149.13 153.843 147.317 152.03 145.08 152.03C142.843 152.03 141.03 153.843 141.03 156.08C141.03 158.317 142.843 160.13 145.08 160.13Z" fill="white" stroke="#3B65EE" stroke-width="2.5" stroke-miterlimit="10" stroke-linecap="round" stroke-linejoin="round"/>
<path d="M189.9 108.51C192.136 108.51 193.95 106.697 193.95 104.46C193.95 102.223 192.136 100.41 189.9 100.41C187.663 100.41 185.85 102.223 185.85 104.46C185.85 106.697 187.663 108.51 189.9 108.51Z" fill="white" stroke="#3B65EE" stroke-width="2.5" stroke-miterlimit="10" stroke-linecap="round" stroke-linejoin="round"/>
<path d="M195.91 168.62C198.147 168.62 199.96 166.807 199.96 164.57C199.96 162.333 198.147 160.52 195.91 160.52C193.673 160.52 191.86 162.333 191.86 164.57C191.86 166.807 193.673 168.62 195.91 168.62Z" fill="white" stroke="#3B65EE" stroke-width="2.5" stroke-miterlimit="10" stroke-linecap="round" stroke-linejoin="round"/>
<path d="M159.85 217.49C162.087 217.49 163.9 215.677 163.9 213.44C163.9 211.203 162.087 209.39 159.85 209.39C157.613 209.39 155.8 211.203 155.8 213.44C155.8 215.677 157.613 217.49 159.85 217.49Z" fill="white" stroke="#3B65EE" stroke-width="2.5" stroke-miterlimit="10" stroke-linecap="round" stroke-linejoin="round"/>
<path d="M185.72 203.38C187.957 203.38 189.77 201.567 189.77 199.33C189.77 197.093 187.957 195.28 185.72 195.28C183.483 195.28 181.67 197.093 181.67 199.33C181.67 201.567 183.483 203.38 185.72 203.38Z" fill="white" stroke="#3B65EE" stroke-width="2.5" stroke-miterlimit="10" stroke-linecap="round" stroke-linejoin="round"/>
<path d="M129.01 265.45C131.247 265.45 133.06 263.637 133.06 261.4C133.06 259.163 131.247 257.35 129.01 257.35C126.773 257.35 124.96 259.163 124.96 261.4C124.96 263.637 126.773 265.45 129.01 265.45Z" fill="white" stroke="#3B65EE" stroke-width="2.5" stroke-miterlimit="10" stroke-linecap="round" stroke-linejoin="round"/>
<path d="M227.54 263.49C229.776 263.49 231.59 261.677 231.59 259.44C231.59 257.203 229.776 255.39 227.54 255.39C225.303 255.39 223.49 257.203 223.49 259.44C223.49 261.677 225.303 263.49 227.54 263.49Z" fill="white" stroke="#3B65EE" stroke-width="2.5" stroke-miterlimit="10" stroke-linecap="round" stroke-linejoin="round"/>
<path d="M250.86 305.56C253.096 305.56 254.91 303.747 254.91 301.51C254.91 299.273 253.096 297.46 250.86 297.46C248.623 297.46 246.81 299.273 246.81 301.51C246.81 303.747 248.623 305.56 250.86 305.56Z" fill="white" stroke="#3B65EE" stroke-width="2.5" stroke-miterlimit="10" stroke-linecap="round" stroke-linejoin="round"/>
<path d="M233.02 325.69C235.257 325.69 237.07 323.877 237.07 321.64C237.07 319.403 235.257 317.59 233.02 317.59C230.783 317.59 228.97 319.403 228.97 321.64C228.97 323.877 230.783 325.69 233.02 325.69Z" fill="white" stroke="#3B65EE" stroke-width="2.5" stroke-miterlimit="10" stroke-linecap="round" stroke-linejoin="round"/>
<path d="M174.75 305.56C176.986 305.56 178.8 303.747 178.8 301.51C178.8 299.273 176.986 297.46 174.75 297.46C172.513 297.46 170.7 299.273 170.7 301.51C170.7 303.747 172.513 305.56 174.75 305.56Z" fill="white" stroke="#3B65EE" stroke-width="2.5" stroke-miterlimit="10" stroke-linecap="round" stroke-linejoin="round"/>
<path d="M112.02 325.95C114.256 325.95 116.07 324.137 116.07 321.9C116.07 319.663 114.256 317.85 112.02 317.85C109.783 317.85 107.97 319.663 107.97 321.9C107.97 324.137 109.783 325.95 112.02 325.95Z" fill="white" stroke="#3B65EE" stroke-width="2.5" stroke-miterlimit="10" stroke-linecap="round" stroke-linejoin="round"/>
<path d="M92.6896 353.92C94.9264 353.92 96.7396 352.107 96.7396 349.87C96.7396 347.633 94.9264 345.82 92.6896 345.82C90.4529 345.82 88.6396 347.633 88.6396 349.87C88.6396 352.107 90.4529 353.92 92.6896 353.92Z" fill="white" stroke="#3B65EE" stroke-width="2.5" stroke-miterlimit="10" stroke-linecap="round" stroke-linejoin="round"/>
<path d="M116.07 385.27C118.306 385.27 120.12 383.457 120.12 381.22C120.12 378.983 118.306 377.17 116.07 377.17C113.833 377.17 112.02 378.983 112.02 381.22C112.02 383.457 113.833 385.27 116.07 385.27Z" fill="white" stroke="#3B65EE" stroke-width="2.5" stroke-miterlimit="10" stroke-linecap="round" stroke-linejoin="round"/>
<path d="M173.96 377.17C176.196 377.17 178.01 375.357 178.01 373.12C178.01 370.883 176.196 369.07 173.96 369.07C171.723 369.07 169.91 370.883 169.91 373.12C169.91 375.357 171.723 377.17 173.96 377.17Z" fill="white" stroke="#3B65EE" stroke-width="2.5" stroke-miterlimit="10" stroke-linecap="round" stroke-linejoin="round"/>
<path d="M214.47 423.43C216.707 423.43 218.52 421.617 218.52 419.38C218.52 417.143 216.707 415.33 214.47 415.33C212.233 415.33 210.42 417.143 210.42 419.38C210.42 421.617 212.233 423.43 214.47 423.43Z" fill="white" stroke="#3B65EE" stroke-width="2.5" stroke-miterlimit="10" stroke-linecap="round" stroke-linejoin="round"/>
<path d="M159.23 423.3C161.466 423.3 163.28 421.487 163.28 419.25C163.28 417.013 161.466 415.2 159.23 415.2C156.993 415.2 155.18 417.013 155.18 419.25C155.18 421.487 156.993 423.3 159.23 423.3Z" fill="white" stroke="#3B65EE" stroke-width="2.5" stroke-miterlimit="10" stroke-linecap="round" stroke-linejoin="round"/>
<path d="M239.56 375.08C241.797 375.08 243.61 373.267 243.61 371.03C243.61 368.793 241.797 366.98 239.56 366.98C237.323 366.98 235.51 368.793 235.51 371.03C235.51 373.267 237.323 375.08 239.56 375.08Z" fill="white" stroke="#3B65EE" stroke-width="2.5" stroke-miterlimit="10" stroke-linecap="round" stroke-linejoin="round"/>
<path d="M271.59 399.51C273.826 399.51 275.64 397.697 275.64 395.46C275.64 393.223 273.826 391.41 271.59 391.41C269.353 391.41 267.54 393.223 267.54 395.46C267.54 397.697 269.353 399.51 271.59 399.51Z" fill="white" stroke="#3B65EE" stroke-width="2.5" stroke-miterlimit="10" stroke-linecap="round" stroke-linejoin="round"/>
<path d="M210.42 402.57C212.656 402.57 214.47 400.757 214.47 398.52C214.47 396.283 212.656 394.47 210.42 394.47C208.183 394.47 206.37 396.283 206.37 398.52C206.37 400.757 208.183 402.57 210.42 402.57Z" fill="white" stroke="#3B65EE" stroke-width="2.5" stroke-miterlimit="10" stroke-linecap="round" stroke-linejoin="round"/>
<path d="M266.87 460.12C269.107 460.12 270.92 458.307 270.92 456.07C270.92 453.833 269.107 452.02 266.87 452.02C264.633 452.02 262.82 453.833 262.82 456.07C262.82 458.307 264.633 460.12 266.87 460.12Z" fill="#E5ECF9" stroke="#3B65EE" stroke-width="2.5" stroke-miterlimit="10" stroke-linecap="round" stroke-linejoin="round"/>
<path d="M182.32 457.66C184.556 457.66 186.37 455.847 186.37 453.61C186.37 451.373 184.556 449.56 182.32 449.56C180.083 449.56 178.27 451.373 178.27 453.61C178.27 455.847 180.083 457.66 182.32 457.66Z" fill="white" stroke="#3B65EE" stroke-width="2.5" stroke-miterlimit="10" stroke-linecap="round" stroke-linejoin="round"/>
<path d="M63.09 448.72C65.3268 448.72 67.14 446.907 67.14 444.67C67.14 442.433 65.3268 440.62 63.09 440.62C60.8533 440.62 59.04 442.433 59.04 444.67C59.04 446.907 60.8533 448.72 63.09 448.72Z" fill="white" stroke="#3B65EE" stroke-width="2.5" stroke-miterlimit="10" stroke-linecap="round" stroke-linejoin="round"/>
<path d="M124.96 473.19C127.196 473.19 129.01 471.377 129.01 469.14C129.01 466.903 127.196 465.09 124.96 465.09C122.723 465.09 120.91 466.903 120.91 469.14C120.91 471.377 122.723 473.19 124.96 473.19Z" fill="white" stroke="#3B65EE" stroke-width="2.5" stroke-miterlimit="10" stroke-linecap="round" stroke-linejoin="round"/>
<path d="M90.3298 431.27C92.5665 431.27 94.3798 429.457 94.3798 427.22C94.3798 424.983 92.5665 423.17 90.3298 423.17C88.093 423.17 86.2798 424.983 86.2798 427.22C86.2798 429.457 88.093 431.27 90.3298 431.27Z" fill="white" stroke="#3B65EE" stroke-width="2.5" stroke-miterlimit="10" stroke-linecap="round" stroke-linejoin="round"/>
<path d="M41.1999 458.45C43.4367 458.45 45.2499 456.637 45.2499 454.4C45.2499 452.163 43.4367 450.35 41.1999 450.35C38.9632 450.35 37.1499 452.163 37.1499 454.4C37.1499 456.637 38.9632 458.45 41.1999 458.45Z" fill="white" stroke="#3B65EE" stroke-width="2.5" stroke-miterlimit="10" stroke-linecap="round" stroke-linejoin="round"/>
<path d="M171.51 283.76C173.747 283.76 175.56 281.947 175.56 279.71C175.56 277.473 173.747 275.66 171.51 275.66C169.273 275.66 167.46 277.473 167.46 279.71C167.46 281.947 169.273 283.76 171.51 283.76Z" fill="white" stroke="#3B65EE" stroke-width="2.5" stroke-miterlimit="10" stroke-linecap="round" stroke-linejoin="round"/>
<path d="M144.41 223.28C146.647 223.28 148.46 221.467 148.46 219.23C148.46 216.993 146.647 215.18 144.41 215.18C142.173 215.18 140.36 216.993 140.36 219.23C140.36 221.467 142.173 223.28 144.41 223.28Z" fill="white" stroke="#3B65EE" stroke-width="2.5" stroke-miterlimit="10" stroke-linecap="round" stroke-linejoin="round"/>
<path d="M169.8 105.46C172.037 105.46 173.85 103.647 173.85 101.41C173.85 99.1733 172.037 97.36 169.8 97.36C167.563 97.36 165.75 99.1733 165.75 101.41C165.75 103.647 167.563 105.46 169.8 105.46Z" fill="white" stroke="#3B65EE" stroke-width="2.5" stroke-miterlimit="10" stroke-linecap="round" stroke-linejoin="round"/>
<path d="M163.81 89.77C166.047 89.77 167.86 87.9567 167.86 85.72C167.86 83.4832 166.047 81.67 163.81 81.67C161.573 81.67 159.76 83.4832 159.76 85.72C159.76 87.9567 161.573 89.77 163.81 89.77Z" fill="white" stroke="#3B65EE" stroke-width="2.5" stroke-miterlimit="10" stroke-linecap="round" stroke-linejoin="round"/>
<path d="M86.6198 283.76C88.8566 283.76 90.6698 281.947 90.6698 279.71C90.6698 277.473 88.8566 275.66 86.6198 275.66C84.3831 275.66 82.5698 277.473 82.5698 279.71C82.5698 281.947 84.3831 283.76 86.6198 283.76Z" fill="white" stroke="#3B65EE" stroke-width="2.5" stroke-miterlimit="10" stroke-linecap="round" stroke-linejoin="round"/>
<path d="M259.79 356.18C246.76 356.18 228.04 354.82 207.36 349.04C172.03 339.16 124.37 313.92 98.02 249.77C97.54 248.61 97.7 247.29 98.42 246.27C99.14 245.25 100.35 244.68 101.59 244.74C102.19 244.77 162.08 247.65 192.69 214.56C206.84 199.26 212.68 178.45 210.08 152.65C207.17 153.31 204.27 153.64 201.38 153.64C187.1 153.64 173.16 145.56 160.48 129.77C148.46 114.8 141.83 98.3099 141.55 97.6199C140.81 95.7499 141.72 93.63 143.59 92.88C145.46 92.13 147.58 93.05 148.33 94.92C148.58 95.55 173.81 157.54 212.03 144.52C213.06 144.17 214.2 144.3 215.13 144.87C216.06 145.45 216.68 146.41 216.82 147.49C220.82 177.5 214.5 201.74 198.03 219.53C184.33 234.33 163.21 244.64 136.95 249.34C124.24 251.62 113.29 252.09 106.96 252.12C117.96 276.89 133.16 297.3 152.2 312.83C168.48 326.11 187.61 335.9 209.06 341.93C245.79 352.26 277.01 347.93 277.32 347.89C279.31 347.6 281.16 348.98 281.45 350.98C281.74 352.97 280.36 354.82 278.37 355.11C277.76 355.21 270.81 356.18 259.79 356.18Z" fill="white" stroke="#3B65EE" stroke-width="2.5" stroke-miterlimit="10" stroke-linecap="round" stroke-linejoin="round"/>
<path d="M198.84 338.71C195.97 337.7 193.14 336.63 190.36 335.48C187.82 337.05 185.23 338.57 182.58 340.02C185.43 341.31 188.25 342.5 191.03 343.58C193.69 342.02 196.29 340.39 198.84 338.71Z" fill="#D1DAED" stroke="#D1DAED" stroke-width="2.5" stroke-miterlimit="10" stroke-linecap="round" stroke-linejoin="round"/>
<path d="M259.79 356.18C246.76 356.18 228.04 354.82 207.36 349.04C172.03 339.16 124.37 313.92 98.02 249.77C97.54 248.61 97.7 247.29 98.42 246.27C99.14 245.25 100.35 244.68 101.59 244.74C102.19 244.77 162.08 247.65 192.69 214.56C206.84 199.26 212.68 178.45 210.08 152.65C207.17 153.31 204.27 153.64 201.38 153.64C187.1 153.64 173.16 145.56 160.48 129.77C148.46 114.8 141.83 98.3099 141.55 97.6199C140.81 95.7499 141.72 93.63 143.59 92.88C145.46 92.13 147.58 93.05 148.33 94.92C148.58 95.55 173.81 157.54 212.03 144.52C213.06 144.17 214.2 144.3 215.13 144.87C216.06 145.45 216.68 146.41 216.82 147.49C220.82 177.5 214.5 201.74 198.03 219.53C184.33 234.33 163.21 244.64 136.95 249.34C124.24 251.62 113.29 252.09 106.96 252.12C117.96 276.89 133.16 297.3 152.2 312.83C168.48 326.11 187.61 335.9 209.06 341.93C245.79 352.26 277.01 347.93 277.32 347.89C279.31 347.6 281.16 348.98 281.45 350.98C281.74 352.97 280.36 354.82 278.37 355.11C277.76 355.21 270.81 356.18 259.79 356.18Z" stroke="#3B65EE" stroke-width="2.5" stroke-miterlimit="10" stroke-linecap="round" stroke-linejoin="round"/>
<path d="M234.19 482.07C223.53 482.07 213.09 481.18 202.86 479.39C173.61 474.28 146.18 461.89 121.34 442.56C79.1797 409.75 59.3997 368.88 58.5797 367.16C58.0197 365.99 58.1297 364.62 58.8497 363.55C59.5697 362.48 60.7997 361.87 62.0997 361.95C62.4497 361.97 97.8497 363.95 138.73 351.26C162.62 343.84 183.69 332.93 201.37 318.82C223.41 301.24 240.22 278.58 251.36 251.48C252.13 249.62 254.25 248.72 256.12 249.49C257.98 250.26 258.87 252.39 258.11 254.25C246.48 282.56 228.89 306.23 205.81 324.61C187.39 339.28 165.47 350.62 140.66 358.29C108.49 368.24 80.2097 369.41 68.0297 369.39C74.8497 381.55 93.9497 412.06 126.04 436.97C149.92 455.5 176.24 467.37 204.28 472.24C239.39 478.34 277.39 473.44 317.22 457.69C319.09 456.95 321.21 457.87 321.95 459.74C322.69 461.61 321.77 463.73 319.9 464.47C290.27 476.18 261.56 482.07 234.19 482.07Z" fill="white" stroke="#3B65EE" stroke-width="2.5" stroke-miterlimit="10" stroke-linecap="round" stroke-linejoin="round"/>
<path d="M261.99 431.88L237.85 431.63C230.04 431.55 225.68 422.59 230.44 416.39C234.68 410.87 242.89 410.56 247.54 415.74L261.99 431.88Z" fill="white" stroke="#3B65EE" stroke-width="2.5" stroke-miterlimit="10" stroke-linecap="round" stroke-linejoin="round"/>
<path d="M259.52 431.88L283.659 431.35C291.469 431.18 295.72 422.16 290.89 416.03C286.58 410.56 278.37 410.35 273.78 415.59L259.52 431.88Z" fill="white" stroke="#3B65EE" stroke-width="2.5" stroke-miterlimit="10" stroke-linecap="round" stroke-linejoin="round"/>
<path d="M251.17 397.47C256.22 397.06 260.59 400.47 260.62 404.84L260.77 433.9L243.05 413.06C237.82 406.91 242.37 398.19 251.17 397.47Z" fill="white" stroke="#3B65EE" stroke-width="2.5" stroke-miterlimit="10" stroke-linecap="round" stroke-linejoin="round"/>
<path d="M269.94 397.35C264.88 396.99 260.55 400.46 260.58 404.83L260.77 433.89L278.24 412.84C283.4 406.63 278.75 397.96 269.94 397.35Z" fill="white" stroke="#3B65EE" stroke-width="2.5" stroke-miterlimit="10" stroke-linecap="round" stroke-linejoin="round"/>
<path d="M312.249 430.035L209.249 430.566L209.645 507.436L312.645 506.905L312.249 430.035Z" fill="#E5ECF9" stroke="#3B65EE" stroke-width="2.5" stroke-miterlimit="10" stroke-linecap="round" stroke-linejoin="round"/>
<path d="M269.549 430.255L251.959 430.346L252.355 507.216L269.945 507.125L269.549 430.255Z" fill="white" stroke="#3B65EE" stroke-width="2.5" stroke-miterlimit="10" stroke-linecap="round" stroke-linejoin="round"/>
<path d="M312.483 477.261L312.392 459.671L209.392 460.202L209.483 477.792L312.483 477.261Z" fill="white" stroke="#3B65EE" stroke-width="2.5" stroke-miterlimit="10" stroke-linecap="round" stroke-linejoin="round"/>
</svg>
