<svg width="1119" height="444" viewBox="0 0 1119 444" fill="none" xmlns="http://www.w3.org/2000/svg">
<path d="M509.631 100.616L462.67 48.3093C460.194 45.5551 456.998 43.5459 453.442 42.5076C449.886 41.4693 446.111 41.4429 442.541 42.4315C438.971 43.4201 435.747 45.3844 433.232 48.1038C430.717 50.8232 429.011 54.1899 428.304 57.8257L405.971 172.753L439.844 164.443L454.818 93.6482L483.797 134.076L509.631 100.616Z" fill="#D1DAED" stroke="#3B65EE" stroke-width="2" stroke-linecap="round" stroke-linejoin="round"/>
<path d="M463.674 106.121L472.886 118.951L506.538 97.1657L481.503 69.3301L463.674 106.121Z" fill="#B0C3EA"/>
<path d="M454.734 93.6494L483.713 134.077L509.633 100.617L475.844 63.0439" stroke="#3B65EE" stroke-width="2" stroke-linecap="round" stroke-linejoin="round"/>
<path d="M537.728 28.6311L470.49 1.61133C470.49 1.61133 492.246 48.0717 501.084 59.3894" fill="#D1DAED"/>
<path d="M537.728 28.6311L470.49 1.61133C470.49 1.61133 492.246 48.0717 501.084 59.3894" stroke="#3B65EE" stroke-width="2" stroke-linecap="round" stroke-linejoin="round"/>
<path d="M200.928 229.785C198.278 230.868 195.416 231.333 192.56 231.143C189.703 230.953 186.928 230.115 184.445 228.691C181.962 227.266 179.836 225.295 178.23 222.925C176.625 220.556 175.581 217.851 175.178 215.017C171.779 192.263 162.363 159.431 135.679 142.081C119.77 131.732 97.4201 130.185 75.4948 132.462C81.9223 143.104 87.0574 154.473 90.7915 166.331C87.2358 162.13 83.3047 158.262 79.047 154.775C71.365 148.396 62.2078 144.042 52.4107 142.11C42.6137 140.177 32.4887 140.728 22.9592 143.712C9.68511 147.825 1 151.393 1 151.393C3.25236 165.222 6.23656 178.921 9.94005 192.433C14.2039 208.298 21.6407 223.133 31.801 236.043C41.9612 248.953 54.6339 259.67 69.0532 267.545C81.1357 274.127 93.6249 279.933 106.445 284.929C88.5601 288.897 70.0008 288.688 52.2099 284.317C65.28 300.087 81.3076 311.303 100.836 313.019C177.932 319.817 264.817 239.641 264.817 239.641L276.221 196.953L200.928 229.785Z" fill="#D1DAED" stroke="#3B65EE" stroke-width="2" stroke-linecap="round" stroke-linejoin="round"/>
<path d="M78.9274 306.579C107.668 309.383 138.703 287.104 138.703 287.104C127.947 287.314 117.193 286.586 106.563 284.929C88.6783 288.897 70.1191 288.688 52.3281 284.317C59.6014 293.456 68.6495 301.029 78.9274 306.579V306.579Z" fill="#B0C3EA"/>
<path d="M106.563 284.929C88.6783 288.897 70.1191 288.688 52.3281 284.317C65.3983 300.087 81.4258 311.303 100.955 313.019" stroke="#3B65EE" stroke-width="2" stroke-linecap="round" stroke-linejoin="round"/>
<path d="M98.5586 145.02C98.5586 145.02 117.543 146.957 124.733 158.954C131.922 170.952 117.934 194.828 117.934 194.828C116.711 170.952 98.5586 145.02 98.5586 145.02Z" fill="#B0C3EA"/>
<path d="M202.881 284.163C225.012 271.449 245.802 256.532 264.934 239.64L276.339 196.952L237.4 213.946C224.908 233.896 207.589 264.009 202.881 284.163Z" fill="#B0C3EA"/>
<path d="M100.957 313.018C178.052 319.816 264.937 239.64 264.937 239.64L276.342 196.952L200.929 229.784" stroke="#3B65EE" stroke-width="2" stroke-linecap="round" stroke-linejoin="round"/>
<path d="M432.246 423.375C429.205 416.013 423.686 409.946 416.644 406.222C409.601 402.499 401.479 401.353 393.682 402.982L327.787 416.781L402.571 364.424C441.322 337.234 421.981 258.418 421.981 258.418H343.492L339.565 363.115L266.277 442.985H440.354L432.246 423.375Z" fill="#D1DAED" stroke="#3B65EE" stroke-width="2" stroke-linecap="round" stroke-linejoin="round"/>
<path d="M418.634 313.019L341.284 317.692L339.584 363.133L378.676 344.712L422.577 334.515C423.817 330.275 424.765 325.954 425.415 321.583L418.634 313.019Z" fill="#B0C3EA"/>
<path d="M339.568 363.132L343.495 258.435" stroke="#3B65EE" stroke-width="2" stroke-linecap="round" stroke-linejoin="round"/>
<path d="M422.032 258.435C422.032 258.435 434.796 310.52 418.803 344.592" stroke="#3B65EE" stroke-width="2" stroke-linecap="round" stroke-linejoin="round"/>
<path d="M712.141 95.5699C711.172 93.3438 707.382 93.1228 703.337 93.6156C705.025 89.9328 706.478 86.1471 707.688 82.281C708.035 81.1807 708.142 80.0191 708.002 78.874C707.863 77.729 707.48 76.627 706.88 75.642C706.279 74.657 705.475 73.8118 704.521 73.1631C703.567 72.5144 702.485 72.0773 701.349 71.8809L638.615 61.1409C637.613 60.9675 636.671 60.545 635.875 59.9126C635.08 59.2801 634.455 58.4579 634.06 57.5213L629.386 46.5094C628.465 44.3393 627.072 42.4018 625.308 40.8379C623.544 39.274 621.453 38.1231 619.188 37.4689L582.935 26.7119C573.626 23.9601 563.789 23.4995 554.262 25.3694L542.569 27.6636C535.923 28.9571 529.076 28.8006 522.496 27.2048L452.081 10.0752C452.081 10.0752 480.26 52.9331 490.662 62.8743C501.064 72.8156 511.143 69.2299 511.143 69.2299L501.914 78.9842L436.495 148.216C426.192 159.106 413.776 167.781 400.006 173.71C386.236 179.638 371.401 182.696 356.408 182.696H320.206C300.425 182.696 281.453 190.552 267.464 204.535C253.475 218.519 245.614 237.486 245.609 257.264C245.608 267.217 247.6 277.07 251.468 286.241C255.335 295.412 261 303.717 268.128 310.665C275.256 317.613 283.703 323.063 292.971 326.696C302.24 330.328 312.141 332.069 322.093 331.815L398.576 329.843C414.536 329.443 430.356 326.759 445.554 321.873C496.866 305.39 534.496 261.291 544.897 208.407L556.999 145.888C558.056 140.394 561.072 135.471 565.486 132.033C569.9 128.595 575.412 126.876 580.998 127.195L654.524 131.46C659.913 131.772 665.302 130.835 670.27 128.721C675.238 126.608 679.65 123.375 683.162 119.276L687.208 114.552C687.208 114.552 692.816 119.871 694.975 118.358C697.507 116.659 694.686 112.36 693.666 108.621L693.564 108.213C693.564 107.975 693.462 107.737 693.411 107.499C693.36 107.261 693.411 107.312 693.411 107.228C693.395 106.996 693.395 106.763 693.411 106.531V106.276C693.394 106.01 693.394 105.743 693.411 105.477" stroke="#3B65EE" stroke-width="2" stroke-linecap="round" stroke-linejoin="round"/>
<path d="M682.738 113.464C680.999 113.791 679.373 114.557 678.013 115.69C677.819 115.893 677.653 116.122 677.52 116.37C677.511 116.431 677.511 116.494 677.52 116.556C677.4 116.78 677.314 117.021 677.265 117.27C677.211 117.533 677.182 117.801 677.18 118.069V118.324C677.164 118.556 677.164 118.789 677.18 119.021C677.172 119.111 677.172 119.202 677.18 119.292C677.18 119.53 677.265 119.768 677.316 120.006L677.418 120.414C677.724 121.502 678.166 122.623 678.591 123.711C680.26 122.397 681.802 120.929 683.197 119.326L687.242 114.602C687.242 114.602 692.851 119.921 695.009 118.409C697.168 116.896 695.451 113.634 694.261 110.388C691.576 111.781 686.613 112.41 682.738 113.464Z" fill="#D1DAED"/>
<path d="M540.735 157.782L528.617 220.149C521.966 254.162 503.834 284.859 477.254 307.105C494.679 296.153 509.672 281.743 521.304 264.767C532.936 247.79 540.961 228.608 544.882 208.406L557.001 145.887C557.46 143.593 558.262 141.382 559.38 139.327C554.766 140.147 550.511 142.352 547.18 145.648C543.85 148.945 541.602 153.177 540.735 157.782V157.782Z" fill="#D1DAED"/>
<path d="M668.227 129.573C669.686 129.053 671.111 128.44 672.493 127.738C671.575 127.007 670.929 126.412 670.929 126.412L668.227 129.573Z" fill="#D1DAED"/>
<path d="M303.926 194.437H340.129C366.779 194.43 392.525 184.771 412.601 167.247C395.595 177.338 376.186 182.668 356.411 182.677H320.209C301.112 182.663 282.742 190.002 268.914 203.172C279.69 197.429 291.715 194.429 303.926 194.437Z" fill="#D1DAED"/>
<path d="M712.143 95.5699C711.174 93.3437 707.384 93.1228 703.338 93.6156C705.026 89.9328 706.479 86.147 707.689 82.2809C708.036 81.1807 708.143 80.0191 708.004 78.874C707.864 77.729 707.481 76.627 706.881 75.642C706.281 74.657 705.476 73.8118 704.522 73.1631C703.568 72.5144 702.487 72.0772 701.35 71.8809L638.617 61.1409C637.615 60.9674 636.673 60.545 635.877 59.9126C635.081 59.2801 634.457 58.4578 634.062 57.5213L629.388 46.5094C628.467 44.3393 627.074 42.4018 625.31 40.8379C623.546 39.274 621.455 38.123 619.19 37.4689L582.937 26.7119C573.627 23.9601 563.79 23.4995 554.264 25.3694L542.57 27.6636C535.925 28.9571 529.078 28.8006 522.498 27.2047L452.082 10.0752C452.082 10.0752 457.674 18.572 464.778 28.8701L506.232 38.9473C512.806 40.5428 519.648 40.6993 526.288 39.4061L537.981 37.112C547.514 35.2387 557.359 35.7052 566.671 38.4715L602.924 49.2114C605.189 49.8656 607.28 51.0165 609.044 52.5804C610.808 54.1444 612.201 56.0819 613.122 58.252L617.796 69.2638C618.208 70.1985 618.849 71.0141 619.66 71.6349C620.471 72.2558 621.426 72.6619 622.436 72.8155L685.169 83.5724C686.307 83.764 687.39 84.1976 688.346 84.8439C689.301 85.4901 690.106 86.334 690.707 87.3184C691.309 88.3028 691.691 89.4049 691.83 90.5499C691.968 91.695 691.859 92.8563 691.509 93.9555C690.299 97.8216 688.846 101.607 687.158 105.29C689.274 104.948 691.435 104.999 693.532 105.443C693.585 105.208 693.665 104.98 693.77 104.763L693.872 104.576C693.996 104.323 694.157 104.088 694.347 103.88C695.72 102.76 697.349 102.001 699.089 101.671C705.072 100.005 713.859 99.4784 712.143 95.5699Z" fill="#D1DAED"/>
<path d="M712.141 95.5699C711.172 93.3438 707.382 93.1228 703.337 93.6156C705.025 89.9328 706.478 86.1471 707.688 82.281C708.035 81.1807 708.142 80.0191 708.002 78.874C707.863 77.729 707.48 76.627 706.88 75.642C706.279 74.657 705.475 73.8118 704.521 73.1631C703.567 72.5144 702.485 72.0773 701.349 71.8809L638.615 61.1409C637.613 60.9675 636.671 60.545 635.875 59.9126C635.08 59.2801 634.455 58.4579 634.06 57.5213L629.386 46.5094C628.465 44.3393 627.072 42.4018 625.308 40.8379C623.544 39.274 621.453 38.1231 619.188 37.4689L582.935 26.7119C573.626 23.9601 563.789 23.4995 554.262 25.3694L542.569 27.6636C535.923 28.9571 529.076 28.8006 522.496 27.2048L452.081 10.0752C452.081 10.0752 480.26 52.9331 490.662 62.8743C501.064 72.8156 511.143 69.2299 511.143 69.2299L501.914 78.9842L436.495 148.216C426.192 159.106 413.776 167.781 400.006 173.71C386.236 179.638 371.401 182.696 356.408 182.696H320.206C300.425 182.696 281.453 190.552 267.464 204.535C253.475 218.519 245.614 237.486 245.609 257.264C245.608 267.217 247.6 277.07 251.468 286.241C255.335 295.412 261 303.717 268.128 310.665C275.256 317.613 283.703 323.063 292.971 326.696C302.24 330.328 312.141 332.069 322.093 331.815L398.576 329.843C414.536 329.443 430.356 326.759 445.554 321.873C496.866 305.39 534.496 261.291 544.897 208.407L556.999 145.888C558.056 140.394 561.072 135.471 565.486 132.033C569.9 128.595 575.412 126.876 580.998 127.195L654.524 131.46C659.913 131.772 665.302 130.835 670.27 128.721C675.238 126.608 679.65 123.375 683.162 119.276L687.208 114.552C687.208 114.552 692.816 119.871 694.975 118.358C697.507 116.659 694.686 112.36 693.666 108.621L693.564 108.213C693.564 107.975 693.462 107.737 693.411 107.499C693.36 107.261 693.411 107.312 693.411 107.228C693.395 106.996 693.395 106.763 693.411 106.531V106.276C693.394 106.01 693.394 105.743 693.411 105.477" stroke="#3B65EE" stroke-width="2" stroke-linecap="round" stroke-linejoin="round"/>
<path d="M481.57 33.4062L523.262 46.7632L509.665 54.4951C507.285 55.8498 504.492 56.29 501.811 55.7331C499.129 55.1763 496.743 53.6606 495.099 51.4703L481.57 33.4062Z" fill="#D1DAED"/>
<path d="M544.883 208.407L557.001 145.888C558.058 140.394 561.074 135.471 565.488 132.033C569.902 128.595 575.414 126.876 581 127.195L593.475 127.926" stroke="#3B65EE" stroke-width="2" stroke-linecap="round" stroke-linejoin="round"/>
<path d="M319.22 266.543C302.002 253.237 312.965 330.659 312.965 330.659L319.203 331.764H322.109L356.561 330.88C349.49 314.346 332.494 276.858 319.22 266.543Z" fill="#D1DAED" stroke="#D1DAED" stroke-width="2" stroke-linecap="round" stroke-linejoin="round"/>
<path d="M245.609 257.263C245.608 267.216 247.6 277.069 251.468 286.24C255.335 295.411 261 303.716 268.128 310.664C275.256 317.611 283.703 323.062 292.971 326.695C302.24 330.327 312.141 332.068 322.093 331.814L398.576 329.842" stroke="#3B65EE" stroke-width="2" stroke-linecap="round" stroke-linejoin="round"/>
<path d="M627.262 73.8846C651.533 73.8846 656.309 106.835 625.104 118.068C677.877 104.507 661.255 69.4153 627.262 73.8846Z" fill="#D1DAED"/>
<path d="M627.263 73.8855C630.109 73.4986 633.004 73.7128 635.761 74.5143C638.58 75.3768 641.151 76.9037 643.257 78.9666C645.397 81.0825 646.974 83.6994 647.846 86.5796C648.706 89.453 648.955 92.4748 648.577 95.4503C647.665 101.321 644.695 106.675 640.197 110.558C635.907 114.292 630.746 116.887 625.189 118.103C627.632 116.84 629.993 115.427 632.26 113.871C634.458 112.341 636.497 110.593 638.345 108.654C641.96 104.933 644.335 100.184 645.143 95.0595C645.527 92.5483 645.379 89.9844 644.709 87.5342C644.038 85.0839 642.86 82.8017 641.251 80.8358C639.557 78.8481 637.46 77.2435 635.098 76.1287C632.621 74.9741 629.976 74.2171 627.263 73.8855Z" fill="#3B65EE"/>
<path d="M757.182 83.3338C769.079 80.4959 781.129 77.8789 793.112 75.1599L829.11 67.3259C853.126 62.2278 877.193 57.2656 901.225 52.2185C925.326 47.4264 949.393 42.5152 973.511 37.8589L1009.71 30.9595C1021.8 28.7844 1033.86 26.4902 1045.97 24.417C1034.07 27.2549 1022.02 29.8719 1010.04 32.5909L974.038 40.425C950.022 45.608 925.955 50.5022 901.905 55.5323C877.821 60.3075 853.755 65.2357 829.637 69.8749L793.435 76.7743C781.35 78.9665 769.283 81.3116 757.182 83.3338Z" fill="#3B65EE"/>
<path d="M918.174 205.67C925.941 207.097 933.607 208.848 941.238 210.768C948.869 212.688 956.535 214.643 964.047 216.716C971.559 218.789 979.174 221.032 986.669 223.394C994.164 225.756 1001.64 228.186 1009.02 230.973C1001.27 229.563 993.587 227.813 985.955 225.875C978.324 223.938 970.659 222.001 963.146 219.928C955.634 217.854 948.036 215.611 940.541 213.249C933.046 210.887 925.601 208.457 918.174 205.67Z" fill="#3B65EE"/>
<path d="M710.818 147.993C723.464 150.825 736.047 153.867 748.567 157.119C761.11 160.331 773.586 163.712 786.061 167.145C798.536 170.578 810.96 174.18 823.351 177.902C835.741 181.624 848.114 185.481 860.403 189.577C847.757 186.756 835.169 183.719 822.637 180.468C810.111 177.256 797.618 173.857 785.143 170.425C772.668 166.992 760.244 163.389 747.853 159.668C735.463 155.946 723.073 152.089 710.818 147.993Z" fill="#3B65EE"/>
<path d="M721.439 126.989C734.374 128.689 747.274 130.541 760.191 132.308L798.892 137.984C824.692 141.808 850.424 145.937 876.208 149.88C901.991 153.822 927.69 158.189 953.388 162.54L991.936 169.15C1004.77 171.478 1017.62 173.705 1030.43 176.118C1017.5 174.418 1004.6 172.566 991.681 170.799L952.98 165.123C927.18 161.299 901.447 157.187 875.664 153.227C849.949 148.996 824.182 144.917 798.484 140.55L759.936 133.991C747.104 131.628 734.255 129.419 721.439 126.989Z" fill="#3B65EE"/>
<path d="M860.385 117.27C871.16 117.27 881.953 117.525 892.678 117.66L924.971 118.391C946.539 118.935 968.09 119.768 989.642 120.43C1011.19 121.382 1032.74 122.13 1054.23 123.251L1086.52 124.951C1097.28 125.647 1108.05 126.208 1118.81 127.007C1108.02 127.007 1097.25 126.752 1086.52 126.616L1054.23 125.885C1032.66 125.341 1011.11 124.526 989.557 123.846C968.005 122.894 946.454 122.147 924.971 121.025L892.678 119.326C881.885 118.697 871.126 118.051 860.385 117.27Z" fill="#3B65EE"/>
<path d="M751.336 113.174C760.446 112.817 769.556 112.783 778.649 112.885C787.742 112.987 796.835 113.225 805.843 113.531C814.851 113.837 824.012 114.313 833.037 114.924C842.062 115.536 851.189 116.216 860.231 117.269C851.104 117.643 842.011 117.66 832.918 117.575C823.825 117.49 814.732 117.235 805.724 116.913C796.716 116.59 787.555 116.131 778.53 115.519C769.505 114.907 760.395 114.211 751.336 113.174Z" fill="#3B65EE"/>
<path d="M918.735 88.8052C905.953 90.0854 893.172 91.1448 880.391 91.9831C867.593 92.8838 854.794 93.5805 841.996 94.2432C829.198 94.906 816.383 95.3818 803.568 95.7387C790.752 96.0956 777.92 96.3165 765.088 96.2825C777.869 94.991 790.65 93.926 803.432 93.0877C816.23 92.187 829.028 91.4902 841.826 90.8445C854.625 90.1987 867.44 89.7059 880.255 89.349C893.07 88.9921 905.902 88.7712 918.735 88.8052Z" fill="#3B65EE"/>
<path d="M1091.31 80.4106C1083.46 81.4812 1075.61 82.2459 1067.74 82.8747C1059.87 83.5034 1052 83.9793 1044.12 84.4041C1036.23 84.8289 1028.36 85.0669 1020.47 85.1858C1012.59 85.3048 1004.68 85.3217 996.781 84.9988C1004.62 83.9113 1012.49 83.1635 1020.34 82.5348C1028.19 81.906 1036.08 81.4133 1043.96 81.0054C1051.85 80.5976 1059.72 80.3427 1067.6 80.2407C1075.49 80.1387 1083.39 80.0877 1091.31 80.4106Z" fill="#3B65EE"/>
<path d="M324.304 258.435C324.304 258.435 343.646 337.336 304.894 364.441L230.11 416.798L296.005 402.999C303.803 401.37 311.925 402.516 318.967 406.239C326.009 409.963 331.528 416.03 334.57 423.392L342.677 442.985H168.635L241.923 363.115L245.849 258.418" fill="white"/>
<path d="M324.304 258.435C324.304 258.435 343.646 337.336 304.894 364.441L230.11 416.798L296.005 402.999C303.803 401.37 311.925 402.516 318.967 406.239C326.009 409.963 331.528 416.03 334.57 423.392L342.677 442.985H168.635L241.923 363.115L245.849 258.418" stroke="#3B65EE" stroke-width="2" stroke-linecap="round" stroke-linejoin="round"/>
<path d="M548.807 188.49C547.674 187.901 546.541 187.255 545.408 186.553C515.494 167.741 492.906 113.481 487.399 99.308C487.399 99.172 487.297 99.019 487.246 98.9001L486.872 97.9145C486.804 97.7332 486.736 97.5632 486.668 97.4046C486.583 97.1497 486.498 96.9459 486.43 96.7589C486.362 96.572 486.328 96.487 486.294 96.368L486.175 96.0622L486.09 95.8242L436.495 148.215C434.439 150.391 432.297 152.43 430.088 154.418C428.745 155.625 427.402 156.78 426.026 157.902C425.584 158.259 425.142 158.649 424.683 159.006C424.037 159.516 423.374 159.975 422.711 160.468C421.233 161.589 419.737 162.745 418.156 163.748C416.576 164.75 414.944 165.872 413.295 166.857C412.717 167.214 407.619 170.018 407.007 170.358L406.582 170.596C403.001 172.397 399.331 174.014 395.585 175.439L392.662 176.544C389.942 177.478 387.206 178.345 384.436 179.076V179.263C384.436 179.535 384.606 180.197 384.775 181.098C385.897 187.148 389.568 206.215 394.973 227.236C395.432 229.088 395.925 230.94 396.418 232.81C397.472 236.786 398.576 240.797 399.732 244.705C400.004 245.657 400.293 246.608 400.565 247.543C401.126 249.395 401.687 251.231 402.265 253.032C402.962 255.19 403.658 257.331 404.355 259.421C405.936 264.044 407.568 268.479 409.25 272.574C409.709 273.696 410.168 274.784 410.644 275.854C425.635 309.841 442.257 322.791 442.257 322.791C444.195 322.213 446.115 321.601 448.019 320.955C498.209 303.962 534.7 260.322 544.898 208.356L548.824 188.439L548.807 188.49Z" fill="#3B65EF" stroke="#3B65EE" stroke-width="2" stroke-linecap="round" stroke-linejoin="round"/>
<path d="M457.757 162.88L445.673 138.443L436.427 148.215C434.37 150.39 432.229 152.429 430.019 154.417C428.676 155.624 427.334 156.779 425.957 157.901L424.597 159.005C423.951 159.515 423.289 159.974 422.626 160.467C421.147 161.589 419.651 162.744 418.071 163.747C416.49 164.749 414.858 165.871 413.21 166.857C412.632 167.213 407.533 170.017 406.921 170.357L406.496 170.595C405.476 171.105 404.44 171.564 403.42 172.04C431.872 177.053 457.757 162.88 457.757 162.88Z" fill="#3157D6" stroke="#3157D6" stroke-width="2" stroke-linecap="round" stroke-linejoin="round"/>
<path d="M445.673 138.443L436.427 148.215C434.37 150.39 432.229 152.429 430.019 154.417C428.676 155.624 427.334 156.779 425.957 157.901L424.597 159.006C423.951 159.515 423.289 159.974 422.626 160.467C421.147 161.589 419.651 162.744 418.071 163.747C416.49 164.749 414.858 165.871 413.21 166.857C412.632 167.214 407.533 170.017 406.921 170.357L406.496 170.595C405.476 171.105 404.44 171.564 403.42 172.04" stroke="#3B65EE" stroke-width="2" stroke-linecap="round" stroke-linejoin="round"/>
<path d="M390.301 60.5622C384.813 56.1796 378.039 53.7182 371.018 53.5555C363.996 53.3928 357.115 55.5379 351.43 59.6616L281.967 110.047C277.378 113.387 274.304 118.413 273.421 124.018C272.538 129.624 273.918 135.351 277.259 139.939C280.599 144.527 285.625 147.601 291.232 148.484C296.838 149.366 302.566 147.986 307.155 144.647L312.679 140.619L317.591 146.584C320.027 149.538 323.518 151.43 327.324 151.858C331.13 152.286 334.954 151.218 337.986 148.878V148.878C340.895 146.624 342.856 143.365 343.485 139.74C344.114 136.115 343.365 132.386 341.386 129.284L332.174 114.874L371.792 90.7938L412.413 127.194L438.112 98.6788L390.301 60.5622Z" fill="white" stroke="#3B65EE" stroke-width="2" stroke-linecap="round" stroke-linejoin="round"/>
<path d="M338.6 124.951L332.158 114.874L315.162 127.279C322.722 124.856 330.711 124.062 338.6 124.951V124.951Z" fill="#D1DAED" stroke="#D1DAED" stroke-width="2" stroke-linecap="round" stroke-linejoin="round"/>
<path d="M341.399 129.284L332.188 114.874L341.841 109.011" stroke="#3B65EE" stroke-width="2" stroke-linecap="round" stroke-linejoin="round"/>
<path d="M457.758 168.336L426.604 140.109L412.412 127.262L438.111 98.7471L483.712 134.077" fill="#3B65EF"/>
<path d="M457.76 168.335C453.783 165.123 449.891 161.827 445.982 158.547C442.073 155.267 438.198 151.953 434.322 148.64C426.606 141.978 418.941 135.254 411.326 128.468C411.025 128.173 410.845 127.777 410.819 127.356C410.794 126.935 410.927 126.52 411.19 126.191V126.191L423.989 111.899L436.923 97.7098C437.193 97.4179 437.561 97.2369 437.957 97.2023C438.353 97.1678 438.748 97.282 439.064 97.5228C446.594 103.505 454.106 109.418 461.55 115.587C465.273 118.646 468.995 121.688 472.666 124.798C476.337 127.907 480.059 130.966 483.68 134.127C479.72 131.408 475.827 128.587 471.901 125.783C467.975 122.979 464.1 120.158 460.208 117.286C452.457 111.622 444.758 105.867 437.11 100.021L439.268 99.817L426.487 114.143L413.587 128.366L413.468 126.072C420.969 132.983 428.419 139.945 435.818 146.957C439.489 150.492 443.211 153.993 446.832 157.595C450.452 161.198 454.174 164.682 457.76 168.335Z" fill="#3B65EE"/>
<path d="M592.367 42.668C594.951 44.1974 597.466 45.6248 599.965 46.9673C602.463 48.3098 605.063 49.4994 607.647 50.587C610.236 51.6994 612.893 52.6472 615.601 53.4248C618.32 54.3085 621.108 54.8014 624.099 55.5321C621.164 56.2449 618.123 56.4176 615.125 56.0419C613.618 55.8662 612.124 55.588 610.655 55.2092C609.199 54.8034 607.769 54.3096 606.372 53.7307C603.583 52.5614 600.96 51.0302 598.571 49.1765C596.141 47.3828 594.042 45.1806 592.367 42.668V42.668Z" fill="#3B65EE"/>
<path d="M614.21 55.7181C610.929 55.3782 607.836 53.22 605.304 52.3193C604.76 54.0187 605.729 58.386 607.768 61.19C610.589 65.0475 614.669 67.3756 616.895 66.288C619.122 65.2004 618.595 61.326 615.79 57.4514C615.305 56.8375 614.776 56.2583 614.21 55.7181V55.7181Z" fill="#3B65EE" stroke="#3B65EE" stroke-width="2" stroke-linecap="round" stroke-linejoin="round"/>
<path d="M701.351 71.8794L684.117 68.9395L703.34 93.6142C704.992 89.9164 706.444 86.1328 707.691 82.2795C708.038 81.1793 708.145 80.0176 708.005 78.8726C707.866 77.7275 707.483 76.6255 706.883 75.6405C706.282 74.6556 705.478 73.8103 704.524 73.1616C703.57 72.5129 702.488 72.0758 701.351 71.8794Z" fill="#3B65EE" stroke="#3B65EE" stroke-width="2" stroke-linecap="round" stroke-linejoin="round"/>
<path d="M481.57 33.4062C485.219 33.8767 488.835 34.5748 492.397 35.4965C495.949 36.3462 499.45 37.3828 502.935 38.4704C506.419 39.558 509.852 40.7985 513.234 42.175C516.669 43.4946 520.018 45.027 523.262 46.7633C519.612 46.31 515.995 45.6174 512.436 44.6901C508.866 43.8404 505.382 42.7868 501.898 41.6992C498.414 40.6116 494.98 39.371 491.581 38.0115C488.156 36.6757 484.813 35.1379 481.57 33.4062V33.4062Z" fill="#3B65EE"/>
<path d="M511.213 69.2285L524.555 60.2559" stroke="#3B65EE" stroke-width="2" stroke-linecap="round" stroke-linejoin="round"/>
<path d="M548.757 188.455C547.653 187.861 545.358 186.535 545.358 186.518C542.192 184.507 539.202 182.234 536.418 179.721L528.617 220.148C521.966 254.162 503.834 284.859 477.254 307.105C503.375 290.784 523.809 266.786 535.755 238.4L535.908 238.077L537.132 235.069L537.574 233.896C537.914 233.013 538.254 232.197 538.577 231.228C538.798 230.633 539.002 230.039 539.206 229.444C539.579 228.39 539.936 227.337 540.293 226.283C540.65 225.23 540.939 224.278 541.245 223.258C541.415 222.715 541.568 222.154 541.721 221.559C541.993 220.658 542.248 219.741 542.503 218.806C542.656 218.262 542.792 217.718 542.945 217.107C543.2 216.121 543.438 215.118 543.676 214.116C543.795 213.657 543.896 213.181 544.015 212.722C544.338 211.261 544.661 209.782 544.95 208.304L548.757 188.455Z" fill="#3157D6" stroke="#3157D6" stroke-width="2" stroke-linecap="round" stroke-linejoin="round"/>
<path d="M500.793 146.091C503.558 150.815 506.39 155.443 509.291 159.975C512.231 164.495 515.189 168.981 518.435 173.23C520.135 175.354 521.664 177.512 523.449 179.483C525.234 181.455 527.018 183.443 528.803 185.448C532.611 189.257 536.746 192.726 541.159 195.814C535.988 193.813 531.199 190.939 527.001 187.317C522.837 183.685 519.06 179.63 515.733 175.218C512.445 170.801 509.523 166.124 506.997 161.232C504.429 156.404 502.351 151.332 500.793 146.091V146.091Z" fill="#3B65EE"/>
<path d="M477.254 307.104C503.375 290.784 523.809 266.786 535.755 238.399L535.908 238.077L537.132 235.069L537.574 233.896C537.914 233.012 538.254 232.197 538.577 231.228C538.798 230.633 539.001 230.039 539.205 229.444C539.579 228.39 539.936 227.337 540.293 226.283C540.65 225.229 540.939 224.278 541.245 223.258C541.415 222.714 541.568 222.154 541.721 221.559C541.993 220.658 542.248 219.74 542.503 218.806C542.656 218.262 542.792 217.718 542.945 217.106C543.2 216.121 543.438 215.118 543.675 214.116C543.794 213.657 543.896 213.181 544.015 212.722C544.338 211.261 544.661 209.782 544.95 208.304L548.825 188.353C547.721 187.759 545.426 186.433 545.426 186.416C542.26 184.405 539.27 182.131 536.486 179.619L535.041 178.327" stroke="#3B65EE" stroke-width="2" stroke-linecap="round" stroke-linejoin="round"/>
<path d="M168.549 442.968H569.169" stroke="#3B65EE" stroke-width="2" stroke-linecap="round" stroke-linejoin="round"/>
</svg>
