<svg width="379" height="233" viewBox="0 0 379 233" fill="none" xmlns="http://www.w3.org/2000/svg">
<path d="M368.802 129.33C354.922 121.88 338.732 120.03 323.522 124.13C308.872 128.08 291.072 132.46 281.972 133.11C264.882 134.33 297.162 153.88 297.162 153.88L368.802 129.33Z" fill="#B0C3EA" stroke="#3B65EE" stroke-width="2.5" stroke-miterlimit="10" stroke-linecap="round" stroke-linejoin="round"/>
<path d="M10.6309 129.33C24.5109 121.88 40.7009 120.03 55.9109 124.13C70.5609 128.08 88.3608 132.46 97.4608 133.11C114.551 134.33 82.2708 153.88 82.2708 153.88L10.6309 129.33Z" fill="#B0C3EA" stroke="#3B65EE" stroke-width="2.5" stroke-miterlimit="10" stroke-linecap="round" stroke-linejoin="round"/>
<path d="M33.8018 136.28C35.1218 138.6 69.6318 196.75 189.712 196.75C309.792 196.75 344.302 138.6 345.712 136.12C347.102 133.56 349.052 131.5 351.322 130.02C345.822 132.81 303.242 151.53 189.712 151.53C69.6318 151.53 28.9218 130.59 27.6018 129.76L27.5918 129.8C30.1118 131.32 32.2918 133.5 33.8018 136.28Z" fill="#B0C3EA" stroke="#3B65EE" stroke-width="2.5" stroke-miterlimit="10" stroke-linecap="round" stroke-linejoin="round"/>
<path d="M304.441 184.57L189.441 215.32L74.4414 184.57V108.05C74.4414 51.6897 114.981 10.3097 168.501 1.70966C175.291 0.619658 179.291 9.22968 189.441 9.22968C199.591 9.22968 203.611 0.619668 210.411 1.71967C263.911 10.3297 304.441 51.7097 304.441 108.06V184.57Z" fill="#D1DAED" stroke="#3B65EE" stroke-width="2.5" stroke-miterlimit="10" stroke-linecap="round" stroke-linejoin="round"/>
<path d="M209.441 1.70963H210.411C210.081 1.65963 209.761 1.66963 209.441 1.70963Z" fill="#B0C3EA" stroke="#B0C3EA" stroke-width="2.5" stroke-miterlimit="10" stroke-linecap="round" stroke-linejoin="round"/>
<path d="M168.5 1.70963H169.47C169.16 1.66963 168.84 1.65963 168.5 1.70963Z" fill="#B0C3EA" stroke="#B0C3EA" stroke-width="2.5" stroke-miterlimit="10" stroke-linecap="round" stroke-linejoin="round"/>
<path d="M189.449 30.47C199.099 30.47 203.209 2.54997 209.439 1.71997H208.039C202.539 2.58997 198.359 9.22998 189.439 9.22998C180.519 9.22998 176.349 2.57996 170.859 1.70996H169.469C175.699 2.53996 179.789 30.47 189.449 30.47Z" fill="#B0C3EA" stroke="#B0C3EA" stroke-width="2.5" stroke-miterlimit="10" stroke-linecap="round" stroke-linejoin="round"/>
<path d="M243.955 46.4837L110.559 101.473L135.448 161.852L268.844 106.863L243.955 46.4837Z" fill="white" stroke="#3B65EE" stroke-width="2.5" stroke-miterlimit="10" stroke-linecap="round" stroke-linejoin="round"/>
<path d="M304.441 127.99C280.271 135.18 242.251 141.44 189.891 141.44C133.951 141.44 98.5414 134.28 74.4414 126.51V184.56L184.311 214.45C186.181 214.48 189.931 214.56 191.831 214.56C191.971 214.56 190.171 214.55 190.311 214.55L304.441 184.55V127.99Z" fill="#D1DAED" stroke="#3B65EE" stroke-width="2.5" stroke-miterlimit="10" stroke-linecap="round" stroke-linejoin="round"/>
<path d="M368.8 129.329C368.24 129.029 367.68 128.769 367.11 128.529L367.1 128.479C360.03 124.959 352.41 122.849 344.65 122.209C345.19 122.349 352.69 124.469 345.71 136.109C344.3 138.589 309.79 196.739 189.71 196.739C73.84 196.739 37.65 142.589 34.07 136.719C33.97 136.529 33.85 136.319 33.73 136.109C26.75 124.469 34.25 122.339 34.79 122.199C27.03 122.829 19.41 124.949 12.34 128.469L12.32 128.609C11.76 128.839 11.22 129.099 10.68 129.389C2.38997 133.879 -0.690037 144.239 3.79996 152.529C5.52996 155.729 47.88 230.879 189.72 230.879C331.56 230.879 373.91 155.729 375.64 152.529C380.12 144.259 377.09 133.819 368.8 129.329Z" fill="#D1DAED" stroke="#3B65EE" stroke-width="2.5" stroke-miterlimit="10" stroke-linecap="round" stroke-linejoin="round"/>
<path d="M168.5 1.70966C175.29 0.619658 179.29 9.22968 189.44 9.22968C199.59 9.22968 203.61 0.619668 210.41 1.71967" stroke="#3B65EE" stroke-width="2.5" stroke-miterlimit="10" stroke-linecap="round" stroke-linejoin="round"/>
<path d="M294.798 159.89C270.608 165.91 235.748 170.72 189.898 170.72Z" fill="#BADDD7"/>
<path d="M294.798 159.89C286.388 162.6 277.768 164.63 269.078 166.24C264.738 167.05 260.358 167.71 255.988 168.34C251.608 168.93 247.218 169.41 242.818 169.86C238.418 170.25 234.008 170.58 229.608 170.86C225.198 171.06 220.788 171.29 216.368 171.33C207.538 171.49 198.708 171.33 189.898 170.73C198.708 170.09 207.488 169.59 216.268 168.99C225.038 168.38 233.798 167.73 242.538 166.87C246.908 166.48 251.278 166.01 255.638 165.52C257.818 165.29 259.998 165.01 262.178 164.76L268.708 163.93C277.418 162.77 286.088 161.39 294.798 159.89Z" fill="#3B65EE"/>
<path d="M148.88 154.94C123.96 153.08 104.45 149.61 88.8301 145.6Z" fill="#BADDD7"/>
<path d="M148.88 154.94C143.78 155.18 138.68 155.04 133.6 154.7C131.06 154.56 128.53 154.29 125.99 154.04C123.46 153.76 120.94 153.41 118.42 153.06C115.91 152.65 113.39 152.23 110.89 151.76C108.4 151.24 105.9 150.75 103.43 150.11C98.4801 148.9 93.5801 147.45 88.8301 145.59C93.9001 146.24 98.9001 147.04 103.89 147.81L111.38 148.96C113.87 149.35 116.37 149.74 118.87 150.1L133.86 152.38C138.86 153.16 143.87 153.94 148.88 154.94Z" fill="#3B65EE"/>
</svg>
