<svg width="380" height="233" viewBox="0 0 380 233" fill="none" xmlns="http://www.w3.org/2000/svg">
<path d="M368.899 129.33C355.019 121.88 338.829 120.03 323.619 124.13C308.969 128.08 291.169 132.46 282.069 133.11C264.979 134.33 297.259 153.88 297.259 153.88L368.899 129.33Z" fill="#DFE6EF" stroke="#3B65EE" stroke-width="2.5" stroke-miterlimit="10" stroke-linecap="round" stroke-linejoin="round"/>
<path d="M10.7305 129.33C24.6105 121.88 40.8005 120.03 56.0105 124.13C70.6605 128.08 88.4605 132.46 97.5605 133.11C114.651 134.33 82.3705 153.88 82.3705 153.88L10.7305 129.33Z" fill="#DFE6EF" stroke="#3B65EE" stroke-width="2.5" stroke-miterlimit="10" stroke-linecap="round" stroke-linejoin="round"/>
<path d="M33.9015 136.28C35.2215 138.6 69.7315 196.75 189.812 196.75C309.892 196.75 344.402 138.6 345.812 136.12C347.202 133.56 349.152 131.5 351.422 130.02C345.922 132.81 303.342 151.53 189.812 151.53C69.7315 151.53 29.0214 130.59 27.7014 129.76L27.6914 129.8C30.2114 131.32 32.3915 133.5 33.9015 136.28Z" fill="#DFE6EF" stroke="#3B65EE" stroke-width="2.5" stroke-miterlimit="10" stroke-linecap="round" stroke-linejoin="round"/>
<path d="M304.551 184.57L189.551 215.32L74.5508 184.57V108.05C74.5508 51.6897 115.091 10.3097 168.611 1.70966C175.401 0.619658 179.401 9.22968 189.551 9.22968C199.701 9.22968 203.721 0.619668 210.521 1.71967C264.021 10.3297 304.551 51.7097 304.551 108.06V184.57Z" fill="white" stroke="#3B65EE" stroke-width="2.5" stroke-miterlimit="10" stroke-linecap="round" stroke-linejoin="round"/>
<path d="M209.543 1.70963H210.513C210.183 1.65963 209.863 1.66963 209.543 1.70963Z" fill="#B0C3EA" stroke="#B0C3EA" stroke-width="2.5" stroke-miterlimit="10" stroke-linecap="round" stroke-linejoin="round"/>
<path d="M168.613 1.70963H169.583C169.263 1.66963 168.943 1.65963 168.613 1.70963Z" fill="#B0C3EA" stroke="#B0C3EA" stroke-width="2.5" stroke-miterlimit="10" stroke-linecap="round" stroke-linejoin="round"/>
<path d="M189.554 30.47C199.204 30.47 203.314 2.54997 209.544 1.71997H208.144C202.644 2.58997 198.464 9.22998 189.544 9.22998C180.624 9.22998 176.454 2.57996 170.964 1.70996H169.574C175.804 2.53996 179.894 30.47 189.554 30.47Z" fill="#EDF1F9" stroke="#EDF1F9" stroke-width="2.5" stroke-miterlimit="10" stroke-linecap="round" stroke-linejoin="round"/>
<path d="M244.025 46.4799L110.629 101.469L135.519 161.848L268.915 106.859L244.025 46.4799Z" fill="#DFE6EF" stroke="#3B65EE" stroke-width="2.5" stroke-miterlimit="10" stroke-linecap="round" stroke-linejoin="round"/>
<path d="M304.551 127.99C280.381 135.18 242.361 141.44 190.001 141.44C134.061 141.44 98.6508 134.28 74.5508 126.51V184.56L184.421 214.45C186.291 214.48 190.041 214.56 191.941 214.56C192.081 214.56 190.281 214.55 190.421 214.55L304.551 184.55V127.99V127.99Z" fill="white" stroke="#3B65EE" stroke-width="2.5" stroke-miterlimit="10" stroke-linecap="round" stroke-linejoin="round"/>
<path d="M368.9 129.329C368.34 129.029 367.78 128.769 367.21 128.529L367.199 128.479C360.129 124.959 352.51 122.849 344.75 122.209C345.29 122.349 352.79 124.469 345.81 136.109C344.4 138.589 309.89 196.739 189.81 196.739C73.9396 196.739 37.7496 142.589 34.1696 136.719C34.0696 136.529 33.9495 136.319 33.8295 136.109C26.8495 124.469 34.3496 122.339 34.8896 122.199C27.1296 122.829 19.5095 124.949 12.4395 128.469L12.4196 128.609C11.8596 128.839 11.3196 129.099 10.7796 129.389C2.48958 133.879 -0.590428 144.239 3.89957 152.529C5.62957 155.729 47.9795 230.879 189.819 230.879C331.659 230.879 374.01 155.729 375.74 152.529C380.22 144.259 377.19 133.819 368.9 129.329Z" fill="white" stroke="#3B65EE" stroke-width="2.5" stroke-miterlimit="10" stroke-linecap="round" stroke-linejoin="round"/>
<path d="M168.609 1.70966C175.399 0.619658 179.399 9.22968 189.549 9.22968C199.699 9.22968 203.719 0.619668 210.519 1.71967" stroke="#3B65EE" stroke-width="2.5" stroke-miterlimit="10" stroke-linecap="round" stroke-linejoin="round"/>
<path d="M294.9 159.89C286.49 162.6 277.87 164.63 269.18 166.24C264.84 167.05 260.46 167.71 256.09 168.34C251.71 168.93 247.32 169.41 242.92 169.86C238.52 170.25 234.11 170.58 229.71 170.86C225.3 171.06 220.89 171.29 216.47 171.33C207.64 171.49 198.81 171.33 190 170.73C198.81 170.09 207.59 169.59 216.37 168.99C225.14 168.38 233.9 167.73 242.64 166.87C247.01 166.48 251.38 166.01 255.74 165.52C257.92 165.29 260.1 165.01 262.28 164.76L268.81 163.93C277.52 162.77 286.2 161.39 294.9 159.89Z" fill="#3B65EE"/>
<path d="M148.98 154.94C143.88 155.18 138.78 155.04 133.7 154.7C131.16 154.56 128.63 154.29 126.09 154.04C123.56 153.76 121.04 153.41 118.52 153.06C116.01 152.65 113.49 152.23 110.99 151.76C108.5 151.24 106 150.75 103.53 150.11C98.5797 148.9 93.6797 147.45 88.9297 145.59C93.9997 146.24 98.9996 147.04 103.99 147.81L111.48 148.96C113.97 149.35 116.47 149.74 118.97 150.1L133.96 152.38C138.96 153.16 143.97 153.94 148.98 154.94Z" fill="#3B65EE"/>
</svg>
