<svg xmlns="http://www.w3.org/2000/svg" viewBox="0 0 4800 3000"><defs><style>.cls-1,.cls-12,.cls-16,.cls-17,.cls-18,.cls-3{fill:#fff;}.cls-10,.cls-15,.cls-2,.cls-4,.cls-6,.cls-7{fill:#3b65ee;}.cls-10,.cls-11,.cls-12,.cls-14,.cls-15,.cls-16,.cls-17,.cls-18,.cls-19,.cls-2,.cls-3,.cls-5,.cls-8,.cls-9{stroke:#3b65ee;}.cls-10,.cls-11,.cls-12,.cls-14,.cls-15,.cls-16,.cls-17,.cls-18,.cls-19,.cls-2,.cls-3,.cls-8,.cls-9{stroke-linecap:round;stroke-linejoin:round;}.cls-2{stroke-width:3.67px;}.cls-11,.cls-3{stroke-width:4.42px;}.cls-11,.cls-14,.cls-19,.cls-5,.cls-8,.cls-9{fill:none;}.cls-5{stroke-miterlimit:10;}.cls-12,.cls-19,.cls-5,.cls-8{stroke-width:4.69px;}.cls-16,.cls-17,.cls-6{opacity:0.2;}.cls-7{opacity:0.1;}.cls-10,.cls-9{stroke-width:5.41px;}.cls-13,.cls-19{opacity:0.4;}.cls-14,.cls-15{stroke-width:4.15px;}.cls-16{stroke-width:3.91px;}.cls-17{stroke-width:5.08px;}.cls-18{stroke-width:5.77px;}</style></defs><title>Speedcar</title><g id="Layer_2" data-name="Layer 2"><rect class="cls-1" width="4800" height="3000"/><path class="cls-2" d="M2814.23,1629.71l38.66-8.85c25.71-6,52.52,14.43,59.87,45.73s-7.53,61.57-33.24,67.61l-40.54,9.36c-25.71,6-52.52-14.44-59.87-45.74s7.53-61.57,33.24-67.61,52.51,14.44,59.87,45.74"/><path class="cls-3" d="M2800.48,1613.48c6.21-.32,43.19.41,76.24,58.78a10.23,10.23,0,0,1-6.31,15l-37.2,9.67a10.2,10.2,0,0,1-12-6c-5.51-13.41-19-39.71-44.49-54.22-8.25-4.7-6.43-17,2.86-19l19.4-4A11.09,11.09,0,0,1,2800.48,1613.48Z"/><path class="cls-3" d="M2150.14,1552.46l13.46-29a13.66,13.66,0,0,1,11.4-7.87l87.13-6.3a13.41,13.41,0,0,1,4.46.42l55.68,14.71a13.67,13.67,0,0,1,7.14,4.62l49,60.71a13.65,13.65,0,0,0,5.4,4l89.91,37.2a13.63,13.63,0,0,0,15.43-3.56l36.21-40.85a13.68,13.68,0,0,1,7.73-4.37l136.47-25.31a13.56,13.56,0,0,1,8.61,1.22c23.08,11.63,136.34,72.68,198.94,180.07a13.65,13.65,0,0,1-4.6,18.54c-16.9,10.32-59.6,28.91-163.29,47"/><ellipse class="cls-4" cx="2478.78" cy="1436.82" rx="5.65" ry="5.69"/><ellipse class="cls-4" cx="2495.74" cy="1436.82" rx="5.65" ry="5.69"/><path class="cls-4" d="M2465.88,1451.54a2.29,2.29,0,0,0-1.89,2.8,23.73,23.73,0,0,0,46.6-7.66,2.28,2.28,0,0,0-2.68-2Z"/><path class="cls-5" d="M2532,1519.79a5.47,5.47,0,0,0,2.78-3.91c3.35-20.13,20.69-150.33-90.84-154.66,0,0-62.2-5.87-70.42,51.64-7.14,50-1.85,77-.36,83.13a5.58,5.58,0,0,0,1.27,2.4c5.57,6.16,37.34,31,76.55,34.18C2488.34,1535.6,2522.78,1524.84,2532,1519.79Z"/><ellipse class="cls-5" cx="2406.99" cy="1439.27" rx="5.87" ry="8.22"/><path class="cls-5" d="M2524,1409.41s-55.36,11.66-100,2.28-41.08,46.94-14.08,64.55,96.06,28.69,127.84,2.61"/><path class="cls-6" d="M2373.54,1412.86c3.18-22.25,14.44-35,27.05-42.29,42.54-9.78,67.38,12.09,81.76,44.14-17.92,1.16-39.13,1-58.34-3-44.6-9.39-41.08,46.94-14.08,64.55,18.64,12.16,57.37,21.2,90,17,1.07,13.14,1.44,25.53,1.46,36.06a184.63,184.63,0,0,1-50.4,3.23c-39.21-3.18-71-28-76.55-34.18a5.58,5.58,0,0,1-1.27-2.4C2371.69,1489.83,2366.4,1462.89,2373.54,1412.86Z"/><polygon class="cls-6" points="2499.94 1493.28 2499.94 1493.28 2499.94 1493.27 2499.94 1493.28"/><path class="cls-6" d="M2499.52,1488.51c0-.08,0-.15,0-.23C2499.51,1488.36,2499.51,1488.43,2499.52,1488.51Z"/><path class="cls-6" d="M2496.24,1463.27l0-.14Z"/><polygon class="cls-6" points="2482.35 1414.71 2482.35 1414.72 2482.35 1414.71 2482.35 1414.71"/><path class="cls-6" d="M2494.31,1453.09l0-.08Z"/><path class="cls-6" d="M2498.45,1478.55c0-.12,0-.24,0-.36C2498.42,1478.31,2498.44,1478.43,2498.45,1478.55Z"/><path class="cls-7" d="M2408.75,1477.41c-27-17.61-30.51-73.94,14.09-64.55,19.21,4,40.41,4.18,58.33,3h0a188.84,188.84,0,0,1,11.95,38.3l0,.08c.69,3.33,1.33,6.68,1.9,10l0,.14c.85,5,1.57,10,2.17,14.92,0,.12,0,.24.05.37.4,3.26.74,6.51,1,9.72a1.64,1.64,0,0,0,0,.23c.15,1.6.29,3.19.42,4.76h0C2466.13,1498.62,2427.4,1489.57,2408.75,1477.41Z"/><path class="cls-5" d="M2507.34,1606.51c-7.59-.24-15.59-1.66-17.61-4.69-4.69-7-2.34-55.17,2.35-58.69s18.78-8.21,24.65-5.86,24.64,12.91,29.34,22.29c0,0-2.48,10.23-6.16,21.13"/><path class="cls-8" d="M2487.39,1559.56s-75.12-20-89.2-28.16-27-2.35-30.51,8.21-1.18,20,16.43,31.69,66.33,31.42,111.49,34"/><path class="cls-8" d="M2594.19,1542s-32.36-4.33-50.8,13.68"/><path class="cls-8" d="M2578.1,1524.08s-32.63-.92-49.09,18.93"/><path class="cls-8" d="M2596.54,1546.65s-4.7-17.6-25.82-27"/><path class="cls-8" d="M2560.15,1524.36l2.35-15.26s27-10.56,37.56,1.17,16.43,23.47,16.43,36.38"/><path class="cls-8" d="M2370.61,1478.55l-41,3.71a24.1,24.1,0,0,0-17.61,10.27l-.7,1a24,24,0,0,0-4.13,11l-1.68,15.08"/><path class="cls-9" d="M2186,1733.45c38.15-7.76,61.43-51.7,52-98.15"/><path class="cls-10" d="M2154.62,1564.58l57.37-11.32c38.16-7.76,76.74,23.61,86.18,70.06s-13.84,90.39-52,98.15l-60.16,12c-38.16,7.75-76.74-23.62-86.18-70.07s13.83-90.39,52-98.14,76.74,23.61,86.18,70.06"/><path class="cls-3" d="M2367.59,1733.44l-44.24,3.16a2.45,2.45,0,0,1-2.62-2.45V1606.29a2.5,2.5,0,0,0-.64-1.66l-39-42.51a2.45,2.45,0,0,1,3.1-3.74l76.53,47.47a2.43,2.43,0,0,1,1.15,1.92l8,123.07A2.46,2.46,0,0,1,2367.59,1733.44Z"/><line class="cls-1" x1="2370.02" y1="1733.26" x2="2460.39" y2="1762.61"/><path class="cls-4" d="M2370.7,1731.16l89.69,31.45-91-27.24a2.21,2.21,0,0,1,1.27-4.24Z"/><polygon class="cls-6" points="2278.48 1559.57 2166.98 1519.66 2147.03 1563.09 2273.66 1694.95 2320.73 1707.53 2320.73 1605.34 2278.48 1559.57"/><line class="cls-11" x1="2280.83" y1="1558.39" x2="2166.98" y2="1519.66"/><path class="cls-8" d="M2630.57,1750.87s7,21.12,3.52,44.6c0,0,44.6,14.08,75.12,8.21"/><path class="cls-4" d="M2782,1716.83q-7.3-9.91-15-19.46c-5.1-6.4-10.34-12.68-15.65-18.88s-10.74-12.31-16.32-18.27-11.15-11.91-17-17.61-11.64-11.43-17.7-16.88c-1.49-1.39-3-2.75-4.54-4.09s-3-2.72-4.59-4c-3.12-2.63-6.2-5.31-9.36-7.89a452.27,452.27,0,0,0-39.52-29,265.84,265.84,0,0,1,41.79,26.15,358.79,358.79,0,0,1,37.23,32.44,421.69,421.69,0,0,1,32.81,36.89c5.11,6.45,10,13.08,14.67,19.83S2778,1709.66,2782,1716.83Z"/><path class="cls-6" d="M2796.08,1728.56l-14.95,5a4.9,4.9,0,0,0-1.09,8.77l13.84,8.86a4.9,4.9,0,0,0,7.52-3.74l1.11-13.83A4.9,4.9,0,0,0,2796.08,1728.56Z"/><polyline class="cls-8" points="2369.89 1466.59 2166.98 1483.28 2166.98 1469.19 2369.89 1458.29"/><polyline class="cls-8" points="2166.98 1470.37 2102.43 1399.95 2121.21 1478.58 2166.98 1483.28"/><polygon class="cls-6" points="2166.98 1470.37 2166.98 1483.28 2121.21 1478.58 2102.43 1399.95 2166.98 1470.37"/><line class="cls-8" x1="2117.69" y1="1415.21" x2="2373.21" y2="1415.21"/><path class="cls-4" d="M2705.72,1803.55c-.4-2.49-1-5.17-1.6-7.76s-1.31-5.2-2-7.79c-1.46-5.18-3.16-10.31-5-15.39a284.4,284.4,0,0,0-12.79-29.81,330.3,330.3,0,0,0-34.73-54.92A367,367,0,0,0,2605,1640.3a424,424,0,0,0-51.92-39.66A424.45,424.45,0,0,1,2606,1639.2a368.55,368.55,0,0,1,45.87,46.85,334.41,334.41,0,0,1,36.35,54.75,291.91,291.91,0,0,1,13.68,30c2,5.14,3.84,10.34,5.46,15.62q1.21,4,2.29,8c.69,2.71,1.34,5.34,1.88,8.23a2.93,2.93,0,1,1-5.77,1.06.07.07,0,0,1,0,0Z"/><polygon class="cls-12" points="2221.87 1478.77 2272.02 1527.29 2240.34 1517.9 2210.24 1479.72 2221.87 1478.77"/><g class="cls-13"><path class="cls-4" d="M1996,1446.54c-2.51.16-4.9.34-7.25.62a57.58,57.58,0,0,0-6.79,1.12c-4.35,1-8.23,2.68-11,5.34s-4.61,6.38-5.7,10.68-1.51,9-2.14,14a31,31,0,0,1-3.21-14.75l.12-2c.1-.66.22-1.32.33-2a12.45,12.45,0,0,1,.49-2,15.71,15.71,0,0,1,.66-2c.27-.64.55-1.28.87-1.91l1.08-1.84c.41-.59.87-1.14,1.31-1.71s1-1,1.48-1.57a20.46,20.46,0,0,1,7.23-4.33,25.41,25.41,0,0,1,7.9-1.35,30.23,30.23,0,0,1,7.63.86,28,28,0,0,1,3.61,1.13A20.8,20.8,0,0,1,1996,1446.54Z"/></g><g class="cls-13"><path class="cls-4" d="M2022.83,1440.22a49.09,49.09,0,0,0-13.94,1.83,21.81,21.81,0,0,0-10.37,6.59,35.11,35.11,0,0,0-6.09,11.42c-1.49,4.35-2.54,9-3.91,13.91a37,37,0,0,1-1.36-15.09,27.79,27.79,0,0,1,6.16-14.74A21.91,21.91,0,0,1,2000,1439a22.2,22.2,0,0,1,7.92-2.23,24.8,24.8,0,0,1,7.86.57,24.06,24.06,0,0,1,3.67,1.15A18.51,18.51,0,0,1,2022.83,1440.22Z"/></g><g class="cls-13"><path class="cls-4" d="M1933.26,1564.77c.79,2.38,1.57,4.66,2.43,6.86a57.11,57.11,0,0,0,2.81,6.28c2.07,3.95,4.67,7.29,8,9.32s7.34,2.85,11.77,2.81,9.13-.81,14.1-1.47a30.91,30.91,0,0,1-13.45,6.84l-1.94.38c-.67.08-1.34.12-2,.18a12.59,12.59,0,0,1-2,0,18,18,0,0,1-2.07-.15c-.69-.1-1.38-.21-2.07-.35l-2.06-.59c-.67-.24-1.32-.55-2-.83s-1.26-.69-1.89-1a20.41,20.41,0,0,1-6-5.9,25.12,25.12,0,0,1-3.31-7.29,30.14,30.14,0,0,1-1.09-7.61,29.65,29.65,0,0,1,.17-3.77A21.29,21.29,0,0,1,1933.26,1564.77Z"/></g><g class="cls-13"><path class="cls-4" d="M1920.36,1540.44a49.59,49.59,0,0,0,5.3,13,21.89,21.89,0,0,0,9,8.36,34.91,34.91,0,0,0,12.58,3c4.59.34,9.38.17,14.45.27a37.06,37.06,0,0,1-14.26,5.13,27.73,27.73,0,0,1-15.81-2.24,21.62,21.62,0,0,1-6.68-5.13,22.06,22.06,0,0,1-4.16-7.1,25,25,0,0,1-1.44-7.75,23.42,23.42,0,0,1,.19-3.84A18.81,18.81,0,0,1,1920.36,1540.44Z"/></g><g class="cls-13"><path class="cls-4" d="M1984.06,1488.67c-12-2.63-23.84-5.91-35.59-9.38s-23.38-7.25-35-11.23-23.07-8.16-34.48-12.62-22.73-9.15-33.84-14.48c12,2.62,23.85,5.9,35.6,9.38s23.38,7.25,35,11.23,23.06,8.17,34.47,12.63S1973,1483.35,1984.06,1488.67Z"/></g><g class="cls-13"><path class="cls-4" d="M1911.5,1492.36c-13.59-3.23-27-7.11-40.26-11.22s-26.5-8.45-39.64-13-26.18-9.36-39.13-14.45-25.84-10.35-38.5-16.28c13.6,3.23,27,7.11,40.27,11.21s26.5,8.46,39.63,13,26.18,9.36,39.13,14.46S1898.84,1486.44,1911.5,1492.36Z"/></g><g class="cls-13"><path class="cls-4" d="M1956.52,1521.26c-10,0-19.93-.6-29.83-1.44s-19.74-2-29.56-3.38-19.6-3-29.35-4.84-19.46-4-29.09-6.79c10,0,19.94.59,29.84,1.44s19.74,2,29.55,3.39,19.61,3,29.36,4.84S1946.9,1518.48,1956.52,1521.26Z"/></g><path class="cls-6" d="M2693.79,1805.11S2661.09,1664,2532,1600.64c0,0-31.69,43.43-49.3,42.25s-109.15-44.6-109.15-44.6l-48.12-63.37-44.59,22.3,79.8,48.12,9.39,126.75,125.58,37.56,140.84,17.6-.75,8.7S2659.6,1805.37,2693.79,1805.11Z"/><path class="cls-14" d="M2536.45,1826.59c29-6.82,45.83-41,37.53-76.33"/><path class="cls-15" d="M2508.51,1698.05l43.65-10c29-6.82,59.29,16.3,67.59,51.64s-8.5,69.51-37.52,76.32l-45.78,10.57c-29,6.82-59.28-16.3-67.58-51.64s8.5-69.51,37.52-76.33,59.29,16.3,67.59,51.64"/><path class="cls-3" d="M2577.85,1672.22c2.3-.24,45.8-3.77,82.15,68.26a2,2,0,0,1-1.26,2.78l-54.54,14.18a2,2,0,0,1-2.35-1.26c-3.42-10.16-23.11-61.85-72.81-70a2,2,0,0,1-.1-3.85l48.73-10.12Z"/><polygon class="cls-6" points="2361.81 1607.68 2368.85 1732.09 2321.9 1734.44 2321.9 1606.51 2361.81 1607.68"/><path class="cls-6" d="M2543.39,1567.61l-32.53-24.48-21.67,8.95-1.92,22.22s-48,2.87-117.25-38.21c0,0-10.43,14.8,4.76,27.94s78.57,41.31,132.56,43.65c0,0,15.26-23.47,23.47-24.64s9.39-4.7,9.39-4.7Z"/><polyline class="cls-6" points="2362.98 1451.59 2161.58 1464.48 2123.32 1422.74 2364.15 1451.59"/><ellipse class="cls-16" cx="2520.25" cy="1762.61" rx="50.93" ry="62" transform="translate(-336.32 623.1) rotate(-13.22)"/><ellipse class="cls-17" cx="2168.79" cy="1651.38" rx="66.2" ry="80.59" transform="translate(-320.19 539.77) rotate(-13.22)"/><ellipse class="cls-3" cx="2520.1" cy="1763.19" rx="19.9" ry="27.34" transform="translate(-336.45 623.08) rotate(-13.22)"/><ellipse class="cls-18" cx="2166.46" cy="1649.96" rx="25.98" ry="35.7" transform="matrix(0.98, -0.2, 0.2, 0.98, -285.21, 464.54)"/><text/><line class="cls-19" x1="2490.63" y1="1705.74" x2="2366.5" y2="1666.37"/><line class="cls-19" x1="2428.7" y1="1701.58" x2="2366.28" y2="1681.59"/><path class="cls-7" d="M2852.39,1767.3s-79-137.89-208.5-205.67l-63,11.68s138.43,83.7,176.79,221C2757.7,1794.31,2843,1774.34,2852.39,1767.3Z"/><line class="cls-1" x1="2506.02" y1="1823.28" x2="2343.03" y2="1773.17"/><path class="cls-4" d="M2505.33,1825.52,2343,1773.17,2506.71,1821a2.35,2.35,0,0,1-1.32,4.51Z"/><line class="cls-1" x1="2485.04" y1="1807.2" x2="2382.93" y2="1775.52"/><path class="cls-4" d="M2484.34,1809.45l-101.41-33.93L2485.74,1805a2.35,2.35,0,1,1-1.3,4.52Z"/><line class="cls-1" x1="2479.17" y1="1795.47" x2="2428.7" y2="1780.21"/><path class="cls-4" d="M2478.49,1797.71l-49.79-17.5,51.15,13a2.35,2.35,0,1,1-1.16,4.55Z"/><line class="cls-1" x1="2153.63" y1="1730.98" x2="1991.07" y2="1679.5"/><path class="cls-4" d="M2152.92,1733.22l-161.85-53.72,163.27,49.25a2.35,2.35,0,1,1-1.36,4.49Z"/><line class="cls-1" x1="2181.27" y1="1569.77" x2="2015.13" y2="1525.53"/><path class="cls-4" d="M2180.67,1572l-165.54-46.51,166.75,42a2.35,2.35,0,1,1-1.15,4.55Z"/><line class="cls-1" x1="2175.2" y1="1560.74" x2="2071.92" y2="1529.05"/><path class="cls-4" d="M2174.51,1563l-102.59-33.93,104,29.44a2.35,2.35,0,1,1-1.28,4.52Z"/><ellipse class="cls-6" cx="1211.87" cy="1011.8" rx="234.73" ry="80.98" transform="translate(-356.08 1195.94) rotate(-46.56)"/><ellipse class="cls-6" cx="1188.9" cy="999.73" rx="210.47" ry="50.73" transform="translate(-350.51 1207.51) rotate(-47.75)"/><path class="cls-8" d="M1053.38,1184.87S817.48,991.21,921.94,817.52s443.63,18.77,443.63,18.77"/><ellipse class="cls-8" cx="1211.87" cy="1011.8" rx="234.73" ry="80.98" transform="translate(-356.08 1195.94) rotate(-46.56)"/><path class="cls-4" d="M907.85,845.68a151.61,151.61,0,0,0,3.19,18.2c1.38,6,3,11.94,4.78,17.84a354.49,354.49,0,0,0,12.73,34.64c4.82,11.32,10.18,22.4,16,33.26,2.85,5.45,5.92,10.78,8.94,16.13s6.26,10.58,9.6,15.74a586.94,586.94,0,0,0,43.24,59.63,722.18,722.18,0,0,0,49.61,54.43l-5,4.94a730.76,730.76,0,0,1-48.71-56.06A592.09,592.09,0,0,1,960,983.33c-3.23-5.27-6.22-10.69-9.28-16.07-2.91-5.45-5.87-10.88-8.61-16.43-5.54-11.05-10.66-22.32-15.23-33.8A359.12,359.12,0,0,1,915,882c-1.63-6-3.12-12-4.36-18A154.94,154.94,0,0,1,907.85,845.68Z"/><path class="cls-4" d="M985.31,777.61a145.31,145.31,0,0,1,19.12-3.32c6.44-.73,12.9-1.16,19.38-1.41a327.18,327.18,0,0,1,38.85,1.18c12.92,1.14,25.78,3,38.53,5.41,6.39,1.15,12.72,2.61,19.06,4,6.29,1.59,12.61,3.09,18.84,4.91a546.55,546.55,0,0,1,73.26,26.42,682.43,682.43,0,0,1,69.41,35.45l-3.62,6a678,678,0,0,0-68-36.69l-8.78-4c-2.92-1.36-5.91-2.56-8.86-3.85s-5.91-2.57-8.91-3.76l-9-3.55c-3-1.22-6-2.31-9.05-3.41s-6-2.24-9.09-3.29c-6.12-2-12.2-4.16-18.39-6-6.15-1.95-12.39-3.58-18.61-5.3-6.26-1.53-12.51-3.12-18.83-4.41-12.61-2.69-25.35-4.82-38.18-6.25a324.16,324.16,0,0,0-38.66-2c-6.46.1-12.92.39-19.35,1A144.18,144.18,0,0,0,985.31,777.61Z"/><path class="cls-4" d="M936.23,820.47c20.06,8.32,39.85,17.29,59.5,26.54s39.16,18.84,58.47,28.82,38.5,20.18,57.45,30.86,37.71,21.67,56.33,32.93l-3.75,6c-18.23-11.7-36.56-23.28-55.23-34.31s-37.45-21.86-56.46-32.32-38.21-20.56-57.58-30.35S956.05,829.33,936.23,820.47Z"/><path class="cls-4" d="M1054.74,1094.77l968,407.35L1052,1101.27a3.52,3.52,0,1,1,2.69-6.51Z"/><path class="cls-4" d="M1280.81,849.89l780.62,578.29L1276.64,855.56a3.52,3.52,0,1,1,4.15-5.69Z"/><path class="cls-4" d="M1167.89,939.56l924.05,546.13L1164.32,945.63a3.52,3.52,0,1,1,3.55-6.08Z"/><g class="cls-13"><polygon class="cls-4" points="1145.83 1166.46 2005.1 1502.12 1144.13 1170.84 1145.83 1166.46"/></g><g class="cls-13"><polygon class="cls-4" points="1280.72 1055.46 2079.03 1485.69 1278.5 1059.6 1280.72 1055.46"/></g><g class="cls-13"><polygon class="cls-4" points="1377.55 908.36 2079.03 1437.57 1374.73 912.11 1377.55 908.36"/></g><path class="cls-6" d="M910.2,838.64s91.54,127.93,184.26,189c0,0-30.51,34-41.08,70.42C1053.38,1098,897.29,930.19,910.2,838.64Z"/><path class="cls-6" d="M896.64,889.91s28.32,125.48,147.11,237.21c0,0-10.33,36.72,3.17,52.51C1046.92,1179.63,872.53,1022.16,896.64,889.91Z"/><path class="cls-4" d="M3004.81,1752c60.93,13.18,121.89,26,183,38l45.86,8.85,45.93,8.52,46,8.22,46.05,7.81,46.09,7.52,46.16,7.09,46.21,6.75,23.14,3.14,23.14,3.22q92.6,12.3,185.63,21.67c-62.26-3.25-124.4-8.77-186.35-15.9l-23.22-2.79-23.21-2.87-46.36-6.24-46.26-6.87-46.2-7.37-46.08-8-46-8.47-45.89-9c-15.28-3.12-30.53-6.34-45.78-9.56C3125.69,1782.58,3065,1768.13,3004.81,1752Z"/><path class="cls-4" d="M1521.18,1586.63c76.56,38.91,154.59,74.82,233.22,109.27,9.81,4.35,19.68,8.58,29.53,12.83l29.56,12.75,29.67,12.49c9.9,4.13,19.76,8.38,29.71,12.4l29.78,12.21,14.89,6.12c5,2,10,4,14.93,6l29.89,12,15,6,15,5.84q239.73,94,486.29,169.1c41.15,12.16,82.19,24.73,123.57,36.1l31,8.72c5.17,1.44,10.32,2.95,15.5,4.32l15.55,4.13,62.21,16.54c5.18,1.41,10.38,2.7,15.59,4l15.61,3.9,31.22,7.81,31.23,7.8,31.34,7.31,62.71,14.55,62.92,13.57,15.73,3.4c5.25,1.11,10.48,2.31,15.75,3.31l31.58,6.21,31.58,6.22,15.79,3.12c5.27,1,10.52,2.12,15.81,3l63.38,11.31,15.84,2.83c5.28.94,10.56,1.92,15.87,2.71l31.79,5,31.79,5.08,15.9,2.54c5.3.83,10.58,1.76,15.91,2.45l63.78,8.83,15.95,2.21,8,1.1c2.66.36,5.31.76,8,1l32,3.71,64,7.58-64.09-6.46-32-3.29c-2.68-.25-5.34-.61-8-.94l-8-1-16-2-63.93-8c-5.33-.61-10.63-1.48-15.95-2.23l-15.94-2.34-31.87-4.67-31.87-4.72c-5.32-.74-10.61-1.68-15.9-2.57l-15.89-2.68-63.54-10.73c-5.3-.85-10.57-1.88-15.85-2.87l-15.83-3-31.65-6-31.66-6c-5.28-1-10.52-2.12-15.79-3.2l-15.77-3.29-63.08-13.17c-21-4.68-41.89-9.53-62.84-14.29l-31.41-7.19-31.3-7.69-31.29-7.68-15.65-3.85c-5.21-1.27-10.43-2.55-15.62-3.94l-62.32-16.42-15.58-4.11c-5.19-1.38-10.34-2.88-15.52-4.31l-31-8.69c-41.45-11.33-82.55-23.85-123.77-36q-123.21-37.86-244.91-80.35l-60.7-21.64-60.46-22.32c-5-1.83-10.05-3.77-15.07-5.68l-15.05-5.75-30.1-11.5c-10-3.8-20-7.79-30-11.74l-30-11.85q-119.7-47.77-237.26-100.63l-29.31-13.35c-9.77-4.45-19.48-9-29.22-13.56l-14.6-6.8-14.55-6.91c-9.69-4.64-19.42-9.17-29.07-13.89C1597.49,1626.05,1559,1606.9,1521.18,1586.63Z"/><path class="cls-4" d="M1493.24,1603.4c70.67,33.69,142.06,65.77,213.75,97.13,17.94,7.79,35.85,15.67,53.85,23.31l27,11.54,13.49,5.77,13.54,5.66L1869,1769.5l54.33,22.17c18,7.52,36.27,14.65,54.43,21.92l27.25,10.87,13.64,5.42,13.67,5.3,54.7,21.27c4.56,1.76,9.1,3.58,13.68,5.29l13.74,5.15,27.45,10.38,27.44,10.38,13.73,5.19,13.78,5,55.11,20.2c18.31,6.91,36.81,13.27,55.24,19.87l27.64,9.87,27.63,10-28-8.89-28-9c-18.63-6-37.28-12-55.78-18.38l-55.55-19.06-13.89-4.78-13.81-5-27.62-10-27.62-10-13.8-5c-4.6-1.66-9.16-3.44-13.74-5.16l-54.94-20.8-13.72-5.22-13.67-5.38-27.31-10.8c-18.2-7.23-36.46-14.3-54.55-21.79q-108.88-44.13-215.86-92.75C1633.33,1673.43,1562.54,1639.85,1493.24,1603.4Z"/></g></svg>