<svg width="308" height="207" viewBox="0 0 308 207" fill="none" xmlns="http://www.w3.org/2000/svg">
<path d="M205.89 191.56H277.12L265.69 148.87L218.49 95.3199L205.89 191.56Z" fill="#B0C3EA" stroke="#3B65EE" stroke-width="2.5" stroke-miterlimit="10" stroke-linecap="round" stroke-linejoin="round"/>
<path d="M303.72 144.55C302.22 144.27 300.81 145.48 300.57 147.27L300.01 151.47C299.33 156.58 296.51 161.07 292.3 163.25C287.87 165.54 282.71 164.43 278.88 160.93L265.68 148.87C265.6 148.8 265.49 148.85 265.47 148.97L259.76 191.6C259.76 191.63 259.77 191.66 259.78 191.69H300.08C300.14 191.69 300.2 191.64 300.21 191.56L301.1 184.89C301.11 184.81 301.07 184.74 301.01 184.72L285.4 179.78C285.26 179.74 285.28 179.5 285.41 179.48L302.15 176.39C302.21 176.38 302.25 176.33 302.26 176.26L306 148.3C306.25 146.51 305.22 144.83 303.72 144.55Z" fill="#D1DAED" stroke="#3B65EE" stroke-width="2.5" stroke-miterlimit="10" stroke-linecap="round" stroke-linejoin="round"/>
<path d="M154.55 204.79H265.59L254.16 162.1L198.03 97.8699L179.3 80.1799L154.55 204.79Z" fill="#B0C3EA" stroke="#3B65EE" stroke-width="2.5" stroke-miterlimit="10" stroke-linecap="round" stroke-linejoin="round"/>
<path d="M151.08 59.8299C145.63 49.2099 134.05 43.2099 122.23 44.8799L88.5699 49.0699L105.46 87.7599L113.86 86.0399L122.51 101.95L187.62 131.07L151.08 59.8299Z" fill="#B0C3EA" stroke="#3B65EE" stroke-width="2.5" stroke-miterlimit="10" stroke-linecap="round" stroke-linejoin="round"/>
<path d="M46.4199 54.3C37.7399 55.49 31.1599 62.89 31.1499 71.81C31.1399 82.39 40.3099 90.28 50.8499 89.34L70.6599 87.57C70.6599 87.57 60.1699 95.96 65.8299 100.9C71.4899 105.84 85.9299 89.84 85.9299 89.84L84.5699 49.1L46.4199 54.3Z" fill="#B0C3EA" stroke="#3B65EE" stroke-width="2.5" stroke-miterlimit="10" stroke-linecap="round" stroke-linejoin="round"/>
<path d="M106.76 92.76L97.8799 49.0299C96.5999 42.8299 90.5298 38.8399 84.3298 40.1199C78.1298 41.3999 74.1399 47.47 75.4199 53.67L81.9799 86.17C83.2599 92.37 89.3299 96.3599 95.5299 95.0799L106.76 92.76Z" fill="#D1DAED" stroke="#3B65EE" stroke-width="2.5" stroke-miterlimit="10" stroke-linecap="round" stroke-linejoin="round"/>
<path d="M292.2 157.78C290.7 157.5 289.29 158.71 289.05 160.5L288.49 164.7C287.81 169.81 284.99 174.3 280.78 176.48C276.35 178.77 271.19 177.66 267.36 174.16L254.16 162.1C254.08 162.03 253.97 162.08 253.95 162.2L248.24 204.8C248.24 204.83 288.68 204.83 288.69 204.76L289.58 198.12C289.59 198.04 289.55 197.97 289.49 197.95L273.88 193.01C273.74 192.97 273.76 192.73 273.89 192.71L290.63 189.62C290.69 189.61 290.73 189.56 290.74 189.49L294.48 161.53C294.72 159.74 293.7 158.06 292.2 157.78Z" fill="#D1DAED" stroke="#3B65EE" stroke-width="2.5" stroke-miterlimit="10" stroke-linecap="round" stroke-linejoin="round"/>
<path d="M120.4 204.91H157.05C180.17 204.91 201.66 194.11 213.26 176.38C214.93 173.83 216.54 171.19 218.1 168.48C238.6 132.75 233.57 94.59 194.41 76.91C155.25 59.23 73.76 76.88 53.26 112.61C36.43 141.94 23.9799 141.85 48.74 163.01C54.29 167.74 112.71 204.91 120.4 204.91Z" fill="#D1DAED" stroke="#3B65EE" stroke-width="2.5" stroke-miterlimit="10" stroke-linecap="round" stroke-linejoin="round"/>
<path d="M105.5 146.8L117.34 160.31L78.53 159.83L74.04 144.42L105.5 146.8Z" fill="#B0C3EA" stroke="#B0C3EA" stroke-width="2.5" stroke-miterlimit="10" stroke-linecap="round" stroke-linejoin="round"/>
<path d="M174.89 125.57C179.12 125.42 182.43 121.84 182.28 117.59C182.13 113.34 178.57 110.01 174.34 110.16C170.11 110.31 166.8 113.89 166.95 118.14C167.1 122.4 170.66 125.72 174.89 125.57Z" fill="#3B65EE"/>
<path d="M202.55 136.13C206.78 135.98 210.09 132.4 209.94 128.15C209.79 123.9 206.23 120.57 202 120.72C197.77 120.87 194.46 124.45 194.61 128.7C194.76 132.95 198.32 136.28 202.55 136.13Z" fill="#3B65EE"/>
<path d="M100.48 160.26L78.53 159.82L76.23 151.56L34.1 154.19L45.74 186.05C49.65 197.33 60.28 204.9 72.21 204.9H152.27" fill="#D1DAED"/>
<path d="M100.48 160.26L78.53 159.82L76.23 151.56L34.1 154.19L45.74 186.05C49.65 197.33 60.28 204.9 72.21 204.9H152.27" stroke="#3B65EE" stroke-width="2.5" stroke-miterlimit="10" stroke-linecap="round" stroke-linejoin="round"/>
<path d="M127.52 160.65L78.53 159.83L71.78 168.71" fill="#D1DAED"/>
<path d="M127.52 160.65C123.43 161.03 119.34 161.2 115.26 161.33C111.17 161.44 107.09 161.49 103.01 161.45C98.93 161.43 94.84 161.33 90.76 161.19C86.68 161.03 82.6 160.83 78.52 160.5L79.07 160.23C77.89 161.67 76.67 163.08 75.47 164.5C74.25 165.91 73.03 167.32 71.78 168.7C72.78 167.13 73.81 165.57 74.84 164.02C75.89 162.48 76.92 160.93 77.99 159.41C78.1 159.25 78.28 159.16 78.47 159.15H78.54C82.63 158.96 86.71 158.9 90.8 158.87C94.88 158.86 98.97 158.9 103.05 159.02C107.13 159.12 111.21 159.31 115.29 159.55C119.36 159.82 123.44 160.13 127.52 160.65Z" fill="#3B65EE"/>
<path d="M135.64 95.5799C135.64 95.5799 185.99 82.01 228.93 122.4" stroke="#3B65EE" stroke-width="2.5" stroke-miterlimit="10" stroke-linecap="round" stroke-linejoin="round"/>
<path d="M19.52 114.31C16.61 106.04 20.2 96.8099 28.13 92.7399C37.54 87.8999 48.74 92.4599 52.72 102.27L60.19 120.7C60.19 120.7 62.86 107.54 69.85 110.32C76.83 113.1 69.18 133.25 69.18 133.25L32.31 150.63L19.52 114.31Z" fill="#B0C3EA" stroke="#3B65EE" stroke-width="2.5" stroke-miterlimit="10" stroke-linecap="round" stroke-linejoin="round"/>
<path d="M80.71 150.52L37.75 162.58C31.65 164.27 25.33 160.7 23.64 154.59C21.95 148.49 25.52 142.17 31.63 140.48L63.54 131.48C69.64 129.79 75.96 133.36 77.65 139.47L80.71 150.52Z" fill="white" stroke="#3B65EE" stroke-width="2.5" stroke-miterlimit="10" stroke-linecap="round" stroke-linejoin="round"/>
<path d="M149.95 79.6199C152.87 82.1199 155.19 85.1099 157.02 88.3699C168.52 108.86 158.16 134.88 136.15 143.12C118.56 149.71 95.86 155.87 80.05 151.67C50.68 143.86 42.54 114.99 42.54 114.99L84.29 60.3699C84.28 60.3699 131.25 63.6099 149.95 79.6199Z" fill="white" stroke="#3B65EE" stroke-width="2.5" stroke-miterlimit="10" stroke-linecap="round" stroke-linejoin="round"/>
<path d="M83.1801 107.9C85.3064 107.9 87.0301 106.176 87.0301 104.05C87.0301 101.924 85.3064 100.2 83.1801 100.2C81.0538 100.2 79.3301 101.924 79.3301 104.05C79.3301 106.176 81.0538 107.9 83.1801 107.9Z" fill="#3B65EE"/>
<path d="M62.58 108.2C59.61 108.2 56.83 107.03 54.75 104.92L53.04 103.18C52.6 102.74 52.56 102.04 52.94 101.54L84 60.8899C84.24 60.5799 84.61 60.3999 84.99 60.3999C85.1 60.3999 85.2 60.4099 85.31 60.4399L88.27 61.2199C91.16 61.9899 93.47 64.1399 94.44 66.9699C95.41 69.7999 94.91 72.9099 93.09 75.2999L90.91 78.1699C98.39 79.6199 106.95 82.2699 109.34 87.0099C110.28 88.8699 110.23 90.8599 109.18 92.9399C107.54 96.1999 104.14 97.8599 99.07 97.8599C92.81 97.8599 85.15 95.3499 79.54 93.0999L71.32 103.89C69.23 106.62 66.04 108.2 62.58 108.2Z" fill="white"/>
<path d="M84.99 61.6499L87.95 62.4299C93.25 63.8299 95.43 70.1699 92.1 74.5399L88.68 79.0299C96.71 80.3999 112.19 84.1599 108.07 92.3699C106.5 95.4899 103.12 96.5999 99.07 96.5999C92.49 96.5999 84.18 93.6499 79.12 91.5699L70.32 103.12C68.39 105.66 65.48 106.96 62.56 106.96C60.06 106.96 57.54 106 55.62 104.05L53.91 102.31L84.99 61.6499ZM84.99 59.1499C84.22 59.1499 83.48 59.4999 83 60.1299L51.93 100.78C51.17 101.77 51.26 103.16 52.13 104.05L53.84 105.79C56.16 108.15 59.26 109.44 62.56 109.44C66.42 109.44 69.97 107.68 72.3 104.62L79.94 94.5899C85.56 96.7899 92.92 99.0899 99.05 99.0899C106 99.0899 108.99 96.0399 110.28 93.4799C111.81 90.4299 111.21 87.9599 110.44 86.4299C108.42 82.4399 102.6 79.3899 93.09 77.3299L94.07 76.0499C96.14 73.3399 96.71 69.7899 95.6 66.5599C94.49 63.3299 91.86 60.8799 88.56 60.0099L85.6 59.2299C85.42 59.1799 85.21 59.1499 84.99 59.1499Z" fill="#3B65EE"/>
<path d="M77.27 76.7499C80.54 78.1499 83.6 78.3399 84.09 77.1799C84.58 76.0199 82.34 73.9499 79.07 72.5499" fill="white"/>
<path d="M77.27 76.7499C80.54 78.1499 83.6 78.3399 84.09 77.1799C84.58 76.0199 82.34 73.9499 79.07 72.5499" stroke="#3B65EE" stroke-width="2.5" stroke-miterlimit="10" stroke-linecap="round" stroke-linejoin="round"/>
<path d="M68.29 88.7399C71.56 90.1399 74.62 90.3299 75.11 89.1699C75.6 88.0099 73.36 85.9399 70.09 84.5399" fill="white"/>
<path d="M68.29 88.7399C71.56 90.1399 74.62 90.3299 75.11 89.1699C75.6 88.0099 73.36 85.9399 70.09 84.5399" stroke="#3B65EE" stroke-width="2.5" stroke-miterlimit="10" stroke-linecap="round" stroke-linejoin="round"/>
<path d="M16.34 108.57L3.83997 81.9699C-3.87003 65.5599 10.12 47.2699 27.98 50.4199L84.28 60.3599L42.53 114.98L20.06 87.2099L16.34 108.57Z" fill="#D1DAED" stroke="#3B65EE" stroke-width="2.5" stroke-miterlimit="10" stroke-linecap="round" stroke-linejoin="round"/>
<path d="M15.0799 110.94C17.9352 110.94 20.2499 108.625 20.2499 105.77C20.2499 102.915 17.9352 100.6 15.0799 100.6C12.2246 100.6 9.90991 102.915 9.90991 105.77C9.90991 108.625 12.2246 110.94 15.0799 110.94Z" fill="white" stroke="#3B65EE" stroke-width="2.5" stroke-miterlimit="10" stroke-linecap="round" stroke-linejoin="round"/>
<path d="M20.0599 87.22L22.0499 75.83" stroke="#3B65EE" stroke-width="2.5" stroke-miterlimit="10" stroke-linecap="round" stroke-linejoin="round"/>
<path d="M125.7 9.22998H139.05L125.68 23.74H139.05" fill="white"/>
<path d="M125.7 9.22998H139.05L125.68 23.74H139.05" stroke="#3B65EE" stroke-width="2.5" stroke-miterlimit="10" stroke-linecap="round" stroke-linejoin="round"/>
<path d="M147.6 1.97998H160.94L147.57 16.49H160.94" fill="white"/>
<path d="M147.6 1.97998H160.94L147.57 16.49H160.94" stroke="#3B65EE" stroke-width="2.5" stroke-miterlimit="10" stroke-linecap="round" stroke-linejoin="round"/>
</svg>
