<?xml version="1.0" encoding="UTF-8"?><svg id="Layer_1" xmlns="http://www.w3.org/2000/svg" viewBox="0 0 500 500"><defs><style>.cls-1{fill:#c8d4fa;}.cls-2{fill:#3b66ef;}</style></defs><path class="cls-1" d="m403.36,149.82l-2.51,3.34c-1.65,2.2-3.79,4.15-6.35,5.8l-4.62,2.98,3.47.24c3.54.25,7.21,1.48,10.2,3.42l3.13,2.04-1.98-5.73c-.86-2.48-1.3-4.94-1.31-7.32l-.02-4.78Z"/><path class="cls-1" d="m402.39,149.25c-1.97,2.62-3.84,5.23-6.43,7.29-2.07,1.65-4.43,2.99-6.65,4.43-.97.62-.54,2.02.57,2.1,2.99.21,5.91.38,8.77,1.38s5.06,2.61,7.46,4.17c.8.52,1.97-.35,1.65-1.27-.86-2.48-1.85-4.96-2.53-7.5-.88-3.29-.73-6.65-.75-10.02,0-1.45-2.26-1.45-2.25,0,.02,3.46-.11,6.91.74,10.3.67,2.66,1.72,5.24,2.61,7.83l1.65-1.27c-2.57-1.67-5.07-3.37-8-4.4s-6.19-1.24-9.37-1.46l.57,2.1c2.39-1.54,4.88-3,7.11-4.78,2.73-2.18,4.7-4.98,6.78-7.75.87-1.16-1.08-2.28-1.94-1.14Z"/><path class="cls-1" d="m356.51,148.9l-.07,4.18c-.05,2.75-.63,5.58-1.73,8.43l-1.98,5.12,2.95-1.84c3.01-1.88,6.71-3.04,10.26-3.23l3.73-.19-4.97-3.47c-2.15-1.5-3.95-3.23-5.36-5.15l-2.83-3.85Z"/><path class="cls-1" d="m355.39,148.9c-.06,3.4-.03,6.71-.98,10.02-.73,2.53-1.81,4.97-2.76,7.42-.36.93.87,1.76,1.65,1.27,2.54-1.59,5-3.2,7.9-4.07s5.61-.89,8.48-1.04c1.15-.06,1.48-1.46.57-2.1-2.16-1.51-4.45-2.92-6.47-4.61-2.54-2.12-4.35-4.82-6.29-7.46-.85-1.16-2.8-.03-1.94,1.14,2.04,2.79,3.96,5.69,6.64,7.92,2.17,1.81,4.61,3.34,6.92,4.96l.57-2.1c-3.06.16-6.11.23-9.08,1.12s-5.73,2.6-8.44,4.29l1.65,1.27c.99-2.55,2.13-5.1,2.85-7.74.93-3.39.91-6.81.97-10.29.02-1.45-2.23-1.45-2.25,0Z"/><path class="cls-1" d="m318.08,175.7l2.4,3.42c1.58,2.25,2.77,4.89,3.55,7.84l1.41,5.31,1.3-3.22c1.33-3.29,3.64-6.4,6.41-8.64l2.91-2.35-6.06.12c-2.63.05-5.1-.29-7.37-1.02l-4.55-1.46Z"/><path class="cls-1" d="m317.11,176.26c1.91,2.73,3.91,5.38,5.07,8.54.92,2.51,1.49,5.18,2.18,7.76.31,1.17,1.78.96,2.17,0,1.13-2.78,2.19-5.52,4.05-7.93,1.76-2.28,4.06-3.99,6.28-5.79.78-.63.12-1.94-.8-1.92-2.63.05-5.29.23-7.92.09-3.39-.18-6.56-1.38-9.76-2.4-1.38-.44-1.97,1.73-.6,2.17,3.3,1.06,6.53,2.23,10.03,2.46,2.73.18,5.51-.01,8.25-.07l-.8-1.92c-2.39,1.94-4.77,3.78-6.64,6.26s-3.07,5.49-4.26,8.45h2.17c-.71-2.68-1.3-5.46-2.29-8.06-1.24-3.25-3.21-5.96-5.19-8.78-.82-1.18-2.78-.05-1.94,1.14Z"/><path class="cls-1" d="m454.32,222.93l-3.95-1.36c-2.6-.89-5.11-2.32-7.48-4.25l-4.26-3.47.84,3.37c.86,3.45.82,7.32-.1,10.76l-.97,3.61,4.84-3.66c2.09-1.58,4.3-2.76,6.56-3.51l4.54-1.5Z"/><path class="cls-1" d="m454.62,221.84c-3.12-1.07-6.19-2.04-8.97-3.88-2.2-1.45-4.19-3.25-6.23-4.91-.84-.69-2.17-.07-1.88,1.09.73,2.91,1.48,5.74,1.41,8.78s-.9,5.6-1.65,8.37c-.23.86.83,1.89,1.65,1.27,2.12-1.6,4.19-3.33,6.42-4.77,2.85-1.83,6.05-2.73,9.24-3.78,1.37-.45.78-2.63-.6-2.17-3.26,1.07-6.57,2-9.5,3.84-2.34,1.46-4.49,3.27-6.69,4.94l1.65,1.27c.8-2.96,1.65-5.87,1.73-8.96s-.72-6.27-1.49-9.38l-1.88,1.09c2.19,1.78,4.33,3.7,6.68,5.26,2.94,1.94,6.22,2.97,9.51,4.11,1.37.47,1.96-1.7.6-2.17Z"/><path class="cls-1" d="m440.72,178.09l-4,1.22c-2.63.81-5.5,1.13-8.55.96l-5.49-.3,2.66,2.24c2.72,2.28,4.97,5.44,6.24,8.76l1.34,3.49,1.76-5.8c.76-2.51,1.85-4.76,3.24-6.69l2.79-3.88Z"/><path class="cls-1" d="m440.42,177.01c-3.22.99-6.35,2.05-9.75,2.17-2.65.09-5.34-.18-7.98-.33-.93-.05-1.54,1.3-.8,1.92,2.33,1.96,4.67,3.83,6.41,6.38,1.61,2.36,2.53,4.98,3.54,7.62.39,1.01,1.83,1.13,2.17,0,.77-2.54,1.43-5.16,2.39-7.63,1.22-3.13,3.34-5.76,5.29-8.47.85-1.18-1.1-2.3-1.94-1.14-2.01,2.8-4.1,5.48-5.4,8.71-1.03,2.56-1.71,5.29-2.51,7.93h2.17c-1.08-2.81-2.06-5.65-3.77-8.16-1.85-2.72-4.27-4.74-6.76-6.83l-.8,1.92c2.75.15,5.55.45,8.31.32,3.49-.17,6.72-1.22,10.02-2.24,1.38-.42.79-2.6-.6-2.17Z"/><path class="cls-2" d="m327.46,205.79c3.2-11.2,10.25-21.13,19.87-27.7,7.86-5.37,17.14-8.56,26.61-9.33,9.39-.77,19.02.71,27.62,4.62,9.47,4.31,17.28,11.37,22.61,20.3,8.1,13.56,9.77,30.08,4.16,44.88-.69,1.81,2.21,2.59,2.89.8,5.23-13.8,4.36-29.15-1.93-42.45-4.89-10.34-12.9-19.07-22.99-24.51-17.71-9.56-40.27-8.99-57.57,1.25-11.72,6.94-20.43,18.25-24.17,31.36-.53,1.86,2.36,2.65,2.89.8h0Z"/><path class="cls-2" d="m453.65,295.13c-4.61-4.18-11.21-2.04-15.8,1.05-5.4,3.64-8.74,9.44-10.85,15.49-1.32,3.79-2.13,7.72-2.68,11.69h2.89c-3.68-8.87-13.94-12.35-22.91-12.21-4.7.08-9.26,1.17-13.36,3.49-4.91,2.78-9.04,6.9-12.09,11.62-3.46,5.36-5.55,11.72-5.31,18.14l2.56-1.06c-4.2-4.76-9.93-8.11-16.37-8.38-6.06-.25-11.89,2.36-16.24,6.49-2.8,2.66-4.98,5.92-6.58,9.41l2.74.36c-3.47-10.93-14.19-17.45-24.77-20.19-5.51-1.42-11.3-1.95-16.94-1.18s-11.03,3.06-15.61,6.57c-5.28,4.04-9.49,9.25-13.55,14.46-1.17,1.51.94,3.64,2.12,2.12,6.56-8.42,13.82-17.16,24.7-19.69,10.15-2.36,21.87.21,30.57,5.77,4.81,3.07,8.84,7.43,10.59,12.94.36,1.12,2.17,1.6,2.74.36,2.46-5.36,6.31-10.1,11.71-12.68,4.62-2.21,10.05-2.33,14.76-.3,3.12,1.35,5.77,3.52,8,6.05.86.97,2.61.2,2.56-1.06-.38-10.26,5.64-20.42,14.07-26.03,7.05-4.7,16.1-5.42,24.03-2.55,4.07,1.47,7.97,4.23,9.68,8.34.48,1.16,2.66,1.66,2.89,0,1.09-7.78,3.18-16,8.42-22.09,1.96-2.28,4.53-4.11,7.3-5.27s6.18-1.73,8.58.45c1.43,1.29,3.56-.82,2.12-2.12h0Z"/><path class="cls-2" d="m496.58,241.59c-6.35-10.41-20.07-16.94-32.17-15.28-13.07,1.79-22.2,13.66-26.58,25.27l2.51-.66c-13.38-12.84-38.74-3.96-45.96,11.64l2.36-.3c-9-8.11-21.14-10.83-31.83-4.21-9.88,6.11-14.24,16.66-14.01,28l2.95-.4c-1.84-8.15-8.18-14.49-16.47-15.99-8.29-1.5-16.33,1.86-21.34,8.55l2.8.76c.4-13.39-8.68-23.59-20.74-28.19s-25.89-3.56-36,4.74c-3.69,3.03-6.56,6.8-9.17,10.76l2.74.36c-2.41-10.4-10.88-19.33-22.26-17.41s-15.57,12.85-19.29,22.64l2.51-.66c-14.13-15.18-44.1-20.16-58.53-2.72-5.28,6.38-7.05,14.52-6.51,22.65l2.95-.4c-4.73-18.56-26.82-26.84-43.24-17.86l2.26,1.3c-1.47-13.5-11.82-23.66-24.51-27.48-14.35-4.31-29.52.36-40.44,10.3-5.69,5.18-10.09,12.09-10.31,19.96l2.56-1.06c-14.45-12.8-33.49,2.77-38.1,17.69-.57,1.85,2.32,2.64,2.89.8,3.89-12.59,20.45-27.56,33.09-16.36.97.86,2.52.28,2.56-1.06.39-13.49,14.02-23.39,25.69-27.25s25.27-1.04,34.4,7.14c5.04,4.51,8.42,10.57,9.16,17.33.12,1.12,1.18,1.88,2.26,1.3,14.76-8.07,34.59-.59,38.83,16.06.41,1.61,3.06,1.32,2.95-.4-.46-6.93.72-13.98,4.95-19.66,2.99-4.01,7.18-7.05,11.85-8.8,9.45-3.54,20.33-2.47,29.52,1.35,5.12,2.13,9.82,5.22,13.61,9.29.83.89,2.13.33,2.51-.66,3.13-8.22,6.13-17.93,15.76-20.26,10.31-2.49,17.85,5.68,20.01,15.02.31,1.33,2.07,1.38,2.74.36,4.89-7.4,11.13-13.6,20-15.84,11.22-2.83,24.77.67,33.06,8.79,4.98,4.88,7.46,11.28,7.26,18.23-.05,1.63,1.97,1.85,2.8.76,4.27-5.69,11.47-8.5,18.46-7.07s12.28,6.78,13.87,13.8c.37,1.65,2.98,1.29,2.95-.4-.21-10.06,3.34-19.43,11.99-25.08,9.59-6.25,20.5-4,28.72,3.41.65.59,1.93.62,2.36-.3,6.38-13.76,29.2-22.6,41.25-11.03.87.83,2.11.38,2.51-.66,3.94-10.45,12.27-21.47,24.06-23.1,10.9-1.51,23.49,4.46,29.21,13.84,1,1.65,3.6.14,2.59-1.51h0Z"/><path class="cls-2" d="m79.05,171.97c11.31-3.69,25.32-5.24,35.25,2.73,7.94,6.37,12.06,16.79,12.29,26.79.03,1.17,1.71,2.14,2.56,1.06,4.39-5.57,10.79-8.74,17.77-6.17,6.54,2.4,11.21,8.56,13.4,14.97.4,1.16,2.1,1.56,2.74.36,9.72-18.11,35.99-16.96,50.44-5.52,5.56,4.4,9.55,10.65,10.05,17.83.11,1.64,2.47,2.1,2.95.4,1.28-4.61,4.01-8.51,8.25-10.84,3.97-2.18,8.65-2.74,13.11-2.29s8.42,2.11,11.32,5.41,4.21,7.82,4.86,12.14c.23,1.54,2.51,1.31,2.89,0,5.07-17.27,22.99-31.51,41.45-29.5,12.39,1.35,21.15,11.36,25.93,22.17,1.02,2.3,1.86,4.69,2.51,7.13.45,1.7.79,3.13.81,4.68.02,1.66,2.53,2.07,2.95.4,1.64-6.62,6.12-11.98,13.13-12.95,6.52-.91,13.24,1.93,17.92,6.37,4.04,3.84,6.65,8.86,7.57,14.35.21,1.27,2.18,1.45,2.74.36,7.34-14.35,27.93-13.45,40.11-6.43,4.65,2.68,8.6,6.68,10.4,11.82.63,1.81,3.53,1.03,2.89-.8-3.25-9.28-11.98-14.97-21.12-17.44-8.14-2.19-17.38-2.21-25.05,1.62-4.23,2.11-7.66,5.5-9.81,9.71l2.74.36c-1.59-9.48-8.15-17.68-17.06-21.28-6.65-2.69-14.63-2.51-20.43,2.04-3.64,2.86-5.83,7.04-6.93,11.48l2.95.4c-.04-3.91-1.51-7.98-2.97-11.55-2.3-5.62-5.43-10.95-9.62-15.38-4.64-4.92-10.67-8.57-17.38-9.74-8.82-1.54-18.12.75-25.78,5.2-9.88,5.73-17.61,15.2-20.83,26.19h2.89c-1.14-7.69-4.75-15.03-12.28-18.15s-16.98-2.33-23.44,2.39c-3.83,2.8-6.34,6.8-7.6,11.34l2.95.4c-1.7-24.12-33.63-35.18-53.35-25.93-5.45,2.55-9.89,6.81-12.74,12.11l2.74.36c-2.56-7.46-7.91-14.31-15.5-17.07-7.91-2.88-15.68.59-20.69,6.95l2.56,1.06c-.2-8.66-3.04-17.3-8.45-24.12-5.88-7.41-14.29-10.99-23.64-11.4-6.55-.28-13.05,1.08-19.25,3.1-1.83.6-1.05,3.49.8,2.89h0Z"/></svg>