<svg width="1016" height="614" viewBox="0 0 1016 614" fill="none" xmlns="http://www.w3.org/2000/svg">
<path d="M891.168 559.196V505.66H587.191V559.196H891.168Z" fill="#D1DAED" stroke="#3B65EE" stroke-width="2" stroke-linecap="round" stroke-linejoin="round"/>
<path d="M891.19 559.195L904.934 612.181H587.191V559.195H891.19Z" fill="#D1DAED" stroke="#3B65EE" stroke-width="2" stroke-linecap="round" stroke-linejoin="round"/>
<path d="M891.19 184.488L904.934 238.024H587.191V184.488H891.19Z" fill="#D1DAED" stroke="#3B65EE" stroke-width="2" stroke-linecap="round" stroke-linejoin="round"/>
<path d="M891.19 238.024L904.934 291.56H587.191V238.024H891.19Z" fill="#D1DAED" stroke="#3B65EE" stroke-width="2" stroke-linecap="round" stroke-linejoin="round"/>
<path d="M891.19 291.561L904.934 345.074H587.191V291.561H891.19Z" fill="#D1DAED" stroke="#3B65EE" stroke-width="2" stroke-linecap="round" stroke-linejoin="round"/>
<path d="M891.19 345.074L904.934 398.61H587.191V345.074H891.19Z" fill="#D1DAED" stroke="#3B65EE" stroke-width="2" stroke-linecap="round" stroke-linejoin="round"/>
<path d="M891.19 398.61L904.934 452.124H587.191V398.61H891.19Z" fill="#D1DAED" stroke="#3B65EE" stroke-width="2" stroke-linecap="round" stroke-linejoin="round"/>
<path d="M891.19 452.124L904.934 505.66H587.191V452.124H891.19Z" fill="#D1DAED" stroke="#3B65EE" stroke-width="2" stroke-linecap="round" stroke-linejoin="round"/>
<path d="M891.19 505.66L904.934 559.196H587.191V505.66H891.19Z" fill="#D1DAED" stroke="#3B65EE" stroke-width="2" stroke-linecap="round" stroke-linejoin="round"/>
<path d="M587.192 505.66L600.936 559.196H82.8691L96.6132 505.66H587.192Z" fill="white" stroke="#D1DAED" stroke-width="2" stroke-linecap="round" stroke-linejoin="round"/>
<path d="M587.192 559.195L600.936 612.709H82.8691L96.6132 559.195H587.192Z" fill="white" stroke="#D1DAED" stroke-width="2" stroke-linecap="round" stroke-linejoin="round"/>
<path d="M587.192 130.976V184.489H96.6133L176.787 130.976H587.192Z" fill="white" stroke="#D1DAED" stroke-width="2" stroke-linecap="round" stroke-linejoin="round"/>
<path d="M587.193 77.4385V130.974H201.148L254.913 77.4385H587.193Z" fill="white" stroke="#D1DAED" stroke-width="2" stroke-linecap="round" stroke-linejoin="round"/>
<path d="M587.192 184.488L600.936 238.024H82.8691L96.6132 184.488H587.192Z" fill="white" stroke="#D1DAED" stroke-width="2" stroke-linecap="round" stroke-linejoin="round"/>
<path d="M587.192 238.024L600.936 291.56H82.8691L96.6132 238.024H587.192Z" fill="white" stroke="#D1DAED" stroke-width="2" stroke-linecap="round" stroke-linejoin="round"/>
<path d="M587.192 345.074L600.936 398.61H82.8691L96.6132 345.074H587.192Z" fill="white" stroke="#D1DAED" stroke-width="2" stroke-linecap="round" stroke-linejoin="round"/>
<path d="M587.192 398.61L600.936 452.124H82.8691L96.6132 398.61H587.192Z" fill="white" stroke="#D1DAED" stroke-width="2" stroke-linecap="round" stroke-linejoin="round"/>
<path d="M587.192 452.124L600.936 505.66H82.8691L96.6132 452.124H587.192Z" fill="white" stroke="#D1DAED" stroke-width="2" stroke-linecap="round" stroke-linejoin="round"/>
<path d="M916.939 174.468L645.89 1H341.914L70.8652 174.468V209.131L341.914 30.4876L612.962 211.268H916.939V174.468Z" fill="#D1DAED" stroke="#3B65EE" stroke-width="2" stroke-linecap="round" stroke-linejoin="round"/>
<path d="M264.317 77.4389L152.096 142.911V30.708H264.317V77.4389Z" fill="#D1DAED" stroke="#3B65EE" stroke-width="2" stroke-linecap="round" stroke-linejoin="round"/>
<path d="M916.938 174.469H612.961V226.926H916.938V174.469Z" fill="#B0C3EA" stroke="#3B65EE" stroke-width="2" stroke-linecap="round" stroke-linejoin="round"/>
<path d="M341.913 400.085C362.493 400.085 382.23 408.259 396.782 422.809C411.334 437.359 419.51 457.093 419.51 477.669V612.291H264.316V477.559C264.346 457.002 272.534 437.296 287.083 422.77C301.632 408.244 321.352 400.085 341.913 400.085V400.085Z" fill="#D1DAED" stroke="#3B65EE" stroke-width="2" stroke-linecap="round" stroke-linejoin="round"/>
<path d="M356.34 401.385C345.127 399.231 333.577 399.584 322.516 402.419C311.456 405.253 301.159 410.498 292.365 417.778C283.57 425.058 276.494 434.193 271.645 444.528C266.796 454.864 264.294 466.143 264.317 477.559V612.181H296.937V476.722C296.948 459.322 302.812 442.43 313.587 428.766C324.361 415.101 339.42 405.457 356.34 401.385V401.385Z" fill="#B0C3EA"/>
<path d="M341.913 400.085C362.493 400.085 382.23 408.259 396.782 422.809C411.334 437.359 419.51 457.093 419.51 477.669V612.291H264.316V477.559C264.346 457.002 272.534 437.296 287.083 422.77C301.632 408.244 321.352 400.085 341.913 400.085V400.085Z" stroke="#3B65EE" stroke-width="2" stroke-linecap="round" stroke-linejoin="round"/>
<path d="M587.192 291.561L600.936 345.074H82.8691L96.6132 291.561H587.192Z" fill="white" stroke="#D1DAED" stroke-width="2" stroke-linecap="round" stroke-linejoin="round"/>
<path d="M600.936 291.561L587.192 238.025H600.936L587.192 184.489H546.664L341.913 53.457L137.141 184.489H96.6132L82.8691 238.025H96.6132L82.8691 291.561H96.6132L82.8691 345.074H96.6132L82.8691 398.61H96.6132L82.8691 452.124H96.6132L82.8691 505.66H96.6132L82.8691 559.196H96.6132L82.8691 612.71H600.936L587.192 559.196H600.936L587.192 505.66H600.936L587.192 452.146V452.124H600.936L587.192 398.61H600.936L587.192 345.074H600.936L587.192 291.561H600.936Z" stroke="#3B65EE" stroke-width="2" stroke-linecap="round" stroke-linejoin="round"/>
<path d="M612.962 174.468L341.914 1L70.8652 174.468V226.925L96.6133 210.431L341.914 53.4566L587.192 210.431L612.962 226.925V174.468Z" fill="white" stroke="#3B65EE" stroke-width="2" stroke-linecap="round" stroke-linejoin="round"/>
<path d="M387.11 545.806C394.506 545.806 400.502 539.812 400.502 532.417C400.502 525.022 394.506 519.027 387.11 519.027C379.714 519.027 373.719 525.022 373.719 532.417C373.719 539.812 379.714 545.806 387.11 545.806Z" fill="white" stroke="#3B65EE" stroke-width="2" stroke-linecap="round" stroke-linejoin="round"/>
<path d="M341.913 333.095C373.456 333.095 399.026 307.529 399.026 275.991C399.026 244.454 373.456 218.888 341.913 218.888C310.371 218.888 284.801 244.454 284.801 275.991C284.801 307.529 310.371 333.095 341.913 333.095Z" fill="#D1DAED" stroke="#3B65EE" stroke-width="2" stroke-linecap="round" stroke-linejoin="round"/>
<path d="M316.914 275.991C316.923 263.64 320.938 251.625 328.356 241.75C335.775 231.875 346.197 224.671 358.058 221.222C350.205 218.916 341.947 218.326 333.845 219.491C325.744 220.656 317.987 223.549 311.102 227.974C304.217 232.4 298.364 238.253 293.94 245.139C289.516 252.024 286.625 259.78 285.462 267.881C284.299 275.981 284.892 284.238 287.2 292.089C289.509 299.941 293.479 307.204 298.841 313.387C304.203 319.57 310.832 324.527 318.279 327.924C325.726 331.32 333.816 333.076 342.001 333.072C347.436 333.061 352.841 332.282 358.058 330.76C346.201 327.304 335.783 320.099 328.365 310.225C320.948 300.351 316.93 288.34 316.914 275.991V275.991Z" fill="#B0C3EA"/>
<path d="M341.913 333.095C373.456 333.095 399.026 307.529 399.026 275.991C399.026 244.454 373.456 218.888 341.913 218.888C310.371 218.888 284.801 244.454 284.801 275.991C284.801 307.529 310.371 333.095 341.913 333.095Z" stroke="#3B65EE" stroke-width="2" stroke-linecap="round" stroke-linejoin="round"/>
<path d="M1 612.71H1014.49" stroke="#3B65EE" stroke-width="2" stroke-linecap="round" stroke-linejoin="round"/>
</svg>
