<svg width="380" height="233" viewBox="0 0 380 233" fill="none" xmlns="http://www.w3.org/2000/svg">
<path d="M368.899 129.27C355.019 121.82 338.829 119.97 323.619 124.07C308.969 128.02 291.169 132.4 282.069 133.05C264.979 134.27 297.259 153.82 297.259 153.82L368.899 129.27Z" fill="#778DAD" stroke="#3B65EE" stroke-width="2.5" stroke-miterlimit="10" stroke-linecap="round" stroke-linejoin="round"/>
<path d="M10.7305 129.27C24.6105 121.82 40.8005 119.97 56.0105 124.07C70.6605 128.02 88.4605 132.4 97.5605 133.05C114.651 134.27 82.3705 153.82 82.3705 153.82L10.7305 129.27Z" fill="#778DAD" stroke="#3B65EE" stroke-width="2.5" stroke-miterlimit="10" stroke-linecap="round" stroke-linejoin="round"/>
<path d="M33.9015 136.22C35.2215 138.54 69.7315 196.69 189.812 196.69C309.892 196.69 344.402 138.54 345.812 136.06C347.202 133.5 349.152 131.44 351.422 129.96C345.922 132.75 303.342 151.47 189.812 151.47C69.7315 151.47 29.0214 130.53 27.7014 129.7L27.6914 129.74C30.2114 131.26 32.3915 133.44 33.9015 136.22Z" fill="#778DAD" stroke="#3B65EE" stroke-width="2.5" stroke-miterlimit="10" stroke-linecap="round" stroke-linejoin="round"/>
<path d="M304.551 184.51L189.551 215.26L74.5508 184.51V107.99C74.5508 51.6301 115.091 10.2501 168.611 1.65009C175.401 0.560089 179.401 9.17005 189.551 9.17005C199.701 9.17005 203.721 0.560037 210.521 1.66004C264.021 10.27 304.551 51.6501 304.551 108V184.51Z" fill="#AEBACE" stroke="#3B65EE" stroke-width="2.5" stroke-miterlimit="10" stroke-linecap="round" stroke-linejoin="round"/>
<path d="M209.543 1.65006H210.513C210.183 1.60006 209.863 1.61006 209.543 1.65006Z" fill="#B0C3EA" stroke="#B0C3EA" stroke-width="2.5" stroke-miterlimit="10" stroke-linecap="round" stroke-linejoin="round"/>
<path d="M168.613 1.65017H169.583C169.263 1.61017 168.943 1.59017 168.613 1.65017Z" fill="#B0C3EA" stroke="#B0C3EA" stroke-width="2.5" stroke-miterlimit="10" stroke-linecap="round" stroke-linejoin="round"/>
<path d="M189.554 30.4006C199.204 30.4006 203.314 2.48063 209.544 1.65063H208.144C202.644 2.52063 198.464 9.16058 189.544 9.16058C180.624 9.16058 176.454 2.51063 170.964 1.64062H169.574C175.804 2.48062 179.894 30.4006 189.554 30.4006Z" fill="#778DAD" stroke="#778DAD" stroke-width="2.5" stroke-miterlimit="10" stroke-linecap="round" stroke-linejoin="round"/>
<path d="M244.025 46.4096L110.629 101.398L135.519 161.778L268.915 106.789L244.025 46.4096Z" fill="white" stroke="#3B65EE" stroke-width="2.5" stroke-miterlimit="10" stroke-linecap="round" stroke-linejoin="round"/>
<path d="M304.551 127.93C280.381 135.12 242.361 141.38 190.001 141.38C134.061 141.38 98.6508 134.22 74.5508 126.45V184.5L184.421 214.39C186.291 214.42 190.041 214.5 191.941 214.5C192.081 214.5 190.281 214.49 190.421 214.49L304.551 184.49V127.93V127.93Z" fill="#AEBACE" stroke="#3B65EE" stroke-width="2.5" stroke-miterlimit="10" stroke-linecap="round" stroke-linejoin="round"/>
<path d="M368.9 129.27C368.34 128.97 367.78 128.71 367.21 128.47L367.199 128.42C360.129 124.9 352.51 122.79 344.75 122.15C345.29 122.29 352.79 124.41 345.81 136.05C344.4 138.53 309.89 196.68 189.81 196.68C73.9396 196.68 37.7496 142.53 34.1696 136.66C34.0696 136.47 33.9495 136.26 33.8295 136.05C26.8495 124.41 34.3496 122.28 34.8896 122.14C27.1296 122.77 19.5095 124.89 12.4395 128.41L12.4196 128.55C11.8596 128.78 11.3196 129.04 10.7796 129.33C2.48958 133.82 -0.590428 144.18 3.89957 152.47C5.62957 155.67 47.9795 230.82 189.819 230.82C331.659 230.82 374.01 155.67 375.74 152.47C380.22 144.19 377.19 133.76 368.9 129.27Z" fill="#AEBACE" stroke="#3B65EE" stroke-width="2.5" stroke-miterlimit="10" stroke-linecap="round" stroke-linejoin="round"/>
<path d="M168.609 1.65009C175.399 0.560089 179.399 9.17005 189.549 9.17005C199.699 9.17005 203.719 0.560037 210.519 1.66004" stroke="#3B65EE" stroke-width="2.5" stroke-miterlimit="10" stroke-linecap="round" stroke-linejoin="round"/>
<path d="M294.9 159.83C286.49 162.54 277.87 164.57 269.18 166.18C264.84 166.99 260.46 167.65 256.09 168.28C251.71 168.87 247.32 169.35 242.92 169.8C238.52 170.19 234.11 170.52 229.71 170.8C225.3 171 220.89 171.23 216.47 171.27C207.64 171.43 198.81 171.27 190 170.67C198.81 170.03 207.59 169.53 216.37 168.93C225.14 168.32 233.9 167.67 242.64 166.81C247.01 166.42 251.38 165.95 255.74 165.46C257.92 165.23 260.1 164.95 262.28 164.7L268.81 163.87C277.52 162.71 286.2 161.33 294.9 159.83Z" fill="#3B65EE"/>
<path d="M148.98 154.88C143.88 155.12 138.78 154.98 133.7 154.64C131.16 154.5 128.63 154.23 126.09 153.98C123.56 153.7 121.04 153.35 118.52 153C116.01 152.59 113.49 152.17 110.99 151.7C108.5 151.18 106 150.69 103.53 150.05C98.5797 148.84 93.6797 147.39 88.9297 145.53C93.9997 146.18 98.9996 146.98 103.99 147.75L111.48 148.9C113.97 149.29 116.47 149.68 118.97 150.04L133.96 152.32C138.96 153.1 143.97 153.88 148.98 154.88Z" fill="#3B65EE"/>
</svg>
