<?xml version="1.0" encoding="UTF-8"?><svg id="Layer_2" xmlns="http://www.w3.org/2000/svg" viewBox="0 0 331.2 52.8"><defs><style>.cls-1{fill:#0069ff;}.cls-2{fill:#fff;}.cls-3{fill:#ffea5a;}</style></defs><g id="Layer_1-2"><polygon class="cls-3" points="27.58 2.54 35.34 18.26 52.7 20.79 40.14 33.03 43.11 50.32 27.58 42.15 12.06 50.32 15.02 33.03 2.46 20.79 19.82 18.26 27.58 2.54"/><path class="cls-1" d="m25.42,3.8l4.1,8.3c1.04,2.1,2.28,6.68,4.31,8.13s6.23,1.23,8.57,1.57c3.21.47,6.43.93,9.64,1.4l-1.1-4.18-7.32,7.14c-1.69,1.64-5.17,3.83-5.88,6.21s.84,6.22,1.24,8.54c.58,3.36,1.15,6.72,1.73,10.08l3.67-2.82-9.05-4.76c-2.08-1.09-5.26-3.74-7.74-3.74s-5.65,2.65-7.74,3.74l-9.05,4.76,3.67,2.82c.58-3.36,1.15-6.72,1.73-10.08.4-2.31,1.94-6.19,1.24-8.54s-4.19-4.56-5.88-6.21l-7.32-7.14-1.1,4.18c3.05-.44,6.11-.89,9.16-1.33,2.43-.35,6.94-.13,9.05-1.64,1.96-1.4,3.1-5.68,4.1-7.69l4.31-8.74c1.42-2.88-2.89-5.41-4.32-2.52l-3.67,7.43-2.8,5.68c-.48.98-2.05,2.8-.57,2.02,1.86-.98-1.63-.2-2.13-.13l-5.78.84c-2.89.42-5.79.84-8.68,1.26-1.91.28-2.33,2.98-1.1,4.18,4.19,4.08,8.37,8.16,12.56,12.24l-.64-2.43c-.99,5.76-1.98,11.52-2.96,17.29-.37,2.14,1.63,3.89,3.67,2.82l15.52-8.16h-2.52l15.52,8.16c2.05,1.08,4.04-.69,3.67-2.82-.99-5.76-1.98-11.52-2.96-17.29l-.64,2.43c4.19-4.08,8.37-8.16,12.56-12.24,1.23-1.19.81-3.9-1.1-4.18-2.73-.4-5.46-.79-8.2-1.19l-6.27-.91c-.76-.11-3.72-.98-2.13.13,1.5,1.05-.19-1.26-.57-2.02l-2.59-5.24-3.88-7.86c-1.42-2.89-5.74-.35-4.32,2.52Z"/><polygon class="cls-3" points="96.59 2.54 104.35 18.26 121.71 20.79 109.15 33.03 112.11 50.32 96.59 42.15 81.07 50.32 84.03 33.03 71.47 20.79 88.83 18.26 96.59 2.54"/><path class="cls-1" d="m94.43,3.8l4.1,8.3c1.04,2.1,2.28,6.68,4.31,8.13s6.23,1.23,8.57,1.57c3.21.47,6.43.93,9.64,1.4l-1.1-4.18-7.32,7.14c-1.69,1.64-5.17,3.83-5.88,6.21s.84,6.22,1.24,8.54c.58,3.36,1.15,6.72,1.73,10.08l3.67-2.82-9.05-4.76c-2.08-1.09-5.26-3.74-7.74-3.74s-5.65,2.65-7.74,3.74l-9.05,4.76,3.67,2.82c.58-3.36,1.15-6.72,1.73-10.08.4-2.31,1.94-6.19,1.24-8.54s-4.19-4.56-5.88-6.21l-7.32-7.14-1.1,4.18,9.16-1.33c2.43-.35,6.94-.13,9.05-1.64,1.96-1.4,3.1-5.68,4.1-7.69l4.31-8.74c1.42-2.88-2.89-5.41-4.32-2.52l-3.67,7.43-2.8,5.68c-.48.98-2.05,2.8-.57,2.02,1.86-.98-1.63-.2-2.13-.13l-5.78.84c-2.89.42-5.79.84-8.68,1.26-1.91.28-2.33,2.98-1.1,4.18,4.19,4.08,8.37,8.16,12.56,12.24l-.64-2.43c-.99,5.76-1.98,11.52-2.96,17.29-.37,2.14,1.63,3.89,3.67,2.82,5.17-2.72,10.35-5.44,15.52-8.16h-2.52c5.17,2.72,10.35,5.44,15.52,8.16,2.05,1.08,4.04-.69,3.67-2.82-.99-5.76-1.98-11.52-2.96-17.29l-.64,2.43c4.19-4.08,8.37-8.16,12.56-12.24,1.23-1.19.81-3.9-1.1-4.18-2.73-.4-5.46-.79-8.2-1.19l-6.27-.91c-.76-.11-3.72-.98-2.13.13,1.5,1.05-.19-1.26-.57-2.02l-2.59-5.24-3.88-7.86c-1.42-2.89-5.74-.35-4.32,2.52Z"/><polygon class="cls-3" points="165.6 2.54 173.36 18.26 190.72 20.79 178.16 33.03 181.12 50.32 165.6 42.15 150.07 50.32 153.04 33.03 140.48 20.79 157.84 18.26 165.6 2.54"/><path class="cls-1" d="m163.44,3.8l4.1,8.3c1.04,2.1,2.28,6.68,4.31,8.13s6.23,1.23,8.57,1.57c3.21.47,6.43.93,9.64,1.4l-1.1-4.18-7.32,7.14c-1.69,1.64-5.17,3.83-5.88,6.21s.84,6.22,1.24,8.54c.58,3.36,1.15,6.72,1.73,10.08l3.67-2.82-9.05-4.76c-2.08-1.09-5.26-3.74-7.74-3.74s-5.65,2.65-7.74,3.74l-9.05,4.76,3.67,2.82c.58-3.36,1.15-6.72,1.73-10.08.4-2.31,1.94-6.19,1.24-8.54s-4.19-4.56-5.88-6.21l-7.32-7.14-1.1,4.18,9.16-1.33c2.43-.35,6.94-.13,9.05-1.64,1.96-1.4,3.1-5.68,4.1-7.69l4.31-8.74c1.42-2.88-2.89-5.41-4.32-2.52l-3.67,7.43-2.8,5.68c-.48.98-2.05,2.8-.57,2.02,1.86-.98-1.63-.2-2.13-.13l-5.78.84c-2.89.42-5.79.84-8.68,1.26-1.91.28-2.33,2.98-1.1,4.18,4.19,4.08,8.37,8.16,12.56,12.24l-.64-2.43c-.99,5.76-1.98,11.52-2.96,17.29-.37,2.14,1.63,3.89,3.67,2.82l15.52-8.16h-2.52l15.52,8.16c2.05,1.08,4.04-.69,3.67-2.82-.99-5.76-1.98-11.52-2.96-17.29l-.64,2.43c4.19-4.08,8.37-8.16,12.56-12.24,1.23-1.19.81-3.9-1.1-4.18-2.73-.4-5.46-.79-8.2-1.19l-6.27-.91c-.76-.11-3.72-.98-2.13.13,1.5,1.05-.19-1.26-.57-2.02l-2.59-5.24-3.88-7.86c-1.42-2.89-5.74-.35-4.32,2.52Z"/><polygon class="cls-2" points="303.62 2.54 311.38 18.26 328.74 20.79 316.18 33.03 319.14 50.32 303.62 42.15 288.09 50.32 291.06 33.03 278.5 20.79 295.85 18.26 303.62 2.54"/><path class="cls-1" d="m301.46,3.8l4.1,8.3c1.04,2.1,2.28,6.68,4.31,8.13s6.23,1.23,8.57,1.57c3.21.47,6.43.93,9.64,1.4l-1.1-4.18-7.32,7.14c-1.69,1.64-5.17,3.83-5.88,6.21s.84,6.22,1.24,8.54c.58,3.36,1.15,6.72,1.73,10.08l3.67-2.82-9.05-4.76c-2.08-1.09-5.26-3.74-7.74-3.74s-5.65,2.65-7.74,3.74l-9.05,4.76,3.67,2.82c.58-3.36,1.15-6.72,1.73-10.08.4-2.31,1.94-6.19,1.24-8.54s-4.19-4.56-5.88-6.21l-7.32-7.14-1.1,4.18c3.05-.44,6.11-.89,9.16-1.33,2.43-.35,6.94-.13,9.05-1.64,1.96-1.4,3.1-5.68,4.1-7.69l4.31-8.74c1.42-2.88-2.89-5.41-4.32-2.52l-3.67,7.43-2.8,5.68c-.48.98-2.05,2.8-.57,2.02,1.86-.98-1.63-.2-2.13-.13l-5.78.84c-2.89.42-5.79.84-8.68,1.26-1.91.28-2.33,2.98-1.1,4.18,4.19,4.08,8.37,8.16,12.56,12.24l-.64-2.43c-.99,5.76-1.98,11.52-2.96,17.29-.37,2.14,1.63,3.89,3.67,2.82,5.17-2.72,10.35-5.44,15.52-8.16h-2.52c5.17,2.72,10.35,5.44,15.52,8.16,2.05,1.08,4.04-.69,3.67-2.82-.99-5.76-1.98-11.52-2.96-17.29l-.64,2.43c4.19-4.08,8.37-8.16,12.56-12.24,1.23-1.19.81-3.9-1.1-4.18-2.73-.4-5.46-.79-8.2-1.19l-6.27-.91c-.76-.11-3.72-.98-2.13.13,1.5,1.05-.19-1.26-.57-2.02l-2.59-5.24-3.88-7.86c-1.42-2.89-5.74-.35-4.32,2.52Z"/><polygon class="cls-2" points="234.61 2.54 242.37 18.26 259.73 20.79 247.17 33.03 250.13 50.32 234.61 42.15 219.08 50.32 222.05 33.03 209.49 20.79 226.84 18.26 234.61 2.54"/><path class="cls-1" d="m232.45,3.8l4.1,8.3c1.04,2.1,2.28,6.68,4.31,8.13s6.23,1.23,8.57,1.57c3.21.47,6.43.93,9.64,1.4l-1.1-4.18-7.32,7.14c-1.69,1.64-5.17,3.83-5.88,6.21s.84,6.22,1.24,8.54c.58,3.36,1.15,6.72,1.73,10.08l3.67-2.82-9.05-4.76c-2.08-1.09-5.26-3.74-7.74-3.74s-5.65,2.65-7.74,3.74l-9.05,4.76,3.67,2.82c.58-3.36,1.15-6.72,1.73-10.08.4-2.31,1.94-6.19,1.24-8.54s-4.19-4.56-5.88-6.21l-7.32-7.14-1.1,4.18,9.16-1.33c2.43-.35,6.94-.13,9.05-1.64,1.96-1.4,3.1-5.68,4.1-7.69l4.31-8.74c1.42-2.88-2.89-5.41-4.32-2.52l-3.67,7.43-2.8,5.68c-.48.98-2.05,2.8-.57,2.02,1.86-.98-1.63-.2-2.13-.13l-5.78.84c-2.89.42-5.79.84-8.68,1.26-1.91.28-2.33,2.98-1.1,4.18,4.19,4.08,8.37,8.16,12.56,12.24l-.64-2.43c-.99,5.76-1.98,11.52-2.96,17.29-.37,2.14,1.63,3.89,3.67,2.82l15.52-8.16h-2.52l15.52,8.16c2.05,1.08,4.04-.69,3.67-2.82-.99-5.76-1.98-11.52-2.96-17.29l-.64,2.43c4.19-4.08,8.37-8.16,12.56-12.24,1.23-1.19.81-3.9-1.1-4.18-2.73-.4-5.46-.79-8.2-1.19l-6.27-.91c-.76-.11-3.72-.98-2.13.13,1.5,1.05-.19-1.26-.57-2.02l-2.59-5.24-3.88-7.86c-1.42-2.89-5.74-.35-4.32,2.52Z"/></g></svg>