<svg width="196" height="296" viewBox="0 0 196 296" fill="none" xmlns="http://www.w3.org/2000/svg">
<path d="M67.0099 202.34L56.5999 204.49C46.6499 206.54 36.4399 202.4 30.7399 193.99L25.1399 185.73L52.0799 170.66L56.8499 178.73L67.1099 168.99" fill="white"/>
<path d="M67.0099 202.34L56.5999 204.49C46.6499 206.54 36.4399 202.4 30.7399 193.99L25.1399 185.73L52.0799 170.66L56.8499 178.73L67.1099 168.99" stroke="#3B65EE" stroke-width="2.5" stroke-miterlimit="10" stroke-linecap="round" stroke-linejoin="round"/>
<path d="M8.97984 159.18C5.80984 154.72 0.219886 146.16 6.95989 140.65C13.6999 135.14 22.7098 141.45 26.6598 146.48L28.9698 149.42C30.6598 151.58 33.7998 151.38 35.5398 149.26C36.1298 148.55 36.9498 148.12 38.0998 148.23C42.7098 148.69 41.6199 161.93 41.6199 161.93L22.7399 178.52L8.97984 159.18Z" fill="white" stroke="#3B65EE" stroke-width="2.5" stroke-miterlimit="10" stroke-linecap="round" stroke-linejoin="round"/>
<path d="M52.0799 170.66L28.6899 185.13C25.3599 187.17 21.0099 186.13 18.9699 182.81C16.9299 179.48 17.9699 175.13 21.2899 173.09L42.4799 160.29C45.8099 158.25 48.2599 160.32 50.3099 163.65L52.0799 170.66Z" fill="white" stroke="#3B65EE" stroke-width="2.5" stroke-miterlimit="10" stroke-linecap="round" stroke-linejoin="round"/>
<path d="M180.94 148.84C175.75 145.73 171.75 141.33 169.67 136.18C164.33 123.01 148.1 96.66 103.6 96.66C53.1199 96.66 14.1599 141.75 3.66994 155.2C1.87994 157.49 1.54998 160.38 2.76998 162.93C4.63998 166.84 9.62998 168.91 14.34 167.72L18.8499 166.58C25.4899 164.9 30.8399 160.11 33.4799 153.8C34.8399 150.56 36.4399 148.07 38.1099 148.23C42.7199 148.69 41.27 160.68 41.27 160.68C44.05 160.11 46.8599 161.49 48.1099 164.03L70.1699 208.93C70.1699 208.93 127.11 226.67 160.42 208.93C173.95 201.72 183.15 192.42 189.3 183.9C197.78 172.14 194.14 156.73 180.94 148.84Z" fill="#B0C3EA" stroke="#3B65EE" stroke-width="2.5" stroke-miterlimit="10" stroke-linecap="round" stroke-linejoin="round"/>
<path d="M154.57 141.51C155.22 143.57 155.96 145.44 156.85 147.17C157.75 148.89 158.86 150.41 160.2 151.66C160.5 152.01 160.87 152.28 161.24 152.55C161.6 152.83 161.94 153.15 162.36 153.36C162.76 153.6 163.16 153.84 163.56 154.1C163.99 154.29 164.43 154.49 164.86 154.7L165.52 155.02L166.22 155.26C166.69 155.42 167.16 155.6 167.64 155.79C168.61 156.11 169.62 156.32 170.65 156.73C169.61 156.99 168.53 157.17 167.44 157.25C166.9 157.24 166.35 157.22 165.8 157.19L164.97 157.13L164.15 156.95C163.6 156.82 163.05 156.69 162.51 156.53C161.99 156.31 161.47 156.07 160.95 155.83C160.41 155.62 159.96 155.25 159.48 154.93C159 154.6 158.53 154.26 158.14 153.83C156.44 152.24 155.26 150.17 154.67 148.02C154.09 145.86 153.98 143.61 154.57 141.51Z" fill="#3B65EE"/>
<path d="M66.21 275.55L80.1199 214.25L97.8599 219.06L74.1799 291.94L66.21 275.55Z" fill="#D1DAED" stroke="#3B65EE" stroke-width="2.5" stroke-miterlimit="10" stroke-linecap="round" stroke-linejoin="round"/>
<path d="M39.5 282.53L74.18 291.94L83.76 262.46L70.03 258.73L66.21 275.55L46.33 277.43L46.15 258.01L39.5 282.53Z" fill="white" stroke="#3B65EE" stroke-width="2.5" stroke-miterlimit="10" stroke-linecap="round" stroke-linejoin="round"/>
<path d="M134.4 270.98L104.22 215.84L120.71 207.69L151.22 277.99L134.4 270.98Z" fill="#D1DAED" stroke="#3B65EE" stroke-width="2.5" stroke-miterlimit="10" stroke-linecap="round" stroke-linejoin="round"/>
<path d="M119.01 293.9L151.22 277.99L138.88 249.55L126.12 255.85L134.4 270.98L120.75 285.55L107.75 271.12L119.01 293.9Z" fill="white" stroke="#3B65EE" stroke-width="2.5" stroke-miterlimit="10" stroke-linecap="round" stroke-linejoin="round"/>
<path d="M57.06 179.92L64.86 239.31L75.72 226.05L89.63 236.05L100.49 222.79L114.4 232.79L125.26 219.53L139.17 229.53L131.37 170.14C128.67 149.62 109.86 135.17 89.34 137.87C68.82 140.58 54.37 159.4 57.06 179.92Z" fill="#D1DAED" stroke="#3B65EE" stroke-width="2.5" stroke-miterlimit="10" stroke-linecap="round" stroke-linejoin="round"/>
<path d="M133.914 189.579L59.6007 199.337L61.318 212.415L135.631 202.657L133.914 189.579Z" fill="white" stroke="#3B65EE" stroke-width="2.5" stroke-miterlimit="10" stroke-linecap="round" stroke-linejoin="round"/>
<path d="M92.6494 195.002L77.9355 196.934L79.6529 210.012L94.3668 208.08L92.6494 195.002Z" fill="white" stroke="#3B65EE" stroke-width="2.5" stroke-miterlimit="10" stroke-linecap="round" stroke-linejoin="round"/>
<path d="M120.21 124.9C120.21 142.7 101.92 159.38 82.2998 159.38C62.6798 159.38 49.5798 148.07 49.5798 130.27C49.5798 112.47 65.0698 92.67 84.6898 92.67C104.31 92.67 120.21 107.1 120.21 124.9Z" fill="white" stroke="#3B65EE" stroke-width="2.5" stroke-miterlimit="10" stroke-linecap="round" stroke-linejoin="round"/>
<path d="M62.1198 131.15C63.6662 131.15 64.9198 128.656 64.9198 125.58C64.9198 122.504 63.6662 120.01 62.1198 120.01C60.5734 120.01 59.3198 122.504 59.3198 125.58C59.3198 128.656 60.5734 131.15 62.1198 131.15Z" fill="#3B65EE"/>
<path d="M87.2299 131.15C88.7763 131.15 90.03 128.656 90.03 125.58C90.03 122.504 88.7763 120.01 87.2299 120.01C85.6835 120.01 84.4299 122.504 84.4299 125.58C84.4299 128.656 85.6835 131.15 87.2299 131.15Z" fill="#3B65EE"/>
<path d="M85.5698 113.03C85.5698 113.03 90.6198 112.44 94.4798 117.78Z" fill="white"/>
<path d="M85.5698 113.03C86.4198 112.45 87.4398 112.3 88.4198 112.35C89.3998 112.41 90.3698 112.7 91.2298 113.18C92.0798 113.67 92.8498 114.31 93.4098 115.1C93.9898 115.88 94.3798 116.78 94.4898 117.79C93.5398 117.4 92.8098 116.94 92.0798 116.55C91.3798 116.12 90.6798 115.76 90.0198 115.37C89.3498 114.99 88.6698 114.63 87.9498 114.26L85.5698 113.03Z" fill="#3B65EE"/>
<path d="M54.5199 118.54C54.5199 118.54 56.2999 113.02 60.9099 113.02Z" fill="white"/>
<path d="M54.5199 118.54C54.2799 117.65 54.3998 116.8 54.6598 116C54.9298 115.21 55.3899 114.47 56.0099 113.85C56.6299 113.24 57.4499 112.77 58.3299 112.58C59.2099 112.38 60.1598 112.52 60.9098 113.01C60.1698 113.57 59.6099 113.94 59.1199 114.37C58.6399 114.8 58.2099 115.2 57.7499 115.63L56.3299 117.02C55.8099 117.51 55.2599 118.01 54.5199 118.54Z" fill="#3B65EE"/>
<path d="M71.4598 133.3C71.4598 133.3 65.6698 134.58 66.5598 138.44C67.4498 142.3 75.0998 139.93 75.0998 139.93" fill="white"/>
<path d="M71.4598 133.3C71.4598 133.3 65.6698 134.58 66.5598 138.44C67.4498 142.3 75.0998 139.93 75.0998 139.93" stroke="#3B65EE" stroke-width="2.5" stroke-miterlimit="10" stroke-linecap="round" stroke-linejoin="round"/>
<path d="M64.9199 142.74C64.9199 142.74 72.3599 153.79 87.5099 140.64Z" fill="white"/>
<path d="M64.9199 142.74C66.6199 144.13 68.4699 145.05 70.3699 145.53C72.2699 146.01 74.2199 145.94 76.1299 145.55C77.0999 145.4 78.0299 145.04 78.9899 144.75C79.9499 144.43 80.8499 143.95 81.8199 143.58C82.7199 143.07 83.6899 142.65 84.6199 142.15C85.5499 141.63 86.4799 141.1 87.4999 140.64C86.8399 141.52 86.0999 142.32 85.3499 143.14C84.5599 143.9 83.6799 144.58 82.7999 145.26C82.3499 145.59 81.8599 145.86 81.3699 146.14C80.8699 146.4 80.4199 146.74 79.8799 146.94L78.2899 147.57C77.7599 147.79 77.1699 147.86 76.6099 148C74.3499 148.48 71.8599 148.32 69.7199 147.36C67.5999 146.43 65.8099 144.78 64.9199 142.74Z" fill="#3B65EE"/>
<path d="M85.5698 136.97C82.2198 139.47 81.4299 148.95 93.8899 145.15Z" fill="white"/>
<path d="M85.5698 136.97C85.1598 137.68 84.8398 138.31 84.6998 139.02C84.5798 139.34 84.5698 139.71 84.4998 140.03C84.4998 140.37 84.4398 140.7 84.4698 141.02C84.5398 142.31 84.9398 143.4 85.7998 143.98C86.6598 144.59 87.9398 144.95 89.3598 145.01C89.7098 145.07 90.0698 145.05 90.4398 145.06L91.5598 145.1C92.3198 145.09 93.0798 145.06 93.8998 145.13C93.2398 145.58 92.5298 145.94 91.8098 146.3C91.0498 146.53 90.2998 146.87 89.4698 146.96C89.0598 147.01 88.6398 147.06 88.2198 147.1C87.7898 147.1 87.3498 147.04 86.9098 147.01C86.0298 146.87 85.1198 146.55 84.3098 145.96C83.9098 145.68 83.5798 145.26 83.2598 144.89L82.8998 144.23C82.7698 144.01 82.6698 143.79 82.6298 143.55L82.4598 142.85C82.4198 142.62 82.4298 142.38 82.4198 142.15C82.3798 141.68 82.4798 141.24 82.5498 140.8C82.8998 139.09 84.0398 137.54 85.5698 136.97Z" fill="#3B65EE"/>
<path d="M46.2099 118.89C46.3299 122.8 47.2399 126.02 49.8799 126.02C52.1099 113 59.3299 105.33 59.3299 105.33C59.3299 105.33 66.1199 112.58 72.7999 111.84C79.4899 111.1 80.2299 103.22 80.2299 103.22C80.2299 103.22 83.4999 109.76 92.3499 109.76C101.2 109.76 103.86 105.6 103.86 105.6C103.86 105.6 108.28 131.15 119.48 131.15C130.68 131.15 124.36 114.51 124.36 114.51L114.11 97.87L91.8199 88.36L55.0099 97.81C49.9999 103.58 45.9699 111.27 46.2099 118.89Z" fill="white" stroke="#3B65EE" stroke-width="2.5" stroke-miterlimit="10" stroke-linecap="round" stroke-linejoin="round"/>
<path d="M101.86 11.75L50.6699 103.85C60.5299 99.92 93.2799 89.89 124.35 114.51L101.86 11.75Z" fill="#D1DAED" stroke="#3B65EE" stroke-width="2.5" stroke-miterlimit="10" stroke-linecap="round" stroke-linejoin="round"/>
<path d="M101.86 13.15C105.129 13.15 107.78 10.4995 107.78 7.22998C107.78 3.96045 105.129 1.31 101.86 1.31C98.5904 1.31 95.9399 3.96045 95.9399 7.22998C95.9399 10.4995 98.5904 13.15 101.86 13.15Z" fill="#E5ECF9" stroke="#3B65EE" stroke-width="2.5" stroke-miterlimit="10" stroke-linecap="round" stroke-linejoin="round"/>
<path d="M119.78 93.64C95.15 80.42 75.1999 82.35 60.5999 85.99L50.6799 103.85C60.5399 99.92 93.2899 89.89 124.36 114.51L119.78 93.64Z" fill="#E5ECF9" stroke="#3B65EE" stroke-width="2.5" stroke-miterlimit="10" stroke-linecap="round" stroke-linejoin="round"/>
<path d="M127.72 180.45L123.57 189.17C118.5 199.82 106.54 205.76 95.1899 202.56C94.7099 202.42 94.2199 202.27 93.7399 202.11L84.3199 198.83L96.9199 170.65L105.57 174.27L107.98 160.33" fill="#D1DAED"/>
<path d="M127.72 180.45L123.57 189.17C118.5 199.82 106.54 205.76 95.1899 202.56C94.7099 202.42 94.2199 202.27 93.7399 202.11L84.3199 198.83L96.9199 170.65L105.57 174.27L107.98 160.33" stroke="#3B65EE" stroke-width="2.5" stroke-miterlimit="10" stroke-linecap="round" stroke-linejoin="round"/>
<path d="M55.4999 187.19C50.6499 185.63 47.5399 180.91 47.9999 175.83C48.6199 169.1 55.1599 164.56 61.6899 166.33L73.8099 169.62C73.8099 169.62 68.3499 163.4 72.3199 161.01C76.2899 158.62 83.3199 169.89 83.3199 169.89L78.0899 194.47L55.4999 187.19Z" fill="white" stroke="#3B65EE" stroke-width="2.5" stroke-miterlimit="10" stroke-linecap="round" stroke-linejoin="round"/>
<path d="M96.92 170.65L86.81 196.23C85.36 199.86 81.25 201.62 77.63 200.17C74 198.72 72.24 194.61 73.69 190.99L81.18 171.98C82.63 168.35 86.74 166.59 90.36 168.04L96.92 170.65Z" fill="white" stroke="#3B65EE" stroke-width="2.5" stroke-miterlimit="10" stroke-linecap="round" stroke-linejoin="round"/>
</svg>
