<?xml version="1.0" encoding="UTF-8"?><svg id="Layer_1" xmlns="http://www.w3.org/2000/svg" viewBox="0 0 300 500"><defs><style>.cls-1{fill:#0069ff;}.cls-2{fill:#fff;}</style></defs><path class="cls-2" d="m147.25,383.01s15.5,0,32.76,0,17.47-11,19.65-19,6.55-103,6.55-103c1.09-18,0-61-2.18-88s-4.37-37-8.74-47c-4.37-10-30.57-9-30.57-9h-17.47s5,0,5,0h-17.32s-25.99-1-30.32,9-6.5,20-8.66,47c-2.17,27-3.25,70-2.17,88,0,0,4.33,95,6.5,103,2.17,8,2.14,19,19.49,19h32.48-5Z"/><path class="cls-1" d="m147.25,385.63c6.49,0,12.98,0,19.47,0,8.41,0,18.98,1.68,26.48-3.15,7.06-4.54,8.74-14.42,9.67-22.2,2.66-22.32,3.23-45.01,4.39-67.45.96-18.55,2.1-37.11,1.98-55.7s-.77-37.54-2.02-56.25c-1.05-15.7-1.8-32.22-6.38-47.39-1.67-5.51-3.41-11.15-8.62-14.24-5.61-3.33-12.7-4.18-19.09-4.64-8.57-.62-17.29-.2-25.88-.2v5.22h5c3.36,0,3.37-5.22,0-5.22-7.51,0-15.07-.25-22.58.03-10.79.4-23.99,1.76-28.48,13.03-5.14,12.91-6.28,27.19-7.47,40.91-1.61,18.54-2.38,37.16-2.77,55.77-.42,20.02.33,39.88,1.33,59.86,1.18,23.6,2.18,47.26,4.26,70.8.71,8,1.39,18.26,6.71,24.61,6.13,7.32,16.59,6.21,25.13,6.21h23.87v-5.22h-5c-3.36,0-3.37,5.22,0,5.22h5c3.36,0,3.37-5.22,0-5.22h-17.64c-5.21,0-10.45.14-15.66-.02-3.94-.12-8.23-.75-11.13-3.67-4.75-4.78-5.35-14.14-5.95-20.67-2.03-21.97-2.95-44.07-4.07-66.1-.84-16.46-1.86-32.95-1.83-49.44.04-17.54.6-35.1,1.59-52.61.9-15.93,1.64-32.32,5.23-47.92,1.07-4.67,2.3-11.96,6.05-15.24,4.77-4.18,13.17-4.66,19.18-5,8.04-.45,16.17-.11,24.22-.11v-5.22h-5c-3.36,0-3.37,5.22,0,5.22,6.82,0,13.65-.1,20.47-.02,5.48.06,11.07.49,16.37,1.97,5.9,1.64,8.53,4.21,10.56,9.84,4.89,13.6,5.75,28.58,6.86,42.86,1.37,17.58,2.04,35.22,2.37,52.84.34,18.3-.38,36.46-1.29,54.72-1.14,22.83-2.23,45.68-4.03,68.47-.6,7.54-.95,16.1-4.23,23.07-4.29,9.13-16.67,7.03-24.91,7.03-7.39,0-14.78,0-22.18,0-3.36,0-3.37,5.22,0,5.22Z"/><path class="cls-1" d="m186.59,243.01h-66.8c-.89,0-5.64.66-6.31,0-.47-.46.02-5.35.02-6.32v-39.29c0-.9-.43-3.06,0-3.86.46-.85,1.53-.53,3.16-.53h61c1.93,0,6.55-.9,8.3,0,1.04.54.54,3.22.54,5v36.1c0,1.49.79,8.61-.57,8.98-3.1.84-1.78,5.67,1.33,4.82,4.29-1.17,4.24-4.54,4.24-8.18v-15.84c0-10.04.93-20.58,0-30.58-.68-7.28-10.06-5.31-15.24-5.31h-37.09c-8.36,0-17.15-.79-25.48,0-7.73.73-5.19,13.22-5.19,18.51v34.2c0,3.55.65,6.78,4.93,7.29,2.25.27,4.7,0,6.97,0h66.2c3.22,0,3.22-5,0-5Z"/><path class="cls-1" d="m134.93,175.75h30.14c3.22,0,3.22-5,0-5h-30.14c-3.22,0-3.22,5,0,5h0Z"/><path class="cls-1" d="m160.13,322.23c-.83,6.13-20.15,6.05-20.15.64s19.32-5.49,20.15.64c.41,3.04,5.02,1.74,4.61-1.27-1.51-11.24-29.57-11.1-29.57.64s28.06,11.87,29.57.64c.4-3.01-4.2-4.31-4.61-1.27Z"/><path class="cls-1" d="m160.13,361.91c-.83,6.13-20.15,6.05-20.15.64s19.32-5.49,20.15.64c.41,3.04,5.02,1.74,4.61-1.27-1.51-11.24-29.57-11.1-29.57.64s28.06,11.87,29.57.64c.4-3.01-4.2-4.31-4.61-1.27Z"/><path class="cls-1" d="m160.13,342.07c-.83,6.13-20.15,6.05-20.15.64s19.32-5.49,20.15.64c.41,3.04,5.02,1.74,4.61-1.27-1.51-11.24-29.57-11.1-29.57.64s28.06,11.87,29.57.64c.4-3.01-4.2-4.31-4.61-1.27Z"/><path class="cls-1" d="m160.13,302.39c-.83,6.13-20.15,6.05-20.15.64s19.32-5.49,20.15.64c.41,3.04,5.02,1.74,4.61-1.27-1.51-11.24-29.57-11.1-29.57.64s28.06,11.87,29.57.64c.4-3.01-4.2-4.31-4.61-1.27Z"/><path class="cls-1" d="m128.82,301.64c-2.43,5.26-19.64.56-19.11-4.97.49-5.08,19.94-.54,18.87,5.54-.53,3.01,4.08,4.3,4.61,1.27,2.04-11.55-24.31-19.98-28.26-8.86s23.2,19.9,28.02,9.44c1.28-2.78-2.84-5.21-4.13-2.41Z"/><path class="cls-1" d="m128.82,321.67c-2.43,5.26-19.64.56-19.11-4.97.49-5.08,19.94-.54,18.87,5.54-.53,3.01,4.08,4.3,4.61,1.27,2.04-11.55-24.31-19.98-28.26-8.86s23.2,19.9,28.02,9.44c1.28-2.78-2.84-5.21-4.13-2.41Z"/><path class="cls-1" d="m128.82,341.7c-2.43,5.26-19.64.56-19.11-4.97.49-5.08,19.94-.54,18.87,5.54-.53,3.01,4.08,4.3,4.61,1.27,2.04-11.55-24.31-19.98-28.26-8.86s23.2,19.9,28.02,9.44c1.28-2.78-2.84-5.21-4.13-2.41Z"/><path class="cls-1" d="m128.82,361.73c-2.43,5.26-19.64.56-19.11-4.97.49-5.08,19.94-.54,18.87,5.54-.53,3.01,4.08,4.3,4.61,1.27,2.04-11.55-24.31-19.98-28.26-8.86s23.2,19.9,28.02,9.44c1.28-2.78-2.84-5.21-4.13-2.41Z"/><path class="cls-1" d="m167.05,304.06c4.82,10.46,32.03,1.82,28.02-9.44-3.96-11.12-30.3-2.7-28.26,8.86.53,3.03,5.14,1.74,4.61-1.27-1.08-6.1,18.38-10.56,18.87-5.54.54,5.59-16.68,10.23-19.11,4.97-1.29-2.79-5.41-.37-4.13,2.41Z"/><path class="cls-1" d="m167.05,324.09c4.82,10.46,32.03,1.82,28.02-9.44s-30.3-2.7-28.26,8.86c.53,3.03,5.14,1.74,4.61-1.27-1.08-6.1,18.38-10.56,18.87-5.54.54,5.59-16.68,10.23-19.11,4.97-1.29-2.79-5.41-.37-4.13,2.41Z"/><path class="cls-1" d="m167.05,344.12c4.82,10.46,32.03,1.82,28.02-9.44s-30.3-2.7-28.26,8.86c.53,3.03,5.14,1.74,4.61-1.27-1.08-6.1,18.38-10.56,18.87-5.54.54,5.59-16.68,10.23-19.11,4.97-1.29-2.79-5.41-.37-4.13,2.41Z"/><path class="cls-1" d="m167.05,364.15c4.82,10.46,32.03,1.82,28.02-9.44s-30.3-2.7-28.26,8.86c.53,3.03,5.14,1.74,4.61-1.27-1.08-6.1,18.38-10.56,18.87-5.54.54,5.59-16.68,10.23-19.11,4.97-1.29-2.79-5.41-.37-4.13,2.41Z"/><path class="cls-1" d="m177.47,130.01c12.55.56,12.83,14.01,14.25,23.55,1.76,11.77,3.03,23.59,3.94,35.45,1.14,14.85,3.38,30.2,2.59,45.13-1.28,24.37-20.89,54.09-46.95,55.37-26.66,1.32-47.26-29.36-49.43-53.48-1.22-13.61,1.01-27.79,2.04-41.33.91-12.04,1.98-24.04,3.63-36,.74-5.33,1.56-10.65,2.48-15.95s2.78-9.85,8.08-11.92c3.51-1.37,8.06-.82,11.76-.82,6.22,0,12.44,0,18.66,0,9.65,0,19.3,0,28.96,0,3.22,0,3.22-5,0-5-9.65,0-19.3,0-28.96,0h-18.66c-3.45,0-7.19-.34-10.61.32-9.63,1.87-13.01,9.83-14.46,18.54-1.98,11.84-3.53,23.76-4.65,35.71s-1.95,23.98-2.79,35.97c-.43,6.17-.92,12.4-.6,18.58,1.41,26.75,22.36,58.13,50.76,60.33,17.04,1.32,33.11-10.45,42.35-23.83,6.3-9.13,11.27-20.49,12.91-31.56.88-5.95.59-12,.25-17.99-.69-11.97-1.67-23.93-2.65-35.88-1.14-13.84-2.86-27.64-5.14-41.34-1.7-10.17-6.37-18.36-17.75-18.86-3.22-.14-3.21,4.86,0,5Z"/><path class="cls-1" d="m147.78,158.61h4.44c1.35,0,2.5-1.15,2.5-2.5s-1.14-2.5-2.5-2.5h-4.44c-1.35,0-2.5,1.15-2.5,2.5s1.14,2.5,2.5,2.5h0Z"/><path class="cls-1" d="m147.78,150.12h4.44c1.35,0,2.5-1.15,2.5-2.5s-1.14-2.5-2.5-2.5h-4.44c-1.35,0-2.5,1.15-2.5,2.5s1.14,2.5,2.5,2.5h0Z"/><path class="cls-1" d="m147.78,141.12h4.44c1.35,0,2.5-1.15,2.5-2.5s-1.14-2.5-2.5-2.5h-4.44c-1.35,0-2.5,1.15-2.5,2.5s1.14,2.5,2.5,2.5h0Z"/><path class="cls-1" d="m186.41,244.93c-7.1,32.29-65.82,32.26-72.81-.08-.68-3.14-5.5-1.81-4.82,1.33,8.03,37.13,74.31,37.14,82.46.08.69-3.14-4.13-4.48-4.82-1.33h0Z"/><path class="cls-1" d="m121.55,263.25c19.17-5.11,39.9-5.07,59.04.2,3.11.86,4.43-3.97,1.33-4.82-19.98-5.51-41.68-5.54-61.7-.2-3.11.83-1.79,5.65,1.33,4.82h0Z"/><path class="cls-1" d="m156.27,274.4c.55,4.66,1.77,9.22,2.19,13.9.29,3.18,5.29,3.21,5,0-.42-4.69-1.65-9.23-2.19-13.9-.37-3.16-5.37-3.19-5,0h0Z"/><path class="cls-1" d="m180.43,263.95c2.59.64,4.91,1.77,7.17,3.18,2.74,1.7,5.26-2.62,2.52-4.32s-5.38-2.95-8.36-3.68c-3.12-.77-4.46,4.05-1.33,4.82h0Z"/><path class="cls-1" d="m129.89,270.25c-2.1,2.91-4.19,5.82-6.51,8.56-2.07,2.44,1.45,6,3.54,3.54,2.59-3.06,4.94-6.32,7.29-9.57,1.89-2.61-2.45-5.11-4.32-2.52h0Z"/><path class="cls-1" d="m120.41,259.06c-3.5,1.09-7.02,2.07-10.38,3.56-2.57,1.14-.34,4.91,2.21,3.78,3-1.33,6.21-2.15,9.34-3.12,2.68-.83,1.54-5.06-1.16-4.22h0Z"/></svg>