<?xml version="1.0" encoding="UTF-8"?>
<svg id="Layer_2" xmlns="http://www.w3.org/2000/svg" viewBox="0 0 75.9 30.92">
  <defs>
    <style>
      .cls-1, .cls-2 {
        fill: #3b65ee;
      }

      .cls-2 {
        opacity: .2;
      }

      .cls-3 {
        fill: #fff;
        stroke: #3b65ee;
        stroke-linecap: round;
        stroke-linejoin: round;
      }
    </style>
  </defs>
  <g id="Layer_4">
    <g>
      <polygon class="cls-1" points="68.3 6.91 75.88 24 63.38 23.37 68.3 6.91"/>
      <g>
        <polygon class="cls-3" points=".5 22.6 10.38 .5 68.3 6.91 61.28 30.42 .5 22.6"/>
        <g>
          <path class="cls-1" d="M12.51,7.31c-.29.01-.48-.03-.57-.12-.09-.09-.1-.23,0-.42.07-.14.17-.25.28-.33.12-.08.29-.14.5-.18.1-.02.24-.04.4-.07.17-.03.32-.06.48-.09.31-.04.56-.07.76-.09.2-.03.41-.05.62-.06.21-.02.47-.03.79-.04.26-.01.58-.03.95-.05.03,0,.12.02.27.05.15.03.31.07.49.11.17.04.3.09.37.14.18.07.31.17.37.3.06.13.08.3.05.5-.02.14-.05.24-.09.29-.04.05-.11.09-.19.14-.23.07-.4.12-.52.13-.12.01-.22-.01-.33-.08-.02-.06-.06-.12-.1-.17-.04-.05-.13-.09-.25-.13-.13-.04-.33-.07-.61-.11-.26.02-.48.03-.66.03s-.29.02-.31.08l-.79.02-.67.06c-.09,0-.22.02-.38.03-.16.01-.32.02-.48.03-.15.01-.28.03-.36.05ZM9.08,17.77c-.09,0-.16-.1-.2-.28-.04-.18-.03-.34.02-.48.07-.19.19-.45.37-.8.18-.35.37-.7.57-1.06.2-.36.37-.64.51-.85.09-.19.18-.35.26-.5.08-.15.13-.24.15-.29.04-.04.12-.17.24-.36.12-.2.23-.39.32-.58.05-.09.14-.27.28-.53.14-.26.31-.57.5-.92.2-.35.39-.69.58-1.03.19-.34.36-.64.51-.89.14-.26.24-.43.28-.51.12-.14.21-.27.29-.4.08-.13.13-.22.15-.26.07-.04.12-.11.15-.18.03-.08.06-.14.07-.18.02-.06.05-.11.09-.14.04-.03.07-.07.09-.12.05-.03.08-.07.1-.11.02-.04.06-.09.13-.15l.2-.4.91.02c-.06.14-.15.31-.25.52-.1.21-.28.48-.52.82-.12.23-.24.44-.36.63-.12.19-.18.31-.19.37-.03.02-.1.14-.23.35-.13.21-.28.47-.45.77-.17.3-.35.61-.52.91-.17.3-.32.57-.45.8-.13.23-.21.37-.25.43-.13.18-.3.46-.5.82-.2.36-.49.85-.86,1.46-.13.18-.3.46-.52.83-.22.37-.41.71-.56,1.01-.24.45-.41.77-.52.96-.11.18-.18.29-.23.31-.05.02-.1.03-.17.02Z"/>
          <path class="cls-1" d="M12.88,16.62c0-.1-.03-.18-.08-.25-.05-.07-.07-.13-.05-.18s.03-.11.03-.18c0-.07,0-.13-.02-.18-.02-.07.04-.24.18-.5.14-.26.34-.57.59-.95.26-.38.53-.77.83-1.17.1-.09.21-.21.33-.36.12-.15.2-.25.26-.29.02-.05.04-.09.08-.13.04-.04.08-.06.11-.06l.08-.16c.03-.06.11-.16.24-.29.13-.14.29-.29.47-.46.18-.17.36-.33.55-.48.19-.15.34-.26.45-.33.24-.16.46-.24.66-.25.2,0,.35.07.43.23.01.04.04.1.08.2.04.09.09.2.14.32.06.12.11.23.16.35l.28.62-.54.88c-.27.47-.44.89-.51,1.25-.06.36-.08.68-.06.95,0,.13.04.26.11.36.08.11.17.18.28.21.06.02.12.06.16.12.04.06.04.16,0,.29-.06.18-.13.31-.21.4-.08.09-.16.14-.26.16-.3.03-.54-.07-.71-.29-.18-.22-.28-.61-.3-1.17-.01-.07-.01-.21,0-.41,0-.2.02-.33.03-.39-.05.06-.15.15-.27.29-.13.13-.23.23-.3.3-.89.82-1.6,1.35-2.13,1.6-.53.25-.89.24-1.1-.05ZM14.09,15.46c.2-.08.44-.24.74-.46.41-.33.8-.66,1.18-.99.38-.34.72-.68,1.02-1.02l.5-.63c0-.28-.02-.47-.08-.57-.06-.1-.12-.15-.19-.16-.11,0-.31.11-.59.36-.28.25-.62.58-.99,1.01-.38.43-.77.92-1.18,1.47-.18.24-.4.59-.68,1.03,0,.06.1.05.29-.04Z"/>
          <path class="cls-1" d="M18.38,17.52c-.06-.04-.11-.13-.14-.27-.04-.14-.07-.29-.07-.47,0-.17.01-.32.06-.46.09-.13.22-.36.4-.69.18-.33.4-.7.64-1.12.11-.13.22-.28.32-.46.1-.18.19-.34.27-.48.14-.2.3-.44.49-.73.19-.29.39-.59.58-.89.2-.3.36-.56.51-.77.23-.33.43-.63.61-.9.18-.27.35-.54.53-.81.18-.27.37-.57.58-.89.23-.34.47-.69.7-1.04.23-.35.44-.67.62-.95.18-.28.3-.48.36-.6.03-.1.07-.17.11-.22.04-.05.09-.07.13-.07.05-.05.11-.07.17-.08.06,0,.11,0,.14,0,.05.01.09.12.13.31.04.19.04.36-.01.51-.07.19-.26.55-.58,1.08-.32.53-.72,1.13-1.21,1.81-.61.88-1.1,1.59-1.46,2.13-.36.54-.61.94-.77,1.19-.15.26-.23.4-.22.44.25-.11.47-.23.65-.37.12-.07.26-.16.41-.27.15-.11.3-.22.45-.32.14-.1.25-.16.33-.18.12-.08.24-.16.37-.24.13-.08.23-.14.3-.19.19-.11.32-.15.39-.1.07.05.11.15.14.29.04.16.01.31-.08.45-.1.14-.3.31-.61.51-.24.16-.52.33-.83.53-.31.19-.59.36-.83.51-.24.15-.4.24-.46.29.03.36.05.61.07.76,0,.2.01.4.03.61.01.21.02.36,0,.44-.02.32.03.55.15.7.11.14.29.16.54.05.18-.07.31-.09.38-.04.07.05.1.14.1.28,0,.1-.01.18-.04.24-.03.06-.12.16-.27.3-.27.22-.51.37-.73.45-.22.08-.39.05-.5-.09-.12-.07-.23-.23-.32-.49-.09-.26-.19-.67-.3-1.23.02-.05.03-.13.03-.25,0-.12,0-.21,0-.27,0-.1-.01-.25-.04-.46.02-.07.02-.15.02-.22,0-.08-.02-.14-.05-.21-.1-.03-.19.01-.28.12-.1.11-.2.24-.31.38-.1.15-.22.35-.36.59-.14.24-.28.49-.4.73-.12.24-.21.44-.25.6-.05.17-.12.3-.21.39-.09.09-.21.13-.34.12Z"/>
          <path class="cls-1" d="M24.05,18.09c-.41-.03-.66-.25-.77-.67-.1-.42-.03-.96.21-1.62.16-.44.39-.91.68-1.41.29-.5.61-.99.97-1.46.35-.47.71-.88,1.05-1.22.35-.35.67-.59.95-.72.11-.06.22-.1.33-.13.11-.03.22-.04.33-.04.1,0,.19.03.29.07.1.04.18.09.24.14.13.09.22.23.27.4.04.17.03.42-.05.75-.05.2-.1.35-.15.46-.05.11-.12.25-.23.42-.26.42-.54.8-.84,1.12-.31.32-.63.58-.96.76-.09.06-.18.1-.27.11-.09.02-.18.03-.26.02-.17-.01-.32-.06-.44-.16-.12-.09-.21-.22-.26-.39l-.04-.15-.11.16c-.18.29-.33.55-.45.78-.12.23-.22.44-.28.62-.05.15-.09.29-.13.43-.03.14-.04.26-.04.36,0,.07.04.13.11.17.06.03.14.06.23.06.05,0,.11,0,.17,0,.06,0,.12-.01.18-.03.17-.06.32-.14.44-.22.13-.09.26-.17.4-.27l.06-.03v-.02c.14-.08.25-.14.35-.2.09-.06.15-.08.15-.08.04-.02.09-.05.14-.09.1-.03.19,0,.27.1.08.1.09.22.04.37-.03.07-.11.17-.23.3-.12.13-.24.26-.38.38-.14.12-.24.2-.33.23-.02.01-.06.03-.11.05-.05.02-.09.04-.12.07h.01c-.13.14-.23.21-.31.21h-.1c-.06.08-.21.16-.43.25-.22.09-.42.13-.6.12ZM26.12,13.99c.13,0,.26-.04.39-.13.13-.09.26-.2.38-.31.29-.28.51-.58.66-.9.16-.32.21-.54.16-.68-.03-.04-.06-.06-.09-.08-.03-.01-.1,0-.2.03-.08,0-.21.08-.4.2-.18.13-.37.28-.56.45-.19.18-.35.35-.49.51l-.3.37c.06-.03.12-.05.17-.05.05,0,.07,0,.07.03,0,.07,0,.16,0,.24,0,.09.01.16.04.22.02.06.07.09.15.09Z"/>
          <path class="cls-1" d="M31.09,17.9c-.11.02-.21-.02-.31-.11-.09-.09-.16-.22-.19-.38-.04-.16-.04-.32-.01-.46.06-.26.2-.58.41-.96.21-.38.48-.78.79-1.21.32-.43.65-.84,1-1.24.35-.4.71-.75,1.06-1.05.35-.3.66-.52.94-.64.14-.08.25-.14.31-.16.06-.03.12-.03.17,0,.05.03.12.09.22.2.1.06.18.12.24.19.06.07.1.21.12.4,0,.19-.02.38-.05.57-.04.19-.08.4-.15.64-.05.32-.1.52-.15.61-.05.09-.11.16-.16.21-.12.12-.16.18-.12.18-.04.09-.1.17-.16.26-.16.27-.31.54-.44.81-.13.27-.22.5-.25.69-.03.28.02.45.16.51.14.06.35-.04.65-.3.13-.09.26-.17.38-.22.12-.06.16-.03.13.07.03.07.06.1.09.1.04,0,.05.04.03.11-.02.07-.06.16-.12.26-.06.11-.13.21-.21.3-.2.18-.31.3-.33.36-.09.08-.19.17-.29.25-.2.13-.42.18-.66.17s-.39-.1-.47-.24c-.08-.15-.13-.33-.16-.56-.03-.23-.03-.43,0-.61v-.19s-.5.33-.5.33c-.14.13-.28.25-.4.35-.12.1-.21.17-.27.22-.04.05-.09.09-.13.13-.04.03-.08.05-.12.05h-.13s-.09.1-.21.17c-.12.07-.25.12-.39.17-.14.05-.25.07-.34.06ZM31.85,16.56c.17-.1.35-.22.56-.36.21-.14.4-.28.59-.43.18-.15.32-.26.4-.35.05-.05.14-.13.25-.24.11-.11.22-.21.31-.29.32-.31.57-.62.76-.94.19-.32.28-.59.27-.82.02-.14,0-.22-.05-.23-.05-.02-.17.02-.37.11-.14.08-.32.23-.55.45-.23.22-.47.47-.73.75-.26.28-.51.57-.76.88-.25.3-.46.58-.64.83-.18.25-.3.46-.35.6-.02.05-.02.11,0,.19.05,0,.16-.05.32-.15Z"/>
          <path class="cls-1" d="M39.72,18.95c-.24,0-.45-.06-.61-.18-.16-.11-.27-.27-.33-.48-.06-.2-.06-.43,0-.67.02-.15.05-.26.08-.32.03-.06.09-.11.16-.14.05.02.1.05.14.1.04.05.08.12.15.18.07.17.18.27.36.3.17.03.35,0,.53-.07.18-.08.31-.19.38-.34.02-.05.04-.15.07-.29.02-.14.04-.29.06-.44-.04-.48-.02-.95.07-1.42.09-.46.2-.87.33-1.21.08-.21.22-.44.42-.68.19-.24.41-.45.65-.63.25-.22.52-.42.79-.6.28-.18.54-.34.8-.47.26-.13.48-.21.65-.26.11,0,.25.03.4.07.15.04.25.09.28.16.08.08.11.25.1.51,0,.26-.06.5-.14.71-.03.09-.11.2-.21.35-.11.14-.23.3-.37.47-.09.13-.17.24-.25.36-.08.11-.14.2-.18.26-.11.15-.21.21-.29.2-.09-.02-.15-.09-.18-.22-.04-.13-.04-.29,0-.47.06-.19.12-.35.21-.47.08-.12.16-.24.25-.35.1-.1.16-.16.17-.2.01-.04-.02-.06-.1-.06-.06,0-.19.04-.37.13-.19.09-.4.2-.63.35-.23.15-.44.31-.64.48-.22.19-.37.35-.45.47-.09.12-.17.28-.25.48-.07.18-.12.39-.17.65-.04.26-.06.44-.04.56,0,.01,0,.09,0,.24,0,.15,0,.31,0,.49-.06.88-.24,1.51-.55,1.89-.3.38-.72.57-1.25.58Z"/>
          <path class="cls-1" d="M42.79,19.55c-.08-.07-.13-.17-.13-.31,0-.14.04-.33.13-.59.05-.15.15-.37.29-.65.14-.28.3-.58.47-.91.01-.03.02-.05.04-.09.02-.03.03-.05.03-.07.03-.05.07-.13.12-.23.05-.1.1-.18.13-.25.03-.06.04-.06.01,0l.29-.51c.12-.23.25-.45.39-.69.14-.23.26-.43.36-.6.11-.17.17-.27.19-.29.18-.29.31-.51.41-.66.39-.6.73-1.11,1.01-1.51.29-.41.51-.7.69-.89.02-.04.06-.08.1-.14.04-.06.07-.1.1-.14.05-.11.1-.2.13-.26.04-.06.08-.11.12-.16.04-.05.09-.12.16-.2.07-.08.15-.18.24-.31l.14-.21c.12-.16.26-.35.42-.55.16-.21.28-.36.36-.46.08-.11.19-.25.32-.4.13-.16.24-.26.32-.31v-.02c.08-.11.18-.19.28-.22.1-.04.19-.05.27-.05.12,0,.19.04.2.12,0,.07-.03.2-.1.38-.08.19-.13.33-.17.41-.04.08-.11.17-.22.27h.01s.01,0-.05.1c-.06.09-.11.15-.14.19-.04.06-.09.13-.14.21-.05.08-.1.13-.14.17-.05.05-.18.22-.4.51-.22.29-.48.62-.76,1.01-.29.38-.56.75-.82,1.11-.26.36-.46.63-.58.82l-.18.28s-.06.09-.07.11c-.06.09-.12.17-.18.26-.06.09-.12.16-.17.23l-.65,1.11-.22.4-.29.43-.22.36c-.05.07-.09.15-.13.22-.04.07-.07.12-.12.16,0,.01-.01.03-.03.05-.01.02-.02.04-.03.05-.12.2-.27.48-.47.85-.2.36-.39.76-.58,1.17,0,.01-.01.03-.02.04,0,.01-.02.03-.02.04-.13.27-.25.45-.36.55-.11.1-.22.12-.31.07Z"/>
          <path class="cls-1" d="M45.37,18.88c-.03-.11-.02-.25.02-.42.04-.17.09-.34.17-.51.08-.17.15-.3.23-.4.04-.1.08-.18.13-.24.04-.06.07-.11.08-.16.01-.05.06-.14.13-.27.08-.12.15-.25.22-.36.14-.2.31-.45.5-.74.19-.29.38-.59.57-.89.19-.3.34-.55.48-.77.13-.21.22-.35.25-.4.06-.15.16-.23.31-.24.12-.04.21-.02.26.07.05.09.07.25.08.45.03.11,0,.25-.1.45-.09.19-.25.44-.47.74-.08.1-.18.25-.31.45-.13.2-.23.38-.31.53-.08.1-.17.24-.3.42-.12.18-.23.36-.33.52-.04.06-.1.16-.17.3-.07.14-.15.28-.24.43-.08.15-.17.27-.25.37-.29.52-.5.82-.64.9-.14.08-.24,0-.28-.25ZM49.78,11.22c-.03-.08-.04-.19-.02-.32.01-.14.04-.26.07-.37.03-.11.07-.17.1-.18.1-.05.23-.17.4-.38.17-.21.29-.39.38-.56.03-.05.07-.1.11-.15.05-.05.09-.08.13-.09.15-.1.27-.1.37-.01.1.09.15.24.15.45-.02.25-.09.47-.2.66-.11.19-.3.42-.58.7-.23.25-.43.39-.58.42-.15.03-.27-.02-.34-.15Z"/>
          <path class="cls-1" d="M48.98,19.54c-.27.05-.49,0-.66-.12-.17-.13-.27-.33-.3-.61-.03-.28.04-.62.21-1.03.13-.39.34-.84.63-1.35.29-.51.62-1.03,1-1.54.37-.51.74-.94,1.09-1.31.3-.3.59-.57.87-.82.28-.25.51-.41.68-.5.15-.07.3-.12.44-.14.14-.02.25-.03.32-.02.12.06.23.16.35.29.11.14.14.28.07.44l.03.1c.05,0,.07.09.04.27-.02.18-.07.38-.15.6-.07.22-.16.4-.28.54-.14.24-.29.46-.46.66-.17.2-.29.29-.36.29-.03,0-.07,0-.1,0-.03,0-.06.04-.09.1s-.07.09-.12.07c-.06-.02-.1-.06-.15-.13-.04-.07-.06-.15-.04-.26.03-.06.08-.16.17-.3.09-.13.2-.32.33-.56.2-.36.3-.6.29-.72,0-.12-.12-.13-.34-.04-.29.17-.58.4-.88.68-.29.29-.61.67-.96,1.14-.34.47-.73,1.08-1.17,1.83-.17.29-.29.54-.35.74-.06.2-.08.31-.06.32.1.06.25.08.44.06.2-.02.36-.07.48-.14.18-.09.37-.21.59-.36.21-.14.41-.28.6-.42.06-.04.13-.1.23-.19.09-.09.18-.16.27-.21.13-.15.24-.23.31-.25.08-.01.17-.02.27-.01.06.03.11.08.15.15.04.07.06.14.06.21,0,.07-.04.13-.11.16-.03,0-.07.03-.1.09,0,.05-.09.16-.24.32-.16.16-.35.34-.56.52-.22.18-.42.34-.6.48-.18.13-.3.2-.35.2-.09,0-.14.03-.18.11-.01.02-.1.09-.26.18-.17.09-.35.19-.55.28-.2.09-.37.15-.5.18Z"/>
          <path class="cls-1" d="M53.24,20.11c-.41-.03-.65-.26-.71-.71-.07-.44.05-1.02.36-1.73.2-.47.47-.97.81-1.5.34-.54.7-1.06,1.1-1.56.4-.5.79-.94,1.17-1.31.38-.37.72-.63,1.02-.77.11-.06.23-.11.35-.14.12-.03.23-.05.33-.04.1,0,.19.03.29.07.1.05.17.1.23.15.13.1.21.24.24.42.03.18,0,.45-.11.8-.07.21-.14.37-.19.49-.06.12-.15.27-.27.45-.3.45-.61.85-.95,1.2-.34.35-.68.62-1.03.81-.1.06-.19.1-.28.12-.09.02-.18.03-.27.02-.17-.01-.32-.07-.43-.17-.12-.1-.19-.24-.22-.41l-.03-.16-.13.17c-.21.31-.38.59-.52.84-.14.25-.26.47-.34.67-.06.16-.12.31-.16.46-.04.15-.07.28-.07.39,0,.08.03.14.09.18.06.04.14.06.23.06.05,0,.11,0,.17,0,.06,0,.12-.01.19-.04.18-.07.33-.15.47-.24.14-.09.28-.19.42-.28l.07-.03v-.02c.14-.08.27-.16.37-.22.1-.06.15-.09.16-.09.04-.02.09-.05.14-.09.1-.03.19,0,.26.11.07.11.07.24,0,.39-.04.08-.13.19-.26.32-.13.14-.27.27-.41.4-.15.13-.26.21-.35.25-.02.01-.06.03-.11.05-.05.02-.09.05-.12.07h.01c-.14.15-.25.23-.33.22h-.1c-.07.08-.23.18-.46.27-.23.1-.44.14-.62.13ZM55.69,15.73c.13,0,.27-.04.41-.14.14-.1.28-.21.41-.33.31-.3.56-.62.75-.96.19-.34.26-.58.23-.73-.03-.04-.05-.07-.08-.08-.03-.02-.1,0-.2.03-.08,0-.22.08-.42.22-.19.13-.39.3-.6.49-.21.19-.39.37-.54.55l-.34.4c.07-.04.13-.06.18-.06.05,0,.07,0,.07.03,0,.08-.01.17-.02.26,0,.09,0,.17.02.23.02.06.07.09.14.1Z"/>
        </g>
        <polygon class="cls-2" points="4.05 21.37 62.78 14.7 58.62 27.57 4.05 21.37"/>
      </g>
      <polygon class="cls-2" points="75.9 23.86 62.13 27.57 63.38 23.37 75.9 23.86"/>
    </g>
  </g>
</svg>