<svg width="136" height="77" viewBox="0 0 136 77" fill="none" xmlns="http://www.w3.org/2000/svg">
<g clip-path="url(#clip0_9_444)">
<path d="M0.709961 4.51999H125.34C125.34 4.51999 119.62 19.88 76.71 28.39L0.709961 4.51999Z" fill="white" stroke="#3B65EE" stroke-width="1.43" stroke-linecap="round" stroke-linejoin="round"/>
<path d="M125.34 4.51999C125.34 4.51999 126.18 0.709991 129.99 0.709991C133.8 0.709991 134.37 2.46999 134.8 6.11999C135.23 9.76999 129.64 19.99 122.2 22.25C122.2 22.25 110 34.47 91.8999 30.92C91.8999 30.92 84.7599 39.74 76.1899 39.03C76.1899 39.03 79.6299 33.2 76.7199 28.38C76.7199 28.38 111.65 22.61 125.35 4.50999L125.34 4.51999Z" fill="white" stroke="#3B65EE" stroke-width="1.43" stroke-linecap="round" stroke-linejoin="round"/>
<path d="M0.709961 4.51999V13.07L76.18 39.04C76.18 39.04 78.67 34.17 76.71 28.39L0.709961 4.51999Z" fill="white" stroke="#3B65EE" stroke-width="1.43" stroke-linecap="round" stroke-linejoin="round"/>
<path d="M0.709961 13.07V45.62L76.18 75.53C76.18 75.53 77.13 46.89 76.18 39.04L0.709961 13.07Z" fill="white" stroke="#3B65EE" stroke-width="1.43" stroke-linecap="round" stroke-linejoin="round"/>
<path d="M76.1899 39.04C76.1899 39.04 76.6699 68.45 76.1899 75.53C76.1899 75.53 103.85 67.07 108.94 62.83C108.94 62.83 114.85 59.04 117.41 52.66C119.36 47.82 122.2 22.25 122.2 22.25C122.2 22.25 112.85 33.05 91.8999 30.92C91.8999 30.92 83.8099 40.69 76.1899 39.03V39.04Z" fill="white" stroke="#3B65EE" stroke-width="1.43" stroke-linecap="round" stroke-linejoin="round"/>
<path opacity="0.2" d="M0.719971 4.51999V13.07L76.19 39.04C76.19 39.04 78.68 34.17 76.72 28.39L0.719971 4.51999Z" fill="#3B65EE"/>
<path opacity="0.2" d="M0.719971 13.07V45.62L76.19 75.53C76.19 75.53 77.14 46.89 76.19 39.04L0.719971 13.07Z" fill="#3B65EE"/>
<path opacity="0.2" d="M129.99 0.709994C129.99 0.709994 134.14 22.5 76.71 28.39C76.71 28.39 116.16 22.38 125.34 4.51999C125.34 4.51999 126.9 -5.52088e-06 129.99 0.709994Z" fill="#3B65EE"/>
<path opacity="0.2" d="M77.8599 32.11C77.8599 32.11 88.3199 29.64 90.2299 28.39C92.1399 27.14 94.9999 35.22 76.1899 39.04C76.1899 39.04 78.8099 36.13 77.8599 32.11Z" fill="#3B65EE"/>
<path d="M112.61 32.38C112.91 36.76 112.59 41.15 112 45.49C111.32 49.8 110.45 54.23 108.33 58.09C110.35 49.59 110.95 40.97 112.62 32.38H112.61Z" fill="#3B65EE"/>
<path d="M99.19 36.06C100.31 44.92 100.21 54.23 97.37 62.77C98.25 53.99 98.35 44.84 99.19 36.06Z" fill="#3B65EE"/>
<path d="M85.4699 42.85C85.9699 46.87 85.9599 50.9 85.7999 54.94C85.5199 58.96 85.3199 63.07 83.8999 66.89C84.3699 58.86 84.2099 50.82 85.4699 42.86V42.85Z" fill="#3B65EE"/>
<path d="M24.29 40C24.9472 40 25.48 39.4672 25.48 38.81C25.48 38.1528 24.9472 37.62 24.29 37.62C23.6328 37.62 23.1 38.1528 23.1 38.81C23.1 39.4672 23.6328 40 24.29 40Z" fill="#3B65EE"/>
<path d="M60.95 40.47C61.6072 40.47 62.14 39.9372 62.14 39.28C62.14 38.6228 61.6072 38.09 60.95 38.09C60.2928 38.09 59.76 38.6228 59.76 39.28C59.76 39.9372 60.2928 40.47 60.95 40.47Z" fill="#3B65EE"/>
<path d="M57.1399 46.19C57.7972 46.19 58.33 45.6572 58.33 45C58.33 44.3428 57.7972 43.81 57.1399 43.81C56.4827 43.81 55.95 44.3428 55.95 45C55.95 45.6572 56.4827 46.19 57.1399 46.19Z" fill="#3B65EE"/>
<path opacity="0.2" d="M71.23 13.27C75.4439 13.27 78.86 12.7014 78.86 12C78.86 11.2986 75.4439 10.73 71.23 10.73C67.016 10.73 63.6 11.2986 63.6 12C63.6 12.7014 67.016 13.27 71.23 13.27Z" fill="#3B65EE"/>
<path d="M72.05 11.74C74.9053 11.74 77.22 9.42531 77.22 6.56999C77.22 3.71468 74.9053 1.39999 72.05 1.39999C69.1947 1.39999 66.88 3.71468 66.88 6.56999C66.88 9.42531 69.1947 11.74 72.05 11.74Z" fill="white" stroke="#3B65EE" stroke-width="0.85" stroke-linecap="round" stroke-linejoin="round"/>
<path d="M69.45 7.42C71.1 6.67 72.71 6.73 74.45 6.64C73.21 7.94 71.09 7.98 69.45 7.42Z" fill="#3B65EE"/>
<path d="M71.98 8.97C70.38 8.45 69.95 6.11 70.99 4.89C71.33 6.37 71.42 7.5 71.98 8.97Z" fill="#3B65EE"/>
</g>
<defs>
<clipPath id="clip0_9_444">
<rect width="135.54" height="76.25" fill="white"/>
</clipPath>
</defs>
</svg>
