<?xml version="1.0" encoding="UTF-8"?>
<svg xmlns="http://www.w3.org/2000/svg" xmlns:xlink="http://www.w3.org/1999/xlink" viewBox="0 0 145.69 143.78">
  <defs>
    <style>
      .cls-1, .cls-2, .cls-3, .cls-4, .cls-5 {
        fill: none;
      }

      .cls-6 {
        mix-blend-mode: multiply;
      }

      .cls-6, .cls-7 {
        fill: #3b65ee;
        opacity: .2;
      }

      .cls-2 {
        stroke-width: 9px;
      }

      .cls-2, .cls-3, .cls-4, .cls-8, .cls-5 {
        stroke: #3b65ef;
        stroke-miterlimit: 10;
      }

      .cls-3 {
        stroke-width: 4px;
      }

      .cls-4, .cls-8 {
        stroke-width: 3px;
      }

      .cls-9 {
        isolation: isolate;
      }

      .cls-8 {
        fill: #fff;
      }

      .cls-5 {
        stroke-width: 11px;
      }

      .cls-10 {
        clip-path: url(#clippath);
      }
    </style>
    <clipPath id="clippath">
      <path class="cls-1" d="M57.27,141.71s-46-2-49-42S35.54-2.6,62.27,1.71c31,5,53,62,44,104-8.49,39.6-49,36-49,36Z"/>
    </clipPath>
  </defs>
  <g class="cls-9">
    <g id="Layer_2" data-name="Layer 2">
      <g id="Layer_2-2" data-name="Layer 2">
        <g>
          <ellipse class="cls-7" cx="92.27" cy="135.71" rx="53.5" ry="7.5" transform="translate(-7.46 5.38) rotate(-3.21)"/>
          <path class="cls-8" d="M57.27,141.71s-46-2-49-42S35.54-2.6,62.27,1.71c31,5,53,62,44,104-8.49,39.6-49,36-49,36Z"/>
          <g class="cls-10">
            <g>
              <polyline class="cls-4" points="18.27 33.71 44.27 20.71 57.27 38.71 76.27 20.71 88.27 37.71 103.27 25.71"/>
              <polyline class="cls-2" points="8.27 53.71 40.27 36.71 55.94 58.71 75.27 39.71 89.27 55.71 109.87 38.71"/>
              <polyline class="cls-3" points="1.27 107.71 29.27 84.71 49.27 102.71 68.27 86.71 84.27 101.71 99.27 85.71 122.27 101.71"/>
              <polyline class="cls-5" points="7.27 122.71 31.27 101.71 49.73 122.71 67.24 105.21 85.03 122.71 103.31 101.71 113.54 112.21"/>
            </g>
          </g>
          <path class="cls-6" d="M95.94,118.24c-13.35,19.05-39.9,22.69-54.07,11.83-12.53-9.61,17.97-13.88,29.99-33.8,12.02-19.92,9.16-56.48,20.91-43.06,14,16,13,51,3.17,65.03Z"/>
        </g>
      </g>
    </g>
  </g>
</svg>