<svg width="265" height="436" viewBox="0 0 265 436" fill="none" xmlns="http://www.w3.org/2000/svg">
<path opacity="0.38" d="M259.552 421.628C259.552 442.343 201.486 432.443 129.86 432.443C58.2342 432.443 -3.65666 444.968 0.168386 421.628C3.99344 398.288 58.2342 411.788 129.86 411.788C201.486 411.788 259.552 400.913 259.552 421.628Z" fill="#D1DAED"/>
<path d="M172.947 407.873L160.317 393.803C172.227 366.622 150.582 324.952 160.062 300.201L149.352 272.106L187.572 253.926L193.707 277.356C195.087 282.651 195.777 288.111 195.732 293.586L195.087 385.732L192.027 407.678L172.947 407.873Z" fill="#D1DAED" stroke="#3B65EE" stroke-width="2.5" stroke-miterlimit="10" stroke-linecap="round" stroke-linejoin="round"/>
<path d="M174.214 397.146L160.309 393.816C159.739 396.396 159.469 399.036 159.559 401.706L157.969 412.146C157.999 413.046 158.704 413.781 159.619 413.826L220.445 415.596C224.87 415.731 227.525 410.646 224.825 407.136C222.485 404.106 219.56 401.301 216.395 400.746L208.654 399.366C203.179 398.391 198.604 394.641 196.579 389.466L195.124 385.73L191.239 390.861C187.249 396.096 180.619 398.541 174.214 397.146Z" fill="white" stroke="#3B65EE" stroke-width="2.5" stroke-miterlimit="10" stroke-linecap="round" stroke-linejoin="round"/>
<path d="M123.811 282.668L121.426 324.368C120.901 333.653 117.391 342.518 111.451 349.673L68.085 398.289L69.555 402.024C71.58 407.199 76.1551 410.949 81.6302 411.924L89.3703 413.304C96.8554 414.639 30.5995 414.159 30.5995 414.159C30.3895 407.844 35.9695 401.829 39.3296 396.474C39.3296 396.474 52.3948 343.298 81.8252 321.188L81.2251 281.812L123.811 282.668Z" fill="#D1DAED" stroke="#3B65EE" stroke-width="2.5" stroke-miterlimit="10" stroke-linecap="round" stroke-linejoin="round"/>
<path d="M47.2124 409.69C47.2124 409.69 33.9822 405.25 32.4372 407.11C30.8922 408.97 30.5322 411.475 30.6222 414.13L30.9672 424.675C30.9972 425.575 31.7022 426.31 32.6172 426.355L95.408 428.185C99.8781 428.32 102.473 423.22 99.7731 419.65C97.2981 416.38 93.653 414.04 89.3929 413.275L81.6529 411.895C76.1778 410.92 71.6027 407.17 69.5777 401.995L68.1076 398.26L64.2226 403.39C60.2476 408.64 53.6175 411.085 47.2124 409.69Z" fill="white" stroke="#3B65EE" stroke-width="2.5" stroke-miterlimit="10" stroke-linecap="round" stroke-linejoin="round"/>
<path d="M167.339 170.99L196.469 276.892C196.469 276.892 161.144 298.252 135.284 296.782C109.423 295.312 97.4531 173.105 97.4531 173.105L167.339 170.99Z" fill="white" stroke="#3B65EE" stroke-width="2.5" stroke-miterlimit="10" stroke-linecap="round" stroke-linejoin="round"/>
<path d="M97.4609 173.105C97.4609 173.105 80.1958 186.786 78.6657 213.531C77.1357 240.276 73.6406 301.417 73.6406 301.417C73.6406 301.417 117.021 312.712 134.826 304.912C152.632 297.112 144.082 228.471 152.827 210.486" fill="white"/>
<path d="M97.4609 173.105C97.4609 173.105 80.1958 186.786 78.6657 213.531C77.1357 240.276 73.6406 301.417 73.6406 301.417C73.6406 301.417 117.021 312.712 134.826 304.912C152.632 297.112 144.082 228.471 152.827 210.486" stroke="#3B65EE" stroke-width="2.5" stroke-miterlimit="10" stroke-linecap="round" stroke-linejoin="round"/>
<path d="M168.877 83.748L167.977 92.5082" stroke="#3B65EE" stroke-width="2.5" stroke-miterlimit="10" stroke-linecap="round" stroke-linejoin="round"/>
<path d="M220.027 124.16C220.027 124.16 185.512 154.595 168.757 153.47C152.001 152.345 153.321 130.01 153.321 130.01L193.312 98.9746L220.027 124.16Z" fill="#B0C3EA" stroke="#3B65EE" stroke-width="2.5" stroke-miterlimit="10" stroke-linecap="round" stroke-linejoin="round"/>
<path d="M245.553 121.086C252.768 115.491 253.593 110.556 253.593 110.556L232.473 90.7111C234.288 89.9161 235.668 88.5361 235.608 86.1661C235.473 79.311 221.028 78.501 215.838 87.7711C214.413 90.3212 213.333 92.5712 212.523 94.4912C211.728 96.3812 211.188 97.9562 210.828 99.1862C210.198 101.301 208.698 102.921 206.688 103.686L206.028 103.941C203.193 105.021 202.368 108.666 204.333 111.456L214.443 125.812C216.348 128.527 219.963 129.097 222.018 127.027C223.398 125.647 225.288 124.912 227.343 125.017C231.918 125.242 240.453 125.047 245.553 121.086Z" fill="white" stroke="#3B65EE" stroke-width="2.5" stroke-miterlimit="10" stroke-linecap="round"/>
<path d="M245.558 121.085C249.713 117.86 251.738 114.86 252.728 112.895L252.323 109.34L241.763 99.4095L229.088 91.5645L224.018 91.6095C224.018 91.6095 225.758 95.3745 225.668 99.0196C225.638 100.355 225.743 102.965 225.893 105.725C226.223 111.98 223.628 117.65 218.888 120.935L213.562 124.625C213.562 124.625 214.822 127.265 216.818 127.76C218.813 128.255 220.523 127.985 220.523 127.985C221.093 127.775 221.618 127.46 222.068 127.01C223.448 125.63 225.338 124.895 227.393 125C231.923 125.24 240.458 125.045 245.558 121.085Z" fill="#D1DAED"/>
<path d="M245.553 121.086C252.768 115.491 253.593 110.556 253.593 110.556L232.473 90.7111C234.288 89.9161 235.668 88.5361 235.608 86.1661C235.473 79.311 221.028 78.501 215.838 87.7711C214.413 90.3212 213.333 92.5712 212.523 94.4912C211.728 96.3812 211.188 97.9562 210.828 99.1862C210.198 101.301 208.698 102.921 206.688 103.686L206.028 103.941C203.193 105.021 202.368 108.666 204.333 111.456L214.443 125.812C216.348 128.527 219.963 129.097 222.018 127.027C223.398 125.647 225.288 124.912 227.343 125.017C231.918 125.242 240.453 125.047 245.553 121.086Z" stroke="#3B65EE" stroke-width="2.5" stroke-miterlimit="10" stroke-linecap="round"/>
<path d="M254.5 112.757C259.781 108.658 258.661 98.3746 251.997 89.788C245.333 81.2014 235.649 77.5634 230.368 81.6623C225.086 85.7612 226.207 96.0448 232.871 104.631C239.534 113.218 249.218 116.856 254.5 112.757Z" fill="white" stroke="#3B65EE" stroke-width="2.5" stroke-miterlimit="10" stroke-linecap="round"/>
<path d="M218.586 106.463C218.586 106.463 224.121 105.848 225.336 101.213C226.551 96.5933 224.001 91.6133 224.001 91.6133C224.001 91.6133 235.761 93.0083 235.626 86.1682C235.491 79.3131 221.061 79.2381 216.141 90.2033" fill="white"/>
<path d="M218.585 106.461C220.1 105.966 221.495 105.201 222.545 104.196C223.625 103.191 224.21 101.931 224.345 100.581C224.51 99.1861 224.36 97.7611 224.03 96.3661C223.67 95.0011 223.13 93.546 222.53 92.376L221.18 89.766L224.21 89.961C225.68 90.051 227.315 89.961 228.785 89.781C230.255 89.586 231.71 89.181 232.61 88.491C233.075 88.161 233.375 87.816 233.57 87.396C233.765 87.006 233.84 86.391 233.78 85.896C233.69 84.951 233.06 84.1559 231.875 83.6009C230.72 83.0609 229.235 82.9109 227.765 82.9709C226.28 83.0609 224.795 83.451 223.355 84.021C220.505 85.221 217.985 87.366 216.125 90.201C216.995 86.946 219.215 83.9009 222.305 82.0259C223.835 81.0659 225.56 80.4059 227.39 80.0759C229.22 79.7609 231.185 79.7608 233.135 80.4809C234.095 80.8409 235.07 81.3959 235.88 82.2509C236.705 83.0909 237.23 84.2759 237.38 85.4459C237.53 86.6009 237.425 87.696 236.975 88.851C236.525 89.976 235.7 90.936 234.785 91.566C232.94 92.811 231.02 93.1861 229.22 93.3961C227.375 93.6061 225.65 93.5161 223.805 93.2761L225.485 90.8611C226.235 92.5411 226.64 94.131 226.865 95.8711C227.06 97.5811 227.03 99.3661 226.505 101.061C226.055 102.816 224.81 104.391 223.325 105.231C221.84 106.116 220.175 106.476 218.585 106.461Z" fill="#3B65EE"/>
<path d="M146.376 29.373L138.186 39.4082L132.561 55.9234C130.566 61.8034 126.936 66.9936 122.091 70.8786L111.98 78.9937L99.1103 125.239L97.4453 173.105C97.4453 173.105 149.376 204.665 171.771 189.185C194.167 173.705 185.496 78.5737 185.496 78.5737L160.821 70.6385L146.376 29.373Z" fill="#D1DAED" stroke="#3B65EE" stroke-width="2.5" stroke-miterlimit="10" stroke-linecap="round" stroke-linejoin="round"/>
<path d="M99.111 125.238L98.2109 151.579L123.741 170.989" fill="#B0C3EA"/>
<path d="M99.111 125.238L97.4609 173.104" stroke="#3B65EE" stroke-width="2.5" stroke-miterlimit="10" stroke-linecap="round" stroke-linejoin="round"/>
<path d="M147.055 58.6543C147.055 58.6543 151.78 73.2645 157.285 75.3046C162.79 77.3446 167.11 71.9145 167.11 71.9145L147.055 58.6543Z" fill="#B0C3EA"/>
<path d="M191.98 39.8434L186.88 46.7285C194.845 45.9785 201.31 39.7984 202.165 31.8333C202.21 31.3983 202.24 30.9633 202.27 30.5283C202.795 21.3932 186.595 9.84305 186.595 9.84305C186.595 9.84305 167.725 -2.78713 156.099 4.00796C144.474 10.788 131.709 41.2384 136.119 45.4535C140.529 49.6686 148.074 42.5135 148.074 42.5135L163.645 47.0285L191.98 39.8434Z" fill="#B0C3EA" stroke="#3B65EE" stroke-width="2.5" stroke-miterlimit="10" stroke-linecap="round" stroke-linejoin="round"/>
<path d="M149.444 35.0745C149.444 35.0745 157.949 37.0396 162.794 35.8395C167.654 34.6395 165.824 29.6895 165.824 29.6895C184.649 44.1946 191.984 39.8296 191.984 39.8296C191.984 39.8296 186.719 46.7297 184.409 50.2698C182.099 53.8098 182.654 60.6499 182.654 60.6499L177.479 60.6649C177.479 60.6649 172.544 71.045 167.114 71.9C161.669 72.755 147.883 64.6099 146.023 56.4648" fill="#D1DAED"/>
<path d="M149.444 35.0745C149.444 35.0745 157.949 37.0396 162.794 35.8395C167.654 34.6395 165.824 29.6895 165.824 29.6895C184.649 44.1946 191.984 39.8296 191.984 39.8296C191.984 39.8296 186.719 46.7297 184.409 50.2698C182.099 53.8098 182.654 60.6499 182.654 60.6499L177.479 60.6649C177.479 60.6649 172.544 71.045 167.114 71.9C161.669 72.755 147.883 64.6099 146.023 56.4648" stroke="#3B65EE" stroke-width="2.5" stroke-miterlimit="10" stroke-linecap="round" stroke-linejoin="round"/>
<path d="M171.477 49.8305C172.167 49.6055 172.752 49.6055 173.322 49.6505C173.892 49.6955 174.417 49.8455 174.927 50.0555C175.437 50.2655 175.902 50.5355 176.337 50.9105C176.772 51.2705 177.192 51.7055 177.507 52.3505C176.817 52.5755 176.217 52.5905 175.662 52.5305C175.092 52.4855 174.567 52.3355 174.057 52.1255C173.562 51.9155 173.082 51.6305 172.647 51.2555C172.212 50.9105 171.807 50.4755 171.477 49.8305Z" fill="#3B65EE"/>
<path d="M173.832 41.6113C175.002 41.9113 175.872 42.4363 176.637 43.0363C177.402 43.6363 178.047 44.3114 178.587 45.0764C179.127 45.8264 179.562 46.6664 179.877 47.5814C180.177 48.5114 180.387 49.5014 180.297 50.7014C179.127 50.4014 178.257 49.8764 177.477 49.2914C176.712 48.6914 176.067 48.0164 175.542 47.2514C175.002 46.4864 174.567 45.6614 174.252 44.7464C173.937 43.8164 173.727 42.8263 173.832 41.6113Z" fill="#3B65EE"/>
<path d="M158.315 37.8331C158.315 37.8331 160.97 28.743 154.76 27.813C148.549 26.883 145.204 38.8681 148.084 42.4832C150.964 46.1132 155.195 42.4232 155.195 42.4232" fill="#D1DAED"/>
<path d="M158.315 37.8331C158.315 37.8331 160.97 28.743 154.76 27.813C148.549 26.883 145.204 38.8681 148.084 42.4832C150.964 46.1132 155.195 42.4232 155.195 42.4232" stroke="#3B65EE" stroke-width="2.5" stroke-miterlimit="10" stroke-linecap="round" stroke-linejoin="round"/>
<path d="M134.961 87.6641C154.056 106.879 148.026 130.025 148.026 130.025L161.181 114.604L183.292 116.854C183.292 116.854 164.812 171.485 140.976 175.07C117.141 178.655 103.476 146.705 99.0957 125.24C96.6356 122.255 95.2407 118.64 94.5356 114.919C92.2856 103.024 97.1606 90.8891 106.596 83.314L122.076 70.8789" fill="#D1DAED"/>
<path d="M134.961 87.6641C154.056 106.879 148.026 130.025 148.026 130.025L161.181 114.604L183.292 116.854C183.292 116.854 164.811 171.485 140.976 175.07C117.141 178.655 103.476 146.705 99.0957 125.24C96.6356 122.255 95.2407 118.64 94.5356 114.919C92.2856 103.024 97.1606 90.8891 106.596 83.314L122.076 70.8789" stroke="#3B65EE" stroke-width="2.5" stroke-miterlimit="10" stroke-linecap="round" stroke-linejoin="round"/>
<path d="M144.195 140.975L148.02 130.01" stroke="#3B65EE" stroke-width="2.5" stroke-miterlimit="10" stroke-linecap="round" stroke-linejoin="round"/>
<path d="M190.87 81.0176C199.09 85.8777 213.025 102.018 196.93 113.598C194.785 115.188 192.865 116.418 191.215 117.378C189.595 118.323 188.23 118.983 187.15 119.463C185.305 120.273 184 121.833 183.55 123.738L183.4 124.368C182.755 127.068 179.545 128.238 176.785 126.768L162.595 119.238C159.91 117.813 158.98 114.603 160.615 112.488C161.71 111.078 162.16 109.263 161.83 107.418C161.095 103.308 160.285 95.5378 163.285 90.4527C165.28 87.0777 167.305 84.9927 168.895 83.7326C169.045 82.9076 169.315 82.1126 169.75 81.3926C172.855 76.1426 182.305 75.9625 190.87 81.0176Z" fill="white" stroke="#3B65EE" stroke-width="2.5" stroke-miterlimit="10" stroke-linecap="round" stroke-linejoin="round"/>
<path d="M168.898 61.7285L170.819 64.0236L168.898 61.7285Z" fill="white"/>
<path d="M168.898 61.7285L172.258 62.8086L169.393 65.2236L168.898 61.7285ZM168.898 61.7285L172.258 62.8086C173.428 63.1836 174.059 64.4286 173.684 65.5986C173.308 66.7686 172.064 67.3986 170.893 67.0236C170.053 66.7536 169.498 66.0336 169.378 65.2236L168.898 61.7285Z" fill="#3B65EE"/>
<path d="M123.566 271.957C125.786 272.152 127.751 270.502 127.946 268.252C128.141 266.017 126.491 264.037 124.271 263.842C122.051 263.647 120.086 265.297 119.891 267.547C119.696 269.782 121.331 271.762 123.566 271.957Z" fill="#3B65EE"/>
<path d="M111.474 270.892C113.694 271.087 115.659 269.437 115.854 267.187C116.049 264.952 114.399 262.972 112.179 262.777C109.959 262.582 107.994 264.232 107.799 266.482C107.589 268.732 109.239 270.697 111.474 270.892Z" fill="#3B65EE"/>
<path d="M132.213 279.099C132.438 279.159 132.648 279.249 132.828 279.384C133.008 279.519 133.158 279.698 133.263 279.893C133.368 280.088 133.443 280.313 133.458 280.538C133.473 280.763 133.458 280.989 133.383 281.214C131.943 285.159 129.078 288.444 125.358 290.394C121.637 292.359 117.317 292.869 113.252 291.834C109.172 290.799 105.632 288.279 103.307 284.769C100.982 281.258 100.037 277.028 100.667 272.858C100.712 272.633 100.787 272.423 100.922 272.228C101.057 272.033 101.207 271.883 101.402 271.763C101.597 271.643 101.807 271.568 102.032 271.523C102.257 271.493 102.482 271.508 102.707 271.553L132.213 279.099Z" fill="#3B65EE"/>
</svg>
