<svg width="321" height="468" viewBox="0 0 321 468" fill="none" xmlns="http://www.w3.org/2000/svg">
<path d="M133.969 79.2606C128.099 82.0806 110.189 76.1706 111.949 71.8706C113.709 67.5706 130.779 75.5706 130.779 75.5706C130.779 75.5706 126.959 65.8906 132.049 65.8906C137.119 65.8806 139.829 76.4306 133.969 79.2606Z" fill="#D1DAED" stroke="#3B65EE" stroke-width="2.5" stroke-miterlimit="10" stroke-linecap="round" stroke-linejoin="round"/>
<path d="M78.52 427.631L81.85 437.041C84.24 443.791 85.17 450.961 84.59 458.101L83.94 466.041H68.83L68.55 453.931L55.86 466.321H13.25C16.69 459.791 22.9 455.181 30.14 453.761L43.18 451.211C46.92 450.481 49.84 447.561 50.58 443.821L53.78 427.641H78.52V427.631Z" fill="#D1DAED" stroke="#3B65EE" stroke-width="2.5" stroke-miterlimit="10" stroke-linecap="round" stroke-linejoin="round"/>
<path d="M213.87 427.631L210.54 437.041C208.15 443.791 207.22 450.961 207.8 458.101L208.45 466.041H223.56L223.84 453.931L236.53 466.321H279.14C275.7 459.791 269.49 455.181 262.25 453.761L249.21 451.211C245.47 450.481 242.55 447.561 241.81 443.821L238.61 427.641H213.87V427.631Z" fill="#D1DAED" stroke="#3B65EE" stroke-width="2.5" stroke-miterlimit="10" stroke-linecap="round" stroke-linejoin="round"/>
<path d="M141.299 47.9102L141.619 58.7701L133.969 79.2602L154.629 95.8202H166.779L174.279 84.8601L143.009 47.9102" fill="white"/>
<path d="M141.299 47.9102L141.619 58.7701L133.969 79.2602L154.629 95.8202H166.779L174.279 84.8601L143.009 47.9102" stroke="#3B65EE" stroke-width="2.5" stroke-miterlimit="10" stroke-linecap="round" stroke-linejoin="round"/>
<path d="M232.91 190.699C232.91 190.699 251.17 194.369 255.51 192.119C259.85 189.869 271.49 169.549 271.49 169.549L268.83 167.459L235.33 176.419L232.91 190.699Z" fill="white" stroke="#3B65EE" stroke-width="2.5" stroke-miterlimit="10" stroke-linecap="round" stroke-linejoin="round"/>
<path d="M278.971 159.699L252.711 169.079L263.611 178.149L278.971 159.699Z" fill="#B0C3EA" stroke="#3B65EE" stroke-width="2.5" stroke-miterlimit="10" stroke-linecap="round" stroke-linejoin="round"/>
<path d="M254.38 185.7L271.02 162.54L279.84 159.39C282.44 158.46 285.18 160.39 285.18 163.16V163.35L316.04 157.99C317.58 157.72 318.98 158.91 318.98 160.47V160.64C318.98 161.86 318.11 162.9 316.91 163.11L286.39 168.61L286.06 170.52C285.77 172.17 284.49 173.47 282.84 173.77L274.04 175.38L267.19 191.81C265.97 194.72 263.12 196.62 259.97 196.62C254.36 196.62 251.1 190.26 254.38 185.7Z" fill="#B0C3EA" stroke="#3B65EE" stroke-width="2.5" stroke-miterlimit="10" stroke-linecap="round" stroke-linejoin="round"/>
<path d="M269.199 175.969L263.239 187.729C262.049 190.079 263.369 192.919 265.929 193.519L267.469 193.879C269.469 194.349 271.509 193.249 272.219 191.319L276.639 179.199C277.359 177.219 276.449 175.019 274.539 174.129C272.559 173.199 270.189 174.009 269.199 175.969Z" fill="white" stroke="#3B65EE" stroke-width="2.5" stroke-miterlimit="10" stroke-linecap="round" stroke-linejoin="round"/>
<path d="M88.3886 179.131C88.3886 179.131 70.1286 182.801 65.7886 180.551C61.4386 178.311 49.8086 157.981 49.8086 157.981L52.4686 155.891L85.9686 164.851L88.3886 179.131Z" fill="white" stroke="#3B65EE" stroke-width="2.5" stroke-miterlimit="10" stroke-linecap="round" stroke-linejoin="round"/>
<path d="M41.8008 147.93L68.0608 157.31L57.1608 166.38L41.8008 147.93Z" fill="#B0C3EA" stroke="#3B65EE" stroke-width="2.5" stroke-miterlimit="10" stroke-linecap="round" stroke-linejoin="round"/>
<path d="M66.3891 173.93L49.7491 150.77L40.9291 147.62C38.3291 146.69 35.5891 148.62 35.5891 151.39V151.58L4.72906 146.22C3.18906 145.95 1.78906 147.14 1.78906 148.7V148.87C1.78906 150.09 2.65907 151.13 3.85907 151.34L34.3791 156.84L34.7091 158.75C34.9991 160.4 36.2791 161.7 37.9291 162L46.7291 163.61L53.5791 180.04C54.7991 182.95 57.6491 184.85 60.7991 184.85C66.4091 184.85 69.6691 178.49 66.3891 173.93Z" fill="#B0C3EA" stroke="#3B65EE" stroke-width="2.5" stroke-miterlimit="10" stroke-linecap="round" stroke-linejoin="round"/>
<path d="M52.0881 164.401L58.0481 176.161C59.2381 178.511 57.9181 181.351 55.3581 181.951L53.8181 182.311C51.8181 182.781 49.7781 181.681 49.0681 179.751L44.6481 167.631C43.9281 165.651 44.8381 163.451 46.7481 162.561C48.7281 161.631 51.0981 162.451 52.0881 164.401Z" fill="white" stroke="#3B65EE" stroke-width="2.5" stroke-miterlimit="10" stroke-linecap="round" stroke-linejoin="round"/>
<path d="M174.918 80.79L189.388 90.43C195.778 94.69 200.148 101.38 201.488 108.94L211.178 163.84L239.168 175.53L233.018 193.6L183.688 181.67L180.188 199.66L111.948 193.6L113.118 181.67C102.898 188.6 80.418 180.45 80.418 180.45L84.448 163.53L94.598 163.84L97.788 112.61C98.418 102.46 104.488 93.44 113.648 89.03L133.958 79.25C133.958 79.25 152.698 89.05 161.018 89.32C169.338 89.59 174.918 80.79 174.918 80.79Z" fill="#3B65EE" stroke="#3B65EE" stroke-width="2.5" stroke-miterlimit="10" stroke-linecap="round" stroke-linejoin="round"/>
<path d="M211.168 163.84L201.478 108.94C200.268 102.07 196.538 95.9205 191.078 91.6605C191.078 91.6605 192.898 109.95 160.948 104.77C128.998 99.5804 119.988 85.9805 119.988 85.9805L113.648 89.0305C104.488 93.4405 98.418 102.46 97.788 112.61L94.598 163.84L84.448 163.53L80.418 180.45C89.188 189.15 102.888 188.6 113.118 181.67L111.948 193.6L180.188 199.66L183.688 181.67C195.048 196.62 233.018 193.6 233.018 193.6L239.168 175.53L211.168 163.84Z" fill="white" stroke="#3B65EE" stroke-width="2.5" stroke-miterlimit="10" stroke-linecap="round" stroke-linejoin="round"/>
<path d="M189.688 150.621L182.648 186.911L182.658 186.921L183.678 181.671C189.298 189.071 201.438 192.071 212.268 193.201L212.938 192.841C212.938 192.851 190.808 175.531 189.688 150.621Z" fill="#D1DAED"/>
<path d="M180.18 199.66L183.68 181.67C195.04 196.62 233.01 193.6 233.01 193.6" fill="white"/>
<path d="M180.18 199.66L183.68 181.67C195.04 196.62 233.01 193.6 233.01 193.6" stroke="#3B65EE" stroke-width="2.5" stroke-miterlimit="10" stroke-linecap="round" stroke-linejoin="round"/>
<path d="M192.939 133.881L180.189 199.661C154.449 205.721 111.949 193.601 111.949 193.601L116.959 139.461" fill="white"/>
<path d="M192.939 133.881L180.189 199.661C154.449 205.721 111.949 193.601 111.949 193.601L116.959 139.461" stroke="#3B65EE" stroke-width="2.5" stroke-miterlimit="10" stroke-linecap="round" stroke-linejoin="round"/>
<path d="M133.969 79.2598C133.969 79.2598 159.989 108.59 160.959 133.89C184.329 109.09 174.929 80.7997 174.929 80.7997C158.799 92.0597 133.969 79.2598 133.969 79.2598Z" fill="#D1DAED" stroke="#3B65EE" stroke-width="2.5" stroke-miterlimit="10" stroke-linecap="round" stroke-linejoin="round"/>
<path d="M180.178 199.66L218.098 297.16C221.788 306.65 224.368 316.54 225.788 326.63L241.778 440.68H210.978L191.558 333.05C190.018 324.51 187.158 316.27 183.078 308.61L145.148 237.46L113.138 330.16L85.1477 443.69H44.0977L111.948 193.58C111.938 193.6 157.978 207.71 180.178 199.66Z" fill="white" stroke="#3B65EE" stroke-width="2.5" stroke-miterlimit="10" stroke-linecap="round" stroke-linejoin="round"/>
<path d="M181.359 193.601C170.999 215.771 104.719 220.241 104.719 220.241L107.999 208.141C107.999 208.141 184.649 197.551 184.329 178.361L181.359 193.601Z" fill="#D1DAED" stroke="#3B65EE" stroke-width="2.5" stroke-miterlimit="10" stroke-linecap="round" stroke-linejoin="round"/>
<path d="M111.938 193.6C151.347 223.08 188.568 221.23 188.568 221.23L184.008 209.52C184.008 209.52 155.378 207.29 112.768 183.67L111.938 193.6Z" fill="#D1DAED" stroke="#3B65EE" stroke-width="2.5" stroke-miterlimit="10" stroke-linecap="round" stroke-linejoin="round"/>
<path d="M184.647 32.6907C184.647 32.6907 180.967 40.0807 181.857 50.8607C182.417 57.6207 179.297 69.2807 176.887 77.0307C175.117 82.7307 169.937 86.6807 163.977 86.9007C159.517 87.0607 154.587 86.1407 151.357 82.3007C146.137 76.1107 143.387 66.6207 142.257 61.8007C141.827 59.9807 140.317 58.6107 138.467 58.3807L138.307 58.3607C135.587 58.0207 133.517 55.7707 133.397 53.0407L132.967 43.0207C132.897 41.3407 134.417 40.0307 136.067 40.3607L139.067 40.9507L138.847 28.4707L184.647 32.6907Z" fill="white" stroke="#3B65EE" stroke-width="2.5" stroke-miterlimit="10" stroke-linecap="round" stroke-linejoin="round"/>
<path d="M179.478 37.3809L167.918 43.2408C165.058 50.3708 171.558 59.4509 171.558 59.4509L161.918 58.7309" fill="white"/>
<path d="M179.478 37.3809C177.718 38.6809 175.898 39.8709 174.048 41.0109C173.138 41.5909 172.188 42.1208 171.258 42.6808C170.328 43.2408 169.378 43.7408 168.438 44.2708L168.988 43.6709C168.588 44.8709 168.388 46.1309 168.428 47.4409C168.488 48.7409 168.668 50.0708 169.038 51.3708C169.408 52.6708 169.838 53.9809 170.388 55.2509C170.928 56.5209 171.548 57.8009 172.218 58.9809L172.278 59.0909C172.488 59.4609 172.368 59.9409 171.988 60.1609C171.838 60.2509 171.658 60.2809 171.498 60.2609C168.298 59.8309 165.098 59.3609 161.918 58.7309C165.158 58.5909 168.398 58.5908 171.618 58.6508L170.898 59.9308C169.948 58.7408 169.148 57.5109 168.438 56.1909C167.758 54.8709 167.118 53.5009 166.698 52.0409C166.268 50.5909 165.948 49.0608 165.948 47.4908C165.938 45.9208 166.178 44.3009 166.838 42.8209L166.878 42.7309C166.978 42.5009 167.168 42.3209 167.388 42.2209C168.378 41.7809 169.338 41.3009 170.338 40.8809C171.338 40.4609 172.318 40.0108 173.328 39.6208C175.348 38.8008 177.388 38.0309 179.478 37.3809Z" fill="#3B65EE"/>
<path d="M177.298 42.8012C176.808 43.2612 176.278 43.5812 175.738 43.8512C175.198 44.1312 174.638 44.3412 174.058 44.5012C173.478 44.6612 172.898 44.7912 172.288 44.8412C171.678 44.9012 171.068 44.9112 170.398 44.7712C170.888 44.3112 171.418 43.9812 171.958 43.7112C172.498 43.4312 173.058 43.2212 173.638 43.0612C174.218 42.9012 174.798 42.7812 175.408 42.7312C176.018 42.6712 176.638 42.6612 177.298 42.8012Z" fill="#3B65EE"/>
<path d="M161.139 44.7708C160.439 44.9408 159.769 44.9608 159.119 44.9308C158.459 44.9108 157.819 44.8108 157.189 44.6808C156.559 44.5408 155.929 44.3608 155.329 44.1108C154.719 43.8608 154.119 43.5708 153.559 43.1208C154.259 42.9508 154.929 42.9308 155.579 42.9608C156.239 42.9808 156.879 43.0808 157.509 43.2108C158.139 43.3508 158.769 43.5308 159.369 43.7908C159.979 44.0308 160.569 44.3308 161.139 44.7708Z" fill="#3B65EE"/>
<path d="M150.668 38.6601C151.758 38.4401 152.788 38.4601 153.788 38.5501C154.788 38.6501 155.758 38.8401 156.708 39.1201C157.658 39.3901 158.578 39.7501 159.478 40.2001C160.368 40.6601 161.248 41.2001 162.048 41.9701C160.958 42.1901 159.928 42.1801 158.928 42.0901C157.928 41.9901 156.958 41.8001 156.008 41.5201C155.058 41.2401 154.138 40.8801 153.238 40.4301C152.348 39.9601 151.478 39.4301 150.668 38.6601Z" fill="#3B65EE"/>
<path d="M147.17 29.2212L145.8 50.6012L139.06 40.9412L138.84 28.4512L147.17 29.2212Z" fill="#B0C3EA"/>
<path d="M136.059 40.3512L139.059 40.9412L138.839 28.4512" fill="white"/>
<path d="M136.059 40.3512L139.059 40.9412L138.839 28.4512" stroke="#3B65EE" stroke-width="2.5" stroke-miterlimit="10" stroke-linecap="round" stroke-linejoin="round"/>
<path d="M210.809 31.1797V33.8398L117.469 29.7198L118.809 26.7598L184.649 29.9198L210.809 31.1797Z" fill="#D1DAED" stroke="#3B65EE" stroke-width="2.5" stroke-miterlimit="10" stroke-linecap="round" stroke-linejoin="round"/>
<path d="M186.07 1.48047L184.65 29.9205L138.84 28.4505L143.01 4.16048L186.07 1.48047Z" fill="#D1DAED" stroke="#3B65EE" stroke-width="2.5" stroke-miterlimit="10" stroke-linecap="round" stroke-linejoin="round"/>
<path d="M158.801 37.3813C159.341 37.3613 159.801 37.4713 160.231 37.6313C160.671 37.7713 161.061 37.9812 161.441 38.2212C161.811 38.4612 162.161 38.7512 162.461 39.0912C162.771 39.4312 163.051 39.8112 163.251 40.3112C162.711 40.3312 162.251 40.2213 161.811 40.0713C161.371 39.9213 160.981 39.7212 160.611 39.4712C160.241 39.2212 159.891 38.9413 159.591 38.6013C159.291 38.2613 159.011 37.8813 158.801 37.3813Z" fill="#3B65EE"/>
<path d="M154.129 93.5898C155.909 95.0998 157.399 96.9299 158.689 98.8899C159.979 100.85 160.999 102.99 161.799 105.21C162.209 106.32 162.479 107.47 162.779 108.61C162.889 109.19 162.969 109.78 163.069 110.36C163.109 110.65 163.169 110.94 163.199 111.23L163.249 112.11C163.479 114.46 163.209 116.83 162.709 119.09C162.589 116.76 162.529 114.49 162.089 112.25C161.709 110.02 161.159 107.82 160.379 105.7C158.899 101.44 156.739 97.4198 154.129 93.5898Z" fill="#3B65EE"/>
<path d="M117.96 128.301C118.31 130.211 118.39 132.091 118.42 133.971C118.43 135.851 118.34 137.721 118.17 139.581C118 141.441 117.74 143.291 117.39 145.141C117.02 146.981 116.59 148.821 115.89 150.631C115.54 148.721 115.45 146.841 115.43 144.961C115.42 143.081 115.51 141.211 115.68 139.351C115.85 137.491 116.11 135.641 116.47 133.791C116.84 131.951 117.27 130.111 117.96 128.301Z" fill="#3B65EE"/>
<path d="M195.04 123.291C195.16 125.341 195.03 127.341 194.84 129.331C194.63 131.321 194.33 133.281 193.94 135.241C193.55 137.191 193.08 139.131 192.52 141.041C191.94 142.951 191.29 144.851 190.39 146.701C190.26 144.651 190.4 142.641 190.59 140.661C190.8 138.671 191.1 136.711 191.49 134.751C191.88 132.801 192.35 130.861 192.92 128.951C193.5 127.041 194.14 125.141 195.04 123.291Z" fill="#3B65EE"/>
<path d="M181.208 152.33C180.468 154.62 179.238 156.74 177.818 158.69C176.388 160.64 174.748 162.45 172.898 164.03C171.038 165.58 169.067 167.03 166.907 168.12C164.787 169.29 162.507 170.12 160.188 170.73C161.217 170.1 162.287 169.59 163.307 168.97C164.317 168.35 165.348 167.78 166.318 167.11C168.298 165.85 170.147 164.4 171.927 162.89C173.727 161.39 175.347 159.7 176.917 157.96C178.457 156.2 179.908 154.35 181.208 152.33Z" fill="#3B65EE"/>
<path d="M156.367 62.7305C156.367 62.7305 159.347 67.1704 167.587 66.5204L156.367 62.7305Z" fill="white"/>
<path d="M156.367 62.7305C157.387 63.2205 158.297 63.5705 159.187 63.9005C160.077 64.2305 160.957 64.5004 161.837 64.7704L164.587 65.5405C165.057 65.6805 165.547 65.7905 166.037 65.9705C166.537 66.1305 167.047 66.2604 167.577 66.5204C167.087 66.8204 166.567 67.0105 166.037 67.2005C165.507 67.3305 164.967 67.4605 164.417 67.5005C163.317 67.5905 162.197 67.4905 161.117 67.1705C160.047 66.8405 159.017 66.3205 158.147 65.5705C157.317 64.8305 156.577 63.8805 156.367 62.7305Z" fill="#3B65EE"/>
</svg>
