<?xml version="1.0" encoding="UTF-8"?><svg id="Layer_2" xmlns="http://www.w3.org/2000/svg" viewBox="0 0 639.76 569.8"><defs><style>.cls-1{fill:#0069ff;}.cls-2{fill:#66a5ff;}.cls-3{fill:#fdd089;}.cls-4{fill:#fff;}.cls-5{fill:#fff1f8;}</style></defs><g id="Layer_1-2"><path class="cls-3" d="m619.58,131.1c-14.53,14.44-44.29,20.79-71.66,22.97,34.59,43.08,55.02,96.34,55.02,153.98s-21.53,113.72-57.8,157.39c-51.66,62.22-133.21,102.37-224.98,102.37s-173.32-40.15-224.98-102.37c-36.27-43.67-57.8-98.22-57.8-157.39s21.7-114.13,58.21-157.89c-28.36-1.88-60.21-8.15-75.41-23.24C-10.32,96.64,1.76,71.02,32.54,35.78,63.31.55,90.36-7.05,120.18,23.97c15.19,15.8,23.8,49.65,27.84,77.97,47.68-33.67,107.36-53.67,172.14-53.67s124.5,20.02,172.19,53.7c4.28-27.4,12.77-58.78,27.22-73.81,29.82-31.04,56.88-23.42,87.65,11.8,30.78,35.24,42.86,60.86,12.36,91.14Z"/><path class="cls-4" d="m545.58,463.22c-51.73,64.85-132.63,106.58-223.57,106.58s-171.84-41.74-223.57-106.58c41.55-79.8,126.07-134.42,223.57-134.42s182.02,54.61,223.57,134.42Z"/><polygon class="cls-1" points="319.78 388.3 389.28 307.3 250.28 307.3 319.78 388.3"/><path class="cls-1" d="m319.78,390.8c-.73,0-1.42-.32-1.9-.87l-69.5-81c-.64-.74-.78-1.78-.37-2.67s1.29-1.46,2.27-1.46h139c.98,0,1.86.57,2.27,1.46s.26,1.93-.37,2.67l-69.5,81c-.48.55-1.17.87-1.9.87Zm-64.06-81l64.06,74.66,64.06-74.66h-128.12Z"/><path class="cls-1" d="m286.47,419.4c-14.54,0-28.23-7.84-35.49-20.88-.67-1.21-.24-2.73.97-3.4,1.2-.67,2.73-.24,3.4.97,7.41,13.29,22.42,20.42,37.38,17.76,14.92-2.66,22.77-21.01,24.97-35.9.2-1.37,1.47-2.31,2.84-2.11,1.37.2,2.31,1.47,2.11,2.84-2.44,16.54-11.5,36.97-29.03,40.1-2.38.43-4.77.63-7.13.63Z"/><path class="cls-1" d="m353.85,419.4c-2.36,0-4.75-.21-7.13-.63-17.53-3.13-26.6-23.56-29.03-40.1-.2-1.37.74-2.64,2.11-2.84,1.37-.2,2.64.74,2.84,2.11,2.19,14.9,10.05,33.24,24.97,35.9,14.95,2.67,29.97-4.47,37.38-17.76.67-1.21,2.2-1.64,3.4-.97,1.21.67,1.64,2.19.97,3.4-7.26,13.04-20.96,20.88-35.49,20.88Z"/><path class="cls-1" d="m113.51,414.1c-1.04,0-2.01-.65-2.36-1.69-.45-1.31.25-2.73,1.55-3.18l147.31-50.65c1.3-.45,2.73.24,3.18,1.55.45,1.31-.25,2.73-1.55,3.18l-147.31,50.65c-.27.09-.54.14-.81.14Z"/><path class="cls-1" d="m259.98,356.52h-.04l-155.75-2.55c-1.38-.02-2.48-1.16-2.46-2.54.02-1.38,1.15-2.47,2.54-2.46l155.75,2.55c1.38.02,2.48,1.16,2.46,2.54-.02,1.37-1.14,2.46-2.5,2.46Z"/><path class="cls-1" d="m260.49,349.94c-.3,0-.61-.06-.91-.17l-145.12-56.64c-1.29-.5-1.92-1.95-1.42-3.24.5-1.29,1.95-1.92,3.24-1.42l145.12,56.64c1.29.5,1.92,1.95,1.42,3.24-.39.99-1.33,1.59-2.33,1.59Z"/><path class="cls-1" d="m529.53,414.1c-.27,0-.54-.04-.81-.14l-147.31-50.65c-1.31-.45-2-1.87-1.55-3.18.45-1.31,1.87-2,3.18-1.55l147.31,50.65c1.31.45,2,1.87,1.55,3.18-.36,1.04-1.33,1.69-2.36,1.69Z"/><path class="cls-1" d="m383.07,356.52c-1.36,0-2.48-1.09-2.5-2.46-.02-1.38,1.08-2.52,2.46-2.54l155.75-2.55c1.34-.02,2.52,1.08,2.54,2.46.02,1.38-1.08,2.52-2.46,2.54l-155.75,2.55h-.04Z"/><path class="cls-1" d="m382.56,349.94c-1,0-1.94-.6-2.33-1.59-.5-1.29.13-2.74,1.42-3.24l145.12-56.64c1.29-.5,2.74.13,3.24,1.42.5,1.29-.13,2.74-1.42,3.24l-145.12,56.64c-.3.12-.61.17-.91.17Z"/><path class="cls-5" d="m45.41,105.23c-19.37-18.04-12.67-32.26,5.18-51.42,17.85-19.16,34.14-22.74,53.12-4.29,17.31,16.82,23.26,65.95,21.4,70.74-1.05,2.7-60.32,3.01-79.69-15.03Z"/><path class="cls-5" d="m596.35,107.23c19.37-18.04,12.67-32.26-5.18-51.42-17.85-19.16-34.14-22.74-53.12-4.29-17.31,16.82-23.26,65.95-21.4,70.74,1.05,2.7,60.32,3.01,79.69-15.03Z"/><polygon class="cls-2" points="320.16 124.8 338.03 48.8 302.29 48.8 320.16 124.8"/><path class="cls-2" d="m320.16,135.73l-21.02-89.42h42.05l-21.02,89.42Zm-14.71-84.42l14.71,62.58,14.71-62.58h-29.42Z"/><polygon class="cls-2" points="262.61 131.39 259.09 53.39 224.71 63.13 262.61 131.39"/><path class="cls-2" d="m265.58,141.9l-44.59-80.32,40.46-11.45,4.13,91.77Zm-37.15-77.22l31.2,56.2-2.89-64.22-28.31,8.02Z"/><polygon class="cls-2" points="377.71 131.39 381.22 53.39 415.61 63.13 377.71 131.39"/><path class="cls-2" d="m374.74,141.9l4.13-91.77,40.46,11.45-44.59,80.32Zm8.84-85.24l-2.89,64.22,31.2-56.2-28.31-8.02Z"/><polygon class="cls-2" points="132.42 215.3 71.16 184.3 56.16 216.3 132.42 215.3"/><path class="cls-2" d="m52.2,218.85l17.79-37.95,72.65,36.76-90.43,1.19Zm20.13-31.16l-12.21,26.05,62.09-.81-49.88-25.24Z"/><polygon class="cls-2" points="106 253.21 43.16 258.3 39.01 293.3 106 253.21"/><path class="cls-2" d="m35.92,298.06l4.99-42.08,75.56-6.13-80.55,48.21Zm9.48-37.43l-3.31,27.91,53.43-31.98-50.12,4.06Z"/><polygon class="cls-2" points="507.01 215.3 568.27 184.3 583.27 216.3 507.01 215.3"/><path class="cls-2" d="m587.23,218.85l-90.43-1.19,72.65-36.76,17.79,37.95Zm-70.01-5.92l62.09.81-12.21-26.05-49.88,25.24Z"/><polygon class="cls-2" points="533.43 253.21 596.27 258.3 600.42 293.3 533.43 253.21"/><path class="cls-2" d="m603.5,298.06l-80.55-48.21,75.56,6.13,4.99,42.08Zm-59.59-41.49l53.43,31.98-3.31-27.91-50.12-4.06Z"/><path class="cls-1" d="m320.16,568.3c-45.24,0-88.5-9.45-128.59-28.09-38.24-17.78-72.24-43.78-98.32-75.19-38.19-45.98-58.38-100.96-58.38-158.98s19.25-110.43,55.73-155.75c-21.72-1.82-55.76-7.28-72.19-23.6C-13.1,95.41-.96,68.33,30.66,32.14,49.46,10.61,65.78.4,82.01.01c13.54-.32,26.58,6.29,39.97,20.23,16.54,17.2,24.45,53.03,27.92,75.35,49.47-33.91,108.24-51.82,170.26-51.82s120.86,17.93,170.36,51.88c3.57-21.09,11.49-54.83,27.25-71.22,13.39-13.93,26.47-20.54,39.97-20.23,16.24.38,32.56,10.59,51.36,32.12,31.62,36.19,43.75,63.27,12.24,94.55-15.15,15.06-44.77,20.99-68.59,23.28,34.49,44.51,52.69,96.93,52.69,151.89,0,58.03-20.19,113-58.38,158.99-26.08,31.41-60.07,57.41-98.32,75.19-40.08,18.64-83.34,28.09-128.58,28.09ZM82.94,5c-.27,0-.54,0-.81,0-14.53.35-30.14,10.3-47.71,30.42-17.43,19.95-25.98,33.8-28.6,46.29-3.01,14.36,2.11,27.52,16.11,41.41,16.55,16.44,53.35,21.17,73.81,22.52.94.06,1.76.65,2.13,1.51s.22,1.86-.38,2.59c-37.7,45.18-57.63,99.23-57.63,156.29s19.79,110.72,57.22,155.79c25.61,30.84,59,56.38,96.58,73.85,39.42,18.33,81.97,27.62,126.48,27.62s87.06-9.29,126.48-27.62c37.58-17.47,70.97-43.01,96.58-73.85,37.44-45.07,57.22-98.94,57.22-155.79s-18.83-108.03-54.47-152.41c-.58-.72-.71-1.71-.35-2.56.37-.85,1.17-1.43,2.1-1.5,19.37-1.54,54.22-6.48,70.1-22.25h0c14-13.9,19.12-27.06,16.11-41.42-2.62-12.5-11.17-26.34-28.6-46.29-17.58-20.12-33.18-30.07-47.72-30.41-12.02-.29-23.88,5.83-36.25,18.7-15.83,16.46-23.43,52.47-26.55,72.46-.13.85-.7,1.58-1.5,1.92-.8.34-1.71.24-2.42-.26-49.32-34.83-108.37-53.24-170.75-53.24s-121.4,18.4-170.7,53.21c-.71.5-1.63.6-2.43.25-.8-.34-1.36-1.08-1.48-1.94-2.43-17.06-9.96-58.69-27.17-76.59-12.09-12.58-23.69-18.7-35.44-18.7Z"/><circle class="cls-4" cx="241.2" cy="212.39" r="32.37"/><path class="cls-4" d="m241.2,247.25c-19.23,0-34.87-15.64-34.87-34.87s15.64-34.87,34.87-34.87,34.87,15.64,34.87,34.87-15.64,34.87-34.87,34.87Zm0-64.73c-16.47,0-29.87,13.4-29.87,29.87s13.4,29.87,29.87,29.87,29.87-13.4,29.87-29.87-13.4-29.87-29.87-29.87Z"/><circle class="cls-1" cx="242.98" cy="224.65" r="19.84"/><circle class="cls-4" cx="399.11" cy="212.39" r="32.37"/><path class="cls-4" d="m399.11,247.25c-19.23,0-34.87-15.64-34.87-34.87s15.64-34.87,34.87-34.87,34.87,15.64,34.87,34.87-15.64,34.87-34.87,34.87Zm0-64.73c-16.47,0-29.87,13.4-29.87,29.87s13.4,29.87,29.87,29.87,29.87-13.4,29.87-29.87-13.4-29.87-29.87-29.87Z"/><circle class="cls-1" cx="400.89" cy="224.65" r="19.84"/></g></svg>