<?xml version="1.0" encoding="UTF-8"?><svg id="Layer_1" xmlns="http://www.w3.org/2000/svg" viewBox="0 0 300 300"><defs><style>.cls-1{fill:#fff;}.cls-2{fill:#2b67f8;}</style></defs><rect class="cls-1" x="43.64" y="197.45" width="60.25" height="76.38"/><path class="cls-2" d="m103.89,270.34h-60.25l3.5,3.5v-76.38l-3.5,3.5h60.25l-3.5-3.5v76.38c0,4.5,7,4.51,7,0v-76.38c0-1.89-1.6-3.5-3.5-3.5h-60.25c-1.89,0-3.5,1.6-3.5,3.5v76.38c0,1.89,1.6,3.5,3.5,3.5h60.25c4.5,0,4.51-7,0-7Z"/><rect class="cls-1" x="122.45" y="156.57" width="60.25" height="117.27"/><path class="cls-2" d="m182.7,270.34h-60.25l3.5,3.5v-117.27l-3.5,3.5h60.25l-3.5-3.5v117.27c0,4.5,7,4.51,7,0v-117.27c0-1.89-1.6-3.5-3.5-3.5h-60.25c-1.89,0-3.5,1.6-3.5,3.5v117.27c0,1.89,1.6,3.5,3.5,3.5h60.25c4.5,0,4.51-7,0-7Z"/><rect class="cls-1" x="201.25" y="102.78" width="60.25" height="171.06"/><path class="cls-2" d="m261.5,270.34h-60.25l3.5,3.5V102.78l-3.5,3.5h60.25l-3.5-3.5v171.06c0,4.5,7,4.51,7,0V102.78c0-1.89-1.6-3.5-3.5-3.5h-60.25c-1.89,0-3.5,1.6-3.5,3.5v171.06c0,1.89,1.6,3.5,3.5,3.5h60.25c4.5,0,4.51-7,0-7Z"/><path class="cls-2" d="m35.43,179.31c8.97-2.34,17.67-6.68,25.89-10.84,24.49-12.39,47.15-28.32,68.55-45.43,19.49-15.58,37.91-32.45,55.57-50.06,3.19-3.19-1.76-8.14-4.95-4.95-27.37,27.31-56.64,53.02-88.88,74.47-15.73,10.47-32.32,20.36-49.97,27.27-2.64,1.03-5.32,2.08-8.07,2.79-4.35,1.14-2.51,7.89,1.86,6.75h0Z"/><path class="cls-2" d="m217.24,27.14c-17.99,8.34-35.98,16.68-53.97,25.02-1.93.89-2.36,4.15-.71,5.5,12.48,10.22,24.96,20.45,37.43,30.67,2.01,1.65,5.05,1.16,5.85-1.54,5.51-18.56,11.03-37.12,16.54-55.69,1.29-4.33-5.47-6.18-6.75-1.86-5.51,18.56-11.03,37.12-16.54,55.69l5.85-1.54c-12.48-10.22-24.96-20.45-37.43-30.67l-.71,5.5c17.99-8.34,35.98-16.68,53.97-25.02,4.08-1.89.53-7.93-3.53-6.04Z"/></svg>