<?xml version="1.0" encoding="UTF-8"?>
<svg id="Layer_2" xmlns="http://www.w3.org/2000/svg" xmlns:xlink="http://www.w3.org/1999/xlink" viewBox="0 0 395.67 393.79">
  <defs>
    <style>
      .cls-1, .cls-2, .cls-3, .cls-4, .cls-5, .cls-6, .cls-7, .cls-8, .cls-9, .cls-10, .cls-11, .cls-12, .cls-13 {
        stroke: #3b65ee;
      }

      .cls-1, .cls-2, .cls-3, .cls-4, .cls-5, .cls-6, .cls-7, .cls-8, .cls-9, .cls-11, .cls-12, .cls-13 {
        stroke-linecap: round;
        stroke-linejoin: round;
      }

      .cls-1, .cls-2, .cls-5, .cls-6, .cls-7, .cls-8, .cls-9 {
        fill: none;
      }

      .cls-1, .cls-4 {
        stroke-width: 2.66px;
      }

      .cls-2, .cls-3 {
        stroke-width: 3.19px;
      }

      .cls-3, .cls-4, .cls-10, .cls-11, .cls-12, .cls-13, .cls-14 {
        fill: #fff;
      }

      .cls-5, .cls-9, .cls-15, .cls-16 {
        opacity: .4;
      }

      .cls-5, .cls-10 {
        stroke-width: 1.06px;
      }

      .cls-6, .cls-12 {
        stroke-width: 2.12px;
      }

      .cls-7, .cls-13 {
        stroke-width: 2.19px;
      }

      .cls-8, .cls-11 {
        stroke-width: 2.28px;
      }

      .cls-9 {
        stroke-width: .8px;
      }

      .cls-10 {
        stroke-miterlimit: 10;
      }

      .cls-17 {
        clip-path: url(#clippath-1);
      }

      .cls-18 {
        clip-path: url(#clippath-3);
      }

      .cls-19 {
        clip-path: url(#clippath-4);
      }

      .cls-20 {
        clip-path: url(#clippath-2);
      }

      .cls-21 {
        clip-path: url(#clippath-7);
      }

      .cls-22 {
        clip-path: url(#clippath-6);
      }

      .cls-23 {
        clip-path: url(#clippath-9);
      }

      .cls-24 {
        clip-path: url(#clippath-8);
      }

      .cls-25 {
        clip-path: url(#clippath-5);
      }

      .cls-26, .cls-15, .cls-27 {
        fill: #3b65ee;
      }

      .cls-27 {
        opacity: .2;
      }

      .cls-28 {
        clip-path: url(#clippath);
      }
    </style>
    <clipPath id="clippath">
      <path class="cls-13" d="M157.83,176.84s-11.73-9.79-22.98-11.92c0,0-3.69-3.19-4.66,0,0,0-27.09,23.9-30.35,46.46,0,0,32.76-27.35,35.01-42.22,0,0,11.07,15.34,22.98,7.67Z"/>
    </clipPath>
    <clipPath id="clippath-1">
      <path class="cls-12" d="M156.29,147.57s-5.67-29.55-5.37-33.51c0,0,.3-3.96-1.83-3.65s-.48-.32-.48-.32c0,0-26.64,5.51-38.96,25.77,0,0,31.53-7.78,37.61-19.96,0,0-3.29,29.87,9.02,31.68Z"/>
    </clipPath>
    <clipPath id="clippath-2">
      <path class="cls-11" d="M154.64,162.28s-17.6-30.84-18.75-35.37c0,0-1.15-4.53-3.46-3.39s-.66-.18-.66-.18c0,0-28.15,16.02-34.48,43.18,0,0,32.84-20.37,35.15-36.21,0,0,7.55,34.52,22.21,31.97Z"/>
    </clipPath>
    <clipPath id="clippath-3">
      <path class="cls-4" d="M156.04,175.5s-14.68-24.38,2.31-46.69l1.06,7.43s10.62-23.36,48.85-19.12l7.43-4.25s2.12,4.11,0,7.37c0,0,9.56,2.19,13.81,1.13,0,0-1.06,4.25-2.12,5.31,0,0,12.74,4.25,18.05,13.81l1.06-5.31s12.74,25.49,1.06,43.54c-11.68,18.05-29.56,19.47-29.56,19.47l-61.96-22.7Z"/>
    </clipPath>
    <clipPath id="clippath-4">
      <path class="cls-3" d="M149.33,183.51s10.62-21.24,39.3-13.81,29.74,28.67,29.74,32.92c0,0,1.59,5.84.53,10.09l-2.12-3.19s1.06,8.5-1.06,11.68l-2.12-4.25s-19.12,14.87-44.61,7.43c0,0-13.81-4.25-21.24-14.87,0,0-1.06,2.12-1.06,3.19,0,0-4.25-7.43-1.06-13.81,0,0-3.19,1.06-3.19,2.12,0,0,1.06-13.81,6.9-17.52Z"/>
    </clipPath>
    <clipPath id="clippath-5">
      <path class="cls-12" d="M145.7,187.99s-14.33,11.94-17.83,19.93c0,0-1.87,3,.5,3.9,0,0,5.74,27.41,17.33,34.33,0,0-2.94-27.1-12.13-36.64,0,0,12.22-13.32,12.13-21.52Z"/>
    </clipPath>
    <clipPath id="clippath-6">
      <path class="cls-12" d="M218.45,198.05s11.33,11.15,13.74,18.17c0,0,1.38,2.68-.7,3.27,0,0-6.8,22.86-17.13,27.93,0,0,4.4-22.8,12.88-30.25,0,0-9.44-12.17-8.79-19.12Z"/>
    </clipPath>
    <clipPath id="clippath-7">
      <path class="cls-12" d="M225.01,196.56s19.48-7.21,26.86-7.21c0,0,3.44-1.74,4.35.19,0,0,20.03,16.8,24.28,31.67,0,0-25.19-11.68-27.99-28.14,0,0-18.19,12.82-27.49,3.49Z"/>
    </clipPath>
    <clipPath id="clippath-8">
      <path class="cls-12" d="M250.3,173.33s23.82-17.97,24.88-20.09c0,0,3.4-1.77,3.82,2.3,0,0,17.42,22.13,19.54,40.18,0,0-21.7-16.04-24.12-34.04,0,0-14.27,21-27.46,17.96l3.34-6.32Z"/>
    </clipPath>
    <clipPath id="clippath-9">
      <path class="cls-12" d="M251.6,151.12l15.09-18.05s2.12-4.25,4.25-2.12c0,0,25.49,7.43,41.42,28.67,0,0-32.92-9.56-41.42-24.43,0,0-13.5,26.55-18.43,24.43l-.9-8.5Z"/>
    </clipPath>
  </defs>
  <g id="Layer_2-2" data-name="Layer_2">
    <g>
      <g class="cls-16">
        <g>
          <line class="cls-14" x1="254.47" y1="4.03" x2="188.29" y2="172.36"/>
          <path class="cls-26" d="M254.58,4.07c-21.21,54.68-42.66,114.82-66.18,168.33-.05.13-.28.05-.22-.09,9.82-28.52,20.89-56.56,32.3-84.47,8.52-20.6,25.33-64.09,34.1-83.77h0Z"/>
        </g>
        <g>
          <line class="cls-14" x1="322.6" y1="22.97" x2="209.38" y2="164.03"/>
          <path class="cls-26" d="M322.69,23.05c-36.51,45.9-74.85,96.95-113.21,141.06-.09.11-.28-.03-.19-.15,17.86-24.31,36.75-47.8,55.95-71.06,14.26-17.13,43.23-53.67,57.45-69.85h0Z"/>
        </g>
        <g>
          <line class="cls-14" x1="395.61" y1="95.38" x2="236.2" y2="180.83"/>
          <path class="cls-26" d="M395.67,95.49c-51.57,27.94-106.85,59.89-159.42,85.45-.13.07-.25-.14-.11-.21,25.95-15.38,52.54-29.59,79.31-43.47,19.83-10.18,60.8-32.45,80.22-41.77h0Z"/>
        </g>
        <g>
          <line class="cls-14" x1="147.08" y1=".03" x2="187.35" y2="176.36"/>
          <path class="cls-26" d="M147.2,0c13.31,57.12,29.52,118.88,40.27,176.33.03.14-.2.2-.24.05-7.97-29.1-14.65-58.49-20.96-87.98-4.58-21.81-15.23-67.21-19.08-88.41h0Z"/>
        </g>
        <g>
          <line class="cls-14" x1="18.39" y1="60.78" x2="169.48" y2="160.21"/>
          <path class="cls-26" d="M18.46,60.68c49.13,32.02,103.57,65.39,151.09,99.43.12.08,0,.28-.13.2-25.89-15.49-51.05-32.09-76.01-49.01-18.4-12.58-57.5-37.98-74.95-50.62h0Z"/>
        </g>
        <g>
          <line class="cls-14" x1=".05" y1="246.02" x2="162.34" y2="166.14"/>
          <path class="cls-26" d="M0,245.91c52.5-26.13,108.86-56.15,162.28-79.87.13-.06.24.15.11.22-26.47,14.47-53.53,27.75-80.77,40.69-20.17,9.49-61.88,30.33-81.62,38.96h0Z"/>
        </g>
        <g>
          <line class="cls-14" x1="44.9" y1="325.02" x2="164.22" y2="189.09"/>
          <path class="cls-26" d="M44.81,324.95c38.49-44.25,79.05-93.56,119.32-135.94.1-.11.28.05.18.16-18.91,23.5-38.82,46.13-59.03,68.52-15,16.49-45.55,51.71-60.47,67.25h0Z"/>
        </g>
        <g>
          <line class="cls-14" x1="87.73" y1="393.79" x2="184" y2="204.74"/>
          <path class="cls-26" d="M87.62,393.74c30.98-61.42,63.12-129.05,96.27-189.06.07-.13.28-.02.21.11-14.89,32.09-30.97,63.58-47.38,94.91-12.23,23.15-36.71,71.83-49.1,94.04h0Z"/>
        </g>
        <g>
          <line class="cls-14" x1="202.94" y1="376.58" x2="194.12" y2="164.61"/>
          <path class="cls-26" d="M202.81,376.58c-3.12-68.72-8.28-143.42-8.82-211.97,0-.15.24-.16.24,0,2.76,35.27,4.19,70.6,5.25,105.95.69,26.17,3.23,80.6,3.33,106.03h0Z"/>
        </g>
        <g>
          <line class="cls-14" x1="327.15" y1="322.78" x2="178.23" y2="171.68"/>
          <path class="cls-26" d="M327.06,322.86c-48.47-48.81-102.47-100.68-148.92-151.1-.1-.1.07-.28.17-.17,25.74,24.27,50.53,49.48,75.06,74.96,18.1,18.92,56.54,57.53,73.69,76.31h0Z"/>
        </g>
        <g>
          <line class="cls-14" x1="385.34" y1="207.88" x2="175.27" y2="178.25"/>
          <path class="cls-26" d="M385.32,208c-68.15-9.35-142.55-17.78-210.08-29.63-.14-.02-.11-.26.03-.24,35.19,3.66,70.19,8.63,105.16,13.98,25.87,4.05,79.85,11.38,104.89,15.89h0Z"/>
        </g>
      </g>
      <path class="cls-5" d="M236.2,50.51s20.88,20.77,50.11,17.67"/>
      <path class="cls-5" d="M284.49,70.45s1.31,45.62,54.94,55.18c0,0-21.77,51.39,6.37,76.67,0,0-48.23,9.51-66.86,71.56,0,0-42.7-9.54-78.99,31.03,0,0-36.53-17.56-76.23,17.88,0,0,4.55-53.89-28.2-55.42,0,0,.32-46.18-35.33-50.94,0,0,29.36-79.95,11.72-120.41,0,0,75.93-36.92,84.37-55.69,0,0,22.07,25.66,81.1,7.16"/>
      <path class="cls-9" d="M106.38,118.68s46.22-8.69,60.78-35.39c0,0,33.35,13.9,54.22,2.1,0,0,8.95,19.65,39.87,14.01,0,0-3.51,34.72,33.35,50.12,0,0-15.04,15.27-3.43,45.07,0,0-37.17,6.74-43.04,48.01,0,0-37.74-4.16-50.48,20.68,0,0-23.18-15.52-46.11,5.19,0,0-2.41-27.15-24.35-37.2,0,0-.4-29.47-17.54-39.41,0,0,13.78-36.58-3.27-73.18Z"/>
      <g>
        <path class="cls-14" d="M157.83,176.84s-11.73-9.79-22.98-11.92c0,0-3.69-3.19-4.66,0,0,0-27.09,23.9-30.35,46.46,0,0,32.76-27.35,35.01-42.22,0,0,11.07,15.34,22.98,7.67Z"/>
        <g class="cls-28">
          <path class="cls-27" d="M153.16,170.24c.25.53-8.19,1.44-8.19,1.44,0,0-8.37-5.16-12.91-4.63,0,0-25.93,26.23-34.93,50.02l43.35-29.84,17.34-3.74,5.72-4.22-10.38-9.03Z"/>
        </g>
        <path class="cls-7" d="M157.83,176.84s-11.73-9.79-22.98-11.92c0,0-3.69-3.19-4.66,0,0,0-27.09,23.9-30.35,46.46,0,0,32.76-27.35,35.01-42.22,0,0,11.07,15.34,22.98,7.67Z"/>
      </g>
      <g>
        <path class="cls-14" d="M156.29,147.57s-5.67-29.55-5.37-33.51c0,0,.3-3.96-1.83-3.65s-.48-.32-.48-.32c0,0-26.64,5.51-38.96,25.77,0,0,31.53-7.78,37.61-19.96,0,0-3.29,29.87,9.02,31.68Z"/>
        <g class="cls-17">
          <path class="cls-27" d="M154.64,145.04s-5.94-22.54-6.35-30.79c-.02-.42-.43-.7-.84-.57-4.96,1.64-31.31,10.83-43.79,25.23-13.81,15.93,50.98,6.14,50.98,6.14Z"/>
        </g>
        <path class="cls-6" d="M156.29,147.57s-5.67-29.55-5.37-33.51c0,0,.3-3.96-1.83-3.65s-.48-.32-.48-.32c0,0-26.64,5.51-38.96,25.77,0,0,31.53-7.78,37.61-19.96,0,0-3.29,29.87,9.02,31.68Z"/>
      </g>
      <g>
        <path class="cls-14" d="M154.64,162.28s-17.6-30.84-18.75-35.37c0,0-1.15-4.53-3.46-3.39s-.66-.18-.66-.18c0,0-28.15,16.02-34.48,43.18,0,0,32.84-20.37,35.15-36.21,0,0,7.55,34.52,22.21,31.97Z"/>
        <g class="cls-20">
          <path class="cls-27" d="M147.08,142.09s-3.16,4.12-3.64,5.78l-10.47-21.36s-33.49,32.19-40.96,47.78l39.13-18.02,24.14,11.85-1.42-18.19-6.78-7.84Z"/>
        </g>
        <path class="cls-8" d="M154.64,162.28s-17.6-30.84-18.75-35.37c0,0-1.15-4.53-3.46-3.39s-.66-.18-.66-.18c0,0-28.15,16.02-34.48,43.18,0,0,32.84-20.37,35.15-36.21,0,0,7.55,34.52,22.21,31.97Z"/>
      </g>
      <g>
        <path class="cls-14" d="M156.04,175.5s-14.68-24.38,2.31-46.69l1.06,7.43s10.62-23.36,48.85-19.12l7.43-4.25s2.12,4.11,0,7.37c0,0,9.56,2.19,13.81,1.13,0,0-1.06,4.25-2.12,5.31,0,0,12.74,4.25,18.05,13.81l1.06-5.31s12.74,25.49,1.06,43.54c-11.68,18.05-29.56,19.47-29.56,19.47l-61.96-22.7Z"/>
        <g class="cls-18">
          <path class="cls-27" d="M162.34,180.35c.27-.56-8.41-18.27-4.6-32.78l2.75,2.48s10.06-37.52,53.88-26.19c0,0,7.37,1.53,9.14,1.65,0,0-1.42,2.67-5.67,4.05,0,0,22.02,4.04,26.71,18.01,8.86,26.38-6.22,50.93-31.34,58.03l-50.87-25.26Z"/>
        </g>
        <path class="cls-1" d="M156.04,175.5s-14.68-24.38,2.31-46.69l1.06,7.43s10.62-23.36,48.85-19.12l7.43-4.25s2.12,4.11,0,7.37c0,0,9.56,2.19,13.81,1.13,0,0-1.06,4.25-2.12,5.31,0,0,12.74,4.25,18.05,13.81l1.06-5.31s12.74,25.49,1.06,43.54c-11.68,18.05-29.56,19.47-29.56,19.47l-61.96-22.7Z"/>
      </g>
      <g>
        <path class="cls-14" d="M149.33,183.51s10.62-21.24,39.3-13.81,29.74,28.67,29.74,32.92c0,0,1.59,5.84.53,10.09l-2.12-3.19s1.06,8.5-1.06,11.68l-2.12-4.25s-19.12,14.87-44.61,7.43c0,0-13.81-4.25-21.24-14.87,0,0-1.06,2.12-1.06,3.19,0,0-4.25-7.43-1.06-13.81,0,0-3.19,1.06-3.19,2.12,0,0,1.06-13.81,6.9-17.52Z"/>
        <g class="cls-19">
          <path class="cls-27" d="M149.04,220.65s-5.7-13.72-4.69-17.93l-3.5,1.66s-.41-8.09,3.28-11.41c0,0,9.23-26.89,38.41-18.43l-2.71,3.5s30.66,1.64,34.35,20.46l-4.86-2.78s8.54,25.48-11.12,35.73c-19.66,10.25-49.15-10.8-49.15-10.8Z"/>
        </g>
        <path class="cls-2" d="M149.33,183.51s10.62-21.24,39.3-13.81,29.74,28.67,29.74,32.92c0,0,1.59,5.84.53,10.09l-2.12-3.19s1.06,8.5-1.06,11.68l-2.12-4.25s-19.12,14.87-44.61,7.43c0,0-13.81-4.25-21.24-14.87,0,0-1.06,2.12-1.06,3.19,0,0-4.25-7.43-1.06-13.81,0,0-3.19,1.06-3.19,2.12,0,0,1.06-13.81,6.9-17.52Z"/>
      </g>
      <circle class="cls-26" cx="172.69" cy="193.07" r="3.72"/>
      <circle class="cls-26" cx="184.91" cy="196.79" r="3.72"/>
      <path class="cls-26" d="M167.16,201.09s3.71,8.03,15.33,6.68c0,0-10.72-3.34-15.33-6.68Z"/>
      <path class="cls-10" d="M168.94,203.46s-1.53,2.91-1.32,4.05,4.2-2.06,4.2-2.06c0,0-.8-1.54-2.88-1.99Z"/>
      <path class="cls-10" d="M179.41,208s-1.04,3.12-2.01,3.76-1.42-4.46-1.42-4.46c0,0,1.67-.49,3.43.7Z"/>
      <path class="cls-26" d="M183.32,190.41s5.71-3.19,8.9-3.19l-1.06,1.06,2.12,1.06-9.96,2.51v-1.44Z"/>
      <path class="cls-26" d="M178.47,187.34s-3.54-5.5-6.35-6.99l.44,1.44-2.37-.06,7.61,6.89.68-1.28Z"/>
      <path class="cls-26" d="M189.16,151.12c-2.36-2.31-1.77-6.82,1.06-8.5-.8,2.95-1.18,5.35-1.06,8.5h0Z"/>
      <path class="cls-26" d="M185.17,156.28c-2.96-1.46-3.8-5.94-1.63-8.41.15,3.05.54,5.45,1.63,8.41h0Z"/>
      <path class="cls-26" d="M194.47,144.75c-1.2-2.17.5-5.73,3.19-5.31-1.54,1.74-1.94,3.26-3.19,5.31h0Z"/>
      <path class="cls-26" d="M209.34,143.69c4.49-2.17,9.66-3.29,14.61-2.31.39.07.65.45.58.84-.04.22-.18.39-.35.5-2.3,1.64-5.06,3.27-6.71,5.57,0,0-.69-1.12-.69-1.12,3.3.1,6.62.28,9.77,1.35.47.16.43.88-.04,1-2.46.79-5.17,1.43-7.23,3.07,1.76-2.07,4.47-3.03,6.9-4.08,0,0,0,1.01,0,1.01-1.47-.4-3.06-.53-4.64-.64-1.59-.11-3.2-.14-4.79-.15-1.92-.43.4-2.54.97-3.1,1.75-1.59,3.68-2.91,5.68-4.14,0,0,.22,1.34.22,1.34-4.67-1.1-9.65-.39-14.28.88h0Z"/>
      <path class="cls-26" d="M216.77,174.48c.18-1.76,1.01-2.93,2.12-4.25,1.12,1.62-.28,3.98-2.12,4.25h0Z"/>
      <path class="cls-26" d="M224.2,170.24c.72-2.47,1.56-4.44,3.19-6.37.52,2.53-.79,5.38-3.19,6.37h0Z"/>
      <g>
        <path class="cls-14" d="M145.7,187.99s-14.33,11.94-17.83,19.93c0,0-1.87,3,.5,3.9,0,0,5.74,27.41,17.33,34.33,0,0-2.94-27.1-12.13-36.64,0,0,12.22-13.32,12.13-21.52Z"/>
        <g class="cls-25">
          <path class="cls-27" d="M149.33,190.95s-12.74,4.25-18.05,18.05c0,0,4.25,24.43,15.93,41.42l2.12-27.61v-31.86Z"/>
        </g>
        <path class="cls-6" d="M145.7,187.99s-14.33,11.94-17.83,19.93c0,0-1.87,3,.5,3.9,0,0,5.74,27.41,17.33,34.33,0,0-2.94-27.1-12.13-36.64,0,0,12.22-13.32,12.13-21.52Z"/>
      </g>
      <g>
        <path class="cls-14" d="M218.45,198.05s11.33,11.15,13.74,18.17c0,0,1.38,2.68-.7,3.27,0,0-6.8,22.86-17.13,27.93,0,0,4.4-22.8,12.88-30.25,0,0-9.44-12.17-8.79-19.12Z"/>
        <g class="cls-22">
          <path class="cls-27" d="M210.93,251.48s11.96-13.6,18.72-34.41c0,0-7.04-17.23-12.88-19.02l-9.03,46,3.19,7.43Z"/>
        </g>
        <path class="cls-6" d="M218.45,198.05s11.33,11.15,13.74,18.17c0,0,1.38,2.68-.7,3.27,0,0-6.8,22.86-17.13,27.93,0,0,4.4-22.8,12.88-30.25,0,0-9.44-12.17-8.79-19.12Z"/>
      </g>
      <g>
        <path class="cls-14" d="M225.01,196.56s19.48-7.21,26.86-7.21c0,0,3.44-1.74,4.35.19,0,0,20.03,16.8,24.28,31.67,0,0-25.19-11.68-27.99-28.14,0,0-18.19,12.82-27.49,3.49Z"/>
        <g class="cls-21">
          <path class="cls-27" d="M225.8,194.13s13.81,2.12,27.61-3.19c0,0,26.55,24.43,29.74,37.17l-57.74-27.03-4.02-6.66,4.41-.3Z"/>
        </g>
        <path class="cls-6" d="M225.01,196.56s19.48-7.21,26.86-7.21c0,0,3.44-1.74,4.35.19,0,0,20.03,16.8,24.28,31.67,0,0-25.19-11.68-27.99-28.14,0,0-18.19,12.82-27.49,3.49Z"/>
      </g>
      <g>
        <path class="cls-14" d="M250.3,173.33s23.82-17.97,24.88-20.09c0,0,3.4-1.77,3.82,2.3,0,0,17.42,22.13,19.54,40.18,0,0-21.7-16.04-24.12-34.04,0,0-14.27,21-27.46,17.96l3.34-6.32Z"/>
        <g class="cls-24">
          <path class="cls-27" d="M246.19,175.88s13.59-1.93,21.02-10.43,7.43-8.5,8.5-7.43,25.36,37.51,25.96,46.9l-48.92-21.44-8.15-1.94,1.6-5.66Z"/>
        </g>
        <path class="cls-6" d="M250.3,173.33s23.82-17.97,24.88-20.09c0,0,3.4-1.77,3.82,2.3,0,0,17.42,22.13,19.54,40.18,0,0-21.7-16.04-24.12-34.04,0,0-14.27,21-27.46,17.96l3.34-6.32Z"/>
      </g>
      <g>
        <path class="cls-14" d="M251.6,151.12l15.09-18.05s2.12-4.25,4.25-2.12c0,0,25.49,7.43,41.42,28.67,0,0-32.92-9.56-41.42-24.43,0,0-13.5,26.55-18.43,24.43l-.9-8.5Z"/>
        <g class="cls-23">
          <path class="cls-27" d="M249.19,156.28c-.03-.38,14.84-11,21.21-23.74,0,0,41.42,23.36,47.79,32.92l-23.36-4.25-23.05-16.17-16.09,18.82-6.53-.53.03-7.06Z"/>
        </g>
        <path class="cls-6" d="M251.6,151.12l15.09-18.05s2.12-4.25,4.25-2.12c0,0,25.49,7.43,41.42,28.67,0,0-32.92-9.56-41.42-24.43,0,0-13.5,26.55-18.43,24.43l-.9-8.5Z"/>
      </g>
      <g class="cls-16">
        <path class="cls-26" d="M43.71,20.49c.07,32.42,1.02,77.91,0,109.86,0,.06-.11.07-.11,0-.92-31.66-.27-78.07.11-109.86h0Z"/>
      </g>
      <path class="cls-15" d="M56.4,132c-.13.77-.27,1.51-.53,2.22-.69,2.07-1.75,4.05-3,5.83-1.7.6-3.39,1.24-5.05,1.94.37-.34.69-.73.98-1.16,1.68-1.9,3.23-3.94,3.85-6.46-.21-3.28-2.04-6.03-3.69-8.75.5,1.48,1.02,2.95,1.54,4.4.41,1.33,1.13,2.92,1.09,4.25-.27,1.16-.94,2.5-1.69,3.83.08-.43.12-.87.12-1.33,0-3.81-2.85-6.9-6.37-6.9s-6.37,3.09-6.37,6.9c0,.44.04.86.11,1.28-1.05-1.92-2.28-3.6-1.31-5.85.68-2.21,1.53-4.36,2.26-6.58-1.65,2.72-3.48,5.47-3.69,8.75.63,2.52,2.17,4.56,3.85,6.46.37.55.81,1.03,1.31,1.44.01.01.02.03.04.04,0,0,0-.01-.01-.02.34.28.71.52,1.1.72-.05.01-.09.02-.14.04-2.41-1.14-4.91-2.1-7.42-2.99-1.25-1.78-2.31-3.76-3-5.83-.25-.72-.39-1.46-.53-2.22-.35,3.2,1.04,6.35,2.85,8.94,2.48.86,4.98,1.66,7.53,2.29-1.48.45-2.92,1.01-4.34,1.63-1.08,1.49-2.08,3.31-1.79,5.2.43-1.66,1.45-3.03,2.45-4.36,1.03-.41,2.04-.85,3.03-1.34-.23.29-.41.61-.53.96-1,1.33-1.94,2.7-2.84,4.09.41,2.76,1.15,5.54,2.77,7.85.55.73,1.19,1.43,2.01,1.83-.66-.62-1.13-1.36-1.51-2.14-1.12-2.29-1.72-4.84-2.19-7.33.56-.94,1.11-1.88,1.63-2.84.21,1.55,1.53,2.75,3.14,2.75,1.76,0,3.19-1.43,3.19-3.19,0-.2-.02-.4-.06-.59.83,1.69,1.74,3.33,2.7,4.93-.48,2.49-1.08,5.04-2.19,7.33-.39.78-.85,1.52-1.51,2.14.82-.4,1.47-1.1,2.01-1.83,1.62-2.31,2.36-5.09,2.77-7.85-1.32-2.03-2.71-4.01-4.25-5.89-.06-.09-.13-.16-.2-.24,0,0,0,0,0,0,0,0,0,0,0,0-.06-.08-.12-.16-.19-.23,1.7,1.07,3.51,1.91,5.37,2.66,1,1.33,2.02,2.7,2.45,4.36.29-1.88-.71-3.71-1.79-5.2-2.09-.91-4.22-1.71-6.46-2.18-.03-.02-.06-.04-.09-.07.13,0,.26,0,.38-.02,0,0,0,0,0,0,0,0,0,0,0,0,.55-.05,1.07-.18,1.57-.37,2.64-.64,5.23-1.46,7.79-2.35.96-1.35,1.72-2.78,2.26-4.32.52-1.48.78-3.08.6-4.62Z"/>
      <g class="cls-16">
        <path class="cls-26" d="M345.81,202.1l-.53,47.2-.53-47.2c0-.7,1.07-.71,1.06,0h0Z"/>
      </g>
      <path class="cls-15" d="M359.08,250.95c-.13.77-.27,1.51-.53,2.22-.69,2.07-1.75,4.05-3,5.83-2.51.89-5.01,1.86-7.42,2.99-.05-.01-.09-.02-.14-.04.39-.2.75-.44,1.09-.72,0,0,0,.01,0,.02.01-.01.02-.03.04-.04.5-.41.94-.89,1.31-1.44,1.68-1.9,3.23-3.94,3.85-6.46-.21-3.28-2.04-6.03-3.69-8.75.5,1.48,1.02,2.95,1.54,4.4.41,1.33,1.13,2.92,1.09,4.25-.27,1.16-.94,2.5-1.69,3.83.08-.43.12-.87.12-1.33,0-3.81-2.85-6.9-6.37-6.9s-6.37,3.09-6.37,6.9c0,.44.04.86.11,1.28-1.05-1.92-2.28-3.6-1.31-5.85.68-2.21,1.53-4.36,2.26-6.58-1.65,2.72-3.48,5.47-3.69,8.75.63,2.52,2.17,4.56,3.85,6.46.29.43.61.81.98,1.16-1.66-.7-3.35-1.33-5.05-1.94-1.25-1.78-2.31-3.76-3-5.83-.25-.72-.39-1.46-.53-2.22-.35,3.2,1.04,6.35,2.85,8.94,2.56.89,5.15,1.71,7.79,2.35.5.19,1.02.32,1.57.37,0,0,0,0,0,0,0,0,0,0,0,0,.13.01.26.02.38.02-.03.02-.06.04-.09.07-2.25.47-4.37,1.26-6.46,2.18-1.08,1.49-2.08,3.31-1.79,5.2.43-1.66,1.45-3.03,2.45-4.36,1.86-.75,3.67-1.59,5.37-2.66-.07.07-.12.15-.19.23,0,0,0,0,0,0,0,0,0,0,0,0-.07.08-.14.16-.2.24-1.55,1.88-2.94,3.86-4.25,5.89.41,2.76,1.15,5.54,2.77,7.85.55.73,1.19,1.43,2.01,1.83-.66-.62-1.13-1.36-1.51-2.14-1.12-2.29-1.72-4.84-2.19-7.33.96-1.61,1.88-3.24,2.7-4.93-.04.19-.06.39-.06.59,0,1.76,1.43,3.19,3.19,3.19,1.61,0,2.93-1.2,3.14-2.75.52.96,1.07,1.91,1.63,2.84-.48,2.49-1.08,5.04-2.19,7.33-.39.78-.85,1.52-1.51,2.14.82-.4,1.47-1.1,2.01-1.83,1.62-2.31,2.36-5.09,2.77-7.85-.9-1.39-1.84-2.76-2.84-4.09-.12-.35-.3-.68-.53-.96.99.49,2.01.93,3.03,1.34,1,1.33,2.02,2.7,2.45,4.36.29-1.88-.71-3.71-1.79-5.2-1.42-.62-2.86-1.18-4.34-1.63,2.55-.63,5.05-1.43,7.53-2.29.96-1.35,1.72-2.78,2.26-4.32.52-1.48.78-3.08.6-4.62Z"/>
    </g>
  </g>
</svg>