<svg width="117" height="100" viewBox="0 0 117 100" fill="none" xmlns="http://www.w3.org/2000/svg">
<g clip-path="url(#clip0_9_135)">
<path d="M0.839966 54.72L1.12997 14.65C1.12997 14.65 89.25 18.28 112.21 28.21L0.839966 54.72Z" fill="white" stroke="#3B65EE" stroke-width="1.69" stroke-linecap="round" stroke-linejoin="round"/>
<path d="M0.839966 54.72V60.04L109.27 39.22L112.21 28.21L0.839966 54.72Z" fill="white" stroke="#3B65EE" stroke-width="1.69" stroke-linecap="round" stroke-linejoin="round"/>
<path d="M0.839966 60.04L1.11997 98.24L96.72 81.18C96.72 81.18 98.79 79.8 99.55 77.23C100.31 74.66 109.26 39.21 109.26 39.21L0.839966 60.04Z" fill="white" stroke="#3B65EE" stroke-width="1.69" stroke-linecap="round" stroke-linejoin="round"/>
<path d="M1.13 14.65V1.11002C1.13 1.11002 12.65 1.00002 16.3 6.08002C16.3 6.08002 40.19 -7.99998 53.96 10.01C53.96 10.01 75.04 -7.43999 92.18 16.75C92.18 16.75 102.03 10.84 111.02 13.53C120 16.22 115.12 27.83 112.22 28.2C112.22 28.2 93.04 19.25 1.14 14.64L1.13 14.65Z" fill="white" stroke="#3B65EE" stroke-width="1.69" stroke-linecap="round" stroke-linejoin="round"/>
<path opacity="0.2" d="M0.839966 54.72V60.04L109.27 39.22L112.21 28.21L0.839966 54.72Z" fill="#3B65EE"/>
<path opacity="0.2" d="M0.839966 60.04L1.11997 98.24L96.72 81.18C96.72 81.18 98.79 79.8 99.55 77.23C100.31 74.66 109.26 39.21 109.26 39.21L0.839966 60.04Z" fill="#3B65EE"/>
<path d="M88.52 61.47C89.2987 61.47 89.93 60.8387 89.93 60.06C89.93 59.2813 89.2987 58.65 88.52 58.65C87.7413 58.65 87.11 59.2813 87.11 60.06C87.11 60.8387 87.7413 61.47 88.52 61.47Z" fill="#3B65EE"/>
<path d="M81.78 71.58C82.5587 71.58 83.19 70.9487 83.19 70.17C83.19 69.3913 82.5587 68.76 81.78 68.76C81.0013 68.76 80.37 69.3913 80.37 70.17C80.37 70.9487 81.0013 71.58 81.78 71.58Z" fill="#3B65EE"/>
<path d="M84.59 74.39C85.3687 74.39 86 73.7587 86 72.98C86 72.2013 85.3687 71.57 84.59 71.57C83.8113 71.57 83.18 72.2013 83.18 72.98C83.18 73.7587 83.8113 74.39 84.59 74.39Z" fill="#3B65EE"/>
<path opacity="0.2" d="M1.22 7.68001C1.22 7.68001 12.93 5.26001 16.3 12.57C16.3 12.57 38.94 -3.17999 52.63 14.53C52.63 14.53 80.37 5.42001 89.92 19.95C89.92 19.95 120.88 11.65 110.18 26.72C110.18 26.72 28.11 12.23 1.13 14.65L1.21 7.68001H1.22Z" fill="#3B65EE"/>
<path d="M36.6699 17.11C38.3499 17.44 44.4499 18.99 42.9399 23.95C42.8499 24.24 43.0699 24.54 43.3799 24.52C45.4199 24.38 51.3799 24.37 50.5099 29.4C50.4899 29.53 50.3999 29.65 50.2799 29.71C48.6199 30.59 36.0299 36.66 14.5599 30.93C14.3999 30.89 14.2699 30.76 14.2399 30.61C13.9299 29.07 12.7199 21.1 21.7599 22.03C21.9299 22.05 22.0999 21.98 22.1799 21.83C22.6899 21 24.7099 18.1 28.8299 17.03C32.1199 16.18 30.7899 14.75 29.5999 13.91C29.2699 13.68 29.4199 13.16 29.8299 13.14C32.1999 13.02 36.8599 13.2 36.3399 16.6C36.3099 16.83 36.4399 17.05 36.6699 17.1V17.11Z" fill="white" stroke="#3B65EE" stroke-width="1.12" stroke-miterlimit="10"/>
<path d="M37.54 24.58C37.54 24.58 31.08 24.58 27.2 23.32Z" fill="white"/>
<path d="M37.54 24.58C34.15 25.57 30.18 25.32 27.2 23.32C30.72 23.28 34.17 23.47 37.54 24.58Z" fill="#3B65EE"/>
<path opacity="0.2" d="M45.87 31.44C45.87 31.44 47.23 27.72 39.48 27.72C31.73 27.72 39.48 22.69 35.6 21.44C31.72 20.18 28.12 21.44 26.69 24.58C25.26 27.72 23.97 25.21 21.39 26.46C18.81 27.71 16.9 28.21 17.85 31.73C17.85 31.73 38.05 35.16 45.87 31.44Z" fill="#3B65EE"/>
</g>
<defs>
<clipPath id="clip0_9_135">
<rect width="117.01" height="99.09" fill="white"/>
</clipPath>
</defs>
</svg>
