<?xml version="1.0" encoding="UTF-8"?><svg id="Layer_1" xmlns="http://www.w3.org/2000/svg" viewBox="0 0 300 320"><defs><style>.cls-1{fill:#0069ff;}.cls-2{fill:#fff;}</style></defs><path class="cls-2" d="m199.15,163.82c1.35-8.77,4.79-34.81-10.31-35.16-9.85-.23-17.01,12.86-22.41,19.18-2.21-5.66,1.6-12.53-2.89-17.67-3.52-4.03-10.63-6.04-15.62-4.48,5.2-3.97,11.46-7.26,15.55.12,1.37,2.47,1.33,5.64.7,8.32-5.67-3.07-12.45-8.78-18.19-3.49-2.27,2.09-4.09,5.96-5.55,8.76.95-4.09,3.43-7.85,4.14-11.92-6.78,3.95-9.94,20.46-19.43,21.2-3.03-4.58-3.26-10.52-1.27-15.51-4.13-4.63-10.88.16-14.07,3.87-2.63,3.06-2.95,7.34-4.94,10.84-3.46,6.12-5.73,3.6-10.47.81-3.22-1.89-5.67-3.37-7.65-6.73-5.23,5.2-7.94,7.67-6.14,14.88,1.45,5.84,5.56,12.61,5.58,18.66.01,4.57-3.55,9.23-3.61,14.38-.12,11.15,1.02,15.56,6.61,24.55-3.72-3.53-6.88-8.09-9.72-12.39,2.88,21.22,22.19,35.67,32.64,52.89,8.15,13.43,8.43,30.63,4.37,45.55,6.2-.12,11.98-1.95,18.27-1.68s12.55.4,18.81.6c7.73.24,15.44-.03,22.96-.42,1.35-9.41-1.9-18.62-.54-28.38,1.03-7.35.9-16.38,6.32-22.18,7.28-7.78,18.15-12.28,24.62-21.24,4.88-6.76,10.93-17.94,12.34-26.16.76-4.38.62-8.63-1.31-12.68-4.11-8.61-12.86-12.79-16.86-20.62"/><path class="cls-2" d="m208.79,166.48c2.02-13.29,4.42-31.02-5.72-41.76-6.6-6.99-17.22-7.55-25.39-3.11s-13.52,13.39-18.31,19.16l16.71,4.41c-.96-3.13-.04-6.61-.33-9.86-.45-5.04-2.35-9.55-6.01-13.12-6.32-6.16-16.07-8.27-24.48-6.15,2.57,6.09,5.14,12.18,7.71,18.28.88-.65,4.6-3.72,5.25-3.09.06.06-4.75-.55-3.39-.38-.69-.09.36-2.9-.31.61l14.69-5.98c-6.49-3.66-12.93-8.01-20.76-6.7-8.56,1.43-12.99,8.41-16.67,15.56l18.28,7.71c1.13-4.07,3.2-7.78,4.14-11.92,1.82-8.01-7.01-16.33-14.69-11.29-4.92,3.23-7.94,7.94-10.85,12.93-.57.98-1.14,1.97-1.73,2.94-.25.4-2.17,3.22-1.57,2.49-.21.25-2.17,2.36-.89,1.19-1.04.58-1.08.67-.13.27-.61.2-1.24.32-1.88.37l11.29,4.6c-1.61-2.75-1.3-4.82-.26-7.81,1.11-3.19-.1-7.48-2.57-9.73-9.28-8.44-21.83-4.16-28.99,4.89-1.77,2.24-2.95,4.59-3.98,7.25-.19.49-2.07,4.52-1.82,4.95l5.81-1.4c.79.28.84.25.15-.11-.2-.44-2.37-1.44-2.66-1.62-1.5-.92-3.07-1.64-4.06-3.14-3.52-5.34-10.94-6.76-15.71-2.02-5.38,5.35-10.04,11.11-9.57,19.13.27,4.66,1.91,8.85,3.57,13.15.99,2.56,2.63,5.66,2.51,8.43-.15,3.32-2.53,6.74-3.13,10.09-.77,4.28-.6,8.78-.11,13.09.86,7.6,3.63,14.18,7.61,20.69l15.71-12.12c-3.18-3.16-5.68-6.64-8.15-10.37-6.54-9.86-19.97-3.31-18.28,7.71,2.78,18.05,15.55,31.64,26.56,45.32,5.1,6.34,9.6,12.96,11.5,20.98,2.09,8.85,1.22,18.1-1.05,26.82-1.57,6.04,3.03,12.96,9.64,12.66,4.89-.22,9.68-1.31,14.55-1.62s10.04.18,15.02.32c10.18.29,20.29.31,30.47-.21,5.87-.3,9.36-4.38,10-10,.88-7.72-.86-15.24-.88-22.94-.01-5.62.25-13.5,2.64-18.73,2.07-4.52,7.83-7.62,11.68-10.43,5.69-4.15,10.91-8.36,15.13-14.05,7.49-10.1,14.82-23.77,14.59-36.68-.14-8.05-3.53-14.91-8.71-20.9-3.69-4.26-8.5-7.59-11.26-12.57-6.25-11.25-23.53-1.18-17.27,10.09,3.06,5.5,7.61,9.6,11.97,14.02,3.77,3.83,5.98,7.3,4.96,12.82-1.91,10.31-8.81,21.56-16.94,28.08-10.43,8.36-21.7,14.34-24.58,28.57-1.28,6.31-2.21,13.33-2.21,19.77,0,7.7,1.76,15.23.88,22.94l10-10c-10.18.51-20.29.5-30.47.21-4.98-.14-10.05-.62-15.02-.32s-9.66,1.4-14.55,1.62l9.64,12.66c5.4-20.74,3.21-42.08-9.67-59.6-10.19-13.86-24.6-26.35-27.35-44.15-6.09,2.57-12.18,5.14-18.28,7.71,3.37,5.09,6.94,10.1,11.28,14.41,7.95,7.91,21.72-2.28,15.71-12.12-2.52-4.13-4.66-8.08-5.07-12.57-.27-2.93-.45-5.94.28-8.79s2.16-5.52,2.7-8.49c1.38-7.44-1.48-14-4-20.82-.56-1.5-1-3.01-1.48-4.53-.44-1.4-.28-1.97-.29-.94-.01.81.17-.38.45-.72,1.05-1.24,2.26-2.36,3.41-3.5l-15.71-2.02c5.07,7.7,17.59,17.67,27.4,13.56,5.66-2.38,8.48-8.01,10.48-13.48.59-1.61.93-3.05,2.12-4.29,2.46-2.54,1.54.04-1.32-2.56l-2.57-9.73c-2.71,7.79-1.88,16.11,2.28,23.22,2.48,4.24,6.81,5.21,11.29,4.6,6.75-.93,11.62-6.26,15.21-11.61,1.47-2.19,2.72-4.52,4.07-6.78.72-1.21,1.42-2.49,2.3-3.59-1.25,1.57,2.57-1.75.24-.23l-14.69-11.29c-.94,4.13-3.01,7.84-4.14,11.92-2.97,10.69,13,17.99,18.28,7.71.88-1.71,2.22-3.53,2.87-5.32.16-.71.53-1.18,1.11-1.42-1.39,1.21-2.03,1.46-1.95.76.14-.35,7.42,3.95,8.02,4.29,5.23,2.95,13.45.54,14.69-5.98,1.68-8.85-.35-18.81-8.97-23.43-7.49-4.01-15.63-1.01-21.97,3.7-4,2.97-6.24,7.6-4.09,12.49,2.01,4.58,6.85,7.03,11.8,5.79,1.19-.3,4.31-.26,5.28,1.29.62,1-.11,3.79-.14,5.02-.09,2.98.2,6,1.08,8.85,2.04,6.62,11.67,10.49,16.71,4.41,3.9-4.7,7.14-10.34,11.82-14.35.98-.84,1.81-1.19,2.97-1.97-.83.56,2.28-.61-.24-.11,1.13.33,1.14.26.04-.23.96.58.96.5-.01-.25.41.35.78.73,1.13,1.14-.64-.84-.77-.95-.38-.33,1.29,1.88.06-.49.57,1.24.36,1.22.66,2.45.86,3.71-.31-1.88.13,1.96.15,2.34.06,1.19.07,2.39.05,3.58-.03,2.44-.19,4.88-.43,7.31-.11,1.13-.25,2.26-.39,3.39.35-2.79-.04.2-.13.76-.81,5.33,1.34,10.75,6.98,12.3,4.73,1.3,11.49-1.61,12.3-6.98h0Z"/><path class="cls-1" d="m100.69,147.3c-.32-5.72-2-12.72-6.72-16.4-7.98-6.21-18.71,1.56-22.67,8.85-5.85,10.75-4.56,24.48.33,35.31,3.93,8.7,14.02,22.88,25.25,21.17,6.03-.91,10.08-6.78,11.72-12.27.92-3.09-3.9-4.41-4.82-1.33-1.2,4.01-4.29,8.97-9,8.73-6.24-.32-11.94-7.64-15.15-12.27-3.83-5.53-6.25-12.07-6.96-18.76-.63-5.9-.05-12.23,2.69-17.58,2.24-4.37,7.18-9.53,12.62-9.06,5.78.49,7.46,8.9,7.72,13.6.18,3.2,5.18,3.22,5,0h0Z"/><path class="cls-1" d="m132.96,126.31c-6.25-10.08-19.76-9.72-28.19-2.33-8.86,7.77-9.51,21.17-8.1,32.02,1.26,9.78,3.78,21.59,9.94,29.63,7.08,9.23,16.78,7.64,24.19-.41,2.18-2.36-1.35-5.91-3.54-3.54-15.64,16.98-23.23-12.03-25.21-23.3-1.51-8.61-1.98-18.99,2.78-26.75s18.09-12.03,23.82-2.8c1.69,2.73,6.02.22,4.32-2.52h0Z"/><path class="cls-1" d="m141.02,222.16c.28-7.8,3.11-14.74,7.4-21.19,1.79-2.69-2.54-5.19-4.32-2.52-4.76,7.17-7.77,15.06-8.08,23.71-.12,3.22,4.89,3.21,5,0h0Z"/><path class="cls-1" d="m175.25,150.95c3.62-16.51,1.53-41.99-20.57-41.77-15.8.16-24.09,11.35-26.81,25.91-1.35,7.23-1.63,14.62-1.56,21.96.06,6.81-.27,14.03,1.04,20.72,1.76,9.04,7.31,15.99,16.51,17.52,6.42,1.07,16.2,1.38,19.18-5.76,1.24-2.97-3.6-4.26-4.82-1.33-1.92,4.6-13.3,2.56-16.71,1.45-8.46-2.75-9.85-13.65-9.97-21.19-.18-10.66-.8-21.49,1.17-32.03,2.36-12.66,8.87-22.66,22.97-22.23,9.92.3,14.58,7.98,15.69,17.03.74,6.02.37,12.47-.93,18.4-.69,3.14,4.13,4.48,4.82,1.33h0Z"/><path class="cls-1" d="m213.01,163.2c2.24-11.05,2.84-24.57-2.39-34.86-3.97-7.82-11.49-11.16-20.04-11.33-8.85-.18-17.64,4.24-19.16,13.61-.51,3.15,4.31,4.5,4.82,1.33,1.59-9.83,12.72-11.33,20.88-9.02,6.25,1.77,9.53,7.21,11.05,13.2,2.08,8.19,1.69,17.49.01,25.74-.64,3.14,4.18,4.49,4.82,1.33h0Z"/><path class="cls-1" d="m71.96,177.31c-9.35,16.67-4.15,36.4,5.5,51.48,4.21,6.57,8.58,13.04,13.16,19.36,3.72,5.13,8.27,9.71,11.67,15.06,4.37,6.9,4.06,14.47,3.66,22.32s.02,15.97.04,23.96c0,1.35,1.14,2.5,2.5,2.5h77c1.33,0,2.53-1.15,2.5-2.5-.19-9.28,0-18.59-.03-27.87-.01-4.01-.54-8.35-.26-12.34.4-5.53,4.26-8.68,7.93-12.21s7.3-7.2,10.76-10.99c14.91-16.38,29.8-37.28,25.64-60.55-1.17-6.53-5.03-12.15-9.66-16.79-7.73-7.74-18.57-14.52-29.02-17.73-8-2.46-17.24-2.01-25.42-1.22s-17.2,1.8-24.97,4.54c-2.91,1.03-5.74,2.9-7.75,5.25-8.97,10.47,4.18,24.62,13.78,28.85,6.5,2.86,15.27,4.27,22.32,3.08,2.85-.48,3.7.18,6.35,1.82,4.15,2.57,7.95,5.54,11.22,9.17,2.16,2.4,5.68-1.15,3.54-3.54-4.16-4.62-9.28-8.36-14.68-11.41-4.52-2.54-10.36-.66-15.45-1.05-6.38-.5-12.73-2.36-17.59-6.67-3.98-3.52-9.68-10.36-6.54-15.86,1.5-2.62,4.46-4.23,7.1-5.07,7.8-2.46,16.49-3.64,24.62-4.29,7.18-.57,15.26-.98,22.25,1.24,13.45,4.28,32.47,16.26,35.01,30.65,4.06,23.04-12.61,43.88-27.55,59.53-6.15,6.44-15.71,12.65-16.78,22.14-.55,4.89.15,7.6.15,12.8.01,9.5-.16,19.02.04,28.51l2.5-2.5h-77l2.5,2.5c-.02-7.36-.47-14.76-.14-22.12.31-6.91,1.06-14.04-1.29-20.71-1.79-5.08-5.21-9.31-8.59-13.41-4.66-5.64-8.9-11.55-13.01-17.6-7.92-11.68-16.07-23.32-15.89-38.02.07-5.94,1.25-12.54,4.2-17.79,1.58-2.81-2.74-5.33-4.32-2.52h0Z"/></svg>