<?xml version="1.0" encoding="UTF-8"?><svg id="Layer_1" xmlns="http://www.w3.org/2000/svg" viewBox="0 0 300 300"><defs><style>.cls-1{fill:#fff;}.cls-2{fill:#2b67f8;}</style></defs><circle class="cls-1" cx="150" cy="150" r="131.5"/><path class="cls-2" d="m277.75,150c-.28,53.08-33.88,101.96-84.04,120.09-50.32,18.19-107.66,2.58-141.96-38.4-34.49-41.22-38.91-101.72-11.17-147.66S122.73,14.2,175.01,24.69s92.65,52.85,101.15,104.98c1.1,6.72,1.55,13.52,1.59,20.33.03,4.82,7.53,4.83,7.5,0-.29-56.36-35.92-107.63-88.92-127.09s-114.84-2.63-150.71,41.11C9.7,107.81,4.76,171.16,34.11,219.77c29.34,48.59,87.28,73.94,142.89,62.78s98.21-56.52,106.6-111.56c1.06-6.95,1.61-13.95,1.64-20.98.03-4.83-7.47-4.83-7.5,0Z"/><path class="cls-2" d="m127.28,128.41c-2.04,6.69-8.57,10.97-15.56,9.24s-11.04-8.77-9.28-15.49c4.19-15.97,28.27-9.81,24.83,6.25-1.01,4.7,6.21,6.71,7.22,1.99,2.31-10.78-3.49-21.83-14.51-24.7s-22.01,3.79-24.77,14.47c-2.75,10.65,3.81,21.96,14.51,24.7s21.54-3.89,24.77-14.47c1.41-4.62-5.82-6.59-7.22-1.99Z"/><path class="cls-2" d="m185.03,116.47c-2.03,6.69-8.55,11.02-15.55,9.27s-11.03-8.82-9.27-15.55c4.19-16.03,28.25-9.82,24.82,6.28-1,4.71,6.22,6.72,7.23,1.99,2.3-10.79-3.47-21.89-14.51-24.77s-22.02,3.82-24.77,14.51c-2.74,10.66,3.8,22.01,14.51,24.77s21.56-3.93,24.77-14.51c1.41-4.63-5.83-6.61-7.23-1.99Z"/><path class="cls-2" d="m110.69,204.22c11.49-39.51,66.51-51.69,92.35-18.81,2.98,3.79,8.25-1.55,5.3-5.3-13.73-17.47-36.64-24.25-58.1-20.12-22.3,4.29-40.44,20.41-46.79,42.25-1.35,4.64,5.88,6.63,7.23,1.99h0Z"/></svg>