<svg width="221" height="132" viewBox="0 0 221 132" fill="none" xmlns="http://www.w3.org/2000/svg">
<path d="M104.823 106.169C113.273 104.829 116.923 113.659 123.523 117.069C131.493 121.199 135.733 117.629 143.933 115.289C153.273 112.619 162.513 113.009 171.353 111.549C180.193 110.089 184.753 102.289 193.833 99.9292C206.343 96.6892 205.733 94.3792 211.443 83.9592C215.633 76.3092 223.873 69.1492 214.573 59.7892C209.293 54.4592 197.183 53.9492 190.293 54.5092C178.173 55.4992 177.343 56.0592 168.923 46.2692C162.953 39.3292 158.253 28.6492 150.033 24.2392C141.113 19.4592 136.543 20.4492 128.683 12.6592C121.423 5.46921 110.243 -1.53079 99.893 2.77921C91.443 6.29921 89.163 16.6792 82.643 22.0392C74.633 28.6192 67.643 26.7192 58.933 30.0292C50.683 33.1692 44.313 41.8392 37.903 47.4192C25.323 58.3892 -5.86699 60.8092 3.05301 84.9792C6.03301 93.0592 19.323 100.519 27.733 101.749C33.903 102.649 35.573 100.069 40.553 103.289C45.243 106.319 46.463 111.359 53.183 113.559C63.563 116.959 74.473 114.459 84.543 111.289C92.213 108.879 106.243 101.659 113.723 107.949" fill="#FFF6AE"/>
<path d="M105.214 107.62C109.484 107.01 112.714 109.81 115.584 112.57C118.964 115.82 122.364 118.92 127.074 120.06C132.124 121.28 136.724 119.28 141.424 117.67C147.574 115.57 153.934 114.8 160.384 114.26C165.864 113.8 171.774 113.74 176.824 111.35C181.094 109.33 184.594 106.06 188.674 103.72C192.754 101.38 197.284 100.86 201.474 98.9997C204.224 97.7697 206.394 95.8997 208.034 93.3797C210.124 90.1697 211.574 86.5797 213.554 83.2997C215.864 79.4997 218.884 75.8597 219.944 71.4497C221.144 66.4697 218.904 61.6997 215.214 58.3497C211.974 55.4097 207.484 54.1397 203.254 53.4797C199.024 52.8197 194.604 52.6797 190.284 53.0197C186.834 53.2897 182.934 54.0697 179.514 53.2597C176.474 52.5397 174.234 50.0097 172.204 47.7597C168.834 44.0397 166.064 39.9797 163.224 35.8597C160.404 31.7697 157.414 27.6597 153.404 24.6497C149.644 21.8297 145.064 20.3397 140.724 18.6797C136.384 17.0197 132.734 14.5097 129.334 11.2097C125.414 7.40965 120.904 4.07966 115.844 1.97966C110.784 -0.120345 105.084 -0.810345 99.8841 1.19966C95.5241 2.87966 92.4741 6.24965 89.8941 10.0297C87.3141 13.8097 85.3741 17.6597 82.0641 20.5897C78.0141 24.1797 73.0441 25.4497 67.8441 26.3397C62.6441 27.2297 57.7841 28.3597 53.4141 31.2597C49.0441 34.1597 45.3641 38.0297 41.6841 41.7597C38.9341 44.5397 36.1841 47.2097 32.8241 49.2497C29.9341 50.9997 26.8741 52.4397 23.8241 53.8597C17.7041 56.7097 11.2241 59.4097 6.15409 63.9897C3.85409 66.0597 1.99409 68.5797 0.924091 71.4997C-0.235909 74.6897 -0.205909 78.1697 0.474091 81.4597C1.34409 85.6597 3.23409 89.2197 6.28409 92.2497C9.69409 95.6397 13.8941 98.3097 18.2541 100.29C22.3841 102.17 26.8941 103.66 31.4941 103.42C33.2741 103.33 35.1641 102.84 36.9341 103.26C39.0641 103.76 40.8741 105.2 42.3541 106.75C43.7541 108.21 44.9741 109.83 46.4541 111.22C48.2841 112.94 50.4141 114.2 52.8041 115C58.7341 116.98 65.1141 116.99 71.2341 116.09C76.8341 115.26 82.4041 113.72 87.7241 111.78C92.0341 110.21 96.3141 108.48 100.824 107.53C104.704 106.71 109.404 106.34 112.684 109.01C114.164 110.22 116.304 108.11 114.804 106.89C107.574 100.99 97.0741 105.13 89.4341 107.96C79.0841 111.8 67.4041 115.42 56.3241 112.87C53.7841 112.28 51.3141 111.44 49.2841 109.74C47.7141 108.43 46.4641 106.81 45.0941 105.3C42.3141 102.23 38.7741 99.8397 34.4741 100.16C32.3041 100.32 30.1941 100.6 28.0141 100.28C25.9941 99.9897 24.0141 99.3797 22.1041 98.6697C17.8141 97.0597 13.6441 94.7097 10.1541 91.7397C6.88409 88.9497 4.64409 85.8297 3.59409 81.6397C2.81409 78.5497 2.70409 75.3097 3.81409 72.2997C5.89409 66.6297 11.6941 63.1997 16.7741 60.5597C22.6741 57.4897 28.9641 55.1597 34.6341 51.6597C42.3141 46.9197 47.2941 38.9797 54.7741 33.9597C59.0941 31.0597 63.9541 30.0397 69.0041 29.1797C74.0541 28.3197 78.8441 26.9197 82.9941 23.6997C86.5241 20.9597 88.8441 17.1697 91.2341 13.4697C93.6241 9.76965 96.0841 6.22966 100.054 4.37966C104.974 2.07966 110.654 2.88966 115.454 5.05966C120.254 7.22966 124.494 10.7997 128.444 14.5297C131.744 17.6397 135.444 19.8597 139.664 21.4797C143.884 23.0997 148.304 24.4797 151.904 27.2497C155.754 30.2097 158.574 34.3397 161.284 38.3097C163.994 42.2797 166.814 46.2597 170.104 49.8897C172.294 52.3097 174.684 54.8097 177.834 55.8997C180.984 56.9897 184.314 56.5197 187.444 56.2697C191.744 55.9197 195.994 55.6897 200.304 56.1097C204.614 56.5297 209.014 57.3697 212.404 59.8997C216.074 62.6297 218.234 67.0797 216.824 71.5497C215.504 75.7297 212.434 79.1597 210.314 82.9397C208.564 86.0597 207.174 89.4397 205.114 92.3797C203.514 94.6697 201.184 96.0097 198.604 96.9497C196.434 97.7397 194.164 98.1997 191.984 98.9397C189.694 99.7197 187.544 100.84 185.514 102.15C181.734 104.58 178.254 107.78 173.974 109.34C171.404 110.27 168.624 110.51 165.924 110.78C162.844 111.09 159.754 111.3 156.674 111.61C150.574 112.21 144.704 113.33 138.934 115.4C136.724 116.19 134.474 117.09 132.134 117.4C129.794 117.71 127.334 117.24 125.134 116.22C121.274 114.45 118.654 111.1 115.484 108.41C112.314 105.72 108.714 104.14 104.444 104.75C102.544 105.02 103.354 107.91 105.244 107.64L105.214 107.62Z" fill="#FFF6AE"/>
<path d="M88.4258 102.129C99.7476 102.129 108.926 95.637 108.926 87.6289C108.926 79.6208 99.7476 73.1289 88.4258 73.1289C77.1039 73.1289 67.9258 79.6208 67.9258 87.6289C67.9258 95.637 77.1039 102.129 88.4258 102.129Z" fill="#F9E8A0"/>
<path d="M98.4258 74.1289C109.748 74.1289 118.926 67.637 118.926 59.6289C118.926 51.6208 109.748 45.1289 98.4258 45.1289C87.1039 45.1289 77.9258 51.6208 77.9258 59.6289C77.9258 67.637 87.1039 74.1289 98.4258 74.1289Z" fill="#F9D953"/>
<path d="M60.4258 100.129C71.1953 100.129 79.9258 94.0848 79.9258 86.6289C79.9258 79.1731 71.1953 73.1289 60.4258 73.1289C49.6562 73.1289 40.9258 79.1731 40.9258 86.6289C40.9258 94.0848 49.6562 100.129 60.4258 100.129Z" fill="#F9D953"/>
<path d="M151.426 121.129C161.643 121.129 169.926 115.532 169.926 108.629C169.926 101.725 161.643 96.1289 151.426 96.1289C141.209 96.1289 132.926 101.725 132.926 108.629C132.926 115.532 141.209 121.129 151.426 121.129Z" fill="#F9D953"/>
<path d="M153.926 66.1289C163.867 66.1289 171.926 60.3086 171.926 53.1289C171.926 45.9492 163.867 40.1289 153.926 40.1289C143.985 40.1289 135.926 45.9492 135.926 53.1289C135.926 60.3086 143.985 66.1289 153.926 66.1289Z" fill="#F7C800"/>
<path d="M20.4258 85.1289C31.1953 85.1289 39.9258 79.0847 39.9258 71.6289C39.9258 64.1731 31.1953 58.1289 20.4258 58.1289C9.65623 58.1289 0.925781 64.1731 0.925781 71.6289C0.925781 79.0847 9.65623 85.1289 20.4258 85.1289Z" fill="#F9E8A0"/>
<path d="M86.4258 131.129C96.643 131.129 104.926 125.532 104.926 118.629C104.926 111.725 96.643 106.129 86.4258 106.129C76.2085 106.129 67.9258 111.725 67.9258 118.629C67.9258 125.532 76.2085 131.129 86.4258 131.129Z" fill="#F9E8A0"/>
<path d="M200.926 109.129C210.867 109.129 218.926 103.309 218.926 96.1289C218.926 88.9492 210.867 83.1289 200.926 83.1289C190.985 83.1289 182.926 88.9492 182.926 96.1289C182.926 103.309 190.985 109.129 200.926 109.129Z" fill="#F9E8A0"/>
<path d="M52.8745 85.8206C52.9145 86.1706 52.9145 86.4906 52.8745 86.8206V86.8406C52.6845 88.4306 51.6245 89.9806 49.9245 91.4206C46.5045 94.3006 40.4745 96.6306 33.4145 97.4706C26.3645 98.3106 19.9545 97.4706 15.9545 95.4606C13.9645 94.4606 12.5645 93.2006 12.0045 91.7006C11.8845 91.3906 11.8045 91.0506 11.7645 90.7006C11.1545 85.6106 19.8745 80.3906 31.2145 79.0406C42.5745 77.6906 52.2645 80.7106 52.8745 85.8006V85.8206Z" fill="#FFF6AE"/>
<path d="M51.3751 85.8187C51.6051 88.6987 48.6051 90.7887 46.2851 92.0887C43.4151 93.6987 40.2351 94.6987 37.0251 95.3687C33.4351 96.1287 29.7351 96.4287 26.0651 96.2487C23.0151 96.0987 19.7851 95.6287 16.9951 94.3087C14.9151 93.3287 12.4051 91.4587 13.5251 88.8787C14.3351 87.0187 16.2251 85.6887 17.9051 84.6987C23.6351 81.3187 30.7851 80.1187 37.3551 80.2487C40.6751 80.3087 44.1451 80.7287 47.2351 82.0287C49.1051 82.8187 51.1151 84.0587 51.4351 86.2187C51.5551 87.0287 52.5651 87.4587 53.2851 87.2687C54.1451 87.0387 54.4451 86.2187 54.3351 85.4187C53.4851 79.5087 45.1651 77.8887 40.4151 77.4187C32.6551 76.6487 24.0451 77.9587 17.1451 81.6887C14.7451 82.9887 12.2151 84.7987 10.9751 87.3187C9.66514 89.9987 10.3051 92.9587 12.5351 94.9587C15.1951 97.3387 18.9051 98.3687 22.3551 98.8687C26.6251 99.4987 30.9351 99.3687 35.1951 98.7287C39.4551 98.0887 43.9451 96.8387 47.8151 94.6687C51.0051 92.8787 54.7151 89.8587 54.3951 85.8087C54.2451 83.8987 51.2451 83.8787 51.3951 85.8087L51.3751 85.8187Z" fill="#FFEA5A"/>
<path d="M52.8639 86.8516L53.7539 94.3316C53.1839 99.0716 44.8839 103.702 34.2939 104.962C23.7139 106.222 14.5639 103.672 12.8939 99.2016L12.0039 91.7216C12.5639 93.2216 13.9539 94.4816 15.9539 95.4816C19.9539 97.4816 26.3639 98.3316 33.4139 97.4916C40.4739 96.6516 46.5039 94.3216 49.9239 91.4416C51.6239 90.0016 52.6839 88.4516 52.8839 86.8616L52.8639 86.8516Z" fill="#FFF6AE"/>
<path d="M51.3659 86.8507C51.6559 89.3007 52.1159 91.7807 52.2459 94.2407C52.2459 94.2807 52.2659 94.4307 52.2659 94.2307C52.2659 93.9207 52.1959 94.5407 52.1959 94.5407C52.1059 94.8407 52.0059 95.1107 51.8659 95.3907C51.4759 96.1707 50.8759 96.8307 50.2359 97.4207C48.5559 98.9807 46.4059 100.101 44.2859 100.961C38.6759 103.221 32.4259 104.091 26.4059 103.711C23.8159 103.551 21.1959 103.111 18.7559 102.181C17.8459 101.831 16.9459 101.391 16.1459 100.831C15.4759 100.361 15.0759 99.7807 14.5459 99.2007C14.4559 99.1007 14.4359 98.9207 14.3459 98.8307C14.3959 98.8807 14.4159 99.4007 14.3659 99.0407C14.3359 98.7907 14.3059 98.5407 14.2759 98.2907L13.9659 95.7007C13.8059 94.3707 13.6459 93.0407 13.4959 91.7207L10.5459 92.1207C13.0059 98.0207 21.3359 99.1307 26.9159 99.2907C33.9159 99.4807 41.4459 98.1807 47.6259 94.7707C50.5159 93.1807 53.7359 90.7207 54.2959 87.2507C54.5959 85.3607 51.7059 84.5507 51.4059 86.4507C50.8859 89.6607 47.3759 91.6307 44.6959 92.9007C41.2459 94.5307 37.4059 95.4707 33.6259 95.9507C29.8459 96.4307 25.6459 96.5007 21.7659 95.7607C19.0359 95.2407 14.6459 94.2007 13.4459 91.3207C13.1559 90.6207 12.6059 90.1407 11.7959 90.2507C11.1259 90.3407 10.4059 90.9807 10.4959 91.7207C10.6559 93.0507 10.8159 94.3807 10.9659 95.7007C11.1159 97.0207 11.1059 98.5307 11.5159 99.7907C12.9559 104.221 19.2659 105.791 23.2359 106.371C29.8059 107.331 36.7759 106.661 43.0759 104.581C47.4559 103.131 53.1259 100.631 54.8759 95.9507C55.4259 94.4707 55.0959 93.0907 54.9159 91.5607C54.7359 90.0307 54.5459 88.4207 54.3559 86.8507C54.1259 84.9607 51.1259 84.9307 51.3559 86.8507H51.3659Z" fill="#FFEA5A"/>
<path d="M145.082 31.7198L141.752 44.0598C140.782 47.6698 137.962 50.5298 133.892 52.4898C126.372 56.1298 114.582 56.7098 102.212 53.3698C89.8425 50.0298 79.9325 43.5898 75.2725 36.6698C72.7425 32.9198 71.7425 29.0398 72.7225 25.4298L76.0525 13.0898C75.4725 15.2598 75.5925 17.5198 76.3325 19.7898C79.0925 28.3198 90.4925 36.9698 105.542 41.0298C120.592 45.0898 134.802 43.3498 141.472 37.3598C143.252 35.7698 144.502 33.8798 145.082 31.7098V31.7198Z" fill="#FFF6AE"/>
<path d="M143.633 31.3198C142.533 35.3798 141.483 39.4598 140.343 43.5098C138.063 51.6298 127.533 53.7298 120.283 54.0298C109.763 54.4698 98.8729 51.8098 89.6129 46.8298C85.8629 44.8098 82.3129 42.3598 79.3329 39.2998C76.3529 36.2398 73.3829 31.8298 73.8829 27.1998C74.1429 24.8398 75.0629 22.4298 75.6829 20.1498C76.3029 17.8698 76.8829 15.7198 77.4729 13.4998L74.5829 12.6998C73.1729 18.3798 75.8329 23.7798 79.5129 27.9698C83.1929 32.1598 88.3929 35.6798 93.6029 38.1898C99.9229 41.2498 106.733 43.2598 113.693 44.1898C120.013 45.0298 126.613 45.0198 132.803 43.3498C138.993 41.6798 144.703 38.3398 146.513 32.1098C147.053 30.2498 144.153 29.4598 143.623 31.3098C142.193 36.2498 137.303 38.9198 132.683 40.2698C127.263 41.8498 121.493 41.9998 115.903 41.4498C104.393 40.3098 92.0129 35.9298 83.5329 27.8098C79.7429 24.1798 76.1129 19.0198 77.4829 13.4898C77.9429 11.6198 75.0929 10.8198 74.5929 12.6898C73.4829 16.7998 72.3029 20.8998 71.2629 25.0298C68.8129 34.7298 77.6929 43.0198 85.0829 47.6598C94.3429 53.4798 105.533 56.6998 116.443 57.0498C121.383 57.2098 126.473 56.7498 131.183 55.1898C135.453 53.7698 139.723 51.3398 142.013 47.3098C143.363 44.9298 143.853 41.9798 144.563 39.3698C145.213 36.9498 145.863 34.5398 146.523 32.1198C147.023 30.2498 144.133 29.4598 143.633 31.3198Z" fill="#FFEA5A"/>
<path d="M145.084 31.7182C144.504 33.8882 143.254 35.7782 141.474 37.3682C134.804 43.3482 120.604 45.0982 105.544 41.0382C90.4841 36.9782 79.0941 28.3282 76.3341 19.7982C75.5941 17.5282 75.4641 15.2682 76.0541 13.0982C76.5641 11.2082 77.5841 9.52817 79.0141 8.06817C85.3741 1.59817 100.034 -0.411831 115.584 3.77817C131.144 7.97817 142.794 17.0782 145.044 25.8782C145.554 27.8582 145.584 29.8282 145.074 31.7182H145.084Z" fill="#FFF6AE"/>
<path d="M143.633 31.3193C142.203 36.2593 137.313 38.9193 132.693 40.2793C127.143 41.9093 121.203 42.0193 115.473 41.4093C103.923 40.1793 91.4431 35.6893 83.0731 27.3593C79.8331 24.1393 76.6931 19.6693 77.2231 14.8493C77.7831 9.78929 82.4031 6.63929 86.8331 5.05929C92.0331 3.20929 97.6631 2.84929 103.133 3.18929C109.643 3.59929 116.103 5.13929 122.163 7.52929C127.833 9.75929 133.353 12.8993 137.753 17.1593C141.473 20.7693 144.983 25.8693 143.633 31.3193C143.173 33.1893 146.063 33.9893 146.523 32.1193C149.403 20.4793 136.783 11.1793 127.823 6.77929C121.553 3.69929 114.783 1.64929 107.873 0.679292C101.453 -0.210708 94.7631 -0.240708 88.4531 1.41929C83.5431 2.70929 78.3831 5.24929 75.7831 9.82929C72.7131 15.2193 74.5331 21.4593 78.0331 26.1193C81.5331 30.7793 85.9431 34.0293 90.7831 36.7193C96.9231 40.1293 103.713 42.4593 110.613 43.7093C117.513 44.9593 125.363 45.2693 132.473 43.4393C138.483 41.8893 144.673 38.4593 146.513 32.1093C147.053 30.2493 144.153 29.4593 143.623 31.3093L143.633 31.3193Z" fill="#FFEA5A"/>
<path d="M86.6723 44.8789V55.7889C86.6723 58.9789 84.9923 61.9689 82.0723 64.4889C76.6823 69.1589 67.1023 72.2589 56.1623 72.2589C45.2223 72.2589 35.6323 69.1489 30.2523 64.4889C27.3323 61.9589 25.6523 58.9889 25.6523 55.7889V44.8789C25.6523 46.7989 26.2523 48.6289 27.3723 50.3389C31.5423 56.7489 42.8623 61.3489 56.1623 61.3489C69.4623 61.3489 80.7823 56.7589 84.9523 50.3389C86.0723 48.6389 86.6723 46.7989 86.6723 44.8789Z" fill="#FFF6AE"/>
<path d="M85.1738 44.8794C85.1738 48.4794 85.2238 52.0794 85.1738 55.6694C85.0738 62.9394 76.5638 66.9294 70.6138 68.7194C62.2838 71.2294 53.0538 71.4294 44.5838 69.4794C40.8938 68.6294 37.2738 67.3594 34.0438 65.3794C30.9738 63.4994 27.8838 60.7394 27.2538 57.0194C26.9138 55.0294 27.1538 52.8294 27.1538 50.8194V44.8694H24.1538C24.3938 55.4294 37.3238 60.3194 45.9338 61.9094C56.8438 63.9194 69.4838 63.0494 79.2538 57.3794C83.8538 54.7094 88.0438 50.4994 88.1738 44.8694C88.2138 42.9394 85.2138 42.9394 85.1738 44.8694C85.0738 49.1594 81.7338 52.3594 78.3038 54.4594C74.3238 56.8994 69.7638 58.2894 65.1938 59.0894C55.4738 60.7894 44.2838 59.9994 35.4538 55.2794C31.4938 53.1594 27.2638 49.7594 27.1538 44.8794C27.1138 42.9494 24.1538 42.9394 24.1538 44.8794C24.1538 48.5694 24.0538 52.2794 24.1538 55.9694C24.3838 64.5094 33.6038 69.3694 40.7238 71.5594C49.6138 74.2894 59.4938 74.4594 68.5338 72.3794C75.8238 70.6994 85.1238 66.8494 87.6438 59.0694C88.4238 56.6594 88.1638 53.9394 88.1638 51.4494V44.8894C88.1638 42.9594 85.1638 42.9594 85.1638 44.8894L85.1738 44.8794Z" fill="#FFEA5A"/>
<path d="M86.6723 44.878C86.6723 46.798 86.0723 48.628 84.9523 50.338C80.7823 56.748 69.4723 61.348 56.1623 61.348C42.8523 61.348 31.5423 56.758 27.3723 50.338C26.2523 48.638 25.6523 46.798 25.6523 44.878C25.6523 43.208 26.1123 41.598 26.9723 40.078C30.7823 33.328 42.4123 28.418 56.1623 28.418C69.9123 28.418 81.5423 33.328 85.3523 40.078C86.2123 41.598 86.6723 43.208 86.6723 44.878Z" fill="#FFF6AE"/>
<path d="M85.1752 44.8788C85.0752 49.1688 81.7352 52.3688 78.3052 54.4688C74.3252 56.9088 69.7652 58.2988 65.1952 59.0988C55.3752 60.8188 44.0352 59.9988 35.1652 55.1288C31.7852 53.2788 28.2052 50.4688 27.3352 46.5088C26.3852 42.2188 29.4252 38.4788 32.7152 36.1688C40.7952 30.4788 51.8352 29.2688 61.4352 30.1688C66.8552 30.6788 72.3852 32.0088 77.1752 34.6488C81.0252 36.7588 85.0752 40.1288 85.1852 44.8888C85.2252 46.8188 88.2252 46.8188 88.1852 44.8888C87.9452 34.3388 75.0252 29.4288 66.4052 27.8488C55.4852 25.8488 42.8652 26.7088 33.0952 32.3788C29.2852 34.5888 25.4952 37.9588 24.4652 42.4288C23.2852 47.5788 26.1252 52.2388 30.0552 55.3188C38.6952 62.1188 51.2652 63.6388 61.8752 62.5588C67.8952 61.9488 74.0052 60.4488 79.2852 57.3888C83.8852 54.7188 88.0752 50.5088 88.2052 44.8788C88.2452 42.9488 85.2452 42.9488 85.2052 44.8788H85.1752Z" fill="#FFEA5A"/>
<path d="M93.1622 97.4995C93.1622 97.8495 93.1222 98.1695 93.0422 98.4895V98.5095C92.6622 100.06 91.4322 101.46 89.5822 102.69C85.8722 105.14 79.6422 106.73 72.5722 106.73C65.5022 106.73 59.2822 105.14 55.5722 102.69C53.7222 101.47 52.4922 100.06 52.1122 98.5095C52.0322 98.1895 51.9922 97.8395 51.9922 97.4995C51.9922 92.3995 61.2122 88.2695 72.5722 88.2695C83.9322 88.2695 93.1622 92.3995 93.1622 97.4995Z" fill="#FFF6AE"/>
<path d="M91.666 97.4986C91.556 100.129 88.356 101.899 86.036 102.869C82.956 104.159 79.566 104.809 76.256 105.079C69.876 105.599 62.456 105.099 56.836 101.719C54.926 100.569 52.626 98.4986 53.856 96.0886C54.786 94.2786 56.856 93.1486 58.626 92.3386C64.586 89.6286 71.846 89.2786 78.256 90.1286C81.566 90.5686 84.986 91.3986 87.926 93.0486C89.566 93.9686 91.616 95.4186 91.666 97.5086C91.716 99.4386 94.716 99.4386 94.666 97.5086C94.516 91.4386 86.706 88.7786 81.866 87.7386C74.246 86.0986 65.506 86.2886 58.236 89.2786C55.666 90.3286 53.026 91.7986 51.496 94.2086C49.876 96.7486 50.426 99.7286 52.356 101.939C54.676 104.579 58.356 106.009 61.666 106.889C65.806 107.999 70.176 108.369 74.446 108.199C78.716 108.029 83.286 107.289 87.346 105.569C90.836 104.089 94.516 101.479 94.676 97.5086C94.756 95.5786 91.756 95.5786 91.676 97.5086L91.666 97.4986Z" fill="#FFEA5A"/>
<path d="M93.0355 98.5195V106.02C91.9055 110.63 83.1755 114.23 72.5655 114.23C61.9555 114.23 53.2355 110.63 52.1055 106.02V98.5195C52.4855 100.07 53.7155 101.47 55.5655 102.7C59.2755 105.15 65.5055 106.74 72.5655 106.74C79.6255 106.74 85.8655 105.15 89.5755 102.7C91.4255 101.48 92.6555 100.07 93.0355 98.5195Z" fill="#FFF6AE"/>
<path d="M91.536 98.5215V102.021C91.536 103.291 91.716 104.721 91.536 105.981C91.576 105.711 91.496 106.031 91.386 106.241C91.216 106.561 91.036 106.891 90.806 107.181C90.286 107.841 89.606 108.401 88.906 108.861C86.976 110.151 84.786 110.951 82.556 111.531C76.746 113.061 70.356 113.171 64.476 111.971C60.676 111.201 55.826 109.851 53.766 106.241C53.706 106.141 53.686 106.031 53.646 105.921C53.536 105.611 53.646 106.191 53.616 105.921C53.586 105.701 53.616 105.461 53.616 105.241V98.5215L50.666 98.9215C52.376 104.951 60.726 107.011 66.086 107.771C73.026 108.751 80.626 108.371 87.146 105.641C90.216 104.351 93.516 102.321 94.486 98.9215C95.016 97.0615 92.116 96.2615 91.596 98.1215C90.726 101.191 86.736 102.751 83.986 103.611C80.306 104.771 76.426 105.231 72.566 105.231C68.706 105.231 64.846 104.771 61.156 103.611C58.406 102.741 54.416 101.181 53.556 98.1215C53.096 96.5015 50.606 96.8115 50.606 98.5215V102.641C50.606 103.921 50.366 105.471 50.746 106.711C52.096 111.201 57.726 113.351 61.786 114.421C68.136 116.091 75.036 116.171 81.466 114.861C85.826 113.971 91.586 112.171 93.876 107.941C94.676 106.461 94.536 105.011 94.536 103.381V98.5215C94.536 96.5915 91.536 96.5915 91.536 98.5215Z" fill="#FFEA5A"/>
<path d="M159.924 69.7812V80.7613C159.924 83.9713 158.234 86.9713 155.294 89.5113C149.874 94.2113 140.224 97.3313 129.214 97.3313C118.204 97.3313 108.554 94.2013 103.134 89.5113C100.194 86.9713 98.5039 83.9713 98.5039 80.7613V69.7812C98.5039 71.7112 99.1139 73.5612 100.234 75.2712C104.424 81.7212 115.824 86.3512 129.204 86.3512C142.584 86.3512 153.984 81.7312 158.174 75.2712C159.294 73.5612 159.904 71.7112 159.904 69.7812H159.924Z" fill="#FFF6AE"/>
<path d="M158.424 69.7794C158.424 73.3994 158.464 77.0194 158.424 80.6394C158.344 87.8894 149.874 91.9194 143.954 93.7294C135.514 96.3094 126.154 96.5294 117.564 94.5494C113.854 93.6894 110.214 92.4094 106.954 90.4194C103.894 88.5494 100.824 85.8094 100.134 82.1194C99.7537 80.0894 100.014 77.8194 100.014 75.7694V69.7794H97.0137C97.2537 80.4394 110.344 85.3594 119.034 86.9394C129.974 88.9194 142.614 88.0494 152.414 82.3894C157.054 79.7094 161.304 75.4694 161.434 69.7794C161.474 67.8494 158.474 67.8494 158.434 69.7794C158.334 74.1194 154.934 77.3494 151.464 79.4694C147.504 81.8894 142.964 83.2794 138.424 84.0794C128.574 85.8294 117.214 85.0194 108.274 80.1994C104.334 78.0694 100.134 74.6494 100.024 69.7794C99.9837 67.8494 97.0237 67.8394 97.0237 69.7794C97.0237 73.5494 96.8737 77.3494 97.0237 81.1194C97.3737 89.5394 106.454 94.3794 113.504 96.5694C122.494 99.3694 132.524 99.5694 141.674 97.4494C149.034 95.7494 158.444 91.8494 160.934 83.9494C161.674 81.5994 161.424 78.9394 161.424 76.5094V69.7794C161.424 67.8494 158.424 67.8494 158.424 69.7794Z" fill="#FFEA5A"/>
<path d="M159.923 69.7809C159.923 71.7109 159.313 73.5609 158.193 75.2709C154.003 81.7209 142.613 86.3509 129.223 86.3509C115.833 86.3509 104.443 81.7309 100.253 75.2709C99.1334 73.5609 98.5234 71.7109 98.5234 69.7809C98.5234 68.1009 98.9934 66.4809 99.8534 64.9509C103.683 58.1609 115.393 53.2109 129.223 53.2109C143.053 53.2109 154.763 58.1509 158.593 64.9509C159.463 66.4809 159.923 68.1009 159.923 69.7809Z" fill="#FFF6AE"/>
<path d="M158.423 69.7782C158.323 74.1782 154.843 77.4282 151.313 79.5482C147.323 81.9482 142.773 83.3182 138.203 84.1082C128.313 85.8182 116.883 84.9782 107.973 80.0382C104.613 78.1782 101.063 75.3682 100.193 71.4082C99.2228 66.9982 102.403 63.1982 105.793 60.8682C113.963 55.2282 125.033 54.0382 134.673 54.9682C140.063 55.4882 145.553 56.8282 150.333 59.4382C154.223 61.5682 158.323 64.9582 158.433 69.7782C158.473 71.7082 161.473 71.7082 161.433 69.7782C161.193 59.1982 148.263 54.2682 139.613 52.6582C128.573 50.6082 115.753 51.4782 105.893 57.2582C102.093 59.4782 98.3328 62.8482 97.3128 67.3082C96.1228 72.5182 99.0228 77.2182 102.993 80.3282C111.673 87.1082 124.243 88.6382 134.883 87.5682C140.903 86.9582 146.983 85.4882 152.273 82.4682C156.973 79.7882 161.303 75.5182 161.433 69.7782C161.473 67.8482 158.473 67.8482 158.433 69.7782H158.423Z" fill="#FFEA5A"/>
<path d="M192.796 84.5608L193.246 91.1608C193.376 93.0908 192.536 94.9608 190.956 96.6008C188.046 99.6408 182.666 101.891 176.366 102.321C170.076 102.751 164.426 101.251 161.136 98.6408C159.356 97.2308 158.256 95.4908 158.126 93.5608L157.676 86.9608C157.756 88.1208 158.176 89.2108 158.896 90.1908C161.556 93.9108 168.266 96.2408 175.916 95.7208C183.576 95.2008 189.896 91.9708 192.026 87.9208C192.596 86.8508 192.866 85.7108 192.786 84.5508L192.796 84.5608Z" fill="#FFF6AE"/>
<path d="M191.294 84.5586C191.444 86.6786 191.604 88.7986 191.734 90.9286C191.974 95.0186 187.894 97.6386 184.544 98.9986C179.904 100.879 174.524 101.399 169.604 100.519C165.904 99.8486 160.164 98.0086 159.644 93.5686C159.384 91.3886 159.344 89.1586 159.194 86.9686H156.194C156.854 93.4486 164.004 96.2386 169.614 97.0086C176.184 97.9086 183.804 96.8786 189.324 92.9686C192.114 90.9886 194.414 88.1586 194.294 84.5686C194.234 82.6386 191.234 82.6386 191.294 84.5686C191.394 87.7286 188.764 89.9486 186.234 91.3686C183.044 93.1586 179.334 94.0286 175.704 94.2486C172.074 94.4686 168.464 94.1086 165.104 92.8186C162.574 91.8486 159.494 89.9586 159.184 86.9786C158.994 85.0886 156.054 85.0286 156.184 86.9786C156.334 89.1786 156.444 91.3886 156.634 93.5786C157.104 98.8386 162.224 101.759 166.854 102.989C172.284 104.439 178.324 104.209 183.674 102.499C188.134 101.079 193.564 98.1186 194.594 93.1086C194.894 91.6386 194.674 90.0986 194.574 88.6186C194.484 87.2686 194.394 85.9286 194.294 84.5786C194.164 82.6586 191.164 82.6486 191.294 84.5786V84.5586Z" fill="#FFEA5A"/>
<path d="M192.796 84.5594C192.876 85.7194 192.606 86.8494 192.036 87.9294C189.906 91.9794 183.586 95.1994 175.926 95.7294C168.276 96.2494 161.566 93.9194 158.906 90.1994C158.196 89.2094 157.766 88.1294 157.686 86.9694C157.616 85.9594 157.816 84.9594 158.246 84.0094C160.156 79.7794 166.646 76.3394 174.556 75.7994C182.466 75.2594 189.356 77.7694 191.836 81.7094C192.396 82.5994 192.726 83.5494 192.796 84.5594Z" fill="#FFF6AE"/>
<path d="M191.295 84.5605C191.455 89.8105 184.735 92.5005 180.575 93.5105C175.235 94.8105 168.905 94.7605 163.895 92.2805C161.975 91.3305 159.915 89.8805 159.325 87.7005C158.685 85.3405 160.195 83.2305 161.895 81.7705C166.045 78.1905 172.275 77.0805 177.575 77.2405C180.565 77.3305 183.675 77.8505 186.385 79.1505C188.585 80.2005 191.015 81.9205 191.295 84.5605C191.495 86.4605 194.495 86.4805 194.295 84.5605C193.605 78.0705 186.485 75.2905 180.845 74.5205C174.255 73.6205 166.585 74.6605 161.075 78.6305C158.835 80.2405 156.785 82.4605 156.295 85.2805C155.745 88.4505 157.355 91.3305 159.805 93.2405C165.035 97.3405 172.585 97.8605 178.915 96.8905C185.245 95.9205 194.535 92.2105 194.295 84.5705C194.235 82.6405 191.235 82.6405 191.295 84.5705V84.5605Z" fill="#FFEA5A"/>
<path d="M136.853 104.648V111.888C136.853 115.198 135.323 118.238 132.763 120.648C129.233 123.978 123.733 126.118 117.563 126.118C111.393 126.118 105.893 123.978 102.363 120.648C99.8034 118.238 98.2734 115.188 98.2734 111.888V104.648C98.2734 105.898 98.4934 107.108 98.9034 108.268C101.073 114.378 108.613 118.888 117.563 118.888C126.513 118.888 134.053 114.378 136.223 108.268C136.633 107.108 136.853 105.898 136.853 104.648Z" fill="#FFF6AE"/>
<path d="M135.355 104.65C135.355 107.05 135.385 109.45 135.355 111.84C135.285 117.05 131.155 120.9 126.635 122.84C121.535 125.03 115.545 125.18 110.295 123.5C105.535 121.98 100.485 118.35 99.8448 113.02C99.5148 110.29 99.7848 107.4 99.7848 104.65H96.7848C96.9548 112.45 103.765 117.72 110.785 119.54C118.205 121.46 126.825 120.23 132.865 115.33C136.135 112.67 138.265 108.92 138.365 104.65C138.405 102.72 135.405 102.72 135.365 104.65C135.225 111.15 129.125 115.25 123.385 116.69C117.125 118.26 109.735 117.32 104.535 113.31C101.795 111.19 99.8648 108.19 99.7848 104.65C99.7448 102.72 96.7848 102.71 96.7848 104.65C96.7848 107.41 96.5748 110.27 96.8448 113.02C97.4348 118.94 102.095 123.35 107.335 125.58C113.045 128.01 119.735 128.28 125.645 126.4C131.105 124.65 136.535 120.73 137.985 114.89C138.795 111.65 138.365 107.96 138.365 104.65C138.365 102.72 135.365 102.72 135.365 104.65H135.355Z" fill="#FFEA5A"/>
<path d="M136.853 104.648C136.853 105.898 136.633 107.108 136.223 108.268C134.053 114.378 126.513 118.888 117.563 118.888C108.613 118.888 101.073 114.378 98.9034 108.268C98.4934 107.108 98.2734 105.898 98.2734 104.648C98.2734 101.458 99.6934 98.518 102.093 96.148C105.613 92.668 111.233 90.418 117.563 90.418C123.893 90.418 129.513 92.668 133.033 96.148C135.433 98.518 136.853 101.468 136.853 104.648Z" fill="#FFF6AE"/>
<path d="M135.355 104.65C135.225 110.79 129.705 114.86 124.275 116.45C118.185 118.23 111.125 117.59 105.715 114.14C103.545 112.76 101.645 110.84 100.585 108.48C99.1451 105.24 99.7351 101.62 101.775 98.7995C105.665 93.4095 113.165 91.5395 119.475 91.9995C126.385 92.4995 135.195 96.6995 135.345 104.67C135.385 106.6 138.385 106.6 138.345 104.67C138.195 96.4995 130.705 91.1295 123.345 89.5495C115.985 87.9695 107.005 89.4295 101.265 94.8695C98.3551 97.6295 96.4651 101.53 96.8051 105.6C97.1051 109.09 98.8551 112.24 101.405 114.6C106.915 119.7 115.065 121.22 122.295 119.99C130.045 118.67 138.155 113.24 138.345 104.66C138.385 102.73 135.385 102.73 135.345 104.66L135.355 104.65Z" fill="#FFEA5A"/>
<path d="M208.004 61.0586V67.8786C208.004 70.9986 206.574 73.8586 204.174 76.1386C200.864 79.2786 195.704 81.2986 189.924 81.2986C184.144 81.2986 178.984 79.2786 175.674 76.1386C173.274 73.8686 171.844 70.9986 171.844 67.8786V61.0586C171.844 62.2386 172.054 63.3786 172.434 64.4686C174.464 70.2286 181.534 74.4786 189.934 74.4786C198.334 74.4786 205.404 70.2286 207.434 64.4686C207.814 63.3786 208.024 62.2386 208.024 61.0586H208.004Z" fill="#FFF6AE"/>
<path d="M206.504 61.0589C206.504 63.3189 206.534 65.5789 206.504 67.8289C206.434 72.6089 202.754 76.1489 198.634 78.0089C193.794 80.1989 188.014 80.3489 183.004 78.6989C178.624 77.2589 174.064 73.9189 173.404 69.0289C173.054 66.4389 173.334 63.6589 173.334 61.0489H170.334C170.494 68.3489 176.774 73.3389 183.354 75.1189C190.444 77.0289 198.724 75.8289 204.464 71.0689C207.494 68.5589 209.434 65.0189 209.514 61.0489C209.554 59.1189 206.554 59.1189 206.514 61.0489C206.334 69.2089 196.874 72.9689 189.924 72.9689C182.974 72.9689 173.514 69.2089 173.334 61.0489C173.294 59.1189 170.334 59.1089 170.334 61.0489C170.334 63.6189 170.134 66.2689 170.384 68.8289C170.934 74.5289 175.334 78.7589 180.394 80.8989C185.774 83.1689 192.094 83.4089 197.644 81.5889C202.714 79.9189 207.654 76.2989 209.104 70.9189C209.944 67.8089 209.514 64.2289 209.514 61.0489C209.514 59.1189 206.514 59.1189 206.514 61.0489L206.504 61.0589Z" fill="#FFEA5A"/>
<path d="M208.004 61.0584C208.004 62.2384 207.794 63.3784 207.414 64.4684C205.384 70.2284 198.314 74.4784 189.914 74.4784C181.514 74.4784 174.444 70.2284 172.414 64.4684C172.034 63.3784 171.824 62.2384 171.824 61.0584C171.824 58.0584 173.154 55.2784 175.404 53.0484C178.704 49.7684 183.974 47.6484 189.914 47.6484C195.854 47.6484 201.124 49.7684 204.424 53.0484C206.674 55.2884 208.004 58.0584 208.004 61.0584Z" fill="#FFF6AE"/>
<path d="M206.506 61.0587C206.376 66.8387 201.166 70.6587 196.056 72.1387C190.426 73.7587 183.956 73.1387 178.956 69.9887C176.876 68.6787 175.026 66.8287 174.046 64.5387C172.776 61.5587 173.296 58.2687 175.146 55.6587C178.736 50.5787 185.736 48.7887 191.646 49.1987C198.136 49.6487 206.376 53.5987 206.516 61.0587C206.556 62.9887 209.556 62.9887 209.516 61.0587C209.366 53.3287 202.326 48.1987 195.336 46.7187C188.346 45.2387 179.706 46.6587 174.356 51.9887C171.686 54.6487 170.006 58.3387 170.396 62.1587C170.736 65.4187 172.386 68.3487 174.776 70.5487C180.026 75.3787 187.786 76.7987 194.646 75.5487C201.896 74.2287 209.336 69.0687 209.506 61.0687C209.546 59.1387 206.546 59.1387 206.506 61.0687V61.0587Z" fill="#FFEA5A"/>
</svg>
