<svg width="435" height="110" viewBox="0 0 435 110" fill="none" xmlns="http://www.w3.org/2000/svg">
<path d="M63.9176 2.9722L2.81382 104.973C2.01523 106.306 2.97554 108 4.52951 108L430.112 108C431.634 108 432.599 106.367 431.863 105.034L375.57 3.03363C375.219 2.39595 374.548 2 373.819 2H65.6333C64.9303 2 64.2789 2.36911 63.9176 2.9722Z" fill="#641B0C"/>
<path d="M75 40.9995H361.5M75 40.9995L38.5 108M75 40.9995L65 2.5M361.5 40.9995L397 108M361.5 40.9995L374 2.5" stroke="#752B1B" stroke-width="4"/>
<path d="M63.9176 2.9722L2.81382 104.973C2.01523 106.306 2.97554 108 4.52951 108H430.112C431.634 108 432.599 106.367 431.863 105.034L375.57 3.03403C375.219 2.39635 374.548 2.0004 373.819 2.0004L65.6333 2C64.9303 2 64.2789 2.36911 63.9176 2.9722Z" stroke="#944231" stroke-width="4"/>
</svg>
