<svg width="788" height="588" viewBox="0 0 788 588" fill="none" xmlns="http://www.w3.org/2000/svg">
<path d="M667.328 68.9448C496.128 80.2748 170.079 53.1348 170.079 53.1348C170.079 53.1348 160.519 279.515 180.739 528.465C343.469 499.765 673.749 517.515 673.749 517.515C673.749 517.515 646.118 246.675 667.328 68.9448Z" fill="white" stroke="#3B65EE" stroke-width="3" stroke-miterlimit="10" stroke-linecap="round"/>
<path d="M247.352 342.623C250.942 346.563 254.032 350.913 256.862 355.433C259.692 359.953 262.182 364.683 264.342 369.573C266.412 374.503 268.202 379.573 269.362 384.823C270.452 390.073 270.982 395.483 270.442 400.783C269.732 395.493 268.572 390.423 267.092 385.413C266.662 384.173 266.252 382.943 265.862 381.703C265.502 380.453 264.962 379.253 264.522 378.033C263.662 375.573 262.602 373.183 261.592 370.773L260.002 367.183C259.482 365.983 258.862 364.833 258.322 363.633C257.782 362.433 257.192 361.273 256.602 360.103L254.832 356.593C252.422 351.913 249.922 347.273 247.352 342.623Z" fill="#A3BAE2"/>
<path d="M278.406 355.863C280.156 360.913 281.616 366.053 282.946 371.223C284.266 376.403 285.446 381.613 286.476 386.863C287.036 389.483 287.456 392.123 287.916 394.753C288.386 397.383 288.766 400.033 289.136 402.683C289.516 405.333 289.876 407.983 290.126 410.653C290.386 413.313 290.706 415.973 290.926 418.643C291.766 429.323 291.916 440.063 291.316 450.763C290.596 461.463 288.926 472.103 286.036 482.383C287.706 471.823 288.696 461.273 288.976 450.663C289.016 448.013 288.966 445.363 288.996 442.713C288.986 441.393 289.026 440.063 288.986 438.743L288.826 434.773C288.696 432.123 288.716 429.473 288.496 426.833L287.936 418.903C287.466 413.623 287.016 408.333 286.326 403.073C286.026 400.433 285.726 397.803 285.316 395.173C284.916 392.553 284.616 389.903 284.176 387.283C282.546 376.773 280.656 366.303 278.406 355.863Z" fill="#A3BAE2"/>
<path d="M195.875 342.623C197.035 355.723 197.975 368.833 198.715 381.953C199.115 388.513 199.415 395.073 199.755 401.633L200.595 421.323L201.225 441.023C201.375 447.593 201.555 454.163 201.625 460.733C201.815 473.873 201.815 487.033 201.295 500.173L200.255 480.483L199.275 460.803C198.925 454.243 198.695 447.683 198.375 441.123L197.585 421.433L196.905 401.743C196.735 395.173 196.495 388.613 196.365 382.043C196.035 368.913 195.875 355.773 195.875 342.623Z" fill="#A3BAE2"/>
<path d="M636.366 352.254C636.866 361.814 637.526 371.324 638.356 380.814C638.806 385.554 639.236 390.294 639.796 395.024C640.336 399.754 640.896 404.474 641.626 409.174C642.296 413.874 643.046 418.574 643.946 423.234C644.806 427.904 645.796 432.554 646.906 437.164C649.136 446.394 651.936 455.484 655.686 464.294C650.816 456.034 647.326 446.984 644.646 437.764C641.946 428.534 640.076 419.084 638.666 409.594C637.306 400.094 636.426 390.534 636.036 380.954C635.626 371.394 635.616 361.794 636.366 352.254Z" fill="#A3BAE2"/>
<path d="M636.842 290.805C635.202 298.635 633.672 306.475 632.382 314.355C631.032 322.225 629.842 330.115 628.782 338.015C627.752 345.925 626.812 353.835 626.142 361.775C625.442 369.705 624.912 377.655 624.702 385.605C624.432 393.555 624.462 401.515 624.862 409.445C625.202 417.385 626.022 425.295 627.282 433.125C628.612 440.935 630.412 448.695 633.172 456.135C635.852 463.595 639.542 470.735 644.432 477.065C639.002 471.155 634.972 464.055 631.802 456.675C628.672 449.245 626.532 441.435 624.972 433.535C621.912 417.705 621.262 401.545 621.702 385.505C622.232 369.455 623.902 353.475 626.472 337.665C629.022 321.855 632.392 306.165 636.842 290.805Z" fill="#A3BAE2"/>
<path d="M670.12 584.215L654.7 584.735L639.28 585.125L608.43 585.885C587.87 586.295 567.31 586.625 546.76 586.875C526.2 587.185 505.57 587.265 485.07 587.445L423.4 587.625L361.71 587.445C341.16 587.265 320.6 587.205 300.04 586.895C279.48 586.585 258.85 586.285 238.37 585.905L207.52 585.135L192.1 584.745L176.68 584.225L192.1 583.705C192.1 583.705 256.93 569.965 347.59 569.965C438.25 569.965 639.29 583.325 639.29 583.325L670.12 584.215Z" fill="#D1DAED"/>
<path d="M49.6338 197.625C35.3438 169.945 39.8439 153.515 39.8439 153.515L133.704 122.425C129.224 117.355 126.954 111.115 130.504 103.855C140.754 82.8549 186.594 101.065 189.374 137.225C190.144 147.145 190.244 155.645 189.994 162.765V162.775C189.744 169.755 189.154 175.405 188.514 179.755C187.414 187.195 189.754 194.385 194.854 199.605L196.534 201.325C203.774 208.715 201.084 221.175 190.994 226.985L139.094 256.875C129.294 262.515 117.284 259.115 113.894 249.735C111.634 243.475 106.784 238.495 100.314 235.875C85.8938 230.055 59.7438 217.225 49.6338 197.625Z" fill="white" stroke="#3B65EE" stroke-width="3" stroke-miterlimit="10" stroke-linecap="round"/>
<path d="M49.6275 197.625C41.4075 181.695 39.4075 169.505 39.1875 162.015L45.5475 151.615L92.4875 136.065L142.968 129.975L158.607 137.385C158.607 137.385 147.827 146.555 142.857 157.945C141.027 162.135 136.957 170.035 132.547 178.355C122.527 197.235 122.458 218.515 132.398 235.495L143.568 254.575C143.568 254.575 135.868 260.945 129.008 259.605C122.148 258.265 117.247 254.985 117.247 254.985C115.787 253.535 114.618 251.785 113.878 249.735C111.618 243.475 106.767 238.495 100.287 235.875C85.8875 230.055 59.7375 217.225 49.6275 197.625Z" fill="#D1DAED"/>
<path d="M49.6338 197.625C35.3438 169.945 39.8439 153.515 39.8439 153.515L133.704 122.425C129.224 117.355 126.954 111.115 130.504 103.855C140.754 82.8549 186.594 101.065 189.374 137.225C190.144 147.145 190.244 155.645 189.994 162.765V162.775C189.744 169.755 189.154 175.405 188.514 179.755C187.414 187.195 189.754 194.385 194.854 199.605L196.534 201.325C203.774 208.715 201.084 221.175 190.994 226.985L139.094 256.875C129.294 262.515 117.284 259.115 113.894 249.735C111.634 243.475 106.784 238.495 100.314 235.875C85.8938 230.055 59.7438 217.225 49.6338 197.625Z" stroke="#3B65EE" stroke-width="3" stroke-miterlimit="10" stroke-linecap="round"/>
<path d="M112.446 165.208C145.381 148.203 163.595 117.983 153.127 97.71C142.66 77.4367 107.475 74.7871 74.5402 91.792C41.6053 108.797 23.3918 139.017 33.8593 159.29C44.3268 179.563 79.5114 182.213 112.446 165.208Z" fill="white" stroke="#3B65EE" stroke-width="3" stroke-miterlimit="10" stroke-linecap="round"/>
<path d="M154.103 191.116C154.103 191.116 137.863 181.266 140.723 165.196C143.583 149.126 158.623 137.396 158.623 137.396C158.623 137.396 120.233 124.856 130.493 103.856C140.743 82.8555 185.323 102.286 188.113 138.436" fill="white"/>
<path d="M154.102 191.115C149.502 188.325 145.472 184.445 142.702 179.705C141.342 177.325 140.332 174.705 139.882 171.945C139.402 169.195 139.582 166.335 140.132 163.635C141.242 158.205 143.682 153.125 146.762 148.585C149.872 144.025 153.502 139.935 157.802 136.345L158.212 138.665C155.472 137.755 152.882 136.695 150.292 135.525C147.712 134.355 145.192 133.045 142.752 131.555C140.312 130.075 137.952 128.435 135.772 126.535C133.592 124.635 131.552 122.485 129.982 119.935C128.392 117.415 127.352 114.395 127.292 111.305C127.232 108.205 128.122 105.195 129.542 102.565C130.982 99.8952 133.212 97.5752 135.902 96.1252C138.592 94.6552 141.602 94.0052 144.542 93.8952C150.462 93.7052 156.142 95.4252 161.242 97.9752C166.352 100.555 170.972 104.015 174.882 108.135C178.802 112.235 182.042 116.985 184.302 122.165C185.452 124.735 186.332 127.425 187.002 130.155C187.652 132.885 188.002 135.675 188.132 138.465C187.472 132.925 185.882 127.535 183.372 122.615C182.122 120.155 180.662 117.815 179.012 115.615C177.382 113.405 175.572 111.335 173.602 109.425C169.662 105.625 165.152 102.415 160.232 100.105C155.322 97.8352 149.962 96.3452 144.692 96.6152C142.072 96.7652 139.502 97.3852 137.302 98.6352C135.102 99.8652 133.302 101.725 132.112 103.965C130.902 106.235 130.192 108.755 130.252 111.245C130.322 113.745 131.172 116.185 132.532 118.375C133.882 120.585 135.702 122.555 137.712 124.325C139.732 126.095 141.952 127.665 144.272 129.095C148.922 131.915 153.942 134.325 159.052 136.145L161.342 136.965L159.462 138.465C157.472 140.055 155.522 141.915 153.722 143.835C151.902 145.745 150.212 147.785 148.672 149.925C145.612 154.205 143.152 158.955 141.882 164.045C140.542 169.095 141.172 174.545 143.602 179.255C144.802 181.615 146.362 183.795 148.142 185.785C149.922 187.725 151.892 189.575 154.102 191.115Z" fill="#3B65EE"/>
<path d="M165.403 230.125C162.533 231.845 159.603 233.455 156.673 235.065C153.743 236.675 150.783 238.225 147.823 239.765C144.853 241.285 141.873 242.805 138.863 244.265L134.343 246.445C132.823 247.135 131.313 247.865 129.773 248.525C131.203 247.655 132.663 246.845 134.113 246.005L138.503 243.585C141.433 241.975 144.393 240.425 147.353 238.885C150.323 237.365 153.303 235.845 156.313 234.395C159.333 232.915 162.343 231.475 165.403 230.125Z" fill="#3B65EE"/>
<path d="M73.6016 210.125C75.0616 210.855 76.5016 211.605 77.9716 212.305C79.4216 213.035 80.8816 213.755 82.3516 214.445C85.2916 215.825 88.2216 217.205 91.2116 218.465C94.1916 219.735 97.2016 220.935 100.252 222.035C101.782 222.545 103.312 223.105 104.882 223.515C106.422 224.025 108.012 224.355 109.592 224.765C106.342 224.435 103.152 223.675 100.022 222.755C96.8916 221.825 93.8416 220.645 90.8316 219.375C87.8416 218.075 84.8916 216.665 82.0216 215.115C79.1316 213.575 76.3016 211.945 73.6016 210.125Z" fill="#3B65EE"/>
<path d="M17.4766 180.535C17.4766 180.535 17.7365 218.345 45.6665 235.575L17.4766 180.535Z" fill="white"/>
<path d="M17.479 180.535C18.269 185.865 19.4089 191.065 20.8389 196.155C22.2989 201.235 24.039 206.225 26.309 210.955C27.389 213.345 28.639 215.655 30.009 217.875C30.659 219.015 31.4089 220.085 32.1189 221.185C32.8989 222.235 33.629 223.325 34.449 224.345C37.649 228.515 41.4689 232.185 45.6689 235.575C40.8089 233.255 36.349 229.925 32.669 225.865C28.929 221.855 25.939 217.165 23.599 212.225C22.469 209.735 21.429 207.205 20.599 204.605C19.799 201.995 19.069 199.375 18.579 196.695C17.549 191.365 17.039 185.915 17.479 180.535Z" fill="#3B65EE"/>
<path d="M2.52854 164.945C2.52854 164.945 -5.50146 201.895 17.9685 224.825L2.52854 164.945Z" fill="white"/>
<path d="M2.52848 164.945C2.13848 170.315 2.10849 175.635 2.37849 180.925C2.68849 186.205 3.28848 191.445 4.46848 196.555C5.00848 199.125 5.70848 201.645 6.55848 204.125C6.93848 205.375 7.4385 206.585 7.8885 207.815C8.4185 209.005 8.88848 210.235 9.46848 211.415C11.6785 216.185 14.5985 220.605 17.9585 224.825C13.7185 221.495 10.0985 217.265 7.39848 212.505C4.61848 207.775 2.73849 202.545 1.53849 197.215C0.97849 194.535 0.51848 191.835 0.27848 189.115C0.0684805 186.395 -0.0715098 183.675 0.0384902 180.955C0.21849 175.525 0.908481 170.105 2.52848 164.945Z" fill="#3B65EE"/>
<path d="M740.358 136.654C754.648 108.974 750.148 92.5442 750.148 92.5442L656.288 61.4542C660.768 56.3842 663.038 50.1442 659.488 42.8842C649.238 21.8842 603.398 40.0942 600.618 76.2542C599.848 86.1742 599.748 94.6742 599.998 101.794V101.804C600.248 108.784 600.838 114.434 601.478 118.784C602.578 126.224 600.238 133.414 595.138 138.634L593.458 140.354C586.218 147.744 588.908 160.204 598.998 166.014L650.898 195.904C660.698 201.544 672.708 198.144 676.098 188.764C678.358 182.504 683.208 177.524 689.678 174.904C704.088 169.084 730.238 156.254 740.358 136.654Z" fill="white" stroke="#3B65EE" stroke-width="3" stroke-miterlimit="10" stroke-linecap="round"/>
<path d="M740.355 136.654C748.575 120.724 750.575 108.534 750.795 101.044L744.435 90.6439L697.495 75.0939L647.015 69.0039L631.375 76.4139C631.375 76.4139 642.155 85.5839 647.125 96.9739C648.955 101.164 653.025 109.064 657.435 117.384C667.455 136.264 667.525 157.544 657.585 174.524L646.415 193.604C646.415 193.604 654.115 199.974 660.975 198.634C667.835 197.294 672.735 194.014 672.735 194.014C674.195 192.564 675.365 190.814 676.105 188.764C678.365 182.504 683.215 177.524 689.685 174.904C704.085 169.084 730.235 156.254 740.355 136.654Z" fill="#D1DAED"/>
<path d="M740.358 136.654C754.648 108.974 750.148 92.5442 750.148 92.5442L656.288 61.4542C660.768 56.3842 663.038 50.1442 659.488 42.8842C649.238 21.8842 603.398 40.0942 600.618 76.2542C599.848 86.1742 599.748 94.6742 599.998 101.794V101.804C600.248 108.784 600.838 114.434 601.478 118.784C602.578 126.224 600.238 133.414 595.138 138.634L593.458 140.354C586.218 147.744 588.908 160.204 598.998 166.014L650.898 195.904C660.698 201.544 672.708 198.144 676.098 188.764C678.358 182.504 683.208 177.524 689.678 174.904C704.088 169.084 730.238 156.254 740.358 136.654Z" stroke="#3B65EE" stroke-width="3" stroke-miterlimit="10" stroke-linecap="round"/>
<path d="M756.229 98.288C766.696 78.0147 748.483 47.7948 715.548 30.79C682.613 13.7851 647.428 16.4346 636.961 36.7079C626.493 56.9812 644.707 87.2012 677.642 104.206C710.577 121.211 745.761 118.561 756.229 98.288Z" fill="white" stroke="#3B65EE" stroke-width="3" stroke-miterlimit="10" stroke-linecap="round"/>
<path d="M635.877 130.143C635.877 130.143 652.117 120.293 649.257 104.223C646.397 88.1529 631.357 76.4229 631.357 76.4229C631.357 76.4229 669.747 63.8829 659.487 42.8829C649.227 21.8829 604.657 41.3129 601.867 77.4629" fill="white"/>
<path d="M635.877 130.143C638.087 128.603 640.057 126.753 641.857 124.783C643.647 122.803 645.207 120.613 646.397 118.253C648.827 113.533 649.447 108.083 648.117 103.043C646.847 97.9532 644.387 93.2032 641.327 88.9232C639.787 86.7832 638.097 84.7532 636.277 82.8332C634.477 80.9232 632.537 79.0532 630.537 77.4632L628.657 75.9632L630.947 75.1432C636.057 73.3232 641.077 70.9132 645.727 68.0932C648.047 66.6632 650.267 65.0932 652.287 63.3232C654.297 61.5532 656.117 59.5832 657.467 57.3732C658.827 55.1732 659.677 52.7332 659.747 50.2432C659.817 47.7532 659.097 45.2332 657.887 42.9632C656.697 40.7232 654.907 38.8632 652.697 37.6332C650.497 36.3832 647.927 35.7632 645.307 35.6132C640.037 35.3432 634.667 36.8432 629.767 39.1032C624.847 41.4032 620.337 44.6232 616.397 48.4232C614.427 50.3232 612.617 52.4032 610.987 54.6132C609.337 56.8132 607.867 59.1532 606.627 61.6132C604.117 66.5332 602.527 71.9232 601.867 77.4632C601.997 74.6832 602.337 71.8832 602.997 69.1532C603.667 66.4332 604.547 63.7432 605.697 61.1632C607.947 55.9832 611.187 51.2432 615.117 47.1332C619.027 43.0132 623.647 39.5532 628.757 36.9732C633.857 34.4232 639.537 32.7032 645.457 32.8932C648.397 33.0132 651.407 33.6632 654.097 35.1232C656.787 36.5832 659.027 38.8932 660.457 41.5632C661.887 44.1932 662.777 47.2032 662.707 50.3032C662.637 53.3932 661.607 56.4132 660.017 58.9332C658.437 61.4832 656.407 63.6332 654.227 65.5332C652.037 67.4332 649.677 69.0732 647.247 70.5532C644.807 72.0332 642.287 73.3532 639.707 74.5232C637.117 75.7032 634.527 76.7532 631.787 77.6632L632.197 75.3432C636.487 78.9332 640.127 83.0232 643.237 87.5832C646.317 92.1232 648.757 97.2032 649.867 102.633C650.417 105.343 650.597 108.203 650.117 110.943C649.667 113.693 648.657 116.313 647.297 118.703C644.507 123.473 640.487 127.353 635.877 130.143Z" fill="#3B65EE"/>
<path d="M624.578 169.154C627.638 170.504 630.658 171.954 633.658 173.414C636.668 174.864 639.648 176.384 642.618 177.904C645.578 179.444 648.548 180.994 651.468 182.604L655.858 185.024C657.308 185.864 658.768 186.674 660.198 187.544C658.658 186.874 657.158 186.154 655.628 185.464L651.108 183.284C648.098 181.834 645.118 180.314 642.148 178.784C639.188 177.244 636.218 175.694 633.298 174.084C630.378 172.484 627.448 170.864 624.578 169.154Z" fill="#3B65EE"/>
<path d="M716.376 149.154C713.676 150.984 710.846 152.604 707.976 154.154C705.106 155.704 702.166 157.114 699.166 158.414C696.156 159.674 693.106 160.854 689.976 161.794C686.846 162.714 683.646 163.464 680.406 163.804C681.986 163.384 683.576 163.064 685.116 162.554C686.686 162.144 688.206 161.584 689.746 161.074C692.796 159.974 695.806 158.784 698.786 157.514C701.766 156.244 704.706 154.864 707.646 153.484C709.116 152.794 710.576 152.084 712.026 151.344C713.486 150.634 714.926 149.884 716.376 149.154Z" fill="#3B65EE"/>
<path d="M768.817 61.0231C768.817 61.0231 756.628 25.2331 724.688 17.7031L768.817 61.0231Z" fill="white"/>
<path d="M768.817 61.0231C766.377 56.2231 763.657 51.6431 760.697 47.2631C757.707 42.9031 754.487 38.7231 750.837 34.9531C749.057 33.0331 747.147 31.2331 745.137 29.5531C744.167 28.6731 743.117 27.8931 742.087 27.0731C741.017 26.3231 739.977 25.5131 738.877 24.8131C734.517 21.8731 729.738 19.5931 724.688 17.7031C730.037 18.3731 735.317 20.1231 740.087 22.8131C744.907 25.4331 749.217 28.9431 752.997 32.8931C754.857 34.8931 756.647 36.9731 758.247 39.1831C759.837 41.4031 761.347 43.6631 762.667 46.0431C765.337 50.7631 767.537 55.7731 768.817 61.0231Z" fill="#3B65EE"/>
<path d="M787.937 71.0923C787.937 71.0923 783.887 33.5023 754.367 19.1523L787.937 71.0923Z" fill="white"/>
<path d="M787.937 71.0921C786.617 65.8721 784.957 60.8121 783.027 55.8821C781.067 50.9721 778.837 46.1821 776.107 41.7121C774.787 39.4421 773.317 37.2721 771.727 35.1921C770.967 34.1221 770.117 33.1321 769.297 32.1121C768.417 31.1521 767.577 30.1321 766.657 29.2021C763.047 25.3821 758.887 22.1021 754.367 19.1621C759.437 20.9821 764.217 23.8521 768.277 27.5221C772.407 31.1321 775.847 35.5021 778.667 40.1821C780.047 42.5421 781.337 44.9621 782.417 47.4621C783.477 49.9721 784.467 52.5121 785.227 55.1321C786.787 60.3121 787.837 65.6821 787.937 71.0921Z" fill="#3B65EE"/>
<path d="M456.209 169.864C470.069 167.814 479.519 155.514 477.329 142.394C475.139 129.274 462.129 120.304 448.279 122.354C434.419 124.404 424.969 136.704 427.159 149.824C429.349 162.944 442.359 171.914 456.209 169.864Z" fill="#3B65EE"/>
<path d="M380.959 181.005C394.809 178.955 404.269 166.655 402.079 153.535C399.889 140.415 386.879 131.445 373.029 133.495C359.179 135.545 349.719 147.845 351.909 160.975C354.089 174.085 367.099 183.055 380.959 181.005Z" fill="#3B65EE"/>
<path d="M519.282 194.813C520.702 194.783 522.112 194.983 523.412 195.403C524.712 195.823 525.872 196.463 526.822 197.283C527.772 198.093 528.492 199.063 528.952 200.133C529.402 201.203 529.562 202.333 529.432 203.473C526.152 224.473 513.292 244.063 493.332 258.453C473.372 272.843 447.752 280.993 421.422 281.333C395.092 281.673 369.942 274.183 350.832 260.313C331.722 246.433 320.032 227.163 318.012 206.233C317.942 205.103 318.172 203.963 318.682 202.883C319.192 201.803 319.972 200.813 320.962 199.973C321.962 199.133 323.152 198.463 324.472 198.003C325.792 197.543 327.202 197.303 328.622 197.293L519.282 194.813Z" fill="#3B65EE"/>
<path d="M343.922 125.514C352.322 94.994 382.582 100.974 382.582 100.974L343.922 125.514Z" fill="white"/>
<path d="M343.922 125.514C344.052 121.174 345.282 116.854 347.452 112.914C349.652 108.994 352.922 105.564 356.832 103.174C360.752 100.794 365.212 99.4438 369.652 99.0938C374.082 98.7738 378.552 99.2638 382.582 100.974C378.272 101.334 374.192 101.964 370.292 102.974C366.402 103.984 362.742 105.454 359.432 107.444C356.142 109.464 353.222 112.034 350.692 115.114C348.172 118.194 346.042 121.724 343.922 125.514Z" fill="#3B65EE"/>
<path d="M476.779 108.774C460.929 81.0042 433.039 93.5742 433.039 93.5742L476.779 108.774Z" fill="white"/>
<path d="M476.777 108.774C473.767 105.604 470.817 102.674 467.607 100.244C464.397 97.8242 460.927 95.9742 457.227 94.7342C453.517 93.5242 449.597 92.8842 445.557 92.7642C441.507 92.6442 437.357 92.9342 433.047 93.5742C436.607 90.9942 440.897 89.5142 445.327 88.8442C449.757 88.2042 454.437 88.5442 458.807 89.9942C463.177 91.4442 467.157 94.0442 470.237 97.3342C473.297 100.664 475.567 104.574 476.777 108.774Z" fill="#3B65EE"/>
<path d="M668.031 367.805L578.961 373.265C552.881 374.865 527.841 363.775 510.791 343.965C488.821 318.445 455.601 303.125 419.401 305.345C383.201 307.565 352.091 326.825 333.411 354.845C318.911 376.585 295.411 390.655 269.331 392.255L173.141 398.155C170.041 398.345 167.661 400.985 167.811 404.085C168.691 422.625 169.711 441.505 170.891 460.635C171.081 463.765 173.781 466.155 176.911 465.965L273.491 460.045C299.571 458.445 324.611 469.535 341.661 489.345C363.631 514.865 396.851 530.185 433.051 527.965C469.251 525.745 500.361 506.485 519.041 478.465C533.541 456.725 557.041 442.655 583.121 441.055L667.601 435.875C670.051 435.725 671.921 433.605 671.751 431.155C670.471 412.145 669.171 390.765 668.031 367.805Z" fill="#D1DAED" stroke="#3B65EE" stroke-width="3" stroke-miterlimit="10" stroke-linecap="round"/>
<path d="M663.385 364.525L578.755 369.715C552.675 371.315 527.635 360.225 510.585 340.415C488.615 314.895 455.395 299.575 419.195 301.795C382.995 304.015 351.885 323.275 333.205 351.295C318.705 373.035 295.205 387.105 269.125 388.705L172.985 394.605C169.885 394.795 167.505 397.435 167.655 400.535C168.515 419.065 169.515 437.955 170.685 457.085C170.875 460.215 173.575 462.605 176.705 462.415L273.275 456.495C299.355 454.895 324.395 465.985 341.445 485.795C363.415 511.315 396.635 526.635 432.835 524.415C469.035 522.195 500.145 502.935 518.825 474.915C533.325 453.175 556.825 439.105 582.905 437.505L667.365 432.325C669.815 432.175 671.685 430.065 671.515 427.605C670.325 409.765 669.135 389.935 668.075 368.735C667.955 366.275 665.845 364.375 663.385 364.525Z" fill="#E7ECF7" stroke="#3B65EE" stroke-width="3" stroke-miterlimit="10" stroke-linecap="round"/>
<path d="M426.005 505.235C476.887 505.235 518.135 463.987 518.135 413.105C518.135 362.223 476.887 320.975 426.005 320.975C375.123 320.975 333.875 362.223 333.875 413.105C333.875 463.987 375.123 505.235 426.005 505.235Z" fill="white"/>
<path d="M518.118 407.455C518.868 419.515 517.288 431.705 513.508 443.215C509.738 454.725 503.658 465.505 495.728 474.765C487.808 484.015 477.988 491.715 466.998 497.095C456.038 502.525 443.928 505.635 431.728 506.305C419.518 506.935 407.218 505.125 395.758 501.015C390.028 498.965 384.508 496.355 379.308 493.225C374.088 490.125 369.158 486.535 364.638 482.495C355.628 474.385 348.098 464.615 342.738 453.735C340.068 448.295 337.918 442.595 336.298 436.735C334.698 430.875 333.678 424.855 333.238 418.785C332.378 406.655 333.838 394.305 337.768 382.725C341.658 371.145 347.868 360.325 355.948 351.125C364.018 341.925 373.918 334.305 384.928 328.885C395.928 323.445 408.038 320.295 420.278 319.545C432.518 318.855 444.918 320.495 456.458 324.625C467.998 328.725 478.718 335.095 487.698 343.345C496.688 351.575 504.048 361.535 509.188 372.505C514.348 383.475 517.398 395.395 518.118 407.455ZM517.818 407.475C517.048 395.455 513.888 383.595 508.448 372.885C503.018 362.175 495.468 352.585 486.398 344.835C477.308 337.115 466.808 331.075 455.538 327.335C444.278 323.585 432.318 321.965 420.478 322.745C408.638 323.475 396.978 326.545 386.298 331.705C375.618 336.855 365.968 344.145 358.068 353.005C350.178 361.875 343.978 372.285 340.018 383.505C336.068 394.735 334.278 406.745 334.878 418.685C335.518 430.615 338.408 442.485 343.678 453.265C346.288 458.665 349.438 463.805 353.048 468.585C356.658 473.375 360.818 477.745 365.318 481.715C369.838 485.655 374.718 489.175 379.918 492.155C385.128 495.115 390.618 497.555 396.298 499.425C407.648 503.195 419.698 504.645 431.568 503.795C443.448 502.975 455.128 499.875 465.828 494.705C476.518 489.515 486.248 482.305 494.308 473.495C502.358 464.675 508.678 454.235 512.758 442.935C514.818 437.295 516.228 431.415 517.098 425.465C517.938 419.525 518.158 413.485 517.818 407.475Z" fill="#3B65EE"/>
<path d="M426.003 495.905C471.732 495.905 508.803 458.834 508.803 413.105C508.803 367.375 471.732 330.305 426.003 330.305C380.274 330.305 343.203 367.375 343.203 413.105C343.203 458.834 380.274 495.905 426.003 495.905Z" fill="#A3BAE2"/>
<path d="M442.643 494.365C432.003 496.555 420.953 496.695 410.233 494.795C399.503 492.905 389.133 488.875 379.873 482.995C370.623 477.125 362.503 469.355 356.323 460.235C350.093 451.155 345.793 440.755 343.673 429.965C341.583 419.165 341.653 407.965 343.883 397.245C346.113 386.525 350.453 376.295 356.503 367.225C362.553 358.165 370.313 350.225 379.323 344.075C383.833 341.005 388.633 338.365 393.643 336.185C398.653 334.015 403.883 332.345 409.233 331.175C419.923 328.865 431.113 328.585 441.933 330.615C452.743 332.605 463.173 336.765 472.403 342.805C481.633 348.835 489.673 356.695 495.903 365.815C502.153 374.925 506.483 385.335 508.703 396.155C510.863 406.985 510.953 418.245 508.743 429.055C506.583 439.875 502.153 450.205 495.943 459.235C489.723 468.275 481.773 476.065 472.643 482.015C463.513 487.995 453.293 492.215 442.643 494.365ZM442.583 494.065C453.173 491.865 463.333 487.555 472.163 481.345C480.993 475.155 488.553 467.225 494.283 458.165C500.013 449.105 503.943 438.985 505.893 428.515C507.823 418.045 507.733 407.215 505.553 396.805C503.413 386.385 499.223 376.415 493.303 367.575C487.393 358.735 479.703 351.075 470.843 345.165C461.973 339.265 451.953 335.065 441.483 332.955C431.013 330.855 420.113 330.755 409.563 332.785C399.033 334.845 388.833 338.895 379.913 344.945C370.963 350.935 363.203 358.725 357.313 367.755C354.373 372.265 351.893 377.075 349.903 382.075C347.933 387.085 346.463 392.275 345.523 397.555C343.613 408.115 343.863 419.015 346.113 429.455C348.343 439.905 352.573 449.885 358.503 458.745C364.453 467.595 372.073 475.335 380.913 481.405C389.753 487.465 399.823 491.795 410.383 494.005C415.663 495.135 421.063 495.655 426.473 495.675C431.873 495.695 437.283 495.125 442.583 494.065Z" fill="#3B65EE"/>
<path d="M471.094 355.865C473.174 357.245 475.124 358.815 476.984 360.495C478.844 362.165 480.564 363.995 482.194 365.905C483.794 367.825 485.304 369.835 486.634 371.955C487.294 373.015 487.934 374.095 488.544 375.185C489.114 376.295 489.694 377.405 490.184 378.555C489.834 378.035 489.494 377.515 489.164 376.985L488.124 375.435C487.434 374.405 486.734 373.385 485.994 372.385C484.524 370.385 483.024 368.425 481.424 366.545C479.844 364.645 478.164 362.825 476.454 361.045C474.724 359.275 472.924 357.565 471.094 355.865Z" fill="white"/>
<path d="M367.875 457.045C366.075 455.015 364.475 452.805 363.025 450.515C361.555 448.225 360.285 445.805 359.155 443.335C358.045 440.845 357.075 438.295 356.325 435.685C355.955 434.375 355.615 433.055 355.315 431.735C355.055 430.405 354.795 429.065 354.625 427.725C354.825 428.375 355.015 429.025 355.185 429.675L355.785 431.615C356.185 432.905 356.595 434.185 357.055 435.455C357.965 437.985 358.945 440.485 360.065 442.935C361.155 445.385 362.385 447.775 363.685 450.135C364.985 452.475 366.405 454.765 367.875 457.045Z" fill="white"/>
<path d="M498.039 424.234C497.879 426.634 497.489 429.014 496.959 431.364C496.449 433.714 495.739 436.034 494.919 438.294C494.079 440.554 493.119 442.774 491.999 444.904C491.429 445.964 490.839 447.014 490.229 448.054C489.579 449.064 488.939 450.084 488.219 451.044C488.739 449.964 489.299 448.904 489.799 447.814C490.319 446.744 490.829 445.664 491.309 444.564C492.259 442.384 493.179 440.184 493.989 437.944C494.819 435.714 495.539 433.444 496.229 431.164C496.889 428.884 497.469 426.574 498.039 424.234Z" fill="white"/>
<path d="M427.688 352.795L444.048 381.415C445.018 383.115 446.778 384.235 448.728 384.395L481.578 387.135C486.508 387.545 488.828 393.435 485.498 397.095L463.338 421.495C462.018 422.945 461.498 424.955 461.948 426.875L469.488 458.965C470.618 463.775 465.738 467.805 461.228 465.775L431.168 452.245C429.378 451.435 427.308 451.565 425.628 452.585L397.438 469.675C393.208 472.235 387.878 468.845 388.408 463.925L391.988 431.155C392.198 429.205 391.438 427.275 389.958 425.985L364.998 404.455C361.248 401.225 362.838 395.105 367.678 394.095L399.948 387.375C401.868 386.975 403.478 385.655 404.238 383.845L416.998 353.455C418.918 348.885 425.228 348.495 427.688 352.795Z" fill="white" stroke="#3B65EE" stroke-width="3" stroke-miterlimit="10" stroke-linecap="round"/>
<path d="M555.918 421.926C565.495 421.926 573.258 414.163 573.258 404.586C573.258 395.009 565.495 387.246 555.918 387.246C546.342 387.246 538.578 395.009 538.578 404.586C538.578 414.163 546.342 421.926 555.918 421.926Z" fill="#A3BAE2"/>
<path d="M557.216 387.145C561.746 387.515 566.326 389.255 569.776 392.645C571.476 394.335 572.836 396.425 573.646 398.745C574.456 401.055 574.716 403.555 574.456 405.965C574.176 408.385 573.356 410.715 572.136 412.765C570.916 414.815 569.356 416.615 567.546 418.095C563.956 421.065 559.336 422.775 554.566 422.695C552.196 422.645 549.776 422.155 547.566 421.145C545.346 420.145 543.346 418.655 541.706 416.835C540.056 415.015 538.776 412.855 537.966 410.515C537.146 408.175 536.856 405.655 537.036 403.195C537.276 400.735 537.946 398.295 539.156 396.145C540.326 393.975 542.016 392.125 543.966 390.715C547.886 387.865 552.676 386.805 557.216 387.145ZM557.196 387.445C554.946 387.285 552.676 387.665 550.616 388.505C548.556 389.345 546.736 390.655 545.246 392.195C542.306 395.325 540.466 399.275 540.226 403.415C539.936 407.525 541.216 411.725 543.856 414.975C546.506 418.195 550.386 420.445 554.696 421.055C558.986 421.685 563.646 420.345 566.916 417.355C568.546 415.865 569.836 414.025 570.656 412.015C571.486 410.015 571.896 407.885 571.956 405.775C572.016 403.665 571.736 401.575 571.116 399.565C570.506 397.565 569.586 395.635 568.326 393.885C567.066 392.145 565.466 390.575 563.546 389.435C561.636 388.315 559.446 387.605 557.196 387.445Z" fill="#3B65EE"/>
<path d="M296.035 437.864C305.612 437.864 313.375 430.1 313.375 420.524C313.375 410.947 305.612 403.184 296.035 403.184C286.459 403.184 278.695 410.947 278.695 420.524C278.695 430.1 286.459 437.864 296.035 437.864Z" fill="#A3BAE2"/>
<path d="M309.842 410.294C308.512 408.474 306.732 406.994 304.752 405.994C302.772 404.974 300.582 404.454 298.442 404.324C296.292 404.184 294.172 404.454 292.152 405.004C290.132 405.554 288.212 406.424 286.452 407.604C284.702 408.784 283.122 410.264 281.872 412.034C280.622 413.804 279.742 415.874 279.362 418.044C278.582 422.414 279.932 427.064 282.762 430.354C285.582 433.664 289.552 435.744 293.692 436.264C297.842 436.764 302.082 435.604 305.402 433.164C308.772 430.744 311.132 427.084 312.202 422.924C312.702 420.834 312.842 418.604 312.452 416.414C312.072 414.234 311.172 412.104 309.842 410.294ZM310.082 410.114C312.792 413.764 314.462 418.384 314.162 423.224C314.012 425.624 313.352 428.044 312.142 430.194C310.962 432.364 309.262 434.234 307.312 435.744C305.322 437.214 303.042 438.314 300.622 438.864C298.212 439.424 295.692 439.494 293.282 439.074C290.862 438.654 288.532 437.764 286.502 436.424C284.462 435.094 282.762 433.314 281.452 431.334C278.842 427.334 277.822 422.524 278.412 417.904C278.702 415.594 279.382 413.304 280.462 411.184C281.542 409.064 283.082 407.124 284.972 405.594C286.872 404.074 289.132 402.974 291.512 402.414C293.892 401.864 296.392 401.894 298.732 402.424C303.432 403.544 307.352 406.474 310.082 410.114Z" fill="#3B65EE"/>
</svg>
