<?xml version="1.0" encoding="UTF-8"?><svg id="Layer_2" xmlns="http://www.w3.org/2000/svg" viewBox="0 0 159.5 246.69"><defs><style>.cls-1{fill:#f2f6ff;}.cls-2{fill:#0069ff;}.cls-3{fill:#66a5ff;}.cls-4{fill:#eef4ff;}.cls-5{fill:#eaf0ff;}.cls-6{fill:#e6e6e6;}.cls-7{fill:#fff;}.cls-8{fill:#c1d5ff;}</style></defs><g id="Layer_1-2"><path class="cls-8" d="m137,99.79c0,24.85-20.15,45-45,45s-45-20.15-45-45c0-1.74.1-3.46.29-5.16,4.22,5.67,15.75-3.01,20.07-1.76,3.07.89,2.07,5.8,5.17,6.63,2,.53,6.05-2.32,8.26-2.61,6.46-.84,10.09,3.7,16.13,3.52,4.68-.13,7.77-3.46,11.72-5.67,5.63-3.16,4.28-.97,8.35,2.58,3.26,2.84,5.8,1.4,9.39-.03,2.41-.96,7.99-1.66,10.3-2.91.21,1.77.32,3.58.32,5.41Z"/><rect class="cls-8" x="57" y="216.19" width="70" height="14"/><path class="cls-2" d="m127,232.69H57c-1.38,0-2.5-1.12-2.5-2.5v-14c0-1.38,1.12-2.5,2.5-2.5h70c1.38,0,2.5,1.12,2.5,2.5v14c0,1.38-1.12,2.5-2.5,2.5Zm-67.5-5h65v-9H59.5v9Z"/><path class="cls-4" d="m93.68,164.78c-2.75,6.64-8.91,11.26-11.6,17.93-1.72,4.27-2.71,12.68,1.16,16.01,11.25,9.65,26.49-3.08,21.07-15.91-2.72-6.43-10.86-10.14-10.24-17.64"/><path class="cls-2" d="m91.95,204.6c-3.62,0-7.24-1.34-10.33-3.99-5.31-4.55-3.54-14.66-1.85-18.84,1.49-3.7,3.88-6.73,6.19-9.66,2.16-2.74,4.19-5.32,5.42-8.29.53-1.28,1.99-1.88,3.27-1.35.4.17.74.43,1,.75.63.5,1,1.3.93,2.16-.29,3.47,2.04,6.05,4.75,9.04,2,2.21,4.07,4.5,5.3,7.42,3.49,8.26-.26,15.85-5.53,19.7-2.81,2.06-5.98,3.07-9.14,3.07Zm.87-33.26c-.94,1.34-1.95,2.61-2.94,3.87-2.19,2.78-4.26,5.4-5.48,8.43-1.56,3.87-2.15,10.92.47,13.17,4.81,4.13,10.01,3.05,13.27.67,3.68-2.69,6.3-7.97,3.87-13.71-.9-2.14-2.6-4.02-4.4-6.01-1.73-1.91-3.59-3.97-4.79-6.43Z"/><path class="cls-5" d="m137,99.79c0,24.85-20.15,45-45,45s-45-20.15-45-45c0-1.74.1-3.46.29-5.16,4.22,5.67,15.75-3.01,20.07-1.76,3.07.89,2.07,5.8,5.17,6.63,2,.53,6.05-2.32,8.26-2.61,6.46-.84,10.09,3.7,16.13,3.52,4.68-.13,7.77-3.46,11.72-5.67,5.63-3.16,4.28-.97,8.35,2.58,3.26,2.84,5.8,1.4,9.39-.03,2.41-.96,7.99-1.66,10.3-2.91.21,1.77.32,3.58.32,5.41Z"/><path class="cls-2" d="m92,145.29c-25.09,0-45.5-20.41-45.5-45.5,0-1.72.1-3.47.29-5.22l.14-1.26.76,1.02c2.38,3.19,7.56,1.31,12.14-.35,3.14-1.14,5.85-2.12,7.67-1.59,1.77.51,2.37,2.17,2.9,3.63.51,1.42.96,2.65,2.26,3,1,.26,2.87-.58,4.52-1.33,1.32-.6,2.56-1.16,3.55-1.29,3.58-.47,6.33.66,8.98,1.75,2.31.95,4.48,1.84,7.2,1.76,3.2-.09,5.64-1.76,8.23-3.52,1.04-.71,2.12-1.44,3.26-2.08,4.24-2.38,4.96-1.86,6.59.16.55.68,1.24,1.53,2.33,2.48,2.74,2.39,4.81,1.54,7.95.26l.93-.38c1.08-.43,2.71-.8,4.44-1.18,2.24-.5,4.55-1.02,5.81-1.7l.65-.35.09.73c.21,1.81.32,3.65.32,5.47,0,25.09-20.41,45.5-45.5,45.5Zm-44.32-49.51c-.12,1.34-.18,2.69-.18,4.01,0,24.54,19.96,44.5,44.5,44.5s44.5-19.96,44.5-44.5c0-1.55-.08-3.11-.24-4.66-1.41.59-3.44,1.04-5.41,1.49-1.69.38-3.29.74-4.29,1.14l-.92.37c-3.1,1.27-5.78,2.36-8.99-.43-1.16-1.01-1.88-1.9-2.45-2.61-1.37-1.69-1.62-1.99-5.32.09-1.11.62-2.16,1.34-3.19,2.04-2.59,1.77-5.27,3.6-8.77,3.7-2.92.09-5.3-.89-7.61-1.84-2.65-1.09-5.15-2.12-8.47-1.69-.84.11-2.07.67-3.27,1.21-1.89.86-3.84,1.74-5.19,1.39-1.81-.48-2.41-2.15-2.95-3.63-.49-1.36-.95-2.64-2.24-3.01-1.51-.43-4.2.54-7.05,1.57-4.48,1.62-9.51,3.44-12.49.86Z"/><path class="cls-2" d="m91.3,147.69c-26.19,0-47.5-21.31-47.5-47.5,0-19.02,11.58-36.39,29-43.76V18.02c0-.76.34-1.48.94-1.95.59-.47,1.37-.65,2.11-.49,3.94.88,9.57,1.38,15.46,1.38s11.52-.5,15.46-1.38c.74-.16,1.52.02,2.11.49.59.47.94,1.19.94,1.95v38.41c17.42,7.38,29,24.75,29,43.76,0,26.19-21.31,47.5-47.5,47.5Zm-13.5-126.66v37.09c0,1.04-.64,1.97-1.61,2.34-16.38,6.23-27.39,22.2-27.39,39.73,0,23.43,19.07,42.5,42.5,42.5s42.5-19.07,42.5-42.5c0-17.53-11.01-33.5-27.39-39.73-.97-.37-1.61-1.3-1.61-2.34V21.03c-3.88.6-8.63.93-13.5.93s-9.62-.33-13.5-.93Z"/><path class="cls-7" d="m112.91,15.06c0,.85-1.17,1.64-3.21,2.32-.7.23-1.51.44-2.4.64-3.95.88-9.66,1.44-16,1.44s-12.05-.56-16-1.44c-.9-.19-1.71-.41-2.41-.64-2.03-.68-3.2-1.47-3.2-2.32,0-2.43,9.67-4.4,21.61-4.4s21.61,1.97,21.61,4.4Z"/><path class="cls-2" d="m91.3,21.96c-6.23,0-12.26-.55-16.54-1.5-.92-.19-1.82-.43-2.65-.71-1.23-.41-4.92-1.65-4.92-4.69,0-3.43,4.45-4.77,8.33-5.56,4.24-.86,9.84-1.34,15.78-1.34s11.54.48,15.78,1.34c3.88.79,8.33,2.14,8.33,5.56,0,3.05-3.7,4.29-4.92,4.69-.74.24-1.6.47-2.64.71-4.28.95-10.31,1.5-16.55,1.5Zm-17.46-6.9c.6.19,1.27.37,1.98.51,3.97.88,9.6,1.39,15.48,1.39s11.52-.5,15.46-1.38c.8-.18,1.46-.35,2-.52-2.92-.91-8.84-1.9-17.46-1.9s-14.55.99-17.46,1.9Zm36.87.89h.01-.01Z"/><path class="cls-2" d="m17.81,231.19c-1.38,0-2.5-1.12-2.5-2.5V2.5c0-1.38,1.12-2.5,2.5-2.5s2.5,1.12,2.5,2.5v226.19c0,1.38-1.12,2.5-2.5,2.5Z"/><path class="cls-2" d="m116.95,36.54H16.91c-1.38,0-2.5-1.12-2.5-2.5s1.12-2.5,2.5-2.5h100.04c1.38,0,2.5,1.12,2.5,2.5s-1.12,2.5-2.5,2.5Z"/><rect class="cls-3" x="2.5" y="231.19" width="154.5" height="13"/><path class="cls-2" d="m157,246.69H2.5c-1.38,0-2.5-1.12-2.5-2.5v-13c0-1.38,1.12-2.5,2.5-2.5h154.5c1.38,0,2.5,1.12,2.5,2.5v13c0,1.38-1.12,2.5-2.5,2.5Zm-152-5h149.5v-8H5v8Z"/><path class="cls-8" d="m127.5,214.85c0,.74-1.9,1.43-5.2,2.02-6.18,1.09-17.25,1.83-29.9,1.83s-23.73-.73-29.9-1.83c-3.3-.59-5.2-1.28-5.2-2.02,0-2.13,15.72-3.85,35.1-3.85s35.1,1.72,35.1,3.85Z"/><path class="cls-2" d="m92.4,221.19c-12.39,0-23.73-.7-30.34-1.86-3.68-.65-7.27-1.54-7.27-4.48s3.04-4.17,12.51-5.2c6.72-.74,15.63-1.14,25.09-1.14s18.38.41,25.1,1.14c9.47,1.04,12.5,2.3,12.5,5.2s-3.59,3.83-7.26,4.48c-6.61,1.17-17.95,1.86-30.34,1.86Zm33.25-4.89h.01-.01Zm-59.77-1.45c6.51.84,16.28,1.34,26.52,1.34s20.02-.5,26.53-1.34c-5.81-.74-14.98-1.35-26.53-1.35s-20.72.61-26.52,1.35Z"/><path class="cls-2" d="m57.07,230.85c-1.38,0-2.5-1.12-2.5-2.5v-12.09c0-1.38,1.12-2.5,2.5-2.5s2.5,1.12,2.5,2.5v12.09c0,1.38-1.12,2.5-2.5,2.5Z"/><path class="cls-2" d="m127.8,230.85c-1.38,0-2.5-1.12-2.5-2.5v-13.26c0-1.38,1.12-2.5,2.5-2.5s2.5,1.12,2.5,2.5v13.26c0,1.38-1.12,2.5-2.5,2.5Z"/><path class="cls-2" d="m92.68,214.55c-1.38,0-2.5-1.12-2.5-2.5v-16.36c0-1.38,1.12-2.5,2.5-2.5s2.5,1.12,2.5,2.5v16.36c0,1.38-1.12,2.5-2.5,2.5Z"/><path class="cls-2" d="m95.88,103.32c-3.16,0-5.73-1.06-8.01-2-2.5-1.03-4.66-1.92-7.46-1.55-.54.07-1.74.61-2.69,1.05-2.21,1-4.49,2.04-6.53,1.5-2.83-.75-3.72-3.24-4.32-4.88-.27-.74-.6-1.67-.9-1.76-.79-.23-3.37,1.04-4.91,1.8-4.13,2.04-10.38,5.13-13.98-.83-.71-1.18-.33-2.72.85-3.43,1.18-.71,2.72-.33,3.43.85.98,1.62,2.45,1.41,7.48-1.07,3.01-1.49,5.86-2.89,8.51-2.12,2.74.8,3.63,3.24,4.21,4.86.27.74.57,1.58.86,1.73.62-.02,2.24-.76,3.22-1.2,1.46-.66,2.83-1.29,4.12-1.46,4.11-.54,7.24.75,10,1.89,2.2.9,4.1,1.69,6.37,1.62,2.62-.08,4.73-1.52,7.18-3.19,1.07-.73,2.18-1.49,3.39-2.17,4.64-2.6,6.6-2.47,9.12.64.53.65,1.13,1.4,2.1,2.24,1.73,1.51,2.72,1.21,5.89-.09l.94-.38c1.4-.56,2.86-.75,4.16-.92,1.28-.17,2.49-.33,3.17-.78,1.15-.76,2.7-.44,3.46.71.76,1.15.44,2.7-.71,3.46-1.64,1.08-3.57,1.34-5.27,1.56-1.1.15-2.14.28-2.96.61l-.9.36c-3.25,1.33-6.93,2.84-11.07-.77-1.29-1.12-2.1-2.12-2.69-2.85-.15-.19-.33-.4-.47-.56-.33.11-1.01.4-2.32,1.14-1.02.57-1.99,1.24-3.02,1.94-2.7,1.84-5.76,3.93-9.85,4.05-.14,0-.27,0-.41,0Z"/><circle class="cls-1" cx="17.5" cy="33.69" r="7"/><path class="cls-2" d="m17.5,43.19c-5.24,0-9.5-4.26-9.5-9.5s4.26-9.5,9.5-9.5,9.5,4.26,9.5,9.5-4.26,9.5-9.5,9.5Zm0-14c-2.48,0-4.5,2.02-4.5,4.5s2.02,4.5,4.5,4.5,4.5-2.02,4.5-4.5-2.02-4.5-4.5-4.5Z"/><circle class="cls-5" cx="83.56" cy="78.23" r="4.74"/><path class="cls-2" d="m85.66,78.23c-.15,2.7-4.2,2.72-4.2,0s4.06-2.7,4.2,0c.18,3.38,5.47,3.4,5.28,0-.22-4-3.21-7.39-7.39-7.39s-7.36,3.38-7.39,7.39,3.24,7.22,7.13,7.37c4.27.17,7.42-3.28,7.64-7.37.18-3.4-5.1-3.39-5.28,0Z"/><circle class="cls-6" cx="94.82" cy="89.5" r="1.78"/><path class="cls-2" d="m93.96,89.5c0-.17.12-.46,0-.14.03-.16.1-.3.21-.42.12-.14.13-.16.03-.06-.16.16.27-.15.32-.19.21-.07.2-.08-.03,0l.32-.05c.17,0,.47.12.14,0,.13.04.63.41.47.25s.15.27.19.32c.06.18.07.2.03.06-.05-.2-.04-.12.03.23,0,.17-.12.47,0,.14-.07.21-.16.37-.31.54.28-.32-.16.06-.26.13-.18.06-.2.07-.06.03.14-.04.12-.04-.07,0-.15-.03-.7-.12-.3.02-.21-.07-.37-.16-.54-.31.31.27-.03-.14-.13-.26-.06-.18-.07-.2-.03-.06.05.2.04.12-.03-.23.07,1.38,1.16,2.71,2.64,2.64,1.37-.06,2.72-1.16,2.64-2.64-.13-2.39-1.93-4.42-4.42-4.42s-4.38,2.03-4.42,4.42,2,4.34,4.32,4.42c2.53.09,4.39-2,4.52-4.42.07-1.38-1.27-2.7-2.64-2.64-1.5.07-2.56,1.16-2.64,2.64Z"/><circle class="cls-5" cx="92.45" cy="59.85" r="4.15"/><path class="cls-2" d="m93.96,59.85c-.1,1.94-3.02,1.95-3.02,0s2.91-1.94,3.02,0c.18,3.38,5.47,3.4,5.28,0-.2-3.68-2.96-6.79-6.79-6.79s-6.76,3.11-6.79,6.79,2.99,6.65,6.57,6.78c3.93.15,6.82-3.02,7.02-6.78.18-3.4-5.1-3.39-5.28,0Z"/></g></svg>