<svg width="408" height="519" viewBox="0 0 408 519" fill="none" xmlns="http://www.w3.org/2000/svg">
<path d="M294.34 516.48H113.56V195.71C113.56 177.95 127.95 163.56 145.71 163.56H262.19C279.95 163.56 294.34 177.95 294.34 195.71V516.48V516.48Z" fill="#B0C3EA" stroke="#3B65EE" stroke-width="2.5" stroke-miterlimit="10" stroke-linecap="round" stroke-linejoin="round"/>
<path d="M247.2 163.36C247.2 163.36 214.06 202.45 214.06 271.48C214.06 340.51 214.06 357.8 214.06 423.84C214.06 424.87 214.07 425.89 214.1 426.9C215.19 471.53 252.38 506.83 297.02 506.83H400.41L334.98 268.91L300.32 175.64C292.7 155.13 267.4 147.85 250.04 161.18L247.2 163.36Z" fill="#E5ECF9" stroke="#3B65EE" stroke-width="2.5" stroke-miterlimit="10" stroke-linecap="round" stroke-linejoin="round"/>
<path d="M406.58 506.84C406.58 501.25 402.05 496.73 396.47 496.73H297.02C257.82 496.73 225.15 465.3 224.21 426.66C224.19 425.74 224.18 424.8 224.18 423.85V271.48C224.18 212.37 250.07 169.5 254.35 163.94C254.35 163.94 239.96 156.28 239.49 156.83C238.04 158.54 203.95 199.57 203.95 271.49V423.85C203.95 424.97 203.96 426.07 203.99 427.16C204.58 451.37 214.61 474.01 232.23 490.91C249.74 507.71 272.75 516.96 297.03 516.96H396.48C402.06 516.95 406.58 512.42 406.58 506.84Z" fill="white" stroke="#3B65EE" stroke-width="2.5" stroke-miterlimit="10" stroke-linecap="round" stroke-linejoin="round"/>
<path d="M160.69 163.36C160.69 163.36 193.83 202.45 193.83 271.48C193.83 340.51 193.83 357.8 193.83 423.84C193.83 424.87 193.82 425.89 193.79 426.9C192.7 471.53 155.51 506.83 110.87 506.83H7.47998L72.91 268.91L107.57 175.64C115.19 155.13 140.49 147.85 157.85 161.18L160.69 163.36Z" fill="#E5ECF9" stroke="#3B65EE" stroke-width="2.5" stroke-miterlimit="10" stroke-linecap="round" stroke-linejoin="round"/>
<path d="M164.17 321.45C169.68 298.61 160.33 287.39 139.15 271.49L114.43 321.45H164.17Z" fill="white" stroke="#3B65EE" stroke-width="2.5" stroke-miterlimit="10" stroke-linecap="round" stroke-linejoin="round"/>
<path d="M170.61 321.45H82.52" stroke="#3B65EE" stroke-width="2.5" stroke-miterlimit="10" stroke-linecap="round" stroke-linejoin="round"/>
<path d="M1.31006 506.84C1.31006 501.25 5.84004 496.73 11.42 496.73H110.87C150.07 496.73 182.74 465.3 183.68 426.66C183.7 425.74 183.71 424.8 183.71 423.85V271.48C183.71 212.37 157.82 169.5 153.54 163.94C153.54 163.94 167.93 156.28 168.4 156.83C169.85 158.54 203.94 199.57 203.94 271.49V423.85C203.94 424.97 203.93 426.07 203.9 427.16C203.31 451.37 193.28 474.01 175.66 490.91C158.15 507.71 135.14 516.96 110.86 516.96H11.41C5.84003 516.95 1.31006 512.42 1.31006 506.84Z" fill="white" stroke="#3B65EE" stroke-width="2.5" stroke-miterlimit="10" stroke-linecap="round" stroke-linejoin="round"/>
<path d="M259.82 46.6799C259.82 46.6799 271.28 47.19 276.83 54.42C282.38 61.65 279.92 72.8499 279.92 72.8499C279.92 72.8499 268.46 72.3399 262.91 65.1099C257.35 57.8799 259.82 46.6799 259.82 46.6799Z" fill="#E5ECF9" stroke="#3B65EE" stroke-width="2.5" stroke-miterlimit="10" stroke-linecap="round" stroke-linejoin="round"/>
<path d="M276.36 32.98C276.36 32.98 278.99 44.15 273.55 51.45C268.11 58.75 256.66 59.44 256.66 59.44C256.66 59.44 254.03 48.27 259.47 40.97C264.91 33.66 276.36 32.98 276.36 32.98Z" fill="#E5ECF9" stroke="#3B65EE" stroke-width="2.5" stroke-miterlimit="10" stroke-linecap="round" stroke-linejoin="round"/>
<path d="M215.14 1.87C215.14 1.87 222.81 10.4 221.55 19.42C220.29 28.44 210.57 34.54 210.57 34.54C210.57 34.54 202.9 26.01 204.16 16.99C205.43 7.96999 215.14 1.87 215.14 1.87Z" fill="#E5ECF9" stroke="#3B65EE" stroke-width="2.5" stroke-miterlimit="10" stroke-linecap="round" stroke-linejoin="round"/>
<path d="M186.11 16.17C190.059 16.17 193.26 12.9688 193.26 9.01999C193.26 5.07115 190.059 1.87 186.11 1.87C182.161 1.87 178.96 5.07115 178.96 9.01999C178.96 12.9688 182.161 16.17 186.11 16.17Z" fill="#B0C3EA" stroke="#3B65EE" stroke-width="2.5" stroke-miterlimit="10" stroke-linecap="round" stroke-linejoin="round"/>
<path d="M240.64 45.2701C240.64 45.2701 232.23 37.4701 232.67 28.3701C233.11 19.2701 242.24 12.3201 242.24 12.3201C242.24 12.3201 250.65 20.1201 250.21 29.2201C249.77 38.3201 240.64 45.2701 240.64 45.2701Z" fill="#E5ECF9" stroke="#3B65EE" stroke-width="2.5" stroke-miterlimit="10" stroke-linecap="round" stroke-linejoin="round"/>
<path d="M228.16 26.6201C232.109 26.6201 235.31 23.4189 235.31 19.4701C235.31 15.5212 232.109 12.3201 228.16 12.3201C224.211 12.3201 221.01 15.5212 221.01 19.4701C221.01 23.4189 224.211 26.6201 228.16 26.6201Z" fill="#B0C3EA" stroke="#3B65EE" stroke-width="2.5" stroke-miterlimit="10" stroke-linecap="round" stroke-linejoin="round"/>
<path d="M213.92 13.96C213.92 13.96 223.93 19.56 225.65 28.5C227.37 37.45 220.14 46.36 220.14 46.36C220.14 46.36 210.13 40.76 208.41 31.82C206.69 22.87 213.92 13.96 213.92 13.96Z" fill="#E5ECF9" stroke="#3B65EE" stroke-width="2.5" stroke-miterlimit="10" stroke-linecap="round" stroke-linejoin="round"/>
<path d="M253.65 68.05C253.65 68.05 264.91 65.84 272.01 71.54C279.11 77.25 279.37 88.72 279.37 88.72C279.37 88.72 268.11 90.93 261.01 85.23C253.91 79.51 253.65 68.05 253.65 68.05Z" fill="#E5ECF9" stroke="#3B65EE" stroke-width="2.5" stroke-miterlimit="10" stroke-linecap="round" stroke-linejoin="round"/>
<path d="M241.44 66.29C241.44 66.29 245.76 55.66 254.43 52.85C263.1 50.04 272.83 56.11 272.83 56.11C272.83 56.11 268.51 66.74 259.84 69.55C251.17 72.36 241.44 66.29 241.44 66.29Z" fill="#E5ECF9" stroke="#3B65EE" stroke-width="2.5" stroke-miterlimit="10" stroke-linecap="round" stroke-linejoin="round"/>
<path d="M239.04 64.5799C239.04 64.5799 231.43 56 232.75 46.9799C234.07 37.9699 243.83 31.9399 243.83 31.9399C243.83 31.9399 251.44 40.5199 250.12 49.5399C248.8 58.5499 239.04 64.5799 239.04 64.5799Z" fill="#E5ECF9" stroke="#3B65EE" stroke-width="2.5" stroke-miterlimit="10" stroke-linecap="round" stroke-linejoin="round"/>
<path d="M211.5 45.28C211.5 45.28 213.69 34.02 221.66 29.6C229.63 25.18 240.34 29.26 240.34 29.26C240.34 29.26 238.15 40.52 230.18 44.94C222.22 49.36 211.5 45.28 211.5 45.28Z" fill="#E5ECF9" stroke="#3B65EE" stroke-width="2.5" stroke-miterlimit="10" stroke-linecap="round" stroke-linejoin="round"/>
<path d="M140.12 60.6C140.12 60.6 131.34 53.21 131.34 44.1C131.34 34.99 140.12 27.6 140.12 27.6C140.12 27.6 148.9 34.99 148.9 44.1C148.9 53.21 140.12 60.6 140.12 60.6Z" fill="#E5ECF9" stroke="#3B65EE" stroke-width="2.5" stroke-miterlimit="10" stroke-linecap="round" stroke-linejoin="round"/>
<path d="M143.03 23.05C143.03 23.05 154.28 20.82 161.39 26.52C168.5 32.22 168.77 43.69 168.77 43.69C168.77 43.69 157.52 45.92 150.41 40.22C143.3 34.51 143.03 23.05 143.03 23.05Z" fill="#E5ECF9" stroke="#3B65EE" stroke-width="2.5" stroke-miterlimit="10" stroke-linecap="round" stroke-linejoin="round"/>
<path d="M155.71 15.98C155.71 15.98 166 10.9099 174.34 14.5799C182.68 18.2399 185.91 29.2499 185.91 29.2499C185.91 29.2499 175.62 34.3199 167.28 30.6499C158.94 26.9799 155.71 15.98 155.71 15.98Z" fill="#E5ECF9" stroke="#3B65EE" stroke-width="2.5" stroke-miterlimit="10" stroke-linecap="round" stroke-linejoin="round"/>
<path d="M199.87 4.02002C199.87 4.02002 207.56 12.53 206.32 21.56C205.08 30.59 195.38 36.71 195.38 36.71C195.38 36.71 187.69 28.2 188.93 19.17C190.17 10.14 199.87 4.02002 199.87 4.02002Z" fill="#E5ECF9" stroke="#3B65EE" stroke-width="2.5" stroke-miterlimit="10" stroke-linecap="round" stroke-linejoin="round"/>
<path d="M259.36 28.63C259.36 28.63 265.04 38.6 261.88 47.14C258.72 55.69 247.93 59.57 247.93 59.57C247.93 59.57 242.25 49.6 245.41 41.06C248.57 32.52 259.36 28.63 259.36 28.63Z" fill="#E5ECF9" stroke="#3B65EE" stroke-width="2.5" stroke-miterlimit="10" stroke-linecap="round" stroke-linejoin="round"/>
<path d="M121.35 65.71C121.35 65.71 125.07 54.86 133.57 51.57C142.07 48.28 152.12 53.81 152.12 53.81C152.12 53.81 148.4 64.66 139.9 67.95C131.41 71.23 121.35 65.71 121.35 65.71Z" fill="#E5ECF9" stroke="#3B65EE" stroke-width="2.5" stroke-miterlimit="10" stroke-linecap="round" stroke-linejoin="round"/>
<path d="M155.18 71.65C155.18 71.65 152.02 82.68 143.7 86.4C135.38 90.12 125.06 85.12 125.06 85.12C125.06 85.12 128.22 74.09 136.54 70.37C144.86 66.65 155.18 71.65 155.18 71.65Z" fill="#E5ECF9" stroke="#3B65EE" stroke-width="2.5" stroke-miterlimit="10" stroke-linecap="round" stroke-linejoin="round"/>
<path d="M161.53 44.6799C161.53 44.6799 164.53 55.7499 159.34 63.2399C154.15 70.7299 142.72 71.7899 142.72 71.7899C142.72 71.7899 139.72 60.7199 144.91 53.2299C150.11 45.74 161.53 44.6799 161.53 44.6799Z" fill="#E5ECF9" stroke="#3B65EE" stroke-width="2.5" stroke-miterlimit="10" stroke-linecap="round" stroke-linejoin="round"/>
<path d="M211.16 25.01C211.16 25.01 214.16 36.08 208.97 43.57C203.78 51.05 192.35 52.12 192.35 52.12C192.35 52.12 189.35 41.05 194.54 33.56C199.74 26.07 211.16 25.01 211.16 25.01Z" fill="#E5ECF9" stroke="#3B65EE" stroke-width="2.5" stroke-miterlimit="10" stroke-linecap="round" stroke-linejoin="round"/>
<path d="M213.37 38.04C217.319 38.04 220.52 34.8389 220.52 30.89C220.52 26.9412 217.319 23.74 213.37 23.74C209.421 23.74 206.22 26.9412 206.22 30.89C206.22 34.8389 209.421 38.04 213.37 38.04Z" fill="#B0C3EA" stroke="#3B65EE" stroke-width="2.5" stroke-miterlimit="10" stroke-linecap="round" stroke-linejoin="round"/>
<path d="M143.03 62.3C146.979 62.3 150.18 59.0988 150.18 55.15C150.18 51.2012 146.979 48 143.03 48C139.081 48 135.88 51.2012 135.88 55.15C135.88 59.0988 139.081 62.3 143.03 62.3Z" fill="#B0C3EA" stroke="#3B65EE" stroke-width="2.5" stroke-miterlimit="10" stroke-linecap="round" stroke-linejoin="round"/>
<path d="M250.59 63.96C254.539 63.96 257.74 60.7589 257.74 56.81C257.74 52.8612 254.539 49.66 250.59 49.66C246.641 49.66 243.44 52.8612 243.44 56.81C243.44 60.7589 246.641 63.96 250.59 63.96Z" fill="#B0C3EA" stroke="#3B65EE" stroke-width="2.5" stroke-miterlimit="10" stroke-linecap="round" stroke-linejoin="round"/>
<path d="M137.86 94.92C141.809 94.92 145.01 91.7188 145.01 87.77C145.01 83.8212 141.809 80.62 137.86 80.62C133.911 80.62 130.71 83.8212 130.71 87.77C130.71 91.7188 133.911 94.92 137.86 94.92Z" fill="#B0C3EA" stroke="#3B65EE" stroke-width="2.5" stroke-miterlimit="10" stroke-linecap="round" stroke-linejoin="round"/>
<path d="M266.51 92.68C270.459 92.68 273.66 89.4788 273.66 85.53C273.66 81.5812 270.459 78.38 266.51 78.38C262.562 78.38 259.36 81.5812 259.36 85.53C259.36 89.4788 262.562 92.68 266.51 92.68Z" fill="#B0C3EA" stroke="#3B65EE" stroke-width="2.5" stroke-miterlimit="10" stroke-linecap="round" stroke-linejoin="round"/>
<path d="M169.97 50.0001C169.97 50.0001 160.76 56.8401 151.9 54.7501C143.03 52.6501 137.87 42.4101 137.87 42.4101C137.87 42.4101 147.08 35.5701 155.94 37.6601C164.8 39.7601 169.97 50.0001 169.97 50.0001Z" fill="#E5ECF9" stroke="#3B65EE" stroke-width="2.5" stroke-miterlimit="10" stroke-linecap="round" stroke-linejoin="round"/>
<path d="M174.25 51.34C174.25 51.34 163.86 46.48 161.5 37.68C159.14 28.88 165.7 19.47 165.7 19.47C165.7 19.47 176.09 24.33 178.45 33.13C180.81 41.93 174.25 51.34 174.25 51.34Z" fill="#E5ECF9" stroke="#3B65EE" stroke-width="2.5" stroke-miterlimit="10" stroke-linecap="round" stroke-linejoin="round"/>
<path d="M176.82 46.36C176.82 46.36 174.45 35.14 180.05 27.96C185.66 20.78 197.12 20.36 197.12 20.36C197.12 20.36 199.49 31.58 193.89 38.76C188.28 45.94 176.82 46.36 176.82 46.36Z" fill="#E5ECF9" stroke="#3B65EE" stroke-width="2.5" stroke-miterlimit="10" stroke-linecap="round" stroke-linejoin="round"/>
<path d="M178.96 27.51C182.909 27.51 186.11 24.3088 186.11 20.36C186.11 16.4111 182.909 13.21 178.96 13.21C175.011 13.21 171.81 16.4111 171.81 20.36C171.81 24.3088 175.011 27.51 178.96 27.51Z" fill="#B0C3EA" stroke="#3B65EE" stroke-width="2.5" stroke-miterlimit="10" stroke-linecap="round" stroke-linejoin="round"/>
<path d="M238.14 48.51H169.76C169.76 48.51 125.67 100.55 125.67 127.88C125.67 155.21 160.72 177.37 203.95 177.37C247.18 177.37 282.23 155.21 282.23 127.88C282.22 100.56 238.14 48.51 238.14 48.51Z" fill="#D1DAED" stroke="#3B65EE" stroke-width="2.5" stroke-miterlimit="10" stroke-linecap="round" stroke-linejoin="round"/>
<path d="M245.2 69.8499C245.2 76.8999 241.77 88.82 236.88 102.2C225.66 132.91 182.24 132.91 171.02 102.2C166.13 88.82 162.7 76.9099 162.7 69.8499C162.7 45.3999 181.17 36.4299 203.95 36.4299C226.73 36.4399 245.2 45.4099 245.2 69.8499Z" fill="white" stroke="#3B65EE" stroke-width="2.5" stroke-miterlimit="10" stroke-linecap="round" stroke-linejoin="round"/>
<path d="M211.42 48.26C211.42 48.26 215.2 90.96 230.17 98.2L217.44 97.31C217.44 97.31 208.96 86.61 208.96 74.52C208.96 62.43 211.42 48.26 211.42 48.26Z" fill="#D1DAED" stroke="#D1DAED" stroke-width="2.5" stroke-miterlimit="10" stroke-linecap="round" stroke-linejoin="round"/>
<path d="M257.36 90.2L252.62 108.77C252.62 108.77 229.71 85.8599 207.38 92.1799L203.95 93.8499L200.52 92.1799C178.2 85.8599 155.28 108.77 155.28 108.77L150.54 90.2C150.54 90.2 138.09 117.32 153.31 123.81C164.08 128.41 189.38 121.23 203.96 111.6C218.53 121.23 243.84 128.41 254.61 123.81C269.8 117.32 257.36 90.2 257.36 90.2Z" fill="#D1DAED" stroke="#3B65EE" stroke-width="2.5" stroke-miterlimit="10" stroke-linecap="round" stroke-linejoin="round"/>
<path d="M181.98 98.2C182.78 101.23 183.86 104.09 185.24 106.74C186.65 109.37 188.39 111.78 190.56 113.71C191.63 114.7 192.83 115.52 194.09 116.24C195.33 117.01 196.71 117.53 198.1 118.05C200.92 118.99 203.94 119.49 207.06 119.82C204 120.53 200.76 120.59 197.59 119.93C196.01 119.6 194.45 119.07 192.98 118.33C191.52 117.58 190.14 116.66 188.9 115.57C187.69 114.45 186.6 113.21 185.69 111.85C184.8 110.48 184.03 109.05 183.47 107.54C182.33 104.54 181.74 101.34 181.98 98.2Z" fill="#3B65EE"/>
<path d="M183.829 79.8599C185.564 79.8599 186.969 76.2424 186.969 71.7799C186.969 67.3175 185.564 63.7 183.829 63.7C182.095 63.7 180.689 67.3175 180.689 71.7799C180.689 76.2424 182.095 79.8599 183.829 79.8599Z" fill="#3B65EE" stroke="#3B65EE" stroke-width="2.5" stroke-miterlimit="10" stroke-linecap="round" stroke-linejoin="round"/>
<path d="M190.35 49.6599H176.36C173.3 49.6599 170.81 47.1799 170.81 44.1099C170.81 41.0499 173.29 38.5599 176.36 38.5599H190.35C193.41 38.5599 195.9 41.0399 195.9 44.1099C195.9 47.1699 193.41 49.6599 190.35 49.6599Z" fill="#D1DAED" stroke="#3B65EE" stroke-width="2.5" stroke-miterlimit="10" stroke-linecap="round" stroke-linejoin="round"/>
<path d="M225.03 79.8599C226.764 79.8599 228.17 76.2424 228.17 71.7799C228.17 67.3175 226.764 63.7 225.03 63.7C223.295 63.7 221.89 67.3175 221.89 71.7799C221.89 76.2424 223.295 79.8599 225.03 79.8599Z" fill="#3B65EE" stroke="#3B65EE" stroke-width="2.5" stroke-miterlimit="10" stroke-linecap="round" stroke-linejoin="round"/>
<path d="M231.539 49.6599H217.549C214.489 49.6599 212 47.1799 212 44.1099C212 41.0499 214.479 38.5599 217.549 38.5599H231.539C234.599 38.5599 237.09 41.0399 237.09 44.1099C237.09 47.1699 234.599 49.6599 231.539 49.6599Z" fill="#D1DAED" stroke="#3B65EE" stroke-width="2.5" stroke-miterlimit="10" stroke-linecap="round" stroke-linejoin="round"/>
<path d="M212 44.1099C206.22 79.8699 220.96 104.93 220.96 104.93L191.49 87.1499" fill="white"/>
<path d="M212 44.1099C206.22 79.8699 220.96 104.93 220.96 104.93L191.49 87.1499" stroke="#3B65EE" stroke-width="2.5" stroke-miterlimit="10" stroke-linecap="round" stroke-linejoin="round"/>
<path d="M307.24 243.21L269.39 271.48L294.11 321.44H321.4L349.55 299.35C377.16 277.68 377.97 236.15 351.22 213.43L290.72 162.02" fill="#E5ECF9"/>
<path d="M307.24 243.21L269.39 271.48L294.11 321.44H321.4L349.55 299.35C377.16 277.68 377.97 236.15 351.22 213.43L290.72 162.02" stroke="#3B65EE" stroke-width="2.5" stroke-miterlimit="10" stroke-linecap="round" stroke-linejoin="round"/>
<path d="M288.37 257.34C291.32 254.48 294.42 251.81 297.58 249.22C300.72 246.61 303.95 244.12 307.2 241.65C310.48 239.22 313.77 236.81 317.15 234.52C320.52 232.22 323.95 229.99 327.52 227.95C324.57 230.82 321.47 233.48 318.32 236.08C315.18 238.69 311.95 241.18 308.7 243.65C305.42 246.08 302.13 248.49 298.74 250.78C295.37 253.07 291.95 255.31 288.37 257.34Z" fill="#3B65EE"/>
<path d="M294.1 321.45L269.38 271.49C248.2 287.39 238.85 298.61 244.36 321.45H294.1Z" fill="white" stroke="#3B65EE" stroke-width="2.5" stroke-miterlimit="10" stroke-linecap="round" stroke-linejoin="round"/>
<path d="M117.83 161.42L57.33 212.83C30.59 235.55 31.4 277.09 59 298.75L106.81 336.27L139.16 270.88L101.31 242.61" fill="#E5ECF9"/>
<path d="M117.83 161.42L57.33 212.83C30.59 235.55 31.4 277.09 59 298.75L106.81 336.27L139.16 270.88L101.31 242.61" stroke="#3B65EE" stroke-width="2.5" stroke-miterlimit="10" stroke-linecap="round" stroke-linejoin="round"/>
<path d="M237.93 321.45H326.02" stroke="#3B65EE" stroke-width="2.5" stroke-miterlimit="10" stroke-linecap="round" stroke-linejoin="round"/>
</svg>
