<?xml version="1.0" encoding="UTF-8"?>
<svg id="Layer_2" data-name="Layer 2" xmlns="http://www.w3.org/2000/svg" viewBox="0 0 163.23 128.36">
  <defs>
    <style>
      .cls-1 {
        fill: #3f51b5;
        stroke-width: 0px;
      }

      .cls-2 {
        opacity: .2;
      }
    </style>
  </defs>
  <g id="Layer_1-2" data-name="Layer 1">
    <g>
      <path class="cls-1" d="M4,128.36c-.68,0-1.37-.17-1.98-.53-1.25-.71-2.02-2.04-2.02-3.47V28.12c0-1.42.75-2.72,1.96-3.44.59-.35,14.65-8.62,31.67-15.54C57.29-.48,74.45-2.52,84.65,3.08c3.38,1.86,6.52,3.78,9.57,5.64,16.7,10.22,29.89,18.29,63.42,3.66,1.24-.54,2.66-.42,3.79.32,1.13.74,1.81,2,1.81,3.35v96.24c0,1.59-.94,3.03-2.4,3.67-37.35,16.3-53.6,6.36-70.79-4.17-2.96-1.81-6.03-3.69-9.24-5.46-16.34-8.98-59.5,12.45-74.76,21.47-.63.37-1.33.56-2.04.56ZM8,30.42v87.12c5.78-3.12,15.15-7.9,25.64-12.16,23.65-9.62,40.81-11.65,51.01-6.05,3.38,1.86,6.52,3.78,9.57,5.64,16.29,9.97,29.25,17.9,61.02,4.68V22.03c-33.42,12.96-48.88,3.51-65.19-6.48-2.96-1.81-6.03-3.69-9.24-5.46C65.11,1.48,24.71,20.88,8,30.42Z"/>
      <path class="cls-1" d="M70.88,85.17c-1.02,0-2.05-.39-2.83-1.17l-13.88-13.88c-1.56-1.56-1.56-4.09,0-5.66,1.56-1.56,4.09-1.56,5.66,0l11.1,11.1,36.29-35.08c1.59-1.54,4.12-1.49,5.66.1,1.54,1.59,1.49,4.12-.1,5.66l-39.12,37.81c-.78.75-1.78,1.12-2.78,1.12Z"/>
      <g class="cls-2">
        <path class="cls-1" d="M83,20.36s-9,56,18,83c0,0-21-54-18-83Z"/>
      </g>
    </g>
  </g>
</svg>