<svg width="919" height="955" viewBox="0 0 919 955" fill="none" xmlns="http://www.w3.org/2000/svg">
<path d="M805.871 444.07C799.441 441.65 759.681 511.29 744.511 524.86C729.341 538.43 647.771 574.69 638.581 571.81C629.391 568.93 649.621 500.6 639.341 500.6C629.061 500.6 629.391 564.65 611.301 577.15C593.211 589.65 545.861 611.65 537.321 603.27C528.781 594.89 537.571 519.67 558.461 483.36C579.341 447.05 652.111 410.35 683.441 404.52C714.771 398.69 742.401 421.7 768.611 412.88C794.821 404.07 782.881 373.95 790.661 358.89C798.441 343.83 833.271 327.22 829.441 322.39C825.611 317.56 795.141 332.73 782.291 348.24C769.451 363.75 776.691 392.29 759.931 398.63C743.171 404.97 709.121 385.36 681.121 388.67C653.121 391.98 625.481 406.02 625.481 406.02C625.481 406.02 607.011 382.23 615.761 368.01C624.511 353.79 676.561 340.58 694.711 322.09C712.861 303.59 758.881 235.79 750.351 233.42C741.821 231.05 708.751 289.48 700.151 295.36C691.541 301.25 685.291 222.62 672.791 231.13C660.291 239.64 696.871 303.16 681.981 317.6C667.091 332.04 613.481 353.97 603.601 356.59C593.721 359.21 565.261 322.61 557.981 328.46C550.701 334.31 581.911 354.17 591.441 370.28C600.971 386.39 606.651 413.62 606.651 413.62C606.651 413.62 558.381 434.51 537.091 464.95C515.801 495.39 492.821 594.96 472.821 596.88C452.821 598.8 425.621 515 433.281 469.89C440.941 424.78 446.281 386.6 456.091 355.83C465.901 325.06 511.351 271.68 532.131 245.57C552.921 219.46 609.671 209.76 625.661 193.86C641.651 177.96 647.731 109.06 640.871 107.17C634.011 105.28 628.061 172.86 615.731 185.18C603.411 197.5 538.221 217.71 538.221 217.71C538.221 217.71 561.541 117.35 550.391 117.05C539.241 116.75 533.811 192.12 523.781 218.18C513.741 244.25 459.491 317.48 450.421 316.07C441.351 314.66 397.591 258.87 387.631 242.33C377.671 225.79 386.011 161.51 396.081 142.54C406.141 123.58 456.121 93.42 449.271 88.15C442.421 82.88 396.581 116.81 383.111 137.58C369.641 158.35 367.141 215.9 367.141 215.9C367.141 215.9 349.331 171.36 340.531 159.63C331.721 147.9 296.021 130.74 294.911 137.58C293.801 144.42 326.741 156.31 333.531 172.43C340.311 188.55 357.261 228.83 357.261 228.83C305.401 198.6 214.141 207.92 215.061 214.38C215.991 220.84 273.411 213.75 279.261 220.58C255.691 236.32 233.081 261.24 240.161 265.32C247.231 269.41 258.781 240.41 286.541 230.34C314.301 220.27 348.501 236.68 361.061 247.07C373.621 257.46 436.441 320.3 433.591 356.06C430.741 391.82 416.521 459.76 408.201 458.46C399.891 457.16 360.721 399.37 356.491 383.94C352.261 368.51 347.421 316.95 339.001 320.07C330.581 323.18 342.041 365.69 342.041 365.69C342.041 365.69 304.871 341.66 301.741 348.96C298.611 356.27 331.101 365.24 345.171 390.3C359.241 415.36 380.771 456.64 380.771 456.64C355.561 451.72 333.281 462.66 337.271 470.77C341.261 478.88 393.431 454.38 401.351 477.47C409.271 500.56 412.751 573.59 402.111 581.65C391.471 589.71 265.631 526.68 250.461 516.3C235.291 505.92 240.361 458.01 230.501 425.3C220.641 392.59 133.141 331.53 128.081 340.73C123.021 349.93 202.421 394.75 216.241 428.33C230.071 461.92 221.161 493.88 221.161 493.88C180.241 445.7 86.9509 436.06 82.9909 444.15C79.0309 452.24 189.141 465.38 204.981 502.3C141.191 492.52 88.521 529.7 90.951 538.29C93.381 546.88 163.801 497.13 210.291 522.38C256.781 547.63 376.211 612.51 376.211 612.51L386.461 618.08C390.811 620.44 394.981 623.04 398.971 625.87C399.971 626.58 400.951 627.3 401.921 628.03C404.841 630.23 407.651 632.55 410.351 634.99C431.931 654.46 446.231 681.15 450.071 710.58C450.511 713.96 450.911 717.49 451.261 721.16C452.311 732.19 452.931 744.55 452.931 758.4C452.931 804.81 435.031 853.54 417.131 890.66C416.571 891.82 416.011 892.97 415.451 894.11C414.331 896.38 413.221 898.61 412.111 900.79C409.891 905.14 407.701 909.3 405.571 913.22C402.371 919.1 399.321 924.47 396.511 929.24C387.641 944.32 381.331 953.32 381.331 953.32H478.901H508.371H551.901H605.951C605.951 953.32 534.351 851.22 534.351 758.41C534.351 739.95 535.451 724.12 537.221 710.59C542.341 671.35 566.051 636.98 600.821 618.09L627.261 603.73C660.281 590.32 673.111 584.57 692.221 584.33C711.331 584.09 796.281 625.69 801.311 615.88C806.341 606.07 701.721 576.55 703.221 570.26C704.721 563.97 738.001 554.74 757.211 534.52C776.411 514.34 812.301 446.49 805.871 444.07Z" fill="white" stroke="#3B65EE" stroke-width="3" stroke-miterlimit="10" stroke-linecap="round" stroke-linejoin="round"/>
<path d="M321.389 655.431C300.849 663.871 277.879 655.341 277.879 655.341C277.879 655.341 288.209 633.121 308.749 624.681C329.289 616.241 352.259 624.771 352.259 624.771C352.259 624.771 341.929 646.991 321.389 655.431Z" fill="#D1DAED" stroke="#3B65EE" stroke-width="3" stroke-miterlimit="10" stroke-linecap="round" stroke-linejoin="round"/>
<path d="M279.622 611.329C258.732 603.799 247.422 582.069 247.422 582.069C247.422 582.069 269.992 572.529 290.882 580.059C311.772 587.589 323.082 609.319 323.082 609.319C323.082 609.319 300.522 618.849 279.622 611.329Z" fill="#D1DAED" stroke="#3B65EE" stroke-width="3" stroke-miterlimit="10" stroke-linecap="round" stroke-linejoin="round"/>
<path d="M183.371 561.31C192.981 541.29 215.751 532.25 215.751 532.25C215.751 532.25 222.941 555.67 213.341 575.69C203.731 595.71 180.961 604.75 180.961 604.75C180.961 604.75 173.761 581.33 183.371 561.31Z" fill="#D1DAED" stroke="#3B65EE" stroke-width="3" stroke-miterlimit="10" stroke-linecap="round" stroke-linejoin="round"/>
<path d="M103.591 585.629C96.3607 564.629 106.221 542.199 106.221 542.199C106.221 542.199 127.801 553.809 135.021 574.809C142.241 595.809 132.391 618.239 132.391 618.239C132.391 618.239 110.821 606.619 103.591 585.629Z" fill="#D1DAED" stroke="#3B65EE" stroke-width="3" stroke-miterlimit="10" stroke-linecap="round" stroke-linejoin="round"/>
<path d="M56.6581 571.279C68.5981 552.549 92.2881 546.309 92.2881 546.309C92.2881 546.309 96.6281 570.429 84.6881 589.149C72.7481 607.879 49.0581 614.119 49.0581 614.119C49.0581 614.119 44.7181 590.009 56.6581 571.279Z" fill="#D1DAED" stroke="#3B65EE" stroke-width="3" stroke-miterlimit="10" stroke-linecap="round" stroke-linejoin="round"/>
<path d="M65.2283 495.131C86.8083 500.351 100.398 520.741 100.398 520.741C100.398 520.741 78.9883 532.661 57.4083 527.431C35.8283 522.211 22.2383 501.821 22.2383 501.821C22.2383 501.821 43.6483 489.901 65.2283 495.131Z" fill="#D1DAED" stroke="#3B65EE" stroke-width="3" stroke-miterlimit="10" stroke-linecap="round" stroke-linejoin="round"/>
<path d="M99.6485 394.008C113.679 411.228 112.159 435.678 112.159 435.678C112.159 435.678 87.8985 432.218 73.8785 414.998C59.8485 397.778 61.3685 373.328 61.3685 373.328C61.3685 373.328 85.6285 376.788 99.6485 394.008Z" fill="#D1DAED" stroke="#3B65EE" stroke-width="3" stroke-miterlimit="10" stroke-linecap="round" stroke-linejoin="round"/>
<path d="M45.0108 413.358C66.3908 419.378 79.2108 440.259 79.2108 440.259C79.2108 440.259 57.3708 451.378 36.0008 445.348C14.6208 439.328 1.80078 418.449 1.80078 418.449C1.80078 418.449 23.6408 407.338 45.0108 413.358Z" fill="#D1DAED" stroke="#3B65EE" stroke-width="3" stroke-miterlimit="10" stroke-linecap="round" stroke-linejoin="round"/>
<path d="M158.73 405.28C180.69 401.98 200.96 415.75 200.96 415.75C200.96 415.75 185.62 434.86 163.66 438.16C141.7 441.46 121.43 427.69 121.43 427.69C121.43 427.69 136.76 408.58 158.73 405.28Z" fill="#D1DAED" stroke="#3B65EE" stroke-width="3" stroke-miterlimit="10" stroke-linecap="round" stroke-linejoin="round"/>
<path d="M194.129 316.43C193.239 338.62 175.919 355.95 175.919 355.95C175.919 355.95 160.029 337.3 160.919 315.11C161.809 292.92 179.129 275.59 179.129 275.59C179.129 275.59 195.009 294.24 194.129 316.43Z" fill="#D1DAED" stroke="#3B65EE" stroke-width="3" stroke-miterlimit="10" stroke-linecap="round" stroke-linejoin="round"/>
<path d="M149.641 294.23C156.601 315.32 146.461 337.62 146.461 337.62C146.461 337.62 125.041 325.73 118.081 304.64C111.121 283.55 121.261 261.25 121.261 261.25C121.261 261.25 142.691 273.14 149.641 294.23Z" fill="#D1DAED" stroke="#3B65EE" stroke-width="3" stroke-miterlimit="10" stroke-linecap="round" stroke-linejoin="round"/>
<path d="M368.711 508.358C390.021 514.628 402.601 535.648 402.601 535.648C402.601 535.648 380.641 546.518 359.331 540.248C338.021 533.978 325.441 512.958 325.441 512.958C325.441 512.958 347.401 502.088 368.711 508.358Z" fill="#D1DAED" stroke="#3B65EE" stroke-width="3" stroke-miterlimit="10" stroke-linecap="round" stroke-linejoin="round"/>
<path d="M401.128 361.359C391.118 381.189 368.178 389.769 368.178 389.769C368.178 389.769 361.448 366.209 371.458 346.379C381.468 326.549 404.408 317.969 404.408 317.969C404.408 317.969 411.138 341.529 401.128 361.359Z" fill="#D1DAED" stroke="#3B65EE" stroke-width="3" stroke-miterlimit="10" stroke-linecap="round" stroke-linejoin="round"/>
<path d="M327.329 393.919C346.899 404.429 354.889 427.589 354.889 427.589C354.889 427.589 331.169 433.719 311.599 423.209C292.029 412.699 284.039 389.539 284.039 389.539C284.039 389.539 307.769 383.409 327.329 393.919Z" fill="#D1DAED" stroke="#3B65EE" stroke-width="3" stroke-miterlimit="10" stroke-linecap="round" stroke-linejoin="round"/>
<path d="M433.24 214.181C417.18 229.511 392.68 229.921 392.68 229.921C392.68 229.921 394.22 205.471 410.29 190.131C426.35 174.791 450.85 174.391 450.85 174.391C450.85 174.391 449.3 198.851 433.24 214.181Z" fill="#D1DAED" stroke="#3B65EE" stroke-width="3" stroke-miterlimit="10" stroke-linecap="round" stroke-linejoin="round"/>
<path d="M460.91 43.1798C460.02 65.3698 442.7 82.6998 442.7 82.6998C442.7 82.6998 426.81 64.0498 427.7 41.8598C428.59 19.6698 445.91 2.33984 445.91 2.33984C445.91 2.33984 461.8 20.9898 460.91 43.1798Z" fill="#D1DAED" stroke="#3B65EE" stroke-width="3" stroke-miterlimit="10" stroke-linecap="round" stroke-linejoin="round"/>
<path d="M415.482 50.3914C425.462 70.2314 418.702 93.7814 418.702 93.7814C418.702 93.7814 395.762 85.1714 385.782 65.3314C375.802 45.4914 382.562 21.9414 382.562 21.9414C382.562 21.9414 405.502 30.5514 415.482 50.3914Z" fill="#D1DAED" stroke="#3B65EE" stroke-width="3" stroke-miterlimit="10" stroke-linecap="round" stroke-linejoin="round"/>
<path d="M443.429 154.229C421.709 158.869 400.629 146.389 400.629 146.389C400.629 146.389 414.759 126.369 436.479 121.729C458.199 117.089 479.279 129.569 479.279 129.569C479.279 129.569 465.139 149.589 443.429 154.229Z" fill="#D1DAED" stroke="#3B65EE" stroke-width="3" stroke-miterlimit="10" stroke-linecap="round" stroke-linejoin="round"/>
<path d="M499.101 91.4012C477.381 96.0412 456.301 83.5612 456.301 83.5612C456.301 83.5612 470.431 63.5412 492.151 58.9012C513.871 54.2612 534.951 66.7412 534.951 66.7412C534.951 66.7412 520.821 86.7512 499.101 91.4012Z" fill="#D1DAED" stroke="#3B65EE" stroke-width="3" stroke-miterlimit="10" stroke-linecap="round" stroke-linejoin="round"/>
<path d="M362.591 92.1306C378.171 107.951 378.961 132.441 378.961 132.441C378.961 132.441 354.491 131.281 338.901 115.451C323.321 99.6306 322.531 75.1406 322.531 75.1406C322.531 75.1406 347.011 76.3106 362.591 92.1306Z" fill="#D1DAED" stroke="#3B65EE" stroke-width="3" stroke-miterlimit="10" stroke-linecap="round" stroke-linejoin="round"/>
<path d="M290.409 197.031C268.269 195.311 251.609 177.341 251.609 177.341C251.609 177.341 270.849 162.161 292.989 163.891C315.129 165.621 331.789 183.581 331.789 183.581C331.789 183.581 312.559 198.751 290.409 197.031Z" fill="#D1DAED" stroke="#3B65EE" stroke-width="3" stroke-miterlimit="10" stroke-linecap="round" stroke-linejoin="round"/>
<path d="M272.782 285.399C269.042 263.509 282.402 242.969 282.402 242.969C282.402 242.969 301.812 257.919 305.552 279.809C309.292 301.699 295.932 322.239 295.932 322.239C295.932 322.239 276.522 307.289 272.782 285.399Z" fill="#D1DAED" stroke="#3B65EE" stroke-width="3" stroke-miterlimit="10" stroke-linecap="round" stroke-linejoin="round"/>
<path d="M476.521 198.49C465.731 179.08 471.511 155.27 471.511 155.27C471.511 155.27 494.781 162.93 505.581 182.34C516.381 201.75 510.591 225.56 510.591 225.56C510.591 225.56 487.321 217.9 476.521 198.49Z" fill="#D1DAED" stroke="#3B65EE" stroke-width="3" stroke-miterlimit="10" stroke-linecap="round" stroke-linejoin="round"/>
<path d="M590.469 103.59C577.369 85.6603 580.159 61.3203 580.159 61.3203C580.159 61.3203 604.199 66.0503 617.299 83.9803C630.399 101.91 627.609 126.25 627.609 126.25C627.609 126.25 603.569 121.52 590.469 103.59Z" fill="#D1DAED" stroke="#3B65EE" stroke-width="3" stroke-miterlimit="10" stroke-linecap="round" stroke-linejoin="round"/>
<path d="M669.602 148.89C689.452 138.94 713.002 145.73 713.002 145.73C713.002 145.73 704.352 168.65 684.502 178.6C664.652 188.55 641.102 181.76 641.102 181.76C641.102 181.76 649.742 158.84 669.602 148.89Z" fill="#D1DAED" stroke="#3B65EE" stroke-width="3" stroke-miterlimit="10" stroke-linecap="round" stroke-linejoin="round"/>
<path d="M652.261 57.9895C668.431 42.7595 692.931 42.5195 692.931 42.5195C692.931 42.5195 691.221 66.9595 675.061 82.1895C658.891 97.4195 634.391 97.6595 634.391 97.6595C634.391 97.6595 636.101 73.2095 652.261 57.9895Z" fill="#D1DAED" stroke="#3B65EE" stroke-width="3" stroke-miterlimit="10" stroke-linecap="round" stroke-linejoin="round"/>
<path d="M577.931 246.321C599.581 251.251 613.451 271.451 613.451 271.451C613.451 271.451 592.211 283.661 570.551 278.731C548.901 273.801 535.031 253.601 535.031 253.601C535.031 253.601 556.281 241.391 577.931 246.321Z" fill="#D1DAED" stroke="#3B65EE" stroke-width="3" stroke-miterlimit="10" stroke-linecap="round" stroke-linejoin="round"/>
<path d="M731.269 184.46C730.699 162.26 746.849 143.84 746.849 143.84C746.849 143.84 763.929 161.41 764.499 183.61C765.069 205.81 748.919 224.24 748.919 224.24C748.919 224.24 731.839 206.66 731.269 184.46Z" fill="#D1DAED" stroke="#3B65EE" stroke-width="3" stroke-miterlimit="10" stroke-linecap="round" stroke-linejoin="round"/>
<path d="M688.03 227.541C679.66 206.971 688.27 184.031 688.27 184.031C688.27 184.031 710.45 194.441 718.82 215.011C727.19 235.581 718.58 258.521 718.58 258.521C718.58 258.521 696.4 248.111 688.03 227.541Z" fill="#D1DAED" stroke="#3B65EE" stroke-width="3" stroke-miterlimit="10" stroke-linecap="round" stroke-linejoin="round"/>
<path d="M789.941 238.169C812.061 236.169 831.481 251.099 831.481 251.099C831.481 251.099 815.051 269.269 792.931 271.269C770.811 273.269 751.391 258.339 751.391 258.339C751.391 258.339 767.821 240.169 789.941 238.169Z" fill="#D1DAED" stroke="#3B65EE" stroke-width="3" stroke-miterlimit="10" stroke-linecap="round" stroke-linejoin="round"/>
<path d="M535.05 394.499C534.48 372.299 550.63 353.879 550.63 353.879C550.63 353.879 567.71 371.449 568.28 393.649C568.85 415.849 552.7 434.269 552.7 434.269C552.7 434.269 535.62 416.699 535.05 394.499Z" fill="#D1DAED" stroke="#3B65EE" stroke-width="3" stroke-miterlimit="10" stroke-linecap="round" stroke-linejoin="round"/>
<path d="M833.889 362.409C856.089 361.849 874.509 378.009 874.509 378.009C874.509 378.009 856.929 395.079 834.729 395.639C812.529 396.199 794.109 380.039 794.109 380.039C794.109 380.039 811.689 362.969 833.889 362.409Z" fill="#D1DAED" stroke="#3B65EE" stroke-width="3" stroke-miterlimit="10" stroke-linecap="round" stroke-linejoin="round"/>
<path d="M730.182 344.098C738.232 323.398 760.252 312.648 760.252 312.648C760.252 312.648 769.212 335.448 761.172 356.148C753.122 376.848 731.102 387.598 731.102 387.598C731.102 387.598 722.132 364.798 730.182 344.098Z" fill="#D1DAED" stroke="#3B65EE" stroke-width="3" stroke-miterlimit="10" stroke-linecap="round" stroke-linejoin="round"/>
<path d="M880.831 316.619C902.611 320.979 917.001 340.809 917.001 340.809C917.001 340.809 896.091 353.579 874.311 349.219C852.531 344.859 838.141 325.029 838.141 325.029C838.141 325.029 859.051 312.269 880.831 316.619Z" fill="#D1DAED" stroke="#3B65EE" stroke-width="3" stroke-miterlimit="10" stroke-linecap="round" stroke-linejoin="round"/>
<path d="M710.319 486.339C707.699 464.289 722.069 444.449 722.069 444.449C722.069 444.449 740.699 460.359 743.329 482.409C745.949 504.459 731.579 524.299 731.579 524.299C731.579 524.299 712.949 508.389 710.319 486.339Z" fill="#D1DAED" stroke="#3B65EE" stroke-width="3" stroke-miterlimit="10" stroke-linecap="round" stroke-linejoin="round"/>
<path d="M828.772 447.508C847.122 434.988 871.352 438.578 871.352 438.578C871.352 438.578 865.842 462.458 847.502 474.968C829.152 487.488 804.922 483.898 804.922 483.898C804.922 483.898 810.432 460.018 828.772 447.508Z" fill="#D1DAED" stroke="#3B65EE" stroke-width="3" stroke-miterlimit="10" stroke-linecap="round" stroke-linejoin="round"/>
<path d="M807.68 644.191C820.5 662.321 817.33 686.621 817.33 686.621C817.33 686.621 793.36 681.521 780.54 663.391C767.72 645.261 770.89 620.961 770.89 620.961C770.89 620.961 794.86 626.061 807.68 644.191Z" fill="#D1DAED" stroke="#3B65EE" stroke-width="3" stroke-miterlimit="10" stroke-linecap="round" stroke-linejoin="round"/>
<path d="M837.129 498.472C857.019 508.352 865.749 531.252 865.749 531.252C865.749 531.252 842.229 538.122 822.339 528.242C802.449 518.362 793.719 495.462 793.719 495.462C793.719 495.462 817.239 488.582 837.129 498.472Z" fill="#D1DAED" stroke="#3B65EE" stroke-width="3" stroke-miterlimit="10" stroke-linecap="round" stroke-linejoin="round"/>
<path d="M762.198 652.24C759.848 674.32 741.418 690.47 741.418 690.47C741.418 690.47 726.788 670.81 729.138 648.73C731.488 626.65 749.918 610.5 749.918 610.5C749.918 610.5 764.538 630.16 762.198 652.24Z" fill="#D1DAED" stroke="#3B65EE" stroke-width="3" stroke-miterlimit="10" stroke-linecap="round" stroke-linejoin="round"/>
<path d="M624.991 659.66C637.811 677.79 634.641 702.09 634.641 702.09C634.641 702.09 610.681 696.99 597.851 678.86C585.021 660.73 588.201 636.43 588.201 636.43C588.201 636.43 612.161 641.53 624.991 659.66Z" fill="#D1DAED" stroke="#3B65EE" stroke-width="3" stroke-miterlimit="10" stroke-linecap="round" stroke-linejoin="round"/>
<path d="M512.32 651.101L511.7 651.041C511.55 651.021 511.33 650.941 511.19 650.801C511.12 650.741 511.06 650.641 511.03 650.601L511.02 650.581L510.97 650.511L510.87 650.361L510.67 650.061L510.25 649.461C509.96 649.061 509.67 648.671 509.37 648.291C508.77 647.521 508.13 646.781 507.46 646.071C506.14 644.631 504.69 643.331 503.13 642.231C501.56 641.151 499.87 640.251 498.1 639.761C496.33 639.271 494.5 639.151 492.72 639.451C490.95 639.761 489.24 640.481 487.67 641.461L486.51 642.241L485.4 643.111C485.03 643.401 484.79 643.721 484.47 644.021C484.14 644.301 483.93 644.671 483.69 645.021C482.76 646.421 482.29 648.091 482.23 649.881C482.21 651.671 482.49 653.511 482.97 655.331C485.1 662.651 489.35 669.491 493.91 675.911C498.5 682.351 503.69 688.461 509.02 694.261L506.19 694.231C511.13 689.241 515.9 683.951 520.37 678.491C524.81 673.021 529.12 667.381 532.33 661.251C533.12 659.721 533.82 658.161 534.37 656.581C534.9 655.001 535.28 653.391 535.28 651.871C535.29 650.351 534.86 649.001 533.91 648.031C533.49 647.551 532.72 647.111 532.04 646.641C531.69 646.421 531.36 646.151 531 645.971L529.89 645.441C528.43 644.691 526.83 644.371 525.25 644.201C523.66 644.201 522.03 644.331 520.5 644.951C518.97 645.521 517.5 646.341 516.17 647.371C515.51 647.901 514.87 648.451 514.27 649.041C513.98 649.341 513.68 649.651 513.4 649.961L512.99 650.441L512.8 650.681L512.64 650.881C512.55 650.941 512.44 651.021 512.32 651.101ZM512.07 649.291L511.78 649.191C511.55 649.111 511.18 649.221 511.03 649.411L510.98 649.471L510.99 649.451L511.02 649.411L511.07 649.341L511.29 649.051L511.74 648.501C512.04 648.141 512.36 647.801 512.68 647.451C513.33 646.771 514.02 646.141 514.74 645.531C516.2 644.331 517.84 643.341 519.63 642.611C521.41 641.841 523.39 641.581 525.35 641.541C527.3 641.671 529.27 642.031 531.02 642.851L532.35 643.441C532.78 643.651 533.17 643.931 533.58 644.171C534.38 644.691 535.2 645.101 536.02 645.911C537.65 647.451 538.4 649.761 538.41 651.791C538.45 653.851 538.02 655.761 537.46 657.561C536.88 659.361 536.15 661.071 535.34 662.731C533.71 666.041 531.79 669.131 529.76 672.131C527.72 675.121 525.58 678.031 523.32 680.831C518.8 686.451 514.05 691.801 509 696.991C508.25 697.761 507.01 697.781 506.24 697.031L506.19 696.981L506.17 696.961C503.34 693.981 500.72 690.931 498.17 687.771C495.62 684.621 493.16 681.391 490.84 678.051C488.52 674.711 486.32 671.271 484.36 667.661C482.44 664.041 480.68 660.261 479.67 656.131C479.19 654.061 478.9 651.901 479 649.671C479.13 647.451 479.82 645.131 481.17 643.231C481.51 642.751 481.84 642.271 482.28 641.891C482.7 641.501 483.11 641.051 483.54 640.741L484.82 639.791L486.18 638.931C488.04 637.851 490.12 637.031 492.32 636.711C494.52 636.411 496.78 636.681 498.84 637.361C500.91 638.041 502.76 639.161 504.44 640.421C506.1 641.711 507.58 643.181 508.91 644.761C509.57 645.551 510.19 646.371 510.78 647.221C511.07 647.641 511.36 648.071 511.63 648.511L512.03 649.171L512.07 649.291Z" fill="#3B65EE"/>
<path d="M478.041 688.582C477.871 687.802 477.861 687.062 477.861 686.332C477.881 685.602 477.961 684.902 478.091 684.202L479.451 686.592C478.371 686.412 477.321 686.152 476.291 685.752C475.271 685.352 474.271 684.872 473.351 684.102C472.851 683.682 472.781 682.942 473.201 682.442C473.381 682.222 473.631 682.082 473.891 682.042C475.071 681.822 476.181 681.902 477.261 682.052C478.341 682.212 479.391 682.502 480.421 682.872L480.761 682.992C481.661 683.322 482.121 684.312 481.801 685.212C481.791 685.222 481.791 685.252 481.781 685.262C481.521 685.922 481.221 686.562 480.851 687.192C480.471 687.812 480.071 688.432 479.521 689.012C479.181 689.362 478.631 689.372 478.281 689.032C478.161 688.902 478.081 688.752 478.041 688.582Z" fill="#3B65EE"/>
<path d="M492.742 677.573C491.962 678.623 491.062 679.483 490.142 680.303C489.212 681.113 488.232 681.843 487.212 682.513C486.192 683.183 485.132 683.793 484.032 684.333C482.922 684.863 481.782 685.343 480.522 685.633C479.912 685.773 479.302 685.393 479.162 684.783C479.082 684.433 479.172 684.083 479.382 683.823C480.182 682.813 481.112 681.983 482.062 681.213C483.022 680.453 484.022 679.753 485.072 679.123C486.122 678.493 487.202 677.923 488.332 677.423C489.472 676.933 490.632 676.493 491.912 676.243C492.362 676.153 492.802 676.453 492.892 676.903C492.932 677.153 492.872 677.393 492.742 677.573Z" fill="#3B65EE"/>
<path d="M544.46 644.893C544.07 645.693 543.56 646.313 543.03 646.883C542.49 647.443 541.9 647.932 541.27 648.352C540.64 648.782 539.98 649.142 539.26 649.432C538.54 649.712 537.79 649.942 536.92 649.992C536.24 650.032 535.67 649.513 535.63 648.833C535.62 648.603 535.67 648.372 535.78 648.182C536.19 647.422 536.72 646.842 537.29 646.312C537.86 645.793 538.47 645.353 539.13 644.963C539.78 644.583 540.48 644.253 541.22 644.003C541.97 643.763 542.74 643.572 543.63 643.562C544.14 643.562 544.55 643.962 544.55 644.472C544.55 644.632 544.51 644.773 544.46 644.893Z" fill="#3B65EE"/>
<path d="M480.411 679.313C480.871 679.233 481.311 679.223 481.741 679.223C482.171 679.233 482.601 679.253 483.011 679.303C483.841 679.393 484.651 679.573 485.431 679.803C486.281 680.053 486.821 680.863 486.751 681.713L486.731 681.923C486.651 682.883 486.511 683.843 486.251 684.783C485.991 685.723 485.661 686.653 485.081 687.553C484.731 688.103 483.991 688.263 483.441 687.903C483.201 687.753 483.041 687.523 482.961 687.273C482.631 686.253 482.551 685.273 482.531 684.303C482.521 683.333 482.621 682.373 482.801 681.423L484.101 683.543C483.341 683.223 482.611 682.863 481.901 682.413C481.541 682.193 481.201 681.943 480.861 681.683C480.521 681.413 480.191 681.133 479.881 680.783C479.551 680.423 479.581 679.863 479.951 679.533C480.091 679.413 480.251 679.343 480.411 679.313Z" fill="#3B65EE"/>
<path d="M485.922 675.871C486.332 675.931 486.712 676.021 487.072 676.131C487.442 676.231 487.782 676.381 488.132 676.511C488.812 676.801 489.452 677.141 490.062 677.521C490.492 677.791 490.742 678.231 490.802 678.691L490.842 679.031C490.952 680.021 490.962 681.021 490.862 682.021C490.742 683.021 490.562 684.021 490.092 685.031C489.812 685.631 489.102 685.881 488.502 685.601C488.262 685.481 488.072 685.301 487.952 685.071C487.432 684.081 487.212 683.091 487.052 682.101C486.912 681.111 486.872 680.111 486.942 679.111L487.712 680.621C487.172 680.141 486.672 679.621 486.212 679.041C485.992 678.741 485.752 678.451 485.552 678.131C485.342 677.811 485.152 677.471 484.982 677.101C484.782 676.651 484.992 676.131 485.432 675.931C485.592 675.871 485.762 675.851 485.922 675.871Z" fill="#3B65EE"/>
<path d="M538.34 641.952C538.89 641.862 539.42 641.842 539.95 641.832C540.47 641.832 541 641.842 541.51 641.882C542.54 641.962 543.55 642.122 544.54 642.332C545.48 642.532 546.1 643.402 546.02 644.332L546 644.502C545.89 645.692 545.72 646.882 545.43 648.052C545.14 649.222 544.78 650.382 544.17 651.512C543.87 652.072 543.18 652.272 542.62 651.972C542.32 651.812 542.13 651.532 542.05 651.232C541.75 649.982 541.69 648.772 541.71 647.572C541.73 646.372 541.86 645.182 542.07 644.002L543.53 646.172C542.56 645.872 541.6 645.522 540.67 645.082C540.2 644.872 539.74 644.622 539.28 644.362C538.82 644.092 538.37 643.812 537.94 643.472C537.57 643.182 537.51 642.642 537.8 642.282C537.95 642.092 538.14 641.982 538.34 641.952Z" fill="#3B65EE"/>
<path d="M269.301 513.139C269.301 513.139 280.091 505.409 283.281 510.449C286.471 515.489 270.211 530.949 270.211 530.949L269.301 513.139Z" fill="#D1DAED" stroke="#3B65EE" stroke-width="2" stroke-miterlimit="10" stroke-linecap="round" stroke-linejoin="round"/>
<path d="M238.79 520.15C238.79 520.15 230.78 514.46 227.11 520.15C223.44 525.84 236.26 537.61 236.26 537.61L243.81 537.01L238.79 520.15Z" fill="#D1DAED" stroke="#3B65EE" stroke-width="2" stroke-miterlimit="10" stroke-linecap="round" stroke-linejoin="round"/>
<path d="M240.111 537.72C239.921 537.72 239.731 537.67 239.571 537.56C239.321 537.4 233.571 533.57 235.691 524.88C237.711 516.56 243.761 511.34 244.011 511.12C244.181 510.98 244.381 510.9 244.601 510.88C244.601 510.88 265.211 509.73 265.221 509.73C265.341 509.73 265.461 509.75 265.581 509.8C265.791 509.88 270.821 511.84 272.681 516.66C272.791 516.93 272.881 517.21 272.961 517.5C273.731 520.13 273.411 522.92 272.051 525.37C270.641 527.92 268.211 529.851 265.391 530.641L240.371 537.69C240.291 537.71 240.201 537.72 240.111 537.72Z" fill="#D1DAED"/>
<path d="M265.232 510.73C265.232 510.73 270.032 512.56 271.752 517.01C271.852 517.26 271.932 517.511 272.012 517.771C273.512 522.891 270.262 528.22 265.132 529.66L240.112 536.711C240.112 536.711 234.692 533.21 236.662 525.11C238.632 517.01 244.662 511.88 244.662 511.88L265.232 510.73ZM265.232 508.73C265.192 508.73 265.162 508.73 265.122 508.73L244.552 509.88C244.112 509.9 243.702 510.07 243.372 510.35C243.102 510.58 236.822 516 234.722 524.63C232.442 534 238.762 538.21 239.032 538.38C239.362 538.59 239.732 538.701 240.122 538.701C240.302 538.701 240.482 538.68 240.662 538.63L265.682 531.581C268.752 530.711 271.402 528.621 272.942 525.831C274.432 523.151 274.782 520.081 273.942 517.201C273.852 516.891 273.742 516.581 273.632 516.281C271.612 511.051 266.182 508.94 265.952 508.85C265.712 508.78 265.472 508.73 265.232 508.73Z" fill="#3B65EE"/>
<path d="M240.109 512.079C240.109 514.009 246.749 520.829 254.939 520.829C263.129 520.829 269.769 513.999 269.769 512.079C269.769 510.159 263.129 510.039 254.939 510.039C246.749 510.039 240.109 510.149 240.109 512.079Z" fill="#D1DAED" stroke="#3B65EE" stroke-width="2" stroke-miterlimit="10" stroke-linecap="round" stroke-linejoin="round"/>
<path d="M243.571 502.718L243.891 498.878L244.001 497.598C244.251 497.618 244.531 497.668 244.831 497.748C244.981 497.788 245.141 497.828 245.301 497.888C245.331 497.898 245.351 497.908 245.381 497.918C246.871 498.418 248.661 499.398 249.951 500.168C250.171 500.298 250.401 500.428 250.641 500.528C251.651 501.008 252.741 501.248 253.851 501.248H254.951H256.051C257.211 501.248 258.351 500.978 259.391 500.458C259.501 500.408 259.601 500.348 259.701 500.298C259.701 500.298 259.711 500.298 259.711 500.288C259.791 500.248 259.861 500.198 259.941 500.158C260.481 499.838 261.101 499.478 261.751 499.138C261.941 499.038 262.131 498.938 262.321 498.848C262.671 498.678 263.011 498.508 263.361 498.358C263.371 498.358 263.371 498.348 263.381 498.348C263.641 498.238 263.901 498.128 264.141 498.038C264.321 497.968 264.501 497.908 264.671 497.858C264.791 497.818 264.901 497.788 265.021 497.758C265.331 497.678 265.621 497.618 265.881 497.598L265.991 498.878L266.311 502.718C266.321 502.728 271.921 508.008 271.191 510.858C270.791 512.418 268.891 513.278 266.541 513.238C265.291 513.258 263.851 512.958 262.351 512.268C261.461 511.888 260.441 511.988 259.651 512.578C258.691 513.288 257.201 514.088 255.351 514.088C255.211 514.088 255.081 514.088 254.941 514.078C254.811 514.088 254.671 514.088 254.531 514.088C252.671 514.088 251.191 513.298 250.231 512.578C249.441 511.988 248.421 511.878 247.531 512.268C246.031 512.958 244.581 513.258 243.341 513.238C240.991 513.278 239.101 512.408 238.691 510.858C237.961 508.018 243.561 502.728 243.571 502.718Z" fill="#D1DAED" stroke="#3B65EE" stroke-width="2" stroke-miterlimit="10" stroke-linecap="round" stroke-linejoin="round"/>
<path d="M242.68 509.319C242.5 509.319 242.33 509.299 242.15 509.269C239.86 508.869 238.51 506.029 239.08 502.799C239.6 499.859 241.51 497.719 243.64 497.719C243.82 497.719 244 497.739 244.17 497.769C245.32 497.969 246.31 498.839 246.86 500.139C247.36 501.319 247.5 502.769 247.24 504.229C246.72 507.179 244.8 509.319 242.68 509.319Z" fill="white"/>
<path d="M243.631 498.719C243.751 498.719 243.871 498.729 243.991 498.749C245.701 499.049 246.711 501.429 246.251 504.059C245.821 506.509 244.271 508.309 242.681 508.309C242.561 508.309 242.441 508.299 242.321 508.279C240.611 507.979 239.601 505.599 240.061 502.969C240.491 500.529 242.041 498.719 243.631 498.719ZM243.631 496.719C241.021 496.719 238.691 499.199 238.091 502.629C237.431 506.409 239.131 509.759 241.971 510.249C242.201 510.289 242.441 510.309 242.681 510.309C245.291 510.309 247.621 507.829 248.221 504.399C248.881 500.619 247.181 497.269 244.341 496.779C244.111 496.739 243.871 496.719 243.631 496.719Z" fill="#3B65EE"/>
<path d="M267.212 509.32C265.092 509.32 263.172 507.18 262.652 504.24C262.392 502.78 262.532 501.321 263.032 500.151C263.592 498.841 264.572 497.981 265.722 497.781C265.902 497.751 266.082 497.73 266.252 497.73C268.372 497.73 270.292 499.87 270.812 502.81C271.382 506.03 270.032 508.871 267.742 509.281C267.562 509.301 267.382 509.32 267.212 509.32Z" fill="white"/>
<path d="M266.251 498.719C267.841 498.719 269.391 500.529 269.821 502.969C270.281 505.599 269.271 507.979 267.561 508.279C267.441 508.299 267.321 508.309 267.201 508.309C265.611 508.309 264.061 506.499 263.631 504.059C263.171 501.429 264.181 499.049 265.891 498.749C266.011 498.729 266.131 498.719 266.251 498.719ZM266.251 496.719C266.011 496.719 265.781 496.739 265.541 496.779C262.701 497.279 260.991 500.629 261.661 504.399C262.261 507.819 264.591 510.309 267.201 510.309C267.441 510.309 267.671 510.289 267.911 510.249C270.751 509.749 272.461 506.399 271.791 502.629C271.191 499.209 268.861 496.719 266.251 496.719Z" fill="#3B65EE"/>
<path d="M256.181 506.43C256.571 506.22 256.821 506.17 257.041 506.15C257.251 506.14 257.401 506.19 257.521 506.29C257.631 506.39 257.691 506.54 257.711 506.75C257.711 506.97 257.681 507.22 257.511 507.63C257.121 507.84 256.871 507.89 256.651 507.91C256.441 507.92 256.281 507.87 256.181 507.76C256.071 507.66 256.011 507.51 256.001 507.3C255.971 507.09 256.011 506.84 256.181 506.43Z" fill="#3B65EE"/>
<path d="M253.701 506.431C253.871 506.841 253.901 507.091 253.901 507.311C253.891 507.521 253.831 507.671 253.721 507.771C253.611 507.871 253.451 507.921 253.251 507.921C253.031 507.901 252.781 507.851 252.391 507.641C252.221 507.231 252.191 506.981 252.191 506.761C252.201 506.551 252.261 506.401 252.381 506.301C252.491 506.201 252.651 506.151 252.861 506.161C253.061 506.171 253.311 506.221 253.701 506.431Z" fill="#3B65EE"/>
<path d="M265.477 505.944C266.405 505.844 267.029 504.562 266.87 503.079C266.712 501.597 265.831 500.475 264.903 500.574C263.975 500.673 263.351 501.956 263.51 503.439C263.668 504.921 264.549 506.043 265.477 505.944Z" fill="#3B65EE"/>
<path d="M246.304 503.421C246.463 501.938 245.839 500.656 244.911 500.557C243.983 500.457 243.102 501.579 242.943 503.062C242.785 504.544 243.409 505.827 244.337 505.926C245.265 506.025 246.145 504.903 246.304 503.421Z" fill="#3B65EE"/>
<path d="M272.232 539.342C271.532 539.342 270.892 538.992 270.512 538.402C270.302 538.072 268.582 535.192 269.152 531.212C267.242 533.932 267.912 536.652 267.942 536.772C268.232 537.842 267.592 538.962 266.512 539.252C266.342 539.302 266.162 539.322 265.982 539.322C265.072 539.322 264.262 538.702 264.022 537.822C263.942 537.512 263.392 535.272 264.132 532.482C262.432 534.232 262.202 536.212 262.192 536.322C262.092 537.362 261.232 538.162 260.172 538.162C260.142 538.162 260.012 538.152 259.982 538.152C259.442 538.102 258.952 537.842 258.602 537.432C258.252 537.012 258.092 536.492 258.142 535.952C258.162 535.752 258.632 531.112 263.042 528.142C263.522 526.772 264.952 525.462 267.272 524.232C269.982 522.802 271.392 520.662 272.412 519.102C273.272 517.792 273.952 516.762 275.112 516.762C275.242 516.762 275.362 516.772 275.492 516.802C276.132 516.942 276.662 517.342 277.022 517.972C277.982 519.622 277.602 522.532 276.992 524.512C276.432 526.312 275.052 528.112 273.932 529.372C273.902 529.452 273.872 529.522 273.842 529.602C272.122 533.242 273.862 536.132 273.942 536.252C274.532 537.192 274.252 538.442 273.312 539.042C272.992 539.232 272.612 539.342 272.232 539.342Z" fill="#D1DAED"/>
<path d="M275.122 517.75C275.172 517.75 275.233 517.76 275.283 517.77C276.903 518.13 276.893 521.45 276.033 524.21C275.493 525.96 274.023 527.79 273.023 528.88C273.013 528.98 272.982 529.07 272.932 529.17C270.982 533.3 273.003 536.64 273.083 536.77C273.383 537.25 273.243 537.89 272.763 538.19C272.593 538.3 272.403 538.35 272.213 538.35C271.873 538.35 271.533 538.18 271.343 537.87C271.253 537.72 269.473 534.84 270.203 530.95C270.303 530.4 269.893 529.89 269.333 529.89C269.063 529.89 268.803 530.01 268.643 530.22C266.083 533.45 266.932 536.88 266.972 537.02C267.122 537.57 266.792 538.13 266.252 538.28C266.162 538.3 266.072 538.32 265.982 538.32C265.532 538.32 265.112 538.02 264.992 537.56C264.942 537.39 264.073 534.01 266.033 530.44C266.123 530.27 265.993 530.08 265.823 530.08C265.793 530.08 265.752 530.09 265.722 530.11C261.662 532.19 261.223 536.07 261.213 536.23C261.163 536.76 260.713 537.17 260.193 537.17C260.163 537.17 260.133 537.17 260.093 537.17C259.523 537.12 259.112 536.62 259.162 536.05C259.182 535.85 259.632 531.48 263.922 528.78C264.102 527.92 264.943 526.62 267.763 525.12C272.693 522.49 273.612 517.75 275.122 517.75ZM275.122 515.75C273.432 515.75 272.533 517.11 271.593 518.54C270.573 520.09 269.292 522.03 266.812 523.34C264.382 524.62 262.872 525.99 262.222 527.48C257.752 530.65 257.203 535.31 257.153 535.85C257.083 536.66 257.323 537.44 257.843 538.07C258.363 538.69 259.093 539.08 259.893 539.15C259.983 539.16 260.082 539.16 260.172 539.16C261.382 539.16 262.432 538.46 262.912 537.42C262.972 537.76 263.032 537.99 263.052 538.08C263.412 539.4 264.612 540.32 265.972 540.32C266.242 540.32 266.503 540.28 266.763 540.21C268.003 539.87 268.852 538.81 268.982 537.6C269.292 538.34 269.573 538.8 269.653 538.93C270.213 539.81 271.173 540.34 272.213 540.34C272.783 540.34 273.343 540.18 273.833 539.87C275.243 538.98 275.663 537.1 274.773 535.69C274.723 535.61 273.262 533.12 274.732 530.01C274.752 529.97 274.772 529.92 274.792 529.88C275.962 528.55 277.352 526.69 277.932 524.79C278.642 522.51 278.992 519.38 277.872 517.45C277.372 516.59 276.603 516.01 275.703 515.81C275.523 515.77 275.322 515.75 275.122 515.75Z" fill="#3B65EE"/>
<path d="M238.632 551.946C238.542 551.946 238.452 551.936 238.362 551.926C237.252 551.776 236.472 550.756 236.622 549.646L237.332 544.406C237.532 542.886 237.272 541.336 236.562 539.916C235.942 538.666 235.502 537.256 235.252 535.716L234.212 529.156C233.912 527.296 234.572 525.426 235.982 524.166L240.542 520.076C240.732 519.906 240.972 519.816 241.212 519.816C241.382 519.816 241.552 519.856 241.702 519.946C242.072 520.156 242.272 520.586 242.192 521.006L240.952 527.346C241.302 527.776 241.882 528.546 242.552 529.716C243.082 530.636 243.712 532.406 244.412 534.986C244.652 535.846 245.412 536.456 246.302 536.476L253.632 536.706C254.752 536.746 255.632 537.626 255.642 538.716C255.652 539.266 255.442 539.776 255.052 540.166C254.672 540.556 254.152 540.766 253.612 540.766L245.892 540.526L251.772 544.636C252.232 544.956 252.542 545.456 252.632 546.016C252.722 546.556 252.592 547.096 252.272 547.536C251.892 548.056 251.282 548.356 250.642 548.356C250.222 548.356 249.822 548.226 249.482 547.986L242.482 543.086C242.382 543.016 242.262 542.976 242.142 542.976C242.072 542.976 242.012 542.986 241.952 543.006C241.742 543.076 241.582 543.266 241.552 543.486L240.652 550.156C240.502 551.196 239.642 551.946 238.632 551.946Z" fill="#D1DAED"/>
<path d="M241.191 520.828L239.861 527.648C239.861 527.648 240.631 528.428 241.671 530.228C242.281 531.278 242.971 533.548 243.431 535.258C243.781 536.538 244.931 537.448 246.261 537.488L253.591 537.718C254.151 537.738 254.621 538.178 254.631 538.738C254.641 539.318 254.171 539.778 253.601 539.778C253.591 539.778 253.581 539.778 253.571 539.778L244.541 539.488C244.531 539.488 244.531 539.488 244.521 539.488C244.261 539.488 244.031 539.658 243.951 539.908C243.871 540.158 243.971 540.418 244.181 540.568L251.191 545.468C251.671 545.798 251.811 546.478 251.461 546.948C251.261 547.218 250.951 547.368 250.631 547.368C250.431 547.368 250.221 547.308 250.041 547.178L243.041 542.288C242.771 542.098 242.451 541.998 242.131 541.998C241.961 541.998 241.781 542.028 241.611 542.088C241.041 542.288 240.631 542.788 240.551 543.388L239.651 550.058C239.581 550.578 239.141 550.948 238.631 550.948C238.581 550.948 238.541 550.948 238.491 550.938C237.931 550.858 237.531 550.348 237.611 549.778L238.321 544.538C238.551 542.798 238.241 541.038 237.451 539.468C236.981 538.528 236.501 537.238 236.231 535.568L235.191 529.008C234.951 527.488 235.491 525.948 236.641 524.918L241.191 520.828ZM241.191 518.828C241.171 518.828 241.151 518.828 241.141 518.828C240.641 518.838 240.191 519.038 239.851 519.348L235.301 523.438C233.641 524.928 232.861 527.128 233.211 529.328L234.251 535.888C234.511 537.528 234.981 539.038 235.651 540.378C236.271 541.618 236.501 542.968 236.331 544.288L235.621 549.528C235.511 550.328 235.721 551.128 236.211 551.768C236.701 552.408 237.411 552.828 238.211 552.938C238.341 552.958 238.481 552.968 238.621 552.968C240.131 552.968 241.421 551.838 241.621 550.338L242.431 544.328L248.881 548.838C249.391 549.198 249.991 549.388 250.621 549.388C251.581 549.388 252.491 548.928 253.061 548.158C253.541 547.508 253.741 546.698 253.601 545.888C253.471 545.068 253.001 544.328 252.321 543.858L249.191 541.668L253.491 541.808C253.511 541.808 253.571 541.808 253.591 541.808C254.401 541.808 255.171 541.488 255.741 540.908C256.311 540.328 256.621 539.558 256.621 538.748C256.601 537.118 255.301 535.798 253.641 535.748L246.311 535.518C245.861 535.508 245.471 535.198 245.351 534.758C244.261 530.748 243.601 529.628 243.391 529.258C242.851 528.318 242.361 527.618 241.991 527.128L243.121 521.338C243.161 521.178 243.181 521.018 243.181 520.848C243.181 519.748 242.291 518.848 241.191 518.848C241.201 518.828 241.191 518.828 241.191 518.828Z" fill="#3B65EE"/>
</svg>
