<svg width="207" height="130" viewBox="0 0 207 130" fill="none" xmlns="http://www.w3.org/2000/svg">
<path d="M64.4905 101.981C54.4505 86.6015 51.3505 70.7615 62.3805 53.1415C95.6005 0.0514755 173.501 45.5915 193.881 110.621C196.411 116.661 205.841 113.191 204.801 106.721L203.381 97.9415C195.001 45.9615 152.971 6.57147 101.161 2.17147C64.0505 -0.978526 32.7005 13.9415 12.8705 44.2015C4.1805 57.4715 -7.80954 86.2514 16.0805 127.551" fill="#B0C6ED"/>
<path d="M64.4905 101.981C54.4505 86.6015 51.3505 70.7615 62.3805 53.1415C95.6005 0.0514755 173.501 45.5915 193.881 110.621C196.411 116.661 205.841 113.191 204.801 106.721L203.381 97.9415C195.001 45.9615 152.971 6.57147 101.161 2.17147C64.0505 -0.978526 32.7005 13.9415 12.8705 44.2015C4.1805 57.4715 -7.80954 86.2514 16.0805 127.551" stroke="#3B65EE" stroke-width="3" stroke-miterlimit="10" stroke-linecap="round"/>
</svg>
