<?xml version="1.0" encoding="UTF-8"?>
<svg xmlns="http://www.w3.org/2000/svg" viewBox="0 0 139.12 163.52">
  <defs>
    <style>
      .cls-1 {
        fill: none;
        stroke: #ffd25d;
        stroke-linecap: round;
        stroke-linejoin: round;
      }

      .cls-1, .cls-2 {
        stroke-width: 3px;
      }

      .cls-3 {
        opacity: .45;
      }

      .cls-3, .cls-4 {
        fill: #fff;
      }

      .cls-4 {
        opacity: .35;
      }

      .cls-2 {
        fill: #ffd873;
        stroke: #e4b200;
        stroke-miterlimit: 10;
      }

      .cls-5 {
        isolation: isolate;
      }

      .cls-6 {
        fill: #e4b200;
        mix-blend-mode: multiply;
        opacity: .2;
      }
    </style>
  </defs>
  <g class="cls-5">
    <g id="Layer_2" data-name="Layer 2">
      <g id="Layer_2-2" data-name="Layer 2">
        <g>
          <ellipse class="cls-6" cx="85.71" cy="155.45" rx="53.5" ry="7.5" transform="translate(-8.58 5.05) rotate(-3.21)"/>
          <path class="cls-2" d="M50.71,161.45s-46-2-49-42S28.98,17.14,55.71,21.45c31,5,53,62,44,104-8.49,39.6-49,36-49,36Z"/>
          <path class="cls-6" d="M89.37,137.98c-13.35,19.05-39.9,22.69-54.07,11.83-12.53-9.61,17.97-13.88,29.99-33.8s9.16-56.48,20.91-43.06c14,16,13,51,3.17,65.03Z"/>
          <path class="cls-3" d="M63.98,37.02s-5.65-16.34-20.47-7.2c-14.82,9.14-20.31,36.75-5.3,27.68,15.01-9.07,28.61-9.36,25.77-20.48Z"/>
          <line class="cls-1" x1="3.21" y1="39.39" x2="12.21" y2="43.51"/>
          <line class="cls-1" x1="11.9" y1="22.29" x2="19.51" y2="28.61"/>
          <line class="cls-1" x1="27.06" y1="8.27" x2="32.36" y2="16.63"/>
          <line class="cls-1" x1="104.23" y1="40.44" x2="95.19" y2="44.46"/>
          <line class="cls-1" x1="95.4" y1="22.16" x2="88.01" y2="28.74"/>
          <line class="cls-1" x1="79.75" y1="9.55" x2="73.67" y2="17.35"/>
          <line class="cls-1" x1="52.7" y1="1.5" x2="52.71" y2="11.4"/>
          <path class="cls-4" d="M22.91,61.13c-1.16,1.65-3.34,7.34-.26,8.06s2.9-1.27,5.7-3.54-1.74-9.75-5.44-4.52Z"/>
        </g>
      </g>
    </g>
  </g>
</svg>