<svg width="247" height="408" viewBox="0 0 247 408" fill="none" xmlns="http://www.w3.org/2000/svg">
<path d="M83.4596 219L76.8196 180.49C73.6296 161.99 86.4096 144.53 105.01 141.98C121.97 139.65 137.91 150.61 141.82 167.27L144.77 179.82L118.43 224.94L83.4596 219Z" fill="#D1DAED" stroke="#3B65EE" stroke-width="2.5" stroke-miterlimit="10" stroke-linecap="round" stroke-linejoin="round"/>
<path d="M107.07 246.6H25.3896V310.92H107.07V246.6Z" fill="#B0C3EA" stroke="#3B65EE" stroke-width="2.5" stroke-miterlimit="10" stroke-linecap="round" stroke-linejoin="round"/>
<path d="M222.21 346.7H64.6196L88.2196 188.32C90.9396 170.04 106.64 156.51 125.12 156.51H207.51C230.18 156.51 247.54 176.66 244.2 199.07L222.21 346.7Z" fill="#D1DAED" stroke="#3B65EE" stroke-width="2.5" stroke-miterlimit="10" stroke-linecap="round" stroke-linejoin="round"/>
<path d="M222.21 346.7H178.93L207.27 156.51C230.06 156.51 247.53 176.77 244.17 199.31L222.21 346.7Z" fill="#E5ECF9" stroke="#3B65EE" stroke-width="2.5" stroke-miterlimit="10" stroke-linecap="round" stroke-linejoin="round"/>
<path d="M229.8 295.78H211.76V340.88H223.08L229.8 295.78Z" fill="#D1DAED" stroke="#3B65EE" stroke-width="2.5" stroke-miterlimit="10" stroke-linecap="round" stroke-linejoin="round"/>
<path d="M25.3898 310.92C38.3022 310.92 48.7698 296.521 48.7698 278.76C48.7698 260.999 38.3022 246.6 25.3898 246.6C12.4774 246.6 2.00977 260.999 2.00977 278.76C2.00977 296.521 12.4774 310.92 25.3898 310.92Z" fill="#B0C3EA" stroke="#3B65EE" stroke-width="2.5" stroke-miterlimit="10" stroke-linecap="round" stroke-linejoin="round"/>
<path d="M178.93 346.7H6.30957V328.28C6.30957 318.69 14.0796 310.92 23.6696 310.92H161.569C171.159 310.92 178.93 318.69 178.93 328.28V346.7V346.7Z" fill="white" stroke="#3B65EE" stroke-width="2.5" stroke-miterlimit="10" stroke-linecap="round" stroke-linejoin="round"/>
<path d="M164.849 346.7H6.31934V392.57H164.849V346.7Z" fill="white" stroke="#3B65EE" stroke-width="2.5" stroke-miterlimit="10" stroke-linecap="round" stroke-linejoin="round"/>
<path d="M232.609 346.7H97.0894V328.28C97.0894 318.69 104.859 310.92 114.449 310.92H215.259C224.849 310.92 232.619 318.69 232.619 328.28V346.7H232.609Z" fill="white" stroke="#3B65EE" stroke-width="2.5" stroke-miterlimit="10" stroke-linecap="round" stroke-linejoin="round"/>
<path d="M232.6 346.7H97.0796V392.57H232.6V346.7Z" fill="white" stroke="#3B65EE" stroke-width="2.5" stroke-miterlimit="10" stroke-linecap="round" stroke-linejoin="round"/>
<path d="M220.779 380.53C215.689 381.05 210.589 381.32 205.499 381.5C200.409 381.7 195.309 381.75 190.219 381.78C185.129 381.76 180.029 381.7 174.939 381.51C169.849 381.33 164.749 381.05 159.659 380.53C164.749 380.01 169.849 379.74 174.939 379.55C180.029 379.35 185.129 379.3 190.219 379.28C195.309 379.3 200.409 379.36 205.499 379.56C210.589 379.74 215.679 380.02 220.779 380.53Z" fill="#3B65EE"/>
<path d="M222.21 246.6H120.46V310.92H222.21C235.12 310.92 245.59 296.52 245.59 278.76C245.59 261 235.12 246.6 222.21 246.6Z" fill="white" stroke="#3B65EE" stroke-width="2.5" stroke-miterlimit="10" stroke-linecap="round" stroke-linejoin="round"/>
<path d="M120.46 310.92C133.372 310.92 143.84 296.521 143.84 278.76C143.84 260.999 133.372 246.6 120.46 246.6C107.547 246.6 97.0796 260.999 97.0796 278.76C97.0796 296.521 107.547 310.92 120.46 310.92Z" fill="white" stroke="#3B65EE" stroke-width="2.5" stroke-miterlimit="10" stroke-linecap="round" stroke-linejoin="round"/>
<path d="M15.8495 406.42C10.5795 406.42 6.30957 402.15 6.30957 396.88V392.56H25.3795V396.88C25.3895 402.15 21.1195 406.42 15.8495 406.42Z" fill="#E5ECF9" stroke="#3B65EE" stroke-width="2.5" stroke-miterlimit="10" stroke-linecap="round" stroke-linejoin="round"/>
<path d="M87.5498 406.42C82.2798 406.42 78.0098 402.15 78.0098 396.88V392.56H97.0797V396.88C97.0797 402.15 92.8098 406.42 87.5498 406.42Z" fill="#E5ECF9" stroke="#3B65EE" stroke-width="2.5" stroke-miterlimit="10" stroke-linecap="round" stroke-linejoin="round"/>
<path d="M223.07 406.42C217.8 406.42 213.53 402.15 213.53 396.88V392.56H232.6V396.88C232.61 402.15 228.34 406.42 223.07 406.42Z" fill="#D1DAED" stroke="#3B65EE" stroke-width="2.5" stroke-miterlimit="10" stroke-linecap="round" stroke-linejoin="round"/>
<path d="M106.62 406.42C101.35 406.42 97.0796 402.15 97.0796 396.88V392.56H116.15V396.88C116.16 402.15 111.89 406.42 106.62 406.42Z" fill="#B0C3EA" stroke="#3B65EE" stroke-width="2.5" stroke-miterlimit="10" stroke-linecap="round" stroke-linejoin="round"/>
<path d="M103.26 143.64L101.41 117.96L113.3 116.96L115.62 149.21" fill="#D1DAED"/>
<path d="M103.26 143.64L101.41 117.96L113.3 116.96L115.62 149.21" stroke="#3B65EE" stroke-width="2.5" stroke-miterlimit="10" stroke-linecap="round" stroke-linejoin="round"/>
<path d="M83.55 74.54C76.65 83.97 64.23 83.02 64.23 83.02C64.23 83.02 66.62 88.26 71.36 86.87C70.39 92.81 60.53 92.76 60.53 92.76C60.53 92.76 65.3201 96.67 70.3101 95.56C67.8001 98.67 59.46 99.12 59.46 99.12C59.46 99.12 65.2 105.99 73.53 102.35C71.85 106.35 63.51 108.58 63.51 108.58C63.51 108.58 74.14 119.81 87.79 114.62C101.45 109.43 90.45 65.11 83.55 74.54Z" fill="#D1DAED" stroke="#3B65EE" stroke-width="2.5" stroke-miterlimit="10" stroke-linecap="round" stroke-linejoin="round"/>
<path d="M156.82 92.87C156.82 92.87 149.49 91.81 146.28 89.37C151.92 89.64 156.62 85.44 156.62 85.44C156.62 85.44 145.8 86.91 143.87 81.7C149.27 82.26 149.61 75.3 149.61 75.3C149.61 75.3 143.35 78.72 135.69 76.17C135.77 74.31 135.76 72.64 135.65 71.03C133.87 46.24 114.74 36.65 106.04 34.41C106.75 28.75 107.89 17.61 106.07 16.77C103.62 15.63 102.78 25.8 102.78 25.8C102.78 25.8 101.79 1.71001 98.8299 1.92001C95.8699 2.13001 99.0699 27.11 99.0699 27.11C99.0699 27.11 94.59 12.59 92.04 13.3C89.89 13.9 96.02 30.74 98.02 36.06C91.09 41.07 77.3399 53.48 76.7199 73.45C76.5499 78.79 76.0999 85.35 78.3299 97.2C78.6499 99.11 79.0299 100.94 79.4699 102.69C79.4799 102.72 79.48 102.76 79.49 102.79C83.58 118.69 92.98 127.92 105.13 127.05C116.62 126.22 125.09 119.89 129.93 109.16C146.21 115.59 153.04 104.67 153.04 104.67C153.04 104.67 143.09 103.1 142.08 97.3C151.77 99.37 156.82 92.87 156.82 92.87Z" fill="#E5ECF9" stroke="#3B65EE" stroke-width="2.5" stroke-miterlimit="10" stroke-linecap="round" stroke-linejoin="round"/>
<path d="M135.54 69.71C136.32 76.65 134.81 82.27 134.81 82.27Z" fill="white"/>
<path d="M135.54 69.71C136.16 70.7 136.52 71.76 136.73 72.84C136.95 73.92 137 75.01 136.95 76.09C136.89 77.18 136.7 78.25 136.37 79.3C136.03 80.34 135.58 81.37 134.81 82.27C134.56 81.13 134.47 80.08 134.42 79.03C134.38 77.99 134.4 76.97 134.45 75.95C134.51 74.93 134.62 73.92 134.77 72.89C134.95 71.86 135.13 70.82 135.54 69.71Z" fill="#3B65EE"/>
<path d="M133.26 92.93C133.95 95.42 133.99 98.05 133.7 100.61C133.4 103.18 132.78 105.73 131.76 108.13C130.75 110.52 129.47 112.82 127.83 114.82C127.07 115.87 126.12 116.76 125.22 117.67C124.28 118.55 123.24 119.32 122.2 120.05C122.85 118.92 123.63 117.95 124.28 116.88C124.93 115.82 125.63 114.8 126.21 113.72C127.48 111.62 128.49 109.4 129.45 107.18C130.4 104.94 131.15 102.63 131.79 100.26C132.41 97.88 132.91 95.47 133.26 92.93Z" fill="#3B65EE"/>
<path d="M128.74 76.79C130.13 96.11 126.11 119.89 104.73 121.42C92.4601 122.3 84.4901 108.96 83.1001 89.64" stroke="#3B65EE" stroke-width="2.5" stroke-miterlimit="10" stroke-linecap="round" stroke-linejoin="round"/>
<path d="M92.4465 81.6083C93.5427 81.5296 94.2627 79.1169 94.0547 76.2195C93.8467 73.322 92.7895 71.0369 91.6933 71.1156C90.5971 71.1943 89.8771 73.607 90.0851 76.5045C90.2931 79.4019 91.3504 81.687 92.4465 81.6083Z" fill="#3B65EE"/>
<path d="M66.2898 58.13C74.1798 61.12 90.2398 67.76 96.9698 74.63C95.2398 61.96 79.3598 52.09 73.0998 48.66C72.6998 48.44 72.2998 48.96 72.6298 49.29C75.1398 51.77 79.2097 56.19 80.5697 59.91C74.9697 57.94 70.0398 57.1 66.6298 56.74C65.7798 56.64 65.4998 57.83 66.2898 58.13Z" fill="#D1DAED" stroke="#3B65EE" stroke-width="2.5" stroke-miterlimit="10" stroke-linecap="round" stroke-linejoin="round"/>
<path d="M109.366 80.399C110.463 80.3203 111.183 77.9076 110.975 75.0102C110.767 72.1127 109.709 69.8277 108.613 69.9063C107.517 69.985 106.797 72.3977 107.005 75.2951C107.213 78.1926 108.27 80.4777 109.366 80.399Z" fill="#3B65EE"/>
<path d="M132.03 53.41C124.65 57.5 109.71 66.36 104.02 74.12C103.92 61.33 118.22 49.3 123.93 45C124.3 44.72 124.77 45.19 124.49 45.56C122.36 48.37 118.96 53.33 118.15 57.2C123.41 54.45 128.17 52.91 131.5 52.07C132.32 51.86 132.78 53 132.03 53.41Z" fill="#D1DAED" stroke="#3B65EE" stroke-width="2.5" stroke-miterlimit="10" stroke-linecap="round" stroke-linejoin="round"/>
<path d="M96.98 74.63L98.09 81.73C98.27 82.85 97.57 83.93 96.47 84.22L92.77 85.21L99.39 89.91" stroke="#3B65EE" stroke-width="2.5" stroke-miterlimit="10" stroke-linecap="round" stroke-linejoin="round"/>
<path d="M98.97 93.43C99.7 97.01 100.02 100.53 100.47 104.03C100.69 105.78 100.86 107.52 101.13 109.26C101.4 111 101.68 112.72 102.11 114.5C100.92 113.08 100.18 111.35 99.61 109.62C99.04 107.87 98.7 106.07 98.48 104.27C98.26 102.47 98.21 100.65 98.27 98.84C98.34 97.02 98.52 95.21 98.97 93.43Z" fill="#3B65EE"/>
<path d="M161.16 156.47C161.16 156.47 134.46 179.22 142.06 181.26C149.66 183.3 163.63 161.26 163.63 161.26C163.63 161.26 147.93 218.31 155.24 218.31C162.55 218.31 168.61 163.56 168.61 163.56C168.61 163.56 168.19 210.73 175.46 208.53C182.72 206.32 172.78 161.93 172.78 161.93C172.78 161.93 189.52 189.66 194.86 185.62C200.2 181.57 172.02 145.54 155.22 145.54C148.88 145.54 139.14 156.48 139.14 156.48H161.16V156.47Z" fill="#E5ECF9" stroke="#3B65EE" stroke-width="2.5" stroke-miterlimit="10" stroke-linecap="round" stroke-linejoin="round"/>
<path d="M107.58 156.47C107.58 156.47 134.28 179.22 126.68 181.26C119.08 183.3 105.11 161.26 105.11 161.26C105.11 161.26 120.81 218.31 113.5 218.31C106.19 218.31 100.13 163.56 100.13 163.56C100.13 163.56 100.55 210.73 93.2796 208.53C86.0196 206.32 95.9595 161.93 95.9595 161.93C95.9595 161.93 79.2196 189.66 73.8796 185.62C68.5396 181.57 96.7196 145.54 113.52 145.54C119.86 145.54 129.6 156.48 129.6 156.48H107.58V156.47Z" fill="#E5ECF9" stroke="#3B65EE" stroke-width="2.5" stroke-miterlimit="10" stroke-linecap="round" stroke-linejoin="round"/>
</svg>
