<?xml version="1.0" encoding="UTF-8"?>
<svg xmlns="http://www.w3.org/2000/svg" xmlns:xlink="http://www.w3.org/1999/xlink" viewBox="0 0 147.25 143.78">
  <defs>
    <style>
      .cls-1, .cls-2, .cls-3 {
        fill: none;
      }

      .cls-4 {
        fill: #3b65ef;
      }

      .cls-5 {
        mix-blend-mode: multiply;
      }

      .cls-5, .cls-6 {
        fill: #3b65ee;
        opacity: .2;
      }

      .cls-2 {
        stroke-width: 6px;
      }

      .cls-2, .cls-3, .cls-7 {
        stroke: #3b65ef;
        stroke-miterlimit: 10;
      }

      .cls-3, .cls-7 {
        stroke-width: 3px;
      }

      .cls-8 {
        isolation: isolate;
      }

      .cls-7 {
        fill: #fff;
      }

      .cls-9 {
        clip-path: url(#clippath);
      }
    </style>
    <clipPath id="clippath">
      <path class="cls-1" d="M58.83,141.71s-46-2-49-42S37.1-2.6,63.83,1.71c31,5,53,62,44,104-8.49,39.6-49,36-49,36Z"/>
    </clipPath>
  </defs>
  <g class="cls-8">
    <g id="Layer_2" data-name="Layer 2">
      <g id="Layer_2-2" data-name="Layer 2">
        <g>
          <ellipse class="cls-6" cx="93.83" cy="135.71" rx="53.5" ry="7.5" transform="translate(-7.46 5.47) rotate(-3.21)"/>
          <path class="cls-7" d="M58.83,141.71s-46-2-49-42S37.1-2.6,63.83,1.71c31,5,53,62,44,104-8.49,39.6-49,36-49,36Z"/>
          <g class="cls-9">
            <g>
              <path class="cls-3" d="M19.83,33.71s39.08,18.52,85.04,1.76"/>
              <path class="cls-4" d="M.54,81.36c4.05-2.43,23.68-16.59,28.31-19.93.53-.38,1.27-.23,1.62.33l11.44,18.67c.39.64,1.3.72,1.8.16l14.74-16.49c.46-.52,1.28-.5,1.72.05l14.74,18.41c.47.58,1.36.56,1.79-.05l14.96-20.79c.39-.54,1.16-.63,1.66-.18l28.98,25.7c.32.29.45.73.34,1.15l-8.29,29.47c-.23.83-1.27,1.1-1.88.49l-13.73-13.73c-.48-.48-1.28-.43-1.69.11l-11.46,14.99c-.4.53-1.18.59-1.66.14l-14.83-13.9c-.44-.42-1.14-.4-1.57.03l-16.87,16.9c-.45.45-1.19.44-1.62-.03l-15.48-16.73c-.45-.49-1.22-.48-1.67.01l-19.61,21.95c-.61.68-1.73.39-1.94-.5L.03,82.57c-.11-.47.09-.96.51-1.21Z"/>
              <path class="cls-3" d="M28.83,15.71s26,13,71,1"/>
              <path class="cls-2" d="M23.31,23.8s33.52,15.91,78.52,1.91"/>
            </g>
          </g>
          <path class="cls-5" d="M97.5,118.24c-13.35,19.05-39.9,22.69-54.07,11.83-12.53-9.61,17.97-13.88,29.99-33.8s9.16-56.48,20.91-43.06c14,16,13,51,3.17,65.03Z"/>
        </g>
      </g>
    </g>
  </g>
</svg>