<?xml version="1.0" encoding="UTF-8"?>
<svg id="Layer_2" xmlns="http://www.w3.org/2000/svg" viewBox="0 0 426.37 314.97">
  <defs>
    <style>
      .cls-1 {
        stroke-width: 2.82px;
      }

      .cls-1, .cls-2 {
        stroke-miterlimit: 10;
      }

      .cls-1, .cls-2, .cls-3, .cls-4, .cls-5 {
        fill: none;
        stroke: #3b65ee;
      }

      .cls-2 {
        stroke-width: .56px;
      }

      .cls-6, .cls-7, .cls-8, .cls-9 {
        fill: #3b65ee;
      }

      .cls-10 {
        fill: #fff;
      }

      .cls-7 {
        opacity: .5;
      }

      .cls-8 {
        opacity: .1;
      }

      .cls-9 {
        opacity: .2;
      }

      .cls-3 {
        stroke-width: .85px;
      }

      .cls-3, .cls-4, .cls-5 {
        stroke-linecap: round;
        stroke-linejoin: round;
      }

      .cls-4 {
        stroke-width: .91px;
      }

      .cls-5 {
        stroke-width: 1.21px;
      }
    </style>
  </defs>
  <g id="Layer_8">
    <g>
      <path class="cls-8" d="M186.47,0c-42.71,0-77.33,34.62-77.33,77.33,0,21.48,8.76,40.9,22.89,54.92.48-2.69,1.38-7.5,1.38-7.5l-7.66-4.77,11.05-5.96,14.11-15.24,9.6-19.19,5.64-7.34,6.21-12.98,13.55-13.55,2.26,6.21,5.9,10.44,9.91,13.83,9.6,16.37,10.72,15.24,5.64,6.77,1.69,2.26,7.34,3.95,1.25.28-5.76,7.62,1.01,8.47c17.3-14.18,28.35-35.72,28.35-59.84C263.8,34.62,229.18,0,186.47,0Z"/>
      <path class="cls-9" d="M400.04,176.11l-5.28,1.41-3.26,1.41s-2.16-.77-3.77-1.27l.86-.14,4.38-3.39-1.79-1.13-4.58,2.03h-2.96l2.46-4.46,3.82-1.8,2.26-3.64h-1.1l-1.99,3.07-4.38,1.41-3.96,5.41h-6.1l-5.78,2.07h-3.04l.75-2.96,3.29-1.96,1.01-1.71.59-2.26h-.59l-1.59,2.82-3.5,1.14s-2.32,3.24-3.77,4.93h-4.9l-4.25,1.3.07-.31-4.2-7.87,1.71-8.73,7.47-6.77,2.99-7.39h-2.2l-3.78,5.64-3.85,1.5-.31-2.06,2.12-2.26-.25-3.95h-.81l-.53,3.39-2.12,3.39-1.06,2.64-1.36.53-5.51,6.12-6.59-2.63-2.09-1.48-3.74-10.82-9.82-4.49-4.08-5.12v1.71l4.08,7.9,6.24,1.54,2.79,11.4,5.79,3.69.84,1.18,8.52,7.87,2.39,16.37-5.51,9.69-12.83-16.65-2.95-1c-.64-1.6-1.73-3.89-1.73-3.89v-3.25l3.19-2.68h-1.48l-3.21,2.08-1.58-.52-3.63.7.54.56h3.09l1.32,2.54-.43,1.14-1.54,1.46-7.66-2.6-8.83-16.69-10.8-6.33,1.37,2.7,8.56,8.5,8.55,18.34,9.01,5.9,9.23,12,11.24,11.53.72,5.26-4.78,10.45-1.63,1.13-4.95-4.21-5.21-.34-3.16-2.26h-2.31l2.11,2.6,6.97,4.12,2.2,3.11-6.46,4.48-4.4,16.2,3.95,12.98,4.52.56,21.45-1.13,15.81,1.13,2.82-2.26,1.69-.56,3.39,1.69h.56c-.07-.85-6.68-29.45-6.68-29.45l-10.87-15.14,3.48-12.98,8.78-6.91,9.22-1.56,3.33-5.07-2.19,1.19-3.99,2.63h-9.37l-1.99,1.58-1.59-1.32,1.1-2.74v-3.61h-.65l-.45,2.27-1.59,3.65s-.5,2.86-.77,4.86l-2.42,1.91-5.46,8.72-1.52-17.96,1.9-8.98c3.04-2.05,8.86-6.05,8.86-6.05h13.95l5.79-1.75,1.18,1.05,5.28-.42,4.88,1.98,3.39-1.98,4.18-2.26,2.99-.56-1.49-.85Z"/>
      <polygon class="cls-10" points="299.07 165.14 306.77 165.69 311.93 173.01 313.95 188.71 306.51 184.64 299.07 165.14"/>
      <path class="cls-3" d="M199.45,91.56c0,8.31-6.95,15.05-15.52,15.05s-15.52-6.74-15.52-15.05,6.95-16.46,15.52-16.46,15.52,8.15,15.52,16.46Z"/>
      <path class="cls-3" d="M197.83,91.49c0,7.44-6.22,13.48-13.9,13.48s-13.9-6.04-13.9-13.48,6.22-14.74,13.9-14.74,13.9,7.3,13.9,14.74Z"/>
      <polyline class="cls-5" points="264.54 266.15 252.64 230.45 244.57 201.53 234.17 128.42 240.38 121.08 231.35 117.69 224.01 110.35 213 94.98 203.19 77.57 192.58 62.91 184.49 49.31 172.35 62.91 166.31 74.81 160.29 83.52 151.76 99.63 137.46 115.13 125.56 119.86 133.69 124.91 128.75 147.87 123.44 166.42 119.4 189.38 111.11 224.94 98.13 266.92"/>
      <path class="cls-3" d="M139.34,139.43c.68,1.03,46.57,23.63,46.57,23.63l-32.87,15.75-13.7-39.38Z"/>
      <path class="cls-6" d="M143.77,144.17c5.2,2.65,13.1,6.36,18.39,9,5.92,2.96,12.24,6.46,18.16,9.39.12.06.13.25,0,.31-2.13,1.05-4.28,2.07-6.4,3.15-6.16,3.14-12.96,6.54-19.15,9.55-.31.15-.69,0-.8-.33-3.67-10.15-6.78-20.98-10.2-31.06h0ZM143.82,144.27c3.71,10.48,7.76,20.18,11.24,30.58,0,0-.8-.33-.8-.33,6.21-2.92,13.13-6.12,19.44-8.94,2.17-.97,4.31-2.01,6.46-3.01v.31c-4.41-2.16-9.4-4.44-13.87-6.54-5.97-2.88-12.35-6.19-18.16-9.39-.69-.39-2.66-1.53-3.32-1.93-.19-.14-.9-.51-1-.73h0Z"/>
      <path class="cls-6" d="M154.07,149.67c2.69,7.33,4.83,14.86,6.41,22.51-2.69-7.33-4.83-14.86-6.41-22.51h0Z"/>
      <path class="cls-6" d="M164.61,170.19c-2.39-6.14-5.03-12.24-6.76-18.62,2.82,5.96,5.47,12.14,6.76,18.62h0Z"/>
      <path class="cls-6" d="M149.6,160.92c2.39-.89,4.87-1.21,7.4-.94-2.39.89-4.87,1.2-7.4.94h0Z"/>
      <path class="cls-6" d="M150.55,163.66c2.29-.85,4.64-1.45,7.12-1.34-2.22,1.03-4.68,1.64-7.12,1.34h0Z"/>
      <path class="cls-6" d="M160.82,159.35c3.31-.98,6.71-1.4,10.16-1.22-3.31.99-6.71,1.39-10.16,1.22h0Z"/>
      <path class="cls-6" d="M161.62,161.49c4.04-1.19,8.17-1.82,12.38-1.86-4.04,1.2-8.17,1.82-12.38,1.86h0Z"/>
      <path class="cls-3" d="M227.68,133.22c-.64.96-43.75,22.19-43.75,22.19l30.88,14.8,12.87-36.99Z"/>
      <path class="cls-6" d="M223.47,137.77c-.58.53-1.3.9-1.97,1.3-1.28.78-4.93,2.77-6.3,3.51-8.35,4.57-17.3,8.55-25.87,12.66,0,0,0-.31,0-.31,2.03.94,4.03,1.92,6.07,2.83,5.94,2.64,12.42,5.63,18.27,8.38,0,0-.8.33-.8.33,3.26-9.77,7.1-18.85,10.59-28.71h0ZM223.52,137.67c-3.2,9.45-6.09,19.66-9.55,29.19-.11.33-.49.49-.8.33-5.8-2.82-12.21-6.03-17.98-8.99-1.99-1.02-4.01-1.97-6.01-2.96-.12-.06-.13-.25,0-.31,5.55-2.75,11.48-6.06,17.05-8.84,4.99-2.48,12.36-5.94,17.29-8.43h0Z"/>
      <path class="cls-6" d="M213.84,142.84c-1.45,7.19-3.46,14.27-6.02,21.14,1.44-7.19,3.46-14.27,6.02-21.14h0Z"/>
      <path class="cls-6" d="M203.93,162.12c1.18-6.1,3.67-11.91,6.35-17.49-1.6,6-4.08,11.73-6.35,17.49h0Z"/>
      <path class="cls-6" d="M218.03,153.41c-2.39.28-4.72,0-6.96-.88,2.39-.29,4.72.01,6.96.88h0Z"/>
      <path class="cls-6" d="M217.14,155.98c-2.29.32-4.61-.26-6.69-1.26,2.33-.14,4.54.42,6.69,1.26h0Z"/>
      <path class="cls-6" d="M207.5,151.93c-3.25.19-6.44-.19-9.55-1.15,3.25-.2,6.44.19,9.55,1.15h0Z"/>
      <path class="cls-6" d="M206.75,153.94c-3.96,0-7.85-.59-11.63-1.75,3.96,0,7.84.59,11.63,1.75h0Z"/>
      <line class="cls-3" x1="182.41" y1="76.84" x2="181.45" y2="104.75"/>
      <line class="cls-3" x1="184.95" y1="77.06" x2="184.95" y2="104.75"/>
      <line class="cls-3" x1="184.95" y1="87.99" x2="197.49" y2="88.44"/>
      <line class="cls-3" x1="197.77" y1="90.22" x2="184.95" y2="90.22"/>
      <line class="cls-3" x1="181.93" y1="87.99" x2="170.55" y2="87.74"/>
      <line class="cls-3" x1="181.93" y1="90.22" x2="170.07" y2="90.5"/>
      <path class="cls-6" d="M182.99,190.55c-2.12-.19-6.97,1.78-6.57-1.94.08-.69-.1-1.49.37-2.1.92-1.19,2.77-.72,4.1-.91,0,0,1.39-.04,1.39-.04.49,0,1.12-.07,1.56.19,1.14.53,1.14,1.81.94,2.85.03.99-.74,2.01-1.79,1.96h0ZM182.99,190.47c.45,0,.89-.25,1.11-.63.36-.57.07-1.29.05-1.95-.02-.59-.15-1.11-.69-1.34-.27-.16-.86-.1-1.17-.12,0,0-1.39-.04-1.39-.04-.93-.02-1.85-.09-2.78-.17-.39-.03-.82.12-1.09.45-.29.33-.32.76-.29,1.23.03.81,0,1.83.87,2.13,1.77.14,3.6.35,5.38.43h0Z"/>
      <path class="cls-6" d="M161.3,198.16c-1.79,1.15-4.4,5.69-6.38,2.5-.36-.59-.99-1.11-1-1.89,0-1.51,1.74-2.27,2.67-3.23,0,0,1.07-.89,1.07-.89.38-.3.84-.74,1.35-.81,1.23-.28,2.01.73,2.49,1.68.63.76.65,2.04-.21,2.65h0ZM161.25,198.1c.35-.28.55-.74.49-1.17-.06-.67-.74-1.07-1.16-1.56-.38-.46-.8-.78-1.37-.63-.31.04-.74.45-1,.63,0,0-1.12.82-1.12.82-2.23,1.72-4.41,2.03-1.42,4.73.76.54,1.5-.01,2.09-.51,1.12-.83,2.41-1.43,3.49-2.3h0Z"/>
      <path class="cls-6" d="M146.29,203.53c-2.12-.19-6.97,1.78-6.57-1.94.08-.69-.1-1.49.37-2.1.92-1.19,2.77-.72,4.1-.91,0,0,1.39-.04,1.39-.04.49,0,1.12-.07,1.56.19,1.14.53,1.14,1.81.94,2.85.03.99-.74,2.01-1.79,1.96h0ZM146.29,203.45c.45,0,.89-.25,1.11-.63.36-.57.07-1.29.05-1.95-.02-.59-.15-1.1-.69-1.34-.27-.16-.86-.1-1.17-.12,0,0-1.39-.04-1.39-.04-.93-.02-1.85-.09-2.78-.17-.39-.03-.82.12-1.09.45-.29.33-.32.76-.29,1.23.03.81,0,1.83.87,2.13,1.77.14,3.6.35,5.38.43h0Z"/>
      <path class="cls-6" d="M228.99,161.48c-2.12-.19-6.97,1.78-6.57-1.94.08-.69-.1-1.49.37-2.1.92-1.19,2.77-.72,4.1-.91,0,0,1.39-.04,1.39-.04.49,0,1.12-.07,1.56.19,1.14.53,1.14,1.81.94,2.85.03.99-.74,2.01-1.79,1.96h0ZM228.99,161.4c.45,0,.89-.25,1.11-.63.36-.57.07-1.29.05-1.95-.02-.59-.15-1.1-.69-1.34-.27-.16-.86-.1-1.17-.12,0,0-1.39-.04-1.39-.04-.93-.02-1.85-.09-2.78-.17-.39-.03-.82.12-1.09.45-.29.33-.32.76-.29,1.23.03.81,0,1.83.87,2.13,1.77.14,3.6.35,5.38.43h0Z"/>
      <path class="cls-6" d="M236.89,226.4c-2.12-.19-6.97,1.78-6.57-1.94.08-.69-.1-1.49.37-2.1.92-1.19,2.77-.72,4.1-.91,0,0,1.39-.04,1.39-.04.49,0,1.12-.07,1.56.19,1.14.53,1.14,1.81.94,2.85.03.99-.74,2.01-1.79,1.96h0ZM236.89,226.31c.45,0,.89-.25,1.11-.63.36-.57.07-1.29.05-1.95-.02-.59-.15-1.1-.69-1.34-.27-.16-.86-.1-1.17-.12,0,0-1.39-.04-1.39-.04-.93-.02-1.85-.09-2.78-.17-.39-.03-.82.12-1.09.45-.29.33-.32.76-.29,1.23.03.81,0,1.83.87,2.13,1.77.14,3.6.35,5.38.43h0Z"/>
      <path class="cls-6" d="M243.67,220.19c-2.12-.19-6.97,1.78-6.57-1.94.08-.69-.1-1.49.37-2.1.92-1.19,2.77-.72,4.1-.91,0,0,1.39-.04,1.39-.04.49,0,1.12-.07,1.56.19,1.14.53,1.14,1.81.94,2.85.03.99-.74,2.01-1.79,1.96h0ZM243.67,220.1c.45,0,.89-.25,1.11-.63.36-.57.07-1.29.05-1.95-.02-.59-.15-1.11-.69-1.34-.27-.16-.86-.1-1.17-.12,0,0-1.39-.04-1.39-.04-.93-.02-1.85-.09-2.78-.17-.39-.03-.82.12-1.09.45-.29.33-.32.76-.29,1.23.03.81,0,1.83.87,2.13,1.77.14,3.6.35,5.38.43h0Z"/>
      <path class="cls-6" d="M137.55,234.3c-2.12-.19-6.97,1.78-6.57-1.94.08-.69-.1-1.49.37-2.1.92-1.19,2.77-.72,4.1-.91,0,0,1.39-.04,1.39-.04.49,0,1.12-.07,1.56.19,1.14.53,1.14,1.81.94,2.85.03.99-.74,2.01-1.79,1.96h0ZM137.55,234.21c.45,0,.89-.25,1.11-.63.36-.57.07-1.29.05-1.95-.02-.59-.15-1.1-.69-1.34-.27-.16-.86-.1-1.17-.12,0,0-1.39-.04-1.39-.04-.93-.02-1.85-.09-2.78-.17-.39-.03-.82.12-1.09.45-.29.33-.32.76-.29,1.23.03.81,0,1.83.87,2.13,1.77.14,3.6.35,5.38.43h0Z"/>
      <path class="cls-6" d="M125.69,234.3c-2.12-.19-6.97,1.78-6.57-1.94.08-.69-.1-1.49.37-2.1.92-1.19,2.77-.72,4.1-.91,0,0,1.39-.04,1.39-.04.49,0,1.12-.07,1.56.19,1.14.53,1.14,1.81.94,2.85.03.99-.74,2.01-1.79,1.96h0ZM125.69,234.21c.45,0,.89-.25,1.11-.63.36-.57.07-1.29.05-1.95-.02-.59-.15-1.1-.69-1.34-.27-.16-.86-.1-1.17-.12,0,0-1.39-.04-1.39-.04-.93-.02-1.85-.09-2.78-.17-.39-.03-.82.12-1.09.45-.29.33-.32.76-.29,1.23.03.81,0,1.83.87,2.13,1.77.14,3.6.35,5.38.43h0Z"/>
      <path class="cls-6" d="M167.44,193.54c-1.82.77-4.43,4.41-6.31,2.25-.27-.39-.44-.89-.66-1.27-.6-.79-.59-2.1.35-2.69,1.09-.78,2.36-1.56,3.51-2.27.42-.24.93-.62,1.45-.62,1.25-.11,1.89,1,2.24,2,.52.84.36,2.11-.57,2.59h0ZM167.4,193.46c.39-.23.65-.66.65-1.1.03-.67-.59-1.16-.93-1.71-.31-.5-.68-.88-1.27-.82-.31,0-.8.35-1.07.48-1.19.64-2.49,1.34-3.72,1.9-.84.38-.93,1.45-.35,2.15.43.69.91,1.59,1.82,1.41,1.61-.77,3.29-1.5,4.88-2.32h0Z"/>
      <path class="cls-6" d="M175.08,190.88c-1.95.33-5.33,3.27-6.66.74-.17-.44-.22-.96-.35-1.39-.4-.91-.09-2.18.96-2.53,1.24-.51,2.65-.97,3.94-1.4.47-.14,1.05-.39,1.55-.27,1.25.18,1.61,1.41,1.72,2.46.31.94-.13,2.14-1.15,2.39h0ZM175.05,190.8c.43-.14.79-.49.88-.92.18-.65-.3-1.26-.51-1.88-.19-.56-.46-1.01-1.05-1.09-.31-.08-.86.16-1.16.22,0,0-1.34.36-1.34.36-.89.24-1.8.45-2.71.64-.38.08-.76.35-.91.75-.19.4-.09.82.08,1.26.26.77.52,1.76,1.44,1.79,1.74-.37,3.55-.7,5.28-1.14h0Z"/>
      <path class="cls-6" d="M199.9,198.1c1.27,1.01,2.8,1.68,4.05,2.72.43.35,1.05.42,1.54.08,2.99-2.7.81-3.02-1.42-4.73,0,0-1.12-.82-1.12-.82-.26-.17-.68-.59-1-.63-.84-.23-1.31.63-1.86,1.13-.76.57-.96,1.61-.18,2.24h0ZM199.85,198.16c-.85-.61-.84-1.88-.21-2.65.48-.94,1.26-1.96,2.49-1.68.51.07.97.51,1.35.81,0,0,1.07.89,1.07.89.93.96,2.68,1.72,2.67,3.23-.01.77-.64,1.3-1,1.89-1.98,3.19-4.58-1.35-6.38-2.5h0Z"/>
      <path class="cls-6" d="M193.75,193.46c1.59.82,3.27,1.56,4.88,2.32.91.18,1.38-.72,1.82-1.41.26-.4.46-.78.37-1.21-.06-.42-.36-.77-.71-.94-.84-.39-1.68-.8-2.49-1.25l-1.23-.66c-.28-.13-.76-.49-1.07-.48-.86-.11-1.21.81-1.69,1.38-.67.66-.73,1.73.13,2.24h0ZM193.71,193.54c-.93-.48-1.09-1.75-.57-2.59.35-1,.98-2.11,2.24-2,.51,0,1.03.37,1.45.62,1.15.71,2.41,1.48,3.51,2.27.94.59.95,1.9.35,2.69-.23.39-.39.89-.66,1.27-1.88,2.16-4.49-1.49-6.31-2.25h0Z"/>
      <path class="cls-6" d="M186.1,190.8c1.73.44,3.54.76,5.28,1.14.93-.03,1.18-1.02,1.44-1.79.41-.82.08-1.83-.83-2.01-1.32-.26-2.75-.64-4.06-1-.3-.07-.85-.3-1.16-.22-.86.09-1,1.07-1.33,1.73-.5.8-.31,1.85.64,2.15h0ZM186.08,190.88c-1.02-.26-1.46-1.45-1.15-2.39.1-1.05.47-2.28,1.72-2.46.5-.12,1.09.13,1.55.27,1.28.43,2.69.89,3.94,1.4,1.05.36,1.37,1.63.96,2.53-.14.43-.18.95-.35,1.39-1.33,2.54-4.71-.41-6.66-.74h0Z"/>
      <line class="cls-3" x1="155.71" y1="201.38" x2="141.6" y2="266.15"/>
      <line class="cls-3" x1="205.94" y1="201.38" x2="220.06" y2="266.15"/>
      <path class="cls-6" d="M180.59,190.51c.48,9.46.33,18.91.1,28.36.09,15.76.65,31.52-.1,47.27,0,.05-.08.05-.08,0-.75-15.76-.19-31.51-.1-47.27-.14-9.37-.53-19.25.19-28.36h0Z"/>
      <path class="cls-6" d="M186.98,191.1c.57,6.29,1.28,12.59,1.25,18.91,0,0-.16,6.32-.16,6.32.47,2.3,1.09,5.06,1.66,7.5-.15,2.48-.24,5.02-.36,7.51.06,2.73.12,7.76.14,10.53-.19,6.53.73,13.11,1.34,19.69,0,0,.26,4.59.26,4.59,0,.02-.02.04-.04.04-.02,0-.04-.02-.04-.04l-.6-4.55c-.97-6.49-2.08-13.18-1.79-19.74.07-3.48-.02-8.63.28-12.05.17-1.94.37-4.19.51-5.97-.54-2.52-1.13-5.02-1.75-7.52-.08-2.15-.15-7.37-.22-9.46-.2-5.17-.69-10.82-.49-15.77h0Z"/>
      <path class="cls-6" d="M196.93,266.15c-.88-6.18-1.55-12.39-2.06-18.61.29-5.59.58-11.18.55-16.78-1-9.17-2.16-18.6-1.67-27.92-.11-1.33-.54-5.75-.61-7.22,0,0-.02-2.43-.02-2.43,0-.02.02-.04.04-.04.02,0,.04.02.04.04,0,0,.22,2.41.22,2.41.22,1.54.79,5.59,1.01,7.21.07,3.24.1,6.49.1,9.73.52,5.88.95,12.19,1.31,18.22-.3,5.52-.3,11.37-.27,16.74.57,6.13,1.35,12.74,1.37,18.66h0Z"/>
      <path class="cls-6" d="M198.01,195.94c2.25,10.51,3.24,21.21,4.91,31.82.17,2.58.53,6.18.62,8.73,0,0,.1,8.75.1,8.75,1.21,6.43,2.29,14.11,2.88,20.92,0,.05-.08.06-.08.01-1.24-6.84-2.42-14-3.69-20.85.01-3.13.16-10.14-.02-13.17,0,0-.13-4.36-.13-4.36-.35-2.57-.76-5.32-1.22-7.94-1.38-7.84-2.85-16.18-3.37-23.9h0Z"/>
      <path class="cls-6" d="M214.3,266.16c-1.73-7.03-3.11-14.13-4.2-21.28-1.29-7.11-2.55-14.23-3.44-21.4-.56-4.8-1.46-9.54-2.16-14.31,0,0-.17-3.81-.17-3.81l-.12-3.81s.02-.04.04-.04c.02,0,.04.02.04.04l.45,3.79c.49,5.99,2.27,11.97,2.76,18.03.54,4.23,1.02,10.22,1.6,14.37,1.68,9.4,4.33,19.13,5.2,28.44h0Z"/>
      <path class="cls-6" d="M175.25,190.8c-.27,10.14-1.44,20.69-2.48,30.76.06,7.47.32,15.39.32,22.92-.56,3.05-1.82,9.1-2.46,12.13-.31,2.99-.7,6.41-1.1,9.54-.13-2.91.32-6.49.44-9.63.52-3.05,1.65-9.1,2.24-12.13,0-2.91.04-8.18.12-11.38.06-3.83.18-7.65.19-11.48.33-3.71.56-7.81.79-11.55.15-2.52.75-8.96.99-11.53.34-2.48.41-5.45.96-7.66h0Z"/>
      <path class="cls-6" d="M162.39,266.14c.28-6.09.4-12.29,1.39-18.32.99-5.87,2.12-12.28,2.85-18.15.5-3.95,1.09-8.38,1.64-12.07-.23-6.9.32-13.76,1.02-20.62,0-.02.87-4.21.87-4.23,0-.05.09-.04.08.01,0,0-.55,4.33-.54,4.24-.3,6.89-.67,13.76-.58,20.65-1.21,8.07-2.93,16.07-3.91,24.17,0,0-.72,6.07-.72,6.07-.95,5.97-1.02,12.52-2.09,18.23h0Z"/>
      <path class="cls-6" d="M165.28,194.76c-1.09,8.22-2.58,16.41-4.29,24.53-.74,5.64-1.06,11.33-1.55,17.01-1.23,6.97-3.05,15.55-4.77,22.42-.63,2.39-1.06,5.31-1.84,7.42,1.48-9.9,3.9-20.15,5.92-29.98.94-6.73,1.48-13.97,2.48-20.81,1.11-6.82,2.32-14.14,4.06-20.59h0Z"/>
      <path class="cls-6" d="M147.09,266.14c1.31-8.09,3.06-16.09,5.06-24.04,1.76-7.87,3.37-16.37,5.37-23.9.27-3.33.89-10,1.26-13.32.67-2.12,1.24-4.37,2.02-6.41-.36,2.16-.98,4.38-1.47,6.56-.15,3.04-.65,10.02-.92,13.24-1.01,3.99-2.06,7.97-3.15,11.94-3.26,11.77-4.62,24.47-8.16,35.92h0Z"/>
      <path class="cls-6" d="M125.56,157.61c-24.78,3.25-51.76,6.48-76.48,9.36,0,0,.35-.18.35-.18,0,0-3.37,3.77-3.37,3.77,0,0-.51-.93-.51-.93l3.39-.56s.06,0,.09,0h2.82c-.45.05,7.01-.85,6.85-.84,4.54-.54,9.31-.82,13.84-1.55,0,0,7.02-.94,6.86-.91,0,0,5.09-1.09,5.09-1.09.03,0,.06-.01.09-.01-.08,0,7.54.05,7.29.06,7.13-.84,17.81-1.97,24.86-2.56.99-.16,7-1.22,7.98-1.21-1.04.03-6.78,1.21-7.94,1.43-7.04.81-17.69,2.17-24.81,3.09-.03,0-7.34.06-7.38.06,0,0,.09-.01.09-.01-.05,0-5.06,1.17-5.11,1.17-3.98.51-9.87,1.46-13.82,1.86-4.09.31-9.79,1.09-13.9,1.61,0,0-2.82,0-2.82,0,.42-.05-3.37.57-3.29.57-.5.1-.87-.56-.51-.93,0,0,3.38-3.76,3.38-3.76.09-.1.22-.17.35-.18,24.71-2.81,51.77-5.8,76.61-8.26h0Z"/>
      <polyline class="cls-3" points="49.02 169.62 45.64 195.94 37.73 204.62 35.47 205.75 36.6 206.88 82.89 200.67 107.71 195.94 118.15 194.76"/>
      <path class="cls-3" d="M37.53,206.88l.76,3.39s0,1.69,2.26,1.69,2.26-2.26,2.26-2.26c0,0,1.13,2.26,3.95,1.69s3.39-2.82,3.39-2.82c0,0,1.69,2.26,4.52,1.69,2.82-.56,3.39-2.82,3.39-2.82,0,0,1.13,1.69,5.08,1.13,3.95-.56,3.95-2.82,3.95-2.82,0,0,1.69,3.39,5.08,2.82,3.39-.56,3.39-3.39,3.39-3.39,0,0,2.76,2.26,5.33,1.69,2.57-.56,3.7-2.82,3.7-2.82,0,0,.56,2.26,2.82,2.26s2.82-2.82,2.82-2.82c0,0,1.13,2.82,5.08,2.26,3.95-.56,5.08-3.95,5.08-3.95,0,0,0,2.26,3.39,2.26s5.64-5.08,5.64-5.08c0,0,.56,3.39,3.39,3.39s4.45-3.79,4.45-3.79"/>
      <polyline class="cls-3" points="48.43 210.75 45.64 241.71 39.71 266.92"/>
      <path class="cls-6" d="M118.15,217.06c3.98.07,8.41.38,12.13.71,4.99-.3,9.99-.61,14.98-.15-4.99.25-9.96.71-14.95.96-4.07-.4-8.13-.85-12.17-1.52h0Z"/>
      <path class="cls-6" d="M125.56,213.02c2,0,4.4.22,6.15.44,2.88-.03,5.76.02,8.63.41-2.87.39-5.75.44-8.64.41-2.06-.31-4.11-.7-6.14-1.26h0Z"/>
      <path class="cls-6" d="M204.24,179.87c10.41-.55,20.88-.59,31.29-.04-10.43.59-20.86.62-31.29.04h0Z"/>
      <path class="cls-6" d="M211.08,183.48c2.98-.63,5.98-1.1,9-1.47,3.97.26,8,.38,11.85,1.47-3.83-.37-8.22-.33-11.82-.65-3,.33-6.01.58-9.03.65h0Z"/>
      <path class="cls-6" d="M230.86,239.72c2.45.33,5.66,1.02,7.65,1.57,2.84,0,5.67.08,8.5.42-2.86.33-5.73.45-8.61.41-2.55-.68-5.08-1.43-7.54-2.4h0Z"/>
      <path class="cls-6" d="M225.7,235.1c3.59.47,8.37,1.4,11.25,2.23,2.35-.39,4.71-.73,7.09-.92-2.34.67-4.7,1.3-7.09,1.71-3.8-.83-7.56-1.76-11.24-3.02h0Z"/>
      <polyline class="cls-3" points="125.56 119.86 160.79 118.88 185.62 118.88 218.03 119.86 240.38 121.08"/>
      <path class="cls-3" d="M133.69,124.91s.95,4.07,1.89,4.35,3.98-4.35,3.98-4.35c0,0,2.09,4.07,3.19,4.35s5.05-4.23,5.05-4.23c0,0,2.12,3.95,3.04,4.23s5.54-5.1,5.54-5.1c0,0,1.63,4.82,3.58,5.1,1.95.28,5.91-5.36,5.91-5.36,0,0,2.16,4.85,3.62,4.96,1.46.12,5.66-3.48,5.82-4.22s1.29.95,3.54,2.65c2.26,1.69,6.21-2.82,6.77-3.39s4.52,4.52,6.77,4.52,6.21-5.08,6.21-5.08c0,0,1.13,3.6,3.1,3.78s5.79-3.78,5.79-3.78c0,0,2.96,5.08,5.78,5.08s6.21-4.52,6.21-4.52c0,0,2.26,5.08,3.39,4.52s3.95-3.95,3.95-3.95c0,0,1.69,3.39,2.82,3.39s3.95-3.39,3.95-3.39c0,0-1.13,2.82.56,3.95"/>
      <path class="cls-6" d="M56.36,173.01c.04,2.28-.02,5.06,1.61,6.81,1.93,1.64,4.38.06,5.22-2.1.66-1.46,1.04-3.07,1.31-4.7.09,1.66-.13,3.34-.7,4.95-.77,2.7-4.03,4.61-6.38,2.43-1.76-2.01-1.51-4.98-1.05-7.38h0Z"/>
      <path class="cls-6" d="M64.83,173.01c.04,2.28-.02,5.06,1.61,6.81,1.93,1.64,4.38.06,5.22-2.1.66-1.46,1.04-3.07,1.31-4.7.09,1.66-.13,3.34-.7,4.95-.77,2.7-4.03,4.61-6.38,2.43-1.76-2.01-1.51-4.98-1.05-7.38h0Z"/>
      <path class="cls-6" d="M60.59,181.2c.09,1.06.26,2.13.71,2.99.43.89,1.34,1.23,2.23,1.06.86-.16,1.48-.98,1.9-1.9.41-.93.69-1.95.92-3,.15,1.62-.07,3.4-1.1,4.76-.77.98-2.24,1.31-3.37.72-1.62-.89-1.66-3.1-1.29-4.63h0Z"/>
      <path class="cls-6" d="M68.74,185.43c.11,1.56.1,3.38,1.18,4.53,1.24,1.01,2.77.03,3.35-1.38.46-.96.75-2.04.99-3.15.14,1.7-.08,3.63-1.31,4.97-.9.97-2.62,1.12-3.59.13-1.23-1.41-1.03-3.46-.62-5.1h0Z"/>
      <path class="cls-6" d="M72.45,176.68c.08.91.34,1.85.94,2.33.56.43,1.52.52,2.1.1,1.3-1.01,1.6-3.1,2.04-4.69.18,1.89.08,4.06-1.57,5.39-2.28,1.29-4.29-.88-3.51-3.13h0Z"/>
      <path class="cls-3" d="M200.81,99.63s-.66,4.64,1.99,4.64,2.79-4.64,2.79-4.64"/>
      <path class="cls-3" d="M205.79,99.63s-.66,4.64,1.99,4.64,2.79-4.64,2.79-4.64"/>
      <path class="cls-3" d="M203.4,104.43s-.41,2.66,1.39,2.66,1.89-3.15,1.89-3.15"/>
      <path class="cls-3" d="M208.08,106.92s-.45,3.15,1.35,3.15,1.89-3.15,1.89-3.15"/>
      <path class="cls-3" d="M210.4,100.46s-.4,3.15,1.19,3.15,1.66-3.15,1.66-3.15"/>
      <path class="cls-3" d="M190.03,62.37s.66,4.64-1.99,4.64-2.79-4.64-2.79-4.64"/>
      <path class="cls-3" d="M185.05,62.37s.66,4.64-1.99,4.64-2.79-4.64-2.79-4.64"/>
      <path class="cls-3" d="M188.16,67.17s-.31,2.66-2.11,2.66c-1.8,0-1.89-3.15-1.89-3.15"/>
      <path class="cls-3" d="M180.44,63.2s.4,3.15-1.19,3.15-1.66-3.15-1.66-3.15"/>
      <path class="cls-6" d="M100.95,170.19c.04,2.28-.02,5.06,1.61,6.81,1.93,1.64,4.38.06,5.22-2.1.66-1.46,1.04-3.07,1.31-4.7.09,1.66-.13,3.34-.7,4.95-.77,2.7-4.03,4.61-6.38,2.43-1.77-2.01-1.51-4.98-1.05-7.38h0Z"/>
      <path class="cls-6" d="M96.96,177.53c.11,1.56.1,3.38,1.18,4.53,1.24,1.01,2.77.03,3.35-1.38.46-.96.75-2.04.99-3.15.14,1.7-.08,3.63-1.31,4.97-.9.97-2.62,1.12-3.59.13-1.23-1.41-1.03-3.46-.62-5.1h0Z"/>
      <path class="cls-6" d="M104.86,182.61c.11,1.56.1,3.38,1.18,4.53,1.24,1.01,2.77.03,3.35-1.38.46-.96.75-2.04.99-3.15.14,1.7-.08,3.63-1.31,4.97-.9.97-2.62,1.12-3.59.13-1.23-1.41-1.03-3.46-.62-5.1h0Z"/>
      <path class="cls-6" d="M108.57,173.86c.08.91.34,1.85.94,2.33.56.43,1.52.52,2.1.1,1.3-1.01,1.6-3.1,2.04-4.69.18,1.89.08,4.06-1.57,5.39-2.28,1.28-4.29-.88-3.51-3.13h0Z"/>
      <path class="cls-3" d="M158.11,100.19s-.7,4.89,2.1,4.89,2.94-4.89,2.94-4.89"/>
      <path class="cls-3" d="M155.63,104.74s-.47,3.32,1.42,3.32,1.99-3.32,1.99-3.32"/>
      <path class="cls-3" d="M160.53,107.88s-.47,3.32,1.42,3.32,1.99-3.32,1.99-3.32"/>
      <path class="cls-3" d="M162.76,102.73s-.21,1.65,1.45,1.65,1.75-3.32,1.75-3.32"/>
      <path class="cls-3" d="M59.66,237.25l-1.61.11-.84,2.36,17.85-.89v-2.68l-15.4,1.09.7-20.19s.35-5.09,6.72-5.66c6.37-.57,6.67,6.76,5.88,24.55"/>
      <line class="cls-3" x1="65.31" y1="236.85" x2="65.31" y2="211.7"/>
      <path class="cls-3" d="M68.65,211.44s-1.17,25.14-1.09,25.25"/>
      <rect class="cls-3" x="60.12" y="224.06" width="5.19" height="2.53"/>
      <line class="cls-3" x1="68.11" y1="224.06" x2="73.27" y2="224.06"/>
      <line class="cls-3" x1="67.96" y1="226.59" x2="73.27" y2="226.59"/>
      <polygon class="cls-3" points="87.41 235.67 101.63 235.67 103.44 235.67 103.12 238.83 86.28 238.49 85.69 235.67 87.41 235.67"/>
      <path class="cls-3" d="M88.77,235.67s.32-7.34.89-14.11c.56-6.77,2.82-11.85,7.9-11.29,5.08.56,5.08,6.77,5.08,6.77l-1.55,18.63"/>
      <line class="cls-3" x1="96.2" y1="210.25" x2="95.04" y2="235.67"/>
      <polyline class="cls-3" points="96.88 235.67 97.53 222.55 98.13 210.36"/>
      <line class="cls-3" x1="102.16" y1="222.94" x2="97.5" y2="223.01"/>
      <line class="cls-3" x1="97.5" y1="225.33" x2="101.96" y2="225.33"/>
      <line class="cls-3" x1="95.62" y1="222.94" x2="89.55" y2="222.94"/>
      <line class="cls-3" x1="89.38" y1="225.33" x2="95.51" y2="225.33"/>
      <line class="cls-3" x1="53.03" y1="165.96" x2="52.41" y2="160.59"/>
      <path class="cls-3" d="M60.12,165.14c.19-.03,0-4.55,0-4.55"/>
      <line class="cls-3" x1="67.56" y1="163.9" x2="66.83" y2="158.85"/>
      <line class="cls-3" x1="75.07" y1="163.27" x2="74.26" y2="158.29"/>
      <line class="cls-3" x1="82.36" y1="162.58" x2="81.92" y2="158.11"/>
      <line class="cls-3" x1="89.55" y1="161.75" x2="88.77" y2="157.61"/>
      <line class="cls-3" x1="96.2" y1="160.78" x2="96.2" y2="155.65"/>
      <line class="cls-3" x1="103.18" y1="160.19" x2="102.48" y2="155.85"/>
      <line class="cls-3" x1="111.19" y1="158.85" x2="110.38" y2="154.29"/>
      <line class="cls-3" x1="119.02" y1="153.94" x2="119.02" y2="158.33"/>
      <line class="cls-3" x1="126.91" y1="154.29" x2="52.64" y2="162.58"/>
      <line class="cls-3" x1="52.79" y1="163.9" x2="126.38" y2="156.14"/>
      <path class="cls-6" d="M131.71,171.88c3.29-.58,6.6-.58,9.89,0-3.29.58-6.6.58-9.89,0h0Z"/>
      <path class="cls-6" d="M238.68,157.77c23.75,2.51,49.72,4.97,73.24,8.11,0,0,3.39,3.94,3.39,3.94.34.38-.02,1.02-.52.92,0,0-3.39-.57-3.39-.57,0,0,.09,0,.09,0h-2.82s-6.94-.9-6.97-.89c-3.45-.5-6.94-.61-10.39-1.14-2.18-.3-8.1-1.13-10.36-1.45,0,0,.19-.01.19-.01l-3.96,1.1c-.08.02-.16.02-.23,0,0,0-8.45-2.33-8.45-2.33-6.83-.89-17.78-2.31-24.75-3.11,0,0-4.49-1.19-4.5-1.19,0,0,4.56,1.07,4.52,1.06,7.08.59,17.77,1.7,24.91,2.54,0,0,8.5,2.19,8.5,2.19,0,0-.23,0-.23,0l3.94-1.16c.06-.02.12-.02.18-.01,0,0,6.9.92,6.91.92,6.62.95,14.1,1.45,20.76,2.39-.31-.01,2.81,0,2.75-.01.03,0,.06,0,.09,0,0,0,3.39.56,3.39.56l-.52.92-3.37-3.96.36.19c-23.5-2.77-49.21-5.88-72.75-9.02h0Z"/>
      <polyline class="cls-3" points="311.5 169.62 314.88 195.94 322.79 204.62 325.04 205.75 323.91 206.88 277.63 200.67 252.8 195.94 243.76 195.02"/>
      <path class="cls-3" d="M322.98,206.88l-.76,3.39s0,1.69-2.26,1.69-2.26-2.26-2.26-2.26c0,0-1.13,2.26-3.95,1.69s-3.39-2.82-3.39-2.82c0,0-1.69,2.26-4.52,1.69s-3.39-2.82-3.39-2.82c0,0-1.13,1.69-5.08,1.13-3.95-.56-3.95-2.82-3.95-2.82,0,0-1.69,3.39-5.08,2.82s-3.39-3.39-3.39-3.39c0,0-2.76,2.26-5.33,1.69s-3.7-2.82-3.7-2.82c0,0-.56,2.26-2.82,2.26s-2.82-2.82-2.82-2.82c0,0-1.13,2.82-5.08,2.26-3.95-.56-5.08-3.95-5.08-3.95,0,0,0,2.26-3.39,2.26s-5.64-5.08-5.64-5.08c0,0,0,3.39-2.82,3.39s-3.95-3.95-3.95-3.95"/>
      <polyline class="cls-3" points="312.09 210.75 314.88 241.71 322.51 266.43"/>
      <path class="cls-6" d="M304.16,173.01c.46,2.4.72,5.37-1.05,7.38-2.35,2.18-5.61.27-6.38-2.43-.58-1.61-.79-3.29-.7-4.95.26,1.63.64,3.25,1.31,4.7.85,2.16,3.29,3.75,5.22,2.1,1.63-1.75,1.57-4.53,1.61-6.81h0Z"/>
      <path class="cls-6" d="M295.69,173.01c.46,2.4.72,5.37-1.05,7.38-2.35,2.18-5.61.27-6.38-2.43-.58-1.61-.79-3.29-.7-4.95.26,1.63.64,3.25,1.31,4.7.85,2.16,3.29,3.75,5.22,2.1,1.63-1.75,1.57-4.53,1.61-6.81h0Z"/>
      <path class="cls-6" d="M300.49,181.2c.17,1.61-.16,3.69-1.74,4.58-1.81,1.02-3.79-.31-4.26-2.15-.34-1.08-.44-2.19-.32-3.28.23,1.06.52,2.1.94,3.04.78,2.04,3.06,2.64,4.32.75.54-.84.86-1.88,1.08-2.94h0Z"/>
      <path class="cls-6" d="M291.78,185.43c.41,1.64.61,3.69-.62,5.1-.97.99-2.69.84-3.59-.13-1.23-1.33-1.45-3.27-1.31-4.97.24,1.1.53,2.18.99,3.15.58,1.41,2.12,2.39,3.35,1.38,1.08-1.15,1.06-2.97,1.18-4.53h0Z"/>
      <path class="cls-6" d="M288.64,178.37c-.12,1.47-1.99,1.87-3.24,1.76-1.48-.24-2.17-1.91-2.37-3.16-.15-.85-.17-1.71-.03-2.55.21.82.42,1.62.67,2.39.26.76.57,1.52,1.05,2.02.69.94,3.41.75,3.92-.47h0Z"/>
      <path class="cls-6" d="M259.56,170.19c.46,2.4.72,5.37-1.05,7.38-2.35,2.18-5.61.27-6.38-2.43-.58-1.61-.79-3.29-.7-4.95.26,1.63.64,3.25,1.31,4.7.85,2.16,3.29,3.75,5.22,2.1,1.63-1.75,1.57-4.53,1.61-6.81h0Z"/>
      <path class="cls-6" d="M263.56,177.53c.41,1.64.61,3.69-.62,5.1-.97.99-2.69.84-3.59-.13-1.23-1.33-1.45-3.27-1.31-4.97.24,1.1.53,2.18.99,3.15.58,1.41,2.12,2.39,3.35,1.38,1.08-1.15,1.06-2.97,1.18-4.53h0Z"/>
      <path class="cls-6" d="M255.65,182.61c.41,1.64.61,3.69-.62,5.1-.97.99-2.69.84-3.59-.13-1.23-1.33-1.45-3.27-1.31-4.97.24,1.1.53,2.18.99,3.15.58,1.41,2.12,2.39,3.35,1.38,1.08-1.15,1.06-2.97,1.18-4.53h0Z"/>
      <path class="cls-6" d="M251.95,173.86c.02,4.55-3.96,4.6-4.95.46-.21-.9-.26-1.82-.14-2.72.46,1.58.83,3.48,2.07,4.55,1.6,1.38,2.48-1.01,3.02-2.3h0Z"/>
      <polygon class="cls-3" points="292.87 237.92 278.64 237.92 276.84 237.92 277.16 241.09 294 240.75 294.58 237.92 292.87 237.92"/>
      <path class="cls-3" d="M291.5,237.92s-.32-7.34-.89-14.11-2.82-11.85-7.9-11.29-5.08,6.77-5.08,6.77l1.55,18.63"/>
      <line class="cls-3" x1="284.07" y1="212.51" x2="285.23" y2="237.92"/>
      <polyline class="cls-3" points="283.4 237.92 282.75 224.8 282.14 212.62"/>
      <line class="cls-3" x1="278.12" y1="225.2" x2="282.77" y2="225.27"/>
      <line class="cls-3" x1="282.77" y1="227.58" x2="278.32" y2="227.58"/>
      <line class="cls-3" x1="284.65" y1="225.2" x2="290.72" y2="225.2"/>
      <line class="cls-3" x1="290.9" y1="227.58" x2="284.76" y2="227.58"/>
      <line class="cls-3" x1="307.49" y1="165.96" x2="308.11" y2="160.59"/>
      <path class="cls-3" d="M300.4,165.14c-.19-.03,0-4.55,0-4.55"/>
      <line class="cls-3" x1="292.96" y1="163.9" x2="293.68" y2="158.85"/>
      <line class="cls-3" x1="285.45" y1="163.27" x2="286.26" y2="158.29"/>
      <line class="cls-3" x1="278.16" y1="162.58" x2="278.6" y2="158.11"/>
      <line class="cls-3" x1="270.97" y1="161.75" x2="271.74" y2="157.61"/>
      <line class="cls-3" x1="264.32" y1="160.78" x2="264.32" y2="155.65"/>
      <line class="cls-3" x1="257.34" y1="160.19" x2="258.04" y2="155.85"/>
      <line class="cls-3" x1="249.33" y1="158.85" x2="250.13" y2="154.29"/>
      <line class="cls-3" x1="241.5" y1="153.94" x2="241.5" y2="158.33"/>
      <line class="cls-3" x1="238.12" y1="154.95" x2="307.88" y2="162.58"/>
      <line class="cls-3" x1="307.73" y1="163.9" x2="238.12" y2="156.64"/>
      <path class="cls-6" d="M136.65,174.42c2.87-.58,5.75-.58,8.62,0-2.87.58-5.75.58-8.62,0h0Z"/>
      <path class="cls-6" d="M173.49,136.6c6.12-.92,12.87-1.5,19.06-1.92,3.23.04,6.45.15,9.67.37-3.16.22-6.56.34-9.61.37-6.18.59-12.93,1.09-19.12,1.17h0Z"/>
      <path class="cls-6" d="M199.53,137.72c-4.99.58-10.04.58-15.04,0,4.99-.58,10.04-.58,15.04,0h0Z"/>
      <polyline class="cls-4" points="127.59 119.05 137.08 113.74 150.63 99.06 160.47 79.56 165.97 72.34 172.08 59.55 185.91 45.46 188.45 52.78 194.55 63.2 203.93 76.06 213.24 92.63 224.51 108.5 231.35 116.56 237.44 119.98"/>
      <path class="cls-6" d="M0,267.84s13.92-.06,13.85-.05c.04,0,5.57-1.74,5.61-1.72,0,0,3.58.85,3.49.83,0,0,5.31-.02,5.24-.02.04,0,5.74-.88,5.77-.87,0,0,4.85.76,4.76.75,2.32-.04,4.91.19,7.1-.06,0,0,7.06-.76,7.06-.76,1.52-.59,3.36-1.37,5.12-1.83.58-.2,1.3-.17,1.89-.02,2.33.47,4.88,1.12,7.08,1.69,0,0,6.33.9,6.33.9h-.08s4.12-.77,4.12-.77c0,0,.04,0,.04,0,3.13-.1,7.23-.19,10.28-.01,0,0-.06,0-.06,0,0,0,4.78-.91,4.78-.91.03,0,.06,0,.09,0l5.06.9s-.05,0-.05,0l5.14-.15-.15.05c.93-.63,1.89-1.2,2.95-1.62.65-.24,1.46-.49,2.2-.27.38.12.77.19,1.16.24,2.18.28,4.44.26,6.65.33,0,0,3.87,1.41,3.87,1.41,0,0-.1-.02-.1-.02,0,0,4.14,0,4.14,0,.75-.22,2.41-.87,3.54-.82,0,0,1.22.13,1.22.13l4.87.5h-.1s3.71-.72,3.71-.72c.05,0,.1,0,.14,0,0,0,6.31,1.67,6.31,1.67,22.63-.84,58.07-.94,81.36-.86-.31.04,6.44-1.06,6.39-1.05.05,0,.1,0,.15,0l4.01.89s.06.02.09.03l1.97.95-.25-.03c2.95-.63,7.23-1.45,10.24-1.81,0,0,2.46.88,2.46.88l-.09-.02s2.1.19,2.1.19h-.03s3.1,0,3.1,0c-.43.08,3.49-.9,3.41-.89.05-.01.11-.01.15,0,0,0,9.72,1.69,9.72,1.69l-.2.02,6.7-2.82c.12-.05.25-.03.35.05,0,0,2.38,1.88,2.38,1.88,0,0-.17-.07-.17-.07,1.97.18,5.2.7,6.74.96,0,0,7.07-.94,7.07-.94.04,0,9.04.01,9.09,0,.03,0,.06,0,.09.01,0,0,3.05.96,3.05.96h-.13s6.55-.77,6.56-.77c0,0,5.53-.18,5.53-.18.03,0,11.53.97,11.56.97-.11,0,22.12-.74,22.12-.74,4.28.28,11.76.94,16.11.79,0,0-.15.06-.15.06,0,0,2.44-2.18,2.44-2.18.02-.02.05-.03.07-.04,0,0,1.86-.65,1.86-.65.64.16,1.18.74,1.8,1.02.69.35,1.34.85,2.11.86.53.12.91.43,1.34.72.52.38,1.01.79,1.49,1.22l-.13-.05,4.94.02h-.05s5.9-1.66,5.9-1.66c.03,0,.07,0,.1,0,0,0,4.46,1.71,4.46,1.71h-.07s4.78-.91,4.78-.91h.02s7.71.03,7.71.03c1.28.02,2.57-.02,3.85.05,4.74.3,14.82.97,19.23,1.25,0,0-15.39-.88-15.39-.88-4.18-.37-11.18-.21-15.38-.21,0,0-4.78.94-4.78.94-.03,0-.05,0-.07,0,0,0-4.47-1.68-4.47-1.68,0,0,.1,0,.1,0,0,0-5.89,1.72-5.89,1.72.02.02-4.99.02-4.99.03-.9-.57-1.7-1.54-2.76-1.86,0,0-.22,0-.22,0-.12,0-.19-.03-.28-.05-1.24-.45-2.3-1.16-3.39-1.85,0,0,.19.02.19.02l-1.86.65s.07-.04.07-.04l-2.44,2.18c-4.43.33-11.79-.46-16.24-.69-.03,0-22.16.8-22.18.8,0,0-11.64-.94-11.49-.94,0,0-5.53.19-5.53.19.12-.01-6.53.78-6.51.77-.04,0-.09,0-.13-.01,0,0-3.06-.95-3.06-.95h.09s-9.19.03-9,.02c0,0-7.06.96-7.06.96-1.28-.16-3.98-.59-5.19-.77,0,0-1.71-.18-1.71-.18-.07,0-.13-.03-.17-.07,0,0-2.39-1.87-2.39-1.87l.35.05-6.69,2.84c-.06.03-.13.03-.2.02l-9.72-1.66h.15s-3.5.9-3.5.9c-.03,0-.06.01-.09.01,0,0-3.1,0-3.1,0h-.03s-2.1-.18-2.1-.18c-.03,0-.07-.01-.09-.02l-2.46-.88s.19.02.19.02l-5.02.85c-1.41.22-3.56.7-4.99,1,.1.21-2.24-1.01-2.22-.98.54.14-4.08-.89-3.92-.85,0,0,.15,0,.15,0l-6.45,1.07s-.05,0-.07,0c-23.57-.12-58.25-.04-81.53.67,0,0-6.31-1.68-6.31-1.68,0,0,.14,0,.14,0l-3.71.72s-.07,0-.1,0l-4.81-.51s-1.2-.13-1.2-.13c-1.2-.02-2.29.52-3.44.8-.03,0-.06.01-.09.01h-4.14s-.07-.01-.1-.02c0,0-3.87-1.42-3.87-1.42-1.57.04-4.54-.07-6.53-.31-.54-.04-1.07-.25-1.59-.32-1.62.02-3.1,1.15-4.47,1.9-.04,0-5.16.15-5.2.13,0,0-5.06-.91-5.06-.91h.09s-4.79.9-4.79.9c-.02,0-.04,0-.06,0,0,0-2.56-.09-2.56-.09-2.77-.12-5.16.06-7.69.08.13-.03-4.09.76-4.09.76-.03,0-.05,0-.08,0l-6.33-.92c-2.64-.65-5.28-1.45-7.96-1.84-2.06.29-4.05,1.27-6.01,1.96,0,0-7.1.71-7.1.71-2.93.24-4.39-.02-7.11,0-.02,0-4.78-.79-4.8-.79,0,0,.04,0,.04,0,0,0-5.74.82-5.74.82-.01,0-5.26-.02-5.28-.02-.02,0-3.5-.86-3.52-.86.14-.03-5.55,1.67-5.55,1.67-.01,0-13.87-.05-13.88-.05H0Z"/>
      <path class="cls-3" d="M66.81,311.5l-2.27-25.87s-.82-7.73,5.8-9.51,16.66-4.43,19.26,0,9.58,30.44,9.58,30.44"/>
      <path class="cls-6" d="M62,313.73c-.77-1.76-1.14-3.59-1.4-5.47-.03-.3.18-.57.48-.61.82.15,1.42,1.04,2.05,1.56.51.53,1.01,1.1,1.37,1.76-1.28-.72-2.49-1.48-3.68-2.31,0,0,.87-.53.87-.53.32,1.86.51,3.71.3,5.61h0Z"/>
      <path class="cls-6" d="M67.37,314.97c1.1-2.47,2.61-4.72,4.58-6.57.21-.21.56-.2.76.02.39,1.1.42,2.39.87,3.5.13.34.27.7.51,1-.71-.37-1.15-1.12-1.51-1.81-.35-.72-.6-1.45-.79-2.23l.88.29c-1.77,1.88-3.36,4.03-5.31,5.8h0Z"/>
      <path class="cls-6" d="M77.7,312.77c-.28-1.37-.19-2.72,0-4.07.04-.3.33-.52.63-.47.66.24.94,1.3,1.3,1.87.27.56.51,1.14.66,1.78-1.02-.78-1.79-1.75-2.5-2.79,0,0,1.02-.23,1.02-.23-.19,1.35-.47,2.67-1.1,3.91h0Z"/>
      <path class="cls-6" d="M98.37,309.58c1.13-2.39,2.63-4.47,4.03-6.63.14-.28.39-.55.76-.5.38.07.51.34.61.55.53,1.75.51,3.42.4,5.2-.54-1.52-.84-3.44-1.39-4.79.13.16.53.16.65-.05-1.35,2.33-3.08,4.39-5.05,6.22h0Z"/>
      <path class="cls-6" d="M105.22,309.58c-.04-1.25.29-2.4.75-3.53.17-.43.81-.43,1-.02,1.34,3.2.77,3.48-.99.5,0,0,1.01-.05,1.01-.05-.4,1.14-.91,2.2-1.77,3.1h0Z"/>
      <path class="cls-6" d="M136.65,266.92c1.44.15,2.49,1.56,2.69,2.95-1.24-.79-1.85-1.77-2.69-2.95h0Z"/>
      <path class="cls-6" d="M135.15,268.39c1.2-.03,2.17.47,2.84,1.47-1.2.03-2.17-.47-2.84-1.47h0Z"/>
      <path class="cls-6" d="M132.95,271.14c1.1.19,1.86.84,2.21,1.91-1.11-.19-1.86-.85-2.21-1.91h0Z"/>
      <path class="cls-6" d="M131.71,273.05c.92.52,1.35,1.34,1.24,2.39-.92-.52-1.34-1.34-1.24-2.39h0Z"/>
      <path class="cls-6" d="M130.37,277.64c-2.16,1.66-4.28,3.42-6.54,4.91-1.38.05-2.76.06-4.14.07,0,0,.22-.69.22-.69l2.44,1.67c.27.17.21.62-.09.71-2.25.79-4.53,1.49-6.79,2.23,0,0,.19-.57.19-.57l1.11,1.7c.11.15.07.36-.07.47-2.22,1.76-5.36,4.28-7.62,5.94,1.17-1.11,2.36-2.19,3.55-3.28l3.61-3.21-.07.47-1.14-1.68c-.12-.17-.07-.4.1-.52,2.27-.81,4.56-1.6,6.86-2.33,0,0-.1.72-.1.72,0,0-2.41-1.72-2.42-1.72-.3-.2-.13-.7.22-.69,1.37.01,2.75.02,4.12.07,0,0-.18.06-.18.06,2.22-1.48,4.46-2.94,6.74-4.34h0Z"/>
      <path class="cls-6" d="M222.33,268.12c1.11-.21,2.23-.39,3.35-.53.13-.02.26.08.27.21.08,1.43.13,2.86.16,4.29,0,0-.58-.37-.58-.37l1.97-.97c.21-.1.46-.02.56.19.27,1.06.48,2.14.71,3.21,0,0-.16-.23-.16-.23.58.41,1.14.83,1.71,1.26l-.47.29c-.15-1.45-.28-2.89-.34-4.35.37,1.41.66,2.83.93,4.26.06.26-.26.46-.47.29-.62-.46-1.48-.74-1.95-1.34-.27-1.03-.51-2.08-.76-3.12,0,0,.6.29.6.29l-1.98.94c-.26.14-.59-.07-.58-.37.02-1.42.08-2.84.15-4.25l.27.25c-1.13.05-2.26.05-3.39.03h0Z"/>
      <path class="cls-6" d="M231.92,277.64c-.58-1.52-.58-3.07,0-4.59.58,1.52.58,3.07,0,4.59h0Z"/>
      <path class="cls-6" d="M233.89,278.85c-.58-1.12-.58-2.28,0-3.41.58,1.12.58,2.28,0,3.41h0Z"/>
      <path class="cls-6" d="M235.54,280.22c1.06-.95,2.14-1.88,3.25-2.78.11-.09.27-.07.35.05.89,1.34,2.02,2.59,2.74,4.01,0,0,.03,2.71.03,2.71l-.26-.38c.95.35,1.89.75,2.83,1.13.1.04.17.12.21.21l.82,2-.19-.2c2.57,1.18,5.11,2.43,7.61,3.77-2.69-1.05-5.61-1.9-8.1-3.28,0,0-.87-1.98-.87-1.98l.22.22c-.95-.36-1.9-.71-2.83-1.11-.16-.06-.26-.22-.26-.38,0,0,.03-2.71.03-2.71l.06.21c-.85-1.29-1.65-2.61-2.46-3.93l.36.06c-1.16.82-2.35,1.62-3.55,2.39h0Z"/>
      <polygon class="cls-3" points="113.65 275.34 121.45 275.44 125.56 274.25 120.99 270.95 115.23 272.1 112.68 275.34 113.65 275.34"/>
      <polygon class="cls-3" points="110.38 276.4 107.58 274.25 104.96 274.25 104.07 275.44 104.96 276.4 110.38 276.4"/>
      <polygon class="cls-3" points="257.59 299.05 265.39 299.15 269.5 297.95 264.93 294.65 259.17 295.8 256.62 299.05 257.59 299.05"/>
      <polygon class="cls-3" points="254.32 300.11 251.52 297.95 248.9 297.95 248.01 299.15 248.9 300.11 254.32 300.11"/>
      <polygon class="cls-3" points="239.87 274.25 246.86 270.95 252.94 270.95 255.74 273.05 255.74 274.25 250.13 275.44 239.87 274.25"/>
      <polygon class="cls-3" points="258.83 274.25 260.84 272.1 263.64 271.64 265.53 273.19 265.53 275.32 258.83 274.25"/>
      <polygon class="cls-3" points="253.89 277.64 256.6 276.4 259.69 276.4 262.18 277.64 260.84 278.85 257.34 278.85 253.89 277.64"/>
      <polygon class="cls-3" points="78.25 294.6 80.21 294.25 84.3 293.52 83.74 289.01 85.57 289.01 86.41 287.06 84.66 285.78 85.46 281.91 81.48 277.16 74.91 278.24 72.31 281.91 74.09 286.63 72.31 289.08 74.09 290.67 76.4 289.01 78.25 294.6"/>
      <line class="cls-3" x1="80.21" y1="294.25" x2="79.36" y2="291.41"/>
      <line class="cls-3" x1="81.85" y1="293.96" x2="81.85" y2="290.88"/>
      <circle class="cls-6" cx="77.53" cy="285.06" r="1.69"/>
      <circle class="cls-6" cx="82.04" cy="283.36" r="1.69"/>
      <polygon class="cls-6" points="79.92 286.75 79.22 287.88 80.54 287.88 79.92 286.75"/>
      <polygon class="cls-6" points="80.78 286.57 81.1 287.88 82.13 287.22 80.78 286.57"/>
      <polyline class="cls-1" points="36.32 250.62 49.87 248.37 77.4 248.37 81.48 246.67 91.67 246.67 110.38 248.24 123.29 246.67"/>
      <polyline class="cls-1" points="48.43 244.63 50.15 255.99 48.43 266.92"/>
      <polyline class="cls-1" points="64.7 244.63 63.55 257.06 64.13 265.28"/>
      <polyline class="cls-1" points="81.2 243 82.89 257.12 82.04 266.15"/>
      <polyline class="cls-1" points="99.07 243 99.07 255.77 101.51 266.1"/>
      <polyline class="cls-1" points="115.32 243 115.32 258.55 114.79 265.28"/>
      <polyline class="cls-1" points="248.84 244.7 265.53 244.7 282.14 246.67 297.39 247.52 309.29 246.11 327.62 246.11 337.5 246.67"/>
      <polyline class="cls-1" points="326.18 241.09 325.04 254.99 326.41 266.92"/>
      <polyline class="cls-1" points="311.2 241.09 313.19 253.17 313.19 266.15"/>
      <polyline class="cls-1" points="298.61 239.51 297.95 252.6 298.61 266.15"/>
      <polyline class="cls-1" points="283.66 243 283.66 252.83 282.77 260.73 283.66 266.92"/>
      <polyline class="cls-1" points="265.53 238.83 267.21 252.83 266.37 266.68"/>
      <path class="cls-2" d="M150.55,269.86c.07.24,26.04,0,26.04,0"/>
      <line class="cls-2" x1="182.48" y1="269.92" x2="185.91" y2="269.86"/>
      <polyline class="cls-2" points="191.07 269.97 202.73 269.97 207.11 269.92 211.64 269.97 226.24 281.87 224.55 283.06 170.98 283.77 159.06 283.77 151.72 283.06 145.27 283.77 140.96 282.64 140.33 281.11 148.65 271.14"/>
      <g>
        <path class="cls-6" d="M153.82,279.44c-.13,0-.19-.03-.19-.09,0-.06.04-.13.13-.22l7.08-6.4s.05-.04.06-.05c.01-.01.03-.02.04-.03.08-.06.17-.11.26-.15.09-.04.16-.06.2-.06h.75c.14,0,.14.07-.01.21l-4.75,4.52,4.4-2.92c.08-.05.18-.11.29-.16.11-.06.22-.08.31-.08h.51c.1,0,.14.03.12.09-.02.06-.05.11-.09.17l-2.15,2.92,5.39-4.51c.15-.13.29-.2.44-.2h.75s.07.03.06.07c0,.04-.03.09-.08.15l-.03.03s-.03.03-.05.05l-7.29,6.39c-.1.09-.22.16-.35.21-.13.06-.26.08-.39.08h-.84c-.13,0-.2-.03-.21-.09-.02-.05,0-.11.04-.17l2.35-3.34-5.14,3.32c-.1.06-.22.12-.35.17-.13.05-.26.08-.4.08h-.84Z"/>
        <path class="cls-6" d="M163.57,279.5c-.08,0-.14-.02-.16-.07-.02-.05,0-.1.05-.17l5.26-6.51c.06-.07.13-.13.21-.18.08-.05.14-.07.2-.07l3.75.03c.06,0,.1.02.12.07.02.05,0,.11-.03.18l-.35.66c-.03.07-.09.12-.15.17-.07.05-.13.07-.2.07l-3.02-.02-1.29,1.77,3.14.02c.08,0,.12.02.15.07.02.04.02.1-.02.18l-.33.62c-.04.07-.1.13-.17.18-.07.04-.15.06-.23.06l-3.33-.02-1.34,1.83,4.02.03c.09,0,.15.02.18.07.03.05.03.11-.01.18l-.34.66c-.03.07-.09.12-.18.17-.08.05-.17.07-.26.07l-5.64-.04Z"/>
        <path class="cls-6" d="M172.03,279.56c-.08,0-.15-.02-.18-.07-.04-.05-.04-.1-.02-.17l2.72-6.53c.03-.07.07-.12.13-.17.06-.05.12-.07.17-.07h.79c.06,0,.1.03.12.08.02.05.02.1,0,.17l-1.87,5.58,3.77.02c.09,0,.16.02.2.07.05.05.07.11.06.18l-.1.7c0,.07-.05.12-.11.17-.06.05-.14.07-.24.07l-5.46-.04Z"/>
        <path class="cls-6" d="M182.95,279.73c-.78,0-1.45-.12-1.99-.34-.53-.22-.93-.53-1.18-.94-.25-.41-.36-.89-.35-1.46.01-.27.03-.57.05-.88s.05-.62.07-.9c.07-.56.22-1.05.46-1.45.23-.41.53-.72.9-.93.36-.21.8-.32,1.32-.32.38,0,.74.07,1.06.19.33.12.63.29.9.5.27.21.51.46.71.74.2.28.36.59.45.92.02.06.02.11-.01.15-.03.04-.08.06-.14.06h-.94c-.07,0-.14-.03-.19-.06-.05-.04-.1-.1-.13-.19-.18-.44-.41-.74-.68-.91-.26-.16-.57-.24-.92-.25-.41,0-.73.12-.96.37-.24.25-.37.66-.39,1.24-.01.55,0,1.11.02,1.69.03.58.2.99.52,1.24.33.25.76.38,1.3.39.46,0,.84-.08,1.13-.24.28-.16.44-.46.48-.89,0-.09.03-.16.08-.19.05-.03.11-.05.19-.05h1.06c.07,0,.13.03.19.07.06.04.09.09.1.15.08.33.08.63-.01.91-.1.28-.27.52-.53.73-.27.21-.61.37-1.04.49-.43.12-.94.17-1.51.17Z"/>
        <path class="cls-6" d="M192.22,279.79c-.75,0-1.44-.11-2.06-.31-.61-.2-1.14-.51-1.59-.92-.44-.41-.77-.93-1.01-1.55-.11-.29-.21-.57-.31-.85s-.2-.57-.3-.86c-.2-.61-.25-1.12-.18-1.53.07-.41.24-.71.53-.92.28-.21.65-.31,1.14-.3s.97.11,1.47.32c.51.21,1.01.52,1.5.93.51.41.98.92,1.43,1.53.22.3.42.58.62.87s.39.57.57.85c.4.62.61,1.13.6,1.54-.02.41-.23.71-.64.91-.42.19-1.01.29-1.76.28ZM191.62,278.63c.52,0,.87-.12,1.04-.38.17-.26.08-.68-.25-1.26-.17-.3-.32-.57-.48-.82s-.33-.52-.52-.81c-.25-.39-.51-.71-.79-.95-.27-.24-.54-.42-.8-.54-.26-.11-.53-.17-.79-.17s-.46.05-.6.16c-.15.11-.23.29-.24.53-.02.24.05.56.21.95.12.29.23.56.34.81s.23.52.37.82c.28.58.63,1.01,1.07,1.27.44.26.93.39,1.44.4Z"/>
        <path class="cls-6" d="M198.48,279.73c-.09,0-.19-.02-.28-.07-.1-.05-.17-.11-.23-.17l-5.23-6.56c-.06-.07-.09-.13-.08-.18,0-.05.03-.07.1-.07h.67c.08,0,.16.03.25.08.08.05.14.09.18.12l5.24,3.64-1.89-3.62s-.04-.07-.05-.12c-.02-.05.02-.08.09-.07h.66c.06,0,.14.03.24.08.09.05.19.11.27.18l7.71,6.57c.08.07.12.12.11.17,0,.05-.05.07-.14.07h-1.06c-.09,0-.19-.03-.3-.08-.11-.05-.2-.11-.27-.17l-4.79-4.37,1.35,2.68c.02.06.03.11,0,.16-.02.04-.08.06-.18.06h-.48c-.11,0-.21-.03-.31-.07-.1-.04-.2-.1-.29-.16l-3.96-2.7,3.81,4.36c.06.07.08.12.06.17-.02.05-.07.07-.15.07h-1.06Z"/>
        <path class="cls-6" d="M209.3,279.8c-.08,0-.19-.02-.3-.07-.12-.05-.22-.11-.31-.17l-8.49-6.57c-.1-.07-.15-.14-.18-.18-.02-.05,0-.07.05-.07l3.75.03c.06,0,.15.02.26.07.11.05.23.11.35.18l1.05.67c.11.07.18.13.21.17.03.05.01.07-.06.07l-3.02-.02,2.45,1.79,3.14.02c.08,0,.17.02.29.07.12.05.23.1.35.18l.98.63c.12.07.18.13.2.18.02.04-.01.06-.09.06l-3.33-.02,2.53,1.85,4.02.03c.09,0,.2.02.33.07.13.05.25.11.37.18l1.05.67c.11.07.17.13.18.17.01.05-.02.07-.12.07l-5.64-.04Z"/>
      </g>
      <path class="cls-6" d="M34.63,92.77l101.88-4.32s-3.61-23.4-15.21-23.75c-11.6-.34-17.65,9.39-17.65,9.39,0,0-3.02-30.52-23.04-26.9-20.02,3.62-15.41,29.87-15.41,29.87,0,0-8.56-10.17-12.51-2.97s-2.85,13.65-2.85,13.65c0,0-5.04-2.68-15.21,5.03Z"/>
      <path class="cls-6" d="M251.13,112.53l83.8,4.88s-7.92-8.47-20.33-6.21c0,0-1.15-10.43-9.6-9.17-8.45,1.27-8.55,6.46-8.55,6.46,0,0,3.77-26.03-13.59-22.11-17.36,3.92-14.15,18.57-14.15,18.57,0,0-9.36-4.09-17.58,7.56Z"/>
      <path class="cls-6" d="M95.03,115.43s-.29-6.16,3.52-8.87c0,0,3.81,4.63,7.77,1.81s1.68-7.63,1.68-7.63c0,0,5.95-1.61,9.76,1.03,0,0-7.15-.35-5.06,4.25,0,0-5.18.88-3.24,5.84,0,0-8.06-2.82-7.29,1.35,0,0-3.18-5.98-7.13,2.2Z"/>
      <path class="cls-6" d="M297.81,74.79s.29-6.16-3.52-8.87c0,0-3.81,4.63-7.77,1.81s-1.68-7.63-1.68-7.63c0,0-5.95-1.61-9.76,1.03,0,0,7.15-.35,5.06,4.25,0,0,5.18.88,3.24,5.84,0,0,8.06-2.82,7.29,1.35,0,0,3.18-5.98,7.13,2.2Z"/>
      <path class="cls-7" d="M172.32,50.01s-1.93-4.18-5.38-4.65c0,0-.92,4.38-4.51,3.87-3.58-.5-3.74-4.46-3.74-4.46,0,0-4.48.99-6.09,4.04,0,0,4.6-2.7,4.81,1.07,0,0,3.72-1.2,4.15,2.75,0,0,4.36-4.64,5.29-1.62,0,0,.04-5.05,5.47-1Z"/>
      <polygon class="cls-9" points="43.16 266.98 50.15 239.72 50.94 209.34 50.15 208.57 46.76 211.39 42.81 209.7 40.55 211.96 39.71 206.46 49.29 195.94 52.32 173.77 52.32 173.77 51.11 172.56 84.9 170.14 124.73 165.32 123.25 167.5 118.15 194.76 110.3 227.58 98.38 266.1 92.68 265.28 87.66 266.15 80.54 265.28 73.27 266.92 65.31 265.58 50.15 266.1 43.16 266.98"/>
      <polygon class="cls-9" points="320.24 267.26 313.25 240 312.46 209.62 313.01 211.18 314.22 211.18 320.59 209.98 320.25 206.35 321.46 205.15 313.01 196.7 310.6 178.59 310.6 174.97 310.6 172.56 279.01 169.98 239.05 165.16 240.15 167.78 245.25 195.04 253.1 227.87 265.02 266.39 270.72 265.57 275.74 266.43 282.86 265.57 290.13 267.2 298.09 265.87 313.25 266.39 320.24 267.26"/>
      <path class="cls-9" d="M249.73,228.62l-7.38-24.28h-12.98l-.75-5.36h6.25l-.42-3.03h6.77l-3.1-16.16h-14.63l14.63-2.86-2.58-22.98h-5.04v-1.41l5.04-.34-2.78-20.67,1.41-3.1,3.95-8.08-7.62-2.93-7.9-8.91-8.8-11.22-10.61-19.7-8.83-11.22-9.86-17.04s-10.44,13.35-10.49,13.89c-.05.55-4.52,9.68-4.52,9.68l-9.72,15.11-6.46,13.07-11.71,15.33-14.68,3.58,6.78,4.93.77,2.57.64,2.94-4.73,18.65-3.99,14.59-3.13,15.14h9.7l-.62,4.23-3.96-.14-.78,3.1h-4.96l-3.62,16.36-4.22,21.74,5.61.18-2.25,4.35h-4.49s-11.29,37.24-12.14,37.48l1.14-.1,4.58-1.92,1.91.38,3.54.22,3.48.35,3.05,1.11h4.14l3.02-.86,5.94,1.15,4.32-1.19,5.58,1.75,81.26-.85,8.43-1.53,4.91,2.29,10.59-1.63,2.71.75,4.4.11,3.51-.91,6.51.91-14.81-37.53ZM154.99,174.42l-9.72-25.4,33.87,14.11-24.15,11.29ZM170.67,92.29c0-7.33,5.94-13.27,13.27-13.27s13.27,5.94,13.27,13.27-5.94,13.27-13.27,13.27-13.27-5.94-13.27-13.27ZM213.57,166.52l-22.01-10.16,29.35-10.72-7.34,20.89Z"/>
    </g>
  </g>
</svg>