<svg width="280" height="255" viewBox="0 0 280 255" fill="none" xmlns="http://www.w3.org/2000/svg">
<path d="M138.76 44.27C138.24 44.25 137.78 43.91 137.62 43.41L135.71 37.54C135.62 37.26 135.63 36.95 135.74 36.68L147.69 7.60995C148.19 6.38995 149.37 5.59998 150.7 5.59998C151.12 5.59998 151.54 5.67997 151.93 5.83997C152.73 6.16997 153.36 6.78997 153.69 7.58997C154.03 8.38997 154.03 9.27996 153.7 10.08L139.96 43.5C139.77 43.97 139.31 44.27 138.8 44.27C138.79 44.27 138.78 44.27 138.76 44.27Z" fill="#D1DAED"/>
<path d="M150.7 6.83997C150.95 6.83997 151.21 6.88996 151.46 6.98996C152.49 7.40996 152.97 8.57998 152.55 9.59998L138.81 43.02L136.9 37.15L148.85 8.07996C149.17 7.30996 149.92 6.83997 150.7 6.83997ZM150.7 4.33997C148.87 4.33997 147.23 5.42997 146.54 7.12997L134.59 36.2C134.36 36.75 134.34 37.36 134.52 37.92L136.43 43.79C136.75 44.79 137.67 45.48 138.71 45.52C138.74 45.52 138.77 45.52 138.81 45.52C139.82 45.52 140.73 44.91 141.12 43.97L154.86 10.55C155.32 9.42996 155.32 8.20998 154.85 7.09998C154.39 5.98998 153.52 5.12996 152.4 4.67996C151.87 4.45996 151.29 4.33997 150.7 4.33997Z" fill="#3B65EE"/>
<path d="M139.1 41.92C138.75 41.92 138.4 41.77 138.16 41.49L134.11 36.83C133.92 36.61 133.81 36.32 133.8 36.02L133.45 4.59C133.44 3.72 133.77 2.9 134.38 2.28C134.99 1.66 135.8 1.30999 136.67 1.29999C138.48 1.29999 139.94 2.74001 139.96 4.51001L140.36 40.64C140.37 41.16 140.04 41.64 139.55 41.82C139.4 41.9 139.25 41.92 139.1 41.92Z" fill="#D1DAED"/>
<path d="M136.71 2.56C137.8 2.56 138.69 3.44001 138.7 4.54001L139.1 40.67L135.05 36.01L134.7 4.57999C134.69 3.47999 135.57 2.57 136.68 2.56C136.69 2.56 136.7 2.56 136.71 2.56ZM136.71 0.0599976C136.7 0.0599976 136.66 0.0599976 136.65 0.0599976C135.45 0.0699976 134.33 0.550004 133.49 1.41C132.65 2.27 132.19 3.39999 132.21 4.60999L132.56 36.04C132.57 36.63 132.78 37.2 133.17 37.65L137.22 42.31C137.7 42.87 138.4 43.17 139.11 43.17C139.41 43.17 139.71 43.12 140 43.01C140.98 42.64 141.62 41.69 141.61 40.65L141.21 4.51999C141.17 2.05999 139.16 0.0599976 136.71 0.0599976Z" fill="#3B65EE"/>
<path d="M158.79 155.95C157.37 155.95 156.13 155.04 155.7 153.69C155.43 152.86 155.51 151.98 155.9 151.21C156.29 150.44 156.97 149.87 157.8 149.6L208.27 133.41L232.88 67.7L221 48.1C220.55 47.36 220.42 46.48 220.62 45.64C220.83 44.8 221.35 44.08 222.09 43.63C222.6 43.32 223.18 43.16 223.77 43.16C224.9 43.16 225.97 43.76 226.55 44.73L235.74 59.9L245.52 33.28C245.99 32.01 247.21 31.15 248.57 31.15C248.95 31.15 249.33 31.22 249.69 31.35C250.51 31.65 251.15 32.25 251.52 33.04C251.88 33.83 251.92 34.71 251.62 35.53L242.12 61.39L273.91 47.67C274.32 47.49 274.75 47.4 275.2 47.4C276.5 47.4 277.67 48.17 278.18 49.36C278.89 51 278.13 52.92 276.48 53.63L239.01 69.8L213.78 137.17C213.43 138.11 212.68 138.82 211.73 139.12L159.76 155.79C159.46 155.9 159.13 155.95 158.79 155.95Z" fill="#D1DAED"/>
<path d="M248.59 32.41C248.82 32.41 249.05 32.45 249.28 32.53C250.32 32.91 250.85 34.06 250.47 35.1L239.97 63.69L274.43 48.82C274.69 48.71 274.96 48.66 275.22 48.66C275.99 48.66 276.73 49.11 277.06 49.87C277.5 50.88 277.03 52.06 276.02 52.5L238.07 68.88L212.65 136.74C212.44 137.31 211.97 137.76 211.39 137.94L159.42 154.61C159.22 154.68 159.01 154.71 158.81 154.71C157.96 154.71 157.18 154.17 156.91 153.32C156.57 152.27 157.15 151.14 158.2 150.8L209.25 134.43L234.29 67.58L222.1 47.46C221.53 46.52 221.83 45.29 222.77 44.71C223.09 44.51 223.45 44.42 223.8 44.42C224.48 44.42 225.14 44.76 225.51 45.38L236.05 62.78L246.72 33.72C247.01 32.91 247.77 32.41 248.59 32.41ZM248.59 29.91C246.71 29.91 245.01 31.09 244.37 32.86L235.49 57.04L227.64 44.09C226.83 42.75 225.36 41.92 223.79 41.92C222.97 41.92 222.16 42.15 221.46 42.57C220.43 43.19 219.71 44.18 219.42 45.35C219.13 46.52 219.32 47.73 219.94 48.75L231.5 67.84L207.31 132.42L157.41 148.42C155.05 149.18 153.74 151.72 154.5 154.08C155.1 155.95 156.82 157.21 158.78 157.21C159.25 157.21 159.71 157.14 160.16 156.99L212.13 140.32C213.45 139.9 214.48 138.91 214.97 137.61L240.02 70.74L277 54.78C279.28 53.8 280.33 51.14 279.35 48.87C278.64 47.22 277.02 46.15 275.22 46.15C274.61 46.15 274.01 46.27 273.44 46.52L244.32 59.09L252.82 35.96C253.23 34.83 253.18 33.61 252.68 32.52C252.18 31.43 251.28 30.6 250.15 30.19C249.64 30 249.12 29.91 248.59 29.91Z" fill="#3B65EE"/>
<path d="M104.54 168.25C104.34 168.25 104.15 168.23 103.95 168.2C103.65 168.14 103.36 168.05 103.09 167.91L54.24 143.56C53.35 143.12 52.71 142.3 52.51 141.32L39.92 81.19L22.29 77.93C21.44 77.77 20.7 77.29 20.2 76.58C19.71 75.87 19.52 75 19.68 74.15C19.97 72.61 21.31 71.49 22.87 71.49C23.07 71.49 23.26 71.51 23.46 71.54L38.4699 74.32L37.76 70.91L3.17997 49.25C1.65997 48.3 1.2 46.29 2.15 44.77C2.75 43.81 3.77995 43.24 4.90995 43.24C5.51995 43.24 6.11999 43.41 6.63999 43.74L25.2199 55.37L11.61 39C10.47 37.62 10.66 35.57 12.03 34.42C12.61 33.94 13.35 33.67 14.11 33.67C15.08 33.67 15.99 34.1 16.61 34.84L38 60.58L39.98 32.34C40.1 30.64 41.5199 29.32 43.2199 29.32C43.2999 29.32 43.37 29.32 43.45 29.33C44.31 29.39 45.1 29.78 45.67 30.43C46.24 31.09 46.52 31.93 46.46 32.8L43.95 68.67L58.56 138.45L106 162.1C107.6 162.9 108.26 164.86 107.46 166.46C106.9 167.56 105.78 168.25 104.54 168.25Z" fill="#D1DAED"/>
<path d="M43.21 30.56C43.26 30.56 43.3 30.56 43.35 30.57C44.45 30.64 45.28 31.6 45.21 32.7L42.68 68.75L44.61 77.96L57.45 139.29L105.43 163.21C106.42 163.7 106.82 164.9 106.33 165.89C105.98 166.59 105.27 167 104.54 167C104.42 167 104.3 166.99 104.18 166.97C104 166.94 103.82 166.88 103.65 166.79L54.8 142.44C54.25 142.17 53.86 141.66 53.73 141.06L40.97 80.11L22.52 76.7C21.43 76.5 20.72 75.46 20.92 74.37C21.1 73.41 21.94 72.73 22.88 72.73C23 72.73 23.12 72.74 23.25 72.76L40.09 75.88L38.89 70.13L3.85997 48.19C2.91997 47.6 2.63996 46.37 3.22996 45.43C3.60996 44.82 4.25998 44.49 4.92998 44.49C5.28998 44.49 5.65997 44.59 5.98997 44.8L31.18 60.57L12.59 38.2C11.88 37.35 12 36.09 12.85 35.38C13.22 35.07 13.68 34.92 14.13 34.92C14.7 34.92 15.27 35.17 15.67 35.64L39.05 63.77L41.25 32.42C41.3 31.37 42.17 30.56 43.21 30.56ZM43.21 28.06C40.86 28.06 38.89 29.9 38.72 32.25L36.96 57.39L17.56 34.05C16.7 33.02 15.44 32.43 14.1 32.43C13.05 32.43 12.03 32.8 11.23 33.47C9.31996 35.06 9.06 37.9 10.64 39.81L19.27 50.19L7.29997 42.69C6.58997 42.24 5.75996 42 4.90996 42C3.34996 42 1.92001 42.79 1.09001 44.11C0.450011 45.13 0.250003 46.33 0.520003 47.51C0.790003 48.68 1.5 49.68 2.52 50.32L36.65 71.69L36.87 72.75L23.7 70.31C23.43 70.26 23.15 70.23 22.88 70.23C20.71 70.23 18.85 71.78 18.46 73.91C18.01 76.35 19.63 78.7 22.07 79.15L38.88 82.26L51.3 141.57C51.58 142.93 52.46 144.06 53.7 144.68L102.55 169.03C102.93 169.22 103.33 169.35 103.74 169.43C104.01 169.48 104.28 169.5 104.56 169.5C106.28 169.5 107.82 168.54 108.59 167.01C109.7 164.79 108.79 162.08 106.57 160.97L59.67 137.59L47.08 77.44L45.22 68.57L47.72 32.87C47.8 31.67 47.41 30.5 46.62 29.6C45.83 28.69 44.73 28.15 43.53 28.07C43.43 28.07 43.32 28.06 43.21 28.06Z" fill="#3B65EE"/>
<path d="M87.21 253.7H189.32C206.88 239.06 218.06 217.04 218.06 192.39C218.06 148.32 182.34 112.6 138.27 112.6C94.2 112.6 58.48 148.32 58.48 192.39C58.48 217.03 69.65 239.06 87.21 253.7Z" fill="white" stroke="#3B65EE" stroke-width="2.5" stroke-miterlimit="10" stroke-linecap="round" stroke-linejoin="round"/>
<path d="M138.33 124.3C167.308 124.3 190.8 100.808 190.8 71.83C190.8 42.8516 167.308 19.36 138.33 19.36C109.352 19.36 85.86 42.8516 85.86 71.83C85.86 100.808 109.352 124.3 138.33 124.3Z" fill="white" stroke="#3B65EE" stroke-width="2.5" stroke-miterlimit="10" stroke-linecap="round" stroke-linejoin="round"/>
<path d="M149.4 53.53C153.63 53.38 156.94 49.8 156.79 45.55C156.64 41.3 153.08 37.97 148.85 38.12C144.62 38.27 141.31 41.85 141.46 46.1C141.61 50.35 145.16 53.68 149.4 53.53Z" fill="#3B65EE"/>
<path d="M138.09 158.25C142.32 158.1 145.63 154.52 145.48 150.27C145.33 146.02 141.77 142.69 137.54 142.84C133.31 142.99 130 146.57 130.15 150.82C130.3 155.08 133.86 158.4 138.09 158.25Z" fill="#3B65EE"/>
<path d="M139.06 194.87C143.29 194.72 146.6 191.14 146.45 186.89C146.3 182.64 142.74 179.31 138.51 179.46C134.28 179.61 130.97 183.19 131.12 187.44C131.27 191.7 134.83 195.02 139.06 194.87Z" fill="#3B65EE"/>
<path d="M126.41 54.36C130.64 54.21 133.95 50.63 133.8 46.38C133.65 42.13 130.09 38.8 125.86 38.95C121.63 39.1 118.32 42.68 118.47 46.93C118.61 51.18 122.17 54.51 126.41 54.36Z" fill="#3B65EE"/>
<path d="M170.05 68.64C168.25 76.41 163.64 83.23 157.1 87.78C150.56 92.34 142.56 94.3 134.65 93.3C126.74 92.29 119.49 88.39 114.3 82.34C109.11 76.29 106.35 68.53 106.55 60.56" fill="white"/>
<path d="M170.05 68.64C168.25 76.41 163.64 83.23 157.1 87.78C150.56 92.34 142.56 94.3 134.65 93.3C126.74 92.29 119.49 88.39 114.3 82.34C109.11 76.29 106.35 68.53 106.55 60.56" stroke="#3B65EE" stroke-width="2.5" stroke-miterlimit="10" stroke-linecap="round" stroke-linejoin="round"/>
<path d="M138.11 85.06C137.55 85.06 137.06 84.68 136.91 84.14L130.65 60.89C130.55 60.51 130.63 60.11 130.86 59.8C131.1 59.49 131.46 59.31 131.85 59.31H144.8C145.19 59.31 145.56 59.49 145.8 59.81C146.04 60.13 146.11 60.53 146 60.91L139.31 84.16C139.16 84.7 138.67 85.06 138.11 85.06Z" fill="#D1DAED"/>
<path d="M144.8 60.56L138.12 83.81L131.86 60.56H144.8ZM144.8 58.06H131.85C131.07 58.06 130.34 58.42 129.87 59.04C129.4 59.66 129.24 60.46 129.44 61.21L135.7 84.46C135.99 85.54 136.97 86.3 138.09 86.31C138.1 86.31 138.1 86.31 138.11 86.31C139.22 86.31 140.2 85.57 140.51 84.5L147.19 61.25C147.41 60.5 147.26 59.68 146.78 59.06C146.33 58.43 145.59 58.06 144.8 58.06Z" fill="#3B65EE"/>
<path d="M178.99 104.99L186.87 129.11L89.79 131.51L97.66 104.99H178.99Z" fill="#B0C3EA" stroke="#3B65EE" stroke-width="2.5" stroke-miterlimit="10" stroke-linecap="round" stroke-linejoin="round"/>
<path d="M183.91 121.96C181.04 122.63 178.15 123.04 175.26 123.38C172.37 123.71 169.48 123.96 166.58 124.1C163.68 124.26 160.78 124.3 157.87 124.27C154.96 124.24 152.05 124.11 149.12 123.74C151.99 123.07 154.88 122.65 157.77 122.32C160.66 121.99 163.55 121.74 166.45 121.6C169.35 121.45 172.25 121.4 175.16 121.43C178.07 121.47 180.99 121.6 183.91 121.96Z" fill="#3B65EE"/>
<path d="M94.9301 114.2C98.5201 113.55 102.13 113.15 105.74 112.83C109.35 112.5 112.96 112.31 116.57 112.15C120.18 112.04 123.8 111.96 127.42 112.02C131.04 112.07 134.66 112.21 138.3 112.6C134.71 113.25 131.1 113.66 127.49 113.97C123.88 114.3 120.27 114.49 116.66 114.64C113.05 114.75 109.43 114.83 105.81 114.76C102.19 114.72 98.5601 114.58 94.9301 114.2Z" fill="#3B65EE"/>
<path d="M116.37 104.96C116.37 104.96 102.9 90.58 88.6999 92.8C81.1599 93.98 77.3099 99.95 75.3599 105.28C73.9399 109.17 73.3699 113.32 73.4999 117.46L74.6499 153.41H100.31V104.98L116.37 104.96Z" fill="#B0C3EA" stroke="#3B65EE" stroke-width="2.5" stroke-miterlimit="10" stroke-linecap="round" stroke-linejoin="round"/>
<path d="M89.79 125.93C90.31 128.22 90.58 130.51 90.76 132.8C90.94 135.09 91.04 137.38 91.04 139.67C91.05 141.96 90.95 144.25 90.77 146.54C90.59 148.83 90.31 151.12 89.79 153.41C89.27 151.12 89 148.83 88.81 146.54C88.63 144.25 88.53 141.96 88.54 139.67C88.54 137.38 88.64 135.09 88.82 132.8C89.01 130.51 89.28 128.22 89.79 125.93Z" fill="#3B65EE"/>
</svg>
