<svg width="1170" height="789" viewBox="0 0 1170 789" fill="none" xmlns="http://www.w3.org/2000/svg">
<path d="M767.959 749.07C686.239 784.27 435.359 784.35 435.359 784.35C435.359 784.35 468.709 688.19 471.449 607.67C473.189 556.56 441.899 535.97 448.249 472.65C521.549 487.01 647.289 487.89 718.429 487.05C743.279 486.76 761.379 510.61 754.259 534.42C745.569 563.46 734.649 567.32 734.099 606.1C733.549 645.29 764.029 709.87 767.959 749.07Z" fill="white" stroke="#3B65EE" stroke-width="3" stroke-miterlimit="10" stroke-linecap="round"/>
<path d="M717.443 602.721C717.453 607.501 717.663 612.211 718.043 616.881C718.463 621.551 719.053 626.191 720.033 630.741C720.473 633.031 721.053 635.281 721.713 637.501C722.313 639.751 723.133 641.921 723.953 644.101C725.643 648.441 727.833 652.571 730.413 656.601C726.873 653.381 723.983 649.391 721.813 645.061C719.603 640.741 718.103 636.081 717.093 631.351C716.633 628.981 716.243 626.591 716.013 624.191C715.813 621.791 715.663 619.381 715.713 616.981C715.763 612.171 716.213 607.361 717.443 602.721Z" fill="#3B65EE"/>
<path d="M603.813 493.821C617.833 515.121 673.083 557.421 737.643 576.421C742.183 559.231 745.943 559.321 752.753 539.161C692.013 514.481 591.933 475.771 603.813 493.821Z" fill="#D1DAED" stroke="#D1DAED" stroke-width="3" stroke-miterlimit="10" stroke-linecap="round"/>
<path d="M754.246 534.43C745.556 563.47 734.636 567.33 734.086 606.11" stroke="#3B65EE" stroke-width="3" stroke-miterlimit="10" stroke-linecap="round"/>
<path d="M765.469 747.899C757.969 744.179 735.529 731.589 727.119 710.359C691.459 752.829 638.059 771.929 617.039 776.569C674.949 771.599 732.479 763.469 765.389 750.139C766.369 749.749 766.429 748.379 765.469 747.899Z" fill="#D1DAED" stroke="#D1DAED" stroke-width="3" stroke-miterlimit="10" stroke-linecap="round"/>
<path d="M767.259 748.541C764.019 745.991 750.259 734.221 741.339 711.701C705.679 754.171 638.069 771.921 617.039 776.571C675.989 771.511 734.549 763.181 767.139 749.421C767.499 749.271 767.569 748.781 767.259 748.541Z" fill="white" stroke="#3B65EE" stroke-width="3" stroke-miterlimit="10" stroke-linecap="round"/>
<path d="M624.256 558.031C631.686 558.701 638.256 553.181 638.926 545.711C639.596 538.241 634.116 531.641 626.686 530.981C619.256 530.311 612.686 535.831 612.016 543.301C611.346 550.761 616.826 557.361 624.256 558.031Z" fill="#3B65EE"/>
<path d="M583.899 554.4C591.329 555.07 597.899 549.55 598.569 542.08C599.239 534.61 593.759 528.02 586.319 527.35C578.889 526.68 572.319 532.2 571.649 539.67C570.979 547.14 576.469 553.74 583.899 554.4Z" fill="#3B65EE"/>
<path d="M653.109 581.941C653.849 582.121 654.539 582.451 655.139 582.911C655.739 583.371 656.239 583.951 656.609 584.611C656.979 585.271 657.199 586.001 657.269 586.761C657.339 587.521 657.249 588.281 657.009 589.001C652.159 602.181 642.589 613.081 630.149 619.601C617.709 626.121 603.299 627.791 589.699 624.291C576.099 620.791 564.289 612.361 556.549 600.651C548.809 588.931 545.699 574.761 547.809 560.881C547.949 560.141 548.239 559.431 548.659 558.801C549.079 558.171 549.629 557.641 550.269 557.241C550.909 556.841 551.629 556.571 552.369 556.451C553.119 556.341 553.879 556.381 554.609 556.581L653.109 581.941Z" fill="#3B65EE"/>
<path d="M627.759 458.68C616.269 457.66 606.359 458.41 598.709 459.62C589.059 461.15 584.639 472.58 590.779 480.18C601.779 493.78 625.969 514.42 678.869 536.18C733.539 558.66 765.789 561.07 782.959 559.34C793.439 558.28 797.879 549.71 792.759 540.51C787.009 530.18 777.179 516.74 762.039 508.58C734.779 493.91 655.339 461.13 627.759 458.68Z" fill="white" stroke="#3B65EE" stroke-width="3" stroke-miterlimit="10" stroke-linecap="round"/>
<path d="M590.779 480.18C598.139 489.28 611.419 501.53 635.239 515.16C594.709 481.19 598.529 465.7 605.769 458.74C603.249 458.98 600.879 459.28 598.709 459.62C589.059 461.16 584.639 472.59 590.779 480.18Z" fill="#D1DAED" stroke="#D1DAED" stroke-width="3" stroke-miterlimit="10" stroke-linecap="round"/>
<path d="M786.141 530.18C780.351 522.3 772.451 514.19 762.031 508.58C754.811 504.69 743.931 499.53 731.321 494.01C723.331 501.29 716.031 505.72 716.031 505.72C716.031 505.72 750.951 529.92 786.141 530.18Z" fill="#D1DAED" stroke="#D1DAED" stroke-width="3" stroke-miterlimit="10" stroke-linecap="round"/>
<path d="M627.759 458.68C616.269 457.66 606.359 458.41 598.709 459.62C589.059 461.15 584.639 472.58 590.779 480.18C601.779 493.78 625.969 514.42 678.869 536.18C733.539 558.66 765.789 561.07 782.959 559.34C793.439 558.28 797.879 549.71 792.759 540.51C787.009 530.18 777.179 516.74 762.039 508.58C734.779 493.91 655.339 461.13 627.759 458.68Z" stroke="#3B65EE" stroke-width="3" stroke-miterlimit="10" stroke-linecap="round"/>
<path d="M627.758 458.68C655.288 409.87 715.078 426.86 715.078 426.86C715.078 426.86 764.778 454.26 762.028 508.57C746.558 513.26 673.928 507.87 627.758 458.68Z" fill="white" stroke="#3B65EE" stroke-width="3" stroke-miterlimit="10" stroke-linecap="round"/>
<path d="M762.026 508.58C762.936 490.55 758.066 475.49 751.156 463.41C746.646 487.15 716.016 505.71 716.016 505.71C716.016 505.71 716.336 505.93 716.936 506.33C738.116 510.74 755.366 510.59 762.026 508.58Z" fill="#D1DAED" stroke="#D1DAED" stroke-width="3" stroke-miterlimit="10" stroke-linecap="round"/>
<path d="M700.58 427.5C694.28 428.99 688.17 430.97 682.22 433.3C679.26 434.5 676.32 435.74 673.47 437.15C670.61 438.55 667.78 440 665.08 441.66C659.61 444.89 654.46 448.64 649.72 452.87C644.95 457.09 640.71 461.89 636.75 467.03C639.64 461.23 643.5 455.85 648.1 451.18L649.83 449.43L651.65 447.78C652.87 446.68 654.14 445.65 655.42 444.62C658.01 442.6 660.75 440.79 663.55 439.08C669.2 435.76 675.22 433.06 681.44 431.09C687.66 429.15 694.09 427.76 700.58 427.5Z" fill="#3B65EE"/>
<path d="M706.096 430.971C703.416 432.161 700.986 433.751 698.716 435.531C698.126 435.941 697.586 436.421 697.026 436.881C696.476 437.351 695.906 437.781 695.376 438.271C694.346 439.281 693.236 440.181 692.246 441.231C688.186 445.291 684.526 449.741 681.246 454.481C679.496 456.771 678.026 459.261 676.436 461.661C674.866 464.081 673.506 466.641 671.956 469.101C670.606 471.661 669.166 474.191 667.766 476.751C666.436 479.341 665.116 481.941 663.656 484.511C664.496 481.701 665.456 478.931 666.426 476.151C667.516 473.421 668.686 470.721 669.876 468.031C670.526 466.711 671.196 465.401 671.886 464.091C672.596 462.801 673.206 461.451 673.996 460.201C675.546 457.691 677.036 455.131 678.796 452.741C680.476 450.301 682.386 448.031 684.296 445.751L687.376 442.531C688.396 441.451 689.556 440.511 690.656 439.511C691.196 439.001 691.796 438.561 692.386 438.101L694.156 436.741C694.756 436.301 695.396 435.911 696.006 435.501C696.626 435.101 697.236 434.661 697.896 434.321C700.456 432.821 703.196 431.531 706.096 430.971Z" fill="#3B65EE"/>
<path d="M715.925 434.279C717.365 436.909 718.305 439.799 719.095 442.699C719.875 445.609 720.385 448.589 720.745 451.579C721.095 454.569 721.235 457.589 721.245 460.609C721.295 462.119 721.195 463.619 721.105 465.129C721.005 466.629 720.985 468.139 720.785 469.639L720.225 474.119C720.005 475.609 719.715 477.079 719.435 478.559C718.915 481.519 718.115 484.419 717.335 487.319C716.545 490.209 715.475 493.019 714.525 495.849C713.395 498.619 712.215 501.369 710.945 504.069C711.585 501.139 712.385 498.279 713.115 495.409L714.095 491.079C714.405 489.629 714.835 488.219 715.065 486.759C715.555 483.849 716.295 480.989 716.635 478.069C716.845 476.609 717.125 475.169 717.315 473.719L717.795 469.339C718.385 463.509 718.635 457.639 718.415 451.769C718.255 448.839 718.085 445.899 717.655 442.989C717.285 440.059 716.755 437.149 715.925 434.279Z" fill="#3B65EE"/>
<path d="M750.318 507.89C750.528 504.5 750.528 501.13 750.368 497.78C750.238 494.43 749.918 491.09 749.478 487.78C748.568 481.17 747.048 474.66 744.848 468.4C742.678 462.12 739.758 456.13 736.248 450.46C732.688 444.82 728.508 439.57 723.898 434.58C729.348 438.63 734.168 443.59 738.198 449.15C740.208 451.94 741.978 454.89 743.598 457.93C745.148 461 746.528 464.16 747.688 467.41C748.788 470.67 749.718 473.99 750.418 477.35C751.088 480.72 751.588 484.12 751.808 487.54C752.058 490.96 752.058 494.39 751.848 497.79C751.588 501.2 751.188 504.6 750.318 507.89Z" fill="#3B65EE"/>
<path d="M667.839 454.981C669.247 454.981 670.389 453.839 670.389 452.431C670.389 451.023 669.247 449.881 667.839 449.881C666.431 449.881 665.289 451.023 665.289 452.431C665.289 453.839 666.431 454.981 667.839 454.981Z" stroke="#3B65EE" stroke-miterlimit="10" stroke-linecap="round"/>
<path d="M696.761 469.731C698.169 469.731 699.311 468.589 699.311 467.181C699.311 465.773 698.169 464.631 696.761 464.631C695.353 464.631 694.211 465.773 694.211 467.181C694.211 468.589 695.353 469.731 696.761 469.731Z" stroke="#3B65EE" stroke-miterlimit="10" stroke-linecap="round"/>
<path d="M627.758 458.68C654.898 409.97 715.078 426.86 715.078 426.86C715.078 426.86 764.778 454.26 762.028 508.57C746.558 513.26 673.928 507.87 627.758 458.68Z" stroke="#3B65EE" stroke-width="3" stroke-miterlimit="10" stroke-linecap="round"/>
<path d="M697.461 424.79C697.461 424.79 706.421 417.8 715.161 420.82C723.901 423.84 725.901 434.51 725.901 434.51C725.901 434.51 719.561 434.7 711.371 432.42C703.181 430.14 697.461 424.79 697.461 424.79Z" fill="white" stroke="#3B65EE" stroke-width="3" stroke-miterlimit="10" stroke-linecap="round"/>
<path d="M735.552 587.27C712.552 691.61 581.102 693.02 581.102 693.02C581.102 693.02 486.632 681.86 467.172 572.18" stroke="#3B65EE" stroke-width="3" stroke-miterlimit="10" stroke-linecap="round"/>
<path d="M558.106 641.629C551.656 638.349 545.516 639.179 542.996 642.439C540.476 645.699 533.836 653.889 533.836 653.889C536.186 651.299 560.296 662.839 558.986 665.609L566.366 654.299C568.266 650.589 564.566 644.909 558.106 641.629Z" fill="white" stroke="#3B65EE" stroke-width="3" stroke-miterlimit="10" stroke-linecap="round"/>
<path d="M491.658 707.988C486.028 707.438 481.678 708.758 480.348 711.368C480.088 711.888 479.948 712.468 479.898 713.098C481.998 712.008 485.118 711.558 488.818 711.918C492.638 712.288 497.058 713.518 501.528 715.788C511.278 720.738 516.888 728.408 516.538 733.158C517.638 732.588 518.468 731.858 518.928 730.958C520.598 727.668 517.788 721.728 511.628 716.608C511.608 716.588 511.588 716.568 511.558 716.558C511.098 716.178 510.608 715.798 510.108 715.418C509.868 715.238 509.608 715.068 509.368 714.888C507.848 713.808 506.188 712.788 504.368 711.858C499.898 709.588 495.488 708.358 491.658 707.988Z" fill="white" stroke="#3B65EE" stroke-width="3" stroke-miterlimit="10" stroke-linecap="round"/>
<path d="M561.869 667.059C564.229 662.059 559.299 654.559 550.729 650.209C542.909 646.239 534.769 646.269 531.389 649.989L473.539 712.439L520.429 737.079L561.869 667.059Z" fill="white" stroke="#3B65EE" stroke-width="3" stroke-miterlimit="10" stroke-linecap="round"/>
<path d="M517.451 694.109C508.971 689.799 500.241 688.629 494.111 690.389L473.531 712.439L520.421 737.079L534.821 712.749C533.381 706.219 526.891 698.899 517.451 694.109Z" fill="white" stroke="#3B65EE" stroke-width="3" stroke-miterlimit="10" stroke-linecap="round"/>
<path d="M516.1 734.889C513.87 739.279 503.13 739.999 492.09 734.399C481.05 728.789 475.3 719.689 477.53 715.299C478.86 712.679 483.2 711.369 488.84 711.919C492.66 712.289 497.08 713.519 501.55 715.789C512.57 721.399 518.33 730.499 516.1 734.889Z" fill="#D1DAED" stroke="#3B65EE" stroke-width="3" stroke-miterlimit="10" stroke-linecap="round"/>
<path d="M494.921 730.469C485.181 725.519 479.561 717.859 479.911 713.109C478.811 713.679 477.981 714.409 477.521 715.309C475.851 718.599 478.661 724.539 484.831 729.669C484.841 729.679 484.861 729.689 484.871 729.699C485.341 730.089 485.841 730.479 486.351 730.859C486.581 731.029 486.821 731.189 487.051 731.359C488.581 732.449 490.251 733.479 492.091 734.409C503.131 740.009 513.871 739.289 516.101 734.899C516.361 734.389 516.501 733.799 516.551 733.169C512.271 735.369 503.701 734.919 494.921 730.469Z" fill="#D1DAED" stroke="#3B65EE" stroke-width="3" stroke-miterlimit="10" stroke-linecap="round"/>
<path d="M503.732 711.469C490.692 704.849 477.022 705.579 473.202 713.109C469.382 720.639 476.852 732.109 489.892 738.729C502.932 745.349 516.602 744.619 520.422 737.089C524.242 729.559 516.772 718.089 503.732 711.469ZM516.102 734.889C513.872 739.279 503.132 739.999 492.092 734.399C481.052 728.789 475.302 719.689 477.532 715.299C478.862 712.679 483.202 711.369 488.842 711.919C492.662 712.289 497.082 713.519 501.552 715.789C512.572 721.399 518.332 730.499 516.102 734.889Z" fill="white" stroke="#3B65EE" stroke-width="3" stroke-miterlimit="10" stroke-linecap="round"/>
<path d="M522.794 697.059L521.984 705.369L545.094 714.519L551.244 708.259L522.794 697.059Z" fill="white" stroke="#3B65EE" stroke-width="3" stroke-miterlimit="10" stroke-linecap="round"/>
<path d="M522.797 697.058L551.247 708.258L570.917 679.528L542.957 670.148L522.797 697.058Z" fill="white" stroke="#3B65EE" stroke-width="3" stroke-miterlimit="10" stroke-linecap="round"/>
<path d="M603.103 657.139C596.653 653.859 589.883 654.229 587.993 657.949L579.953 668.389C581.993 666.139 606.713 679.739 605.353 682.619L611.363 669.819C613.253 666.089 609.553 660.419 603.103 657.139Z" fill="white" stroke="#3B65EE" stroke-width="3" stroke-miterlimit="10" stroke-linecap="round"/>
<path d="M544.658 729.069C539.028 728.519 534.678 729.839 533.348 732.449C533.088 732.969 532.948 733.549 532.898 734.179C534.998 733.089 538.118 732.639 541.818 732.999C545.638 733.369 550.058 734.599 554.528 736.869C564.278 741.819 569.888 749.489 569.538 754.239C570.638 753.669 571.468 752.939 571.928 752.039C573.598 748.749 570.788 742.809 564.628 737.689C564.608 737.669 564.588 737.649 564.558 737.639C564.098 737.259 563.608 736.879 563.108 736.499C562.868 736.319 562.608 736.149 562.368 735.969C560.848 734.889 559.188 733.869 557.368 732.939C552.898 730.679 548.488 729.449 544.658 729.069Z" fill="white" stroke="#3B65EE" stroke-width="3" stroke-miterlimit="10" stroke-linecap="round"/>
<path d="M608.231 684.069C610.591 679.069 605.661 671.569 597.091 667.219C589.271 663.249 581.131 663.279 577.751 666.999L577.151 667.779C577.041 667.949 576.921 668.119 576.821 668.309C576.771 668.399 576.401 668.849 575.761 669.589L526.531 733.529L573.421 758.169L608.231 684.069Z" fill="white" stroke="#3B65EE" stroke-width="3" stroke-miterlimit="10" stroke-linecap="round"/>
<path d="M573.419 758.169L584.939 733.639C583.759 726.969 577.149 719.359 567.449 714.439C558.959 710.129 550.219 708.959 544.089 710.729L526.539 733.529L573.419 758.169Z" fill="white" stroke="#3B65EE" stroke-width="3" stroke-miterlimit="10" stroke-linecap="round"/>
<path d="M569.1 755.969C566.87 760.359 556.13 761.079 545.09 755.479C534.05 749.869 528.3 740.769 530.53 736.379C531.86 733.759 536.2 732.449 541.84 732.999C545.66 733.369 550.08 734.599 554.55 736.869C565.57 742.479 571.33 751.579 569.1 755.969Z" fill="#D1DAED" stroke="#3B65EE" stroke-width="3" stroke-miterlimit="10" stroke-linecap="round"/>
<path d="M547.921 751.549C538.181 746.599 532.561 738.939 532.911 734.189C531.811 734.759 530.981 735.489 530.521 736.389C528.851 739.679 531.661 745.619 537.831 750.749C537.841 750.759 537.861 750.769 537.871 750.779C538.341 751.169 538.841 751.559 539.351 751.939C539.581 752.109 539.821 752.269 540.051 752.439C541.581 753.529 543.251 754.559 545.091 755.489C556.131 761.089 566.871 760.369 569.101 755.979C569.361 755.469 569.501 754.879 569.551 754.249C565.271 756.459 556.701 756.009 547.921 751.549Z" fill="#D1DAED" stroke="#3B65EE" stroke-width="3" stroke-miterlimit="10" stroke-linecap="round"/>
<path d="M556.732 732.549C543.692 725.929 530.022 726.659 526.202 734.189C522.382 741.719 529.852 753.189 542.892 759.809C555.932 766.429 569.602 765.699 573.422 758.169C577.242 750.639 569.772 739.169 556.732 732.549ZM569.102 755.969C566.872 760.359 556.132 761.079 545.092 755.479C534.052 749.869 528.302 740.769 530.532 736.379C531.862 733.759 536.202 732.449 541.842 732.999C545.662 733.369 550.082 734.599 554.552 736.869C565.572 742.479 571.332 751.579 569.102 755.969Z" fill="white" stroke="#3B65EE" stroke-width="3" stroke-miterlimit="10" stroke-linecap="round"/>
<path d="M423.768 784.86C421.698 778.37 418.628 772.24 414.688 766.68L423.768 784.86Z" fill="white"/>
<path d="M423.766 784.858C422.226 783.788 420.866 782.478 419.716 780.988C418.696 779.688 417.816 778.278 417.096 776.778C416.406 775.308 415.856 773.758 415.476 772.178C414.996 770.378 414.756 768.528 414.766 766.668C416.656 767.208 418.376 768.228 419.756 769.628C421.036 770.898 422.096 772.388 422.876 774.018C423.666 775.628 424.176 777.358 424.406 779.138C424.636 781.068 424.416 783.028 423.766 784.858Z" fill="#3B65EE"/>
<path d="M414.406 785.219C414.406 785.219 406.576 765.819 392.656 760.539L414.406 785.219Z" fill="white"/>
<path d="M414.408 785.22C412.288 783.28 410.288 781.21 408.428 779.01C406.638 776.93 404.968 774.85 403.308 772.8L398.288 766.74C396.548 764.76 394.758 762.82 392.648 760.53C395.738 760.46 398.788 761.27 401.438 762.87C404.018 764.45 406.308 766.46 408.208 768.82C410.058 771.13 411.568 773.71 412.678 776.46C413.848 779.23 414.438 782.21 414.408 785.22Z" fill="#3B65EE"/>
<path d="M395.266 775.35C395.796 779.34 396.886 783.24 398.516 786.92L395.266 775.35Z" fill="white"/>
<path d="M395.265 775.35C396.405 775.96 397.405 776.8 398.205 777.82C398.815 778.59 399.265 779.47 399.535 780.42C399.785 781.36 399.855 782.33 399.725 783.3C399.545 784.57 399.155 785.79 398.555 786.92C397.215 786.66 395.985 785.98 395.045 784.99C394.295 784.17 393.755 783.19 393.475 782.11C393.195 781.04 393.175 779.91 393.425 778.83C393.705 777.52 394.335 776.32 395.265 775.35Z" fill="#3B65EE"/>
<path d="M781.352 784.439C781.352 784.439 782.182 765.449 791.262 754.709L781.352 784.439Z" fill="white"/>
<path d="M781.346 784.439C780.306 781.789 779.796 778.969 779.866 776.119C779.906 773.339 780.316 770.569 781.096 767.899C781.916 765.199 783.146 762.639 784.756 760.309C786.406 757.909 788.636 755.979 791.256 754.709C790.606 757.619 789.926 760.039 789.246 762.489C788.566 764.939 787.916 767.359 787.186 769.719C786.456 772.079 785.676 774.589 784.766 776.979C783.836 779.559 782.696 782.049 781.346 784.439Z" fill="#3B65EE"/>
<path d="M790.861 785.64C790.861 785.64 790.031 775.72 790.861 771.59V785.64Z" fill="white"/>
<path d="M790.856 785.64C789.786 784.82 788.916 783.76 788.306 782.55C787.696 781.34 787.366 780.02 787.346 778.67C787.316 777.41 787.546 776.16 788.026 775C788.586 773.59 789.576 772.4 790.856 771.59C791.756 772.67 792.476 773.88 793.016 775.18C793.426 776.25 793.646 777.39 793.666 778.54C793.686 779.72 793.496 780.89 793.116 782C792.626 783.36 791.856 784.6 790.856 785.64Z" fill="#3B65EE"/>
<path d="M802.828 784.439C802.828 784.439 803.658 779.489 810.268 775.359L802.828 784.439Z" fill="white"/>
<path d="M802.831 784.439C802.391 783.879 802.071 783.239 801.891 782.549C801.711 781.859 801.681 781.139 801.791 780.439C801.981 779.239 802.501 778.119 803.281 777.189C804.061 776.279 805.091 775.609 806.241 775.259C807.561 774.849 808.981 774.899 810.271 775.399C810.181 776.659 809.891 777.899 809.431 779.069C808.831 780.699 807.681 782.059 806.181 782.919C805.101 783.499 803.981 784.009 802.831 784.439Z" fill="#3B65EE"/>
<path d="M763.672 775.35C770.282 779.48 771.112 784.43 771.112 784.43L763.672 775.35Z" fill="white"/>
<path d="M767.77 782.929C766.27 782.069 765.12 780.699 764.52 779.079C764.05 777.909 763.77 776.669 763.68 775.409C764.97 774.899 766.39 774.849 767.71 775.269C768.86 775.619 769.88 776.289 770.67 777.199C771.46 778.119 771.97 779.249 772.16 780.449C772.27 781.149 772.24 781.869 772.06 782.559C771.88 783.249 771.56 783.889 771.12 784.449C769.97 784.009 768.85 783.499 767.77 782.929Z" fill="#3B65EE"/>
<path d="M331.953 246.01C348.673 250.02 364.883 256.15 380.413 263.64C388.183 267.38 395.763 271.54 403.123 276.05C410.463 280.61 417.543 285.58 424.353 290.91C437.873 301.67 450.193 314.1 460.043 328.35C465.083 335.38 469.253 343.01 472.923 350.81L475.493 356.75C476.283 358.75 476.973 360.8 477.713 362.82L478.803 365.86C479.123 366.89 479.403 367.93 479.703 368.96L481.423 375.17C476.103 358.82 468.293 343.41 458.133 329.71C453.043 322.88 447.593 316.3 441.533 310.3C435.533 304.25 429.243 298.48 422.493 293.26C409.123 282.66 394.573 273.56 379.373 265.73C371.763 261.82 364.003 258.19 356.103 254.89C348.203 251.54 340.153 248.56 331.953 246.01Z" fill="#3B65EE"/>
<path d="M323.695 784.929C325.705 778.659 328.675 772.739 332.485 767.369L323.695 784.929Z" fill="white"/>
<path d="M323.694 784.929C323.094 783.159 322.914 781.269 323.164 779.409C323.384 777.689 323.884 776.029 324.634 774.469C325.384 772.899 326.404 771.459 327.644 770.229C328.984 768.879 330.644 767.889 332.474 767.369C332.484 769.169 332.244 770.959 331.764 772.689C330.974 775.779 329.554 778.669 327.604 781.189C326.514 782.629 325.184 783.889 323.694 784.929Z" fill="#3B65EE"/>
<path d="M332.734 785.279C332.734 785.279 340.314 766.549 353.754 761.449L332.734 785.279Z" fill="white"/>
<path d="M332.735 785.27C332.715 782.37 333.275 779.49 334.395 776.81C335.465 774.15 336.915 771.67 338.705 769.44C340.545 767.17 342.755 765.23 345.245 763.7C347.805 762.15 350.755 761.37 353.745 761.44C351.685 763.65 349.965 765.52 348.285 767.43L343.435 773.28C341.865 775.26 340.295 777.27 338.475 779.27C336.705 781.4 334.775 783.4 332.735 785.27Z" fill="#3B65EE"/>
<path d="M351.296 775.75C350.796 779.61 349.736 783.37 348.156 786.92L351.296 775.75Z" fill="white"/>
<path d="M351.297 775.75C352.147 776.58 352.757 777.62 353.067 778.77C353.377 779.91 353.377 781.12 353.067 782.27C352.777 783.31 352.247 784.28 351.497 785.06C350.587 786.03 349.397 786.68 348.097 786.93C347.527 785.84 347.137 784.65 346.967 783.43C346.857 782.5 346.917 781.56 347.157 780.65C347.427 779.74 347.857 778.89 348.447 778.14C349.217 777.15 350.187 776.34 351.297 775.75Z" fill="#3B65EE"/>
<path d="M218.794 786.92C166.554 497.55 266.924 273.75 266.924 273.75L279.964 232.51L297.134 235.05L303.454 275.89C303.454 275.89 246.634 544.62 310.954 786.82L218.794 786.92Z" fill="white" stroke="#3B65EE" stroke-width="3" stroke-miterlimit="10" stroke-linecap="round"/>
<path d="M218.789 786.92L252.099 786.01C239.209 770.78 221.389 743.72 207.219 699.6C209.629 727.9 213.399 757.06 218.789 786.92Z" fill="#D1DAED" stroke="#D1DAED" stroke-width="3" stroke-miterlimit="10" stroke-linecap="round"/>
<path d="M218.794 786.92C166.554 497.55 266.924 273.75 266.924 273.75L279.964 232.51L297.134 235.05L303.454 275.89C303.454 275.89 246.634 544.62 310.954 786.82L218.794 786.92Z" stroke="#3B65EE" stroke-width="3" stroke-miterlimit="10" stroke-linecap="round"/>
<path d="M291.805 232.82C291.805 232.82 317.505 171.75 390.325 151.74C463.145 131.73 570.655 204.69 570.655 204.69L474.695 205.71L429.805 179.01L448.645 203.88L405.935 210.3L378.335 199.22L389.045 214.62L291.805 232.82Z" fill="#D1DAED" stroke="#3B65EE" stroke-width="3" stroke-miterlimit="10" stroke-linecap="round"/>
<path d="M160.98 318.42C209.14 250.52 293.47 232.46 291.8 232.82L234.62 326.9L220.46 310.02L219.42 348.73L190.36 388.87L184.24 363.54L180.43 402.59L145.27 451.15C145.26 451.14 112.83 386.3 160.98 318.42Z" fill="#D1DAED" stroke="#3B65EE" stroke-width="3" stroke-miterlimit="10" stroke-linecap="round"/>
<path d="M284.109 245.469L291.249 233.729C290.889 233.559 290.519 233.389 290.149 233.219C282.759 235.079 251.979 243.619 219.219 264.339L219.759 274.229L284.109 245.469Z" fill="#A3BAE2" stroke="#A3BAE2" stroke-width="3" stroke-miterlimit="10" stroke-linecap="round"/>
<path d="M207.5 279.83L214.95 267.1C205.35 273.46 195.67 280.87 186.43 289.48L207.5 279.83Z" fill="#A3BAE2" stroke="#A3BAE2" stroke-width="3" stroke-miterlimit="10" stroke-linecap="round"/>
<path d="M160.98 318.42C209.14 250.52 293.47 232.46 291.8 232.82L234.62 326.9L220.46 310.02L219.42 348.73L190.36 388.87L184.24 363.54L180.43 402.59L145.27 451.15C145.26 451.14 112.83 386.3 160.98 318.42Z" stroke="#3B65EE" stroke-width="3" stroke-miterlimit="10" stroke-linecap="round"/>
<path d="M208.431 243.769L194.451 261.709L155.961 273.469L154.511 253.479L139.991 278.339L83.1013 295.709L92.5512 265.769L59.7213 302.849L3.03125 320.159C3.03125 320.159 48.1413 224.369 133.911 200.389C219.681 176.409 291.801 232.809 291.801 232.809L207.341 257.769L208.431 243.769Z" fill="#D1DAED" stroke="#3B65EE" stroke-width="3" stroke-miterlimit="10" stroke-linecap="round"/>
<path d="M291.805 232.82C291.805 232.82 339.965 269.91 362.345 334.05C384.725 398.19 338.785 498.58 338.785 498.58L320.905 426.17L336.715 391.8L315.045 401.31L291.805 232.82Z" fill="#D1DAED" stroke="#3B65EE" stroke-width="3" stroke-miterlimit="10" stroke-linecap="round"/>
<path d="M365.185 306.04L360.335 281.69L355.785 296.67L291.805 232.83C291.805 232.83 375.635 222.99 446.185 286.81C516.735 350.63 501.015 443.74 501.015 443.74L453.665 392.49L441.985 348.02L431.235 371.93L365.185 306.04Z" fill="#D1DAED" stroke="#3B65EE" stroke-width="3" stroke-miterlimit="10" stroke-linecap="round"/>
<path d="M235.653 160.95L206.453 157.19L172.643 131.01L200.933 118.62L157.873 112.32L115.133 66.5396C115.133 66.5396 209.853 60.6296 263.123 113.1C316.393 165.57 294.323 231.78 294.323 231.78L218.943 169.08L235.653 160.95Z" fill="#D1DAED" stroke="#3B65EE" stroke-width="3" stroke-miterlimit="10" stroke-linecap="round"/>
<path d="M240.211 118.529C243.971 120.699 247.431 123.369 250.761 126.169C254.071 128.999 257.201 132.049 260.121 135.289C263.071 138.509 265.771 141.959 268.321 145.509C270.831 149.099 273.101 152.839 275.191 156.689C277.261 160.549 279.031 164.569 280.611 168.639L281.731 171.729L282.731 174.859C283.441 176.929 283.901 179.069 284.471 181.179C286.441 189.689 287.361 198.429 287.031 207.089C286.101 198.469 284.551 189.999 282.201 181.779C279.751 173.589 276.591 165.619 272.551 158.109C268.571 150.569 263.771 143.449 258.361 136.819C255.641 133.509 252.801 130.289 249.771 127.249C246.741 124.179 243.591 121.239 240.211 118.529Z" fill="#3B65EE"/>
<path d="M257.944 222.819C248.284 221.039 238.554 219.749 228.794 218.919C219.034 218.029 209.254 217.559 199.474 217.469C179.924 217.359 160.334 218.839 141.234 222.789C136.464 223.769 131.714 224.889 127.014 226.189C122.324 227.499 117.684 228.999 113.104 230.639C103.944 233.939 95.0641 238.019 86.6241 242.879C69.7541 252.599 54.8141 265.769 43.1641 281.599C48.5141 273.359 54.8441 265.729 61.9341 258.869C69.0541 252.029 76.9641 245.999 85.4241 240.869C93.8641 235.689 102.874 231.489 112.124 227.979C116.764 226.259 121.474 224.739 126.224 223.379C130.984 222.039 135.794 220.879 140.624 219.859C150.314 217.889 160.114 216.559 169.954 215.799C179.794 215.079 189.664 214.829 199.514 215.149C209.364 215.439 219.194 216.229 228.954 217.479C233.834 218.119 238.694 218.879 243.534 219.739C248.364 220.589 253.184 221.579 257.944 222.819Z" fill="#3B65EE"/>
<path d="M263.922 401.459L284.352 404.119" stroke="#3B65EE" stroke-width="3" stroke-miterlimit="10" stroke-linecap="round"/>
<path d="M236.832 458.3L216.852 456.08" stroke="#3B65EE" stroke-width="3" stroke-miterlimit="10" stroke-linecap="round"/>
<path d="M262.039 513.85L278.589 514.7" stroke="#3B65EE" stroke-width="3" stroke-miterlimit="10" stroke-linecap="round"/>
<path d="M263.312 555.01L279.862 555.86" stroke="#3B65EE" stroke-width="3" stroke-miterlimit="10" stroke-linecap="round"/>
<path d="M268.633 753.51H288.363" stroke="#3B65EE" stroke-width="3" stroke-miterlimit="10" stroke-linecap="round"/>
<path d="M221.078 675.51H240.248" stroke="#3B65EE" stroke-width="3" stroke-miterlimit="10" stroke-linecap="round"/>
<path d="M1002.23 786.921C1022.4 493.561 899.096 274.621 899.096 274.621L881.606 235.061L864.816 239.471L863.016 280.761C863.016 280.761 949.766 539.131 912.426 786.921H1002.23Z" fill="white" stroke="#3B65EE" stroke-width="3" stroke-miterlimit="10" stroke-linecap="round"/>
<path d="M920.97 695.34C919.74 725.69 917.03 756.38 912.43 786.92L948.99 786.4L956.99 786.43C945.85 769.88 930.44 736.74 921.2 691.34C921.16 692.64 921.08 693.98 920.97 695.34Z" fill="#D1DAED" stroke="#D1DAED" stroke-width="3" stroke-miterlimit="10" stroke-linecap="round"/>
<path d="M1002.23 786.921C1022.4 493.561 899.096 274.621 899.096 274.621L881.606 235.061L864.816 239.471L863.016 280.761C863.016 280.761 949.766 539.131 912.426 786.921H1002.23Z" stroke="#3B65EE" stroke-width="3" stroke-miterlimit="10" stroke-linecap="round"/>
<path d="M867.227 235.909C867.227 235.909 826.217 183.869 750.687 183.949C675.167 184.029 590.938 282.949 590.938 282.949L683.717 258.419L719.898 220.739L708.347 249.729L751.227 244.559L774.888 226.539L768.658 244.229L867.227 235.909Z" fill="#D1DAED" stroke="#3B65EE" stroke-width="3" stroke-miterlimit="10" stroke-linecap="round"/>
<path d="M1021.76 248.76C947.244 211.64 864.384 235.54 866.024 235.07L960.844 291L965.364 269.44L984.564 303.07L1029.13 324.73L1022.57 299.51L1044.36 332.13L1098.28 358.34C1098.28 358.34 1096.25 285.87 1021.76 248.76Z" fill="#D1DAED" stroke="#3B65EE" stroke-width="3" stroke-miterlimit="10" stroke-linecap="round"/>
<path d="M869.103 234.29C868.573 234.9 868.093 235.48 867.633 236.02L876.303 241.13L951.713 241.59L946.883 228.74C909.443 225.72 878.683 232.01 869.103 234.29Z" fill="#A3BAE2" stroke="#A3BAE2" stroke-width="3" stroke-miterlimit="10" stroke-linecap="round"/>
<path d="M1005.43 242.4L1005.25 241.54C985.454 234.01 965.554 230.27 947.234 228.76L965.194 241.79L1005.43 242.4Z" fill="#A3BAE2" stroke="#A3BAE2" stroke-width="3" stroke-miterlimit="10" stroke-linecap="round"/>
<path d="M1021.76 248.76C947.244 211.64 864.384 235.54 866.024 235.07L960.844 291L965.364 269.44L984.564 303.07L1029.13 324.73L1022.57 299.51L1044.36 332.13L1098.28 358.34C1098.28 358.34 1096.25 285.87 1021.76 248.76Z" stroke="#3B65EE" stroke-width="3" stroke-miterlimit="10" stroke-linecap="round"/>
<path d="M948.579 207.07L969.359 216.31L1008.85 208.56L1000.71 190.25L1025.23 205.35L1083.6 193.89L1061.17 171.93L1107.59 189.18L1165.75 177.76C1165.75 177.76 1080.85 114.49 993.889 133.72C906.929 152.95 869.859 236.66 869.859 236.66L956.129 218.91L948.579 207.07Z" fill="#D1DAED" stroke="#3B65EE" stroke-width="3" stroke-miterlimit="10" stroke-linecap="round"/>
<path d="M869.876 236.66C869.876 236.66 826.076 278.81 810.866 345.02C795.656 411.23 852.346 505.97 852.346 505.97L862.166 432.03L842.676 399.6L865.256 406.67L869.876 236.66Z" fill="#D1DAED" stroke="#3B65EE" stroke-width="3" stroke-miterlimit="10" stroke-linecap="round"/>
<path d="M869.839 238.141C869.189 238.341 868.51 238.551 867.81 238.771C858.96 248.041 824.109 287.431 810.869 345.031C808.839 353.861 808.099 363.201 808.329 372.741L832.42 327.501L829.14 302.851L838.719 315.671L869.29 258.221L869.839 238.141Z" fill="#A3BAE2" stroke="#A3BAE2" stroke-width="3" stroke-miterlimit="10" stroke-linecap="round"/>
<path d="M869.876 236.66C869.876 236.66 826.076 278.81 810.866 345.02C795.656 411.23 852.346 505.97 852.346 505.97L862.166 432.03L842.676 399.6L865.256 406.67L869.876 236.66Z" stroke="#3B65EE" stroke-width="3" stroke-miterlimit="10" stroke-linecap="round"/>
<path d="M801.775 314.489L803.685 289.699L810.395 304.229L869.095 234.289C869.095 234.289 780.035 232.509 714.445 303.059C648.855 373.609 677.415 465.119 677.415 465.119L720.345 409.369L726.795 363.809L741.155 386.669L801.775 314.489Z" fill="#D1DAED" stroke="#3B65EE" stroke-width="3" stroke-miterlimit="10" stroke-linecap="round"/>
<path d="M883.897 145.749L907.027 127.539L922.607 87.7191L891.967 91.5991L925.687 64.0891L938.867 2.86914C938.867 2.86914 854.537 46.4091 835.747 118.779C816.957 191.149 869.877 236.649 869.877 236.649L902.397 144.149L883.897 145.749Z" fill="#D1DAED" stroke="#3B65EE" stroke-width="3" stroke-miterlimit="10" stroke-linecap="round"/>
<path d="M858.215 111.68C856.705 115.74 855.505 119.88 854.485 124.06C853.445 128.23 852.665 132.45 852.025 136.68C850.785 145.15 850.325 153.71 850.775 162.23C851.155 170.76 852.535 179.21 854.635 187.5C856.845 195.77 859.855 203.83 863.485 211.7C858.765 204.43 855.065 196.46 852.385 188.15C851.785 186.05 851.085 183.97 850.635 181.83L849.885 178.64L849.255 175.42C848.525 171.11 847.975 166.75 847.775 162.38C847.595 158.01 847.625 153.62 847.935 149.26C848.295 144.9 848.845 140.56 849.725 136.28C850.575 132 851.685 127.77 853.075 123.65C854.495 119.53 856.095 115.47 858.215 111.68Z" fill="#3B65EE"/>
<path d="M895.039 211.899C898.649 208.569 902.439 205.429 906.299 202.389C910.159 199.349 914.089 196.389 918.099 193.529C926.119 187.839 934.419 182.509 942.969 177.619C951.509 172.699 960.339 168.269 969.349 164.269C978.389 160.309 987.669 156.869 997.139 154.049C1001.88 152.669 1006.67 151.429 1011.5 150.369C1016.34 149.339 1021.21 148.449 1026.11 147.789C1035.92 146.529 1045.85 145.989 1055.73 146.589C1065.61 147.129 1075.43 148.729 1084.93 151.409C1094.42 154.129 1103.6 157.869 1112.19 162.619C1094.46 154.139 1075.08 149.559 1055.62 148.929C1045.89 148.619 1036.13 149.199 1026.5 150.599C1021.68 151.309 1016.89 152.179 1012.13 153.229C1007.37 154.289 1002.66 155.539 997.989 156.919C979.279 162.429 961.299 170.349 944.109 179.649C935.519 184.329 927.109 189.349 918.919 194.729C910.699 200.059 902.719 205.779 895.039 211.899Z" fill="#3B65EE"/>
<path d="M929.596 339.67L909.586 344.56" stroke="#3B65EE" stroke-width="3" stroke-miterlimit="10" stroke-linecap="round"/>
<path d="M939.758 426.369L959.378 421.969" stroke="#3B65EE" stroke-width="3" stroke-miterlimit="10" stroke-linecap="round"/>
<path d="M915.758 416.42L899.398 419.08" stroke="#3B65EE" stroke-width="3" stroke-miterlimit="10" stroke-linecap="round"/>
<path d="M935.608 569.039L919.258 571.699" stroke="#3B65EE" stroke-width="3" stroke-miterlimit="10" stroke-linecap="round"/>
<path d="M973.834 705.1L954.234 707.27" stroke="#3B65EE" stroke-width="3" stroke-miterlimit="10" stroke-linecap="round"/>
<path d="M984.98 585.629L965.93 587.739" stroke="#3B65EE" stroke-width="3" stroke-miterlimit="10" stroke-linecap="round"/>
<path d="M172.75 786.919H221.71C224.38 786.919 225.93 783.899 224.37 781.729L220.38 776.169C215.6 769.509 207.24 766.449 199.29 768.459L169.68 775.929L172.75 786.919Z" fill="white" stroke="#3B65EE" stroke-width="3" stroke-miterlimit="10" stroke-linecap="round" stroke-linejoin="round"/>
<path d="M179.529 782.849C180.979 780.119 180.679 776.769 178.699 774.399C175.059 770.029 168.319 763.879 159.179 763.879C150.089 763.879 145.169 768.839 142.819 772.399C141.339 774.639 138.779 775.939 136.099 775.939H129.799C125.809 775.939 122.019 777.709 119.459 780.769C117.419 783.209 119.149 786.929 122.339 786.929H172.759C175.589 786.919 178.199 785.359 179.529 782.849Z" fill="white" stroke="#3B65EE" stroke-width="3" stroke-miterlimit="10" stroke-linecap="round" stroke-linejoin="round"/>
<path d="M103.348 786.919H88.8281L93.9381 781.859C97.0881 778.749 102.268 779.179 104.848 782.779L105.208 783.289C106.308 784.799 105.218 786.919 103.348 786.919Z" fill="#D1DAED" stroke="#3B65EE" stroke-width="3" stroke-miterlimit="10" stroke-linecap="round" stroke-linejoin="round"/>
<path d="M159.412 773.639C157.942 774.599 156.432 775.509 154.902 776.359C153.372 777.189 151.872 778.119 150.132 778.709C149.272 778.989 148.392 779.209 147.502 779.339C146.592 779.449 145.742 779.519 144.862 779.579C143.112 779.709 141.362 779.779 139.602 779.779C141.322 779.389 143.042 779.059 144.772 778.799C146.522 778.529 148.202 778.349 149.802 777.759C150.612 777.499 151.382 777.159 152.162 776.779C152.952 776.409 153.742 776.019 154.542 775.669C156.142 774.939 157.762 774.259 159.412 773.639Z" fill="#3B65EE"/>
<path d="M1045.42 772.279C1044.24 772.649 1043.28 773.089 1042.39 773.569C1041.5 774.009 1040.72 774.559 1039.98 775.049C1038.5 776.079 1037.2 777.259 1035.89 778.519C1035.19 779.099 1034.59 779.829 1033.88 780.469C1033.21 781.149 1032.54 781.869 1031.78 782.559C1031.09 783.299 1030.31 784.009 1029.49 784.739C1028.69 785.489 1027.85 786.229 1026.78 786.929C1026.65 785.709 1026.74 784.529 1026.88 783.369C1027.07 782.219 1027.43 781.119 1027.8 780.019C1028.01 779.479 1028.28 778.959 1028.55 778.439C1028.82 777.919 1029.09 777.399 1029.43 776.909C1030.14 775.949 1030.83 774.979 1031.76 774.169C1033.51 772.499 1035.77 771.139 1038.29 770.669C1040.78 770.199 1043.57 770.549 1045.42 772.279Z" fill="#3B65EE"/>
<path d="M1052.87 781.739C1051.03 782.209 1049.58 782.419 1048.3 782.629C1047.02 782.829 1045.99 783.049 1045.21 783.269C1044.42 783.499 1043.81 783.669 1042.85 784.219C1041.91 784.779 1040.83 785.719 1039.33 786.919C1038.38 785.259 1038.27 783.379 1038.98 781.519C1039.35 780.599 1039.97 779.719 1040.78 778.999C1041.59 778.269 1042.6 777.769 1043.6 777.489C1045.64 776.939 1047.61 777.269 1049.19 778.019C1050.77 778.799 1052.1 779.969 1052.87 781.739Z" fill="#3B65EE"/>
<path d="M1018.75 760.959C1019.22 761.419 1019.55 761.979 1019.85 762.529C1020.16 763.089 1020.38 763.679 1020.58 764.269C1020.96 765.449 1021.19 766.669 1021.29 767.879C1021.48 770.299 1021.24 772.709 1020.65 774.979C1020.09 777.269 1019.16 779.439 1017.99 781.469C1017.36 782.469 1016.7 783.439 1015.93 784.359C1015.13 785.259 1014.28 786.139 1013.25 786.899C1013.09 785.599 1013.12 784.409 1013.19 783.249C1013.25 782.079 1013.36 780.959 1013.54 779.859C1013.84 777.659 1014.31 775.559 1014.82 773.499C1015.36 771.439 1015.94 769.429 1016.6 767.389C1017.26 765.359 1018.02 763.369 1018.75 760.959Z" fill="#3B65EE"/>
<path d="M875.203 762.488C878.183 762.148 881.083 762.798 883.793 763.998C886.483 765.218 889.013 767.128 890.863 769.768C892.733 772.378 893.673 775.838 893.293 778.998C892.903 782.168 891.423 784.958 889.203 786.918C889.143 783.938 889.093 781.368 888.573 779.118C888.063 776.878 887.193 774.988 885.933 773.178C884.673 771.378 883.063 769.648 881.223 767.928C879.383 766.208 877.373 764.498 875.203 762.488Z" fill="#3B65EE"/>
</svg>
