<?xml version="1.0" encoding="UTF-8"?><svg id="Layer_1" xmlns="http://www.w3.org/2000/svg" viewBox="0 0 500 500"><defs><style>.cls-1{fill:#fff;}.cls-2{fill:#80a4fb;}.cls-3{fill:#dce5fe;}.cls-4{fill:#2b67f8;}</style></defs><rect class="cls-1" x="1.5" y="1.5" width="497" height="497"/><path class="cls-1" d="m498.5,497h-13.38c-12.03,0-24.06,0-36.1,0-17.84,0-35.68,0-53.52,0H8.99c-2.18,0-4.48-.21-6.65,0-.28.03-.57,0-.85,0l1.5,1.5V8.99c0-2.18.21-4.48,0-6.65-.03-.28,0-.57,0-.85l-1.5,1.5h13.38c12.03,0,24.06,0,36.1,0,17.84,0,35.68,0,53.52,0h386.51c2.18,0,4.48.21,6.65,0,.28-.03.57,0,.85,0l-1.5-1.5v476.83c0,6.44-.11,12.89,0,19.33,0,.28,0,.56,0,.85,0,1.93,3,1.93,3,0V21.67c0-6.44.11-12.89,0-19.33,0-.28,0-.56,0-.85,0-.81-.69-1.5-1.5-1.5h-239.56c-24.14,0-48.28,0-72.43,0-22.36,0-44.71,0-67.07,0H21.67C15.24,0,8.78-.11,2.35,0c-.28,0-.56,0-.85,0C.69,0,0,.69,0,1.5v476.83c0,6.44-.11,12.89,0,19.33,0,.28,0,.56,0,.85,0,.81.69,1.5,1.5,1.5h476.83c6.44,0,12.89.11,19.33,0,.28,0,.56,0,.85,0,1.93,0,1.93-3,0-3Z"/><path class="cls-3" d="m383.5,422c24.71-20.95,15.35-64.1,11.62-91.95-4.19-31.37-16.75-63.51-16.67-95.03.08-34.79-.4-68.45-7.74-102.47-7.67-35.59-27.4-63.79-59.94-80.12-30.29-15.2-72.2-2.42-95.27,20.57l-1.13,1.45c-47.85-28.68-83.1,65.52-89.94,97.3-5.71,26.54-3.11,49.8-1.71,76.3,1.8,33.97-8.57,64.58-17.54,96.67-6.53,23.35-15.13,57.59,6.39,76.16l133.93,55.12,138-54Z"/><path class="cls-4" d="m384.56,423.06c22.36-19.22,17.66-53.85,13.97-79.73-1.05-7.37-1.98-14.78-3.27-22.11-1.73-9.86-4.05-19.6-6.35-29.34s-4.75-20.07-6.49-30.23-2.47-19.85-2.46-29.93c.02-20.94-.23-41.92-2.22-62.78-1.76-18.44-4.39-37.32-10.73-54.8-5.18-14.27-12.89-27.59-23.17-38.8s-23.37-20.98-37.56-26.53c-28.76-11.25-63.78-.76-86.67,18.43-2.26,1.89-4.47,3.84-6.29,6.16l1.82-.23c-9.75-5.78-20.98-7.3-31.57-2.87-10.9,4.56-19.4,13.59-26.32,22.9-8,10.77-14.32,22.78-19.7,35.04-4.85,11.05-9.03,22.44-12.28,34.07-4.8,17.16-6.22,34.86-5.76,52.63.31,11.6,1.31,23.16,1.8,34.75s-.46,23.35-2.38,34.85c-3.67,21.87-10.64,42.95-16.42,64.3-4.23,15.62-8.01,32.35-5.24,48.56,1.34,7.86,4.56,15.37,9.94,21.33,1.78,1.97,3.32,3.35,5.66,4.32,5.72,2.35,11.43,4.71,17.15,7.06,21.29,8.76,42.57,17.52,63.86,26.28,16.27,6.7,32.54,13.39,48.81,20.09.94.39,2.17,1.19,3.23,1,.91-.16,1.89-.74,2.74-1.07,6.35-2.48,12.69-4.97,19.04-7.45,21.53-8.43,43.06-16.85,64.59-25.28,16.35-6.4,32.7-12.8,49.06-19.2.86-.33,1.71-.67,2.57-1,1.78-.7,1-3.6-.8-2.89-11.69,4.58-23.39,9.15-35.08,13.73-21.79,8.53-43.59,17.06-65.38,25.58-8.66,3.39-17.31,6.77-25.97,10.16l-8.06,3.15c-.37.15-3.33.94-3.44,1.35.14-.49,1.07.38.39-.11-.44-.32-1.15-.47-1.65-.68l-6.77-2.78c-8.08-3.33-16.16-6.65-24.24-9.98-21.72-8.94-43.44-17.88-65.16-26.82-8.43-3.47-16.87-6.94-25.3-10.41l-7.56-3.11c-.92-.38-2.06-.66-2.9-1.2.99.63-1.31-1.63-.22-.4-.25-.28-.57-.53-.84-.8-.75-.73-1.47-1.5-2.15-2.29-1.42-1.65-2.67-3.45-3.76-5.34-1.93-3.36-3.29-7.01-4.19-10.78-1.93-8.09-1.74-16.57-.76-24.78,2.22-18.46,8.5-36.34,13.46-54.18,5.95-21.4,11-43.26,10.92-65.59-.04-11.4-1.22-22.8-1.71-34.19s-.51-22.23.66-33.29c1.36-12.9,4.61-25.36,8.8-37.61s9.32-24.47,15.48-36c6-11.23,13.05-22.26,22.33-31.09,7.6-7.23,17.26-13.05,28.09-12.47,5.55.3,10.8,2.3,15.54,5.11.51.3,1.42.28,1.82-.23,4.06-5.19,9.9-9.3,15.4-12.83,6.49-4.16,13.46-7.55,20.73-10.1,14.42-5.04,30.36-7.01,45.37-3.52s28.1,12.41,38.93,22.5,19.38,22.51,25.34,36.1c7.15,16.27,10.31,34.04,12.47,51.58,2.46,19.94,3.11,40.05,3.25,60.12.07,9.98-.25,19.97.77,29.92s2.81,19.2,4.9,28.67c4.07,18.45,8.83,36.65,11.47,55.38,1.91,13.61,4.17,27.2,4.4,40.97s-1.41,28.1-9.44,39.47c-1.88,2.66-4.12,5.04-6.6,7.16-1.47,1.26.66,3.37,2.12,2.12Z"/><path class="cls-1" d="m202.34,334.92c-1.5,2.33-1.71,5.41-1.91,8.06-.18,2.35-.19,4.72-.2,7.08,0,5.33.18,10.67.16,16-.01,3.15-.29,6.27-.71,9.39l.32-2.39c-1.28,9.31-3.54,18.61-3.67,28.04-.03,2.65.17,5.29.62,7.91.41,2.4,1.36,4.59,2.34,6.81,1.78,4.04,4.55,7.56,7.26,11s5.78,6.84,8.52,10.38l-1.41-1.82c1.98,2.57,3.66,5.34,5.48,8.03,2.32,3.41,4.8,6.72,7.38,9.93,4.82,6,10.29,11.19,16.45,15.8,1.68,1.26,5.01,1.53,6.94.91,2.28-.74,4.08-2.09,5.38-4.14.51-.81,1.05-1.58,1.64-2.34l-1.41,1.82c1.77-2.26,3.85-4.23,6.12-5.99l-1.82,1.41c6.86-5.25,15.05-8.36,22.04-13.4,4.51-3.25,8.46-6.89,11.42-11.65,3.5-5.64,4.84-12.12,5.28-18.66.58-8.66-1.31-17.22-2.47-25.76l.32,2.39c-1.14-8.83-.61-17.71-.59-26.58s-.92-18.15-1.48-27.23c-.18-2.91-1.23-5.27-3.55-7.07-2.1-1.62-5.21-2.59-7.85-1.61-6.56,2.44-13.37,4.05-20.3,4.99l2.39-.32c-11.21,1.48-22.57,1.23-33.76-.24l2.39.32c-3.96-.53-7.9-1.22-11.81-2.05-2.26-.48-4.91-.4-6.94.91s-3.26,3.08-4.14,5.38c-2.94,7.71-3.69,16.22-3.77,24.41s.56,16.01.6,24.02c.02,4.45-.15,8.91-.74,13.33l.32-2.39c-.3,2.15-.7,4.28-1.23,6.39l17.36,4.79c3.42-19.54,6.81-39.09,9.46-58.75h-17.36c.12.67.23,1.34.33,2.02l-.32-2.39c1.33,10.09-.55,20.27-1.64,30.29-.52,4.73-.7,9.42-.75,14.18-.04,4.09-.27,8.19-.1,12.28.23,5.64.97,11.65,3.98,16.56,1.9,3.1,5.37,4.78,8.97,4.3s6.57-2.98,7.48-6.45c4.72-18.02,1.27-36.67,3.69-54.92l-.32,2.39c.69-4.98,1.86-9.87,3.76-14.53-5.89-.8-11.79-1.6-17.68-2.39,2.6,21.4-4.51,42.6-3.38,64.02.34,6.55,1.32,13.17,3.44,19.39,1.17,3.45,3.79,5.95,7.48,6.45,1.65.22,3.13.03,4.66-.61,1.63-.69,3.56-1.99,4.3-3.68,1.16-2.63,2.16-5.22,2.7-8.04s.91-5.96,1.04-8.95c.21-4.82-.11-9.64-.43-14.44-.6-8.88-.57-17.78-.46-26.68.07-5.47.3-10.94,1.02-16.37l-.32,2.39c.65-4.68,1.66-9.33,3.49-13.7l-.91,2.15c.28-.64.57-1.28.88-1.91-5.59-1.51-11.18-3.03-16.77-4.54,3.13,24-1.97,48.16.19,72.21.66,7.4,1.84,14.79,4.09,21.88,1.15,3.65,4.65,6.79,8.68,6.61,3.8-.17,7.83-2.65,8.68-6.61,2.62-12.26.62-24.53.11-36.87-.16-3.95-.12-7.92-.22-11.88-.11-4.22-.21-8.44-.18-12.66.03-5.09.24-10.19.91-15.24l-.32,2.39c.53-3.9,1.33-7.8,2.83-11.46l-.91,2.15c.69-1.63,1.52-3.18,2.58-4.59l-1.41,1.82c.29-.37.59-.73.9-1.07-5.12-2.12-10.24-4.24-15.36-6.36,1.35,25.3-1.62,50.6-.44,75.9.36,7.78,1.17,15.52,2.42,23.21.33,2,2.39,4.46,4.14,5.38s3.69,1.34,5.74,1.07c4.34-.58,7.85-4.33,7.8-8.84-.23-21.45-.48-42.89.46-64.33.22-5.01.58-10.01,1.23-14.99l-.32,2.39c.79-5.85,1.97-11.71,4.26-17.17l-.91,2.15c.91-2.11,1.98-4.14,3.33-6-5.48-.72-10.97-1.43-16.45-2.15.22.87.4,1.74.53,2.62l-.32-2.39c.75,5.9-.38,11.92-.82,17.81-.48,6.36-.81,12.74-.97,19.12s-.12,12.64-.03,18.97c.08,5.38-.17,10.76-.04,16.14.16,6.61.73,13.52,3.07,19.75.71,1.89,1.59,3.41,3.23,4.68,1.52,1.17,3.48,2.02,5.45,1.93,3.88-.17,7.72-2.65,8.68-6.61,2.41-9.97,2.63-20.3,2.64-30.5,0-7.87.12-15.74.39-23.61.15-4.33.41-8.65.98-12.94l-.32,2.39c.58-4.28,1.45-8.56,3.12-12.56l-.91,2.15c.63-1.48,1.37-2.89,2.28-4.22-5.59-1.51-11.18-3.03-16.77-4.54,1.56,20.46-2.46,40.88-1.05,61.35.44,6.42,1.34,12.87,2.98,19.1.91,3.46,4.02,5.98,7.48,6.45,3.7.5,6.92-1.24,8.97-4.3,2.91-4.33,3.87-9.56,4.37-14.64.41-4.14.24-8.31.11-12.46-.26-7.98-.05-16.02.13-24,.12-5.05.38-10.1,1.04-15.1l-.32,2.39c.65-4.8,1.67-9.57,3.54-14.06l-.91,2.15c.18-.43.37-.85.57-1.27-5.48-.72-10.97-1.43-16.45-2.15.89,2.56,1.47,5.2,1.85,7.88l-.32-2.39c1.44,10.83-.09,21.82-1.11,32.61-.42,4.48-.54,8.95-.84,13.43-.27,4.09-.72,8.17-.69,12.28.04,6.25,1.03,12.86,5.5,17.57s13.49,2.56,15.04-3.97c2.35-9.91,2.36-20.1,1.91-30.22-.42-9.48-1.11-19.01.11-28.46l-.32,2.39c.3-2.19.7-4.36,1.22-6.51l-17.68-2.39c-1.31,14.47,1.36,29.04-.56,43.48l.32-2.39c-.33,2.34-.78,4.66-1.41,6.94-1.25,4.54,1.55,9.99,6.29,11.07s9.74-1.43,11.07-6.29c4.76-17.32.7-35.23,2.3-52.82.19-2.08-1.12-4.97-2.64-6.36s-3.16-2.21-5.17-2.48c-4.28-.58-8.81,2.07-9.87,6.45-2.43,9.94-2.43,20.2-1.98,30.35.43,9.57,1.13,19.19-.12,28.73l.32-2.39c-.28,2.05-.65,4.09-1.13,6.11,5.01-1.32,10.03-2.65,15.04-3.97-.15-.16-.3-.33-.44-.5l1.41,1.82c-.43-.57-.77-1.18-1.06-1.83l.91,2.15c-.56-1.35-.87-2.77-1.07-4.22l.32,2.39c-.53-4.11-.27-8.28.05-12.4.29-3.83.41-7.66.66-11.49.66-10.3,2.31-20.55,2.2-30.89-.07-6.18-.69-12.61-2.73-18.48-1.2-3.44-3.77-5.95-7.48-6.45-1.65-.22-3.13-.03-4.66.61-1.66.7-3.52,1.99-4.3,3.68-4.48,9.68-5.78,20.22-6.24,30.78-.2,4.76-.22,9.52-.25,14.28-.02,4.16-.19,8.32-.07,12.48.15,5.05.43,10.13-.21,15.16l.32-2.39c-.3,2.16-.78,4.29-1.62,6.31l.91-2.15c-.39.89-.84,1.73-1.38,2.53,5.48.72,10.97,1.43,16.45,2.15-.9-3.4-1.56-6.85-2.03-10.33l.32,2.39c-2.28-17.59.29-35.28.72-52.89.12-4.95.07-9.9-.31-14.83-.16-2.05-.66-3.8-1.93-5.45-1.15-1.49-2.79-2.8-4.68-3.23-4.1-.93-7.82.7-10.16,4.14-2.68,3.93-4.31,8.7-5.33,13.32-1.16,5.26-1.73,10.67-2.05,16.04-.59,9.71-.6,19.48-.61,29.21-.01,6.78-.11,13.57-.99,20.3l.32-2.39c-.33,2.39-.76,4.77-1.33,7.12h17.36c-1.09-2.89-1.74-5.9-2.15-8.96l.32,2.39c-.65-5.03-.67-10.12-.62-15.18s.01-10.21-.03-15.31c-.09-11.63.35-23.25,1.31-34.84.56-6.79,1.5-13.38-.24-20.11-.89-3.46-4.03-5.98-7.48-6.45-1.65-.22-3.13-.03-4.66.61-1.91.81-3.08,1.99-4.3,3.68-3.56,4.95-5.65,11.07-7.01,16.96-1.54,6.69-2.29,13.6-2.75,20.44-.39,5.74-.5,11.49-.65,17.23-.2,7.76-.39,15.51-.38,23.28,0,9.7.17,19.41.28,29.11,5.89-.8,11.79-1.6,17.68-2.39-.23-1.44-.45-2.89-.65-4.34l.32,2.39c-3.19-23.9-1.02-48.01-.68-72,.1-6.79.04-13.59-.33-20.37-.19-3.64-2.11-6.78-5.53-8.22-3.19-1.35-7.4-.8-9.83,1.86-4.09,4.47-6.47,10.16-7.75,16.03-1.35,6.16-1.87,12.55-2.04,18.85-.16,5.6-.02,11.2.13,16.8s.13,11.42.54,17.13c.61,8.53,1.58,17.17.45,25.7l.32-2.39c-.15,1.09-.34,2.16-.57,3.23h17.36c-1.51-4.78-2.55-9.68-3.23-14.64l.32,2.39c-2.66-20.12.38-40.36.29-60.53-.02-5.52-.3-11.04-1.02-16.52-.27-2.06-.62-3.75-1.93-5.45-1.15-1.49-2.79-2.8-4.68-3.23-1.58-.36-3.2-.36-4.79,0-2,.46-4.46,2.28-5.38,4.14-5.26,10.64-6.34,22.66-6.59,34.36-.21,9.95-.17,19.9.49,29.82.4,5.99.76,12.04-.03,18.02l.32-2.39c-.37,2.6-.96,5.16-1.98,7.58l.91-2.15-.14.31c5.48.72,10.97,1.43,16.45,2.15-1.24-3.65-2.08-7.4-2.59-11.22l.32,2.39c-2.36-18.34,2.33-36.59,3.25-54.86.25-4.98.21-9.98-.4-14.94-.29-2.36-.78-4.66-2.64-6.36-1.49-1.36-3.16-2.21-5.17-2.48s-4.06-.01-5.74,1.07l-1.82,1.41c-1.12,1.12-1.89,2.45-2.31,3.97-6.23,15.25-4.76,32.16-5.02,48.26-.07,4.45-.3,8.89-.88,13.3l.32-2.39c-.37,2.66-.87,5.29-1.55,7.89,5.48-.72,10.97-1.43,16.45-2.15-.36-.59-.67-1.19-.94-1.83l.91,2.15c-.75-1.83-1.16-3.75-1.44-5.7l.32,2.39c-.49-3.75-.47-7.53-.39-11.3s.03-7.23.17-10.84c.34-8.99,2.07-17.86,2.62-26.83.35-5.6.09-11.15-.93-16.68l-.91-2.15c-.57-1.05-1.34-1.89-2.32-2.53-1.52-1.17-3.48-2.02-5.45-1.93-1.6.07-3.13.48-4.54,1.23-1.7.9-3.87,3.4-4.14,5.38-2.65,19.66-6.04,39.21-9.46,58.75-.43,2.44-.38,4.73.91,6.94,1.09,1.87,3.23,3.65,5.38,4.14,4.67,1.06,9.84-1.4,11.07-6.29,3.72-14.75,1.69-29.89,1.69-44.87,0-4.05.17-8.1.7-12.12l-.32,2.39c.52-3.81,1.38-7.56,2.75-11.15l-11.07,6.29c18.54,3.96,37.74,4.95,56.42,1.3,4.85-.95,9.61-2.27,14.24-3.99-3.8-2.89-7.6-5.79-11.39-8.68.53,8.58,1.4,17.15,1.48,25.75s-.52,16.65.25,24.96c.49,5.33,1.5,10.59,2.21,15.88l-.32-2.39c.71,5.42.99,10.85.27,16.28l.32-2.39c-.37,2.57-.97,5.07-1.98,7.47l.91-2.15c-.84,1.94-1.91,3.76-3.19,5.44l1.41-1.82c-1.64,2.09-3.56,3.91-5.66,5.53l1.82-1.41c-4.02,3.06-8.51,5.4-12.92,7.82-5.04,2.77-9.93,5.78-14.23,9.62-2.69,2.4-5.01,5.27-6.94,8.31l12.31-3.23c-.34-.25-.68-.51-1.01-.77l1.82,1.41c-5.6-4.36-10.46-9.55-14.81-15.14l1.41,1.82c-3.43-4.44-6.25-9.28-9.6-13.76s-7.47-9.04-11.07-13.67l1.41,1.82c-2.17-2.82-4.19-5.76-5.58-9.05l.91,2.15c-.59-1.46-1.04-2.95-1.28-4.51l.32,2.39c-.61-4.69-.13-9.51.48-14.17l-.32,2.39c1.2-8.88,3.41-17.75,3.62-26.73.13-5.9-.14-11.82-.13-17.72,0-2.85-.01-5.73.34-8.56l-.32,2.39c.08-.59.17-1.2.39-1.76l-.91,2.15c.04-.1.09-.19.15-.28,2.55-3.97.94-10.11-3.23-12.31-4.47-2.36-9.59-1-12.31,3.23h0Z"/><path class="cls-1" d="m205.53,499.98c15.66,0,31.33-.72,46.99-.1,7.87.31,15.72.6,23.6.63,3.09.01,6.16.44,9.24.43,4.47-.01,9.11-1.33,12.21-4.74s3.98-7.39,5-11.56c.91-3.75,1.07-7.66,2.53-11.27l-.91,2.15c1.04-2.38,2.6-4.44,3.95-6.64,2.09-3.41,3.2-7.01,3.47-10.98.15-2.11-1.09-4.94-2.64-6.36l-1.82-1.41c-1.4-.81-2.92-1.22-4.54-1.23-8.76-1.06-17.92.42-26.12,3.59-3.79,1.47-7.48,3.03-10.79,5.4s-6.25,4.9-9.38,7.34l1.82-1.41c-2.36,1.83-4.82,3.56-7.57,4.76l2.15-.91c-1.29.54-2.61.93-3.99,1.13l2.39-.32c-.98.12-1.96.13-2.94.03l2.39.32c-1.07-.15-2.07-.45-3.07-.85l2.15.91c-3.62-1.55-6.59-4.17-10.07-5.96-3.85-1.99-7.96-3.25-12.12-4.4-8.41-2.32-17.07-3.74-25.26-6.83-2.93-1.1-6.65.2-8.76,2.31-1.12,1.12-1.89,2.45-2.31,3.97-.43,1.6-.43,3.19,0,4.79.86,5.87,3.51,11.49,6.31,16.66,2.57,4.74,5.55,9.23,8.35,13.83s10.16,6.23,14.14,1.82c.43-.48.89-.92,1.4-1.32l-1.82,1.41c.85-.64,1.76-1.16,2.74-1.57l-2.15.91c1.44-.57,2.92-.93,4.45-1.15l-2.39.32c4.05-.54,8.13-.2,12.2-.14,5.78.08,11.58-.02,17.36-.28,10.15-.46,20.78-1.14,29.86-6.15,4.51-2.49,8.49-5.96,12.35-9.35,2.86-2.52,3.46-7.73,1.41-10.91-.84-1.3-1.93-2.39-3.23-3.23-1.75-1.13-4.95-1.65-6.94-.91-8.7,3.26-17.65,5.8-26.86,7.07l2.39-.32c-5.73.77-11.52,1.05-17.3.78-6.13-.28-12.2-1.28-18.31-1.81-4.2-.36-8.42-.47-12.64-.57s-8.88.27-12.87,2.28c-6.47,3.27-8.39,10.75-6.44,17.34,1.27,4.31,5.43,7.04,9.87,6.45s7.84-4.33,7.8-8.84c-.08-10.72-1.29-21.55-4.09-31.91-1.23-4.54-6.46-7.78-11.07-6.29s-7.6,6.2-6.29,11.07c1.19,4.42,2.07,8.92,2.69,13.45l-.32-2.39c.7,5.33,1.04,10.69,1.08,16.06,5.89-.8,11.79-1.6,17.68-2.39-.17-.57-.31-1.14-.4-1.73l.32,2.39c-.08-.64-.11-1.27-.03-1.91l-.32,2.39c.06-.4.16-.79.31-1.17l-.91,2.15c.15-.34.34-.66.57-.96l-1.41,1.82c.24-.29.5-.53.79-.77l-1.82,1.41c.42-.31.87-.55,1.34-.76l-2.15.91c.95-.38,1.94-.6,2.95-.74l-2.39.32c3.06-.39,6.15-.12,9.22-.04,5.77.16,11.46.68,17.19,1.34s11.98,1.16,18.04.9,12.61-1.12,18.78-2.42c6.6-1.39,13.06-3.4,19.38-5.77-2.92-5.01-5.84-10.03-8.76-15.04-1.73,1.52-3.47,3.02-5.29,4.43l1.82-1.41c-2.49,1.92-5.12,3.63-8.02,4.86l2.15-.91c-3.24,1.35-6.67,2.07-10.14,2.55l2.39-.32c-8.14,1.09-16.4,1.25-24.61,1.3-6.87.04-13.75-.6-20.56.6-4.34.77-8.76,2.93-11.73,6.23l14.14,1.82c-3.92-6.45-8.21-12.72-11.2-19.68l.91,2.15c-1.17-2.79-2.11-5.66-2.55-8.66-3.69,3.69-7.38,7.38-11.07,11.07,5.59,2.11,11.41,3.45,17.22,4.82,5.32,1.25,10.81,2.43,15.88,4.51l-2.15-.91c3.72,1.59,6.8,4.16,10.33,6.06,5.06,2.73,10.28,3.65,15.91,2.43,7.85-1.7,13.93-7.72,20.05-12.48l-1.82,1.41c2.8-2.16,5.66-3.9,8.92-5.28l-2.15.91c4.42-1.84,9-3.18,13.74-3.86l-2.39.32c3.88-.51,7.78-.56,11.66-.09l-9-9c-.01.26-.04.52-.07.78l.32-2.39c-.15,1.1-.44,2.14-.86,3.16l.91-2.15c-.89,2.02-2.18,3.8-3.37,5.65-1.7,2.66-3.03,5.61-3.77,8.68-1.12,4.66-1.34,9.66-3.21,14.12l.91-2.15c-.24.52-.51,1.01-.86,1.47l1.41-1.82c-.31.37-.63.7-1.01,1l1.82-1.41c-.44.31-.88.55-1.37.76l2.15-.91c-.61.23-1.22.37-1.86.46l2.39-.32c-2.11.22-4.24,0-6.35-.18-2.3-.19-4.59-.15-6.9-.17-5.49-.05-10.99-.18-16.47-.4-11.03-.45-22.03-.5-33.07-.33-6.27.1-12.54.21-18.82.21-4.71,0-9.22,4.14-9,9s3.95,9,9,9h0Z"/><path class="cls-2" d="m450.47,497.56c-4.18-12.72-6.66-25.14-14.03-37.05-6.87-11.1-12.72-19.83-24.43-26.24-10.57-5.79-21.64-7.55-33.19-10.16s-23.55-5.6-35.36-8.1c-8.19-1.74-20.12-5.3-25.06-12.53l-8.9,51.53c-3.54,14.03-8.63,29.06-13,43l148.45.57,5.52-1.01Z"/><path class="cls-2" d="m451.55,497.26c-3.81-11.63-6.51-23.71-12.49-34.5-2.61-4.7-5.6-9.3-8.8-13.62-2.92-3.95-6.2-7.63-10.03-10.72-9.33-7.53-20.81-10.93-32.33-13.48-12.83-2.83-25.59-5.93-38.41-8.78-5.66-1.26-11.35-2.35-16.8-4.38-4.94-1.84-10.22-4.45-13.32-8.89-.49-.71-1.88-.77-2.06.27-1.53,8.83-3.05,17.67-4.58,26.5-1.02,5.93-2.05,11.86-3.07,17.79-.57,3.32-1.07,6.62-1.93,9.88-3.58,13.61-8.11,26.94-12.32,40.36-.22.7.38,1.42,1.08,1.42,5.3.02,10.59.04,15.89.06,12.57.05,25.14.1,37.71.14,14.83.06,29.65.11,44.48.17,12.17.05,24.35.09,36.52.14,3.56.01,7.11.03,10.67.04,1.77,0,3.31,0,5.05-.32,1.31-.24,2.63-.48,3.94-.72,1.42-.26.82-2.43-.6-2.17s-2.77.51-4.16.76c-.3.05-.6.11-.9.16-.18.03-.77.06-.16.04-.03,0-.06,0-.09,0-.56,0-1.13,0-1.69,0-3.05-.01-6.1-.02-9.15-.04-11.54-.04-23.08-.09-34.61-.13-14.73-.06-29.47-.11-44.2-.17-13.09-.05-26.18-.1-39.28-.15l-12.98-.05-4.06-.02c-.68,0-1.45-.1-2.12,0-.09.01-.18,0-.27,0l1.08,1.42c3.75-11.96,7.74-23.84,11.11-35.91.73-2.62,1.57-5.26,2.04-7.95l.81-4.69c2.06-11.9,4.11-23.8,6.17-35.71.59-3.42,1.18-6.85,1.77-10.27l-2.06.27c5.33,7.63,15.6,10.75,24.24,12.72,12.8,2.92,25.59,5.94,38.41,8.78,11.82,2.62,23.93,4.85,34.32,11.44,8.78,5.58,14.71,13.89,20.13,22.57,3.68,5.89,6.53,12.07,8.77,18.65s3.97,13.14,6.1,19.66c.45,1.37,2.62.78,2.17-.6Z"/><path class="cls-2" d="m39.98,497.56c4.18-12.72,6.66-25.14,14.03-37.05,6.87-11.1,12.72-19.83,24.43-26.24,10.57-5.79,21.64-7.55,33.19-10.16,11.9-2.69,23.55-5.6,35.36-8.1,8.19-1.74,20.12-5.3,25.06-12.53l18.83,52.92c3.54,14.03,7.24,28.67,11.61,42.61l-162.51-1.44Z"/><path class="cls-2" d="m41.07,497.86c3.79-11.59,6.46-23.65,12.49-34.36,5.03-8.93,11.05-18.1,19.34-24.33,9.68-7.27,21.45-10.15,33.07-12.67,12.93-2.8,25.75-6.04,38.68-8.84,5.39-1.17,10.74-2.4,15.85-4.54,4.79-2.01,9.49-4.74,12.52-9.07l-2.06-.27c3.11,8.74,6.22,17.48,9.33,26.23,2.15,6.05,4.31,12.11,6.46,18.16,1.01,2.84,2.13,5.66,3.04,8.53,1,3.16,1.64,6.48,2.46,9.69.93,3.65,1.88,7.31,2.85,10.95,1.96,7.36,4.03,14.7,6.3,21.97l1.08-1.42c-5.41-.05-10.82-.1-16.24-.14-12.91-.11-25.82-.23-38.72-.34-15.69-.14-31.38-.28-47.07-.42-13.49-.12-26.98-.24-40.47-.36-6.57-.06-13.18-.35-19.75-.17-.09,0-.18,0-.27,0-1.45-.01-1.45,2.24,0,2.25,5.41.05,10.82.1,16.24.14,12.91.11,25.82.23,38.72.34,15.69.14,31.38.28,47.07.42,13.49.12,26.98.24,40.47.36,6.57.06,13.18.35,19.75.17.09,0,.18,0,.27,0,.71,0,1.3-.73,1.08-1.42-4.02-12.85-7.38-25.89-10.68-38.93-.91-3.61-2.11-6.99-3.36-10.5-4.28-12.03-8.56-24.06-12.85-36.09-1.19-3.33-2.37-6.67-3.56-10-.34-.94-1.49-1.08-2.06-.27-2.72,3.89-7.15,6.36-11.44,8.15s-9.18,3.06-13.91,4.07c-12.98,2.78-25.85,6.06-38.82,8.87-11.75,2.55-23.73,5.23-33.76,12.23-8.38,5.84-14.15,14.14-19.47,22.7-3.62,5.81-6.39,12-8.61,18.47s-4.01,13.28-6.17,19.87c-.45,1.38,1.72,1.97,2.17.6Z"/><path class="cls-1" d="m246.41,470.49c-6.91-5.49-13.73-8.23-20.33-11.36-8.3-3.93-20.28-6.54-29.4-6.38-10.39.18-19.07,12.82-26.86,19.68-8.52,7.5-15.14,15.65-22.56,24.1-.49-9.1.7-19.37,2.66-28.19,4.5-20.32,14.11-38.97,20.03-58.88,3.02-10.16,5.71-16.32,12.12-24.97,6.19-8.34,11.8-18.73,18.4-26.26,0,14.81-3.77,28.79-3.97,43.36-.26,18.85,17.15,33.62,27.87,47.56,6,7.8,15.51,13.79,22.14,20.85"/><path class="cls-4" d="m247.47,469.43c-6.79-5.34-14.74-9.14-22.67-12.5-7.44-3.15-15.56-5-23.61-5.55-3.44-.24-6.86-.27-10.11,1.03s-5.93,3.23-8.5,5.42c-2.78,2.38-5.32,5.03-7.85,7.66s-5.17,5.11-7.86,7.58c-7.49,6.89-13.97,14.76-20.67,22.4l2.56,1.06c-1.04-20.58,5.47-40.16,12.74-59.1,3.66-9.53,7.28-19.03,10.26-28.8,1.22-4.01,2.59-7.99,4.42-11.78s4.15-7.45,6.66-10.89c6.38-8.75,11.56-18.47,18.68-26.66l-2.56-1.06c-.03,9.99-1.76,19.82-2.95,29.71-1.03,8.59-1.93,17.33,1.05,25.63,2.64,7.34,7.21,13.76,12.09,19.77s9.98,11.82,14.88,17.8c6.21,7.58,14.69,12.82,21.4,19.91,1.33,1.4,3.45-.72,2.12-2.12-5.88-6.21-13.06-11-18.97-17.18-2.66-2.78-4.91-5.93-7.4-8.87s-5.02-5.81-7.5-8.75c-4.89-5.8-9.65-11.91-12.75-18.89-1.48-3.33-2.52-6.93-2.84-10.57-.39-4.45.08-9.03.54-13.45,1.14-11,3.29-21.9,3.32-32.99,0-1.23-1.69-2.07-2.56-1.06-6.46,7.43-11.25,16.11-16.89,24.14-2.61,3.72-5.34,7.32-7.54,11.32-1.98,3.62-3.55,7.44-4.87,11.34-1.61,4.74-2.95,9.57-4.6,14.3s-3.6,9.82-5.48,14.7c-3.73,9.67-7.49,19.35-10.18,29.37-2.97,11.07-4.67,22.71-4.09,34.19.06,1.21,1.65,2.1,2.56,1.06,5.7-6.49,11.22-13.16,17.36-19.24,2.75-2.72,5.71-5.2,8.44-7.94,2.43-2.44,4.76-4.97,7.22-7.38,4.63-4.52,9.83-8.85,16.62-8.78,7.72.08,15.54,1.7,22.8,4.31,4.09,1.47,8.03,3.43,11.93,5.32,4.45,2.16,8.76,4.61,12.66,7.67,1.5,1.18,3.64-.93,2.12-2.12h0Z"/><path class="cls-1" d="m247.72,469.83c16.17-8.08,35.39-21.67,54.37-19.69,9.06.94,15.45,11.74,21.93,17.87,8.62,8.17,18.78,15.43,24.55,26.09-3.06-9.01-4.89-19.26-6.98-28.86-4.27-19.62-11.52-38.65-19.53-56.95s-16.87-39.3-27.08-54.64v.66c1.11,17.66,2.14,35.19,1.31,52.79-.35,7.51.52,14.92-3.9,21.37-5.55,8.1-15.67,16.03-23.19,22.34-3.86,3.24-8.45,6.02-12.13,9.16-3.96,3.37-5.58,5.05-9.58,10.05"/><path class="cls-4" d="m248.48,471.13c7.45-3.73,14.6-8.02,22.07-11.7s15.52-7,23.91-7.8c3.53-.34,7.51-.52,10.85.88,3.17,1.33,5.79,3.75,8.15,6.19s4.7,5.3,7.1,7.91c2.6,2.82,5.51,5.34,8.38,7.88,6.86,6.07,13.88,12.23,18.34,20.36.8,1.47,3.29.48,2.74-1.16-3.19-9.47-4.9-19.35-7.03-29.09s-5.18-19.93-8.63-29.63-7.28-18.93-11.34-28.22-7.68-17.68-11.79-26.4c-4.44-9.43-9.19-18.77-14.95-27.47-.8-1.21-2.8-.79-2.8.76,0,4.57.53,9.19.78,13.76.27,5.01.5,10.02.65,15.04.29,9.79-.08,19.52-.25,29.3-.07,4.1-.16,8.28-1.6,12.18s-4.41,7.15-7.22,10.1c-3.01,3.16-6.27,6.08-9.59,8.92s-6.39,5.51-9.71,8.08c-3.92,3.03-8.08,5.71-11.82,8.98-3.09,2.7-5.73,5.74-8.29,8.94-1.2,1.49.91,3.63,2.12,2.12,2.3-2.87,4.66-5.67,7.39-8.14,3.29-2.97,6.89-5.45,10.45-8.07s6.74-5.37,10.03-8.14,6.75-5.77,9.9-8.9c2.94-2.92,5.94-6.1,8.04-9.7s2.92-7.96,3.16-12.2c.25-4.57.3-9.18.43-13.76.14-5.09.15-10.19.05-15.28-.11-5.76-.34-11.51-.64-17.26-.15-2.8-.31-5.6-.47-8.39-.15-2.52-.43-5.06-.43-7.58l-2.8.76c10.37,15.65,17.71,33.19,25.19,50.34,8.12,18.6,15.73,37.43,20.42,57.23,2.57,10.85,4.25,21.93,7.81,32.53l2.74-1.16c-4.12-7.51-10.35-13.45-16.68-19.09-3.03-2.7-6.16-5.32-9.02-8.2-2.58-2.61-4.88-5.47-7.36-8.17s-5.1-5.27-8.25-7.09c-3.32-1.91-6.89-2.39-10.68-2.34-8.64.09-16.99,2.94-24.78,6.47-8.96,4.05-17.35,9.22-26.13,13.62-1.73.87-.21,3.45,1.51,2.59h0Z"/><path class="cls-4" d="m199.62,341.83c-.01,5.4-.64,10.77-.62,16.17,0,1.93,3.01,1.93,3,0-.02-5.4.61-10.77.62-16.17,0-1.93-3-1.93-3,0h0Z"/><path class="cls-4" d="m296.3,357.11c1.93,0,1.93-3,0-3s-1.93,3,0,3h0Z"/><path class="cls-4" d="m292.83,337.89c0,6.35.14,12.71.66,19.04.15,1.91,3.16,1.93,3,0-.51-6.33-.65-12.69-.66-19.04,0-1.93-3-1.93-3,0h0Z"/><path class="cls-4" d="m306.64,452.7c-.47,7.81-3.19,15.34-5.61,22.71s-4.12,14.98-6.98,22.19c-.71,1.8,2.19,2.57,2.89.8,2.91-7.34,4.66-15.11,7.11-22.61s5.1-15.14,5.58-23.09c.12-1.93-2.89-1.92-3,0h0Z"/><path class="cls-4" d="m189.89,454.32c3.73,14.78,7.62,29.53,12.17,44.08.57,1.84,3.47,1.05,2.89-.8-4.55-14.55-8.43-29.3-12.17-44.08-.47-1.87-3.37-1.08-2.89.8h0Z"/><path class="cls-4" d="m246.18,469.46c-5.34,7.78-3.96,18.16-4.25,27.07-.06,1.93,2.94,1.93,3,0,.27-8.35-1.17-18.26,3.84-25.55,1.1-1.6-1.5-3.1-2.59-1.51h0Z"/><path class="cls-4" d="m255.97,485.08c-1.87-.34-3.76.05-5.26,1.24-.63.5-1.12,1.21-1.35,1.99-.27.94-.09,1.93.36,2.77.49.91,1.35,1.67,2.21,2.2.75.46,1.61.71,2.49.77,1.6.09,3.2-.72,4.03-2.09,1.11-1.82.53-4.09-.67-5.71-.24-.32-.49-.58-.9-.69-.36-.1-.84-.05-1.16.15-.62.4-1.04,1.38-.54,2.05.27.37.46.77.69,1.16-.1-.24-.12-.29-.06-.15.02.05.04.09.05.14.03.09.06.18.09.27.05.17.08.35.11.52l-.05-.4c.04.28.04.56,0,.85l.05-.4c-.02.15-.05.3-.09.44-.02.07-.06.14-.07.21,0,0,.17-.38.09-.21-.02.03-.03.06-.05.1-.03.05-.23.32-.22.36,0,0,.26-.31.14-.18-.02.03-.05.05-.07.08-.05.06-.11.11-.17.17s-.27.22-.03.04.02-.02-.04.02c-.12.08-.24.14-.37.21-.24.12.37-.13.11-.05-.07.02-.14.05-.21.07-.15.04-.3.07-.46.09l.4-.05c-.29.03-.57.03-.86,0l.4.05c-.16-.02-.32-.05-.47-.09-.08-.02-.16-.05-.24-.07-.04-.01-.08-.03-.12-.04-.19-.06.18.07.18.08,0,0-.43-.22-.47-.24-.08-.05-.16-.1-.23-.15-.05-.03-.09-.07-.14-.1-.22-.16.17.14.03.03-.18-.16-.36-.31-.52-.48-.07-.08-.14-.16-.21-.24-.12-.13.19.27.1.13-.03-.04-.05-.08-.08-.12-.05-.08-.1-.16-.14-.24-.02-.04-.04-.08-.06-.12-.08-.14.12.33.08.18-.04-.16-.1-.32-.12-.49l.05.4c-.02-.18-.02-.36,0-.55l-.05.4c.02-.15.07-.29.12-.44s-.16.34-.09.21c.02-.03.03-.07.05-.1.04-.07.08-.14.13-.21.02-.03.05-.06.06-.09,0,0-.26.31-.13.17.06-.06.11-.13.18-.19.06-.06.11-.11.17-.16.03-.03.06-.05.09-.08.11-.1-.34.24-.13.11.14-.09.28-.18.43-.26.09-.05.17-.09.26-.13.27-.13-.34.12-.06.02.38-.13.75-.23,1.15-.29l-.4.05c.44-.05.89-.05,1.33,0l-.4-.05c.07.01.14.02.21.03.4.07.79.06,1.16-.15.31-.18.61-.54.69-.9.17-.73-.22-1.7-1.05-1.85h0Z"/><path class="cls-4" d="m171.2,400.24c-2.77,3.96-7.37,6.44-11.75,8.2-4.71,1.89-9.62,3.04-14.57,4.11-13.45,2.91-26.8,6.26-40.25,9.18-11.93,2.6-23.88,5.83-33.65,13.5-4.05,3.18-7.49,6.99-10.56,11.11-3.25,4.36-6.29,9.01-8.9,13.78-6.41,11.72-9.34,24.88-13.46,37.48-.6,1.84,2.29,2.63,2.89.8,3.66-11.19,6.34-22.79,11.46-33.45,2.43-5.04,5.5-9.81,8.68-14.41,2.91-4.21,6.16-8.17,10.02-11.54,9.29-8.1,21.22-11.49,33.01-14.08,13.24-2.91,26.41-6.14,39.65-9.05,5.7-1.25,11.39-2.44,16.81-4.66,5.05-2.07,10.02-4.87,13.21-9.44,1.11-1.59-1.49-3.09-2.59-1.51h0Z"/><path class="cls-4" d="m318.2,401.76c5.84,8.36,16.48,11.49,25.95,13.53,13.11,2.82,26.11,6.12,39.22,8.96,11.81,2.56,23.8,5.37,33.64,12.77,3.99,3,7.44,6.7,10.42,10.69,3.18,4.25,6.15,8.79,8.73,13.43,6.43,11.56,9.04,24.73,12.88,37.26.56,1.84,3.46,1.06,2.89-.8-3.46-11.29-5.98-22.93-11-33.68-2.34-5.02-5.36-9.72-8.47-14.29-2.82-4.13-5.91-8.11-9.56-11.54-8.71-8.18-19.91-12.37-31.35-15.09-6.13-1.46-12.31-2.71-18.45-4.14-6.68-1.55-13.35-3.15-20.04-4.67-6.24-1.42-12.64-2.47-18.67-4.69-5.13-1.89-10.4-4.68-13.6-9.27-1.1-1.57-3.7-.07-2.59,1.51h0Z"/><path class="cls-1" d="m156.92,239.2c-1.37-7.87-5.44-17.43-11.13-15.52-9.31,3.14-4.15,23.12-2.15,28.85,2.16,6.18,5.89,13.5,13.42,7.82"/><path class="cls-4" d="m158.37,238.8c-.6-3.33-1.54-6.61-2.98-9.68-1.15-2.46-2.79-5.15-5.28-6.45-4.58-2.4-8.95,1.46-10.33,5.69-1.52,4.65-.9,9.94-.09,14.66.73,4.22,1.81,8.44,3.46,12.39,1.17,2.81,2.7,5.82,5.38,7.47,3.09,1.9,6.58.75,9.29-1.25,1.54-1.13.05-3.73-1.51-2.59-1.86,1.37-4.2,2.6-6.37,1.18-1.87-1.23-2.99-3.54-3.86-5.53-1.45-3.34-2.39-6.94-3.12-10.5-.83-4.05-1.44-8.37-.87-12.5.38-2.7,1.95-7.18,5.5-6.75,2.43.3,4.03,3.29,4.98,5.22,1.46,2.95,2.33,6.21,2.9,9.44.34,1.9,3.23,1.09,2.89-.8h0Z"/><path class="cls-1" d="m339.5,240c2.19-7.69,5.75-18.4,11.2-15.9,8.93,4.1,3.7,23.43,1.11,28.91-2.8,5.92-7.27,12.81-14.16,6.37"/><path class="cls-4" d="m340.95,240.4c.77-2.69,1.59-5.38,2.62-7.98.83-2.1,1.82-4.37,3.41-6.01,1.19-1.23,2.39-1.48,3.85-.52,1.35.89,2.18,2.34,2.66,3.86,1.23,3.9.77,8.3.04,12.25-.62,3.38-1.58,7.16-2.96,10.13-1.16,2.49-2.5,5.13-4.57,6.99-2.46,2.22-5.06,1.23-7.3-.8-1.43-1.29-3.55.82-2.12,2.12,2.33,2.11,5.4,3.81,8.59,2.64,2.73-1,4.64-3.44,6.1-5.85,2.36-3.9,3.82-8.23,4.8-12.67,1.07-4.86,1.79-10.28.45-15.16-1.08-3.93-5.02-8.83-9.61-6.66-2.58,1.22-4.15,4.13-5.28,6.6-1.51,3.29-2.59,6.76-3.58,10.24-.53,1.86,2.36,2.65,2.89.8h0Z"/><path class="cls-1" d="m157,231.77c.53,15.08.85,30.31,3.54,45.19,6.95,38.48,43.71,81.4,86.46,78.81,32.85-1.99,66.33-29.01,78.75-58.67,3.81-9.1,6.73-18.62,8.89-28.4,2.59-11.72,4.1-23.79,4.74-35.92l.12.21c-3-39-28.75-40.41-49.47-56.52-18.11-14.08-33.62-29.33-41.29-51.87l-.25.38c0,22-26.55,30.13-42.31,38.15-18.41,9.37-40.7,22.2-45.77,43.96-2.07,8.88-3.3,17.94-3.28,27.06"/><path class="cls-4" d="m155.5,231.77c.49,13.94.82,27.93,2.95,41.74,1.53,9.91,4.48,19.4,8.83,28.43,8.71,18.11,22.49,34.4,39.79,44.81,8.48,5.1,17.9,8.71,27.73,10.03,10.25,1.38,20.66.13,30.48-3.02,21.01-6.73,39.64-21.27,52.36-39.17,6.8-9.58,11.31-20.31,14.76-31.5,4.03-13.05,6.45-26.56,7.73-40.15.32-3.38.57-6.77.75-10.17l-2.8.76.12.21c.69,1.25,2.91.75,2.8-.76-.77-9.74-3.05-19.59-8.71-27.72-4.45-6.4-10.58-11.18-17.18-15.2s-13.78-7.55-20.29-11.96c-4.24-2.88-8.21-6.16-12.1-9.48-4.33-3.69-8.51-7.57-12.4-11.73-8.85-9.45-15.91-20.41-20.13-32.69-.42-1.23-2.02-1.47-2.74-.36-.59.92-.44,1.96-.52,3.02-.08,1.16-.26,2.31-.52,3.44-.47,2-1.19,3.92-2.17,5.72-1.99,3.66-4.88,6.7-8.1,9.31-6.91,5.62-15.26,9.27-23.29,12.97-8.7,4.01-17.28,8.41-25.34,13.61-8.76,5.65-17.11,12.48-22.79,21.34-3.4,5.3-5.31,11.05-6.56,17.19-1.59,7.8-2.51,15.75-2.52,23.71,0,1.93,3,1.93,3,0,0-7.14.74-14.26,2.09-21.27,1.08-5.64,2.48-11.03,5.34-16.05,5.12-9,13.22-15.9,21.76-21.55,7.99-5.29,16.55-9.77,25.24-13.79,8.07-3.73,16.37-7.33,23.51-12.71,3.78-2.85,7.24-6.19,9.71-10.28,1.23-2.04,2.2-4.26,2.82-6.56.32-1.17.54-2.36.69-3.57.08-.61.14-1.21.17-1.82.02-.29.08-.65.04-.94-.1-.68-.32.31.05-.26l-2.74-.36c3.76,10.96,9.64,20.94,17.11,29.76,7.29,8.61,15.88,16.05,24.78,22.93,6.35,4.91,13.45,8.64,20.4,12.6,6.47,3.69,12.83,7.74,17.75,13.43,7.02,8.13,9.83,18.74,10.66,29.25l2.8-.76-.12-.21c-.75-1.37-2.72-.67-2.8.76-.73,13.45-2.49,26.84-5.72,39.93-2.86,11.58-6.64,23.26-12.72,33.59-10.82,18.41-28.15,33.61-47.82,41.93-9.41,3.98-19.63,6.39-29.89,6.13-9.51-.24-18.87-2.81-27.37-7.02-17.57-8.7-31.71-23.72-41.26-40.68-4.66-8.28-8.27-17.17-10.38-26.44-2.86-12.56-3.41-25.64-3.89-38.47-.12-3.33-.23-6.66-.35-9.99-.07-1.93-3.07-1.93-3,0h0Z"/></svg>