<?xml version="1.0" encoding="UTF-8"?><svg id="Layer_2" xmlns="http://www.w3.org/2000/svg" viewBox="0 0 233.44 233.44"><defs><style>.cls-1{fill:#0069ff;}.cls-2{fill:#e6e6e6;}.cls-3{fill:#fff;}.cls-4{fill:#c1d5ff;}</style></defs><g id="Layer_1-2"><rect class="cls-3" x="2.72" y="2.72" width="228" height="228"/><path class="cls-1" d="m230.72,233.44H2.72c-1.5,0-2.72-1.22-2.72-2.72V2.72C0,1.22,1.22,0,2.72,0h228c1.5,0,2.72,1.22,2.72,2.72v228c0,1.5-1.22,2.72-2.72,2.72Zm-225.28-5.44h222.56V5.44H5.44v222.56Z"/><rect class="cls-4" x="39.69" y="103.18" width="25.56" height="88.95"/><path class="cls-4" d="m65.25,194.63h-25.56c-1.38,0-2.5-1.12-2.5-2.5v-88.95c0-1.38,1.12-2.5,2.5-2.5h25.56c1.38,0,2.5,1.12,2.5,2.5v88.95c0,1.38-1.12,2.5-2.5,2.5Zm-23.06-5h20.56v-83.95h-20.56v83.95Z"/><rect class="cls-4" x="83.04" y="71.51" width="25.56" height="120.62"/><path class="cls-4" d="m108.6,194.63h-25.56c-1.38,0-2.5-1.12-2.5-2.5v-120.62c0-1.38,1.12-2.5,2.5-2.5h25.56c1.38,0,2.5,1.12,2.5,2.5v120.62c0,1.38-1.12,2.5-2.5,2.5Zm-23.06-5h20.56v-115.62h-20.56v115.62Z"/><rect class="cls-4" x="169.72" y="108.14" width="25.56" height="83.98"/><path class="cls-4" d="m195.28,194.63h-25.56c-1.38,0-2.5-1.12-2.5-2.5v-83.98c0-1.38,1.12-2.5,2.5-2.5h25.56c1.38,0,2.5,1.12,2.5,2.5v83.98c0,1.38-1.12,2.5-2.5,2.5Zm-23.06-5h20.56v-78.98h-20.56v78.98Z"/><rect class="cls-4" x="126.38" y="119.38" width="25.56" height="72.75"/><path class="cls-4" d="m151.94,194.63h-25.56c-1.38,0-2.5-1.12-2.5-2.5v-72.75c0-1.38,1.12-2.5,2.5-2.5h25.56c1.38,0,2.5,1.12,2.5,2.5v72.75c0,1.38-1.12,2.5-2.5,2.5Zm-23.06-5h20.56v-67.75h-20.56v67.75Z"/><path class="cls-1" d="m143.3,102.3c-.95,0-1.87-.43-2.48-1.22l-45.49-59.27-55.16,46.5c-1.32,1.11-3.29.94-4.4-.37-1.11-1.32-.94-3.29.37-4.4l57.66-48.61c.65-.55,1.5-.81,2.35-.72.85.09,1.62.53,2.14,1.2l45.94,59.85,49.43-23.93c1.55-.75,3.42-.1,4.17,1.45.75,1.55.1,3.42-1.45,4.17l-51.72,25.04c-.44.21-.9.31-1.36.31Z"/><path class="cls-2" d="m194.66,75.07c-.91,2.66-2.33,5.64-3.27,8.33s-2.25,5.04-3.24,7.57"/><path class="cls-1" d="m188.15,94.1c-.38,0-.76-.07-1.14-.21-1.61-.63-2.4-2.44-1.77-4.05.47-1.2,1-2.34,1.51-3.46.63-1.38,1.23-2.68,1.7-4.01.49-1.4,1.09-2.84,1.67-4.24.6-1.44,1.16-2.8,1.59-4.07.56-1.63,2.33-2.51,3.96-1.95,1.63.56,2.51,2.33,1.95,3.96-.5,1.46-1.13,2.98-1.74,4.45-.57,1.38-1.11,2.68-1.54,3.9-.56,1.61-1.25,3.11-1.92,4.56-.5,1.08-.96,2.09-1.36,3.12-.48,1.23-1.66,1.99-2.91,1.99Z"/><path class="cls-2" d="m194.31,74.11c-5.9-.29-12.81-.99-18.5-.99"/><path class="cls-1" d="m194.32,77.23c-.05,0-.1,0-.16,0-2.14-.1-4.44-.27-6.67-.42-4-.28-8.13-.57-11.68-.57-1.73,0-3.12-1.4-3.12-3.12s1.4-3.12,3.12-3.12c3.77,0,8.01.3,12.12.58,2.3.16,4.47.31,6.54.41,1.72.08,3.05,1.55,2.97,3.27-.08,1.67-1.46,2.97-3.12,2.97Z"/></g></svg>