<?xml version="1.0" encoding="UTF-8"?>
<svg id="Layer_2" xmlns="http://www.w3.org/2000/svg" viewBox="0 0 191.7 238.82">
  <defs>
    <style>
      .cls-1, .cls-2 {
        stroke-width: 3px;
      }

      .cls-1, .cls-2, .cls-3, .cls-4, .cls-5 {
        stroke: #3b65ee;
        stroke-miterlimit: 10;
      }

      .cls-1, .cls-2, .cls-4, .cls-5 {
        fill: none;
      }

      .cls-2, .cls-3, .cls-4 {
        stroke-linecap: round;
      }

      .cls-3, .cls-4 {
        stroke-width: 2px;
      }

      .cls-3, .cls-6 {
        fill: #fff;
      }

      .cls-7, .cls-8, .cls-9 {
        fill: #3b65ee;
      }

      .cls-8 {
        opacity: .2;
      }

      .cls-9 {
        font-family: Rubik-Medium, Rubik;
        font-size: 23px;
        font-weight: 500;
      }
    </style>
  </defs>
  <g id="Layer_7">
    <g>
      <path class="cls-6" d="M47.99,216.64l-13.14,20.19s-7.43,1.35-9.81-1.67l1.46-2.42,16.08-20.95s-15.43-14.14-19.43-24.14-6.9-25.74-4.95-36.87,12.29-30.17,12.29-30.17l-7.59.59-9.75-1.55-9-10-3-13,7.76-19.1,16.24-15.9,17.15-8.27v-4s1.55-18.37,10.2-28.55c0,0,10.12-15.94,35.88-19.06,0,0,22.04-3.77,39.9,4.05,0,0,14.34,5.19,22.6,18.51s7.52,17.81,7.52,17.81l3.12,7.96,3.79,6.42,4.18,3.78s1.36,1.73,0,2.54-1.97.52-4.16-.34-8.66-9.91-10.93-17.88-7.42-26.64-28.35-34.31-47.46-4.83-60.69,4.25-16,21.87-17.61,27.47-1.47,10.41-1.47,10.41c0,0,13.75-3.51,20.3-2.16s11.4,3.07,16.48,10.71,5.33,12.21,5.2,12.92.57,6.2.57,6.2l-3.02,5.88-5.76,7.73-1.61,1.96s22.12-2.27,35.91-.16l-10.43-11.39-.99-5.43,7.21-16.07,8-7,19.23-.91,19.17,5.8s13.96,7.96,17.78,11.53,13.62,16.06,14.22,21.32,2.96,12.11-1.22,19.19-12.46,16.88-17.32,16.48-7.19-1.77-7.19-1.77c0,0,5.02,10.39,6.18,18.88s.84,23.15-.5,28.32-5,17.73-7.17,21.95-16.17,22.22-18.17,23.22-11.83,6.06-11.83,6.06l5.18,7.45,1.89,2.75-.95,1.22-4.22.7-5.08-1.19-6.38-8.56s-18.62,2.88-38.62-1.28-35.16-10.16-35.16-10.16Z"/>
      <ellipse class="cls-5" cx="73.41" cy="159.64" rx="51.76" ry="57.5"/>
      <ellipse class="cls-5" cx="76.58" cy="159.14" rx="49.07" ry="57.5"/>
      <ellipse class="cls-7" cx="75.41" cy="159.64" rx="5.74" ry="6.38"/>
      <line class="cls-2" x1="75.58" y1="119.14" x2="75.58" y2="159.64"/>
      <line class="cls-2" x1="74.32" y1="159.91" x2="39.78" y2="181.07"/>
      <path class="cls-1" d="M56.09,219.5c-1.12-.45-2.22-.94-3.31-1.46-20.76-9.97-35.21-32.17-35.21-57.96,0-30.87,20.7-56.61,48.16-62.36"/>
      <path class="cls-2" d="M121.77,228.26c-.86.15-1.74.27-2.62.38-30.85,3.66-64.45-9.73-64.45-9.73"/>
      <path class="cls-2" d="M162.29,126.26c6,11.22,8.76,24.89,7.36,39.88-2.48,26.45-15.92,50.57-38.01,59.35"/>
      <path class="cls-2" d="M63.65,98.14s26.42-5.69,51.08-2.57"/>
      <path class="cls-4" d="M42.58,211.78l-17.32,22.56c-.38.49-.26,1.22.27,1.54,1.13.68,3.51,1.45,8.05.51.67-.14,1.27-.54,1.66-1.11l13.17-19.58"/>
      <path class="cls-4" d="M120.86,212.78l17.32,22.56c.38.49.26,1.22-.27,1.54-1.13.68-3.51,1.45-8.05.51-.67-.14-1.27-.54-1.66-1.11l-13.17-19.58s.04-5.27,5.82-3.92Z"/>
      <path class="cls-7" d="M91.65,221.14c21.87-.32,49-26.23,49-60.77,0-32.63-20.55-56.62-49-61.23,0,0,44.07,8.42,44.89,59.31.82,50.86-44.89,62.69-44.89,62.69Z"/>
      <path class="cls-2" d="M30.89,120.07c-10.14,2.17-17.87,1.25-20.3-3.19-4.29-7.83,9.58-23.67,30.98-35.38,21.4-11.7,42.21-14.84,46.5-7,2.64,4.83-1.61,12.7-10.28,20.77"/>
      <path class="cls-2" d="M10.59,116.88S.51,107.14,1.58,97.14s6.07-24,25.07-36,40.86-13.38,48.93-8.19c8.07,5.19,12.29,17.08,13.18,23.63"/>
      <path class="cls-2" d="M181.11,120.88s10.08-9.74,9.01-19.74c-1.07-10-6.07-24-25.07-36-19-12-40.86-13.38-48.93-8.19s-12.29,17.08-13.18,23.63c0,0-.52,8.56,32.09,29.56s34.29,18.16,35.95,18.08,7.58-3.6,10.12-7.34Z"/>
      <line class="cls-4" x1="36.99" y1="84.14" x2="49.33" y2="103.91"/>
      <line class="cls-4" x1="41.57" y1="81.5" x2="53.79" y2="101.64"/>
      <path class="cls-4" d="M46.3,52.44s.35-20.3,13.35-33.3,37-14,49-13,28.85,6.44,37.92,20.22,7.21,27.66,19.57,36.74c.84.62,2.01.54,2.75-.2h0c.88-.88.81-2.33-.16-3.11-2.81-2.25-7.95-7.44-10.08-16.65-3-13-13-40-53-42s-62.69,18.07-63.35,52.54"/>
      <rect class="cls-3" x="171.65" y="43.14" width="9" height="16" rx="4.5" ry="4.5" transform="translate(77.96 -103.79) rotate(41.45)"/>
      <text class="cls-9" transform="translate(63.54 126.26)"><tspan x="0" y="0">12</tspan></text>
      <text class="cls-9" transform="translate(105.54 165.26)"><tspan x="0" y="0">3</tspan></text>
      <text class="cls-9" transform="translate(67.54 206.26)"><tspan x="0" y="0">6</tspan></text>
      <text class="cls-9" transform="translate(30.54 164.26)"><tspan x="0" y="0">9</tspan></text>
      <path class="cls-8" d="M29.79,120.29s-16.76,2.83-19.2-3.41c-2.44-6.24,7.83-21.51,29.19-34.38s43.76-15.51,49.06-7.19-11.56,20.67-11.56,20.67c0,0-16.92.64-26.53,7.15-9.61,6.5-20.96,17.16-20.96,17.16Z"/>
      <path class="cls-8" d="M160.73,69.27s-21.67-9.11-28.38-1.12,46.3,42.99,47.3,44.99-5.29,12.08-10.14,11.04-46.86-22.04-61.86-42.04c0,0-2-1.8,0-6.4s8.16-34.33,53.08-6.47Z"/>
      <path class="cls-8" d="M47.99,117.9s11.52-12.34,17.09-1.55-7.43,22.79-1.43,38.79,54.59,33.99,39.29,45.5-54.99,18.43-68.29-21.5c-11-33,13.34-61.24,13.34-61.24Z"/>
      <ellipse class="cls-8" cx="83.15" cy="229.64" rx="41.5" ry="2.5"/>
      <path class="cls-8" d="M36.72,218.91s.92,4.43,4.93,6.83l6.76-10.04-5.82-3.92-5.86,7.13Z"/>
      <polygon class="cls-8" points="116.82 213.64 134.92 237.76 129.1 237.08 114.42 216.64 116.82 213.64"/>
      <path class="cls-8" d="M24.65,67.14s-5,4-6.65,7.89,7.65.11,10.65,4.11-1,8-4,10-14.87,11.99-16.93,19.49c0,0-12.07-22.49,16.93-41.49Z"/>
    </g>
  </g>
</svg>