<svg width="64" height="64" viewBox="0 0 64 64" fill="none" xmlns="http://www.w3.org/2000/svg">
<g clip-path="url(#clip0_1249_830)">
<path d="M32.3853 64.0001C46.9575 64.0001 58.7706 52.187 58.7706 37.6148C58.7706 23.0426 46.9575 11.2295 32.3853 11.2295C17.8131 11.2295 6 23.0426 6 37.6148C6 52.187 17.8131 64.0001 32.3853 64.0001Z" fill="#E82353"/>
<path d="M38.5396 10.501H26.2349V14.6551H38.5396V10.501Z" fill="#E82353"/>
<path d="M33.0964 6.90368C33.7829 5.95096 35.163 3.90543 35.163 2.77408C35.163 1.24693 33.9195 0 32.3889 0C30.8582 0 29.6148 1.24343 29.6148 2.77408C29.6148 3.90543 30.9913 5.95096 31.6814 6.90368H26.2383V11.2294H38.543V6.90368H33.0964ZM32.3854 0.991244C33.3696 0.991244 34.1682 1.78984 34.1682 2.77408C34.1682 3.45359 33.1945 5.05079 32.3854 6.19264C31.5763 5.05079 30.6026 3.45359 30.6026 2.77408C30.6026 1.79334 31.4047 0.991244 32.3854 0.991244Z" fill="#E0C924"/>
<path d="M25.1801 26.0667C27.9115 26.0667 30.1258 23.8524 30.1258 21.121C30.1258 18.3896 27.9115 16.1753 25.1801 16.1753C22.4486 16.1753 20.2344 18.3896 20.2344 21.121C20.2344 23.8524 22.4486 26.0667 25.1801 26.0667Z" fill="#E0C924"/>
<path d="M8.66233 35.3695C11.3944 35.3695 13.608 33.1558 13.608 30.4238C13.608 27.7898 11.545 25.6427 8.94954 25.4956C7.49595 28.3047 6.52923 31.4045 6.16846 34.69C6.897 35.1208 7.74814 35.3695 8.66233 35.3695Z" fill="#E0C924"/>
<path d="M22.1786 44.2034C24.9101 44.2034 27.1243 41.9892 27.1243 39.2577C27.1243 36.5263 24.9101 34.312 22.1786 34.312C19.4472 34.312 17.2329 36.5263 17.2329 39.2577C17.2329 41.9892 19.4472 44.2034 22.1786 44.2034Z" fill="#E0C924"/>
<path d="M10.2275 46.0562C9.27831 46.0562 8.39564 46.3294 7.64258 46.7917C8.80895 49.9371 10.5568 52.7952 12.7564 55.2435C14.203 54.3819 15.1732 52.8057 15.1732 50.9984C15.1732 48.2698 12.9596 46.0562 10.2275 46.0562Z" fill="#E0C924"/>
<path d="M52.6656 20.7354C51.79 21.6285 51.2471 22.8509 51.2471 24.1994C51.2471 26.9315 53.4607 29.1452 56.1928 29.1452C56.5886 29.1452 56.9669 29.0926 57.3346 29.0086C56.2803 25.9578 54.6867 23.1627 52.6656 20.7354Z" fill="#E0C924"/>
<path d="M40.5391 12.5181C41.1065 14.6231 43.0224 16.1783 45.3096 16.1783C45.9856 16.1783 46.6336 16.0417 47.2186 15.7965C45.1765 14.4025 42.9314 13.2956 40.5391 12.5181Z" fill="#E0C924"/>
<path d="M49.6006 57.3067C49.6006 57.4048 49.6111 57.5028 49.6146 57.6009C51.3834 56.0738 52.9491 54.319 54.2591 52.375C51.6636 52.5221 49.6006 54.6692 49.6006 57.3067Z" fill="#E0C924"/>
<path d="M37.727 36.1927C40.4584 36.1927 42.6727 33.9784 42.6727 31.247C42.6727 28.5155 40.4584 26.3013 37.727 26.3013C34.9955 26.3013 32.7812 28.5155 32.7812 31.247C32.7812 33.9784 34.9955 36.1927 37.727 36.1927Z" fill="#E0C924"/>
<path d="M51.247 45.0228C53.9784 45.0228 56.1927 42.8085 56.1927 40.0771C56.1927 37.3456 53.9784 35.1313 51.247 35.1313C48.5155 35.1313 46.3013 37.3456 46.3013 40.0771C46.3013 42.8085 48.5155 45.0228 51.247 45.0228Z" fill="#E0C924"/>
<path d="M39.2963 56.7669C42.0277 56.7669 44.242 54.5526 44.242 51.8212C44.242 49.0898 42.0277 46.8755 39.2963 46.8755C36.5649 46.8755 34.3506 49.0898 34.3506 51.8212C34.3506 54.5526 36.5649 56.7669 39.2963 56.7669Z" fill="#E0C924"/>
<path d="M23.65 55.9438C21.1491 55.9438 19.0896 57.8002 18.7568 60.21C21.4819 61.8563 24.5292 63.0262 27.7831 63.5971C28.2945 62.8195 28.5957 61.8878 28.5957 60.8861C28.5922 58.1575 26.3786 55.9438 23.65 55.9438Z" fill="#E0C924"/>
</g>
<defs>
<clipPath id="clip0_1249_830">
<rect width="64" height="64" fill="white"/>
</clipPath>
</defs>
</svg>
