<svg xmlns="http://www.w3.org/2000/svg" xmlns:xlink="http://www.w3.org/1999/xlink" viewBox="0 0 4800 4200"><defs><style>.cls-1,.cls-10,.cls-11,.cls-15,.cls-16,.cls-17,.cls-19,.cls-20,.cls-21,.cls-26,.cls-27,.cls-28,.cls-31,.cls-32,.cls-33,.cls-34,.cls-35,.cls-39,.cls-4,.cls-41,.cls-42,.cls-47,.cls-52,.cls-56,.cls-61,.cls-65,.cls-66,.cls-7,.cls-8{fill:none;}.cls-12,.cls-13,.cls-2,.cls-23,.cls-25,.cls-30,.cls-36,.cls-43,.cls-46,.cls-48,.cls-53,.cls-57,.cls-6,.cls-62{fill:#fff;}.cls-14,.cls-18,.cls-3,.cls-37,.cls-38,.cls-40,.cls-44,.cls-45,.cls-49,.cls-5,.cls-50,.cls-51,.cls-54,.cls-55,.cls-58,.cls-59,.cls-60,.cls-63,.cls-64{fill:#3b65ee;}.cls-10,.cls-11,.cls-12,.cls-13,.cls-15,.cls-16,.cls-17,.cls-19,.cls-20,.cls-21,.cls-26,.cls-27,.cls-28,.cls-30,.cls-31,.cls-32,.cls-33,.cls-34,.cls-35,.cls-36,.cls-38,.cls-39,.cls-4,.cls-40,.cls-41,.cls-42,.cls-43,.cls-45,.cls-46,.cls-47,.cls-48,.cls-50,.cls-52,.cls-53,.cls-55,.cls-56,.cls-57,.cls-59,.cls-6,.cls-61,.cls-62,.cls-64,.cls-65,.cls-66,.cls-7,.cls-8{stroke:#3b65ee;}.cls-10,.cls-11,.cls-12,.cls-13,.cls-15,.cls-16,.cls-19,.cls-20,.cls-21,.cls-27,.cls-30,.cls-31,.cls-33,.cls-35,.cls-36,.cls-38,.cls-39,.cls-4,.cls-42,.cls-43,.cls-45,.cls-46,.cls-47,.cls-48,.cls-50,.cls-52,.cls-53,.cls-55,.cls-56,.cls-57,.cls-59,.cls-6,.cls-61,.cls-62,.cls-64,.cls-65,.cls-66,.cls-7,.cls-8{stroke-linecap:round;}.cls-10,.cls-11,.cls-12,.cls-13,.cls-15,.cls-16,.cls-19,.cls-20,.cls-21,.cls-27,.cls-30,.cls-31,.cls-32,.cls-33,.cls-34,.cls-35,.cls-36,.cls-38,.cls-39,.cls-4,.cls-42,.cls-43,.cls-45,.cls-46,.cls-47,.cls-48,.cls-50,.cls-52,.cls-53,.cls-55,.cls-56,.cls-57,.cls-59,.cls-6,.cls-61,.cls-62,.cls-64,.cls-65,.cls-66,.cls-7,.cls-8{stroke-linejoin:round;}.cls-4,.cls-6{stroke-width:4.16px;}.cls-28,.cls-5{opacity:0.2;}.cls-7{stroke-width:2.88px;}.cls-8{stroke-width:5.42px;}.cls-9{fill:#3b65ef;}.cls-10{stroke-width:4px;}.cls-11{stroke-width:3.9px;}.cls-12,.cls-20{stroke-width:3.7px;}.cls-13{stroke-width:3.91px;}.cls-14,.cls-16{opacity:0.1;}.cls-15,.cls-16{stroke-width:3.87px;}.cls-17,.cls-26,.cls-28,.cls-40,.cls-41{stroke-miterlimit:10;}.cls-17{stroke-width:2.54px;}.cls-18,.cls-67{opacity:0.5;}.cls-19{stroke-width:2.95px;}.cls-21{stroke-width:5.08px;}.cls-22{clip-path:url(#clip-path);}.cls-23{opacity:0.6;}.cls-24{clip-path:url(#clip-path-2);}.cls-25{opacity:0.3;}.cls-26{stroke-width:1.53px;}.cls-27,.cls-30{stroke-width:4.85px;}.cls-28{stroke-width:3.06px;}.cls-29{opacity:0.4;}.cls-31,.cls-32{stroke-width:3.16px;}.cls-33,.cls-34{stroke-width:3.8px;}.cls-35,.cls-38{stroke-width:1.53px;}.cls-36{stroke-width:2.3px;}.cls-37{font-size:11.7px;}.cls-37,.cls-44,.cls-49,.cls-51,.cls-54,.cls-58,.cls-60,.cls-63{font-family:Rubik-MediumItalic, Rubik;font-weight:500;font-style:italic;}.cls-39,.cls-41,.cls-46{stroke-width:2.79px;}.cls-40{stroke-width:1.51px;}.cls-42,.cls-45{stroke-width:1.86px;}.cls-43{stroke-width:2.32px;}.cls-44{font-size:14.16px;}.cls-47,.cls-50{stroke-width:1.41px;}.cls-48{stroke-width:2.11px;}.cls-49{font-size:10.75px;}.cls-51{font-size:14.16px;}.cls-52,.cls-55{stroke-width:1.23px;}.cls-53{stroke-width:1.85px;}.cls-54{font-size:9.41px;}.cls-56,.cls-59{stroke-width:1.06px;}.cls-57{stroke-width:1.59px;}.cls-58{font-size:8.08px;}.cls-60{font-size:8.08px;}.cls-61,.cls-64{stroke-width:1.25px;}.cls-62{stroke-width:1.88px;}.cls-63{font-size:9.55px;}.cls-65{stroke-width:2.5px;}.cls-66{stroke-width:2.83px;}</style><clipPath id="clip-path"><path class="cls-1" d="M326.44,1972.3a6.47,6.47,0,0,0-5.09,7.9c10,41,40.6,69,70.54,63.51s48.54-42.58,43.36-84.43a6.46,6.46,0,0,0-7.56-5.58Z"/></clipPath><clipPath id="clip-path-2"><path class="cls-1" d="M449,1949.8a7.86,7.86,0,0,0-6.23,9.66c10.4,40.15,40.59,67.45,70.16,62s48.09-41.68,43.54-82.9a7.86,7.86,0,0,0-9.25-6.83Z"/></clipPath></defs><title>LPM</title><g id="sketches"><rect class="cls-2" x="-0.5" y="-0.5" width="4800" height="4200"/></g><g id="Layer_3" data-name="Layer 3"><path class="cls-3" d="M3975.18,2329.63l19.81-.33,19.8-.24,39.61-.49,79.22-.6c26.4-.24,52.81-.26,79.21-.39l79.22-.12,79.22.12c26.4.13,52.81.14,79.22.38l79.21.61,39.61.48,19.81.25,19.8.33-19.8.33-19.81.24-39.61.49-79.21.61c-26.41.24-52.82.25-79.22.38l-79.22.12-79.22-.12c-26.4-.13-52.81-.15-79.21-.39l-79.22-.6-39.61-.49L3995,2330Z"/><path class="cls-4" d="M4489.11,1778.29s-74.81,6.51-75.35,23.31,23.85,169.14,21.68,194.62-22.77,180-26.56,211.43,20.51,42.42,30.9,45.54c16.26,4.88,116,21.14,136.07,10.84s33.07-199.5,33.07-287.86-10.84-186-28.19-194.08S4489.11,1778.29,4489.11,1778.29Z"/><path class="cls-3" d="M4423.51,1803.77c6.17,1.67,12.4,2.92,18.66,4s12.55,1.8,18.85,2.36a240.39,240.39,0,0,0,37.85.36c6.3-.35,12.57-1.12,18.81-2s12.43-2.2,18.61-3.52a276.1,276.1,0,0,0,36.31-11.42,170.47,170.47,0,0,1-35.49,14.56c-3.11.81-6.19,1.74-9.35,2.37l-4.71,1-4.74.88c-6.35,1-12.74,1.87-19.16,2.3s-12.86.55-19.29.34-12.84-.74-19.2-1.64a174.9,174.9,0,0,1-18.9-3.59A123.46,123.46,0,0,1,4423.51,1803.77Z"/><path class="cls-4" d="M4427.82,1915.57c4.7,36.35,8.54,69.87,7.62,80.65-1.16,13.61-7.57,64-13.87,112.8,68.45,38.16,148.63,22.74,180.67,14.08,4.3-52.83,6.68-109.12,6.68-146.93,0-20.49-.58-41.47-1.69-61.72C4509.09,1943,4450.79,1925.87,4427.82,1915.57Z"/><path class="cls-5" d="M4427.82,1915.57c4.7,36.35,8.54,69.87,7.62,80.65-1.16,13.61-7.57,64-13.87,112.8,68.45,38.16,148.63,22.74,180.67,14.08,4.3-52.83,6.68-109.12,6.68-146.93,0-20.49-.58-41.47-1.69-61.72C4509.09,1943,4450.79,1925.87,4427.82,1915.57Z"/><path class="cls-3" d="M4441.41,2049.89c-1.2-6.35-2-12.71-2.74-19.08s-1.32-12.74-1.82-19.11-.94-12.75-1.27-19.14-.64-12.75-1.1-19.19a105.71,105.71,0,0,1,4.33,18.85c1,6.36,1.67,12.75,2.18,19.15s.82,12.81.9,19.23S4441.93,2043.45,4441.41,2049.89Z"/><path class="cls-3" d="M4425.68,2223.37c2.3,2.09,4.37,4.23,6.41,6.38s4,4.32,6,6.5,3.88,4.39,5.82,6.63,3.86,4.5,5.65,7.06a35.06,35.06,0,0,1-7.9-4.69A49.18,49.18,0,0,1,4435,2239a50,50,0,0,1-5.47-7.3A33.48,33.48,0,0,1,4425.68,2223.37Z"/><path class="cls-3" d="M4482.88,1823.56c4.33-.6,8.59-1,12.84-1.33l12.71-1c4.22-.35,8.43-.7,12.65-1.09s8.41-1,12.76-1.48a49.78,49.78,0,0,1-12.2,4.7,84.09,84.09,0,0,1-12.89,2,97.24,97.24,0,0,1-13,.09A67.83,67.83,0,0,1,4482.88,1823.56Z"/><path class="cls-6" d="M4415.65,2343.18c0-27.69,31.56-50.14,70.48-50.14s70.48,22.45,70.48,50.14Z"/><path class="cls-5" d="M4442.94,2343.72c0-20.8,23.7-37.67,53-37.67s52.95,16.87,52.95,37.67Z"/><line class="cls-4" x1="4474.47" y1="2292.76" x2="4480.99" y2="2260.94"/><line class="cls-4" x1="4505.38" y1="2294.39" x2="4511.88" y2="2265.12"/><path class="cls-5" d="M4482.63,2293.1l3.23-19.85-6.8-2.89,3.4-9.21,29.42,4-6.5,30.36S4486.45,2292.89,4482.63,2293.1Z"/><path class="cls-3" d="M4398.58,1777.21a49.21,49.21,0,0,1-1.4,6c-.56,1.91-1.16,3.76-1.8,5.6s-1.29,3.65-2,5.48S4392,1798,4391,1800a15.64,15.64,0,0,1-.8-6.34,22.66,22.66,0,0,1,1.27-6.17,25,25,0,0,1,2.77-5.63A17.37,17.37,0,0,1,4398.58,1777.21Z"/><path class="cls-3" d="M4388.88,1768a48.84,48.84,0,0,1-2.26,5.75c-.84,1.81-1.7,3.56-2.59,5.28s-1.81,3.43-2.78,5.14-1.91,3.45-3.19,5.25a15.74,15.74,0,0,1,.13-6.38,22.87,22.87,0,0,1,2.15-5.93,25.08,25.08,0,0,1,3.56-5.16A17.43,17.43,0,0,1,4388.88,1768Z"/><path class="cls-3" d="M4627.21,1817.92a28.34,28.34,0,0,1,3.48,7.39,42,42,0,0,1,1.68,7.92,38.67,38.67,0,0,1,.1,8.12,26.07,26.07,0,0,1-1.94,8c-.64-2.72-.93-5.31-1.33-7.9s-.66-5.14-1-7.71-.54-5.15-.75-7.76S4627.14,1820.69,4627.21,1817.92Z"/><path class="cls-3" d="M4638.44,1808.24a27.39,27.39,0,0,1,4.28,6.85,40.53,40.53,0,0,1,2.54,7.59,37.38,37.38,0,0,1,1,8,25.82,25.82,0,0,1-1.07,8c-.93-2.61-1.5-5.11-2.18-7.61s-1.2-5-1.78-7.45-1.1-5-1.59-7.53A78.92,78.92,0,0,1,4638.44,1808.24Z"/><path class="cls-3" d="M4590.22,2071.31a189.22,189.22,0,0,1-9.58,25.3c-.9,2.07-1.9,4.09-2.89,6.12s-2,4-3.05,6.05-2.11,4-3.24,5.95-2.19,3.95-3.36,5.89l-3.58,5.76c-1.21,1.91-2.49,3.78-3.76,5.65l-1.92,2.79-2,2.73c-1.36,1.82-2.69,3.65-4.12,5.4a136.45,136.45,0,0,1-18.86,19.43c5.7-7,11.16-14,16.26-21.37.67-.89,1.24-1.86,1.86-2.78l1.87-2.77,1.88-2.77,1.77-2.84c1.18-1.89,2.44-3.73,3.6-5.64l3.45-5.73c1.18-1.89,2.27-3.84,3.41-5.76l1.68-2.89,1.63-2.93c2.26-3.85,4.32-7.82,6.5-11.73Q4584.09,2083.35,4590.22,2071.31Z"/><path class="cls-4" d="M4279,1894.58s22.91-26.4,28.73-17.35C4312.65,1884.82,4290.42,1888.61,4279,1894.58Z"/><path class="cls-7" d="M4280.72,1904.88s23.56-5.61,23.18,1.84C4303.58,1913,4289.54,1906.12,4280.72,1904.88Z"/><path class="cls-4" d="M3956,1963.58s-24.15-25.27-29.53-15.95C3921.93,1955.45,3944.32,1958.17,3956,1963.58Z"/><path class="cls-7" d="M3955.91,1979.06s-24.17,1.63-21.6,8.63C3936.46,1993.56,3947.85,1982.86,3955.91,1979.06Z"/><path class="cls-4" d="M4025.6,2109s-2.17-4.34-2.17-15.18-7-61.26-52-51-51.51,72.64-33.07,100.29,78.6,24.94,87.28,7.59S4029.94,2113.86,4025.6,2109Z"/><path class="cls-4" d="M4012.74,2057.93s19.91-9.12,23.7,13.65-12.88,26.57-12.88,26.57"/><path class="cls-4" d="M4270.6,2005s-3.35,1.4-3.12-10,5.68-35.48,14.34-34.88c0,0,8.81-9.73,21.94-11s75.34-5.18,88.25,20.69,6.26,75.42-26,78.65-43.87-10.06-43.87-10.06-3.7,14.42-23.31,7.1S4269.85,2024,4270.6,2005Z"/><path class="cls-3" d="M4280.61,1969.83c-.39,2.4-.9,4.73-1.43,7.05s-1.11,4.63-1.67,6.93l-1.77,6.89c-.61,2.3-1.18,4.6-1.91,6.93a37.35,37.35,0,0,1,.24-7.25,61.24,61.24,0,0,1,1.34-7.1,66,66,0,0,1,2.15-6.88A42.52,42.52,0,0,1,4280.61,1969.83Z"/><path class="cls-3" d="M4308.88,2021.48a46,46,0,0,1,5.75,4.92c1.75,1.74,3.41,3.54,5,5.38s3.12,3.72,4.61,5.63,2.92,3.84,4.61,5.81a16.71,16.71,0,0,1-6.9-3.48,37.21,37.21,0,0,1-5.47-5.24,45.44,45.44,0,0,1-4.42-6.09A31,31,0,0,1,4308.88,2021.48Z"/><path class="cls-3" d="M3940.76,2117.39l4.37,8.49c1.45,2.77,2.95,5.45,4.54,8a75.82,75.82,0,0,0,5.25,7.46,80.42,80.42,0,0,0,6.44,6.9,22.21,22.21,0,0,1-8.76-4.6,32.31,32.31,0,0,1-6.47-7.57,38.92,38.92,0,0,1-4-9A29.81,29.81,0,0,1,3940.76,2117.39Z"/><path class="cls-5" d="M4019.81,2073.09s13.28,2.76,15.36-6.56c0,0,6.15,24.57-11.2,31.61C4024,2098.14,4023.5,2076.49,4019.81,2073.09Z"/><path class="cls-5" d="M4028.33,2114.17c-9.06-4.21-19.62-5.13-26-12.77-11.39-13.56-14.64-39.58-40.66-41.75-10.41-.86-18.48,4.08-24.41,10.33-12.29,23.39-10.73,55.42,1.1,73.16,18.43,27.65,78.6,24.94,87.28,7.59C4032.36,2137.21,4031.21,2122.37,4028.33,2114.17Z"/><path class="cls-5" d="M4322.08,2038.55c-4.42-4.42-9.13-4.91-14.05-8.7-7.74-6-14.32-21.08-27.3-22-5.41-.37-7.79,4.67-8.73,10.67,3.29,12.23,12.2,21.52,26.81,27C4317.33,2052.43,4321.66,2040,4322.08,2038.55Z"/><path class="cls-5" d="M4385.83,1962.12a39.58,39.58,0,0,1,5.78,29.42c-5.85,30-62.95,14.72-76.26,18.7-10.19,3-9.77,13.82,6.06,30a10.22,10.22,0,0,0,.71-1.79s11.59,13.29,43.87,10.06,38.92-52.77,26-78.65A24.68,24.68,0,0,0,4385.83,1962.12Z"/><path class="cls-8" d="M4025.06,2153.44c4,12.54,7.59,22.5,11.92,32.53,0,0,134.45-11.39,246.67-68.85,0,0-42.83-143.66-60.72-249.38,0,0-104.63,31.44-247.21,60.18,0,0,8.1,54.22,21.2,116.29"/><ellipse class="cls-9" cx="4104.86" cy="2015.4" rx="16.82" ry="17.01"/><ellipse class="cls-9" cx="4155.37" cy="2015.4" rx="16.82" ry="17.01"/><path class="cls-9" d="M4190.82,2093.63a5.52,5.52,0,0,0,4.47-6.38h0l0-.47a56.83,56.83,0,0,0-111,22.07,5.2,5.2,0,0,0,5.37,5l1.09,0Z"/><path class="cls-6" d="M3980.25,1954.54l246.53-62.79a6.82,6.82,0,0,1,8.38,5.3l7.1,36.27a6.82,6.82,0,0,1-5.21,8l-248.42,55.55a6.82,6.82,0,0,1-8.2-5.45l-5.21-29A6.82,6.82,0,0,1,3980.25,1954.54Z"/><polygon class="cls-3" points="3976.92 1971.82 4236.93 1906.08 4239.92 1921.37 3978.84 1982.56 3976.92 1971.82"/><polygon class="cls-5" points="3990.61 1997.01 4239.92 1951.1 4237.02 1941.47 3990.61 1997.01"/><ellipse class="cls-5" cx="4164.38" cy="2338.85" rx="144.75" ry="9.22"/><line class="cls-10" x1="2432" y1="1013" x2="2432" y2="3253"/><line class="cls-10" x1="3762.5" y1="2147" x2="985.5" y2="2147"/></g><g id="Layer_2" data-name="Layer 2"><polyline class="cls-11" points="263.74 2309.52 199.68 1894.12 221.03 1890.56 281.54 2309.52"/><path class="cls-2" d="M252.05,2309.52a40.77,40.77,0,0,0-5.59-11.19"/><path class="cls-3" d="M252.05,2309.52a11.17,11.17,0,0,1-2.49-2.38,13.89,13.89,0,0,1-1.61-2.59,15,15,0,0,1-1-2.83,13.09,13.09,0,0,1-.44-3.39,7,7,0,0,1,3.07,1.82,9.72,9.72,0,0,1,1.92,2.7,10,10,0,0,1,.94,3.15A7.62,7.62,0,0,1,252.05,2309.52Z"/><path class="cls-2" d="M246.29,2309.74s-4.82-11.94-13.39-15.19"/><path class="cls-3" d="M246.29,2309.74a40.75,40.75,0,0,1-3.68-3.82c-1.1-1.28-2.13-2.56-3.15-3.82l-3.09-3.73c-1.07-1.22-2.17-2.41-3.47-3.82a10,10,0,0,1,5.41,1.44,16.28,16.28,0,0,1,4.17,3.66,18.68,18.68,0,0,1,2.75,4.7A13.54,13.54,0,0,1,246.29,2309.74Z"/><path class="cls-2" d="M234.51,2303.67a26,26,0,0,0,2,7.12"/><path class="cls-3" d="M234.51,2303.67a5.85,5.85,0,0,1,1.81,1.52,4.6,4.6,0,0,1,.82,1.6,4.51,4.51,0,0,1,.12,1.77,6.83,6.83,0,0,1-.72,2.23,4,4,0,0,1-2.16-1.19,4.2,4.2,0,0,1-1-3.79A4.36,4.36,0,0,1,234.51,2303.67Z"/><line class="cls-2" x1="234.51" y1="2071.82" x2="264" y2="2257.4"/><path class="cls-3" d="M234.51,2071.82c1.51,7.69,2.86,15.4,4.3,23.1l4,23.14c2.69,15.43,5.18,30.89,7.67,46.35s4.85,30.94,7.08,46.44l3.34,23.26c1,7.76,2.12,15.51,3.07,23.29-1.51-7.69-2.87-15.4-4.3-23.1l-4-23.14c-2.68-15.43-5.18-30.89-7.66-46.35s-4.85-30.94-7.08-46.44l-3.34-23.26C236.56,2087.35,235.45,2079.6,234.51,2071.82Z"/><line class="cls-2" x1="237.56" y1="2049.96" x2="244.17" y2="2098.26"/><path class="cls-3" d="M237.56,2050c1.07,3.95,1.9,7.94,2.63,11.94s1.36,8,1.93,12,1,8.07,1.38,12.12.64,8.11.67,12.21c-1.08-4-1.9-7.94-2.64-11.94s-1.35-8-1.92-12-1-8.06-1.38-12.11S237.59,2054.05,237.56,2050Z"/><path class="cls-2" d="M288.91,2309.26s.51-11.69,6.1-18.3"/><path class="cls-3" d="M288.91,2309.26a13.11,13.11,0,0,1-.91-5.12,18.9,18.9,0,0,1,.76-5.06,16.77,16.77,0,0,1,2.25-4.67,10.37,10.37,0,0,1,4-3.45c-.4,1.79-.82,3.28-1.24,4.79s-.82,3-1.27,4.45-.93,3-1.49,4.47A29.91,29.91,0,0,1,288.91,2309.26Z"/><path class="cls-2" d="M294.76,2310s-.51-6.11,0-8.65"/><path class="cls-3" d="M294.76,2310a5.55,5.55,0,0,1-2.16-4.29,5.49,5.49,0,0,1,.42-2.26,4.42,4.42,0,0,1,1.74-2.1,8.61,8.61,0,0,1,1.33,2.21,6.08,6.08,0,0,1,.4,2.07,6.16,6.16,0,0,1-.34,2.13A6.27,6.27,0,0,1,294.76,2310Z"/><path class="cls-2" d="M302.13,2309.26s.51-3.05,4.58-5.59"/><path class="cls-3" d="M302.13,2309.26a3.15,3.15,0,0,1-.64-2.46,4.07,4.07,0,0,1,.92-2,3.94,3.94,0,0,1,1.82-1.19,3.74,3.74,0,0,1,2.48.09,7.54,7.54,0,0,1-.52,2.26,4.54,4.54,0,0,1-2,2.37A17.29,17.29,0,0,1,302.13,2309.26Z"/><path class="cls-12" d="M221,1890.14c.28,1.8-4.47,4-10.61,5s-10.65,0-10.93-1.78,3.78-3.79,9.92-4.75S220.69,1888.33,221,1890.14Z"/><rect class="cls-12" x="203.49" y="1936.06" width="27.46" height="7.12" rx="3.56" transform="translate(-295.56 56.44) rotate(-8.84)"/><rect class="cls-12" x="198.92" y="1911.66" width="27.46" height="7.12" rx="3.56" transform="translate(-291.87 55.45) rotate(-8.84)"/><rect class="cls-12" x="202.99" y="1923.86" width="27.46" height="7.12" rx="3.56" transform="translate(-596.69 166.66) rotate(-18.38)"/><rect class="cls-13" x="201.45" y="1929.1" width="30.53" height="7.12" rx="3.56" transform="translate(191.2 -11.95) rotate(5.65)"/><polyline class="cls-11" points="694.72 2309.52 758.78 1894.12 737.43 1890.56 676.92 2309.52"/><path class="cls-2" d="M706.41,2309.52a41,41,0,0,1,5.6-11.19"/><path class="cls-3" d="M706.41,2309.52a7.75,7.75,0,0,1-.34-3.52,10.26,10.26,0,0,1,.94-3.15,9.72,9.72,0,0,1,1.92-2.7,7,7,0,0,1,3.08-1.82,12.65,12.65,0,0,1-.45,3.39,14.89,14.89,0,0,1-2.65,5.42A11.24,11.24,0,0,1,706.41,2309.52Z"/><path class="cls-2" d="M712.17,2309.74s4.83-11.94,13.4-15.19"/><path class="cls-3" d="M712.17,2309.74a13.71,13.71,0,0,1,1.06-5.39,18.68,18.68,0,0,1,2.75-4.7,16.45,16.45,0,0,1,4.17-3.66,10,10,0,0,1,5.42-1.44c-1.31,1.41-2.41,2.6-3.48,3.82L719,2302.1c-1,1.26-2,2.54-3.16,3.82A40.75,40.75,0,0,1,712.17,2309.74Z"/><path class="cls-2" d="M724,2303.67a25.6,25.6,0,0,1-2,7.12"/><path class="cls-3" d="M724,2303.67a4.26,4.26,0,0,1,1.13,4.15,4.21,4.21,0,0,1-1,1.78,4,4,0,0,1-2.17,1.19,6.83,6.83,0,0,1-.72-2.23,4.7,4.7,0,0,1,.12-1.77,4.78,4.78,0,0,1,.82-1.6A5.85,5.85,0,0,1,724,2303.67Z"/><line class="cls-2" x1="730.06" y1="2006.74" x2="707.87" y2="2146.56"/><path class="cls-3" d="M730.06,2006.74c-1.33,11.73-2.91,23.43-4.57,35.11s-3.45,23.34-5.27,35-3.77,23.29-5.82,34.91-4.16,23.23-6.53,34.8c1.33-11.73,2.9-23.43,4.57-35.11s3.44-23.34,5.27-35,3.77-23.29,5.82-34.91S727.69,2018.31,730.06,2006.74Z"/><line class="cls-2" x1="744.29" y1="1915.22" x2="737.68" y2="1963.52"/><path class="cls-3" d="M744.29,1915.22c0,4.09-.31,8.16-.67,12.21s-.85,8.08-1.37,12.11-1.18,8-1.93,12-1.56,8-2.64,11.94c0-4.1.31-8.16.67-12.21s.85-8.09,1.38-12.11,1.18-8,1.93-12S743.22,1919.17,744.29,1915.22Z"/><path class="cls-2" d="M669.55,2309.26s-.51-11.69-6.1-18.3"/><path class="cls-3" d="M669.55,2309.26a30.9,30.9,0,0,1-2.1-4.59c-.56-1.5-1.05-3-1.48-4.47s-.88-2.94-1.27-4.45-.85-3-1.25-4.79a10.29,10.29,0,0,1,4,3.45,16.77,16.77,0,0,1,2.25,4.67,18.9,18.9,0,0,1,.76,5.06A13.11,13.11,0,0,1,669.55,2309.26Z"/><path class="cls-2" d="M663.7,2310s.51-6.11,0-8.65"/><path class="cls-3" d="M663.7,2310a6.19,6.19,0,0,1-1.73-4.37,5.87,5.87,0,0,1,.41-2.07,8.54,8.54,0,0,1,1.32-2.21,4.42,4.42,0,0,1,1.74,2.1,5.5,5.5,0,0,1,.43,2.26,5.77,5.77,0,0,1-.5,2.2A5.43,5.43,0,0,1,663.7,2310Z"/><path class="cls-2" d="M656.33,2309.26s-.51-3.05-4.58-5.59"/><path class="cls-3" d="M656.33,2309.26a17.29,17.29,0,0,1-2-1,4.44,4.44,0,0,1-1.21-1,4.66,4.66,0,0,1-.83-1.39,7.87,7.87,0,0,1-.52-2.26,3.74,3.74,0,0,1,2.48-.09,3.94,3.94,0,0,1,1.82,1.19,4.07,4.07,0,0,1,.92,2A3.15,3.15,0,0,1,656.33,2309.26Z"/><path class="cls-12" d="M737.49,1890.14c-.28,1.8,4.47,4,10.61,5s10.34.54,10.62-1.27-3.47-4.3-9.6-5.26S737.77,1888.33,737.49,1890.14Z"/><rect class="cls-12" x="706.16" y="2079.95" width="27.46" height="7.12" rx="3.56" transform="translate(1110.95 4252.92) rotate(-171.16)"/><rect class="cls-12" x="706.67" y="2067.75" width="27.46" height="7.12" rx="3.56" transform="translate(750.92 4264.11) rotate(-161.62)"/><rect class="cls-13" x="705.13" y="2072.99" width="30.53" height="7.12" rx="3.56" transform="translate(1641.6 4072.14) rotate(174.35)"/><path class="cls-3" d="M340.77,2307.23l9.36-.28,9.36-.21,18.72-.41q18.72-.33,37.43-.54c12.48-.17,25-.21,37.44-.31l37.43-.1,37.44.1c12.47.1,24.95.13,37.43.3s25,.33,37.43.54l18.72.42,9.36.21,9.36.28-9.36.28-9.36.21-18.72.42q-18.7.32-37.43.54c-12.48.17-25,.2-37.43.3l-37.44.1-37.43-.1c-12.48-.1-25-.14-37.44-.31s-24.95-.32-37.43-.54l-18.72-.41-9.36-.21Z"/><path class="cls-5" d="M630.59,2311.55c0,2.39-61.12,9.66-136.52,9.66s-136.52-7.27-136.52-9.66,61.12-4.32,136.52-4.32S630.59,2309.16,630.59,2311.55Z"/><path class="cls-14" d="M605.17,2032.16a41.17,41.17,0,0,0-21.07,1.73h0l8.18,78.52a4.57,4.57,0,0,0,4.68,3.9h51.49a4.57,4.57,0,0,0,4.69-3.9l7.76-74.57C637.86,2048.53,617.34,2034.19,605.17,2032.16Z"/><path class="cls-15" d="M663.36,2014.25l-10.22,98.16a4.57,4.57,0,0,1-4.69,3.9H597a4.57,4.57,0,0,1-4.68-3.9l-10.23-98.16Z"/><line class="cls-16" x1="598.3" y1="2026.82" x2="606.44" y2="2115.29"/><line class="cls-16" x1="645.59" y1="2026.82" x2="637.45" y2="2115.29"/><line class="cls-16" x1="622.71" y1="2027.33" x2="622.71" y2="2115.29"/><path class="cls-17" d="M584.1,2033.89a41.17,41.17,0,0,1,21.07-1.73c12.2,2,32.81,16.45,55.93,5.59"/><path class="cls-18" d="M624.65,2037.52s9.57.67,14.84-1.41c7.11-2.81,15.76-5.53,21.61-2.06l-1.78,4.17S634.23,2045.25,624.65,2037.52Z"/><path class="cls-19" d="M662.88,2030.38a17.8,17.8,0,1,0-17.8-17.79h35.59"/><line class="cls-19" x1="662.88" y1="1995.3" x2="662.88" y2="2030.38"/><path class="cls-3" d="M676.69,2001.75l-9.81,7.72,7.73-9.8a1.47,1.47,0,0,1,2.08-.25,1.48,1.48,0,0,1,0,2.33Z"/><path class="cls-3" d="M651.65,1999.67l7.73,9.8-9.81-7.72a1.48,1.48,0,1,1,1.84-2.33A1.42,1.42,0,0,1,651.65,1999.67Z"/><path class="cls-3" d="M674.1,2025.77l-7.73-9.81,9.81,7.72a1.48,1.48,0,0,1,.25,2.09,1.5,1.5,0,0,1-2.09.25A1.88,1.88,0,0,1,674.1,2025.77Z"/><polyline class="cls-20" points="222.81 1902.51 299.59 1852.17 309.76 1776.92"/><polyline class="cls-20" points="224.85 1910.13 307.22 1857.26 318.4 1773.87"/><path class="cls-20" d="M147.56,1838.44s209.48-93,381.85-120c0,0-74.74-118-230.84-71.69S147.56,1838.44,147.56,1838.44Z"/><path class="cls-20" d="M222.81,1807.63s-13.72-104.43,58.48-155.28"/><path class="cls-20" d="M309.76,1643.71s91.64,3.92,141.91,90.43"/><line class="cls-20" x1="324.65" y1="1770.96" x2="288.91" y2="1649.82"/><path class="cls-5" d="M451.67,1734.14c-50.27-86.51-141.91-90.43-141.91-90.43v0q-5.52,1.39-11.18,3.07c-3.29,1-6.51,2-9.66,3.06L324.65,1771h0c40-13.28,83.53-26.32,127-36.82Z"/><path class="cls-5" d="M221.29,1807.63s-13.66-104,58-154.93C141.35,1704.3,146,1838.44,146,1838.44s29.41-13.06,75.25-30.81Z"/><path class="cls-12" d="M228.41,1940.64S302.64,2237.57,483.65,2230,709.4,2083.51,709.4,2083.51,413.48,2198.42,228.41,1940.64Z"/><path class="cls-3" d="M236.54,1958.94c4.24,8.3,8.77,16.43,13.51,24.42s9.66,15.87,14.77,23.62,10.41,15.37,15.95,22.81c1.4,1.85,2.74,3.74,4.16,5.57l4.24,5.52c2.89,3.62,5.76,7.26,8.77,10.79s6,7.06,9,10.56,6.21,6.88,9.42,10.21,6.47,6.64,9.72,9.94l5,4.79c1.65,1.63,3.38,3.17,5.09,4.72a325.49,325.49,0,0,0,44.19,33.82,248.89,248.89,0,0,1-46.1-31.65c-3.61-3-7-6.19-10.46-9.34s-6.77-6.46-10-9.84c-6.56-6.68-12.78-13.68-18.78-20.84a402.21,402.21,0,0,1-32.7-45.5q-7.4-11.91-13.92-24.3C244.15,1976,240,1967.59,236.54,1958.94Z"/><path class="cls-3" d="M281.29,2058.6c8,11.16,16.65,21.85,25.6,32.21,4.51,5.15,9.07,10.26,13.8,15.19s9.54,9.8,14.52,14.48,10.05,9.25,15.29,13.63,10.64,8.56,16.15,12.61l4.17,3,4.25,2.86c1.4,1,2.85,1.88,4.3,2.8s2.87,1.86,4.36,2.7c5.84,3.59,11.91,6.76,18.06,9.87a161.51,161.51,0,0,1-19-8.28A188.17,188.17,0,0,1,365,2149.09a241.4,241.4,0,0,1-32.33-25.92c-5-4.79-9.88-9.68-14.54-14.78s-9.17-10.33-13.46-15.73-8.43-10.92-12.37-16.58S284.62,2064.62,281.29,2058.6Z"/><path class="cls-3" d="M698.72,2093.17a195.49,195.49,0,0,1-20,16c-3.48,2.48-7,4.82-10.64,7.12-1.79,1.17-3.62,2.26-5.46,3.35s-3.65,2.22-5.52,3.24a220.82,220.82,0,0,1-23,11.3,146.64,146.64,0,0,1-24.38,7.82c7.86-3.33,15.6-6.71,23.18-10.46,1-.44,1.89-.94,2.83-1.43l2.83-1.43,2.82-1.43c.94-.48,1.86-1,2.79-1.51l5.59-3,5.53-3.11c1.86-1,3.67-2.1,5.5-3.14l2.75-1.58,2.72-1.63c3.67-2.11,7.24-4.37,10.88-6.55Q688,2100.08,698.72,2093.17Z"/><path class="cls-3" d="M687,2109.44a123,123,0,0,1-12,18.81c-1.13,1.47-2.27,2.95-3.44,4.39l-3.6,4.28c-1.21,1.42-2.51,2.76-3.76,4.14s-2.57,2.71-3.88,4c-2.61,2.66-5.39,5.15-8.14,7.66l-4.31,3.58-2.16,1.77-2.26,1.66c-1.51,1.09-3,2.22-4.52,3.28l-4.71,3c-.79.48-1.57,1-2.37,1.46l-2.45,1.35q-2.46,1.34-4.94,2.58c1.45-1.17,2.9-2.32,4.37-3.44l2.21-1.67c.72-.58,1.42-1.18,2.13-1.77l4.29-3.47,4.18-3.6c5.53-4.82,10.93-9.79,16.06-15,2.65-2.54,5.12-5.25,7.66-7.9l3.74-4q1.82-2.07,3.67-4.11Q680.09,2118.14,687,2109.44Z"/><path class="cls-5" d="M317.46,2133.94c40.15,54.75,94.88,99,166.19,96,67.7-2.86,116.34-24.06,150.71-49.5C454.92,2257.15,363.87,2173.07,317.46,2133.94Z"/><path class="cls-5" d="M344.43,2103c38.85,40,91.38,71.94,158.92,68.38,64.14-3.37,109.94-20.06,142.14-39.62C476.52,2192.14,389,2131.25,344.43,2103Z"/><polyline class="cls-21" points="328.89 2041.14 304.42 1959.2 532.2 1909.88 562.6 2108.97"/><path class="cls-3" d="M481.72,2042.47a26.18,26.18,0,1,1-52,6"/><polygon class="cls-5" points="304.48 1813.42 313.29 1809.42 318.13 1773.38 309.51 1776.22 304.48 1813.42"/><path class="cls-5" d="M536.62,1938.83,452,1954.37a7.87,7.87,0,0,0-6.23,9.67c.18.69.37,1.38.56,2.07l-7.64,1.4c-.12-1.21-.24-2.43-.4-3.66a6.45,6.45,0,0,0-7.56-5.57l-101.25,18.6a6.46,6.46,0,0,0-5.09,7.9c10,41,40.6,69,70.54,63.5,27.53-5.05,45.48-36.82,44.16-74.44l9.12-1.67c12.13,35.63,40.19,58.94,67.72,53.88,12.53-2.3,23.07-10.12,30.72-21.52"/><path class="cls-3" d="M326.44,1972.3a6.47,6.47,0,0,0-5.09,7.9c10,41,40.6,69,70.54,63.51s48.54-42.58,43.36-84.43a6.46,6.46,0,0,0-7.56-5.58Z"/><path class="cls-3" d="M449,1949.8a7.86,7.86,0,0,0-6.23,9.66c10.4,40.15,40.59,67.45,70.16,62s48.09-41.68,43.54-82.9a7.86,7.86,0,0,0-9.25-6.83Z"/><rect class="cls-3" x="419.52" y="1961.92" width="43.84" height="6.3" transform="translate(-347.78 112.1) rotate(-10.41)"/><g class="cls-22"><polygon class="cls-23" points="356.28 2041.06 338.49 2034.45 369.5 1959.2 391.37 1954.62 356.28 2041.06"/><polygon class="cls-23" points="380.17 2045.71 368.19 2045.71 407.56 1949.85 419.55 1949.85 380.17 2045.71"/></g><g class="cls-24"><polygon class="cls-25" points="469.98 2020.04 450 2020.04 489.38 1924.17 509.35 1924.17 469.98 2020.04"/><polygon class="cls-25" points="495.08 2022.32 483.1 2022.32 520.51 1931.74 532.2 1931.74 495.08 2022.32"/></g><circle class="cls-26" cx="617.11" cy="1996.82" r="2.03"/><circle class="cls-26" cx="633" cy="1993.14" r="3.18"/><circle class="cls-26" cx="623.47" cy="1982.84" r="2.29"/></g><g id="Layer_4" data-name="Layer 4"><polygon class="cls-27" points="2380.97 3554.58 2380.97 3919.82 2754.98 3840.69 2754.98 3485.59 2380.97 3554.58"/><polygon class="cls-14" points="2380.97 3554.58 2380.97 3919.82 2754.98 3840.69 2754.98 3485.59 2380.97 3554.58"/><polygon class="cls-27" points="2130.93 3500.14 2380.97 3551.42 2284.12 3629.91 2023.33 3564.71 2130.93 3500.14"/><line class="cls-28" x1="2303.74" y1="3614.08" x2="2047.49" y2="3549.63"/><line class="cls-27" x1="2111.72" y1="3586.81" x2="2111.72" y2="3683.71"/><line class="cls-27" x1="2122.7" y1="3835.63" x2="2380.96" y2="3919.82"/><path class="cls-14" d="M2300.12,3673.8s-14.91,107.37-18.39,123.27L2160,3764.76l9-14.91Z"/><path class="cls-2" d="M2190,3666.6l110.35,7s-15.91,75.56-29.33,103.89c0,0-106.37-19.39-110.84-20.88C2160.2,3756.56,2186.05,3685.48,2190,3666.6Z"/><path class="cls-3" d="M2271.76,3778.83l-.94-.17c-4.35-.79-106.51-19.42-111-20.92l-1.22-.4.44-1.2c.26-.71,25.86-71.21,29.78-89.8l.22-1.05,112.85,7.11-.3,1.41c-.15.76-16.09,76-29.41,104.16Zm-109.93-23.13c10.13,2.29,73.63,14,108.49,20.35,12.12-26.34,26.3-91,28.53-101.35L2191,3667.9C2186.7,3686.75,2165.39,3745.88,2161.83,3755.7Z"/><ellipse class="cls-3" cx="2243.04" cy="3697.99" rx="7.44" ry="7.48"/><ellipse class="cls-3" cx="2220.72" cy="3697.99" rx="7.44" ry="7.48"/><path class="cls-3" d="M2260,3717.36a3,3,0,0,1,2.49,3.69,31.23,31.23,0,0,1-61.34-10.08,3,3,0,0,1,3.53-2.69Z"/><path class="cls-3" d="M2438.63,3734.07q-.72-4.62,2.1-11.53a38.22,38.22,0,0,1,8.48-12.6,32.77,32.77,0,0,1,12.51-8.07q16.46-5.73,18.07,4.87,1.32,8.53-5,18.74a32.63,32.63,0,0,1-16.92,14.05q-7.62,2.74-13,1.22T2438.63,3734.07Zm7.76-3.9a4.5,4.5,0,0,0,3.77,3.82,13.7,13.7,0,0,0,7.94-.82q6.66-2.39,10.82-9.73t3.25-13.15c-.31-2-1.26-3.16-2.87-3.48s-4.21.15-7.83,1.42a20.18,20.18,0,0,0-8.1,5.51,27,27,0,0,0-5.56,8.8Q2446,3727.37,2446.39,3730.17Z"/><path class="cls-3" d="M2482.17,3726.53l.82-7.47q1.07-9.78,1.53-22.6a4.35,4.35,0,0,1,1.12-2.56,6,6,0,0,1,2.72-1.9,3.38,3.38,0,0,1,2.39-.1,1.77,1.77,0,0,1,1.16,1.48,73.49,73.49,0,0,1-.29,7.38l-.68,9.93q-.27,3.41-1.28,11.92a96.84,96.84,0,0,0,16.21-8.46,7.11,7.11,0,0,1,1.16-.56,2.89,2.89,0,0,1,2.47,0,2,2,0,0,1,1,1.39c.2,1.3-.4,2.56-1.82,3.79a51.69,51.69,0,0,1-8.79,5.3,97.55,97.55,0,0,1-11.4,5.17c-3.79,1.37-5.88.87-6.25-1.5A7.08,7.08,0,0,1,2482.17,3726.53Z"/><path class="cls-3" d="M2518.54,3716.5a3.42,3.42,0,0,1-2.45.08,1.72,1.72,0,0,1-1.1-1.38,69.65,69.65,0,0,1,.43-7.43q.72-6.81.8-18.95c0-1.67.05-2.84.11-3.51a5.81,5.81,0,0,1,1.45-2.67,6.72,6.72,0,0,1,3-2.23,14,14,0,0,1,4.26-.07,37.39,37.39,0,0,0,4.73.19,24.19,24.19,0,0,1,12.5,2.08q5.14,2.57,5.89,7.41.91,5.92-4,13.47t-16.61,11.77A18.56,18.56,0,0,1,2518.54,3716.5Zm4.76-29.19-.82,22.61a10.41,10.41,0,0,0,5.26-.78q5.81-2.08,8.16-4.31a19.65,19.65,0,0,0,4-5.33,9.68,9.68,0,0,0,1.16-5.94,5.63,5.63,0,0,0-2.56-4,11.89,11.89,0,0,0-5.21-1.84A97.61,97.61,0,0,0,2523.3,3687.31Z"/><path class="cls-3" d="M2496.63,3746.42a7,7,0,0,1,2.83-2c1.94-.71,3.08,0,3.41,2.12q.59,3.84-.46,5.74a5.83,5.83,0,0,1-3.2,2.7c-1.63.6-2.79.32-3.47-.86q-.47-.82-.93-.87a7.8,7.8,0,0,0-2.18.6q-4.07,1.5-9.65,9.88t-4.92,12.87a3.42,3.42,0,0,0,2.09,2.74,5.49,5.49,0,0,0,4.29-.13,17,17,0,0,0,4.07-2.18,60.88,60.88,0,0,0,5.51-4.85,11.77,11.77,0,0,1,3.16-2.37,3.42,3.42,0,0,1,2.45-.15,1.82,1.82,0,0,1,1.19,1.52,3.26,3.26,0,0,1-.66,2.31,30.71,30.71,0,0,1-3.76,4,46,46,0,0,1-6,4.85,30.46,30.46,0,0,1-6.18,3.22q-5.47,2.09-9.26.44a6.93,6.93,0,0,1-4.4-5.59q-1.1-7.05,6.7-18.55t15.62-14.32A22.19,22.19,0,0,1,2496.63,3746.42Z"/><path class="cls-3" d="M2504.23,3774.56l.81-7.47q1-9.78,1.48-22.58a4.36,4.36,0,0,1,1.11-2.56,6,6,0,0,1,2.68-1.94,3.42,3.42,0,0,1,2.37-.15,1.73,1.73,0,0,1,1.14,1.47,71.34,71.34,0,0,1-.28,7.36l-.66,9.93q-.26,3.39-1.25,11.91a97.48,97.48,0,0,0,16-8.7,7.17,7.17,0,0,1,1.15-.57,2.82,2.82,0,0,1,2.44-.08,1.93,1.93,0,0,1,1,1.37q.3,1.95-1.79,3.81a52.1,52.1,0,0,1-8.69,5.42,98.86,98.86,0,0,1-11.26,5.34q-5.62,2.13-6.17-1.4A7,7,0,0,1,2504.23,3774.56Z"/><path class="cls-3" d="M2534.64,3755.18q-.69-4.48,1.92-11.22a37.28,37.28,0,0,1,7.93-12.3,30.93,30.93,0,0,1,11.74-7.93q15.46-5.68,17,4.62,1.29,8.28-4.63,18.24a31,31,0,0,1-15.88,13.77q-7.15,2.71-12.24,1.27A7.52,7.52,0,0,1,2534.64,3755.18Zm7.28-3.84a4.32,4.32,0,0,0,3.57,3.69,12.52,12.52,0,0,0,7.47-.86q6.27-2.36,10.15-9.53t3-12.79q-.45-2.91-2.72-3.37c-1.52-.3-4,.18-7.37,1.43a19.16,19.16,0,0,0-7.6,5.41,26.63,26.63,0,0,0-5.19,8.59C2542.08,3747.05,2541.64,3749.52,2541.92,3751.34Z"/><path class="cls-3" d="M2595.91,3715.57l.34,10.2q.2,5.33.12,7.71a15.45,15.45,0,0,0,.07,2.18c.21,2.7-.13,4.67-1,5.94a6.3,6.3,0,0,1-2.72,2.42,3.17,3.17,0,0,1-2.34.13,1.66,1.66,0,0,1-1.13-1.37,5.73,5.73,0,0,1,.13-1.39,10.84,10.84,0,0,0,.13-2.5c-.06-.87-.15-3.47-.29-7.79l-.39-12.53-2.65,1.07a39.32,39.32,0,0,1-7.28,2.32c-1.84.33-2.84-.07-3-1.2a4.1,4.1,0,0,1,.77-2.87,5.52,5.52,0,0,1,2.81-2.18l7.14-2.22q1.88-.69,6.27-2.55t6-2.43l7.77-2.73q1.95-.71,2.52-.84a2.07,2.07,0,0,1,1.31.22,1.54,1.54,0,0,1,.87,1.24,3.84,3.84,0,0,1-.87,2.8,5.39,5.39,0,0,1-2.52,2l-10.63,3.84Z"/><path class="cls-3" d="M2639.28,3712.59c-2.9,1.19-9.16,4.42-18.84,9.69-.06,1.19-.21,2.92-.46,5.17-.24,2.42-.37,4.14-.42,5.18a3.84,3.84,0,0,1-1,2.44,5.7,5.7,0,0,1-2.37,1.72,2.8,2.8,0,0,1-2.13.1,1.63,1.63,0,0,1-1-1.35,52.81,52.81,0,0,1,.58-7.3q.7-5.53,1.49-24.08a3.83,3.83,0,0,1,1-2.41,5.55,5.55,0,0,1,2.4-1.7,3,3,0,0,1,2.12-.1,1.57,1.57,0,0,1,1.06,1.33,42.24,42.24,0,0,1-.3,5.58l-.16,2.94c-.08,1.8-.18,3.23-.29,4.31a21.35,21.35,0,0,0-.23,2.32l9.43-5.14a92.3,92.3,0,0,1,9.35-4.46q.17-1.53.59-8a11.72,11.72,0,0,1,1.43-4.73q1.37-2.79,2.88-3.34a3.07,3.07,0,0,1,2.14-.09,1.54,1.54,0,0,1,1.1,1.26,2.66,2.66,0,0,1-.1,1.14,17.73,17.73,0,0,0-.64,3.73c0,.33-.09.71-.15,1.16-.09,1-.14,1.7-.13,1.93q0,1.23-.43,6.27a74.14,74.14,0,0,0-.39,8.24l.26,6.81a4.14,4.14,0,0,1-.9,2.85,5.7,5.7,0,0,1-2.51,1.85,3.29,3.29,0,0,1-2.26.16,1.48,1.48,0,0,1-1.09-1.24l-.09-8c0-.79,0-1.44,0-2l0-1.22A7.45,7.45,0,0,1,2639.28,3712.59Z"/><path class="cls-3" d="M2658.72,3691.09c-.12,3.52-.27,6.42-.44,8.68q2.91-1.29,9.28-4.24c3-1.38,4.9-2.21,5.73-2.52a3,3,0,0,1,2.18-.15,1.62,1.62,0,0,1,1,1.38,3.65,3.65,0,0,1-.55,2.43,5.63,5.63,0,0,1-2.66,2.13c-1.29.59-3.28,1.5-6,2.76s-5.92,2.72-9.64,4.38a45.06,45.06,0,0,0-.17,8.34,1.39,1.39,0,0,0,.34.89c.15.11,1.13-.17,2.93-.85l1.85-.7,7-2.77c.2-.08.92-.42,2.15-1a4,4,0,0,1,2.66-.53,1.57,1.57,0,0,1,1.26,1.41,3.67,3.67,0,0,1-1.56,3.64q-1.91,1.45-11,4.92c-5.12,1.95-8.36,2.64-9.69,2.07s-2.17-1.94-2.5-4.11-.2-6.72.48-13.2q1-8.52.55-11.11a15.33,15.33,0,0,1-.06-3.27,3.84,3.84,0,0,1,1-2,5.62,5.62,0,0,1,2.34-1.51,2.85,2.85,0,0,1,1.89-.11,58.09,58.09,0,0,1,9.94-4.93,44.54,44.54,0,0,1,7.4-2q3.77-.69,4.06,1.2a3.8,3.8,0,0,1-.77,2.77,5.13,5.13,0,0,1-2.46,2,4.19,4.19,0,0,1-1,.25,33.34,33.34,0,0,0-7.4,1.81A48.1,48.1,0,0,0,2658.72,3691.09Z"/><path class="cls-3" d="M2679.81,3705.84a4.24,4.24,0,0,1,.75-3.12,5.5,5.5,0,0,1,2.67-2.11,2.3,2.3,0,0,1,3.06.82c.81,1.45,2.78,1.58,5.89.41a31.54,31.54,0,0,0,7.91-4.6q4.13-3.15,3.72-5.79a1.94,1.94,0,0,0-2-1.85q-1.73-.06-7.11,1.87a18.47,18.47,0,0,1-7.5,1.23q-3.3-.25-3.67-2.62-.61-4,4.33-9.71a27.05,27.05,0,0,1,11.18-8,21.51,21.51,0,0,1,5.87-1.11c2.34-.16,3.57.2,3.7,1.07a3.54,3.54,0,0,1-.77,2.33,4.89,4.89,0,0,1-2.46,2,16.83,16.83,0,0,1-3.26.76,16.83,16.83,0,0,0-3.23.78,19.09,19.09,0,0,0-5.88,3.57c-1.91,1.63-2.79,3-2.63,4,.14.89,1.23,1.09,3.28.61l5.39-1.77a17.74,17.74,0,0,1,5.71-1,6.15,6.15,0,0,1,4,1.23,5.28,5.28,0,0,1,1.79,3.43q.85,5.58-4.79,10.9a41.54,41.54,0,0,1-13.91,8.45c-3.53,1.34-6.35,1.8-8.46,1.36S2680.06,3707.47,2679.81,3705.84Z"/><g class="cls-29"><path class="cls-3" d="M2456.92,3819.8c20-7.86,40.13-15.26,60.32-22.51,10.08-3.67,20.22-7.17,30.33-10.75l30.42-10.49,30.51-10.25c10.2-3.32,20.36-6.74,30.59-10,20.42-6.57,40.9-13,61.54-18.94-20,7.87-40.13,15.28-60.32,22.53-10.08,3.67-20.22,7.16-30.33,10.74l-30.42,10.49-30.51,10.24c-10.2,3.33-20.37,6.74-30.59,10C2498,3807.43,2477.56,3813.85,2456.92,3819.8Z"/></g><g class="cls-29"><path class="cls-3" d="M2432.24,3687.51c14.06-5.18,28.26-9.91,42.51-14.47,7.11-2.32,14.27-4.48,21.41-6.72l21.48-6.46,21.56-6.2c7.21-2,14.4-4,21.63-5.95,14.45-3.88,29-7.59,43.58-10.84-14.06,5.19-28.26,9.92-42.51,14.48-7.11,2.32-14.27,4.47-21.41,6.71l-21.48,6.46-21.56,6.2c-7.21,2-14.4,4-21.64,5.94C2461.36,3680.54,2446.87,3684.25,2432.24,3687.51Z"/></g><polygon class="cls-14" points="2383.94 3554.03 2476.55 3648.9 2754.98 3592.17 2754.98 3520.05 2383.94 3554.03"/><polygon class="cls-30" points="2380.97 3551.42 2470.22 3629.91 2844.95 3555.85 2753.8 3485.59 2380.97 3551.42"/><line class="cls-28" x1="2454.97" y1="3615.77" x2="2829.7" y2="3541.71"/><polygon class="cls-5" points="2392.68 3912.54 2904.76 3844.81 2754.98 3820.12 2754.98 3841.01 2392.68 3912.54"/><path class="cls-5" d="M2358.81,3895.13l-.63,17.72s-1.27,7-19,10.77-46.84,5.69-60.77,11.39l-5.06-3.8s15.19-7.59,25.32-9.49S2348.68,3918.55,2358.81,3895.13Z"/><path class="cls-5" d="M2129,3694.47a7.36,7.36,0,0,1,5.7,5.7c1.27,5.06,0,139.73,0,139.73s-21.52,29.28-89.88,43.2c0,0,75.32-32.91,81-48.1S2129,3694.47,2129,3694.47Z"/><ellipse class="cls-27" cx="2080.29" cy="3695.42" rx="46.84" ry="12.34" transform="translate(-367.96 232.79) rotate(-5.89)"/><ellipse class="cls-5" cx="2080.29" cy="3695.42" rx="46.84" ry="12.34" transform="translate(-367.96 232.79) rotate(-5.89)"/><path class="cls-27" d="M2033.45,3700.17s5.07,82.29,2.53,91.78c0,0-7.59,4.43-8.22,13.3,0,0-123.44,32.28-118.37,57.6s61.4,43,122.8,23.42,89.25-43.68,94.31-58.24.64-137.36.64-137.36"/><path class="cls-27" d="M2036,3744.48s39.41,20.39,92.5-4.36"/><line class="cls-27" x1="2049.35" y1="3707.66" x2="2051.27" y2="3749.63"/><line class="cls-27" x1="2068.98" y1="3710.2" x2="2070.89" y2="3752.16"/><line class="cls-27" x1="2090.5" y1="3707.66" x2="2092.41" y2="3749.63"/><line class="cls-27" x1="2110.75" y1="3702.6" x2="2112.67" y2="3744.57"/><path class="cls-3" d="M2035.94,3789.86a50.89,50.89,0,0,1,6.3,1.87c2,.73,4,1.53,5.92,2.43s3.81,1.86,5.63,2.94,3.59,2.21,5.3,3.4c-1.92-.84-3.84-1.64-5.8-2.3s-3.95-1.25-5.94-1.75-4-.89-6-1.19a48.46,48.46,0,0,0-5.94-.58h0a2.44,2.44,0,0,1,.1-4.88A2.52,2.52,0,0,1,2035.94,3789.86Z"/><path class="cls-3" d="M2042,3808.73a26.29,26.29,0,0,1,9.21,2.3,36.77,36.77,0,0,1,8.12,4.91,32.9,32.9,0,0,1,6.56,6.92,24,24,0,0,1,4,8.66c-2.48-2.09-4.53-4.22-6.81-6.13s-4.43-3.85-6.74-5.66-4.61-3.61-7-5.41S2044.49,3810.74,2042,3808.73Z"/><path class="cls-5" d="M2094.25,3859.23s-15.11-50.51,34.68-57.79c0,0,2.45,27.66-8.38,36.46S2094.25,3859.23,2094.25,3859.23Z"/><path class="cls-30" d="M2259.49,3858.56a31.47,31.47,0,0,1,19.7-1.53c26.07,6.44,91.76,24.8,76.46,43.16-19,22.79-62,15.83-84.19,32.29,0,0,132.29,42.41,86.72,70.89s-157,0-198.13-64.56c0,0-15.82-27.22,3.8-38C2179.46,3892.27,2236.72,3868.09,2259.49,3858.56Z"/><path class="cls-5" d="M2176.34,3894.65s50,30,6.43,70.64c0,0-28.1-24.51-28.58-44.17S2169.84,3898,2176.34,3894.65Z"/><path class="cls-3" d="M2308.17,3919.82a117.41,117.41,0,0,0-15.46,4,139.79,139.79,0,0,0-14.76,5.78A133.36,133.36,0,0,0,2251.1,3946a124.78,124.78,0,0,0-11.69,10.47l-.7.7-.35.34-.27.3a6.41,6.41,0,0,0-.42.52c-.1.13-.12.26-.08.06a1.33,1.33,0,0,0-.06-.61,1.47,1.47,0,0,0-.43-.65c-.29-.2-.24-.11-.1-.09a5.62,5.62,0,0,0,1.44.12,49.42,49.42,0,0,0,7.54-1c10.35-2,20.7-4.85,31.17-7.22-4.86,2.31-9.84,4.31-14.87,6.21s-10.14,3.57-15.41,5c-1.32.35-2.65.65-4,.92a29.36,29.36,0,0,1-4.26.59,10.12,10.12,0,0,1-2.56-.14,4.2,4.2,0,0,1-1.92-.86,3.23,3.23,0,0,1-1.09-3.08,5,5,0,0,1,.72-1.76,11,11,0,0,1,.8-1.07l.4-.45.35-.36.71-.74a107.83,107.83,0,0,1,12.13-11,109,109,0,0,1,28.42-15.9,105.3,105.3,0,0,1,15.58-4.59c2.65-.55,5.3-1,8-1.35A60.24,60.24,0,0,1,2308.17,3919.82Z"/><path class="cls-27" d="M2239.77,3866.86s101.81,28.37,97.29,45.89"/><line class="cls-27" x1="2263.12" y1="3873.93" x2="2294.27" y2="3860.99"/><line class="cls-27" x1="2284.01" y1="3880.26" x2="2315.16" y2="3867.32"/><line class="cls-27" x1="2304.89" y1="3888.49" x2="2336.05" y2="3875.55"/><line class="cls-27" x1="2328.32" y1="3899.89" x2="2354.38" y2="3888.8"/><path class="cls-31" d="M2148.34,3503.63s15.19-72.8,56.34-67.1,34.81,15.82,50.64,16.46,120.26-32.92,164.57,5.69c0,0,47.48-53.8,102.55-11.39"/><path class="cls-32" d="M2252.9,3452.8s22.67,52.09,96.1,47,84.82-27.22,84.82-27.22-1.27-5.7-13.93-13.93c0,0,0,20.26-66.46,23.42s-80.42-31.74-80.42-31.74"/><path class="cls-3" d="M2428.76,3464.38a50,50,0,0,1,7.55,7.78,66.81,66.81,0,0,1,6.07,9,57.37,57.37,0,0,1,4.47,9.92,39.77,39.77,0,0,1,2.16,10.66c-1.49-3.32-2.87-6.56-4.44-9.72s-3.19-6.26-4.94-9.31-3.53-6.09-5.34-9.14S2430.59,3467.51,2428.76,3464.38Z"/><path class="cls-3" d="M2247.09,3478.31a24.6,24.6,0,0,1,3.57,6.38,39.57,39.57,0,0,1,2,7,40.78,40.78,0,0,1,.77,7.22,30.28,30.28,0,0,1-.69,7.27c-.77-2.36-1.25-4.68-1.78-7s-1-4.6-1.4-6.9l-1.32-6.9C2247.86,3483.06,2247.44,3480.74,2247.09,3478.31Z"/><line class="cls-33" x1="2261.33" y1="3465.33" x2="2277.15" y2="3457.73"/><line class="cls-34" x1="2274.03" y1="3478.72" x2="2287.04" y2="3466.51"/><line class="cls-34" x1="2289.54" y1="3488.92" x2="2298.93" y2="3473.52"/><line class="cls-34" x1="2308.11" y1="3496.17" x2="2313.77" y2="3478.72"/><line class="cls-34" x1="2331.52" y1="3481.71" x2="2329.56" y2="3500.14"/><line class="cls-34" x1="2350.75" y1="3482.21" x2="2350.75" y2="3500.17"/><line class="cls-34" x1="2366.21" y1="3481.22" x2="2368.66" y2="3497.91"/><line class="cls-34" x1="2382.25" y1="3478.72" x2="2386.4" y2="3494.97"/><line class="cls-34" x1="2398.31" y1="3475.27" x2="2405.01" y2="3490.07"/><line class="cls-34" x1="2412.32" y1="3468.71" x2="2421.3" y2="3483.05"/><path class="cls-14" d="M2275.17,3454.24s109.79-25,143.87,7.29c0,0-10.23,21-76.69,20.26C2288.55,3481.15,2275.17,3454.24,2275.17,3454.24Z"/><path class="cls-14" d="M2260.06,3526.73s-1.9-27.22-6.33-41.14c0,0,38,24,50,50Z"/><path class="cls-3" d="M2374,3539.39a40.93,40.93,0,0,0,4.76.85,38.46,38.46,0,0,0,4.79.36,27.81,27.81,0,0,0,4.75-.28,18.84,18.84,0,0,0,4.51-1.19l1.06-.46c.31-.18.59-.35.9-.57l.9-.71.89-.79c1.18-1.06,2.34-2.18,3.5-3.29q3.48-3.37,7.09-6.65a133.43,133.43,0,0,1,32.14-22.12,97.38,97.38,0,0,1,18.52-6.57,85.48,85.48,0,0,1,19.5-2.36,89.23,89.23,0,0,1,19.44,2.08,106.72,106.72,0,0,1,18.41,6.25,126.15,126.15,0,0,0-18.7-4.73,98.62,98.62,0,0,0-19.09-1.13,94.09,94.09,0,0,0-36.72,9.32,121.64,121.64,0,0,0-16.58,9.5,175,175,0,0,0-15.3,11.62c-2.47,2.06-4.87,4.19-7.31,6.31-1.23,1.06-2.45,2.12-3.73,3.15l-1,.77-1,.74c-.36.23-.79.46-1.18.66l-1.2.43a20.35,20.35,0,0,1-4.91.92,28.84,28.84,0,0,1-4.92-.06A39.84,39.84,0,0,1,2374,3539.39Z"/><path class="cls-31" d="M2484.46,3496s23.42-66.46,63.93-45.58,24.05,8.87,44.94,12.66,24.69,11.4,34.19,24.06,43.67,13.29,43.67,13.29"/><path class="cls-3" d="M2588.9,3463.11c-3.52.59-7,1.14-10.45,1.66l-10.37,1.55c-3.45.51-6.91,1-10.4,1.44-1.74.21-3.48.44-5.24.62s-3.52.38-5.31.43a67.09,67.09,0,0,1,10.08-3.48,89.94,89.94,0,0,1,10.42-2.14,81.91,81.91,0,0,1,10.62-.87A48.88,48.88,0,0,1,2588.9,3463.11Z"/><path class="cls-14" d="M2412.3,3546s49.37-66.47,141.79-26Z"/><path class="cls-14" d="M2459.46,3499.11s-2.92-56,50.44-43c0,0-20.39,26.75-25.76,40.88A70.83,70.83,0,0,0,2459.46,3499.11Z"/><path class="cls-5" d="M2755.06,3485.59l-135.58-9a72.2,72.2,0,0,0,11.35,13.83c6.5,5.9,38.72,10,38.72,10Z"/><line class="cls-30" x1="2753.16" y1="3485.59" x2="2620.87" y2="3476.62"/><path class="cls-5" d="M2108.32,313.64l273.39,5.1-4.17,10.68,1.85,5.1h60.81s.93-7.42,3.71-10.67l230.7,2.32,126.72,169-62.66,4.64s-20.89-15.78-54.31-14.39c0,0-23.21-9.75-48.74-6.5,0,0-11.14-11.6-45-8.82l-23.21-20.89-10.21,4.18v7.89s-10.21-15.78-81.23-18.1c0,0-42.7.46-60.8,7.43,0,0-26.46-.47-42.71,12.53,0,0-46.42,0-78.44,10.21l-.47-6.5s-20.89-11.6-39.92,0c0,0-13.92,2.32-22.74,8.36Z"/><polygon class="cls-5" points="2097.87 542.71 2102.98 543.63 2139.65 802.18 2133.15 802.18 2097.87 542.71"/><path class="cls-5" d="M2103.82,549.57l150,7.06-.92-6s-151.32-7-149.93-7S2103.82,549.57,2103.82,549.57Z"/><polygon class="cls-5" points="2426.97 521.82 2434.86 630.9 2440.9 626.26 2433.01 521.82 2426.97 521.82"/><polygon class="cls-5" points="2436.72 556.63 2563.44 563.13 2563.44 569.16 2436.11 562.9 2436.72 556.63"/><polygon class="cls-5" points="2593.61 528.78 2801.56 496.75 2778.82 782.68 2597.32 825.85 2593.61 528.78"/><path class="cls-5" d="M2672.06,322.22s94.13-137.4,174.69-26.21-44.28,199.29-44.28,199.29Z"/><path class="cls-5" d="M2597.32,825.85s211.2-26.46,342.1,7.43c0,0-112.48-50.45-159.75-55.63l-.85,5Z"/><path class="cls-5" d="M2341.56,512.07c3.25-2.79,36.67-20,81.23-15.32,0,0,42.71-26.46,69.63-23.21,0,0,74.27.93,108.62,23.21,0,0,91-10.21,118.36,7l-125.79,18.11Z"/><path class="cls-5" d="M2409.78,471.46l0,4.08s4,5.38,18.26,4.75,15.87-4.85,15.87-4.85l0-4.22s-3.11,4.6-16.53,4.09S2412.07,473.15,2409.78,471.46Z"/><path class="cls-35" d="M2443.89,474.69c0,3.29-7.9,5.69-17.12,5.61s-17-2.62-17-5.91"/><ellipse class="cls-36" cx="2426.86" cy="470.13" rx="5.94" ry="16.68" transform="matrix(0.01, -1, 1, 0.01, 1935.48, 2892.78)"/><text class="cls-37" transform="translate(2422.25 467.38) rotate(83.13) scale(0.7 1)">£</text><line class="cls-38" x1="2409.8" y1="469.79" x2="2409.76" y2="474.01"/><line class="cls-38" x1="2443.93" y1="470.09" x2="2443.89" y2="474.31"/><path class="cls-3" d="M2787.51,777.65q21,5.1,41.64,11.47c13.77,4.21,27.42,8.82,41,13.71q10.14,3.74,20.21,7.63c6.69,2.66,13.38,5.33,20,8.14q19.92,8.35,39.29,17.93-20-8.09-40.11-15.91l-10.06-3.88-10.08-3.82q-10.08-3.79-20.21-7.47c-13.5-4.93-27.08-9.65-40.69-14.27S2801.21,782.09,2787.51,777.65Z"/><path class="cls-3" d="M1886.67,845.81c10.61-5.7,21.56-10.72,32.6-15.51s22.24-9.22,33.5-13.48,22.63-8.2,34.09-11.86c5.71-1.9,11.49-3.59,17.24-5.36s11.57-3.31,17.39-4.85c-5.64,2.13-11.31,4.11-17,6.15l-17,6.11-8.48,3.06-8.45,3.11c-5.65,2-11.27,4.15-16.9,6.24q-16.87,6.3-33.64,12.88C1908.92,836.71,1897.77,841.15,1886.67,845.81Z"/><polygon class="cls-39" points="2101.59 800.79 2056.56 505.57 2593.61 528.78 2597.32 825.85 2101.59 800.79"/><polygon class="cls-39" points="2593.61 528.78 2801.56 495.36 2779.28 782.68 2597.32 825.85 2593.61 528.78"/><polyline class="cls-39" points="2248.1 513.85 2262.19 623.01 2434.86 630.9 2426.7 521.57"/><ellipse class="cls-40" cx="2333.54" cy="554.54" rx="11" ry="11.6"/><polygon class="cls-3" points="2331.99 564.52 2329.49 598.87 2350.38 599.8 2342.12 564.52 2331.99 564.52"/><path class="cls-41" d="M2351.31,607.23l-1.21-4.89-1.11-3.93-11.92-30.47a13.92,13.92,0,1,0-12.08.59l-2.46,36.84Z"/><polyline class="cls-39" points="2432.84 521.83 2440.9 626.26 2434.86 630.9"/><line class="cls-41" x1="2092.75" y1="507.14" x2="2133.28" y2="802.39"/><path class="cls-39" d="M2435.79,557.09c83.29,3.3,127.65,6,127.65,6"/><path class="cls-39" d="M2097.66,542.94c.28,1,64.75,3.86,155.25,7.66"/><line class="cls-41" x1="2102.94" y1="543.57" x2="2139.58" y2="802.39"/><polygon class="cls-39" points="2056.56 505.57 2085.34 501.86 2593.61 521.82 2593.61 528.78 2056.56 505.57"/><line class="cls-39" x1="2562.59" y1="528.78" x2="2571.33" y2="824.46"/><line class="cls-39" x1="2620.37" y1="524.48" x2="2620.37" y2="820.38"/><line class="cls-39" x1="2620.53" y1="560.81" x2="2778.82" y2="530.17"/><line class="cls-39" x1="2780.96" y1="498.67" x2="2762.81" y2="786.59"/><polyline class="cls-39" points="2593.61 521.82 2789.96 492.57 2801.56 495.36"/><path class="cls-5" d="M2252.91,470.46v4.94s4.85,6.46,22.15,5.55,19.16-6,19.16-6V469.8s-3.72,5.6-20,5.14S2255.69,472.47,2252.91,470.46Z"/><path class="cls-42" d="M2294.22,474c0,4-9.51,7-20.66,7s-20.65-3-20.65-7"/><ellipse class="cls-43" cx="2273.56" cy="468.67" rx="20.19" ry="7.19"/><text class="cls-44" transform="translate(2267.83 465.39) rotate(82.63) scale(0.7 1)">£</text><line class="cls-45" x1="2252.91" y1="468.44" x2="2252.91" y2="473.54"/><line class="cls-45" x1="2294.22" y1="468.44" x2="2294.22" y2="473.54"/><path class="cls-5" d="M2112.73,819.51v5s4.85,6.46,22.15,5.55,19.16-6,19.16-6v-5.11s-3.72,5.6-20,5.13S2115.51,821.53,2112.73,819.51Z"/><path class="cls-42" d="M2154,823.07c0,4-9.51,7-20.66,7s-20.65-3-20.65-7"/><ellipse class="cls-46" cx="2133.38" cy="817.73" rx="20.19" ry="7.19"/><text class="cls-44" transform="translate(2127.65 814.45) rotate(82.63) scale(0.7 1)">£</text><line class="cls-45" x1="2112.73" y1="817.5" x2="2112.73" y2="822.6"/><line class="cls-45" x1="2154.04" y1="817.5" x2="2154.04" y2="822.6"/><path class="cls-5" d="M2018.09,817l.6,3.7s4.43,4.26,17.28,1.47,13.63-6.85,13.63-6.85l-.62-3.83s-2.1,4.65-14.34,6.27S2020.43,818.12,2018.09,817Z"/><path class="cls-47" d="M2049.49,814.59c.48,3-6.28,6.37-14.64,7.73s-15.84.27-16.32-2.71"/><ellipse class="cls-48" cx="2033.36" cy="813.1" rx="15.33" ry="5.46" transform="matrix(0.99, -0.16, 0.16, 0.99, -103.86, 335.64)"/><text class="cls-49" transform="matrix(0.2, 0.67, -0.96, 0.29, 2028.65, 811.33)">£</text><line class="cls-50" x1="2017.85" y1="815.43" x2="2018.47" y2="819.26"/><line class="cls-50" x1="2048.81" y1="810.42" x2="2049.43" y2="814.24"/><path class="cls-5" d="M2382,486.14l.64,4.9s5.65,5.78,22.69,2.63,18.21-8.47,18.21-8.47l-.67-5.07s-2.95,6-19.12,7.68S2385,487.78,2382,486.14Z"/><path class="cls-42" d="M2423.44,484.3c.52,3.94-8.52,8.14-19.58,9.58s-20.86-.28-21.38-4.22"/><ellipse class="cls-46" cx="2402.27" cy="481.69" rx="20.19" ry="7.19" transform="translate(-42.21 316.03) rotate(-7.46)"/><text class="cls-51" transform="matrix(0.18, 0.67, -0.97, 0.26, 2396.15, 479.14)">£</text><line class="cls-45" x1="2381.76" y1="484.14" x2="2382.42" y2="489.2"/><line class="cls-45" x1="2422.72" y1="478.78" x2="2423.38" y2="483.84"/><path class="cls-5" d="M2441.34,487.59l.43,3.26s3.76,3.84,15.08,1.74S2469,487,2469,487l-.44-3.37s-2,4-12.71,5.11S2443.35,488.68,2441.34,487.59Z"/><path class="cls-52" d="M2468.87,486.37c.35,2.61-5.66,5.4-13,6.37s-13.87-.19-14.21-2.81"/><ellipse class="cls-53" cx="2454.8" cy="484.63" rx="13.42" ry="4.78" transform="translate(-42.15 322.87) rotate(-7.46)"/><text class="cls-54" transform="matrix(0.18, 0.67, -0.97, 0.26, 2450.7, 482.93)">£</text><line class="cls-55" x1="2441.17" y1="486.26" x2="2441.61" y2="489.62"/><line class="cls-55" x1="2468.39" y1="482.69" x2="2468.83" y2="486.06"/><path class="cls-5" d="M2561.57,839.55l0,4.08s4,5.38,18.27,4.75,15.87-4.85,15.87-4.85l0-4.22s-3.1,4.6-16.52,4.09S2563.85,841.24,2561.57,839.55Z"/><path class="cls-35" d="M2595.67,842.78c0,3.29-7.9,5.69-17.11,5.61s-17-2.62-17-5.91"/><ellipse class="cls-36" cx="2578.65" cy="838.22" rx="5.94" ry="16.68" transform="translate(1717.86 3409.42) rotate(-89.5)"/><text class="cls-37" transform="translate(2574.03 835.47) rotate(83.13) scale(0.7 1)">£</text><line class="cls-38" x1="2561.58" y1="837.88" x2="2561.54" y2="842.1"/><line class="cls-38" x1="2595.71" y1="838.18" x2="2595.68" y2="842.4"/><path class="cls-5" d="M2783.44,808.91l0,4.09s4,5.37,18.26,4.75,15.87-4.85,15.87-4.85l0-4.23s-3.11,4.6-16.53,4.1S2785.73,810.6,2783.44,808.91Z"/><path class="cls-35" d="M2817.55,812.15c0,3.28-7.9,5.68-17.12,5.6s-17-2.62-17-5.9"/><ellipse class="cls-36" cx="2800.52" cy="807.59" rx="5.94" ry="16.68" transform="matrix(0.01, -1, 1, 0.01, 1968.43, 3600.92)"/><ellipse class="cls-5" cx="2800.52" cy="807.59" rx="5.94" ry="16.68" transform="matrix(0.01, -1, 1, 0.01, 1968.43, 3600.92)"/><text class="cls-37" transform="translate(2795.91 804.83) rotate(83.13) scale(0.7 1)">£</text><line class="cls-38" x1="2783.46" y1="807.25" x2="2783.42" y2="811.46"/><line class="cls-38" x1="2817.59" y1="807.54" x2="2817.55" y2="811.76"/><path class="cls-5" d="M2533.8,854.23l.64,4.9s5.66,5.78,22.69,2.63,18.21-8.47,18.21-8.47l-.66-5.07s-3,6-19.12,7.68S2536.83,855.87,2533.8,854.23Z"/><path class="cls-42" d="M2575.23,852.39c.51,3.94-8.52,8.14-19.58,9.59s-20.87-.29-21.39-4.23"/><ellipse class="cls-46" cx="2554.05" cy="849.78" rx="20.19" ry="7.19" transform="translate(-88.72 338.85) rotate(-7.46)"/><text class="cls-51" transform="matrix(0.18, 0.67, -0.97, 0.26, 2547.94, 847.23)">£</text><line class="cls-45" x1="2533.54" y1="852.23" x2="2534.2" y2="857.29"/><line class="cls-45" x1="2574.5" y1="846.87" x2="2575.17" y2="851.93"/><path class="cls-5" d="M2593.13,855.68l.43,3.26s3.75,3.84,15.07,1.74,12.11-5.63,12.11-5.63l-.44-3.37s-2,4-12.71,5.11S2595.14,856.77,2593.13,855.68Z"/><path class="cls-52" d="M2620.66,854.46c.34,2.61-5.66,5.4-13,6.37s-13.87-.19-14.21-2.81"/><ellipse class="cls-53" cx="2606.59" cy="852.72" rx="13.42" ry="4.78" transform="translate(-88.66 345.7) rotate(-7.46)"/><text class="cls-54" transform="matrix(0.18, 0.67, -0.97, 0.26, 2602.49, 851.02)">£</text><line class="cls-55" x1="2592.96" y1="854.35" x2="2593.4" y2="857.71"/><line class="cls-55" x1="2620.18" y1="850.78" x2="2620.62" y2="854.15"/><path class="cls-5" d="M2523.9,477.43l.09,2.82s2.9,3.59,12.75,2.74,10.81-3.81,10.81-3.81l-.09-2.92s-2,3.27-11.29,3.31S2525.53,478.52,2523.9,477.43Z"/><path class="cls-56" d="M2547.54,478.66c.07,2.27-5.29,4.16-11.65,4.37s-11.85-1.31-11.92-3.58"/><ellipse class="cls-57" cx="2535.65" cy="476.01" rx="11.53" ry="4.11" transform="translate(-14.52 85.18) rotate(-1.92)"/><text class="cls-58" transform="translate(2532.28 474.26) rotate(80.71) scale(0.7 1)">£</text><line class="cls-59" x1="2523.86" y1="476.27" x2="2523.96" y2="479.19"/><line class="cls-59" x1="2547.43" y1="475.48" x2="2547.53" y2="478.4"/><path class="cls-5" d="M2589.54,489.83l.61,2.75s3.51,3,13,.34,9.92-5.75,9.92-5.75l-.64-2.85s-1.37,3.58-10.48,5.34S2591.34,490.61,2589.54,489.83Z"/><path class="cls-56" d="M2613,486.66c.49,2.22-4.43,5.06-10.64,6.45s-11.88.91-12.38-1.3"/><ellipse class="cls-57" cx="2600.82" cy="486.26" rx="11.53" ry="4.11" transform="translate(-43.43 579.26) rotate(-12.6)"/><text class="cls-60" transform="matrix(0.24, 0.66, -0.94, 0.34, 2597.29, 485.1)">£</text><line class="cls-59" x1="2589.29" y1="488.7" x2="2589.92" y2="491.55"/><line class="cls-59" x1="2612.3" y1="483.56" x2="2612.94" y2="486.4"/><path class="cls-5" d="M2227.86,487.58l.36,3.31s3.71,4,15.24,2.14,12.41-5.42,12.41-5.42l-.36-3.43s-2.09,4-13,4.87S2229.87,488.73,2227.86,487.58Z"/><path class="cls-61" d="M2255.81,487c.28,2.67-5.87,5.35-13.35,6.15s-14.06-.53-14.34-3.19"/><ellipse class="cls-62" cx="2241.58" cy="484.9" rx="13.61" ry="4.85" transform="matrix(0.99, -0.11, 0.11, 0.99, -38.81, 240.74)"/><text class="cls-63" transform="translate(2237.54 483.07) rotate(76.54) scale(0.7 1)">£</text><line class="cls-64" x1="2227.72" y1="486.22" x2="2228.08" y2="489.65"/><line class="cls-64" x1="2255.41" y1="483.27" x2="2255.78" y2="486.69"/><path class="cls-3" d="M2137.62,503.91a154.14,154.14,0,0,1,21.62-11.57,204.08,204.08,0,0,1,23-8.62c1-.3,1.95-.62,2.94-.9l3-.82c2-.52,4-1.12,6-1.59,4-.9,8-1.87,12-2.55,2-.36,4-.78,6.07-1l6.1-.82c2-.32,4.07-.44,6.12-.61l6.12-.49-.56.24a34.18,34.18,0,0,1,5.28-3.35,41.66,41.66,0,0,1,11.58-4,44.34,44.34,0,0,1,6.06-.73,53.26,53.26,0,0,0-5.91,1.34,46.46,46.46,0,0,0-5.66,2,45.13,45.13,0,0,0-5.31,2.74,31.46,31.46,0,0,0-4.77,3.43.94.94,0,0,1-.52.23h0c-8.07,1-16.11,2-24,3.68s-15.83,3.53-23.62,5.8-15.48,4.88-23.05,7.81A240.86,240.86,0,0,0,2137.62,503.91Z"/><path class="cls-3" d="M2299.79,472.15a156.2,156.2,0,0,1,17.67-4.91c6-1.32,12-2.47,18.07-3.25s12.18-1.44,18.31-1.7,12.27-.34,18.41-.16l-.73.21a84.9,84.9,0,0,1,10-5.62,88.47,88.47,0,0,1,10.66-4.28,73.65,73.65,0,0,1,11.19-2.73A62.76,62.76,0,0,1,2415,449l-.46.06a195.42,195.42,0,0,1,30.18-5.52c5.07-.57,10.16-.92,15.26-1.19l7.64-.27,7.65,0a242.33,242.33,0,0,1,30.46,2.28c5.06.6,10,1.62,15,2.54,2.51.42,5,1.07,7.45,1.64l7.4,1.81-7.49-1.39c-2.49-.46-5-1-7.49-1.32-5-.71-10-1.52-15.08-1.91a271.69,271.69,0,0,0-30.31-1.46,263.38,263.38,0,0,0-30.24,1.87,199.22,199.22,0,0,0-29.67,5.54,1.82,1.82,0,0,1-.46.06,59.73,59.73,0,0,0-11,.68A70.72,70.72,0,0,0,2393,455a95,95,0,0,0-10.39,4,82.67,82.67,0,0,0-9.77,5.3h0a1.33,1.33,0,0,1-.72.2c-6.06-.23-12.14-.43-18.22-.2s-12.14.59-18.2,1.2-12.09,1.48-18.09,2.55S2305.66,470.48,2299.79,472.15Z"/><path class="cls-3" d="M2615.89,472.15a22.9,22.9,0,0,1,5.36.09,33.08,33.08,0,0,1,5.28,1.12,38.7,38.7,0,0,1,5,1.95,43.19,43.19,0,0,1,4.74,2.66l-.5-.14c4.14-.22,8.23-.19,12.35-.07s8.22.43,12.32.87a116,116,0,0,1,12.24,2,72.51,72.51,0,0,1,11.93,3.71l-.64-.11a82.47,82.47,0,0,1,15.28.9,119.05,119.05,0,0,1,14.88,3.09c1.21.34,2.42.72,3.63,1.07l1.82.56,1.78.63,3.58,1.25,3.51,1.41c1.17.47,2.34,1,3.48,1.49l3.43,1.58c2.27,1.09,4.47,2.32,6.69,3.48-2.34-.93-4.64-1.92-7-2.82s-4.67-1.81-7.07-2.53c-4.71-1.66-9.55-2.91-14.38-4.11a144.24,144.24,0,0,0-14.69-2.58,91.61,91.61,0,0,0-14.75-.68h0a1.64,1.64,0,0,1-.63-.1,81.64,81.64,0,0,0-11.47-3.59c-3.93-.9-7.93-1.54-11.94-2.12s-8.07-.9-12.12-1.21-8.14-.45-12.18-.49h0a.75.75,0,0,1-.47-.15c-.72-.49-1.42-1-2.16-1.48s-1.47-.93-2.25-1.34a37.37,37.37,0,0,0-4.75-2.23,35.47,35.47,0,0,0-5.06-1.51A25.2,25.2,0,0,0,2615.89,472.15Z"/><ellipse class="cls-42" cx="2343.42" cy="486.31" rx="12.53" ry="5.34"/><ellipse class="cls-42" cx="2268.59" cy="487.47" rx="8.72" ry="3.71"/><ellipse class="cls-42" cx="2574.01" cy="493.04" rx="8.72" ry="3.71"/><ellipse class="cls-42" cx="2526.54" cy="465.19" rx="9.05" ry="3.71"/><ellipse class="cls-42" cx="2612.41" cy="836.99" rx="9.05" ry="3.71"/><ellipse class="cls-42" cx="2801.79" cy="791.04" rx="9.05" ry="3.71"/><ellipse class="cls-42" cx="2771.62" cy="797.54" rx="9.05" ry="3.71"/><ellipse class="cls-42" cx="2097.64" cy="814.71" rx="9.05" ry="3.71"/><ellipse class="cls-42" cx="2061.9" cy="824.46" rx="9.05" ry="3.71"/><ellipse class="cls-42" cx="2001.09" cy="814.25" rx="9.05" ry="3.71"/><ellipse class="cls-42" cx="2632.6" cy="491.41" rx="12.07" ry="4.87"/><polygon class="cls-42" points="2556.22 487.21 2557.28 453.33 2587.7 480.6 2556.22 487.21"/><polygon class="cls-42" points="2557.28 453.33 2567.3 448.95 2590.63 469.87 2587.7 480.6 2557.28 453.33"/><polyline class="cls-42" points="2567.3 448.95 2565.97 461.12 2579.37 459.77 2579.2 472.98 2590.63 469.87"/><polyline class="cls-42" points="2565.97 461.12 2556.22 487.21 2579.17 472.95"/><polygon class="cls-65" points="2078.13 816.9 2037.5 796.29 2088.02 774.83 2078.13 816.9"/><polygon class="cls-65" points="2037.5 796.29 2037.89 781.61 2076.65 765.14 2088.02 774.83 2037.5 796.29"/><polyline class="cls-65" points="2037.89 781.61 2051.93 790.16 2057.94 773.09 2073.91 780.82 2076.65 765.14"/><polyline class="cls-65" points="2051.93 790.16 2078.13 816.9 2073.85 780.85"/><path class="cls-3" d="M2147.77,573.57c14-.11,27.89.34,41.82.93,7,.33,13.92.68,20.88,1.13s13.91,1,20.85,1.66q-10.47.08-20.92-.21c-7-.16-13.93-.43-20.89-.72C2175.58,575.71,2161.66,574.92,2147.77,573.57Z"/><path class="cls-3" d="M2195.12,584.71c3.55-.11,7.08,0,10.61.1s7.06.35,10.58.6,7,.6,10.54,1,7,.88,10.51,1.53c-3.55.12-7.09,0-10.62-.09s-7-.35-10.57-.61-7-.6-10.55-1S2198.61,585.37,2195.12,584.71Z"/><path class="cls-3" d="M2246.59,790c3.54-.29,7.07-.4,10.6-.44s7.07,0,10.6.08,7.05.24,10.58.48,7.05.53,10.57,1c-3.54.29-7.08.4-10.61.44s-7.06,0-10.59-.08-7.06-.24-10.59-.49S2250.1,790.49,2246.59,790Z"/><polygon class="cls-3" points="2185.83 635.31 2226.23 636.37 2266.63 637.62 2347.4 640.42 2428.16 643.65 2468.53 645.41 2508.9 647.38 2468.5 646.32 2428.11 645.07 2347.33 642.27 2266.57 639.04 2226.2 637.27 2185.83 635.31"/><path class="cls-3" d="M2225.06,644.36c4.26,0,8.52.09,12.78.13l12.78.32c8.52.22,17,.58,25.54.94s17,.82,25.52,1.38l12.75.84c4.25.34,8.5.63,12.74,1-4.26,0-8.52-.08-12.78-.12l-12.78-.33c-8.52-.21-17-.58-25.54-.94s-17-.82-25.52-1.38l-12.75-.84C2233.55,645.05,2229.3,644.76,2225.06,644.36Z"/><path class="cls-3" d="M2358.74,691.71c8.28.13,16.57.39,24.85.59l24.85.78c16.56.55,33.11,1.26,49.67,1.88s33.11,1.45,49.66,2.3l24.82,1.3c8.27.5,16.55.94,24.81,1.5-8.28-.14-16.56-.4-24.85-.59l-24.84-.78c-16.56-.55-33.12-1.26-49.68-1.88s-33.11-1.46-49.65-2.31l-24.83-1.3C2375.28,692.7,2367,692.26,2358.74,691.71Z"/><path class="cls-3" d="M2396.34,786.4c-6.9-.12-13.79-.36-20.68-.54l-20.67-.73c-13.78-.5-27.55-1.17-41.32-1.75s-27.54-1.38-41.3-2.19L2251.72,780c-6.87-.49-13.75-.91-20.63-1.44,6.9.11,13.79.35,20.68.53l20.67.73c13.77.51,27.54,1.17,41.32,1.75,13.76.74,27.54,1.38,41.3,2.19L2375.7,785C2382.58,785.44,2389.46,785.86,2396.34,786.4Z"/><path class="cls-3" d="M2638.4,589.35c5.16-1,10.33-1.84,15.49-2.76L2669.4,584c10.34-1.72,20.7-3.29,31.07-4.86s20.74-3,31.13-4.43l15.59-2.06c5.2-.62,10.4-1.31,15.61-1.87-5.15,1-10.32,1.84-15.48,2.77l-15.51,2.58c-10.34,1.71-20.71,3.28-31.07,4.85s-20.74,3-31.13,4.43L2654,587.48C2648.81,588.1,2643.62,588.79,2638.4,589.35Z"/><path class="cls-3" d="M2754.45,580.07c-10.89,2.27-21.85,4-32.83,5.56-5.49.76-11,1.49-16.51,2.12s-11,1.19-16.58,1.6q8.17-1.7,16.38-3c5.47-.92,11-1.74,16.45-2.53C2732.35,582.28,2743.36,580.9,2754.45,580.07Z"/><path class="cls-3" d="M2688.07,642.73c10.38-2.72,20.87-4.9,31.39-6.94,5.26-1,10.53-2,15.82-2.82s10.59-1.65,15.92-2.3q-7.8,2-15.65,3.73c-5.23,1.15-10.48,2.19-15.74,3.21C2709.28,639.59,2698.73,641.44,2688.07,642.73Z"/><path class="cls-3" d="M2724.28,642.73c3.54-.84,7.12-1.5,10.7-2.1s7.17-1.12,10.76-1.6,7.2-.87,10.82-1.19,7.24-.59,10.88-.68c-3.54.85-7.12,1.52-10.7,2.12s-7.17,1.11-10.76,1.59-7.2.87-10.82,1.19S2727.92,642.65,2724.28,642.73Z"/><path class="cls-3" d="M2634.69,738.35c4.46-.76,8.94-1.41,13.4-2.13l13.43-1.94c9-1.29,17.93-2.43,26.9-3.58s17.95-2.19,26.95-3.15l13.49-1.42c4.51-.41,9-.88,13.52-1.24-4.46.77-8.94,1.42-13.41,2.14L2715.54,729c-8.95,1.29-17.92,2.43-26.89,3.57s-18,2.2-27,3.15l-13.49,1.43C2643.7,737.53,2639.2,738,2634.69,738.35Z"/><path class="cls-3" d="M2670.9,741.6c11.22-1.81,22.5-3.06,33.79-4.17,5.65-.52,11.3-1,17-1.42s11.33-.72,17-.9q-8.43,1.35-16.88,2.34c-5.63.69-11.28,1.27-16.92,1.83C2693.57,740.33,2682.26,741.25,2670.9,741.6Z"/><line class="cls-42" x1="2440.43" y1="617.9" x2="2565.76" y2="623.01"/><line class="cls-42" x1="2111.33" y1="603.51" x2="2260.33" y2="610.01"/><line class="cls-42" x1="2119.47" y1="660.37" x2="2567" y2="678.83"/><line class="cls-42" x1="2127.07" y1="714.04" x2="2568.53" y2="730.54"/><line class="cls-42" x1="2133.15" y1="758.08" x2="2568.53" y2="774.17"/><line class="cls-42" x1="2620.74" y1="617.9" x2="2775.24" y2="589.35"/><line class="cls-42" x1="2620.18" y1="676.62" x2="2771.48" y2="649"/><line class="cls-42" x1="2620.18" y1="730.54" x2="2767.44" y2="699.83"/><line class="cls-42" x1="2620.18" y1="774.17" x2="2765.24" y2="746.21"/><polygon class="cls-39" points="2113.89 317.58 2674.61 326.4 2671.82 322.22 2108.78 313.87 2113.89 317.58"/><polygon class="cls-39" points="2108.55 313.87 2230.13 475.4 2233.64 472.62 2113.61 313.87 2108.55 313.87"/><line class="cls-39" x1="2085.34" y1="501.86" x2="2169.99" y2="489.17"/><path class="cls-39" d="M2108.55,313.87s42.7-66.84,109.08-74.27l563.51,12.53"/><path class="cls-66" d="M2672.06,322.22s94.13-137.4,174.69-26.21-44.28,199.29-44.28,199.29Z"/><path class="cls-66" d="M2672.06,322.22s94.13-137.4,174.69-26.21-44.28,199.29-44.28,199.29Z"/><path class="cls-66" d="M2677.82,322.16a232.82,232.82,0,0,1,28.44-31.47c16.7-15.27,42.4-33.47,70.07-33.47,24.28,0,46.71,14,66.66,41.51,21.54,29.72,29.86,60.45,24.73,91.33-5.19,31.22-23.37,57.14-37.71,73.38a210.21,210.21,0,0,1-26.64,25.35Z"/><line class="cls-66" x1="2667.21" y1="326.4" x2="2790.42" y2="491.18"/><path class="cls-3" d="M2315.15,188.64a.7.7,0,0,0,0-1.39.7.7,0,0,0,0,1.39Z"/><g class="cls-67"><path class="cls-3" d="M2317.24,331.25a104.52,104.52,0,0,1,10,31.4,101.93,101.93,0,0,1,1.1,16.57,105.53,105.53,0,0,1-1.61,16.54,113.68,113.68,0,0,1-4.13,16.09,126.63,126.63,0,0,1-6.37,15.31,141.8,141.8,0,0,1-17.95,27.62,202.08,202.08,0,0,0,16-28.56,131.68,131.68,0,0,0,9.71-31,112.35,112.35,0,0,0,1.11-32.34A131.69,131.69,0,0,0,2317.24,331.25Z"/></g><line class="cls-39" x1="1954.21" y1="214.3" x2="1975.79" y2="234.03"/><line class="cls-39" x1="2185.6" y1="120.77" x2="2193.96" y2="146.3"/><line class="cls-39" x1="2426.97" y1="99.88" x2="2432.08" y2="129.59"/><line class="cls-39" x1="2695.73" y1="117.99" x2="2685.05" y2="146.3"/><line class="cls-39" x1="2899.5" y1="196.43" x2="2880.93" y2="214.07"/><line class="cls-39" x1="3031.33" y1="306.9" x2="3006.73" y2="319.9"/><g class="cls-67"><path class="cls-3" d="M2237.36,457.53c1.44-2,3.08-3.91,4.67-5.82l4.85-5.67q4.9-5.61,9.9-11.15c6.64-7.39,13.42-14.65,20.23-21.89l10.3-10.77c3.47-3.55,6.91-7.14,10.42-10.65,7-7.07,14.05-14.06,21.32-20.85-6.42,7.6-13,15-19.72,22.37-3.32,3.69-6.72,7.31-10.08,11l-10.19,10.87c-6.85,7.2-13.71,14.38-20.68,21.46-3.47,3.55-7,7.07-10.49,10.59l-5.29,5.25-2.65,2.62C2239.08,455.74,2238.16,456.59,2237.36,457.53Z"/></g><g class="cls-67"><path class="cls-3" d="M2212.76,426.89c1.44-2,3.08-3.91,4.67-5.82l4.85-5.66c3.27-3.74,6.56-7.47,9.9-11.15,6.64-7.39,13.42-14.66,20.23-21.89l10.3-10.77c3.47-3.56,6.9-7.14,10.42-10.66,7-7.06,14-14.05,21.32-20.85-6.42,7.61-13,15-19.72,22.37-3.32,3.7-6.72,7.32-10.08,11l-10.19,10.87c-6.85,7.19-13.71,14.37-20.68,21.45-3.47,3.55-7,7.07-10.49,10.59L2218,421.6l-2.65,2.62C2214.48,425.1,2213.56,426,2212.76,426.89Z"/></g><g class="cls-67"><path class="cls-3" d="M2257,319.88a3.8,3.8,0,0,1-.46.74l-.28.33-.54.61-1.07,1.17-2.14,2.3-4.32,4.55-8.67,9-17.41,18-34.91,35.91,33.89-36.88L2238,337.17l8.41-9.27,7.94-8.91.51-.57a1.32,1.32,0,0,1,2.17,1.46Z"/></g><g class="cls-67"><path class="cls-3" d="M2198.08,319.42a3.11,3.11,0,0,1-.22.4l-.13.19-.06.1,0,0-.27.3c-.18.22-.35.4-.53.59l-1,1.11-2.1,2.16-4.22,4.27-8.47,8.5L2164,354,2180,336.11l8-9,3.94-4.5,2-2.26.95-1.13.45-.55.2-.27,0,0v0l0,0a.22.22,0,0,0,0,.09,1.41,1.41,0,1,1,2.68.89Z"/></g><line class="cls-39" x1="2700.6" y1="352.4" x2="2795.89" y2="261.4"/><path class="cls-39" d="M2730.85,392.54c2.94-1.62,104.53-103.52,104.53-103.52"/><line class="cls-39" x1="2759.18" y1="430.15" x2="2859.1" y2="326.4"/><line class="cls-39" x1="2783.23" y1="462.06" x2="2869.18" y2="373"/><g class="cls-67"><path class="cls-3" d="M2318.35,444.76c5.5-.57,11-.87,16.48-1.08s11-.28,16.48-.31l8.24.08c2.75.07,5.49.1,8.24.23,5.49.2,11,.5,16.48,1.08-5.49.58-11,.89-16.48,1.09-2.75.13-5.49.16-8.24.23l-8.24.08c-5.49,0-11-.09-16.48-.31S2323.85,445.34,2318.35,444.76Z"/></g><g class="cls-67"><path class="cls-3" d="M2777,472.15l-92.37-1.39,92.37-1.39a1.39,1.39,0,0,1,0,2.78Z"/></g><g class="cls-67"><path class="cls-3" d="M2577.83,444.76q21.54-.39,43.07-.27c14.36.05,28.71.26,43.06.51l21.52.48c7.18.21,14.35.37,21.53.63q21.51.69,43,1.9-21.54.4-43.08.28c-7.17,0-14.35-.12-21.53-.18l-21.52-.33c-14.35-.3-28.7-.63-43-1.12S2592.17,445.57,2577.83,444.76Z"/></g><g class="cls-67"><path class="cls-3" d="M2327.17,416.68c17.16-.09,34.32,0,51.48,0l51.47.28c17.16.06,34.31.31,51.47.47l51.46.54,51.47.79c17.15.29,34.31.47,51.46.86l51.46,1.06c17.15.45,34.31.81,51.46,1.35-17.16.09-34.32,0-51.48,0l-51.47-.28c-17.15-.06-34.31-.32-51.47-.47l-51.46-.55-51.47-.79c-17.15-.29-34.31-.48-51.46-.87L2378.63,418C2361.48,417.58,2344.33,417.22,2327.17,416.68Z"/></g><g class="cls-67"><path class="cls-3" d="M2335.3,382.33c15.87-.05,31.74.08,47.62.11l47.61.39c15.87.1,31.74.39,47.61.59l47.61.66,47.6.9c15.87.33,31.74.55,47.61,1l47.6,1.17c15.86.5,31.73.89,47.59,1.47-15.87,0-31.74-.07-47.62-.1l-47.61-.4c-15.87-.09-31.74-.39-47.61-.58l-47.61-.66-47.6-.91c-15.87-.33-31.74-.56-47.61-1l-47.6-1.18C2367,383.3,2351.16,382.91,2335.3,382.33Z"/></g><g class="cls-67"><path class="cls-3" d="M2338.78,348.22c14.73,0,29.47.24,44.2.35l44.19.65c14.73.17,29.46.55,44.19.83l44.19.91,44.18,1.15c14.72.41,29.45.72,44.18,1.23l44.17,1.42c14.72.58,29.45,1.06,44.17,1.72-14.74,0-29.47-.24-44.2-.35l-44.19-.65c-14.74-.17-29.46-.55-44.19-.83l-44.19-.91-44.18-1.16c-14.73-.41-29.45-.72-44.18-1.23L2383,349.93C2368.22,349.35,2353.5,348.87,2338.78,348.22Z"/></g><path class="cls-46" d="M2377.77,328.72l1.86,5.11,59.87.93s14.39-57.86,53.15-89v-5.19l-49,3.25Z"/><path class="cls-46" d="M2435.1,239.37S2398,258.86,2378,328.49l57.1.93s18.1-63.13,57.55-89.12Z"/><line class="cls-46" x1="2129.94" y1="287.64" x2="2391.69" y2="292.52"/><line class="cls-46" x1="2454.8" y1="295.16" x2="2692.48" y2="298.09"/><line class="cls-46" x1="2167.56" y1="257.22" x2="2409.8" y2="261.42"/><line class="cls-46" x1="2474.95" y1="263.51" x2="2730.77" y2="266.47"/><path class="cls-3" d="M2206.49,269.77c8.55-.58,17.1-.88,25.64-1.08s17.1-.28,25.65-.31l12.82.07c4.28.08,8.55.1,12.83.23,8.54.21,17.09.51,25.64,1.09-8.55.58-17.1.88-25.64,1.09-4.28.13-8.55.15-12.83.23l-12.82.07c-8.55,0-17.1-.08-25.65-.31S2215,270.35,2206.49,269.77Z"/><path class="cls-3" d="M2259.64,276.5a66.06,66.06,0,0,1,8.47-1.08c2.82-.22,5.65-.31,8.47-.31s5.65.08,8.47.3a66.31,66.31,0,0,1,8.47,1.09,66.31,66.31,0,0,1-8.47,1.09c-2.82.22-5.65.3-8.47.3s-5.65-.08-8.47-.31A64.33,64.33,0,0,1,2259.64,276.5Z"/><line class="cls-2" x1="2486.62" y1="276.5" x2="2615.89" y2="278.59"/><path class="cls-3" d="M2486.62,276.5c10.78-.4,21.56-.53,32.33-.56s21.55.07,32.33.21l16.16.34c5.38.16,10.77.27,16.15.49,10.77.38,21.54.86,32.3,1.61-10.78.41-21.56.53-32.33.56-5.39.05-10.78,0-16.17,0l-16.16-.19c-10.77-.2-21.54-.44-32.31-.83S2497.38,277.25,2486.62,276.5Z"/><line class="cls-2" x1="2468.52" y1="284.39" x2="2562.05" y2="285.55"/><path class="cls-3" d="M2468.52,284.39c7.8-.48,15.59-.68,23.39-.79s15.59-.09,23.39,0l11.69.22c3.9.13,7.79.2,11.69.38,7.79.3,15.58.7,23.37,1.37-7.8.49-15.6.69-23.4.8-3.9.08-7.8.06-11.69.09l-11.7-.08c-7.79-.12-15.58-.28-23.38-.6S2476.3,285.06,2468.52,284.39Z"/><path class="cls-5" d="M2378.16,328.29l57.17.9s25.06-73.34,57.55-88.66l-.46,5.1s-38.41,31.57-52.86,88.89l-59.93-.69Z"/><polyline class="cls-10" points="2409 989.5 2432 966.5 2455 989.5"/><polyline class="cls-10" points="2455 3275.5 2432 3298.5 2409 3275.5"/><polyline class="cls-10" points="958.5 2171 935.5 2148 958.5 2125"/><polyline class="cls-10" points="3794.5 2125 3817.5 2148 3794.5 2171"/></g></svg>