<?xml version="1.0" encoding="UTF-8"?>
<svg id="Layer_2" data-name="Layer 2" xmlns="http://www.w3.org/2000/svg" viewBox="0 0 121.1 186">
  <defs>
    <style>
      .cls-1 {
        fill: #3f51b5;
        stroke-width: 0px;
      }
    </style>
  </defs>
  <g id="Layer_1-2" data-name="Layer 1">
    <path class="cls-1" d="M55.01,143.04c-1.57,0-2.88-.48-3.93-1.44-1.05-.96-1.57-2.31-1.57-4.06v-10.48c.35-7.51,2.01-14.15,4.98-19.91,2.97-5.76,6.59-11,10.87-15.72,4.28-4.72,8.6-9.21,12.97-13.49,4.36-4.28,8.08-8.6,11.13-12.97,3.05-4.36,4.93-8.99,5.63-13.88.69-6.29-.52-11.57-3.67-15.85-3.14-4.28-7.42-7.55-12.84-9.82-5.42-2.27-11-3.41-16.77-3.41-9.26,0-17.16,2.4-23.71,7.2-6.55,4.81-10.87,12.88-12.97,24.23-.52,2.1-1.4,3.58-2.62,4.45-1.22.88-2.62,1.31-4.19,1.31H5.76c-1.57,0-2.93-.52-4.06-1.57-1.14-1.05-1.7-2.44-1.7-4.19.17-7.16,1.74-13.97,4.71-20.43,2.97-6.46,7.2-12.14,12.71-17.03,5.5-4.89,12.05-8.78,19.65-11.66C44.66,1.44,53.18,0,62.61,0c10.65,0,19.78,1.44,27.38,4.32,7.6,2.88,13.71,6.73,18.34,11.53,4.63,4.8,7.99,10.09,10.09,15.85,2.1,5.76,2.97,11.53,2.62,17.29-.52,6.99-2.27,13.23-5.24,18.73-2.97,5.5-6.55,10.57-10.74,15.2-4.19,4.63-8.43,9.17-12.71,13.62-4.28,4.45-7.9,9.08-10.87,13.88-2.97,4.8-4.72,10-5.24,15.59-.18,1.93-.31,3.8-.39,5.63-.09,1.84-.13,3.63-.13,5.37-.35,1.92-1.05,3.4-2.1,4.45-1.05,1.05-2.53,1.57-4.45,1.57h-14.15ZM52.92,186c-1.75,0-3.19-.56-4.32-1.7-1.14-1.13-1.7-2.57-1.7-4.32v-15.98c0-1.75.56-3.19,1.7-4.32,1.13-1.13,2.58-1.7,4.32-1.7h17.03c1.92,0,3.45.57,4.58,1.7,1.13,1.14,1.7,2.58,1.7,4.32v15.98c0,1.75-.57,3.19-1.7,4.32-1.14,1.14-2.66,1.7-4.58,1.7h-17.03Z"/>
  </g>
</svg>