<?xml version="1.0" encoding="UTF-8"?>
<svg id="Layer_2" data-name="Layer 2" xmlns="http://www.w3.org/2000/svg" viewBox="0 0 450 657.5">
  <defs>
    <style>
      .cls-1 {
        fill: #3b65ef;
      }

      .cls-2 {
        fill: none;
      }

      .cls-2, .cls-3, .cls-4, .cls-5, .cls-6, .cls-7, .cls-8, .cls-9, .cls-10 {
        stroke-linecap: round;
      }

      .cls-2, .cls-3, .cls-4, .cls-5, .cls-6, .cls-7, .cls-8, .cls-9, .cls-10, .cls-11 {
        stroke: #3b65ee;
      }

      .cls-2, .cls-3, .cls-8, .cls-11 {
        stroke-width: 3px;
      }

      .cls-2, .cls-8, .cls-11 {
        stroke-miterlimit: 10;
      }

      .cls-3, .cls-4, .cls-12, .cls-8, .cls-11 {
        fill: #fff;
      }

      .cls-3, .cls-4, .cls-5, .cls-6, .cls-7, .cls-9, .cls-10 {
        stroke-linejoin: round;
      }

      .cls-4 {
        stroke-width: 2px;
      }

      .cls-13, .cls-14, .cls-5, .cls-6, .cls-7, .cls-9, .cls-10 {
        fill: #3b65ee;
      }

      .cls-14, .cls-7, .cls-9 {
        opacity: .2;
      }

      .cls-5 {
        stroke-width: .25px;
      }

      .cls-6 {
        stroke-width: .76px;
      }

      .cls-7 {
        stroke-width: 1.19px;
      }
    </style>
  </defs>
  <g id="Layer_2-2" data-name="Layer 2">
    <g>
      <path class="cls-3" d="M323.5,489.5s26,24,35,34,9,29-5,38-33-12-37-19-10-17-20-39l27-14Z"/>
      <path class="cls-13" d="M350.35,563.01s-1.35-12.01-7.35-17.01c0,0,5.89,13.97,5.45,17.49l1.91-.48Z"/>
      <path class="cls-13" d="M361.65,552.53s-4.88-11.06-12.09-14.04c0,0,9.79,11.58,10.41,15.07l1.68-1.03Z"/>
      <path class="cls-7" d="M327.5,496.5s36.79,36.75,29.4,62.38c0,0-13.33,17.47-36.86-11.45l-23.17-42.75,26.64-14.18,4,6Z"/>
      <path class="cls-3" d="M229.5,523.5s-6,15-12,23-17,31,1,41c18,10,51-38,57-76,0,0-23-12-46,12Z"/>
      <path class="cls-9" d="M244.5,520.5s-29.45,41.6-26.23,56.8,10.42,15.07,20.82,4.13,38.44-57.74,39.42-73.84-34.02,12.9-34.02,12.9Z"/>
      <path class="cls-13" d="M220.97,588.49s-2.97-8.49,2.03-15.49c0,0-2,11.68,0,15.84l-2.03-.35Z"/>
      <path class="cls-13" d="M210.82,582s-.4-8.98,6.4-14.25c0,0-5.28,10.61-4.56,15.17l-1.84-.92Z"/>
      <path class="cls-14" d="M207.5,262.63s-31,70.25-46,95.56c-15,25.31-24,43.31-9,55.31,15,12,33.17,0,42.58-29.5,9.42-29.5,25.01-117.57,25.01-117.57l-12.59-3.8Z"/>
      <path class="cls-14" d="M258.76,253.95s55.34,53.23,78.82,70.96c23.48,17.72,38.64,30.96,29.32,47.76s-30.69,12.59-50.59-11.13c-19.91-23.72-67.76-99.29-67.76-99.29l10.21-8.29Z"/>
      <path class="cls-3" d="M207.5,362.14c-31-11.36-86-38.64-72-62.64s40.34,2.22,40.34,2.22l31.66,29.78v30.64Z"/>
      <path class="cls-3" d="M291.5,341.5c19-12,87-77,58.43-88.35s-46.43,19.35-52.43,30.35-16.74,34.6-16.74,34.6l10.74,23.4Z"/>
      <path class="cls-14" d="M275,123s41.58-50.41,77.29-47.7-.79,27.7-30.04,34.7-48.05,13-48.05,13"/>
      <path class="cls-11" d="M277,127s-15-17-34-13-78,33-96,44c-18,11-35,19-48,27-13,8-32,15-31,24,1,9,28,11,55,7s96-20,113-28,29-16,38-21,15-27,3-40Z"/>
      <path class="cls-13" d="M99,185s5.5,1.5,7.5,11.5"/>
      <path class="cls-13" d="M107.43,180.08s10.57,5.92,13.57,25.92"/>
      <path class="cls-13" d="M144.38,159.58s15.74,7.5,19.18,33.46c0,0-8.8-24.88-19.18-33.46Z"/>
      <path class="cls-13" d="M181.2,139.84s17.8,13.16,21.8,29.16c0,0-11.21-18.53-23.6-28.27l1.81-.89Z"/>
      <path class="cls-13" d="M187.36,159.58s7.45,4.04,10.05,16.73"/>
      <path class="cls-13" d="M216.96,180.08s3.89,4.42,3.97,10.67"/>
      <path class="cls-13" d="M228.57,118.63s23.43,14.37,28.43,45.37c0,0-5-23.54-30-44.77l1.57-.6Z"/>
      <path class="cls-13" d="M260,121s8,4,12,16"/>
      <path class="cls-3" d="M203,423s-26,15-23,52,17,48,25,52,37,10,56-18l-58-86Z"/>
      <path class="cls-13" d="M274,150s2.88,3.16,2.44,9.58"/>
      <path class="cls-4" d="M275.24,123.87s74.76-44.87,133.76-22.87-42.39,26-52.2,20c0,0-13.37,22.75-66.09,2.87,0,0-4.23-1.13-15.47,0Z"/>
      <path class="cls-13" d="M289,120s27.86-17.05,60.93-6.53c0,0-34.93-3.47-60.93,6.53Z"/>
      <path class="cls-13" d="M335.92,110.5s23.08-9.5,41.08-3.5c0,0-15-4.03-37.5,3.98l-3.58-.49Z"/>
      <path class="cls-4" d="M275.24,123.08s24.26-33.58,31.26-60.58,1-47-7-47-28,14-21,48c0,0-4-10.09-12.5-5.55s1.5,34.13,6,37.84c0,0-15.77.13.37,26.92l2.88.38Z"/>
      <path class="cls-13" d="M273.2,118.63s11.8-11.63,11.8-33.63c0,0-3.6,20.25-11.8,33.63Z"/>
      <path class="cls-13" d="M280,91s16-15,14-44c0,0-3,32-14,44Z"/>
      <path class="cls-14" d="M114.22,217.09s-40.22,1.91-24.22-8.09,134.86-40.86,152-53c24-17,38.17-25.69,41.58-7.85,0,0,10.45,15.17-49.07,40.51s-120.3,28.43-120.3,28.43Z"/>
      <line class="cls-2" x1="163.56" y1="81.2" x2="157" y2="60"/>
      <line class="cls-2" x1="49.06" y1="123.08" x2="60.73" y2="132.02"/>
      <line class="cls-2" x1="1.5" y1="232.5" x2="15.5" y2="226.5"/>
      <line class="cls-2" x1="99" y1="284.5" x2="102.75" y2="266.43"/>
      <line class="cls-2" x1="380.5" y1="213.5" x2="367.08" y2="206"/>
      <line class="cls-2" x1="448.5" y1="64.5" x2="434.94" y2="70.6"/>
      <line class="cls-2" x1="353.5" y1="1.5" x2="343.46" y2="15.5"/>
      <path class="cls-9" d="M204.58,435.69s-22.08,33.81-3.08,77.81,65.5-9.76,65.5-9.76l-62.42-68.05Z"/>
      <path class="cls-3" d="M320.5,395.5s46,20,48,65-52,43-58,39,10-104,10-104Z"/>
      <path class="cls-9" d="M322.54,401.61s32.69,23.71,30.63,71.59-64.67,14.24-64.67,14.24l34.04-85.83Z"/>
      <path class="cls-8" d="M227,242.99s-20.5.51-23.5,22.51-1,89-4,118,1,91,18,113c17,22,52,27,77,19s53-32,43-83-23-67-35-89-33-71-38-82-15-24.02-37.5-18.51Z"/>
      <path class="cls-5" d="M222.5,416.5s17-33,49-30c0,0-32,5-49,30Z"/>
      <path class="cls-5" d="M267,379s9.04.61,11.52,7.31"/>
      <path class="cls-5" d="M278.52,375.7s4.48,2.3,4.48,8.3"/>
      <path class="cls-6" d="M216,244.12s6.83,9.86,12.9,8.34,9.1-12.9,9.1-12.9c0,0-15.17-.76-22,4.55Z"/>
      <path class="cls-10" d="M229.5,251.5s3,11-7,15c0,0,6-7,7-15Z"/>
      <path class="cls-10" d="M229.34,252.54s3.54,10.84,14.09,8.69c0,0-8.86-2.55-14.09-8.69Z"/>
      <path class="cls-13" d="M235.5,305.5s.86-7.84,7.93-7.92"/>
      <path class="cls-13" d="M240.64,305.5s.52-3.42,4.94-3.96"/>
      <polygon class="cls-10" points="143.7 291.14 154 300 141.85 292.27 143.7 291.14"/>
      <polygon class="cls-10" points="338.63 251.07 331.5 262.63 340.74 251.59 338.63 251.07"/>
      <polygon class="cls-10" points="350.63 254.07 343.5 265.63 352.74 254.59 350.63 254.07"/>
      <polygon class="cls-10" points="134.68 302.42 146.95 308.24 133.2 303.99 134.68 302.42"/>
      <path class="cls-9" d="M170.38,323.55s4.52-8.58-1.18-15.32-9.7-5.74-11.7-1.74,1,7-2,11,1,9,6,10,8.88-3.95,8.88-3.95Z"/>
      <path class="cls-9" d="M326.15,288.18s-8.65-4.37-7.91-13.17,4.59-10.3,8.53-8.19,3.24,6.29,8,7.81,4.4,7.92.9,11.63-9.53,1.92-9.53,1.92Z"/>
      <ellipse class="cls-14" cx="273.5" cy="650.5" rx="112" ry="7"/>
      <path class="cls-13" d="M278.52,559.6c6.07,11.02,10.31,23.01,12.48,35.4-6.08-11.01-10.3-23.01-12.48-35.4h0Z"/>
      <path class="cls-13" d="M296.5,546.5c3.8,8.65,6.78,17.99,9.52,27.04,2.6,9.09,5.15,18.54,6.64,27.88-3.8-8.65-6.79-17.99-9.52-27.03-2.6-9.09-5.14-18.54-6.64-27.88h0Z"/>
      <path class="cls-13" d="M197.47,320.38l14.46,11.75c.17.14,0,.4-.19.31-2.95-1.33-10.25-4.76-13.11-7.25-.03-.02-.04-.05-.06-.09l-1.39-4.53c-.05-.17.15-.31.29-.2Z"/>
      <path class="cls-13" d="M193.74,355.46l17.79,5.52c.21.06.16.37-.06.36-3.23-.14-11.28-.6-14.87-1.84-.03-.01-.06-.03-.08-.06l-2.98-3.68c-.11-.14.02-.34.2-.29Z"/>
      <path class="cls-12" d="M197.17,324.1s5.33,4.28,10.33,6.34l-1.57,28.8s-13.93-4.24-17.43-6.74l8.67-28.4Z"/>
      <path class="cls-13" d="M285.99,303.78l-5.18,10.44c-.17.33.24.65.53.42,1.61-1.31,4.6-4.17,6.83-8.92.06-.13.04-.29-.06-.39l-1.56-1.63c-.17-.17-.45-.13-.56.09Z"/>
      <path class="cls-13" d="M299.11,333.91l-9.09,7.29c-.29.23-.06.69.3.6,2.01-.5,5.92-1.84,9.95-5.21.11-.09.16-.25.11-.38l-.73-2.14c-.08-.23-.36-.31-.54-.16Z"/>
      <path class="cls-12" d="M280.5,315.5s6.5-6.5,8.5-11.5l15.5,25.5s-13,11-17,13l-7-27Z"/>
      <path class="cls-7" d="M211.69,342.7s2.18-22.83,0-43.89c-2.18-21.06,2.9-43.69,16.14-47.32,13.24-3.62,26.29,4.17,30.65,22.36s5.44,38.86,10.88,49.31,21.64,22.51,24.42,38.56c2.78,16.05-19.86,8.26-44.44,21.9-24.58,13.64-22.41,32.27-33.29,26.2s-5.44-54.13-4.35-67.12Z"/>
      <path class="cls-9" d="M248.55,508.5s-25.36-7.54-19.21-31.77,22.16-24.3,44.16-28.27,38.77-26.58,47.39-12.77,6.61,58.66-16.39,68.24-47.91,8.58-55.95,4.58Z"/>
      <path class="cls-1" d="M215.82,247.9s-15.38-7.6-29.82-1.58l29.82,1.58Z"/>
      <path class="cls-1" d="M211.74,249.47s-16.93-2.79-28.99,7.17l28.99-7.17Z"/>
      <path class="cls-1" d="M209.79,251.19s-16.77,3.64-24.31,17.34l24.31-17.34Z"/>
      <path class="cls-1" d="M245.75,241.9s15.38-7.6,29.82-1.58l-29.82,1.58Z"/>
      <path class="cls-1" d="M249.83,243.47s16.93-2.79,28.99,7.17l-28.99-7.17Z"/>
      <path class="cls-1" d="M251.79,245.19s16.77,3.64,24.31,17.34l-24.31-17.34Z"/>
    </g>
  </g>
</svg>