<svg width="123" height="202" viewBox="0 0 123 202" fill="none" xmlns="http://www.w3.org/2000/svg">
<path d="M18.1406 183.35L21.0006 200.61H30.1206L31.0406 192.26L32.7306 200.61H42.1606L43.9307 181.83L18.1406 183.35Z" fill="white" stroke="#3B65EE" stroke-width="2" stroke-linecap="round" stroke-linejoin="round"/>
<path d="M82.0712 183.35L79.2112 200.61H70.0912L69.1713 192.26L67.4812 200.61H58.0513L56.2812 181.83L82.0712 183.35Z" fill="white" stroke="#3B65EE" stroke-width="2" stroke-linecap="round" stroke-linejoin="round"/>
<path d="M91.3594 146.46C99.8494 149.46 105.069 142.59 106.069 137.46C106.215 136.711 106.175 135.938 105.951 135.208C105.727 134.479 105.328 133.815 104.787 133.277C104.247 132.738 103.582 132.341 102.852 132.12C102.121 131.899 101.348 131.861 100.599 132.01C99.8668 132.161 99.1816 132.487 98.6022 132.96C98.0227 133.433 97.5661 134.039 97.2715 134.727C96.9768 135.414 96.8528 136.163 96.9099 136.909C96.967 137.654 97.2035 138.375 97.5994 139.01C99.4594 141.93 102.439 144.61 106.859 143.42C115.579 141.09 114.609 135.16 114.609 135.16" fill="white"/>
<path d="M91.3594 146.46C99.8494 149.46 105.069 142.59 106.069 137.46C106.215 136.711 106.175 135.938 105.951 135.208C105.727 134.479 105.328 133.815 104.787 133.277C104.247 132.738 103.582 132.341 102.852 132.12C102.121 131.899 101.348 131.861 100.599 132.01C99.8668 132.161 99.1816 132.487 98.6022 132.96C98.0227 133.433 97.5661 134.039 97.2715 134.727C96.9768 135.414 96.8528 136.163 96.9099 136.909C96.967 137.654 97.2035 138.375 97.5994 139.01C99.4594 141.93 102.439 144.61 106.859 143.42C115.579 141.09 114.609 135.16 114.609 135.16" stroke="#3B65EE" stroke-width="2" stroke-linecap="round" stroke-linejoin="round"/>
<path d="M22.661 79.3704C20.551 66.5604 28.901 57.3704 28.901 57.3704L20.6009 52.8404L16.0709 59.4204L19.0709 52.0104L12.4509 48.4004C6.54123 54.6383 2.85714 62.6534 1.97094 71.2004C0.790939 85.0304 11.8509 110.32 11.8509 110.32L34.401 103.86C34.401 103.86 24.761 92.1804 22.661 79.3704Z" fill="white" stroke="#3B65EE" stroke-width="2" stroke-linecap="round" stroke-linejoin="round"/>
<path d="M11.8509 110.33L20.901 130.13L34.401 103.87C34.401 103.87 24.761 92.1805 22.661 79.3705C22.3248 77.342 22.2374 75.2801 22.401 73.2305L1.97094 71.2305C0.790939 85.0005 11.8509 110.33 11.8509 110.33Z" fill="#B0C3EA" stroke="#3B65EE" stroke-width="2" stroke-linecap="round" stroke-linejoin="round"/>
<path d="M30.2693 92.3799C22.8534 104.556 17.5897 117.918 14.7093 131.88C10.0293 154.88 16.3993 186.88 16.3993 186.88H46.7693L49.5893 164.69L55.7493 186.88H83.1393C83.1393 186.88 91.3793 160.07 91.3793 136.14C91.3793 112.21 76.8893 92.9299 76.8893 92.9299L30.2693 92.3799Z" fill="#F13B4D" stroke="#3B65EE" stroke-width="2" stroke-linecap="round" stroke-linejoin="round"/>
<path d="M35.1691 100.67L31.0391 122.95H60.599L62.7991 99.1201L35.1691 100.67Z" fill="#B0C3EA" stroke="#3B65EE" stroke-width="2" stroke-linecap="round" stroke-linejoin="round"/>
<path d="M19.1602 90.6604C20.6454 93.9381 22.8148 96.8601 25.5227 99.23C28.2307 101.6 31.4144 103.363 34.8601 104.4C38.2925 105.425 41.9159 105.64 45.4452 105.027C48.9745 104.415 52.3136 102.992 55.2001 100.87C55.2001 100.87 72.0601 102.26 82.0701 91.1004C92.0801 79.9404 88.2802 59.8404 88.2802 59.8404L70.3901 43.6504L19.1602 90.6604Z" fill="white" stroke="#3B65EE" stroke-width="2" stroke-linecap="round" stroke-linejoin="round"/>
<path d="M77.9312 68.3604C77.9312 68.3604 77.3111 89.1504 64.1211 100.31C69.7211 99.3104 76.8311 96.9404 82.1211 91.1004C82.5211 90.6604 82.8911 90.2004 83.2411 89.7304L85.451 76.1004L77.9312 68.3604Z" fill="#D1DAED"/>
<path d="M55.1992 100.87C55.1992 100.87 72.0592 102.26 82.0692 91.0996" stroke="#3B65EE" stroke-width="2" stroke-linecap="round" stroke-linejoin="round"/>
<path d="M59.0586 97.4199C59.0586 97.4199 55.1486 101.51 51.0586 103.16Z" fill="#D1DAED"/>
<path d="M59.0604 97.4199C58.7659 98.252 58.3294 99.0268 57.7704 99.7099C57.2241 100.366 56.6033 100.957 55.9204 101.47C55.234 101.986 54.4804 102.407 53.6804 102.72C52.8523 103.053 51.9619 103.203 51.0703 103.16C51.6322 102.526 52.2334 101.928 52.8704 101.37C53.4704 100.837 54.0903 100.337 54.7303 99.8699C55.3718 99.3837 56.0395 98.933 56.7303 98.5199C57.468 98.0757 58.2487 97.7072 59.0604 97.4199V97.4199Z" fill="#3B65EE"/>
<path d="M38.6218 29.2802C37.8818 40.2802 57.6819 57.4902 57.6819 57.4902L73.5218 43.4902C82.8618 31.8402 65.2018 1.7002 65.2018 1.7002C65.2018 1.7002 39.3618 18.2702 38.6218 29.2802Z" fill="#D1DAED" stroke="#3B65EE" stroke-width="2" stroke-linecap="round" stroke-linejoin="round"/>
<path d="M82.0688 49.71C77.7772 44.3772 72.016 40.4199 65.4983 38.3279C58.9806 36.2359 51.9925 36.101 45.3989 37.9401C28.3989 42.3801 25.2989 56.0401 21.2889 66.1001C16.6489 75.6201 9.87891 72.1001 9.87891 72.1001L10.3489 88.15L18.3489 91.6701C22.8167 93.6186 27.7678 94.1761 32.5571 93.27C37.3464 92.3639 41.7517 90.0361 45.1989 86.59L45.429 86.3501C46.5249 85.1709 48.0277 84.4519 49.6335 84.3387C51.2394 84.2254 52.8283 84.7263 54.0789 85.74" fill="white"/>
<path d="M82.0688 49.71C77.7772 44.3772 72.016 40.4199 65.4983 38.3279C58.9806 36.2359 51.9925 36.101 45.3989 37.9401C28.3989 42.3801 25.2989 56.0401 21.2889 66.1001C16.6489 75.6201 9.87891 72.1001 9.87891 72.1001L10.3489 88.15L18.3489 91.6701C22.8167 93.6186 27.7678 94.1761 32.5571 93.27C37.3464 92.3639 41.7517 90.0361 45.1989 86.59L45.429 86.3501C46.5249 85.1709 48.0277 84.4519 49.6335 84.3387C51.2394 84.2254 52.8283 84.7263 54.0789 85.74" stroke="#3B65EE" stroke-width="2" stroke-linecap="round" stroke-linejoin="round"/>
<path d="M22.8907 83.8395C22.7907 88.2295 17.9807 90.4295 12.1507 88.8395C6.32069 87.2495 1.49064 82.3795 1.35064 77.9195C1.21064 73.4595 6.02063 70.9195 12.0906 72.6095C18.1606 74.2995 23.0007 79.3395 22.8907 83.8395Z" fill="white" stroke="#3B65EE" stroke-width="2" stroke-linecap="round" stroke-linejoin="round"/>
<path d="M7.85938 77.5098L9.05945 82.2198" stroke="#3B65EE" stroke-width="2" stroke-linecap="round" stroke-linejoin="round"/>
<path d="M13.6797 79.8701L14.8796 84.5701" stroke="#3B65EE" stroke-width="2" stroke-linecap="round" stroke-linejoin="round"/>
<path d="M51.0703 84.4404C51.775 84.2132 52.5281 84.1807 53.2498 84.3461C53.9714 84.5116 54.635 84.8689 55.1704 85.3804C55.7262 85.8668 56.1552 86.4811 56.4204 87.1704C56.7037 87.8617 56.7597 88.6252 56.5803 89.3504C55.9903 88.8604 55.5803 88.4304 55.1003 88.0204L53.8403 86.8704C53.4303 86.5004 53.0204 86.1304 52.5604 85.7604C52.1004 85.3904 51.6103 85.0004 51.0703 84.4404Z" fill="#3B65EE"/>
<path d="M46.6206 70.1401C47.438 70.1401 48.1006 68.1209 48.1006 65.6301C48.1006 63.1393 47.438 61.1201 46.6206 61.1201C45.8032 61.1201 45.1406 63.1393 45.1406 65.6301C45.1406 68.1209 45.8032 70.1401 46.6206 70.1401Z" fill="#3B65EE"/>
<path d="M29.1089 62.8598C29.9263 62.8598 30.5889 60.8407 30.5889 58.3499C30.5889 55.859 29.9263 53.8398 29.1089 53.8398C28.2915 53.8398 27.6289 55.859 27.6289 58.3499C27.6289 60.8407 28.2915 62.8598 29.1089 62.8598Z" fill="#3B65EE"/>
<path d="M48.1016 51.4902C48.179 53.6233 48.8981 55.6834 50.1648 57.4015C51.4315 59.1195 53.1867 60.4155 55.2015 61.1202" fill="white"/>
<path d="M48.098 51.4902C48.8508 53.3737 49.81 55.168 50.958 56.8402C51.5186 57.6242 52.1514 58.3541 52.848 59.0202C53.538 59.7402 54.3579 60.3402 55.1979 61.1202C54.0539 61.1362 52.926 60.8499 51.928 60.2903C50.8977 59.7396 50.0106 58.9554 49.338 58.0002C48.6564 57.0657 48.1855 55.9944 47.958 54.8602C47.7138 53.7436 47.762 52.5828 48.098 51.4902V51.4902Z" fill="#3B65EE"/>
<path d="M70.9102 52.76C71.8102 44.76 74.2301 32.08 80.6401 28.41C90.1901 22.94 121.36 34.75 121.36 34.75C121.36 34.75 108.57 65.68 92.6401 64.53" fill="white"/>
<path d="M70.9102 52.76C71.8102 44.76 74.2301 32.08 80.6401 28.41C90.1901 22.94 121.36 34.75 121.36 34.75C121.36 34.75 108.57 65.68 92.6401 64.53" stroke="#3B65EE" stroke-width="2" stroke-linecap="round" stroke-linejoin="round"/>
<path d="M80.8711 55.0504C83.5511 44.0504 80.5111 30.4205 104.381 38.8505Z" fill="#D1DAED"/>
<path d="M80.8711 55.0502C81.1911 51.9502 81.261 48.8902 81.691 45.7702C81.8879 44.167 82.2739 42.5927 82.8411 41.0802C83.4561 39.4589 84.5127 38.0422 85.8911 36.9902C87.3229 36.0328 88.9822 35.4705 90.701 35.3602C92.3228 35.2592 93.9508 35.3769 95.5411 35.7102C98.6184 36.3446 101.593 37.4013 104.381 38.8502C101.387 38.1615 98.36 37.6275 95.3112 37.2502C92.3112 36.9802 89.2411 37.0402 87.0511 38.6102C84.8611 40.1802 83.9311 43.1402 83.2211 46.0602C82.6436 49.107 81.8585 52.1106 80.8711 55.0502Z" fill="#3B65EE"/>
<path d="M34.8611 47.3301C34.8611 47.3301 34.8611 50.3301 27.6211 51.2601Z" fill="white"/>
<path d="M34.8594 47.3301C35.0091 47.7436 35.0091 48.1965 34.8594 48.6101C34.7163 49.0224 34.4994 49.4053 34.2194 49.7401C33.6685 50.3585 32.9848 50.844 32.2194 51.1601C31.4918 51.4474 30.721 51.6097 29.9393 51.6401C29.1448 51.6748 28.3517 51.5454 27.6094 51.2601C28.2339 50.8077 28.9042 50.4222 29.6094 50.1101C30.2594 49.8101 30.8794 49.5501 31.4894 49.3101C32.0994 49.0701 32.6894 48.8201 33.2494 48.5401C33.8749 48.2709 34.4269 47.856 34.8594 47.3301V47.3301Z" fill="#3B65EE"/>
<path d="M79.6306 85.6304C81.7406 72.8204 73.3906 63.6304 73.3906 63.6304L81.6906 59.1004L86.2206 65.6704L83.2206 58.2604L89.8406 54.6504C95.7485 60.8935 99.4321 68.9111 100.321 77.4604C101.501 91.2904 88.2006 114.64 88.2006 114.64L77.0607 105C77.0607 105 77.5306 98.4404 79.6306 85.6304Z" fill="white" stroke="#3B65EE" stroke-width="2" stroke-linecap="round" stroke-linejoin="round"/>
<path d="M72.5184 116.45C71.2249 114.697 70.4867 112.597 70.3994 110.42C70.312 108.244 70.8795 106.091 72.0284 104.24C74.9184 99.62 78.4584 92.8 79.6284 85.63C79.9648 83.6049 80.0521 81.5463 79.8884 79.5L100.318 77.5C101.148 87.28 95.8683 102.78 92.6983 111.03C92.4683 111.64 92.0384 112.71 91.5084 114.03C90.7859 115.845 89.5903 117.434 88.046 118.631C86.5017 119.829 84.6649 120.59 82.7267 120.837C80.7884 121.084 78.8193 120.808 77.0241 120.036C75.2289 119.264 73.6731 118.026 72.5184 116.45V116.45Z" fill="#B0C3EA" stroke="#3B65EE" stroke-width="2" stroke-linecap="round" stroke-linejoin="round"/>
<path d="M46.5 153.54L49.59 164.68" stroke="#3B65EE" stroke-width="2" stroke-linecap="round" stroke-linejoin="round"/>
<path d="M23.7819 131.97C26.0518 131.97 27.8918 130.792 27.8918 129.34C27.8918 127.887 26.0518 126.71 23.7819 126.71C21.512 126.71 19.6719 127.887 19.6719 129.34C19.6719 130.792 21.512 131.97 23.7819 131.97Z" fill="#3B65EE" stroke="#3B65EE" stroke-width="2" stroke-linecap="round" stroke-linejoin="round"/>
<path d="M66.8015 131.97C69.0714 131.97 70.9115 130.792 70.9115 129.34C70.9115 127.887 69.0714 126.71 66.8015 126.71C64.5316 126.71 62.6914 127.887 62.6914 129.34C62.6914 130.792 64.5316 131.97 66.8015 131.97Z" fill="#3B65EE" stroke="#3B65EE" stroke-width="2" stroke-linecap="round" stroke-linejoin="round"/>
</svg>
