<svg width="159" height="299" viewBox="0 0 159 299" fill="none" xmlns="http://www.w3.org/2000/svg">
<path d="M43.7803 105.64C43.7803 105.64 16.7002 103.83 7.9802 81.87C-0.739797 59.91 -0.739753 38.25 13.4002 38.25C27.5402 38.25 25.7302 59.01 27.8402 71.94C29.9502 84.88 41.3802 84.58 41.3802 84.58L43.7803 105.64Z" fill="#D1DAED"/>
<path d="M43.7804 105.64L41.3704 84.5801C41.3704 84.5801 34.5804 84.7502 30.5004 78.9102C29.9504 86.6302 29.6703 94.4602 29.5703 102.16C37.2503 105.2 43.7804 105.64 43.7804 105.64Z" fill="#B0C3EA"/>
<path d="M43.7803 105.64C43.7803 105.64 16.7002 103.83 7.9802 81.87C-0.739797 59.91 -0.739753 38.25 13.4002 38.25C27.5402 38.25 25.7302 59.01 27.8402 71.94C29.9502 84.88 41.3802 84.58 41.3802 84.58L43.7803 105.64Z" stroke="#3B65EE" stroke-width="2.5" stroke-miterlimit="10" stroke-linecap="round" stroke-linejoin="round"/>
<path d="M94.321 151.67C94.321 151.67 112.671 149.86 122.001 134.52C131.331 119.18 120.801 77.9601 141.861 79.4701C162.921 80.9701 160.811 124.6 141.861 148.96C122.911 173.33 93.1211 169.12 93.1211 169.12L94.321 151.67Z" fill="#D1DAED"/>
<path d="M106.461 168.841C107.371 161.661 108.391 154.171 109.431 146.531C101.671 150.951 94.3211 151.671 94.3211 151.671L93.1211 169.121C93.1111 169.121 98.6511 169.901 106.461 168.841Z" fill="#B0C3EA"/>
<path d="M94.321 151.67C94.321 151.67 112.671 149.86 122.001 134.52C131.331 119.18 120.801 77.9601 141.861 79.4701C162.921 80.9701 160.811 124.6 141.861 148.96C122.911 173.33 93.1211 169.12 93.1211 169.12L94.321 151.67Z" stroke="#3B65EE" stroke-width="2.5" stroke-miterlimit="10" stroke-linecap="round" stroke-linejoin="round"/>
<path d="M49.7697 286.201C49.7697 286.201 42.1197 205.221 38.6097 159.761C35.0997 114.301 29.5797 -4.68918 81.0797 2.36082C132.58 9.41082 100.09 133.851 96.0498 197.961C92.0098 262.071 90.2497 289.951 90.2497 289.951L49.7697 286.201Z" fill="white" stroke="#3B65EE" stroke-width="2.5" stroke-miterlimit="10" stroke-linecap="round" stroke-linejoin="round"/>
<path d="M81.3916 3.24023L82.9615 7.44023L83.7516 9.55023L84.4116 11.7002L85.7115 16.0102L86.7716 20.3802C87.5416 23.2802 87.9916 26.2502 88.5916 29.1902C88.8816 30.6602 89.0516 32.1502 89.2816 33.6402C89.4916 35.1302 89.7416 36.6102 89.9116 38.1002C91.2916 50.0302 91.6616 62.0402 91.5416 74.0302C91.4516 86.0302 90.6716 98.0002 89.7616 109.94C88.8316 121.88 87.6816 133.8 86.5016 145.71C83.9616 169.51 81.3516 193.29 79.5216 217.12C78.5916 229.04 77.8915 240.97 77.5715 252.92C77.1615 264.87 77.2116 276.83 77.6616 288.79C76.6516 276.86 76.3516 264.88 76.3516 252.9C76.4316 240.92 76.9116 228.95 77.6116 216.99C78.2816 205.03 79.3716 193.1 80.4816 181.18L84.0216 145.45C86.5416 121.66 88.9116 97.8602 89.6316 73.9902C89.9816 62.0602 89.8315 50.1102 88.7115 38.2302C87.6315 26.3402 85.3416 14.5502 81.3916 3.24023Z" fill="#B0C3EA"/>
<path d="M137.168 80.6309C140.338 87.9309 141.998 95.9009 142.268 103.911C142.518 111.921 140.988 120.061 137.558 127.381C135.838 131.031 133.558 134.421 130.938 137.471C129.688 139.051 128.188 140.411 126.778 141.851C125.238 143.141 123.778 144.531 122.098 145.641C121.278 146.221 120.468 146.811 119.638 147.381L117.068 148.941L115.788 149.721C115.358 149.971 114.898 150.181 114.458 150.421L111.788 151.791C109.988 152.661 108.118 153.361 106.288 154.151C104.418 154.841 102.528 155.461 100.648 156.101L106.138 153.791C107.908 152.901 109.728 152.091 111.458 151.141L114.048 149.691C114.478 149.441 114.918 149.221 115.338 148.961L116.578 148.151L119.048 146.531L121.398 144.741L122.568 143.841C122.948 143.531 123.308 143.191 123.678 142.871L125.888 140.931C127.238 139.511 128.688 138.171 129.888 136.621C131.188 135.151 132.268 133.511 133.378 131.901L134.878 129.381C135.368 128.531 135.758 127.631 136.198 126.761C137.898 123.241 139.148 119.501 139.948 115.661C140.758 111.821 141.078 107.891 141.108 103.951C141.128 100.011 140.748 96.0709 140.078 92.1709C139.448 88.2409 138.478 84.3809 137.168 80.6309Z" fill="#3B65EE"/>
<path d="M155.552 97.2715C155.772 101.311 155.692 105.371 155.352 109.411C154.962 113.451 154.302 117.482 153.262 121.422C151.192 129.302 147.532 136.821 142.342 143.181C139.722 146.331 136.722 149.162 133.472 151.642C130.222 154.122 126.692 156.242 122.982 157.922C115.592 161.412 107.592 163.321 99.582 164.311C103.532 163.451 107.492 162.641 111.312 161.341C113.252 160.791 115.122 160.041 117.002 159.361C118.842 158.561 120.712 157.832 122.482 156.882C129.672 153.361 136.162 148.412 141.192 142.232C143.742 139.172 145.942 135.822 147.762 132.262C149.592 128.712 150.992 124.951 152.162 121.121C153.322 117.281 154.092 113.321 154.632 109.341C155.202 105.341 155.432 101.311 155.552 97.2715Z" fill="#3B65EE"/>
<path d="M14.6016 38.3105C17.6516 42.4305 19.9216 47.2106 20.9316 52.3306C21.4216 54.8906 21.6016 57.4906 21.6616 60.0706C21.6916 62.6506 21.5916 65.2105 21.6716 67.7305C21.7316 70.2505 21.9316 72.7605 22.6116 75.1505C23.2516 77.5405 24.2515 79.8705 25.4615 82.0605C26.7215 84.2205 28.2316 86.2606 30.1416 87.8906C32.0116 89.5506 34.2716 90.8606 36.7816 91.3806C34.2016 91.1906 31.7716 89.9905 29.6816 88.4605C27.5816 86.9005 25.8515 84.8706 24.4515 82.6606C23.0615 80.4406 22.0016 78.0406 21.2316 75.5206C20.4716 72.9906 20.2516 70.3505 20.1616 67.7605C20.1116 65.1705 20.2216 62.6005 20.2316 60.0605C20.2616 57.5205 20.1116 55.0105 19.7716 52.5105C18.9916 47.5605 17.1716 42.7505 14.6016 38.3105Z" fill="#3B65EE"/>
<path d="M7.18183 40.1816C6.93183 43.1716 6.85172 46.1717 6.94172 49.1617C6.99172 52.1517 7.20173 55.1316 7.58173 58.0816C8.32173 63.9916 9.70174 69.8116 11.9617 75.2816C13.0617 78.0316 14.4717 80.6416 16.0717 83.1116C16.8417 84.3716 17.7618 85.5316 18.6518 86.7116C19.6318 87.8116 20.5518 88.9716 21.6218 89.9916C22.6318 91.0816 23.7918 92.0017 24.9118 92.9817L26.7017 94.3016C27.0017 94.5216 27.2918 94.7517 27.6018 94.9517L28.5518 95.5417C31.0118 97.2417 33.7518 98.4516 36.4918 99.6917C30.7618 97.9216 25.2617 95.0217 20.8317 90.8217C18.5617 88.7917 16.5918 86.4217 14.8918 83.8917C13.2018 81.3517 11.7317 78.6616 10.5817 75.8416C8.29173 70.2016 6.93172 64.2116 6.44172 58.1816C5.94172 52.1816 6.09183 46.1016 7.18183 40.1816Z" fill="#3B65EE"/>
<path d="M81.0717 2.36133L82.5518 6.61133C82.7918 7.32133 83.0517 8.02133 83.2817 8.74133L83.9017 10.9113L85.1017 15.2513L86.0817 19.6513L86.5717 21.8513L86.9617 24.0713L87.7417 28.5113C88.1617 31.4813 88.5918 34.4613 88.9218 37.4513C90.1518 49.4113 90.4518 61.4513 90.3118 73.4713C90.2018 85.4913 89.4517 97.4813 88.6017 109.451C87.7317 121.421 86.6717 133.371 85.5817 145.321C83.2317 169.191 80.8617 193.041 79.2117 216.951C78.3717 228.901 77.7517 240.871 77.4817 252.841C77.1217 264.821 77.2117 276.801 77.6617 288.791C76.6417 276.841 76.3217 264.831 76.2617 252.831C76.2917 240.831 76.6918 228.821 77.3018 216.841C77.8818 204.851 78.8717 192.891 79.8717 180.931L83.1017 145.091C85.4317 121.231 87.6417 97.3613 88.4017 73.4313C88.7717 61.4713 88.6917 49.4913 87.7117 37.5713C86.8217 25.6413 84.7417 13.7813 81.0717 2.36133Z" fill="#3B65EE"/>
<path d="M64.5619 287.57C62.7919 275.73 61.3718 263.85 59.9518 251.96C58.6218 240.07 57.4218 228.15 56.3218 216.23C55.2018 204.31 54.3619 192.37 53.5919 180.42C52.8319 168.47 52.2219 156.51 51.7919 144.54C51.4319 132.57 51.2619 120.59 51.3519 108.61C51.3919 102.62 51.5218 96.6302 51.7118 90.6402C51.8918 84.6502 52.2119 78.6602 52.6519 72.6802C53.5219 60.7302 54.8119 48.7802 57.0419 36.9902C58.2019 31.1002 59.5919 25.2602 61.4319 19.5402C63.2419 13.8302 65.6219 8.25023 68.9119 3.24023C65.8519 8.39023 63.7119 14.0102 62.0619 19.7302C60.4119 25.4602 59.2019 31.3102 58.2419 37.2002C56.2719 48.9702 55.2018 60.8802 54.5718 72.8002C53.2918 96.6502 53.4219 120.57 54.2819 144.46C54.9719 168.36 56.4919 192.23 58.2319 216.08C59.0919 228.01 60.0819 239.93 61.1619 251.84C62.1719 263.76 63.3519 275.66 64.5619 287.57Z" fill="#3B65EE"/>
<path d="M79.7492 60.9506C82.6292 60.8506 84.8792 58.4106 84.7792 55.5206C84.6792 52.6306 82.2492 50.3606 79.3692 50.4706C76.4892 50.5706 74.2391 53.0106 74.3391 55.9006C74.4491 58.7906 76.8692 61.0606 79.7492 60.9506Z" fill="#3B65EE"/>
<path d="M64.1007 61.521C66.9807 61.421 69.2308 58.9809 69.1308 56.0909C69.0208 53.2009 66.6107 50.9309 63.7207 51.0409C60.8407 51.1409 58.5907 53.581 58.6907 56.471C58.8007 59.361 61.2207 61.621 64.1007 61.521Z" fill="#3B65EE"/>
<path d="M91.9588 68.7205C92.2488 68.7505 92.5289 68.8505 92.7889 68.9905C93.0389 69.1405 93.2588 69.3305 93.4388 69.5705C93.6088 69.8105 93.7289 70.0805 93.7989 70.3605C93.8589 70.6505 93.8689 70.9405 93.8089 71.2305C92.5889 76.5105 89.4489 81.1605 84.9989 84.2605C80.5489 87.3605 75.1088 88.7005 69.7288 88.0105C64.3488 87.3305 59.4089 84.6705 55.8789 80.5505C52.3489 76.4305 50.4689 71.1505 50.6089 65.7305C50.6289 65.4405 50.6988 65.1505 50.8388 64.8905C50.9688 64.6305 51.1589 64.4005 51.3789 64.2105C51.6089 64.0205 51.8689 63.8905 52.1489 63.8105C52.4289 63.7305 52.7289 63.7105 53.0189 63.7505L91.9588 68.7205Z" fill="#3B65EE"/>
<path d="M84.7812 112.061C85.6812 115.731 86.3012 119.441 86.8412 123.171L85.8812 123.071C86.5612 121.211 87.2713 119.351 88.0312 117.521C88.4012 116.601 88.7912 115.691 89.1912 114.781C89.6112 113.881 90.0012 112.961 90.4512 112.071C90.2212 113.041 89.9213 113.991 89.6613 114.951C89.3713 115.901 89.0812 116.851 88.7712 117.791C88.1612 119.681 87.5013 121.551 86.8113 123.411C86.7213 123.671 86.4313 123.801 86.1713 123.711C85.9913 123.651 85.8712 123.491 85.8512 123.311C85.3512 119.581 84.9213 115.841 84.7812 112.061Z" fill="#3B65EE"/>
<path d="M84.7812 30.5906C86.3913 33.5506 87.7312 36.6106 89.0112 39.7106L88.0712 39.7606C88.7012 37.6306 89.3513 35.5106 90.0513 33.4106C90.4013 32.3606 90.7612 31.3106 91.1312 30.2606C91.5312 29.2206 91.8913 28.1706 92.3113 27.1406C92.1113 28.2406 91.8412 29.3106 91.6112 30.4006C91.3512 31.4806 91.0913 32.5606 90.8113 33.6306C90.2613 35.7806 89.6512 37.9106 89.0212 40.0406C88.9412 40.3006 88.6713 40.4606 88.4113 40.3806C88.2613 40.3406 88.1412 40.2206 88.0912 40.0906C86.8512 36.9706 85.6812 33.8406 84.7812 30.5906Z" fill="#3B65EE"/>
<path d="M49.8789 147.312C51.4089 150.472 52.6689 153.732 53.8489 157.012H52.9089C53.5889 155.152 54.299 153.292 55.059 151.462C55.429 150.542 55.8189 149.632 56.2189 148.722C56.6389 147.822 57.0289 146.902 57.4789 146.012C57.2489 146.982 56.9488 147.932 56.6888 148.892C56.3988 149.842 56.109 150.792 55.799 151.732C55.189 153.622 54.5289 155.492 53.8389 157.352C53.7489 157.612 53.4589 157.742 53.1989 157.652C53.0589 157.602 52.9489 157.482 52.8989 157.352C51.7589 154.052 50.6789 150.732 49.8789 147.312Z" fill="#3B65EE"/>
<path d="M54.9813 107.512C54.5213 111.572 53.7813 115.572 52.9613 119.552L52.0314 119.222C52.8614 117.562 53.7213 115.902 54.6213 114.272C55.0713 113.452 55.5313 112.652 56.0013 111.842C56.4913 111.052 56.9613 110.242 57.4813 109.462C57.1713 110.342 56.7913 111.202 56.4513 112.072C56.0913 112.932 55.7113 113.782 55.3313 114.632C54.5613 116.332 53.7514 118.002 52.9214 119.672C52.8014 119.922 52.5013 120.022 52.2513 119.892C52.0413 119.792 51.9413 119.562 51.9813 119.342C52.8413 115.382 53.7713 111.412 54.9813 107.512Z" fill="#3B65EE"/>
<path d="M74.4297 212.661C75.9597 215.821 77.2197 219.081 78.3997 222.361H77.4596C78.1396 220.501 78.8496 218.641 79.6096 216.811C79.9796 215.891 80.3697 214.981 80.7697 214.071C81.1897 213.171 81.5797 212.251 82.0297 211.361C81.7997 212.331 81.4996 213.281 81.2396 214.241C80.9496 215.191 80.6596 216.141 80.3496 217.081C79.7396 218.971 79.0796 220.841 78.3896 222.701C78.2996 222.961 78.0096 223.091 77.7496 223.001C77.6096 222.951 77.4996 222.831 77.4496 222.701C76.3096 219.401 75.2297 216.081 74.4297 212.661Z" fill="#3B65EE"/>
<path d="M117.742 154.471C117.502 156.451 116.972 158.351 116.382 160.221L115.592 159.691C116.592 158.841 117.612 158.001 118.662 157.211C119.712 156.411 120.782 155.641 121.932 154.951C121.072 155.971 120.132 156.901 119.182 157.811C118.232 158.721 117.242 159.601 116.242 160.451C116.032 160.631 115.722 160.601 115.542 160.391C115.422 160.251 115.392 160.071 115.452 159.911C116.072 158.051 116.772 156.221 117.742 154.471Z" fill="#3B65EE"/>
<path d="M132.67 130.21C133.05 131.58 133.15 132.96 133.17 134.33L132.4 133.91C133.58 133.13 134.78 132.37 136.01 131.66C137.23 130.94 138.48 130.26 139.78 129.65C138.71 130.61 137.59 131.48 136.45 132.32C135.31 133.16 134.14 133.96 132.95 134.74H132.94C132.71 134.89 132.41 134.83 132.26 134.6C132.2 134.51 132.18 134.42 132.18 134.32C132.19 132.95 132.28 131.58 132.67 130.21Z" fill="#3B65EE"/>
<path d="M137.68 103.472C139.27 105.962 140.6 108.572 141.86 111.212L140.97 111.192C141.76 109.702 142.58 108.232 143.44 106.782C143.87 106.052 144.31 105.342 144.76 104.622C145.23 103.922 145.67 103.202 146.17 102.512C145.87 103.312 145.52 104.072 145.2 104.862C144.85 105.632 144.5 106.402 144.14 107.162C143.41 108.682 142.64 110.182 141.84 111.672C141.71 111.912 141.41 112.012 141.17 111.882C141.07 111.832 140.99 111.742 140.95 111.652C139.73 108.982 138.58 106.292 137.68 103.472Z" fill="#3B65EE"/>
<path d="M19.1406 74.6399C21.0606 76.3299 22.7606 78.1999 24.4006 80.1199L23.5306 80.3699C23.7106 79.0299 23.9207 77.6999 24.1807 76.3699C24.3107 75.7099 24.4506 75.0499 24.6006 74.3899C24.7806 73.7299 24.9206 73.0699 25.1306 72.4199C25.1506 73.0999 25.1106 73.7799 25.1006 74.4599C25.0706 75.1399 25.0306 75.8099 24.9706 76.4799C24.8606 77.8299 24.7006 79.1699 24.5206 80.4999C24.4806 80.7699 24.2406 80.9599 23.9606 80.9299C23.8306 80.9099 23.7206 80.8499 23.6406 80.7499C22.0306 78.8199 20.4706 76.8199 19.1406 74.6399Z" fill="#3B65EE"/>
<path d="M9.112 60.7208C9.272 63.0008 9.14196 65.2508 8.94196 67.5008L8.02204 67.1908C8.94204 65.6708 9.882 64.1508 10.862 62.6708C11.352 61.9308 11.852 61.1908 12.362 60.4608C12.892 59.7408 13.392 59.0108 13.952 58.3008C13.592 59.1208 13.1721 59.9108 12.7921 60.7208C12.3821 61.5108 11.9721 62.3008 11.5421 63.0808C10.6921 64.6408 9.79201 66.1808 8.87201 67.7008C8.73201 67.9408 8.43196 68.0108 8.19196 67.8708C8.02196 67.7708 7.93197 67.5808 7.95197 67.3908C8.19197 65.1608 8.512 62.9308 9.112 60.7208Z" fill="#3B65EE"/>
<path d="M100.662 191.111C99.5121 195.671 98.092 200.141 96.602 204.581L95.8021 204.051C96.8921 203.081 98.002 202.131 99.142 201.221C99.712 200.761 100.292 200.321 100.872 199.881C101.472 199.461 102.052 199.011 102.672 198.621C102.202 199.191 101.692 199.711 101.202 200.261C100.692 200.791 100.182 201.311 99.6621 201.821C98.6221 202.841 97.542 203.831 96.452 204.801C96.252 204.981 95.932 204.961 95.752 204.761C95.632 204.621 95.6021 204.431 95.6521 204.271C97.1921 199.831 98.7921 195.421 100.662 191.111Z" fill="#3B65EE"/>
<path d="M35.2314 40.1816C37.0614 43.9816 38.6215 47.8717 40.1115 51.8017C40.2115 52.0617 40.0814 52.3417 39.8214 52.4417C39.6614 52.5017 39.4714 52.4716 39.3414 52.3716C38.3914 51.6516 37.4515 50.9117 36.5515 50.1317C36.1015 49.7417 35.6514 49.3417 35.2114 48.9417C34.7914 48.5117 34.3414 48.1117 33.9414 47.6617C34.4914 47.9317 34.9915 48.2516 35.5215 48.5416C36.0315 48.8516 36.5415 49.1716 37.0315 49.5016C38.0315 50.1616 38.9914 50.8616 39.9414 51.5816L39.1715 52.1516C37.7215 48.2116 36.3414 44.2516 35.2314 40.1816Z" fill="#3B65EE"/>
<path d="M113.389 78.5215C112.239 83.0815 110.819 87.5515 109.329 91.9915L108.529 91.4615C109.619 90.4915 110.729 89.5415 111.869 88.6415C112.439 88.1815 113.019 87.7415 113.599 87.3015C114.199 86.8815 114.779 86.4315 115.399 86.0415C114.929 86.6115 114.419 87.1315 113.929 87.6815C113.419 88.2115 112.909 88.7315 112.389 89.2415C111.349 90.2615 110.269 91.2515 109.179 92.2215C108.979 92.4015 108.659 92.3815 108.479 92.1815C108.359 92.0415 108.329 91.8515 108.379 91.6915C109.919 87.2415 111.519 82.8315 113.389 78.5215Z" fill="#3B65EE"/>
<path d="M72.9385 297.162H30.2186C27.8886 297.162 26.5386 294.532 27.8986 292.632L31.3786 287.782C35.5486 281.972 42.8486 279.302 49.7786 281.052L75.6086 287.572L72.9385 297.162Z" fill="white" stroke="#3B65EE" stroke-width="2.5" stroke-miterlimit="10" stroke-linecap="round" stroke-linejoin="round"/>
<path d="M67.0302 293.611C65.7602 291.231 66.0302 288.311 67.7502 286.231C70.9202 282.421 76.8102 277.051 84.7802 277.051C92.7102 277.051 97.0003 281.381 99.0603 284.481C100.35 286.431 102.58 287.561 104.92 287.561H110.42C113.9 287.561 117.21 289.101 119.44 291.781C121.22 293.911 119.71 297.151 116.93 297.151H72.9401C70.4601 297.161 68.1902 295.791 67.0302 293.611Z" fill="white" stroke="#3B65EE" stroke-width="2.5" stroke-miterlimit="10" stroke-linecap="round" stroke-linejoin="round"/>
<path d="M133.491 297.162H146.161L141.701 292.742C138.961 290.022 134.431 290.402 132.181 293.542L131.861 293.982C130.901 295.312 131.851 297.162 133.491 297.162Z" fill="#D1DAED" stroke="#3B65EE" stroke-width="2.5" stroke-miterlimit="10" stroke-linecap="round" stroke-linejoin="round"/>
<path d="M84.582 285.57C86.032 286.09 87.452 286.66 88.842 287.29C89.542 287.59 90.2321 287.93 90.9221 288.25C91.6021 288.59 92.262 288.87 92.972 289.1C94.362 289.61 95.8221 289.77 97.3521 290.01C98.8621 290.25 100.362 290.55 101.862 290.91C100.322 290.93 98.7921 290.89 97.2721 290.78C96.5021 290.73 95.762 290.68 94.962 290.58C94.182 290.47 93.4121 290.28 92.6621 290.03C91.1421 289.51 89.8321 288.69 88.5021 287.96C87.1621 287.24 85.862 286.43 84.582 285.57Z" fill="#3B65EE"/>
</svg>
