<?xml version="1.0" encoding="UTF-8"?><svg id="Layer_1" xmlns="http://www.w3.org/2000/svg" viewBox="0 0 300 300"><defs><style>.cls-1{fill:#fff;}.cls-2{fill:#2b67f8;}</style></defs><rect class="cls-1" x="62" y="43.5" width="176" height="238" rx="6.41" ry="6.41"/><path class="cls-2" d="m231.59,277.74h-73.61c-18.25,0-36.49,0-54.74,0-10.91,0-21.92.42-32.83,0-2.44-.09-4.29-.41-4.65-3.36-.31-2.52,0-5.27,0-7.81,0-12.16,0-24.32,0-36.48,0-36.39,0-72.78,0-109.17v-46.69c0-7.64-.88-15.88,0-23.49.31-2.66,1.93-3.36,4.3-3.49,3.96-.22,7.99,0,11.96,0,15.41,0,30.83,0,46.24,0,32.2,0,64.39,0,96.59,0,2.09,0,4.67-.42,6.73,0,3.3.67,2.66,3.83,2.66,6.31v137.14c0,26.86,0,53.72,0,80.58,0,2.29.67,6.11-2.66,6.45-4.77.48-4.82,8.01,0,7.52,11.96-1.22,10.17-12.88,10.17-21.55,0-13.58,0-27.16,0-40.74,0-37.98,0-75.96,0-113.93,0-14.57,0-29.14,0-43.71,0-5.94,1.82-16.57-2.2-21.64-3.08-3.89-7.28-3.93-11.68-3.93h-14.89c-17.18,0-34.35,0-51.53,0-30.46,0-60.94-.39-91.39,0-6.24.08-11.45,3.39-11.82,10.19-.1,1.76,0,3.56,0,5.32v34.84c0,37.53,0,75.05,0,112.58,0,23.92-1.03,48.1,0,72,.51,11.87,11.81,10.59,20.21,10.59,15.32,0,30.64,0,45.96,0,33.62,0,67.24,0,100.85,0h6.32c4.84,0,4.84-7.52,0-7.52Z"/><path class="cls-2" d="m128.98,127.75h-36l3.75,3.75v-36l-3.75,3.75h36l-3.75-3.75v36c0,4.83,7.5,4.83,7.5,0v-36c0-2.03-1.72-3.75-3.75-3.75h-36c-2.03,0-3.75,1.72-3.75,3.75v36c0,2.03,1.72,3.75,3.75,3.75h36c4.83,0,4.83-7.5,0-7.5Z"/><path class="cls-2" d="m153.19,109.83h53.83c4.83,0,4.83-7.5,0-7.5h-53.83c-4.83,0-4.83,7.5,0,7.5h0Z"/><path class="cls-2" d="m153.19,125.08c17.94,0,35.89,0,53.83,0,4.83,0,4.83-7.5,0-7.5-17.94,0-35.89,0-53.83,0-4.83,0-4.83,7.5,0,7.5h0Z"/><path class="cls-2" d="m132.33,95.3c-7.22,7.39-14.44,14.79-21.65,22.18h5.3c-3.1-3.03-6.2-6.05-9.3-9.08-3.46-3.37-8.76,1.92-5.3,5.3,3.1,3.03,6.2,6.05,9.3,9.08,1.44,1.4,3.87,1.47,5.3,0,7.22-7.39,14.44-14.79,21.65-22.18,3.37-3.46-1.92-8.76-5.3-5.3h0Z"/><path class="cls-2" d="m128.98,187.81h-36l3.75,3.75v-36l-3.75,3.75h36l-3.75-3.75v36c0,4.83,7.5,4.83,7.5,0v-36c0-2.03-1.72-3.75-3.75-3.75h-36c-2.03,0-3.75,1.72-3.75,3.75v36c0,2.03,1.72,3.75,3.75,3.75h36c4.83,0,4.83-7.5,0-7.5Z"/><path class="cls-2" d="m153.19,169.89c17.94,0,35.89,0,53.83,0,4.83,0,4.83-7.5,0-7.5-17.94,0-35.89,0-53.83,0-4.83,0-4.83,7.5,0,7.5h0Z"/><path class="cls-2" d="m153.19,185.14c17.94,0,35.89,0,53.83,0,4.83,0,4.83-7.5,0-7.5-17.94,0-35.89,0-53.83,0-4.83,0-4.83,7.5,0,7.5h0Z"/><path class="cls-2" d="m132.33,155.36c-7.22,7.39-14.44,14.79-21.65,22.18h5.3c-3.1-3.03-6.2-6.05-9.3-9.08-3.46-3.37-8.76,1.92-5.3,5.3,3.1,3.03,6.2,6.05,9.3,9.08,1.44,1.4,3.87,1.47,5.3,0,7.22-7.39,14.44-14.79,21.65-22.18,3.37-3.46-1.92-8.76-5.3-5.3h0Z"/><path class="cls-2" d="m128.98,247.88h-36l3.75,3.75v-36l-3.75,3.75h36l-3.75-3.75v36c0,4.83,7.5,4.83,7.5,0v-36c0-2.03-1.72-3.75-3.75-3.75h-36c-2.03,0-3.75,1.72-3.75,3.75v36c0,2.03,1.72,3.75,3.75,3.75h36c4.83,0,4.83-7.5,0-7.5Z"/><path class="cls-2" d="m153.19,229.96c17.94,0,35.89,0,53.83,0,4.83,0,4.83-7.5,0-7.5-17.94,0-35.89,0-53.83,0-4.83,0-4.83,7.5,0,7.5h0Z"/><path class="cls-2" d="m153.19,245.21c17.94,0,35.89,0,53.83,0,4.83,0,4.83-7.5,0-7.5-17.94,0-35.89,0-53.83,0-4.83,0-4.83,7.5,0,7.5h0Z"/><path class="cls-1" d="m202.25,35.5v34h-104.5v-34h34.76c.26-9.43,8-17,17.49-17s17.23,7.57,17.49,17h34.76Z"/><path class="cls-2" d="m198.5,35.5v34l3.75-3.75h-104.5l3.75,3.75v-34l-3.75,3.75h34.76c2.13,0,3.62-1.72,3.75-3.75,1.12-17.1,26.36-17.14,27.48,0,.13,2.02,1.61,3.75,3.75,3.75h34.76c4.83,0,4.83-7.5,0-7.5h-34.76l3.75,3.75c-.74-11.31-9.52-20.79-21.24-20.75s-20.49,9.38-21.24,20.75l3.75-3.75h-34.76c-2.03,0-3.75,1.72-3.75,3.75v34c0,2.03,1.72,3.75,3.75,3.75h104.5c2.03,0,3.75-1.72,3.75-3.75v-34c0-4.83-7.5-4.83-7.5,0Z"/><circle class="cls-2" cx="150" cy="34.5" r="5"/><path class="cls-2" d="m150,39.88c-2.96,0-5.38-2.41-5.38-5.38s2.41-5.38,5.38-5.38,5.38,2.41,5.38,5.38-2.41,5.38-5.38,5.38Zm0-10c-2.55,0-4.62,2.07-4.62,4.62s2.07,4.62,4.62,4.62,4.62-2.07,4.62-4.62-2.07-4.62-4.62-4.62Z"/></svg>