<svg width="394" height="450" viewBox="0 0 394 450" fill="none" xmlns="http://www.w3.org/2000/svg">
<path d="M92.7798 53.06H301.45C314.27 53.06 324.66 63.45 324.66 76.27V114.84H69.5698V76.27C69.5698 63.45 79.9598 53.06 92.7798 53.06Z" fill="white" stroke="#3B65EE" stroke-width="2.5" stroke-miterlimit="10" stroke-linecap="round" stroke-linejoin="round"/>
<path d="M69.5698 112.74V130.41H324.65V112.74C324.65 100.43 321.64 88.83 316.34 78.61H77.8898C72.5798 88.84 69.5698 100.43 69.5698 112.74Z" fill="#E5ECF9" stroke="#E5ECF9" stroke-width="2.5" stroke-miterlimit="10" stroke-linecap="round" stroke-linejoin="round"/>
<path d="M313.96 156.86H80.3799V344.75H313.96V156.86Z" fill="#99B2E0" stroke="#3B65EE" stroke-width="2.5" stroke-miterlimit="10" stroke-linecap="round" stroke-linejoin="round"/>
<path d="M279.28 320.26H115.07V344.75H279.28V320.26Z" fill="#E5ECF9" stroke="#3B65EE" stroke-width="2.5" stroke-miterlimit="10" stroke-linecap="round" stroke-linejoin="round"/>
<path d="M392.03 358.77V383.81H2.18994V358.77C2.18994 351.03 8.46996 344.75 16.21 344.75H378.01C385.75 344.75 392.03 351.02 392.03 358.77Z" fill="white" stroke="#3B65EE" stroke-width="2.5" stroke-miterlimit="10" stroke-linecap="round" stroke-linejoin="round"/>
<path d="M279.28 307.26H115.07V320.26H279.28V307.26Z" fill="#D1DAED" stroke="#3B65EE" stroke-width="2.5" stroke-miterlimit="10" stroke-linecap="round" stroke-linejoin="round"/>
<path d="M124.64 211.36C126.4 219.74 131.31 232.52 144.88 244.36C167.63 264.21 183.84 265.52 183.84 265.52C183.84 265.52 197.2 261.55 206.24 261.55C238.03 261.55 263.79 236.5 263.79 205.61C263.79 174.71 238.02 163.9 206.24 163.9C176.01 163.9 148.82 173.7 146.24 201.24L132.2 201.73C127.23 201.91 123.62 206.5 124.64 211.36Z" fill="#D1DAED" stroke="#3B65EE" stroke-width="2.5" stroke-miterlimit="10" stroke-linecap="round" stroke-linejoin="round"/>
<path d="M174.09 262.86L199.18 224.69L152.19 250.29C161.06 256.98 168.6 260.75 174.09 262.86Z" fill="#B0C3EA" stroke="#B0C3EA" stroke-width="2.5" stroke-miterlimit="10" stroke-linecap="round" stroke-linejoin="round"/>
<path d="M144.88 244.36C167.63 264.21 183.84 265.52 183.84 265.52" stroke="#3B65EE" stroke-width="2.5" stroke-miterlimit="10" stroke-linecap="round" stroke-linejoin="round"/>
<path d="M313.96 270.55C313.96 270.55 245.15 185.35 197.17 185.35C149.19 185.35 80.3799 270.55 80.3799 270.55V156.86H313.96V270.55Z" fill="#B0C3EA" stroke="#3B65EE" stroke-width="2.5" stroke-miterlimit="10" stroke-linecap="round" stroke-linejoin="round"/>
<path d="M90.9998 163.36H33.4897V313.76H90.9998V163.36Z" fill="#E5ECF9" stroke="#3B65EE" stroke-width="2.5" stroke-miterlimit="10" stroke-linecap="round" stroke-linejoin="round"/>
<path d="M303.341 313.762L360.851 313.762L360.851 163.362L303.341 163.362L303.341 313.762Z" fill="#E5ECF9" stroke="#3B65EE" stroke-width="2.5" stroke-miterlimit="10" stroke-linecap="round" stroke-linejoin="round"/>
<path d="M130.06 344.75V269.48C130.06 232.51 160.14 202.43 197.11 202.43C234.08 202.43 264.16 232.51 264.16 269.48V344.75H303.23V269.48C303.23 210.97 255.63 163.37 197.12 163.37C138.61 163.37 91 210.97 91 269.48V344.75H130.06Z" fill="#E5ECF9" stroke="#3B65EE" stroke-width="2.5" stroke-miterlimit="10" stroke-linecap="round" stroke-linejoin="round"/>
<path d="M91.0001 320.26H16.3901V344.75H91.0001V320.26Z" fill="#E5ECF9" stroke="#3B65EE" stroke-width="2.5" stroke-miterlimit="10" stroke-linecap="round" stroke-linejoin="round"/>
<path d="M16.3901 320.26H91.0001V307.26H33.4901L16.3901 320.26Z" fill="#D1DAED" stroke="#3B65EE" stroke-width="2.5" stroke-miterlimit="10" stroke-linecap="round" stroke-linejoin="round"/>
<path d="M303.34 344.747L377.95 344.747L377.95 320.257L303.34 320.257L303.34 344.747Z" fill="#E5ECF9" stroke="#3B65EE" stroke-width="2.5" stroke-miterlimit="10" stroke-linecap="round" stroke-linejoin="round"/>
<path d="M324.23 125.87H303.35H16.3901V150.36H303.35H324.23H377.95V125.87H324.23Z" fill="white" stroke="#3B65EE" stroke-width="2.5" stroke-miterlimit="10" stroke-linecap="round" stroke-linejoin="round"/>
<path d="M377.95 320.26H303.35V307.26H360.85L377.95 320.26Z" fill="#D1DAED" stroke="#3B65EE" stroke-width="2.5" stroke-miterlimit="10" stroke-linecap="round" stroke-linejoin="round"/>
<path d="M269.35 150.36H124.99H16.3901L33.4901 163.36H124.99H269.35H360.85L377.95 150.36H269.35Z" fill="#D1DAED" stroke="#3B65EE" stroke-width="2.5" stroke-miterlimit="10" stroke-linecap="round" stroke-linejoin="round"/>
<path d="M392.03 100.83V125.87H2.18994V100.83C2.18994 93.09 8.46996 86.81 16.21 86.81H378.01C385.75 86.81 392.03 93.09 392.03 100.83Z" fill="white" stroke="#3B65EE" stroke-width="2.5" stroke-miterlimit="10" stroke-linecap="round" stroke-linejoin="round"/>
<path d="M70.2502 83.09C70.2502 83.09 75.2602 106.29 73.9802 112.88C72.6902 119.47 42.5402 130.7 52.3002 139.84C58.1202 145.29 70.3002 139.35 83.1802 134.8C91.9002 131.71 100.47 131.34 106.87 125.83C113.27 120.32 100.63 77.1 100.63 77.1L70.2502 83.09Z" fill="#E5ECF9" stroke="#3B65EE" stroke-width="2.5" stroke-miterlimit="10" stroke-linecap="round" stroke-linejoin="round"/>
<path d="M108.54 115.17C103.98 115.24 99.2801 116.2 97.2001 119.44C94.8501 123.11 95.2801 127.58 96.2801 131.09C100.16 129.94 103.77 128.48 106.86 125.81C108.54 124.37 108.91 120.34 108.54 115.17Z" fill="#D1DAED" stroke="#3B65EE" stroke-width="2.5" stroke-miterlimit="10" stroke-linecap="round" stroke-linejoin="round"/>
<path d="M100.05 83.16L72.5098 89.78C70.3098 90.31 68.0998 88.96 67.5698 86.76L66.4198 81.99C65.8898 79.79 67.2398 77.58 69.4398 77.05L96.9798 70.43C99.1798 69.9 101.39 71.25 101.92 73.45L103.07 78.22C103.6 80.42 102.25 82.63 100.05 83.16Z" fill="#D1DAED" stroke="#3B65EE" stroke-width="2.5" stroke-miterlimit="10" stroke-linecap="round" stroke-linejoin="round"/>
<path d="M67.8401 133.93C65.3001 130.09 61.6501 127.58 58.2401 125.96C52.1301 130.57 47.6001 135.44 52.2901 139.84C56.1001 143.41 62.6401 142.09 70.3201 139.48C69.9801 137.86 69.2201 136.02 67.8401 133.93Z" fill="#D1DAED" stroke="#3B65EE" stroke-width="2.5" stroke-miterlimit="10" stroke-linecap="round" stroke-linejoin="round"/>
<path d="M305.56 83.09C305.56 83.09 310.57 106.29 309.29 112.88C308 119.47 277.85 130.7 287.61 139.84C293.43 145.29 305.61 139.35 318.49 134.8C327.21 131.71 335.78 131.34 342.18 125.83C348.58 120.32 335.94 77.1 335.94 77.1L305.56 83.09Z" fill="#E5ECF9" stroke="#3B65EE" stroke-width="2.5" stroke-miterlimit="10" stroke-linecap="round" stroke-linejoin="round"/>
<path d="M343.86 115.17C339.3 115.24 334.6 116.2 332.52 119.44C330.17 123.11 330.6 127.58 331.6 131.09C335.48 129.94 339.09 128.48 342.18 125.81C343.86 124.37 344.22 120.34 343.86 115.17Z" fill="#D1DAED" stroke="#3B65EE" stroke-width="2.5" stroke-miterlimit="10" stroke-linecap="round" stroke-linejoin="round"/>
<path d="M335.36 83.16L307.82 89.78C305.62 90.31 303.41 88.96 302.88 86.76L301.73 81.99C301.2 79.79 302.55 77.58 304.75 77.05L332.29 70.43C334.49 69.9 336.7 71.25 337.23 73.45L338.38 78.22C338.91 80.42 337.56 82.63 335.36 83.16Z" fill="#D1DAED" stroke="#3B65EE" stroke-width="2.5" stroke-miterlimit="10" stroke-linecap="round" stroke-linejoin="round"/>
<path d="M303.16 133.93C300.62 130.09 296.97 127.58 293.56 125.96C287.45 130.57 282.92 135.44 287.61 139.84C291.42 143.41 297.96 142.09 305.64 139.48C305.29 137.86 304.53 136.02 303.16 133.93Z" fill="#D1DAED" stroke="#3B65EE" stroke-width="2.5" stroke-miterlimit="10" stroke-linecap="round" stroke-linejoin="round"/>
<path d="M236.15 1.26001H158.74V86.81H236.15V1.26001Z" fill="#D1DAED" stroke="#3B65EE" stroke-width="2.5" stroke-miterlimit="10" stroke-linecap="round" stroke-linejoin="round"/>
<path d="M229.4 8.01001H165.49V80.06H229.4V8.01001Z" fill="white"/>
<path d="M228.15 9.26001V78.81H166.74V9.26001H228.15ZM230.65 6.76001H164.24V81.31H230.65V6.76001Z" fill="#3B65EE"/>
<path d="M206.71 34.11C210.12 33.99 212.79 31.11 212.67 27.67C212.55 24.24 209.68 21.56 206.26 21.68C202.85 21.8 200.18 24.68 200.3 28.12C200.43 31.55 203.3 34.23 206.71 34.11Z" fill="#3B65EE"/>
<path d="M188.17 34.7801C191.58 34.6601 194.25 31.7801 194.13 28.3401C194.01 24.9101 191.14 22.2301 187.72 22.3501C184.31 22.4701 181.64 25.3501 181.76 28.7901C181.88 32.2201 184.75 34.9001 188.17 34.7801Z" fill="#3B65EE"/>
<path d="M221.18 43.3201C221.53 43.3601 221.86 43.4701 222.16 43.6401C222.46 43.8101 222.72 44.05 222.93 44.33C223.13 44.61 223.28 44.93 223.36 45.27C223.43 45.61 223.44 45.96 223.37 46.3C221.92 52.56 218.2 58.07 212.92 61.74C207.65 65.41 201.19 67 194.82 66.19C188.44 65.38 182.59 62.2301 178.41 57.35C174.22 52.47 172 46.2101 172.16 39.7901C172.18 39.4401 172.27 39.11 172.43 38.8C172.59 38.49 172.81 38.22 173.07 38C173.34 37.78 173.65 37.62 173.98 37.52C174.31 37.43 174.66 37.4001 175.01 37.4501L221.18 43.3201Z" fill="#3B65EE"/>
<path d="M187.9 86.9301C187.9 86.9301 192.91 110.13 191.63 116.72C190.34 123.31 160.19 134.54 169.95 143.68C175.77 149.13 187.95 143.19 200.83 138.64C209.55 135.55 218.12 135.18 224.52 129.67C230.92 124.16 218.28 80.9401 218.28 80.9401L187.9 86.9301Z" fill="#E5ECF9" stroke="#3B65EE" stroke-width="2.5" stroke-miterlimit="10" stroke-linecap="round" stroke-linejoin="round"/>
<path d="M226.2 119.01C221.64 119.08 216.94 120.04 214.86 123.28C212.51 126.95 212.94 131.42 213.94 134.93C217.82 133.78 221.43 132.32 224.52 129.65C226.2 128.21 226.57 124.18 226.2 119.01Z" fill="#D1DAED" stroke="#3B65EE" stroke-width="2.5" stroke-miterlimit="10" stroke-linecap="round" stroke-linejoin="round"/>
<path d="M217.71 86.99L190.17 93.61C187.97 94.14 185.76 92.79 185.23 90.59L184.08 85.82C183.55 83.62 184.9 81.41 187.1 80.88L214.64 74.26C216.84 73.73 219.05 75.08 219.58 77.28L220.73 82.05C221.26 84.25 219.9 86.47 217.71 86.99Z" fill="#D1DAED" stroke="#3B65EE" stroke-width="2.5" stroke-miterlimit="10" stroke-linecap="round" stroke-linejoin="round"/>
<path d="M185.5 137.77C182.96 133.93 179.31 131.42 175.9 129.8C169.79 134.41 165.26 139.28 169.95 143.68C173.76 147.25 180.3 145.93 187.98 143.32C187.63 141.7 186.88 139.85 185.5 137.77Z" fill="#D1DAED" stroke="#3B65EE" stroke-width="2.5" stroke-miterlimit="10" stroke-linecap="round" stroke-linejoin="round"/>
<path d="M227.2 296.45C223.21 294.35 221.11 288.39 222.5 283.15C223.89 277.9 228.25 275.35 232.23 277.45C236.22 279.55 238.32 285.51 236.93 290.75C235.55 296 231.19 298.55 227.2 296.45Z" fill="white" stroke="#3B65EE" stroke-width="2.5" stroke-miterlimit="10" stroke-linecap="round" stroke-linejoin="round"/>
<path d="M245.11 249.44C245.11 246.35 244.5 243.38 243.47 240.56C236.98 222.84 215.7 215.58 199.18 224.7C185.98 231.99 170.37 242.61 164.68 254.45C154.1 276.44 167.46 296.48 167.46 296.48L222.57 299.54C222.57 299.53 245.11 269.2 245.11 249.44Z" fill="white" stroke="#3B65EE" stroke-width="2.5" stroke-miterlimit="10" stroke-linecap="round" stroke-linejoin="round"/>
<path d="M195.768 279.009C196.483 276.074 195.797 273.386 194.235 273.005C192.674 272.625 190.828 274.696 190.113 277.631C189.398 280.566 190.084 283.254 191.646 283.635C193.207 284.015 195.053 281.944 195.768 279.009Z" fill="#3B65EE"/>
<path d="M184.88 298.69C184.26 298.66 183.76 298.17 183.7 297.55L183.56 295.95C183.38 293.83 184.1 291.71 185.54 290.14C186.98 288.57 189.03 287.67 191.16 287.67C191.31 287.67 191.45 287.67 191.6 287.68L200.14 288.17C202.53 281.2 206.43 273.34 211.89 273.34C212.35 273.34 212.81 273.4 213.26 273.51C214.85 273.9 216 274.84 216.57 276.21C217.91 279.42 215.81 284.61 213.43 288.93L215.1 289.03C217.2 289.15 219.1 290.31 220.16 292.12C221.23 293.93 221.32 296.15 220.41 298.05L219.54 299.86C219.33 300.29 218.89 300.57 218.41 300.57C218.4 300.55 184.88 298.69 184.88 298.69Z" fill="white"/>
<path d="M211.9 274.59C212.25 274.59 212.61 274.63 212.97 274.72C218.81 276.16 214.09 285.47 211.35 290.06L215.04 290.27C218.63 290.47 220.86 294.26 219.3 297.5L218.43 299.31L184.96 297.45L184.82 295.85C184.5 292.1 187.47 288.92 191.17 288.92C191.29 288.92 191.42 288.92 191.54 288.93L201.04 289.47C202.73 284.32 206.62 274.59 211.9 274.59ZM211.9 272.09C205.97 272.09 201.84 279.74 199.28 286.87L191.68 286.44C191.51 286.43 191.34 286.43 191.17 286.43C188.69 286.43 186.31 287.48 184.63 289.31C182.95 291.14 182.11 293.6 182.32 296.07L182.46 297.67C182.57 298.91 183.57 299.88 184.81 299.95L218.28 301.81C218.33 301.81 218.37 301.81 218.42 301.81C219.38 301.81 220.25 301.26 220.67 300.4L221.54 298.59C222.64 296.32 222.53 293.66 221.24 291.49C220.01 289.39 217.85 288.03 215.44 287.81C218.1 282.54 218.86 278.49 217.72 275.75C217.21 274.53 216.07 272.94 213.56 272.32C213.02 272.16 212.46 272.09 211.9 272.09Z" fill="#3B65EE"/>
<path d="M211.664 294.04C212.027 292.549 211.678 291.182 210.884 290.989C210.09 290.795 209.151 291.848 208.788 293.34C208.424 294.831 208.774 296.198 209.568 296.391C210.362 296.584 211.3 295.532 211.664 294.04Z" fill="#3B65EE"/>
<path d="M201.709 293.521C202.073 292.029 201.723 290.663 200.929 290.469C200.135 290.276 199.197 291.328 198.833 292.82C198.47 294.312 198.819 295.678 199.613 295.871C200.407 296.065 201.346 295.013 201.709 293.521Z" fill="#3B65EE"/>
<path d="M222.57 299.53L167.46 296.47L185.02 385.19L222.57 299.53Z" fill="#D1DAED" stroke="#3B65EE" stroke-width="2.5" stroke-miterlimit="10" stroke-linecap="round" stroke-linejoin="round"/>
<path d="M185.02 394.57C187.991 394.57 190.4 392.161 190.4 389.19C190.4 386.219 187.991 383.81 185.02 383.81C182.048 383.81 179.64 386.219 179.64 389.19C179.64 392.161 182.048 394.57 185.02 394.57Z" fill="white" stroke="#3B65EE" stroke-width="2.5" stroke-miterlimit="10" stroke-linecap="round" stroke-linejoin="round"/>
<path d="M162.83 296.45C166.82 294.35 168.92 288.39 167.53 283.15C166.14 277.9 161.78 275.35 157.8 277.45C153.81 279.55 151.71 285.51 153.1 290.75C154.49 296 158.84 298.55 162.83 296.45Z" fill="white" stroke="#3B65EE" stroke-width="2.5" stroke-miterlimit="10" stroke-linecap="round" stroke-linejoin="round"/>
<path d="M156.2 300.62C156.2 295.76 158.38 294.41 160.56 294.27C163.08 294.11 165.41 295.67 166.45 297.97C167.81 300.96 169.13 305.87 166 310.02L156.2 300.62Z" fill="white" stroke="#3B65EE" stroke-width="2.5" stroke-miterlimit="10" stroke-linecap="round" stroke-linejoin="round"/>
<path d="M151.27 299.24C153.76 297.89 155.6 295.51 156.1 292.72C156.49 290.55 156.06 288.46 153.12 288.25C145.68 287.72 140.68 296.17 140.68 296.17L148.61 300.69C148.8 300.61 150.02 299.92 151.27 299.24Z" fill="white" stroke="#3B65EE" stroke-width="2.5" stroke-miterlimit="10" stroke-linecap="round" stroke-linejoin="round"/>
<path d="M140.07 438.68L133.36 390.64L119.4 393.19L127.42 427.47L140.07 438.68Z" fill="#D1DAED" stroke="#3B65EE" stroke-width="2.5" stroke-miterlimit="10" stroke-linecap="round" stroke-linejoin="round"/>
<path d="M160.15 448.14H132.88L127.42 427.47L138.23 425.5L140.07 438.68L155.23 441.42L156.63 426.49L160.15 448.14Z" fill="#B0C3EA" stroke="#3B65EE" stroke-width="2.5" stroke-miterlimit="10" stroke-linecap="round" stroke-linejoin="round"/>
<path d="M87.7002 438.68L94.4102 390.64L108.37 393.19L100.35 427.47L87.7002 438.68Z" fill="#D1DAED" stroke="#3B65EE" stroke-width="2.5" stroke-miterlimit="10" stroke-linecap="round" stroke-linejoin="round"/>
<path d="M67.6201 448.14H94.8901L100.35 427.47L89.5401 425.5L87.7001 438.68L72.5401 441.42L71.1401 426.49L67.6201 448.14Z" fill="#B0C3EA" stroke="#3B65EE" stroke-width="2.5" stroke-miterlimit="10" stroke-linecap="round" stroke-linejoin="round"/>
<path d="M165.99 310.02L156.2 300.62L139.17 331.21L132.26 328.28L149.02 300.94L140.68 296.17L117.54 318.02L125.09 339.7C124.04 339.42 122.97 339.2 121.86 339.06C107.91 337.23 95.1302 347.05 93.2902 360.99L87.9902 401.35L97.4402 394.55L104.82 403.56L114.27 396.76L121.65 405.77L131.1 398.97L138.48 407.98L143.51 369.68L165.99 310.02Z" fill="#D1DAED" stroke="#3B65EE" stroke-width="2.5" stroke-miterlimit="10" stroke-linecap="round" stroke-linejoin="round"/>
<path d="M145.98 351.01C146.07 354.3 145.91 357.56 145.67 360.81C145.44 364.06 145.07 367.29 144.68 370.52C144.23 373.74 143.76 376.96 143.14 380.16C142.54 383.36 141.84 386.55 140.9 389.7C140.81 386.41 140.96 383.15 141.2 379.9C141.43 376.65 141.8 373.42 142.2 370.19C142.65 366.97 143.12 363.75 143.75 360.55C144.35 357.35 145.04 354.16 145.98 351.01Z" fill="#3B65EE"/>
<path d="M90.3672 383.068L140.864 389.699L142.031 380.815L91.5338 374.184L90.3672 383.068Z" fill="white" stroke="#3B65EE" stroke-width="2.5" stroke-miterlimit="10" stroke-linecap="round" stroke-linejoin="round"/>
<path d="M100.601 328.8C102.931 319.82 113.991 314.92 125.291 317.86C125.351 317.88 125.401 317.9 125.461 317.91C127.581 313.71 129.951 310.17 132.991 311.39C135.791 312.51 135.171 316.61 133.261 321.44C139.751 325.83 143.261 332.81 141.551 339.43C139.221 348.41 123.001 342.08 116.861 350.37C105.541 347.43 102.491 338.84 100.601 328.8Z" fill="white" stroke="#3B65EE" stroke-width="2.5" stroke-miterlimit="10" stroke-linecap="round" stroke-linejoin="round"/>
<path d="M101.161 327.11C101.161 327.11 100.631 318.38 104.901 318.38C109.171 318.38 113.031 330.37 113.031 330.37C113.031 330.37 113.981 321.73 118.251 323.86C122.521 325.99 126.551 336.89 126.551 336.89C126.551 336.89 143.451 333.47 146.101 336.89C148.751 340.31 139.771 343.43 139.771 343.43L118.571 339.88L101.161 327.11Z" fill="#D1DAED" stroke="#3B65EE" stroke-width="2" stroke-miterlimit="10" stroke-linecap="round" stroke-linejoin="round"/>
<path d="M135.201 330.36C134.031 329.52 133.1 328.49 132.22 327.42C131.37 326.33 130.571 325.19 130.021 323.85C131.191 324.69 132.13 325.72 133 326.79C133.85 327.89 134.641 329.03 135.201 330.36Z" fill="#3B65EE"/>
<path d="M139.78 343.43L82.0703 370.03L101.16 327.11C101.16 327.11 126.31 321.95 139.78 343.43Z" fill="#D1DAED" stroke="#3B65EE" stroke-width="2.5" stroke-miterlimit="10" stroke-linecap="round" stroke-linejoin="round"/>
<path d="M132.83 346.63L139.78 343.43C138.94 342.09 138.05 340.85 137.13 339.71C136.71 339.2 136.29 338.71 135.86 338.23C135.73 338.09 135.6 337.95 135.47 337.81C135.15 337.47 134.82 337.13 134.5 336.81C134.37 336.68 134.24 336.55 134.11 336.42C133.22 335.57 132.31 334.79 131.38 334.07C131.24 333.96 131.1 333.86 130.96 333.76C130.62 333.5 130.27 333.25 129.92 333.01C129.78 332.91 129.64 332.82 129.5 332.72C129.03 332.41 128.56 332.1 128.08 331.82C127.78 331.64 127.48 331.48 127.18 331.32C126.46 330.92 125.75 330.55 125.03 330.21C124.88 330.14 124.74 330.08 124.59 330.01C124.24 329.85 123.88 329.7 123.53 329.55C123.38 329.49 123.24 329.43 123.09 329.37C122.62 329.18 122.15 329 121.68 328.84C121.66 328.83 121.64 328.83 121.62 328.82C121.15 328.66 120.68 328.51 120.22 328.36C120.07 328.32 119.93 328.27 119.78 328.23C119.43 328.13 119.09 328.03 118.75 327.94C118.61 327.9 118.47 327.86 118.33 327.83C117.87 327.72 117.42 327.61 116.97 327.51C116.96 327.51 116.96 327.51 116.95 327.51C116.01 327.31 115.09 327.15 114.19 327.02C112.9 326.83 111.66 326.72 110.5 326.65C109.84 326.61 109.2 326.58 108.59 326.57C108.58 326.57 108.57 326.57 108.56 326.57C108.21 326.56 107.87 326.56 107.54 326.57C107.45 326.57 107.35 326.57 107.26 326.57C106.97 326.57 106.69 326.58 106.42 326.59C106.37 326.59 106.33 326.59 106.28 326.59C105.97 326.6 105.68 326.61 105.39 326.63C105.31 326.63 105.23 326.64 105.16 326.64C104.93 326.65 104.71 326.67 104.5 326.69C104.45 326.69 104.39 326.7 104.34 326.7C104.09 326.72 103.85 326.74 103.63 326.76C103.57 326.77 103.52 326.77 103.47 326.78C103.29 326.8 103.12 326.82 102.95 326.84C102.91 326.85 102.86 326.85 102.82 326.86C102.63 326.88 102.46 326.91 102.3 326.93C102.27 326.93 102.24 326.94 102.21 326.94C102.08 326.96 101.96 326.98 101.86 326.99C101.83 326.99 101.8 327 101.77 327C101.66 327.02 101.55 327.04 101.47 327.05C101.45 327.05 101.44 327.06 101.43 327.06C101.36 327.07 101.31 327.08 101.27 327.09C101.26 327.09 101.24 327.1 101.23 327.1C101.21 327.1 101.18 327.11 101.18 327.11L98.5103 333.12C104.61 332.5 121.71 332.53 132.83 346.63Z" fill="white" stroke="#3B65EE" stroke-width="2.5" stroke-miterlimit="10" stroke-linecap="round" stroke-linejoin="round"/>
<path d="M77.3604 379.63C79.9616 379.63 82.0704 377.521 82.0704 374.92C82.0704 372.319 79.9616 370.21 77.3604 370.21C74.7591 370.21 72.6504 372.319 72.6504 374.92C72.6504 377.521 74.7591 379.63 77.3604 379.63Z" fill="white" stroke="#3B65EE" stroke-width="2.5" stroke-miterlimit="10" stroke-linecap="round" stroke-linejoin="round"/>
<path d="M123 321.77C121.83 322.16 120.67 322.25 119.5 322.27C118.33 322.26 117.17 322.17 116 321.77C117.17 321.37 118.33 321.28 119.5 321.27C120.67 321.28 121.83 321.37 123 321.77Z" fill="#3B65EE"/>
<path d="M238.02 300.62C238.02 295.76 235.84 294.41 233.66 294.27C231.14 294.11 228.81 295.67 227.77 297.97C226.41 300.96 225.09 305.87 228.22 310.02L238.02 300.62Z" fill="white" stroke="#3B65EE" stroke-width="2.5" stroke-miterlimit="10" stroke-linecap="round" stroke-linejoin="round"/>
<path d="M254.16 438.68L260.86 390.64L274.82 393.19L266.8 427.47L254.16 438.68Z" fill="#D1DAED" stroke="#3B65EE" stroke-width="2.5" stroke-miterlimit="10" stroke-linecap="round" stroke-linejoin="round"/>
<path d="M234.07 448.14H261.35L266.8 427.47L256 425.5L254.16 438.68L238.99 441.42L237.59 426.49L234.07 448.14Z" fill="#B0C3EA" stroke="#3B65EE" stroke-width="2.5" stroke-miterlimit="10" stroke-linecap="round" stroke-linejoin="round"/>
<path d="M306.52 438.68L299.81 390.64L285.85 393.19L293.88 427.47L306.52 438.68Z" fill="#D1DAED" stroke="#3B65EE" stroke-width="2.5" stroke-miterlimit="10" stroke-linecap="round" stroke-linejoin="round"/>
<path d="M326.6 448.14H299.33L293.88 427.47L304.68 425.5L306.52 438.68L321.68 441.42L323.08 426.49L326.6 448.14Z" fill="#B0C3EA" stroke="#3B65EE" stroke-width="2.5" stroke-miterlimit="10" stroke-linecap="round" stroke-linejoin="round"/>
<path d="M300.93 360.99C299.1 347.05 286.31 337.23 272.36 339.06C271.26 339.21 270.18 339.43 269.13 339.7L276.68 318.02L253.54 296.17L245.2 300.94L261.96 328.28L255.05 331.21L238.02 300.62L228.23 310.02L250.7 369.69L255.73 407.99L263.11 398.98L272.56 405.78L279.94 396.77L289.39 403.57L296.77 394.56L306.22 401.36L300.93 360.99Z" fill="#D1DAED" stroke="#3B65EE" stroke-width="2.5" stroke-miterlimit="10" stroke-linecap="round" stroke-linejoin="round"/>
<path d="M242.84 299.24C240.35 297.89 238.51 295.51 238.01 292.72C237.62 290.55 238.05 288.46 240.99 288.25C248.43 287.72 253.43 296.17 253.43 296.17L245.5 300.69C245.3 300.61 244.08 299.92 242.84 299.24Z" fill="white" stroke="#3B65EE" stroke-width="2.5" stroke-miterlimit="10" stroke-linecap="round" stroke-linejoin="round"/>
<path d="M248.25 351.01C249.19 354.17 249.88 357.35 250.48 360.55C251.1 363.75 251.58 366.96 252.03 370.19C252.43 373.42 252.8 376.65 253.03 379.9C253.27 383.15 253.43 386.41 253.33 389.7C252.39 386.54 251.7 383.36 251.09 380.16C250.47 376.96 249.99 373.75 249.55 370.52C249.15 367.29 248.78 364.06 248.55 360.81C248.31 357.56 248.16 354.3 248.25 351.01Z" fill="#3B65EE"/>
<path d="M302.656 374.21L252.159 380.841L253.325 389.725L303.822 383.093L302.656 374.21Z" fill="white" stroke="#3B65EE" stroke-width="2.5" stroke-miterlimit="10" stroke-linecap="round" stroke-linejoin="round"/>
<path d="M293.62 328.8C291.29 319.82 280.23 314.92 268.93 317.86C268.87 317.88 268.82 317.9 268.76 317.91C266.64 313.71 264.27 310.17 261.23 311.39C258.43 312.51 259.05 316.61 260.96 321.44C254.47 325.83 250.96 332.81 252.67 339.43C255 348.41 271.22 342.08 277.36 350.37C288.68 347.43 291.73 338.84 293.62 328.8Z" fill="white" stroke="#3B65EE" stroke-width="2.5" stroke-miterlimit="10" stroke-linecap="round" stroke-linejoin="round"/>
<path d="M293.06 327.11C293.06 327.11 293.59 318.38 289.32 318.38C285.05 318.38 281.19 330.37 281.19 330.37C281.19 330.37 282.49 322.43 278.22 324.56C273.95 326.69 267.67 336.88 267.67 336.88C267.67 336.88 250.77 333.46 248.12 336.88C245.47 340.3 254.45 343.42 254.45 343.42L275.65 339.87L293.06 327.11Z" fill="#D1DAED" stroke="#3B65EE" stroke-width="2" stroke-miterlimit="10" stroke-linecap="round" stroke-linejoin="round"/>
<path d="M254.44 343.43L312.15 370.03L293.06 327.11C293.06 327.11 267.91 321.95 254.44 343.43Z" fill="#D1DAED" stroke="#3B65EE" stroke-width="2.5" stroke-miterlimit="10" stroke-linecap="round" stroke-linejoin="round"/>
<path d="M261.4 346.63L254.45 343.43C255.29 342.09 256.18 340.85 257.1 339.71C257.52 339.2 257.94 338.71 258.37 338.23C258.5 338.09 258.63 337.95 258.76 337.81C259.08 337.47 259.41 337.13 259.73 336.81C259.86 336.68 259.99 336.55 260.12 336.42C261.01 335.57 261.92 334.79 262.85 334.07C262.99 333.96 263.13 333.86 263.27 333.76C263.61 333.5 263.96 333.25 264.31 333.01C264.45 332.91 264.59 332.82 264.73 332.72C265.2 332.41 265.67 332.1 266.15 331.82C266.45 331.64 266.75 331.48 267.05 331.32C267.77 330.92 268.48 330.55 269.2 330.21C269.35 330.14 269.49 330.08 269.64 330.01C269.99 329.85 270.35 329.7 270.7 329.55C270.85 329.49 270.99 329.43 271.14 329.37C271.61 329.18 272.08 329 272.55 328.84C272.57 328.83 272.59 328.83 272.61 328.82C273.08 328.66 273.55 328.51 274.01 328.36C274.16 328.32 274.3 328.27 274.45 328.23C274.8 328.13 275.14 328.03 275.48 327.94C275.62 327.9 275.76 327.86 275.9 327.83C276.36 327.72 276.81 327.61 277.26 327.51C277.27 327.51 277.27 327.51 277.28 327.51C278.22 327.31 279.14 327.15 280.04 327.02C281.33 326.83 282.57 326.72 283.73 326.65C284.39 326.61 285.03 326.58 285.64 326.57C285.65 326.57 285.66 326.57 285.67 326.57C286.02 326.56 286.36 326.56 286.69 326.57C286.78 326.57 286.88 326.57 286.97 326.57C287.26 326.57 287.54 326.58 287.81 326.59C287.86 326.59 287.9 326.59 287.95 326.59C288.26 326.6 288.55 326.61 288.84 326.63C288.92 326.63 289 326.64 289.07 326.64C289.3 326.65 289.52 326.67 289.73 326.69C289.78 326.69 289.84 326.7 289.89 326.7C290.14 326.72 290.38 326.74 290.6 326.76C290.66 326.77 290.71 326.77 290.76 326.78C290.94 326.8 291.11 326.82 291.28 326.84C291.32 326.85 291.37 326.85 291.41 326.86C291.6 326.88 291.77 326.91 291.93 326.93C291.96 326.93 291.99 326.94 292.02 326.94C292.15 326.96 292.27 326.98 292.37 326.99C292.4 326.99 292.43 327 292.46 327C292.57 327.02 292.68 327.04 292.76 327.05C292.78 327.05 292.79 327.06 292.8 327.06C292.87 327.07 292.92 327.08 292.96 327.09C292.97 327.09 292.99 327.1 293 327.1C293.02 327.1 293.05 327.11 293.05 327.11L295.72 333.12C289.61 332.5 272.51 332.53 261.4 346.63Z" fill="white" stroke="#3B65EE" stroke-width="2.5" stroke-miterlimit="10" stroke-linecap="round" stroke-linejoin="round"/>
<path d="M259.02 330.36C259.57 329.03 260.37 327.89 261.22 326.79C262.1 325.71 263.03 324.68 264.2 323.85C263.65 325.18 262.85 326.32 262 327.42C261.13 328.49 260.2 329.52 259.02 330.36Z" fill="#3B65EE"/>
<path d="M316.87 379.63C319.471 379.63 321.58 377.521 321.58 374.92C321.58 372.319 319.471 370.21 316.87 370.21C314.269 370.21 312.16 372.319 312.16 374.92C312.16 377.521 314.269 379.63 316.87 379.63Z" fill="white" stroke="#3B65EE" stroke-width="2.5" stroke-miterlimit="10" stroke-linecap="round" stroke-linejoin="round"/>
<path d="M271.22 321.77C272.39 321.38 273.55 321.29 274.72 321.27C275.89 321.28 277.05 321.37 278.22 321.77C277.05 322.17 275.89 322.26 274.72 322.27C273.55 322.25 272.39 322.16 271.22 321.77Z" fill="#3B65EE"/>
</svg>
