<?xml version="1.0" encoding="UTF-8"?>
<svg id="Layer_2" xmlns="http://www.w3.org/2000/svg" viewBox="0 0 120.26 122.89" width="100" height="100">
  <defs>
    <style>
      .cls-1 {
        stroke-width: .41px;
      }

      .cls-1, .cls-2, .cls-3 {
        stroke: #3b65ee;
        stroke-miterlimit: 10;
      }

      .cls-1, .cls-3 {
        fill: none;
      }

      .cls-2 {
        fill: #fff;
        stroke-width: 1.5px;
      }

      .cls-4, .cls-5 {
        fill: #3b65ee;
      }

      .cls-3 {
        stroke-width: .83px;
      }

      .cls-5 {
        opacity: .2;
      }
    </style>
  </defs>
  <g id="Layer_4">
    <g>
      <path class="cls-2" d="M97.67,57.37s11.97-16.8,21.81-19.52c0,0-1.13,38.41-13.81,42.85,0,0,2.69,8.6,3.62,13.12,0,0-11.16-.55-12.82-.93,0,0,2.32,10.67,2.41,14.39,0,0-11.44-3.44-14.28-5.84,0,0-5.26,20.35-19.66,20.7-14.4.35-22.69-18.43-22.69-18.43,0,0-7.96,8.35-14.55,10.83,0,0-2.83-12.47-2.51-16.61,0,0-7.76,3.49-11.46,3.99,0,0,2.57-13.27,5.76-17.89,0,0-23.25-5.62-17.96-42.49,0,0,13.32,9.16,15.73,12.61,0,0-6.02-20.69-6.18-27.29,0,0,9.11,1.43,12.06,3.83,0,0-.76-14.43.33-20.23,0,0,11.58.96,17.04,4.95,0,0,11.3-10.59,19.46-14.51,0,0,5.94,6.46,8.18,13.83,0,0,9.89-5.19,15.58-6.36,0,0,5.09,7.92,6.91,14.9,0,0,5.23-5.49,10.97-7.28,0,0,1.49,10.28-.02,16.1,0,0,3.25-2.14,6.95-2.65,0,0,1.58,13.99-10.88,27.92Z"/>
      <path class="cls-4" d="M5.44,51.92c3.41,2.89,6.51,6.43,8.11,10.68.04.12.02.24-.04.34-1.39,2.46-2.21,5.84-.53,8.36.5.87,1.32,1.49,2.12,2.12-1.88-.88-3.43-2.65-3.66-4.79-.27-2.13.37-4.23,1.37-6.1,0,0-.04.34-.04.34-1.54-4.15-4.46-7.63-7.34-10.94h0Z"/>
      <path class="cls-4" d="M113.75,49.28c-2.8,3.6-5.98,7.09-8.12,11.1-.54,1-.8,1.98-.32,2.99.75,1.71,2.57,3.69,1.7,5.78-.54,1.41-1.8,2.38-2.96,3.21.81-.82,1.7-1.59,2.2-2.61,1.35-2.24-.71-4.07-1.64-6.1-1.12-2.39.9-4.74,2.17-6.61,2.06-2.81,4.43-5.38,6.96-7.76h0Z"/>
      <path class="cls-3" d="M17.76,55.27l4.2,11.38s5.74-24.92,15.83-30.94c0,0,22.15,14.74,25.63,21.67,0,0,18.75-19.87,25.15-22.91,0,0,7.17,11.39,9.1,22.9"/>
      <path class="cls-4" d="M52.37,79.11l3.51,5.28,4.21.53s.86,6.36,3.33,6.3,2.82-7.09,2.82-7.09l4.54-.11,2.75-6.67s-12.65-3.41-21.17,1.75Z"/>
      <polygon class="cls-4" points="58.66 65.34 53.39 69.18 32.15 61.44 35.22 51.87 58.66 65.34"/>
      <circle class="cls-4" cx="46.39" cy="70.17" r="4.95"/>
      <polygon class="cls-4" points="67.32 65.12 72.77 68.71 93.61 59.94 90.08 50.54 67.32 65.12"/>
      <circle class="cls-4" cx="79.81" cy="69.36" r="4.95"/>
      <path class="cls-4" d="M50.76,80.29c-5.48,3.37-8.39,9.67-8.58,15.96-.05.91,0,1.82-.04,2.74-.14-.9-.27-1.82-.36-2.73-.48-6.45,2.8-13.44,8.98-15.96h0Z"/>
      <path class="cls-4" d="M82.09,98.13c1.49-6.26-.91-12.77-5.22-17.35-.61-.67-1.28-1.29-1.9-1.97.74.54,1.48,1.09,2.19,1.68,4.9,4.22,7.52,11.48,4.93,17.64h0Z"/>
      <path class="cls-4" d="M43.96,102.43c10.85,3.47,22.87,4.24,33.73.44.73-.29,2.56-1.05,3.31-1.34-11.19,6.35-25.41,5.85-37.04.9h0Z"/>
      <path class="cls-4" d="M63.62,105.8c-.68-4.84-.81-9.71-.36-14.57.69,4.84.8,9.7.36,14.57h0Z"/>
      <polyline class="cls-1" points="46.38 103.28 51.58 113.96 55.6 105.34 59.08 112.2 62.1 105.81 67.24 112.59 70.02 105.18 73.48 113.42 79.28 102.36"/>
      <path class="cls-4" d="M21.89,80.68c.53-1.49,1.68-3.48,2.38-4.92.83-1.62,1.69-3.23,2.56-4.83.07-.12.22-.17.34-.1,1.08,3.76,1.7,7.79,2.57,11.65,0,0-.6-.22-.6-.22l5.52-4.29c.18-.14.43-.11.57.07.05.06.08.14.08.21l1,11.33-.64-.19,2.61-3.13c.11-.14.32-.16.46-.05,1.1,5.06,1.78,10.31,2.64,15.45-1.12-5.03-2.15-10.09-3.16-15.14l.57.14-2.55,3.18c-.19.25-.62.12-.64-.19,0,0-1.1-11.32-1.1-11.32l.66.29-5.57,4.23c-.21.17-.55.04-.6-.22-.77-3.83-1.49-7.68-2.2-11.52l.47.07c-1.53,2.76-4.01,6.7-5.37,9.49h0Z"/>
      <path class="cls-4" d="M101.8,74.19c-1.22-2.15-3.5-5.12-4.9-7.19,0,0,.41-.12.41-.12.01,3.85.05,7.71.01,11.56,0,.23-.23.41-.46.35,0,0-7.48-1.84-7.48-1.84l.51-.41.39,10.52c.03.33-.42.51-.63.26,0,0-2.7-3.05-2.7-3.05l.58-.18c-.77,5.1-1.55,10.19-2.43,15.28.52-5.13,1.15-10.25,1.77-15.37.02-.18.19-.31.37-.29.08.01.16.05.21.11,0,0,2.75,3.01,2.75,3.01l-.63.26-.48-10.51c-.02-.27.25-.48.51-.41,0,0,7.47,1.92,7.47,1.92l-.46.35c.05-3.85.17-7.71.27-11.56,0-.13.1-.23.23-.23,1.01,1.04,1.67,2.56,2.53,3.77.64,1.12,1.7,2.59,2.18,3.77h0Z"/>
      <path class="cls-5" d="M33.93,62.09s6.42,21.01,9.03,18.79,9.4-11.47,15.7-15.54l-24.73-3.25Z"/>
      <path class="cls-5" d="M69.21,66.37s8.02,7.36,11.62,11,11.97-17.08,11.97-17.08l-23.58,6.08Z"/>
      <path class="cls-5" d="M61.92,65.67s-11.09,9.11-11.24,11.4c-.15,2.29,6.66-4.06,13.31-3.19s10.34,3.54,10.82,2.42-9.41-9.68-12.89-10.62Z"/>
      <path class="cls-5" d="M63.03,81.39s-15.99.54-17.88,13.79c-1.89,13.25,7.46,26.65,19.33,26.98s18.21-10.56,15.64-31.54c-1.09-8.85-17.09-9.22-17.09-9.22Z"/>
      <path class="cls-5" d="M7.09,53.59s-2.57,9.16.36,14.86c2.93,5.7,7.66,4.96,7.66,4.96,0,0-4.95-5.86-1.94-10.68,0,0-3.04-7.15-6.08-9.14Z"/>
      <path class="cls-5" d="M112.16,50.62s1.22,11.95-1.43,17.79c-2.65,5.84-6.3,3.86-6.3,3.86,0,0,6.12-3.04.15-10.73,0,0,4.64-8.78,7.58-10.92Z"/>
      <path class="cls-5" d="M36.17,42.58l21.72,20.27s-3.66-13.69-21.72-20.27Z"/>
      <path class="cls-5" d="M87.9,41.32l-20.7,21.31s2.99-13.85,20.7-21.31Z"/>
      <path class="cls-5" d="M17.55,97.5s5.02-14.16,7.81-18.35l-.99,10.34,3.61-4.22-.96,2.91,6.3-4.28s-1.88,7.48-15.77,13.59Z"/>
      <path class="cls-5" d="M32.64,90.11s-3.62,3.8-4.66,12.08c0,0,2.42-2.3,2.42-2.42s-1.43,9-1.37,11.47c0,0,6.79-9.25,7.57-11.33,0,0-.51,5.24-1.4,6.57,0,0,3.86-7.04,3.31-12.81l-6.01,7.58s-.2-8.25.14-11.15Z"/>
      <path class="cls-5" d="M87.19,92.91s2.22,6.55,10.21,12.55c0,0-3.14-10.24-4.42-11.86,0,0,.84.39,1.69,1.61,0,0-1.42-4.31-5.99-6.98l3.52,7.45-5.02-2.77Z"/>
      <path class="cls-5" d="M92.25,80.41s2.25,7.71,12.67,11.83l-3.75-5.85,4.09,2.79-5.93-13.78,1.52,7.49-8.6-2.47Z"/>
      <path class="cls-5" d="M20.19,53.27s-3.03-9.67-4.56-19.62l6.53,7.58-1.37-5.56,7.14,2.62-2.05-22.44,9.11,18.25s-9.94,6.86-13.01,24.91l-1.79-5.73Z"/>
      <path class="cls-5" d="M58.71,4.37s6.85,30.87,5.2,47.83l-30.86-32.89s16.62,7.24,20.01,10.87l5.65-25.81Z"/>
      <path class="cls-4" d="M52.97,111.49s4.48,5.68,10.76,5.11,9.06-4.77,9.06-4.77l-2.63-6.31-3.14,6.86-4.9-6.55-2.94,6.33-3.88-6.92-2.32,6.25Z"/>
    </g>
  </g>
</svg>