<svg width="122" height="116" viewBox="0 0 122 116" fill="none" xmlns="http://www.w3.org/2000/svg">
<g clip-path="url(#clip0_9_354)">
<path d="M52.3501 115.16C67.6207 115.16 80.0001 113.741 80.0001 111.99C80.0001 110.239 67.6207 108.82 52.3501 108.82C37.0794 108.82 24.7001 110.239 24.7001 111.99C24.7001 113.741 37.0794 115.16 52.3501 115.16Z" fill="white" stroke="#3B65EE" stroke-width="1.16" stroke-miterlimit="10"/>
<path opacity="0.2" d="M52.3501 112.67C63.7382 112.67 72.9701 111.806 72.9701 110.74C72.9701 109.674 63.7382 108.81 52.3501 108.81C40.962 108.81 31.7301 109.674 31.7301 110.74C31.7301 111.806 40.962 112.67 52.3501 112.67Z" fill="#3B65EE"/>
<path d="M101.76 21.11C101.76 17.98 79.1301 15.44 51.2201 15.44C23.3101 15.44 0.680054 17.98 0.680054 21.11C0.680054 21.4 0.880054 21.69 1.25005 21.96C5.54005 28.31 33.0801 68.03 51.2201 68.03C69.3601 68.03 96.9001 28.31 101.19 21.96C101.57 21.68 101.76 21.4 101.76 21.11Z" fill="white" stroke="#3B65EE" stroke-width="1.36" stroke-miterlimit="10"/>
<path d="M45.2001 67.25L50.0901 111.09C50.0901 111.09 51.5701 112.45 53.5501 111.09L57.3401 67.12C57.3401 67.12 50.7401 70.1 45.2001 67.25Z" fill="white" stroke="#3B65EE" stroke-width="1.36" stroke-miterlimit="10"/>
<path d="M27.8801 26.78C27.8801 26.78 33.5201 4.05002 39.3101 6.35002C45.1001 8.65002 41.9301 12.28 46.4601 9.11002C50.9901 5.94002 53.7101 1.40002 57.7901 2.31002C61.8701 3.22002 60.0601 5.48002 62.7801 5.94002C65.5001 6.40002 67.7701 2.77002 70.4901 4.13002C73.2101 5.49002 72.3001 8.66002 72.3001 11.38C72.3001 14.1 74.1101 14.55 75.4701 15.91C76.8301 17.27 79.1001 21.58 75.4701 23.5C71.8401 25.42 69.1501 21.8 68.2301 26.78C67.3101 31.76 65.9501 34.94 61.4201 34.49C56.8901 34.04 55.0701 32.22 51.0001 34.04C46.9301 35.86 37.4001 37.21 35.1401 35.85C32.8801 34.49 27.4301 35.4 26.0701 33.13C24.7101 30.86 27.8801 26.78 27.8801 26.78Z" fill="white" stroke="#3B65EE" stroke-width="1.36" stroke-miterlimit="10"/>
<path d="M28.5801 32.32C38.7601 22.19 52.7301 12.46 67.3101 10.91C52.7701 14.52 40.3701 23.41 28.5801 32.32Z" fill="#3B65EE"/>
<path d="M37.54 25.07C37.87 22.28 38.67 19.51 39.35 16.83C39.58 15.93 39.81 15.03 40.11 14.09C40.63 16 40.42 17.99 39.97 19.86C39.47 21.73 38.75 23.54 37.54 25.08V25.07Z" fill="#3B65EE"/>
<path d="M49.9701 17.15C51.7201 13.72 54.2501 11.13 55.9801 7.74002C56.2101 9.71002 55.1701 11.6 54.1001 13.18C52.9701 14.74 51.6401 16.15 49.9701 17.15Z" fill="#3B65EE"/>
<path d="M41.9901 21.95C46.2701 20.45 51.4801 22.3 54.1601 25.87C50.2601 23.86 46.4201 22.43 41.9901 21.95Z" fill="#3B65EE"/>
<path d="M51.9 16.35C57.04 14.25 63.44 13.5 68.49 16.2C62.94 15.37 57.47 16.11 51.9 16.35Z" fill="#3B65EE"/>
<path opacity="0.2" d="M28.5801 29.81C28.5801 29.81 31.8801 27.43 32.6001 25.06C33.3201 22.69 32.0001 13.63 37.6501 14.08C43.3001 14.53 45.8101 18.16 47.9501 16.35C50.0901 14.54 55.0801 7.28002 59.1601 9.55002C63.2401 11.82 67.3201 7.63002 68.4501 12.44C69.5801 17.25 67.7701 16.35 66.4101 20.43C65.0501 24.51 68.2801 29.5 64.1701 31.08C60.0601 32.66 53.9401 29.38 49.9801 32.16C46.0201 34.94 40.4701 37.3 36.9001 35.44C33.3301 33.58 24.3001 34.21 28.5901 29.82L28.5801 29.81Z" fill="#3B65EE"/>
<path d="M13.28 0.970013L41.97 33.94C42.38 34.41 42.17 35.15 41.56 35.32C37.1 36.59 21.91 39.97 12.46 30.53C2.90002 20.97 9.71003 5.42001 11.87 1.15001C12.14 0.610013 12.88 0.510013 13.28 0.970013Z" fill="white" stroke="#3B65EE" stroke-width="1.36" stroke-miterlimit="10"/>
<path d="M14.24 28.85C4.62998 19.24 14.24 2.62003 14.24 2.62003" stroke="#3B65EE" stroke-width="1.17" stroke-miterlimit="10"/>
<path d="M10.02 16.32H26.64L14.25 28.85C23.86 38.46 40.37 32.64 40.37 32.64" stroke="#3B65EE" stroke-width="1.17" stroke-linecap="round" stroke-linejoin="round"/>
<path d="M26.64 16.32V34.26" stroke="#3B65EE" stroke-width="1.17" stroke-linecap="round" stroke-linejoin="round"/>
<path opacity="0.2" d="M12.69 3.89001L39.61 34.39C39.61 34.39 23.8 39.47 13.83 29.96C3.86001 20.45 12.7 3.90001 12.7 3.90001L12.69 3.89001Z" fill="#3B65EE"/>
<path d="M101.76 21.11C101.76 24.24 79.1301 26.78 51.2201 26.78C23.3101 26.78 0.680054 24.24 0.680054 21.11" stroke="#3B65EE" stroke-width="1.36" stroke-miterlimit="10"/>
<path d="M69.35 25.14C69.35 25.14 68.06 13.12 78.34 10.89C78.34 10.89 82.72 -3.12999 94.96 2.76001C94.96 2.76001 104.03 0.490009 109.46 7.29001C109.46 7.29001 118.07 9.10001 118.98 17.26C118.98 17.26 122.61 25.42 120.79 29.95C120.79 29.95 118.98 51.25 112.18 50.8C105.38 50.35 109.91 41.28 106.29 34.03C106.29 34.03 102.59 31.31 99.45 28.14C99.45 28.14 92.24 23.61 87.25 24.51C87.25 24.51 75.92 26.67 69.35 25.14Z" fill="white" stroke="#3B65EE" stroke-width="1.36" stroke-miterlimit="10"/>
<path d="M112.18 50.8C114.9 45.81 112.63 33.58 112.63 33.58C113.08 26.78 108.55 22.7 108.55 22.7C106.74 15.45 100.84 13.28 100.84 13.28C95.8501 7.94002 87.4101 9.52002 87.4101 9.52002C83.9501 7.68002 78.3201 10.88 78.3201 10.88" stroke="#3B65EE" stroke-width="1.36" stroke-miterlimit="10"/>
<path d="M80.01 25.47C80.01 25.47 78.98 13.12 87.42 9.53001C87.42 9.53001 86.8 4.57001 94.96 2.76001" stroke="#3B65EE" stroke-width="1.36" stroke-miterlimit="10"/>
<path d="M87.25 24.51C87.25 24.51 89.97 12.48 100.85 13.28C100.85 13.28 101.3 6.38 109.46 7.28" stroke="#3B65EE" stroke-width="1.36" stroke-miterlimit="10"/>
<path d="M106.29 34.03C106.29 34.03 109.01 29.95 112.64 33.58C112.64 33.58 116.72 25.87 120.8 29.95" stroke="#3B65EE" stroke-width="1.36" stroke-miterlimit="10"/>
<path d="M108.03 44.57C108.03 44.57 91.79 56.24 97.23 65.3C102.67 74.36 110.37 50.34 110.37 50.34C110.37 50.34 104.58 66.68 111.1 68.03C117.62 69.38 116.86 51.99 115.43 49.13C115.43 49.13 109.32 53.76 108.03 44.57Z" fill="white" stroke="#3B65EE" stroke-width="1.36" stroke-miterlimit="10"/>
<path opacity="0.2" d="M108.03 44.57C108.03 44.57 91.79 56.24 97.23 65.3C102.67 74.36 110.37 50.34 110.37 50.34C110.37 50.34 104.58 66.68 111.1 68.03C117.62 69.38 116.86 51.99 115.43 49.13C115.43 49.13 109.32 53.76 108.03 44.57Z" fill="#3B65EE"/>
<path opacity="0.2" d="M71.24 25.47C71.24 25.47 75.03 10.03 84.65 11.27C84.65 11.27 95.18 10.09 98.35 13.34C98.35 13.34 105.15 16.22 106.28 22.3C106.28 22.3 110.77 25.24 111.13 32.48C111.13 32.48 115 44.43 111.43 50.23C111.43 50.23 108.19 49.76 107.91 41.68C107.63 33.6 104.84 32.54 101.25 29.89C97.66 27.24 93.12 24.74 90.86 24.63C88.6 24.52 81.7 25.31 81.7 25.31C81.7 25.31 72.89 25.98 71.23 25.47H71.24Z" fill="#3B65EE"/>
<path d="M99.45 28.14C99.45 28.14 100.85 22.7 108.55 22.7C108.55 22.7 112.18 14.99 118.97 17.26" stroke="#3B65EE" stroke-width="1.36" stroke-miterlimit="10"/>
<path d="M11.78 29.72C11.78 29.72 35.97 63.61 51.44 63.61C66.91 63.61 91.1 29.72 91.1 29.72C91.1 29.72 64.81 35.16 11.78 29.72Z" fill="#3B65EE" stroke="#3B65EE" stroke-width="1.81" stroke-linecap="round" stroke-linejoin="round"/>
<path opacity="0.2" d="M93.6 25.07L91.11 30.63L66.63 32.88L68.44 27L93.6 25.07Z" fill="#3B65EE"/>
</g>
<defs>
<clipPath id="clip0_9_354">
<rect width="121.98" height="115.74" fill="white"/>
</clipPath>
</defs>
</svg>
