<?xml version="1.0" encoding="UTF-8"?><svg id="Layer_1" xmlns="http://www.w3.org/2000/svg" viewBox="0 0 600 1000"><defs><style>.cls-1{fill:#fff;}.cls-2{fill:#ecf0fe;}.cls-3{fill:#b1c2f9;}.cls-4{fill:#d8e0fc;}.cls-5{fill:#c8d4fa;}.cls-6{fill:#89a3f5;}.cls-7,.cls-8{fill:#3b66ef;}.cls-8,.cls-9{opacity:.16;}.cls-10{opacity:.5;}.cls-11{opacity:.7;}</style></defs><path class="cls-1" d="m68.73,127.67c0,1.53.13,3.05.37,4.56,6.63,41.25,102.74,74.21,221.97,75.78,1.16.01,2.32.03,3.48.04,1.85.02,3.7.03,5.55.03,1.95,0,3.89,0,5.83-.02.96,0,1.91-.01,2.86-.03,1.9-.02,3.79-.06,5.68-.1h0c118.07-2.52,212.22-35.82,216.82-77.1l-.05.4v155.5l.05-.4c-4.6,41.28-98.74,74.58-216.82,77.1h0c-1.89.04-3.78.07-5.68.1-.95.01-1.9.02-2.86.03-1.94.01-3.88.02-5.83.02s-3.71,0-5.55-.03c-1.16,0-2.32-.02-3.48-.04-119.23-1.58-215.34-34.53-221.97-75.78-.24-1.5-.37-3.03-.37-4.56l.05,1.49v-155.5"/><path class="cls-7" d="m68.73,750.98c0,1.53.13,3.05.37,4.56,6.63,41.25,102.74,74.21,221.97,75.78,1.16.01,2.32.03,3.48.04,1.85.02,3.7.03,5.55.03,1.95,0,3.89,0,5.83-.02.96,0,1.91-.01,2.86-.03,1.9-.02,3.79-.06,5.68-.1h0c118.07-2.52,212.22-35.82,216.82-77.1l-.05.4v155.5l.05-.4c-4.6,41.28-98.74,74.58-216.82,77.1h0c-1.89.04-3.78.07-5.68.1-.95.01-1.9.02-2.86.03-1.94.01-3.88.02-5.83.02s-3.71,0-5.55-.03c-1.16,0-2.32-.02-3.48-.04-119.23-1.58-215.34-34.53-221.97-75.78-.24-1.5-.37-3.03-.37-4.56l.05,1.49v-155.5"/><g class="cls-10"><path class="cls-4" d="m68.73,283.5c0,1.53.13,3.05.37,4.56,6.63,41.25,102.74,74.21,221.97,75.78,1.16.01,2.32.03,3.48.04,1.85.02,3.7.03,5.55.03,1.95,0,3.89,0,5.83-.02.96,0,1.91-.01,2.86-.03,1.9-.02,3.79-.06,5.68-.1h0c118.07-2.52,212.22-35.82,216.82-77.1l-.05.4v155.5l.05-.4c-4.6,41.28-98.74,74.58-216.82,77.1h0c-1.89.04-3.78.07-5.68.1-.95.01-1.9.02-2.86.03-1.94.01-3.88.02-5.83.02s-3.71,0-5.55-.03c-1.16,0-2.32-.02-3.48-.04-119.23-1.58-215.34-34.53-221.97-75.78-.24-1.5-.37-3.03-.37-4.56l.05,1.49v-155.5"/></g><g class="cls-11"><path class="cls-3" d="m68.73,439.33c0,1.53.13,3.05.37,4.56,6.63,41.25,102.74,74.21,221.97,75.78,1.16.01,2.32.03,3.48.04,1.85.02,3.7.03,5.55.03,1.95,0,3.89,0,5.83-.02.96,0,1.91-.01,2.86-.03,1.9-.02,3.79-.06,5.68-.1h0c118.07-2.52,212.22-35.82,216.82-77.1l-.05.4v155.5l.05-.4c-4.6,41.28-98.74,74.58-216.82,77.1h0c-1.89.04-3.78.07-5.68.1-.95.01-1.9.02-2.86.03-1.94.01-3.88.02-5.83.02s-3.71,0-5.55-.03c-1.16,0-2.32-.02-3.48-.04-119.23-1.58-215.34-34.53-221.97-75.78-.24-1.5-.37-3.03-.37-4.56l.05,1.49v-155.5"/></g><path class="cls-6" d="m68.73,595.16c0,1.53.13,3.05.37,4.56,6.63,41.25,102.74,74.21,221.97,75.78,1.16.01,2.32.03,3.48.04,1.85.02,3.7.03,5.55.03,1.95,0,3.89,0,5.83-.02.96,0,1.91-.01,2.86-.03,1.9-.02,3.79-.06,5.68-.1h0c118.07-2.52,212.22-35.82,216.82-77.1l-.05.4v155.5l.05-.4c-4.6,41.28-98.74,74.58-216.82,77.1h0c-1.89.04-3.78.07-5.68.1-.95.01-1.9.02-2.86.03-1.94.01-3.88.02-5.83.02s-3.71,0-5.55-.03c-1.16,0-2.32-.02-3.48-.04-119.23-1.58-215.34-34.53-221.97-75.78-.24-1.5-.37-3.03-.37-4.56l.05,1.49v-155.5"/><path class="cls-7" d="m528.88,127.32c-.61,21.76-23.72,35.65-40.96,44.14-30.35,14.95-64.46,22.47-97.72,27.42-41.94,6.23-84.69,7.68-127.01,5.33-38.57-2.14-77.39-7.43-114.43-18.65-23.97-7.26-51.45-17.18-68.42-36.62-6.89-7.89-11.11-18.02-8.27-28.56s11.75-19.33,20.57-25.71c28.87-20.87,66.45-29.97,100.91-36.24,42.94-7.81,86.94-10.16,130.52-8.6s84.54,6.63,125,18.58c16.53,4.88,32.91,10.93,47.89,19.55,10.54,6.07,21.29,13.72,27.57,24.4,2.73,4.64,4.22,9.58,4.37,14.96.09,3.21,5.09,3.22,5,0-.76-27-30.55-43.14-52.12-52.48-38.22-16.55-80.39-23.85-121.64-27.7-46.65-4.35-94.01-3.74-140.49,2.24-39.04,5.03-79.71,13.2-114.76,31.87-19.85,10.57-45.96,30.46-36.97,56.45,7.45,21.54,31.9,34.2,51.41,42.54,33.75,14.43,70.54,21.55,106.83,25.8,44.95,5.26,90.65,5.62,135.69,1.29,38.13-3.67,76.86-10.38,112.63-24.51,20.54-8.12,46.22-20.06,56.13-41.35,2.1-4.51,3.16-9.17,3.3-14.14.09-3.22-4.91-3.22-5,0Z"/><path class="cls-5" d="m506.41,126.08c0,.81-.05,1.61-.16,2.41-4.1,31.44-88.09,56.81-193.42,58.73h0c-1.69.03-3.37.06-5.07.07-.85.01-1.7.02-2.55.02-1.73.01-3.46.02-5.2.02s-3.31,0-4.95-.02c-1.04,0-2.07-.02-3.11-.03-106.37-1.2-192.11-26.3-198.02-57.73-.22-1.15-.33-2.31-.33-3.47s.11-2.33.33-3.49c4.17-22.03,47.56-40.95,109.79-50.71,28.74-4.51,61.51-7.06,96.29-7.06s67.55,2.55,96.3,7.06c63.24,9.92,107.03,29.3,109.96,51.79.11.8.16,1.6.16,2.41Z"/><path class="cls-7" d="m503.91,126.08c-.57,17.48-23.19,27.63-36.78,33.27-27.86,11.57-58.36,17.18-88.16,20.84-36.01,4.43-72.45,5.56-108.69,4.01-34.64-1.48-69.47-5.33-103.14-13.82-21.1-5.32-45.65-12.17-62.02-27.41-6.01-5.59-10.84-13.13-8.3-21.69s10.78-14.86,18.07-19.4c26.33-16.38,59.31-22.86,89.49-27.59,37.99-5.95,76.68-7.76,115.09-6.7,37.61,1.04,75.52,4.79,112.09,13.86,14.79,3.67,29.58,8.17,43.32,14.84,9.16,4.44,19.07,10.02,25.06,18.54,2.39,3.4,3.84,7.09,3.98,11.26.11,3.21,5.11,3.22,5,0-.73-22.1-28.69-33.76-45.99-40.28-34.87-13.14-72.81-18.51-109.78-21.43-41.54-3.28-83.55-2.8-124.98,1.76-34.8,3.83-70.92,9.87-102.96,24.6-15.89,7.31-41.25,22.59-32.31,43.95,7.36,17.6,30.13,26.59,46.63,32.58,31.15,11.3,64.56,16.53,97.42,19.66,39.34,3.74,79.14,3.93,118.52.68,33.71-2.78,67.9-7.79,100.05-18.61,11.33-3.81,22.64-8.38,32.77-14.81,6.94-4.4,13.96-9.96,17.83-17.39,1.76-3.38,2.66-6.9,2.78-10.71.11-3.22-4.89-3.21-5,0Z"/><path class="cls-7" d="m528.74,123.07v756.17c0,10.19-.43,20.49,0,30.67.02.43,0,.87,0,1.3,0,3.22,5,3.22,5,0,0-2.7,0-5.4,0-8.1l-4.91.66c3.34,23.18-22.7,39.08-40.13,47.75-34.54,17.18-74.04,24.95-112.04,29.58-47.06,5.74-95,6.07-142.16,1.25-39.24-4.01-79.7-11.25-115.95-27.39-13.38-5.95-26.95-13.32-37.07-24.11-7.22-7.7-12.01-17.92-10.31-27.54l-4.91-.66v.6h5v-20.6c0-18.69,0-37.38,0-56.07,0-27.65,0-55.3,0-82.94V163.19c0-9.97.43-20.06,0-30.03-.02-.43,0-.86,0-1.28,0-3.22-5-3.22-5,0,0,28.71-.02,57.42-.03,86.13,0,17.29-.01,34.58-.02,51.87,0,10.04-.74,19.83,4.08,29.06,8.7,16.66,27.24,27.2,43.65,34.78,25.86,11.93,53.94,18.95,81.91,23.82,69.98,12.19,143.69,12.03,213.55-.91,27.75-5.14,55.71-12.44,81.13-24.96,15.66-7.71,33.28-18.58,40.56-35.28,1.41-3.23,2.26-6.53,2.69-10.02h-5v269.1c0,38.82,0,77.65,0,116.47,0,24.05,0,48.09,0,72.14,0,4.56.34,8.92-.98,13.34-5.51,18.5-26.22,30.02-42.4,37.67-27.75,13.13-58.39,20.27-88.56,25.15-37.4,6.04-75.45,8.08-113.3,7.16s-73.56-4.64-109.41-12.8c-26.48-6.03-53.75-14.19-76.74-29.05-12.86-8.32-26.06-20.23-26.19-36.68-.1-11.99,0-23.99,0-35.99,0-36.99,0-73.99,0-110.98v-7.7h-5c.49,17.94,14.56,31.04,28.67,40.17,21.67,14.01,47.19,22.13,72.08,28.18,69.23,16.83,143.47,18.66,213.95,9.52,30.96-4.01,62.04-10.25,91.28-21.46,19.06-7.3,39.83-16.97,52.84-33.34,6.74-8.48,8.77-16.98,8.77-27.37v-47.18c0-32.96.41-65.94,0-98.9,0-.65,0-1.31,0-1.96,0-3.31-4.62-3.1-5,0-2.74,22.26-29.1,35.89-47.13,43.96-33.96,15.2-71.69,22.43-108.44,26.69-44.12,5.11-88.95,5.48-133.17,1.36-38.07-3.54-76.73-10.24-112.47-24.25-14.1-5.52-28.33-12.38-39.95-22.24-8.69-7.38-16.11-16.84-16.43-28.68-.09-3.21-5-3.23-5,0,0,15.87,0,31.74,0,47.62,0,38.05,0,76.09.01,114.14,0,45.7,0,91.41.01,137.11,0,39.38,0,78.76.01,118.14,0,18.54,0,37.09,0,55.63,0,.82,0,1.65,0,2.47,0,3.22,5,3.22,5,0,0-15.71,0-31.41,0-47.12,0-37.61,0-75.22-.01-112.83,0-45.68,0-91.36-.01-137.04,0-39.77,0-79.53-.01-119.3,0-13.09,0-26.17,0-39.26,0-4.11,0-8.22,0-12.33,0-1.92.48-4.56,0-6.44-.06-.23,0-.55,0-.8h-5c.67,24.41,25.54,39.89,45.11,49.28,33.66,16.15,71.32,23.86,108.12,28.61,46.55,6.01,93.99,6.64,140.71,2.29,39.91-3.72,80.64-10.7,117.86-26.08,21.91-9.06,52.5-24.25,55.78-50.93h-5v134.83c0,8.04,1.36,17.38-.98,25.23-5.04,16.91-23.05,27.91-37.77,35.41-24.57,12.51-51.87,19.7-78.82,24.88-69.07,13.28-142.33,13.64-211.64,1.92-28.13-4.76-56.54-11.57-82.58-23.48-16.03-7.34-34.82-17.55-42.86-34.17-1.88-3.88-2.81-7.96-2.92-12.27-.09-3.21-5-3.23-5,0v91.64c0,17.72,0,35.44,0,53.16,0,11.25.12,21.38,6.93,31.1,12.19,17.39,33.37,27.55,52.53,35.12,29.93,11.82,61.94,18.26,93.76,22.37,38.23,4.94,77.01,6.14,115.5,4.12,36.11-1.9,72.36-6.57,107.33-15.98,24.48-6.58,50.04-15.39,70.34-31.03,10.03-7.73,20.54-18.94,21.18-32.35.81-16.89,0-34.01,0-50.91v-415.06c0-3.31-4.62-3.1-5,0-2.04,16.63-18.18,28.34-31.54,36.06-22.63,13.07-48.39,20.64-73.76,26.25-67.7,14.98-139.83,16.33-208.4,6.83-29.09-4.03-58.25-10.17-85.73-20.7-18.28-7.01-38.84-16.46-51-32.51-4.3-5.67-6.97-12.07-7.14-19.24-.07-2.92,0-5.85,0-8.78,0-15.49,0-30.98.01-46.47,0-19.39.01-38.79.02-58.18,0-7.53,0-15.06,0-22.59,0-4.36.4-8.93,0-13.27-.06-.62,0-1.27,0-1.89h-5v76.68c0,27.65,0,55.3,0,82.94v580.46c0,9.97-.43,20.06,0,30.03.02.43,0,.86,0,1.28,0,3.22,4.98,3.22,5,0v-.6c.02-2.73-4.41-3.51-4.91-.66-4.09,23.2,17.66,40.26,35.48,50.23,34.03,19.03,74.14,27.45,112.38,32.71,49.4,6.79,99.84,7.53,149.45,2.62,41.31-4.09,83.78-11.65,121.8-28.96,21.65-9.86,52.27-27.98,48.2-56.14-.41-2.84-4.91-2.08-4.91.66s0,5.4,0,8.1h5V155.05c0-10.19.43-20.49,0-30.67-.02-.43,0-.87,0-1.3,0-3.22-5-3.22-5,0h0Z"/><path class="cls-2" d="m486.19,121.01c.13,1.06.33,2.2.12,3.25-.28,1.48-1.49,2.54-2.58,3.47-2.45,2.09,1.1,5.61,3.54,3.54,3.29-2.81,4.43-6.04,3.92-10.26-.16-1.35-1.03-2.48-2.5-2.5-1.23-.01-2.66,1.16-2.5,2.5h0Z"/><path class="cls-2" d="m475.07,135.33c-12.23,8.14-25.94,14.33-40.24,17.76-3.13.75-1.8,5.57,1.33,4.82,14.67-3.52,28.88-9.92,41.43-18.27,2.67-1.77.17-6.11-2.52-4.32h0Z"/><g class="cls-9"><path class="cls-7" d="m200.36,98.93c-12.02,0-63.67,1.83-46.86,24.49,9.12,12.3,48.16,20.02,61.87,14.91"/><path class="cls-7" d="m200.36,96.43c-7.83.01-15.69.52-23.45,1.61-8.26,1.16-18.15,2.73-24.74,8.33-6.09,5.17-5.2,12.62-.64,18.56,6.23,8.12,18,11.74,27.48,14.15,11.32,2.88,25.62,5.61,37.02,1.65,3.02-1.05,1.72-5.88-1.33-4.82-8.57,2.98-18.97,1.48-27.65-.17-9.55-1.81-20.26-4.53-28.14-10.51-5.07-3.85-9.04-10.89-2.91-15.56s14.71-5.77,21.91-6.77,14.96-1.46,22.45-1.48c3.22,0,3.22-5.01,0-5h0Z"/></g><path class="cls-2" d="m202.84,44.06v76.82-4.58c-.06.21-.1.44-.15.65-.08.41-.13.82-.15,1.23v.83c.01.42.07.82.15,1.23,2.79,14.86,43.3,26.73,93.54,27.3.49,0,.98,0,1.47.01.78,0,1.56,0,2.34,0,.82,0,1.64,0,2.46,0,.4,0,.8,0,1.2-.01.81,0,1.6-.01,2.39-.03h0c49.53-.9,89.07-12.79,91.34-27.57v-2.68c-.07-.43-.16-.85-.3-1.28v4.65s0-77.43,0-77.43"/><path class="cls-7" d="m200.34,44.06v76.82c0,3.22,5,3.22,5,0v-4.58c0-2.76-4.27-3.47-4.91-.66-2.37,10.41,8.41,17.15,16.45,20.85,15.39,7.08,32.69,9.97,49.4,11.8,20.5,2.25,41.33,2.4,61.87.56,17.65-1.58,35.9-4.29,52.35-11.18,8.99-3.76,21.76-10.64,19.06-22.35-.64-2.77-4.91-2.13-4.91.66v4.65c0,3.22,5,3.22,5,0V43.19c0-3.22-5-3.22-5,0v77.43h5v-4.65c-1.64.22-3.28.44-4.91.66,2.1,9.07-11.23,14.53-17.69,17.06-14.66,5.76-30.67,8.36-46.27,9.9-33.32,3.29-69.45,2.58-101.56-7.71-6.97-2.23-26.39-8.31-23.97-18.92l-4.91-.66v4.58h5V44.06c0-3.22-5-3.22-5,0h0Z"/><path class="cls-1" d="m397.23,40.9c0,.38-.02.77-.07,1.14-1.93,14.9-41.49,26.93-91.11,27.83h0c-.79.01-1.59.03-2.39.03-.4,0-.8,0-1.2.01-.82,0-1.63,0-2.45,0s-1.56,0-2.33-.01c-.49,0-.97,0-1.46-.01-50.1-.57-90.49-12.47-93.27-27.36-.1-.54-.16-1.09-.16-1.65s.05-1.11.16-1.65c1.96-10.44,22.4-19.41,51.72-24.04,13.54-2.14,28.97-3.34,45.36-3.34s31.82,1.21,45.36,3.34c29.79,4.7,50.42,13.89,51.8,24.55.05.38.07.76.07,1.14Z"/><path class="cls-7" d="m394.73,40.9c-.54,8.2-11.85,12.76-18.26,15.26-13.17,5.14-27.41,7.71-41.4,9.32-30.69,3.55-62.97,2.99-93.16-3.87-10.52-2.39-22.25-5.42-30.98-12.12-2.66-2.04-5.66-4.98-5.66-8.6,0-4.5,4.45-7.93,7.84-10.11,12.04-7.73,27.36-10.76,41.26-13.02,17.61-2.86,35.58-3.74,53.41-3.31,19.25.46,38.76,2.36,57.37,7.48,6.96,1.91,13.94,4.25,20.19,7.92,4.11,2.41,9.04,5.85,9.38,11.04.21,3.19,5.21,3.22,5,0-.69-10.56-12.11-16.13-20.71-19.61-16.57-6.7-34.84-9.35-52.55-10.84-20.52-1.72-41.3-1.5-61.76.88-16.62,1.94-33.98,4.89-49.12,12.35-7.99,3.94-18.77,11.72-14.23,22.06,3.75,8.55,14.49,12.92,22.62,15.9,15.17,5.56,31.51,8.05,47.54,9.51,17.91,1.64,36.03,1.71,53.96.26,17.98-1.45,36.58-4.09,53.41-10.87,8.64-3.48,20.15-9.04,20.85-19.66.21-3.21-4.79-3.2-5,0Z"/><rect class="cls-1" x="256.64" y="894.65" width="86.72" height="17.79"/><rect class="cls-7" x="256.64" y="278.88" width="86.72" height="17.79"/><rect class="cls-7" x="256.64" y="278.88" width="86.72" height="17.79" transform="translate(12.22 587.78) rotate(-90)"/><polygon class="cls-8" points="218.71 58.38 218.36 134.87 205.5 124.5 205.5 46.5 218.71 58.38"/></svg>