<svg width="76" height="149" viewBox="0 0 76 149" fill="none" xmlns="http://www.w3.org/2000/svg">
<g clip-path="url(#clip0_9_698)">
<path d="M38.56 148.01C56.6584 148.01 71.33 144.885 71.33 141.03C71.33 137.175 56.6584 134.05 38.56 134.05C20.4617 134.05 5.79004 137.175 5.79004 141.03C5.79004 144.885 20.4617 148.01 38.56 148.01Z" fill="white" stroke="#3B65EE" stroke-width="1.81" stroke-miterlimit="10"/>
<path opacity="0.2" d="M38.56 144.72C52.7924 144.72 64.33 142.262 64.33 139.23C64.33 136.198 52.7924 133.74 38.56 133.74C24.3277 133.74 12.79 136.198 12.79 139.23C12.79 142.262 24.3277 144.72 38.56 144.72Z" fill="#3B65EE"/>
<path d="M11.44 6.80001C11.44 6.80001 -3.02999 33.02 1.94001 54.27C6.91001 75.52 24.54 84.28 39.01 84.28C53.48 84.28 74.2 71.92 74.2 49.09C74.2 26.26 66.58 6.81001 66.58 6.81001C66.58 6.81001 64.32 1.39001 39.01 0.930007C13.7 0.470007 11.44 6.80001 11.44 6.80001Z" fill="white" stroke="#3B65EE" stroke-width="1.81" stroke-miterlimit="10"/>
<path opacity="0.2" d="M39.0101 12.68C54.2366 12.68 66.5801 10.0474 66.5801 6.80001C66.5801 3.55258 54.2366 0.920013 39.0101 0.920013C23.7836 0.920013 11.4401 3.55258 11.4401 6.80001C11.4401 10.0474 23.7836 12.68 39.0101 12.68Z" fill="#3B65EE"/>
<path opacity="0.2" d="M38.33 39.35C55.6828 39.35 69.75 36.4175 69.75 32.8C69.75 29.1825 55.6828 26.25 38.33 26.25C20.9772 26.25 6.91003 29.1825 6.91003 32.8C6.91003 36.4175 20.9772 39.35 38.33 39.35Z" fill="#3B65EE"/>
<path d="M22.8201 80.66C22.8201 80.66 32.6801 85.01 33.5801 99.47C34.4801 113.94 34.9401 134.28 32.2201 138.8C32.2201 138.8 37.4201 143.32 42.9601 138.8C42.9601 138.8 37.6501 115.08 39.4501 99.59C41.2501 84.1 53.6801 80.66 53.6801 80.66C53.6801 80.66 41.4301 88.07 22.8101 80.66H22.8201Z" fill="white" stroke="#3B65EE" stroke-width="1.81" stroke-linecap="round" stroke-linejoin="round"/>
<path d="M68.19 30.85C69.09 36.11 69.75 42.1 69.75 48.38C69.75 68.44 51.54 79.3 38.83 79.3C26.12 79.3 10.64 71.6 6.27 52.94C4.63 45.94 5.4 38.33 6.99 31.55C6.99 31.55 15.75 38.62 37.55 38.31C59.35 38 68.19 30.86 68.19 30.86V30.85Z" fill="#3B65EE" stroke="#3B65EE" stroke-width="1.59" stroke-linecap="round" stroke-linejoin="round"/>
<path d="M64.42 9.09C53.5 14.78 33.02 14.39 21.1 11.72C19.06 11.23 17.03 10.63 15.13 9.74C23.23 11.61 31.57 11.74 39.84 11.77C48.06 11.57 56.52 11.58 64.42 9.09Z" fill="#3B65EE"/>
</g>
<defs>
<clipPath id="clip0_9_698">
<rect width="75.11" height="148.92" fill="white"/>
</clipPath>
</defs>
</svg>
