<?xml version="1.0" encoding="UTF-8"?><svg id="Layer_1" xmlns="http://www.w3.org/2000/svg" viewBox="0 0 300 320"><defs><style>.cls-1{fill:#0069ff;}.cls-2{fill:#fff;}</style></defs><path class="cls-2" d="m197.81,189.55c-1.24-5.33,1.18-49.06,11.95-48.17,3.07,7.58.49,15.04.65,22.76-1.13-14.03,6.6-29.99,10.87-43.27,2.73-8.5,4.59-17.28,7.27-25.83,5.06-16.19,13.36-30.35,9.53-47.95-3.55,1.33-5.82,4.64-8.35,7.44,1.95-2.79,3.6-5.88,4.37-9.21-9.11,10.43-14.79,27.17-19.64,40.32-5.15,13.94-8.56,28.62-14.25,42.48-3.96,9.66-14.53,18.55-24.45,9.26-7.18-6.72-3.26-22.73-3.71-31.82-.62-12.66-.01-25.94,1.64-38.52,1.28-9.79,4.08-21.51,1.33-31.09-1.13-3.95-2.42-10.06-7.16-10.17-10.18-.24-7.84,27.38-8.45,35.28-1.24,16.06-2.02,32.14-2.99,48.27-.27,4.61-1.07,9.04-1.2,13.67-.15,5.28,2.19,11.17,1.08,16.18-1.55,6.97-7.34,11.37-14.14,9.7-8.83-2.16-9.15-6.57-13.79-12.62,8.2,1.51,10.22,8.4,19.49,5.9-24.28,1.35-24.61-26.69-27.91-43.92-1.11-5.79-3.1-10.97-4.92-16.5-3.86-11.71-3.1-35.36-19.85-37.59-4.65,8.1-.99,20.51,1.67,29.03,5.08,16.29,9.58,32.83,14.41,49.19,3.7,12.5,9.66,48.64-14.81,35.27-15.28-8.35-28.02-25.86-39.09-39.22-2.68-3.24-12.4-16.26-17.1-9.62-6.26,8.85,12.8,22.76,16.91,27.07,9.32,9.8,15.17,20.41,28.69,24.79,7.68,2.49,20.13,5.43,23.59-4.58-4.04,3.36-15.27,10.68-19.74,10.66-3.42-.02-6.71-3.27-9.32-5.23,2.66,3.89,5.84,7.67,8.14,11.77,6.71,12.01,7.17,27.75,11.88,40.85,3.43,9.54,6.55,18.23,12.31,26.37,4.91,6.94,10.4,12.4,12.37,20.96,2.15,9.31,3.63,24.22,1.94,33.75-.43,2.45-.88,4.46-2.38,6.48,8.3,1.23,20.03-.86,28.59-1.54,9.11-.72,20.04-1.72,29.03.62,2.11-6.83.48-16.08,1.13-23.39.94-10.61,1.8-22.41,7.69-31.48,3.86-5.94,9.89-9.41,15.24-13.81,7.37-6.07,12.27-14.57,17.46-22.4-4.57,11.71-13.56,23.17-21.24,33.13-3.91,5.07-9.62,12.95-16.1,14.75,13.28-16.33,31.37-32.32,37.48-53.27,1.97-6.74,1.85-14.6-1.59-20.95-2.97-5.49-9.97-8.11-11.87-14.11.68-.11.84-.24,1.4-.56,11.05,10.16,21.64,21.83,14.82,36.38,2.47-7.85.42-16.01-4.26-22.68"/><path class="cls-2" d="m207.45,186.89c.63,3.13.1.63.07-1.28-.03-1.71.02-3.41.08-5.12.09-2.43.26-4.86.47-7.28.12-1.33.25-2.65.4-3.98.08-.68.16-1.35.24-2.03-.11.79-.11.83-.01.11.69-4.78,1.57-9.6,3.12-14.19.18-.54,1.41-3.27.31-1,.4-.83.96-1.63,1.33-2.46.62-.9.47-.7-.46.58.76-.74.48-.57-.83.51,1.6-.75-4.14.58-2.39.61l-9.64-7.34c2.28,6.51.32,13.37.29,20.1h20c-.56-9.81,2.84-19.12,6.12-28.22,3.68-10.19,6.67-20.41,9.52-30.85,5.57-20.45,15.94-38.82,11.66-60.64-1.35-6.88-9.3-8.46-14.69-5.98-4.31,1.99-7.31,5.52-10.37,9l15.71,12.12c2.4-3.59,4.22-7.43,5.38-11.6,2.54-9.14-10.06-17.61-16.71-9.73-9.3,11.01-14.65,24.27-19.62,37.66-5.42,14.62-9.42,29.7-14.82,44.32-1.13,3.05-3.65,10.56-7.41,11.06-1.01.13-1.03-.11-1.67-.44-.54-.28-1.78-2.05-1.1-.89-.78-1.34-.95-3.69-1.02-5.62-.19-5.57.64-11.09.68-16.65.05-7.46-.38-14.87-.02-22.35s1.1-14.73,2.21-22.05,2.45-15.1,1.66-22.66c-.64-6.08-2.12-13.03-5.73-18.09-4.35-6.11-12.46-8.63-19.27-5.09-9.1,4.74-10.5,16.41-11.11,25.56-.65,9.86-.59,19.74-1.25,29.61s-1.16,19.31-1.71,28.97c-.48,8.3-2.36,17.2-1.38,25.46.35,3.01,1.79,7.12.98,10.15-.43,1.62-.86,2.05-1.65,2.03-.69-.01-1.46-.37-2.08-.61-1.56-.61-1-.45-1.66-1.3.91,1.16-1.07-1.68-1.35-2.12-.88-1.36-1.77-2.69-2.73-3.99l-11.29,14.69c3.22.74,5.44,2.82,8.78,4.42,5.22,2.51,10.4,2.74,16.02,1.48,10.97-2.46,8.62-20.03-2.66-19.64-4.55.16-7.03-.46-9.17-2.84-1.97-2.2.87,1.51-.82-.96-.74-1.09-1.38-2.25-1.96-3.43-.43-.87-.94-2.26-1.58-4.4-3.02-10.08-3.25-20.74-6.17-30.84-1.65-5.69-3.87-11.14-5.05-16.96-.98-4.81-1.71-9.67-3.05-14.41-3.13-11.12-9.96-21.78-22.2-23.81-4.21-.7-9.16.41-11.29,4.6-7.19,14.09-1.57,29.27,2.68,43.33,4.52,14.95,9.21,29.98,13.08,45.12.38,1.5.73,3.02,1.03,4.54.2.98.38,1.97.55,2.96.1.62.48,3.24.24,1.35.51,4.03.66,8.03.42,12.08-.03.58.41-1.37-.09.55-.19.72-.39,1.46-.55,2.18-.49,2.23.45-.94-.21.43-.36.74.47-.41.58-.49.26-.2.74-.48.99-.54-1.09.23,1.09-.07,1.04-.07-.35.03-1.08.1-1.45,0,1.9.5.13-.04-.69-.32-1.15-.39-.53-.08-2.12-.92-12.15-6.45-21.2-17.81-29.75-28.29-6.36-7.79-12.93-18.54-22.52-22.64-13.77-5.88-24.11,8.87-19.38,21.33,3.66,9.62,12.01,15.73,19.1,22.66,4.79,4.69,8.68,10.23,13.37,15.02,5.77,5.89,12.5,10.3,20.33,12.94,14.11,4.74,29.64,3.91,35.89-11.57,1.63-4.04-1.09-9.24-4.6-11.29-4.1-2.4-8.63-1.26-12.12,1.56-2.09,1.69,1.79-1.23-.97.71-.97.68-1.94,1.35-2.93,1.99-1.95,1.27-3.94,2.48-5.99,3.56-1.31.69-2.92,2.07-3.99,1.65l1.21-.17c1.69.45,1.72.28.08-.52-.59-.63-1.64-1.24-2.33-1.78-3.93-3.06-8.91-4.14-13.13-.78-3.62,2.88-5.48,8.75-2.58,12.9,3.61,5.15,7.79,10.01,10.1,15.92s3.45,12.22,4.76,18.38c2.68,12.62,6.71,25.08,12.61,36.6,5.17,10.1,14.5,17.8,16.77,29.2,1.02,5.12,1.54,10.32,1.72,15.54.15,4.5.8,10.57-1.68,14.43-4.53,7.05,1.65,14.19,8.63,15.05,18.21,2.25,36.83-5.57,54.96-1.28,5.23,1.24,10.86-1.6,12.3-6.98,4.32-16.16-1.63-34.06,6.19-49.68,3.76-7.51,11.95-11.19,17.8-16.82,6.66-6.41,11.48-14.53,16.53-22.19l-18.28-7.71c-3.66,8.98-9.8,17.06-15.62,24.73-3.65,4.81-8.86,14.18-14.73,16.16l9.73,16.71c12.19-14.86,26.96-28.37,35.41-45.91,4.72-9.79,7.58-20.13,5.48-31.01-1.01-5.25-3.37-10.14-6.92-14.14-1.83-2.06-6.4-4.53-7.37-7l-6.98,12.3c1.31-.35,2.6-.91,3.79-1.57l-12.12-1.56c5.95,5.51,17.31,14.81,13.25,24.26l18.28,7.71c2.91-10.55.75-21.33-5.27-30.39-7.09-10.67-24.42-.67-17.27,10.09,3.14,4.72,4.8,9.38,3.25,14.98-1.31,4.76,1.23,9.96,5.79,11.8,4.15,1.67,10.5.54,12.49-4.09,4.06-9.46,4.56-18.5.23-27.98-3.68-8.05-10.2-14.58-16.61-20.52-3.33-3.09-8.12-3.78-12.12-1.56l.99-.44c-4.82,1.3-8.95,7.27-6.98,12.3,1.64,4.2,3.81,7.65,7.11,10.75,2.09,1.97,4.92,3.69,6.11,6.38,3.23,7.26-.35,15.9-3.81,22.37-7.9,14.75-20.36,26.28-30.87,39.1-2.86,3.48-3.96,8.01-1.56,12.12,2.15,3.67,7.13,6,11.29,4.6,11.21-3.77,17.73-13.68,24.62-22.64,7.77-10.12,14.87-20.34,19.7-32.22,1.85-4.55-1.64-10.13-5.79-11.8-4.75-1.91-9.68-.17-12.49,4.09-4.92,7.47-9.44,15.21-16.52,20.88s-14.41,10.86-18.51,19.59-5.39,17.98-6.29,27.43c-.8,8.31.95,17.53-1.2,25.57l12.3-6.98c-10.45-2.47-21.08-1.88-31.69-.98-9.48.81-19.06,2.72-28.59,1.54l8.63,15.05c7.04-10.95,4.72-27.53,2.94-39.7-.92-6.28-2.28-12.21-5.26-17.88s-7.58-10.46-11.08-15.87c-7.3-11.3-11.22-24.7-13.99-37.73-1.37-6.46-2.68-12.95-5.04-19.14-2.86-7.48-7.28-13.44-11.84-19.94l-15.71,12.12c7.7,6,14.66,10.27,24.4,6.22,6.85-2.85,13.06-6.99,18.8-11.65l-16.71-9.73c.58-1.44,1.32-.58-1.03-.24,1.7-.24-1.95-.14-1.83-.14-3.24-.19,1.22.35-1.99-.28-4.83-.94-9.53-2.52-13.51-5.49-7.88-5.87-13.02-14.81-20.31-21.36-3.19-2.86-6.4-5.72-9.23-8.95-.85-.98-1.31-1.55-2.31-3.22-.51-.86.1-.88-.54-1.12-.27-1.18-.28-1.15-.03.11,0,.68-.2,1.3-.58,1.86-.94,1.81-5.82,1.89-5.96,2.25l-.79-.31c.57.31,1.11.66,1.63,1.05-.56-.54,2.04,2.11,2.64,2.76,3.25,3.52,6.18,7.38,9.19,11.09,8.15,10.06,16.36,20.2,26.6,28.24,7.78,6.11,18.1,12.99,28.54,10.3,17.84-4.59,15.13-28.83,12.51-42.38s-6.98-25.58-10.64-38.19c-2.23-7.67-4.68-15.28-6.89-22.95-1.42-4.95-3.98-12.29-1.44-17.26l-11.29,4.6c.43.07,4.02,1.04,2.67.53.15.06,2.54,1.67,1.18.67,1.51,1.12,1.83,1.94,3.01,4.46s2.6,9.12,3.42,13.38c2.17,11.35,6.6,22,8.41,33.42,1.6,10.14,2.98,20.46,7.87,29.66,5.78,10.87,16.57,16.67,28.77,16.25l-2.66-19.64c-1.64.37-.76.39-2.03-.08,1.28.48-1.86-1.27-2.2-1.48-3.1-1.92-6.36-3.53-9.94-4.34-7.66-1.75-16.85,7.18-11.29,14.69,3.62,4.89,6.25,10.26,11.47,13.73,5.89,3.92,13.8,5.27,20.52,3.03,7.21-2.41,12.48-8.93,14.22-16.23,1.88-7.89-1.14-15.96-.36-23.99,1.66-16.96,2.19-34.02,3.39-51.02.64-8.96.02-19.89,1.19-27.71-.07.44.36-1.85.52-2.52.21-.86.45-1.72.74-2.55-.43,1.22.09.7-.05.21-.34-1.2.44.41,0-.16.21.28-.82.67.09.01-.95.68-1.67,1.43-2.94,1.54s-4.14-2.51-4.95-2.16c.17-.07.53,1.35.52.86,0,.53.71,2.27.97,3.22.9,3.24,1.18,6.25,1.06,9.63-.25,7.56-1.91,15.04-2.8,22.54-1.01,8.55-1.53,17.16-1.54,25.76,0,6.55.31,12.99-.12,19.54s-.79,13.15,1.1,19.32c4.95,16.16,23.83,21.7,36.8,11.1,7.1-5.8,10.27-14.16,13.24-22.56,3.21-9.1,5.78-18.42,8.82-27.58,4.75-14.32,9.62-31.21,19.52-42.93l-16.71-9.73c-.71,2.56-1.89,4.61-3.36,6.82-6.26,9.37,8.19,20.67,15.71,12.12,1.97-2.24,3.6-4.61,6.33-5.87l-14.69-5.98c1.77,9-.71,17.68-3.68,26.14-3.44,9.77-6.8,19.4-9.45,29.43s-5.88,19.05-9.2,28.52-6.28,19.93-5.68,30.3c.73,12.76,19.94,12.98,20,0,.04-8.71,1.97-16.9-1.01-25.41-1.5-4.27-5.01-7.24-9.64-7.34-13.85-.3-18.07,16.91-19.88,27.59s-3.85,22.66-1.72,33.25c1.07,5.3,7.36,8.34,12.3,6.98,5.51-1.52,8.06-6.99,6.98-12.3h0Z"/><path class="cls-1" d="m148.47,223.42c.16-10.67,4.27-21.19,11.05-29.37,2.04-2.46-1.48-6.02-3.54-3.54-7.65,9.23-12.34,20.84-12.52,32.9-.05,3.22,4.95,3.22,5,0h0Z"/><path class="cls-1" d="m222.17,161.95c7.48-19.8,13.49-40.29,19.53-60.58,3.96-13.3,8.22-26.74,10.77-40.4,2.35-12.53-1.48-31.06-18.27-29.24-7.11.77-13.75,7.84-16.98,13.78-2.42,4.45-4.48,9.11-6.5,13.75-7.54,17.39-13.84,35.32-19.57,53.38-.94,2.96-1.6,6.2-2.81,9.04-.84,1.97-3.36,6.96-5.24,2.54-.91-2.13.33-7.45.43-9.67.15-3.4.31-6.8.46-10.2.51-11.14,1.03-22.27,1.48-33.41.52-12.85,2.4-27.04.13-39.81-1.39-7.81-5.25-14-12.53-17.47-6.47-3.09-14.19-.93-18.57,4.46-8.48,10.44-8.23,24.03-8.96,36.83-1.23,21.49-1.5,43.05-1.56,64.58,0,1.88,1.02,9.13-2.06,8.81-1.83-.19-3.21-7.94-3.67-9.55-1.78-6.17-3.54-12.35-5.31-18.52-2.87-10.02-5.74-20.03-8.72-30.02-3.32-11.07-5.93-26.57-15.66-34.11-5.94-4.6-14-4.9-20.52-1.46s-9.16,12.33-8.99,19.19c.32,12.82,4.86,26.35,8.15,38.6,3,11.15,6.3,22.22,9.83,33.22.96,2.99,1.94,5.98,2.94,8.97.81,2.44,2.7,5.67,1.87,8.27-1.76,5.48-8.57-4.39-10.18-6.17-11.19-12.39-22.47-25.45-35.37-36.15-6.02-4.99-13.23-6.11-20.33-2.53-6.5,3.28-9.7,9.73-9.26,16.79.38,6.13,3.23,10.04,7.01,14.56,5.58,6.69,11.5,13.1,17.24,19.64,7.96,9.06,15.78,18.26,23.17,27.79,2.01,2.59,3.39,4.56,4.18,7.77.59,2.39,1.1,4.8,1.71,7.19,1.52,5.91,3.28,11.77,5.31,17.53,4.05,11.55,9.13,22.78,14.55,33.74,2.5,5.06,5.25,9.75,8.34,14.45,3.85,5.85,5.64,11.22,5.49,18.3-.23,11.23-.51,22.43-.51,33.68,0,1.35,1.15,2.5,2.5,2.5h77c1.33,0,2.53-1.15,2.5-2.5-.19-8.75.14-17.51-.01-26.27-.13-7.33-1.23-15.8,3.67-21.88,6.01-7.46,13.34-13.88,19.51-21.24,13.11-15.62,25.91-34.82,21.59-56.13-1.43-7.05-6.54-13.21-11.77-17.85-7.61-6.75-17.72-13.18-27.6-15.81-8.72-2.32-18.46-1.74-27.29-.68-7.35.88-15.4,1.84-22.4,4.31-3.11,1.1-6.1,3.22-8.09,5.84-8.05,10.63,5.13,24.24,14.59,28.31,7.14,3.08,15.18,3.46,22.84,2.9,1.69-.12.98-.45,2.45.08,1.22.44,2.47,1.42,3.56,2.1,3.97,2.5,7.6,5.38,10.74,8.87,2.16,2.4,5.68-1.15,3.54-3.54-4.07-4.52-9.05-8.19-14.32-11.2-4.58-2.61-9.96-.9-15.11-1.22-6.23-.38-12.54-2.02-17.47-6.01-3.95-3.2-9.82-9.79-7.95-15.28.97-2.83,4.11-5.14,6.69-6.09,7.28-2.67,15.98-3.62,23.66-4.37s16.08-1.24,23.54.88c9.37,2.67,19.21,8.88,26.26,15.53,4.27,4.03,8.36,9.48,9.38,14.97,3.82,20.61-10.65,39.91-23.77,54.8-5.64,6.4-12.86,12.18-17.67,19.25-4.36,6.41-3.7,14.45-3.61,21.82.11,9.3-.16,18.61.04,27.92l2.5-2.5h-77l2.5,2.5c0-11.24.28-22.44.51-33.68.1-4.82-.33-9.54-2.28-13.99-2.08-4.74-5.42-8.72-8.02-13.16-11.67-19.99-20.33-42.79-25.29-65.38-1.12-5.11-4.36-8.6-7.55-12.63-3.7-4.69-7.5-9.3-11.36-13.86-6.58-7.78-13.37-15.38-20.12-23.01-3.67-4.16-8.41-8.47-11.01-13.43-4.41-8.43,1.09-18.8,10.63-19.58,6.52-.54,11.75,5.63,16,9.72,6.19,5.96,12.13,12.17,18,18.44,3.51,3.75,6.97,7.53,10.42,11.34,3.04,3.37,5.9,8.33,10.7,9.12,5.96.98,8.89-4.1,8.04-9.58s-3.8-11.67-5.57-17.22-3.46-11.06-5.09-16.61c-2.7-9.19-5.23-18.43-7.48-27.74-2.46-10.16-9.22-28.79-.45-37.69,7.18-7.28,18.1-1.76,22.31,5.62,2.57,4.5,3.96,9.83,5.52,14.74,6.04,18.97,11.28,38.21,16.78,57.34,1.44,5,3.19,17.93,11.62,15.07,2.92-.99,4.09-4.13,4.45-6.91.8-6.18.02-12.98.08-19.23.18-19.47.51-38.99,1.88-58.43.37-5.23.68-10.56,1.66-15.73,1.49-7.85,7.57-17.94,16.97-15.44,14.25,3.8,11.81,23.78,11.54,34.86-.49,20.08-1.59,40.14-2.49,60.21-.3,6.63-2.85,18.53,7.36,18.6,3.02.02,4.92-1.9,6.05-4.48,2.58-5.89,3.89-12.7,5.89-18.82,5.47-16.76,11.4-33.47,18.63-49.57,1.86-4.14,3.67-8.53,6.14-12.36,2.29-3.55,6.84-8.1,11.06-9.17,4.51-1.14,9.74,1.6,12.19,5.34,6.3,9.62-.03,25.81-2.75,35.84-5.06,18.66-10.8,37.14-16.7,55.55-2.91,9.06-5.76,18.13-9.12,27.03-1.14,3.01,3.69,4.32,4.82,1.33h0Z"/></svg>