<svg width="178" height="428" viewBox="0 0 178 428" fill="none" xmlns="http://www.w3.org/2000/svg">
<path d="M168.93 409.46V339.28C173.05 338.66 176.22 335.11 176.22 330.81C176.22 326.51 173.06 322.97 168.93 322.34V322.229H167.65H10.4098H9.12982V322.34C5.00982 322.96 1.83984 326.51 1.83984 330.81C1.83984 335.11 4.99982 338.65 9.12982 339.28V409.46C5.00982 410.08 1.83984 413.63 1.83984 417.93C1.83984 422.23 4.99982 425.77 9.12982 426.4V426.51H10.4098H167.65H168.93V426.4C173.05 425.78 176.22 422.23 176.22 417.93C176.22 413.62 173.06 410.08 168.93 409.46Z" fill="#E5ECF9" stroke="#3B65EE" stroke-width="2.5" stroke-miterlimit="10" stroke-linecap="round" stroke-linejoin="round"/>
<path d="M134.721 409.46H168.931V381.729C168.931 381.719 163.391 409.46 134.721 409.46Z" fill="#B0C3EA" stroke="#B0C3EA" stroke-width="2.5" stroke-miterlimit="10" stroke-linecap="round"/>
<path d="M27.6398 418.08C27.6398 413.78 30.7998 410.24 34.9298 409.61V339.43C30.8098 338.81 27.6398 335.26 27.6398 330.96C27.6398 326.66 30.7998 323.12 34.9298 322.49V322.38H36.2098H169.21C169.12 322.36 169.02 322.34 168.93 322.32V322.21H167.65H10.4098H9.12982V322.32C5.00982 322.94 1.83984 326.49 1.83984 330.79C1.83984 335.09 4.99982 338.63 9.12982 339.26V409.44C5.00982 410.06 1.83984 413.61 1.83984 417.91C1.83984 422.21 4.99982 425.75 9.12982 426.38V426.49H10.4098H34.6398C30.6598 425.75 27.6398 422.28 27.6398 418.08Z" fill="white" stroke="white" stroke-width="2.5" stroke-miterlimit="10" stroke-linecap="round" stroke-linejoin="round"/>
<path d="M168.939 339.28H9.12891V409.46H168.939V339.28Z" stroke="#3B65EE" stroke-width="2.5" stroke-miterlimit="10" stroke-linecap="round" stroke-linejoin="round"/>
<path d="M168.93 409.46V339.28C173.05 338.66 176.22 335.11 176.22 330.81C176.22 326.51 173.06 322.97 168.93 322.34V322.229H167.65H10.4098H9.12982V322.34C5.00982 322.96 1.83984 326.51 1.83984 330.81C1.83984 335.11 4.99982 338.65 9.12982 339.28V409.46C5.00982 410.08 1.83984 413.63 1.83984 417.93C1.83984 422.23 4.99982 425.77 9.12982 426.4V426.51H10.4098H167.65H168.93V426.4C173.05 425.78 176.22 422.23 176.22 417.93C176.22 413.62 173.06 410.08 168.93 409.46Z" stroke="#3B65EE" stroke-width="2.5" stroke-miterlimit="10" stroke-linecap="round" stroke-linejoin="round"/>
<path d="M36.1494 72.9404C36.1494 72.9404 26.0094 127.49 31.7794 141.14C37.5494 154.78 73.5894 147.53 73.5894 147.53L36.1494 72.9404Z" fill="#D1DAED" stroke="#3B65EE" stroke-width="2.5" stroke-miterlimit="10" stroke-linecap="round" stroke-linejoin="round"/>
<path d="M141.899 72.9404C141.899 72.9404 152.039 127.49 146.269 141.14C140.499 154.78 104.459 147.53 104.459 147.53L141.899 72.9404Z" fill="#D1DAED" stroke="#3B65EE" stroke-width="2.5" stroke-miterlimit="10" stroke-linecap="round" stroke-linejoin="round"/>
<path d="M121.7 133.46C129.89 117.45 145.43 84.6796 141.9 72.9396C138.34 61.1096 116.65 55.4896 106.01 53.4196C102.38 52.7096 99.5398 50.2096 98.6798 46.9996C97.9998 44.4396 98.6299 41.7096 100.53 39.6796C104.24 35.7296 106.59 29.8896 106.59 23.3796C106.59 11.4696 98.7299 1.80957 89.0299 1.80957C79.3299 1.80957 71.4698 11.4696 71.4698 23.3796C71.4698 29.8896 73.8199 35.7296 77.5299 39.6796C79.4299 41.6996 80.0599 44.4396 79.3799 46.9996C78.5299 50.2096 75.6798 52.7096 72.0498 53.4196C61.4098 55.4896 39.7198 61.1096 36.1598 72.9396C32.6298 84.6896 48.1698 117.45 56.3598 133.47C58.8498 138.33 58.3198 143.97 55.0398 148.45C51.5298 153.24 48.0499 161.16 49.3199 173.07C51.0899 189.55 59.9699 213.66 64.4499 225.01C65.9199 228.74 65.7399 232.81 63.9399 236.42C61.7099 240.88 59.1799 248.08 59.7699 257.11C60.7799 272.71 72.4798 295.45 72.4798 304.96C72.4798 314.47 62.6899 314.05 64.7599 322.25H83.7799H94.2799H113.3C115.37 314.05 105.58 314.47 105.58 304.96C105.58 295.45 117.28 272.71 118.29 257.11C118.87 248.08 116.35 240.89 114.12 236.42C112.32 232.81 112.14 228.74 113.61 225.01C118.08 213.66 126.97 189.55 128.74 173.07C130.01 161.17 126.54 153.26 123.04 148.47C119.75 143.97 119.21 138.33 121.7 133.46Z" fill="#E5ECF9" stroke="#3B65EE" stroke-width="2.5" stroke-miterlimit="10" stroke-linecap="round" stroke-linejoin="round"/>
<path d="M72.4485 304.08C72.4685 304.38 72.4785 304.67 72.4785 304.95C72.4785 314.33 62.9685 314.05 64.6885 321.92H113.359C115.089 314.06 105.569 314.33 105.569 304.95C105.569 304.67 105.578 304.38 105.598 304.08H72.4485Z" fill="#B0C3EA" stroke="#B0C3EA" stroke-width="2.5" stroke-miterlimit="10" stroke-linecap="round"/>
<path d="M87.9198 304.95C87.9198 295.44 76.2199 272.7 75.2099 257.1C74.6299 248.07 77.1499 240.88 79.3799 236.41C81.1799 232.8 81.3599 228.73 79.8899 225C75.4199 213.65 66.5299 189.54 64.7599 173.06C63.4799 161.15 66.9698 153.22 70.4798 148.44C73.7598 143.96 74.2898 138.33 71.7998 133.46C63.6098 117.45 48.0598 84.68 51.5998 72.93C55.1598 61.1 76.8498 55.48 87.4898 53.41C91.1198 52.7 93.9599 50.2 94.8199 46.99C95.4999 44.43 94.8698 41.7 92.9698 39.67C89.2598 35.72 86.9098 29.88 86.9098 23.37C86.9098 14.86 90.9198 7.50002 96.7498 3.99002C94.4198 2.59002 91.7999 1.79004 89.0299 1.79004C79.3299 1.79004 71.4698 11.45 71.4698 23.36C71.4698 29.87 73.8199 35.71 77.5299 39.66C79.4299 41.68 80.0599 44.42 79.3799 46.98C78.5299 50.19 75.6798 52.69 72.0498 53.4C61.4098 55.47 39.7198 61.09 36.1598 72.92C32.6298 84.67 48.1698 117.43 56.3598 133.45C58.8498 138.32 58.3198 143.94 55.0398 148.43C51.5298 153.22 48.0499 161.14 49.3199 173.05C51.0899 189.53 59.9699 213.64 64.4499 224.99C65.9199 228.72 65.7399 232.79 63.9399 236.4C61.7099 240.86 59.1799 248.06 59.7699 257.09C60.7799 272.69 72.4798 295.43 72.4798 304.94C72.4798 314.45 62.6899 314.03 64.7599 322.23H80.1999C78.1399 314.04 87.9198 314.46 87.9198 304.95Z" fill="white" stroke="white" stroke-width="2.5" stroke-miterlimit="10" stroke-linecap="round" stroke-linejoin="round"/>
<path d="M72.4785 304.95C72.4785 314.33 62.9685 314.05 64.6885 321.92H80.1285C78.3985 314.06 87.9185 314.33 87.9185 304.95C87.9185 304.67 87.9085 304.38 87.8885 304.08H72.4485C72.4685 304.38 72.4785 304.67 72.4785 304.95Z" fill="#E5ECF9" stroke="#E5ECF9" stroke-width="2.5" stroke-miterlimit="10" stroke-linecap="round"/>
<path d="M121.7 133.46C129.89 117.45 145.43 84.6796 141.9 72.9396C138.34 61.1096 116.65 55.4896 106.01 53.4196C102.38 52.7096 99.5398 50.2096 98.6798 46.9996C97.9998 44.4396 98.6299 41.7096 100.53 39.6796C104.24 35.7296 106.59 29.8896 106.59 23.3796C106.59 11.4696 98.7299 1.80957 89.0299 1.80957C79.3299 1.80957 71.4698 11.4696 71.4698 23.3796C71.4698 29.8896 73.8199 35.7296 77.5299 39.6796C79.4299 41.6996 80.0599 44.4396 79.3799 46.9996C78.5299 50.2096 75.6798 52.7096 72.0498 53.4196C61.4098 55.4896 39.7198 61.1096 36.1598 72.9396C32.6298 84.6896 48.1698 117.45 56.3598 133.47C58.8498 138.33 58.3198 143.97 55.0398 148.45C51.5298 153.24 48.0499 161.16 49.3199 173.07C51.0899 189.55 59.9699 213.66 64.4499 225.01C65.9199 228.74 65.7399 232.81 63.9399 236.42C61.7099 240.88 59.1799 248.08 59.7699 257.11C60.7799 272.71 72.4798 295.45 72.4798 304.96C72.4798 314.47 62.6899 314.05 64.7599 322.25H83.7799H94.2799H113.3C115.37 314.05 105.58 314.47 105.58 304.96C105.58 295.45 117.28 272.71 118.29 257.11C118.87 248.08 116.35 240.89 114.12 236.42C112.32 232.81 112.14 228.74 113.61 225.01C118.08 213.66 126.97 189.55 128.74 173.07C130.01 161.17 126.54 153.26 123.04 148.47C119.75 143.97 119.21 138.33 121.7 133.46Z" stroke="#3B65EE" stroke-width="2.5" stroke-miterlimit="10" stroke-linecap="round" stroke-linejoin="round"/>
<path d="M89.0293 166.3V322.24" stroke="#3B65EE" stroke-width="2.5" stroke-miterlimit="10" stroke-linecap="round"/>
<path d="M154.449 357.62H23.6094V389.94H154.449V357.62Z" fill="white" stroke="#3B65EE" stroke-width="2.5" stroke-miterlimit="10" stroke-linecap="round"/>
</svg>
