<svg width="572" height="579" viewBox="0 0 572 579" fill="none" xmlns="http://www.w3.org/2000/svg">
<path d="M104.234 328.729C104.234 328.729 31.9242 378.259 9.39415 337.259C-13.1358 296.259 92.5741 255.449 99.2341 223.019C105.894 190.589 61.7741 125.539 90.9141 114.539C120.044 103.539 138.354 145.609 138.354 145.609L104.234 328.729Z" fill="#D1DAED" stroke="#3B65EE" stroke-width="3" stroke-miterlimit="10" stroke-linecap="round"/>
<path d="M447.99 445.99C447.99 445.99 463.9 497.709 493.85 473.719C523.8 449.729 466.47 388.55 475.13 348.65C483.79 308.74 537.84 315.24 546.26 275.76C554.68 236.27 507.89 236.27 507.89 236.27L413.43 337.26L447.99 445.99Z" fill="#D1DAED" stroke="#3B65EE" stroke-width="3" stroke-miterlimit="10" stroke-linecap="round"/>
<path d="M493.855 473.731C494.775 472.991 495.615 472.221 496.375 471.411C478.095 451.341 454.305 417.631 441.365 368.631C427.125 314.731 436.715 381.481 446.045 439.871L447.995 446.001C447.995 445.991 463.905 497.721 493.855 473.731Z" fill="#ADBEDB"/>
<path d="M447.99 445.99C447.99 445.99 463.9 497.709 493.85 473.719C523.8 449.729 466.47 388.55 475.13 348.65C483.79 308.74 537.84 315.24 546.26 275.76C554.68 236.27 507.89 236.27 507.89 236.27L413.43 337.26L447.99 445.99Z" stroke="#3B65EE" stroke-width="3" stroke-miterlimit="10" stroke-linecap="round"/>
<path d="M569.626 154.51C457.976 77.5499 83.0262 2.66992 83.0262 2.66992C83.0262 2.66992 131.516 95.5299 110.446 224.77C89.3762 354.01 18.5463 344.44 9.40625 472.39C174.646 472.94 496.576 548.85 496.576 548.85C496.576 548.85 422.926 404.75 460.546 330.08C498.166 255.41 550.816 256.37 569.626 154.51Z" fill="white" stroke="#3B65EE" stroke-width="3" stroke-miterlimit="10" stroke-linecap="round"/>
<path d="M131.51 107.301C131.51 107.301 139.17 172.141 127.68 236.271Z" fill="white"/>
<path d="M131.506 107.301C133.026 117.991 133.936 128.761 134.446 139.551C134.996 150.341 135.056 161.151 134.806 171.951C134.696 177.351 134.396 182.751 134.106 188.141C133.936 190.841 133.686 193.531 133.476 196.221L133.146 200.261L132.696 204.291C131.666 215.051 129.796 225.711 127.656 236.281C127.976 233.601 128.316 230.921 128.676 228.251L129.206 224.241L129.606 220.221L130.466 212.191L131.136 204.141C131.976 193.411 132.576 182.661 132.796 171.901C133.086 161.141 133.106 150.371 132.876 139.601L132.666 131.521L132.366 123.441C132.186 118.061 131.856 112.681 131.506 107.301Z" fill="#D1DAED"/>
<path d="M565.57 155.51C553.25 158.83 515.96 170.97 497.06 200.2C456.42 126.09 382.29 81.6397 352.25 68.4297C437.32 93.1097 520.89 122.41 566.1 152.13C567.45 153.03 567.13 155.09 565.57 155.51Z" fill="#D1DAED" stroke="#D1DAED" stroke-width="3" stroke-miterlimit="10" stroke-linecap="round"/>
<path d="M568.42 155.1C562.81 157.95 538.74 171.44 518.7 202.43C478.06 128.32 382.29 81.6397 352.25 68.4297C438.85 93.5497 523.89 123.46 568.51 153.74C569 154.08 568.96 154.82 568.42 155.1Z" fill="white" stroke="#3B65EE" stroke-width="3" stroke-miterlimit="10" stroke-linecap="round"/>
<path d="M239.343 217.14C252.123 219.86 266.013 207.37 270.343 189.26C274.673 171.15 267.833 154.26 255.043 151.54C242.263 148.83 228.373 161.31 224.033 179.43C219.703 197.54 226.553 214.43 239.343 217.14Z" fill="#3B65EE"/>
<path d="M307.702 217.14C320.482 219.86 334.372 207.37 338.702 189.26C343.032 171.15 336.192 154.26 323.402 151.54C310.622 148.83 296.732 161.31 292.392 179.43C288.062 197.54 294.912 214.43 307.702 217.14Z" fill="#3B65EE"/>
<path d="M272.677 103.539C249.037 146.589 210.438 137.949 210.438 137.949Z" fill="white"/>
<path d="M272.675 103.539C270.535 109.599 267.265 115.259 263.175 120.349C259.095 125.439 254.025 129.829 248.315 133.159C242.605 136.509 236.215 138.679 229.715 139.559C223.225 140.379 216.535 140.109 210.445 137.949C216.845 138.029 223.035 137.209 228.975 135.699C234.905 134.169 240.575 131.889 245.815 128.839C251.045 125.789 255.905 122.039 260.295 117.709C264.715 113.419 268.715 108.589 272.675 103.539Z" fill="#3B65EE"/>
<path d="M310.898 114.539C325.168 147.579 356.278 135.849 356.278 135.849Z" fill="white"/>
<path d="M310.898 114.539C313.688 118.389 316.468 121.999 319.618 125.089C319.998 125.489 320.398 125.859 320.818 126.219C321.228 126.579 321.618 126.969 322.038 127.309C322.898 127.969 323.708 128.689 324.608 129.279C326.358 130.519 328.198 131.629 330.148 132.509C334.018 134.309 338.228 135.409 342.618 135.889C347.018 136.359 351.558 136.329 356.268 135.849C352.178 138.319 347.378 139.539 342.508 139.819C337.628 140.069 332.578 139.169 328.028 137.039C327.468 136.759 326.898 136.499 326.348 136.189L324.728 135.239C323.698 134.529 322.638 133.849 321.708 133.019C319.778 131.449 318.088 129.609 316.638 127.639C313.778 123.689 311.788 119.209 310.898 114.539Z" fill="#3B65EE"/>
<path d="M493.893 574.6L478.473 575.12L463.053 575.51L432.203 576.27C411.643 576.68 391.083 577.01 370.533 577.26C349.973 577.57 329.343 577.65 308.843 577.83L247.173 578.01L185.483 577.83C164.933 577.65 144.373 577.59 123.813 577.28C103.253 576.97 82.6231 576.67 62.1431 576.29L31.2931 575.52L15.8731 575.13L0.453125 574.61L15.8731 574.09C15.8731 574.09 80.7031 560.35 171.363 560.35C262.023 560.35 463.063 573.71 463.063 573.71L493.893 574.6Z" fill="#D1DAED"/>
<path d="M344.562 317.169C338.932 368.599 320.362 398.059 290.512 398.059C260.662 398.059 251.522 374.709 238.462 317.169C225.402 259.629 260.662 236.279 290.512 236.279C320.362 236.279 350.182 265.739 344.562 317.169Z" fill="#3B65EE"/>
<path d="M258.084 190.58C261.53 190.58 264.324 187.786 264.324 184.34C264.324 180.893 261.53 178.1 258.084 178.1C254.637 178.1 251.844 180.893 251.844 184.34C251.844 187.786 254.637 190.58 258.084 190.58Z" fill="white" stroke="#3B65EE" stroke-width="3" stroke-miterlimit="10" stroke-linecap="round"/>
<path d="M305.974 190.58C309.421 190.58 312.214 187.786 312.214 184.34C312.214 180.893 309.421 178.1 305.974 178.1C302.528 178.1 299.734 180.893 299.734 184.34C299.734 187.786 302.528 190.58 305.974 190.58Z" fill="white" stroke="#3B65EE" stroke-width="3" stroke-miterlimit="10" stroke-linecap="round"/>
<path d="M464.305 184.34C464.305 184.34 489.475 221.73 464.305 288.15Z" fill="white"/>
<path d="M464.305 184.34C466.835 188.03 468.675 192.16 470.325 196.32L471.485 199.48L472.455 202.7C473.165 204.84 473.585 207.04 474.105 209.23C476.005 218.02 476.595 227.06 476.385 236.04L475.975 242.77C475.935 243.89 475.765 245 475.625 246.12L475.185 249.46C474.695 253.93 473.655 258.3 472.725 262.68C472.315 264.89 471.615 267.02 470.995 269.17L469.085 275.61C468.365 277.73 467.515 279.8 466.735 281.9C465.945 283.99 465.145 286.07 464.315 288.14C465.535 283.84 466.935 279.61 468.145 275.33L469.725 268.85C470.225 266.69 470.875 264.56 471.195 262.35C471.935 257.97 472.935 253.64 473.305 249.22L473.705 245.92C473.835 244.82 474.005 243.72 474.035 242.62L474.395 235.99C474.645 227.15 474.155 218.27 472.585 209.55C472.165 207.38 471.795 205.19 471.205 203.05L470.405 199.82L469.425 196.64C468.075 192.41 466.445 188.26 464.305 184.34Z" fill="#D1DAED"/>
<path d="M413.43 373.49C413.43 373.49 415.45 429 441.36 473.73Z" fill="white"/>
<path d="M413.43 373.49C413.88 377.84 414.37 382.18 415.04 386.5C415.34 388.66 415.7 390.81 416.03 392.97L417.14 399.42C418.72 408 420.61 416.51 422.86 424.92C425.03 433.36 427.77 441.63 430.78 449.8L433.14 455.9C433.97 457.91 434.88 459.89 435.74 461.9L437.03 464.91L438.47 467.85C439.45 469.8 440.4 471.77 441.35 473.75C440.22 471.88 439.1 470 438 468.1L436.35 465.26L434.85 462.33C433.88 460.37 432.87 458.42 431.93 456.43L429.32 450.39C428.41 448.39 427.67 446.32 426.92 444.26L425.78 441.17C425.39 440.14 425.02 439.11 424.7 438.06L422.71 431.78C422.06 429.68 421.52 427.56 420.93 425.44C418.69 416.95 416.88 408.36 415.6 399.68C414.33 390.99 413.52 382.24 413.43 373.49Z" fill="#D1DAED"/>
<path d="M457.344 337.259L488.544 260.549C492.784 250.119 501.754 242.179 512.744 239.769C521.664 237.809 532.334 239.199 542.084 250.329" fill="#D1DAED"/>
<path d="M457.344 337.259L488.544 260.549C492.784 250.119 501.754 242.179 512.744 239.769C521.664 237.809 532.334 239.199 542.084 250.329" stroke="#3B65EE" stroke-width="3" stroke-miterlimit="10" stroke-linecap="round"/>
<path d="M441.359 190.58C441.359 190.58 464.299 212.67 464.299 250.4Z" fill="white"/>
<path d="M441.359 190.58C443.439 192.37 445.249 194.45 447.049 196.53C448.769 198.68 450.409 200.89 451.889 203.22C454.879 207.85 457.399 212.8 459.329 217.98C459.859 219.26 460.259 220.58 460.679 221.89L461.309 223.86C461.529 224.51 461.729 225.18 461.869 225.85L462.829 229.88C463.169 231.22 463.309 232.6 463.539 233.95C463.719 235.32 464.029 236.66 464.079 238.04L464.369 242.16C464.489 243.53 464.399 244.91 464.399 246.28C464.389 247.65 464.349 249.02 464.289 250.39C464.129 249.02 463.989 247.66 463.869 246.31C463.729 244.95 463.669 243.59 463.399 242.25C462.969 239.56 462.639 236.87 461.999 234.23C460.949 228.92 459.349 223.73 457.449 218.68C455.589 213.6 453.209 208.73 450.539 204.02C447.859 199.34 444.879 194.77 441.359 190.58Z" fill="#D1DAED"/>
<path d="M270.602 418.039C270.602 418.039 328.402 432.679 351.192 376.359Z" fill="white"/>
<path d="M270.602 418.04C278.812 419.18 287.082 419.17 295.172 418.18C303.252 417.14 311.162 414.96 318.422 411.39C325.672 407.82 332.172 402.83 337.652 396.82C343.072 390.75 347.502 383.78 351.192 376.35C348.652 384.25 344.702 391.77 339.432 398.35C338.782 399.17 338.052 399.94 337.362 400.74L336.302 401.92C335.932 402.3 335.552 402.66 335.172 403.03C334.412 403.76 333.662 404.51 332.882 405.22L330.452 407.27C327.122 409.89 323.532 412.17 319.752 414.09C315.932 415.91 311.942 417.4 307.862 418.47C303.772 419.51 299.602 420.23 295.412 420.51C291.222 420.83 287.022 420.75 282.862 420.38C278.702 419.96 274.572 419.28 270.602 418.04Z" fill="#D1DAED"/>
</svg>
