<svg width="64" height="73" viewBox="0 0 64 73" fill="none" xmlns="http://www.w3.org/2000/svg">
<path d="M47.3222 13.3922L46.8479 11.9691L46.8479 11.9691L47.3222 13.3922ZM63.3416 9.17086C63.7121 8.4299 63.4118 7.52888 62.6709 7.15838L50.5963 1.12067C49.8553 0.750162 48.9543 1.05047 48.5838 1.79143C48.2133 2.53239 48.5136 3.43341 49.2545 3.80391L59.9875 9.17077L54.6207 19.9037C54.2502 20.6447 54.5505 21.5457 55.2914 21.9162C56.0324 22.2867 56.9334 21.9864 57.3039 21.2455L63.3416 9.17086ZM47.7965 14.8152L62.4743 9.92304L61.5257 7.07696L46.8479 11.9691L47.7965 14.8152ZM3.4862 72.1111C5.26533 45.7919 22.7707 23.1564 47.7965 14.8152L46.8479 11.9691C20.6674 20.6952 2.35426 44.3752 0.493029 71.9088L3.4862 72.1111Z" fill="#88AAE5"/>
</svg>
