<?xml version="1.0" encoding="UTF-8"?>
<svg id="Layer_2" xmlns="http://www.w3.org/2000/svg" viewBox="0 0 411.26 306.04">
  <defs>
    <style>
      .cls-1, .cls-2, .cls-3, .cls-4 {
        fill: #3b65ee;
      }

      .cls-5 {
        fill: none;
      }

      .cls-5, .cls-4 {
        stroke-width: 1.14px;
      }

      .cls-5, .cls-4, .cls-6, .cls-7 {
        stroke: #3b65ee;
      }

      .cls-5, .cls-6, .cls-7 {
        stroke-miterlimit: 10;
      }

      .cls-8, .cls-6, .cls-7 {
        fill: #fff;
      }

      .cls-2 {
        opacity: .1;
      }

      .cls-3 {
        opacity: .2;
      }

      .cls-4 {
        stroke-linecap: round;
        stroke-linejoin: round;
      }

      .cls-6 {
        stroke-width: 2px;
      }

      .cls-7 {
        stroke-width: 3.32px;
      }
    </style>
  </defs>
  <g id="Layer_3">
    <g>
      <g>
        <g>
          <path class="cls-1" d="M260.09,299.61c-160.96,0-199.84-47.31-203.75-52.7-1.15-1.8-1.15-4.18.03-6.02,43.47-73.52,34.49-176.3,32.25-196.16-.04-.35-.07-.58-.08-.7v-.1l-.03-.17c-.08-.49-.08-.99,0-1.49.46-2.78,2.83-4.79,5.63-4.79.28,0,.56.02.84.06,33.43,4.77,66.04,7.19,96.93,7.19,44.14,0,72.48-4.94,82.62-7.07.2-.04.35-.07.45-.09h.06l.23-.06c.45-.11.9-.16,1.36-.16,2.32,0,4.41,1.38,5.31,3.52,20.9,49.18,24.77,106.38,11.5,170.03-9.68,46.42-25.2,79.53-28.21,85.7-.98,1.84-2.96,3.02-5.12,3.02h-.02ZM101.24,52.12c2.47,26.47,7.46,118.38-32.25,189.58l-.76,1.36,1.14,1.07c5.94,5.57,20.21,16.33,48.99,25.82,35.58,11.73,81.71,17.84,137.12,18.17h1.3s.54-1.17.54-1.17c4.3-9.49,18.95-43.94,27-88.91,9.83-54.91,6.42-104.33-10.14-146.9l-.6-1.54-1.63.3c-12.6,2.33-39.55,6.23-78.46,6.23-28.6,0-58.89-2.08-90-6.18l-2.49-.33.23,2.5Z"/>
          <path class="cls-8" d="M276.62,39.34c1.52,0,2.88.9,3.47,2.31,11.37,26.74,17.69,56.42,18.79,88.21.89,25.67-1.6,52.79-7.41,80.63-9.77,46.86-26.01,81.03-28.02,85.15-.68,1.22-1.96,1.97-3.39,1.97-37.87,0-71.99-2.66-101.4-7.91-23.61-4.21-44.28-10.1-61.43-17.49-27.61-11.89-37.44-23.95-39.24-26.41-.71-1.18-.69-2.67.05-3.83l.04-.06.03-.06c19.28-32.62,30.71-74.31,33.96-123.93,2.17-33.2,0-60.25-1.48-73.41-.03-.26-.05-.45-.06-.58v-.17l-.06-.34c-.05-.27-.05-.54,0-.83.3-1.8,1.83-3.11,3.65-3.11.18,0,.37.01.57.04,33.52,4.78,66.22,7.2,97.2,7.2,44.33,0,72.83-4.97,83.03-7.11.09-.02.18-.04.25-.05h.1l.46-.11c.29-.07.59-.11.89-.11M258.06,290.14l1.07-2.36c4.32-9.54,19.06-44.19,27.15-89.38,9.9-55.28,6.45-105.06-10.24-147.98l-1.2-3.08-3.25.6c-12.53,2.31-39.35,6.19-78.1,6.19-28.52,0-58.71-2.07-89.74-6.16l-4.97-.66.47,4.99c1.37,14.64,3.14,44.4-.38,79.28-4.28,42.46-14.92,79.18-31.62,109.14l-1.52,2.73,2.28,2.14c6.06,5.68,20.58,16.65,49.74,26.26,35.78,11.79,82.12,17.94,137.73,18.27l2.6.02M276.62,35.34c-.61,0-1.22.07-1.83.22-.42,0-29.84,7.16-82.9,7.16-26.53,0-58.96-1.79-96.63-7.16-.38-.06-.76-.08-1.13-.08-3.71,0-6.97,2.68-7.6,6.45-.12.72-.12,1.45,0,2.17,0,1.15,15.61,115.44-31.85,195.71-1.6,2.51-1.6,5.71,0,8.22,1.53,2.1,37.59,53.58,205.4,53.58.01,0,.02,0,.03,0,2.89,0,5.55-1.59,6.91-4.14,2.74-5.61,67.34-138.38,16.76-257.38-1.24-2.92-4.09-4.74-7.15-4.74h0ZM193.49,58.13c40.28,0,67.11-4.1,78.82-6.26,38.73,99.58-6.37,211.19-16.82,234.26-128.88-.76-173.54-32.94-184.76-43.45,39.5-70.84,35.29-160.74,32.49-190.74,35.01,4.61,65.23,6.2,90.26,6.2h0Z"/>
        </g>
        <g>
          <path class="cls-1" d="M210.64,158.11c-8.03,0-14.56-6.62-14.56-14.75s6.53-14.76,14.56-14.76,14.56,6.62,14.56,14.76-6.53,14.75-14.56,14.75Z"/>
          <path class="cls-8" d="M210.64,130.6c6.93,0,12.56,5.72,12.56,12.76s-5.64,12.76-12.56,12.76-12.56-5.72-12.56-12.76,5.64-12.76,12.56-12.76M210.64,126.6c-9.15,0-16.56,7.5-16.56,16.76s7.42,16.76,16.56,16.76,16.56-7.5,16.56-16.76-7.42-16.76-16.56-16.76h0Z"/>
        </g>
        <g>
          <path class="cls-1" d="M160.88,158.11c-8.03,0-14.56-6.62-14.56-14.75s6.53-14.76,14.56-14.76,14.56,6.62,14.56,14.76-6.53,14.75-14.56,14.75Z"/>
          <path class="cls-8" d="M160.88,130.6c6.93,0,12.56,5.72,12.56,12.76s-5.64,12.76-12.56,12.76-12.56-5.72-12.56-12.76,5.64-12.76,12.56-12.76M160.88,126.6c-9.15,0-16.56,7.5-16.56,16.76s7.42,16.76,16.56,16.76,16.56-7.5,16.56-16.76-7.42-16.76-16.56-16.76h0Z"/>
        </g>
        <g>
          <path class="cls-1" d="M186.95,244.64c-5.84,0-11.68-.77-17.38-2.28-31.24-8.28-52.33-37.7-50.15-69.95v-.13c0-2.41,1.97-4.37,4.38-4.37h1.17l123.18,20.68c1.31.19,2.42.84,3.18,1.86.76,1.01,1.08,2.27.91,3.52l-.02.14v.46c-7.94,29.49-34.74,50.07-65.26,50.07Z"/>
          <path class="cls-8" d="M124.81,169.91l123.01,20.65h.05s.05.02.05.02c.73.1,1.37.48,1.81,1.07.44.59.63,1.31.53,1.99v.02s-.05.29-.05.29v.36c-7.79,28.49-33.73,48.34-63.26,48.34-5.66,0-11.34-.74-16.86-2.21-30.32-8.04-50.78-36.59-48.66-67.88v-.14s0-.14,0-.14c0-1.31,1.06-2.37,2.37-2.37h1M125.14,165.91h-1.34c-3.52,0-6.37,2.85-6.37,6.37-2.25,33.27,19.4,63.47,51.63,72.02,5.98,1.59,11.98,2.34,17.89,2.34,30.81,0,58.99-20.61,67.26-51.81v-.57s0,0,0,0c.53-3.69-2.04-7.11-5.73-7.64l-123.34-20.71h0Z"/>
        </g>
      </g>
      <path class="cls-6" d="M399.39,247.51c.02-.41-.15-.82-.49-1.08-1.39-1.12-6.14-3.72-20.88-4.45-18.94-.93-25.99,3.4-26.22,4.19s2.42,34.72,2.54,36.2c0,.04,0,.08.01.12.15.88,2.08,9.88,17.17,11.31,15.87,1.51,24.76-7.29,24.76-7.29,0,0,1-.94,1.15-2.09.14-1.07,1.72-32.3,1.95-36.91Z"/>
      <path class="cls-5" d="M351.8,246.16s-2.39,4.18,22.54,4.75c0,0,21.33.48,25.04-3.4"/>
      <polygon class="cls-4" points="389.3 268.71 384.24 258.05 377.03 267.27 383.5 266.79 389.3 268.71"/>
      <polygon class="cls-4" points="367.3 266.48 362.46 256.9 357.64 266.05 362.5 265.79 367.3 266.48"/>
      <polygon class="cls-4" points="372.67 267.81 374.66 272.97 368.85 272.56 372.67 267.81"/>
      <path class="cls-1" d="M398.02,248.33s-3.32-3.53-20.84-4.7c-16.18-1.08-24.63,3.78-24.63,3.78,0,0,4.31,2.85,21.31,3.13,15.29.25,22.68-1.19,24.15-2.22Z"/>
      <path class="cls-3" d="M399.03,247.95s-4.49-3.87-22.01-5.04c-16.18-1.08-25.22,4.19-25.22,4.19,0,0,4.91,2.45,21.91,2.72,15.29.25,23.84-.85,25.32-1.87Z"/>
      <path class="cls-3" d="M353.02,250.03l2.76,36.09s1.36,1.92,3.32,3.32c1.96,1.4,7.89,4.94,17.89,4.86l-2-41s-15,0-21.98-3.27Z"/>
      <path class="cls-4" d="M358.48,273.76s.86.54,3.5,1.17c-.01.12-.01.24.02.37l.82,3.83c.11.53.58.92,1.16.96l3.4.25c.75.06,1.4-.51,1.38-1.22l-.06-3.07c1.06.13,2.23.25,3.5.36,1.47.13,2.88.19,4.22.22l.35,3.8c.06.62.61,1.1,1.28,1.1h3.93c.59-.01,1.1-.39,1.24-.93l1.07-4.04c.03-.1.04-.21.04-.31,3.98-.46,6.33-1.16,6.33-1.16.37,3.59-2.66,9.96-6.8,11.12-1.61.45-4.3.96-7.36,1.01,0,0-.08-.36.08-.84l-.05-1.81c-.02-.62-.53-1.13-1.19-1.17l-5.04-.35c-.62-.04-1.19.34-1.34.92l-.56,2.16c-.04.14-.04.28-.02.41-2.03-.29-3.82-.72-5.06-1.32-4.45-2.16-4.83-11.46-4.83-11.46Z"/>
      <path class="cls-1" d="M398.05,251.14c1.33.15,2.54-.76,2.62-1.97.34-4.8.3-16.19-6.59-23.48-3.91-4.14-9.35-6.29-16.19-6.39-7.63-.12-13.77,1.94-18.24,6.12-8.18,7.63-7.55,19.22-7.53,19.72l4.34-1.82c-.15-1.84-.28-8.74,6.49-15.03,3.54-3.29,8.51-4.91,14.79-4.81,5.46.08,9.77,1.75,12.8,4.94,5.78,6.11,5.79,16.3,5.5,20.54-.07,1.09.8,2.04,2,2.17h0Z"/>
      <path class="cls-7" d="M192.56,3.19S87.37-14.53,68.54,70.73c-18.82,85.26-36.97,127.38-48.38,139.53-11.41,12.16,26.55,27.11,59.61,26.28,33.06-.83,52.99.28,68.49,12.46s64.22,25.47,95.22,18.82c31-6.64,43.18-8.86,57.58-4.43,14.39,4.43,28.9,2.98,35.49-6.81s-14.45-37.48-21.09-78.45c-6.64-40.97-5.29-88.62-6.64-97.44-2.21-14.39-8.86-78.62-116.26-77.51Z"/>
      <ellipse class="cls-3" cx="152.8" cy="300.5" rx="152.8" ry="5.54"/>
      <ellipse class="cls-1" cx="206.56" cy="114.61" rx="16.56" ry="16.76"/>
      <ellipse class="cls-1" cx="156.8" cy="114.61" rx="16.56" ry="16.76"/>
      <path class="cls-1" d="M244.4,157.87c3.69.53,6.26,3.94,5.74,7.64,0,0,0,0,0,0v.57c-9.86,37.17-47.98,59.32-85.15,49.46-32.23-8.55-53.88-38.75-51.63-72.02,0-3.52,2.85-6.37,6.37-6.37h1.34s123.34,20.71,123.34,20.71Z"/>
      <path class="cls-1" d="M301.53,264.96c1.4.84-12.64-31.46-21.5-70.21,0,0,7.57,61.81,21.5,70.21Z"/>
      <path class="cls-1" d="M131.66,222.37s16.55,26.56,24.36,30.39c0,0-18.2-7.12-24.36-30.39Z"/>
      <path class="cls-1" d="M65.14,151.01s-2.85,17.65-8.42,27c0,0,9.44-8.79,8.42-27Z"/>
      <path class="cls-2" d="M161.1,11.44s53.27-3.81,81.84,7.8c50.38,20.48,53.15,44.29,54.26,107.4,1.11,63.11,9.97,86.37,15.5,94.12s27.19,44.81-16.3,35.14l-19.68-65.59s-4.43-13.29-5.54-5.54,4.43,53.2,6.64,59.26,5.54,10.13,0,10.87-44.06,10.54-56.91,10.07c-12.85-.47-54.26-5.22-62.9-23.33-8.64-18.11,6.86-167.59-8.64-187.52s-36.42-15.44-34.82-23.78c1.6-8.33,18.4-18.4,46.54-18.9Z"/>
      <path class="cls-2" d="M75.19,150.45s-8.19,27.68-20.7,42.63c-12.51,14.95-21.37,21.59-11.41,26.02s36.57,7.89,44.31,3.95c7.74-3.95,2.23-39.68,0-50.6s-3.4-30.61-2.81-36.82-6.06-4-9.38,14.82Z"/>
      <path class="cls-3" d="M394.11,288.24c-3.52,2.48-11.27,6.64-22.59,5.56-7.85-.75-12.13-3.54-14.46-6.17-15.54.69-26.64,2.53-26.64,4.69,0,2.75,18.09,4.98,40.41,4.98s40.41-2.23,40.41-4.98c0-1.68-6.78-3.17-17.14-4.07Z"/>
    </g>
  </g>
</svg>