<?xml version="1.0" encoding="UTF-8"?><svg id="Layer_1" xmlns="http://www.w3.org/2000/svg" viewBox="0 0 450 450"><defs><style>.cls-1{fill:#ebf0ff;}.cls-2{fill:#fff;}.cls-3{fill:#80a4fb;}.cls-4{fill:#2b67f8;}</style></defs><path class="cls-3" d="m358.71,275.18c.28-.83.57-1.66.89-2.48l-2.95-.4c-.03,1.13-.51,2.16-.97,3.2-.55,1.23-1.04,2.45-1.05,3.82-.01,1.26,1.67,2.03,2.56,1.06s1.96-1.77,2.51-3.05l-2.74-1.16c-.46,3.09-2.45,6.19-1.57,9.39.51,1.86,3.41,1.07,2.89-.8-.13-.47-.14-1-.06-1.57.09-.62.3-1.38.49-2.04.41-1.38.92-2.75,1.14-4.18.11-.74-.12-1.47-.87-1.77-.62-.25-1.58-.08-1.87.61-.45,1.04-1.27,1.6-2.04,2.44l2.56,1.06c0-1,.5-2,.94-2.98.58-1.3,1.05-2.59,1.08-4.04.02-.74-.58-1.39-1.3-1.47-.79-.09-1.37.36-1.65,1.07-.32.82-.61,1.64-.89,2.48-.26.77.3,1.64,1.05,1.85.82.23,1.58-.28,1.85-1.05h0Z"/><path class="cls-2" d="m357.46,232.81c-1.02.72-2.56.95-3.76.7-.27-.06-.53-.15-.79-.26-.45,18.56.31,37.36,3.36,55.59.04.27.09.54.14.81,0,0,1.5-4.5,2.5-5.5s1-7,1-7c-1.08-10.84-1.87-27.26-2.05-44.64-.13.11-.26.21-.39.3Z"/><path class="cls-2" d="m357.08,232.16c-1.22.78-2.63.87-3.98.37-.47-.18-.94.27-.95.72-.44,18.89.25,37.95,3.53,56.59.14.78,1.23.64,1.45,0,.35-1.05.74-2.09,1.18-3.11s1.25-1.92,1.64-2.96c.74-1.96.79-4.54.7-6.63-.16-3.97-.69-7.96-.94-11.93-.3-4.81-.52-9.62-.7-14.44-.22-6.09-.35-12.18-.42-18.27,0-.7-.79-.92-1.28-.53l-.24.19c-.77.57-.02,1.87.76,1.3.19-.14.37-.28.55-.42l-1.28-.53c.11,10.17.4,20.34.98,30.49.24,4.14.52,8.27.9,12.4.22,2.38.26,4.85-.26,7.2-.27,1.23-1.2,2.22-1.71,3.38s-.94,2.29-1.33,3.47h1.45c-3.25-18.5-3.91-37.44-3.47-56.19l-.95.72c1.69.63,3.6.46,5.13-.52.81-.52.06-1.82-.76-1.3Z"/><path class="cls-2" d="m384,171.28c.75-1.32,1.25-2.82,1.42-4.27,2.36-5.95.93-12.95,4.27-18.42-6.54,5.89-10.3,9.88-18.49,12.55,5.58-9.02,16.07-14.39,20.9-24.53,2.64-5.54,2.18-16.36,2.37-21.44-2.3,5.76-7.66,11.73-12.71,15.32,7.89-3.51,13.11-17.11,12.68-25.4-.38-7.23-10.08-16.54-7.12-23.55l-.95.47c-3.39-.66-8.6,7.05-11.35,9.51-3.79,3.39-7.64,6.59-10.51,10.93-3.42,5.17-4.66,12.81-3.49,18.96-2.29-2.74-2.57-6.76-2.75-10.32-3.55,7.87-5.83,17.22-6.53,25.74-.56,6.73,1.34,14.29.36,21.03-2.08-5.49-2.82-10.68-4.25-16.19-4.44,6.57-6.67,18.19-7.77,26.05s1.89,14.23,2.1,21.46c-3.34-1.35-4.99-5.35-4.8-8.67-2.2,6.17-2.99,14.92-.58,21.13,2.21,5.69,11.45,8.4,10.12,15.06-3.09-1.37-8.87-11.58-12.61-9.01,3.81,4.95,9.08,8.04,9.76,14.73-2.34-3.08-6.77-7.14-10.84-4.99,8.17,4.92,13.25,8.93,16.18,18.19-2.98-5.24-16.65-9.45-14.72.67,4.36-.95,17.86-1.92,17.4,5.58h10l1.97,2.03c-.24-2.1-3.02-3.2-4.75-1.42l-.47-1.9c2.17-3.5,17.84-14.21,18.51-4.42.68-9.82-12.8-10.71-16.16-2.84,1.12-5.58,5.37-10.02,10.93-11.62,4.53-1.3,10.8.59,8.18,6.37,4.38-12.1-7.82-12.3-15.12-6.56,7.57-4.92,18.09-7.92,20.04-17.47-5.73,5.26-12.49,10.41-19.78,13.56,2.31-5.99,11.87-15.4,18.89-15.45-2.03-1.96-1.68-5.27.45-7.19-5.49.44-15.97,7.69-20.13,11.77,5.83-4.79,16.32-11.42,19.32-18.58,2.04-4.87,2.53-12.92,2.84-18.2-7.37,5.96-8.18,18.37-17.99,22.19"/><path class="cls-2" d="m384.65,171.66c.97-1.79,1.31-3.69,1.91-5.6.55-1.75.83-3.57,1.05-5.39.49-4,.64-8.14,2.74-11.7.44-.75-.56-1.47-1.18-.91-2.77,2.5-5.47,5.13-8.47,7.37s-6.19,3.83-9.68,4.99l.85,1.1c4.02-6.4,10.29-10.87,15.29-16.43,2.41-2.68,4.69-5.69,6.02-9.06,1.21-3.08,1.54-6.5,1.76-9.78.24-3.69.17-7.39.3-11.09.03-.91-1.17-.93-1.47-.2-2.44,5.95-7.19,11.15-12.36,14.88-.79.57-.12,1.7.76,1.3,6.57-3.02,10.27-10.91,12.01-17.53.84-3.19,1.47-6.79.84-10.08-.69-3.59-2.74-6.86-4.4-10.07-1.8-3.47-4.13-7.76-2.55-11.72.26-.66-.58-1.11-1.1-.85-.19.1-.39.18-.58.29-.08.05-.17.08-.25.13-.25.15.52.02.17-.06-.46-.1-1.02.02-1.46.16-1.22.38-2.28,1.22-3.23,2.05-2.33,2.04-4.18,4.54-6.32,6.76-2.76,2.87-5.98,5.23-8.63,8.23s-4.63,6.35-5.72,10.21c-1.18,4.2-1.42,8.66-.64,12.95l1.25-.73c-2.17-2.73-2.36-6.45-2.54-9.79-.04-.67-1.07-1.11-1.4-.38-3.19,7.14-5.24,14.77-6.25,22.52-.52,3.97-.54,7.85-.23,11.83s.8,8.42.23,12.6h1.45c-1.95-5.25-2.86-10.78-4.25-16.19-.17-.66-1.03-.7-1.37-.18-4.26,6.42-5.92,14.55-7.19,22.02-.71,4.15-1.14,8.14-.59,12.34.6,4.53,1.84,8.95,2.01,13.53l1.13-.65c-3.11-1.36-4.55-4.77-4.43-8.02.03-.88-1.21-.97-1.47-.2-1.32,3.77-2.01,7.78-2.08,11.77-.06,3.57.27,7.71,2.03,10.9,1.4,2.55,3.84,4.34,5.95,6.26s4.19,4.2,3.64,7.26l1.1-.45c-1.16-.55-2.05-1.64-2.9-2.56-1.19-1.3-2.34-2.65-3.59-3.9-1.68-1.67-4.39-4.13-6.88-2.55-.45.28-.45.79-.15,1.18,3.54,4.53,8.83,8.07,9.54,14.2l1.4-.38c-2.7-3.51-7.17-7.54-11.87-5.26-.52.25-.45,1.02,0,1.3,3.48,2.1,6.95,4.3,9.79,7.24s4.78,6.59,6.04,10.5l1.37-.58c-1.98-3.36-6.38-5.49-10.16-5.83-1.66-.15-3.52.11-4.76,1.32-1.54,1.5-1.52,3.79-1.16,5.75.07.42.56.6.92.52,3.13-.67,6.5-.82,9.68-.44s6.93,1.55,6.77,5.29c-.02.41.36.75.75.75h8.8c.25,0,.88.12,1.1,0,.13-.07-.41-.35-.31-.1.08.22.44.46.61.63l1.25,1.28c.56.58,1.38-.03,1.25-.73-.52-2.92-3.98-3.63-6-1.76l1.25.33-.32-1.3c-.04-.18-.06-.4-.14-.57.3.61-.23.46.16.19.62-.43,1.14-1.22,1.72-1.72,1.73-1.51,3.66-2.81,5.68-3.91,2.94-1.6,9.03-4.17,9.48,1.18.08.96,1.45.97,1.5,0,.25-4.51-2.59-8.16-7.1-8.78-4.26-.59-8.68,1.57-10.45,5.56l1.37.58c1.12-5.26,5.06-9.52,10.23-11.04,1.89-.56,4.1-.65,5.93.18,2.16.98,2.45,3,1.57,5.04l1.37.58c1.44-4.1,1.52-9.44-3.51-10.84-4.42-1.23-9.41.88-12.86,3.55-.67.52.2,1.64.91,1.18,7.52-4.85,18.25-8.02,20.39-17.92.16-.74-.69-1.24-1.25-.73-5.87,5.37-12.3,10.24-19.63,13.44l1.1.85c1.47-3.7,4.41-6.91,7.36-9.51s6.74-5.3,10.81-5.4c.65-.02.98-.81.53-1.28-1.75-1.83-1.28-4.47.45-6.13.44-.42.13-1.34-.53-1.28-3.86.37-7.56,2.53-10.79,4.53-3.49,2.15-6.92,4.59-9.87,7.46-.71.69.33,1.66,1.06,1.06,4.68-3.82,9.75-7.17,14.06-11.43,2-1.98,3.92-4.18,5.13-6.74s1.82-5.62,2.23-8.5c.51-3.52.75-7.08.96-10.63.04-.71-.82-.91-1.28-.53-7.37,6.09-8.18,18.19-17.66,22-.88.36-.5,1.81.4,1.45,4.71-1.9,7.67-5.77,10.07-10.09s4.37-9.08,8.26-12.29l-1.28-.53c-.42,7.27-.43,15.79-5.13,21.78s-11.11,9.82-16.8,14.47l1.06,1.06c2.78-2.7,5.99-4.99,9.27-7.04,3.06-1.91,6.66-4.16,10.33-4.51l-.53-1.28c-2.33,2.23-2.76,5.84-.45,8.25l.53-1.28c-4.38.1-8.41,2.84-11.61,5.6s-6.39,6.34-8,10.4c-.27.68.58,1.07,1.1.85,7.43-3.25,13.97-8.23,19.93-13.68l-1.25-.73c-2.03,9.39-12.56,12.42-19.7,17.02l.91,1.18c2.94-2.28,7.23-4.09,11.01-3.26,4.48.98,4.08,5.63,2.86,9.1-.28.79,1.03,1.36,1.37.58.95-2.21,1.09-4.7-.94-6.36-1.86-1.52-4.59-1.75-6.88-1.38-6.25,1.01-11.36,6.32-12.66,12.41-.17.78,1.01,1.4,1.37.58,1.5-3.38,5.07-5.27,8.73-4.87,3.91.43,6.25,3.47,6.03,7.33h1.5c-.86-10.26-14.68-1.22-18.3,2.2-.53.5-1.27,1.12-1.58,1.8-.33.72.19,1.8.37,2.52.14.57.85.7,1.25.33,1.27-1.17,3.19-.65,3.49,1.09l1.25-.73c-.66-.68-1.54-2.07-2.5-2.25-.8-.15-1.78,0-2.59,0h-7.41l.75.75c.36-8.4-13.07-7.42-18.35-6.3l.92.52c-.27-1.51-.35-3.46,1.01-4.49,1.13-.86,2.78-.82,4.1-.6,3.05.51,6.61,2.25,8.23,5,.42.72,1.64.25,1.37-.58-1.31-4.06-3.27-7.83-6.21-10.94s-6.64-5.48-10.31-7.69v1.3c3.81-1.84,7.68,1.95,9.82,4.72.39.5,1.5.46,1.4-.38-.36-3.1-1.65-5.75-3.61-8.16s-4.41-4.59-6.38-7.1l-.15,1.18c2.15-1.36,4.98,2.18,6.22,3.53,1.67,1.81,3.35,4.39,5.63,5.48.4.19,1.01.07,1.1-.45,1.12-6.26-5.48-9.15-8.79-13.27-2.34-2.91-2.75-7.15-2.78-10.74-.03-4.13.66-8.28,2.03-12.18l-1.47-.2c-.14,3.73,1.61,7.77,5.18,9.32.49.21,1.15-.02,1.13-.65-.16-4.36-1.27-8.58-1.92-12.88s-.29-8.34.44-12.59c1.25-7.35,2.85-15.36,7.04-21.67l-1.37-.18c1.38,5.41,2.29,10.94,4.25,16.19.22.6,1.34.81,1.45,0,.54-3.95.23-7.9-.09-11.86s-.46-7.77-.02-11.69c.9-7.9,2.96-15.77,6.2-23.04l-1.4-.38c.2,3.8.52,7.76,2.97,10.85.51.65,1.37-.08,1.25-.73-1.39-7.6.66-15.52,5.69-21.38,2.55-2.97,5.61-5.37,8.42-8.07,1.99-1.91,3.63-4.15,5.58-6.1,1.03-1.03,2.2-2.21,3.59-2.75.51-.2.95-.09,1.45-.18.42-.07.85-.37,1.23-.56l-1.1-.85c-1.24,3.11-.26,6.45,1.01,9.39,1.51,3.48,3.62,6.68,5.02,10.21,2.62,6.56.06,14.61-3.19,20.52-1.88,3.41-4.44,6.72-8.06,8.38l.76,1.3c5.53-3.98,10.45-9.42,13.05-15.77l-1.47-.2c-.23,6.44.34,13.27-1.66,19.49-2.24,6.94-8.53,12.03-13.6,16.9-2.93,2.81-5.74,5.75-7.91,9.2-.34.54.23,1.31.85,1.1,3.61-1.2,6.98-2.87,10.04-5.14s5.91-5.01,8.78-7.6l-1.18-.91c-1.95,3.31-2.35,7.08-2.76,10.83-.21,1.96-.44,3.93-.95,5.84-.25.92-.58,1.79-.76,2.73-.23,1.16-.66,2.26-1.22,3.3-.46.85.84,1.61,1.3.76h0Z"/><path class="cls-2" d="m91.68,380.85c11.54,0,29.75-1.44,41-2,25.25-1.25,48.35-3.8,73.68-3.8,27.61,0,54.45,2.25,81.21-3.68l-.06-.09c7.29-3.83,11.52-14.3,12.12-22.04.46-5.96-.98-12.5-4.14-17.91l-1.58-.47c-3.88.05-9.48.22-13.15-1,3.46-1.28,6.98-2.66,10.5-3.64,0,0-4.67-4.26-8.08-5.41l-1.29-.08c-8.91.13-17.78,1.42-26.68,1.83l1.88-2.41c-2-14.64-6.76-28.92-7.5-43.99-.95-19.43,8.05-55.48,8.05-55.48-10.42,1.17-22.5.01-33.23,0,11.62-2.23,34.57-5.21,34.57-5.21,6.37-20.41,14.64-40.39,20.61-61.13,8.59-29.83,11.07-64.14-16.16-84.02l.73-.06c-60.94-1.46-121.99-1.12-182.87,2.04l.16.27c-7.3-.04-12.94,7.75-15.47,13.75-4.16,9.86-3.94,20.66-.35,30.59,2.63,7.28,9.27,18.44,17.27,9.62l-5.24,3.3c3.6.21,14.43-2.34,19.16-2.98l.54-2.91c-1.19,8.87-2.49,17.73-3.94,26.57,11.42.57,22.87,1.13,34.18,2.85-9.04,3.01-19.04,2.01-28.04,3.01-3,1-7,1-7,3-7,33-18,60-28,91-3,12-5,23-6,35,5,2,10,1,14.96,3.29-3.25,2.46-3.09-1.13,0,0-4.96,4.71-15.96-.29-16.96,8.71-3,26,1,51,16,73,7,8,20,16,30.38,7.44"/><path class="cls-2" d="m91.68,381.22c10.77,0,21.54-.84,32.28-1.5,12.42-.76,24.84-1.45,37.26-2.31,13.6-.94,27.2-1.82,40.83-1.97,13.6-.15,27.19.43,40.79.4,15.03-.04,30.1-.88,44.82-4.11.22-.05.36-.36.22-.55l-.06-.09-.13.51c6.63-3.61,10.32-11.43,11.76-18.55.83-4.07.81-8.24-.02-12.31-.46-2.26-1.16-4.46-2.09-6.57-.38-.87-.82-2.39-1.54-3.03-.31-.28-.76-.33-1.16-.45-1.82-.54-4-.15-5.89-.18-2.66-.05-5.35-.21-7.91-1v.72c3.48-1.29,6.93-2.63,10.5-3.64.26-.07.38-.43.17-.63-1.35-1.23-2.81-2.37-4.32-3.4-1.1-.75-2.32-1.59-3.6-1.98-.84-.26-1.76-.22-2.63-.2-8.61.2-17.16,1.4-25.77,1.82l.27.64c.57-.73,1.43-1.51,1.83-2.34.21-.43.16-.38.07-1.01-.19-1.33-.4-2.66-.63-3.98-.86-5.03-1.97-10.02-3.03-15.01-2-9.33-3.94-18.82-3.81-28.41.18-13.79,2.89-27.62,5.77-41.07.73-3.42,1.49-6.83,2.33-10.22.05-.21-.11-.5-.36-.47-11.04,1.2-22.17.03-33.23,0l.1.74c11.41-2.18,22.96-3.7,34.48-5.19.17-.02.31-.1.36-.28,7.25-23.16,17.09-45.6,22.76-69.24,4.11-17.14,6.07-36.13-.42-52.95-3.64-9.44-9.93-17.39-18.06-23.37l-.19.7.73-.06c.47-.04.49-.74,0-.75-23.78-.57-47.58-.87-71.37-.83-23.79.04-47.59.41-71.37,1.18-13.38.43-26.76.99-40.13,1.68-.28.01-.48.31-.32.56l.16.27.32-.56c-4.96.08-8.96,3.33-11.85,7.11-3.56,4.66-5.7,10.34-6.59,16.1-1.01,6.5-.4,13.19,1.54,19.46,1.38,4.47,3.41,9.19,6.78,12.54,1.47,1.46,3.34,2.68,5.47,2.74,2.57.07,4.7-1.57,6.37-3.35.28-.3-.08-.82-.45-.59-1.75,1.1-3.49,2.2-5.24,3.3-.32.2-.18.68.19.7,3,.13,6.12-.61,9.05-1.14,3.4-.62,6.79-1.37,10.21-1.85.12-.02.24-.15.26-.26l.54-2.91-.72-.2c-1.19,8.87-2.49,17.73-3.94,26.57-.04.25.1.46.36.47,11.39.57,22.8,1.14,34.08,2.84v-.72c-5.5,1.78-11.27,2.17-17.01,2.38-2.75.1-5.51.17-8.26.37-2.28.17-4.4.67-6.62,1.19-1.18.28-2.77.6-3.32,1.83-.44.97-.5,2.36-.73,3.41-.34,1.54-.69,3.07-1.05,4.6-1.32,5.59-2.78,11.15-4.35,16.68-6.08,21.36-13.89,42.16-20.8,63.25-2.06,6.29-3.41,12.82-4.6,19.33s-2.02,12.85-2.57,19.32c-.01.17.13.31.28.36,4.81,1.82,10.14,1.18,14.87,3.25v-.65c-.07.05-1.77,1.08-1.79.78-.04-.57,1.7-.15,1.88-.1l-.17-.63c-4.31,3.91-12.28.53-15.85,5.46-.92,1.28-1.15,2.8-1.32,4.33-.29,2.67-.51,5.35-.66,8.03-.27,5.18-.25,10.37.13,15.55.73,9.95,2.78,19.81,6.36,29.14,1.81,4.72,4,9.3,6.54,13.68,1.24,2.15,2.49,4.5,4.11,6.38,1.4,1.62,3.01,3.1,4.68,4.44,3.71,2.98,8.07,5.46,12.82,6.23s9.35-.51,13.14-3.55c.38-.3-.16-.83-.53-.53-7.81,6.25-17.58,3.13-24.72-2.54-1.63-1.29-3.19-2.71-4.57-4.27-1.65-1.85-2.9-4.17-4.14-6.31-2.48-4.24-4.62-8.67-6.41-13.25-3.44-8.84-5.53-18.17-6.37-27.61-.42-4.71-.54-9.45-.41-14.17.07-2.4.2-4.8.4-7.19.18-2.19.12-4.72.94-6.78,1.31-3.28,5.13-3.56,8.17-3.87s5.97-.6,8.22-2.63c.22-.2.09-.55-.17-.63-.75-.24-2.96-.49-2.85.92.12,1.55,2.44.12,2.94-.23.2-.14.28-.52,0-.65-2.54-1.11-5.2-1.52-7.93-1.83-1.55-.18-3.1-.36-4.62-.71-.4-.09-1.63-.24-1.94-.57-.54-.57-.08-2.11,0-2.83.61-6.19,1.52-12.34,2.71-18.45s2.63-12.37,4.61-18.39c1.85-5.62,3.76-11.22,5.69-16.82,7.71-22.43,15.44-44.87,20.46-68.1.12-.56.16-1.45.52-1.91s1.12-.65,1.66-.82c1.23-.37,2.51-.55,3.75-.87,3.1-.8,6.47-.71,9.66-.83,6.55-.24,13.15-.45,19.43-2.49.32-.1.39-.66,0-.72-11.36-1.71-22.83-2.29-34.28-2.86l.36.47c1.45-8.83,2.75-17.69,3.94-26.57.06-.46-.63-.68-.72-.2l-.32,1.74c-.04.24-.04.74-.18.95-.11.16-.02.05-.48.06-2.01.04-4.21.74-6.19,1.12-3.93.75-8.15,1.92-12.18,1.74l.19.7c1.75-1.1,3.49-2.2,5.24-3.3l-.45-.59c-1.57,1.67-3.57,3.27-5.99,3.13-2-.12-3.7-1.38-5.04-2.78-3.04-3.19-4.93-7.52-6.25-11.67-3.4-10.78-2.8-23.19,3.29-32.93,2.82-4.5,7.14-8.97,12.8-9.06.28,0,.47-.32.32-.56l-.16-.27-.32.56c23.76-1.23,47.54-2.03,71.33-2.47,23.79-.43,47.59-.5,71.38-.26,13.39.14,26.77.37,40.16.69v-.75l-.73.06c-.38.03-.49.48-.19.7,10.07,7.41,16.98,17.89,19.93,30.03s2.23,24.39.12,36.33c-2.52,14.27-7.23,28.08-12.02,41.72-2.77,7.89-5.64,15.75-8.36,23.65-1.32,3.84-2.61,7.7-3.84,11.57-.07.23-.23,1.21-.15,1.15-.07.05-.23,0-.32.04-.39.16-1.02.13-1.43.19-10.97,1.46-21.98,2.91-32.86,4.98-.42.08-.31.74.1.74,11.07.03,22.19,1.2,33.23,0l-.36-.47c-2.22,8.89-4.03,17.91-5.53,26.95-1.15,6.96-2.12,13.99-2.48,21.04-.44,8.62.71,17.13,2.37,25.57,1.1,5.59,2.39,11.14,3.49,16.72.56,2.82.86,5.72,1.48,8.52.17.76-.12.92-.63,1.58l-1.04,1.33c-.18.23-.09.66.27.64,8-.39,15.94-1.44,23.94-1.76,1.22-.05,2.55-.22,3.77-.01s2.51,1.1,3.56,1.8c1.59,1.05,3.1,2.24,4.51,3.51l.17-.63c-3.57,1.01-7.03,2.36-10.5,3.64-.34.13-.37.61,0,.72,2.29.71,4.71.92,7.1,1,2.18.08,4.75-.39,6.84.23.53.16.51.16.82.51.42.47.69,1.29.96,1.86.66,1.39,1.2,2.84,1.64,4.32.8,2.7,1.26,5.5,1.31,8.32.17,8.88-3.83,20.03-12.01,24.48-.17.09-.25.35-.13.51l.06.09.22-.55c-26.67,5.85-54.04,3.66-81.11,3.66-13.59,0-27.16.77-40.71,1.69-12.69.86-25.39,1.65-38.09,2.39-11.95.7-23.91,1.71-35.89,1.72-.48,0-.48.75,0,.75h0Z"/><path class="cls-1" d="m93.53,85.49c-2.29-5.56-7.69-11.52-14.3-10.45-6.07.99-9.58,6.7-11.2,12.12-.91,3.07-1.4,6.24-2.06,9.37l2.89.8c.98-4.94,4.61-8.4,9.34-9.89,4.19-1.32,9.17-1.34,13.12.74,1.33.7,2.77-.71,2.05-2.05-2.49-4.62-7.64-9.33-13.22-9.1-5.48.23-9.79,5.26-10.52,10.46-.22,1.53,1.89,2.81,2.74,1.16,1.08-2.09,2.74-3.94,4.84-5.03,2.36-1.22,4.49-.58,6.15,1.41l1.46-2.51c-5.99-1.69-14.61-1.14-15.86,6.43-.19,1.16,1.01,2.51,2.2,1.69,2.73-1.87,5.16-4.14,7.98-5.88,1.18-.73,2.79-1.67,4.02-1.77.16-.01.32-.02.47,0,.42.03-.2-.08.18.04.13.04.19.07.3.19-.05-.06.21.38.25.51.13.38.17.78.19,1.18l2.95-.4c-.87-2.81-3.67-4.31-6.51-4.24-3.06.08-5.76,1.84-6.73,4.79-.42,1.27,1.11,2.33,2.2,1.69,2.2-1.28,8.74-5.64,10.15-1.45l2.51-1.46c-1.17-.94-2.36-2.16-3.93-2.32-1.84-.18-3.49,1.05-4.88,2.08-1.53,1.13-.24,3.49,1.51,2.59,1.2-.62,2.22-1.41,3.33-2.16.01,0,.46-.29.46-.29.02.09-.36,0-.37.01-.16.19-.07-.3-.02.08.03.19.43.64.54.82,1.01,1.66,3.48.19,2.59-1.51-2.07-3.95-6.19-4.93-10.11-3.12-1.2.55-.82,2.44.36,2.74,1.62.42,3.14.28,4.78.15s2.48.32,3.38,1.74c1.03,1.63,3.63.12,2.59-1.51-1.13-1.78-2.59-3.1-4.76-3.25-1.76-.12-3.44.43-5.19-.02l.36,2.74c2.49-1.15,4.74-.37,6,2.05l2.59-1.51c-.79-1.3-1.9-2.74-3.63-2.25-.62.18-1.13.58-1.64.95-.89.65-1.8,1.25-2.78,1.76l1.51,2.59c.76-.56,2.14-1.86,3.19-1.7.5.08,1.5,1.06,1.99,1.46,1.06.85,3.03.11,2.51-1.46-2.36-7-10.29-2.84-14.56-.34l2.2,1.69c.95-2.86,6.43-3.88,7.46-.55.48,1.55,3.05,1.36,2.95-.4-.12-1.99-.8-4.17-2.94-4.76-1.81-.5-3.76.3-5.35,1.11-3.53,1.8-6.51,4.68-9.62,6.81l2.2,1.69c.96-5.82,7.69-5.59,12.17-4.33,1.54.43,2.37-1.41,1.46-2.51-2.26-2.7-5.59-3.66-8.87-2.3-2.94,1.21-5.39,3.72-6.84,6.53l2.74,1.16c.56-3.95,3.61-8.29,7.99-8.27s8.33,4.01,10.27,7.62l2.05-2.05c-9.71-5.13-24.59-.59-26.87,10.94-.37,1.88,2.49,2.69,2.89.8,1.2-5.7,1.73-12.73,6.27-16.93,2.39-2.22,5.71-3.22,8.75-1.73s5.47,4.52,6.75,7.62c.73,1.76,3.63.99,2.89-.8h0Z"/><path class="cls-1" d="m89.46,121.88c.17.42-1.46,1.75-.05.81,2.08-2.95,1.89-7.18,1.67-10.8,1,4-2.24,9.06-3,12,2.12-3.04,4.9-8.67,3.52-12.09,2.2,2.91,2.76,7.63,2.57,11.36-2.36.04-3.86-.02-6.09.73"/><path class="cls-1" d="m88.02,122.28c-.03-.13-.09-.75.09-.85-.03.02-.08.15-.11.19-.03.05-.08.1-.11.15-.09.16.22-.29.05-.06-.35.44-.53.72-.6,1.31-.07.55.35,1,.74,1.3.54.41,1.26.18,1.78-.12.6-.34.96-.85,1.29-1.44.6-1.08,1-2.28,1.23-3.49.45-2.44.36-4.91.21-7.38l-2.95.4c.17.73.16,1.8.02,2.57-.2,1.1-.54,2.16-.93,3.2-.67,1.81-1.6,3.56-2.1,5.43-.19.72.18,1.49.87,1.77.73.29,1.44.02,1.87-.61,1.36-1.96,2.47-4.1,3.26-6.35s1.26-4.71.42-6.9l-2.74,1.16c2.19,2.97,2.54,6.98,2.36,10.61l1.5-1.5c-2.21.03-4.37.08-6.49.78-.77.25-1.27,1.04-1.05,1.85.21.75,1.07,1.3,1.85,1.05,1.91-.63,3.66-.64,5.69-.68.84-.01,1.46-.68,1.5-1.5.2-4.05-.29-8.76-2.77-12.12-.44-.6-1.14-.94-1.87-.61-.63.28-1.14,1.06-.87,1.77.09.22.16.45.22.68.02.1.04.19.06.29.05.27,0-.05.01.12.03.47.03.94-.01,1.41,0,.06-.04.37-.02.18-.02.14-.05.28-.07.42-.05.25-.1.51-.17.76-.14.55-.31,1.09-.5,1.62-.68,1.88-1.72,3.76-2.89,5.46l2.74,1.16c.53-1.99,1.53-3.84,2.22-5.77.8-2.24,1.33-4.66.78-7.02-.38-1.62-3.05-1.31-2.95.4.2,3.39.51,7.17-1.47,10.05l.54-.54c-.11.08-.26.15-.37.24-.2.17.24-.07.15-.05l1.16.15h-.01c.25.42.5.86.74,1.29v-.02c-.07.25-.13.5-.2.76.14-.29-.16.18-.02.01.16-.21.34-.41.48-.63.33-.51.46-1.06.32-1.65-.18-.79-1.09-1.26-1.85-1.05-.81.22-1.23,1.05-1.05,1.85h0Z"/><path class="cls-1" d="m279.08,142.89c6.72-17.31,4.26-60.29-13-65-11-3-29.68-2-41-2s-27.96-1.58-41-1c26.02,2.05,57.15,7.17,71.52,30.8,11.8,19.4,14.77,35.91,11.48,58.2-1.52,10.27-4,28-6,38,7.57-22.24,17.3-50.07,21-73"/><path class="cls-1" d="m280.55,143.29c2.99-7.78,3.59-16.63,3.5-24.89-.1-9.22-1.21-18.81-4.57-27.46-1.41-3.64-3.24-7.19-5.92-10.07-2.53-2.72-5.59-4.2-9.19-4.96-5.86-1.25-11.92-1.53-17.89-1.66s-11.96.02-17.94.09c-14.83.17-29.64-1.61-44.47-.98-1.98.08-1.94,2.89,0,3.05,11.07.88,22.16,2.22,32.89,5.14s20.57,7.19,28.62,14.45c4.2,3.79,7.46,8.22,10.27,13.11,3.22,5.6,5.95,11.48,7.85,17.67,3.68,12.04,3.68,24.61,1.86,36.98-1.85,12.58-3.47,25.24-5.96,37.71-.38,1.92,2.3,2.67,2.94.81,6.44-18.9,13.05-37.81,17.76-57.24,1.26-5.21,2.38-10.46,3.24-15.76.31-1.92-2.62-2.74-2.94-.81-3.2,19.66-9.45,38.77-15.77,57.6-1.73,5.14-3.48,10.27-5.23,15.4l2.94.81c2.3-11.57,3.85-23.3,5.56-34.97.93-6.38,1.76-12.75,1.76-19.21s-.7-12.45-2.2-18.49-3.97-12.23-6.92-17.93-6.05-10.78-10.34-15.27c-7.75-8.11-18-13.3-28.59-16.64-12.2-3.85-25.02-5.42-37.73-6.43v3.05c13.32-.57,26.6.9,39.91,1,11.54.09,23.13-.72,34.62.64,3.78.45,7.93.92,11.01,3.32,2.7,2.1,4.56,5.15,5.99,8.21,3.68,7.87,4.94,16.96,5.3,25.57.39,9.04-.02,18.8-3.31,27.34-.7,1.83,2.24,2.62,2.94.81h0Z"/><path class="cls-4" d="m86.08,103.39c-.62-.04-1.26.05-1.87.11-1.16.11-2.32.27-3.48.44-2.15.33-4.44.67-6.4,1.65-.72.36-.93,1.38-.54,2.05.43.74,1.33.9,2.05.54.08-.04.18-.07.26-.12.04-.02-.31.11.02,0,.19-.07.39-.14.58-.2.49-.15.98-.28,1.48-.4,1.1-.26,2.22-.46,3.34-.63.28-.04.57-.08.85-.12.33-.05-.25.03.11-.01.12-.02.25-.03.37-.05.48-.06.97-.11,1.46-.16.58-.06,1.19-.14,1.77-.1.81.06,1.5-.73,1.5-1.5,0-.86-.69-1.44-1.5-1.5h0Z"/><path class="cls-4" d="m96.79,327.05c24.73.03,49.29,3.93,74.03,3.67,24.74-.26,49.11-5.12,73.72-7.01,6.43-.49,12.87-.69,19.3-1.23,5.81-.48,11.63-1.11,17.46-1.2,1.93-.03,1.93-3.03,0-3-5.1.08-10.2.58-15.28,1.02-5.61.48-11.23.75-16.85,1.09-12.36.75-24.64,2.36-36.92,3.87-12.29,1.52-24.62,2.97-37.02,3.36-12.28.39-24.55-.37-36.79-1.29-13.87-1.05-27.74-2.27-41.66-2.29-1.93,0-1.93,3,0,3h0Z"/><path class="cls-4" d="m77.08,130.39c3.12.15,6.38-.64,9.43-1.2,3.37-.62,6.73-1.36,10.13-1.83.8-.11,1.24-1.14,1.05-1.85-.24-.87-1.04-1.16-1.85-1.05-3.31.46-6.59,1.18-9.87,1.79-2.88.53-5.94,1.28-8.89,1.14-1.93-.1-1.92,2.9,0,3h0Z"/><path class="cls-4" d="m80.29,93.8c2.34-1.11,5.03-1.49,7.59-1.67,2.73-.19,5.48-.11,8.2.14,1.78.16,1.77-2.62,0-2.78-5.63-.51-11.99-.57-17.19,1.91-1.61.77-.21,3.17,1.4,2.4h0Z"/><path class="cls-4" d="m286.58,368.98c-26.56,5.84-53.86,3.62-80.81,3.62-13.49,0-26.97.76-40.43,1.67-12.73.86-25.47,1.66-38.21,2.4-12,.7-24.02,1.72-36.04,1.73-1.91,0-1.92,2.97,0,2.97,10.81,0,21.62-.85,32.41-1.51,12.44-.76,24.89-1.45,37.33-2.31,13.48-.93,26.98-1.8,40.49-1.95,13.69-.16,27.39.43,41.08.39,15.08-.04,30.21-.9,44.97-4.15,1.87-.41,1.08-3.28-.79-2.87h0Z"/><path class="cls-4" d="m80.71,72.86c24.73-1.23,49.47-2.04,74.23-2.47s49.19-.5,73.79-.26c13.96.14,27.91.37,41.86.69,1.93.04,1.93-2.96,0-3-24.75-.57-49.51-.87-74.27-.83-24.6.04-49.19.41-73.77,1.18-13.95.43-27.89.99-41.83,1.69-1.92.1-1.93,3.1,0,3h0Z"/><path class="cls-4" d="m265.97,318.8c-1.33-9.6-3.79-19-5.55-28.52-1.44-7.79-2.25-15.6-1.79-23.52.74-12.69,3.15-25.3,5.84-37.7.65-2.98,1.31-5.95,2.05-8.91.22-.87-.45-2.04-1.47-1.93-11.04,1.2-22.17.03-33.23,0l.4,2.99c10.33-1.97,20.83-3.37,31.22-4.76.98-.13,1.97-.26,2.95-.39.7-.09,1.25-.41,1.47-1.12,7.23-23.1,17.03-45.47,22.71-69.05,4.19-17.38,6.21-36.69-.37-53.75-3.75-9.74-10.2-17.9-18.59-24.07-1.58-1.16-3.1,1.48-1.54,2.63,7.26,5.34,13.06,12.45,16.59,20.76,3.34,7.85,4.63,16.44,4.68,24.93.12,20.2-6.36,39.8-12.92,58.66-4.53,13.02-9.39,25.92-13.5,39.08l1.47-1.12c-8.65,1.12-17.28,2.33-25.89,3.7-3.04.48-6.07.99-9.09,1.56-1.72.33-1.28,2.99.4,2.99,11.07.03,22.19,1.21,33.23,0l-1.47-1.93c-2.03,8.16-3.71,16.42-5.15,24.7-1.17,6.75-2.16,13.55-2.69,20.38-.59,7.65-.16,15.15,1.05,22.73,1.74,10.89,4.72,21.54,6.24,32.47.11.82,1.15,1.25,1.87,1.06.88-.23,1.18-1.06,1.06-1.87h0Z"/><path class="cls-4" d="m95.08,363.41c5.23-.01,10.27-1.19,15.4-2.05.81-.14,1.27-1.14,1.06-1.87-.24-.86-1.06-1.2-1.87-1.06-4.87.82-9.63,1.93-14.6,1.95-1.96,0-1.96,3.05,0,3.05h0Z"/><path class="cls-4" d="m74.97,108.06c.02-2.7.38-5.4,1.03-8.02.48-1.9,1.19-4.84,2.92-5.96.56-.36,1.1-.31,1.87.19,1.37.89,2.4,2.39,3.24,3.76,1.69,2.75,2.07,6.2,2.1,9.37.04,3.65-.44,7.33-1.52,10.82s-2.89,6.89-6.19,8.53-6.59-1.03-8.53-3.69c-2.54-3.49-4.08-7.66-5.04-11.84-1.89-8.25-1.53-17.51,2.04-25.28,1.69-3.67,4.13-7.04,7.16-9.72,1.81-1.6,4.1-3.07,6.59-3.13,4.91-.13,8.23,4.73,10.25,8.59,3.08,5.89,4.7,12.64,5.45,19.21.57,5.01.49,9.96-.14,14.94-1.05,8.34-2.22,16.66-3.49,24.97-.43,2.79-.87,5.58-1.33,8.37-.16,1,.4,1.88,1.47,1.93,11.25.55,22.64,1.1,33.78,2.8v-2.94c-5.25,1.81-10.91,2.55-16.4,3.2-5.15.61-10.32,1.03-15.5,1.33-1.06.06-2.12.12-3.18.17-.62.03-1.35.45-1.47,1.12-1.49,8.34-3.22,16.61-5.46,24.79s-4.84,16.68-7.48,24.96c-5.2,16.36-10.74,32.63-15.1,49.25-2.49,9.47-4.57,19.04-6.01,28.73-.16,1.06.4,1.8,1.47,1.93,5,.61,10.23,1.22,15.04,2.77v-2.94c-5.4,1.62-10.9,2.92-16.37,4.31-.71.18-1.05.8-1.12,1.47-1.44,13.14-1.41,26.25.94,39.28,1.16,6.45,2.84,12.81,5.03,18.99,1.71,4.84,3.58,9.71,6.43,14,7.18,10.81,24.82,24.44,37.13,12.87,5.55-5.22,7.43-13.37,8.28-20.67s.7-15.05-2.13-21.83-9.11-11.31-16.68-10.34c-8.51,1.09-12.36,9.71-12.93,17.38s1.89,16.46,9.36,19.9c3.27,1.51,7.03,1.48,9.93-.82,3.46-2.75,5.49-8.2,4.09-12.46-.85-2.57-2.59-4.69-4.5-6.54l-1.48,2.55c4.4.96,8.65-.11,12.97-1,1.92-.39,1.11-3.33-.81-2.94-3.74.77-7.52,1.83-11.35,1-1.43-.31-2.63,1.44-1.48,2.55,1.76,1.7,3.53,3.7,3.99,6.19.4,2.18-.49,4.54-1.64,6.37-1.62,2.58-4.35,3.69-7.28,2.8-6.84-2.09-9.02-10.13-8.8-16.47s2.98-14.49,10.24-15.49c6.41-.89,11.53,3.15,13.76,8.9,2.39,6.17,2.47,13.18,1.77,19.68s-2.21,13.46-6.63,18.26c-10.03,10.87-25.82-1.18-32.25-10.11-2.48-3.44-4.22-7.2-5.76-11.14-2.13-5.47-3.85-11.09-5.16-16.81-2.63-11.47-3.5-23.24-2.78-34.99.19-3.05.46-6.09.79-9.12l-1.12,1.47c5.46-1.39,10.97-2.7,16.37-4.31,1.47-.44,1.42-2.48,0-2.94-5.07-1.64-10.58-2.24-15.85-2.88l1.47,1.93c5.09-34.3,18.36-66.57,27.7-99.79,2.59-9.22,4.64-18.51,6.33-27.94l-1.47,1.12c9.04-.37,18.15-1.15,27.06-2.69,2.98-.52,5.97-1.13,8.83-2.11,1.27-.44,1.62-2.69,0-2.94-11.42-1.73-23.06-2.34-34.59-2.91l1.47,1.93c1.73-10.54,3.25-21.12,4.62-31.71.72-5.6,1.11-11.02.53-16.68-.77-7.46-2.53-15.06-6.08-21.71-2.55-4.77-6.86-10.08-12.85-9.82-3.08.13-5.81,1.66-8.13,3.59-3.39,2.82-6.18,6.6-8.04,10.57-4.09,8.71-4.56,18.95-2.35,28.23,1.08,4.54,2.87,9.08,5.74,12.81,2.41,3.13,5.99,5.85,10.16,4.9s7.06-4.73,8.62-8.37,2.34-7.74,2.58-11.74,0-7.95-1.46-11.54c-1.18-2.89-3.7-6.79-6.97-7.57-6.24-1.49-7.93,8.81-8.45,12.88-.18,1.41-.3,2.83-.31,4.25-.02,1.96,3.03,1.96,3.05,0h0Z"/><path class="cls-1" d="m106.14,333.83c-7.49-6.35-18.51-.2-20.92,8.26l2.95.4c-.04-3.96,1.4-8.23,5.09-10.2s7.41-.3,10.06,2.38l1.06-2.56c-2.34-.05-4.68-.02-7.02-.08s-4.65-.07-6.88-.6v2.89c2.49-.62,5.06-.97,7.63-.88,2.13.07,4.82.47,5.88,2.43.92,1.7,3.51.19,2.59-1.51-1.51-2.81-4.83-3.68-7.79-3.88s-6.17.21-9.11.95c-1.41.36-1.44,2.55,0,2.89,4.75,1.12,9.86.68,14.7.78,1.31.03,1.96-1.65,1.06-2.56-2.84-2.87-6.64-4.62-10.71-3.91-3.6.63-6.6,3.36-8.1,6.61-1.04,2.28-1.49,4.73-1.47,7.23.02,1.69,2.48,2.04,2.95.4.99-3.47,3.58-6.37,6.89-7.81,2.93-1.28,6.48-1.27,9.01.87,1.46,1.24,3.6-.87,2.12-2.12h0Z"/><path class="cls-1" d="m64.79,347.64c5.19,7.29,7.66,16.28,14.26,22.6,4.97,4.76,12.79,6.59,19.26,3.96,4.01-1.63,6.81-4.85,8.22-8.92.4-1.17-1.16-2.48-2.2-1.69-2.83,2.13-6.05,3.98-9.63,4.39-4.11.48-7.99-1.1-11.24-3.52s-6.18-5.61-8.87-8.7-5.13-6.2-7.21-9.63l-2.59,1.51c3.57,5.54,6.66,11.43,10.93,16.47s9.93,8.67,16.61,9.61l.4-2.95c-1.04.01-2.07.08-3.11,0v3c2.2-.27,4.4-.52,6.59-.88,1.15-.19,2.32-.4,3.37-.91,1.54-.75,2.38-2.37,3.33-3.46,1.26-1.45-.85-3.58-2.12-2.12-.6.69-1.14,1.44-1.7,2.17-.11.14.13-.12-.13.15-.09.09-.18.19-.27.28-.28.3.03.01-.11.1s-.27.16-.41.24c-.28.15.13-.03-.21.08-.21.07-.43.14-.64.19-.55.14-1.11.25-1.66.34-2,.34-4.02.57-6.03.81-1.89.23-1.96,2.85,0,3,1.04.08,2.07,0,3.11,0,1.62-.02,2.13-2.7.4-2.95-6.36-.89-11.43-4.21-15.49-9.08s-6.89-10.39-10.26-15.62c-1.04-1.61-3.6-.15-2.59,1.51,3.57,5.87,8.2,11.29,13.17,16.02s11.23,8.47,18.44,7.07c3.47-.67,6.64-2.45,9.44-4.55l-2.2-1.69c-2.14,6.19-8.48,8.82-14.67,7.62-2.97-.58-5.61-1.89-7.8-3.98-3.09-2.97-5.32-6.68-7.33-10.43s-3.9-7.96-6.46-11.57c-1.11-1.56-3.71-.06-2.59,1.51h0Z"/><path class="cls-4" d="m282.19,321.31c2.76.98,5.27,3.07,7.42,5.02l.66-2.51c-3.57,1.01-7.03,2.36-10.5,3.64-1.37.51-1.48,2.43,0,2.89,2.73.86,5.66,1.02,8.5,1.07,1.4.02,2.79,0,4.19-.01.69,0,1.29.18,2.03.4l-.9-.69c3.82,6.66,4.98,14.57,3.11,22.01-1.54,6.13-4.78,12.76-10.55,15.88-1.7.92-.19,3.51,1.51,2.59,6.86-3.71,10.76-11.8,12.27-19.16.88-4.27.87-8.63,0-12.91-.49-2.44-1.28-4.81-2.29-7.08-.44-.98-.89-2.19-1.58-3.01-.46-.55-1.24-.69-1.91-.87-1.94-.53-4.29-.12-6.3-.17-2.46-.06-4.94-.21-7.31-.96v2.89c3.48-1.29,6.93-2.63,10.5-3.64,1.04-.3,1.51-1.73.66-2.51-2.55-2.31-5.47-4.63-8.74-5.79-1.82-.65-2.61,2.25-.8,2.89h0Z"/><path class="cls-3" d="m358.4,275.43c.28-.83.57-1.66.89-2.48l-2.95-.4c-.03,1.13-.51,2.16-.97,3.2-.55,1.23-1.04,2.45-1.05,3.82-.01,1.26,1.67,2.03,2.56,1.06s1.96-1.77,2.51-3.05l-2.74-1.16c-.46,3.09-2.45,6.19-1.57,9.39.51,1.86,3.41,1.07,2.89-.8-.13-.47-.14-1-.06-1.57.09-.62.3-1.38.49-2.04.41-1.38.92-2.75,1.14-4.18.11-.74-.12-1.47-.87-1.77-.62-.25-1.58-.08-1.87.61-.45,1.04-1.27,1.6-2.04,2.44l2.56,1.06c0-1,.5-2,.94-2.98.58-1.3,1.05-2.59,1.08-4.04.02-.74-.58-1.39-1.3-1.47-.79-.09-1.37.36-1.65,1.07-.32.82-.61,1.64-.89,2.48-.26.77.3,1.64,1.05,1.85.82.23,1.58-.28,1.85-1.05h0Z"/><path class="cls-4" d="m357.53,289.49c-.17-.92-.31-1.84-.45-2.77-.08-.52-.15-1.04-.23-1.56-.04-.27-.08-.55-.11-.82-.05-.38,0,.06-.02-.15-.03-.19-.05-.38-.08-.58-.2-1.53-.38-3.07-.56-4.6-1.09-9.8-1.68-19.66-1.91-29.53-.34-14.62.15-29.26,1.42-43.84,1.58-18.21,4.41-36.32,8.49-54.14,4.74-20.67,11.19-40.97,19.39-60.53,1.1-2.63,2.24-5.24,3.4-7.83l-2.74-1.16c-2.05,6.4-4.01,12.82-5.94,19.25-4.18,13.89-8.18,27.84-11.83,41.88s-6.91,26.99-8.72,40.76c-1.07,8.16-1.23,16.47-1.45,24.69-.28,10.54-.28,21.08-.06,31.62.19,9.41.54,18.81,1.19,28.2.13,1.93.28,3.86.45,5.79.11,1.25.31,2.52.29,3.78-.03,1.48-.06,3-.35,4.46-.06.31-.12.63-.24.92.07-.18-.11.24,0,.04.11-.21-.19.23-.17.2-.52.71-.91,1.45-1.27,2.26-.52,1.19-.99,2.41-1.41,3.65-.61,1.83,2.28,2.62,2.89.8.42-1.25.87-2.5,1.45-3.68s1.4-2.09,1.66-3.51c.55-2.91.42-5.72.17-8.64-.76-8.65-1.17-17.33-1.45-26.01-.34-10.41-.45-20.83-.32-31.25.12-9.74.29-19.55,1.16-29.26.52-5.77,1.58-11.5,2.73-17.17,1.46-7.2,3.16-14.34,4.95-21.46,3.62-14.38,7.66-28.65,11.89-42.87,2.31-7.78,4.93-15.5,7.15-23.31.03-.11.07-.23.11-.34.51-1.59-2.04-2.72-2.74-1.16-8.86,19.8-15.96,40.36-21.25,61.39-4.6,18.33-7.84,37-9.8,55.8-1.58,15.24-2.31,30.58-2.15,45.9.11,10.59.64,21.18,1.72,31.72.32,3.18.7,6.35,1.15,9.51.19,1.37.31,2.81.64,4.15.01.06.02.12.03.17.35,1.9,3.24,1.09,2.89-.8Z"/><path class="cls-4" d="m360.05,243.8c.11-.11.22-.21.34-.31l-.3.23c.2-.15.4-.27.63-.37l-.36.15c.23-.09.47-.16.72-.19l-.4.05c.24-.03.48-.03.72,0l-.4-.05c.25.04.49.1.73.2l-.36-.15c.21.09.42.21.6.35l-.3-.23c.18.14.35.3.49.49l-.23-.3c.13.17.24.36.33.56l-.15-.36c.09.21.15.42.18.64l-.05-.4v.06c.06.41.14.75.45,1.06.26.26.69.46,1.06.44s.79-.14,1.06-.44c.25-.27.49-.68.44-1.06-.07-.55-.17-.96-.39-1.46-.16-.35-.38-.65-.63-.94-.49-.57-1.17-.96-1.87-1.21-1.55-.54-3.28-.02-4.42,1.12-.55.56-.6,1.57,0,2.12s1.53.59,2.12,0h0Z"/><path class="cls-4" d="m359.81,241.6c.21-.33.62-.78,1.12-1.26.62-.6,1.28-1.15,1.96-1.67,1.71-1.31,3.58-2.47,5.52-3.41,1.54-.74,3.38-1.5,5.13-1.34.51.05.99.2,1.33.59.39.43.59,1.23.65,1.93.16,1.91,2.89,1.95,3,0,.27-4.88-2.89-8.85-7.75-9.51-4.54-.62-9.31,1.66-11.2,5.92l2.74,1.16c1.07-5.01,4.77-9.06,9.71-10.52,2.98-.88,8.53-.24,6.66,4.12l2.74,1.16c.88-2.49,1.46-5.38.43-7.92-.79-1.95-2.46-3.28-4.47-3.84-4.7-1.31-9.92.91-13.59,3.74-1.35,1.04.4,3.27,1.82,2.36,7.71-4.97,18.54-8.22,20.73-18.36.32-1.47-1.38-2.49-2.51-1.46-5.83,5.33-12.21,10.15-19.48,13.33l2.2,1.69c1.42-3.57,4.33-6.67,7.16-9.18s6.43-5.09,10.28-5.18c1.31-.03,1.97-1.61,1.06-2.56-1.47-1.53-.98-3.7.45-5.07.88-.84.26-2.69-1.06-2.56-4.01.38-7.81,2.56-11.17,4.63-3.54,2.19-7.03,4.67-10.02,7.58-1.41,1.37.66,3.32,2.12,2.12,4.68-3.82,9.75-7.17,14.06-11.43,2.04-2.02,4.01-4.28,5.25-6.89s1.88-5.72,2.31-8.68c.52-3.59.77-7.21.98-10.83.08-1.42-1.64-1.82-2.56-1.06-3.71,3.06-5.79,7.5-8.02,11.65s-4.79,8.33-9.32,10.15c-1.77.71-1,3.61.8,2.89,4.91-1.97,8.01-5.93,10.51-10.44,2.36-4.26,4.3-8.97,8.14-12.14l-2.56-1.06c-.23,3.87-.46,7.76-1.12,11.58-.61,3.53-1.56,6.8-3.79,9.67-4.56,5.86-11.12,9.82-16.8,14.47l2.12,2.12c2.73-2.66,5.89-4.91,9.12-6.92,2.92-1.83,6.43-4.07,9.96-4.41l-1.06-2.56c-2.63,2.52-3.04,6.61-.45,9.31l1.06-2.56c-4.59.11-8.78,2.92-12.14,5.82s-6.53,6.55-8.2,10.73c-.54,1.37,1.16,2.15,2.2,1.69,7.49-3.28,14.08-8.31,20.08-13.8l-2.51-1.46c-1.98,9.13-12.41,12.1-19.35,16.57l1.82,2.36c2.72-2.11,6.78-3.82,10.28-3.07,4.02.86,3.42,5.07,2.33,8.17-.56,1.58,2.07,2.72,2.74,1.16,1.08-2.52,1.23-5.36-1.06-7.27-2.07-1.73-5.04-1.99-7.61-1.57-6.49,1.05-11.84,6.61-13.18,12.93-.33,1.56,2.01,2.8,2.74,1.16,1.4-3.14,4.67-4.91,8.08-4.5s5.48,3.14,5.28,6.58h3c-.98-11.78-17.93-1.6-21.31,3.66-1.05,1.63,1.55,3.14,2.59,1.51h0Z"/><path class="cls-4" d="m386.55,167.65c2.22-5.8.91-12.6,4.12-18.06.89-1.51-1.11-2.94-2.36-1.82-2.73,2.46-5.37,5.06-8.32,7.25s-6.07,3.78-9.5,4.92l1.69,2.2c3.98-6.34,10.22-10.76,15.17-16.27,2.5-2.78,4.84-5.89,6.21-9.39,1.23-3.14,1.56-6.64,1.79-9.98.24-3.69.17-7.39.3-11.09.07-1.83-2.35-1.85-2.95-.4-2.36,5.75-7.02,10.83-12.02,14.43-1.57,1.13-.25,3.4,1.51,2.59,6.74-3.1,10.57-11.18,12.35-17.98.87-3.33,1.5-7.05.84-10.48-.7-3.65-2.78-6.99-4.48-10.25s-3.97-7.38-2.47-11.14c.71-1.79-2.19-2.57-2.89-.8-1.32,3.3-.26,6.86,1.09,9.97,1.48,3.42,3.56,6.57,4.95,10.03,2.56,6.37.05,14.21-3.11,19.94-1.82,3.31-4.28,6.5-7.79,8.11l1.51,2.59c5.7-4.1,10.71-9.67,13.4-16.22l-2.95-.4c-.23,6.37.35,13.13-1.63,19.29-2.19,6.79-8.44,11.8-13.4,16.57-2.97,2.86-5.83,5.85-8.03,9.36-.68,1.08.45,2.62,1.69,2.2,3.67-1.22,7.11-2.91,10.22-5.22s6.01-5.08,8.93-7.72l-2.36-1.82c-3.39,5.76-2.09,12.69-4.42,18.78-.69,1.8,2.21,2.59,2.89.8h0Z"/><path class="cls-4" d="m386.45,80.82c-2.69-.4-4.91,1.53-6.71,3.3-2.06,2.03-3.78,4.4-5.88,6.39-2.96,2.81-6.15,5.33-8.77,8.49s-4.37,6.44-5.36,10.29c-1.07,4.17-1.26,8.54-.48,12.78l2.51-1.46c-2.03-2.55-2.15-6.15-2.32-9.26-.07-1.35-2.14-2.22-2.8-.76-3.25,7.27-5.33,15-6.35,22.89-.52,3.97-.54,7.85-.23,11.83s.81,8.3.26,12.4h2.89c-1.95-5.25-2.86-10.78-4.25-16.19-.34-1.31-2.05-1.39-2.74-.36-4.3,6.47-5.99,14.67-7.27,22.2-.72,4.21-1.17,8.27-.61,12.54.59,4.53,1.84,8.95,2.01,13.53l2.26-1.3c-2.89-1.26-4.17-4.36-4.06-7.38.07-1.77-2.41-1.93-2.95-.4-1.34,3.83-2.03,7.91-2.1,11.97-.06,3.71.3,7.97,2.13,11.28,1.44,2.61,3.91,4.44,6.06,6.41,1.86,1.7,3.94,3.78,3.45,6.53l2.2-.9c-1.09-.52-1.94-1.56-2.75-2.45-1.19-1.3-2.34-2.65-3.59-3.9-1.94-1.93-4.96-4.46-7.79-2.67-.89.57-.91,1.59-.3,2.36,3.38,4.32,8.64,7.81,9.32,13.67l2.8-.76c-2.98-3.87-7.76-8.02-12.9-5.53-1.05.51-.9,2.05,0,2.59,3.42,2.07,6.84,4.23,9.64,7.12s4.63,6.38,5.85,10.17l2.74-1.16c-2.12-3.59-6.76-5.84-10.81-6.2-1.86-.16-3.92.19-5.29,1.54-1.74,1.71-1.76,4.24-1.36,6.48.15.83,1.11,1.2,1.85,1.05,3.13-.67,6.46-.85,9.64-.52,2.65.27,6.32,1.13,6.18,4.41-.08,1.93,2.92,1.93,3,0,.39-9.13-13.88-8-19.62-6.78l1.85,1.05c-.14-.81-.22-1.67-.02-2.47.13-.51.41-.97.68-1.18.92-.73,2.29-.72,3.53-.52,2.86.46,6.28,2.1,7.79,4.66.84,1.43,3.27.5,2.74-1.16-1.35-4.18-3.37-8.06-6.41-11.27s-6.74-5.57-10.46-7.81v2.59c3.35-1.62,6.95,2.06,8.79,4.45.78,1.01,2.99.92,2.8-.76-.39-3.32-1.73-6.11-3.82-8.69s-4.41-4.59-6.38-7.1l-.3,2.36c.36-.23.48-.25.8-.18.49.1.91.36,1.32.63,1.2.8,2.22,1.91,3.19,2.96,1.72,1.86,3.44,4.48,5.78,5.6.79.38,2.02.13,2.2-.9,1.21-6.74-5.45-9.55-8.98-14-2.19-2.76-2.54-6.83-2.56-10.21-.03-4.07.66-8.14,2-11.98l-2.95-.4c-.15,3.96,1.76,8.32,5.55,9.97.97.42,2.3-.05,2.26-1.3-.16-4.43-1.29-8.71-1.94-13.08s-.26-8.08.44-12.19c1.24-7.29,2.81-15.23,6.97-21.49l-2.74-.36c1.38,5.41,2.29,10.94,4.25,16.19.45,1.21,2.67,1.63,2.89,0,1.07-7.91-.98-15.82-.08-23.76s2.91-15.52,6.1-22.66l-2.8-.76c.21,4.04.59,8.11,3.19,11.38,1.03,1.29,2.74-.16,2.51-1.46-1.21-6.61.28-13.88,4.36-19.25,2.28-3.01,5.14-5.53,7.95-8.02,2.02-1.79,3.73-3.78,5.53-5.78,1.01-1.12,2.05-2.24,3.21-3.2.59-.49,1.75-1.41,2.45-1.3,1.89.28,2.7-2.61.8-2.89h0Z"/><path class="cls-4" d="m383.6,167.25s-.01.1-.02.15l.05-.4c-.14.99-.41,1.95-.79,2.87l.15-.36c-.18.43-.38.85-.61,1.25-.38.68-.19,1.67.54,2.05s1.64.19,2.05-.54c.43-.78.79-1.6,1.08-2.44s.44-1.7.55-2.59c.04-.35-.2-.82-.44-1.06-.26-.26-.69-.46-1.06-.44s-.79.14-1.06.44l-.23.3c-.14.23-.2.49-.2.76h0Z"/><path class="cls-2" d="m347.17,311.67c-.46.05-.96-.1.29.14-.18-.04-.85-.25-.09.02s.13.02-.05-.1c1.08.76.42.33.17.08-.3-.32-.59-.64-.87-.98-.63-.75.62.84.03.03-.14-.19-.28-.38-.42-.56-1.72-2.3-3.39-4.27-6.19-5.26v8.68c.29-.05.57-.09.86-.13,1.37-.21-.48.04.33-.05.59-.06,1.17-.14,1.76-.19,1.34-.13,2.69-.22,4.03-.28,2.67-.12,5.34-.11,8.01-.01,5.28.18,10.54.69,15.79,1.28,2.89.33,5.14-3.14,4.34-5.7-1.21-3.88-5.24-5.6-8.86-6.58-3.4-.92-6.69-1.2-10.18-.66-3.69.57-7.95,1.92-10.32,4.98-1.37,1.77-1.95,3.81-2.31,5.98-.15.9-.28,1.81-.53,2.69-.06.23-.15.45-.22.68-.15.49.07-.22.1-.26-.2.26-.36.6-.55.88-.79,1.19-1.6,2.37-2.43,3.52-.25.34-.51.68-.76,1.02-.29.4.31-.4.29-.38-.17.15-.32.4-.47.58-.18.22-.37.42-.57.63-.08.08-.17.15-.25.24l-.11.1c.45-.46.99-.77,1.61-.93-2.11.82-3.54,2.58-3.22,4.94.27,2,2.2,4.17,4.42,3.9,2.69-.32,5.33.32,8.02.33,3.17.01,6.51-.9,8.77-3.24,1.75-1.81,3.05-4.3,3.6-6.75.73-3.28.29-6.23-1.81-8.9-1.73-2.18-5.91-1.51-7.07.91-.81,1.69-1.4,3.48-1.74,5.33-.42,2.28-.75,4.88.51,6.98.94,1.58,2.67,2.58,4.51,2.57,1.72,0,3.14-.87,4.44-1.91,1.2-.96,2.13-2.26,2.93-3.57.4-.66.76-1.34,1.15-2.01.19-.33.39-.66.59-.98.13-.2.82-1.06.17-.27,1.18-1.43,1.69-3.12.93-4.92-.63-1.5-2.36-2.95-4.11-2.77-3.04.32-6.21.5-9.08,1.65-4.05,1.62-7.14,4.83-6.95,9.46.08,1.88,1.33,3.93,3.3,4.34,3.67.77,7.17.29,10.84-.11,1.62-.18,3.19-.23,4.82-.18,1.04.03-.58-.2.33.05.37.1.74.17,1.11.29.22.07.44.15.65.24-.59-.27-.74-.32-.45-.17.3.17.16.06-.41-.33-.29-.27-.48-.59-.58-.96,2.74-1.16,5.48-2.31,8.22-3.47-1.01-1.74-2.15-3.4-3.06-5.19-.16-.31-.61-1.46-.29-.56-.17-.49-.34-.97-.48-1.47-.24-.82-.23-.12-.05.07-.09-.09-.02-.5-.04-.63-.11-.75-.25.49-.06.14.1-.19.14-.52.21-.72l-7.52,1.99c.2.21.38.44.59.65.43.44-.56-.85.05.08.3.46.6.92.87,1.4.6,1.05,1.1,2.15,1.58,3.25.17.4.16.38,0,0,.12.3.25.59.37.89.22.53.44,1.06.66,1.58.57,1.36,1.14,2.72,1.82,4.03l6.16-6.16c-.34-.17-.68-.36-1-.56-.11-.07-1.01-.74-.54-.35s-.52-.5-.6-.59c-.21-.21-.7-1.04-.19-.16-.02-.03-.55-.86-.51-.88.23.57.27.62.11.15l-.07-.32c.08.66.11.74.1.23l-.06.54c.15-.47.13-.44-.07.08.13-.23.27-.45.43-.66,1.35-1.94.42-5.08-1.61-6.16-2.3-1.22-4.71-.45-6.16,1.61-3.92,5.6.36,12.15,5.63,14.83,4.04,2.05,8.27-2.08,6.16-6.16-.27-.52-.53-1.06-.78-1.59-.13-.28-.25-.56-.37-.84-.22-.49.27.66-.06-.14-.58-1.43-1.17-2.86-1.79-4.27-1.1-2.5-2.45-4.86-4.35-6.85-2.48-2.6-6.44-1.08-7.52,1.99-1.94,5.5,2.07,10.79,4.68,15.28,1.13,1.94,3.58,2.7,5.62,1.84,1.9-.8,3.4-3.2,2.61-5.31-1.04-2.74-2.74-4.17-5.49-5.06-1.97-.64-4.15-.78-6.21-.69-1.92.09-3.82.39-5.73.59-.95.1-1.89.18-2.84.2-.53,0-1.06-.03-1.59-.04-.53-.05-.52-.04.03.03-.25-.04-.51-.09-.76-.15l3.3,4.34c0-.17.06-1.37-.04-.5-.11.97.04-.37.15-.37-.3.67-.37.85-.21.54.05-.1.11-.2.18-.3-.84,1.1-.36.41-.12.19.85-.78-.66.27,0-.04.22-.1.42-.26.64-.38.49-.26.74-.11-.15.03.28-.04.59-.22.87-.31,1.12-.36,2.27-.53,3.43-.74.36-.05.18-.03-.54.07.17-.02.34-.04.51-.06.25-.03.49-.06.74-.08.52-.06,1.04-.11,1.56-.16l-3.18-7.68c-1.55,1.87-2.65,3.98-3.94,6.02.21-.32.35-.38.02-.05-.17.17-.34.33-.51.5-.43.44.13-.1.3-.22-.19.13-.75.37.03.07s-.2-.1.71-.17c.97-.07,1.43.07,2.31.58.59.35,1.15.77,1.4,1.2-.18-.31.48,1.26.29.65-.11-.38.02,1.3.07.38.01-.26.01-.53.03-.79.05-1.11-.19.91,0,0,.06-.3.11-.61.18-.91.14-.63.31-1.26.5-1.87.09-.29.2-.57.3-.86.27-.83-.5,1.07-.1.24l-7.07.91c-.42-.58-.51-.66-.27-.26-.26-.67-.32-.78-.17-.32.1.48.09.36-.02-.36.02.2.02.39.02.59,0,.2-.01.4-.03.61.1-.68.11-.77.02-.27-.12.42-.2.83-.34,1.24-.07.21-.15.41-.23.61.25-.58.26-.64.05-.2-.16.27-.29.55-.46.82-.11.17-.22.34-.33.5.42-.52.47-.6.17-.24-.12.13-.24.26-.37.38-.36.32-.24.23.34-.24-.22.15-.46.29-.7.42.48-.17.48-.18,0,0-.26.07-1.76.25-.69.2-.93.04-1.84.04-2.76-.03-2.15-.16-4.27-.51-6.43-.25l1.2,8.84c2.97-1.15,4.71-4.05,6.46-6.56.58-.84,1.17-1.68,1.73-2.53,1.07-1.64,1.58-3.51,1.9-5.42.14-.83.25-1.67.46-2.49.11-.46.45-1.15.04-.38.1-.19.21-.39.31-.59.34-.68-.02.24-.22.27.24-.03.73-.92.33-.33-.26.38-.25.16,0,.03.17-.09.33-.2.5-.3.15-.08,1.19-.61.58-.31-.54.27-.06.02.06-.02.26-.09.52-.19.78-.27.75-.24,1.51-.44,2.28-.6.29-.06.86-.27,1.14-.21.02,0-.93.07-.4.06.25,0,.51-.05.76-.07.63-.05,1.27-.06,1.9-.01.19.01.37.04.56.06.69.06-.54-.05-.53-.07,0,0,.45.07.49.08,1.59.28,3.13.68,4.65,1.2,1,.34-.66-.37.26.1.32.16.62.33.93.51.83.47-.57-.65,0,.01.31.36-.42-.6-.37-.52.27.4.23.75-.13-.4l4.34-5.7c-11.03-1.24-22.15-2.06-33.17-.29-1.85.3-3.38,2.53-3.3,4.34.09,2.09,1.36,3.65,3.3,4.34-.67-.31-.84-.38-.53-.23.11.05.21.11.31.18.29.2.27.18-.06-.06-.32-.26-.34-.27-.07-.03.3.32.62.63.91.97.54.64.05.36-.01-.04.02.15.42.56.51.68.48.64.96,1.28,1.46,1.91,1.67,2.07,4.19,3.88,6.99,3.58,2.33-.25,4.62-1.89,4.5-4.5-.1-2.22-1.99-4.77-4.5-4.5h0Z"/><path class="cls-3" d="m379.14,333.79c0-.79,0-1.57.03-2.36.08-1.78-1.44-4.05-3.3-4.34-3.6-.56-7.1-.13-10.71-.3-.38-.02-.75-.05-1.13-.08.88.07-.49-.08-.55-.09-.96-.16-1.93-.31-2.9-.43-1.8-.22-3.67-.11-5.4.5-1.46.51-2.88,1.09-4.38,1.49-.79.22-1.59.41-2.4.52.65-.09-.03-.02-.33,0-.36.02-.72.02-1.07,0-.46-.02-.92-.06-1.38-.11.64.07-.15-.03-.4-.07-.84-.13-1.67-.27-2.51-.39-1.01-.14-2.02-.27-3.04-.33-.4-.02-.82-.02-1.22-.08.9.13-.49-.4.39.07-2.28-1.21-6.17-.34-6.61,2.69-.08.56-.19,1.1-.34,1.64-.08.27-.17.55-.26.82.03-.09-.48,1.23-.25.68.19-.46-.17.38-.21.47-.12.27-.25.54-.37.8-.28.59-.56,1.19-.82,1.79-1.14,2.58-2.06,5.26-2.68,8.02-1.17,5.27-.91,11.09,2.91,15.27,3.22,3.53,8.6,4.21,13.05,4.92,5.33.84,10.6,1.21,15.99,1.25,4.98.03,10.21-.12,14.95-1.77,2.79-.97,5.4-2.16,7.03-4.75,1.35-2.13,1.66-4.73,1.81-7.19.16-2.7-.19-5.38-.67-8.03-.08-.45-.07-1.1-.28-1.51.36.7.11,1.07.08.57,0-.16-.03-.32-.04-.47-.07-.82-.11-1.65-.2-2.47-.22-2.16-.51-4.38-1.63-6.29-1.49-2.55-3.92-3.53-6.75-3.77-5.56-.48-11.12.34-16.54,1.5-2.96.63-5.88,1.38-8.84,2.01-1.46.31-2.93.6-4.41.81.21-.03.73-.08-.21.02-.47.05-.94.09-1.41.14-.3.03-.59.07-.89.09-.21.02-1.44-.03-.57.13v8.68c.78-.26-1-.1-.01-.03.29.02.6.04.89.05.66.02-1.05-.19.08.01.33.06.66.12.99.17l-2.69-6.61c-.53.76.56-.39.07-.1-.18.11-.36.38-.52.52-.14.13-.3.26-.44.39-.3.27-.21.43.21-.15-.22.31-.79.58-1.09.8-.63.46-1.26.93-1.87,1.43-1.87,1.52-3.37,3.6-3.84,6.01-.6,3.02.09,6.51,2.36,8.71,1.75,1.7,4.2,2.43,6.56,2.76,1.2.17,2.39.3,3.59.41.4.04.91.18,1.31.13-.83.1-.85-.14-.43-.06.35.07.71.13,1.07.19,2.94.47,5.88.65,8.85.56,2.74-.09,5.47-.37,8.19-.73s5.34-.62,7.78-1.92c3.15-1.67,4.98-5,5.17-8.5s-1.55-6.55-3.1-9.5c-.7-1.34-2.38-2.3-3.89-2.23-5.62.26-11.16,1.28-16.71,2.1-.32.05-.63.09-.95.14-.11.02-1.09.15-.55.08s-.39.05-.5.07c-.55.07-1.09.15-1.64.22-1.33.18-2.67.38-3.98.69-2.2.51-4.28,1.36-6.04,2.79-2.6,2.11-2.96,6.02-.61,8.48,1.69,1.76,4.07,2.36,6.44,2.4,1.99.03,4.02-.33,5.97-.72.71-.14,1.41-.3,2.12-.43.32-.06.64-.11.96-.16-.69.1.32-.03.48-.05.72-.07,1.44-.13,2.17-.17,2.73-.15,5.48-.21,8.21-.27s5.81-.49,7.93-2.61c1.32-1.31,1.83-3.84.7-5.45-4.9-7.01-12.96-.26-17.54,3.39-1.85,1.47-1.65,4.85,0,6.36,1.96,1.8,4.39,1.57,6.36,0,.24-.19,1.67-1.12,1.66-1.33-.6.46-.71.55-.34.26l.2-.15c.21-.16.42-.31.63-.47.48-.35.97-.68,1.47-1,.46-.29.92-.57,1.4-.82.16-.08,1.03-.43.27-.16s.08-.02.24-.07c.21-.07.43-.09.64-.17.46-.16-1.3.06-.41.09-.79-.02-1.73-.52-2.35-1.4l.7-5.45c-.37.37.02.01.02.02l.22-.18c-.35.18-.35.18,0,.02.38.03.23-.07-.05-.03-.14.02-.34.06-.48.1-.58.21.83-.04.21-.03-.17,0-.33.03-.5.04-.43.03-.86.03-1.29.04-1.91.03-3.82.11-5.73.17-3.95.13-7.74.76-11.61,1.46-.09.02-.38.11-.46.07-.01,0,.94-.1.41-.05-.37.03-.74.08-1.11.11-.31.02-.62.03-.94.03-.2,0-.4-.02-.6-.02-.68,0,.22-.06.35.07-.06-.06-1.28-.39-.44-.06.63.25.26.11.11.02.36.23.71.54.91.92.28.55.42,2.42.2,2.99-.13.34-.3.62-.54.9.08-.09.43-.47-.05.02s.06,0,.24-.1c.21-.12.58-.21.75-.37-.53.5-.8.28-.37.17.1-.03.2-.07.3-.1,1.02-.33,2.08-.56,3.13-.75.44-.08.89-.15,1.33-.22.22-.03.45-.06.67-.1.76-.12-.62.08.13-.02,1.32-.18,2.64-.35,3.95-.54,2.46-.36,4.92-.76,7.39-1.12-.01,0,.77-.11.36-.05s.73-.09.84-.11c.64-.08,1.27-.15,1.91-.22,1.27-.13,2.55-.22,3.82-.28l-3.89-2.23c.47.9.9,1.82,1.39,2.7.25.44,0-.04-.04-.13.1.25.2.51.28.77s.14.52.22.79c.23.76.09-.22.02.21-.03.19,0,.42,0,.62.02-.82.07-.11-.05.06-.07.1-.5.87.08-.1-.05.09-.25.56-.32.57-.08,0,.65-.62.23-.29-.15.11-.32.28-.43.43-.33.41.3-.32.31-.24.01.08-.59.31-.66.38-.4.37.76-.2.21-.09-.21.04-.41.14-.61.2-.37.11-.74.19-1.12.26-.43.08-.86.14-1.29.2-.28.04-.56.08-.85.12-.5.07.54-.06-.31.04-2.21.26-4.43.5-6.65.59s-4.55-.03-6.84-.17c-.74-.05.64.12-.08,0-.21-.04-.42-.07-.63-.1-.38-.07-.77-.13-1.15-.19-1.08-.15-2.16-.26-3.24-.37-.37-.03-.75-.07-1.12-.11-1.07-.1.55.13-.26-.03-.16-.03-2.44-.53-2.41-.61.08-.19.93.66.31.09-.17-.15-.32-.35.01.06.42.52.1.07-.03-.07-.34-.37.3.48.35.54.28.32.04.16-.02-.09-.02-.1-.19-.54-.16-.68-.01.06,0,1.06.06.18,0-.09-.05-.58.02-.63-.87.62.26.73.02.27.13-.38.13-.4-.01-.04-.13.3-.15.34-.04.13.11-.13.23-.34.3-.51.18-.41-.7.7-.07.11.29-.27.56-.54.85-.81.58-.54-.16.08-.21.15.15-.18.42-.31.6-.45,1.92-1.41,3.63-2.72,5-4.69,1.56-2.25.05-6.12-2.69-6.61-2.17-.39-4.56-.92-6.73-.21-1.82.6-3.39,2.31-3.3,4.34.08,1.86,1.32,3.98,3.3,4.34,2.81.5,5.77-.04,8.57-.48,2.41-.38,4.79-.93,7.17-1.48,2.21-.52,4.43-1.04,6.66-1.49,1.09-.22,2.19-.43,3.29-.6.21-.03,1.6-.23.81-.13.67-.08,1.33-.15,2-.2,1.95-.15,3.91-.1,5.86-.03.24,0,.49.04.73.04.58,0-.35-.05-.33-.06-.05.02.61.13.6.14-.08.12-.94-.48-.42-.15-.04-.02-.88-.75-.4-.26.04.04-.62-.84-.36-.44.14.21.21.63.06.02-.18-.75,0,.03.05.2.1.31.17.63.24.95.04.19.06.38.1.57.11.47-.07-.45-.06-.47-.2.42.17,1.79.21,2.29.14,1.9.5,3.75.8,5.63.02.12.14,1,.07.44-.06-.51.01.18.02.23.05.56.1,1.12.11,1.68.04,1.09-.03,2.17-.11,3.25,0,.11-.09.69,0,.09.09-.64-.03.1-.06.26-.08.39-.22.77-.31,1.16.19-.83.23-.41.04-.16s-.45.47.13-.09c-.12.11-.25.24-.36.36-.24.28.57-.27-.14.03-.24.1-.47.24-.71.35.17-.08.77-.29-.03-.01-.42.15-.84.31-1.27.45-1.01.33-2.05.58-3.1.77-.26.05-1.52.23-.65.12-.56.07-1.12.13-1.68.17-1.13.1-2.27.15-3.41.18-4.41.11-8.87.07-13.25-.42-.55-.06-1.1-.13-1.66-.2.69.09-.74-.11-.92-.14-1.24-.19-2.47-.39-3.7-.61-.9-.16-1.8-.31-2.69-.53-.39-.1-.79-.21-1.17-.33-.23-.07-.45-.14-.68-.22-.46-.16-.64-.27-.09,0-.42-.2-.82-.42-1.23-.64-.79-.43.06.12.11.13-.22-.06-.39-.41-.56-.54-.4-.28.29.55.03.03-.13-.27-.33-.55-.48-.81-.04-.08-.26-.64-.08-.14.22.58-.11-.4-.14-.51-.07-.24-.11-.48-.18-.72-.24-.83-.01.44-.03-.1-.02-.5-.07-1-.06-1.5,0-.56.05-1.12.11-1.68-.1.99.06-.28.13-.62.28-1.37.66-2.73,1.09-4.06.19-.59.39-1.19.6-1.77.1-.26.19-.52.3-.78-.24.6.03-.05.15-.3,1.14-2.5,2.51-5.01,2.91-7.76l-6.61,2.69c1.87.99,3.77,1.11,5.83,1.26.01,0,1.45.16.64.05.38.05.76.12,1.14.18,1.08.17,2.16.34,3.25.48,3.55.44,7.03-.24,10.38-1.41.68-.24,1.35-.52,2.03-.75.41-.14.83-.29,1.27-.35-.95.13.38.06.48.06.11,0,1.22.1.66.04s.57.09.67.11c1.12.18,2.24.37,3.37.49,1.61.16,3.22.1,4.84.04.86-.03,1.72-.07,2.57-.06.46,0,.93.01,1.39.04.16,0,1.44.17.64.04l-3.3-4.34c-.03.79-.03,1.57-.03,2.36,0,2.35,2.06,4.61,4.5,4.5s4.51-1.98,4.5-4.5h0Z"/><path class="cls-4" d="m374.35,305.99c-.03.24-.14.55-.17.83.15-1.22.38-.65-.14-.48-.57.19-1.11.53-1.7.72-1.23.39-2.5.66-3.77.89-2.99.53-6.03.76-9.05.87-6.18.24-12.62.14-18.67-1.26-1.25-.29-2.35-.81-3.54-1.22.25.09-.37-.2-.32-.24.03-.03.12.71.06.4.03.19-.32.33-.07.19,0,0,.34-.26.14-.13,1.52-.98,3.47-1.32,5.22-1.65,6.32-1.18,12.95-1.24,19.35-.84,3.08.19,6.17.5,9.17,1.23.89.22,1.81.45,2.65.84.16.07.79.45.69.37.3.21.12.14.11-.13.11,1.92,3.11,1.93,3,0s-2.03-2.81-3.63-3.39c-2.68-.97-5.61-1.33-8.43-1.63-7.65-.82-15.61-.76-23.2.56-2.16.38-4.66.81-6.51,2.09-2.06,1.43-1.74,3.76.39,4.99,2.64,1.52,6.05,1.89,9.02,2.27,3.96.5,7.96.66,11.95.61,4.23-.05,8.48-.33,12.65-1.08,1.68-.3,3.36-.69,4.94-1.35.72-.3,1.45-.67,2.01-1.23.29-.29.49-.62.64-.99.04-.11.25-.73,0-.13s.1-.12.12-.31c.11-.81-.2-1.6-1.05-1.85-.7-.2-1.74.25-1.85,1.05Z"/><path class="cls-4" d="m374.17,306.83v3.11c0,.19-.14,1.18,0,1.32v.03c0,.25.05.04.15-.62.03-.2.19-.02,0-.03-.05,0-.14.13-.37.25-2.81,1.55-6.55,1.82-9.68,2.11-5.08.48-10.21.51-15.3.16-3.58-.25-7.65-.5-10.98-1.96-.27-.12-1.06-.56-1.02-.61.11-.12.11.98.19.58.05-.24,0-.55,0-.8v-3.55l-2.8.76c1.68,2.54,5.9,3,8.67,3.42,4.18.64,8.41.88,12.63.88s8.46-.24,12.64-.88c2.76-.42,6.99-.89,8.67-3.42,1.07-1.62-1.53-3.12-2.59-1.51-.59.89-2.61,1.18-3.59,1.41-1.33.32-2.67.56-4.03.74-3.67.5-7.4.66-11.1.66s-7.42-.16-11.09-.66c-1.35-.18-2.7-.42-4.03-.74-.98-.24-2.99-.51-3.59-1.41-.8-1.21-2.8-.79-2.8.76v3.55c0,1.28.25,2.12,1.36,2.89,1.19.82,2.71,1.25,4.1,1.59,2.17.53,4.4.84,6.63,1.07,5.62.59,11.34.63,16.97.17,3.89-.31,8.29-.64,11.84-2.4,1.19-.59,2.08-1.39,2.11-2.77s0-2.73,0-4.09c0-1.93-3-1.93-3,0Z"/><path class="cls-4" d="m380.58,358.39c0,.14.1-.1-.05.19.15-.29-.1.15-.16.21.15-.16-.2.19-.27.25-.15.12-.32.25-.55.4-1.05.67-2.21,1.1-3.39,1.48-3.88,1.23-7.97,1.79-12.01,2.12-9.13.76-18.93.68-27.82-1.79-1.3-.36-2.62-.77-3.82-1.41-.37-.2-.91-.52-1.14-.71-.16-.14-.3-.29-.45-.44.2.21-.29-.49-.1-.13-.15-.28-.05-.05-.05-.19,0-.18-.12.14.05-.19-.16.3.11-.16.16-.21-.16.17.28-.26.33-.3.69-.59,1.87-1.12,2.83-1.47,3.56-1.3,7.4-1.91,11.15-2.3,5-.53,10.06-.64,15.08-.42s9.79.7,14.5,1.99c1.49.41,3,.87,4.34,1.65.47.27.79.47,1.12.83.09.1.06.14.26.37-.07-.09,0,.08,0,.06.07,1.92,3.07,1.93,3,0-.1-2.76-3.11-4.13-5.33-4.98-4.13-1.57-8.66-2.17-13.03-2.59-5.77-.55-11.6-.59-17.37-.15-4.56.35-9.23.92-13.59,2.33-2.26.73-5.65,1.91-6.37,4.51s1.89,4.4,3.93,5.32c3.83,1.72,8.1,2.39,12.24,2.89,5.7.69,11.49.82,17.22.51,5.24-.28,10.65-.83,15.68-2.43,2.53-.8,6.51-2.22,6.63-5.43.07-1.93-2.93-1.93-3,0Z"/><path class="cls-4" d="m336.1,313.87c.69,1.27,2.38,2.91,1.59,4.4-.92,1.74-2.21,3.32-3.18,5.04-2,3.55-3.53,7.34-4.83,11.19-2.51,7.49-4.27,16.23-2.09,24.02.52,1.86,3.42,1.07,2.89-.8-2.23-7.97.06-16.92,2.8-24.47,1.36-3.76,3.07-7.37,5.2-10.76.96-1.53,2.47-3.09,2.48-5.01s-1.42-3.53-2.28-5.12c-.92-1.7-3.51-.19-2.59,1.51h0Z"/><path class="cls-4" d="m372.95,312.35c-.87,1.6-2.29,3.21-2.28,5.12s1.52,3.48,2.48,5.01c2.13,3.39,3.84,6.99,5.2,10.76,2.74,7.56,5.03,16.5,2.8,24.47-.52,1.86,2.37,2.66,2.89.8,2.18-7.78.43-16.53-2.09-24.02-1.27-3.79-2.78-7.52-4.73-11.02-.97-1.74-2.11-3.35-3.16-5.03-.99-1.58.72-3.19,1.47-4.58.92-1.7-1.67-3.21-2.59-1.51h0Z"/><path class="cls-4" d="m335,328.27c2.28,2.04,5.1.65,7.75,1.09.88.15,1.69.59,2.56.81.8.21,1.65.32,2.48.35,1.86.08,3.74-.29,5.52-.79s3.47-1.14,5.23-1.65c1.89-.55,3.34-.73,5.25-.16s3.63.88,5.6.87c2.15,0,4.3-.21,6.45-.24,1.93-.02,1.93-3.02,0-3s-3.98.2-5.98.23-3.61-.29-5.48-.82c-1.66-.47-3.15-.59-4.84-.24s-3.36.94-5.02,1.48-3.35,1.09-5.08,1.26-3.18-.14-4.79-.69c-1.34-.46-2.62-.51-4.01-.4-.94.07-2.74.46-3.52-.23-1.44-1.28-3.56.83-2.12,2.12h0Z"/></svg>