<?xml version="1.0" encoding="UTF-8"?><svg id="Layer_1" xmlns="http://www.w3.org/2000/svg" viewBox="0 0 300 500"><defs><style>.cls-1{fill:#0069ff;}.cls-2{fill:#fff;}</style></defs><rect class="cls-2" x="40.71" y="43.37" width="218.58" height="413.26" rx="14.79" ry="14.79"/><path class="cls-1" d="m244.5,454.13c-41.65,0-83.3,0-124.96,0-19.97,0-39.94,0-59.91,0-8.05,0-16.07-2.53-16.42-12.41-.09-2.62,0-5.27,0-7.89,0-39.68,0-79.36,0-119.04,0-55.59,0-111.19,0-166.78,0-29.8-.97-59.78,0-89.57.3-9.2,7.59-12.56,15.51-12.56,7.43,0,14.86,0,22.3,0,26.31,0,52.63,0,78.94,0,23.76,0,47.51,0,71.27,0,4.39,0,8.82-.16,13.21,0,8.71.32,12.35,7.32,12.35,14.92,0,34.98,0,69.95,0,104.93,0,55.73,0,111.47,0,167.2v105.91c0,7.69-3.29,14.89-12.29,15.3-3.2.15-3.22,5.15,0,5,10.58-.48,17.2-8.58,17.29-18.78.03-4.02,0-8.04,0-12.06v-220.93c0-44.81,0-89.61,0-134.42,0-12.09,2.03-28.63-13.97-31.74-4.48-.87-9.48-.33-13.99-.33-9.99,0-19.98,0-29.98,0H58.45c-9.89,0-19.24,4.98-20.17,15.95-.21,2.46-.06,4.98-.06,7.44v45.12c0,53.86,0,107.72,0,161.57s0,97.32,0,145.98c0,8.28-.31,16.63,0,24.91.42,11.21,9.28,17.29,19.71,17.29h22.04c50.95,0,101.9,0,152.85,0h11.69c3.22,0,3.22-5,0-5Z"/><path class="cls-2" d="m125,44h50v1c0,1.66-1.34,3-3,3h-44c-1.66,0-3-1.34-3-3v-1h0Z"/><path class="cls-1" d="m172,45.76c-7.5,0-15,0-22.49,0h-14.81c-1.87,0-7.46,1.16-7.46-1.76l-2.24,2.24c16.67,0,33.33,0,50,0l-2.24-2.24c.12.85-.33,1.47-1.36,1.84-2.82.57-1.63,4.88,1.19,4.31,3.25-.66,4.64-2.96,4.64-6.16,0-1.21-1.02-2.24-2.24-2.24-16.67,0-33.33,0-50,0-1.21,0-2.24,1.02-2.24,2.24,0,4.55,2.91,6.17,6.97,6.24,4.8.08,9.62,0,14.42,0,9.28,0,18.56,0,27.85,0,2.88,0,2.88-4.47,0-4.47Z"/></svg>