<svg width="108" height="229" viewBox="0 0 108 229" fill="none" xmlns="http://www.w3.org/2000/svg">
<path d="M89.8884 140.195L93.4084 198.145L9.39844 227.375L12.6284 153.565L89.8884 140.195Z" fill="#7B99FB" stroke="#7B99FB" stroke-width="2.5" stroke-miterlimit="10" stroke-linecap="round" stroke-linejoin="round"/>
<path d="M105.005 114.286C105.005 114.286 112.195 75.7762 88.6146 57.5262C74.2446 47.4062 60.0346 52.3462 60.0346 52.3462L39.7146 52.1762C39.7146 52.1762 14.3046 57.5262 4.83458 81.9862C-4.62542 106.446 12.6246 153.566 12.6246 153.566C34.2946 157.556 89.8846 140.196 89.8846 140.196L91.4546 106.476L105.005 114.286Z" fill="#D1DAED" stroke="#7B99FB" stroke-width="2.5" stroke-miterlimit="10" stroke-linecap="round" stroke-linejoin="round"/>
<path d="M67.0478 41.8456C67.0478 41.8456 79.6278 39.4756 86.6178 51.5056C93.6078 63.5356 83.5378 94.8556 83.5378 94.8556L68.2878 93.4356L66.2578 54.4356L67.0478 41.8456Z" fill="white" stroke="#D1DAED" stroke-width="2.5" stroke-miterlimit="10" stroke-linecap="round" stroke-linejoin="round"/>
<path d="M67.0547 41.8456C67.0547 41.8456 79.6347 39.4756 86.6247 51.5056C87.5947 53.1856 88.2447 55.2356 88.6247 57.5156C88.6247 57.5156 92.0847 59.9556 93.3447 62.5356" stroke="#7B99FB" stroke-width="2.5" stroke-miterlimit="10" stroke-linecap="round" stroke-linejoin="round"/>
<path d="M43.1499 45.6769C43.1499 45.6769 30.1099 41.0369 23.8699 50.0769C17.6299 59.1169 27.3599 101.947 27.3599 101.947L48.3599 99.9169L47.1199 71.6969L37.6699 55.4569L43.1499 45.6769Z" fill="white" stroke="#D1DAED" stroke-width="2.5" stroke-miterlimit="10" stroke-linecap="round" stroke-linejoin="round"/>
<path d="M43.1506 45.6769C43.1506 45.6769 30.1106 41.0369 23.8706 50.0769C22.4406 52.5769 21.8306 55.4769 21.7906 60.3469L17.8906 63.5269" stroke="#7B99FB" stroke-width="2.5" stroke-miterlimit="10" stroke-linecap="round" stroke-linejoin="round"/>
<path d="M3.601 86.0156C-0.598996 101.016 7.771 124.866 7.771 124.866L14.241 118.936L44.881 121.846L22.571 92.8756" fill="#D1DAED"/>
<path d="M3.601 86.0156C-0.598996 101.016 7.771 124.866 7.771 124.866L14.241 118.936L44.881 121.846L22.571 92.8756" stroke="#7B99FB" stroke-width="2.5" stroke-miterlimit="10" stroke-linecap="round" stroke-linejoin="round"/>
<path d="M72.9022 90.3367C72.9022 90.3367 37.2922 96.3167 14.2422 118.947L18.3722 131.397C20.0822 136.557 25.8622 138.647 30.4922 135.777L81.6822 104.117C81.6822 104.117 91.7622 116.267 98.5422 114.767C105.322 113.267 107.842 102.037 100.752 93.0267C97.8722 89.3667 93.5222 87.8567 89.3622 87.3467C83.8222 86.6667 78.1122 87.7967 72.9022 90.3367Z" fill="#D1DAED" stroke="#7B99FB" stroke-width="2.5" stroke-miterlimit="10" stroke-linecap="round" stroke-linejoin="round"/>
<path d="M41.7787 43.4369C34.8087 47.5469 33.7188 66.5769 33.7188 66.5769L41.7787 69.237L44.0987 78.227L58.7087 81.917C58.7087 81.917 48.7587 39.3169 41.7787 43.4369Z" fill="#7B99FB"/>
<path d="M69.0609 44.2266L83.541 64.7366L70.601 69.2366L72.791 75.8965L58.7109 81.9166L69.0609 44.2266Z" fill="#7B99FB"/>
<path d="M74.7694 27.766C74.7694 27.766 84.3094 26.886 83.4794 17.076C82.6494 7.26599 60.4494 0.585981 49.0394 2.25598C37.6294 3.92598 27.3594 13.766 27.3594 24.206C27.3594 34.646 41.0494 29.666 41.0494 29.666L74.7694 27.766Z" fill="#D1DAED" stroke="#7B99FB" stroke-width="2.5" stroke-miterlimit="10" stroke-linecap="round" stroke-linejoin="round"/>
<path d="M32.0653 25.8441C33.4753 23.9241 36.4153 26.2641 36.4153 26.2641L36.9953 33.1241L36.4153 26.2641C36.4153 26.2641 54.9753 21.3541 72.7853 22.6041L70.3353 51.4941C70.0253 55.1041 68.3853 58.3341 65.9453 60.5341L58.7053 81.9041L45.1853 64.5841C42.0353 60.5441 39.9453 55.6841 39.1153 50.4841L37.7353 41.8341L37.3053 36.8141L37.7353 41.8341C37.7353 41.8341 36.1053 45.6741 33.9353 43.6041C31.7853 41.5441 30.6653 27.7641 32.0653 25.8441Z" fill="#D1DAED"/>
<path d="M31.9683 25.775C32.2283 25.435 32.5883 25.155 33.0183 25.035C33.4383 24.905 33.8783 24.955 34.2883 25.045C35.1083 25.245 35.8483 25.655 36.5183 26.145C36.5483 26.165 36.5683 26.205 36.5783 26.245V26.255L36.9283 29.685C37.0483 30.825 37.1583 31.965 37.3083 33.105L36.6983 33.155L35.8683 26.315C35.8383 26.055 35.9983 25.805 36.2483 25.735L36.2783 25.725C42.2083 24.025 48.2283 22.715 54.3583 22.015C57.4183 21.625 60.4983 21.455 63.5883 21.375C66.6783 21.285 69.7683 21.465 72.8483 21.735H72.8883C73.3583 21.775 73.6983 22.185 73.6583 22.655V22.675L72.5383 32.435C72.1583 35.685 71.8183 38.945 71.5183 42.205C71.2083 45.465 70.9583 48.715 70.6883 52.005C70.3283 55.345 68.8383 58.605 66.3483 60.975L66.5083 60.725L63.1683 71.505C62.0583 75.095 60.8883 78.675 59.7583 82.265C59.5783 82.845 58.9583 83.165 58.3783 82.975C58.1583 82.905 57.9783 82.775 57.8483 82.615L57.8283 82.585L50.6183 73.545L47.0183 69.025C45.8083 67.495 44.6283 66.065 43.4283 64.435C41.0683 61.175 39.3583 57.445 38.4283 53.545C38.1883 52.575 38.0083 51.585 37.8483 50.595L37.4183 47.735L36.6183 42.005L36.6083 41.955V41.925L36.3383 36.895L38.2883 36.725L38.5083 41.765V41.835C38.5083 41.935 38.4883 42.045 38.4483 42.135C38.1883 42.655 37.9183 43.075 37.5583 43.515C37.2083 43.935 36.7883 44.355 36.1983 44.625C35.6083 44.915 34.7883 44.875 34.2483 44.545C33.9483 44.405 33.7683 44.185 33.5383 43.995C33.3683 43.755 33.1583 43.505 33.0383 43.265C32.1583 41.325 31.9283 39.385 31.6783 37.435C31.4683 35.485 31.3083 33.545 31.2883 31.585C31.2783 30.605 31.2683 29.635 31.3383 28.655C31.4283 27.695 31.4683 26.705 31.9683 25.775ZM32.1783 25.925C31.7683 26.725 31.6983 27.745 31.6483 28.695C31.5983 29.655 31.6183 30.625 31.6583 31.595C31.7783 33.525 31.9683 35.455 32.3283 37.355C32.6983 39.225 33.1283 41.195 33.9883 42.745C34.0983 42.925 34.2283 43.035 34.3383 43.195C34.4983 43.295 34.6483 43.455 34.7983 43.495C35.1083 43.635 35.3583 43.615 35.6383 43.465C36.2083 43.145 36.7283 42.295 37.0383 41.545L36.9783 41.915L36.3483 36.915C36.2783 36.385 36.6583 35.895 37.1983 35.825C37.7383 35.755 38.2183 36.135 38.2883 36.675V36.685L38.2983 36.755L38.8783 41.765L38.8683 41.685L39.8883 47.375L40.3683 50.225C40.5283 51.145 40.7083 52.045 40.9483 52.935C41.8983 56.505 43.4483 59.915 45.5983 62.905L59.5883 81.245L57.6683 81.575C58.9483 78.035 60.1983 74.485 61.4983 70.955L65.3983 60.365L65.4083 60.335C65.4383 60.245 65.4983 60.175 65.5583 60.115C67.9383 58.085 69.4983 55.085 69.8883 51.935C70.2083 48.705 70.4883 45.425 70.7383 42.165C70.9883 38.905 71.2083 35.635 71.3783 32.365L71.9283 22.555L72.7383 23.505C69.7083 23.425 66.6883 23.425 63.6683 23.575C60.6483 23.705 57.6283 23.935 54.6083 24.225C51.5883 24.535 48.5783 24.875 45.5683 25.305C42.5583 25.715 39.5383 26.205 36.5783 26.835L36.9883 26.245L37.3183 33.125V33.145C37.3283 33.315 37.1983 33.455 37.0283 33.465C36.8583 33.475 36.7183 33.345 36.7083 33.175C36.6583 32.025 36.5783 30.885 36.5083 29.735L36.2783 26.295L36.3383 26.405C35.7083 25.935 34.9983 25.525 34.2383 25.335C33.8583 25.245 33.4683 25.205 33.0983 25.305C32.7183 25.385 32.4183 25.625 32.1783 25.925Z" fill="#7B99FB"/>
<path d="M59.2965 27.7656C59.2965 39.4456 61.6665 43.6656 61.6665 43.6656L54.9766 44.3657" stroke="#7B99FB" stroke-width="2.5" stroke-miterlimit="10" stroke-linecap="round" stroke-linejoin="round"/>
<path d="M70.0572 51.5059C69.5072 57.9659 64.9772 63.2059 58.9372 63.5159C58.6772 63.5259 58.4172 63.5359 58.1572 63.5359C48.5572 63.5359 44.6172 55.2059 44.6172 55.2059" fill="#D1DAED"/>
<path d="M70.055 51.5059C70.325 54.4859 69.455 57.6659 67.515 60.1959C66.565 61.4759 65.305 62.5459 63.895 63.3559C62.465 64.1459 60.845 64.6158 59.215 64.7458C57.615 64.8258 56.025 64.6958 54.475 64.3058C52.935 63.8858 51.455 63.2659 50.155 62.3659C47.545 60.6059 45.555 58.0659 44.625 55.2059C46.455 57.5459 48.685 59.4359 51.135 60.6859C53.595 61.9259 56.335 62.4358 59.035 62.2458C61.645 62.1058 64.125 60.8559 66.035 58.9159C67.955 56.9759 69.285 54.3859 70.055 51.5059Z" fill="#7B99FB"/>
<path d="M59.2969 30.9669C62.5369 24.7269 70.5769 28.4269 70.5769 28.4269C70.5769 28.4269 71.0669 35.5169 65.8569 36.6869C60.6469 37.8669 59.2969 30.9669 59.2969 30.9669Z" fill="#7B99FB"/>
<path d="M55.3995 30.9669C51.8795 24.7269 43.1695 28.4269 43.1695 28.4269C43.1695 28.4269 42.6395 35.5169 48.2895 36.6869C53.9295 37.8669 55.3995 30.9669 55.3995 30.9669Z" fill="#7B99FB"/>
<path d="M54.7031 30.967C54.7031 30.967 57.6831 29.367 60.0031 30.967" stroke="#7B99FB" stroke-width="2.5" stroke-miterlimit="10" stroke-linecap="round" stroke-linejoin="round"/>
<path d="M63.1094 40.9961C63.6994 41.3861 64.1694 41.8461 64.5894 42.3361C65.0194 42.8161 65.3894 43.3461 65.7194 43.8861C66.0494 44.4361 66.3394 45.0061 66.5594 45.6061C66.7894 46.2061 66.9794 46.8361 67.0394 47.5461C66.4394 47.1561 65.9794 46.6961 65.5494 46.2061C65.1194 45.7261 64.7494 45.1961 64.4294 44.6561C64.0994 44.1061 63.8194 43.5361 63.5894 42.9361C63.3594 42.3361 63.1794 41.7061 63.1094 40.9961Z" fill="#7B99FB"/>
<path d="M52.2294 41.8457C52.1794 42.6257 52.0094 43.3357 51.7794 44.0257C51.5594 44.7157 51.2794 45.3757 50.9594 46.0157C50.6394 46.6557 50.2694 47.2757 49.8494 47.8657C49.4294 48.4557 48.9594 49.0257 48.3594 49.5257C48.3994 48.7457 48.5794 48.0357 48.7994 47.3457C49.0194 46.6557 49.2994 45.9957 49.6194 45.3557C49.9394 44.7157 50.3094 44.0957 50.7394 43.5157C51.1594 42.9057 51.6294 42.3457 52.2294 41.8457Z" fill="#7B99FB"/>
<path d="M51.7109 50.0859C52.7009 49.5659 53.7009 49.296 54.6909 49.106C55.6809 48.926 56.6809 48.8359 57.6709 48.8359C58.6609 48.8359 59.6609 48.916 60.6509 49.106C61.6409 49.296 62.641 49.5659 63.631 50.0859C62.641 50.6059 61.6409 50.8759 60.6509 51.0659C59.6609 51.2459 58.6609 51.3359 57.6709 51.3359C56.6809 51.3359 55.6809 51.2459 54.6909 51.0659C53.6909 50.8659 52.7009 50.5959 51.7109 50.0859Z" fill="#7B99FB"/>
<path d="M73.1022 25.8455C73.1022 25.8455 75.4222 23.9255 76.8322 25.8455C78.2422 27.7655 77.1222 41.5455 74.9622 43.6155C72.8022 45.6855 71.7422 41.8455 71.7422 41.8455L73.1022 25.8455Z" fill="#D1DAED"/>
<path d="M73.1019 25.8461C73.5019 25.4361 73.9619 25.056 74.5419 24.826C75.1019 24.596 75.8519 24.526 76.4919 24.886C76.8119 25.056 77.0719 25.2761 77.3019 25.5461C77.5619 25.8961 77.6619 26.186 77.7719 26.496C77.9619 27.106 78.0619 27.686 78.1519 28.276C78.3319 29.446 78.3719 30.606 78.4019 31.766C78.4319 32.926 78.3919 34.0761 78.3019 35.2361C78.1419 37.5561 77.8419 39.836 77.1019 42.186C76.9019 42.786 76.6919 43.3761 76.2219 44.0361C76.1219 44.1961 75.9219 44.3961 75.7819 44.5461C75.6419 44.6761 75.4919 44.7961 75.3119 44.9161C74.9619 45.1461 74.5219 45.396 73.9319 45.436C73.3419 45.496 72.7319 45.2761 72.3419 44.9861C71.9319 44.6961 71.6819 44.376 71.4619 44.066C71.0419 43.426 70.8119 42.856 70.6219 42.156L70.6119 42.126C70.5819 41.996 70.5719 41.866 70.5819 41.746C70.8819 39.016 71.2419 36.296 71.6619 33.626C72.0719 30.956 72.5419 28.3361 73.1019 25.8461ZM73.1019 25.8461C73.2119 28.6861 73.2219 31.396 73.1819 34.066C73.1419 36.726 73.0419 39.346 72.8919 41.936L72.8519 41.526C72.9919 41.906 73.2119 42.386 73.4319 42.686C73.5419 42.836 73.6519 42.9561 73.7119 42.9861C73.7819 43.0261 73.7419 42.996 73.7119 42.996C73.6919 42.996 73.7719 42.976 73.8819 42.896C73.9419 42.856 74.0019 42.7961 74.0719 42.7361C74.1219 42.6761 74.1319 42.6761 74.1819 42.5961C74.3619 42.3261 74.5719 41.856 74.7319 41.386C75.3919 39.426 75.7419 37.186 76.0719 35.006C76.3519 32.806 76.6119 30.586 76.6219 28.396C76.6219 27.856 76.6019 27.306 76.5319 26.816C76.4919 26.586 76.4419 26.326 76.3819 26.196C76.2819 26.006 76.1419 25.8161 75.9819 25.6761C75.3519 25.0661 74.0819 25.3061 73.1019 25.8461Z" fill="#7B99FB"/>
<path d="M48.8642 8.25135C51.1498 8.08014 52.9608 7.38327 52.9092 6.69485C52.8576 6.00643 50.963 5.58714 48.6775 5.75835C46.3919 5.92956 44.5809 6.62644 44.6324 7.31486C44.684 8.00328 46.5786 8.42256 48.8642 8.25135Z" fill="#7B99FB"/>
<path d="M105.003 114.286C105.003 114.286 95.6728 108.956 80.0328 108.276C64.3928 107.596 39.5828 120.636 34.5628 126.266C33.6228 127.326 32.9428 128.546 32.4528 129.846C29.8228 136.896 33.5928 144.616 40.3028 146.706C43.8328 147.806 47.9428 148.136 51.5228 145.906C59.8828 140.726 42.9528 135.426 51.9628 128.666C60.9728 121.906 90.0628 131.396 97.7528 130.096C105.423 128.796 105.003 114.286 105.003 114.286Z" fill="#D1DAED" stroke="#7B99FB" stroke-width="2.5" stroke-miterlimit="10" stroke-linecap="round" stroke-linejoin="round"/>
<path d="M83.3578 99.8255L81.6978 104.116C81.6978 104.116 91.7778 116.266 98.5578 114.766C105.338 113.266 107.858 102.036 100.768 93.0256C97.8878 89.3656 93.5378 87.8556 89.3778 87.3456C84.2078 86.7156 78.9078 87.6656 74.0078 89.8456" fill="#D1DAED"/>
<path d="M83.3578 99.8255L81.6978 104.116C81.6978 104.116 91.7778 116.266 98.5578 114.766C105.338 113.266 107.858 102.036 100.768 93.0256C97.8878 89.3656 93.5378 87.8556 89.3778 87.3456C84.2078 86.7156 78.9078 87.6656 74.0078 89.8456" stroke="#7B99FB" stroke-width="2.5" stroke-miterlimit="10" stroke-linecap="round" stroke-linejoin="round"/>
<path d="M80.0328 108.266C64.3928 107.586 39.5828 120.626 34.5628 126.256C33.6228 127.316 32.9428 128.536 32.4528 129.836C29.8228 136.886 33.5928 144.606 40.3028 146.696C43.8328 147.796 47.9428 148.126 51.5228 145.896C59.8828 140.716 50.2828 125.566 50.2828 125.566" fill="#D1DAED"/>
<path d="M80.0328 108.266C64.3928 107.586 39.5828 120.626 34.5628 126.256C33.6228 127.316 32.9428 128.536 32.4528 129.836C29.8228 136.886 33.5928 144.606 40.3028 146.696C43.8328 147.796 47.9428 148.126 51.5228 145.896C59.8828 140.716 50.2828 125.566 50.2828 125.566" stroke="#7B99FB" stroke-width="2.5" stroke-miterlimit="10" stroke-linecap="round" stroke-linejoin="round"/>
</svg>
