<svg width="724" height="581" viewBox="0 0 724 581" fill="none" xmlns="http://www.w3.org/2000/svg">
<path d="M52.3086 561.631L72.1187 561.301L91.9187 561.061L131.529 560.571L210.749 559.971C237.149 559.731 263.559 559.711 289.959 559.581L369.178 559.461L448.399 559.581C474.799 559.711 501.209 559.721 527.619 559.961L606.829 560.571L646.439 561.051L666.249 561.301L686.049 561.631L666.249 561.961L646.439 562.201L606.829 562.691L527.619 563.301C501.209 563.541 474.799 563.551 448.399 563.681L369.178 563.801L289.959 563.681C263.559 563.551 237.149 563.531 210.749 563.291L131.529 562.691L91.9187 562.201L72.1287 562.001L52.3086 561.631Z" fill="#3B65EE"/>
<path d="M566.239 10.2889C566.239 10.2889 491.429 16.7988 490.889 33.5988C490.349 50.3988 514.739 202.739 512.569 228.219C510.399 253.699 489.799 408.219 486.009 439.649C482.219 471.079 506.519 482.069 516.909 485.189C533.169 490.069 632.909 506.329 652.979 496.029C673.049 485.729 686.049 296.529 686.049 208.169C686.049 119.809 675.209 22.1688 657.859 14.0888C640.509 6.00884 566.239 10.2889 566.239 10.2889Z" stroke="#3B65EE" stroke-width="4.16" stroke-linecap="round" stroke-linejoin="round"/>
<path d="M500.639 35.7708C506.809 37.4408 513.039 38.6908 519.299 39.7708C525.559 40.8508 531.849 41.5707 538.149 42.1307C550.737 43.2454 563.393 43.3658 575.999 42.4907C582.299 42.1407 588.569 41.3707 594.809 40.4907C601.049 39.6107 607.239 38.2907 613.419 36.9707C625.771 34.0039 637.903 30.1882 649.729 25.5508C638.484 31.7239 626.579 36.6081 614.239 40.1107C611.129 40.9207 608.049 41.8507 604.889 42.4807L600.179 43.4807L595.439 44.3607C589.089 45.3607 582.699 46.2308 576.279 46.6608C569.859 47.0908 563.419 47.2107 556.989 47.0007C550.559 46.7907 544.149 46.2607 537.789 45.3607C531.428 44.5117 525.118 43.3133 518.889 41.7708C512.659 40.2478 506.557 38.2417 500.639 35.7708V35.7708Z" fill="#3B65EE"/>
<path d="M504.949 147.569C509.649 183.919 513.489 217.439 512.569 228.219C511.409 241.829 504.999 292.219 498.699 341.019C567.149 379.179 647.33 363.759 679.37 355.099C683.67 302.269 686.049 245.979 686.049 208.169C686.049 187.679 685.469 166.699 684.359 146.449C586.219 174.999 527.919 157.869 504.949 147.569Z" stroke="#3B65EE" stroke-width="4.16" stroke-linecap="round" stroke-linejoin="round"/>
<path opacity="0.2" d="M504.949 147.569C509.649 183.919 513.489 217.439 512.569 228.219C511.409 241.829 504.999 292.219 498.699 341.019C567.149 379.179 647.33 363.759 679.37 355.099C683.67 302.269 686.049 245.979 686.049 208.169C686.049 187.679 685.469 166.699 684.359 146.449C586.219 174.999 527.919 157.869 504.949 147.569Z" fill="#3B65EE"/>
<path d="M518.54 281.891C517.34 275.541 516.539 269.181 515.799 262.811C515.059 256.441 514.479 250.071 513.979 243.701C513.479 237.331 513.039 230.951 512.709 224.561C512.379 218.171 512.069 211.811 511.609 205.371C513.626 211.509 515.075 217.819 515.939 224.221C516.939 230.581 517.61 236.971 518.12 243.371C518.63 249.771 518.94 256.181 519.02 262.601C519.1 269.021 519.06 275.451 518.54 281.891Z" fill="#3B65EE"/>
<path d="M502.809 455.371C505.109 457.461 507.178 459.601 509.218 461.751C511.258 463.901 513.218 466.071 515.218 468.251C517.218 470.431 519.099 472.641 521.039 474.881C522.979 477.121 524.898 479.381 526.688 481.941C523.861 480.731 521.205 479.154 518.789 477.251C516.38 475.379 514.15 473.286 512.128 471.001C510.086 468.739 508.255 466.296 506.658 463.701C504.999 461.114 503.704 458.311 502.809 455.371V455.371Z" fill="#3B65EE"/>
<path d="M560.009 55.5602C564.339 54.9602 568.599 54.5601 572.849 54.2301L585.559 53.2301C589.779 52.8801 593.989 52.5301 598.209 52.1401C602.429 51.7501 606.619 51.1402 610.969 50.6602C607.126 52.7564 603.025 54.3366 598.769 55.3601C594.531 56.3595 590.221 57.0282 585.879 57.3601C581.552 57.6801 577.209 57.7101 572.879 57.4501C568.538 57.2338 564.228 56.601 560.009 55.5602V55.5602Z" fill="#3B65EE"/>
<path d="M492.779 575.179C492.779 547.489 524.339 525.039 563.259 525.039C602.179 525.039 633.739 547.489 633.739 575.179H492.779Z" fill="white" stroke="#3B65EE" stroke-width="4.16" stroke-linecap="round" stroke-linejoin="round"/>
<path opacity="0.2" d="M520.068 575.721C520.068 554.921 543.768 538.051 573.068 538.051C602.368 538.051 626.019 554.921 626.019 575.721H520.068Z" fill="#3B65EE"/>
<path d="M551.6 524.761L558.12 492.941" stroke="#3B65EE" stroke-width="4.16" stroke-linecap="round" stroke-linejoin="round"/>
<path d="M582.509 526.391L589.009 497.121" stroke="#3B65EE" stroke-width="4.16" stroke-linecap="round" stroke-linejoin="round"/>
<path opacity="0.2" d="M559.759 525.099L562.989 505.249L556.189 502.359L559.589 493.148L589.009 497.148L582.509 527.509C582.509 527.509 563.579 524.889 559.759 525.099Z" fill="#3B65EE"/>
<path d="M475.709 9.21094C475.369 11.2382 474.901 13.2421 474.31 15.2109C473.75 17.1209 473.149 18.971 472.509 20.811C471.869 22.651 471.219 24.461 470.509 26.291C469.799 28.121 469.129 30.001 468.129 32.001C467.429 29.9652 467.157 27.8069 467.33 25.661C467.464 23.5552 467.891 21.4785 468.6 19.491C469.283 17.5054 470.214 15.6139 471.37 13.861C472.518 12.057 473.989 10.4806 475.709 9.21094Z" fill="#3B65EE"/>
<path d="M466.009 0C465.377 1.96244 464.623 3.88295 463.749 5.75C462.909 7.56 462.049 9.31003 461.159 11.03C460.269 12.75 459.349 14.46 458.379 16.17C457.409 17.88 456.469 19.62 455.189 21.42C454.796 19.3068 454.84 17.1355 455.319 15.04C455.758 12.9736 456.482 10.9779 457.469 9.10999C458.435 7.24786 459.631 5.51429 461.029 3.94995C462.433 2.33917 464.121 1.0003 466.009 0V0Z" fill="#3B65EE"/>
<path d="M704.339 49.9219C705.849 52.2042 707.021 54.6934 707.819 57.3119C708.632 59.8916 709.195 62.5439 709.499 65.2318C709.817 67.9275 709.851 70.6491 709.599 73.3518C709.38 76.1044 708.725 78.8047 707.658 81.3518C707.018 78.6318 706.729 76.0418 706.329 73.4518C705.929 70.8618 705.669 68.3118 705.329 65.7418C704.989 63.1718 704.789 60.5918 704.579 57.9818C704.369 55.3718 704.269 52.6919 704.339 49.9219Z" fill="#3B65EE"/>
<path d="M715.568 40.2383C717.326 42.2976 718.768 44.606 719.849 47.0883C720.944 49.5283 721.794 52.0707 722.388 54.6783C723.009 57.3012 723.344 59.9834 723.388 62.6783C723.453 65.3846 723.092 68.0843 722.318 70.6783C721.388 68.0683 720.818 65.5682 720.138 63.0682C719.458 60.5682 718.938 58.0683 718.358 55.6183C717.778 53.1683 717.259 50.6183 716.769 48.0883C716.237 45.4934 715.836 42.8734 715.568 40.2383Z" fill="#3B65EE"/>
<path d="M667.349 303.309C664.763 311.96 661.561 320.415 657.769 328.609C656.869 330.679 655.868 332.699 654.878 334.729C653.888 336.759 652.879 338.729 651.829 340.779C650.779 342.829 649.718 344.779 648.588 346.729C647.458 348.679 646.399 350.679 645.229 352.619L641.648 358.378C640.438 360.288 639.158 362.159 637.888 364.029L635.968 366.819L633.968 369.549C632.608 371.369 631.279 373.198 629.849 374.948C624.222 382.034 617.904 388.543 610.988 394.378C616.688 387.378 622.149 380.379 627.249 373.009C627.919 372.119 628.488 371.149 629.108 370.229L630.979 367.458L632.858 364.688L634.628 361.849C635.808 359.959 637.069 358.118 638.229 356.208L641.678 350.479C642.858 348.589 643.948 346.639 645.088 344.719L646.769 341.829L648.398 338.898C650.658 335.048 652.718 331.078 654.898 327.168C659.112 319.288 663.262 311.335 667.349 303.309Z" fill="#3B65EE"/>
<path d="M356.129 126.579C356.129 126.579 379.039 100.179 384.859 109.229C389.779 116.819 367.549 120.609 356.129 126.579Z" stroke="#3B65EE" stroke-width="4.16" stroke-linecap="round" stroke-linejoin="round"/>
<path d="M357.85 136.882C357.85 136.882 381.409 131.272 381.029 138.722C380.709 145.002 366.67 138.122 357.85 136.882Z" stroke="#3B65EE" stroke-width="2.88" stroke-linecap="round" stroke-linejoin="round"/>
<path d="M33.1289 195.58C33.1289 195.58 8.97884 170.31 3.59884 179.63C-0.94116 187.45 21.4489 190.17 33.1289 195.58Z" stroke="#3B65EE" stroke-width="4.16" stroke-linecap="round" stroke-linejoin="round"/>
<path d="M33.0392 211.059C33.0392 211.059 8.86938 212.688 11.4394 219.688C13.5894 225.558 24.9792 214.859 33.0392 211.059Z" stroke="#3B65EE" stroke-width="2.88" stroke-linecap="round" stroke-linejoin="round"/>
<path d="M102.729 340.998C102.729 340.998 100.559 336.658 100.559 325.818C100.559 314.978 93.5593 264.558 48.5593 274.818C3.55928 285.078 -2.95054 347.458 15.4895 375.108C33.9295 402.758 94.0892 400.048 102.769 382.698C111.449 365.348 107.069 345.858 102.729 340.998Z" stroke="#3B65EE" stroke-width="4.16" stroke-linecap="round" stroke-linejoin="round"/>
<path d="M89.8691 289.929C89.8691 289.929 109.779 280.809 113.569 303.579C117.359 326.349 100.689 330.149 100.689 330.149" stroke="#3B65EE" stroke-width="4.16" stroke-linecap="round" stroke-linejoin="round"/>
<path d="M347.729 237.002C347.729 237.002 344.379 238.402 344.609 227.002C344.839 215.602 350.289 191.522 358.949 192.122C358.949 192.122 367.759 182.392 380.889 181.122C394.019 179.852 456.229 175.942 469.139 201.812C482.049 227.682 475.399 277.231 443.139 280.461C410.879 283.691 399.269 270.402 399.269 270.402C399.269 270.402 395.569 284.822 375.959 277.502C356.349 270.182 346.979 256.002 347.729 237.002Z" stroke="#3B65EE" stroke-width="4.16" stroke-linecap="round" stroke-linejoin="round"/>
<path d="M357.739 201.828C357.349 204.228 356.839 206.558 356.309 208.878C355.779 211.198 355.198 213.508 354.638 215.808L352.869 222.698C352.259 224.998 351.689 227.298 350.959 229.628C350.803 227.209 350.883 224.781 351.199 222.378C351.505 219.987 351.953 217.616 352.539 215.278C353.13 212.947 353.847 210.651 354.689 208.398C355.517 206.125 356.537 203.927 357.739 201.828Z" fill="#3B65EE"/>
<path d="M386.009 253.48C388.057 254.96 389.981 256.605 391.759 258.401C393.509 260.141 395.169 261.941 396.759 263.781C398.349 265.621 399.879 267.501 401.369 269.411C402.859 271.321 404.289 273.25 405.979 275.22C403.439 274.616 401.076 273.424 399.079 271.74C397.082 270.184 395.249 268.429 393.609 266.5C391.97 264.596 390.491 262.559 389.189 260.411C387.848 258.24 386.78 255.913 386.009 253.48V253.48Z" fill="#3B65EE"/>
<path d="M17.8895 349.391L22.2594 357.881C23.7094 360.651 25.2095 363.331 26.7995 365.881C28.3981 368.47 30.1513 370.962 32.0495 373.341C34.0592 375.765 36.2097 378.069 38.4896 380.241C35.2609 379.386 32.2666 377.813 29.7296 375.641C27.1947 373.467 25.0119 370.913 23.2594 368.071C21.5503 365.252 20.2063 362.228 19.2594 359.071C18.2731 355.942 17.8104 352.671 17.8895 349.391V349.391Z" fill="#3B65EE"/>
<path opacity="0.2" d="M96.9395 305.091C96.9395 305.091 110.219 307.851 112.299 298.531C112.299 298.531 118.449 323.101 101.099 330.141C101.129 330.141 100.629 308.491 96.9395 305.091Z" fill="#3B65EE"/>
<path opacity="0.2" d="M105.46 346.168C96.3996 341.958 85.8396 341.038 79.4596 333.398C68.0696 319.838 64.8195 293.818 38.7995 291.648C28.3895 290.788 20.3196 295.728 14.3896 301.978C2.09957 325.368 3.65967 357.398 15.4897 375.138C33.9197 402.788 94.0895 400.078 102.769 382.728C109.489 369.208 108.34 354.368 105.46 346.168Z" fill="#3B65EE"/>
<path opacity="0.2" d="M399.209 270.551C394.789 266.131 390.079 265.641 385.159 261.851C377.419 255.851 370.839 240.771 357.859 239.851C352.449 239.481 350.069 244.521 349.129 250.521C352.419 262.751 361.329 272.041 375.939 277.521C394.459 284.431 398.789 272.001 399.209 270.551Z" fill="#3B65EE"/>
<path opacity="0.2" d="M462.96 194.121C468.67 202.79 470.745 213.356 468.739 223.541C462.889 253.541 405.79 238.261 392.48 242.241C382.29 245.241 382.71 256.061 398.54 272.241C398.832 271.668 399.07 271.069 399.25 270.451C399.25 270.451 410.84 283.741 443.12 280.511C475.4 277.281 482.04 227.741 469.12 201.861C467.61 198.892 465.514 196.259 462.96 194.121Z" fill="#3B65EE"/>
<path d="M102.19 385.438C106.19 397.978 109.78 407.938 114.11 417.968C114.11 417.968 248.56 406.578 360.78 349.118C360.78 349.118 317.95 205.458 300.06 99.7383C300.06 99.7383 195.43 131.178 52.8496 159.918C52.8496 159.918 60.9496 214.138 74.0496 276.208" stroke="#3B65EE" stroke-width="5.42" stroke-linecap="round" stroke-linejoin="round"/>
<path d="M181.989 264.411C191.278 264.411 198.809 256.795 198.809 247.401C198.809 238.006 191.278 230.391 181.989 230.391C172.699 230.391 165.169 238.006 165.169 247.401C165.169 256.795 172.699 264.411 181.989 264.411Z" fill="#3B65EF"/>
<path d="M232.499 264.411C241.788 264.411 249.319 256.795 249.319 247.401C249.319 238.006 241.788 230.391 232.499 230.391C223.21 230.391 215.679 238.006 215.679 247.401C215.679 256.795 223.21 264.411 232.499 264.411Z" fill="#3B65EF"/>
<path d="M267.948 325.63C269.386 325.374 270.663 324.559 271.501 323.364C272.339 322.168 272.669 320.689 272.418 319.251V319.251V318.781C268.384 305.205 259.425 293.625 247.299 286.31C235.172 278.994 220.751 276.47 206.861 279.232C192.97 281.994 180.612 289.843 172.206 301.241C163.8 312.638 159.953 326.764 161.418 340.851C161.471 342.225 162.065 343.522 163.071 344.459C164.078 345.396 165.414 345.897 166.788 345.851H167.878L267.948 325.63Z" fill="#3B65EF"/>
<path d="M57.3794 186.541L303.909 123.751C304.809 123.521 305.746 123.478 306.663 123.623C307.579 123.768 308.457 124.099 309.242 124.595C310.026 125.091 310.701 125.742 311.225 126.509C311.749 127.275 312.112 128.14 312.29 129.051L319.389 165.321C319.74 167.071 319.392 168.889 318.418 170.385C317.443 171.88 315.922 172.934 314.179 173.321L65.7593 228.871C64.8617 229.072 63.9327 229.088 63.0283 228.921C62.124 228.753 61.2629 228.404 60.4969 227.895C59.7308 227.386 59.0756 226.727 58.5708 225.958C58.066 225.189 57.722 224.326 57.5594 223.421L52.3494 194.421C52.0264 192.714 52.367 190.948 53.3018 189.483C54.2366 188.019 55.6951 186.967 57.3794 186.541V186.541Z" fill="white" stroke="#3B65EE" stroke-width="4.16" stroke-linecap="round" stroke-linejoin="round"/>
<path d="M54.0488 203.818L314.059 138.078L317.049 153.368L55.969 214.558L54.0488 203.818Z" fill="#3B65EE"/>
<path opacity="0.2" d="M67.7383 229.009L317.048 183.099L314.148 173.469L67.7383 229.009Z" fill="#3B65EE"/>
<path opacity="0.2" d="M241.509 580.069C321.452 580.069 386.259 575.941 386.259 570.849C386.259 565.757 321.452 561.629 241.509 561.629C161.566 561.629 96.7588 565.757 96.7588 570.849C96.7588 575.941 161.566 580.069 241.509 580.069Z" fill="#3B65EE"/>
</svg>
