<svg width="486" height="940" viewBox="0 0 486 940" fill="none" xmlns="http://www.w3.org/2000/svg">
<g style="mix-blend-mode:multiply">
<path d="M251.58 939.081C380.119 939.081 484.32 932.746 484.32 924.931C484.32 917.116 380.119 910.781 251.58 910.781C123.041 910.781 18.8398 917.116 18.8398 924.931C18.8398 932.746 123.041 939.081 251.58 939.081Z" fill="#D1DAED"/>
</g>
<path d="M461.94 458.067C440.19 478.337 411.32 482.697 397.46 467.827C383.6 452.957 390 424.467 411.74 404.197C427.8 389.197 460.02 386.917 475.74 386.727C476.922 386.711 478.095 386.944 479.181 387.41C480.267 387.877 481.243 388.567 482.045 389.436C482.847 390.305 483.457 391.333 483.835 392.453C484.213 393.573 484.351 394.76 484.24 395.937C482.83 411.527 478 443.137 461.94 458.067Z" fill="white" stroke="#3B65EE" stroke-width="3" stroke-miterlimit="10" stroke-linecap="round"/>
<path d="M477.999 429.27C477.999 429.27 468.189 413.48 445.529 421.96Z" fill="white"/>
<path d="M477.48 429.57C473.63 425.32 468.495 422.448 462.86 421.39C461.468 421.151 460.061 421.018 458.65 420.99C457.937 420.95 457.222 420.95 456.51 420.99C455.8 421.06 455.09 421.1 454.37 421.15C453.65 421.189 452.935 421.282 452.23 421.43L450.08 421.76C448.66 422.07 447.25 422.45 445.78 422.76H445.7C445.504 422.803 445.3 422.772 445.126 422.672C444.953 422.572 444.823 422.411 444.763 422.22C444.702 422.029 444.716 421.822 444.8 421.641C444.885 421.459 445.035 421.316 445.22 421.24C446.62 420.62 448.04 420.03 449.49 419.5L451.73 418.91C452.479 418.687 453.245 418.523 454.02 418.42C457.133 417.906 460.311 417.923 463.42 418.47C466.538 419.098 469.499 420.342 472.13 422.13C474.758 423.879 476.932 426.231 478.47 428.99C478.541 429.126 478.556 429.286 478.511 429.434C478.466 429.581 478.365 429.705 478.23 429.78C478.114 429.841 477.981 429.862 477.852 429.839C477.723 429.815 477.606 429.748 477.52 429.65L477.48 429.57Z" fill="#3B65EE"/>
<g style="mix-blend-mode:multiply">
<path d="M417.9 469.788C404.04 454.908 410.43 426.428 432.18 406.168C442.98 396.108 455.53 389.968 467.18 388.168C447.354 386.262 427.546 391.983 411.79 404.168C390.05 424.438 383.65 452.918 397.51 467.798C404.51 475.288 415.28 477.888 427.04 476.048C423.581 474.638 420.465 472.504 417.9 469.788Z" fill="#D1DAED"/>
</g>
<path d="M461.94 458.067C440.19 478.337 411.32 482.697 397.46 467.827C383.6 452.957 390 424.467 411.74 404.197C427.8 389.197 460.02 386.917 475.74 386.727C476.922 386.711 478.095 386.944 479.181 387.41C480.267 387.877 481.243 388.567 482.045 389.436C482.847 390.305 483.457 391.333 483.835 392.453C484.213 393.573 484.351 394.76 484.24 395.937C482.83 411.527 478 443.137 461.94 458.067Z" stroke="#3B65EE" stroke-width="3" stroke-miterlimit="10" stroke-linecap="round"/>
<path d="M442.4 390C443.567 391.76 444.527 393.649 445.26 395.63C446.019 397.58 446.628 399.586 447.08 401.63C447.926 405.756 448.225 409.976 447.97 414.18C447.714 418.382 446.956 422.538 445.71 426.56C444.455 430.559 442.859 434.443 440.94 438.17C437.004 445.526 432.133 452.342 426.45 458.45C425.01 459.93 423.63 461.45 422.14 462.92C420.65 464.39 419.14 465.83 417.64 467.2C416.14 468.57 414.55 469.93 412.95 471.2C411.35 472.47 409.74 473.79 408.12 475.06C407.957 475.148 407.769 475.177 407.587 475.142C407.405 475.106 407.241 475.009 407.123 474.866C407.005 474.723 406.94 474.544 406.939 474.358C406.939 474.173 407.003 473.993 407.12 473.85V473.85C408.62 472.46 410.12 471.09 411.65 469.72C413.18 468.35 414.59 466.89 416.06 465.48C417.53 464.07 418.91 462.57 420.34 461.12C421.77 459.67 423.06 458.12 424.43 456.61C429.789 450.543 434.442 443.887 438.3 436.77C442.138 429.698 444.579 421.954 445.49 413.96C445.893 409.961 445.772 405.927 445.13 401.96C444.545 397.988 443.301 394.142 441.45 390.58V390.58C441.413 390.513 441.39 390.439 441.381 390.363C441.373 390.287 441.379 390.21 441.401 390.137C441.422 390.064 441.458 389.995 441.506 389.936C441.554 389.876 441.613 389.827 441.68 389.79C441.806 389.736 441.946 389.727 442.078 389.766C442.209 389.804 442.323 389.887 442.4 390V390Z" fill="#3B65EE"/>
<path d="M316.119 554.681L240.279 494.051L310.089 511.571L316.119 554.681Z" fill="#D1DAED" stroke="#3B65EE" stroke-width="3" stroke-miterlimit="10" stroke-linecap="round"/>
<path d="M333.85 639.04L385.74 606.66L333.66 698.94L333.85 639.04Z" fill="#D1DAED" stroke="#3B65EE" stroke-width="3" stroke-miterlimit="10" stroke-linecap="round"/>
<path d="M338.2 749.28L382.12 736.25L331.92 816.12L338.2 749.28Z" fill="#D1DAED" stroke="#3B65EE" stroke-width="3" stroke-miterlimit="10" stroke-linecap="round"/>
<path d="M305.509 887.289L259.109 816.609L314.879 844.749L305.509 887.289Z" fill="#D1DAED" stroke="#3B65EE" stroke-width="3" stroke-miterlimit="10" stroke-linecap="round"/>
<path d="M401.79 470.231C402.58 453.351 384.48 427.551 384.48 427.551C384.48 427.551 379.99 449.551 387.72 467.751C378.987 477.584 370.967 488.027 363.72 499.001C342.29 531.401 317.99 583.831 323.9 649.551C324.03 650.939 324.485 652.277 325.227 653.456C325.97 654.636 326.981 655.624 328.176 656.34C329.372 657.057 330.719 657.482 332.11 657.581C333.5 657.68 334.895 657.451 336.18 656.911V656.911C337.904 656.179 339.35 654.919 340.312 653.313C341.273 651.706 341.7 649.835 341.53 647.971C334.69 571.971 371.7 513.971 398.15 482.971C417.15 493.051 448.5 480.561 448.5 480.561C448.5 480.561 438.83 466.281 401.79 470.231Z" fill="#D1DAED" stroke="#3B65EE" stroke-width="3" stroke-miterlimit="10" stroke-linecap="round"/>
<g style="mix-blend-mode:multiply">
<path d="M348.349 525.5C341.712 538.65 336.277 552.372 332.109 566.5C336.03 595.851 338.33 625.396 338.999 655C339.912 654.092 340.615 652.994 341.057 651.784C341.499 650.575 341.671 649.283 341.559 648C338.835 617.471 342.98 586.719 353.689 558C352.156 547.293 350.376 536.46 348.349 525.5Z" fill="#BAC8E2"/>
</g>
<path d="M401.79 470.231C402.58 453.351 384.48 427.551 384.48 427.551C384.48 427.551 379.99 449.551 387.72 467.751C378.987 477.584 370.967 488.027 363.72 499.001C342.29 531.401 317.99 583.831 323.9 649.551C324.03 650.939 324.485 652.277 325.227 653.456C325.97 654.636 326.981 655.624 328.176 656.34C329.372 657.057 330.719 657.482 332.11 657.581C333.5 657.68 334.895 657.451 336.18 656.911V656.911C337.904 656.179 339.35 654.919 340.312 653.313C341.273 651.706 341.7 649.835 341.53 647.971C334.69 571.971 371.7 513.971 398.15 482.971C417.15 493.051 448.5 480.561 448.5 480.561C448.5 480.561 438.83 466.281 401.79 470.231Z" stroke="#3B65EE" stroke-width="3" stroke-miterlimit="10" stroke-linecap="round"/>
<path d="M167.35 397.63C230 400 279.12 447.37 279.12 447.37C279.12 447.37 226.58 490.85 163.89 488.47C101.2 486.09 52.1201 438.73 52.1201 438.73C52.1201 438.73 104.66 395.24 167.35 397.63Z" fill="#D1DAED" stroke="#3B65EE" stroke-width="3" stroke-miterlimit="10" stroke-linecap="round"/>
<path d="M107.899 442.159C122.189 441.769 136.479 441.769 150.749 441.909C157.889 441.909 165.029 442.119 172.169 442.229L193.569 442.77L214.969 443.52C222.099 443.85 229.239 444.1 236.369 444.52C250.629 445.24 264.879 446.11 279.119 447.38C264.829 447.78 250.549 447.78 236.269 447.64C229.129 447.64 221.999 447.42 214.859 447.32L193.449 446.77L172.049 446.01C164.919 445.69 157.789 445.43 150.659 445.01C136.399 444.29 122.139 443.419 107.899 442.159Z" fill="#3B65EE"/>
<path d="M302.89 929.319C300.112 928.465 297.771 926.569 296.358 924.029C294.945 921.488 294.57 918.5 295.31 915.689C301.43 892.489 315.52 832.359 320.55 754.209C326.49 661.879 320.65 524.689 259.04 395.479L279.37 385.789C343.16 519.589 349.17 661.129 342.97 756.299C337.74 836.739 323.52 897.359 317.11 921.449C316.719 922.915 316.035 924.287 315.101 925.483C314.167 926.679 313.002 927.674 311.674 928.409C310.346 929.143 308.884 929.603 307.375 929.759C305.866 929.916 304.34 929.766 302.89 929.319V929.319Z" fill="white" stroke="#3B65EE" stroke-width="3" stroke-miterlimit="10" stroke-linecap="round"/>
<path d="M279.37 385.789L259 395.479C266.48 411.159 267 415.789 272.88 431.609C277.785 430.218 282.597 428.521 287.29 426.529C289.56 425.529 291.74 424.529 293.88 423.529C287.81 407.149 287.1 401.999 279.37 385.789Z" fill="#D1DAED"/>
<path d="M304.6 447.167C297.494 426.843 289.326 406.906 280.13 387.438L274.13 388.277L259 395.478C267.509 413.378 275.115 431.695 281.79 450.357" stroke="#3B65EE" stroke-width="3" stroke-miterlimit="10" stroke-linecap="round"/>
<path d="M246.8 555.55C305.43 583.76 329.6 655.14 329.6 655.14C329.6 655.14 258.73 680.79 200.11 652.58C141.49 624.37 117.31 552.98 117.31 552.98C117.31 552.98 188.18 527.33 246.8 555.55Z" fill="white" stroke="#3B65EE" stroke-width="3" stroke-miterlimit="10" stroke-linecap="round"/>
<g style="mix-blend-mode:multiply">
<path d="M243.31 572.747C285.5 593.047 309.84 635.747 320.18 658.027C326.18 656.387 329.6 655.137 329.6 655.137C329.6 655.137 305.43 583.757 246.8 555.547C188.17 527.337 117.31 552.997 117.31 552.997C117.31 552.997 119.21 558.617 123.24 567.317C144.44 561.497 197.6 550.747 243.31 572.747Z" fill="#D1DAED"/>
</g>
<path d="M154.09 570.68C169.09 576.98 183.89 583.62 198.64 590.4C206.04 593.75 213.37 597.23 220.73 600.65L242.73 611.11L264.63 621.76C271.89 625.38 279.19 628.94 286.42 632.62C300.92 639.93 315.36 647.36 329.62 655.14C314.62 648.86 299.82 642.21 285.07 635.44C277.67 632.08 270.35 628.6 262.98 625.18L240.98 614.71L219.09 604.06C211.82 600.44 204.53 596.88 197.3 593.2C182.8 585.9 168.36 578.47 154.09 570.68Z" fill="#3B65EE"/>
<path d="M272.21 18.5893L253 6.87934C253 6.87934 197.69 -11.9507 154.77 21.6293C138.24 34.5376 117.969 41.7346 97 42.1393C43 43.1393 11.39 93.6193 11.39 93.6193L4 114.899L16.18 148.829L182.57 214.329C187.1 219.829 189.91 222.949 189.91 222.949L192.51 218.249L197.51 220.249C197.51 220.249 197.69 216.059 197.7 208.929L284.41 52.5493L272.21 18.5893Z" fill="#D1DAED" stroke="#3B65EE" stroke-width="3" stroke-miterlimit="10" stroke-linecap="round"/>
<path d="M222.72 71.6289L156.65 118.499L75.8496 124.359C94.5196 144.359 105.26 176.639 105.26 176.639L233.26 130.639C233.26 130.639 221 98.9189 222.72 71.6289Z" fill="white" stroke="#3B65EE" stroke-width="3" stroke-miterlimit="10" stroke-linecap="round"/>
<path d="M285.67 69.4375L298.42 75.7175C298.42 75.7175 290.42 109.767 300.42 135.137C310.42 160.507 362.12 195.878 367.23 261.967C372.34 328.057 319.23 403.667 226.56 414.237C133.89 424.807 123.47 319.867 123.47 319.867L116.89 264.867C115.997 257.417 116.809 249.862 119.264 242.771C121.718 235.681 125.752 229.241 131.06 223.938L285.67 69.4375Z" fill="white" stroke="#3B65EE" stroke-width="3" stroke-miterlimit="10" stroke-linecap="round"/>
<path d="M300 133.869C290.75 108.639 298.469 75.7189 298.469 75.7189L294.729 73.8789L239 116.079L202.479 152.559C227.329 174.209 327.98 261.019 290.59 213.559C259.9 174.649 284.1 146.519 300 133.869Z" fill="#D1DAED" stroke="#D1DAED" stroke-width="3" stroke-miterlimit="10" stroke-linecap="round"/>
<path d="M285.67 69.4375L298.42 75.7175C298.42 75.7175 290.42 109.767 300.42 135.137" stroke="#3B65EE" stroke-width="3" stroke-miterlimit="10" stroke-linecap="round"/>
<path d="M344 195.45L342.56 194.93C356.97 235.73 368.96 272.28 344.07 279.65C319.18 287.02 297.56 269.92 297.56 269.92L240 412.2C324.3 396.2 372.09 324.8 367.23 261.97C365.16 235.22 355.46 213.51 344 195.45Z" fill="#D1DAED" stroke="#D1DAED" stroke-width="3" stroke-miterlimit="10" stroke-linecap="round"/>
<path d="M332.46 179C348.37 199.95 364.46 226.54 367.23 262C372.34 328.09 319.23 403.7 226.56 414.27" stroke="#3B65EE" stroke-width="3" stroke-miterlimit="10" stroke-linecap="round"/>
<path d="M123.47 319.871C123.47 319.871 116.55 278.421 152.24 222.621C187.93 166.821 255.89 151.571 290.35 94.7909C324.81 38.0109 253.42 6.71094 253.42 6.71094C253.42 6.71094 294.81 25.9109 249.42 84.2309C204.03 142.551 156.42 145.601 127.25 197.321C98.0802 249.041 123.47 319.871 123.47 319.871Z" fill="white" stroke="#3B65EE" stroke-width="3" stroke-miterlimit="10" stroke-linecap="round"/>
<path d="M26.3898 162.539L20.5498 175.539C20.5498 175.539 48.3798 196.709 56.8098 222.649C65.2398 248.589 49.8898 314.449 87.9998 368.699C126.11 422.949 204.4 451.359 282.6 400.589C360.8 349.819 310.85 252.589 310.85 252.589L280.92 205.999C276.866 199.68 271.428 194.366 265.018 190.458C258.608 186.549 251.394 184.149 243.92 183.439L26.3898 162.539Z" fill="white" stroke="#3B65EE" stroke-width="3" stroke-miterlimit="10" stroke-linecap="round"/>
<path d="M257.579 414.21C235.299 419.26 139.999 431.75 62.9395 301C65.9395 323.23 72.6695 346.92 87.9395 368.73C121.999 417.15 188.129 445 257.579 414.21Z" fill="#D1DAED" stroke="#D1DAED" stroke-width="3" stroke-miterlimit="10" stroke-linecap="round"/>
<path d="M56.8096 222.609C65.2396 248.549 49.8896 314.449 87.9896 368.699C126.09 422.949 204.4 451.359 282.6 400.589" stroke="#3B65EE" stroke-width="3" stroke-miterlimit="10" stroke-linecap="round"/>
<path d="M244 183.391L144 173.801L144.3 173.961C249.54 226.961 304.3 287.121 320.7 354.231C338.27 305.931 310.88 252.591 310.88 252.591L280.92 206.001C279.981 204.531 278.959 203.115 277.86 201.761L258.57 187.161C253.935 185.166 249.021 183.894 244 183.391Z" fill="#D1DAED" stroke="#D1DAED" stroke-width="3" stroke-miterlimit="10" stroke-linecap="round"/>
<path d="M312.25 371.37C345.25 319.57 310.85 252.59 310.85 252.59L280.92 206" stroke="#3B65EE" stroke-width="3" stroke-miterlimit="10" stroke-linecap="round"/>
<path d="M310.85 252.591C310.85 252.591 289.85 216.211 226.78 195.861C163.71 175.511 101.61 207.001 38.8998 185.071C-23.8102 163.141 11.3798 93.6211 11.3798 93.6211C11.3798 93.6211 -8.3502 134.761 63.7798 150.881C135.91 167.001 174.55 139.091 230 160.431C285.45 181.771 310.85 252.591 310.85 252.591Z" fill="white" stroke="#3B65EE" stroke-width="3" stroke-miterlimit="10" stroke-linecap="round"/>
<path d="M158.368 122.633C200.632 107.346 228.884 78.3382 221.47 57.8422C214.057 37.3463 173.785 33.1235 131.522 48.4104C89.2577 63.6973 61.0059 92.7051 68.4193 113.201C75.8327 133.697 116.104 137.92 158.368 122.633Z" fill="#D1DAED" stroke="#3B65EE" stroke-width="2.9988" stroke-miterlimit="10" stroke-linecap="round"/>
<path d="M68 104.369C76.24 82.6191 102.71 63.6991 139.84 54.6991C169.54 47.4991 191.74 53.9891 189.43 69.2091C187.58 81.3791 166.82 95.9191 143.06 101.679C124.06 106.279 109.85 102.129 111.32 92.3891C112.51 84.5991 125.79 75.2991 141 71.6091C153.16 68.6091 162.26 71.3191 161.31 77.5491C160.55 82.5491 152.05 88.4891 142.31 90.8491C134.53 92.7391 128.7 91.0391 129.31 87.0491" fill="#D1DAED"/>
<path d="M68 104.369C76.24 82.6191 102.71 63.6991 139.84 54.6991C169.54 47.4991 191.74 53.9891 189.43 69.2091C187.58 81.3791 166.82 95.9191 143.06 101.679C124.06 106.279 109.85 102.129 111.32 92.3891C112.51 84.5991 125.79 75.2991 141 71.6091C153.16 68.6091 162.26 71.3191 161.31 77.5491C160.55 82.5491 152.05 88.4891 142.31 90.8491C134.53 92.7391 128.7 91.0391 129.31 87.0491" stroke="#3B65EE" stroke-width="3" stroke-miterlimit="10" stroke-linecap="round"/>
<path d="M189.47 69.2109C189.47 69.2109 190.87 90.2109 196.24 105.211Z" fill="#D1DAED"/>
<path d="M189.47 69.2109C189.47 69.2109 190.87 90.2109 196.24 105.211" stroke="#3B65EE" stroke-width="3" stroke-miterlimit="10" stroke-linecap="round"/>
<path d="M113.359 99C113.359 99 126.999 114.73 132.999 131.54Z" fill="#D1DAED"/>
<path d="M113.359 99C113.359 99 126.999 114.73 132.999 131.54" stroke="#3B65EE" stroke-width="3" stroke-miterlimit="10" stroke-linecap="round"/>
<path d="M130.859 90.3203C130.859 90.3203 137.089 96.3203 139.309 102.49Z" fill="#D1DAED"/>
<path d="M130.859 90.3203C130.859 90.3203 137.089 96.3203 139.309 102.49" stroke="#3B65EE" stroke-width="3" stroke-miterlimit="10" stroke-linecap="round"/>
<path d="M161.35 77.5508C161.35 77.5508 163.17 87.4008 166.83 92.8208Z" fill="#D1DAED"/>
<path d="M161.35 77.5508C161.35 77.5508 163.17 87.4008 166.83 92.8208" stroke="#3B65EE" stroke-width="3" stroke-miterlimit="10" stroke-linecap="round"/>
<path d="M329.83 315.34C366 282.46 419.1 282 419.1 282C419.1 282 413.62 334.84 377.48 367.72C341.34 400.6 288.2 401.07 288.2 401.07C288.2 401.07 293.68 348.22 329.83 315.34Z" fill="white" stroke="#3B65EE" stroke-width="3" stroke-miterlimit="10" stroke-linecap="round"/>
<g style="mix-blend-mode:multiply">
<path d="M346.61 325.21C369.16 304.7 398.32 296.8 417.06 293.77C418.63 286.53 419.06 282 419.06 282C419.06 282 365.94 282.46 329.79 315.34C293.64 348.22 288.16 401.07 288.16 401.07C294.469 400.867 300.757 400.232 306.98 399.17C310.82 381.7 321 348.47 346.61 325.21Z" fill="#D1DAED"/>
</g>
<path d="M387.22 311C379.52 319.12 371.56 326.95 363.51 334.67C359.51 338.56 355.41 342.34 351.36 346.17L339.05 357.51L326.61 368.7C322.4 372.37 318.26 376.09 314 379.7C305.56 386.99 297 394.17 288.2 401.06C295.89 392.94 303.85 385.11 311.9 377.39C315.9 373.5 320.01 369.72 324.06 365.88L336.36 354.55L348.81 343.37C353.01 339.7 357.17 335.98 361.42 332.37C369.87 325.08 378.41 317.9 387.22 311Z" fill="#3B65EE"/>
<path d="M329.83 315.34C366 282.46 419.1 282 419.1 282C419.1 282 413.62 334.84 377.48 367.72C341.34 400.6 288.2 401.07 288.2 401.07C288.2 401.07 293.68 348.22 329.83 315.34Z" stroke="#3B65EE" stroke-width="3" stroke-miterlimit="10" stroke-linecap="round"/>
</svg>
