<?xml version="1.0" encoding="UTF-8"?>
<svg xmlns="http://www.w3.org/2000/svg" xmlns:xlink="http://www.w3.org/1999/xlink" viewBox="0 0 148.44 143.78">
  <defs>
    <style>
      .cls-1, .cls-2, .cls-3, .cls-4 {
        fill: none;
      }

      .cls-5 {
        fill: #3b65ef;
      }

      .cls-2 {
        stroke-linecap: round;
        stroke-linejoin: round;
      }

      .cls-2, .cls-3, .cls-6, .cls-4 {
        stroke: #3b65ef;
      }

      .cls-7 {
        mix-blend-mode: multiply;
      }

      .cls-7, .cls-8 {
        fill: #3b65ee;
        opacity: .2;
      }

      .cls-3, .cls-6 {
        stroke-width: 3px;
      }

      .cls-3, .cls-6, .cls-4 {
        stroke-miterlimit: 10;
      }

      .cls-9 {
        isolation: isolate;
      }

      .cls-6 {
        fill: #fff;
      }

      .cls-4 {
        stroke-width: 11px;
      }

      .cls-10 {
        clip-path: url(#clippath);
      }
    </style>
    <clipPath id="clippath">
      <path class="cls-1" d="M60.02,141.71s-46-2-49-42S38.29-2.6,65.02,1.71c31,5,53,62,44,104-8.49,39.6-49,36-49,36Z"/>
    </clipPath>
  </defs>
  <g class="cls-9">
    <g id="Layer_2" data-name="Layer 2">
      <g id="Layer_2-2" data-name="Layer 2">
        <g>
          <ellipse class="cls-8" cx="95.02" cy="135.71" rx="53.5" ry="7.5" transform="translate(-7.46 5.54) rotate(-3.21)"/>
          <path class="cls-6" d="M60.02,141.71s-46-2-49-42S38.29-2.6,65.02,1.71c31,5,53,62,44,104-8.49,39.6-49,36-49,36Z"/>
          <g class="cls-10">
            <g>
              <path class="cls-3" d="M27.02,21.71s15-8,22-7,6,12,16,11,10-9,17-9,6,9,22,8"/>
              <path class="cls-4" d="M15.02,39.71s14-10,25-8,10.83,13.35,20.91,11.68,8.09-10.68,18.09-9.68,12,11,29,7"/>
              <path class="cls-4" d="M4.02,110.71s14-15,25-15,12,15,26,14,11-14,23-13,5,11.35,17,10.67,7-11.67,21-8.67"/>
              <path class="cls-3" d="M17.02,131.71s10-10,21-9,14,9.15,27.5,7.07,10.8-8.22,20.15-7.15,12.43,6.97,20.39,7.52"/>
              <circle class="cls-5" cx="34.27" cy="70.96" r="2.25"/>
              <circle class="cls-5" cx="82.02" cy="68.71" r="2.5"/>
              <path class="cls-2" d="M33.52,65.21s-3.5-14.4.75-14.2-.75,14.2-.75,14.2Z"/>
              <path class="cls-2" d="M38.43,66.21s6.6-10.5,9.6-8.5-9.6,8.5-9.6,8.5Z"/>
              <path class="cls-2" d="M41.02,69.71s14,3,12,6-12-6-12-6Z"/>
              <path class="cls-2" d="M35.98,74.63s7.04,11.08,4.04,12.08-4.04-12.08-4.04-12.08Z"/>
              <path class="cls-2" d="M31.46,74.63s-5.44,13.08-9.44,11.08,9.44-11.08,9.44-11.08Z"/>
              <path class="cls-2" d="M28.64,71.21s-10.62,7.5-11.62,2.5,11.62-2.5,11.62-2.5Z"/>
              <path class="cls-2" d="M30.14,66.21s-5.5-11.7-7.81-8.1,7.81,8.1,7.81,8.1Z"/>
              <path class="cls-2" d="M81.02,63.71s-6-14.98-1.5-14.49,1.5,14.49,1.5,14.49Z"/>
              <path class="cls-2" d="M85.01,65.21s6.76-14.61,10.89-11.55-10.89,11.55-10.89,11.55Z"/>
              <path class="cls-2" d="M77.02,62.71s-5.32-11.95-7.16-9.47,7.16,9.47,7.16,9.47Z"/>
              <path class="cls-2" d="M77.02,67.86s-12-5.15-12-1.15,12,1.15,12,1.15Z"/>
              <path class="cls-2" d="M77.02,72.56s-17.81,4.28-14.41,7.71,14.41-7.71,14.41-7.71Z"/>
              <path class="cls-2" d="M81.44,73.21s-4.61,14.38-1.51,13.94,1.51-13.94,1.51-13.94Z"/>
              <path class="cls-2" d="M85.58,72.56s3.49,15.56,6.96,13.36-6.96-13.36-6.96-13.36Z"/>
              <path class="cls-2" d="M88.31,69.71s11.82,4,11.76.5-11.76-.5-11.76-.5Z"/>
            </g>
          </g>
          <path class="cls-7" d="M98.69,118.24c-13.35,19.05-39.9,22.69-54.07,11.83-12.53-9.61,17.97-13.88,29.99-33.8,12.02-19.92,9.16-56.48,20.91-43.06,14,16,13,51,3.17,65.03Z"/>
        </g>
      </g>
    </g>
  </g>
</svg>