<?xml version="1.0" encoding="UTF-8"?><svg id="Layer_1" xmlns="http://www.w3.org/2000/svg" viewBox="0 0 500 500"><defs><style>.cls-1{fill:#fff;}.cls-2{fill:#ecf0fe;}.cls-3{fill:#dee5fc;}.cls-4{fill:#89a3f5;}.cls-5{fill:#3b66ef;}</style></defs><path class="cls-1" d="m236.1,224.07c8.42,22.46-5.1,36.93-5.1,36.93,0,0-28.97-6.06-29.98-6.06,10.94-.91,25.34-16.3,34.98-30.94"/><path class="cls-1" d="m234.66,224.47c4.13,11.18,3.59,23.77-3.35,33.72-.2.29-.42.58-.63.87s.13-.16-.08.1c-.08.1-.16.2-.24.29-.14.17-.28.34-.43.49l1.46-.39c-8.65-1.81-17.3-3.63-25.98-5.33-1.42-.28-2.95-.74-4.4-.78v3c5.45-.51,10.29-3.55,14.5-6.86,5.47-4.28,10.23-9.47,14.55-14.9,2.55-3.2,4.96-6.52,7.22-9.93,1.07-1.62-1.53-3.12-2.59-1.51-4.77,7.21-10.19,14.08-16.48,20.04-2.74,2.59-5.65,5.03-8.88,6.99-2.53,1.54-5.34,2.89-8.33,3.17-1.89.18-1.96,2.94,0,3,.34,0-.47-.09-.04,0,.25.05.5.08.75.13.74.13,1.48.28,2.22.42,2.3.45,4.6.91,6.9,1.38,5.16,1.05,10.33,2.12,15.49,3.19,1.33.28,2.67.58,4,.83,1.12.21,1.67-.23,2.3-1.01,2.7-3.36,4.69-7.3,5.99-11.41,2.74-8.63,2.04-17.88-1.07-26.3-.66-1.8-3.56-1.02-2.89.8h0Z"/><path class="cls-1" d="m207.5,153c5.12-8.5,16.92-24.94,41.38-35.31,18.55-7.86,41.84-6.81,41.84-6.81-2.19,16.77-6.7,48.1-6.7,48.1,0,0-3.51-.99-3.51-.99-39.06-11.2-72.98-5-72.98-5"/><path class="cls-1" d="m208.8,153.76c5.88-9.75,13.74-18.24,23.01-24.85,6.96-4.96,14.7-9.11,22.84-11.77,7.51-2.45,15.38-3.77,23.25-4.39,4.25-.34,8.56-.55,12.82-.36l-1.5-1.5c-1.9,14.55-3.98,29.08-6.06,43.6-.2,1.37-.39,2.73-.59,4.1l1.85-1.05c-5.91-1.66-11.83-3.25-17.87-4.42-7.39-1.43-14.88-2.39-22.4-2.9-10.4-.71-20.9-.61-31.27.55-1.92.21-3.86.44-5.76.79s-1.09,3.24.8,2.89c1.57-.29,2.61-.4,4.03-.57,3.93-.47,7.88-.76,11.83-.93,13.19-.56,26.47.28,39.46,2.6,6.9,1.23,13.64,2.99,20.38,4.88.71.2,1.73-.24,1.85-1.05,1.71-11.89,3.39-23.78,5.03-35.67.59-4.27,1.17-8.55,1.73-12.83.11-.83-.78-1.47-1.5-1.5-3.59-.16-7.21-.01-10.8.21-7.93.51-15.89,1.66-23.53,3.87-15.22,4.4-29.43,13.5-40.08,25.21-3.8,4.18-7.19,8.74-10.1,13.57-1,1.66,1.59,3.17,2.59,1.51h0Z"/><path class="cls-1" d="m299.02,114.82c8.61,2.72,29.71,8.5,46.38,28.73,12.96,15.74,18.26,35.84,18.26,35.84,2.31,1.39,7.62.6,10.36.61,9.71.02,17.94.38,27.09,3.75,3.03,1.12,5.97,2.5,8.71,4.22,0,0-18.24-37.11-53.9-56.65-22.55-12.36-43.52-15.64-56.97-17.63"/><path class="cls-1" d="m298.62,116.26c6.57,2.07,13.06,4.25,19.23,7.36,9.64,4.84,18.29,11.45,25.34,19.63s12.14,17.67,15.98,27.57c1.02,2.62,1.95,5.27,2.75,7.97.16.54.26,1.24.67,1.66,1.49,1.53,4.87,1.3,6.79,1.25,6.42-.19,12.84-.32,19.23.52,7.18.95,14.27,3.21,20.43,7.04,1.35.84,2.68-.78,2.05-2.05-1.4-2.84-3.05-5.57-4.73-8.26-4.24-6.8-9.01-13.28-14.22-19.37-6.92-8.09-14.68-15.47-23.28-21.76-10.52-7.7-22.39-13.48-34.71-17.68-11.32-3.87-23.02-6.14-34.83-7.89-1.89-.28-2.7,2.61-.8,2.89,10.09,1.49,20.1,3.33,29.87,6.29,12.46,3.77,24.56,9.15,35.37,16.46,15.66,10.58,28.72,25,38.91,40.86,2.08,3.23,4.12,6.54,5.82,9.98l2.05-2.05c-7.38-4.59-15.92-6.94-24.52-7.73-4.16-.39-8.39-.53-12.56-.43-1.55.04-3.09.18-4.64.21-1.43.02-3.15.1-4.44-.62l.69.9c-.85-3.23-2.02-6.39-3.24-9.49-2.82-7.15-6.26-14.08-10.55-20.47-8.95-13.35-21.72-23.65-36.4-30.08-5.04-2.21-10.25-3.91-15.49-5.57-1.85-.58-2.64,2.31-.8,2.89h0Z"/><path class="cls-1" d="m194.5,385c1.73,5.28,4.55,14,5.84,19.4.76,3.2,2.37,10.49,3.3,13.6l16-6c-.64-2.13-1.99-8.69-2.39-10.99-.76-4.36-2.52-10.29-3.87-14.55"/><path class="cls-5" d="m193.05,385.4c1.93,5.91,3.89,11.83,5.45,17.85,1.3,5.03,2.22,10.16,3.69,15.15.21.73,1.07,1.34,1.85,1.05,5.33-2,10.67-4,16-6,.75-.28,1.29-1.01,1.05-1.85-1.03-3.49-1.69-7.14-2.34-10.72-.91-5.03-2.38-9.95-3.92-14.82-.58-1.83-3.48-1.05-2.89.8,1.55,4.87,3.01,9.79,3.92,14.82.65,3.58,1.31,7.22,2.34,10.72l1.05-1.85c-5.33,2-10.67,4-16,6l1.85,1.05c-1.47-4.99-2.38-10.12-3.69-15.15-1.56-6.02-3.52-11.94-5.45-17.85-.6-1.83-3.5-1.04-2.89.8h0Z"/><path class="cls-1" d="m162.64,377c-3,3-10.14,7-18.14,9l9,16c3.91-1.77,13.07-5.34,16.8-7.66,3.39-2.11,7-6.87,9.34-11.34"/><path class="cls-5" d="m161.57,375.94c-1.98,1.94-4.44,3.38-6.89,4.64-3.36,1.73-6.92,3.04-10.58,3.97-.95.24-1.36,1.37-.9,2.2,3,5.33,6,10.67,9,16,.43.76,1.32.87,2.05.54,4.76-2.15,9.67-3.98,14.35-6.32,5.59-2.81,9.43-7.76,12.32-13.22.9-1.7-1.68-3.22-2.59-1.51-1.55,2.93-3.41,5.74-5.7,8.15-1.78,1.88-3.8,3.13-6.1,4.26-4.51,2.21-9.22,3.98-13.8,6.05l2.05.54c-3-5.33-6-10.67-9-16l-.9,2.2c3.91-1,7.71-2.43,11.3-4.28,2.67-1.38,5.34-2.99,7.5-5.11,1.38-1.35-.74-3.48-2.12-2.12h0Z"/><path class="cls-1" d="m207.1,151.52c5.69-7.25,15.13-17.54,29.2-26.41,15.56-9.82,32.91-13.39,42.2-15.11-16.59-.14-45.02.54-73,11-19.56,7.31-36.35,19.78-47.53,27.85,7.98-1.17,21.05-3.98,33.54-1.65,5.9,1.1,11.12,2.66,15.59,4.32Z"/><path class="cls-1" d="m207.27,152.12l-.34-.13c-5.04-1.87-10.26-3.32-15.51-4.3-10.67-1.99-21.72-.21-29.78,1.09-1.29.21-2.49.4-3.6.56l-2.02.3,3.16-2.29c10.91-7.89,27.38-19.81,46.15-26.83,27.29-10.21,54.86-11.18,73.18-11.03l.09.99c-7.03,1.3-25.72,4.76-42.02,15.04-11.09,7-20.88,15.84-29.08,26.3l-.23.29Zm-26.19-6.32c3.46,0,7.01.25,10.52.91,5.19.97,10.34,2.38,15.33,4.21,8.22-10.42,18.01-19.24,29.1-26.24,13.41-8.46,28.39-12.34,37.31-14.2-18.05.11-42.97,1.74-67.67,10.98-18.54,6.93-34.87,18.72-45.73,26.58.5-.08,1.01-.16,1.54-.25,5.5-.89,12.38-1.99,19.6-1.99Z"/><path class="cls-1" d="m293.05,113.05c7.89,2.21,28.22,8.92,43.09,23.2,14.32,13.75,21.73,31.04,24.36,38.75-7.73-4.16-23.41-10.34-37.62-13.34-14.8-3.13-27.52-2.99-36.46-2.21,2.58-14.73,4.05-31.67,6.63-46.4Z"/><path class="cls-1" d="m361.38,176.04l-1.12-.6c-7.95-4.28-23.78-10.4-37.48-13.29-11.94-2.52-24.15-3.26-36.31-2.2l-.65.06.11-.64c1.29-7.35,2.32-15.4,3.31-23.18,1-7.79,2.03-15.85,3.32-23.22l.09-.54.53.15c8.08,2.26,28.46,9.07,43.3,23.32,15.47,14.86,22.65,33.57,24.49,38.95l.41,1.21Zm-64.13-17.57c8.64,0,17.26.9,25.74,2.69,13.32,2.82,28.17,8.44,36.62,12.8-2.35-6.51-9.5-23.6-23.81-37.36-14.36-13.79-34.01-20.54-42.34-22.93-1.24,7.2-2.25,15.04-3.22,22.63-.97,7.57-1.97,15.38-3.21,22.58,3.41-.28,6.81-.42,10.22-.42Z"/><path class="cls-4" d="m409.69,188.68c-4.33.56-8.66,1.12-13,1.68-6.36-1.33-13.43-2.46-21.15-3.16-12.89-1.15-24.42-.8-34.14.15h0c-24.31-4.48-26.03-4.76-26.03-4.76-10.32-1.69-25.49-3.11-45.52-1.42-7.39-2.32-15.55-4.53-24.41-6.39-11.79-2.48-22.73-3.93-32.53-4.73-4.61-2.75-10.6-5.73-17.92-8.05-11.39-3.61-21.46-4.15-28.46-3.94-2.72-2.7-5.44-5.39-8.16-8.09l1.78-.7s15.11-7.96,47.75,4.72c0,0,34.18-5.21,73.24,6,0,0,3.25-.01,3.25-.01,12.92-.06,26.52,1.24,39.3,3.72,6.25,1.21,12.67,2.94,18.73,5.22,5.84,2.21,13.56,5.37,17.85,7.95,2.31,1.39,7.62.6,10.36.61,9.71.02,17.94.38,27.09,3.75,3.03,1.12,5.97,2.5,8.71,4.22"/><path class="cls-5" d="m409.69,187.18c-2.65.34-5.3.69-7.94,1.03-1.2.16-2.41.31-3.61.47-1.4.18-2.56-.07-3.93-.34-4.73-.91-9.51-1.64-14.3-2.18-9.97-1.14-20.04-1.44-30.06-.92-2.19.11-4.37.27-6.55.46-1.13.1-2.06.13-3.18-.08-1.26-.23-2.53-.47-3.79-.7-3.63-.67-7.26-1.33-10.89-2-2.99-.55-5.98-1.1-8.97-1.63-10.84-1.93-21.95-2.54-32.94-2.32-2.52.05-5.05.15-7.57.29-1.21.07-2.42.15-3.62.23-.65.05-1.32.15-1.98.15-.73,0-1.45-.32-2.14-.54-4.67-1.43-9.39-2.72-14.13-3.89-10-2.45-20.13-4.29-30.35-5.55-2.36-.29-4.73-.55-7.1-.78-1-.1-2.13-.05-3.11-.28-.59-.14-1.58-.85-2.28-1.23-3.95-2.18-8.07-4.05-12.31-5.6-8.74-3.2-18.01-4.93-27.31-5.2-1.7-.05-3.4-.04-5.1,0l1.06.44c-2.72-2.7-5.44-5.39-8.16-8.09l-.66,2.51c.73-.29,1.46-.56,2.18-.87.07-.03.13-.06.2-.09.46-.21-.27.1.11-.05,1.16-.44,2.34-.81,3.55-1.09,5.31-1.24,10.94-1.22,16.42-.66,4.36.44,8.67,1.3,12.91,2.41,2.67.7,5.31,1.5,7.92,2.39,1.36.46,2.71.95,4.05,1.45.82.31,1.37.55,2.24.53.1,0,.2-.03.29-.04.32-.04-.41.05-.09.01.14-.02.27-.04.41-.05.69-.09,1.38-.16,2.06-.23,2.39-.25,4.79-.43,7.19-.56,19.27-1.05,38.8.75,57.5,5.52,2.08.53,4.19,1.42,6.35,1.41,1.72,0,3.43-.02,5.15,0,6.04.06,12.08.41,18.09,1.02,11.83,1.19,23.72,3.21,34.95,7.2,4.9,1.74,9.75,3.71,14.45,5.93,1.92.91,3.77,2.21,5.75,2.95s4.09.64,6.09.56c10.63-.42,21.38-.09,31.43,3.76,2.69,1.03,5.26,2.31,7.7,3.82,1.64,1.02,3.15-1.57,1.51-2.59-9.76-6.07-21.1-7.92-32.41-8.13-2.4-.04-4.79-.03-7.18.09-1.95.1-4.36.42-6.21-.36-.8-.34-1.56-.88-2.33-1.29-1.11-.58-2.23-1.13-3.37-1.66-2.38-1.11-4.8-2.14-7.23-3.13-5.25-2.14-10.57-4.07-16.06-5.53-5.8-1.54-11.71-2.62-17.65-3.48-10.76-1.56-21.58-2.23-32.45-2.18-2.18,0-4.37-.95-6.49-1.48-2.95-.74-5.92-1.4-8.9-1.99-5.54-1.09-11.14-1.93-16.75-2.55-9.03-.98-18.12-1.36-27.2-1.1-4.71.13-9.43.41-14.11,1-.4.05-.88.22-1.28.17-.02,0-.04.01-.05,0,.82.15-.2-.38-.37-.45-.38-.14-.77-.29-1.15-.43-1.4-.52-2.81-1.01-4.23-1.48-4.83-1.59-9.76-2.89-14.77-3.75-6.6-1.13-13.37-1.57-20.02-.58-2.56.38-5.15.98-7.51,2.08-.28.13.56-.21.09-.04-.53.19-1.05.41-1.58.62-1.01.4-1.53,1.65-.66,2.51,2.01,1.99,4.02,3.99,6.03,5.98.75.75,1.74,2.2,2.79,2.5.84.24,1.97.02,2.84.01,4.22,0,8.44.28,12.61.91,9.8,1.47,19.31,4.66,27.99,9.44.82.45,1.61.95,2.43,1.39.96.51,2.3.41,3.38.5,2.42.22,4.84.47,7.26.76,5.23.62,10.44,1.42,15.62,2.37,10.33,1.89,20.55,4.41,30.58,7.54,1.29.4,2.65.11,3.97.01s2.72-.18,4.08-.25c2.57-.13,5.15-.22,7.72-.26,4.5-.06,9.01.02,13.5.28,5.66.33,11.32.89,16.91,1.84,1.67.28,3.33.6,4.99.9,2.62.48,5.24.96,7.86,1.44,2,.37,4,.73,6,1.1,1.12.21,2.25.41,3.37.62,1.33.25,2.79.73,4.15.74,2.17.03,4.43-.39,6.61-.53,2.36-.15,4.73-.25,7.1-.3,5.18-.12,10.37-.02,15.55.31s10.71.9,16.02,1.72c2.46.38,4.91.81,7.35,1.29,1.13.22,2.23.57,3.38.42,1.36-.18,2.73-.35,4.09-.53,2.73-.35,5.46-.71,8.18-1.06,1.89-.24,1.91-3.25,0-3h0Z"/><path class="cls-5" d="m415.89,194.41c-7.27-14.62-16.62-28.25-27.89-40.08-16.45-17.27-36.97-30.22-59.68-37.53-9.64-3.1-19.55-5.13-29.55-6.65-7.75-1.18-15.51-2.2-23.33-2.65-24.33-1.39-48.89,2.4-71.56,11.4-17.71,7.03-34.15,17.03-48.67,29.37-1.21,1.03-2.41,2.07-3.59,3.13-1.44,1.29.69,3.41,2.12,2.12,13.05-11.68,27.83-21.43,43.79-28.68,22.13-10.06,46.4-14.99,70.7-14.6,8.36.14,16.69.91,24.96,2.1,8.82,1.27,17.62,2.73,26.25,5,23.04,6.05,44.23,17.68,61.48,34.15,12.3,11.74,22.48,25.59,30.42,40.62.67,1.27,1.32,2.55,1.96,3.83.86,1.73,3.45.21,2.59-1.51h0Z"/><path class="cls-5" d="m206.84,158.66c4.98-8.73,11.4-16.63,18.91-23.32,12.74-11.35,28.65-18.75,45.52-21.29,7.22-1.09,14.59-1.23,21.85-.56,1.92.18,1.91-2.82,0-3-15.81-1.46-31.88,1.16-46.37,7.67-13.44,6.04-25.27,15.48-34.39,27.02-2.99,3.78-5.72,7.77-8.11,11.96-.96,1.68,1.63,3.19,2.59,1.51h0Z"/><path class="cls-5" d="m364.66,181.7c-1.29-5.77-3.44-11.36-5.9-16.73-3.52-7.69-7.93-14.99-13.08-21.71-9.22-12.03-21.15-21.29-35.09-27.24-4.75-2.03-9.63-3.61-14.55-5.16-1.85-.58-2.64,2.31-.8,2.89,4.07,1.28,8.14,2.56,12.1,4.15,5.76,2.3,11.29,5.18,16.45,8.63,13.65,9.14,23.89,22.59,31.09,37.23,2.93,5.96,5.43,12.24,6.89,18.74.42,1.88,3.31,1.09,2.89-.8h0Z"/><path class="cls-5" d="m232.88,304.67c1.75,7.9,7.54,13.94,14.35,15.08,9.27,1.56,19.79-6.1,21.29-18.14,1.28-10.44,2.56-20.89,3.84-31.33-1.67-.4-3.33-.8-5-1.2-1.28,10.44-2.56,20.89-3.84,31.33-1.06,6.62-5.01,13.45-11.85,14.07-6.31.57-12.36-3.75-13.93-10.23l-4.86.42"/><path class="cls-5" d="m231.44,305.07c2.36,10.26,11.88,18.7,22.78,15.77,4.74-1.27,8.82-4.38,11.66-8.34,1.56-2.17,2.72-4.65,3.43-7.22.88-3.16,1.06-6.54,1.45-9.78,1.03-8.4,2.06-16.81,3.09-25.21.08-.63-.52-1.31-1.1-1.45-1.67-.4-3.33-.8-5-1.2-1.04-.25-1.78.47-1.9,1.45-.65,5.3-1.3,10.61-1.95,15.91-.32,2.61-.64,5.22-.96,7.83s-.51,5.29-1,7.87c-.66,3.55-2.14,7.16-4.81,9.68s-6.43,3.22-9.93,2.13c-4.03-1.25-6.99-4.62-8.02-8.66-.15-.59-.81-1.16-1.45-1.1l-4.86.42c-1.91.16-1.93,3.17,0,3l4.86-.42-1.45-1.1c2.13,8.35,11.71,14.14,19.86,10.07,9.16-4.57,9.15-16.64,10.21-25.32.83-6.77,1.66-13.54,2.49-20.31l-1.9,1.45c1.67.4,3.33.8,5,1.2l-1.1-1.45c-.83,6.77-1.66,13.54-2.49,20.31-.41,3.34-.82,6.69-1.23,10.03-.32,2.58-.91,5.11-2.09,7.44-3.74,7.45-12.93,13.05-21.12,9.07-5.09-2.47-8.36-7.47-9.6-12.88-.43-1.88-3.33-1.08-2.89.8h0Z"/><path class="cls-5" d="m272.01,269.58c2.78-21.24,5.55-42.47,8.33-63.71,2.76-21.15,5.53-42.31,8.29-63.46,1.57-11.98,3.13-23.96,4.7-35.94.11-.82-.78-1.52-1.53-1.53-.91,0-1.42.71-1.53,1.53-2.78,21.24-5.55,42.47-8.33,63.71-2.76,21.15-5.53,42.31-8.29,63.46-1.57,11.98-3.13,23.96-4.7,35.94-.11.82.78,1.52,1.53,1.53.91,0,1.42-.71,1.53-1.53h0Z"/><path class="cls-5" d="m214.22,171.17c-.13.6-.34,1.18-.57,1.75l.15-.36c-.52,1.23-1.16,2.4-1.58,3.67-.25.75.28,1.67,1.05,1.85.83.19,1.58-.25,1.85-1.05.11-.33.24-.66.37-.99l-.15.36c.62-1.46,1.44-2.87,1.78-4.44.17-.76-.23-1.66-1.05-1.85-.76-.17-1.67.23-1.85,1.05h0Z"/><path class="cls-5" d="m166.7,158.92c-1.23,1.26-1.86,2.91-2.92,4.3l.23-.3c-.11.14-.22.27-.33.4-.26.3-.44.65-.44,1.06,0,.37.16.81.44,1.06.57.52,1.57.63,2.12,0,.58-.67,1.07-1.4,1.51-2.16.38-.66.75-1.33,1.22-1.93l-.23.3c.16-.21.34-.41.52-.6.55-.56.6-1.57,0-2.12s-1.54-.6-2.12,0h0Z"/><path class="cls-5" d="m269.48,183.45c-.02.32-.05.64-.09.96l.05-.4c-.19,1.39-.57,2.75-.62,4.16-.03.78.71,1.54,1.5,1.5.84-.04,1.47-.66,1.5-1.5.01-.32.04-.64.08-.96l-.05.4c.19-1.39.56-2.76.63-4.16.04-.78-.72-1.54-1.5-1.5-.84.04-1.46.66-1.5,1.5h0Z"/><path class="cls-5" d="m341.84,190.62c.43.76.82,1.53,1.17,2.33l-.15-.36c.37.88.68,1.78.88,2.71.17.77,1.1,1.29,1.85,1.05.81-.26,1.23-1.02,1.05-1.85-.41-1.9-1.24-3.72-2.2-5.4-.39-.68-1.38-.97-2.05-.54s-.95,1.32-.54,2.05h0Z"/><path class="cls-4" d="m141.9,380.75l-38.99,17.1c-.59.26-.91.9-.77,1.52,1.59,6.84,10.75,45.83,22.21,45.83,12.63,0,8.42-27.26,8.42-27.26l23.86-9.82-14.74-27.37Z"/><path class="cls-5" d="m141.15,379.45c-7.22,3.17-14.44,6.33-21.66,9.5-4.48,1.97-8.96,3.93-13.45,5.9-1.16.51-2.32,1-3.47,1.52-1.78.81-2.11,2.37-1.69,4.17,2.45,10.41,5.34,20.84,9.61,30.66,2.02,4.64,4.45,9.88,8.42,13.2,1.52,1.27,3.28,2.22,5.3,2.29,2.33.08,4.62-.85,6.25-2.5,3.48-3.51,4.18-9.18,4.41-13.87.2-3.93-.01-7.89-.52-11.79-.04-.33-.09-.67-.14-1l-1.05,1.85c6.97-2.87,13.95-5.74,20.92-8.61.98-.4,1.96-.81,2.94-1.21.91-.37,1.4-1.27.9-2.2-4.31-8-8.61-16-12.92-24l-1.81-3.37c-.92-1.7-3.51-.19-2.59,1.51,4.31,8,8.61,16,12.92,24,.6,1.12,1.21,2.25,1.81,3.37l.9-2.2c-6.97,2.87-13.95,5.74-20.92,8.61-.98.4-1.96.81-2.94,1.21-.82.34-1.18.96-1.05,1.85,0,.05.02.1.02.16.07.51-.03-.27.02.16.07.6.15,1.2.21,1.81.19,1.93.32,3.87.35,5.81.09,4.46-.01,9.54-2.08,13.61-.83,1.63-2.01,3.04-3.7,3.55s-2.99.28-4.36-.6c-3.62-2.3-5.98-7.22-7.8-11.1-4.5-9.64-7.37-20.1-9.85-30.41-.15-.61-.47-1.37-.47-2,0-.38-.11-.11.2-.28.89-.5,1.92-.84,2.85-1.25l12.13-5.32c7.78-3.41,15.69-6.61,23.36-10.25.14-.07.29-.13.44-.19,1.76-.77.24-3.36-1.51-2.59Z"/><path class="cls-4" d="m197.53,419.67l10.47,43.34c.15.58.68.97,1.28.94,6.8-.43,45.07-3.35,46.96-14.7,2.08-12.46-23.53-12.46-23.53-12.46l-5.76-27.15-29.42,10.03Z"/><path class="cls-5" d="m196.08,420.06c1.8,7.47,3.61,14.93,5.41,22.4l3.62,14.97,1.11,4.61c.28,1.18.45,2.37,1.63,3.05,1.36.79,3.82.19,5.32.06,2.33-.2,4.65-.43,6.97-.7,6-.7,12.01-1.6,17.89-2.99,5.16-1.22,10.74-2.73,15.14-5.81,1.63-1.15,3.17-2.55,3.99-4.4.95-2.13.9-4.68-.03-6.81-1.97-4.53-7.37-6.53-11.82-7.62-3.88-.95-7.92-1.41-11.91-1.52-.24,0-.47-.01-.71-.01l1.45,1.1c-1.68-7.91-3.36-15.83-5.04-23.74-.24-1.14-.48-2.27-.72-3.41-.16-.76-1.11-1.3-1.85-1.05-8.6,2.93-17.2,5.86-25.8,8.8-1.21.41-2.42.82-3.62,1.24-1.82.62-1.04,3.52.8,2.89,8.6-2.93,17.2-5.86,25.8-8.8,1.21-.41,2.42-.82,3.62-1.24l-1.85-1.05c1.68,7.91,3.36,15.83,5.04,23.74.24,1.14.48,2.27.72,3.41.14.64.82,1.1,1.45,1.1,2.66,0,5.35.25,7.98.66,4.2.66,9.31,1.67,12.42,4.83,1.34,1.36,1.98,3.1,1.69,5.04-.23,1.53-1.09,2.57-2.36,3.65-3.56,3.03-8.78,4.47-13.26,5.63-9.49,2.46-19.35,3.63-29.12,4.3-.22.02-.57.11-.78.05.07.02.22.28.14.07-.1-.28-.14-.59-.21-.88l-.96-3.99c-1.1-4.56-2.2-9.12-3.3-13.68-1.95-8.08-3.73-16.22-5.86-24.25-.04-.15-.07-.3-.11-.45-.45-1.88-3.35-1.08-2.89.8Z"/><path class="cls-2" d="m202.15,255.95c1.4,0,42.1,8.42,42.1,8.42,0,0-7.02,14.03-14.03,18.24l7.02,102.45s-74.38,7.02-109.47-29.47c0,0,29.47-58.94,56.14-82.8,0,0-32.28-11.23-30.88-43.51.64-14.66,6.26-28.29,17.58-38,10.87-9.33,27.22-14.68,41.44-11.49,14.52,3.26,26.12,14.25,35.01,25.63,0,0-3.44,6.03-8.64,13.92-9.64,14.64-25.32,35.69-36.27,36.6"/><path class="cls-5" d="m202.15,257.45c.48.01-.38-.08.13.01.36.07.73.12,1.1.19,1.1.2,2.2.41,3.29.62,3.35.65,6.69,1.32,10.03,1.99,7.37,1.49,14.73,2.99,22.1,4.51,1.69.35,3.37.69,5.06,1.04l-.9-2.2c-1.26,2.51-2.7,4.94-4.22,7.29-2.47,3.81-5.34,8-9.28,10.42-.43.26-.78.77-.74,1.3.23,3.4.47,6.8.7,10.2.56,8.16,1.12,16.32,1.68,24.48.67,9.83,1.35,19.66,2.02,29.49l1.75,25.62.58,8.48c.09,1.28,0,2.73.27,3.99.01.06,0,.12.01.18l1.5-1.5c-8.91.84-17.98.69-26.9.22-18.38-.97-37.05-4.02-54.11-11.16-10.16-4.25-19.72-10.14-27.4-18.09l.23,1.82c3.6-7.19,7.49-14.23,11.47-21.21,8.16-14.31,16.89-28.37,26.83-41.52,5.32-7.03,11.03-13.87,17.6-19.77.9-.8.34-2.16-.66-2.51-.34-.12-.67-.26-1.01-.39-.08-.03-.16-.07-.25-.1-.32-.13.26.11,0,0-.22-.1-.45-.19-.67-.29-.52-.23-1.04-.48-1.56-.73-3.08-1.5-6.02-3.28-8.77-5.31-7.9-5.81-14.06-13.94-16.43-23.55-1.62-6.59-1.39-13.55-.12-20.17,1.39-7.25,4.21-14.17,8.51-20.17,8.81-12.29,24.01-20.17,39.14-20.26,16-.1,29.23,10.09,39.22,21.69,1.24,1.44,2.45,2.92,3.62,4.42l-.23-1.82c-4.21,7.35-8.86,14.48-13.74,21.4-5.75,8.14-11.95,16.36-19.59,22.85-2.85,2.42-6.42,5.17-10.29,5.53-1.91.18-1.92,3.18,0,3,3.74-.35,7.09-2.29,10.04-4.52,3.88-2.93,7.3-6.41,10.5-10.04,7.2-8.18,13.48-17.19,19.34-26.37,2.17-3.4,4.31-6.83,6.32-10.34.37-.64.19-1.28-.23-1.82-9.79-12.5-22.76-24.43-39.13-26.62-15.73-2.1-32.54,4.69-43.3,16.16-5.33,5.68-9.23,12.56-11.55,19.99s-3.22,14.88-2.4,22.29c1.25,11.17,6.97,21.08,15.47,28.32,3.09,2.63,6.45,4.93,10.02,6.86,1.87,1.01,3.92,2.19,5.98,2.77.09.03.19.07.28.1l-.66-2.51c-5.85,5.26-11.01,11.27-15.84,17.46-5.29,6.78-10.2,13.85-14.88,21.06-7.79,12.01-14.99,24.41-21.73,37.04-1.33,2.5-2.66,5-3.93,7.54-.31.61-.25,1.32.23,1.82,13.96,14.45,33.51,22.12,52.84,26.21,15.74,3.33,31.96,4.56,48.03,4.18,3.22-.07,6.45-.18,9.66-.48.76-.07,1.56-.63,1.5-1.5-.23-3.4-.47-6.8-.7-10.2-.56-8.16-1.12-16.32-1.68-24.48-.67-9.83-1.35-19.66-2.02-29.49l-1.75-25.62c-.19-2.83-.39-5.65-.58-8.48-.09-1.27,0-2.74-.27-3.99-.01-.06,0-.12-.01-.18l-.74,1.3c4.23-2.6,7.34-6.91,10.02-10.98,1.65-2.51,3.21-5.11,4.55-7.8.41-.81.11-2-.9-2.2-12.16-2.52-24.31-5.04-36.5-7.41-1.93-.38-4.02-1.02-6-1.06s-1.93,2.96,0,3h0Z"/><path class="cls-5" d="m234.08,261.22c1.61-1.92,2.82-4.22,3.8-6.51,2.35-5.49,3.32-11.52,2.86-17.47-.36-4.7-1.53-9.27-3.29-13.63-.71-1.77-3.62-1-2.89.8,4.29,10.62,4.77,22.98-1.42,32.98-.31.5-.64.98-.98,1.46-.38.53.11-.11-.2.26-1.24,1.47.88,3.6,2.12,2.12h0Z"/><path class="cls-5" d="m231.32,268.04c-4.35,5.11-11.71,6.74-18.15,6.86-1.96.04-3.92.07-5.88.07-1.26,0-2.52-.01-3.77-.1-.34-.02-.89-.07-1.07-.1-.12-.02-.38-.14-.49-.11-.15.05.13.01.24.18-.22-.34-.15.29-.11.37-.03-.06.06-.09.15-.14.41-.22.84-.37,1.3-.44.69-.11,2.08-.19,2.52.48v-1.51c-.1.13-.67.05-.81.06-1.93.04-1.93,3.04,0,3,1.51-.03,2.46-.32,3.4-1.54.3-.4.26-1.11,0-1.51-1.61-2.47-5.58-2.55-7.93-1.12-1.18.72-1.87,2.03-1.35,3.38.48,1.25,1.49,1.69,2.73,1.86,2.88.4,5.85.26,8.75.2,3.41-.07,6.77-.21,10.11-.96,4.66-1.05,9.34-3.12,12.49-6.82,1.25-1.46-.87-3.59-2.12-2.12h0Z"/><path class="cls-5" d="m223.47,289.52c3.86,0,3.87-6,0-6s-3.87,6,0,6h0Z"/><path class="cls-5" d="m225.49,343.8c3.86,0,3.87-6,0-6s-3.87,6,0,6h0Z"/><path class="cls-5" d="m226.71,370.12c3.86,0,3.87-6,0-6s-3.87,6,0,6h0Z"/><path class="cls-4" d="m216.18,349.98l-7.02-5.61s-12.63,15.44-19.65,19.65l7.02,7.02s12.63-9.82,19.65-21.05Z"/><path class="cls-5" d="m217.24,348.92c-2.34-1.87-4.68-3.74-7.02-5.61-.58-.47-1.56-.68-2.12,0-2.28,2.78-4.66,5.49-7.09,8.14-3.68,4.01-7.56,8.42-12.25,11.28-.82.5-1,1.66-.3,2.36,2.34,2.34,4.68,4.68,7.02,7.02.62.62,1.48.5,2.12,0,7.6-5.92,14.74-13.2,19.88-21.36,1.03-1.64-1.56-3.14-2.59-1.51-5.01,7.94-12.02,14.99-19.41,20.75h2.12c-2.34-2.34-4.68-4.68-7.02-7.02l-.3,2.36c4.83-2.94,8.86-7.4,12.66-11.53,2.5-2.72,4.95-5.5,7.29-8.36h-2.12c2.34,1.87,4.68,3.74,7.02,5.61,1.49,1.19,3.63-.91,2.12-2.12Z"/><path class="cls-3" d="m278.52,75.88c-1.3,2.81-4.65,4.03-7.49,2.71s-4.08-4.66-2.78-7.47,10.43-9.08,10.43-9.08c0,0,1.13,11.02-.17,13.84Z"/><path class="cls-3" d="m360.27,97.74c-2.83-1.31-4.08-4.66-2.78-7.47s10.43-9.08,10.43-9.08c0,0,1.13,11.02-.17,13.84s-4.65,4.03-7.49,2.71"/><path class="cls-3" d="m342.53,58.72c-1.3,2.81-4.65,4.03-7.49,2.71s-4.08-4.66-2.78-7.47c1.3-2.81,10.43-9.08,10.43-9.08,0,0,1.13,11.02-.17,13.84Z"/><path class="cls-3" d="m230.65,80.19c-1.3,2.81-4.65,4.03-7.49,2.71s-4.08-4.66-2.78-7.47c1.3-2.81,10.43-9.08,10.43-9.08,0,0,1.13,11.02-.17,13.84Z"/><path class="cls-3" d="m312.42,92.99c-1.3,2.81-4.65,4.03-7.49,2.71-2.83-1.31-4.08-4.66-2.78-7.47s10.43-9.08,10.43-9.08c0,0,1.13,11.02-.17,13.84Z"/><path class="cls-1" d="m266.62,306.77c-1.33.15-3.04.06-4.21-.75-1.46-1.02-2.96-2.11-4.21-3.4-.95-.97-1.66-2.11-2.57-3.1-.72-.78-1.82-1.38-2.05-2.48-.19-.95.67-3.58.67-3.58-.24-5.59,6.26-11.46,8.4-10.47.49,1.94.16,4.06-.98,5.69.31-.53.92-1.08,1.4-1.61.29-.31,7.12-3.34,7.45-3.07,3.85,3.17,3.65,7.07,4,13,.3,5.19-4.37,8.21-9.39,9.66"/><path class="cls-5" d="m266.62,305.27c-.83.08-1.69.12-2.5-.11s-1.47-.79-2.14-1.28c-1.53-1.12-2.86-2.37-4.03-3.86-.48-.61-.94-1.24-1.5-1.79-.35-.35-1.24-.88-1.41-1.36-.26-.78.38-2.05.57-2.81.26-1.05.16-2.12.52-3.18.4-1.22,1.09-2.37,1.88-3.37.72-.91,1.57-1.78,2.53-2.42.37-.24.74-.48,1.16-.62.01,0,.49-.1.25-.08.24-.02-.07-.08.27.05l-1.05-1.05c.36,1.62.08,3.15-.83,4.54-1.07,1.62,1.53,3.12,2.59,1.51.19-.28.42-.52.65-.77.18-.19.8-.66.27-.35.23-.13.46-.25.7-.37.78-.39,1.59-.74,2.39-1.09s1.65-.71,2.5-1.02c.32-.12.66-.21.98-.33.22-.08.24.03.12-.04-.05-.03-.87-.08-.87-.19,0,.08.4.37.47.43,1.77,1.74,2.34,4.07,2.55,6.47.13,1.47.19,2.95.27,4.43.07,1.36-.05,2.59-.75,3.79-1.55,2.65-4.71,3.99-7.52,4.81-1.85.55-1.06,3.44.8,2.89,3.2-.95,6.48-2.45,8.58-5.15,2.35-3.01,1.94-6.54,1.68-10.13-.23-3.16-.82-6.23-2.97-8.69-.86-.98-1.73-1.87-3.1-1.54-.95.23-1.88.67-2.78,1.04-2.56,1.07-4.96,1.87-6.56,4.28l2.59,1.51c1.3-1.97,2.91-8.34-1.14-8.04-2.63.19-4.96,2.68-6.43,4.65-.95,1.26-1.71,2.67-2.18,4.18-.24.76-.38,1.54-.44,2.33-.05.58.02.52-.15,1.12-.35,1.22-.78,2.66-.43,3.92.48,1.72,2.35,2.87,3.41,4.23,1.42,1.82,3.02,3.29,4.88,4.65s3.75,2.02,6.15,1.8c1.91-.18,1.92-3.18,0-3h0Z"/><path class="cls-2" d="m251.27,293.84s14.56,14.95,17.37,19.16c0,0-11.35,16-31,16s-34.69-8.66-41-24c-6.73-16.35.58-21.49,7-20.76,4.21.48,8.06,2.55,11.03,5.57,6.25,6.36,22.29,19.44,36.6,4.03Z"/><path class="cls-5" d="m250.21,294.9c2.54,2.61,5.05,5.24,7.54,7.9,3.26,3.48,7,7.11,9.6,10.96v-1.51c-.09.13-.42.55-.09.13-.27.35-.55.69-.84,1.03-1.02,1.2-2.11,2.33-3.25,3.4-3.57,3.36-7.73,6.17-12.27,8.04-6.21,2.56-12.75,3.01-19.38,2.36-6.28-.61-12.53-2.33-18.05-5.43-5.07-2.84-9.43-6.85-12.54-11.76-1.79-2.82-3.16-5.88-4.16-9.07-.9-2.86-1.61-6-1.18-9.02.49-3.5,2.92-6.03,6.28-6.24,2.93-.18,5.93.92,8.38,2.45,2.28,1.42,4.02,3.47,6.02,5.24,4.04,3.58,8.68,6.69,13.89,8.24,6.14,1.82,12.61.86,17.84-2.89,1.58-1.13,3.01-2.42,4.34-3.83s-.79-3.53-2.12-2.12c-2.61,2.77-5.7,5.12-9.4,6.17-2.89.82-5.92.78-8.82.06-5.37-1.32-10.13-4.57-14.17-8.25-2.28-2.08-4.33-4.31-7.09-5.8s-5.83-2.46-8.88-2.27c-4.15.26-7.55,2.82-8.8,6.82-1.93,6.16.76,13.47,3.53,18.94s6.93,10.22,11.97,13.77c5.29,3.74,11.51,6.1,17.85,7.27,6.93,1.28,14.25,1.56,21.09-.32,8.58-2.36,16.61-7.83,22.05-14.89.13-.18.27-.35.4-.53.29-.41.28-1.11,0-1.51-2.78-4.12-6.49-7.74-9.88-11.36-2.55-2.73-5.12-5.43-7.73-8.1-1.35-1.39-3.47.74-2.12,2.12Z"/></svg>