<svg width="137" height="87" viewBox="0 0 137 87" fill="none" xmlns="http://www.w3.org/2000/svg">
<g clip-path="url(#clip0_9_529)">
<path d="M135.44 34.01L51.8699 8.13C51.8699 8.13 17.8399 11.15 10.8099 34.01H135.44Z" fill="white" stroke="#3B65EE" stroke-width="1.43" stroke-linecap="round" stroke-linejoin="round"/>
<path d="M51.87 8.13C51.87 8.13 46.39 -1.94 38.78 1.39C38.78 1.39 17.35 2.3 12.83 16.13C12.83 16.13 -1.19002 17.75 0.939985 31.95C0.939985 31.95 2.44998 46.63 12.76 44.48L10.82 34C10.82 34 15.92 12.02 51.87 8.13Z" fill="white" stroke="#3B65EE" stroke-width="1.43" stroke-linecap="round" stroke-linejoin="round"/>
<path d="M8.87997 32.47C6.78997 32.41 5.53997 31.82 3.58997 32.47C4.18997 30 7.94997 30.45 8.87997 32.47Z" fill="#3B65EE"/>
<path d="M135.44 34.01L135.2 70.89L23.4099 85.62C23.4099 85.62 20.5899 85.27 19.9199 83.09C19.2499 80.91 10.8099 34.01 10.8099 34.01H135.44Z" fill="white" stroke="#3B65EE" stroke-width="1.43" stroke-linecap="round" stroke-linejoin="round"/>
<path d="M135.4 39.28L12.7499 44.48L10.8099 34.01H135.44L135.4 39.28Z" fill="white" stroke="#3B65EE" stroke-width="1.43" stroke-linecap="round" stroke-linejoin="round"/>
<path opacity="0.2" d="M135.44 34.01L135.2 70.89L23.4099 85.62C23.4099 85.62 20.5899 85.27 19.9199 83.09C19.2499 80.91 10.8099 34.01 10.8099 34.01H135.44Z" fill="#3B65EE"/>
<path opacity="0.2" d="M49.01 4.32C49.01 4.32 42.97 2.25 41.47 4.32C39.97 6.39 18.06 8.29 15.68 17.34C15.68 17.34 6.79001 23.2 6.24001 31.46C6.24001 31.46 0.640014 31.41 1.97001 36.52C3.30001 41.63 8.40001 45.91 12.75 44.48L10.81 34C10.81 34 11.87 14.83 49.01 8.47L51.87 8.13C51.87 8.13 49.01 4.16 49.01 4.32Z" fill="#3B65EE"/>
<path d="M107.82 56.86C108.477 56.86 109.01 56.3272 109.01 55.67C109.01 55.0128 108.477 54.48 107.82 54.48C107.163 54.48 106.63 55.0128 106.63 55.67C106.63 56.3272 107.163 56.86 107.82 56.86Z" fill="#3B65EE"/>
<path d="M79.72 51.15C80.3773 51.15 80.91 50.6172 80.91 49.96C80.91 49.3028 80.3773 48.77 79.72 48.77C79.0628 48.77 78.53 49.3028 78.53 49.96C78.53 50.6172 79.0628 51.15 79.72 51.15Z" fill="#3B65EE"/>
<path d="M90.68 63.05C91.3372 63.05 91.87 62.5172 91.87 61.86C91.87 61.2028 91.3372 60.67 90.68 60.67C90.0228 60.67 89.49 61.2028 89.49 61.86C89.49 62.5172 90.0228 63.05 90.68 63.05Z" fill="#3B65EE"/>
<path opacity="0.2" d="M57.9399 26.57C62.1539 26.57 65.5699 26.0014 65.5699 25.3C65.5699 24.5986 62.1539 24.03 57.9399 24.03C53.726 24.03 50.3099 24.5986 50.3099 25.3C50.3099 26.0014 53.726 26.57 57.9399 26.57Z" fill="#3B65EE"/>
<path d="M58.76 25.04C61.6153 25.04 63.93 22.7253 63.93 19.87C63.93 17.0147 61.6153 14.7 58.76 14.7C55.9047 14.7 53.59 17.0147 53.59 19.87C53.59 22.7253 55.9047 25.04 58.76 25.04Z" fill="white" stroke="#3B65EE" stroke-width="0.85" stroke-linecap="round" stroke-linejoin="round"/>
<path d="M57.4899 17.44C58.4999 18.94 58.7099 20.54 59.0799 22.24C57.5899 21.23 57.1999 19.15 57.4899 17.44Z" fill="#3B65EE"/>
<path d="M56.39 20.2C56.64 18.53 58.87 17.73 60.25 18.55C58.85 19.13 57.75 19.41 56.39 20.2Z" fill="#3B65EE"/>
</g>
<defs>
<clipPath id="clip0_9_529">
<rect width="136.15" height="86.33" fill="white"/>
</clipPath>
</defs>
</svg>
