<svg width="131" height="145" viewBox="0 0 131 145" fill="none" xmlns="http://www.w3.org/2000/svg">
<g clip-path="url(#clip0_62_2)">
<path d="M17 73.11L10.97 18.99C10.82 17.6 11.52 16.26 12.75 15.6C22.68 10.26 67.45 -11.14 112.98 9.7C114.57 10.43 115.56 12.05 115.48 13.79L112.88 77.06C112.88 77.06 115.23 69.07 122.3 69.36C129.37 69.65 130.02 78.27 129.9 81.3C129.78 84.33 127.68 98.4 112.41 88.67C112.41 88.67 120.23 144.41 66.41 143.81C12.59 143.21 17.84 89.33 17.84 89.33C17.84 89.33 3.32995 97.83 0.969953 81.56C-1.39005 65.29 15.36 63.45 16.99 73.12L17 73.11Z" fill="white" stroke="#3B65EE" stroke-width="1.5" stroke-miterlimit="10"/>
<path d="M13.08 37.89C13.08 37.89 17.87 39.78 21.61 34.88C25.35 29.98 26.57 24.97 30.1 25.12C33.63 25.27 38.43 31.53 45.01 31.29C51.59 31.06 51.62 20.04 58.42 19.76C65.21 19.48 66.92 31.33 73.95 30.53C80.98 29.73 83.92 16.79 91.76 18.09C99.6 19.38 96.1 30.87 103.67 31.18C111.24 31.49 114.98 26.66 114.98 26.66" stroke="#3B65EE" stroke-width="1.01" stroke-miterlimit="10"/>
<path d="M21.3999 52.06C27.1899 45.92 34.1599 40.63 42.0599 37.55C34.9199 41.78 28.0099 47.02 21.3999 52.06Z" fill="#3B65EE"/>
<path d="M24.62 45.08C25.89 47.3 26.5 49.71 26.42 52.27C25.15 50.05 24.55 47.64 24.62 45.08Z" fill="#3B65EE"/>
<path d="M29.4299 41.27C30.3599 43.38 30.6199 45.6 30.1699 47.87C29.2299 45.76 28.9899 43.54 29.4299 41.27Z" fill="#3B65EE"/>
<path d="M33.62 39.01C35 40.27 35.77 41.87 35.9 43.73C34.52 42.47 33.75 40.87 33.62 39.01Z" fill="#3B65EE"/>
<path d="M86.59 88.85C93.78 93.27 100.37 99.02 104.99 106.14C99.4 100.01 92.87 94.31 86.59 88.85Z" fill="#3B65EE"/>
<path d="M94.0899 90.58C92.1699 92.27 89.9299 93.36 87.4099 93.8C89.3199 92.1 91.5699 91.03 94.0899 90.58Z" fill="#3B65EE"/>
<path d="M98.79 94.51C96.91 95.85 94.79 96.55 92.48 96.57C94.36 95.22 96.48 94.53 98.79 94.51Z" fill="#3B65EE"/>
<path d="M101.86 98.16C100.9 99.77 99.5 100.85 97.7 101.35C98.65 99.74 100.06 98.67 101.86 98.16Z" fill="#3B65EE"/>
<path d="M58.51 40.03C62.07 37.34 66.92 36.84 71.23 37.5C72.68 37.67 74.04 38.3 75.5 38.16C74.82 38.48 74.03 38.43 73.31 38.42C68.34 38 63.19 38.1 58.51 40.02V40.03Z" fill="#3B65EE"/>
<path d="M83.21 36.58C85.22 33.22 89.98 32.36 93.44 33.79C89.81 33.85 86.24 34.33 83.21 36.58Z" fill="#3B65EE"/>
<path d="M95.1799 37.07C92.0099 37.95 88.7799 38.83 85.8199 40.25C84.2399 40.95 83.2299 42.25 81.6699 43C79.9999 43.79 78.2099 43.7 76.5699 43.7C69.9999 43.41 63.1699 42.86 57.3199 46.42C58.6299 45.4 60.1299 44.61 61.6899 43.99C66.4299 42.21 71.6699 42.51 76.5899 42.68C78.2299 42.71 79.8799 42.76 81.2699 42.13C82.7299 41.46 83.9499 40.09 85.4899 39.54C88.6199 38.24 91.8899 37.55 95.1799 37.06V37.07Z" fill="#3B65EE"/>
<path d="M25.17 57.03C25.17 57.03 74.53 51.71 104.39 44.35C104.39 44.35 107.34 52.05 107.16 56.6C107.16 56.6 84.58 64.77 26.77 68.97C26.77 68.97 23.71 66.35 25.17 57.04V57.03Z" fill="#3B65EE"/>
<path d="M38.86 67.44L57.03 65.65C57.03 65.65 58.34 75.83 49.7 76.99C41.06 78.15 38.02 72.97 38.86 67.44Z" fill="#3B65EE"/>
<path d="M88.91 78.08C93.3724 78.08 96.99 74.4625 96.99 70C96.99 65.5375 93.3724 61.92 88.91 61.92C84.4475 61.92 80.83 65.5375 80.83 70C80.83 74.4625 84.4475 78.08 88.91 78.08Z" fill="#3B65EE"/>
<path d="M63.07 65.35L61.96 83.34C61.89 84.47 60.93 85.34 59.79 85.3L56.37 85.16C55.17 85.11 54.18 86.08 54.2 87.28L54.34 96.38C54.36 97.51 55.28 98.43 56.41 98.43L75.29 98.56C76.36 98.56 77.26 97.77 77.38 96.71L78.42 87.49C78.56 86.29 77.64 85.22 76.43 85.17L72.73 85.02C71.56 84.97 70.66 83.97 70.73 82.8L71.91 64.11" stroke="#3B65EE" stroke-width="0.51" stroke-miterlimit="10"/>
<path d="M18.9099 105.83L14.5899 106.31C14.3199 106.34 14.0699 106.16 14.0199 105.89L13.3799 102.79C13.3199 102.51 13.0499 102.33 12.7699 102.38L4.97989 103.85C4.70989 103.9 4.52989 104.15 4.55989 104.42L4.89989 107.52C4.92989 107.79 4.74989 108.04 4.47989 108.09L1.35989 108.74C1.08989 108.8 0.909892 109.06 0.949892 109.33L2.39989 119.09C2.43989 119.34 2.64989 119.53 2.89989 119.54L6.16989 119.67C6.38989 119.67 6.57989 119.82 6.64989 120.02L7.26989 121.84C7.34989 122.08 7.58989 122.22 7.83989 122.19L15.4099 121.17C15.7399 121.13 15.9499 120.79 15.8399 120.47V119.08C15.7399 118.79 15.9199 118.47 16.2199 118.39L22.1699 116.79" stroke="#3B65EE" stroke-miterlimit="10"/>
<path d="M112.04 106.34L116.4 106.52C116.87 106.54 117.27 106.17 117.29 105.7L117.45 101.87C117.47 101.4 117.87 101.03 118.34 101.05L125.74 101.35C126.21 101.37 126.58 101.77 126.56 102.24L126.45 104.94C126.43 105.39 126.76 105.78 127.21 105.83L128.09 105.93C128.54 105.98 128.87 106.37 128.85 106.82L128.46 116.27C128.44 116.74 128.04 117.11 127.57 117.09L125.99 117.03C125.54 117.01 125.15 117.34 125.1 117.79L124.82 120.23C124.77 120.68 124.38 121.01 123.93 120.99L116.96 120.7C116.49 120.68 116.12 120.28 116.14 119.81L116.24 117.49C116.26 117.02 115.89 116.62 115.42 116.6L109.64 116.36" stroke="#3B65EE" stroke-miterlimit="10"/>
<path d="M37.7899 109.52L38.6599 108.06C39.6999 106.32 41.5899 105.27 43.6099 105.32L87.5499 106.29C89.3699 106.33 91.0499 107.25 92.0799 108.75L92.8299 109.86C94.8899 112.89 93.5399 117.05 90.0999 118.3L89.8999 118.37C88.0299 119.05 85.9299 118.69 84.3999 117.41L82.2099 115.59C81.2199 114.77 79.9799 114.31 78.6899 114.3L53.7899 114C52.4199 113.98 51.0899 114.47 50.0599 115.36L47.5799 117.49C45.6899 119.12 42.9399 119.3 40.8499 117.94L39.5599 117.1C37.0299 115.45 36.2499 112.11 37.7999 109.52H37.7899Z" fill="#3B65EE"/>
<path d="M51.25 124.06C53.95 121.23 57.94 119.46 61.88 119.65C65.71 119.76 69.84 119.64 73.34 121.43C72.41 121.13 71.47 120.97 70.52 120.89C66.74 120.64 62.84 120.5 59.07 120.79C56.25 121.23 53.64 122.45 51.25 124.06Z" fill="#3B65EE"/>
<path d="M86.5699 127.12C90.8699 127.83 95.1199 127.41 98.7899 125C96.0199 128.63 90.4399 129.28 86.5699 127.12Z" fill="#3B65EE"/>
<path d="M7.59998 74.75C8.74998 75.19 9.82998 75.8 10.78 76.65C11.34 77.16 12.09 78.05 11.92 78.98C11.46 80.61 9.76998 81.77 9.27998 83.26C8.84998 84.37 9.24998 85.49 9.87998 86.47C8.84998 85.71 8.17998 84.36 8.52998 83.04C8.91998 81.39 10.1 80.38 10.85 79.09C10.97 78.91 10.99 78.73 10.98 78.53C10.5 76.96 8.82998 75.88 7.60998 74.75H7.59998Z" fill="#3B65EE"/>
<path d="M124.09 74.52C123.09 75.29 120.31 76.77 121.02 78.2L120.91 78.08C121.48 78.55 121.97 79.05 122.42 79.62C123.9 81.36 124.35 84.19 121.87 85.25C122.33 84.73 122.78 84.22 122.9 83.61C123.23 81.61 121.47 80.01 120.19 78.72C119.05 76.37 122.32 74.97 124.09 74.52Z" fill="#3B65EE"/>
<path d="M117.32 104.99L116.14 119.8" stroke="#3B65EE" stroke-width="0.51" stroke-miterlimit="10"/>
<path d="M124.9 119.58L126.57 102.24" stroke="#3B65EE" stroke-width="0.51" stroke-miterlimit="10"/>
<path d="M13.08 37.89C13.08 37.89 16.68 38.26 18.32 37.6C20.78 36.61 24.99 29.08 26.39 27.43C27.79 25.78 28.84 24.81 30.09 25.12C31.34 25.43 35.76 28.69 38.49 29.79C41.22 30.89 46.83 32.13 48.92 29.43C51.01 26.73 55.96 18.96 58.41 19.76C60.86 20.56 62.64 20.73 67.79 27.47C67.79 27.47 71.21 31.25 73.94 30.53C76.67 29.81 80.87 25.95 83.81 22.02C86.75 18.09 90.89 17.27 92.84 18.35C94.79 19.43 97.19 22.45 98.77 27.12C100.35 31.79 103.02 31.81 106.77 31C110.52 30.19 114.96 26.65 114.96 26.65L115.49 13.78C115.49 13.78 114.93 10.22 112.16 9.31C109.39 8.4 86.73 -1.38 65.31 0.9C43.89 3.19 28.99 7.2 12.76 15.59C12.76 15.59 10.92 15.27 11.42 22.98C11.92 30.69 13.08 37.88 13.08 37.88V37.89Z" fill="#3B65EE"/>
<path opacity="0.2" d="M16.8199 33.66L20.8999 64.16C20.8999 64.16 22.4099 70.47 29.2999 68.77C36.1899 67.07 107.98 57.37 109.24 56.17C110.5 54.97 110.78 18.82 110.78 18.82C110.78 18.82 84.4499 7.56 64.7499 9.69C45.0499 11.82 19.8199 22.92 19.8199 22.92L16.8199 33.66Z" fill="#3B65EE"/>
<path opacity="0.2" d="M32.4099 68.53C32.4099 68.53 32.8099 81.99 47.3599 81.63C61.9099 81.27 61.4499 64.65 61.4499 64.65L32.4099 68.53Z" fill="#3B65EE"/>
<path opacity="0.2" d="M72.2699 63C72.2699 63 74.7999 80.78 88.9099 80.11C103.02 79.44 102.8 57.76 102.8 57.76L72.2699 63Z" fill="#3B65EE"/>
<path opacity="0.2" d="M54.68 95.66C54.49 93.29 56.82 91.52 59.05 92.34C61.22 93.13 63.83 93.84 66.18 93.83C68.4 93.83 70.82 93.36 72.9 92.82C75.24 92.21 77.41 94.24 76.95 96.61C76.77 97.54 76.2 98.34 75.39 98.81L67.45 103.45C66.41 104.06 65.11 104.04 64.08 103.41L56.25 98.56C55.37 98.01 54.8 97.08 54.71 96.04L54.68 95.67V95.66Z" fill="#3B65EE"/>
<path opacity="0.2" d="M25.43 113.9C25.43 113.9 26.03 107.85 29.05 110C32.07 112.15 34.54 118.32 38.57 122.53C42.6 126.74 50.42 129.93 55.69 126.44C60.96 122.95 65.92 120.23 70.98 122.66C76.04 125.09 77.87 129.71 83.4 130.44C88.93 131.17 96.26 130.58 98.19 123.77C100.12 116.96 105.1 110.65 107.43 113.5C109.76 116.35 104 145.75 66.41 143.79C28.83 141.83 23.57 121.16 25.43 113.89V113.9Z" fill="#3B65EE"/>
<path opacity="0.2" d="M8.30001 75.18C8.30001 75.18 1.12001 84.34 9.88001 86.47C9.88001 86.47 8.77001 82.8 10.1 81C11.44 79.2 11.97 77.49 8.30001 75.17V75.18Z" fill="#3B65EE"/>
<path opacity="0.2" d="M123.55 74.35C123.55 74.35 129.95 84.07 121.05 85.48C121.05 85.48 122.46 81.92 121.27 80.01C120.08 78.1 119.69 76.36 123.55 74.35Z" fill="#3B65EE"/>
<path d="M4.88989 107.53L7.24989 121.85" stroke="#3B65EE" stroke-width="0.51" stroke-miterlimit="10"/>
<path d="M15.53 121.08L13.96 105.61" stroke="#3B65EE" stroke-width="0.51" stroke-miterlimit="10"/>
<path opacity="0.2" d="M1.66992 112.81L5.64992 112.1L4.92992 106.54L13.8199 104.94L14.4099 110.06L19.6999 109.37L22.1399 117.09L15.6299 118.68L15.7899 121.09L7.23992 122.25L6.48992 119.83L2.54992 119.41L1.66992 112.81Z" fill="#3B65EE"/>
<path opacity="0.2" d="M111.39 109.94C111.39 109.94 116.9 111.26 116.88 110.54C116.86 109.82 117.39 103.4 117.39 103.4L126.52 103.54L125.93 108.94L128.77 109.01L128.46 116.47L127.89 117.05L126 117.03L125.11 117.79L124.83 120.23L124.14 121L116.97 120.71L116.15 119.82L116.29 116.51L109.84 116.38L111.41 109.96L111.39 109.94Z" fill="#3B65EE"/>
</g>
<defs>
<clipPath id="clip0_62_2">
<rect width="130.67" height="144.56" fill="white"/>
</clipPath>
</defs>
</svg>
