<?xml version="1.0" encoding="UTF-8"?><svg id="Layer_2" xmlns="http://www.w3.org/2000/svg" viewBox="0 0 283.26 280.91"><defs><style>.cls-1{fill:#f2f6ff;}.cls-2{fill:#0069ff;}.cls-3{fill:#66a5ff;}.cls-4{fill:#e6e6e6;}.cls-5{fill:#fff;}.cls-6{fill:#c1d5ff;}</style></defs><g id="Layer_1-2"><path class="cls-1" d="m9.19,164.28c12.28-21.6,18.94-43.1,11.64-67.32,9.97.78,19.51-3.28,28.67-10.07,7.39-5.48,23.35-16.09,22.52-26.26,6.18,2.91,14.16,6.13,21.68,7.94,8.66,2.09,17.56,2.37,26.46,1.93,19.76-.99,39.9-.73,57.88-9.79l.18,1.81c-.13-1.26,1.03,7.68,1.48,10.01.77,3.99,1.65,7.72,3.1,11.45,2.51,6.44,5.21,12.23,10.02,17.1,6.23,6.32,13.16,10.69,20.54,15.26,6.32,3.92,14.68,8.6,22.11,11.54h0c-16.26,22.86-24.56,53.26-14.81,81.58l.12,1.26c-18.46,1.26-40.03,20.06-45.89,36.91l.14,1.46c-12.18-11.62-46.94-2.95-53.36,12.68-.04-.12-7.34-5.08-10.19-6.77-5.37-3.2-10.82-5.51-16.89-7.07-9.25-2.37-23.68-4.24-32.64.68l-2,1.38c-5.92-21.33-15.6-41.61-28.45-59.63-6.08-8.53-14.03-15.35-20.19-23.75"/><path class="cls-6" d="m11.35,165.55c12.12-21.55,18.93-44.81,11.89-69.25l-2.41,3.16c13.78.73,24.81-6.5,35.39-14.42,7.66-5.74,18.57-13.68,18.3-24.41l-3.76,2.16c8.31,3.86,16.96,7.32,26.01,8.98,9.8,1.79,19.62,1.38,29.51.95,18.17-.78,36.4-1.75,53.03-9.86l-3.76-2.16.18,1.81c.31,3.15,5.23,3.24,5,0v-.12c-1.65.22-3.28.44-4.92.66,2.31,13.51,4.4,27.23,13.68,38.06,5.81,6.78,13.65,11.79,21.16,16.47s15.71,9.26,24.17,12.71l-1.49-3.67c-8.59,12.27-14.96,26.19-17.73,40.96-1.36,7.26-1.92,14.69-1.41,22.06.25,3.56.71,7.11,1.41,10.61s2.36,7,2.7,10.46l2.5-2.5c-11.77,1.06-22.44,7.11-31.18,14.83-4.59,4.06-8.73,8.7-12.09,13.84-2.2,3.37-5.39,8.02-4.98,12.21l4.27-1.77c-8.17-7.32-20.64-6.98-30.7-4.65s-22.1,7.76-26.58,17.84l3.93-.51c-8.52-7.09-19.32-12.45-30.07-14.93s-24.79-4.06-34.69,2.77l3.67,1.49c-4.42-15.63-10.67-30.72-18.79-44.8-3.87-6.71-8.07-13.35-12.94-19.4-5.48-6.81-11.9-12.79-17.16-19.78-1.91-2.54-6.25-.05-4.32,2.52,4.65,6.19,10.09,11.64,15.16,17.48,5.39,6.2,9.9,13.13,14.06,20.2,8.33,14.16,14.7,29.31,19.16,45.11.41,1.46,2.32,2.43,3.67,1.49,9.1-6.28,21.95-4.48,32.1-1.96,9.34,2.32,19.41,7.36,26.6,13.35,1.1.92,3.21,1.09,3.93-.51,3.83-8.62,13.83-13.08,22.46-15.27s19.99-3.17,26.98,3.09c1.45,1.3,4.5.55,4.27-1.77-.35-3.52,3.16-8.08,5.08-10.86,2.98-4.31,6.59-8.2,10.51-11.65,7.67-6.76,17.29-12.43,27.65-13.36,1.24-.11,2.64-1.06,2.5-2.5-.64-6.52-3.37-12.76-3.98-19.42-.69-7.45-.28-15.04,1.1-22.39,2.72-14.4,8.85-27.8,17.22-39.76,1.02-1.46-.13-3.12-1.49-3.67-8.05-3.28-15.62-7.62-22.98-12.2s-14.62-9.18-20.14-15.69c-8.64-10.18-10.23-23.26-12.39-35.85-.47-2.76-5.11-2.14-4.91.66v.12h5.01l-.18-1.81c-.19-1.94-1.96-3.04-3.76-2.16-15.78,7.69-33.28,8.44-50.51,9.17-9.11.39-18.19.9-27.24-.62s-17.55-4.82-25.75-8.63c-1.64-.76-3.81.12-3.76,2.16.24,9.32-11.19,16.7-17.8,21.55-9.32,6.84-18.87,12.91-30.89,12.28-1.62-.09-2.84,1.67-2.41,3.16,6.67,23.15.08,45-11.39,65.4-1.58,2.81,2.74,5.33,4.32,2.52h0Z"/><path class="cls-5" d="m57.86,116.94c.47,4.75,1.87,13.9,1.34,20.17-.72,8.46-4.85,14.58-8.62,21.82,8.71,9.14,17.18,16.88,23.01,29.02,3.55,7.39,10.71,21.76,6.89,29.65,14.72-10.03,36.77-.37,42.39,16.07,5.1-7.68,30.72-22.61,40.04-13.59-.65-9.67,3.94-16.31,10.83-22.18,4.36-3.72,9.94-8.52,19.02-5.12-2.45-2.16-5.2-3.64-6.72-6.88-2.69-5.75-1.91-14.45-.84-20.58,2.03-11.57,4.91-31.43,18.73-34.07-13.84,1.48-17.66-1.85-29.34-9.63-9.96-6.63-9.57-19.6-11.22-30.84-8.3,9.54-27.64,13.06-38.85,12.28-14.1-.98-23.27-6.14-33.92-14.76l-1.32-.5c-4.04,12.47-18.51,23.1-29.72,27.06"/><path class="cls-6" d="m55.36,116.94c.68,6.44,1.83,12.99,1.38,19.48-.55,7.85-4.75,14.48-8.33,21.25-.53,1.01-.4,2.2.39,3.03,8.49,8.86,17.12,17.37,22.62,28.51,3.8,7.7,10.26,19.02,6.63,27.72-.85,2.04,1.96,3.92,3.67,2.82,13.93-8.95,33.21-.35,38.72,14.57.77,2.09,3.29,2.4,4.57.6,3.66-5.17,10.31-8.8,15.91-11.42s14.86-6.35,20.2-1.66c1.54,1.35,4.35.53,4.27-1.77-.49-12.82,12.79-29.44,26.68-24.89,2.3.75,4.36-2.57,2.43-4.18-2.76-2.31-5.6-4.14-6.82-7.73-1.06-3.13-1.1-6.61-.94-9.88.25-5.3,1.31-10.63,2.38-15.82,1.89-9.17,4.93-21.5,15.44-23.91,2.69-.62,2.18-5.18-.66-4.91-5,.48-10.06.65-14.81-1.25s-9.19-5.08-13.26-8.04c-9.1-6.61-8.67-19.28-10.07-29.34-.26-1.88-3.01-2.37-4.18-1.1-8.43,9.14-23.55,12.02-35.5,11.63-7.36-.24-14.61-2.07-21.13-5.52-5.19-2.75-9.63-7.67-15.03-9.73-1.33-.51-2.66.57-3.08,1.75-4.26,12.03-16.34,21.01-27.97,25.32-2.99,1.11-1.7,5.94,1.33,4.82,13.38-4.96,26.56-14.99,31.46-28.81l-3.08,1.75c2.5.96,4.77,3.46,6.99,5,3.38,2.35,6.92,4.44,10.7,6.07,6.74,2.91,14.11,4.39,21.46,4.38,12.82,0,28.36-3.35,37.37-13.12l-4.18-1.1c1.54,11.03,1.48,24.08,11.23,31.51,9.9,7.54,19.15,12,31.75,10.8l-.66-4.91c-12.4,2.84-16.66,16.4-18.93,27.41-1.32,6.37-2.65,12.98-2.62,19.5.02,3.72.41,7.72,2.05,11.11s4.45,5.35,7.24,7.68l2.43-4.18c-17.02-5.57-33.62,13.65-33.01,29.71l4.27-1.77c-6.6-5.79-16.17-3.38-23.48-.35s-15.72,7.72-20.48,14.44l4.57.6c-6.57-17.8-29.25-28.37-46.06-17.56l3.67,2.82c3.96-9.51-2.17-21.18-6.23-29.67-5.9-12.35-14.96-21.65-24.31-31.43l.39,3.03c3.58-6.77,7.63-13.38,8.73-21.09s-.34-14.86-1.1-22.17c-.33-3.17-5.34-3.2-5,0h0Z"/><path class="cls-1" d="m110.79,122.51c9.94,12.88,24.43,3.8,35.68.21-1.8,12.29,4.38,15.72,15.29,17.73-9.92,1.63-13.24,23.53-4.35,30.23-8.67.41-12.73,7.39-11.26,16.67-8.38,1.74-13.4,2.16-19.34,9.43-1.51-12.33-15.98-12.93-15.98-12.93.26-2.95-11.92-27.28-24.81-27.1,5.03-4.16,9.75-16.33,6.86-22.43,8.4-.93,17.39-1.55,17.92-11.82"/><path class="cls-6" d="m109.02,124.28c10.7,12.89,25.17,5.14,38.11.85l-3.16-2.41c-.62,4.98-.33,10.32,3.3,14.16s8.95,5.03,13.83,5.97v-4.82c-13.48,3.01-14.83,26.63-5.46,34.41l1.77-4.27c-10.42.91-15.05,9.3-13.76,19.17l1.84-2.41c-8.22,1.68-14.8,3.49-20.44,10.08l4.18,1.1c-1.47-9.02-9.64-14.32-18.39-14.77l2.5,2.5c-.06-5.75-5.26-12.57-8.49-16.9-4.56-6.11-10.71-12.45-18.82-12.7l1.77,4.27c6.1-5.54,10.67-16.82,7.5-24.86l-2.41,3.16c9.78-1.07,19.34-2.82,20.42-14.32.3-3.2-4.7-3.18-5,0-.77,8.18-8.88,8.6-15.42,9.32-1.43.16-3.07,1.5-2.41,3.16,2.55,6.47-1.32,15.55-6.21,20-1.67,1.52-.3,4.2,1.77,4.27,6.85.21,12.25,6.88,15.83,12.06,2.17,3.14,6.45,8.88,6.49,12.54.02,1.4,1.13,2.43,2.5,2.5,6.68.34,12.46,4.3,13.57,11.1.3,1.81,3.02,2.45,4.18,1.1,5.13-5.99,10.84-7.28,18.24-8.79.95-.2,1.97-1.39,1.84-2.41-.88-6.78.92-13.48,8.76-14.17,1.93-.17,3.59-2.75,1.77-4.27-6.49-5.39-6.6-23.86,3.25-26.05,2.34-.52,2.43-4.35,0-4.82-3.69-.71-8.08-1.44-10.98-4.05-3.2-2.88-2.96-7.35-2.48-11.26.2-1.59-1.76-2.88-3.16-2.41-11.01,3.64-24,11.57-33.24.43-2.06-2.48-5.58,1.08-3.54,3.54h0Z"/><path class="cls-6" d="m67.17,56.12c4.66,12.73,12.79,23.19,20.84,33.91,9.25,12.32,16.32,25.82,23.32,39.51s14.47,28.51,22.39,42.42,16.08,27.67,23.27,41.97c8.5,16.9,15.85,34.52,22.96,52.04,1.19,2.94,6.03,1.66,4.82-1.33-12.09-29.81-25.67-58.48-41.68-86.38-7.9-13.77-15.48-27.64-22.65-41.81s-13.97-28.91-23.04-41.97-19.92-24.67-25.42-39.71c-1.1-3-5.93-1.7-4.82,1.33h0Z"/><path class="cls-6" d="m2.4,168.72c16.5-1.3,32.58-5.58,49.09-7.04,16.28-1.44,32.58-2.71,48.82-4.6s31.06-4.67,46.12-9.53c15.82-5.1,32.01-8.89,48.36-11.82,18.66-3.34,37.49-5.56,56.35-7.44,3.17-.32,3.2-5.32,0-5-32.06,3.19-64.23,7.34-95.29,16.17-15.68,4.45-30.77,9.22-46.99,11.52s-33.8,3.79-50.72,5.14c-8.82.71-17.64,1.49-26.37,2.97-9.79,1.65-19.47,3.84-29.38,4.62-3.19.25-3.21,5.25,0,5h0Z"/><path class="cls-6" d="m179.16,53.96c-8.84,14.28-15.04,29.88-22.26,44.99s-16.93,30.5-25.11,45.88-14.88,30.28-26.92,42.29c-5.14,5.13-10.64,9.89-15.61,15.18s-9.41,11.79-13.55,18.14c-4.86,7.46-9.3,15.17-13.94,22.76-3.64,5.96-7.83,12.37-9.02,19.38-.54,3.15,4.28,4.5,4.82,1.33,1.13-6.61,5.08-12.56,8.52-18.19,3.83-6.26,7.49-12.63,11.41-18.83,4.5-7.1,9.04-14.3,14.76-20.49,4.93-5.33,10.42-10.1,15.59-15.2,11.33-11.19,18.15-24.84,25.56-38.77,8.1-15.23,17.28-29.95,25.05-45.34,8.5-16.81,15.08-34.55,25.02-50.62,1.7-2.74-2.63-5.26-4.32-2.52h0Z"/><path class="cls-6" d="m248.05,224.6c-13.69-9.22-27.68-17.96-41.78-26.53-15.09-9.17-29.78-18.96-44.84-28.18s-30.67-17.06-45.91-25.79-29.83-17.43-45.16-25.4c-8.45-4.4-17.19-8.15-25.71-12.39s-17.13-9.21-25.81-13.6c-2.86-1.45-5.4,2.86-2.52,4.32,30.4,15.39,60.73,30.65,90.26,47.69,15.12,8.73,30.72,16.63,45.74,25.52s30.34,19.24,45.66,28.63c16,9.8,31.98,19.56,47.55,30.04,2.68,1.8,5.18-2.53,2.52-4.32h0Z"/><path class="cls-6" d="m126.2,153.33c.38,19.62-2.28,39.27-4.31,58.75-.97,9.3-1.94,18.61-2.32,27.95-.51,12.58-.14,25.23-1.83,37.74-.42,3.15,4.39,4.51,4.82,1.33,1.59-11.75,1.53-23.56,1.88-35.39.3-10.07,1.25-20.08,2.28-30.1,2.06-19.99,4.86-40.15,4.47-60.28-.06-3.21-5.06-3.22-5,0h0Z"/><line class="cls-4" x1="129.75" y1="153" x2="270.75" y2="13"/><path class="cls-2" d="m131.51,154.77c15.85-15.73,31.69-31.47,47.54-47.2,25.3-25.12,50.59-50.23,75.89-75.35,5.86-5.82,11.72-11.64,17.58-17.45,2.29-2.27-1.25-5.81-3.54-3.54-15.85,15.73-31.69,31.47-47.54,47.2-25.3,25.12-50.59,50.23-75.89,75.35-5.86,5.82-11.72,11.64-17.58,17.45-2.29,2.27,1.25,5.81,3.54,3.54h0Z"/><polygon class="cls-3" points="252.65 30.97 252.25 2.5 219.25 34.5 219.25 64.13 252.65 30.97"/><path class="cls-2" d="m219.25,66.64c-.32,0-.65-.06-.96-.19-.93-.39-1.54-1.3-1.54-2.31v-29.63c0-.68.27-1.32.76-1.79L250.51.71c.72-.69,1.78-.9,2.7-.51.92.38,1.53,1.28,1.54,2.27l.4,28.47c0,.68-.26,1.33-.74,1.81l-33.4,33.16c-.48.47-1.11.73-1.76.73Zm2.5-31.08v22.57l28.39-28.19-.3-21.62-28.08,27.23Z"/><polygon class="cls-3" points="252.29 31.62 280.76 32.02 248.76 65.02 219.13 65.02 252.29 31.62"/><path class="cls-2" d="m248.76,67.52h-29.63c-1.01,0-1.92-.61-2.31-1.54-.39-.93-.18-2.01.53-2.72l33.16-33.4c.48-.48,1.12-.77,1.81-.74l28.47.4c1,.01,1.89.62,2.27,1.54.38.92.18,1.98-.51,2.7l-32,33c-.47.49-1.12.76-1.79.76Zm-23.63-5h22.57l27.23-28.08-21.62-.3-28.19,28.39Z"/></g></svg>