<svg width="71" height="58" viewBox="0 0 71 58" fill="none" xmlns="http://www.w3.org/2000/svg">
<g clip-path="url(#clip0_9_245)">
<path opacity="0.2" d="M46.4302 57.05C59.4089 57.05 69.9302 55.483 69.9302 53.55C69.9302 51.617 59.4089 50.05 46.4302 50.05C33.4515 50.05 22.9302 51.617 22.9302 53.55C22.9302 55.483 33.4515 57.05 46.4302 57.05Z" fill="#3B65EE"/>
<path d="M58.2901 16.56C58.2901 16.56 46.7001 -16.02 26.0501 13.01C5.40007 42.04 5.33007 42.04 1.82007 44.95C1.82007 44.95 36.9301 60.43 52.4601 51.24C67.9901 42.05 77.6201 18.82 58.2901 16.56Z" fill="white" stroke="#3B65EE" stroke-width="1.94" stroke-miterlimit="10"/>
<path d="M58.29 16.56C62.15 11.91 66.62 8.36999 69.93 3.32999C69.26 9.33999 63.58 14.28 58.29 16.56Z" fill="#3B65EE"/>
<path d="M53.1601 18.82C46.1501 22.51 39.1801 26.09 32.6501 30.53C27.7901 33.95 23.1401 37.89 17.6201 40.25C15.7701 41.04 13.8601 41.78 11.8701 42.05C19.1301 38.69 24.7701 33.02 31.2001 28.4C37.9101 23.97 45.3301 20.62 53.1601 18.83V18.82Z" fill="#3B65EE"/>
<path d="M23.95 35.47C24.51 38.42 23.78 41.88 21.54 43.98C22.19 41.02 22.72 38.29 23.95 35.47Z" fill="#3B65EE"/>
<path d="M16.6702 33.01C19.6602 32.69 23.0402 33.7 24.9502 36.11C22.0502 35.22 19.3702 34.47 16.6702 33.01Z" fill="#3B65EE"/>
<path d="M37.45 26.04C40.02 31.56 41.9299 38.75 39.5999 44.63C40.1099 38.3 38.32 32.29 37.45 26.04Z" fill="#3B65EE"/>
<path d="M24.77 22.53C29.28 22.2 35.19 23.04 37.96 27C34.06 24.24 29.3 23.81 24.77 22.53Z" fill="#3B65EE"/>
<path d="M49.3 20.31C54.6 23.92 58 30.31 58.3 36.69C56.22 30.73 53.31 25.21 49.3 20.31Z" fill="#3B65EE"/>
<path d="M34.3 11.23C40.68 11.84 46.7401 15.8 50.0801 21.25C45.3801 17.03 40.17 13.59 34.3 11.23Z" fill="#3B65EE"/>
</g>
<defs>
<clipPath id="clip0_9_245">
<rect width="70.04" height="57.05" fill="white"/>
</clipPath>
</defs>
</svg>
