<?xml version="1.0" encoding="UTF-8"?>
<svg xmlns="http://www.w3.org/2000/svg" xmlns:xlink="http://www.w3.org/1999/xlink" viewBox="0 0 139.12 143.78">
  <defs>
    <style>
      .cls-1 {
        fill: none;
      }

      .cls-2 {
        fill: #3b65ef;
      }

      .cls-3 {
        mix-blend-mode: multiply;
      }

      .cls-3, .cls-4 {
        fill: #3b65ee;
        opacity: .2;
      }

      .cls-5 {
        isolation: isolate;
      }

      .cls-6 {
        fill: #fff;
        stroke: #3b65ef;
        stroke-miterlimit: 10;
        stroke-width: 3px;
      }

      .cls-7 {
        clip-path: url(#clippath);
      }
    </style>
    <clipPath id="clippath">
      <path class="cls-1" d="M50.71,141.71s-46-2-49-42S28.98-2.6,55.71,1.71c31,5,53,62,44,104-8.49,39.6-49,36-49,36Z"/>
    </clipPath>
  </defs>
  <g class="cls-5">
    <g id="Layer_2" data-name="Layer 2">
      <g id="Layer_2-2" data-name="Layer 2">
        <g>
          <ellipse class="cls-4" cx="85.71" cy="135.71" rx="53.5" ry="7.5" transform="translate(-7.47 5.02) rotate(-3.21)"/>
          <path class="cls-6" d="M50.71,141.71s-46-2-49-42S28.98-2.6,55.71,1.71c31,5,53,62,44,104-8.49,39.6-49,36-49,36Z"/>
          <g class="cls-7">
            <g>
              <path class="cls-2" d="M2.71,48.71S45.71,23.71,58.71-8.29l23,14S44.71,54.71-11.29,60.71l14-12Z"/>
              <path class="cls-2" d="M-8.79,86.71s68-15,115-58l8,28s-48,32.35-123,39.67v-9.67Z"/>
              <path class="cls-2" d="M-7.29,115.71s83.08-3.65,127.04-24.33l-10.04,28.33s-49,15-113,9l-4-13Z"/>
            </g>
          </g>
          <path class="cls-3" d="M89.37,118.24c-13.35,19.05-39.9,22.69-54.07,11.83-12.53-9.61,17.97-13.88,29.99-33.8,12.02-19.92,9.16-56.48,20.91-43.06,14,16,13,51,3.17,65.03Z"/>
        </g>
      </g>
    </g>
  </g>
</svg>