<svg width="1016" height="660" viewBox="0 0 1016 660" fill="none" xmlns="http://www.w3.org/2000/svg">
<path d="M97.2969 658.449H1014.4" stroke="#3B65EE" stroke-width="2" stroke-linecap="round" stroke-linejoin="round"/>
<path d="M57.0337 658.449H1" stroke="#3B65EE" stroke-width="2" stroke-linecap="round" stroke-linejoin="round"/>
<path d="M634.459 234.875H143.881V658.449H634.459V234.875Z" fill="white" stroke="#3B65EE" stroke-width="2" stroke-linecap="round" stroke-linejoin="round"/>
<path d="M216.653 307.041H143.881V357.252H216.653V307.041Z" fill="white" stroke="#D1DAED" stroke-width="2" stroke-linecap="round" stroke-linejoin="round"/>
<path d="M311.607 307.041H216.676V357.252H311.607V307.041Z" fill="white" stroke="#D1DAED" stroke-width="2" stroke-linecap="round" stroke-linejoin="round"/>
<path d="M406.515 307.041H311.584V357.252H406.515V307.041Z" fill="white" stroke="#D1DAED" stroke-width="2" stroke-linecap="round" stroke-linejoin="round"/>
<path d="M501.446 307.041H406.516V357.252H501.446V307.041Z" fill="white" stroke="#D1DAED" stroke-width="2" stroke-linecap="round" stroke-linejoin="round"/>
<path d="M596.333 307.041H501.402V357.252H596.333V307.041Z" fill="white" stroke="#D1DAED" stroke-width="2" stroke-linecap="round" stroke-linejoin="round"/>
<path d="M634.461 307.041H596.334V357.252H634.461V307.041Z" fill="white" stroke="#D1DAED" stroke-width="2" stroke-linecap="round" stroke-linejoin="round"/>
<path d="M169.211 357.252H143.947V407.463H169.211V357.252Z" fill="white" stroke="#D1DAED" stroke-width="2" stroke-linecap="round" stroke-linejoin="round"/>
<path d="M264.142 357.252H169.211V407.463H264.142V357.252Z" fill="white" stroke="#D1DAED" stroke-width="2" stroke-linecap="round" stroke-linejoin="round"/>
<path d="M359.05 357.252H264.119V407.463H359.05V357.252Z" fill="white" stroke="#D1DAED" stroke-width="2" stroke-linecap="round" stroke-linejoin="round"/>
<path d="M453.98 357.252H359.049V407.463H453.98V357.252Z" fill="white" stroke="#D1DAED" stroke-width="2" stroke-linecap="round" stroke-linejoin="round"/>
<path d="M548.868 357.252H453.938V407.463H548.868V357.252Z" fill="white" stroke="#D1DAED" stroke-width="2" stroke-linecap="round" stroke-linejoin="round"/>
<path d="M634.481 357.252H548.867V407.463H634.481V357.252Z" fill="white" stroke="#D1DAED" stroke-width="2" stroke-linecap="round" stroke-linejoin="round"/>
<path d="M216.653 407.44H143.881V457.651H216.653V407.44Z" fill="white" stroke="#D1DAED" stroke-width="2" stroke-linecap="round" stroke-linejoin="round"/>
<path d="M311.607 407.44H216.676V457.651H311.607V407.44Z" fill="white" stroke="#D1DAED" stroke-width="2" stroke-linecap="round" stroke-linejoin="round"/>
<path d="M406.515 407.44H311.584V457.651H406.515V407.44Z" fill="white" stroke="#D1DAED" stroke-width="2" stroke-linecap="round" stroke-linejoin="round"/>
<path d="M501.446 407.44H406.516V457.651H501.446V407.44Z" fill="white" stroke="#D1DAED" stroke-width="2" stroke-linecap="round" stroke-linejoin="round"/>
<path d="M596.333 407.44H501.402V457.651H596.333V407.44Z" fill="white" stroke="#D1DAED" stroke-width="2" stroke-linecap="round" stroke-linejoin="round"/>
<path d="M634.461 407.44H596.334V457.651H634.461V407.44Z" fill="white" stroke="#D1DAED" stroke-width="2" stroke-linecap="round" stroke-linejoin="round"/>
<path d="M169.211 457.651H143.947V507.862H169.211V457.651Z" fill="white" stroke="#D1DAED" stroke-width="2" stroke-linecap="round" stroke-linejoin="round"/>
<path d="M264.142 457.651H169.211V507.862H264.142V457.651Z" fill="white" stroke="#D1DAED" stroke-width="2" stroke-linecap="round" stroke-linejoin="round"/>
<path d="M359.05 457.651H264.119V507.862H359.05V457.651Z" fill="white" stroke="#D1DAED" stroke-width="2" stroke-linecap="round" stroke-linejoin="round"/>
<path d="M453.98 457.651H359.049V507.862H453.98V457.651Z" fill="white" stroke="#D1DAED" stroke-width="2" stroke-linecap="round" stroke-linejoin="round"/>
<path d="M548.868 457.651H453.938V507.862H548.868V457.651Z" fill="white" stroke="#D1DAED" stroke-width="2" stroke-linecap="round" stroke-linejoin="round"/>
<path d="M634.481 457.651H548.867V507.862H634.481V457.651Z" fill="white" stroke="#D1DAED" stroke-width="2" stroke-linecap="round" stroke-linejoin="round"/>
<path d="M216.653 507.861H143.881V558.072H216.653V507.861Z" fill="white" stroke="#D1DAED" stroke-width="2" stroke-linecap="round" stroke-linejoin="round"/>
<path d="M311.607 507.861H216.676V558.072H311.607V507.861Z" fill="white" stroke="#D1DAED" stroke-width="2" stroke-linecap="round" stroke-linejoin="round"/>
<path d="M406.515 507.861H311.584V558.072H406.515V507.861Z" fill="white" stroke="#D1DAED" stroke-width="2" stroke-linecap="round" stroke-linejoin="round"/>
<path d="M501.446 507.861H406.516V558.072H501.446V507.861Z" fill="white" stroke="#D1DAED" stroke-width="2" stroke-linecap="round" stroke-linejoin="round"/>
<path d="M596.333 507.861H501.402V558.072H596.333V507.861Z" fill="white" stroke="#D1DAED" stroke-width="2" stroke-linecap="round" stroke-linejoin="round"/>
<path d="M634.461 507.861H596.334V558.072H634.461V507.861Z" fill="white" stroke="#D1DAED" stroke-width="2" stroke-linecap="round" stroke-linejoin="round"/>
<path d="M169.211 558.051H143.947V608.261H169.211V558.051Z" fill="white" stroke="#D1DAED" stroke-width="2" stroke-linecap="round" stroke-linejoin="round"/>
<path d="M264.142 558.051H169.211V608.261H264.142V558.051Z" fill="white" stroke="#D1DAED" stroke-width="2" stroke-linecap="round" stroke-linejoin="round"/>
<path d="M359.05 558.051H264.119V608.261H359.05V558.051Z" fill="white" stroke="#D1DAED" stroke-width="2" stroke-linecap="round" stroke-linejoin="round"/>
<path d="M453.98 558.051H359.049V608.261H453.98V558.051Z" fill="white" stroke="#D1DAED" stroke-width="2" stroke-linecap="round" stroke-linejoin="round"/>
<path d="M548.868 558.051H453.938V608.261H548.868V558.051Z" fill="white" stroke="#D1DAED" stroke-width="2" stroke-linecap="round" stroke-linejoin="round"/>
<path d="M634.481 558.051H548.867V608.261H634.481V558.051Z" fill="white" stroke="#D1DAED" stroke-width="2" stroke-linecap="round" stroke-linejoin="round"/>
<path d="M216.676 608.261H143.947V658.471H216.676V608.261Z" fill="white" stroke="#D1DAED" stroke-width="2" stroke-linecap="round" stroke-linejoin="round"/>
<path d="M311.607 608.261H216.676V658.471H311.607V608.261Z" fill="white" stroke="#D1DAED" stroke-width="2" stroke-linecap="round" stroke-linejoin="round"/>
<path d="M406.515 608.261H311.584V658.471H406.515V608.261Z" fill="white" stroke="#D1DAED" stroke-width="2" stroke-linecap="round" stroke-linejoin="round"/>
<path d="M501.446 608.261H406.516V658.471H501.446V608.261Z" fill="white" stroke="#D1DAED" stroke-width="2" stroke-linecap="round" stroke-linejoin="round"/>
<path d="M596.333 608.261H501.402V658.471H596.333V608.261Z" fill="white" stroke="#D1DAED" stroke-width="2" stroke-linecap="round" stroke-linejoin="round"/>
<path d="M634.461 608.261H596.334V658.471H634.461V608.261Z" fill="white" stroke="#D1DAED" stroke-width="2" stroke-linecap="round" stroke-linejoin="round"/>
<path d="M634.459 658.449H938.458V234.875L786.458 47.2461L634.459 234.875V658.449Z" fill="#D1DAED" stroke="#3B65EE" stroke-width="2" stroke-linecap="round" stroke-linejoin="round"/>
<path d="M863.945 206.709H905.883L870.553 156.498H863.945V206.709Z" fill="#D1DAED" stroke="#3B65EE" stroke-width="2" stroke-linecap="round" stroke-linejoin="round"/>
<path d="M805.094 206.709H863.924V156.498H805.094V206.709Z" fill="#D1DAED" stroke="#3B65EE" stroke-width="2" stroke-linecap="round" stroke-linejoin="round"/>
<path d="M746.283 206.709H805.113V156.498H746.283V206.709Z" fill="#D1DAED" stroke="#3B65EE" stroke-width="2" stroke-linecap="round" stroke-linejoin="round"/>
<path d="M687.455 206.709H746.285V156.498H687.455V206.709Z" fill="#D1DAED" stroke="#3B65EE" stroke-width="2" stroke-linecap="round" stroke-linejoin="round"/>
<path d="M634.415 206.709H687.475V156.498H634.415V206.709Z" fill="#D1DAED" stroke="#3B65EE" stroke-width="2" stroke-linecap="round" stroke-linejoin="round"/>
<path d="M893.35 256.919H938.458V246.503L893.35 206.709V256.919Z" fill="#D1DAED" stroke="#3B65EE" stroke-width="2" stroke-linecap="round" stroke-linejoin="round"/>
<path d="M834.519 256.919H893.35V206.708H834.519V256.919Z" fill="#D1DAED" stroke="#3B65EE" stroke-width="2" stroke-linecap="round" stroke-linejoin="round"/>
<path d="M775.689 256.919H834.52V206.708H775.689V256.919Z" fill="#D1DAED" stroke="#3B65EE" stroke-width="2" stroke-linecap="round" stroke-linejoin="round"/>
<path d="M716.858 256.919H775.689V206.708H716.858V256.919Z" fill="#D1DAED" stroke="#3B65EE" stroke-width="2" stroke-linecap="round" stroke-linejoin="round"/>
<path d="M775.689 156.498H834.52V106.287H775.689V156.498Z" fill="#D1DAED" stroke="#3B65EE" stroke-width="2" stroke-linecap="round" stroke-linejoin="round"/>
<path d="M716.858 156.498H775.689V106.287H716.858V156.498Z" fill="#D1DAED" stroke="#3B65EE" stroke-width="2" stroke-linecap="round" stroke-linejoin="round"/>
<path d="M658.05 256.919H716.881V206.708H658.05V256.919Z" fill="#D1DAED" stroke="#3B65EE" stroke-width="2" stroke-linecap="round" stroke-linejoin="round"/>
<path d="M634.416 256.919H658.049V206.708H634.416V256.919Z" fill="#D1DAED" stroke="#3B65EE" stroke-width="2" stroke-linecap="round" stroke-linejoin="round"/>
<path d="M938.436 256.919H922.775V307.13H938.436V256.919Z" fill="#D1DAED" stroke="#3B65EE" stroke-width="2" stroke-linecap="round" stroke-linejoin="round"/>
<path d="M863.923 307.107H922.754V256.897H863.923V307.107Z" fill="#D1DAED" stroke="#3B65EE" stroke-width="2" stroke-linecap="round" stroke-linejoin="round"/>
<path d="M805.094 307.107H863.924V256.897H805.094V307.107Z" fill="#D1DAED" stroke="#3B65EE" stroke-width="2" stroke-linecap="round" stroke-linejoin="round"/>
<path d="M746.283 307.107H805.113V256.897H746.283V307.107Z" fill="#D1DAED" stroke="#3B65EE" stroke-width="2" stroke-linecap="round" stroke-linejoin="round"/>
<path d="M687.455 307.107H746.285V256.897H687.455V307.107Z" fill="#D1DAED" stroke="#3B65EE" stroke-width="2" stroke-linecap="round" stroke-linejoin="round"/>
<path d="M634.415 307.107H687.475V256.897H634.415V307.107Z" fill="#D1DAED" stroke="#3B65EE" stroke-width="2" stroke-linecap="round" stroke-linejoin="round"/>
<path d="M786.459 47.2461V86.93L964.801 307.108V267.424L786.459 47.2461Z" fill="#B0C3EA" stroke="#3B65EE" stroke-width="2" stroke-linecap="round" stroke-linejoin="round"/>
<path d="M786.459 47.2461V86.93" stroke="#3B65EE" stroke-width="2" stroke-linecap="round" stroke-linejoin="round"/>
<path d="M964.802 307.108H938.459V274.581L964.802 307.108Z" fill="#B0C3EA" stroke="#3B65EE" stroke-width="2" stroke-linecap="round" stroke-linejoin="round"/>
<path d="M466.755 457.651H311.584V658.449H466.755V457.651Z" fill="#B0C3EA" stroke="#3B65EE" stroke-width="2" stroke-linecap="round" stroke-linejoin="round"/>
<path d="M410.986 592.096C418.382 592.096 424.377 586.102 424.377 578.707C424.377 571.312 418.382 565.317 410.986 565.317C403.59 565.317 397.594 571.312 397.594 578.707C397.594 586.102 403.59 592.096 410.986 592.096Z" fill="white" stroke="#3B65EE" stroke-width="2" stroke-linecap="round" stroke-linejoin="round"/>
<path d="M344.204 457.651H311.584V658.449H344.204V457.651Z" fill="#D1DAED" stroke="#3B65EE" stroke-width="2" stroke-linecap="round" stroke-linejoin="round"/>
<path d="M311.584 490.266V513.411H344.204V490.266H311.584Z" fill="#B0C3EA"/>
<path d="M344.204 457.651H311.584V658.449H344.204V457.651Z" stroke="#3B65EE" stroke-width="2" stroke-linecap="round" stroke-linejoin="round"/>
<path d="M466.778 457.651H434.158V658.449H466.778V457.651Z" fill="#D1DAED" stroke="#3B65EE" stroke-width="2" stroke-linecap="round" stroke-linejoin="round"/>
<path d="M143.947 658.449H634.459V196.314L143.881 307.042L143.947 658.449Z" stroke="#3B65EE" stroke-width="2" stroke-linecap="round" stroke-linejoin="round"/>
<path d="M786.458 47.2461H289.139L110.775 267.424H608.116L786.458 47.2461Z" fill="#D1DAED" stroke="#3B65EE" stroke-width="2" stroke-linecap="round" stroke-linejoin="round"/>
<path d="M608.116 267.424H110.775V307.108H608.116L786.458 86.93V47.2461L608.116 267.424Z" fill="#D1DAED" stroke="#3B65EE" stroke-width="2" stroke-linecap="round" stroke-linejoin="round"/>
<path d="M608.117 267.424V307.108L786.459 86.93V47.2461L608.117 267.424Z" fill="#B0C3EA" stroke="#3B65EE" stroke-width="2" stroke-linecap="round" stroke-linejoin="round"/>
<path d="M667.058 1.02148H595.959V118.466H667.058V1.02148Z" fill="#D1DAED" stroke="#3B65EE" stroke-width="2" stroke-linecap="round" stroke-linejoin="round"/>
<path d="M563.736 118.444H595.938V1.00006H563.736V118.444Z" fill="white" stroke="#3B65EE" stroke-width="2" stroke-linecap="round" stroke-linejoin="round"/>
<path d="M893.351 357.252H938.459V307.041H893.351V357.252Z" fill="#D1DAED" stroke="#3B65EE" stroke-width="2" stroke-linecap="round" stroke-linejoin="round"/>
<path d="M834.519 357.252H893.35V307.041H834.519V357.252Z" fill="#D1DAED" stroke="#3B65EE" stroke-width="2" stroke-linecap="round" stroke-linejoin="round"/>
<path d="M775.689 357.252H834.52V307.041H775.689V357.252Z" fill="#D1DAED" stroke="#3B65EE" stroke-width="2" stroke-linecap="round" stroke-linejoin="round"/>
<path d="M716.858 357.252H775.689V307.041H716.858V357.252Z" fill="#D1DAED" stroke="#3B65EE" stroke-width="2" stroke-linecap="round" stroke-linejoin="round"/>
<path d="M658.05 357.252H716.881V307.041H658.05V357.252Z" fill="#D1DAED" stroke="#3B65EE" stroke-width="2" stroke-linecap="round" stroke-linejoin="round"/>
<path d="M634.416 357.252H658.049V307.041H634.416V357.252Z" fill="#D1DAED" stroke="#3B65EE" stroke-width="2" stroke-linecap="round" stroke-linejoin="round"/>
<path d="M938.436 357.252H922.775V407.463H938.436V357.252Z" fill="#D1DAED" stroke="#3B65EE" stroke-width="2" stroke-linecap="round" stroke-linejoin="round"/>
<path d="M863.923 407.44H922.754V357.23H863.923V407.44Z" fill="#D1DAED" stroke="#3B65EE" stroke-width="2" stroke-linecap="round" stroke-linejoin="round"/>
<path d="M805.094 407.44H863.924V357.23H805.094V407.44Z" fill="#D1DAED" stroke="#3B65EE" stroke-width="2" stroke-linecap="round" stroke-linejoin="round"/>
<path d="M746.283 407.44H805.113V357.23H746.283V407.44Z" fill="#D1DAED" stroke="#3B65EE" stroke-width="2" stroke-linecap="round" stroke-linejoin="round"/>
<path d="M687.455 407.44H746.285V357.23H687.455V407.44Z" fill="#D1DAED" stroke="#3B65EE" stroke-width="2" stroke-linecap="round" stroke-linejoin="round"/>
<path d="M634.415 407.44H687.475V357.23H634.415V407.44Z" fill="#D1DAED" stroke="#3B65EE" stroke-width="2" stroke-linecap="round" stroke-linejoin="round"/>
<path d="M893.351 457.651H938.459V407.441H893.351V457.651Z" fill="#D1DAED" stroke="#3B65EE" stroke-width="2" stroke-linecap="round" stroke-linejoin="round"/>
<path d="M834.519 457.651H893.35V407.441H834.519V457.651Z" fill="#D1DAED" stroke="#3B65EE" stroke-width="2" stroke-linecap="round" stroke-linejoin="round"/>
<path d="M775.689 457.651H834.52V407.441H775.689V457.651Z" fill="#D1DAED" stroke="#3B65EE" stroke-width="2" stroke-linecap="round" stroke-linejoin="round"/>
<path d="M716.858 457.651H775.689V407.441H716.858V457.651Z" fill="#D1DAED" stroke="#3B65EE" stroke-width="2" stroke-linecap="round" stroke-linejoin="round"/>
<path d="M658.05 457.651H716.881V407.441H658.05V457.651Z" fill="#D1DAED" stroke="#3B65EE" stroke-width="2" stroke-linecap="round" stroke-linejoin="round"/>
<path d="M634.416 457.651H658.049V407.441H634.416V457.651Z" fill="#D1DAED" stroke="#3B65EE" stroke-width="2" stroke-linecap="round" stroke-linejoin="round"/>
<path d="M938.436 457.651H922.775V507.862H938.436V457.651Z" fill="#D1DAED" stroke="#3B65EE" stroke-width="2" stroke-linecap="round" stroke-linejoin="round"/>
<path d="M863.923 507.84H922.754V457.629H863.923V507.84Z" fill="#D1DAED" stroke="#3B65EE" stroke-width="2" stroke-linecap="round" stroke-linejoin="round"/>
<path d="M805.094 507.84H863.924V457.629H805.094V507.84Z" fill="#D1DAED" stroke="#3B65EE" stroke-width="2" stroke-linecap="round" stroke-linejoin="round"/>
<path d="M746.283 507.84H805.113V457.629H746.283V507.84Z" fill="#D1DAED" stroke="#3B65EE" stroke-width="2" stroke-linecap="round" stroke-linejoin="round"/>
<path d="M687.455 507.84H746.285V457.629H687.455V507.84Z" fill="#D1DAED" stroke="#3B65EE" stroke-width="2" stroke-linecap="round" stroke-linejoin="round"/>
<path d="M634.415 507.84H687.475V457.629H634.415V507.84Z" fill="#D1DAED" stroke="#3B65EE" stroke-width="2" stroke-linecap="round" stroke-linejoin="round"/>
<path d="M893.351 558.072H938.459V507.862H893.351V558.072Z" fill="#D1DAED" stroke="#3B65EE" stroke-width="2" stroke-linecap="round" stroke-linejoin="round"/>
<path d="M834.519 558.072H893.35V507.862H834.519V558.072Z" fill="#D1DAED" stroke="#3B65EE" stroke-width="2" stroke-linecap="round" stroke-linejoin="round"/>
<path d="M775.689 558.072H834.52V507.862H775.689V558.072Z" fill="#D1DAED" stroke="#3B65EE" stroke-width="2" stroke-linecap="round" stroke-linejoin="round"/>
<path d="M716.858 558.072H775.689V507.862H716.858V558.072Z" fill="#D1DAED" stroke="#3B65EE" stroke-width="2" stroke-linecap="round" stroke-linejoin="round"/>
<path d="M658.05 558.072H716.881V507.862H658.05V558.072Z" fill="#D1DAED" stroke="#3B65EE" stroke-width="2" stroke-linecap="round" stroke-linejoin="round"/>
<path d="M634.416 558.072H658.049V507.862H634.416V558.072Z" fill="#D1DAED" stroke="#3B65EE" stroke-width="2" stroke-linecap="round" stroke-linejoin="round"/>
<path d="M938.436 558.051H922.775V608.261H938.436V558.051Z" fill="#D1DAED" stroke="#3B65EE" stroke-width="2" stroke-linecap="round" stroke-linejoin="round"/>
<path d="M863.923 608.261H922.754V558.05H863.923V608.261Z" fill="#D1DAED" stroke="#3B65EE" stroke-width="2" stroke-linecap="round" stroke-linejoin="round"/>
<path d="M805.094 608.261H863.924V558.05H805.094V608.261Z" fill="#D1DAED" stroke="#3B65EE" stroke-width="2" stroke-linecap="round" stroke-linejoin="round"/>
<path d="M746.283 608.261H805.113V558.05H746.283V608.261Z" fill="#D1DAED" stroke="#3B65EE" stroke-width="2" stroke-linecap="round" stroke-linejoin="round"/>
<path d="M687.455 608.261H746.285V558.05H687.455V608.261Z" fill="#D1DAED" stroke="#3B65EE" stroke-width="2" stroke-linecap="round" stroke-linejoin="round"/>
<path d="M634.415 608.261H687.475V558.05H634.415V608.261Z" fill="#D1DAED" stroke="#3B65EE" stroke-width="2" stroke-linecap="round" stroke-linejoin="round"/>
<path d="M938.414 608.261H893.35V658.471H938.414V608.261Z" fill="#D1DAED" stroke="#3B65EE" stroke-width="2" stroke-linecap="round" stroke-linejoin="round"/>
<path d="M834.519 658.449H893.35V608.239H834.519V658.449Z" fill="#D1DAED" stroke="#3B65EE" stroke-width="2" stroke-linecap="round" stroke-linejoin="round"/>
<path d="M775.689 658.449H834.52V608.239H775.689V658.449Z" fill="#D1DAED" stroke="#3B65EE" stroke-width="2" stroke-linecap="round" stroke-linejoin="round"/>
<path d="M716.858 658.449H775.689V608.239H716.858V658.449Z" fill="#D1DAED" stroke="#3B65EE" stroke-width="2" stroke-linecap="round" stroke-linejoin="round"/>
<path d="M658.05 658.449H716.881V608.239H658.05V658.449Z" fill="#D1DAED" stroke="#3B65EE" stroke-width="2" stroke-linecap="round" stroke-linejoin="round"/>
<path d="M634.416 658.449H658.049V608.239H634.416V658.449Z" fill="#D1DAED" stroke="#3B65EE" stroke-width="2" stroke-linecap="round" stroke-linejoin="round"/>
<path d="M434.158 490.266V457.651H311.607V490.266H434.158Z" fill="#D1DAED" stroke="#3B65EE" stroke-width="2" stroke-linecap="round" stroke-linejoin="round"/>
<path d="M434.135 457.651H410.986V490.266H434.135V457.651Z" fill="#B0C3EA"/>
<path d="M434.158 490.266V457.651H311.607V490.266H434.158Z" stroke="#3B65EE" stroke-width="2" stroke-linecap="round" stroke-linejoin="round"/>
<path d="M601.817 407.44H501.402V507.839H601.817V407.44Z" fill="#B0C3EA" stroke="#3B65EE" stroke-width="2" stroke-linecap="round" stroke-linejoin="round"/>
<path d="M534.044 407.44H501.424V507.839H534.044V407.44Z" fill="#D1DAED" stroke="#3B65EE" stroke-width="2" stroke-linecap="round" stroke-linejoin="round"/>
</svg>
