<svg width="100" height="84" viewBox="0 0 100 84" fill="none" xmlns="http://www.w3.org/2000/svg">
<g clip-path="url(#clip0_9_489)">
<path d="M0.709961 46.36L0.959961 12.41C0.959961 12.41 75.62 15.48 95.07 23.9L0.709961 46.36Z" fill="white" stroke="#3B65EE" stroke-width="1.43" stroke-linecap="round" stroke-linejoin="round"/>
<path d="M0.709961 46.36V50.87L92.57 33.23L95.07 23.9L0.709961 46.36Z" fill="white" stroke="#3B65EE" stroke-width="1.43" stroke-linecap="round" stroke-linejoin="round"/>
<path d="M0.709961 50.87L0.949961 83.24L81.94 68.79C81.94 68.79 83.69 67.62 84.34 65.44C84.99 63.26 92.56 33.23 92.56 33.23L0.709961 50.87Z" fill="white" stroke="#3B65EE" stroke-width="1.43" stroke-linecap="round" stroke-linejoin="round"/>
<path d="M0.959961 12.41V0.939999C0.959961 0.939999 10.72 0.839999 13.81 5.15C13.81 5.15 34.05 -6.78 45.71 8.48C45.71 8.48 63.57 -6.3 78.09 14.19C78.09 14.19 86.44 9.18 94.05 11.46C101.66 13.74 97.52 23.57 95.07 23.89C95.07 23.89 78.82 16.31 0.959961 12.4V12.41Z" fill="white" stroke="#3B65EE" stroke-width="1.43" stroke-linecap="round" stroke-linejoin="round"/>
<path opacity="0.2" d="M0.709961 46.36V50.87L92.57 33.23L95.07 23.9L0.709961 46.36Z" fill="#3B65EE"/>
<path opacity="0.2" d="M0.709961 50.87L0.949961 83.24L81.94 68.79C81.94 68.79 83.69 67.62 84.34 65.44C84.99 63.26 92.56 33.23 92.56 33.23L0.709961 50.87Z" fill="#3B65EE"/>
<path d="M74.9999 52.07C75.6572 52.07 76.1899 51.5372 76.1899 50.88C76.1899 50.2228 75.6572 49.69 74.9999 49.69C74.3427 49.69 73.8099 50.2228 73.8099 50.88C73.8099 51.5372 74.3427 52.07 74.9999 52.07Z" fill="#3B65EE"/>
<path d="M69.28 60.64C69.9372 60.64 70.47 60.1072 70.47 59.45C70.47 58.7928 69.9372 58.26 69.28 58.26C68.6227 58.26 68.09 58.7928 68.09 59.45C68.09 60.1072 68.6227 60.64 69.28 60.64Z" fill="#3B65EE"/>
<path d="M71.66 63.02C72.3172 63.02 72.85 62.4872 72.85 61.83C72.85 61.1728 72.3172 60.64 71.66 60.64C71.0028 60.64 70.47 61.1728 70.47 61.83C70.47 62.4872 71.0028 63.02 71.66 63.02Z" fill="#3B65EE"/>
<path opacity="0.2" d="M1.02996 6.49999C1.02996 6.49999 10.95 4.45 13.81 10.64C13.81 10.64 32.99 -2.71001 44.59 12.3C44.59 12.3 68.09 4.57999 76.19 16.9C76.19 16.9 102.42 9.86999 93.35 22.64C93.35 22.64 23.82 10.37 0.959961 12.41L1.02996 6.50999V6.49999Z" fill="#3B65EE"/>
<path opacity="0.2" d="M22.33 31.52C26.5439 31.52 29.96 30.9514 29.96 30.25C29.96 29.5486 26.5439 28.98 22.33 28.98C18.116 28.98 14.7 29.5486 14.7 30.25C14.7 30.9514 18.116 31.52 22.33 31.52Z" fill="#3B65EE"/>
<path d="M23.15 29.99C26.0053 29.99 28.32 27.6753 28.32 24.82C28.32 21.9647 26.0053 19.65 23.15 19.65C20.2947 19.65 17.98 21.9647 17.98 24.82C17.98 27.6753 20.2947 29.99 23.15 29.99Z" fill="white" stroke="#3B65EE" stroke-width="0.85" stroke-linecap="round" stroke-linejoin="round"/>
<path d="M23.35 22.09C23.42 23.9 22.77 25.37 22.19 27.01C21.45 25.37 22.22 23.39 23.35 22.09Z" fill="#3B65EE"/>
<path d="M20.96 23.85C22.05 22.56 24.37 23.05 25.12 24.47C23.62 24.23 22.54 23.89 20.96 23.85Z" fill="#3B65EE"/>
</g>
<defs>
<clipPath id="clip0_9_489">
<rect width="99.13" height="83.95" fill="white"/>
</clipPath>
</defs>
</svg>
