<?xml version="1.0" encoding="UTF-8"?>
<svg id="Layer_2" data-name="Layer 2" xmlns="http://www.w3.org/2000/svg" viewBox="0 0 441.56 416.96">
  <defs>
    <style>
      .cls-1, .cls-2 {
        fill: #3b65ef;
      }

      .cls-3, .cls-4 {
        stroke-width: 4px;
      }

      .cls-3, .cls-4, .cls-5, .cls-6, .cls-7 {
        fill: none;
      }

      .cls-3, .cls-4, .cls-6, .cls-8, .cls-9, .cls-7 {
        stroke: #3b65ee;
      }

      .cls-3, .cls-6 {
        stroke-linecap: round;
      }

      .cls-3, .cls-6, .cls-8, .cls-7 {
        stroke-linejoin: round;
      }

      .cls-2, .cls-10 {
        opacity: .2;
      }

      .cls-4, .cls-5, .cls-9, .cls-11 {
        stroke-miterlimit: 10;
      }

      .cls-12, .cls-10 {
        fill: #3b65ee;
      }

      .cls-5, .cls-8, .cls-9, .cls-7, .cls-11 {
        stroke-width: 2px;
      }

      .cls-5, .cls-11 {
        stroke: #3b65ef;
      }

      .cls-13, .cls-8, .cls-9, .cls-11 {
        fill: #fff;
      }

      .cls-6 {
        stroke-width: 1.05px;
      }
    </style>
  </defs>
  <g id="Layer_2-2" data-name="Layer 2">
    <g>
      <path class="cls-2" d="M83.42,204.41s-8.89-3-7.21-11c1.68-8,11.13-18.48,16.12-16.12,5.78,2.73,6.86,15.14,2.72,22.85-3.9,7.27-11.63,4.27-11.63,4.27Z"/>
      <g>
        <path class="cls-11" d="M53.74,220.63s-8.58,3.79-12.74-3.24-4.27-21.15,1-22.78c6.11-1.89,15.28,6.53,17.44,15.01,2.03,8-5.69,11-5.69,11Z"/>
        <polyline class="cls-5" points="38.44 210.04 42.06 202.46 49.68 203.48 51.39 197.55"/>
        <polyline class="cls-5" points="42.78 218.86 46.58 210.04 53.06 211.46 57.29 204.49"/>
      </g>
      <g>
        <path class="cls-11" d="M167.72,336.22s-2.5,9.04-10.58,7.81c-8.08-1.23-19.07-10.08-17-15.19,2.41-5.93,14.73-7.7,22.66-3.99,7.48,3.49,4.91,11.37,4.91,11.37Z"/>
        <polyline class="cls-5" points="149.84 341.35 146.27 333.75 151.89 328.5 148.38 323.42"/>
        <polyline class="cls-5" points="159.42 343.58 154.99 335.05 160.2 330.93 157.48 323.24"/>
      </g>
      <g>
        <path class="cls-11" d="M105.65,317.83s-3.74-8.6,3.32-12.72c7.06-4.12,21.17-4.13,22.77,1.15,1.85,6.12-6.63,15.24-15.13,17.34-8.01,1.98-10.97-5.76-10.97-5.76Z"/>
        <circle class="cls-1" cx="116.56" cy="306.96" r="3.5"/>
        <circle class="cls-1" cx="127.56" cy="310.96" r="3.5"/>
        <circle class="cls-1" cx="115.06" cy="318.46" r="4"/>
      </g>
      <g>
        <path class="cls-11" d="M55.22,179.8s-5.73-7.43.1-13.15c5.83-5.72,19.52-9.2,22.36-4.47,3.29,5.48-2.69,16.4-10.41,20.52-7.28,3.88-12.04-2.9-12.04-2.9Z"/>
        <path class="cls-5" d="M54.3,167.82s7.93,4.52,11.35,15.58"/>
        <path class="cls-5" d="M58.79,164.01s10.01,4.8,12.15,16.12"/>
        <path class="cls-5" d="M65.65,161.01s8.27,3.23,9.84,13.84"/>
      </g>
      <g>
        <path class="cls-12" d="M20.63,266.11c12.5-13.22,27.37-24.2,42.52-34.19,24.64-17.67,50.38-34.21,78.45-45.92-9.69,6.04-21.41,11.79-31.61,17.98-14.33,8.2-29.02,16.66-42.76,25.84-5.99,4.15-12.42,9.17-18.08,13.76-9.53,7.19-19.42,15.66-28.52,22.54h0Z"/>
        <path class="cls-10" d="M22.7,265.18s34.37-33.5,96.35-67.39c7.77-4.25,15.97-8.5,24.6-12.7,0,0-83.03,65.04-120.95,80.09Z"/>
        <path class="cls-9" d="M143.26,193.31c2.17,3.54,2.46,11.36,2.46,11.36,5.99,8,7.35,20.84,7.35,20.84,6.48,9.18,5.57,17.14,5.57,17.14,0,0-5.59,10.03-42.07,33.63-36.48,23.6-49.13,23.83-49.13,23.83-6.72-2.08-13.52-11.43-13.52-11.43-8.61-2.17-15.49-12.69-15.49-12.69-4.57-1.54-8-6.6-8-6.6l-1.5-3.2,64.8-39.95,33.83-24.93,13.74-11.3,1.96,3.29Z"/>
        <path class="cls-10" d="M111.97,212.81l-18.24,13.45-8.74,5.39c-16.35,11.02-34.44,22.47-51.91,32.01l-4.14,2.55,1.5,3.2s.66.97,1.78,2.19c1.33-.97,2.87-2.3,4.67-4.11,0,0,10.29-.35,15.74-10.31,0,0,11.35-.07,19.11-10.19,0,0,12.59-2.03,19.19-12.06,0,0,11.15-2.25,15.33-10.91,0,0,11.93-1.7,16.06-10.87,0,0,12.78-2.75,15.12-12.37,0,0,4.75-2.36,6.74-5.45-.26-.75-.56-1.44-.91-2.02l-1.6-2.68c-3.92,3.05-14.87,11.49-29.69,22.18Z"/>
        <path class="cls-9" d="M21.23,267.08s-.93,12.74,12.83-.96c0,0,10.41-.42,15.99-10.46,0,0,11.48-.15,19.4-10.36,0,0,12.74-2.12,19.5-12.24,0,0,11.29-2.34,15.58-11.06,0,0,12.08-1.79,16.32-11.02,0,0,12.94-2.85,15.38-12.53,0,0,12.21-6.07,5.94-11.46,0,0-65.71,51.7-120.95,80.09Z"/>
        <path class="cls-12" d="M41.85,274.58s60.63-30.09,101.09-66.41c0,0-31.4,35.18-101.09,66.41Z"/>
        <path class="cls-12" d="M56,286.54s58.65-28.3,92.28-58.72c0,0-24.38,28.56-92.28,58.72Z"/>
        <path class="cls-12" d="M49.15,260.78s1.38,5.06,5.57,6.63"/>
        <path class="cls-12" d="M56.84,269.59s2.67,7.54,9.15,10.58"/>
        <path class="cls-12" d="M69.43,283.52s3.23,7.32,9.92,9.86"/>
        <path class="cls-12" d="M71.42,247.49s1.71,4.46,4.66,6.36"/>
        <path class="cls-12" d="M79.21,258.07s2.51,6.58,7.75,10.08"/>
        <path class="cls-12" d="M89.74,272.81s3.68,9.07,8.25,10.6"/>
        <g>
          <line class="cls-12" x1="89.88" y1="235.39" x2="94.89" y2="242.62"/>
          <path class="cls-12" d="M89.88,235.39c1.96,2.2,3.64,4.63,5.01,7.24-1.96-2.2-3.63-4.62-5.01-7.24h0Z"/>
        </g>
        <g>
          <line class="cls-12" x1="97.9" y1="247.53" x2="104.51" y2="257.59"/>
          <path class="cls-12" d="M97.9,247.53c2.8,2.96,5.02,6.32,6.61,10.06-2.8-2.95-5.01-6.32-6.61-10.06h0Z"/>
        </g>
        <g>
          <line class="cls-12" x1="108.13" y1="262.13" x2="115.1" y2="273.81"/>
          <path class="cls-12" d="M108.13,262.13c2.94,3.52,5.27,7.42,6.97,11.68-2.94-3.52-5.26-7.42-6.97-11.68h0Z"/>
        </g>
        <path class="cls-12" d="M109.44,222.98s3.04,3.06,3.3,6.56"/>
        <path class="cls-12" d="M115.06,235.46s5.01,7.37,5.98,11.05"/>
        <path class="cls-12" d="M123.65,252.58s4.28,4.44,5.17,10.01"/>
        <path class="cls-12" d="M124.18,212.96s2.86,3.77,2.85,6.83"/>
        <path class="cls-12" d="M129.53,225s4.92,6.2,4.64,11.85"/>
        <path class="cls-12" d="M136.79,243.32s4.71,6.82,3.8,10.41"/>
        <path class="cls-12" d="M149.19,232.83s4.12,5.29,3.09,8.49"/>
        <path class="cls-12" d="M139.21,201.92s2.66,2.92,2.38,5.52"/>
        <path class="cls-12" d="M143.09,216.3s4.03,3.92,3.04,7.93"/>
        <path class="cls-12" d="M36.66,269.45s1.16,2.96,3.58,3.96"/>
        <path class="cls-12" d="M45.31,278.3s4.15,6.05,7.15,6.7"/>
        <path class="cls-12" d="M59.13,290.77s3.22,5.39,6.09,6.12"/>
        <path class="cls-6" d="M141.91,186.54s-83.03,65.04-120.95,80.09"/>
        <path class="cls-8" d="M32.28,261.17s-69.18-69.05-1.77-118.41c9.74-7.14,29.65-17.69,53.59-11.26,0,0-25.61-.47-48.3,16.03-23.37,16.99-48.64,55.02-.21,111.81l-3.3,1.83Z"/>
        <path class="cls-7" d="M71.53,132.9s38.35,4.56,57.18,59.08l4.76-2.23s-20.05-55.04-54.13-59.07l-7.81,2.22Z"/>
        <path class="cls-10" d="M71.53,133.9s38.35,4.56,57.18,59.08l4.76-2.23s-20.05-55.04-54.13-59.07l-7.81,2.22Z"/>
        <path class="cls-10" d="M88.11,139.14c-9.54-5.27-16.58-6.24-16.58-6.24l7.81-2.22c5.86.69,13.35,4.1,18.37,7.31l-9.6,1.15Z"/>
      </g>
      <g>
        <path class="cls-13" d="M155.3,281.47c-.52-1.18-.7-2.48-.52-3.75s.73-2.47,1.57-3.44c52.36-63.4,53.18-165.08,53.33-166.13-.01-1.03.23-2.05.69-2.97.47-.92,1.15-1.72,1.99-2.32.86-.59,1.84-.98,2.88-1.16,1.03-.18,2.09-.13,3.1.14,98.09,28.78,158.44,23.32,159.02,23.41,1.69-.22,3.4.2,4.79,1.17,1.4.97,2.38,2.43,2.75,4.09,29.42,110.16-44.82,217.28-47.98,221.79-.76,1.03-1.78,1.84-2.96,2.33-1.18.49-2.48.66-3.75.47-148.78-21.9-174.07-71.37-174.92-73.63Z"/>
        <path class="cls-12" d="M149.63,283.98c-.55-1.23-.74-2.59-.54-3.93.2-1.33.77-2.58,1.65-3.61,54.84-66.41,55.7-172.91,55.86-174-.01-1.08.24-2.15.73-3.11.49-.96,1.2-1.8,2.08-2.43.9-.61,1.93-1.03,3.01-1.21,1.08-.18,2.19-.13,3.24.15,102.74,30.14,165.95,24.43,166.56,24.52,1.77-.23,3.56.21,5.02,1.22,1.46,1.02,2.49,2.55,2.88,4.28,30.82,115.38-46.94,227.57-50.25,232.3-.79,1.08-1.87,1.93-3.1,2.44-1.24.52-2.6.69-3.92.49-155.83-22.94-182.31-74.75-183.21-77.11ZM215.26,105.61c-1.68,29.23-10.17,113.98-58.91,176.38,9.46,11.61,51.06,51.52,177.23,70.88,13.43-20.69,73.48-121.65,49.65-223.03-56.09.43-114.36-7.75-167.97-24.23Z"/>
        <path class="cls-12" d="M305.76,225.41c8.48,1.25,16.36-4.59,17.61-13.05,1.24-8.45-4.62-16.32-13.1-17.57-8.48-1.25-16.36,4.59-17.6,13.05-1.24,8.45,4.62,16.32,13.1,17.57Z"/>
        <path class="cls-12" d="M259.58,218.61c8.48,1.25,16.36-4.59,17.61-13.05,1.24-8.45-4.62-16.32-13.1-17.57-8.48-1.25-16.36,4.59-17.61,13.05-1.24,8.45,4.62,16.32,13.1,17.57Z"/>
        <path class="cls-12" d="M225.5,219.31l-.97-.14c-1.55-.3-3.16.03-4.48.9-1.32.87-2.23,2.23-2.56,3.77-3.11,14.67-.99,29.96,6.02,43.23,7,13.27,18.44,23.69,32.33,29.44,15.81,6.82,33.69,7.13,49.72.86,16.03-6.27,28.93-18.6,35.87-34.32.24-.8.32-1.63.23-2.46-.09-.83-.34-1.63-.74-2.36-.4-.73-.95-1.37-1.6-1.89-.65-.52-1.41-.9-2.21-1.12l-111.6-35.91Z"/>
      </g>
      <path class="cls-12" d="M219.89,194.63c-9.56-4.85-18.58-10.59-27.46-16.55-8.81-6.08-17.49-12.34-25.37-19.62,9.16,5.23,18.3,11.24,27.06,17.14,8.7,6,17.66,12.27,25.77,19.03h0Z"/>
      <path class="cls-12" d="M211.25,203.59c-8.69-2.62-16.97-6.25-25.16-10.12-8.13-3.97-16.13-8.24-23.52-13.51,8.5,3.15,16.67,6.92,24.82,10.81,8.02,3.94,16.28,8.07,23.86,12.82h0Z"/>
      <path class="cls-12" d="M207.35,212.49c-8.38-.32-16.6-1.74-24.79-3.42-8.16-1.78-16.25-3.92-24-7.11,8.32.88,16.46,2.48,24.62,4.18,8.05,1.79,16.35,3.7,24.16,6.35h0Z"/>
      <path class="cls-12" d="M369.94,223.69c10.42-1.64,21.35-2.43,31.89-3.12,10.55-.56,21.46-1.04,32.02-.83-10.5,2.2-21.16,3.13-31.84,3.82-10.68.56-21.37.86-32.06.12h0Z"/>
      <path class="cls-12" d="M372.77,235.82c8.93-.19,18.15.5,27.06,1.23,9,.84,17.94,1.8,26.85,3.46-9.05.73-18.1.3-27.12-.47-9.01-.88-17.98-2.01-26.79-4.22h0Z"/>
      <path class="cls-12" d="M371.55,245.46c8.06,1.73,16.18,4.35,24,6.94,7.88,2.73,15.68,5.53,23.28,9.04-8.29-1.23-16.33-3.55-24.25-6.2-7.89-2.76-15.67-5.76-23.03-9.78h0Z"/>
      <path class="cls-12" d="M369.94,327.32c24.65,15.63,47.2,34.57,67.59,55.41,1.36,1.39,2.7,2.8,4.03,4.22-23.01-20.32-47.3-41.02-71.62-59.64h0Z"/>
      <path class="cls-12" d="M383.56,295.96c11.14,8.26,21.49,17.56,31.33,27.33,9.76,9.84,19,20.31,26.67,31.88-17.79-21.22-37.8-40.32-58-59.21h0Z"/>
      <ellipse class="cls-10" cx="310.06" cy="408.46" rx="76.5" ry="8.5"/>
      <path class="cls-12" d="M389.93,313.95c2.65-5.26,6.52-9.87,11.27-13.36-2.64,5.27-6.53,9.86-11.27,13.36h0Z"/>
      <path class="cls-3" d="M297.56,117.96S369.56-2.04,420.56,25.96s-109.28,96.47-109.28,96.47l-13.72-4.47Z"/>
      <path class="cls-10" d="M301.43,119.22s52.63-65.76,73.63-57.76-67.05,57.76-67.05,57.76h-6.58Z"/>
      <path class="cls-4" d="M294.06,117.46s8.55-127.93-32.23-114.47,21.75,114.47,21.75,114.47h10.48Z"/>
      <path class="cls-10" d="M290.56,114.96s-4.29-78.39-19.14-74.69c-14.86,3.69,15.58,74.69,15.58,74.69h3.56Z"/>
      <path class="cls-12" d="M301.43,119.22c15.37-19.22,38.68-46.86,60.96-57.31,3.83-1.59,8.12-2.82,12.3-1.6,4.05,1.05,5.71,4.43,3.77,8.22-2.35,4.63-6.36,8.14-10.09,11.5-6.1,5.27-12.6,9.97-19.22,14.49-13.31,8.92-27.03,17.17-41.06,24.84-2.26.02-4.5-.14-6.66-.14h0ZM301.43,119.22c2.1.02,4.81-.17,6.5-.14,6.87-4.07,13.63-8.35,20.37-12.62,6.73-4.29,13.4-8.7,19.91-13.3,9.54-6.93,19.74-13.7,27.03-23.03,1.07-1.54,2.06-3.3,2.04-4.87-.4-3.6-5.81-3.75-8.66-3.28-5.76,1.08-10.93,4.19-15.79,7.44-19.47,13.88-35.72,31.87-51.42,49.8h0Z"/>
      <path class="cls-12" d="M290.56,114.96c-1.24-13.25-2.71-26.5-4.9-39.62-1.8-9.7-3.37-19.68-7.56-28.63-3.48-7.7-9.54-7.56-9.78,1.52-.08,9.87,2.94,19.55,5.61,29.02,1.88,6.37,3.99,12.68,6.22,18.95,2.1,6.15,4.8,12.92,6.85,18.66,0,0,3.56.11,3.56.11h0ZM290.56,114.96l-3.56.11s-.07,0-.07,0c0,0-.03-.07-.03-.07-5.48-12.15-10.36-24.58-14.51-37.29-2.92-9.6-5.98-19.4-6-29.57.11-2.61.47-5.67,2.55-7.66,1.52-1.41,3.94-1.72,5.76-.78,12.52,7.2,15.29,60.35,15.87,75.25h0Z"/>
    </g>
  </g>
</svg>