<?xml version="1.0" encoding="UTF-8"?><svg id="Layer_2" xmlns="http://www.w3.org/2000/svg" viewBox="0 0 234.99 309.41"><defs><style>.cls-1{fill:#0069ff;}.cls-2{fill:#66a5ff;}.cls-3{fill:#fff;}.cls-4{fill:#dae6ff;}</style></defs><g id="Layer_1-2"><path class="cls-3" d="m116.54,2.54c7.92-.36,19.33,2,25.92,3.77,9.54,2.56,18.31,8.33,26.03,14.2,16.85,12.81,27.7,44.73,18.8,64.7-2.11,4.73-3.76,5.44-2.42,10.58,1.03,3.95,1.88,8.02,2.08,12.07.42,8.85-2.11,19.87-10.92,23.99-1.81.84-3.52.7-5.34,1.22-3.5.99-2.27-.69-3.87,2.92s-1.1,7.31-1.66,10.96c-.98,6.46-1.06,14.81-4.47,20.56-5.27,8.88-15.17,16.77-23.79,22.25-4.29,2.73-13.68,7.85-18.89,7.57h.13c-5.21.29-14.6-4.84-18.89-7.57-8.62-5.48-18.52-13.37-23.79-22.25-3.41-5.75-3.49-14.1-4.47-20.56-.55-3.65-.11-7.47-1.66-10.96s-.38-1.93-3.87-2.92c-1.81-.51-3.53-.37-5.34-1.22-8.81-4.12-11.34-15.14-10.92-23.99.19-4.06,1.04-8.12,2.08-12.07,1.34-5.14-.31-5.85-2.42-10.58-8.9-19.98,1.94-51.89,18.8-64.7,7.72-5.87,16.49-11.64,26.03-14.2,6.59-1.77,16.94-4.13,24.86-3.77h-2.02Z"/><path class="cls-1" d="m118.44,199.84c-.12,0-.24,0-.36,0-6.9.23-17.99-6.58-20.17-7.96-7.99-5.08-18.74-13.2-24.6-23.08-2.88-4.86-3.59-11.18-4.21-16.76-.19-1.66-.36-3.24-.58-4.7-.2-1.33-.28-2.65-.36-3.92-.14-2.31-.27-4.49-1.12-6.4-.2-.46-.36-.83-.49-1.14-.45-.07-1.04-.18-1.78-.39-.56-.16-1.16-.24-1.8-.33-1.17-.17-2.49-.36-3.92-1.02-9.82-4.59-12.82-16.63-12.35-26.37.18-3.67.84-7.56,2.16-12.59.78-2.97.41-3.66-.81-5.96-.42-.79-.94-1.76-1.47-2.97-9.74-21.86,2.74-54.92,19.57-67.71,7.01-5.33,16.4-11.8,26.9-14.62C100,2.03,109.72-.1,117.54,0c9.95-.15,22.98,3.19,25.58,3.88,10.5,2.82,19.89,9.3,26.9,14.62,16.83,12.79,29.31,45.85,19.57,67.71-.54,1.21-1.06,2.19-1.47,2.97-1.22,2.3-1.59,2.99-.81,5.96,1.31,5.03,1.98,8.91,2.16,12.58.47,9.74-2.53,21.78-12.35,26.37-1.43.67-2.75.86-3.92,1.02-.64.09-1.24.18-1.8.33-.74.21-1.33.32-1.78.39-.13.31-.29.69-.49,1.14-.85,1.91-.98,4.09-1.12,6.4-.08,1.27-.15,2.59-.36,3.92-.22,1.47-.4,3.04-.58,4.7-.62,5.58-1.32,11.89-4.21,16.76-5.86,9.88-16.61,18.01-24.6,23.08-2.14,1.36-12.9,7.97-19.81,7.97Zm-.05-5c3.8.02,11.44-3.54,17.18-7.19,6.16-3.92,17.34-11.9,22.98-21.41,2.33-3.94,2.95-9.44,3.54-14.76.19-1.71.37-3.33.61-4.9.17-1.11.24-2.25.31-3.47.16-2.65.32-5.39,1.54-8.13.22-.5.39-.9.52-1.21.57-1.35,1.1-2.63,3.32-2.8.33-.03.78-.06,1.64-.3.88-.25,1.71-.37,2.45-.47.94-.13,1.75-.25,2.51-.6,7.58-3.54,9.87-13.48,9.48-21.6-.16-3.31-.78-6.88-2-11.56-1.21-4.62-.32-6.64,1.23-9.57.4-.76.86-1.61,1.32-2.67,8.6-19.31-2.72-50.06-18.03-61.7-6.64-5.05-15.51-11.18-25.17-13.77-6.37-1.71-15.78-3.59-22.87-3.71-.13.02-.25.03-.39.03h-2.02c-.13,0-.26-.01-.39-.03-7,.13-15.56,2.04-21.8,3.71-9.66,2.59-18.52,8.72-25.17,13.77-15.3,11.63-26.63,42.39-18.03,61.7.47,1.05.92,1.91,1.32,2.67,1.55,2.92,2.44,4.95,1.23,9.56-1.22,4.68-1.84,8.25-2,11.56-.39,8.12,1.9,18.06,9.48,21.6.75.35,1.57.47,2.51.6.74.1,1.57.22,2.45.47.85.24,1.31.28,1.64.3,2.22.17,2.75,1.45,3.32,2.8.13.31.3.71.52,1.21,1.22,2.74,1.38,5.48,1.54,8.13.07,1.21.14,2.36.31,3.47.24,1.56.42,3.18.61,4.9.59,5.32,1.21,10.82,3.54,14.76,5.64,9.51,16.82,17.5,22.98,21.41,5.7,3.62,13.3,7.19,17.11,7.19.02,0,.05,0,.07,0,.08,0,.16-.01.24-.01h.13c.08,0,.16,0,.24.01Z"/><path class="cls-2" d="m93.23,63.78c-5.25-6.77-19.55-2.23-23.32,4.14-4.16,7.04-6.33,19-4.78,27.22,2.05,10.85,11.97,14.98,21.79,11.38,9.3-3.41,14.27-10.47,14.83-19.97.49-8.32-1.98-15.4-8.53-22.78"/><path class="cls-1" d="m80.06,110.29c-3.22,0-6.29-.76-8.95-2.27-4.4-2.5-7.39-6.91-8.43-12.42-1.66-8.8.52-21.25,5.08-28.96,2.69-4.54,9.67-8.28,16.25-8.69,4.81-.3,8.76,1.2,11.14,4.22,6.84,7.73,9.65,15.3,9.1,24.53-.63,10.63-6.47,18.51-16.46,22.17-2.58.95-5.2,1.42-7.73,1.42Zm5.11-47.37c-.31,0-.59.01-.85.03-4.9.31-10.4,3.11-12.26,6.25-3.88,6.56-5.88,18-4.47,25.49.77,4.1,2.84,7.21,5.99,8.99,3.46,1.96,8.01,2.15,12.49.5,8.12-2.98,12.68-9.12,13.19-17.77.46-7.83-1.98-14.3-7.9-20.97-.04-.04-.07-.08-.11-.13-1.54-1.99-4.21-2.39-6.08-2.39Z"/><path class="cls-2" d="m155.64,61.95c-19.32-.77-28.21,23.16-17.25,37.74,14.02,18.66,38.14,4.24,33.53-16.81-1.8-8.21-5.88-20.52-16.29-20.93"/><path class="cls-1" d="m153.81,110.81c-5.76,0-12.11-2.56-17.41-9.62-6.21-8.26-7.03-19.69-2.08-29.11,4.34-8.27,12.35-13,21.43-12.63h0c9.11.36,15.38,8.06,18.63,22.89,2.46,11.25-2.58,22.21-12.27,26.65-2.45,1.12-5.29,1.82-8.3,1.82Zm.94-46.38c-6.86,0-12.67,3.6-16.01,9.97-3.99,7.6-3.32,17.16,1.65,23.79,5.34,7.11,12.68,9.44,19.63,6.26,8.79-4.03,11.07-13.73,9.47-21.04-2.7-12.33-7.39-18.71-13.94-18.96h0c-.27-.01-.53-.02-.79-.02Z"/><path class="cls-2" d="m119.89,97.7c-5.01-2.96-14.25,10.79-16.42,14.69-2.97,5.35-3.75,14.15,4.4,9.34,3.37-1.99,4.04-5.88,7.62-3.22,1.11.82-.06,3.25,1.42,3.84,3.01,1.2,2.27-2.02,3.59-3.09,5.1-4.13,1.59,1.27,6.86,3.45,4.31,1.78,5.22-1.61,4.85-4.93-.67-5.94-6.2-16.57-11.32-19.59"/><path class="cls-1" d="m129.46,125.71c-.87,0-1.89-.19-3.07-.68-2.42-1-3.59-2.59-4.22-3.87-.06.14-.13.36-.18.52-.3.89-.79,2.39-2.33,3.1-1.06.49-2.29.46-3.68-.09-2.31-.92-2.39-3.25-2.43-4.24,0-.06,0-.14,0-.21-.06-.03-.12-.06-.15-.08-.26.18-.71.66-1.05,1.02-.8.84-1.79,1.89-3.2,2.73-4.63,2.74-7.22,1.73-8.58.41-3.12-3.04-1.27-9.51.73-13.12.08-.14,8.15-14.21,15.31-16.15,2.09-.57,3.64-.03,4.57.52.11.06.21.14.31.21.23.06.46.15.67.27,5.84,3.44,11.77,14.68,12.54,21.46.37,3.32-.4,5.88-2.19,7.23-.67.51-1.66.97-3.03.97Zm-6.42-10.45c.28,0,.56.04.85.12,1.62.46,2.13,1.89,2.44,2.75.34.96.61,1.72,1.97,2.28.69.29,1.06.31,1.19.3.13-.22.4-1.03.21-2.64-.59-5.27-5.8-15.17-10.11-17.72-.11-.07-.21-.14-.31-.22-.23-.06-.46-.15-.67-.27-.06-.04-.22-.13-.72,0-3.62.99-9.81,9.35-12.25,13.75-1.68,3.02-2,6.14-1.65,7.02.29-.01,1.08-.15,2.59-1.04.81-.48,1.47-1.18,2.11-1.86,1.43-1.51,4.09-4.33,8.27-1.22.61.46.98,1.02,1.21,1.59.2-.27.44-.53.73-.77,1.35-1.1,2.69-2.07,4.12-2.07Z"/><path class="cls-3" d="m18.99,277.46c-13.01-4.62-23.06-32.79-1.96-30.34,3.79.44,6,.98,9.31,3.18,1.55,1.02,4.95,5.82,6.35,6.15,2.68.63,14.7-6.89,18.62-8.48,15.85-6.44,31.15-15.49,46.53-22.9,18.4-8.87,37.91-18.42,54.61-30.09,7.71-5.38,15.38-13.06,23.47-17.64,3.41-1.93,7.09-2.99,10.43-5.17,3.95-2.57,7.45-6.7,11.41-8.83l.49-.49c-9.71-10.83-1.62-26.77,12.96-26.45,12.75.28,22.79,8.63,21.08,21.78-1.11,8.54-4.36,12.87-13.1,14.32,11.55,6.25,13.95,27.07.12,32.6-6.35,2.54-12.94-1.58-19.37-1.6s-12.59,2.66-18.87,4.66c-31.71,10.1-61.21,26.96-89.7,43.82-8.25,4.88-16.31,10.21-24.58,15.01-5.78,3.36-13.16,13.49-19.69,13.95,3.43,12.42-9.16,30.91-20.98,17.6-7.54-8.49-8.06-21.97-4.67-32.35"/><path class="cls-1" d="m34.71,305.66c-3.64,0-7.27-1.85-10.47-5.45-5.27-5.94-7.24-13.59-7.3-20.88-9.02-4.1-16.35-17.44-14.24-26.5.67-2.89,3.44-9.48,14.62-8.19,4.11.48,6.72,1.13,10.4,3.58.94.62,2,1.82,3.23,3.2.7.79,1.8,2.03,2.4,2.54,1.93-.35,7.65-3.44,10.8-5.14,2.57-1.39,4.79-2.58,6.23-3.17,9.92-4.03,19.8-9.19,29.36-14.18,5.57-2.91,11.34-5.92,17.03-8.66,20.23-9.75,38.28-18.72,54.27-29.89,3.03-2.12,6.02-4.57,9.19-7.16,4.65-3.82,9.47-7.76,14.48-10.6,1.61-.91,3.25-1.63,4.83-2.33,1.94-.85,3.77-1.65,5.47-2.76,1.62-1.06,3.19-2.42,4.85-3.86,1.55-1.35,3.14-2.74,4.83-3.9-3.54-5.28-4.15-11.77-1.52-17.49,3.18-6.91,10.12-11.08,18.12-10.91,7.74.17,14.65,3.14,18.94,8.13,3.81,4.44,5.39,10.14,4.57,16.47-1.05,8.08-4.06,12.74-10.04,15.1,4.35,4.42,6.91,11.09,6.52,17.77-.44,7.58-4.45,13.43-11.01,16.05-4.67,1.87-9.36.73-13.5-.28-2.4-.58-4.66-1.14-6.81-1.14h-.07c-4.81,0-9.26,1.54-13.98,3.18-1.34.46-2.68.93-4.05,1.36-31.01,9.88-59.88,26.26-89.19,43.59-3.8,2.25-7.64,4.64-11.36,6.96-4.31,2.69-8.78,5.47-13.25,8.07-1.92,1.12-4.18,3.2-6.58,5.41-3.69,3.41-7.49,6.91-11.45,8.28,1.04,8.25-3.14,17.73-9.79,21.35-1.8.98-3.65,1.46-5.51,1.46Zm-13.27-41.96c.26,0,.52.04.78.12,1.31.43,2.03,1.84,1.6,3.15-3,9.18-2.87,21.99,4.16,29.91,3.29,3.7,6.61,4.69,9.85,2.92,5.31-2.89,8.64-11.73,6.85-18.2-.2-.72-.06-1.5.37-2.11.43-.61,1.12-1,1.87-1.05,3.22-.23,7.43-4.12,11.15-7.55,2.6-2.4,5.06-4.67,7.46-6.06,4.4-2.56,8.83-5.32,13.11-7.99,3.74-2.33,7.6-4.74,11.46-7.02,29.56-17.48,58.71-34.01,90.22-44.05,1.32-.42,2.63-.87,3.93-1.32,4.9-1.7,9.97-3.45,15.62-3.45h.09c2.75,0,5.41.66,7.98,1.28,3.74.91,7.27,1.77,10.45.5,4.69-1.88,7.56-6.14,7.88-11.7.39-6.8-3.01-13.54-8.26-16.38-.94-.51-1.45-1.56-1.28-2.61s1-1.88,2.06-2.05c7.22-1.2,10-4.27,11.03-12.17.64-4.89-.54-9.23-3.4-12.57-3.37-3.92-8.93-6.25-15.25-6.39-5.95-.13-11.13,2.93-13.46,8-2.2,4.79-1.3,10.13,2.42,14.28.89.99.84,2.5-.09,3.44l-.49.49c-.17.17-.37.32-.58.43-1.94,1.04-3.83,2.69-5.83,4.43-1.71,1.49-3.49,3.04-5.41,4.29-2.04,1.33-4.15,2.25-6.18,3.15-1.54.67-2.99,1.31-4.38,2.1-4.64,2.63-9.28,6.44-13.78,10.12-3.1,2.54-6.3,5.17-9.49,7.4-16.29,11.38-34.53,20.45-54.96,30.29-5.62,2.71-11.35,5.7-16.89,8.59-9.66,5.04-19.65,10.25-29.79,14.38-1.18.48-3.39,1.67-5.74,2.94-7.95,4.29-11.96,6.24-14.4,5.66-1.49-.35-2.77-1.74-4.91-4.15-.73-.83-1.84-2.08-2.24-2.35-2.84-1.88-4.62-2.36-8.22-2.78-7.95-.92-8.87,3.05-9.17,4.35-1.42,6.11,3.61,15.84,9.67,19.84.36-3.02,1-5.87,1.82-8.37.34-1.05,1.32-1.72,2.38-1.72Z"/><path class="cls-3" d="m216.38,268.64c-3.01,4.18-.23,11.82.24,16.41,1.22,11.67-5.5,27.31-19.36,19.97-7.2-3.81-14.74-22.41-7.33-29.03l-1.47.98c-2.69.27-5.82-5.07-8.34-7.35-4.18-3.78-9.21-7.15-13.81-10.37-6.85-4.79-14.82-8.54-22.42-12.29-27.62-13.6-54.79-28.05-83.74-39.06-6.8-2.58-14.64-6.28-21.83-5.39-6.24.77-11.85,3.3-18.31,2.94-22.88-1.27-18.33-24.99-2-33.31l1.47-.98c-5.15-1.3-15.05-5.74-16.56-11.25-1.71-6.29,2.12-13.32,6.28-17.66,4.93-5.14,9.53-5.34,16.17-3.62,11.18,2.89,18.02,16.86,6.35,24.21l4.9-1.47c9.49,10.45,22.72,19.74,34.04,28.17,19.12,14.24,40.21,22.03,61.69,31.56,10.97,4.87,21.9,9.25,32.61,14.74,10.56,5.41,21.12,12.06,32.31,16.15l-3.92,6.86c5.27-9.26,21.93-16.22,31.84-10.81,5.53,3.02,7.91,10.42,6.49,16.2-1.33,5.42-8.19,15.67-14.32,14.69"/><path class="cls-1" d="m203.99,309.41c-2.26,0-4.9-.59-7.9-2.18-5.34-2.83-10.52-11.92-11.53-20.26-.39-3.23-.14-6.07.74-8.43-1.65-1.04-3.13-2.81-4.57-4.54-.83-.99-1.62-1.93-2.28-2.53-3.53-3.19-7.72-6.11-11.78-8.93l-1.78-1.24c-6.02-4.21-13.06-7.66-19.86-10.99l-2.24-1.1c-5.47-2.69-10.92-5.42-16.37-8.15-21.66-10.83-44.05-22.03-67.15-30.82-.95-.36-1.92-.74-2.91-1.13-5.98-2.36-12.17-4.8-17.73-4.11-2.24.28-4.39.79-6.67,1.34-3.79.91-7.71,1.85-12.08,1.61-9.72-.54-16.18-5.08-17.73-12.45-1.72-8.16,3.24-17.98,11.56-23.69-5.17-2.16-11.76-6.01-13.18-11.24-2.01-7.39,2.24-15.2,6.89-20.04,5.81-6.06,11.64-6.11,18.6-4.31,7.27,1.88,13.08,7.89,14.13,14.62.49,3.16-.11,6.18-1.7,8.81.02.02.03.03.05.05,8.16,8.99,19.46,17.33,29.43,24.7,1.44,1.06,2.86,2.11,4.25,3.15,15.51,11.55,32.2,18.74,49.87,26.34,3.76,1.62,7.55,3.25,11.34,4.93,3.05,1.35,6.09,2.66,9.12,3.97,7.77,3.35,15.81,6.82,23.61,10.82,3.19,1.63,6.42,3.4,9.55,5.12,7.28,3.99,14.81,8.11,22.48,10.91.15.05.29.12.42.2,8.09-5.71,19.76-8.41,27.84-4,6.84,3.73,9.29,12.58,7.72,18.99-1.28,5.19-7.9,16.3-15.53,16.65.23,1.17.43,2.28.53,3.31.82,7.87-1.74,18.13-8.22,22.5-1.66,1.12-3.96,2.12-6.9,2.12Zm-14.07-35.92c.75,0,1.49.34,1.98.97.8,1.04.67,2.52-.31,3.39-2.44,2.18-2.34,6.27-2.07,8.51.88,7.18,5.42,14.6,8.91,16.45,3.78,2,7.03,2.11,9.66.34,4.21-2.84,6.81-10.51,6.04-17.84-.11-1.03-.36-2.32-.63-3.68-.91-4.65-2.05-10.43.84-14.45.81-1.12,2.37-1.38,3.49-.57,1.12.81,1.38,2.37.57,3.49-1.04,1.44-1.04,3.84-.72,6.35.02,0,.04,0,.06,0,4.06.65,10.23-7.64,11.51-12.82,1.1-4.47-.6-10.86-5.26-13.41-8.64-4.71-23.8,1.73-28.44,9.81l-.03.05c-.68,1.2-2.21,1.61-3.41.93-1.2-.68-1.62-2.21-.93-3.41.01-.02.02-.04.03-.05l2.44-4.28c-7.03-2.84-13.82-6.55-20.41-10.16-3.1-1.7-6.3-3.45-9.43-5.05-7.66-3.92-15.62-7.36-23.31-10.68-3.05-1.32-6.11-2.64-9.17-3.99-3.78-1.68-7.55-3.3-11.29-4.91-17.94-7.73-34.89-15.03-50.88-26.93-1.39-1.03-2.8-2.08-4.23-3.14-9.73-7.19-20.71-15.3-29.09-24.19l-3.4,1.02c-1.2.36-2.48-.22-2.99-1.36-.52-1.14-.11-2.48.94-3.15,3.7-2.33,5.36-5.49,4.79-9.12-.74-4.74-5.13-9.18-10.44-10.55-5.81-1.5-9.53-1.46-13.74,2.93-3.53,3.68-7.14,9.89-5.67,15.27,1.09,3.99,9.41,8.14,14.75,9.49.96.24,1.69,1.03,1.85,2s-.25,1.96-1.08,2.5l-1.47.98c-.08.05-.17.1-.25.15-8.14,4.15-13.58,13.16-12.12,20.1,1.07,5.06,5.73,8.07,13.12,8.48,3.63.2,7.03-.62,10.64-1.48,2.31-.56,4.71-1.13,7.23-1.44,6.83-.84,13.92,1.96,20.17,4.42.97.38,1.92.76,2.85,1.11,23.34,8.88,45.85,20.13,67.61,31.02,5.44,2.72,10.89,5.44,16.35,8.13l2.23,1.09c6.97,3.42,14.18,6.95,20.52,11.39l1.77,1.23c4.19,2.91,8.52,5.92,12.29,9.33.92.83,1.81,1.9,2.76,3.03.89,1.07,2.45,2.93,3.38,3.51l.6-.4c.42-.28.91-.42,1.39-.42Z"/><path class="cls-4" d="m86.15,132.65c-.62-1.81-1.27-4.04-2.94-5.01-3.47,5.66-.25,18.73,1.26,24.75,2.43,9.68,10.53,14.7,17.64,21.19,3.45,3.15,6.83,5.16,11.36,6.65,5.29,1.73,8.44.34,13.2-2.27,7-3.85,15.72-10.2,21.02-16.31,3.56-4.11,3.73-9.22,4.83-14.41,1.15-5.47,2.99-11.61,2.78-17.09-4.68,2.49-9.3,7.28-14.36,10.21-5.86,3.4-15.96,3.72-22.46,3.39-9.17-.46-28.43-.42-32.34-11.1"/><path class="cls-1" d="m117.81,183.49c-1.56,0-3.24-.27-5.12-.88-4.82-1.58-8.49-3.73-12.27-7.18-1.36-1.24-2.8-2.46-4.18-3.64-5.93-5.03-12.05-10.23-14.2-18.79-2.48-9.91-4.54-20.83-.97-26.66.71-1.16,2.21-1.54,3.39-.86,2.36,1.37,3.26,4.01,3.91,5.95l.13.39c3.06,8.28,19.17,8.96,27.84,9.33.81.03,1.57.07,2.27.1,9.11.46,16.99-.68,21.08-3.05,2.3-1.33,4.59-3.14,6.8-4.9,2.47-1.95,5.02-3.97,7.63-5.36.76-.4,1.67-.39,2.42.04.75.43,1.22,1.21,1.25,2.07.18,4.62-.94,9.43-2.02,14.08-.29,1.23-.57,2.44-.82,3.62-.22,1.02-.39,2.05-.57,3.06-.75,4.26-1.52,8.67-4.81,12.47-6.03,6.97-15.47,13.44-21.71,16.87-3.47,1.9-6.46,3.34-10.07,3.34Zm-33.66-49.13c-.14,5.9,1.85,13.83,2.75,17.42,1.75,7,7.01,11.46,12.58,16.19,1.42,1.21,2.89,2.45,4.32,3.76,3.23,2.94,6.35,4.77,10.45,6.12,4.22,1.38,6.55.48,11.22-2.09,6.35-3.48,15.09-9.71,20.34-15.76,2.39-2.75,2.98-6.14,3.67-10.06.19-1.07.38-2.14.6-3.23.26-1.21.54-2.46.84-3.72.62-2.68,1.26-5.42,1.61-8.05-.96.72-1.94,1.49-2.93,2.28-2.35,1.86-4.79,3.79-7.4,5.3-6.8,3.94-17.85,4.02-23.84,3.72-.69-.04-1.44-.07-2.23-.1-10.26-.44-27.26-1.16-31.98-11.79Z"/><path class="cls-1" d="m106.68,157.52c-1.38,0-2.5-1.12-2.5-2.5v-8.36c0-1.38,1.12-2.5,2.5-2.5s2.5,1.12,2.5,2.5v8.36c0,1.38-1.12,2.5-2.5,2.5Z"/><path class="cls-1" d="m119.33,159.19c-1.38,0-2.5-1.12-2.5-2.5v-8.78c0-1.38,1.12-2.5,2.5-2.5s2.5,1.12,2.5,2.5v8.78c0,1.38-1.12,2.5-2.5,2.5Z"/><path class="cls-1" d="m131.98,155.43c-1.38,0-2.5-1.12-2.5-2.5v-7.94c0-1.38,1.12-2.5,2.5-2.5s2.5,1.12,2.5,2.5v7.94c0,1.38-1.12,2.5-2.5,2.5Z"/><path class="cls-1" d="m143.84,150.56c-1.38,0-2.5-1.12-2.5-2.5v-6.14c0-1.38,1.12-2.5,2.5-2.5s2.5,1.12,2.5,2.5v6.14c0,1.38-1.12,2.5-2.5,2.5Z"/><path class="cls-1" d="m95.44,151.21c-1.38,0-2.5-1.12-2.5-2.5v-7.11c0-1.38,1.12-2.5,2.5-2.5s2.5,1.12,2.5,2.5v7.11c0,1.38-1.12,2.5-2.5,2.5Z"/><path class="cls-1" d="m107.39,177.3c-1.38,0-2.5-1.12-2.5-2.5v-7.94c0-1.38,1.12-2.5,2.5-2.5s2.5,1.12,2.5,2.5v7.94c0,1.38-1.12,2.5-2.5,2.5Z"/><path class="cls-1" d="m128.53,176.46c-1.38,0-2.5-1.12-2.5-2.5v-7.11c0-1.38,1.12-2.5,2.5-2.5s2.5,1.12,2.5,2.5v7.11c0,1.38-1.12,2.5-2.5,2.5Z"/><path class="cls-1" d="m138.58,170.06c-1.38,0-2.5-1.12-2.5-2.5v-5.85c0-1.38,1.12-2.5,2.5-2.5s2.5,1.12,2.5,2.5v5.85c0,1.38-1.12,2.5-2.5,2.5Z"/><path class="cls-1" d="m98.03,170.89c-1.38,0-2.5-1.12-2.5-2.5v-5.43c0-1.38,1.12-2.5,2.5-2.5s2.5,1.12,2.5,2.5v5.43c0,1.38-1.12,2.5-2.5,2.5Z"/><path class="cls-1" d="m118.49,179.82c-1.38,0-2.5-1.12-2.5-2.5v-7.94c0-1.38,1.12-2.5,2.5-2.5s2.5,1.12,2.5,2.5v7.94c0,1.38-1.12,2.5-2.5,2.5Z"/></g></svg>