<svg width="79" height="82" viewBox="0 0 79 82" fill="none" xmlns="http://www.w3.org/2000/svg">
<g clip-path="url(#clip0_9_574)">
<path d="M77.56 0.709999L2.08997 24.65C2.08997 24.65 29.47 30.47 77.32 31.18L77.56 0.709999Z" fill="white" stroke="#3B65EE" stroke-width="1.43" stroke-linecap="round" stroke-linejoin="round"/>
<path d="M77.3199 31.19V41.55C77.3199 41.55 58.0399 47.57 44.9399 40.45C44.9399 40.45 22.7999 43.29 16.3699 36.64C16.3699 36.64 6.12994 39.03 2.08994 35.23C2.08994 35.23 -1.01006 31.69 2.08994 24.65C2.08994 24.65 53.2799 32.37 77.3199 31.18V31.19Z" fill="white" stroke="#3B65EE" stroke-width="1.43" stroke-linecap="round" stroke-linejoin="round"/>
<path d="M2.08997 35.23V71.72C2.08997 71.72 27.56 80.9 77.32 80.92V41.54C77.32 41.54 55.65 47.56 44.94 40.44C44.94 40.44 21.85 42.32 16.37 36.63C16.37 36.63 6.12997 38.55 2.08997 35.22V35.23Z" fill="white" stroke="#3B65EE" stroke-width="1.43" stroke-linecap="round" stroke-linejoin="round"/>
<path opacity="0.2" d="M0.879972 28.59C0.879972 28.59 8.72997 32.86 15.53 31.19C15.53 31.19 33.28 39.05 45.18 36.19C45.18 36.19 69.46 40.08 77.32 35.99V41.55C77.32 41.55 56.61 47.1 44.94 40.45C44.94 40.45 21.85 41.86 16.37 36.64C16.37 36.64 5.17997 37.6 2.08997 35.23C2.08997 35.23 -0.570028 32.42 0.879972 28.59Z" fill="#3B65EE"/>
<path d="M16.07 46.16C17.33 54.13 17.17 62.17 17.64 70.19C16.22 66.38 16.02 62.26 15.74 58.24C15.58 54.21 15.57 50.17 16.07 46.15V46.16Z" fill="#3B65EE"/>
<path d="M34.6399 49.02C35.8999 56.99 35.7399 65.03 36.2099 73.05C34.7899 69.24 34.5899 65.12 34.3099 61.1C34.1499 57.07 34.1399 53.03 34.6399 49.01V49.02Z" fill="#3B65EE"/>
<path d="M59.88 50.92C61.14 58.89 60.98 66.93 61.45 74.95C60.03 71.14 59.83 67.02 59.55 63C59.39 58.97 59.38 54.93 59.88 50.91V50.92Z" fill="#3B65EE"/>
<path opacity="0.2" d="M55.52 22.41C59.7339 22.41 63.15 21.8414 63.15 21.14C63.15 20.4386 59.7339 19.87 55.52 19.87C51.3061 19.87 47.89 20.4386 47.89 21.14C47.89 21.8414 51.3061 22.41 55.52 22.41Z" fill="#3B65EE"/>
<path d="M56.34 20.88C59.1954 20.88 61.51 18.5653 61.51 15.71C61.51 12.8547 59.1954 10.54 56.34 10.54C53.4847 10.54 51.17 12.8547 51.17 15.71C51.17 18.5653 53.4847 20.88 56.34 20.88Z" fill="white" stroke="#3B65EE" stroke-width="0.85" stroke-linecap="round" stroke-linejoin="round"/>
<path d="M53.7301 16.56C55.3801 15.81 56.9901 15.87 58.7301 15.78C57.4801 17.08 55.3701 17.12 53.7301 16.56Z" fill="#3B65EE"/>
<path d="M56.27 18.1C54.67 17.58 54.24 15.24 55.28 14.02C55.62 15.5 55.71 16.63 56.27 18.1Z" fill="#3B65EE"/>
</g>
<defs>
<clipPath id="clip0_9_574">
<rect width="78.28" height="81.64" fill="white"/>
</clipPath>
</defs>
</svg>
