<svg width="61" height="39" viewBox="0 0 61 39" fill="none" xmlns="http://www.w3.org/2000/svg">
<g clip-path="url(#clip0_9_259)">
<path opacity="0.2" d="M23.5 38.57C36.4787 38.57 47 37.003 47 35.07C47 33.137 36.4787 31.57 23.5 31.57C10.5213 31.57 0 33.137 0 35.07C0 37.003 10.5213 38.57 23.5 38.57Z" fill="#3B65EE"/>
<path d="M19.19 11.67C19.19 11.67 27.36 -11.3 41.91 9.16999C56.46 29.64 56.52 29.64 58.99 31.68C58.99 31.68 34.24 42.59 23.29 36.11C12.34 29.63 5.54998 13.26 19.18 11.67H19.19Z" fill="white" stroke="#3B65EE" stroke-width="1.36" stroke-miterlimit="10"/>
<path d="M19.19 11.67C15.39 9.99998 11.52 6.66998 10.99 2.34998C13.32 5.89998 16.47 8.38998 19.19 11.67Z" fill="#3B65EE"/>
<path d="M22.8199 13.26C28.3399 14.53 33.5699 16.88 38.2999 20.01C42.8399 23.28 46.7899 27.24 51.9299 29.63C46.2899 28.64 41.8099 24.71 37.2799 21.51C32.6899 18.39 27.7599 15.86 22.8199 13.26Z" fill="#3B65EE"/>
<path d="M43.3999 25C44.2699 27.01 44.6299 28.87 45.0999 31C43.5099 29.49 43.0099 27.11 43.3999 25Z" fill="#3B65EE"/>
<path d="M48.54 23.27C46.61 24.31 44.78 24.81 42.7 25.45C44.08 23.74 46.4 23.05 48.54 23.27Z" fill="#3B65EE"/>
<path d="M33.88 18.35C33.26 22.75 32 26.99 32.36 31.45C30.72 27.22 32.05 22.32 33.88 18.35Z" fill="#3B65EE"/>
<path d="M42.82 15.88C39.63 16.78 36.27 17.08 33.52 19.03C35.54 16.21 39.59 15.66 42.82 15.88Z" fill="#3B65EE"/>
<path d="M25.5299 14.32C22.7099 17.77 20.6599 21.67 19.1899 25.87C19.3999 21.38 21.7999 16.86 25.5299 14.32Z" fill="#3B65EE"/>
<path d="M36.11 7.91998C31.97 9.58998 28.3 12.01 24.99 14.99C27.33 11.16 31.61 8.34998 36.11 7.91998Z" fill="#3B65EE"/>
</g>
<defs>
<clipPath id="clip0_9_259">
<rect width="60.29" height="38.86" fill="white"/>
</clipPath>
</defs>
</svg>
