<svg width="136" height="77" viewBox="0 0 136 77" fill="none" xmlns="http://www.w3.org/2000/svg">
<g clip-path="url(#clip0_9_549)">
<path d="M134.83 4.52H10.2001C10.2001 4.52 15.9201 19.88 58.8301 28.39L134.83 4.52Z" fill="white" stroke="#3B65EE" stroke-width="1.43" stroke-linecap="round" stroke-linejoin="round"/>
<path d="M10.2 4.52C10.2 4.52 9.36003 0.709999 5.55003 0.709999C1.74003 0.709999 1.17003 2.47 0.740026 6.12C0.310026 9.77 5.90003 19.99 13.34 22.25C13.34 22.25 25.54 34.47 43.64 30.92C43.64 30.92 50.78 39.74 59.35 39.03C59.35 39.03 55.91 33.2 58.82 28.38C58.82 28.38 23.89 22.61 10.19 4.51L10.2 4.52Z" fill="white" stroke="#3B65EE" stroke-width="1.43" stroke-linecap="round" stroke-linejoin="round"/>
<path d="M134.83 4.52V13.07L59.36 39.04C59.36 39.04 56.87 34.17 58.83 28.39L134.83 4.52Z" fill="white" stroke="#3B65EE" stroke-width="1.43" stroke-linecap="round" stroke-linejoin="round"/>
<path d="M134.83 13.07V45.62L59.36 75.53C59.36 75.53 58.41 46.89 59.36 39.04L134.83 13.07Z" fill="white" stroke="#3B65EE" stroke-width="1.43" stroke-linecap="round" stroke-linejoin="round"/>
<path d="M59.35 39.04C59.35 39.04 58.87 68.45 59.35 75.53C59.35 75.53 35.46 66.95 25 61.14C25 61.14 19.92 57.75 18.22 50.97C16.95 45.91 13.34 22.25 13.34 22.25C13.34 22.25 22.69 33.05 43.64 30.92C43.64 30.92 51.73 40.69 59.35 39.03V39.04Z" fill="white" stroke="#3B65EE" stroke-width="1.43" stroke-linecap="round" stroke-linejoin="round"/>
<path opacity="0.2" d="M134.82 4.52V13.07L59.35 39.04C59.35 39.04 56.86 34.17 58.82 28.39L134.82 4.52Z" fill="#3B65EE"/>
<path opacity="0.2" d="M134.82 13.07V45.62L59.3501 75.53C59.3501 75.53 58.4001 46.89 59.3501 39.04L134.82 13.07Z" fill="#3B65EE"/>
<path opacity="0.2" d="M5.55001 0.710002C5.55001 0.710002 1.39001 22.5 58.82 28.39C58.82 28.39 19.37 22.38 10.19 4.52C10.2 4.52 8.64001 2.10851e-06 5.55001 0.710002Z" fill="#3B65EE"/>
<path opacity="0.2" d="M57.68 32.11C57.68 32.11 47.22 29.64 45.31 28.39C43.4 27.14 40.54 35.22 59.35 39.04C59.35 39.04 56.73 36.13 57.68 32.11Z" fill="#3B65EE"/>
<path d="M22.93 32.38C24.6 40.97 25.2 49.59 27.22 58.09C25.1 54.22 24.22 49.8 23.55 45.49C22.95 41.15 22.64 36.77 22.94 32.38H22.93Z" fill="#3B65EE"/>
<path d="M36.35 36.06C37.18 44.84 37.29 53.98 38.17 62.77C35.33 54.23 35.23 44.92 36.35 36.06Z" fill="#3B65EE"/>
<path d="M50.07 42.85C51.33 50.82 51.17 58.86 51.64 66.88C50.22 63.07 50.02 58.95 49.74 54.93C49.58 50.9 49.57 46.86 50.07 42.84V42.85Z" fill="#3B65EE"/>
<path d="M111.25 40C111.907 40 112.44 39.4672 112.44 38.81C112.44 38.1528 111.907 37.62 111.25 37.62C110.593 37.62 110.06 38.1528 110.06 38.81C110.06 39.4672 110.593 40 111.25 40Z" fill="#3B65EE"/>
<path d="M74.59 40.47C75.2472 40.47 75.78 39.9372 75.78 39.28C75.78 38.6228 75.2472 38.09 74.59 38.09C73.9328 38.09 73.4 38.6228 73.4 39.28C73.4 39.9372 73.9328 40.47 74.59 40.47Z" fill="#3B65EE"/>
<path d="M78.4 46.19C79.0572 46.19 79.59 45.6572 79.59 45C79.59 44.3428 79.0572 43.81 78.4 43.81C77.7427 43.81 77.21 44.3428 77.21 45C77.21 45.6572 77.7427 46.19 78.4 46.19Z" fill="#3B65EE"/>
<path opacity="0.2" d="M64.0901 13.27C68.304 13.27 71.7201 12.7014 71.7201 12C71.7201 11.2986 68.304 10.73 64.0901 10.73C59.8761 10.73 56.4601 11.2986 56.4601 12C56.4601 12.7014 59.8761 13.27 64.0901 13.27Z" fill="#3B65EE"/>
<path d="M64.9101 11.74C67.7654 11.74 70.0801 9.42531 70.0801 6.57C70.0801 3.71469 67.7654 1.4 64.9101 1.4C62.0548 1.4 59.7401 3.71469 59.7401 6.57C59.7401 9.42531 62.0548 11.74 64.9101 11.74Z" fill="white" stroke="#3B65EE" stroke-width="0.85" stroke-linecap="round" stroke-linejoin="round"/>
<path d="M66.9601 4.76C65.7401 6.1 64.2501 6.69 62.6801 7.46C63.3101 5.77 65.2301 4.9 66.9601 4.76Z" fill="#3B65EE"/>
<path d="M64.0201 4.35C65.7001 4.19 67.0101 6.17 66.5501 7.71C65.6501 6.49 65.1201 5.49 64.0201 4.35Z" fill="#3B65EE"/>
</g>
<defs>
<clipPath id="clip0_9_549">
<rect width="135.54" height="76.25" fill="white"/>
</clipPath>
</defs>
</svg>
