<svg width="160" height="90" viewBox="0 0 160 90" fill="none" xmlns="http://www.w3.org/2000/svg">
<g clip-path="url(#clip0_9_70)">
<path d="M0.839966 5.34003H147.94C147.94 5.34003 141.19 23.47 90.55 33.51L0.839966 5.34003Z" fill="white" stroke="#3B65EE" stroke-width="1.69" stroke-linecap="round" stroke-linejoin="round"/>
<path d="M147.94 5.34003C147.94 5.34003 148.93 0.840027 153.43 0.840027C157.93 0.840027 158.6 2.92003 159.11 7.22003C159.62 11.52 153.02 23.59 144.23 26.26C144.23 26.26 129.83 40.69 108.47 36.5C108.47 36.5 100.04 46.91 89.9199 46.07C89.9199 46.07 93.9799 39.19 90.5399 33.5C90.5399 33.5 131.77 26.68 147.93 5.33003L147.94 5.34003Z" fill="white" stroke="#3B65EE" stroke-width="1.69" stroke-linecap="round" stroke-linejoin="round"/>
<path d="M0.839966 5.34003V15.43L89.92 46.08C89.92 46.08 92.85 40.33 90.54 33.51L0.839966 5.34003Z" fill="white" stroke="#3B65EE" stroke-width="1.69" stroke-linecap="round" stroke-linejoin="round"/>
<path d="M0.839966 15.43V53.85L89.92 89.15C89.92 89.15 91.04 55.34 89.92 46.08L0.839966 15.43Z" fill="white" stroke="#3B65EE" stroke-width="1.69" stroke-linecap="round" stroke-linejoin="round"/>
<path d="M89.9299 46.08C89.9299 46.08 90.4899 80.79 89.9299 89.15C89.9299 89.15 122.58 79.16 128.58 74.16C128.58 74.16 135.55 69.68 138.58 62.16C140.88 56.45 144.24 26.26 144.24 26.26C144.24 26.26 133.21 39 108.48 36.5C108.48 36.5 98.9299 48.03 89.9299 46.07V46.08Z" fill="white" stroke="#3B65EE" stroke-width="1.69" stroke-linecap="round" stroke-linejoin="round"/>
<path opacity="0.2" d="M0.849976 5.34003V15.43L89.93 46.08C89.93 46.08 92.86 40.33 90.55 33.51L0.849976 5.34003Z" fill="#3B65EE"/>
<path opacity="0.2" d="M0.849976 15.43V53.85L89.93 89.15C89.93 89.15 91.05 55.34 89.93 46.08L0.849976 15.43Z" fill="#3B65EE"/>
<path opacity="0.2" d="M153.43 0.840008C153.43 0.840008 158.33 26.55 90.5499 33.51C90.5499 33.51 137.12 26.41 147.94 5.34001C147.94 5.34001 149.78 8.15839e-06 153.43 0.840008Z" fill="#3B65EE"/>
<path opacity="0.2" d="M91.8999 37.9C91.8999 37.9 104.24 34.98 106.5 33.51C108.76 32.04 112.13 41.58 89.9299 46.08C89.9299 46.08 93.0299 42.65 91.8999 37.9Z" fill="#3B65EE"/>
<path d="M132.92 38.22C133.27 43.39 132.9 48.57 132.2 53.69C131.4 58.78 130.37 64 127.86 68.57C130.24 58.53 130.95 48.36 132.92 38.22Z" fill="#3B65EE"/>
<path d="M117.08 42.56C118.41 53.01 118.28 64.01 114.94 74.09C115.97 63.75 116.11 52.92 117.08 42.56Z" fill="#3B65EE"/>
<path d="M100.89 50.58C101.48 55.32 101.47 60.08 101.28 64.84C100.95 69.58 100.71 74.44 99.0399 78.94C99.5899 69.46 99.3999 59.98 100.89 50.57V50.58Z" fill="#3B65EE"/>
<path d="M28.67 47.21C29.4487 47.21 30.08 46.5787 30.08 45.8C30.08 45.0213 29.4487 44.39 28.67 44.39C27.8913 44.39 27.26 45.0213 27.26 45.8C27.26 46.5787 27.8913 47.21 28.67 47.21Z" fill="#3B65EE"/>
<path d="M71.94 47.78C72.7188 47.78 73.35 47.1487 73.35 46.37C73.35 45.5913 72.7188 44.96 71.94 44.96C71.1613 44.96 70.53 45.5913 70.53 46.37C70.53 47.1487 71.1613 47.78 71.94 47.78Z" fill="#3B65EE"/>
<path d="M67.4499 54.52C68.2286 54.52 68.8599 53.8887 68.8599 53.11C68.8599 52.3313 68.2286 51.7 67.4499 51.7C66.6712 51.7 66.0399 52.3313 66.0399 53.11C66.0399 53.8887 66.6712 54.52 67.4499 54.52Z" fill="#3B65EE"/>
<path d="M94.54 4.49998C96.32 4.80998 102.8 6.24998 101.19 10.88C101.1 11.15 101.32 11.43 101.66 11.41C103.82 11.28 110.15 11.27 109.23 15.96C109.21 16.08 109.12 16.19 108.99 16.25C107.23 17.07 93.87 22.74 71.07 17.39C70.9 17.35 70.77 17.24 70.73 17.09C70.4 15.65 69.12 8.20998 78.71 9.08998C78.89 9.10998 79.07 9.03998 79.16 8.90998C79.7 8.12998 81.84 5.42998 86.22 4.42998C89.71 3.62998 88.3 2.29998 87.04 1.51998C86.69 1.29998 86.85 0.819981 87.28 0.799981C89.79 0.689981 94.74 0.859981 94.19 4.02998C94.15 4.23998 94.29 4.44998 94.54 4.48998V4.49998Z" fill="white" stroke="#3B65EE" stroke-width="1.12" stroke-miterlimit="10"/>
<path d="M95.47 11.47C95.47 11.47 88.61 11.47 84.5 10.3Z" fill="white"/>
<path d="M95.47 11.47C91.87 12.45 87.74 12.24 84.5 10.3C88.23 10.19 91.89 10.37 95.47 11.47Z" fill="#3B65EE"/>
<path opacity="0.2" d="M104.31 17.87C104.31 17.87 105.75 14.39 97.5199 14.39C89.2899 14.39 97.5199 9.69999 93.4099 8.52999C89.2999 7.35999 85.4699 8.52999 83.9499 11.46C82.4299 14.39 81.0599 12.05 78.3199 13.22C75.5799 14.39 73.5499 14.86 74.5599 18.14C74.5599 18.14 95.9999 21.34 104.3 17.87H104.31Z" fill="#3B65EE"/>
</g>
<defs>
<clipPath id="clip0_9_70">
<rect width="159.98" height="89.99" fill="white"/>
</clipPath>
</defs>
</svg>
