<?xml version="1.0" encoding="UTF-8"?><svg id="Layer_2" xmlns="http://www.w3.org/2000/svg" viewBox="0 0 683.42 680.52"><defs><style>.cls-1{opacity:.3;}.cls-1,.cls-2,.cls-3{fill:none;}.cls-2{opacity:.4;}.cls-3{opacity:.5;}.cls-4{fill:#0069ff;}.cls-5{fill:#e9f0ff;}.cls-6{fill:#fff;}.cls-7{fill:#fff1f8;}.cls-8{fill:#ffbbdc;}.cls-9{fill:#a3c9ff;}</style></defs><g id="Layer_1-2"><path class="cls-5" d="m420.98,377.12c5.59,11.17,7.63,24.96,9.89,37.13,4.22,22.76,7.28,45.61,10.03,68.58.63,5.23.56,10.53,1.27,15.75.43,3.16,1.45,10.16,5.56,4.9,8.76-11.22,12-24.17,16.33-37.42,7.84-23.98,11.6-48.43,11.6-73.66.05-12.2.32-23.96-1.11-36.56l-4.37-1.41c29.27,1.42,64.01,10.85,95.15,7.97,41.05-3.8,70.99-32.82,86.56-70.01,5.05-12.06,7.26-22.12,15.11-32.79,4.14-5.62,9.62-10.48,12.7-16.76,5.22-10.66,2.83-14.84-1.67-25.78-10.46-25.37-14.61-47.2-12.02-74.53,3.22-33.99-1.15-67.04-23.61-94.29-26.73-32.43-83.77-54.51-124.3-41.25-28.7,9.39-30.95,27.83-50.39,46.44-12.38-9.54-61.01-44.69-130-40-53.31,3.63-98.97,32.09-113,43l-.09-.16c-19.44-18.61-27.12-39.89-55.83-49.28-40.53-13.26-97.57,8.82-124.3,41.25-22.46,27.25-26.82,60.3-23.61,94.29,2.59,27.33-1.56,49.15-12.02,74.53-4.51,10.94-6.9,15.12-1.67,25.78,3.08,6.28,8.56,11.14,12.7,16.76,7.86,10.67,10.06,20.73,15.11,32.79,15.57,37.18,45.51,66.21,86.56,70.01,31.13,2.88,65.88-6.55,95.15-7.97l-4.57,1.41c-1.43,12.59-1.16,24.36-1.11,36.56,0,25.39,3.33,48.36,11.6,73.66,4.33,13.25,7.57,26.2,16.33,37.42,4.1,5.25,5.13-1.75,5.56-4.9.71-5.23.65-10.52,1.27-15.75,2.75-22.97,5.8-45.82,10.03-68.58,2.26-12.18,4.3-25.97,9.89-37.13l-11.34-84.62c7.13,42.66,11.7,89.5,16.36,134.49,4.58,44.17,18.43,89.35,29.31,132.45,7.76,30.74,15.69,61.63,39.14,84.58,36.05,35.3,86.81,36.63,133.49,26.27,27.15-6.02,55.13-26.84,62.38-55.12,1.57-6.11,1.01-11.54,6.06-15.6,3.88-3.11,8.44-1.37,12.64-6.73,6.88-8.8,5.09-21.06-7.72-20.95-3.9.03-10.18,2.68-13.49,4.54-2.22-9.29-9.12-24.83-21.51-19.95s-3,22.61-3.15,31.83c-.58,34.46-61.81,37.77-83.54,26.47-10.17-5.29-17.85-14.57-22.91-24.85-7.84-15.9-11.48-34.84-10.7-52.51,2-45,2.47-39.77,12.65-84.53,6.48-28.47,13.81-56.24,18.89-85.04,2.73-15.47,5.84-31.5,6.15-47.24.2-9.96,1.31-19.19,4.31-29.19"/><g class="cls-2"><path class="cls-9" d="m447.99,621c16.5,5.48,39.39,11.07,56.04,1.56,25.94-14.81,18.84-39.8,12.11-61.63-7.93,18.92.64,54.1-23.76,62.18-10.83,3.58-47.13-.72-56.49-6.15"/><path class="cls-9" d="m446.4,626.78c18.5,6.13,40.21,10.97,58.62,2.03,8.12-3.94,15.67-10.65,19.51-18.92,3.48-7.49,4.43-15.72,3.57-23.89-.96-9.13-3.47-17.92-6.17-26.66-.75-2.44-3.12-4.52-5.79-4.4-2.88.13-4.72,1.84-5.79,4.4-3.36,8.09-3.79,17.27-4.63,25.88-.22,2.24-.44,4.47-.72,6.7-.06.53-.38,2.7-.05.43-.07.48-.13.96-.2,1.43-.17,1.13-.35,2.26-.57,3.39-.39,2.09-.87,4.17-1.48,6.21-.28.94-.59,1.88-.94,2.8-.09.25-.19.49-.29.74-.39,1.01.64-1.45.2-.46-.21.47-.43.95-.66,1.41-.42.84-.87,1.67-1.37,2.46-.27.43-.55.85-.84,1.27-.1.14-.2.27-.3.41-.57.8,1.08-1.33.16-.22-.59.72-1.23,1.4-1.91,2.04-.34.32-.7.62-1.06.93s-1,.67.5-.38c-.29.2-.56.42-.85.61-.82.56-1.67,1.06-2.56,1.51-.27.14-1.92.87-.82.41s.11-.05-.09.02c-.37.14-.74.27-1.12.4-.59.19-1.19.35-1.8.48-.31.07-.62.13-.93.18-.2.03-.39.06-.59.1-1.3.22,1.53-.18.56-.07-8.67.93-17.53.26-26.16-.8-.63-.08-1.25-.16-1.88-.24,2.23.28-.2-.03-.73-.11-1.27-.19-2.53-.39-3.79-.6-2.45-.42-4.89-.9-7.31-1.46-2.06-.48-4.11-1.02-6.12-1.69-.4-.13-.79-.27-1.19-.42-.57-.21-2.23-.99,0,.04-.65-.3-1.3-.59-1.92-.94-2.73-1.56-6.69-.73-8.21,2.15s-.76,6.55,2.15,8.21c3.23,1.85,6.97,2.94,10.56,3.85,4.41,1.11,8.91,1.91,13.41,2.55,9.59,1.37,19.48,2.44,29.17,1.67,4.53-.36,8.52-1.21,12.62-3.22,4.45-2.18,8.09-5.68,10.86-9.75,5.4-7.94,6.74-18.04,7.77-27.35.28-2.52.52-5.05.76-7.58.12-1.25.25-2.5.38-3.75.07-.66.15-1.33.23-1.99.07-.56.41-2.98.07-.65.65-4.56,1.46-9.12,3.24-13.4h-11.57c2.19,7.12,4.36,14.29,5.51,21.66.06.41.12.83.18,1.24-.33-2.08-.06-.38,0,.11.1.92.19,1.85.25,2.77.12,1.77.15,3.54.08,5.32-.03.8-.09,1.59-.16,2.39-.03.29-.23,1.9-.07.68s-.07.38-.12.67c-.31,1.75-.75,3.47-1.34,5.15-.13.37-.28.74-.41,1.11-.32.88.25-.58.26-.61-.09.18-.16.37-.24.55-.37.83-.78,1.64-1.23,2.43s-.9,1.51-1.39,2.23c-.26.39-.59.75-.83,1.15.03-.06.96-1.19.35-.46-.21.25-.41.5-.62.75-1.26,1.47-2.65,2.83-4.13,4.07-.18.15-.37.3-.56.46-.76.64.25-.21.35-.26-.46.21-.94.7-1.36,1-.96.68-1.96,1.32-2.97,1.92-.95.57-1.92,1.11-2.92,1.59-.3.14-1.25.37-1.39.64.16-.31,1.14-.46.37-.17-.36.14-.71.28-1.07.41-2.1.76-4.27,1.33-6.47,1.74-.51.09-1.01.18-1.52.26l-.19.03c-.66.09-.51.07.44-.06-.15-.04-.66.08-.77.09-1.16.13-2.33.21-3.5.26-2.24.1-4.48.06-6.72-.08-1.33-.08-2.65-.2-3.97-.35-.48-.05-2.61-.43-.78-.09-.65-.12-1.32-.19-1.98-.3-2.55-.41-5.08-.93-7.59-1.52-4.81-1.13-9.55-2.55-14.23-4.1-2.98-.99-6.69,1.14-7.38,4.19-.75,3.31,1,6.32,4.19,7.38h0Z"/></g><path class="cls-7" d="m476.67,336.39c-11.76,24.56,8.34,10.75,37.54,18.04,17.4,4.35,33.96,6.61,51.95,2.79,16.79-3.56,33.48-5.19,47.3-16.18,16.04-12.76,33.86-28.52,36.07-49.91,2.28-21.96.67-41.7.67-41.7-.1-15.88-16.12-63.19-17.85-80.53-2.46-24.75,3.68-49.76-2.35-74.07-11.21-45.15-52.1-88.06-97.58-56.95l-20.61,11.13c-57.2,41.34-35.38,111.15-30.53,168.64,1.68,19.95-2.27,40.33-5.19,59.73-3.26,21.67,3.91,57.37-2.09,72.55"/><path class="cls-7" d="m475.37,335.64c-1.8,3.78-4.88,9.41-3.19,13.75,1.36,3.5,5.65,3.91,8.89,4.07,5.69.26,11.4-.12,17.1.18,3.8.2,7.59.61,11.33,1.31,4.74.9,9.4,2.22,14.13,3.17,9.87,1.96,19.95,3.04,30.02,2.36,9.56-.64,19.08-2.93,28.44-4.89,8.6-1.8,17.19-4.14,24.92-8.43,3.84-2.13,7.26-4.81,10.66-7.57,3.21-2.6,6.36-5.27,9.41-8.07,6.06-5.57,11.75-11.67,16.16-18.65,4.44-7.03,7.13-14.71,7.94-22.99,1.31-13.48,1.2-26.93.54-40.43-.55-11.25-3.74-22.37-6.56-33.22-3.37-12.96-7.15-25.85-9.89-38.96-3.53-16.92-1.43-34.26-1.06-51.38.23-10.33-.18-20.75-2.6-30.83-1.85-7.73-4.58-15.27-7.99-22.45-6.48-13.66-15.73-26.4-27.93-35.49-11.41-8.51-25.42-12.91-39.63-10.69-7.98,1.25-15.57,4.51-22.36,8.84-3.14,2.01-6.43,3.72-9.71,5.49-4.01,2.16-8.02,4.33-12.02,6.49-1.92,1.04-3.61,2.48-5.31,3.84-3.1,2.48-6.05,5.15-8.81,8-9.97,10.28-17.14,22.86-21.23,36.56-4.05,13.59-5.17,27.92-4.91,42.04.26,14.74,2,29.41,3.87,44.02.92,7.16,1.88,14.31,2.72,21.48.95,8.05,1.89,16.15,1.9,24.27.01,10.55-1.22,21.06-2.76,31.48-1.3,8.81-3.16,17.62-3.58,26.53-.73,15.57,1.33,31.11,1.14,46.67-.07,5.81-.3,11.93-2.42,17.41-.7,1.8,2.2,2.58,2.89.8,2.13-5.51,2.42-11.73,2.52-17.57.13-7.62-.32-15.24-.7-22.85-.37-7.57-.75-15.16-.5-22.74.28-8.63,1.99-17.11,3.27-25.63,1.51-10.08,2.83-20.22,3.09-30.42.21-8.25-.54-16.42-1.46-24.61-1.6-14.27-3.74-28.48-5.24-42.76-2.84-27.19-3.87-56.53,8.67-81.65,3.17-6.35,7.14-12.3,11.82-17.64,2.5-2.85,5.18-5.54,8.02-8.06,2.42-2.15,4.97-4.5,7.75-6.18,6.56-3.96,13.63-7.08,20.25-10.93,2.79-1.63,5.42-3.46,8.31-4.92,3.53-1.78,7.24-3.19,11.07-4.17,6.69-1.7,13.71-1.92,20.47-.51,14.01,2.92,25.79,12.08,34.74,22.92,9.74,11.81,16.63,26.05,20.55,40.81,5.24,19.7,2.32,40.03,2.15,60.1-.06,7.35.23,14.71,1.6,21.95,1.1,5.78,2.53,11.5,3.99,17.19,3.35,13.05,7.08,26.01,10.06,39.15,1.13,4.99,2.26,10.06,2.68,15.18.26,3.15.38,6.33.49,9.48.3,8.24.23,16.5-.25,24.73-.28,4.77-.49,9.64-1.51,14.32-.86,3.92-2.25,7.69-4.08,11.25-3.63,7.09-8.76,13.28-14.38,18.87-5.78,5.75-12.1,11.4-18.8,16.06-7.32,5.09-15.76,7.97-24.37,9.99-4.15.98-8.33,1.77-12.52,2.58-4.78.93-9.54,2.06-14.38,2.67-9.96,1.26-20.05.73-29.93-.95-8.8-1.49-17.33-4.2-26.23-5.07-6.07-.6-12.15-.45-18.24-.45-2.03,0-4.12.03-6.12-.33-1.33-.24-2.55-.68-3.07-1.43-.64-.92-.5-2.44-.2-3.78.6-2.72,1.77-5.31,2.97-7.81.83-1.73-1.76-3.26-2.59-1.51h0Z"/><g class="cls-1"><path class="cls-8" d="m481.21,217.94c0,40.39,9.95,90.31,23.07,132.83-9.27,3.94-20,0-29.85-2.57,8.93-24.75,2.86-56.21,5.4-82.37,2.06-21.32,10.27-48.63,1.91-69.65,1.47,44.75,5.77,107.38,10.79,154.09-6.37-15.19-10.94-31.42-11.91-47.44,5.72,7.87,7.92,21.16,9.78,31.24.76-31.51-4.08-63.64-4.08-95.5,0-18.29,2.12-38.16.02-56.43-3.18-27.67-28.84-68.38-10.45-95.41,2.3,34.02-6.18,72.98,4.59,105.55-1.61-7.27-2.95-14.21-4.39-21.58,1.07-2.01,1.02,1.21,2.17,2.36"/><path class="cls-8" d="m475.21,217.94c.01,17.38,1.76,34.71,4.31,51.89s6.35,35.81,10.81,53.43c2.47,9.77,5.2,19.48,8.16,29.11l4.19-7.38c-1.13.47-2.29.85-3.48,1.11-.35.08-2.27.63-.64.16-.55.16-1.24.12-1.81.15-1.23.06-2.46.03-3.68-.07-.61-.05-1.26-.06-1.86-.19,1.56.34-.17-.04-.51-.1-4.98-.84-9.8-2.37-14.67-3.65l4.19,7.38c7.03-19.71,5.25-41.41,4.97-61.95-.07-5.05-.07-10.1.16-15.15.11-2.49.29-4.97.54-7.45.11-1.07.23-2.13.36-3.2.07-.6.1-1.25.23-1.83-.03.14-.2,1.44-.05.36.05-.35.1-.69.15-1.04,1.47-10.36,3.42-20.66,4.35-31.1,1-11.27.78-23.19-3.4-33.85-1.1-2.81-3.42-4.72-6.58-4.3-2.85.38-5.3,2.89-5.2,5.89.65,19.56,1.67,39.1,2.89,58.63,1.31,20.92,2.87,41.82,4.71,62.69.97,10.93,2.01,21.85,3.19,32.76l11.79-1.6c-3.15-7.54-5.85-15.26-7.91-23.17-1.01-3.88-1.87-7.8-2.54-11.75-.16-.96-.31-1.92-.46-2.89-.05-.32-.09-.64-.14-.96l.09.63c-.08-.48-.12-.96-.18-1.45-.24-2.08-.43-4.17-.56-6.26l-11.18,3.03c.7.98,1.34,2,1.92,3.06.33.61.64,1.23.94,1.85.14.29.27.58.4.88.46,1-.34-.88-.07-.17,1.01,2.6,1.88,5.24,2.6,7.94,1.43,5.35,2.39,10.81,3.39,16.25.54,2.93,3.86,4.66,6.58,4.3,2.97-.4,5.13-2.88,5.2-5.89.44-19.19-1.13-38.33-2.44-57.46-.66-9.57-1.26-19.15-1.51-28.74-.25-9.34,0-18.67.34-28,.63-16.8,1.38-33.91-2.8-50.34-3.45-13.52-8.67-26.53-11.98-40.09-.83-3.42-1.55-6.87-2.07-10.35-.03-.18-.05-.37-.08-.55-.15-1.03.06.4.07.5-.03-.37-.09-.73-.13-1.09-.1-.9-.19-1.81-.27-2.72-.13-1.67-.21-3.34-.21-5.01s.06-3.27.21-4.9c.03-.35.07-.69.1-1.03.03-.23.06-.46.08-.69.07-.67-.12.81-.1.74.2-.76.25-1.59.41-2.37.32-1.56.72-3.11,1.22-4.62.25-.76.54-1.5.83-2.25.39-1-.53,1.14-.07.17.2-.42.39-.84.59-1.25.73-1.47,1.57-2.88,2.48-4.25-3.73-1.01-7.45-2.02-11.18-3.03,1.84,27.83-3.06,55.73-.01,83.52.88,8.01,2.3,15.96,4.82,23.63.98,2.98,4.19,5.22,7.38,4.19s4.92-4.09,4.19-7.38c-1.58-7.17-2.98-14.38-4.39-21.58l-.6,4.62c.59-.97.05-.47-1.63,1.51l-3.03.82h.1c-1.01-.28-2.02-.55-3.03-.82-1.19-.71-1.97-1.69-2.33-2.95.06.15.11.31.16.46.09.26.18.52.28.77.59,1.54,1.11,2.52,2.21,3.79,2.06,2.38,6.4,2.27,8.49,0,2.33-2.54,2.2-5.95,0-8.49.17.19.9,1.31.44.45-.31-.58.45,1.3.29.66-.09-.35-.24-.7-.38-1.04-1.06-2.68-3.02-4.8-6.13-4.84-2.51-.03-4.59,1.53-5.81,3.62-1.44,2.47-.46,5.34.05,7.94,1.2,6.1,2.4,12.2,3.74,18.27l11.57-3.19c-1.07-3.27-1.96-6.59-2.68-9.95-.31-1.47-.6-2.95-.85-4.43-.15-.89-.3-1.79-.43-2.68-.04-.3-.09-.6-.13-.9-.09-.68-.08-.6.03.24-.04-.3-.08-.6-.11-.9-.84-6.8-1.16-13.66-1.21-20.51-.11-14.03.91-28.04,1.29-42.06.21-7.59.22-15.19-.28-22.77-.17-2.55-1.73-5.18-4.4-5.79s-5.23.46-6.78,2.76c-8.3,12.34-8.39,27.57-5.82,41.69,2.56,14.09,7.8,27.49,11.84,41.19.92,3.12,1.78,6.26,2.49,9.44.33,1.49.63,2.98.88,4.48.06.36.12.73.17,1.09.02.15.04.31.07.46.11.66-.12-.94-.11-.83.1,1.03.24,2.05.34,3.08.89,9.23.78,18.53.5,27.79s-.79,18.67-.74,28.02.52,19.33,1.13,28.98c1.22,19.25,3.01,38.49,3.02,57.8,0,2.39-.03,4.78-.08,7.16l11.79-1.6c-1.03-5.58-2.01-11.17-3.5-16.65-1.51-5.56-3.51-11.3-6.89-16.02-1.51-2.11-4.1-3.62-6.78-2.76-2.41.78-4.57,3.09-4.4,5.79,1.06,16.94,5.6,33.42,12.12,49.04,1.17,2.79,3.37,4.73,6.58,4.3,2.69-.36,5.52-2.92,5.2-5.89-2.14-19.98-3.9-40-5.43-60.03s-2.94-41.52-4-62.3c-.54-10.58-1.01-21.16-1.36-31.75l-11.79,1.6c.86,2.2,1.57,4.46,2.1,6.77.25,1.09.47,2.2.66,3.3.09.54.25,1.13.26,1.68-.03-1.41-.09-.71-.05-.33.05.42.1.85.14,1.27.49,4.93.44,9.91.11,14.85-.17,2.53-.41,5.06-.7,7.58-.13,1.17-.43,2.39-.44,3.57,0-.17.19-1.37.03-.26-.04.3-.08.59-.12.89-.09.67-.19,1.33-.29,2-.72,4.92-1.54,9.83-2.28,14.74-1.49,9.97-2.26,19.85-2.22,29.93.04,10.36.53,20.72.33,31.09-.06,2.86-.17,5.73-.36,8.59-.09,1.34-.2,2.67-.33,4.01-.07.74-.15,1.47-.23,2.21-.03.29-.07.59-.11.88-.02.2-.21,1.47-.06.51.14-.88-.01.07-.05.29-.06.43-.13.87-.2,1.3-.1.65-.21,1.29-.33,1.94-.25,1.35-.52,2.69-.83,4.03-.63,2.71-1.41,5.38-2.34,7.99-1.08,3.03,1.23,6.61,4.19,7.38,10.55,2.77,22.32,6.97,33.04,2.57,1.44-.59,2.82-1.3,3.59-2.76s1.09-3.06.6-4.62c-5.28-17.13-9.79-34.51-13.49-52.05-1.85-8.81-3.5-17.66-4.89-26.56-.34-2.15-.66-4.31-.97-6.47-.08-.54-.15-1.07-.23-1.61-.04-.31-.08-.61-.13-.92-.02-.14-.13-.93-.02-.12s0,.02-.02-.12c-.04-.31-.08-.61-.12-.92-.08-.61-.16-1.22-.23-1.83-.54-4.28-1.01-8.57-1.41-12.87-.85-9.24-1.36-18.5-1.36-27.78,0-3.14-2.76-6.15-6-6s-6,2.64-6,6h0Z"/></g><g class="cls-2"><path class="cls-9" d="m433.87,294.14c-1.26,21.67,1.12,54.79,11.84,73.85-6.57-.44-16.29.72-22.16,6.19,6.72-11.98,6.72-28,10.37-41.14-.65,12.75-1.97,25.85-4.07,38.27,1.32-12.97,2.5-25.9,4.02-38.87-.8,5.13,2.22,19.27,2.02,28.28"/><path class="cls-9" d="m427.87,294.14c-.56,9.8-.36,19.66.5,29.45.94,10.72,2.55,21.51,5.69,31.82,1.64,5.38,3.72,10.7,6.47,15.62l5.18-9.03c-9.27-.58-19.4,1.55-26.41,7.95l9.42,7.27c7.28-13.14,7.08-28.4,10.97-42.57l-11.79-1.6c-.33,6.35-.81,12.69-1.47,19.02-.16,1.52-.33,3.05-.51,4.57-.09.8-.19,1.6-.29,2.4-.05.4-.1.8-.15,1.19-.04.3-.19,1.49,0,.07-.41,3.15-.9,6.3-1.43,9.43l11.79,1.6c1.32-12.96,2.51-25.93,4.02-38.87.16-1.36-.77-3.34-1.76-4.24s-2.11-1.47-3.45-1.65c-2.65-.36-6.16,1.34-6.58,4.3-.68,4.72,0,9.39.55,14.1.62,5.23,1.35,10.5,1.26,15.78-.05,3.14,2.8,6.14,6,6s5.94-2.64,6-6c.09-5.15-.61-10.3-1.22-15.41-.28-2.39-.57-4.78-.77-7.17-.08-1.03-.15-2.06-.17-3.1,0-.4,0-.8,0-1.19.02-.62.26-2.27-.09.19l-11.79-1.6c-1.51,12.94-2.7,25.91-4.02,38.87-.3,2.96,2.52,5.53,5.2,5.89s6.09-1.35,6.58-4.3c2.22-13.19,3.6-26.52,4.29-39.87.15-2.98-2.4-5.52-5.2-5.89s-5.79,1.4-6.58,4.3c-1.87,6.82-2.74,13.85-4,20.8-.63,3.5-1.35,6.99-2.35,10.41-.48,1.67-1.03,3.32-1.67,4.93-.16.4-.78,1.42,0,.03-.19.33-.33.73-.49,1.08-.39.83-.81,1.64-1.26,2.45-1.46,2.63-.84,5.9,1.55,7.74s5.65,1.57,7.88-.47c.18-.16.35-.32.54-.48.49-.4.36-.31-.37.26.41-.18.8-.58,1.18-.82.81-.52,1.67-.99,2.54-1.4.22-.1.44-.2.67-.3-.87.36-1.01.43-.42.19.46-.16.92-.34,1.38-.49.93-.3,1.88-.56,2.83-.77s1.92-.3,2.86-.52c-1.85.45-.32.05.17,0,.46-.04.93-.08,1.39-.11,1.72-.11,3.43-.1,5.15,0,4.69.29,7.28-5.27,5.18-9.03-.52-.93-1.01-1.87-1.48-2.83-.24-.49-.47-.98-.7-1.48-.09-.2-.18-.4-.27-.6-.08-.19-.67-1.54-.23-.51s-.22-.57-.34-.85c-.21-.53-.41-1.07-.61-1.61-.43-1.15-.82-2.32-1.2-3.49-1.53-4.77-2.69-9.65-3.61-14.57-.47-2.52-.87-5.06-1.23-7.6-.19-1.32.14,1.13.03.25-.04-.32-.08-.64-.12-.96-.08-.64-.16-1.28-.23-1.92-.15-1.28-.28-2.56-.4-3.85-.47-5.02-.76-10.05-.87-15.09s-.05-10.47.25-15.7c.18-3.14-2.89-6.14-6-6-3.4.15-5.81,2.64-6,6h0Z"/></g><path class="cls-6" d="m471.71,341.44c1.43,12.59,4.29,39.7,4.24,51.9,0,25.23-3.76,49.68-11.6,73.66-4.33,13.25-7.57,26.2-16.33,37.42-4.1,5.25-5.13-1.75-5.56-4.9-.71-5.23-.65-10.52-1.27-15.75-2.75-22.97-5.8-45.82-10.03-68.58-2.26-12.18-4.3-25.97-9.89-37.13l-.8-.68c17.29,8.91,49.22-22.56,51-27,1.61-4.03,2.27-9.53,2.44-15.83"/><path class="cls-6" d="m213.71,342.44c-1.43,12.59-2.43,39.7-2.38,51.9,0,25.39,3.33,48.36,11.6,73.66,4.33,13.25,7.57,26.2,16.33,37.42,4.1,5.25,5.13-1.75,5.56-4.9.71-5.23.65-10.52,1.27-15.75,2.75-22.97,5.8-45.82,10.03-68.58,2.26-12.18,4.3-25.97,9.89-37.13l-3,1.32c-17.29,8.91-45.22-24.56-47-29-1.5-3.75-2.18-8.78-2.4-14.54"/><g class="cls-3"><path class="cls-9" d="m220,368.79c0,29.88,2.68,66.03,11.65,98.36-2.3-32.57-2.36-65.71-3.53-98.25-2.03,38.11-5.74,85.91,6.01,122.96"/><path class="cls-5" d="m214,368.79c.01,26.13,1.92,52.38,6.8,78.07,1.4,7.36,3.07,14.66,5.07,21.88.8,2.89,3.66,4.69,6.58,4.3,2.77-.37,5.41-2.91,5.2-5.89-1.8-25.53-2.22-51.12-2.88-76.69-.19-7.18-.39-14.37-.65-21.55-.11-3.13-2.68-6.15-6-6s-5.82,2.64-6,6c-.86,16.01-1.86,32.01-2.13,48.04-.28,16.9.28,33.81,2.64,50.56,1.24,8.78,3.05,17.49,5.71,25.95.94,2.99,4.22,5.21,7.38,4.19s5.2-4.18,4.19-7.38c-2.33-7.4-4.01-15-5.22-22.66-.15-.96-.3-1.92-.43-2.88-.07-.48-.16-.96-.2-1.45,0,0,.16,1.25.08.56-.04-.35-.09-.69-.13-1.04-.25-2.02-.48-4.05-.68-6.08-.4-4.04-.7-8.08-.91-12.13-.88-16.45-.46-32.94.32-49.39.41-8.77.93-17.53,1.4-26.29h-12c.92,25.56,1.15,51.13,2.3,76.68.32,7.19.72,14.38,1.23,21.56l11.79-1.6c-3.52-12.74-5.99-25.72-7.82-38.81-.22-1.55.17,1.34-.03-.21-.04-.3-.08-.6-.12-.9-.11-.83-.21-1.66-.31-2.49-.21-1.73-.41-3.46-.6-5.19-.35-3.21-.66-6.43-.93-9.65-.54-6.36-.94-12.73-1.2-19.11-.28-6.8-.42-13.6-.42-20.4,0-3.14-2.76-6.15-6-6s-6,2.64-6,6h0Z"/></g><g class="cls-3"><path class="cls-9" d="m436.21,385.94c8.27,22.49,16.48,77.27,7.7,105.31.21-29.61,10.18-80.02-7.7-105.31-3.03,38.12,11.8,70.4,11.78,109.97"/><path class="cls-5" d="m430.43,387.53c4.37,11.94,6.76,24.7,8.6,37.24.14.93.27,1.87.4,2.8.05.38.13,1.16-.07-.54.03.24.06.47.09.71.06.47.12.95.18,1.42.25,1.97.47,3.93.68,5.91.41,3.91.74,7.82.97,11.74.45,7.46.57,14.96.16,22.43-.11,1.96-.26,3.92-.45,5.87-.1,1-.22,1.99-.34,2.98-.16,1.31.21-1.47-.01.09-.07.45-.13.9-.21,1.36-.54,3.42-1.27,6.8-2.3,10.11l11.79,1.6c.11-13.92,1.74-27.81,2.48-41.7.81-15.15,1-30.65-2.28-45.55-1.64-7.41-4.34-14.84-8.72-21.09-1.48-2.12-4.12-3.62-6.78-2.76s-4.19,3.04-4.4,5.79c-1.14,14.7.41,29.36,2.8,43.86,2.32,14.02,5.57,27.91,7.33,42.01-.21-1.68-.02-.16.02.15.07.59.15,1.17.22,1.76.12,1.03.24,2.06.35,3.09.22,2.08.41,4.17.57,6.25.32,4.27.49,8.55.49,12.84,0,3.14,2.76,6.15,6,6s6-2.64,6-6c-.02-15.1-2.23-30.07-4.95-44.89-1.28-7.02-2.67-14.01-3.89-21.04-.58-3.36-1.13-6.72-1.61-10.09-.06-.42-.12-.84-.18-1.27-.21-1.48.17,1.38-.01-.1-.11-.85-.22-1.69-.32-2.54-.22-1.84-.41-3.69-.58-5.53-.73-8.15-.88-16.34-.25-24.5-3.73,1.01-7.45,2.02-11.18,3.03,1.76,2.51,3.19,5.19,4.43,7.99.38.86-.24-.56-.25-.59.06.19.15.38.23.57.13.33.26.67.39,1,.31.82.6,1.65.87,2.49.49,1.51.93,3.03,1.31,4.57.42,1.69.79,3.39,1.11,5.11.15.82.29,1.64.42,2.47.06.39.12.78.18,1.17.03.22.06.45.1.67.15,1.06-.15-1.18-.06-.42.43,3.58.74,7.16.91,10.76.7,14.9-.53,29.81-1.62,44.66-.53,7.28-1.08,14.56-1.14,21.86-.02,2.99,2.3,5.5,5.2,5.89s5.69-1.42,6.58-4.3c2.05-6.61,2.99-13.58,3.53-20.47.59-7.54.57-15.13.21-22.68-.74-15.56-2.82-31.16-6.15-46.38-1.4-6.41-3.03-12.81-5.28-18.98-1.08-2.94-4.12-5.25-7.38-4.19-2.89.93-5.35,4.23-4.19,7.38h0Z"/></g><path class="cls-7" d="m212.25,339.39c11.76,24.56-8.34,10.75-37.54,18.04-17.4,4.35-33.96,6.61-51.95,2.79-16.79-3.56-33.48-5.19-47.3-16.18-16.04-12.76-33.86-28.52-36.07-49.91-2.28-21.96-.67-41.7-.67-41.7.1-15.88,16.12-63.19,17.85-80.53,2.46-24.75-3.68-49.76,2.35-74.07,11.21-45.15,52.1-88.06,97.58-56.95l20.61,11.13c57.2,41.34,35.38,111.15,30.53,168.64-1.68,19.95,2.27,40.33,5.19,59.73,3.26,21.67-3.91,57.37,2.09,72.55"/><path class="cls-7" d="m210.95,340.15c1.23,2.58,2.45,5.25,3.02,8.06.16.76.26,1.57.16,2.35-.05.41-.32,1.09-.44,1.24-1.74,2.19-6.97,1.72-9.77,1.71-6.18-.02-12.35-.12-18.51.54-8.98.97-17.62,3.74-26.53,5.17-9.96,1.6-20.17,2.02-30.18.55-4.7-.69-9.34-1.78-14-2.68-4.18-.81-8.35-1.62-12.49-2.63-8.61-2.09-17.01-5.13-24.23-10.38-6.59-4.79-12.88-10.33-18.61-16.12s-10.61-11.88-14.11-19.03c-4.02-8.2-4.75-16.92-5.23-25.92-.59-11.1-.67-22.41.35-33.5.48-5.19,1.64-10.34,2.8-15.42,1.5-6.55,3.2-13.06,4.92-19.56,3.21-12.14,6.79-24.27,9.07-36.63,3.2-17.36.6-35.21.49-52.71-.06-10.02.73-19.96,3.4-29.65,2.07-7.53,4.91-14.85,8.5-21.8,6.72-13.03,16.11-25.27,28.49-33.37,11.73-7.68,25.75-10.65,39.41-6.93,3.85,1.05,7.56,2.55,11.1,4.39,2.62,1.37,5.01,3.08,7.57,4.54,3.59,2.04,7.27,3.92,10.89,5.88,3.08,1.66,6.3,3.19,9.29,5.01s5.77,4.4,8.37,6.76c2.8,2.53,5.44,5.24,7.9,8.1,9.03,10.52,15.05,23.18,18.28,36.62s3.79,27.75,3.2,41.7c-.62,14.32-2.43,28.55-4.27,42.75-1.98,15.27-4.47,30.72-3.95,46.15.34,10.2,1.71,20.33,3.24,30.4,1.28,8.41,2.9,16.76,3.12,25.29.39,15.2-1.57,30.35-1.21,45.55.13,5.58.47,11.48,2.5,16.74.69,1.78,3.59,1.01,2.89-.8-2.2-5.67-2.38-12.04-2.43-18.04-.06-7.83.43-15.67.81-23.49s.72-15.47.31-23.19c-.48-9-2.39-17.9-3.69-26.8-1.52-10.42-2.71-20.94-2.62-31.49.06-8.02,1.02-16.02,1.97-23.97,1.73-14.52,3.89-28.99,5.25-43.55s1.97-29.01.32-43.43-5.33-27.44-12.33-39.54c-3.67-6.35-8.19-12.22-13.33-17.45-2.8-2.84-5.78-5.49-8.91-7.96-1.59-1.26-3.15-2.53-4.93-3.5-7.53-4.06-15.17-7.95-22.45-12.44-12.89-7.96-28.22-11.25-42.95-6.87-13.99,4.16-25.56,14.06-34.33,25.47-9.58,12.47-16.45,27.33-19.94,42.66-4.66,20.48-1.11,41.48-1.45,62.21-.11,6.7-.74,13.2-2.13,19.74-1.3,6.14-2.87,12.22-4.46,18.29-3.45,13.2-7.26,26.34-10,39.72-1.78,8.73-2.25,17.49-2.37,26.38-.14,9.52.18,19.07,1.16,28.54.84,8.15,3.79,15.79,8.23,22.65s10.21,13,16.31,18.55c6.21,5.65,12.79,11.53,20.22,15.52s16.39,6.43,25,8.21c9.42,1.94,18.94,4.23,28.56,4.78,10.07.58,20.15-.59,30-2.6,4.67-.95,9.26-2.27,13.95-3.12,3.71-.67,7.47-1.04,11.24-1.21,5.66-.26,11.33.16,16.98-.18,3.2-.19,7.26-.76,8.47-4.25,1.49-4.32-1.5-9.79-3.28-13.53-.83-1.74-3.42-.22-2.59,1.51h0Z"/><g class="cls-1"><path class="cls-8" d="m209.91,114.57c-17.18-33.09-38.82-75.65-84.3-72.63-70.43,4.68-51.75,95.66-67.54,141.73-9.57,27.93-22.16,56.85-33.78,83.29,22.32,12,19.61,28.26,26.57,48.86,23.67-32.43,26.06-89.81,31.94-128.57,2.43-16.04,3.33-33.01,7.63-48.57,3.91-14.13,15.1-27.8,14.56-42.97,3.51,51.17-12.2,104.67-12.1,156.25.06,31.17-5,66.07-1.81,96.29,41.58,15.72,83.14,9.69,123.14-5.31"/><path class="cls-8" d="m215.09,111.54c-5.97-11.5-11.94-23.03-19.13-33.83-7.62-11.44-16.56-22.08-27.89-30.01-11.49-8.05-25.35-12.21-39.37-11.9-11.82.25-24.03,3.01-34.01,9.56-8.58,5.64-15.27,13.64-19.89,22.77s-7.75,19.79-9.77,30.2c-2.16,11.14-3.4,22.45-4.56,33.73-.56,5.42-1.09,10.85-1.69,16.26-.29,2.6-.6,5.2-.93,7.8-.04.31-.08.61-.12.92-.05.4.21-1.54.05-.37-.1.71-.2,1.41-.3,2.12-.18,1.24-.37,2.48-.57,3.72-.76,4.7-1.68,9.38-2.92,13.98-1.93,7.16-4.66,14.13-7.26,21.07-3.46,9.24-7.12,18.41-10.9,27.53-.94,2.26-1.88,4.51-2.83,6.77-.27.64-.01.03.04-.08-.11.27-.23.54-.34.81-.23.54-.46,1.08-.68,1.61-.49,1.16-.99,2.33-1.49,3.49-1.93,4.52-3.88,9.03-5.85,13.54-1.85,4.24-3.71,8.48-5.57,12.71-1.27,2.89-.95,6.52,2.15,8.21,1.95,1.06,3.85,2.2,5.66,3.49.15.11,1.45,1.11.79.57s.53.44.7.59c.77.65,1.51,1.33,2.22,2.03.63.63,1.24,1.28,1.82,1.96.24.28.47.58.71.86.52.58-.71-.98-.26-.35.14.2.29.39.43.58,1,1.39,1.89,2.85,2.67,4.37.35.67.66,1.35.98,2.04.6,1.31-.37-.97,0,0,.17.43.34.86.5,1.3.57,1.54,1.07,3.11,1.52,4.69.97,3.39,1.73,6.83,2.53,10.26,1.02,4.33,2.12,8.64,3.54,12.86.77,2.3,2.54,3.97,4.99,4.3s4.52-.86,5.98-2.86c8.09-11.14,13.32-24.25,17.19-37.38,4.14-14.05,6.73-28.52,8.84-43,1.09-7.47,2.05-14.96,2.98-22.46.41-3.35.82-6.69,1.24-10.04s.67-6.74,1.28-10.03c-.35,1.87.1-.76.17-1.23.09-.66.18-1.32.28-1.98.26-1.86.55-3.71.82-5.57.68-4.68,1.26-9.38,1.82-14.08.27-2.29.54-4.58.83-6.87.12-.95.24-1.91.36-2.86.07-.57.15-1.14.22-1.71-.17,1.25.15-1.04.18-1.26.64-4.53,1.39-9.05,2.36-13.52s2.12-8.76,3.81-12.95c.08-.2.73-1.71.15-.38.26-.6.52-1.21.79-1.81.41-.91.82-1.81,1.25-2.71.99-2.12,2.01-4.23,3.01-6.35,3.97-8.49,7.64-17.39,7.38-26.95h-12c2.25,33.44-3.41,66.73-7.67,99.79-2.12,16.49-3.97,33.04-4.36,49.68-.19,7.95-.13,15.9-.46,23.86-.35,8.3-.86,16.6-1.34,24.89-1.03,18.07-1.97,36.29-.09,54.33.3,2.88,1.7,4.77,4.4,5.79,16,6.01,33.04,9.15,50.13,9.44,16.59.28,33.23-2.11,49.28-6.21,9.13-2.33,18.09-5.24,26.91-8.54,2.93-1.1,5.25-4.11,4.19-7.38-.93-2.87-4.23-5.37-7.38-4.19-15.17,5.67-30.81,10.19-46.84,12.61-.56.09-1.13.16-1.69.25-1.81.27.71-.08-.38.05-.94.12-1.88.24-2.82.35-1.98.23-3.96.42-5.94.58-3.96.31-7.94.49-11.91.51s-8.16-.12-12.24-.43c-1.9-.14-3.8-.33-5.7-.55-.48-.06-.95-.12-1.43-.17-1.83-.22.7.11-.4-.05s-2.29-.33-3.43-.52c-9.27-1.53-18.36-4-27.16-7.31l4.4,5.79c-1.67-16.06-1.09-32.27-.24-48.36s2.01-32.68,2.05-49.06c.08-33.42,6.45-66.4,10.09-99.52,2.03-18.45,3.25-37.05,2.01-55.6-.21-3.13-2.61-6.15-6-6-3.18.14-6.09,2.64-6,6,.03.97.02,1.94-.04,2.92-.03.48-.08.96-.12,1.45-.12,1.61.25-1.27-.04.32-.35,1.91-.76,3.8-1.33,5.67-.52,1.73-1.14,3.43-1.81,5.11-.18.46-.37.92-.56,1.38.55-1.33-.1.22-.18.4-.4.92-.82,1.83-1.24,2.74-3.41,7.36-7.23,14.6-9.32,22.48-2.39,9-3.65,18.25-4.8,27.48-.56,4.47-1.06,8.95-1.63,13.42-.06.47-.12.95-.18,1.42-.02.12-.26,1.99-.08.67-.15,1.13-.31,2.25-.48,3.38-.25,1.67-.5,3.33-.74,5-.98,6.91-1.84,13.83-2.69,20.75-.42,3.39-.83,6.79-1.26,10.18-.23,1.81-.46,3.61-.69,5.42-.1.76-.2,1.52-.3,2.27-.21,1.57.18-1.34-.03.23-.08.61-.17,1.22-.25,1.83-1.97,14.31-4.33,28.62-8.03,42.6-1.02,3.83-2.13,7.64-3.39,11.4-.6,1.8-1.23,3.6-1.9,5.38-.3.81-.62,1.62-.94,2.43-.16.4-.32.8-.48,1.2-.13.31-.79,2.15-.22.54-1.19,3.38-3.03,6.67-4.75,9.81s-3.69,6.26-5.82,9.2c3.66.48,7.31.96,10.97,1.43-4.93-14.7-5.57-31.19-16.72-43.04-3.59-3.82-8.01-6.9-12.61-9.4l2.15,8.21c7.9-17.98,15.75-35.99,23.02-54.23,3.52-8.84,6.9-17.73,10.05-26.71,1.74-4.96,3.27-9.92,4.38-15.05,2.22-10.29,3.37-20.8,4.46-31.26.55-5.3,1.07-10.61,1.64-15.91.29-2.72.6-5.44.93-8.16.16-1.3.33-2.6.5-3.9s-.21,1.53-.04.3c.04-.32.09-.65.13-.97.1-.75.21-1.51.32-2.26,1.5-10.2,3.51-20.41,7.05-30.11.4-1.11.84-2.21,1.28-3.31.19-.48.73-1.19-.15.35.14-.25.23-.54.35-.8.27-.62.55-1.23.84-1.85,1.01-2.15,2.12-4.25,3.35-6.28.58-.96,1.19-1.9,1.82-2.83.29-.42.58-.84.88-1.25.14-.19.27-.37.41-.56.89-1.22-.73.9-.1.11,1.46-1.79,2.96-3.52,4.62-5.13.8-.77,1.62-1.51,2.48-2.22.45-.38,2.08-1.36.31-.28.55-.34,1.06-.79,1.59-1.16,1.96-1.38,4.04-2.6,6.19-3.67.53-.26,1.07-.52,1.61-.76.21-.1.66-.2.82-.36-.76.73-1.13.46-.31.14,1.26-.48,2.51-.95,3.8-1.36,2.51-.79,5.08-1.4,7.68-1.86.69-.12,1.37-.22,2.06-.33,1.29-.2-1.5.18-.19.03.36-.04.71-.09,1.07-.13,1.69-.18,3.38-.32,5.08-.38s3.46-.08,5.19-.01c.84.03,1.68.08,2.51.14.48.04,2.57-.06,2.87.29l-.79-.11c.27.04.53.08.8.12.4.06.79.13,1.19.19.78.14,1.57.29,2.34.46,1.65.36,3.29.79,4.91,1.29,1.46.45,2.91.97,4.33,1.53l.35.14c.6.25.47.19-.38-.17.23.2.76.33,1.04.46.69.31,1.37.64,2.05.97,2.8,1.4,5.5,3.01,8.07,4.8.62.43,1.23.87,1.83,1.32.47.35.86,1.05-.02-.03.21.26.62.49.89.7,1.28,1.03,2.53,2.09,3.74,3.2,2.36,2.15,4.6,4.42,6.73,6.8,1.03,1.15,2.04,2.33,3.02,3.52.49.6.98,1.21,1.47,1.82.22.28.56.6.72.92-.75-1.45-.04-.04.25.34,7.78,10.32,14.08,21.66,20.08,33.08,1.39,2.65,2.77,5.31,4.15,7.96,1.45,2.79,5.58,3.85,8.21,2.15,2.84-1.83,3.7-5.22,2.15-8.21h0Z"/></g><g class="cls-1"><path class="cls-9" d="m332.95,638.09c-22.32-60.1-30.59-120.75-42.87-183.6-4.62-23.65-2.6-60.32-22.78-72.74-21.79-13.41-39.47-8.54-43.48-37.4-5.56-40.01-3.59-84.91.28-125.33,3.97-41.49-4.89-105.08-2.15-134.88,4.27-46.36,71.99-44.27,111.25-59.2h0c-52.55,12.07-44.83,66.72-49,106.47-15.04.71-34.08,25.34-17.94,36.66,2.82,1.98,18.31-3.01,23.86-1.66,12.41,3.01,18.29,11.94,23.08,21.85,14.45,29.85,1.26,77.84,1.58,111.36.79,83.86-8.53,176.21,4.04,260.29,6.93,46.36,21.36,98.74,70.62,114.51"/><path class="cls-9" d="m338.74,636.49c-21.34-57.69-30.34-118.61-41.92-178.74-4.1-21.3-3.2-44.51-12.33-64.54-4.44-9.74-11.87-16.01-21.37-20.57-8.16-3.92-16.62-5.83-23.82-10.53-2.71-1.77-4.88-4.18-6.57-7.62-2.28-4.64-3-10.6-3.64-15.9-1.8-15-2.57-30.12-2.69-45.22-.12-15.16.42-30.32,1.38-45.45.85-13.42,2.51-26.8,3.09-40.24,1.06-24.92-.81-49.9-2.17-74.76-.61-11.04-1.21-22.1-1.27-33.17-.04-8.61-.21-16.85,2.69-24.75,2.3-6.26,7.67-12.23,13.36-16.1,7.35-5,14.92-7.97,23.29-10.6,18.19-5.72,37.14-8.48,55.5-13.56,4.23-1.17,8.43-2.48,12.54-4.03,7.13-2.68,4.45-13.37-3.19-11.57-18.13,4.27-33.53,15.09-41.52,32.19-7.48,16-9.04,33.92-10.03,51.33-.55,9.58-.86,19.18-1.85,28.73l6-6c-16.17,1.11-33.25,18.99-29.59,35.78.91,4.19,3.44,7.96,6.75,10.64s6.59,2.95,10.64,2.45,8.34-1.42,12.07-1.86c.91-.11,1.83-.2,2.75-.23.34-.01,2.6.12,1.23-.09,2.3.35,4.6,1.31,6.61,2.44,7.4,4.17,12.11,12.73,14.92,20.49,3.33,9.21,4.28,19,4.38,28.74.22,21.63-3.62,43-4.88,64.54-.66,11.38-.22,22.81-.33,34.21-.12,12.77-.39,25.53-.72,38.3-.67,26.22-1.54,52.43-1.79,78.65-.46,48.28.73,97.41,10.83,144.8,7.53,35.32,22.85,72.92,56.86,90.21,4.46,2.27,9.13,4.16,13.88,5.71,7.36,2.4,10.51-9.18,3.19-11.57-16.23-5.29-29.98-15.78-39.71-29.78-9.95-14.31-16.01-30.83-20.28-47.62-11.12-43.68-12.73-89.78-12.84-134.63-.12-50.01,2.78-99.97,2.63-149.98-.03-10.18.27-20.23,1.22-30.37.99-10.55,2.26-21.07,3.09-31.63,1.55-19.8,2.03-41.06-6.75-59.39-4.06-8.46-9.6-16.68-18.05-21.27-3.9-2.12-8.39-3.8-12.87-3.79-4.11.01-8.24.9-12.28,1.58-1.79.3-3.09.54-4.48.67-.75.07-1.5.06-2.25.11-.69.04-.51-.36.29.09-.84-.47.53.25.54.26-.84-1.28-1.79-1.56-2.48-2.94-.44-.86-.69-1.92-.69-3.27,0-2.77,1.22-5.74,3-8.53s4.31-5.45,7-7.34c1.16-.81,3.1-1.95,3.93-2.3s1.7-.62,2.57-.83c1.13-.28.93-.22,1.58-.27,3.49-.24,5.65-2.57,6-6,1.67-16.19,1.4-32.55,3.57-48.7,1.9-14.12,6.02-29.21,16.33-39.37,6.64-6.54,15.42-10.42,24.69-12.61l-3.19-11.57c-17.93,6.75-37.13,9.46-55.64,14.12-17.27,4.35-36.66,10.23-48.82,24.09-6.15,7.01-9.76,15.39-10.95,24.61-1.19,9.25-.88,18.73-.58,28.03.8,24.97,2.98,49.88,3.43,74.87.5,27.36-3.21,54.45-4.24,81.77-.58,15.33-.64,30.7.11,46.03.37,7.5.93,14.99,1.75,22.45.72,6.6,1.25,13.45,3.35,19.78,3.08,9.28,9.25,16.1,18.07,20.24s17.94,6.64,26.16,11.79c7.57,4.74,11.08,14.05,13.21,22.75,2.6,10.56,3.44,21.44,4.72,32.21,1.59,13.32,4.46,26.44,6.9,39.62,2.84,15.36,5.61,30.73,8.57,46.07,5.86,30.31,12.52,60.52,21.87,89.97,2.36,7.44,4.9,14.81,7.61,22.13,1.12,3.04,4.06,5.1,7.38,4.19,2.92-.8,5.32-4.33,4.19-7.38h0Z"/></g><path class="cls-4" d="m256.3,382.44c-2.66,0-5.52-.57-8.55-1.7-15.99-5.97-32.7-26.25-34.36-30.38-3.53-8.84-2.8-23.46-2.03-38.94.59-11.8,1.2-24.01-.21-33.29-.4-2.62-.82-5.25-1.24-7.9-2.68-16.9-5.45-34.38-3.97-51.7.83-9.68,2.11-19.48,3.47-29.85,6.54-49.88,13.31-101.46-32.97-134.5-1.12-.8-1.38-2.36-.58-3.49.8-1.12,2.37-1.38,3.49-.58,21.83,15.59,34.35,36.59,38.28,64.22,3.42,24.11.03,49.98-3.25,75-1.35,10.31-2.63,20.05-3.45,29.62-1.43,16.71,1.3,33.88,3.93,50.49.42,2.66.84,5.3,1.24,7.93,1.49,9.77.86,22.23.26,34.29-.71,14.26-1.45,29.01,1.68,36.83,1,2.49,16.53,21.98,31.46,27.55,4.76,1.78,8.82,1.83,12.07.16,1.23-.63,2.74-.15,3.37,1.08.63,1.23.15,2.74-1.08,3.37-2.3,1.19-4.83,1.78-7.56,1.78Z"/><path class="cls-4" d="m44.62,225.03h-.02c-1.38,0-2.49-1.14-2.48-2.52.06-8.73,3.31-18.46,6.45-27.87,2.72-8.13,5.52-16.54,6.3-24.3,1-9.95.54-20.19.09-30.1-.64-14.26-1.31-29.01,2.32-43.43,7.75-30.83,27.59-56.43,50.55-65.21,16.62-6.36,34.21-3.77,50.85,7.48,1.14.77,1.45,2.33.67,3.47-.77,1.15-2.33,1.44-3.47.67-15.46-10.44-31.02-12.78-46.27-6.95-21.49,8.22-40.13,32.46-47.49,61.76-3.44,13.71-2.83,27.45-2.17,41.99.45,10.08.92,20.51-.12,30.82-.84,8.31-3.73,16.99-6.54,25.38-3.16,9.46-6.14,18.39-6.19,26.32,0,1.38-1.13,2.48-2.5,2.48Z"/><path class="cls-4" d="m427.14,380.52c-2.99,0-5.69-.62-8.1-1.86-1.23-.63-1.71-2.14-1.08-3.37.63-1.23,2.14-1.71,3.37-1.08,3.53,1.82,8.2,1.73,13.89-.26,15.45-5.41,32.44-22.76,33.65-25.46,3.12-7.81,2.39-22.56,1.67-36.82-.6-12.05-1.23-24.52.26-34.29.4-2.63.82-5.27,1.24-7.93,2.63-16.61,5.36-33.78,3.93-50.49-.82-9.57-2.09-19.31-3.45-29.62-3.28-25.02-6.68-50.89-3.25-75,3.92-27.62,16.44-48.63,38.28-64.22,1.12-.8,2.68-.54,3.49.58.8,1.12.54,2.68-.58,3.49-46.28,33.04-39.51,84.62-32.97,134.5,1.36,10.37,2.65,20.17,3.47,29.85,1.48,17.31-1.29,34.79-3.97,51.7-.42,2.65-.84,5.28-1.24,7.9-1.41,9.27-.8,21.48-.21,33.29.78,15.48,1.51,30.11-2.03,38.94-1.61,4.03-19.21,21.82-35.8,28.01-3.83,1.43-7.36,2.14-10.57,2.14Z"/><path class="cls-4" d="m642.28,225.03c-1.37,0-2.49-1.11-2.5-2.48-.05-7.94-3.03-16.87-6.19-26.32-2.8-8.39-5.7-17.07-6.54-25.38-1.04-10.31-.57-20.74-.12-30.83.65-14.54,1.27-28.28-2.17-41.99-3.18-12.67-15.99-54.79-47.2-65.13-19.35-6.41-41.99.81-67.27,21.47-1.07.87-2.64.71-3.52-.35-.87-1.07-.71-2.64.35-3.52,26.7-21.81,50.93-29.33,72.01-22.34,33.63,11.14,47.14,55.37,50.48,68.66,3.62,14.42,2.96,29.17,2.32,43.43-.45,9.91-.91,20.15.09,30.1.78,7.75,3.59,16.16,6.3,24.3,3.14,9.41,6.39,19.14,6.45,27.87,0,1.38-1.1,2.51-2.48,2.52h-.02Z"/><path class="cls-9" d="m345.49,364.11c-8.51,0-17.02-1.43-25.07-4.28-1.3-.46-1.98-1.89-1.52-3.19s1.89-1.98,3.19-1.52c14.2,5.03,29.93,5.32,44.3.82,1.32-.41,2.72.32,3.13,1.64.41,1.32-.32,2.72-1.64,3.13-7.25,2.27-14.82,3.4-22.39,3.4Z"/><path class="cls-9" d="m341.46,331.71c-14.84,0-30.67-.89-44-5.46-1.31-.45-2-1.87-1.55-3.18.45-1.3,1.87-2,3.18-1.55,15.35,5.26,34.6,5.39,51.43,5.1h.13c10.2-.18,22.9-.4,32.22-4.11,1.28-.51,2.74.12,3.25,1.4.51,1.28-.12,2.74-1.4,3.25-10.17,4.04-23.37,4.27-33.98,4.46h-.13c-2.98.05-6.04.09-9.14.09Z"/><path class="cls-9" d="m339.96,304.8c-5.99,0-11.97-.8-17.7-2.41-1.33-.37-2.1-1.75-1.73-3.08.37-1.33,1.75-2.11,3.08-1.73,11.37,3.2,23.82,2.95,35.06-.7,1.31-.43,2.72.29,3.15,1.61s-.29,2.72-1.61,3.15c-6.5,2.11-13.38,3.17-20.26,3.17Z"/><path class="cls-4" d="m254.98,155.49c-.4,0-.8-.09-1.18-.3-1.22-.65-1.68-2.17-1.02-3.38,5.58-10.43,23.26-28.12,38.63-26.25,10.61,1.29,16.66,11.09,21.52,18.97.63,1.02,1.25,2.03,1.87,2.99.74,1.16.4,2.71-.76,3.45-1.16.74-2.71.4-3.45-.76-.63-.98-1.26-2.01-1.91-3.06-4.52-7.33-9.65-15.64-17.87-16.63-11.82-1.43-28.08,13.28-33.62,23.65-.45.84-1.31,1.32-2.21,1.32Z"/><path class="cls-4" d="m375.07,157.17c-.4,0-.81-.1-1.18-.3-1.21-.65-1.65-2.16-1-3.37,5.58-10.29,23.29-27.75,38.61-25.91,10.59,1.27,16.64,10.95,21.5,18.72.63,1.01,1.25,2,1.87,2.96.75,1.15.42,2.69-.74,3.43-1.15.75-2.69.42-3.43-.74-.63-.97-1.26-1.99-1.91-3.02-4.52-7.24-9.65-15.44-17.88-16.42-11.85-1.4-28.1,13.11-33.65,23.35-.45.83-1.3,1.3-2.19,1.3Z"/><path class="cls-4" d="m423.01,677.92c-35.85,0-65.1-10.92-87.32-32.68-24.14-23.63-32.11-55.22-39.81-85.76-2.31-9.14-4.8-18.57-7.21-27.69-9.11-34.48-18.54-70.13-22.16-105.11l-1.23-11.87c-.94-9.15-1.89-18.36-2.87-27.59-2.3,7.26-3.72,15.09-5.1,22.74-.25,1.41-.51,2.8-.76,4.17-4.51,24.28-7.58,48.21-10,68.42-.29,2.39-.43,4.86-.56,7.26-.16,2.79-.32,5.67-.71,8.54-.52,3.83-1.34,7.99-4.45,8.83-1.88.5-3.75-.41-5.56-2.73-7.8-9.99-11.28-20.99-14.96-32.62-.58-1.84-1.17-3.7-1.78-5.55-8.11-24.81-11.72-47.77-11.72-74.44l-.02-4.25c-.06-10.35-.12-20.16.94-30.71-8.8.76-18,2.08-27.62,3.45-20.11,2.87-40.91,5.83-60.5,4.01-38.8-3.59-71.11-29.67-88.64-71.53-1.43-3.42-2.63-6.67-3.79-9.8-2.99-8.09-5.57-15.07-11.03-22.47-1.41-1.92-2.97-3.73-4.63-5.64-3.04-3.52-6.18-7.16-8.3-11.5-5.39-11.01-3.2-16.28.79-25.85l.82-1.98c10.85-26.33,14.28-47.58,11.84-73.34-3.82-40.31,4.09-71.75,24.16-96.11,13.42-16.28,34.59-30.33,58.08-38.53,24.85-8.67,49.32-9.92,68.93-3.5,20.44,6.69,30.53,19.13,41.21,32.31,4.35,5.37,8.84,10.9,14.18,16.2,9.58-7.01,55.22-38.28,112.58-42.18,63.6-4.32,110.95,24.94,129.96,39.2,5.66-5.68,9.79-11.31,13.79-16.77,8.4-11.47,16.34-22.3,36.03-28.75,19.6-6.42,44.08-5.17,68.93,3.5,23.49,8.2,44.66,22.25,58.08,38.53,20.08,24.36,27.98,55.8,24.16,96.11-2.44,25.76.99,47.01,11.84,73.34l.82,1.98c3.98,9.57,6.18,14.84.79,25.85-2.13,4.34-5.27,7.98-8.3,11.5-1.65,1.92-3.21,3.73-4.63,5.64-5.45,7.4-8.04,14.39-11.03,22.47-1.16,3.14-2.36,6.38-3.79,9.8-17.53,41.87-49.84,67.94-88.64,71.53-19.6,1.81-40.39-1.15-60.5-4.01-9.69-1.38-18.96-2.7-27.83-3.46,1.07,10.54,1.01,20.35.95,30.69l-.02,4.29c0,25.94-3.83,50.28-11.73,74.43-.61,1.86-1.19,3.71-1.78,5.55-3.68,11.64-7.16,22.63-14.96,32.62-1.81,2.32-3.68,3.23-5.56,2.73-3.1-.84-3.92-5-4.44-8.83-.39-2.86-.56-5.75-.71-8.54-.14-2.4-.28-4.87-.56-7.26-2.42-20.22-5.5-44.16-10-68.42-.25-1.37-.5-2.76-.76-4.16-1.58-8.71-3.19-17.65-6.1-25.71-3.05,14.88-6.55,29.6-9.97,43.97-1.92,8.06-3.9,16.4-5.78,24.66-1.69,7.43-3.08,13.37-4.32,18.61-5.99,25.5-6.62,28.17-8.28,65.47-.78,17.56,3.03,36.26,10.44,51.3,3.75,7.6,10.58,17.89,21.82,23.74,14.82,7.71,47.72,8.09,66.33-3,8.84-5.27,13.41-12.43,13.56-21.29.04-2.36-.67-5.58-1.41-8.99-1.93-8.82-4.57-20.9,6.15-25.12,4.08-1.61,7.98-1.47,11.59.42,7.03,3.67,10.78,12.85,12.44,18.24,3.59-1.67,8.39-3.39,11.87-3.42.06,0,.13,0,.19,0,6,0,10.49,2.44,12.68,6.88,2.58,5.25,1.34,12.36-3.16,18.12-2.98,3.81-6.26,4.69-8.9,5.4-1.59.42-2.96.79-4.15,1.74-3.02,2.42-3.54,5.4-4.25,9.53-.26,1.52-.53,3.08-.96,4.75-7.98,31.09-38.91,51.31-64.27,56.93-17.28,3.83-33.45,5.75-48.46,5.75Zm-156.64-300.66c1.34,12.38,2.62,24.76,3.88,37.03l1.23,11.87c3.59,34.6,12.96,70.06,22.02,104.35,2.41,9.13,4.91,18.58,7.22,27.75,7.54,29.87,15.33,60.76,38.46,83.41,30.24,29.61,74.38,38.23,131.2,25.62,23.91-5.31,53.05-24.25,60.5-53.3.38-1.47.63-2.93.87-4.35.76-4.41,1.54-8.97,6.04-12.58,2.01-1.61,4.12-2.18,5.99-2.67,2.4-.64,4.3-1.15,6.25-3.65,3.28-4.19,4.33-9.34,2.61-12.83-1.33-2.71-4.24-4.12-8.34-4.09-3.01.03-8.72,2.21-12.29,4.22-.68.39-1.51.43-2.23.11-.72-.31-1.25-.95-1.43-1.71-1.56-6.54-5.31-15.18-10.72-18-2.31-1.2-4.74-1.27-7.45-.2-6.29,2.48-5.31,9.29-3.1,19.4.81,3.7,1.58,7.2,1.53,10.14-.18,10.56-5.71,19.38-16,25.51-20.27,12.07-54.92,11.6-71.2,3.14-12.45-6.47-19.92-17.69-24-25.96-7.89-16-11.78-35.08-10.95-53.73,1.68-37.77,2.32-40.48,8.41-66.4,1.23-5.23,2.62-11.17,4.31-18.58,1.88-8.29,3.87-16.64,5.79-24.71,4.66-19.59,9.48-39.85,13.07-60.21l.77-4.32c2.49-13.99,5.07-28.45,5.35-42.53.22-11.22,1.58-20.42,4.41-29.86.4-1.32,1.79-2.08,3.11-1.68,1.32.4,2.07,1.79,1.68,3.11-2.69,8.98-3.99,17.77-4.2,28.52-.29,14.47-2.9,29.13-5.42,43.31l-.77,4.32c-.46,2.61-.94,5.22-1.44,7.82,5.08,10.21,7.32,22.6,9.3,33.53.25,1.4.5,2.78.75,4.14,4.53,24.4,7.62,48.44,10.05,68.74.3,2.54.45,5.1.59,7.57.15,2.69.31,5.47.68,8.14.29,2.13.58,3.36.81,4.06.09-.1.19-.22.29-.36,7.25-9.28,10.59-19.86,14.13-31.05.59-1.86,1.18-3.73,1.79-5.6,7.72-23.63,11.48-47.48,11.48-72.88l.02-4.32c.06-10.27.12-20-.94-30.36l-2.82-.91c-1.19-.38-1.92-1.59-1.69-2.83.23-1.23,1.31-2.09,2.58-2.05,11.23.55,23,2.22,35.46,4,19.82,2.82,40.32,5.75,59.33,3.98,36.9-3.42,67.69-28.38,84.49-68.49,1.39-3.32,2.57-6.52,3.72-9.61,2.99-8.09,5.82-15.73,11.69-23.7,1.53-2.07,3.22-4.04,4.87-5.95,2.96-3.43,5.76-6.67,7.6-10.44,4.4-8.98,2.95-12.45-.91-21.73l-.83-2c-11.19-27.15-14.72-49.08-12.2-75.72,3.69-38.93-3.85-69.17-23.04-92.46-12.85-15.6-33.22-29.08-55.87-36.99-23.82-8.32-47.16-9.55-65.72-3.47-18.17,5.95-25.3,15.68-33.55,26.95-4.48,6.11-9.11,12.44-15.89,18.92-.89.85-2.27.93-3.25.17-17.28-13.32-64.4-43.84-128.3-39.49-49.43,3.36-94.64,29.26-111.63,42.48-.57.44-1.29.61-2,.48-.65-.12-1.22-.49-1.59-1.03-6.08-5.85-11-11.92-15.76-17.79-10.21-12.59-19.85-24.47-38.88-30.7-18.57-6.08-41.91-4.84-65.72,3.47-22.65,7.91-43.02,21.39-55.87,36.99-19.2,23.29-26.73,53.54-23.04,92.46,2.52,26.63-1.01,48.57-12.2,75.72l-.83,2c-3.86,9.28-5.31,12.75-.91,21.73,1.84,3.76,4.64,7,7.6,10.44,1.64,1.9,3.34,3.87,4.87,5.95,5.87,7.97,8.7,15.61,11.69,23.7,1.14,3.09,2.32,6.28,3.72,9.61,16.8,40.11,47.59,65.07,84.49,68.49,19.01,1.76,39.51-1.16,59.33-3.98,12.46-1.77,24.23-3.45,35.46-4,1.26-.08,2.37.82,2.58,2.07.22,1.24-.52,2.45-1.73,2.82l-3,.92c-1.06,10.36-1,20.09-.94,30.37l.02,4.28c0,26.13,3.54,48.61,11.48,72.89.61,1.87,1.2,3.74,1.79,5.6,3.54,11.2,6.88,21.77,14.13,31.05.11.14.21.25.29.36.24-.7.52-1.93.81-4.06.36-2.67.52-5.45.68-8.15.14-2.47.29-5.03.59-7.57,2.43-20.28,5.52-44.31,10.05-68.74.25-1.37.5-2.75.76-4.15,1.92-10.62,4.09-22.6,8.87-32.63-.29-2.64-.58-5.28-.87-7.92l-10.22-76.25c-.18-1.35.76-2.6,2.11-2.8,1.35-.2,2.61.71,2.84,2.06,4.09,24.46,7.34,50.33,10.24,76.39l1.11,8.31c.05.36.02.72-.08,1.06Z"/><ellipse class="cls-6" cx="288.19" cy="200.96" rx="27.71" ry="41.02"/><path class="cls-4" d="m288.19,244.48c-16.66,0-30.21-19.52-30.21-43.52s13.55-43.52,30.21-43.52,30.21,19.52,30.21,43.52-13.55,43.52-30.21,43.52Zm0-82.04c-13.9,0-25.21,17.28-25.21,38.52s11.31,38.52,25.21,38.52,25.21-17.28,25.21-38.52-11.31-38.52-25.21-38.52Z"/><ellipse class="cls-4" cx="288.67" cy="215.54" rx="15.95" ry="19.1"/><path class="cls-4" d="m288.67,237.14c-10.17,0-18.45-9.69-18.45-21.6s8.28-21.6,18.45-21.6,18.45,9.69,18.45,21.6-8.28,21.6-18.45,21.6Zm0-38.2c-7.42,0-13.45,7.45-13.45,16.6s6.03,16.6,13.45,16.6,13.45-7.45,13.45-16.6-6.03-16.6-13.45-16.6Z"/><circle class="cls-6" cx="283.27" cy="205.3" r="3.61"/><path class="cls-6" d="m283.27,211.42c-.92,0-1.83-.21-2.68-.62-1.47-.72-2.57-1.96-3.1-3.51s-.43-3.2.29-4.67c.72-1.47,1.96-2.57,3.51-3.1,1.55-.53,3.2-.43,4.67.29,1.47.72,2.57,1.96,3.1,3.51,1.09,3.19-.61,6.67-3.8,7.76-.65.22-1.32.33-1.99.33Zm0-7.22c-.12,0-.24.02-.36.06-.58.2-.89.83-.69,1.41h0c.13.38.41.56.56.64.15.08.47.18.85.05.58-.2.89-.83.69-1.41-.16-.46-.59-.75-1.05-.75Z"/><ellipse class="cls-6" cx="404.32" cy="200.66" rx="27.71" ry="41.02"/><path class="cls-4" d="m404.32,244.18c-16.66,0-30.21-19.52-30.21-43.52s13.55-43.52,30.21-43.52,30.21,19.52,30.21,43.52-13.55,43.52-30.21,43.52Zm0-82.04c-13.9,0-25.21,17.28-25.21,38.52s11.31,38.52,25.21,38.52,25.21-17.28,25.21-38.52-11.31-38.52-25.21-38.52Z"/><ellipse class="cls-4" cx="404.8" cy="215.24" rx="15.95" ry="19.1"/><path class="cls-4" d="m404.8,236.84c-10.17,0-18.45-9.69-18.45-21.6s8.28-21.6,18.45-21.6,18.45,9.69,18.45,21.6-8.28,21.6-18.45,21.6Zm0-38.2c-7.41,0-13.45,7.45-13.45,16.6s6.03,16.6,13.45,16.6,13.45-7.45,13.45-16.6-6.03-16.6-13.45-16.6Z"/><circle class="cls-6" cx="400.4" cy="207" r="3.61"/><path class="cls-6" d="m400.41,213.11c-2.54,0-4.92-1.6-5.79-4.13h0c-1.09-3.19.61-6.67,3.8-7.76,3.19-1.1,6.67.61,7.76,3.8.53,1.54.43,3.2-.29,4.67-.72,1.47-1.96,2.57-3.51,3.1-.65.22-1.32.33-1.98.33Zm-1.06-5.75c.2.58.83.89,1.41.69.38-.13.56-.41.64-.56.08-.15.18-.47.05-.85-.13-.38-.41-.56-.56-.64s-.47-.18-.85-.05c-.58.2-.89.83-.69,1.41h0Z"/></g></svg>