<?xml version="1.0" encoding="UTF-8"?><svg id="Layer_1" xmlns="http://www.w3.org/2000/svg" viewBox="0 0 300 300"><defs><style>.cls-1{fill:#ffd96a;}.cls-2{fill:#3b66ef;}</style></defs><circle class="cls-1" cx="150.07" cy="153.47" r="74.41"/><path class="cls-2" d="m221.98,153.47c-.28,29.89-18.98,57.37-47.3,67.6-28.29,10.21-60.53,1.49-79.84-21.53-19.44-23.18-21.99-57.22-6.41-83.11s46.44-39.47,75.98-33.44c33.35,6.8,57.27,36.66,57.58,70.49.03,3.22,5.03,3.22,5,0-.29-32-20.24-61.01-50.35-72.19-30.4-11.28-65.73-1.54-86.16,23.59s-22.91,60.67-6.37,88.16c16.6,27.6,49.39,42.03,80.96,35.87,35.81-6.99,61.58-39.25,61.91-75.44.03-3.22-4.97-3.22-5,0Z"/><path class="cls-2" d="m72.66,65.71c5.07,6.04,10.14,12.08,15.21,18.12,2.07,2.47,5.59-1.08,3.54-3.54-5.07-6.04-10.14-12.08-15.21-18.12-2.07-2.47-5.59,1.08-3.54,3.54h0Z"/><path class="cls-2" d="m33.92,135.92c7.77,1.37,15.53,2.74,23.3,4.11,3.15.55,4.5-4.26,1.33-4.82-7.77-1.37-15.53-2.74-23.3-4.11-3.15-.55-4.5,4.26-1.33,4.82h0Z"/><path class="cls-2" d="m50.03,214.57c6.83-3.94,13.66-7.89,20.49-11.83,2.79-1.61.27-5.93-2.52-4.32-6.83,3.94-13.66,7.89-20.49,11.83-2.79,1.61-.27,5.93,2.52,4.32h0Z"/><path class="cls-2" d="m112.77,264.4c2.7-7.41,5.39-14.82,8.09-22.23,1.1-3.03-3.73-4.33-4.82-1.33-2.7,7.41-5.39,14.82-8.09,22.23-1.1,3.03,3.73,4.33,4.82,1.33h0Z"/><path class="cls-2" d="m192.94,262.8c-2.7-7.41-5.39-14.82-8.09-22.23-1.09-3-5.93-1.7-4.82,1.33,2.7,7.41,5.39,14.82,8.09,22.23,1.09,3,5.93,1.7,4.82-1.33h0Z"/><path class="cls-2" d="m253.03,209.56c-6.83-3.94-13.66-7.89-20.49-11.83-2.79-1.61-5.31,2.71-2.52,4.32,6.83,3.94,13.66,7.89,20.49,11.83,2.79,1.61,5.31-2.71,2.52-4.32h0Z"/><path class="cls-2" d="m264.75,130.31c-7.77,1.37-15.53,2.74-23.3,4.11-3.16.56-1.82,5.38,1.33,4.82,7.77-1.37,15.53-2.74,23.3-4.11,3.16-.56,1.82-5.38-1.33-4.82h0Z"/><path class="cls-2" d="m223.33,61.66c-5.07,6.04-10.14,12.08-15.21,18.12-2.06,2.45,1.46,6,3.54,3.54,5.07-6.04,10.14-12.08,15.21-18.12,2.06-2.45-1.46-6-3.54-3.54h0Z"/><path class="cls-2" d="m147.17,36.27c0,7.89,0,15.77,0,23.66,0,3.22,5,3.22,5,0,0-7.89,0-15.77,0-23.66,0-3.22-5-3.22-5,0h0Z"/></svg>