<?xml version="1.0" encoding="UTF-8"?><svg id="Layer_2" xmlns="http://www.w3.org/2000/svg" viewBox="0 0 218.16 311.08"><defs><style>.cls-1{fill:#0069ff;}.cls-2{fill:#eaf0ff;}.cls-3{fill:#fff;}.cls-4{fill:#c1d5ff;}</style></defs><g id="Layer_1-2"><path class="cls-3" d="m215.66,58.72v233.2c0,9.16-6.89,16.66-15.32,16.66H17.82c-8.42,0-15.32-7.5-15.32-16.66V58.72c0-9.16,6.89-16.66,15.32-16.66h36.38v24.29h109.77v-24.29h36.38c8.42,0,15.32,7.5,15.32,16.66Z"/><path class="cls-1" d="m200.35,311.08H17.82c-9.82,0-17.82-8.59-17.82-19.16V58.72c0-10.56,7.99-19.16,17.82-19.16h36.38c1.38,0,2.5,1.12,2.5,2.5v21.79h104.77v-21.79c0-1.38,1.12-2.5,2.5-2.5h36.38c9.82,0,17.82,8.59,17.82,19.16v233.2c0,10.56-7.99,19.16-17.82,19.16ZM17.82,44.56c-7.07,0-12.82,6.35-12.82,14.16v233.2c0,7.81,5.75,14.16,12.82,14.16h182.53c7.07,0,12.82-6.35,12.82-14.16V58.72c0-7.81-5.75-14.16-12.82-14.16h-33.88v21.79c0,1.38-1.12,2.5-2.5,2.5H54.2c-1.38,0-2.5-1.12-2.5-2.5v-21.79H17.82Z"/><rect class="cls-2" x="54.2" y="28.87" width="109.77" height="37.48"/><path class="cls-1" d="m163.97,68.85H54.2c-1.38,0-2.5-1.12-2.5-2.5V28.87c0-1.38,1.12-2.5,2.5-2.5h109.77c1.38,0,2.5,1.12,2.5,2.5v37.48c0,1.38-1.12,2.5-2.5,2.5Zm-107.27-5h104.77V31.37H56.7v32.48Z"/><path class="cls-1" d="m144.18,31.37h-70.2c-1.38,0-2.5-1.12-2.5-2.5v-4.18c0-13.62,10.28-24.7,22.92-24.7h29.37c12.63,0,22.91,11.08,22.91,24.7v4.18c0,1.38-1.12,2.5-2.5,2.5Zm-67.7-5h65.2v-1.68c0-10.86-8.03-19.7-17.91-19.7h-29.37c-9.88,0-17.92,8.84-17.92,19.7v1.68Z"/><path class="cls-4" d="m185.91,121.51h-107.51c-1.73,0-3.12-1.4-3.12-3.12s1.4-3.12,3.12-3.12h107.51c1.73,0,3.12,1.4,3.12,3.12s-1.4,3.12-3.12,3.12Z"/><path class="cls-4" d="m185.91,166.8h-107.51c-1.73,0-3.12-1.4-3.12-3.12s1.4-3.12,3.12-3.12h107.51c1.73,0,3.12,1.4,3.12,3.12s-1.4,3.12-3.12,3.12Z"/><path class="cls-4" d="m185.91,212.08h-107.51c-1.73,0-3.12-1.4-3.12-3.12s1.4-3.12,3.12-3.12h107.51c1.73,0,3.12,1.4,3.12,3.12s-1.4,3.12-3.12,3.12Z"/><path class="cls-4" d="m185.91,257.36h-107.51c-1.73,0-3.12-1.4-3.12-3.12s1.4-3.12,3.12-3.12h107.51c1.73,0,3.12,1.4,3.12,3.12s-1.4,3.12-3.12,3.12Z"/><path class="cls-4" d="m59.18,224.92h-26.93c-1.38,0-2.5-1.12-2.5-2.5v-26.93c0-1.38,1.12-2.5,2.5-2.5h26.93c1.38,0,2.5,1.12,2.5,2.5v26.93c0,1.38-1.12,2.5-2.5,2.5Zm-24.43-5h21.93v-21.93h-21.93v21.93Z"/><path class="cls-4" d="m59.18,179.64h-26.93c-1.38,0-2.5-1.12-2.5-2.5v-26.93c0-1.38,1.12-2.5,2.5-2.5h26.93c1.38,0,2.5,1.12,2.5,2.5v26.93c0,1.38-1.12,2.5-2.5,2.5Zm-24.43-5h21.93v-21.93h-21.93v21.93Z"/><path class="cls-4" d="m59.18,134.36h-26.93c-1.38,0-2.5-1.12-2.5-2.5v-26.93c0-1.38,1.12-2.5,2.5-2.5h26.93c1.38,0,2.5,1.12,2.5,2.5v26.93c0,1.38-1.12,2.5-2.5,2.5Zm-24.43-5h21.93v-21.93h-21.93v21.93Z"/><path class="cls-4" d="m59.18,270.21h-26.93c-1.38,0-2.5-1.12-2.5-2.5v-26.93c0-1.38,1.12-2.5,2.5-2.5h26.93c1.38,0,2.5,1.12,2.5,2.5v26.93c0,1.38-1.12,2.5-2.5,2.5Zm-24.43-5h21.93v-21.93h-21.93v21.93Z"/></g></svg>