<svg width="137" height="87" viewBox="0 0 137 87" fill="none" xmlns="http://www.w3.org/2000/svg">
<g clip-path="url(#clip0_9_469)">
<path d="M0.709961 34.01L84.28 8.13C84.28 8.13 118.31 11.15 125.34 34.01H0.709961Z" fill="white" stroke="#3B65EE" stroke-width="1.43" stroke-linecap="round" stroke-linejoin="round"/>
<path d="M84.28 8.13C84.28 8.13 89.76 -1.94 97.37 1.39C97.37 1.39 118.8 2.3 123.32 16.13C123.32 16.13 137.34 17.75 135.21 31.95C135.21 31.95 133.7 46.63 123.39 44.48L125.33 34C125.33 34 120.22 12.01 84.27 8.12L84.28 8.13Z" fill="white" stroke="#3B65EE" stroke-width="1.43" stroke-linecap="round" stroke-linejoin="round"/>
<path d="M127.27 32.47C128.2 30.45 131.96 30 132.56 32.47C130.61 31.82 129.36 32.41 127.27 32.47Z" fill="#3B65EE"/>
<path d="M0.709961 34.01L0.949961 70.89L112.74 85.62C112.74 85.62 115.56 85.27 116.23 83.09C116.9 80.91 125.34 34.01 125.34 34.01H0.709961Z" fill="white" stroke="#3B65EE" stroke-width="1.43" stroke-linecap="round" stroke-linejoin="round"/>
<path d="M0.749961 39.28L123.4 44.48L125.34 34.01H0.709961L0.749961 39.28Z" fill="white" stroke="#3B65EE" stroke-width="1.43" stroke-linecap="round" stroke-linejoin="round"/>
<path opacity="0.2" d="M0.709961 34.01L0.949961 70.89L112.74 85.62C112.74 85.62 115.56 85.27 116.23 83.09C116.9 80.91 125.34 34.01 125.34 34.01H0.709961Z" fill="#3B65EE"/>
<path opacity="0.2" d="M87.1399 4.32001C87.1399 4.32001 93.1799 2.25001 94.6799 4.32001C96.1799 6.39001 118.09 8.29001 120.47 17.34C120.47 17.34 129.36 23.2 129.91 31.46C129.91 31.46 135.51 31.41 134.18 36.52C132.85 41.63 127.75 45.91 123.4 44.48L125.34 34C125.34 34 124.28 14.83 87.1399 8.47001L84.2799 8.13001C84.2799 8.13001 87.1399 4.16001 87.1399 4.32001Z" fill="#3B65EE"/>
<path d="M28.33 56.86C28.9872 56.86 29.52 56.3272 29.52 55.67C29.52 55.0128 28.9872 54.48 28.33 54.48C27.6728 54.48 27.14 55.0128 27.14 55.67C27.14 56.3272 27.6728 56.86 28.33 56.86Z" fill="#3B65EE"/>
<path d="M56.43 51.15C57.0872 51.15 57.62 50.6172 57.62 49.96C57.62 49.3028 57.0872 48.77 56.43 48.77C55.7728 48.77 55.24 49.3028 55.24 49.96C55.24 50.6172 55.7728 51.15 56.43 51.15Z" fill="#3B65EE"/>
<path d="M45.4799 63.05C46.1371 63.05 46.6699 62.5172 46.6699 61.86C46.6699 61.2028 46.1371 60.67 45.4799 60.67C44.8227 60.67 44.2899 61.2028 44.2899 61.86C44.2899 62.5172 44.8227 63.05 45.4799 63.05Z" fill="#3B65EE"/>
<path opacity="0.2" d="M74.01 27.27C78.2239 27.27 81.64 26.7014 81.64 26C81.64 25.2986 78.2239 24.73 74.01 24.73C69.7961 24.73 66.38 25.2986 66.38 26C66.38 26.7014 69.7961 27.27 74.01 27.27Z" fill="#3B65EE"/>
<path d="M74.83 25.74C77.6853 25.74 80 23.4253 80 20.57C80 17.7147 77.6853 15.4 74.83 15.4C71.9747 15.4 69.66 17.7147 69.66 20.57C69.66 23.4253 71.9747 25.74 74.83 25.74Z" fill="white" stroke="#3B65EE" stroke-width="0.85" stroke-linecap="round" stroke-linejoin="round"/>
<path d="M76.9401 18.82C75.6801 20.12 74.1701 20.66 72.5801 21.38C73.2601 19.71 75.2101 18.9 76.9401 18.82Z" fill="#3B65EE"/>
<path d="M74.01 18.32C75.69 18.22 76.95 20.23 76.43 21.75C75.57 20.5 75.07 19.48 74.01 18.32Z" fill="#3B65EE"/>
</g>
<defs>
<clipPath id="clip0_9_469">
<rect width="136.15" height="86.33" fill="white"/>
</clipPath>
</defs>
</svg>
