<svg width="380" height="233" viewBox="0 0 380 233" fill="none" xmlns="http://www.w3.org/2000/svg">
<path d="M368.849 129.27C354.969 121.82 338.779 119.97 323.569 124.07C308.919 128.02 291.119 132.4 282.019 133.05C264.929 134.27 297.209 153.82 297.209 153.82L368.849 129.27Z" fill="#E27A8C" stroke="#3B65EE" stroke-width="2.5" stroke-miterlimit="10" stroke-linecap="round" stroke-linejoin="round"/>
<path d="M10.6797 129.27C24.5597 121.82 40.7497 119.97 55.9597 124.07C70.6097 128.02 88.4097 132.4 97.5097 133.05C114.6 134.27 82.3197 153.82 82.3197 153.82L10.6797 129.27Z" fill="#E27A8C" stroke="#3B65EE" stroke-width="2.5" stroke-miterlimit="10" stroke-linecap="round" stroke-linejoin="round"/>
<path d="M33.8506 136.22C35.1706 138.54 69.6806 196.69 189.761 196.69C309.841 196.69 344.351 138.54 345.761 136.06C347.151 133.5 349.101 131.44 351.371 129.96C345.871 132.75 303.291 151.47 189.761 151.47C69.6806 151.47 28.9706 130.53 27.6506 129.7L27.6406 129.74C30.1606 131.26 32.3406 133.44 33.8506 136.22Z" fill="#E27A8C" stroke="#3B65EE" stroke-width="2.5" stroke-miterlimit="10" stroke-linecap="round" stroke-linejoin="round"/>
<path d="M304.5 184.51L189.5 215.26L74.5 184.51V107.99C74.5 51.6301 115.04 10.2501 168.56 1.65009C175.35 0.560089 179.35 9.17005 189.5 9.17005C199.65 9.17005 203.67 0.560037 210.47 1.66004C263.97 10.27 304.5 51.6501 304.5 108V184.51Z" fill="#EAA2AC" stroke="#3B65EE" stroke-width="2.5" stroke-miterlimit="10" stroke-linecap="round" stroke-linejoin="round"/>
<path d="M209.492 1.65006H210.462C210.132 1.60006 209.812 1.61006 209.492 1.65006Z" fill="#B0C3EA" stroke="#B0C3EA" stroke-width="2.5" stroke-miterlimit="10" stroke-linecap="round" stroke-linejoin="round"/>
<path d="M168.562 1.65017H169.533C169.213 1.61017 168.893 1.59017 168.562 1.65017Z" fill="#B0C3EA" stroke="#B0C3EA" stroke-width="2.5" stroke-miterlimit="10" stroke-linecap="round" stroke-linejoin="round"/>
<path d="M189.503 30.4006C199.153 30.4006 203.263 2.48063 209.493 1.65063H208.093C202.593 2.52063 198.413 9.16058 189.493 9.16058C180.573 9.16058 176.403 2.51063 170.913 1.64062H169.523C175.753 2.48062 179.843 30.4006 189.503 30.4006Z" fill="#E27A8C" stroke="#E27A8C" stroke-width="2.5" stroke-miterlimit="10" stroke-linecap="round" stroke-linejoin="round"/>
<path d="M243.99 46.4115L110.594 101.4L135.483 161.78L268.879 106.791L243.99 46.4115Z" fill="white" stroke="#3B65EE" stroke-width="2.5" stroke-miterlimit="10" stroke-linecap="round" stroke-linejoin="round"/>
<path d="M304.5 127.93C280.33 135.12 242.31 141.38 189.95 141.38C134.01 141.38 98.6 134.22 74.5 126.45V184.5L184.37 214.39C186.24 214.42 189.99 214.5 191.89 214.5C192.03 214.5 190.23 214.49 190.37 214.49L304.5 184.49V127.93Z" fill="#EAA2AC" stroke="#3B65EE" stroke-width="2.5" stroke-miterlimit="10" stroke-linecap="round" stroke-linejoin="round"/>
<path d="M368.849 129.27C368.289 128.97 367.729 128.71 367.159 128.47L367.149 128.42C360.079 124.9 352.459 122.79 344.699 122.15C345.239 122.29 352.739 124.41 345.759 136.05C344.349 138.53 309.839 196.68 189.759 196.68C73.8888 196.68 37.6988 142.53 34.1188 136.66C34.0188 136.47 33.8988 136.26 33.7788 136.05C26.7988 124.41 34.2988 122.28 34.8388 122.14C27.0788 122.77 19.4588 124.89 12.3888 128.41L12.3688 128.55C11.8088 128.78 11.2688 129.04 10.7288 129.33C2.4388 133.82 -0.641209 144.18 3.84879 152.47C5.57879 155.67 47.9288 230.82 189.769 230.82C331.609 230.82 373.959 155.67 375.689 152.47C380.169 144.19 377.139 133.76 368.849 129.27Z" fill="#EAA2AC" stroke="#3B65EE" stroke-width="2.5" stroke-miterlimit="10" stroke-linecap="round" stroke-linejoin="round"/>
<path d="M168.559 1.65009C175.349 0.560089 179.349 9.17005 189.499 9.17005C199.649 9.17005 203.669 0.560037 210.469 1.66004" stroke="#3B65EE" stroke-width="2.5" stroke-miterlimit="10" stroke-linecap="round" stroke-linejoin="round"/>
<path d="M294.849 159.83C286.439 162.54 277.819 164.57 269.129 166.18C264.789 166.99 260.409 167.65 256.039 168.28C251.659 168.87 247.269 169.35 242.869 169.8C238.469 170.19 234.059 170.52 229.659 170.8C225.249 171 220.839 171.23 216.419 171.27C207.589 171.43 198.759 171.27 189.949 170.67C198.759 170.03 207.539 169.53 216.319 168.93C225.089 168.32 233.849 167.67 242.589 166.81C246.959 166.42 251.329 165.95 255.689 165.46C257.869 165.23 260.049 164.95 262.229 164.7L268.759 163.87C277.469 162.71 286.139 161.33 294.849 159.83Z" fill="#3B65EE"/>
<path d="M148.929 154.88C143.829 155.12 138.729 154.98 133.649 154.64C131.109 154.5 128.579 154.23 126.039 153.98C123.509 153.7 120.989 153.35 118.469 153C115.959 152.59 113.439 152.17 110.939 151.7C108.449 151.18 105.949 150.69 103.479 150.05C98.5289 148.84 93.6289 147.39 88.8789 145.53C93.9489 146.18 98.9489 146.98 103.939 147.75L111.429 148.9C113.919 149.29 116.419 149.68 118.919 150.04L133.909 152.32C138.909 153.1 143.919 153.88 148.929 154.88Z" fill="#3B65EE"/>
</svg>
