<svg width="638" height="541" viewBox="0 0 638 541" fill="none" xmlns="http://www.w3.org/2000/svg">
<path d="M577.068 89.3887H2.25781V539.339H577.068V89.3887Z" fill="white" stroke="#3B65EE" stroke-width="3" stroke-miterlimit="10" stroke-linecap="round"/>
<path d="M119.607 407.229H53.4375V442.229H119.607V407.229Z" fill="white" stroke="#B0C3EA" stroke-width="2" stroke-miterlimit="10" stroke-linecap="round" stroke-linejoin="round"/>
<path d="M472.207 265.609H327.297V394.309H472.207V265.609Z" fill="#D1DAED" stroke="#3B65EE" stroke-width="3" stroke-miterlimit="10" stroke-linecap="round"/>
<path d="M259.007 358.269V330.679H258.967L258.957 317.819C258.947 305.959 256.427 294.699 251.937 284.499C251.897 284.409 251.857 284.319 251.817 284.239C251.307 283.089 250.767 281.959 250.207 280.839C250.087 280.599 249.957 280.349 249.837 280.109C249.347 279.159 248.847 278.209 248.317 277.279C248.137 276.969 247.957 276.659 247.777 276.349C247.287 275.499 246.777 274.669 246.257 273.839C246.037 273.489 245.807 273.139 245.587 272.789C245.087 272.019 244.577 271.259 244.057 270.509C243.797 270.129 243.527 269.759 243.257 269.389C242.747 268.689 242.237 267.999 241.707 267.319C241.397 266.919 241.087 266.529 240.777 266.139C240.267 265.499 239.747 264.879 239.217 264.259C238.867 263.849 238.517 263.439 238.157 263.029C237.657 262.459 237.147 261.899 236.627 261.349C236.227 260.919 235.817 260.489 235.407 260.069C234.927 259.579 234.447 259.099 233.957 258.619C233.487 258.159 233.007 257.699 232.517 257.249C232.117 256.879 231.717 256.509 231.317 256.149C230.327 255.259 229.307 254.399 228.277 253.559C228.267 253.549 228.247 253.539 228.237 253.529C227.217 252.699 226.167 251.899 225.107 251.119C225.087 251.109 225.067 251.089 225.057 251.079C223.997 250.299 222.917 249.549 221.817 248.819C221.807 248.809 221.797 248.799 221.777 248.799C220.667 248.069 219.547 247.359 218.397 246.679C218.397 246.679 218.397 246.679 218.387 246.679C211.067 242.329 203.027 239.089 194.477 237.159C194.177 237.089 193.887 237.019 193.587 236.959C192.827 236.799 192.057 236.649 191.297 236.509C190.777 236.409 190.257 236.319 189.737 236.229C189.067 236.119 188.387 236.019 187.707 235.919C187.057 235.829 186.407 235.749 185.757 235.669C185.157 235.599 184.567 235.529 183.967 235.479C183.167 235.399 182.357 235.349 181.547 235.299C181.067 235.269 180.587 235.229 180.107 235.209C178.797 235.149 177.487 235.109 176.167 235.109C176.157 235.109 176.147 235.109 176.137 235.109C174.827 235.109 173.517 235.149 172.217 235.209C171.717 235.229 171.227 235.269 170.737 235.309C169.937 235.359 169.147 235.419 168.357 235.489C167.747 235.549 167.137 235.619 166.537 235.689C165.887 235.769 165.247 235.849 164.607 235.939C163.927 236.039 163.247 236.139 162.567 236.249C162.047 236.339 161.527 236.429 161.007 236.529C160.237 236.669 159.477 236.819 158.717 236.979C158.397 237.049 158.077 237.129 157.767 237.199C147.887 239.439 138.687 243.439 130.507 248.859C130.497 248.869 130.487 248.869 130.477 248.879C129.377 249.609 128.287 250.369 127.227 251.149C127.207 251.159 127.197 251.169 127.177 251.179C126.117 251.959 125.067 252.769 124.047 253.599C124.037 253.609 124.017 253.619 124.007 253.629C122.557 254.809 121.157 256.029 119.797 257.299C119.317 257.739 118.847 258.189 118.387 258.649C117.887 259.139 117.397 259.629 116.907 260.129C116.477 260.569 116.057 261.019 115.637 261.469C115.147 261.989 114.677 262.519 114.197 263.049C113.777 263.529 113.357 264.009 112.947 264.489C112.527 264.979 112.117 265.479 111.717 265.979C111.267 266.539 110.827 267.099 110.387 267.669C110.097 268.039 109.817 268.409 109.537 268.789C108.997 269.509 108.487 270.249 107.967 270.989C107.707 271.359 107.457 271.739 107.207 272.109C106.697 272.879 106.197 273.659 105.707 274.439C105.487 274.799 105.267 275.159 105.047 275.529C104.557 276.349 104.077 277.179 103.617 278.019C103.427 278.359 103.247 278.699 103.067 279.029C102.597 279.909 102.137 280.799 101.697 281.699C101.557 281.989 101.417 282.289 101.277 282.589C100.837 283.519 100.417 284.449 100.007 285.389C99.8972 285.639 99.7972 285.899 99.6872 286.159C99.2972 287.109 98.9172 288.059 98.5572 289.019C98.4772 289.229 98.3972 289.439 98.3272 289.639C97.9472 290.689 97.5872 291.759 97.2472 292.839C97.1772 293.059 97.1072 293.279 97.0372 293.499C96.6972 294.589 96.3972 295.689 96.0972 296.789C96.0372 297.019 95.9772 297.259 95.9172 297.489C95.6372 298.599 95.3772 299.719 95.1372 300.849C95.0872 301.079 95.0372 301.309 94.9972 301.539C94.7672 302.679 94.5572 303.839 94.3772 304.999C94.3472 305.209 94.3172 305.429 94.2772 305.639C94.0972 306.829 93.9472 308.019 93.8172 309.229C93.7972 309.409 93.7872 309.589 93.7672 309.769C93.6472 311.019 93.5472 312.269 93.4772 313.529C93.4672 313.649 93.4672 313.759 93.4672 313.879C93.4072 315.209 93.3672 316.549 93.3672 317.889C93.3672 317.889 93.3672 317.889 93.3672 317.899V539.269H120.957H148.547H176.137H203.727H231.317H258.907H259.087L258.977 358.289H259.007V358.269Z" fill="#D1DAED" stroke="#3B65EE" stroke-width="3" stroke-miterlimit="10" stroke-linecap="round"/>
<path d="M458.709 423.52H392.539V458.52H458.709V423.52Z" fill="white" stroke="#B0C3EA" stroke-width="2" stroke-miterlimit="10" stroke-linecap="round" stroke-linejoin="round"/>
<path d="M524.881 423.52H458.711V458.52H524.881V423.52Z" fill="white" stroke="#B0C3EA" stroke-width="2" stroke-miterlimit="10" stroke-linecap="round" stroke-linejoin="round"/>
<path d="M491.803 458.529H425.633V493.529H491.803V458.529Z" fill="white" stroke="#B0C3EA" stroke-width="2" stroke-miterlimit="10" stroke-linecap="round" stroke-linejoin="round"/>
<path d="M577.076 194.209H510.906V229.209H577.076V194.209Z" fill="white" stroke="#B0C3EA" stroke-width="2" stroke-miterlimit="10" stroke-linecap="round" stroke-linejoin="round"/>
<path d="M491.813 388.359V423.359H425.633" stroke="#B0C3EA" stroke-width="2" stroke-miterlimit="10" stroke-linecap="round" stroke-linejoin="round"/>
<path d="M524.891 423.52H550.971" stroke="#B0C3EA" stroke-width="2" stroke-miterlimit="10" stroke-linecap="round" stroke-linejoin="round"/>
<path d="M577.068 39.6289H2.25781V89.3889H577.068V39.6289Z" fill="#D1DAED" stroke="#3B65EE" stroke-width="3" stroke-miterlimit="10" stroke-linecap="round"/>
<path d="M577.068 74.0195H2.25781V89.3896H577.068V74.0195Z" fill="#D1DAED" stroke="#3B65EE" stroke-width="3" stroke-miterlimit="10" stroke-linecap="round"/>
<path d="M480.027 265.607H335.117V394.307H480.027V265.607Z" fill="#B0C3EA" stroke="#3B65EE" stroke-width="3" stroke-miterlimit="10" stroke-linecap="round" stroke-linejoin="round"/>
<path d="M345.508 394.308H465.018C467.678 374.888 472.478 346.008 479.958 321.538C453.088 303.018 362.848 284.998 362.848 284.998C362.848 284.998 351.438 336.018 345.508 394.308Z" fill="#D1DAED" stroke="#3B65EE" stroke-width="3" stroke-miterlimit="10" stroke-linecap="round"/>
<path d="M478.981 321.778C476.011 322.578 466.891 328.458 462.341 335.488C452.561 317.648 434.871 303.998 427.641 300.818C448.111 306.758 468.221 313.808 479.111 320.958C479.431 321.178 479.351 321.678 478.981 321.778Z" fill="#B0C3EA" stroke="#B0C3EA" stroke-width="3" stroke-miterlimit="10" stroke-linecap="round"/>
<path d="M479.655 321.678C478.305 322.358 472.515 325.608 467.685 333.068C457.905 315.228 434.855 303.998 427.625 300.818C448.465 306.868 468.935 314.058 479.675 321.348C479.805 321.438 479.785 321.608 479.655 321.678Z" fill="white" stroke="#3B65EE" stroke-width="3" stroke-miterlimit="10" stroke-linecap="round"/>
<path d="M415.86 337.058C419.49 337.188 422.53 334.328 422.66 330.688C422.79 327.038 419.95 323.978 416.32 323.858C412.69 323.728 409.65 326.588 409.52 330.228C409.39 333.868 412.23 336.938 415.86 337.058Z" fill="#3B65EE"/>
<path d="M396.157 336.368C399.787 336.498 402.827 333.638 402.957 329.998C403.087 326.348 400.247 323.298 396.617 323.168C392.987 323.038 389.947 325.898 389.817 329.538C389.687 333.188 392.527 336.238 396.157 336.368Z" fill="#3B65EE"/>
<path d="M378.708 363.019C378.348 362.949 377.998 362.809 377.698 362.599C377.398 362.389 377.138 362.119 376.938 361.809C376.738 361.499 376.618 361.149 376.558 360.779C376.508 360.419 376.528 360.039 376.628 359.689C378.638 353.159 382.998 347.609 388.868 344.109C394.738 340.609 401.698 339.419 408.388 340.759C415.088 342.099 421.048 345.879 425.118 351.369C429.188 356.859 431.078 363.659 430.418 370.459C430.368 370.829 430.248 371.179 430.058 371.489C429.868 371.809 429.618 372.079 429.318 372.289C429.018 372.499 428.678 372.649 428.318 372.729C427.958 372.799 427.588 372.799 427.228 372.729L378.708 363.019Z" fill="#3B65EE"/>
<path d="M367.509 265.428H359.469V394.228H367.509V265.428Z" fill="white" stroke="#3B65EE" stroke-miterlimit="10" stroke-linecap="round"/>
<path d="M411.642 265.428H403.602V394.228H411.642V265.428Z" fill="white" stroke="#3B65EE" stroke-miterlimit="10" stroke-linecap="round"/>
<path d="M455.782 265.428H447.742V394.228H455.782V265.428Z" fill="white" stroke="#3B65EE" stroke-miterlimit="10" stroke-linecap="round"/>
<path d="M480.027 265.607H335.117V394.307H480.027V265.607Z" stroke="#3B65EE" stroke-width="3" stroke-miterlimit="10" stroke-linecap="round" stroke-linejoin="round"/>
<path d="M129.27 539.237V256.188C112.34 271.347 101.68 293.358 101.68 317.878V539.247H129.27V539.237Z" fill="white" stroke="#3B65EE" stroke-miterlimit="10" stroke-linecap="round"/>
<path d="M156.856 239.818C146.576 243.458 137.226 249.058 129.266 256.188V539.248H156.856V239.818Z" fill="white" stroke="#3B65EE" stroke-miterlimit="10" stroke-linecap="round"/>
<path d="M135.326 312.549C135.536 318.799 135.626 325.059 135.706 331.309C135.786 337.559 135.776 343.819 135.826 350.069C135.786 356.319 135.786 362.579 135.716 368.829L135.576 378.209C135.496 381.339 135.446 384.459 135.336 387.589C135.226 384.459 135.176 381.339 135.086 378.209L134.946 368.829C134.866 362.579 134.866 356.319 134.836 350.069C134.876 343.819 134.866 337.559 134.956 331.309C135.016 325.059 135.116 318.809 135.326 312.549Z" fill="#3B65EE"/>
<path d="M143.031 278.719C143.241 284.969 143.331 291.229 143.411 297.479C143.491 303.729 143.481 309.989 143.531 316.239C143.491 322.489 143.491 328.749 143.421 334.999L143.281 344.379C143.201 347.509 143.151 350.629 143.031 353.759C142.921 350.629 142.871 347.509 142.781 344.379L142.641 334.999C142.561 328.749 142.561 322.489 142.531 316.239C142.571 309.989 142.561 303.729 142.651 297.479C142.731 291.229 142.821 284.969 143.031 278.719Z" fill="#3B65EE"/>
<path d="M184.442 235.078C174.762 235.078 165.482 236.758 156.852 239.818V539.248H184.442V235.078Z" fill="white" stroke="#3B65EE" stroke-miterlimit="10" stroke-linecap="round"/>
<path d="M212.028 239.798C203.408 236.758 194.127 235.078 184.467 235.078C184.457 235.078 184.447 235.078 184.438 235.078V539.238H212.028V239.798V239.798Z" fill="white" stroke="#3B65EE" stroke-miterlimit="10" stroke-linecap="round"/>
<path d="M200.289 439.639C200.499 445.889 200.589 452.149 200.669 458.399C200.749 464.649 200.739 470.909 200.789 477.159C200.749 483.409 200.749 489.669 200.679 495.919L200.539 505.299C200.459 508.429 200.409 511.549 200.289 514.679C200.179 511.549 200.129 508.429 200.039 505.299L199.899 495.919C199.819 489.669 199.819 483.409 199.789 477.159C199.829 470.909 199.819 464.649 199.909 458.399C199.979 452.149 200.079 445.899 200.289 439.639Z" fill="#3B65EE"/>
<path d="M212.031 239.799V539.249H239.621V256.139C231.661 249.019 222.311 243.429 212.031 239.799Z" fill="white" stroke="#3B65EE" stroke-miterlimit="10" stroke-linecap="round"/>
<path d="M267.207 315.699C266.597 292.039 256.077 270.849 239.617 256.139V539.249H267.207V315.699Z" fill="white" stroke="#3B65EE" stroke-miterlimit="10" stroke-linecap="round"/>
<path d="M254.779 307.408C254.989 313.658 255.079 319.918 255.159 326.168C255.239 332.418 255.229 338.678 255.279 344.928C255.239 351.178 255.239 357.438 255.169 363.688L255.029 373.068C254.949 376.198 254.899 379.318 254.789 382.448C254.679 379.318 254.629 376.198 254.539 373.068L254.399 363.688C254.319 357.438 254.319 351.178 254.289 344.928C254.329 338.678 254.319 332.418 254.409 326.168C254.479 319.918 254.569 313.668 254.779 307.408Z" fill="#3B65EE"/>
<path d="M175.989 403.639C176.199 406.859 176.289 410.079 176.369 413.299C176.459 416.519 176.469 419.739 176.489 422.959C176.479 426.179 176.469 429.399 176.369 432.619L176.229 437.449C176.149 439.059 176.099 440.669 175.979 442.279C175.869 440.669 175.819 439.059 175.729 437.449L175.589 432.619C175.499 429.399 175.489 426.179 175.469 422.959C175.479 419.739 175.499 416.519 175.589 413.299C175.689 410.079 175.789 406.859 175.989 403.639Z" fill="#3B65EE"/>
<path d="M101.148 330.672V358.262H267.308V330.672H101.148Z" fill="#D1DAED" stroke="#3B65EE" stroke-miterlimit="10" stroke-linecap="round"/>
<path d="M101.148 453.849V481.439H267.308V453.849H101.148Z" fill="#D1DAED" stroke="#3B65EE" stroke-miterlimit="10" stroke-linecap="round"/>
<path d="M266.839 373.398H207.039V390.988H266.839V373.398Z" fill="white" stroke="#3B65EE" stroke-width="3" stroke-miterlimit="10" stroke-linecap="round"/>
<path d="M216.549 410.998H244.919V393.208C244.919 385.388 238.559 379.018 230.729 379.018C222.899 379.018 216.539 385.378 216.539 393.208V410.998H216.549ZM221.999 393.208C221.999 388.398 225.919 384.478 230.729 384.478C235.539 384.478 239.459 388.398 239.459 393.208V405.538H221.999V393.208Z" fill="white" stroke="#3B65EE" stroke-width="3" stroke-miterlimit="10" stroke-linecap="round"/>
<path d="M254.45 401.098H207V441.138H254.45V401.098Z" fill="white" stroke="#3B65EE" stroke-width="3" stroke-miterlimit="10" stroke-linecap="round"/>
<path d="M237.603 430.928L233.083 422.428C235.113 421.528 236.533 419.498 236.533 417.138C236.533 413.938 233.943 411.348 230.743 411.348C227.543 411.348 224.953 413.938 224.953 417.138C224.953 419.548 226.423 421.608 228.513 422.478L223.883 430.928H237.603V430.928Z" fill="#3B65EE" stroke="#3B65EE" stroke-miterlimit="10" stroke-linecap="round"/>
<path d="M184.47 235.078C138.75 235.078 101.68 272.148 101.68 317.868V539.238H129.27H156.86H184.45H212.04H239.63H267.22H267.4L267.27 317.808C267.23 272.108 230.17 235.078 184.47 235.078Z" stroke="#3B65EE" stroke-width="3" stroke-miterlimit="10" stroke-linecap="round"/>
<path d="M120.578 371.908C120.788 376.618 120.878 381.328 120.958 386.038C121.038 390.748 121.028 395.458 121.078 400.168C121.038 404.878 121.038 409.588 120.968 414.298L120.828 421.358C120.748 423.708 120.698 426.068 120.578 428.418C120.468 426.068 120.418 423.708 120.328 421.358L120.188 414.298C120.108 409.588 120.108 404.878 120.078 400.168C120.118 395.458 120.108 390.748 120.198 386.038C120.278 381.318 120.368 376.608 120.578 371.908Z" fill="#3B65EE"/>
<path d="M322.928 115.127H256.758V150.127H322.928V115.127Z" fill="white" stroke="#B0C3EA" stroke-width="2" stroke-miterlimit="10" stroke-linecap="round" stroke-linejoin="round"/>
<path d="M389.1 115.127H322.93V150.127H389.1V115.127Z" fill="white" stroke="#B0C3EA" stroke-width="2" stroke-miterlimit="10" stroke-linecap="round" stroke-linejoin="round"/>
<path d="M289.834 150.137H223.664V185.137H289.834V150.137Z" fill="white" stroke="#B0C3EA" stroke-width="2" stroke-miterlimit="10" stroke-linecap="round" stroke-linejoin="round"/>
<path d="M356.006 150.137H289.836V185.137H356.006V150.137Z" fill="white" stroke="#B0C3EA" stroke-width="2" stroke-miterlimit="10" stroke-linecap="round" stroke-linejoin="round"/>
<path d="M322.928 185.137H256.758V220.137H322.928V185.137Z" fill="white" stroke="#B0C3EA" stroke-width="2" stroke-miterlimit="10" stroke-linecap="round" stroke-linejoin="round"/>
<path d="M322.922 185.137V241.847" stroke="#B0C3EA" stroke-width="2" stroke-miterlimit="10" stroke-linecap="round" stroke-linejoin="round"/>
<path d="M322.922 220.137H371.802" stroke="#B0C3EA" stroke-width="2" stroke-miterlimit="10" stroke-linecap="round" stroke-linejoin="round"/>
<path d="M256.757 96.8379V115.128H240.797" fill="white"/>
<path d="M256.757 96.8379V115.128H240.797" stroke="#B0C3EA" stroke-width="2" stroke-miterlimit="10" stroke-linecap="round" stroke-linejoin="round"/>
<path d="M152.686 150.139H86.5156V185.139H152.686V150.139Z" fill="white" stroke="#B0C3EA" stroke-width="2" stroke-miterlimit="10" stroke-linecap="round" stroke-linejoin="round"/>
<path d="M53.4353 185.139H2.69531V220.139H53.4353V185.139Z" fill="white" stroke="#B0C3EA" stroke-width="2" stroke-miterlimit="10" stroke-linecap="round" stroke-linejoin="round"/>
<path d="M119.607 185.139H53.4375V220.139H119.607V185.139Z" fill="white" stroke="#B0C3EA" stroke-width="2" stroke-miterlimit="10" stroke-linecap="round" stroke-linejoin="round"/>
<path d="M119.602 220.139H144.522" stroke="#B0C3EA" stroke-width="2" stroke-miterlimit="10" stroke-linecap="round" stroke-linejoin="round"/>
<path d="M577.068 89.3887H2.25781V539.339H577.068V89.3887Z" stroke="#3B65EE" stroke-width="3" stroke-miterlimit="10" stroke-linecap="round"/>
<path d="M577.078 539.338H635.898V89.3879H577.078V539.338Z" fill="#D1DAED" stroke="#3B65EE" stroke-width="3" stroke-miterlimit="10" stroke-linecap="round" stroke-linejoin="round"/>
<path d="M610.262 458.529H577.172V493.529H610.262V458.529Z" fill="#D1DAED" stroke="#3B65EE" stroke-width="3" stroke-miterlimit="10" stroke-linecap="round" stroke-linejoin="round"/>
<path d="M635.59 383.338H602.5V418.338H635.59V383.338Z" fill="#D1DAED" stroke="#3B65EE" stroke-width="3" stroke-miterlimit="10" stroke-linecap="round" stroke-linejoin="round"/>
<path d="M577.078 89.3848L635.898 89.3848V39.6248L577.078 39.6248V89.3848Z" fill="#B0C3EA" stroke="#3B65EE" stroke-width="3" stroke-miterlimit="10" stroke-linecap="round" stroke-linejoin="round"/>
<path d="M577.078 89.3926L635.898 89.3926V74.0226H577.078V89.3926Z" fill="#B0C3EA" stroke="#3B65EE" stroke-width="3" stroke-miterlimit="10" stroke-linecap="round" stroke-linejoin="round"/>
<path d="M577.078 539.338H635.898V89.3879H577.078V539.338Z" stroke="#3B65EE" stroke-width="3" stroke-miterlimit="10" stroke-linecap="round"/>
<path d="M2.25781 39.6292V4.94922" stroke="#3B65EE" stroke-width="2" stroke-miterlimit="10" stroke-linecap="round"/>
<path d="M98.1016 39.6292V4.94922" stroke="#3B65EE" stroke-width="2" stroke-miterlimit="10" stroke-linecap="round"/>
<path d="M193.93 39.6292V4.94922" stroke="#3B65EE" stroke-width="2" stroke-miterlimit="10" stroke-linecap="round"/>
<path d="M289.766 39.6292V4.94922" stroke="#3B65EE" stroke-width="2" stroke-miterlimit="10" stroke-linecap="round"/>
<path d="M385.602 39.6292V4.94922" stroke="#3B65EE" stroke-width="2" stroke-miterlimit="10" stroke-linecap="round"/>
<path d="M481.438 39.6292V4.94922" stroke="#3B65EE" stroke-width="2" stroke-miterlimit="10" stroke-linecap="round"/>
<path d="M577.266 39.6292V4.94922" stroke="#3B65EE" stroke-width="2" stroke-miterlimit="10" stroke-linecap="round"/>
<path d="M2.5 4.9494C7.18 23.0494 37.04 12.0294 25.44 6.7894C13.84 1.5494 17.93 9.36937 27.51 16.7994C36.34 23.6594 38.87 31.6394 28.46 30.1494C18.79 28.7694 37.49 23.0794 45.31 19.1794C54.4 14.6494 63.17 10.1394 52.31 9.61938C42.6 9.15938 51.44 16.6794 60.57 20.1294C69.78 23.6094 82 30.1594 73.6 32.6894C66.32 34.8794 69.33 25.0994 74.39 18.8594C80.95 10.7794 87.95 -1.44061 79.98 2.34939C65.87 9.05939 92.22 17.8894 98.08 4.9494" stroke="#3B65EE" stroke-width="2" stroke-miterlimit="10" stroke-linecap="round"/>
<path d="M98.3281 4.9494C103.008 23.0494 132.868 12.0294 121.268 6.7894C109.668 1.5494 113.758 9.36937 123.338 16.7994C132.168 23.6594 134.698 31.6394 124.288 30.1494C114.618 28.7694 133.318 23.0794 141.138 19.1794C150.228 14.6494 158.998 10.1394 148.138 9.61938C138.428 9.15938 147.268 16.6794 156.398 20.1294C165.608 23.6094 177.828 30.1594 169.428 32.6894C162.148 34.8794 165.158 25.0994 170.218 18.8594C176.778 10.7794 183.778 -1.44061 175.808 2.34939C161.698 9.05939 188.048 17.8894 193.908 4.9494" stroke="#3B65EE" stroke-width="2" stroke-miterlimit="10" stroke-linecap="round"/>
<path d="M193.906 4.9494C198.586 23.0494 228.446 12.0294 216.846 6.7894C205.246 1.5494 209.336 9.36937 218.916 16.7994C227.746 23.6594 230.276 31.6394 219.866 30.1494C210.196 28.7694 228.896 23.0794 236.716 19.1794C245.806 14.6494 254.576 10.1394 243.716 9.61938C234.006 9.15938 242.846 16.6794 251.976 20.1294C261.186 23.6094 273.406 30.1594 265.006 32.6894C257.726 34.8794 260.736 25.0994 265.796 18.8594C272.356 10.7794 279.356 -1.44061 271.386 2.34939C257.276 9.05939 283.626 17.8894 289.486 4.9494" stroke="#3B65EE" stroke-width="2" stroke-miterlimit="10" stroke-linecap="round"/>
<path d="M289.727 4.9494C294.407 23.0494 324.267 12.0294 312.667 6.7894C301.067 1.5494 305.157 9.36937 314.737 16.7994C323.567 23.6594 326.097 31.6394 315.687 30.1494C306.017 28.7694 324.717 23.0794 332.537 19.1794C341.627 14.6494 350.397 10.1394 339.537 9.61938C329.827 9.15938 338.667 16.6794 347.797 20.1294C357.007 23.6094 369.227 30.1594 360.827 32.6894C353.547 34.8794 356.557 25.0994 361.617 18.8594C368.177 10.7794 375.177 -1.44061 367.207 2.34939C353.097 9.05939 379.447 17.8894 385.307 4.9494" stroke="#3B65EE" stroke-width="2" stroke-miterlimit="10" stroke-linecap="round"/>
<path d="M385.312 4.9494C389.992 23.0494 419.853 12.0294 408.253 6.7894C396.653 1.5494 400.743 9.36937 410.323 16.7994C419.153 23.6594 421.683 31.6394 411.273 30.1494C401.603 28.7694 420.302 23.0794 428.122 19.1794C437.212 14.6494 445.982 10.1394 435.122 9.61938C425.412 9.15938 434.253 16.6794 443.383 20.1294C452.593 23.6094 464.813 30.1594 456.413 32.6894C449.133 34.8794 452.142 25.0994 457.202 18.8594C463.762 10.7794 470.763 -1.44061 462.793 2.34939C448.683 9.05939 475.033 17.8894 480.893 4.9494" stroke="#3B65EE" stroke-width="2" stroke-miterlimit="10" stroke-linecap="round"/>
<path d="M481.141 4.9494C485.821 23.0494 515.681 12.0294 504.081 6.7894C492.481 1.5494 496.571 9.36937 506.151 16.7994C514.981 23.6594 517.511 31.6394 507.101 30.1494C497.431 28.7694 516.131 23.0794 523.951 19.1794C533.041 14.6494 541.811 10.1394 530.951 9.61938C521.241 9.15938 530.081 16.6794 539.211 20.1294C548.421 23.6094 560.641 30.1594 552.241 32.6894C544.961 34.8794 547.971 25.0994 553.031 18.8594C559.591 10.7794 566.591 -1.44061 558.621 2.34939C544.511 9.05939 570.861 17.8894 576.721 4.9494" stroke="#3B65EE" stroke-width="2" stroke-miterlimit="10" stroke-linecap="round"/>
<path d="M577.266 4.9494C580.126 23.0494 598.406 12.0294 591.306 6.7894C584.206 1.5494 586.706 9.36937 592.566 16.7994C597.976 23.6594 599.516 31.6394 593.146 30.1494C587.226 28.7694 598.676 23.0794 603.456 19.1794C609.016 14.6494 614.386 10.1394 607.746 9.61938C601.806 9.15938 607.216 16.6794 612.796 20.1294C618.436 23.6094 625.906 30.1594 620.776 32.6894C616.316 34.8794 618.166 25.0994 621.266 18.8594C625.286 10.7794 629.566 -1.44061 624.686 2.34939C616.046 9.05939 632.176 17.8894 635.766 4.9494" stroke="#3B65EE" stroke-width="2" stroke-miterlimit="10" stroke-linecap="round"/>
<path d="M635.891 39.6292V4.94922" stroke="#3B65EE" stroke-width="2" stroke-miterlimit="10" stroke-linecap="round"/>
<path d="M470.267 116H109.297V185.18H470.267V116Z" fill="white" stroke="#3B65EE" stroke-width="3" stroke-miterlimit="10" stroke-linecap="round"/>
<path d="M382.469 174.221C388.719 174.011 394.979 173.921 401.229 173.841C407.479 173.761 413.739 173.771 419.989 173.721C426.239 173.761 432.499 173.761 438.749 173.831L448.129 173.971C451.259 174.051 454.379 174.101 457.509 174.221C454.379 174.331 451.259 174.381 448.129 174.471L438.749 174.611C432.499 174.691 426.239 174.691 419.989 174.721C413.739 174.681 407.479 174.691 401.229 174.601C394.979 174.521 388.719 174.421 382.469 174.221Z" fill="#B0C3EA"/>
<path d="M137 167.5C144.47 167.29 151.94 167.2 159.41 167.12L181.82 167L204.23 167.11L215.43 167.25L226.63 167.5L215.43 167.75L204.23 167.89L181.82 168L159.41 167.88C151.94 167.8 144.47 167.7 137 167.5Z" fill="#B0C3EA"/>
<path d="M470.269 185.172H480.109V115.992H470.269V185.172Z" fill="#D1DAED" stroke="#3B65EE" stroke-width="3" stroke-miterlimit="10" stroke-linecap="round" stroke-linejoin="round"/>
<path d="M602.5 418.34H591.68" stroke="#3B65EE" stroke-width="3" stroke-miterlimit="10" stroke-linecap="round" stroke-linejoin="round"/>
<path d="M167.617 159.798C168.657 159.598 168.857 159.198 168.857 157.798V141.578C168.857 140.138 168.657 139.778 167.617 139.578V136.338H175.547L179.747 152.718H179.827L184.187 136.338H191.997V139.578C190.917 139.778 190.797 140.178 190.797 141.578V157.798C190.797 159.238 190.917 159.598 191.997 159.798V163.038H184.587V159.798C185.667 159.558 185.787 159.198 185.787 157.798V143.628H185.667C185.547 144.588 185.307 145.668 184.907 147.148L180.467 163.048H178.187L173.667 146.388C173.467 145.628 173.227 144.508 173.027 143.628H172.947V157.798C172.947 159.238 173.107 159.598 174.147 159.798V163.038H167.617V159.798V159.798Z" fill="#3B65EE"/>
<path d="M200.167 154.158V156.078C200.167 158.878 201.167 160.318 203.607 160.318C205.527 160.318 206.447 159.678 206.447 158.038V156.718H211.047V161.398C209.007 162.758 206.847 163.438 203.597 163.438C197.427 163.438 195.547 160.798 195.547 155.988V150.418C195.547 145.338 197.867 143.008 203.397 143.008C209.767 143.008 211.167 145.968 211.167 150.778V154.138H200.167V154.158ZM206.617 150.988V150.268C206.577 147.788 205.817 146.148 203.457 146.148C201.097 146.148 200.177 147.748 200.177 150.628V150.988H206.617Z" fill="#3B65EE"/>
<path d="M219.229 154.158V156.078C219.229 158.878 220.229 160.318 222.669 160.318C224.589 160.318 225.509 159.678 225.509 158.038V156.718H230.109V161.398C228.069 162.758 225.909 163.438 222.659 163.438C216.489 163.438 214.609 160.798 214.609 155.988V150.418C214.609 145.338 216.929 143.008 222.459 143.008C228.829 143.008 230.229 145.968 230.229 150.778V154.138H219.229V154.158ZM225.669 150.988V150.268C225.629 147.788 224.869 146.148 222.509 146.148C220.149 146.148 219.229 147.748 219.229 150.628V150.988H225.669Z" fill="#3B65EE"/>
<path d="M238.714 143.429H241.594V146.709H238.714V157.439C238.714 159.239 239.514 159.839 241.194 159.959H241.674V162.999C240.914 163.159 240.034 163.239 239.314 163.239C235.394 163.239 234.104 161.359 234.104 158.239V146.709H232.664V143.429H234.104V138.709L238.704 137.549V143.429H238.714Z" fill="#3B65EE"/>
<path d="M244.289 159.999C245.249 159.719 245.409 159.358 245.409 158.078V148.389C245.409 147.109 245.249 146.749 244.289 146.469V143.428H249.979V158.078C249.979 159.358 250.099 159.719 251.099 159.999V163.039H244.289V159.999V159.999ZM247.369 141.339C245.809 141.339 244.689 140.298 244.689 138.618C244.689 137.058 245.809 135.979 247.369 135.979C248.889 135.979 250.049 137.058 250.049 138.618C250.049 140.258 248.889 141.339 247.369 141.339Z" fill="#3B65EE"/>
<path d="M254.289 159.998C255.249 159.718 255.409 159.358 255.409 158.078V148.348C255.369 147.108 255.249 146.748 254.289 146.468V143.428H259.859V145.068C261.219 143.948 262.899 143.148 265.069 143.148C270.029 143.148 270.759 146.428 270.759 149.038V158.088C270.759 159.368 270.919 159.728 271.839 160.008V163.048H266.429C266.189 161.328 266.149 160.248 266.149 158.088V150.158C266.149 147.638 265.309 146.678 263.309 146.678C261.909 146.678 260.629 147.558 259.989 148.278V158.088C259.989 159.368 260.109 159.728 261.109 160.008V163.048H254.299V159.998H254.289Z" fill="#3B65EE"/>
<path d="M291.97 143.429V146.469C291.01 146.749 290.85 147.109 290.85 148.349V163.239C290.85 168.039 288.97 170.609 283.24 170.609C280.24 170.609 277.87 169.929 275.87 168.889V164.569H280.11V165.409C280.11 166.769 281.43 167.489 283.03 167.489C285.27 167.489 286.27 166.209 286.27 163.409V161.489C284.67 162.409 283.03 162.929 281.39 162.929C277.11 162.929 275.18 160.409 275.18 156.279V150.309C275.18 146.109 276.74 143.139 281.11 143.139C283.43 143.139 285.19 144.059 286.36 145.179V143.419H291.97V143.429ZM282.88 146.709C280.4 146.709 279.8 148.429 279.8 151.429V155.309C279.8 158.469 280.96 159.389 283.04 159.389C284.24 159.389 285.28 159.029 286.24 158.309V148.299C285.44 147.429 284.24 146.709 282.88 146.709Z" fill="#3B65EE"/>
<path d="M304.766 159.798C305.806 159.598 306.006 159.198 306.006 157.798V141.578C306.006 140.138 305.806 139.778 304.766 139.578V136.338H315.176C319.976 136.338 323.066 138.258 323.066 143.508C323.066 146.508 321.786 148.998 318.986 149.838C321.866 150.478 322.626 151.998 322.626 155.048V157.648C322.626 159.368 322.826 159.648 323.746 159.808V163.048H317.776C317.536 161.608 317.456 160.808 317.456 158.208V155.568C317.456 153.008 316.496 151.928 313.376 151.928H311.136V157.818C311.136 159.218 311.256 159.578 312.296 159.818V163.058H304.766V159.798V159.798ZM311.136 148.068H313.976C316.736 148.028 317.776 146.788 317.776 143.988C317.776 140.908 316.536 140.028 313.496 140.028H311.136V148.068Z" fill="#3B65EE"/>
<path d="M326.984 150.748C326.984 146.108 328.344 143.018 334.634 143.018C340.724 143.018 342.284 145.858 342.284 150.868V155.588C342.284 160.508 340.844 163.438 334.634 163.438C328.544 163.438 326.984 160.638 326.984 155.588V150.748ZM337.674 150.708C337.674 147.468 336.794 146.148 334.634 146.148C332.674 146.148 331.594 147.108 331.594 150.788V155.628C331.594 159.148 332.594 160.308 334.634 160.308C336.754 160.308 337.674 159.068 337.674 155.708V150.708Z" fill="#3B65EE"/>
<path d="M345.766 150.748C345.766 146.108 347.126 143.018 353.416 143.018C359.506 143.018 361.066 145.858 361.066 150.868V155.588C361.066 160.508 359.626 163.438 353.416 163.438C347.326 163.438 345.766 160.638 345.766 155.588V150.748ZM356.456 150.708C356.456 147.468 355.576 146.148 353.416 146.148C351.456 146.148 350.376 147.108 350.376 150.788V155.628C350.376 159.148 351.376 160.308 353.416 160.308C355.536 160.308 356.456 159.068 356.456 155.708V150.708Z" fill="#3B65EE"/>
<path d="M364.461 159.998C365.421 159.718 365.581 159.358 365.581 158.078V148.348C365.541 147.108 365.421 146.748 364.461 146.468V143.428H370.031V145.068C371.351 143.948 372.911 143.148 374.991 143.148C377.391 143.148 378.751 144.028 379.671 145.508C381.151 144.068 382.791 143.148 385.241 143.148C390.041 143.148 390.691 146.468 390.691 148.998V158.248C390.691 159.528 390.851 159.728 391.771 160.008V163.048H386.361C386.121 161.368 386.081 160.608 386.081 158.368V150.158C386.081 147.638 385.281 146.678 383.441 146.678C382.201 146.678 381.041 147.438 380.441 148.478V158.088C380.441 159.368 380.561 159.728 381.521 160.008V163.048H376.111C375.871 161.488 375.831 160.408 375.831 158.448V150.158C375.831 147.638 375.031 146.678 373.191 146.678C371.911 146.678 370.751 147.558 370.151 148.278V158.088C370.151 159.368 370.271 159.728 371.271 160.008V163.048H364.461V159.998V159.998Z" fill="#3B65EE"/>
<path d="M405.414 159.798C406.454 159.598 406.614 159.358 406.614 157.958V141.418C406.614 140.018 406.454 139.778 405.414 139.578V136.338H411.744V157.958C411.744 159.358 411.904 159.598 412.984 159.798V163.038H405.414V159.798Z" fill="#3B65EE"/>
</svg>
