<?xml version="1.0" encoding="UTF-8"?><svg id="Layer_1" xmlns="http://www.w3.org/2000/svg" viewBox="0 0 500 500"><defs><style>.cls-1{fill:#f4f6fe;}.cls-2{fill:#fff;}.cls-3{fill:#ecf0fe;}.cls-4{fill:#dee5fc;}.cls-5{fill:#3b66ef;}</style></defs><path class="cls-1" d="m72.59,291.56c-5.14,10.65-10.28,21.31-15.42,31.96-.83,1.73,1.75,3.25,2.59,1.51,5.14-10.65,10.28-21.31,15.42-31.96.83-1.73-1.75-3.25-2.59-1.51h0Z"/><path class="cls-1" d="m96.53,241.92c-6.12,12.69-12.24,25.39-18.37,38.08-.83,1.73,1.75,3.25,2.59,1.51,6.12-12.69,12.24-25.39,18.37-38.08.83-1.73-1.75-3.25-2.59-1.51h0Z"/><path class="cls-1" d="m117.52,198.4c-5.58,11.56-11.15,23.12-16.73,34.68-.83,1.73,1.75,3.25,2.59,1.51,5.58-11.56,11.15-23.12,16.73-34.68.83-1.73-1.75-3.25-2.59-1.51h0Z"/><path class="cls-1" d="m167.52,336.02c-5.36,11.11-10.71,22.21-16.07,33.32-.83,1.73,1.75,3.25,2.59,1.51,5.36-11.11,10.71-22.21,16.07-33.32.83-1.73-1.75-3.25-2.59-1.51h0Z"/><path class="cls-1" d="m188.83,291.82c-5.58,11.56-11.15,23.12-16.73,34.68-.83,1.73,1.75,3.25,2.59,1.51,5.58-11.56,11.15-23.12,16.73-34.68.83-1.73-1.75-3.25-2.59-1.51h0Z"/><path class="cls-1" d="m211.79,244.22c-6.12,12.69-12.24,25.39-18.37,38.08-.83,1.73,1.75,3.25,2.59,1.51,6.12-12.69,12.24-25.39,18.37-38.08.83-1.73-1.75-3.25-2.59-1.51h0Z"/><path class="cls-1" d="m299.31,385.23c-3.61,7.48-7.22,14.96-10.82,22.44-.83,1.73,1.75,3.25,2.59,1.51,3.61-7.48,7.22-14.96,10.82-22.44.83-1.73-1.75-3.25-2.59-1.51h0Z"/><path class="cls-1" d="m330.46,321.08c-8.85,17.93-17.85,35.79-26.23,53.95-.8,1.74,1.78,3.27,2.59,1.51,8.38-18.16,17.38-36.02,26.23-53.95.85-1.73-1.73-3.25-2.59-1.51h0Z"/><path class="cls-1" d="m348.84,282.55c-4.03,8.92-8.23,17.76-12.51,26.57-.84,1.73,1.75,3.25,2.59,1.51,4.28-8.8,8.48-17.65,12.51-26.57.79-1.75-1.8-3.27-2.59-1.51h0Z"/><path class="cls-1" d="m131.08,255.25c-5.56,11.52-11.11,23.04-16.67,34.56-.83,1.73,1.75,3.25,2.59,1.51,5.56-11.52,11.11-23.04,16.67-34.56.83-1.73-1.75-3.25-2.59-1.51h0Z"/><path class="cls-1" d="m156.57,202.39c-7.08,14.68-14.17,29.37-21.25,44.05-.83,1.73,1.75,3.25,2.59,1.51,7.08-14.68,14.17-29.37,21.25-44.05.83-1.73-1.75-3.25-2.59-1.51h0Z"/><path class="cls-1" d="m262.95,360.72c-5.13,10.65-10.27,21.29-15.4,31.94-.83,1.73,1.75,3.25,2.59,1.51,5.13-10.65,10.27-21.29,15.4-31.94.83-1.73-1.75-3.25-2.59-1.51h0Z"/><path class="cls-1" d="m283.93,317.23c-4.26,8.83-8.52,17.67-12.78,26.5-.83,1.73,1.75,3.25,2.59,1.51,4.26-8.83,8.52-17.67,12.78-26.5.83-1.73-1.75-3.25-2.59-1.51h0Z"/><path class="cls-1" d="m299.33,285.29c-3.71,7.7-7.43,15.4-11.14,23.1-.83,1.73,1.75,3.25,2.59,1.51,3.71-7.7,7.43-15.4,11.14-23.1.83-1.73-1.75-3.25-2.59-1.51h0Z"/><path class="cls-1" d="m208.95,368.68c-2.29,4.74-4.58,9.49-6.86,14.23-.35.73-.2,1.62.54,2.05.66.38,1.7.19,2.05-.54,2.29-4.74,4.58-9.49,6.86-14.23.35-.73.2-1.62-.54-2.05-.66-.38-1.7-.19-2.05.54h0Z"/><path class="cls-1" d="m231.5,321.92c-5.99,12.43-11.99,24.85-17.98,37.28-.83,1.73,1.75,3.25,2.59,1.51,5.99-12.43,11.99-24.85,17.98-37.28.83-1.73-1.75-3.25-2.59-1.51h0Z"/><path class="cls-1" d="m244.25,295.48c-2.72,5.65-5.45,11.3-8.17,16.94-.35.73-.2,1.62.54,2.05.66.38,1.7.19,2.05-.54,2.72-5.65,5.45-11.3,8.17-16.94.35-.73.2-1.62-.54-2.05-.66-.38-1.7-.19-2.05.54h0Z"/><path class="cls-1" d="m350.14,367.3c-4.25,8.81-8.5,17.62-12.75,26.43-.83,1.73,1.75,3.25,2.59,1.51,4.25-8.81,8.5-17.62,12.75-26.43.83-1.73-1.75-3.25-2.59-1.51h0Z"/><path class="cls-1" d="m392.11,279.12c-9.79,20.59-19.57,41.19-29.36,61.78-2.79,5.86-5.57,11.73-8.36,17.59-.82,1.73,1.76,3.26,2.59,1.51,9.79-20.59,19.57-41.19,29.36-61.78,2.79-5.86,5.57-11.73,8.36-17.59.82-1.73-1.76-3.26-2.59-1.51h0Z"/><path class="cls-1" d="m137.46,303.9c-7.97,16.52-15.94,33.05-23.91,49.57l-6.82,14.13c-.83,1.73,1.75,3.25,2.59,1.51,7.97-16.52,15.94-33.05,23.91-49.57,2.27-4.71,4.54-9.42,6.82-14.13.83-1.73-1.75-3.25-2.59-1.51h0Z"/><path class="cls-1" d="m148.9,280.18c-2.29,4.74-4.58,9.49-6.86,14.23-.35.73-.2,1.62.54,2.05.66.38,1.7.19,2.05-.54,2.29-4.74,4.58-9.49,6.86-14.23.35-.73.2-1.62-.54-2.05-.66-.38-1.7-.19-2.05.54h0Z"/><path class="cls-1" d="m406.7,304.59c-7.16,15.03-14.32,30.06-21.49,45.1-2.03,4.26-4.06,8.53-6.09,12.79-.83,1.73,1.76,3.26,2.59,1.51,7.16-15.03,14.32-30.06,21.49-45.1,2.03-4.26,4.06-8.53,6.09-12.79.83-1.73-1.76-3.26-2.59-1.51h0Z"/><path class="cls-3" d="m63.03,204.11c105.15,0,195.91,0,301.06,0,34.59,0,31.84-49.96,3.07-64.95-45.72-23.82-66.85,5.42-69.8,10.59,6.69-11.73-1.61-33.51-8.43-43.38-8.12-11.74-21.16-20.63-35.81-22.16-28.72-3.01-58.93,22.61-57.54,56.96-6.73-14.17-23.17-21.33-38.02-16.99-15.71,4.6-25.45,20.86-21.58,36.97-.98-1.34-8.31-11.08-21.58-11.99-15.74-1.08-22.07,18.26-22.6,18.99-5.13-4.94-15.41-13.96-21.58-11.99-8.48,2.71-11.99,12.68-9.25,22.98-7.26-2.34-21.58,6.99-21.58,12.99,0,12.99,20.55,11.99,23.63,11.99Z"/><path class="cls-4" d="m186.11,280.64c-1.41,3.04-5.04,4.36-8.11,2.94s-4.41-5.04-3-8.09,11.29-9.83,11.29-9.83c0,0,1.23,11.93-.18,14.98Z"/><path class="cls-4" d="m257.13,305.53c-1.41,3.04-5.04,4.36-8.11,2.94-3.07-1.42-4.41-5.04-3-8.09s11.29-9.83,11.29-9.83c0,0,1.23,11.93-.18,14.98Z"/><path class="cls-4" d="m196.14,354.37c-1.41,3.04-5.04,4.36-8.11,2.94s-4.41-5.04-3-8.09c1.41-3.04,11.29-9.83,11.29-9.83,0,0,1.23,11.93-.18,14.98Z"/><path class="cls-4" d="m155.6,333.44c-1.41,3.04-5.04,4.36-8.11,2.94-3.07-1.42-4.41-5.04-3-8.09s11.29-9.83,11.29-9.83c0,0,1.23,11.93-.18,14.98Z"/><path class="cls-4" d="m129.52,308.19c-1.41,3.04-5.04,4.36-8.11,2.94s-4.41-5.04-3-8.09,11.29-9.83,11.29-9.83c0,0,1.23,11.93-.18,14.98Z"/><path class="cls-4" d="m208.3,310.15c-1.41,3.04-5.04,4.36-8.11,2.94-3.07-1.42-4.41-5.04-3-8.09s11.29-9.83,11.29-9.83c0,0,1.23,11.93-.18,14.98Z"/><path class="cls-4" d="m227.99,390.65c-1.41,3.04-5.04,4.36-8.11,2.94-3.07-1.42-4.41-5.04-3-8.09s11.29-9.83,11.29-9.83c0,0,1.23,11.93-.18,14.98Z"/><path class="cls-4" d="m328.65,367.78c-1.41,3.04-5.04,4.36-8.11,2.94-3.07-1.42-4.41-5.04-3-8.09,1.41-3.04,11.29-9.83,11.29-9.83,0,0,1.23,11.93-.18,14.98Z"/><path class="cls-4" d="m306.56,311.36c-1.41,3.04-5.04,4.36-8.11,2.94-3.07-1.42-4.41-5.04-3-8.09,1.41-3.04,11.29-9.83,11.29-9.83,0,0,1.23,11.93-.18,14.98Z"/><path class="cls-4" d="m265.06,354.51c-1.41,3.04-5.04,4.36-8.11,2.94-3.07-1.42-4.41-5.04-3-8.09,1.41-3.04,11.29-9.83,11.29-9.83,0,0,1.23,11.93-.18,14.98Z"/><path class="cls-4" d="m370.08,305.3c-1.41,3.04-5.04,4.36-8.11,2.94-3.07-1.42-4.41-5.04-3-8.09,1.41-3.04,11.29-9.83,11.29-9.83,0,0,1.23,11.93-.18,14.98Z"/><path class="cls-4" d="m117.76,354.67c-1.41,3.04-5.04,4.36-8.11,2.94-3.07-1.42-4.41-5.04-3-8.09,1.41-3.04,11.29-9.83,11.29-9.83,0,0,1.23,11.93-.18,14.98Z"/><path class="cls-4" d="m145.18,250.7c-1.41,3.04-5.04,4.36-8.11,2.94-3.07-1.42-4.41-5.04-3-8.09,1.41-3.04,11.29-9.83,11.29-9.83,0,0,1.23,11.93-.18,14.98Z"/><path class="cls-4" d="m88.39,236.99c-1.41,3.04-5.04,4.36-8.11,2.94-3.07-1.42-4.41-5.04-3-8.09,1.41-3.04,11.29-9.83,11.29-9.83,0,0,1.23,11.93-.18,14.98Z"/><path class="cls-4" d="m107.78,274.54c-1.41,3.04-5.04,4.36-8.11,2.94-3.07-1.42-4.41-5.04-3-8.09,1.41-3.04,11.29-9.83,11.29-9.83,0,0,1.23,11.93-.18,14.98Z"/><path class="cls-4" d="m66.66,290.05c-1.41,3.04-5.04,4.36-8.11,2.94-3.07-1.42-4.41-5.04-3-8.09,1.41-3.04,11.29-9.83,11.29-9.83,0,0,1.23,11.93-.18,14.98Z"/><path class="cls-5" d="m54.62,207.23h67.87c21.74,0,43.49,0,65.23,0,21.63,0,43.27,0,64.9,0s43.95,0,65.92,0c11.18,0,22.35,0,33.53,0,5.81,0,11.61,0,17.42,0,3.34,0,6.64-.11,9.9-.9,10.5-2.57,17.43-11.27,19.5-21.63,2.24-11.22-.33-23.29-5.92-33.17-2.91-5.14-6.76-9.81-11.41-13.48-6.45-5.09-14.5-8.49-22.28-10.98-12.9-4.12-26.98-4.61-39.44,1.22-7.3,3.42-13.75,8.86-18.36,15.48-.52.75-1.02,1.51-1.46,2.31l2.59,1.51c2.92-5.41,3.19-11.8,2.46-17.79-.81-6.62-2.74-13.07-5.32-19.21-5.24-12.48-13.88-23.25-25.77-29.98-11.43-6.47-24.79-8.19-37.45-4.7-11.82,3.26-22.43,10.57-30.1,20.09-9.45,11.73-14.3,26.49-13.77,41.54l2.8-.76c-5.77-12.25-18.33-20.47-31.93-20.51s-26.04,8.42-31.46,20.82c-3.1,7.1-3.8,14.94-2.09,22.49l2.74-1.16c-5.3-7.48-13.8-12.66-22.93-13.64-10.12-1.09-17.9,5.59-22.67,13.89-.92,1.59-1.73,3.25-2.47,4.93-.27.62-.53,1.24-.79,1.86-.22.52.05.08-.24.53l2.36-.3c-2.76-2.73-5.64-5.34-8.72-7.7s-6.58-4.76-10.43-5.68c-7.55-1.81-13.82,5.1-15.81,11.72-1.47,4.88-1.22,10.12,0,15.03l1.85-1.85c-4.84-1.49-10.34.79-14.47,3.24-3.91,2.32-8.71,5.95-9.91,10.61-1.06,4.1,1.09,8.67,4.27,11.23s7.57,3.82,11.69,4.41c3.39.48,6.77.53,10.19.52,1.93,0,1.93-3.01,0-3-5.85.02-12.14,0-17.49-2.68-3.24-1.63-5.66-4.33-5.87-8.08s3.79-7.14,6.67-9.15c3.77-2.63,9.38-5.66,14.12-4.21,1.12.34,2.11-.77,1.85-1.85-1.19-4.76-1.35-9.86.36-14.52,1.41-3.86,4.59-7.74,8.79-8.66,3.72-.81,7.87,2.07,10.74,4.07,3.63,2.54,6.91,5.55,10.05,8.66.71.7,1.84.51,2.36-.3,1.05-1.63,1.5-3.54,2.42-5.34,1.73-3.37,3.84-6.58,6.57-9.23,3.21-3.12,7.31-5.22,11.85-5.3,5.59-.1,11.16,1.98,15.72,5.13,2.79,1.93,5.5,4.53,7.37,7.16.97,1.36,3.13.57,2.74-1.16-2.75-12.2,1.73-25.28,11.63-33.01s23.53-8.5,34.4-2.51c6.17,3.4,10.97,8.67,13.97,15.03.64,1.36,2.85.67,2.8-.76-.86-24.55,13.85-48.51,37.15-57.26,11.32-4.25,23.78-4.3,34.94.56,11.88,5.18,21.41,14.81,27.17,26.34,3.09,6.19,5.43,12.86,6.69,19.67,1.16,6.28,1.54,13.44-1.59,19.24-.92,1.7,1.65,3.2,2.59,1.51,2.96-5.3,7.66-9.87,12.72-13.29,9.81-6.62,21.74-8.62,33.34-6.73,8.91,1.45,17.46,4.81,25.38,9.09,5.02,2.72,9.38,6.52,12.85,11.06,6.77,8.87,10.44,20.36,9.72,31.52-.63,9.75-5.34,19.53-14.91,23.22-2.52.97-5.19,1.52-7.88,1.69-5.06.33-10.21.07-15.28.07-10.78,0-21.56,0-32.34,0-42.41,0-84.82,0-127.23,0s-85.28,0-127.92,0h-16.43c-1.93,0-1.93,3,0,3Z"/><path class="cls-2" d="m167.1,252.36c.41.07.85.11,1.3.14,7.4.42,14.64-.48,22.02-.61,8.79-.16,17.59-.27,26.38-.33,17.61-.13,35.21-.1,52.82,0,35.21.21,70.42.69,105.63.71.7,0,1.39,0,2.09,0h69.91c7.97,0,22.87.55,23.01-10.43.22-17.66-16.15-25.83-30.57-30.71-15.58-5.27-30.43-1.19-38.94,2.16-.78-2.35-9.17-26.23-33.53-33.56-20.07-6.04-42.63,1.66-56.25,19.48-11.1-18-32.23-30.39-46.51-22.73-14.68,7.88-16.15,31.22-16.22,32.47-5.04-9.04-16.1-9.83-23.8-5.41-6.54,3.75-9.46,12.11-7.54,19.27-6.93-5.76-15.71-9.26-24.7-9.85-14-.91-26.89,7.88-31.29,21.03-2.38,7.11-2.4,16.97,6.2,18.35Z"/><path class="cls-5" d="m166.7,253.81c7,.99,14.3-.1,21.33-.36,7.54-.28,15.09-.27,22.63-.35,15.15-.15,30.29-.16,45.44-.11,30.45.11,60.9.49,91.34.68s60.76.1,91.14.1c5.24,0,10.53.17,15.77-.09,4.02-.2,8.3-.69,11.89-2.66,8.6-4.71,5.81-16.99,1.34-23.72-5.46-8.22-14.79-12.91-23.77-16.28-6.11-2.29-12.34-3.79-18.89-3.9-6.05-.11-12.12.82-17.93,2.48-2.25.64-4.46,1.41-6.64,2.26l1.85,1.05c-3.24-9.72-9.6-18.86-17.46-25.37-13.97-11.56-33.29-14.29-50.14-7.83-9.93,3.8-18.44,10.36-24.92,18.77h2.59c-4.42-7.1-10.2-13.34-17.05-18.14-5.96-4.17-13.04-7.39-20.41-7.63-6.68-.22-12.88,2.53-17.38,7.43s-6.92,10.64-8.59,16.69c-1.09,3.95-1.84,8.06-2.1,12.15l2.8-.76c-7.46-12.98-27.66-10.8-33.24,2.71-1.61,3.89-1.87,8.23-.83,12.3l2.51-1.46c-10.69-8.77-26.3-13.42-39.58-8.08-11.09,4.45-19.86,15.26-20.32,27.45-.22,5.89,2.39,11.55,8.65,12.66,1.89.34,2.7-2.55.8-2.89-11.11-1.98-5.57-17.82-1.53-23.72,6.55-9.56,18.12-14.1,29.45-12.38,7.47,1.14,14.58,4.27,20.42,9.07,1.12.92,2.9.08,2.51-1.46-2-7.87,2.03-16.21,9.79-18.92,7.06-2.47,14.96-.47,18.81,6.22.78,1.35,2.71.68,2.8-.76.52-8.37,2.93-17.34,7.81-24.23,3.5-4.96,8.75-8.57,14.91-9,6.7-.46,13.27,2.12,18.87,5.6,7.47,4.64,13.72,11.2,18.36,18.64.65,1.04,1.91.88,2.59,0,10.83-14.05,28.44-22.4,46.23-20.5,15.19,1.62,27.99,10.98,35.82,23.83,2.04,3.34,3.78,6.77,4.99,10.38.24.71,1.06,1.36,1.85,1.05,10.88-4.25,22.88-6.11,34.36-3.27,5,1.24,9.96,3.19,14.59,5.46,4.27,2.1,8.38,4.65,11.74,8.04s5.53,7.22,6.46,11.72c.81,3.9,1.05,8.56-2.56,11.11-3.07,2.17-7.23,2.62-10.88,2.84-4.79.28-9.62.12-14.42.12-29.25,0-58.5.08-87.74-.07-29.33-.15-58.66-.52-88-.67-29.02-.15-58.07-.32-87.06.95-3.32.15-6.84.4-10.14-.07-1.89-.27-2.7,2.62-.8,2.89Z"/><path class="cls-3" d="m241.75,276.04c4.22,1.21,9.25.55,13.33.32,8.02-.45,16.07-.27,24.11-.27,17.79,0,35.58.01,53.36,0,15.14,0,30.27-.02,45.41-.04,8.76-.02,23.71-1.41,26.02-12.96,3.24-10.82-7.79-28.99-19.47-31.39-9.78-2.01-20.36,2.73-27.04,11.91-9.34-19.81-30.02-29.75-47.59-24.9-18.37,5.07-25.3,24.09-25.96,25.98-4.54-8.1-13.97-11.58-21.63-8.66-6.01,2.29-10.23,8.24-10.82,15.15-.86-.49-7.11-3.95-12.98-1.08-.59.29-3.54,3.22-5.41,6.5-3.11,5.44-.04,13.38,4.41,17.21,1.25,1.07,2.7,1.78,4.25,2.23Z"/><path class="cls-5" d="m241.36,277.49c4.17,1.14,8.5.72,12.75.43,4.91-.33,9.83-.37,14.75-.37,10.1.01,20.19.04,30.29.05,20.29,0,40.57,0,60.86-.02,5.07,0,10.15-.01,15.22-.02,3.07,0,6.14,0,9.2-.31,5.74-.57,11.83-1.9,16.32-5.75s5.91-10.27,5.04-16c-.99-6.54-4.45-12.81-8.87-17.66s-10.16-8.09-16.92-8.1c-7.5,0-14.67,3.46-19.98,8.64-1.41,1.37-2.66,2.88-3.83,4.47h2.59c-6.64-13.95-19.81-24.68-35.35-26.58-7.19-.88-14.58.41-20.98,3.81-5.81,3.09-10.59,7.82-14.29,13.21-2.32,3.39-4.31,7.11-5.67,11l2.74-.36c-3.17-5.54-8.71-9.49-15.08-10.28s-12.45,1.96-16.27,7.04c-2.3,3.05-3.54,6.71-3.89,10.49l2.26-1.3c-2.24-1.27-4.76-2.08-7.32-2.34-2.01-.2-4.1.02-5.99.74-1.26.48-2.11,1.18-3.04,2.15-2.4,2.51-4.82,5.58-5.37,9.1s.32,7.06,1.94,10.17c1.92,3.68,4.89,6.55,8.91,7.76,1.85.56,2.64-2.33.8-2.89-6.82-2.07-11.25-11.7-7.34-17.95.99-1.59,2.18-3.06,3.49-4.39,1.11-1.11,2.5-1.59,4.27-1.73,2.81-.23,5.71.58,8.14,1.97,1.06.6,2.15-.18,2.26-1.3.67-7.02,5.65-13.49,12.86-14.54s13.45,2.96,16.79,8.8c.68,1.18,2.33.82,2.74-.36.38-1.09.69-1.83,1.08-2.68.86-1.91,1.85-3.76,2.95-5.54,3.04-4.95,7.01-9.43,11.9-12.62,11.83-7.74,26.92-6.32,38.51,1.15,7.16,4.61,12.73,11.31,16.38,18.98.53,1.12,1.99.82,2.59,0,4.28-5.8,10.59-10.19,17.77-11.36,3.06-.5,6.37-.38,9.32.62,2.72.92,5.14,2.65,7.21,4.6,4.51,4.25,7.95,9.95,9.4,15.99,1.21,5.05.6,10.99-3.36,14.72s-9.7,4.84-14.83,5.34c-2.77.27-5.54.29-8.31.29-4.82,0-9.65.01-14.47.02-19.21.02-38.41.02-57.62.02-9.54,0-19.08.03-28.62-.02-4.76-.02-9.52-.07-14.27.05-4.25.1-8.48.56-12.72.62-2.07.03-4.1-.11-6.1-.65-1.87-.51-2.66,2.39-.8,2.89Z"/><path class="cls-4" d="m337.49,333.47c-1.41,3.04-5.04,4.36-8.11,2.94s-4.41-5.04-3-8.09c1.41-3.04,11.29-9.83,11.29-9.83,0,0,1.23,11.93-.18,14.98Z"/></svg>