<svg width="365" height="123" viewBox="0 0 365 123" fill="none" xmlns="http://www.w3.org/2000/svg">
<g clip-path="url(#clip0_9_3)">
<path opacity="0.2" d="M182.5 123C283.292 123 365 98.0757 365 67.33C365 36.5843 283.292 11.66 182.5 11.66C81.708 11.66 0 36.5843 0 67.33C0 98.0757 81.708 123 182.5 123Z" fill="#3B65EE"/>
<path d="M182.5 112.88C272.649 112.88 345.73 87.8348 345.73 56.94C345.73 26.0452 272.649 1 182.5 1C92.3506 1 19.27 26.0452 19.27 56.94C19.27 87.8348 92.3506 112.88 182.5 112.88Z" fill="white" stroke="#3B65EE" stroke-width="2" stroke-miterlimit="10"/>
<path d="M239.5 68.85C240.279 68.85 240.91 68.2188 240.91 67.44C240.91 66.6613 240.279 66.03 239.5 66.03C238.721 66.03 238.09 66.6613 238.09 67.44C238.09 68.2188 238.721 68.85 239.5 68.85Z" fill="#3B65EE"/>
<path d="M155.5 72.85C156.279 72.85 156.91 72.2188 156.91 71.44C156.91 70.6613 156.279 70.03 155.5 70.03C154.721 70.03 154.09 70.6613 154.09 71.44C154.09 72.2188 154.721 72.85 155.5 72.85Z" fill="#3B65EE"/>
<path d="M156.5 50.85C157.279 50.85 157.91 50.2188 157.91 49.44C157.91 48.6613 157.279 48.03 156.5 48.03C155.721 48.03 155.09 48.6613 155.09 49.44C155.09 50.2188 155.721 50.85 156.5 50.85Z" fill="#3B65EE"/>
<path d="M141.5 50.85C142.279 50.85 142.91 50.2188 142.91 49.44C142.91 48.6613 142.279 48.03 141.5 48.03C140.721 48.03 140.09 48.6613 140.09 49.44C140.09 50.2188 140.721 50.85 141.5 50.85Z" fill="#3B65EE"/>
<path d="M252.5 64.85C253.279 64.85 253.91 64.2188 253.91 63.44C253.91 62.6613 253.279 62.03 252.5 62.03C251.721 62.03 251.09 62.6613 251.09 63.44C251.09 64.2188 251.721 64.85 252.5 64.85Z" fill="#3B65EE"/>
<path d="M198.5 45.85C199.279 45.85 199.91 45.2188 199.91 44.44C199.91 43.6613 199.279 43.03 198.5 43.03C197.721 43.03 197.09 43.6613 197.09 44.44C197.09 45.2188 197.721 45.85 198.5 45.85Z" fill="#3B65EE"/>
<path d="M259.5 71.85C260.279 71.85 260.91 71.2188 260.91 70.44C260.91 69.6613 260.279 69.03 259.5 69.03C258.721 69.03 258.09 69.6613 258.09 70.44C258.09 71.2188 258.721 71.85 259.5 71.85Z" fill="#3B65EE"/>
<path d="M338.5 55.5C338.5 82.56 268.66 104.5 182.5 104.5C96.34 104.5 26.5 82.56 26.5 55.5C26.5 28.44 96.34 4.5 182.5 4.5C268.66 4.5 338.5 28.44 338.5 55.5Z" stroke="#3B65EE" stroke-width="0.91" stroke-miterlimit="10"/>
</g>
<defs>
<clipPath id="clip0_9_3">
<rect width="365" height="123" fill="white"/>
</clipPath>
</defs>
</svg>
