<svg width="64" height="64" viewBox="0 0 64 64" fill="none" xmlns="http://www.w3.org/2000/svg">
<g clip-path="url(#clip0_1249_697)">
<path d="M34.1121 37.7297C35.3649 34.7258 35.3911 31.3506 34.185 28.3276C32.9789 25.3047 30.6364 22.8745 27.6599 21.558C24.6833 20.2416 21.3094 20.1436 18.2614 21.2852C15.2135 22.4268 12.734 24.7169 11.3546 27.6649L11.1893 28.0615L5.7685 40.2253L3.02504 39.0023C2.76686 38.8867 2.48838 38.8232 2.20559 38.8154C1.9228 38.8077 1.64127 38.8559 1.37716 38.9572C1.11304 39.0586 0.87154 39.2111 0.666514 39.406C0.461488 39.6009 0.296974 39.8344 0.182415 40.0931C-0.0465991 40.6151 -0.0605092 41.2063 0.143703 41.7385C0.347916 42.2707 0.753772 42.7009 1.27319 42.9357L10.3464 46.9517C9.89212 48.2707 9.94929 49.7121 10.5067 50.9909C11.064 52.2698 12.081 53.2929 13.3565 53.8579C14.632 54.4229 16.073 54.4887 17.3947 54.0423C18.7163 53.5959 19.8223 52.6697 20.4939 51.447L23.1383 52.6205L26.8072 54.2731L29.5672 55.4961C30.0888 55.7262 30.6805 55.7397 31.212 55.5336C31.7435 55.3275 32.1714 54.9187 32.4016 54.3971C32.6317 53.8755 32.6452 53.2838 32.4391 52.7523C32.2329 52.2207 31.8241 51.7928 31.3025 51.5627L28.5591 50.3563L34.1286 37.7793L34.1121 37.7297Z" fill="#EAD82A"/>
<path d="M30.625 37.1345C31.5915 34.9429 31.6478 32.4571 30.7816 30.224C29.9153 27.9909 28.1974 26.1933 26.0058 25.2269C23.8142 24.2604 21.3284 24.2041 19.0953 25.0703C16.8622 25.9366 15.0647 27.6545 14.0982 29.8461L8.80957 41.795L25.3364 49.0999L30.6416 37.1345H30.625Z" fill="#FCEE21"/>
<path d="M33.9466 38.1436L34.1284 37.7469C35.3345 34.7521 35.3295 31.4058 34.1145 28.4146C32.8996 25.4233 30.5696 23.0214 27.6168 21.7159L27.3689 21.6167C25.931 24.5254 23.9478 31.8303 32.1286 42.3083L33.9466 38.1436Z" fill="#B5A21A"/>
<path d="M63.8442 36.292C63.6374 35.7819 63.2426 35.3706 62.7413 35.143C62.2401 34.9154 61.6706 34.889 61.1504 35.069L58.3408 36.1598L53.4984 23.7647L53.3497 23.368C52.0157 20.4966 49.6374 18.2416 46.6992 17.0622C43.7609 15.8827 40.4835 15.8676 37.5345 17.0199C34.5854 18.1721 32.1864 20.405 30.826 23.264C29.4656 26.123 29.246 29.393 30.212 32.4082L35.1701 45.2165L32.3771 46.3073C31.8675 46.5162 31.4577 46.9128 31.2321 47.4151C31.0065 47.9175 30.9824 48.4872 31.1648 49.0068C31.3472 49.5264 31.7221 49.9562 32.2122 50.2073C32.7023 50.4584 33.2701 50.5118 33.7984 50.3564L36.6079 49.2656L43.0534 46.7535C43.6428 48.0441 44.7038 49.0602 46.0186 49.5932C47.3335 50.1262 48.8025 50.1357 50.1242 49.6197C51.4458 49.1037 52.5198 48.1014 53.1258 46.8186C53.7318 45.5357 53.8237 44.0695 53.3827 42.721L62.6213 39.1016C62.8876 38.9994 63.1308 38.8453 63.3369 38.6481C63.543 38.4509 63.7078 38.2147 63.8217 37.9532C63.9355 37.6916 63.9961 37.4101 64 37.1249C64.0039 36.8397 63.9509 36.5566 63.8442 36.292Z" fill="#EAD82A"/>
<path d="M50.342 25.3846C49.4654 23.1602 47.741 21.375 45.5482 20.422C43.3554 19.4689 40.8738 19.426 38.6493 20.3026C36.4248 21.1793 34.6397 22.9037 33.6866 25.0965C32.7336 27.2893 32.6906 29.7709 33.5673 31.9954L38.3105 44.1592L55.1348 37.5484L50.3586 25.3846H50.342Z" fill="#FCEE21"/>
<path d="M32.9384 12.6918C33.031 12.4829 33.0546 12.2499 33.0058 12.0267C32.9569 11.8035 32.8382 11.6017 32.6668 11.4506C32.4955 11.2995 32.2804 11.207 32.0528 11.1865C31.8252 11.166 31.5971 11.2185 31.4014 11.3366C28.1439 13.0222 24.6228 14.14 20.9895 14.6419C20.8266 14.66 20.6702 14.7158 20.5325 14.8047C20.3948 14.8936 20.2797 15.0133 20.1962 15.1543C20.1236 15.2977 20.0858 15.4563 20.0858 15.617C20.0858 15.7778 20.1236 15.9363 20.1962 16.0798C20.6259 17.1871 21.2539 19.8479 20.3284 20.6247C19.4029 21.4014 17.4032 19.9305 17.3866 19.914C17.2038 19.7828 16.9845 19.7124 16.7595 19.7125C16.5345 19.7127 16.3152 19.7835 16.1326 19.915C15.95 20.0465 15.8133 20.2319 15.7418 20.4453C15.6703 20.6586 15.6675 20.889 15.7339 21.104C16.1636 22.1947 16.7917 24.8556 15.8662 25.6323C14.5936 26.7066 12.2302 25.7315 12.2137 25.7315C12.0115 25.6441 11.7872 25.621 11.5714 25.6654C11.3556 25.7097 11.1587 25.8193 11.0073 25.9794C10.8552 26.1403 10.7574 26.3449 10.7278 26.5643C10.6981 26.7837 10.7381 27.0069 10.842 27.2024C10.842 27.2024 13.4532 32.2761 10.842 34.8047L10.5941 35.0361C10.3749 35.2246 10.2396 35.4924 10.2179 35.7807C10.1962 36.0689 10.2899 36.354 10.4784 36.5731C10.6669 36.7923 10.9347 36.9276 11.2229 36.9493C11.5112 36.971 11.7962 36.8773 12.0154 36.6888L12.2633 36.4574C13.2219 35.4823 17.7172 31.9621 20.9895 34.2428C21.1871 34.3825 21.4271 34.449 21.6684 34.4309C21.9097 34.4128 22.1371 34.3112 22.3116 34.1437C22.4932 33.9847 22.6139 33.7675 22.6531 33.5294C22.6923 33.2912 22.6476 33.0468 22.5265 32.838C22.5265 32.838 20.4111 29.0534 22.7744 27.5329C25.1377 26.0124 26.0798 26.9875 26.0798 27.0702C26.255 27.2604 26.4931 27.3811 26.7502 27.4099C27.0073 27.4387 27.2661 27.3738 27.4792 27.2271C27.6923 27.0804 27.8452 26.8617 27.91 26.6112C27.9747 26.3607 27.9469 26.0953 27.8316 25.8637C27.1466 24.7566 26.8339 23.4593 26.9392 22.1617C26.9783 22.0375 27.0468 21.9246 27.1389 21.8325C27.231 21.7405 27.3439 21.672 27.468 21.6328C28.7097 21.0714 30.1125 20.9775 31.418 21.3684C31.6455 21.4686 31.9012 21.4855 32.1399 21.4159C32.3787 21.3464 32.5854 21.195 32.7236 20.9883C32.8577 20.7765 32.916 20.5256 32.889 20.2764C32.862 20.0272 32.7512 19.7946 32.5748 19.6165C32.5748 19.5339 30.7734 17.6664 32.9384 12.6918Z" fill="#0EA84C"/>
<path d="M23.2876 19.269C23.1808 19.2726 23.0753 19.2448 22.9842 19.189C22.8932 19.1331 22.8205 19.0518 22.7752 18.955C22.755 18.8878 22.7485 18.8171 22.7559 18.7473C22.7633 18.6775 22.7845 18.6098 22.8184 18.5483C22.8522 18.4867 22.898 18.4325 22.953 18.3889C23.008 18.3452 23.0712 18.3129 23.1388 18.294C25.0477 17.6649 26.808 16.6526 28.3117 15.3191C28.3616 15.2703 28.4207 15.2318 28.4855 15.2058C28.5503 15.1797 28.6196 15.1667 28.6894 15.1675C28.7592 15.1683 28.8282 15.1828 28.8925 15.2102C28.9567 15.2377 29.0149 15.2775 29.0637 15.3274C29.1125 15.3773 29.1511 15.4363 29.1771 15.5012C29.2031 15.566 29.2161 15.6353 29.2153 15.7051C29.2145 15.7749 29.2 15.8439 29.1726 15.9081C29.1452 15.9723 29.1053 16.0305 29.0554 16.0794C27.4466 17.5703 25.5359 18.6976 23.4528 19.3847L23.2876 19.269Z" fill="#09823A"/>
<path d="M21.3538 26.8719H21.2546C21.1153 26.8438 20.9924 26.7625 20.9122 26.6452C20.8319 26.5279 20.8006 26.3839 20.8249 26.2439C21.3168 24.1201 22.2454 22.122 23.5519 20.3768C23.5917 20.3113 23.6449 20.255 23.7079 20.2114C23.771 20.1678 23.8425 20.1381 23.9179 20.124C23.9932 20.1099 24.0707 20.1119 24.1452 20.1298C24.2198 20.1477 24.2897 20.1811 24.3504 20.2278C24.4112 20.2746 24.4614 20.3336 24.4978 20.401C24.5342 20.4685 24.556 20.5429 24.5618 20.6193C24.5675 20.6957 24.5571 20.7725 24.5311 20.8446C24.5052 20.9168 24.4644 20.9826 24.4113 21.0379C23.2101 22.651 22.3446 24.4887 21.8661 26.4422C21.8464 26.5633 21.7838 26.6733 21.6897 26.7521C21.5957 26.831 21.4765 26.8735 21.3538 26.8719Z" fill="#09823A"/>
<path d="M13.8171 31.3176C13.7197 31.3163 13.6244 31.2897 13.5403 31.2405C13.4563 31.1912 13.3865 31.121 13.3378 31.0366C13.3032 30.975 13.2813 30.9071 13.2734 30.8368C13.2654 30.7666 13.2717 30.6955 13.2917 30.6277C13.3117 30.5599 13.3451 30.4968 13.39 30.4421C13.4348 30.3875 13.4901 30.3424 13.5527 30.3095C15.3197 29.3352 16.8625 28.0008 18.0811 26.3926C18.164 26.2788 18.2877 26.2015 18.4263 26.1769C18.5649 26.1522 18.7077 26.1822 18.8248 26.2604C18.9385 26.3433 19.0158 26.467 19.0405 26.6056C19.0651 26.7442 19.0352 26.887 18.957 27.0041C17.622 28.7534 15.9324 30.2008 13.9989 31.2515C13.9417 31.2819 13.8805 31.3041 13.8171 31.3176Z" fill="#09823A"/>
<path d="M51.6303 33.6809L51.3824 33.4495C48.8703 30.8052 51.6303 25.8967 51.6633 25.8471C51.7683 25.6521 51.8134 25.4304 51.7928 25.2099C51.7722 24.9893 51.6869 24.7798 51.5476 24.6076C51.3994 24.443 51.2051 24.3267 50.9901 24.2737C50.775 24.2206 50.5489 24.2333 50.3412 24.3101C50.3412 24.3101 47.9448 25.2026 46.6887 24.0953C45.8789 23.3516 46.3912 20.9552 47.0027 19.5504C47.0918 19.3295 47.106 19.0855 47.0434 18.8557C46.9807 18.6259 46.8445 18.4229 46.6557 18.2778C46.4668 18.1304 46.2342 18.0503 45.9946 18.0503C45.755 18.0503 45.5223 18.1304 45.3335 18.2778C45.3335 18.2778 43.4164 19.8313 42.3587 18.8728C41.5489 18.1291 42.0612 15.7327 42.6727 14.3444C42.7455 14.1981 42.7834 14.0368 42.7834 13.8734C42.7834 13.7099 42.7455 13.5487 42.6727 13.4024C42.5944 13.2608 42.4855 13.1384 42.354 13.044C42.2225 12.9497 42.0717 12.8858 41.9125 12.857C38.2813 12.2366 34.7825 11.0014 31.5666 9.20454C31.3873 9.0717 31.17 9 30.9469 9C30.7237 9 30.5064 9.0717 30.3271 9.20454C30.1558 9.348 30.0335 9.54132 29.9772 9.75756C29.9209 9.97381 29.9335 10.2022 30.0131 10.411C31.9963 15.4682 30.1288 17.2697 30.0131 17.3358C29.8296 17.5008 29.7085 17.7241 29.6702 17.9679C29.6319 18.2118 29.6788 18.4614 29.803 18.6747C29.9271 18.8881 30.1209 19.0522 30.3518 19.1394C30.5827 19.2266 30.8366 19.2317 31.0708 19.1537C32.3914 18.7947 33.798 18.936 35.0207 19.5504C35.1411 19.5978 35.2495 19.6713 35.3381 19.7656C35.4267 19.8599 35.4933 19.9727 35.5331 20.0958C35.6458 21.4417 35.3024 22.7864 34.558 23.9135C34.4231 24.1367 34.3755 24.402 34.4243 24.6582C34.4731 24.9145 34.6149 25.1437 34.8224 25.3017C35.0312 25.4573 35.2882 25.5342 35.5481 25.5191C35.8081 25.504 36.0544 25.3978 36.2437 25.2191C36.3594 25.1034 37.3841 24.2109 39.5491 25.781C41.7141 27.3511 39.6979 30.9374 39.5491 31.0861C39.4267 31.2938 39.3765 31.5362 39.4064 31.7754C39.4363 32.0146 39.5446 32.2371 39.7144 32.4083C39.8865 32.5781 40.1115 32.6839 40.3521 32.7079C40.5927 32.732 40.8342 32.6729 41.0365 32.5405C44.3419 30.392 48.7876 34.1932 49.7958 35.0526C49.866 35.142 49.9497 35.22 50.0437 35.284C50.2364 35.4643 50.4904 35.5647 50.7543 35.5649C51.0467 35.5616 51.326 35.4428 51.5311 35.2344C51.6428 35.141 51.7343 35.0258 51.8001 34.8959C51.8659 34.7661 51.9046 34.6242 51.9139 34.4789C51.9231 34.3336 51.9028 34.1879 51.854 34.0507C51.8053 33.9136 51.7291 33.7877 51.6303 33.6809Z" fill="#0EA84C"/>
<path d="M39.4337 17.435H39.2684C37.2141 16.6959 35.3428 15.5235 33.7815 13.9974C33.6829 13.8965 33.6284 13.7607 33.6299 13.6197C33.6315 13.4786 33.689 13.344 33.7898 13.2454C33.8906 13.1468 34.0265 13.0922 34.1675 13.0938C34.3085 13.0953 34.4431 13.1528 34.5418 13.2537C36.0123 14.6456 37.7573 15.7151 39.6651 16.3938C39.8007 16.4424 39.9115 16.5426 39.9735 16.6727C40.0354 16.8027 40.0434 16.952 39.9956 17.0879C39.9528 17.1992 39.8747 17.2935 39.7732 17.3561C39.6717 17.4188 39.5524 17.4465 39.4337 17.435Z" fill="#09823A"/>
<path d="M41.0863 25.1197C40.9587 25.1142 40.8368 25.0653 40.7406 24.9812C40.6445 24.8971 40.5799 24.7827 40.5575 24.657C40.1751 22.6822 39.3872 20.8083 38.2437 19.1535C38.1972 19.0975 38.1627 19.0326 38.1425 18.9626C38.1222 18.8927 38.1166 18.8194 38.126 18.7472C38.1354 18.675 38.1596 18.6056 38.1971 18.5432C38.2346 18.4808 38.2845 18.4268 38.3438 18.3846C38.4031 18.3424 38.4705 18.3129 38.5418 18.2979C38.613 18.283 38.6866 18.2829 38.7578 18.2976C38.8291 18.3124 38.8966 18.3418 38.956 18.3838C39.0154 18.4259 39.0655 18.4797 39.1031 18.542C40.3613 20.3261 41.2183 22.3615 41.6152 24.5082C41.6269 24.5768 41.6245 24.6471 41.6081 24.7147C41.5917 24.7824 41.5618 24.846 41.52 24.9017C41.4783 24.9573 41.4256 25.0039 41.3652 25.0386C41.3049 25.0732 41.2381 25.0952 41.169 25.1032L41.0863 25.1197Z" fill="#09823A"/>
<path d="M48.4577 29.83C48.371 29.8524 48.28 29.8524 48.1932 29.83C46.3126 28.6891 44.7004 27.1558 43.4666 25.3347C43.4265 25.2765 43.3985 25.2107 43.3843 25.1415C43.3701 25.0722 43.3699 25.0008 43.3838 24.9314C43.3977 24.8621 43.4253 24.7963 43.4651 24.7378C43.5048 24.6793 43.5559 24.6294 43.6153 24.591C43.7363 24.5161 43.8818 24.4914 44.0208 24.5223C44.1598 24.5531 44.2811 24.6371 44.359 24.7563C45.5201 26.4148 47.0111 27.8158 48.7386 28.8715C48.7984 28.9072 48.8506 28.9543 48.8921 29.0103C48.9336 29.0662 48.9637 29.1297 48.9806 29.1973C48.9975 29.2649 49.0009 29.3351 48.9905 29.404C48.9802 29.4729 48.9564 29.539 48.9204 29.5987C48.8685 29.6725 48.799 29.7323 48.7182 29.7727C48.6375 29.8131 48.5479 29.8328 48.4577 29.83Z" fill="#09823A"/>
<path d="M29.6662 22.5746C31.1357 22.5746 32.327 21.3833 32.327 19.9138C32.327 18.4442 31.1357 17.2529 29.6662 17.2529C28.1967 17.2529 27.0054 18.4442 27.0054 19.9138C27.0054 21.3833 28.1967 22.5746 29.6662 22.5746Z" fill="#E82353"/>
<path d="M33.5002 17.848C34.9697 17.848 36.161 16.6567 36.161 15.1872C36.161 13.7177 34.9697 12.5264 33.5002 12.5264C32.0306 12.5264 30.8394 13.7177 30.8394 15.1872C30.8394 16.6567 32.0306 17.848 33.5002 17.848Z" fill="#E82353"/>
<path d="M36.6076 23.2523C38.0771 23.2523 39.2684 22.061 39.2684 20.5915C39.2684 19.122 38.0771 17.9307 36.6076 17.9307C35.1381 17.9307 33.9468 19.122 33.9468 20.5915C33.9468 22.061 35.1381 23.2523 36.6076 23.2523Z" fill="#E82353"/>
</g>
<defs>
<clipPath id="clip0_1249_697">
<rect width="64" height="64" fill="white"/>
</clipPath>
</defs>
</svg>
