<?xml version="1.0" encoding="UTF-8"?><svg id="Layer_2" xmlns="http://www.w3.org/2000/svg" viewBox="0 0 228.03 303.49"><defs><style>.cls-1{fill:#0069ff;}.cls-2{fill:#eaf0ff;}.cls-3{fill:#e6e6e6;}.cls-4{fill:#fff;}.cls-5{fill:#c1d5ff;}</style></defs><g id="Layer_1-2"><rect class="cls-4" x="85.5" y="137.98" width="55" height="32"/><path class="cls-1" d="m141,170.48h-56v-33h56v33Zm-55-1h54v-31h-54v31Z"/><path class="cls-5" d="m145.58,161.97l-31,105-33-106s12,16,33,17,31-16,31-16Z"/><path class="cls-5" d="m114.6,268.69l-34.35-110.34,1.74,2.31c.12.16,12.11,15.82,32.62,16.8,20.43.97,30.45-15.59,30.55-15.75l2.06-3.49-32.61,110.47Zm-31.82-105.57l31.79,102.12,29.69-100.58c-3.75,4.72-13.56,14.57-29.71,13.8-16.66-.79-27.83-11.06-31.78-15.34Z"/><path class="cls-4" d="m81.5,158.98l33,106,31-105c84,25,80,84,80,84,0,0-31,56-113,57S2.5,241.98,2.5,241.98c3-66,79-83,79-83,0,0,12,16,33,17s31-16,31-16"/><path class="cls-1" d="m110.51,303.49c-42.01,0-69.58-16.11-85.4-29.74C7.66,258.7.53,243.67.23,243.04c-.17-.37-.25-.77-.23-1.17,1.27-27.83,15.71-51.42,41.77-68.24,19.36-12.49,38.07-16.84,39.16-17.08.57-.13,1.15-.06,1.65.18,0,0,0,0,0,0,.09.05.18.1.27.15.26.16.48.38.67.63.56.72,11.98,15.07,31.1,15.98,19.16.91,28.32-14.09,28.73-14.77.23-.39.56-.71.96-.93.58-.32,1.27-.39,1.91-.2,24.41,7.26,56.88,22.29,72.99,52.6,9.72,18.29,8.83,33.34,8.79,33.97-.02.37-.13.72-.31,1.04-.33.59-8.2,14.61-26.39,28.88-16.73,13.13-45.7,28.88-88.76,29.41-.67,0-1.35.01-2.02.01ZM5.03,241.45c1.42,2.76,8.6,15.85,23.54,28.67,15.39,13.22,42.41,28.86,83.91,28.36,41.54-.51,69.45-15.61,85.54-28.19,15.6-12.19,23.45-24.45,25.01-27.03.05-2.79-.22-15.81-8.37-31-11.86-22.11-35.16-39.07-67.47-49.15l-30.29,102.58c-.31,1.06-1.28,1.78-2.38,1.79h-.02c-1.09,0-2.06-.71-2.39-1.76l-32.29-103.73c-5.52,1.52-20.47,6.22-35.47,15.92-24.71,15.99-37.94,37.36-39.33,63.54Zm81.83-73.67l27.58,88.59,25.52-86.45c-5.47,4.56-13.93,9.11-25.58,8.56-12.31-.59-21.62-5.97-27.52-10.7Z"/><path class="cls-1" d="m113,298.98c-.86,0-1.68-.44-2.14-1.21l-43-71c-.53-.87-.47-1.98.14-2.8l10.06-13.42-14.01-5.77c-.78-.32-1.35-1.01-1.5-1.84l-6.7-35.11c-.26-1.36.63-2.67,1.99-2.92,1.36-.26,2.67.63,2.92,1.99l6.45,33.79,15.75,6.49c.72.29,1.25.9,1.46,1.65s.05,1.54-.41,2.16l-10.99,14.65,37.75,62.33.74-23.56c.04-1.38,1.18-2.46,2.58-2.42,1.38.04,2.46,1.2,2.42,2.58l-1,32c-.03,1.11-.79,2.06-1.86,2.34-.21.06-.42.08-.63.08Z"/><path class="cls-1" d="m114,298.98c-.4,0-.81-.1-1.19-.3-1.21-.66-1.67-2.17-1.01-3.39l39.28-72.68-9.17-13.75c-.4-.61-.52-1.36-.33-2.06.2-.7.69-1.28,1.34-1.59l15.98-7.52,8.52-29.2c.39-1.33,1.78-2.08,3.1-1.7,1.33.39,2.09,1.77,1.7,3.1l-8.84,30.29c-.2.69-.69,1.26-1.34,1.56l-14.38,6.76,8.39,12.59c.51.77.56,1.76.12,2.58l-40,74c-.45.84-1.31,1.31-2.2,1.31Z"/><path class="cls-4" d="m159.5,91.98c-5.5,36.5-19.32,68.5-45,68.5s-40-32.5-46.5-71,19.82-45.5,45.5-45.5,51.84,9.23,46,48Z"/><path class="cls-1" d="m114.5,162.98c-31.87,0-44.36-45.79-48.97-73.08-2.54-15.06-.38-26.78,6.43-34.84,7.72-9.13,21.31-13.58,41.53-13.58,18.95,0,32.7,4.81,40.86,14.3,7.41,8.61,9.97,20.91,7.61,36.57l-2.47-.37,2.47.37c-6.86,45.54-23.72,70.63-47.47,70.63Zm-1-116.5c-18.66,0-31,3.86-37.71,11.8-5.82,6.88-7.61,17.24-5.32,30.78,4.35,25.74,15.84,68.92,44.03,68.92s39.52-46.42,42.53-66.37c2.13-14.15-.04-25.11-6.46-32.56-7.17-8.34-19.65-12.56-37.07-12.56Z"/><path class="cls-1" d="m85.29,164.57c-1.38,0-2.5-1.12-2.5-2.5v-20.45c0-1.38,1.12-2.5,2.5-2.5s2.5,1.12,2.5,2.5v20.45c0,1.38-1.12,2.5-2.5,2.5Z"/><path class="cls-1" d="m141.98,166.43c-1.38,0-2.5-1.12-2.5-2.5v-19.75c0-1.38,1.12-2.5,2.5-2.5s2.5,1.12,2.5,2.5v19.75c0,1.38-1.12,2.5-2.5,2.5Z"/><path class="cls-4" d="m160.57,95.16c1.57-.71,3.52-1.75,5.31-1.28,2.03.54,2.93,2.77,2.74,4.71-.21,2.1-1.29,4.05-2.22,5.9-2.17,4.31-7.89,16.49-10.95,11.09-.21-.7-.1-1.54.25-2.3"/><path class="cls-1" d="m157.27,119.44c-.99,0-2.73-.37-4.01-2.62-.09-.17-.17-.34-.22-.53-.37-1.26-.23-2.74.39-4.06.58-1.25,2.07-1.79,3.32-1.21,1.01.47,1.56,1.53,1.43,2.58,1.08-1.21,2.82-3.87,5.58-9.41l.69-1.37c.79-1.57,1.55-3.05,1.69-4.48.09-.85-.25-1.88-.88-2.04-.74-.2-2.09.43-3.16.93l-.47.22c-1.26.57-2.74.01-3.31-1.24-.57-1.26-.01-2.74,1.24-3.31l.44-.2c1.71-.79,4.05-1.88,6.54-1.22,3.41.9,4.89,4.39,4.59,7.38-.24,2.36-1.28,4.43-2.21,6.24l-.67,1.33c-4.07,8.17-7.15,12.92-10.85,13.02-.03,0-.07,0-.11,0Z"/><path class="cls-4" d="m66.4,95.16c-1.57-.71-3.52-1.75-5.31-1.28-2.03.54-2.93,2.77-2.74,4.71.21,2.1,1.29,4.05,2.22,5.9,2.17,4.31,7.89,16.49,10.95,11.09.21-.7.1-1.54-.25-2.3"/><path class="cls-1" d="m69.7,119.44s-.07,0-.11,0c-3.69-.1-6.77-4.85-10.85-13.02l-.67-1.33c-.92-1.82-1.97-3.88-2.21-6.24-.3-2.99,1.18-6.48,4.59-7.38,2.48-.65,4.83.43,6.54,1.22l.44.2c1.26.57,1.81,2.05,1.24,3.31-.57,1.26-2.05,1.81-3.31,1.24l-.47-.22c-1.08-.5-2.42-1.12-3.17-.93-.63.17-.97,1.19-.88,2.04.14,1.44.9,2.92,1.69,4.48l.69,1.37c2.76,5.54,4.49,8.2,5.58,9.41-.13-1.05.42-2.11,1.43-2.58,1.25-.58,2.74-.04,3.32,1.21.62,1.32.76,2.8.39,4.06-.05.18-.13.36-.22.53-1.28,2.26-3.02,2.62-4.01,2.62Z"/><path class="cls-4" d="m68.66,93.86c-.49,3.41-.37,6.9.05,10.31.4,3.22.81,6.72,2.11,9.71,1.9,4.37,7.29,6.25,11.56,7.24,3.28.76,6.66,1.11,10.03,1.22,1.91.06,3.81.05,5.72-.03,1.62-.07,4.07.18,5.54-.47,1.14-.5,2.09-2.21,2.88-3.14,1.08-1.26,2.09-2.66,3.27-3.82.25-.24.93-.85,2-1,1.66-.23,2.84.85,3,1,1.65,1.65,3.3,3.29,4.94,4.94,2.25,2.27,6.89,2.09,9.86,2.38,7.97.79,19.49,1.3,25.56-5.04.65-.68,1.21-1.45,1.63-2.29.41-.81.57-1.89,1-4,1.67-8.28,1.33-15.48,1-17-1.7-7.83-34.93-11.37-80-6-.59.07-9.31,1.16-10,5-.06.33-.11.65-.16.98Z"/><path class="cls-1" d="m137.7,125.16c-2.85,0-5.68-.2-8.33-.47-.52-.05-1.08-.09-1.68-.12-3.21-.2-7.2-.46-9.71-2.98-1.09-1.1-2.19-2.19-3.29-3.29l-1.65-1.65s0,0,0,0c0,0-.43-.36-.89-.3-.28.04-.49.21-.59.31-.69.67-1.33,1.47-2.02,2.32-.37.45-.73.9-1.1,1.34-.19.22-.38.49-.59.77-.78,1.07-1.75,2.4-3.19,3.03-1.59.7-3.5.69-5.18.67-.45,0-.88,0-1.26,0-2.02.08-4.01.1-5.91.03-3.92-.13-7.36-.55-10.51-1.28-7.12-1.65-11.46-4.49-13.29-8.68-1.42-3.26-1.87-6.94-2.27-10.18l-.03-.22c-.5-4.08-.52-7.66-.04-10.97h0c.05-.36.11-.71.17-1.07.96-5.33,9.56-6.74,12.17-7.04,21.37-2.55,41.53-3.24,56.76-1.96,16.1,1.36,24.83,4.69,25.97,9.91.46,2.12.66,9.83-.99,18.02l-.18.9c-.34,1.71-.54,2.74-1.04,3.73-.52,1.03-1.21,2-2.06,2.89-4.75,4.96-12.06,6.26-19.28,6.26Zm-25.41-13.81c2.23,0,3.78,1.28,4.24,1.71l1.7,1.7c1.1,1.1,2.2,2.2,3.3,3.3,1.17,1.18,4.24,1.38,6.48,1.52.66.04,1.29.08,1.86.14,8.26.82,18.39,1.07,23.51-4.28.5-.53.91-1.09,1.21-1.68.19-.38.35-1.2.6-2.45l.18-.92c1.62-8.03,1.25-14.86,1.01-15.98-.26-1.18-4.62-4.57-21.5-5.99-14.91-1.26-34.71-.57-55.76,1.94-4.13.48-7.66,2.01-7.84,2.96-.05.3-.1.59-.14.89h0c-.41,2.86-.4,6.02.05,9.65l.03.22c.38,3.05.77,6.21,1.89,8.8,1.15,2.63,4.36,4.53,9.83,5.8,2.83.66,5.95,1.04,9.54,1.16,1.77.06,3.63.05,5.53-.03.45-.02.97-.02,1.51-.01,1,0,2.52.02,3.13-.25.25-.16.85-.97,1.17-1.41.29-.4.57-.77.83-1.07.34-.4.68-.81,1.01-1.23.74-.92,1.51-1.87,2.4-2.74.93-.92,2.14-1.52,3.41-1.69.28-.04.56-.06.82-.06Zm-43.63-17.49h0,0Z"/><path class="cls-2" d="m157.5,75.98c-4.67-1.22-2.57-2.48-4.38-5.4-1.15-1.86-5.39-3.26-7.43-3.88-4.6-1.39-10.32-1.76-15.19-1.49-7.9.43-15.46.99-23.45,1-6.23,0-12.87.34-18.57-2.23-3.87-1.75-4.08-2.38-8.1-.11-7.09,4-13.34,9.06-19.9,13.83-1.94,1.41-3.92,3.84-6.25,4.45,1.35-6.63,3.84-11.62,9.27-15.16-6.61-2.88-16.78,3.13-22.96,5.47,1.84-3.48,4.25-7.66,7.69-9.92,3.66-2.4,7.8-2.28,11.56-3.96-2.61-3.72-6.9-6.32-11.1-7.67.03,0,1.87-1.43,2.1-1.55.86-.46,1.77-.79,2.67-1.15,4.69-1.86,9.29-4.53,14.48-2.96,2.51.76,3.35,2.24,3.57-.26.15-1.74.03-6.5-1-8-2.56-3.72-8.88-6.03-12.97-5.98,4.83-1.68,9.47-1.72,14.56-1.69,6.04.03,12.23.03,18.26.42,1.73.11,3.55.64,5.16.31-2.05-5.97-13.01-10.2-18.71-11.43,5.91-3.73,17.67,3.08,23.45,4.55-1.26-6.44-7.95-14.4-7.28-20.66,10.1,3.57,15.73,15.51,21.25,23.76.32-3.2,1.42-5.02,1.27-8.28-.1-2.23,1-8-.24-9.16,3.78,2.1,6.16,10.93,6,14.85l.33-.66c3.6-6.56,11.13-9.05,18.2-8.61-2.21,2.86-7.15,8.37-6.52,12.23,10.42-2.43,22.65-6.53,33-1.7-4.78,1.89-10.26,5.97-12.97,10.36,4.08-1.04,7.32-3.43,11.59-3.63,4.87-.23,11.59-.67,16.59,2.33-11,5-11.02,7.65-15.03,12.16,3.43-.71,13.03.84,14.03,5.84-4.18.91-15.31,6.13-16.21,10.52,1.86.89,5.03.39,7.14.68,4.31.6,10.14,1.22,13.58,4s4.49,10.81,4.39,10.69c-.9-1.12-5.61-2.88-7.9-2.88-3.28,0-7.96.43-11,1,2.23-.38,4,6,5.45,8.33,1.18,1.89-9.55-2.33-10.76-3.75-.97-1.15-1.82-3.55-7.69-4.58"/><path class="cls-1" d="m175.64,87.3c-1.11,0-2.85-.4-5.91-1.61-2.37-.93-5.41-2.3-6.44-3.51-.18-.21-.36-.46-.56-.73-.74-1.02-1.65-2.3-5.66-3-.07-.01-.13-.03-.2-.04-3.85-1-4.83-2.47-5.29-4.84-.11-.58-.2-1.04-.59-1.66-.03-.05-.81-1.22-6.03-2.8-3.86-1.17-9.09-1.67-14.34-1.39-1.67.09-3.33.19-4.97.28-6.29.37-12.24.71-18.6.72h-1.88c-5.94.05-12.09.09-17.72-2.45-.46-.21-.87-.4-1.24-.57q-2.17-1.02-4.61.36c-5.28,2.98-10.01,6.51-15.02,10.25-1.54,1.15-3.08,2.3-4.63,3.43-.51.37-1.08.87-1.67,1.4-1.52,1.35-3.24,2.88-5.41,3.45-.83.22-1.73,0-2.35-.6-.63-.59-.91-1.47-.73-2.31,1.1-5.42,2.93-9.55,5.73-12.77-3.78.56-8.16,2.49-11.67,4.04-1.58.7-3.07,1.36-4.42,1.87-.97.37-2.07.09-2.76-.69-.69-.78-.82-1.9-.33-2.82,2.21-4.18,4.78-8.38,8.52-10.84,2.5-1.64,5.16-2.27,7.5-2.82.33-.08.66-.16.98-.24-2-1.75-4.57-3.18-7.42-4.1-.01,0-.02,0-.03-.01-1.31-.43-2.02-1.84-1.59-3.15.19-.57.56-1.03,1.03-1.33.12-.09.35-.26.6-.45,1.17-.89,1.4-1.05,1.66-1.19.85-.46,1.69-.78,2.5-1.1l.44-.17c.73-.29,1.46-.6,2.19-.91,4.08-1.74,8.71-3.7,13.94-2.12.14.04.27.09.4.13-.04-1.84-.28-4-.63-4.6-1.95-2.83-7.34-4.92-10.87-4.88,0,0-.02,0-.03,0-1.21,0-2.25-.87-2.46-2.07-.21-1.21.48-2.39,1.64-2.79,5.41-1.89,10.71-1.86,15.4-1.83h1.63c5.41.04,10.99.07,16.45.4-3.6-2.85-9.56-5.22-13.91-6.15-.99-.21-1.76-1.01-1.94-2.01-.18-1,.27-2.01,1.13-2.55,5.4-3.41,13.51-.23,20.03,2.32.24.09.47.18.7.28-.51-1.11-1.08-2.27-1.67-3.45-2.22-4.44-4.51-9.04-4.04-13.41.08-.76.51-1.44,1.15-1.85s1.45-.5,2.17-.24c8.88,3.14,14.36,11.73,19.15,19.45.05-.47.06-.96.04-1.5-.04-.87.05-1.97.16-3.25.11-1.3.31-3.67.12-4.5-.67-.87-.7-2.09-.04-2.99.74-1.02,2.13-1.33,3.24-.71,3.2,1.78,5.34,6.44,6.43,10.72,4.2-3.87,10.3-5.88,17.03-5.46.92.06,1.74.62,2.12,1.46.38.84.27,1.83-.3,2.56-.29.38-.62.79-.99,1.25-1.15,1.45-3.13,3.92-4.24,6.09.05-.01.09-.02.14-.03,9.75-2.42,20.81-5.16,30.66-.57.91.42,1.47,1.34,1.44,2.34-.03,1-.65,1.88-1.58,2.25-1.36.54-2.73,1.24-4.05,2.07.53-.08,1.08-.14,1.64-.17l.52-.02c5.07-.24,12.01-.57,17.48,2.71.8.48,1.26,1.36,1.21,2.29-.05.93-.62,1.75-1.46,2.13-6.9,3.13-9.06,5.13-10.94,7.48,2.62.38,5.47,1.24,7.66,2.68,2.03,1.34,3.31,3.09,3.7,5.07.27,1.34-.59,2.64-1.92,2.93-4.24.92-9.38,3.83-12.2,6.15h0c.99,0,2.01,0,2.94.13l.89.12c4.53.61,10.17,1.38,13.92,4.4,3.94,3.17,5.61,11.66,5.26,13.19-.21.93-.95,1.67-1.88,1.88-.9.21-1.85-.1-2.45-.8-.79-.66-4.4-2-6.02-2.02-1.69,0-3.8.12-5.84.32.43.86.83,1.76,1.21,2.63.43.99.88,2.02,1.22,2.56.92,1.48.37,3-.64,3.74-.43.31-.92.57-1.8.57Zm-8.6-8.43c.66.52,2.69,1.45,4.63,2.21-.47-1.03-1.02-2.13-1.43-2.62-1.08-.11-2-.92-2.2-2.04-.24-1.35.65-2.65,2-2.9,3.2-.6,8.02-1.04,11.45-1.04,1.08,0,2.7.31,4.35.83-.57-1.69-1.37-3.37-2.4-4.19-2.67-2.15-7.54-2.81-11.46-3.34l-.9-.12c-.59-.08-1.4-.08-2.26-.08-1.84,0-3.92,0-5.62-.82-1.03-.5-1.6-1.63-1.37-2.76,1.01-4.94,9.33-9.33,14.7-11.37-.02-.01-.03-.02-.05-.03-2.83-1.88-7.77-2.36-9.51-2-1.06.22-2.13-.26-2.67-1.2-.54-.93-.42-2.11.3-2.91.82-.92,1.47-1.77,2.1-2.59,1.9-2.49,3.61-4.72,8.49-7.52-3.2-.56-6.66-.39-9.65-.25l-.52.02c-2.15.1-4.12.93-6.2,1.8-1.53.64-3.11,1.3-4.9,1.76-.99.25-2.03-.12-2.63-.94-.6-.82-.65-1.93-.11-2.79,2.06-3.34,5.32-6.27,8.63-8.44-6.93-1.17-14.53.71-21.93,2.55-1.37.34-2.72.67-4.04.98-.67.16-1.38.03-1.96-.36-.58-.39-.97-.99-1.08-1.68-.53-3.29,1.45-6.82,3.68-9.88-4.8.83-8.64,3.3-10.7,7.07l-.29.58c-.53,1.05-1.72,1.6-2.86,1.3-1.14-.29-1.92-1.35-1.87-2.52.05-1.3-.23-3.17-.75-5.09.01,1.96-.35,3.46-.7,4.92-.25,1.01-.48,1.96-.59,3.11-.1,1.05-.86,1.92-1.88,2.18s-2.1-.16-2.69-1.03c-1.04-1.56-2.06-3.2-3.14-4.93-3.6-5.8-7.58-12.22-12.92-15.84.69,2.07,1.81,4.33,2.91,6.54,1.53,3.07,3.11,6.24,3.7,9.26.17.84-.11,1.71-.73,2.3-.62.59-1.5.82-2.33.61-1.69-.43-3.77-1.24-5.97-2.11-.11-.04-.21-.08-.32-.13,2.09,1.68,3.76,3.64,4.53,5.88.23.68.16,1.43-.19,2.05-.36.62-.97,1.06-1.67,1.21-1.51.31-2.98.1-4.28-.09-.55-.08-1.06-.15-1.54-.18-5.41-.35-11.04-.38-16.48-.4h-1.64c-1.26-.02-2.45-.02-3.58,0,1.64,1.04,3.07,2.3,4.06,3.74,1.9,2.76,1.44,9.57,1.43,9.64-.06.73-.22,2.45-1.7,3.29-1.42.81-2.76.16-3.65-.26-.44-.21-.89-.43-1.44-.6-3.49-1.06-6.75.33-10.53,1.94-.77.33-1.53.65-2.3.96l-.13.05c3.13,1.72,5.78,3.99,7.59,6.56.43.61.56,1.38.36,2.1-.2.72-.71,1.31-1.39,1.62-1.78.8-3.57,1.22-5.29,1.63-2.13.51-4.15.98-5.91,2.14-.93.61-1.79,1.41-2.59,2.34,5.76-2.43,12.25-4.56,17.49-2.27.84.37,1.42,1.17,1.49,2.08.08.92-.36,1.8-1.13,2.3-2.61,1.7-4.53,3.82-5.94,6.66.03-.02.06-.04.08-.06,1.54-1.12,3.06-2.26,4.58-3.39,4.92-3.67,10-7.46,15.56-10.59,4.32-2.43,5.78-2.12,9.18-.53.35.16.74.34,1.17.54,4.63,2.09,10.23,2.05,15.64,2.02.64,0,1.28,0,1.91,0,6.23,0,12.1-.35,18.32-.71,1.65-.1,3.32-.19,4.99-.28,5.8-.31,11.65.27,16.05,1.6,4.84,1.46,7.65,3.04,8.84,4.95.87,1.4,1.1,2.57,1.25,3.34.03.13.06.29.08.41.15.09.55.28,1.47.53,5.47.98,7.39,3.09,8.75,4.99.09.12.17.24.25.34Zm20.41.55s.02.02.03.04c-.01-.01-.02-.02-.03-.04ZM113.55,10.64s0,0,0,0c0,0,0,0,0,0Z"/><path class="cls-3" d="m148.53,94.33c-9.24,10.39-9.66,10.72-14.4,16.15"/><path class="cls-1" d="m134.13,112.98c-.58,0-1.17-.2-1.64-.62-1.04-.91-1.15-2.49-.24-3.53,2.56-2.93,3.84-4.36,5.96-6.72,1.8-2,4.18-4.65,8.45-9.45.92-1.03,2.5-1.12,3.53-.21,1.03.92,1.12,2.5.21,3.53-4.28,4.81-6.67,7.47-8.47,9.47-2.1,2.34-3.38,3.75-5.91,6.66-.49.57-1.19.86-1.89.86Z"/><path class="cls-3" d="m139.19,95.16q-3.69,3.82-7.3,7.46"/><path class="cls-1" d="m131.89,105.13c-.64,0-1.27-.24-1.76-.72-.98-.97-.99-2.55-.02-3.54q3.6-3.63,7.28-7.44c.96-.99,2.54-1.02,3.54-.06.99.96,1.02,2.54.06,3.53q-3.7,3.83-7.32,7.49c-.49.49-1.13.74-1.78.74Z"/></g></svg>