<?xml version="1.0" encoding="UTF-8"?>
<svg id="Layer_2" data-name="Layer 2" xmlns="http://www.w3.org/2000/svg" viewBox="0 0 323.31 311.9">
  <defs>
    <style>
      .cls-1, .cls-2, .cls-3, .cls-4, .cls-5, .cls-6 {
        stroke: #3b65ee;
      }

      .cls-1, .cls-2, .cls-6 {
        fill: none;
      }

      .cls-1, .cls-3 {
        stroke-linecap: round;
      }

      .cls-1, .cls-3, .cls-4, .cls-5, .cls-6 {
        stroke-width: 2px;
      }

      .cls-1, .cls-3, .cls-4, .cls-6 {
        stroke-linejoin: round;
      }

      .cls-2, .cls-5 {
        stroke-miterlimit: 10;
      }

      .cls-3, .cls-4, .cls-5 {
        fill: #fff;
      }

      .cls-7, .cls-8 {
        fill: #3b65ee;
      }

      .cls-8 {
        opacity: .2;
      }
    </style>
  </defs>
  <g id="Layer_2-2" data-name="Layer 2">
    <g>
      <path class="cls-8" d="M54.65,296.69s146.71,29.28,248.36,6.59-209.36-17.5-248.36-6.59Z"/>
      <path class="cls-8" d="M249.41,283.43s18.06-28.93,22.73-18.71.94,20.77-1.08,23.83c0,0,13.14-16.09,21.78.22,0,0,15.02-6.72,23.47,1.82l-95.3.84s11.68-14.06,28.41-8.01Z"/>
      <path class="cls-3" d="M268.4,290.94s-10.35-4.38-9.73-22.99c0,0,15.73,13.72,9.73,22.99Z"/>
      <path class="cls-8" d="M278.23,288.73s8.69-9.85,10.86-9.27-6.52,9.89-6.52,9.89c0,0,4.96-4.34,6.21-2.79s-1.2,2.79-1.2,2.79c0,0,3.56-3.1,3.62,0,0,0,3.25-2.48,8.13,1.24l-27.4.32s4.44-2.8,6.3-2.18Z"/>
      <path class="cls-3" d="M268.61,291.53s6.21-10.55,15.51-7.45c0,0-1.86,8.07-15.51,7.45Z"/>
      <path class="cls-3" d="M268.61,291.53s8.48-21.1,16.76-21.1c1.86,0-16.76,21.1-16.76,21.1Z"/>
      <path class="cls-7" d="M286.39,290.91s1.76-4.57,7.04-4.93"/>
      <path class="cls-7" d="M288.35,290.52s2.91-3.95,8.09-2.9"/>
      <path class="cls-8" d="M66.9,292.42s-18.06-28.93-22.73-18.71-.94,20.77,1.08,23.83c0,0-13.14-16.09-21.78.22,0,0-15.02-6.72-23.47,1.82l95.3.84s-11.68-14.06-28.41-8.01Z"/>
      <path class="cls-5" d="M286.24,195.03c.09,7.94-7.09,21.06-7.09,21.06,2,19-8.35,41.41-8.35,41.41,1.65,21.41-7.65,33.59-7.65,33.59,0,0-19,11-102,14s-104-9-104-9c-9-10-11-32-11-32-12-12-13-36-13-36-6-7-6.67-18.66-6.67-18.66l.67-6.73,145.5-2.11,79.96-7.79,33.63-5.08v7.31Z"/>
      <path class="cls-8" d="M215.77,196.39l-43.12,4.2-19.63.28c-37.63,2.08-78.54,3.15-116.57,1.69l-9.29.13-.67,6.73s.13,2.23.77,5.33c3.13-.29,6.97-.97,11.69-2.17,0,0,17.23,9.5,35.94-1.5,0,0,18.71,11,41.35,2,0,0,22.65,9,43.32-1,0,0,20.5,7.22,35.85-2.89,0,0,21.26,8.89,37.01-2.11,0,0,23.67,8,36.94-5.5,0,0,10.11.79,16.4-2.36.31-1.49.49-2.92.47-4.21v-5.96c-9.41,1.17-35.68,4.3-70.47,7.32Z"/>
      <path class="cls-5" d="M13.65,196.6s-14,20,22,11c0,0,17.5,9.5,36.5-1.5,0,0,19,11,42,2,0,0,23,9,44-1,0,0,20.82,7.22,36.41-2.89,0,0,21.59,8.89,37.59-2.11,0,0,24.04,8,37.52-5.5,0,0,25.98,2,20.98-13,0,0-158.5,20.5-277,13Z"/>
      <path class="cls-7" d="M40.15,229.1s129,10,231-10c0,0-86,27-231,10Z"/>
      <path class="cls-7" d="M51.65,262.6s124,11,209-6c0,0-68,23-209,6Z"/>
      <path class="cls-7" d="M65.65,213.6s-2.7,9.66,2.65,16.33"/>
      <path class="cls-7" d="M69.65,235.6s-3,15,4.65,26.33"/>
      <path class="cls-7" d="M76.67,270.79s-1.86,15.18,6.62,25.9"/>
      <path class="cls-7" d="M115.22,213.6s-1.57,9,1.43,15"/>
      <path class="cls-7" d="M117.65,238.6s-2.32,13.26,2.84,24.13"/>
      <path class="cls-7" d="M120.49,273.11s-2.84,18.49,3.16,25.49"/>
      <g>
        <line class="cls-7" x1="157.39" y1="211.82" x2="158.52" y2="228.6"/>
        <path class="cls-7" d="M157.39,211.82c1.06,5.54,1.44,11.14,1.13,16.78-1.06-5.54-1.44-11.14-1.13-16.78h0Z"/>
      </g>
      <g>
        <line class="cls-7" x1="158.65" y1="239.6" x2="159.65" y2="262.6"/>
        <path class="cls-7" d="M158.65,239.6c1.7,7.53,2.05,15.35,1,23-1.71-7.53-2.04-15.35-1-23h0Z"/>
      </g>
      <path class="cls-7" d="M161.15,273.6c1.37,8.6,1.38,17.4,0,26-1.38-8.6-1.37-17.4,0-26h0Z"/>
      <path class="cls-7" d="M201.65,210.6s2,8-1,14"/>
      <path class="cls-7" d="M198.65,236.6s1,17-1,24"/>
      <path class="cls-7" d="M195.98,273.11s2.68,11.49-1.32,21.49"/>
      <path class="cls-7" d="M235.65,208.6s1,9-2,14"/>
      <path class="cls-7" d="M232.65,233.6s2,15-4,24"/>
      <path class="cls-7" d="M226.61,270.79s1.04,15.81-3.96,20.81"/>
      <path class="cls-7" d="M257.25,265.71s1.58,12.71-3.24,16.96"/>
      <path class="cls-7" d="M271.15,205.2s1.5,7.39-1.5,11.39"/>
      <path class="cls-7" d="M263.44,232.6s2.78,10.38-2.78,16"/>
      <path class="cls-7" d="M36.65,215.6s-1,6,2,10"/>
      <path class="cls-7" d="M42.19,238.6s.89,14,5.18,18"/>
      <path class="cls-7" d="M52.65,272.6s0,12,4,16"/>
      <path class="cls-1" d="M290.65,182.6s-200.02,25.44-277,13"/>
      <path class="cls-4" d="M37.57,197.71S-8.35,16.6,150.65,1.6c22.98-2.17,66,0,99,34,0,0-41.57-25.86-95-21C99.65,19.6,20.9,57.27,44.78,197.93l-7.2-.23Z"/>
      <path class="cls-6" d="M227.65,25.6s58.48,52.06,36,160l10-1s21-115-31-155l-15-4Z"/>
      <path class="cls-8" d="M227.65,25.6s58.48,52.06,36,160l10-1s21-115-31-155l-15-4Z"/>
      <path class="cls-8" d="M248.76,52.08c-10.5-18-21.11-26.48-21.11-26.48l15,4c8.93,6.87,17.9,19.81,23,30l-16.89-7.52Z"/>
      <g>
        <path class="cls-4" d="M58.65,60.6S31.65,17.6,23.65,34.6s1.03,26,1.03,26c0,0-27.03,10-20.03,22s43.5-3.52,43.5-3.52c0,0,10.47,26.65,26.48,22.59s5.02-18.07,5.02-18.07c0,0,27-9,23-21s-29-10-44-2Z"/>
        <path class="cls-7" d="M22.65,55.6s4,7,8,10c0,0-6-2-9-8-3-6,1-2,1-2Z"/>
        <path class="cls-7" d="M82.65,81.6s-6,2-13,2c0,0,9,2,13,0v-2Z"/>
        <path class="cls-2" d="M59.49,72.65c-1.55,3.24-4.65,4.34-7.89,2.79s-4.34-4.65-2.79-7.89,4.65-4.34,7.89-2.79,4.34,4.65,2.79,7.89Z"/>
        <path class="cls-7" d="M50.65,64.6s-2.5-5.5-6.5-8.5c0,0,5.05,8.55,5.02,10.78l1.48-2.28Z"/>
        <path class="cls-7" d="M47.73,70.26s-6.01-.63-10.62,1.3c0,0,9.93-.02,11.83,1.13l-1.21-2.43Z"/>
        <path class="cls-7" d="M60.19,68.13s4.46-2.54,10.46-.54c0,0-8.93.13-10.46,2.56v-2.03Z"/>
        <path class="cls-7" d="M58.59,74.09s4.06,2.51,5.06,6.51c0,0-4.56-4.74-6.28-5.37l1.22-1.14Z"/>
        <path class="cls-8" d="M49.65,68.6s-1.52,2.98,2.24,5.49,6.76-1.49,6.76-2.49-.06-4-4.03-3-3.97-2-4.97,0Z"/>
        <path class="cls-8" d="M47.65,69.6s-35-6-39,7,26,9,40,2c0,0,10,23,19.87,23.19,8.13.15-4.67-25.57-10.27-27.38,0,0-3.12,3.18-7.6.19-3-2-3-5-3-5Z"/>
        <path class="cls-8" d="M60.19,70.16s9.25-2.67,19.46-.56,5.57,9.38-1.22,9.69c-6.78.31-18.94-6.64-18.94-6.64l.69-2.49Z"/>
        <path class="cls-8" d="M48.65,66.87s-15-19.98-18-20.13-4.93,2.24-3.46,7.55,3.39,12.36,20.93,14.83l.53-2.25Z"/>
        <path class="cls-5" d="M35.42,83.6s-21.76,20.99-25.76,40.99l7-4,3,9s17.96-45,21.48-48l-5.71,2.01Z"/>
        <path class="cls-5" d="M49.35,81.77s-10.7,56.82-2.7,71.82l2.7-8.73,7.3,4.73s-4.7-54.99-3.85-61.5l-3.45-6.33Z"/>
        <polygon class="cls-8" points="25.86 94.27 36.46 89.99 40.18 82.83 34.55 84.47 25.86 94.27"/>
        <path class="cls-8" d="M47.55,92.49s2.99,6.69,5.55,8.9l-.45-13.8-3-4-2.1,8.9Z"/>
      </g>
      <path class="cls-5" d="M51.65,296.69s-13.08-36.86-19.04-30.98,19.04,30.98,19.04,30.98Z"/>
      <path class="cls-5" d="M49.55,299.6s-12.22-13-13.06-8,13.06,8,13.06,8Z"/>
    </g>
  </g>
</svg>