<?xml version="1.0" encoding="UTF-8"?><svg id="Layer_2" xmlns="http://www.w3.org/2000/svg" viewBox="0 0 154.15 71.13"><defs><style>.cls-1{fill:#f9d953;}.cls-2{fill:#f9e8a0;}.cls-3{fill:#fff6ae;}.cls-4{fill:#ffea5a;}</style></defs><g id="Layer_1-2"><path class="cls-3" d="m114.4,45.11c9.94,1.44,23.97,7.27,32.55.72,14.8-11.3-2.49-20.71-14.17-20.52-14.02.23-21.85,9.59-28-4.96-2.51-5.93,4.69-5.93-2.85-13.19-3.14-3.02-18.35-6.28-22.59-5.56-11.79,2.01-18.19,17.53-30.04,19.54-10.42,1.77-17.62-4.22-28.78,1.23-10.83,5.28-17.33,16.66-5.15,25.7,11.03,8.18,22.69-6.2,36.34-3.02s17.71,15.32,33.49,15.98c6.88.28,10.82,1.44,16.95-3.04,5.64-4.12,5.34-10.77,12.25-11.55"/><path class="cls-3" d="m114,46.56c6.95,1.03,13.67,3.37,20.72,3.77,3.26.18,6.64-.09,9.68-1.34s6.02-3.71,7.96-6.53c1.47-2.14,2.19-4.77,1.55-7.33-.6-2.4-2.28-4.38-4.18-5.88-4.48-3.54-10.57-5.34-16.24-5.43s-10.82,1.72-16.25,2.81c-1.83.37-3.81.63-5.6-.05-2.11-.8-3.48-2.8-4.49-4.71-.61-1.13-1.33-2.42-1.42-3.74-.06-.85.22-1.58.54-2.39.78-1.96.96-3.72-.04-5.66-2.58-5-7.76-6.74-12.83-8.08-2.79-.74-5.64-1.31-8.5-1.68-2.12-.28-4.28-.51-6.39-.09-5.82,1.17-10.38,5.43-14.52,9.4s-8.42,8.54-14.18,9.87c-6.94,1.6-13.82-1.38-20.78-.95s-13.89,4.04-18.19,9.45c-3.78,4.76-4.82,10.99-1.29,16.22,1.9,2.82,4.71,5.36,7.85,6.72,2.62,1.14,5.42,1.35,8.23.95,5.99-.85,11.37-3.99,17.25-5.28,3.1-.68,6.22-.74,9.3.08,2.9.78,5.58,2.09,8.09,3.71,4.68,3.03,8.74,6.97,13.81,9.38,2.93,1.39,6.01,2.24,9.23,2.58s6.87.66,10.2.44,6.63-1.49,9.42-3.55c2.48-1.83,4.1-4.27,5.72-6.85,1.41-2.24,2.98-4.14,5.77-4.5.81-.11,1.49-.61,1.5-1.5,0-.73-.7-1.6-1.5-1.5-2.83.37-5.1,1.56-6.87,3.83s-2.82,4.71-4.75,6.69c-2.19,2.25-5.27,3.88-8.4,4.29s-6.43-.06-9.57-.24c-5.93-.33-10.97-2.82-15.68-6.29-4.46-3.28-8.68-6.78-13.95-8.7-6-2.19-11.92-1.45-17.85.58-4.98,1.71-10.41,4.62-15.83,3.94-3.06-.39-5.65-2.19-7.76-4.36-1.98-2.03-3.45-4.61-3.46-7.5-.02-5.77,5.07-10.3,9.72-12.86,3.25-1.78,6.78-2.79,10.49-2.8,3.31,0,6.57.68,9.84,1.1s6.78.55,10.1-.18c2.67-.59,5.17-1.87,7.4-3.45,4.74-3.35,8.48-7.84,12.96-11.49,2.09-1.7,4.43-3.22,7.03-4.01,1.92-.58,3.65-.56,5.86-.32,4.99.54,10.35,1.66,14.94,3.73,2.12.96,3.92,2.49,5,4.69.74,1.51,0,2.5-.53,4.08-.82,2.46-.02,4.71,1.08,6.95s2.57,4.42,4.67,5.85c3.64,2.47,8.19,1.35,12.13.36,5.23-1.33,10.56-2.61,15.98-1.71,4.64.78,10.56,2.71,13.24,6.92,3.11,4.89-2.4,10.2-6.63,12.07-6.02,2.66-13.37.84-19.48-.53-3.08-.69-6.15-1.45-9.27-1.91-1.89-.28-2.7,2.61-.8,2.89h0Z"/><ellipse class="cls-2" cx="138.78" cy="45.87" rx="15" ry="11.5"/><ellipse class="cls-2" cx="96.28" cy="51.87" rx="18.5" ry="12.5"/><ellipse class="cls-1" cx="103.59" cy="29.17" rx="16.69" ry="11.8"/><ellipse class="cls-1" cx="44.66" cy="60.15" rx="15.87" ry="10.99"/><ellipse class="cls-1" cx="60.73" cy="36.05" rx="15.06" ry="10.17"/><path class="cls-3" d="m135.81,38.16l.45,6.53c.13,1.91-.86,3.77-2.69,5.41-3.37,3.04-9.59,5.33-16.82,5.82-7.23.49-13.7-.93-17.45-3.48-2.03-1.38-3.27-3.09-3.4-5l-.45-6.53c.08,1.15.55,2.22,1.36,3.19,3.02,3.65,10.69,5.89,19.49,5.29,8.8-.6,16.1-3.86,18.59-7.89.67-1.07.99-2.2.91-3.34Z"/><path class="cls-4" d="m134.31,38.16c.15,2.16.36,4.33.44,6.5.18,4.38-5.66,6.91-9.09,8.05-5.21,1.73-10.93,2.23-16.37,1.54-2.31-.29-4.66-.83-6.8-1.76-1.89-.82-4.11-2.09-4.88-4.12-.42-1.12-.33-2.52-.41-3.69-.09-1.25-.17-2.5-.26-3.75h-3c.75,7.02,9.62,9.23,15.4,9.85,7.33.79,15.69-.28,22.1-4.13,3.04-1.83,5.95-4.67,5.86-8.48-.05-1.93-3.05-1.93-3,0,.09,3.43-3.59,5.63-6.3,6.91-3.63,1.72-7.72,2.55-11.71,2.82s-8.27.01-12.21-1.2c-2.66-.82-6.8-2.54-7.15-5.78-.2-1.88-3.13-1.95-3,0,.17,2.49.08,5.15.59,7.59,1.08,5.12,7.47,7.4,11.97,8.3,5.98,1.19,12.37.91,18.25-.7,4.6-1.26,10.4-3.67,12.42-8.38.75-1.74.55-3.41.43-5.23-.1-1.45-.2-2.9-.3-4.35-.13-1.92-3.13-1.93-3,0Z"/><path class="cls-3" d="m135.81,38.16c.08,1.15-.25,2.27-.91,3.34-2.49,4.03-9.79,7.29-18.59,7.89-8.8.6-16.47-1.64-19.49-5.29-.81-.97-1.28-2.04-1.36-3.19-.07-1,.17-1.99.68-2.93,2.24-4.21,9.73-7.68,18.82-8.3,9.1-.62,16.98,1.79,19.78,5.66.63.87,1,1.81,1.07,2.81Z"/><path class="cls-4" d="m134.31,38.16c.07,2.65-2.16,4.53-4.23,5.81-2.51,1.54-5.34,2.49-8.2,3.13-6.24,1.39-13.39,1.43-19.41-.97-2.05-.82-4.64-2.22-5.36-4.48-.8-2.5,1.42-4.73,3.29-6.02,5.16-3.55,11.98-4.64,18.12-4.53,3.48.06,7.02.56,10.27,1.85,2.23.89,5.24,2.54,5.52,5.21.2,1.9,3.21,1.92,3,0-.74-6.95-9.47-9.18-15.2-9.83-7.38-.84-15.83.22-22.29,4.11-2.46,1.48-5,3.67-5.68,6.59-.81,3.49,1.33,6.45,4.12,8.28,6.14,4.05,14.72,4.21,21.73,3.17,3.97-.59,8.01-1.76,11.47-3.85,3.04-1.83,5.95-4.67,5.86-8.48-.05-1.93-3.05-1.93-3,0Z"/><path class="cls-3" d="m54.12,33.76c.04.44.02.86-.05,1.28v.03c-.32,2.02-1.73,3.95-3.97,5.71-4.49,3.53-12.29,6.23-21.33,6.99s-17.17-.61-22.18-3.34c-2.5-1.37-4.22-3.03-4.87-4.97-.14-.4-.23-.84-.27-1.29-.55-6.52,10.8-12.79,25.34-14.01,14.55-1.22,26.79,3.07,27.33,9.59Z"/><path class="cls-4" d="m52.62,33.76c.16,3.69-3.67,6.32-6.71,7.93-3.66,1.94-7.71,3.11-11.77,3.87-4.82.9-9.79,1.15-14.67.75-3.88-.32-7.94-1.07-11.45-2.81-2.77-1.37-6.15-3.95-4.75-7.44,1-2.5,3.56-4.23,5.81-5.49,7.51-4.22,16.89-5.46,25.38-5.03,4.27.22,8.76.89,12.68,2.71,2.23,1.03,5.21,2.79,5.49,5.52.2,1.9,3.2,1.92,3,0-.78-7.58-10.77-10.01-16.92-10.84-9.77-1.31-20.56-.11-29.5,4.2-3.12,1.5-6.39,3.62-8.15,6.69-1.93,3.37-1.1,7.22,1.76,9.8,3.29,2.97,7.9,4.37,12.18,5.12,5.29.92,10.73.97,16.06.31s10.87-1.97,15.78-4.45c4.14-2.08,9.02-5.67,8.8-10.83-.08-1.92-3.08-1.93-3,0Z"/><path class="cls-3" d="m54.08,35.07l.8,9.59c-.94,6.02-11.73,11.56-25.3,12.7-13.56,1.14-25.12-2.53-27.05-8.31l-.8-9.59c.65,1.94,2.37,3.61,4.87,4.97,5.01,2.73,13.15,4.1,22.18,3.34s16.84-3.46,21.33-6.99c2.24-1.76,3.66-3.7,3.97-5.71Z"/><path class="cls-4" d="m52.58,35.07c.26,3.15.77,6.36.8,9.52,0,.23.06-.35,0-.02-.04.24-.11.47-.19.7-.15.43-.37.83-.61,1.21-.6.96-1.42,1.77-2.29,2.49-2.27,1.89-5.07,3.19-7.83,4.18-7.3,2.61-15.36,3.44-23.06,2.66-3.26-.33-6.59-1-9.62-2.28-2.01-.85-4.22-2.07-5.38-4-.13-.21-.25-.44-.35-.67,0,0,.02.29-.03.09-.06-.25-.05-.55-.07-.8l-.27-3.27c-.15-1.8-.3-3.61-.45-5.41l-2.95.4c1.37,3.73,4.97,5.85,8.52,7.21,3.87,1.48,8.08,2.11,12.2,2.34,8.78.47,18.27-.9,26.14-4.97,3.57-1.85,7.6-4.75,8.39-8.97.35-1.89-2.54-2.7-2.89-.8-.61,3.24-3.7,5.37-6.42,6.86-3.11,1.7-6.52,2.81-9.97,3.59-7.75,1.77-16.29,2.06-23.99-.07-3.25-.9-7.81-2.52-9.08-5.98-.54-1.47-3.1-1.41-2.95.4.14,1.68.28,3.36.42,5.04s.02,3.56.5,5.14c.74,2.4,2.98,4.24,5.07,5.45,2.89,1.67,6.2,2.63,9.47,3.21,8.22,1.45,16.99.9,25-1.43,5.43-1.58,12.57-4.39,15.06-9.96.88-1.97.52-3.74.34-5.82s-.34-4.02-.51-6.02-3.16-1.93-3,0Z"/><path class="cls-3" d="m95.62,9.24c.04.33.03.64-.03.95v.02c-.24,1.51-1.45,3-3.37,4.39-3.85,2.8-10.59,5.12-18.45,6.06s-14.94.26-19.34-1.55c-2.19-.91-3.72-2.07-4.31-3.48-.13-.29-.21-.61-.25-.94-.57-4.81,9.2-9.92,21.83-11.42s23.34,1.17,23.91,5.97Z"/><path class="cls-4" d="m94.12,9.24c.14,2.89-3.68,4.93-6.13,6.1-3.19,1.53-6.67,2.49-10.13,3.17-4.12.81-8.34,1.17-12.54,1.05-3.3-.1-6.67-.49-9.79-1.63-1.96-.72-5.01-2.33-3.93-4.69.92-2.01,3.27-3.32,5.14-4.28,6.64-3.43,14.68-4.64,22.08-4.61,3.62.01,7.32.34,10.77,1.51,1.86.63,4.28,1.7,4.59,3.78.28,1.9,3.17,1.09,2.89-.8-.36-2.46-2.62-4.14-4.74-5.1-3.2-1.46-6.75-2.02-10.23-2.27-8.67-.61-18.07.73-25.97,4.46-2.58,1.22-5.34,2.87-6.87,5.36s-.86,5.58,1.51,7.45c2.96,2.34,7,3.11,10.65,3.54,4.69.55,9.46.32,14.12-.35s9.34-1.85,13.64-3.85c3.49-1.63,8.13-4.45,7.93-8.84-.09-1.92-3.09-1.93-3,0Z"/><path class="cls-3" d="m95.6,10.21l.84,7.07c-.73,4.5-10.03,9.05-21.82,10.45-11.77,1.4-21.88-.83-23.65-5.03l-.84-7.07c.59,1.41,2.12,2.57,4.31,3.48,4.4,1.81,11.5,2.49,19.34,1.55s14.6-3.26,18.45-6.06c1.92-1.4,3.13-2.89,3.37-4.39Z"/><path class="cls-4" d="m94.1,10.21c.15,1.26.3,2.52.45,3.78l.28,2.32c.03.23.06.47.08.7.05.46.17-.13-.02.31-1.55,3.69-6.54,5.51-10.06,6.67-6.09,2.01-12.63,2.87-19.04,2.62-2.68-.1-5.36-.41-7.95-1.14-1.69-.48-3.6-1.13-4.84-2.43-.21-.22-.36-.57-.58-.78-.36-.33.06.82.02.17-.06-.8-.19-1.61-.29-2.41-.17-1.46-.35-2.93-.52-4.39l-2.8.76c1.35,2.89,4.84,4.24,7.73,5.01,3.4.91,6.99,1.2,10.5,1.19,7.58-.02,15.56-1.35,22.44-4.65,3.05-1.46,6.8-3.75,7.54-7.32.39-1.88-2.5-2.69-2.89-.8-.68,3.3-5.27,5.26-8.08,6.36-3.93,1.54-8.11,2.48-12.29,2.99s-8.78.65-13.1.01c-2.99-.44-7.83-1.24-9.26-4.3-.61-1.31-2.97-.71-2.8.76s.35,2.93.52,4.39c.16,1.34.13,2.92.87,4.08,2.56,4,8.71,4.9,12.98,5.32,6.88.69,14.05-.07,20.7-1.95,4.64-1.31,10.56-3.37,13.32-7.67,1-1.56.89-2.79.69-4.51s-.4-3.39-.61-5.09c-.23-1.89-3.23-1.92-3,0Z"/><path class="cls-3" d="m90.78,49.13v6.82c0,3.12-1.43,5.98-3.83,8.26-3.31,3.14-8.47,5.16-14.25,5.16s-10.94-2.02-14.25-5.16c-2.4-2.27-3.83-5.14-3.83-8.26v-6.82c0,1.18.21,2.32.59,3.41,2.03,5.76,9.1,10.01,17.5,10.01s15.47-4.25,17.5-10.01c.38-1.09.59-2.23.59-3.41Z"/><path class="cls-4" d="m89.28,49.13c0,2.26.03,4.52,0,6.77-.07,4.78-3.75,8.32-7.87,10.18-4.84,2.19-10.62,2.34-15.63.69-4.38-1.44-8.94-4.78-9.6-9.67-.35-2.59-.07-5.37-.07-7.98h-3c.16,7.3,6.44,12.29,13.02,14.07,7.09,1.91,15.37.71,21.11-4.05,3.03-2.51,4.97-6.05,5.05-10.02.04-1.93-2.96-1.93-3,0-.18,8.16-9.64,11.92-16.59,11.92s-16.41-3.76-16.59-11.92c-.04-1.93-3-1.94-3,0,0,2.57-.2,5.22.05,7.78.55,5.7,4.95,9.93,10.01,12.07,5.38,2.27,11.7,2.51,17.25.69,5.07-1.67,10.01-5.29,11.46-10.67.84-3.11.41-6.69.41-9.87,0-1.93-3-1.93-3,0Z"/><path class="cls-3" d="m90.78,49.13c0,1.18-.21,2.32-.59,3.41-2.03,5.76-9.1,10.01-17.5,10.01s-15.47-4.25-17.5-10.01c-.38-1.09-.59-2.23-.59-3.41,0-3,1.33-5.78,3.58-8.01,3.3-3.28,8.57-5.4,14.51-5.4s11.21,2.12,14.51,5.4c2.25,2.24,3.58,5.01,3.58,8.01Z"/><path class="cls-4" d="m89.28,49.13c-.13,5.78-5.34,9.6-10.45,11.08-5.63,1.62-12.1,1-17.1-2.15-2.08-1.31-3.93-3.16-4.91-5.45-1.27-2.98-.75-6.27,1.1-8.88,3.59-5.08,10.59-6.87,16.5-6.46,6.49.45,14.73,4.4,14.87,11.86.04,1.93,3.04,1.93,3,0-.15-7.73-7.19-12.86-14.18-14.34s-15.63-.06-20.98,5.27c-2.67,2.66-4.35,6.35-3.96,10.17.34,3.26,1.99,6.19,4.38,8.39,5.25,4.83,13.01,6.25,19.87,5,7.25-1.32,14.69-6.48,14.86-14.48.04-1.93-2.96-1.93-3,0Z"/></g></svg>