<?xml version="1.0" encoding="UTF-8"?><svg id="Layer_1" xmlns="http://www.w3.org/2000/svg" viewBox="0 0 500 600"><defs><style>.cls-1{fill:#f3f6ff;}.cls-2{fill:#fff;}.cls-3,.cls-4{fill:#80a4fb;}.cls-5{fill:#c5d4fe;}.cls-6{fill:#2b67f8;}.cls-7{fill:#5586f9;}.cls-4{opacity:.55;}</style></defs><path class="cls-2" d="m223.27,132.93c.42,1.77.75,3.55,1,5.35l-.27-1.99c1.13,8.62.54,17.33.88,25.99.19,4.72.65,9.5,1.7,14.11.93,4.08,2.82,7.81,3.38,11.97l-.27-1.99c.78,6.46-.08,13.17-.92,19.59l.27-1.99c-.82,5.88-2.54,11.76-2.24,17.74.15,3.02.78,5.87,1.86,8.68.89,2.3,1.86,4.56,2.23,7.02l-.27-1.99c.19,1.52.16,3.01-.04,4.53l.27-1.99c-.52,3.41-1.83,6.6-3.04,9.81-1.39,3.69-2.44,7.4-2.61,11.38h15c.03-1.3.14-2.58.31-3.87l-.27,1.99c1.15-8,4.47-15.49,5.65-23.48,1.32-9.01.42-17.99.36-27.05-.03-5.33-1.25-10.55-1.97-15.8l.27,1.99c-.28-2.11-.51-4.2-.23-6.32l-.27,1.99c.69-4.78,1.9-9.64-.88-14.05-1.62-2.57-4.43-3.99-7.47-3.58s-5.22,2.5-6.24,5.37c-6.12,17.3-2.25,35.87-3.28,53.72-.21,3.7-.41,7.4-.9,11.07l.27-1.99c-.47,3.45-1.17,6.88-2.5,10.11l.76-1.79c-.34.79-.71,1.57-1.14,2.32-.16.27-.32.54-.49.8-.4.61-1.41,1.48.27-.27-.23.24-.49.52-.69.78-.53.7,1.86-1.27,1.02-.78-.41.24-.8.49-1.22.71-3.28,1.78-6.44,3.78-7.96,7.37-1.3,3.09-1.02,6.05.37,9.06,1.2,2.62,3.66,4.19,6.29,5.1,3.01,1.05,6.29.85,9.42,1.23l-1.99-.27.15.02v-14.46c-3.77,1.07-7.62,1.82-11.26,3.31-2.92,1.2-5.4,2.5-7.83,4.55s-3.83,4.46-4.96,7.22c-2.23,5.46-.93,11.57,1.28,16.79,1.74,4.11,4,8.02,6.52,11.7s5.55,7.5,7.4,11.79l-.76-1.79c.49,1.18.87,2.38,1.07,3.64l-.27-1.99c.1.77.12,1.52.03,2.29l.27-1.99c-.09.55-.24,1.06-.44,1.57l.76-1.79c-.29.67-.63,1.32-1.03,1.93-.12.19-.25.37-.38.55.81-1.02,1.03-1.3.66-.85-.26.3-.51.61-.78.9-.23.25-.47.49-.72.72-.56.52-1.75,1.06.25-.12-.61.36-1.16.77-1.81,1.06l1.79-.76c-.41.17-.82.3-1.25.38l1.99-.27c-.16.03-.32.04-.48.05l7.23,9.49c2.6-7.45,3.91-15.82,1.89-23.57-1.11-4.24-3.38-8.26-6.5-11.35-2.13-2.1-4.49-3.64-7.28-4.68-1.86-.69-3.86-.91-5.7-1.67l1.79.76c-.32-.15-.63-.3-.93-.48-.66-.41-.81-.95.49.42-.39-.42-.87-.77-1.27-1.19-.11-.11-1.45-1.7-1.47-1.69.05-.03,1.24,1.65.35.44-.23-.31-.45-.63-.67-.95-1.62-2.35-3.12-4.86-4.25-7.48l.76,1.79c-1.29-3.15-1.99-6.45-2.45-9.81l.27,1.99c-.66-5.03-.94-10.13-2.02-15.1-.54-2.45-1.56-4.79-2.81-6.97-.99-1.72-2.12-3.35-2.91-5.17l.76,1.79c-.21-.54-.38-1.08-.49-1.65l.27,1.99c-.07-.62-.07-1.22,0-1.84l-.27,1.99c.17-1.2.53-2.33.99-3.44l-.76,1.79c.65-1.5,1.43-2.93,2.24-4.35l-13.71-5.78c-3.17,10.47-4.74,27.07,8.55,31.06,3.87,1.16,8.18-1.39,9.23-5.24,1.83-6.77.8-13.7.77-20.58-.02-3.92-3.44-7.68-7.5-7.5s-7.42,3.29-7.5,7.5c-.09,4.62.42,9.32,1.01,13.89.86,6.63,1.75,13.86,5.16,19.76,2.07,3.58,5.56,6.47,9.86,6.54s8.06-2.45,10.21-6.07c1.97-3.31,2.57-7.14,3.01-10.89.4-3.37.43-6.77.31-10.16-.13-3.75-.46-7.5-.96-11.22-.4-3.06-.73-6.25-1.62-9.22s-3.91-5.65-7.23-5.51-6.46,2.21-7.23,5.51c-1.52,6.51-2,13.4-2.06,20.08-.03,3.66.11,7.33.55,10.96.46,3.82,1,7.7,2.34,11.33,1.64,4.45,3.93,8.26,7.92,10.97,3.34,2.27,8.34.64,10.26-2.69,3.89-6.74,3.53-15.16,3.49-22.68s.55-15.29,1.53-22.82l-.27,1.99c.75-5.59,1.9-11.14,4.1-16.36l-.76,1.79.16-.37c-4.66-1.26-9.32-2.52-13.98-3.79.7,9.01-.66,17.98-1.53,26.93-.93,9.53-1.11,19.23,1.52,28.53,1.02,3.6,4.56,5.87,8.23,5.37,3.45-.46,6.78-3.63,6.5-7.37-.48-6.46-1.87-12.77-3.47-19.03-1.43-5.61-3.01-11.22-3.81-16.97l.27,1.99c-.88-6.69-.79-13.46-1.19-20.19-.46-7.69-1.52-15.16-4.69-22.23-.69-1.54-2.88-3.08-4.48-3.45-1.87-.43-4.15-.4-5.78.76-2.77,1.96-4.4,4.36-5.54,7.54-.82,2.3-1.07,4.86-1.19,7.28-.23,4.74.5,9.5,2.41,13.83l11.78-9.09c1.46,1.82.52.62.26.01l.76,1.79c-.15-.42-.26-.84-.33-1.28l.27,1.99c-.09-.8-.06-1.56.04-2.36l-.27,1.99c.23-1.54.68-3.03.98-4.55.56-2.78.63-4.92.19-7.7-.37-2.37-2.94-4.78-5.24-5.24-2.54-.51-4.62-.51-7.15-.02-3.86.75-6.41,5.6-5.24,9.23,1.32,4.1,3.52,7.84,5.22,11.78l-.76-1.79c.68,1.63,1.27,3.28,1.54,5.03l-.27-1.99c.06.46.1.92.11,1.38l7.5-7.5c-.28-.02-.56-.05-.84-.09l1.99.27c-1.33-.22-2.58-.62-3.81-1.14l1.79.76c-3.55-1.54-6.94-3.45-10.8-4.12-4.13-.72-8.29-.68-12.44-1.19l1.99.27c-2.19-.3-4.26-.87-6.3-1.73l1.79.76c-3.82-1.66-7.27-4-10.9-6.02-4.62-2.58-9.35-4.31-14.63-4.81-1.19-.11-2.78.43-3.79,1.02-1.41.83-2.44,2.1-3.07,3.59-1.09,2.59-.71,6.25,1.55,8.19,3.1,2.66,5.75,5.78,8.67,8.63,3.25,3.18,6.95,5.9,10.91,8.13,6.67,3.75,13.87,6.36,20.7,9.76.79.39,1.57.82,2.32,1.29.37.23.71.52,1.09.74.58.35-.97-.63-.87-.67.06-.02.55.47.62.54.33.3.65.62.94.95.11.13.22.26.34.38.86.97-.84-1.23-.43-.55.56.93,1.1,1.8,1.54,2.8l-.76-1.79c.87,2.1,1.38,4.31,1.69,6.56l-.27-1.99c.57,4.58.32,9.21-.14,13.79l11.29-6.48c-1.27-.86,1.61,1.4.28.22-.35-.31-.67-.63-.99-.97s-.57-.67-.85-1c1.79,2.13.52.66.13.06-1.19-1.82-2.14-3.78-2.99-5.78l.76,1.79c-2.42-5.84-3.9-12-5.36-18.14s-3.47-11.94-5.14-17.93c-1.13-4.04-2.12-8.13-2.7-12.28l.27,1.99c-.41-3.1-.6-6.24-.19-9.36l-.27,1.99c.21-1.41.54-2.78,1.06-4.11l-11.02,4.48c.94.62-1.22-1.11-.75-.6.15.17.35.31.51.48.23.24.82,1-.03-.1s-.22-.28-.07-.04c.58.88,1.04,1.83,1.46,2.8l-.76-1.79c1.14,2.75,1.84,5.64,2.88,8.42,1.64,4.37,3.66,8.62,5.47,12.91l-.76-1.79c4.91,11.64,9.16,23.47,12.54,35.65s5.94,24.41,7.9,36.82c1.12,7.08,2.36,14.13,3.32,21.23l-.27-1.99c.48,3.57.64,7.1.8,10.69.2,4.54.94,8.79,3.01,12.87,1.34,2.65,4.69,3.95,7.47,3.58s5.46-2.48,6.24-5.37c2.91-10.78,3.27-22.21,3.11-33.31s-.8-22.14-1.1-33.21c-.34-12.55-.55-25.1-.67-37.65s.14-24.46-1.45-36.6c-.93-7.1-2.07-14.24-4.39-21.03-2.07-6.04-4.71-11.93-5.57-18.3l.27,1.99c-.2-1.64-.17-3.28.03-4.91l-.27,1.99c.25-1.85.71-3.65,1.43-5.37l-.76,1.79c.31-.71.65-1.41,1.05-2.08.2-.33.42-.64.63-.96.68-1.01-1.39,1.57-.38.52.23-.24.44-.48.68-.71.54-.52,1.61-1.02-.45.27.65-.4,1.25-.81,1.95-1.12l-1.79.76c.83-.34,1.68-.57,2.56-.7l-1.99.27.31-.04-7.23-5.51c.31,1.1.54,2.21.7,3.35l-.27-1.99c.65,4.9.16,9.85-.5,14.72l.27-1.99c-.56,4.08-1.22,8.14-1.72,12.22-.44,3.69-.61,7.41-.78,11.12-.38,8.42-.21,16.93,1.62,25.2l13.71-5.78c-.19-.39-.36-.79-.53-1.19l.76,1.79c-1.14-2.81-1.78-5.77-2.19-8.77l.27,1.99c-1.01-7.87-.49-15.83-.47-23.73,0-3.38-.25-6.71-.46-10.08-.2-3.12-.26-6.25-.62-9.35-.93-8.2-3.35-17.01-11.68-20.52-6.5-2.74-14.1-2.17-20.87-.8-7.27,1.46-15.57,4.7-19.61,11.33l8.47-3.45c-.49-.19-.99-.36-1.48-.57l1.79.76c-.27-.12-.52-.26-.76-.42l-7.57,12.95c2.02.95,4.14,1.69,6.2,2.56l-1.79-.76c1.49.63,2.97,1.3,4.35,2.15s-1.57-1.47-.49-.38c.33.33.69.81,1.06,1.09-.78-1.05-.95-1.27-.51-.66.13.19.26.39.38.59.24.4.44.81.63,1.22l-.76-1.79c.44,1.05.73,2.14.9,3.27l-.27-1.99c.26,1.99.15,3.98-.1,5.96l.27-1.99c-.56,4.12-1.54,8.18-2.37,12.25-.96,4.72-1.88,9.44-2.57,14.21-.76,5.26-1.38,10.55-1.46,15.87s.93,10.15,1.63,15.23l-.27-1.99c.23,1.76.38,3.51.32,5.28,3.16-2.41,6.33-4.82,9.49-7.23-.59-.17-1.17-.36-1.74-.59l1.79.76c-.85-.37-1.6-.86-2.4-1.32-.94-.54,1.54,1.31.75.58-.15-.14-.31-.26-.46-.4-.33-.3-.64-.61-.94-.94-.14-.15-.26-.31-.39-.46-.78-.88.69.83.65.85-.08.03-.76-1.13-.81-1.23-.48-.79-.88-1.62-1.24-2.47l.76,1.79c-.99-2.41-1.57-4.96-1.92-7.54l.27,1.99c-.77-5.9-.41-11.91.38-17.79l-.27,1.99c1.96-14.37,7.76-27.61,12.3-41.27,1.18-3.55-1.08-7.47-4.34-8.85-3.53-1.49-7.29-.09-9.37,3.07-12.09,18.42-12.26,41.87-11.69,63.11.15,5.61.37,11.22.42,16.83.04,3.92,3.42,7.68,7.5,7.5s7.23-3.3,7.5-7.5c.09-1.5.24-3,.44-4.5l-.27,1.99c1.24-9.12,4.12-17.88,6.86-26.63,2.4-7.66,4.38-15.44,6.73-23.12,1.34-4.39,2.81-8.73,4.59-12.96l-.76,1.79c1.97-4.64,4.3-9.13,7.32-13.19-4.66-1.26-9.32-2.52-13.98-3.79-.16,2.99-.47,5.96-.86,8.93l.27-1.99c-.95,6.97-2.37,13.86-3.61,20.77s-1.93,13.18-2.82,19.8l.27-1.99c-.89,6.59-1.9,13.21-1.98,19.88s.79,13.7,4.12,19.66c1.46,2.62,4.58,3.97,7.47,3.58,3.03-.41,5.27-2.49,6.24-5.37,2.91-8.73,2.84-18.26,2.88-27.37.02-4.26.08-8.51.45-12.76.43-4.91,1.07-9.8,1.54-14.7.54-5.6.85-11.23.41-16.85-.3-3.75-2.63-6.85-6.5-7.37-3.44-.46-7.51,1.7-8.23,5.37-2.12,10.93-2.46,22.09-1.83,33.18.3,5.2.8,10.38,1.41,15.55s1.2,10.48,2.11,15.67c1.03,5.87,2.62,11.54,5.21,16.93,1.37,2.85,5.52,4.4,8.47,3.45,3.17-1.02,5.49-3.82,5.51-7.23.11-18.45-.31-36.91-.1-55.36.06-5.29.18-10.58.37-15.87.13-3.73-2.96-6.89-6.5-7.37-3.35-.45-7.63,1.68-8.23,5.37-1.94,12.02-3.22,24.16-3.07,36.35.06,4.77.38,9.54.55,14.3s.42,9.29,1.04,13.91c.7,5.17,1.77,10.56,4.68,15,1.76,2.69,5.22,4.5,8.47,3.45s5.47-3.82,5.51-7.23c.16-17.41,1.57-34.78,2.07-52.17.14-4.96.2-9.92.15-14.88-.04-3.74-2.82-6.87-6.5-7.37-3.46-.47-7.48,1.7-8.23,5.37-2.97,14.62-2.97,29.5-2.08,44.33.57,9.48.71,19.04,2.82,28.35,1.23,5.41,3.32,11.19,7.45,15.1,2.21,2.1,5.37,2.74,8.19,1.55s4.52-3.82,4.61-6.85c.29-9.25-.23-18.49-.22-27.74,0-4.04.09-8.08.09-12.12s.07-7.79.58-11.66l-.27,1.99c.37-2.62.95-5.19,1.95-7.65l-.76,1.79.15-.35c-4.66-1.26-9.32-2.52-13.98-3.79,1.52,12.31,1.05,24.74.85,37.11-.1,6.18-.14,12.36.17,18.54s1,12.69,1.78,19c.88,7.13,1.9,14.25,2.71,21.39,4.91-.66,9.82-1.33,14.73-1.99-.15-.92-.28-1.85-.41-2.77l.27,1.99c-1-7.46-1.57-15.17-.58-22.66l-.27,1.99c.32-2.31.8-4.6,1.69-6.76l-.76,1.79c.35-.82.77-1.57,1.24-2.32.55-.9-.68.89-.73.92.11-.06.32-.38.41-.47.51-.55,1.87-1.54-.47.23l-11.02-4.48c.48,1.7.82,3.42,1.06,5.16l-.27-1.99c.95,7.61.01,15.29-.76,22.87-.32,3.16-.6,6.32-.64,9.5s-.03,6.41-.44,9.6l.27-1.99c-.23,1.61-.56,3.2-1.17,4.71l.76-1.79c-.23.53-.49,1.03-.8,1.51,4.57.6,9.14,1.19,13.71,1.79-.17-.82-.31-1.64-.42-2.47l.27,1.99c-.38-3.09-.39-6.2.01-9.29l-.27,1.99c.31-2.16.83-4.27,1.65-6.29l-.76,1.79c.34-.78.71-1.54,1.15-2.27-4.57-.6-9.14-1.19-13.71-1.79.16.62.28,1.23.38,1.86l-.27-1.99c.26,2.14.14,4.27-.14,6.4l.27-1.99c-.77,5.36-2.38,10.56-3.27,15.9s-1.66,10.98-3.8,16.11l.76-1.79c-.32.73-.66,1.44-1.03,2.15-1.84,3.46-.99,8.32,2.69,10.26,3.47,1.83,8.3,1.01,10.26-2.69,3.86-7.27,4.63-15.25,6.13-23.2s4.68-16.53,2.48-25c-.75-2.88-3.36-4.99-6.24-5.37s-5.94.97-7.47,3.58c-4.54,7.74-4.91,17.5-3.15,26.1.59,2.88,3.49,5,6.24,5.37,3.03.41,5.83-1.01,7.47-3.58,2.23-3.48,2.84-7.73,3.19-11.76.28-3.25.19-6.52.29-9.78.23-7.63,1.66-15.17,1.75-22.82.06-4.94-.36-10.01-1.72-14.77-.65-2.26-2.2-3.96-4.34-4.86-1.99-.84-4.83-1.02-6.67.38s-3.04,2.53-4.4,4.44c-.98,1.37-1.6,2.93-2.22,4.49-1.18,2.94-1.6,6.1-1.98,9.22-.69,5.71-.44,11.54.1,17.25.31,3.21.72,6.41,1.23,9.6.27,1.67,1.99,3.71,3.45,4.48s3.08,1.12,4.78.89c3.34-.45,6.93-3.66,6.5-7.37-1.44-12.67-3.53-25.27-4.35-38s-.08-24.83-.08-37.24c0-6.95-.23-13.9-1.08-20.81-.21-1.72-.52-3.13-1.61-4.54-.96-1.24-2.33-2.33-3.9-2.69-1.32-.3-2.67-.3-3.99,0-1.57.36-3.83,1.91-4.48,3.45-.87,2.04-1.69,4.05-2.2,6.22-.54,2.3-.84,4.66-1.09,7-.38,3.6-.41,7.23-.4,10.85,0,8.13-.07,16.25.11,24.38.1,4.95.17,9.91.02,14.86l12.8-5.3c-.36-.34-.68-.71-1.01-1.08-.43-.47,1.32,1.9.53.67-.13-.21-.27-.41-.41-.61-.6-.96-1.1-1.99-1.54-3.03l.76,1.79c-1.64-4-2.45-8.29-3.03-12.56l.27,1.99c-.74-5.61-1.01-11.26-1.27-16.9-.37-7.8-.86-15.57-.68-23.38.12-5.02.47-10.03,1.13-15l-.27,1.99c.33-2.37.72-4.72,1.2-7.06-4.91-.66-9.82-1.33-14.73-1.99.2,17.4-1.13,34.76-1.82,52.14-.2,4.97-.34,9.94-.39,14.91,4.66-1.26,9.32-2.52,13.98-3.79-.58-.89-1.07-1.83-1.49-2.81l.76,1.79c-1.24-3-1.87-6.2-2.31-9.4l.27,1.99c-.77-5.89-.81-11.82-1.09-17.74-.37-7.84-.51-15.63.02-23.47.31-4.57.8-9.13,1.41-13.67l-.27,1.99c.3-2.24.64-4.47,1-6.69-4.91-.66-9.82-1.33-14.73-1.99-.66,18.45-.37,36.92-.28,55.38.03,5.28.04,10.57,0,15.85,4.66-1.26,9.32-2.52,13.98-3.79-.28-.59-.55-1.18-.81-1.78l.76,1.79c-2.51-6.04-3.63-12.55-4.51-19l.27,1.99c-2.18-16.35-3.87-33.08-1.69-49.52l-.27,1.99c.24-1.76.53-3.5.87-5.24-4.91-.66-9.82-1.33-14.73-1.99.68,8.58-.42,17.14-1.35,25.66-.42,3.87-.82,7.74-.94,11.63s-.08,7.52-.13,11.27c-.05,4.31-.19,8.62-.74,12.9l.27-1.99c-.38,2.79-.95,5.55-1.84,8.22,4.57-.6,9.14-1.19,13.71-1.79-.36-.65-.68-1.3-.97-1.98l.76,1.79c-.9-2.18-1.42-4.47-1.75-6.8l.27,1.99c-.99-7.73.08-15.58,1.11-23.25l-.27,1.99c.54-4.03,1-8.07,1.54-12.1l-.27,1.99c1.87-13.74,5.5-27.22,6.26-41.11.17-3.14-2.44-6.53-5.51-7.23-1.32-.3-2.67-.3-3.99,0-1.99.45-3.33,1.9-4.48,3.45-6.6,8.86-10.26,19.77-13.36,30.27-1.43,4.86-2.73,9.77-4.15,14.63-1.71,5.84-3.66,11.61-5.34,17.45-2.05,7.13-3.63,14.41-4.1,21.83h15c-.16-15.98-1.51-32.02.58-47.93l-.27,1.99c.91-6.71,2.44-13.34,5.06-19.6l-.76,1.79c1.28-3,2.8-5.89,4.59-8.62l-13.71-5.78c-4.46,13.42-10.19,26.45-12.2,40.56-1.51,10.62-2.13,21.75,2.21,31.82,2.54,5.89,7.57,10.38,13.76,12.11,4.83,1.35,9.33-2.41,9.49-7.23s-.99-9.4-1.62-14.06l.27,1.99c-.79-6.25-.16-12.69.67-18.9l-.27,1.99c1.19-8.66,3.27-17.14,4.8-25.75.79-4.48,1.28-8.95.18-13.43s-4.16-8.73-8.2-11.17c-3.08-1.86-6.58-2.97-9.88-4.35l1.79.76c-.11-.05-.23-.1-.34-.15-1.86-.88-3.73-1.32-5.78-.76-1.74.48-3.63,1.82-4.48,3.45-1.93,3.65-.89,8.07,2.69,10.26,1.25.77,2.67,1.22,4.03,1.75,1.51.59,3.47.22,4.88-.38,1.51-.64,2.72-1.64,3.59-3.07.44-.71,1.23-1.28-.49.54.22-.23.41-.48.63-.7s.48-.45.73-.68c1.08-1-1.68,1.15-.41.31,1.39-.92,2.82-1.7,4.36-2.36l-1.79.76c3.38-1.42,6.96-2.31,10.59-2.8l-1.99.27c2.98-.38,6-.5,8.99-.11l-1.99-.27c1.37.2,2.73.5,4.01,1.03l-1.79-.76c.42.19.84.39,1.23.64.65.4.99,1.14-.56-.47.22.23.47.42.69.65.49.51.94,1.45-.38-.58.18.27.37.53.54.8.38.61.69,1.25.98,1.91l-.76-1.79c.92,2.21,1.41,4.55,1.74,6.91l-.27-1.99c.42,3.16.53,6.35.7,9.54s.49,6.48.51,9.75c.05,7.9-.54,15.84.32,23.72.58,5.3,1.61,10.19,3.9,15.03.73,1.55,2.84,3.07,4.48,3.45s3.29.29,4.88-.38c3.53-1.49,5.16-5.15,4.34-8.85-.35-1.58-.63-3.18-.85-4.78l.27,1.99c-.7-5.35-.77-10.76-.59-16.15.17-5,.41-10.02,1.07-14.98l-.27,1.99c1.37-10.08,3.86-20.64,1.04-30.71-.44-1.58-1.4-2.9-2.69-3.9-1.2-.92-2.98-1.79-4.54-1.61-2.84.33-5.43.89-7.91,2.4-2.35,1.44-4.06,3.25-5.68,5.43-2.24,3.02-3.61,6.83-4.13,10.54-.29,2.09-.56,4.15-.37,6.27.25,2.79.76,5.57,1.52,8.27,1.32,4.74,3.3,9.26,4.81,13.94,1.82,5.6,2.84,11.48,3.64,17.31l-.27-1.99c1.15,8.65,1.35,17.32,1.41,26.03s.16,18.02.31,27.04c.28,16.87,1,33.71,1.47,50.57.24,8.78.23,17.61-.92,26.34l.27-1.99c-.43,3.13-1.01,6.23-1.83,9.27,4.57-.6,9.14-1.19,13.71-1.79-.2-.39-.38-.78-.55-1.17l.76,1.79c-.58-1.46-.93-2.95-1.15-4.5l.27,1.99c-.45-3.56-.25-7.16-.65-10.72-.52-4.62-1.22-9.24-1.95-13.83-1.26-7.97-2.48-15.96-3.99-23.89-3-15.79-7.09-31.44-12.62-46.54-3.33-9.08-7.23-17.94-11.02-26.83l.76,1.79c-1.14-2.73-1.8-5.63-2.86-8.39-1.65-4.28-3.7-8.04-7.63-10.62-1.98-1.3-4.57-1.26-6.67-.38-2.29.97-3.45,2.6-4.34,4.86-2.32,5.86-1.65,12.6-.69,18.66s2.6,11.52,4.31,17.16c1.34,4.39,2.62,8.77,3.68,13.23,1.18,4.94,2.42,9.89,4.2,14.66,2.41,6.45,5.51,12.79,11.38,16.75,2.18,1.47,5.37,1.29,7.57,0,2.46-1.44,3.44-3.77,3.71-6.48.6-5.89.7-11.75-.41-17.6-1.23-6.48-4.68-11.9-10.08-15.65-1.8-1.25-3.81-2.16-5.81-3.03-2.26-.98-4.49-2-6.72-3.03-5.11-2.36-10.32-4.62-14.99-7.8-.52-.36-2.53-2.02-.7-.45-.6-.51-1.21-.99-1.8-1.52-1.17-1.05-2.29-2.17-3.38-3.3-2.24-2.31-4.41-4.69-6.85-6.79l-5.3,12.8c.26.02.52.05.78.08l-1.99-.27c2.02.28,3.95.84,5.83,1.61l-1.79-.76c4.88,2.07,9.14,5.3,13.92,7.57,1.63.78,3.31,1.51,5.03,2.08,2.03.68,4.16.96,6.28,1.22,3.17.39,6.37.37,9.54.78l-1.99-.27c1.93.28,3.78.76,5.58,1.51l-1.79-.76c2.06.89,4.05,1.89,6.12,2.75s4.29,1.28,6.64,1.5c1.74.16,4.14-.93,5.3-2.2,1.33-1.44,2.25-3.29,2.2-5.3-.18-6.66-3.87-12.2-6.38-18.15l.76,1.79c-.28-.67-.53-1.35-.75-2.04l-5.24,9.23.32-.06-1.99.27c.74-.09,1.45-.1,2.19-.02l-1.99-.27c.22.03.44.06.65.11l-5.24-5.24.05.32-.27-1.99c.08.79.04,1.56-.06,2.35l.27-1.99c-.42,2.67-1.21,5.22-1.48,7.92-.15,1.48.01,3.06.36,4.49.54,2.21,1.69,3.87,3.08,5.61,1.08,1.35,3.64,2.27,5.3,2.2s3.2-.57,4.54-1.61c1.24-.96,2.33-2.33,2.69-3.9.48-2.09.1-3.83-.76-5.78l-.08-.17.76,1.79c-.59-1.43-.88-2.96-1.09-4.49l.27,1.99c-.31-2.48-.35-4.98-.04-7.46l-.27,1.99c.18-1.26.45-2.49.92-3.67l-.76,1.79c.2-.47.46-.89.7-1.34.35-.66-1.52,1.66-.65.85.52-.48,1.24-.88-.84.59l-10.26-2.69c.1.22.2.45.3.67l-.76-1.79c1.43,3.43,2.22,7.05,2.72,10.72l-.27-1.99c.94,7.13.83,14.33,1.29,21.49.53,8.29,2.45,16.23,4.5,24.25,1.17,4.57,2.29,9.15,2.94,13.82l-.27-1.99c.16,1.22.29,2.44.38,3.67,4.91-.66,9.82-1.33,14.73-1.99-.63-2.22-1.09-4.46-1.41-6.75l.27,1.99c-2.03-15.62,2.89-31.09,1.68-46.72-.25-3.2-2.14-6.47-5.51-7.23-1.32-.3-2.67-.3-3.99,0-1.58.36-3.82,1.91-4.48,3.45-1.68,3.88-3.03,7.79-3.91,11.94s-1.43,8.43-1.85,12.67c-.67,6.64-1.09,13.3-1.05,19.98.02,3.62.03,7.25-.43,10.84l.27-1.99c-.26,1.9-.66,3.78-1.4,5.55l.76-1.79c-.19.43-.41.85-.64,1.26l10.26-2.69c-1.11-.76,1.53,1.33.79.62-.18-.17-.37-.33-.55-.51s-.34-.38-.52-.57c-.71-.76,1.35,1.91.56.73-.65-.98-1.2-1.99-1.67-3.07l.76,1.79c-1.25-3.01-1.91-6.24-2.35-9.46l.27,1.99c-1.08-8.22-.85-16.71.25-24.91l-.27,1.99c.23-1.68.5-3.35.88-5h-14.46c.69,2.3,1.01,4.73,1.34,7.11l-.27-1.99c.97,7.22,1.54,14.73.6,21.98l.27-1.99c-.25,1.85-.62,3.71-1.33,5.44l.76-1.79c-.16.38-.34.75-.54,1.11-.62,1.06-.61.53.49-.54-.12.12-.24.25-.35.38-.46.51-1.25.37,1.08-.81-.29.15-.55.34-.85.47l1.79-.76c-.28.11-.57.19-.87.23l1.99-.27c-.24.02-.47.02-.7,0l1.99.27c-.27-.04-.52-.11-.78-.22l1.79.76c-.16-.08-.31-.19-.48-.26-.76-.33,1.59,1.42,1.01.79-.76-.84-.95-1.44.23.45-.55-.87-1.04-1.73-1.45-2.68l.76,1.79c-1.8-4.32-2.57-9.08-3.19-13.69l.27,1.99c-.63-4.73-1.17-9.6-1.08-14.39h-15c.02,5.3.75,10.62.05,15.9l.27-1.99c-.13.91-.31,1.8-.55,2.69l9.23-5.24c-.24-.07-.48-.15-.71-.24l1.79.76c-.36-.16-.69-.39-1.05-.55-.39-.27-.26-.16.39.32.63.5.76.6.4.3-.13-.14-.27-.27-.4-.4-.9-.85,1.22,1.85.35.43-.23-.37-.41-.75-.59-1.15l.76,1.79c-.41-1.02-.66-2.08-.82-3.17l.27,1.99c-.3-2.41-.16-4.84.16-7.24l-.27,1.99c.36-2.52.91-5.01,1.65-7.45,1.09-3.59-1.01-7.44-4.34-8.85s-7.51-.2-9.37,3.07c-2.69,4.74-5.09,9.83-3.98,15.41.82,4.11,3.76,7.3,5.39,11.05l-.76-1.79c.91,2.26,1.25,4.73,1.57,7.13l-.27-1.99c.6,4.57.89,9.18,1.74,13.71s2.47,8.61,4.72,12.49c1.96,3.39,4.24,6.9,7.14,9.55,2.05,1.87,4.13,3.13,6.78,3.98,1.67.53,3.41.79,5.05,1.44l-1.79-.76c.48.21.91.47,1.36.72.64.46.44.29-.61-.49.19.15.38.31.56.47.62.54,1.2,1.13,1.74,1.75,1.21,1.42-.79-1.21-.13-.17.18.28.37.55.55.84.46.75.85,1.54,1.19,2.35l-.76-1.79c.66,1.63,1.09,3.33,1.34,5.07l-.27-1.99c.32,2.58.25,5.18-.09,7.75l.27-1.99c-.44,3.15-1.25,6.23-2.3,9.24-1.54,4.42,2.56,9.81,7.23,9.49s8.81-2.88,11.72-6.49c1.68-2.09,2.95-4.05,3.85-6.59.76-2.14.74-4.38.44-6.58-.98-7.31-5.9-12.96-9.82-18.9-2.12-3.22-4.16-6.58-5.69-10.13l.76,1.79c-.77-1.84-1.37-3.73-1.65-5.7l.27,1.99c-.14-1.18-.16-2.34-.01-3.52l-.27,1.99c.15-.93.4-1.82.77-2.69l-.76,1.79c.18-.39.38-.78.6-1.15.11-.18.22-.35.34-.52.44-.6.23-.34-.61.79.51-.49,1.02-1.01,1.53-1.51-1.67,1.66-.9.67-.27.25.26-.17.53-.34.81-.5.74-.43,1.52-.8,2.31-1.14l-1.79.76c3.67-1.54,7.59-2.29,11.41-3.37,3.05-.87,5.65-3.95,5.51-7.23-.06-1.33-.4-2.61-1.02-3.79-.76-1.43-2.82-3.2-4.48-3.45-2.34-.34-4.68-.4-7.02-.69l1.99.27c-.99-.13-1.97-.31-2.89-.7l1.79.76c-.77-.37-1.08-1.01.62.6-.61-.58,1.25,2.09.6.57l.76,1.79c-.09-.24-.15-.47-.2-.72l.27,1.99c-.04-.3-.05-.58-.02-.88l-.27,1.99c.05-.28.12-.53.23-.79l-.76,1.79c.09-.18.24-.36.31-.55-.66,1.68-1.27,1.46-.68.93.14-.13.28-.26.42-.39.77-.76-1.57,1.1-.86.66.76-.48,1.51-.94,2.3-1.37.65-.35,1.31-.68,1.93-1.09,1.82-1.2,2.78-2.38,4.08-4.1,3.12-4.17,4.61-9.54,5.4-14.62,1.78-11.41,1.58-22.88,1.23-34.38-.21-7.02-.31-14.07.6-21.04l-.27,1.99c.51-3.67,1.31-7.28,2.54-10.77-4.57.6-9.14,1.19-13.71,1.79.13.19.24.38.34.59l-.76-1.79c.18.42.3.84.39,1.29l-.27-1.99c.13.98.07,1.94-.04,2.92l.27-1.99c-.27,1.95-.65,3.89-.87,5.85-.17,1.53-.05,3.05.12,4.58.42,3.88,1.18,7.7,1.72,11.57l-.27-1.99c.66,4.99.49,10.09.68,15.12s.33,10.09-.3,15.1l.27-1.99c-1.39,10.1-6.02,19.46-6.29,29.77-.1,3.92,3.52,7.68,7.5,7.5,4.2-.19,7.33-3.3,7.5-7.5.03-.61.08-1.22.16-1.82l-.27,1.99c.87-5.85,4.14-11,5.13-16.81.7-4.09.7-8.07-.59-12.07-.98-3.06-2.48-5.91-2.97-9.12l.27,1.99c-.3-2.45-.16-4.91.15-7.35l-.27,1.99c.65-4.74,1.7-9.39,2.2-14.15.42-3.97.91-7.95.95-11.94.05-4.31-.33-8.89-1.88-12.94-1.39-3.65-2.36-7.33-2.89-11.21l.27,1.99c-1.74-13.55.47-27.33-2.75-40.74-.92-3.82-5.46-6.46-9.23-5.24-3.97,1.29-6.22,5.14-5.24,9.23h0Z"/><path class="cls-2" d="m347.97,156.98c-1.09.71-2.14,1.49-3.18,2.28-1.19.9-1.88,2.27-1.23,3.75.55,1.25,2.13,2.29,3.54,1.74,2.09-.82,3.82-1.97,5.58-3.35,1.4-1.1,2.71-2.2,4.31-3.02h-3.03c.34.21.24.13-.29-.24l-.77-2.92v.03c.69-.7,1.39-1.4,2.09-2.1,1.11-.24,1.57-.07,2.41.64l.88,2.12v-.03c-.73.96-1.47,1.93-2.2,2.89-.65.25-.77.05-.14.1l-2.12-5.12c-3.21,3.31-7.43,5.43-10.75,8.75-1.78,1.78-3.09,3.82-3.76,6.26s-.79,5-1.57,7.42l5.89.8c.04-.33.12-.77.25-1.4.14-.66.31-1.32.5-1.98.4-1.38.87-2.75,1.43-4.07,1.02-2.38,2.29-4.69,3.87-6.75.9-1.17.3-3.07-.77-3.87-1.18-.88-2.86-.85-3.94.23-2.22,2.23-4.25,4.68-6.07,7.24-1.95,2.75-4.1,6.22-3.99,9.73.12,3.88,3.4,6.93,7.32,6.2,3.13-.58,5.71-3.31,7.23-5.96,1.99-3.48,2.63-7.88-.19-11.09-.86-.98-2.56-1.13-3.64-.47-2.03,1.24-3.6,3.41-4.78,5.43-1.38,2.34-2.58,5.3-1.82,8.05.86,3.06,4.39,4.72,7.28,3.48,2.59-1.11,4.01-3.95,4.74-6.53s1.13-6.26-.45-8.76c-.96-1.52-3.4-2.14-4.71-.61-1.45,1.7-2.57,3.89-3.17,6.03-.86,3.03.17,6.68,3.87,6.79,3.49.11,5.71-2.54,6.57-5.66.73-2.65.96-6.11-.93-8.33l-4.24,4.24c.79.69,1.47,1.36,1.88,2.34.18.44.31,1.27.21,1.91s-.41,1.42-.89,2.19c-.55.88-1.35,1.66-2.2,2.39-1.95,1.67-.4,5.26,2.12,5.12,5.52-.3,8.07-7.37,7.76-12.12l-5.59,1.51c-.19-.4.09.34.12.43.07.36.08.37.01.03v.27c-.02.36,0,.35.04,0l-.05.26c-.08.25-.14.51-.24.76.24-.57-.11.14-.18.26-.14.24-.3.48-.46.71-.37.54.15-.15-.25.31-.23.27-.46.53-.69.78-1.65,1.79-3.61,3.42-4.8,5.58-.71,1.3-.44,3.44,1.08,4.1.98.43,1.84,1.02,2.89,1.32.95.27,2.26.03,2.92-.77.85-1.03,1.45-2.11,1.3-3.49-.16-1.48-.85-2.33-2.2-2.89-3.55-1.47-10.54-4.48-13.25-.19-1.53,2.42-.75,5.29,1.65,6.77,1.86,1.15,4.32,1.47,6.46,1.46,2.26-.01,4.23-.46,5.9-2.03s2.47-3.7,2.09-5.95c-.58-3.37-3.61-5.83-5.89-8.13-.64-.64-1.21-1.35-1.83-2-.04-.04.33.49,0-.01-.1-.16-.21-.32-.31-.48-.09-.15-.16-.33-.26-.48-.22-.32.22.69.03.03-.02-.06-.03-.14-.06-.2-.13-.29-.11-.05-.01.06.23.26-.07.22.01-.14.1-.44-.12.8-.03.19.08-.53.19-.12-.08.11.07-.06.26-.38.28-.47.07-.29-.43.36-.15.21.09-.05.17-.2.25-.27.18-.15.34-.32.52-.47-.53.44.14-.07.34-.19,3.26-2.06.38-7.01-3.03-5.18-11.67,6.27-20.53,17.28-27.91,28.01-1.8,2.61,1.63,5.42,4.1,4.1,5.99-3.19,11.32-7.61,16.46-12,2.57-2.2-.81-6.63-3.64-4.71-14,9.51-26.56,20.99-38.06,33.37l4.71,3.64c3.28-4.58,8.6-7.66,12.95-11.18,5.09-4.12,9.6-8.81,15.13-12.4l-4.1-4.1c-1.77,2.57-4.54,4.5-7.1,6.32-2.94,2.09-5.75,4.23-8.21,6.88-2.64,2.84-5.06,5.83-8.01,8.36-3.15,2.7-6.5,5.14-9.56,7.94l5.12,2.12c-.75-6.74.03-13.5,3.82-19.09,1.79-2.65,4.34-4.59,7.31-6.18,4.2-2.25,8.39-4.5,12.61-6.72,4.8-2.52,9.62-5,14.47-7.4l-3.03-5.18c-12.99,9.55-25.04,20.26-37.1,30.94l4.71,3.64c7.09-9.86,19.18-14.5,28.94-21.46,2.95-2.1,5.77-4.4,8.23-7.07,1.94-2.11.07-5.95-2.92-5.01-6.86,2.14-13.06,6.07-18.9,10.17s-11.27,8.37-16.82,12.65c-3.5,2.7-6.86,5.55-9.3,9.28-.81,1.24-.37,3.02.77,3.87,1.29.96,2.73.72,3.94-.23,7.12-5.66,14.28-11.29,21.73-16.51,3.74-2.62,7.56-5.15,11.46-7.53,3.33-2.04,6.77-3.79,10.19-5.65,3.69-2.02,7.35-4.48,9.52-8.19,1.96-3.34-3.23-6.36-5.18-3.03-.76,1.31-1.77,2.37-3.13,3.41-1.12.86-2.82,1.85-4.24,2.63-3.28,1.79-6.59,3.46-9.79,5.41-7.71,4.69-15.08,9.93-22.25,15.41-4.22,3.22-8.39,6.51-12.54,9.82l4.71,3.64c1.84-2.81,4.5-5.03,7.11-7.09,2.48-1.95,5.01-3.82,7.51-5.74,5.52-4.24,11.1-8.46,17.11-11.99,3.15-1.85,6.29-3.45,9.7-4.52l-2.92-5.01c-8.49,9.21-20.92,13.64-30.58,21.66-2.86,2.37-5.36,5.07-7.53,8.09-.86,1.2-.33,3.05.77,3.87,1.24.93,2.79.78,3.94-.23,11.67-10.34,23.31-20.76,35.88-30.01,1.3-.96,1.96-2.6,1.08-4.1s-2.65-1.8-4.1-1.08c-8.98,4.44-17.83,9.15-26.65,13.89-3.67,1.97-6.79,4.36-9.29,7.73-2.15,2.89-3.63,6.34-4.48,9.83-1.04,4.28-1.24,8.76-.76,13.13.28,2.56,3.08,3.99,5.12,2.12,3.06-2.8,6.41-5.25,9.56-7.94s5.56-5.76,8.31-8.68c4.9-5.2,11.83-8.11,15.95-14.1,1.71-2.48-1.65-5.7-4.1-4.1-5.96,3.86-10.86,8.89-16.34,13.33-4.86,3.93-10.2,7.23-13.89,12.39-1.99,2.78,2.41,6.11,4.71,3.64,11.15-12,23.27-23.21,36.85-32.43l-3.64-4.71c-4.76,4.07-9.69,8.1-15.24,11.06l4.1,4.1c6.82-9.9,15-20.08,25.76-25.86l-3.03-5.18c-3.41,2.16-5.2,5.68-3.18,9.49,1.39,2.63,3.88,4.55,5.88,6.69.23.25.46.51.68.76.1.11.19.23.29.35-.56-.65-.16-.22-.05-.05.15.23.31.45.45.69.08.13.14.29.22.42.25.37-.15-.73-.02-.02.02.11.05.24.09.35.19.55-.25-.34-.04-.31.02,0,0,.38,0,.41-.03.56.14-.8.02-.25-.15.69.36-.54-.04.11-.13.21-.46.52.09-.06-.13.13-.24.28-.37.41-.14.14-.3.28-.45.41.48-.41.22-.15.07-.08.96-.47.17-.11-.11-.02-.19.06-.82.1.07.02-.2.02-.41.04-.61.06-.44.03-.89.03-1.33.02-.23,0-.46-.03-.69-.04-.03,0-.79-.09-.29-.02s-.25-.05-.28-.06c-.22-.05-.44-.09-.65-.15-.32-.08-1.13-.47-.45-.1-.15-.08-.33-.2-.49-.26-.41-.15.42.5-.02-.05.56.71.62.94.46,1.53.16-.59-.36.61.02.03-.29.45-.58.61-1.04.82.25-.12.71-.03-.05-.04.29,0,.6.01.9,0,.76-.02-.4-.08.07,0,.31.05.62.11.92.18,1.96.44,3.85,1.15,5.71,1.92l-2.2-2.89.45-.75,2.92-.77c-.96-.27.22.16-.52-.23-.31-.17-.61-.34-.94-.48l1.08,4.1c.16-.29.33-.56.52-.83.37-.54-.24.23.19-.23.46-.49.9-.99,1.37-1.47,1.07-1.09,2.14-2.17,3.08-3.38,2.25-2.9,2.91-6.12,1.34-9.52-1.24-2.69-5.78-1.37-5.59,1.51.02.35.03.7,0,1.06,0,.17-.03.35-.04.52-.03.33.09-.4-.03.16-.18.88-.39,1.74-.7,2.58-.06.16-.18.4-.04.11-.08.18-.17.35-.26.52-.11.21-.23.41-.36.61-.03.05-.36.49-.16.24.18-.22-.85.7-.23.26-.14.1-.43.43-.25.15.19-.08.2-.09.04-.05-.22.05-.14.04.24-.04l2.12,5.12c2.57-2.2,4.5-5.17,4.82-8.59s-1.32-6.54-3.82-8.73c-2.92-2.56-6.74,1.3-4.24,4.24-.38-.45-.14-.37-.35-.51-.26-.18-.06-.19,0,.12.11.62.03-.5,0-.1-.01.18.03.38.03.57.01.42-.02.83-.04,1.25-.04.81.15-.55-.04.25-.04.17-.07.35-.11.52-.1.43-.22.85-.38,1.26.22-.58-.23.38-.37.58.5-.72-.03.09-.12.04.07.04.45-.43.1-.13.44-.37.25-.12-.17-.04.58-.1-.04-.09.38-.02.25.05.3.05.15.01-.23-.07-.11-.01.38.16.37.23.62.52.81.92.1.26.12.31.08.16-.06-.23-.04-.09.05.42.04-.12-.02-.3,0-.43.05-.35-.21.77-.02.14.05-.16.08-.34.12-.5.1-.36.23-.7.35-1.05.14-.4-.31.65,0-.02.08-.17.16-.34.24-.52.16-.33.33-.65.51-.96.16-.28.32-.55.49-.81.07-.11.16-.22.22-.33.23-.44-.46.56-.16.21l-4.71-.61c.41.64,0-.42.07.07.03.18.09.4.15.57.17.51,0-.59.01.17,0,.27.02.55.01.82,0,.25-.04.49-.04.74-.04.35-.03.34.02-.04-.03.17-.05.34-.09.51-.1.51-.22,1.02-.37,1.53-.1.33-.22.65-.34.97.24-.63-.05.1-.1.19-.13.24-.28.48-.41.72-.34.64.26-.17-.12.19-.14.14-.29.28-.43.43.36-.26.41-.31.15-.13-.28.15-.2.13.24-.07-.3.04-.65-.01.12.02-.32-.01-.23,0,.27.05-.24-.07-.24-.07-.02.03.23.11.22.1-.03-.02-.28-.18-.24-.14.13.12-.43-.52.41.55.02.02.54.74.02-.22.09.21.09.53.03-.32.03-.42-.03-.58-.19.44.03-.09.12-.29.16-.63.27-.93.05-.13.33-.83.07-.24.12-.29.26-.56.4-.84.27-.52.57-1.03.88-1.52.19-.3.4-.58.6-.87.36-.53-.29.32.14-.19.34-.4.67-.8,1.05-1.16.13-.13.29-.25.41-.38.38-.4-.62.4,0,.02l-3.64-.47c.36.41-.38-.38.06.13.08.09.22.51.06.09s-.02-.05-.02.02c.03.27.05.99.07.2,0,.28,0,.57,0,.85.02.51.15-.54-.03.18-.06.26-.12.52-.2.77s-.18.52-.27.78c-.15.41.22-.45.02-.06-.08.14-.14.29-.21.43-.28.54-.62,1.04-.96,1.55-.29.43.29-.3-.2.24-.21.23-.42.46-.64.68-.19.18-.39.35-.59.53.43-.39.06-.04-.18.11-.2.13-.43.23-.62.36-.37.25.52-.17-.17.05-.74.24.32.02-.08.04-.63.03.08.05.04.04-.61-.14.4.28,0,.03-.08-.05-.36-.21,0,.03.47.31-.09-.14-.12-.14-.36-.06.22-.49.08.12,0-.03-.13-.21-.15-.24-.2-.35.23.56.07.2-.03-.07-.08-.19-.08-.28-.04-.51-.03.63,0-.09,0-.24.16-1.14-.01-.38.13-.55.25-1.09.45-1.62.04-.12.09-.24.14-.36.17-.43-.2.41.01-.01.16-.33.32-.66.49-.99.69-1.29,1.49-2.52,2.35-3.7.09-.12.17-.24.26-.36-.01.02.47-.62.3-.4s.12-.15.12-.15c.15-.19.29-.37.44-.56.48-.59.96-1.17,1.46-1.74.74-.84,1.5-1.67,2.29-2.46l-4.71-3.64c-3.71,4.86-6.17,11.15-6.86,17.22-.17,1.46,1.27,2.79,2.6,2.95,1.51.18,2.82-.69,3.29-2.15.72-2.23.88-4.58,1.42-6.86.51-2.14,1.31-3.2,2.86-4.65,3.19-2.98,7.17-5.09,10.25-8.26,1.9-1.95.43-4.94-2.12-5.12-.46-.03-1.02-.05-1.46.12-1.36.52-2.07,1.46-2.2,2.89-.2,2.19,2.43,3.59,4.3,3.06,3.59-1.01,2.29-6.15-1.11-6.15-2.07,0-4.34,2.21-5.84,3.41-1.27,1.02-2.61,2.17-4.13,2.77l2.31,5.48c1.04-.79,2.08-1.57,3.18-2.28,1.35-.89,1.92-2.66,1.08-4.1-.79-1.35-2.74-1.97-4.1-1.08h0Z"/><path class="cls-7" d="m226.63,243.26c.86.34.9.69.48-.09-.19-.36-.37-.71-.58-1.06l-3.39,4.41c1.29.48,2.69.59,4.06.67,1.02.06,1.96.02,2.77.46,1.69.92,3.89.12,4.41-1.79.82-3.03.22-6.09-.33-9.1s-.55-5.98-.6-9.05c-.05-3.25-.05-6.53-.3-9.78-.07-.91-.18-1.82-.31-2.72-.03-.24-.07-.47-.1-.71-.04-.28,0,.23-.03-.28s-.04-1.05-.03-1.59c-.03.24-.02.26.02.05.06-.2.05-.19-.04.04-.43.23.22-.19.31-.27.92-.72,1.05-2.3.62-3.28-.49-1.12-1.51-1.8-2.74-1.84-4.58-.17-9.1.84-13.51,1.96-2.86.73-5.74,1.37-8.6,2.1-4.82,1.24-11.89,3.23-13.5,8.65-.58,1.95-.06,4.02.71,5.83.71,1.68,1.89,3.48,1.94,5.05l1.49-2.59c1.13-.65,2.63.35,2.73,1.48,0-.35-.01-.32-.05.08-.19.35-.19.38-.02.1l-4.71.61c.12.12.22.25.34.38-.27-.3-.21-.29,0,.03.29.42.57.85.83,1.29s.51.89.74,1.35c.14.27.27.55.4.83-.16-.37.02.05.07.21.07.2.13.41.2.61.08.28-.07.52.07.24-.03-.26-.04-.27-.03-.03l.05-.48c.05-.53.11-.28-.15.07.26-.35-.07.05-.19.18-.18.18-.35.37-.54.55-.02.02-.74.67-.26.25-.21.19-.82.32,0,.06l2.31,5.48c1.42-1.04,3.06-1.69,4.56-2.61,1.61-.99,3.1-2.16,4.76-3.08.69-.39,1.39-.76,2.14-1.02.34-.12.69-.22,1.05-.3.38-.08.43-.08.14-.02.14,0,.29,0,.43,0,.23.01.19,0-.14-.02.33.1.32.08-.04-.05.38.41-.18-.23-.27-.32-.13-.38-.14-.4-.04-.06l-.03-.28c.01.19,0,.39-.01.58.01-.27-.02-.21-.09.19-.61,2.33,2.19,5,4.41,3.39.18-.13.95-.62.79-.51.1-.06.49-.15.12-.08.2-.03.41-.02.61-.02-.4-.01.49.12.71.2-.35-.14.73.45.66.4,1.2.86,1.93,2.15,2.24,3.62.69,3.27,6.17,2.59,5.89-.8-.56-6.85-1.4-13.68-1.79-20.54l-5.89.8c1.49,4.39,2.11,9.11,1.64,13.73l5.89-.8c-1.37-6.72-.54-13.7-2.56-20.33-.84-2.75-5.05-2.95-5.79,0-.91,3.65-1.51,7.55-1.66,11.31-.09,2.43.19,5.94,2.76,7.03,5.07,2.15,7.07-6.98,7.68-10.37.41-2.26.78-4.93-.4-7.04-1.28-2.32-4.3-2.94-6.48-1.51-1.84,1.2-3.05,3.26-3.92,5.22-1.03,2.34-1.79,4.78-1.92,7.35-.12,2.31.6,4.84,2.77,6,2.53,1.34,5.23.07,6.39-2.4.99-2.11,1.33-4.49,1.45-6.8s-.24-4.69-1.66-6.52c-4.06-5.2-10.13.95-12.04,4.89-.98,2.02-1.58,4.31-1.76,6.54-.12,1.44.2,2.93,1.26,3.97,1.59,1.56,4.1,1.35,5.7-.04,2.91-2.53,3.79-7.53,3.98-11.17.11-1.99-.11-4.37-1.62-5.85-1.93-1.89-4.72-1.34-6.72.11-1.61,1.16-2.76,2.89-3.77,4.57-1.12,1.86-2.2,3.95-2.63,6.1-.49,2.4-.18,5.17,2.19,6.48s5.07.62,6.77-1.25c2.87-3.15,3.67-9.12,1.12-12.68-1.61-2.24-4.36-3.18-7.02-2.4s-4.81,2.72-6.46,4.81c-1.73,2.2-3.25,4.76-3.42,7.62-.15,2.62,1.5,5.38,4.34,5.41,2.46.03,4.36-1.97,5.72-3.78s2.42-4.19,2.55-6.54c.14-2.67-1.53-5.5-4.16-6.31s-5.11.76-6.73,2.65c-1.49,1.73-2.83,3.87-3.37,6.11-.79,3.3.69,7.44,4.59,7.55,6.66.18,8.24-10.76,4.15-14.53-3.13-2.87-7.37-.94-9.02,2.48-.05.1-.45.75-.42.82-.2-.42,1.74-.49.88-.65s-1.9.53-2.6.93c-1.52.87-2.61,2.32-3.6,3.72-.94,1.32-1.8,2.63-3.03,3.71-1.13.99-2.58,1.66-3.96,2.24s-2.39,1.69-2.15,3.29c.22,1.48,1.42,2.57,2.95,2.6,1.97.03,3.78-.81,5.44-1.81.73-.44,1.43-.92,2.16-1.35.86-.51,1.14-.7,2.01-.91l-3.39-4.41c-.16.25-.13.22.09-.07-.11.14-.23.28-.36.41-.28.3-.57.59-.88.85s-.16.1-.65.43c-.33.17-.34.18-.02.03-.55.12-.3.14.75.05l2.1,2.1c-.13-.41,0-.47-.05-.04.03-.34.09-.57-.03-.09.13-.52.28-1.02.48-1.53.12-.32-.03.07-.05.11.05-.12.11-.24.16-.36.11-.24.22-.48.33-.73.32-.71.64-1.42.9-2.15,1.02-2.83.36-5.72-2.21-7.45-1.45-.98-3.16-1.23-4.85-1.44-1.49-.19-3.07-.5-4.73-.97-3.73-1.07-7.34-2.55-11.05-3.71-4.38-1.37-8.8-2.62-13.2-3.91-2.14-.63-4.39,1.51-3.69,3.69.52,1.62,1.3,3.12,2.06,4.63.7,1.39,1.16,2.82,1.61,4.31.93,3.04,2.15,6.14,4.42,8.45s5.76,4.28,8.98,4.97c1.66.36,3.36.4,5.05.47s3.23.64,4.91.83c3.02.35,5.28-1.58,7.14-3.71.9-1.03,1.73-2.13,2.56-3.22.12-.16.24-.32.36-.47-.37.48.13-.16.17-.21.45-.55.94-1.09,1.35-1.68.86-1.24,1.15-2.79.32-4.15-.89-1.45-2.77-1.96-4.39-1.86-1.42.09-2.73.66-3.98,1.31-.64.33-1.25.7-1.88,1.05-.2.11-.4.21-.59.32-.35.16-.38.19-.11.08-.23.09-.46.17-.7.23-2.73.78-5.87-1.43-8.2-2.89-3.04-1.91-5.87-4.12-8.83-6.13-2.11-1.43-5.27.96-4.41,3.39,2.76,7.76,10.59,12.14,18.47,12.93,3.77.38,7.72-.25,11.08-2.04,2.12-1.13,4.44-3.05,3.71-5.76-.59-2.19-3.01-3-4.98-3.42-5.08-1.08-10.52-1.31-14.9-4.41-1.2-.85-3.05-.33-3.87.77-.93,1.25-.77,2.78.23,3.94,2.98,3.43,7.63,5.21,11.93,6.28,2.2.55,4.58,1.14,6.85.86s4.33-1.46,6.6-1.89c1.59-.3,2.5-2.22,2.1-3.69-.46-1.67-2.09-2.4-3.69-2.1-1.9.36-3.59,1.38-5.48,1.72-1.34.24-3.18-.29-4.78-.69-3.49-.87-7.01-2.11-9.28-4.74l-3.64,4.71c3.42,2.43,7.59,3.46,11.65,4.18,1.81.33,3.67.55,5.45,1.01.15.04.98.31.7.19-.32-.13.03,0,.08.04.54.43-.5-.55-.52-.6-.21-.47.11-1.97.08-2.39-.02-.24.11-.03-.07.06-.23.11-.72.47-1.08.66-.29.16-.59.31-.89.44.47-.21-.49.18-.61.22-.69.23-1.39.4-2.1.54-.07.01-.67.12-.33.06.31-.05-.17.02-.19.02-.35.03-.69.06-1.04.08-.8.04-1.61.03-2.41-.03-.36-.03-.71-.06-1.06-.1.5.07-.44-.08-.57-.11-.76-.14-1.51-.33-2.25-.55-1.62-.49-2.31-.78-3.78-1.63-.39-.23-.78-.47-1.15-.72-.12-.08-.25-.17-.37-.26-.78-.54.2.17-.23-.16-.65-.52-1.27-1.09-1.83-1.71s-.58-.61-1.11-1.46c-.23-.37-.43-.75-.63-1.13-.07-.13-.13-.26-.19-.39.23.51-.11-.33-.12-.36l-4.41,3.39c4.52,3.07,8.77,6.61,13.83,8.79,2.76,1.19,5.63,1.69,8.53.6,1.08-.41,2.07-.97,3.07-1.53.47-.26.94-.53,1.43-.76.54-.25-.56.15.38-.15.12-.04.96-.31.37-.12.11-.03.39.1.16,0l-1.3-3.4-.12.19c.44-.26.04-.05-.12.13-.15.18-.29.35-.44.53-.32.4-.63.8-.94,1.21-.15.19-.29.38-.44.57-.23.3-.21.28-.31.4-.66.85-1.35,1.7-2.09,2.48-.3.31-.6.61-.92.89-.7.62.24-.12-.19.15-.15.1-.76.31-.41.26.42-.05-.63-.19-.72-.21-.65-.17-1.29-.35-1.96-.45-1.6-.25-3.2-.26-4.82-.36-2.57-.15-5.02-1.27-7.05-2.84s-2.96-4.09-3.72-6.56c-.52-1.7-1.06-3.36-1.83-4.96-.63-1.32-1.4-2.58-1.85-3.98l-3.69,3.69c4.71,1.39,9.43,2.72,14.11,4.2,4.37,1.39,8.66,3.31,13.19,4.17,1.67.32,3.57.49,4.73.83.31.2.34.2.08,0,.24.25.24.22,0-.09.17.29.16.24-.01-.15.08.33.09.26.02-.19,0,.22,0,.43,0,.64.05-.83-.08.13-.15.33-.04.12-.42,1.11-.15.47-.14.33-.29.64-.43.97-.32.72-.65,1.43-.93,2.17-.58,1.49-.84,3.17-.35,4.73.29.95,1.07,1.9,2.1,2.1,3.18.62,6.24-1.88,7.85-4.45,1.43-2.29-.93-5.02-3.39-4.41-1.7.42-3.21,1.36-4.68,2.29-.7.45-1.41.91-2.16,1.27-.46.22,0,.05-.5.2-.2.06-.4.11-.6.15.3-.05.28-.07-.08-.05l.8,5.89c2.7-1.14,5.28-2.35,7.35-4.5,1.69-1.75,2.73-4.23,4.61-5.78-.53.43.42-.15.49-.21.39-.36-1.22.11-.31.06.35-.02.76-.07,1.1-.17,1.42-.4,2.38-1.52,3.01-2.8.2-.4.35-.9.64-1.24-.29.35.08.15-.03.13-.14-.03-.51-.06-.66-.07-.57-.01.39-.14,0,.07-.1.05-.15-.27.02.12-.18-.41.13.45.13.47.08.33.07.35.05.94,0,.18-.03.36-.04.54,0-.12.13-.64,0-.06-.08.4-.16.8-.27,1.2-.05.18-.11.36-.17.53-.07.2-.06.18.04-.08-.06.12-.12.24-.19.36-.25.4-.3.16-.06.12l-.09.09c-.16.15-.11.12.14-.1.57-.12.76-.18,1.21.3.27.28.32.71.26.22-.01-.1-.05-.56-.02-.08-.01-.19.03-.42,0-.6-.06-.4-.2.62-.02.17.11-.26.17-.58.25-.85.05-.17.28-.62,0,0,.07-.14.13-.29.2-.43.38-.72.77-1.41,1.24-2.07.29-.4-.46.5.08-.1.11-.12.22-.25.33-.38.22-.24.46-.45.69-.67-.5.48.28-.14.47-.26-.07.04-.65.23-.17.09.62-.18-.7.04-.08.02-.55.02-.55-.04-.27,0-.89-.09,0,.05-.34-.15s.06.26-.06-.05c-.15-.4.21.35.22.37-.03-.04-.26-.7-.09-.21.04.12.05.24.09.36-.21-.71-.02-.39-.05-.11-.01.1-.08.82,0,.33.07-.43-.15.56-.19.69-.07.23-.38.98-.12.4-.34.75-.77,1.42-1.21,2.11-.08.12-.36.43.04-.04-.1.12-.19.24-.29.35-.24.26-.51.5-.75.75-.32.34.47-.27-.14.08-.25.14-.43.07-.08.06.26-.1.29-.12.08-.05l.53-.06c-.47,0,.54.14.67.19.51.19-.15-.26.55.35.02.02.46.65.21.24.34.56.17.46.11.21-.16-.64-.1.49,0,.11.03-.12,0-.29,0-.41-.01-.4-.22.7,0,.02.07-.23.11-.47.18-.71.06-.18.41-1.02.18-.52.2-.43.43-.86.67-1.27.54-.91.74-1.18,1.33-1.84.33-.38.69-.74,1.05-1.08.13-.12.9-.75.51-.46.33-.25.68-.44,1.03-.66.14-.09.67-.32.08-.08.22-.09.46-.13.68-.22.49-.21-.2.13-.14,0,.02-.04.36,0,.43,0-.55.07-.42-.08-.09,0,.13.03.49.22.09.02-.49-.26.1.13.13.12-.05.01-.56-.48-.19-.11.35.34-.07-.11-.11-.18.1.16.19.34.3.49.37.5-.14-.45-.03-.08.04.13.09.26.12.39.07.24.15,1.18.11.36.02.34.05.67.04,1,0,.24-.18,1.45-.02.67-.13.63-.28,1.23-.49,1.83-.14.4.37-.6,0-.04-.07.11-.13.25-.19.36s-.15.22-.21.34c-.27.55.37-.42,0-.01-.52.58.41-.15-.13.14-.6.32.64-.2-.12.02.56-.16.59-.09.3-.07.67-.05.47.12.17,0,.22.08.43.21.62.44.32.39.02-.4.27.49-.03-.1-.05-.21-.08-.31.26.97.13.06.07-.17-.08-.33-.18.71-.01.1.04-.14.06-.28.09-.42.09-.37.21-.74.33-1.1.05-.15.12-.3.17-.45.26-.75-.17.36.03-.09.16-.35.32-.7.49-1.04.36-.71.76-1.41,1.19-2.09.19-.3.38-.59.58-.88.09-.13.67-.92.39-.55-.33.42.8-.93.83-.89.07.09-.78.52-.21.18.17-.11.35-.22.53-.33.57-.37-.42.02.27-.1-.03,0-.79.03-.35.06-.86-.05-.64-.12-.41-.05-.55-.18-.79-.39-1.01-.7.3.44-.12-.68,0,.05.06.42.05.66.04.07.01.69.05,1.36,0,2.05-.02.29-.06.59-.09.88.08-.87-.06.34-.09.52-.11.62-.24,1.23-.39,1.83-.13.49-.28.96-.43,1.44-.22.7.37-.78-.02.05-.17.36-.33.73-.53,1.08-.09.16-.18.31-.28.46-.38.62-.04,0,0,.01l-.18.17c.25-.28.57-.38.98-.29,1.07-.13,1.49.33,2.06,1.23.07.12-.02.71.03.15.01-.16.01-.34.02-.5,0-.56.01-.15,0-.01.04-.27.1-.55.16-.82.13-.62.3-1.23.47-1.84.08-.28.17-.55.26-.82.15-.43-.34.64.02-.05.12-.22.22-.45.35-.67.17-.31.35-.61.54-.9.12-.19.25-.37.38-.55.27-.38-.27.33.02-.03.25-.31.5-.6.78-.88.16-.16,1.06-.9.49-.5.3-.21.6-.39.92-.56-.06.03-.65.26-.17.11.23-.07.47.02-.27.03.49,0-.25-.04-.3-.06.49.15-.28-.15-.4-.23-.58-.37.66.24-.23-.27.1.06.39.77.15.18.16.4.24.83.34,1.25.25,1.04.01-.8,0,.12,0,.6,0,1.19-.03,1.78-.02.34-.06.69-.09,1.03-.02.18-.12.72,0,.04-.03.16-.05.32-.08.48-.15.73-.32,1.43-.55,2.14-.13.4.37-.59.02-.05-.05.08-.15.25-.18.33-.13.4.05-.09.17-.19-.21.17-.37.18-.03.07.68-.23.62-.54,1.54-.33.58.13.48.23.24.09.54.32.34.28.12.06.42.43.37.45.22.23.48.71.08.43.09.18,0-.12-.07-.33-.1-.44.03.11,0,.71.04.21.02-.28-.02-.57,0-.86,0-.19.03-.38.04-.57.02-.22.01-.16-.04.2.02-.12.04-.25.06-.37.15-.77.32-1.53.56-2.28.12-.38.25-.77.39-1.14.06-.17.13-.33.19-.5-.24.6.09-.19.12-.25.32-.67.69-1.3,1.07-1.93.08-.13.17-.24.25-.37-.36.55-.2.23-.08.11.11-.11.22-.24.33-.36.08-.09.58-.49.15-.17-.45.33.97-.31-.24.11.22-.07.54-.01-.42.05.48-.03-.28-.04-.33-.05l-.45-.2c.19.12.16.09-.08-.08-.1-.09-.66-.83-.41-.41.18.3-.14.02-.11-.28,0,.06.1.45.13.51-.28-.63-.03-.24-.02.2,0,.38-.02.75-.04,1.13,0,.16-.03.32-.05.48.06-.65.03-.2,0-.06-.08.46-.16.93-.26,1.39-.31,1.42-.7,2.82-1.18,4.19-.08.22-.15.43-.23.65-.04.11-.09.22-.13.33-.09.32.44-.64.15-.36-.1.1-.68,1.34-.71,1.32-.08-.07.44-.42.49-.45-1.43.98,3.84-.47,3.41,1.13.05-.18-.23-.9-.27-1.1.11.64-.01-.28-.02-.51-.05-1.04.06-2.07.16-3.11.27-2.62.64-5.21,1.28-7.77h-5.79c2,6.59,1.19,13.62,2.56,20.33.29,1.44,1.91,2.36,3.29,2.15,1.57-.24,2.45-1.42,2.6-2.95.51-5.08-.22-10.5-1.86-15.32-.48-1.41-1.77-2.38-3.29-2.15-1.39.21-2.69,1.43-2.6,2.95.4,6.86,1.23,13.69,1.79,20.54l5.89-.8c-1.23-5.87-8.3-11.3-13.94-7.19l4.41,3.39c.6-2.31.33-4.82-1.64-6.39-1.85-1.47-4.38-1.46-6.55-.76-2.47.81-4.72,2.17-6.85,3.63-2,1.38-4.27,2.32-6.23,3.75-1.21.88-1.87,2.29-1.23,3.75.58,1.32,2.08,2.19,3.54,1.74,1.57-.49,2.91-1.7,3.93-2.96,1.22-1.49,1.8-2.98,1.39-4.92-.57-2.65-2.29-5.75-4.2-7.68-1.4-1.42-3.68-1-4.71.61-2.39,3.72,1.31,9,5.55,6.55.89-.52,1.51-1.55,1.49-2.59-.05-1.93-.67-3.63-1.49-5.36-.31-.66-.71-1.4-.96-2s-.41-1.25-.45-1.73c-.04-.61.04.15-.02,0-.04-.1.28-.74.08-.3s.2-.27.25-.36c-.28.5-.07.09.16-.14.16-.17.34-.31.5-.47.24-.23-.11.07-.14.1.1-.07.2-.15.3-.22.5-.34,1.02-.65,1.56-.93.24-.13.49-.25.73-.36.13-.06.9-.4.43-.2.57-.23,1.14-.45,1.72-.65,1.16-.4,2.34-.74,3.53-1.05,2.4-.63,4.84-1.14,7.25-1.76,4.44-1.14,8.88-2.33,13.51-2.16l-2.12-5.12c-2.48,1.94-2.15,5.29-1.74,8.04.43,2.92.36,6.41.44,9.56.09,3.54.01,7.09.52,10.61.37,2.55,1.32,5.42.66,7.85l4.41-1.79c-1.46-.8-2.97-1.09-4.62-1.21-1.31-.1-2.42-.07-3.65-.52-2.49-.92-4.7,2.29-3.39,4.41,1.06,1.71,1.67,3.12,3.69,3.91,1.51.59,3.29-.65,3.69-2.1.47-1.7-.58-3.1-2.1-3.69h0Z"/><path class="cls-3" d="m301.48,234.26c1.24-1.82,4.6-18.3,6-20-3.61,21.98-1.99,40.19-4.44,55.34-1.56,9.66-4.4,6.36-7.15-.78-1.77-4.58-.81-10.48-.82-15.36-.02-8.11-1.34-28.72,7.78-32.8-12.43.73-4.08,19.42-4.59,27.22"/><path class="cls-3" d="m305.36,236.53c.83-1.28,1.23-3,1.64-4.46.6-2.12,1.14-4.26,1.68-6.39s1.09-4.26,1.7-6.37c.23-.8.47-1.6.75-2.38.05-.14.12-.29.16-.44.2-.64-.58,1.08-.25.59.12-.18.18-.38.32-.56l-8.22-3.47c-1.71,10.55-2.42,21.17-2.83,31.84-.17,4.5-.31,9-.6,13.5-.13,2.06-.29,4.12-.51,6.18-.06.53-.12,1.06-.18,1.58-.02.16-.02.59-.09.7.05-.08.15-1.06.02-.16-.17,1.15-.34,2.31-.58,3.44-.1.48-.22.95-.35,1.42-.06.2-.13.39-.19.59-.23.84.11-.37.16-.32.06.06-.39.68-.41.76.15-.59.71-.84.38-.52.51-.49.71-.63,1.42-.83,1.04-.3,1.88-.13,2.62.3-.38-.22,1.01.81.28.19-.77-.66.48.82-.01,0-.2-.33-.41-.65-.6-.98-.43-.77-.79-1.57-1.15-2.37-.26-.59.28.73.05.1-.09-.23-.18-.45-.27-.68-.24-.62-.44-1.25-.6-1.9-.06-.26-.12-.53-.17-.8-.02-.13-.15-.98-.08-.42s-.02-.31-.03-.44c-.03-.35-.05-.7-.07-1.06-.06-1.22-.04-2.44,0-3.65.12-3.46.2-6.9.16-10.36-.04-3.2-.03-6.41.16-9.61.06-.94.13-1.88.23-2.82.03-.3.3-1.22.17-1.48.03.05-.17,1.14-.04.32.04-.29.09-.58.13-.87.28-1.76.66-3.5,1.22-5.19.14-.42.29-.83.45-1.24.13-.34.37-.47-.16.36.11-.17.17-.39.26-.57.34-.7.75-1.32,1.15-1.98.35-.58-.23.31-.29.35.17-.12.3-.36.44-.52.25-.28.54-.51.79-.78.36-.4.13.32-.4.29.11,0,.45-.31.54-.37.31-.19.63-.36.96-.52,4.02-1.87,2.07-8.69-2.27-8.39-3.01.21-5.92,1.08-8.07,3.32-2.03,2.11-2.84,4.86-3.17,7.7-.56,4.96.71,10.05,1.58,14.9.11.62.22,1.23.32,1.85.05.31.09.63.14.94.08.49-.09-.71-.08-.62,0,.15.04.3.06.45.12,1.06.2,2.12.14,3.19-.13,2.35,2.16,4.6,4.5,4.5,2.55-.11,4.36-1.98,4.5-4.5.24-4.2-.99-8.51-1.69-12.62-.09-.53-.18-1.06-.26-1.59-.04-.26-.07-.53-.11-.79,0-.05.13,1.04.07.54-.02-.17-.04-.35-.06-.52-.12-1.09-.21-2.19-.23-3.29,0-.48,0-.95.03-1.43.01-.23.04-.46.05-.69.07-.95-.19.87-.02.21.1-.41.17-.83.29-1.23.06-.18.18-.39.2-.58-.06.51-.48.93-.08.27.11-.19.25-.38.35-.58.27-.51-.78.78-.17.24.1-.09.44-.34.49-.46,0,0-.85.58-.52.41.12-.06.22-.15.34-.22.19-.1.49-.2.64-.34,0,0-.97.33-.57.25.14-.03.29-.1.43-.14.27-.08.54-.12.81-.19.14-.04.63-.1-.1,0-.83.12.07.01.2,0l-2.27-8.39c-7.17,3.34-8.9,12.65-9.64,19.67s-.16,13.96-.48,20.94c-.12,2.63-.23,5.27.08,7.89.36,3.02,1.29,5.65,2.56,8.4,1.74,3.76,5.46,8.4,10.1,5.62,2.12-1.27,3.12-3.74,3.69-6.03.63-2.49.91-5.1,1.2-7.65.54-4.62.77-9.27.96-13.92.24-5.81.4-11.63.76-17.44.4-6.56,1.04-12.9,2-18.82.36-2.24-.4-4.38-2.61-5.31s-4.23.04-5.62,1.84c-.9,1.17-1.31,2.98-1.73,4.39-.63,2.1-1.17,4.24-1.71,6.36s-1.08,4.27-1.67,6.39c-.22.81-.45,1.61-.71,2.41-.09.28-.2.55-.29.83-.19.6.3-1.19.28-.66,0,.08-.11.22-.16.28-1.28,1.98-.47,5.05,1.61,6.16,2.23,1.18,4.8.5,6.16-1.61h0Z"/><path class="cls-5" d="m310.84,256.83c.96,7.57-3.35,18.86-9.13,24.27-1.59-.34-2.02-1.06-3.2-2.04l-3.54-2.3c-9-15-4.31-37.19-3.07-50.38,1.4-14.83-4.78-31.4,11.27-38.66l1.07-1.97c-1.41-7.12-9.35-1.82-14.08-.81-9.99,2.13-14.91-1.38-22.89-7.95-13.75-11.33-13.55-16.71-31.03-19.24l.23-.42c.95,3.84,3.01,19.12,8.89,18.12,1.13,7.17-6.02,2.87-9.8,3.97,7.46,6.94,10.45,17.53,6.13,27.05-1.88,4.15-4.25,8.49-.9,12.55,1.96,2.37,7.95,7.87,4.68,11.23-1.17-1.02-3.99-2.79-5-4,1.46,6.09,3.31,12.37,0,18-1.35,2.29-3.14,2.56-2.15,5.18.92,2.44,1.77,3.99,1.26,6.69-1.43,7.6-9.25,8.52-15.32,10.78-7.1,2.64-12.07,9.71-8.61,17.23,3.25,7.07,10.98,11.62,12.84,19.41,2.7,11.38-8.6,20.32-14.22,28.72,1.92-8.06,7.53-16.15,1.21-24.01-7.42-8.08-17.5-12.43-22.55-22.51l.24.27c-.17,5.05-1.21,10.11-3.82,14.5-1.23,2.07-2.62,4.45-5.13,2.53-1.26-.97-1.55-2.7-2.11-4.09l3.49,4.05c-10.86-3.06-20.66-1.26-30.12-6.76l-3.03-2.53c-4.55,19.46-13.38,37.3-17.08,56.89-3.29,17.43-5.86,35.2-9.32,52.77-5.88,29.89-20.09,54.2-34.81,80.36-8.41,14.95-24,30-34,49l-.17.27c12.5,8.67,31.01,3.95,44.29-.43,16.73-5.52,28.37-5.85,43.48,5.12,15.38,11.17,31.64,14.91,51.12,14.89,8.44,0,17.41.91,25.8.02,10.28-1.1,20.02-4.39,30.57-4.99,11.53-.66,22.61-.52,34.01.02,11.84.56,17.09-3.28,27-9.07l-1.04.32c.88-7.19-2.61-21.59-4.89-28.55-4.2-12.82-10.66-24.67-14.27-37.94-4.03-14.82-6.09-28.87-12.38-43.06-5.87-13.23-9.13-26.58-11.19-40.82-3.7-25.47-9.76-51.35-12.36-76.7-1.78-17.33-.46-35-3.25-52.22-1.58-9.77-1.96-19.57-2.44-29.63-.47-9.93,1.47-21.12-.81-30.45l.25,1.24c1.92,8.21,7.26,11.05,11.19,17.67,4.3,7.24,1.11,13.87,2.76,22.05,2.09,10.33,8.95,17.4,10.29,28.36,1.2,9.84,5.38,13.94,9.33,22.38l-.05.11c14,16,18.85-4.3,21.38-9.98,2.25-5.04,4.2-10.73,4.79-16.25.63-5.9-2.3-12.25,0-17.71"/><path class="cls-5" d="m170.31,168.77l-.37-.07c-1.02,5.27-1.83,11.51-2.31,15.28-.93,7.36,3.85,14.29,2.92,21.36l.99.46c-7.05-4.53-12.33-.79-16.85,3.67l-.21.42c5.38,7.67,6.38,13.67,11.38,21.67l-6.38-10.3c-2.22,1.27,5.23,9.82,4,12,11.97-.41,12.84,5.13,25,4.7v1.13c-4.53,5.02-7.34,11.31-8.78,17.87l-1.58-.47c5.62.47,7.72,1.54,13.36,1.76v1c0,8,1,9,2.06,28.3l.24.27c-.17,5.05-1.21,10.11-3.82,14.5-1.23,2.07-2.62,4.45-5.13,2.53-1.26-.97-1.55-2.7-2.11-4.09l3.49,4.05c-15.71-4.42-35.49-4.03-43.35-20.12-2.57-5.26-1.93-9.89-6.5-14.76-6.45-6.88-12.44-5.47-14.66-16.69-4.09-20.59,8.83-31.92,20.36-46.18s13.41-30.51,28.79-42.52"/><path class="cls-5" d="m170.51,168.04l-.37-.07c-.37-.07-.84.1-.92.52-.63,3.27-1.13,6.57-1.59,9.87-.39,2.79-.98,5.68-.84,8.51.32,6.27,3.76,12.11,3.01,18.46-.03.24.16.55.37.65l.99.46c.86.4,1.59-.78.76-1.3-3.19-1.99-6.84-2.82-10.44-1.44-1.56.6-2.97,1.49-4.28,2.52-1.16.91-2.7,1.96-3.37,3.29-.11.23-.16.53,0,.76,4.69,6.76,7.07,14.7,11.38,21.67l1.3-.76c-2.13-3.43-4.25-6.87-6.38-10.3-.2-.33-.68-.5-1.03-.27-1.87,1.23.02,4.22.76,5.58.69,1.29,1.45,2.55,2.1,3.86.3.61,1.23,2.1.87,2.83-.24.49.04,1.15.65,1.13,4.45-.13,8.36.8,12.47,2.42s8.12,2.41,12.53,2.27l-.75-.75c0,.23.02.46,0,.69-.03.37-.1.31-.06.23-.39.74-1.2,1.42-1.71,2.11-1.17,1.56-2.21,3.23-3.11,4.96-1.78,3.41-3.03,7.07-3.87,10.82l.92-.52-1.58-.47-.2,1.47c4.49.4,8.85,1.56,13.36,1.76l-.75-.75c0,4.21.37,8.34.8,12.52.36,3.51.64,7.03.88,10.55.09,1.28.17,2.56.24,3.84.04.63.07,1.27.11,1.9.04.58.18.63.31,1.1.03.12-.08.72-.12,1.19-.05.65-.1,1.3-.18,1.94-.17,1.36-.42,2.72-.76,4.05-.71,2.76-1.84,5.41-3.43,7.79-.82,1.22-1.83,2.27-3.26,1.14-1.13-.89-1.39-2.43-1.88-3.7l-1.25.73c1.16,1.35,2.33,2.7,3.49,4.05l.73-1.25c-11-3.07-23.28-3.45-33.28-9.43-5.26-3.14-9.16-7.96-10.95-13.84-.96-3.17-1.62-6.41-3.5-9.2-1.66-2.47-3.96-4.45-6.4-6.12-1.88-1.29-3.95-2.37-5.63-3.92-2.07-1.91-3.22-4.42-3.9-7.11-1.66-6.55-1.4-13.54.89-19.9,4.43-12.28,14.98-20.78,22.17-31.31,7.67-11.24,11.57-24.85,21.44-34.57,1.31-1.29,2.69-2.49,4.14-3.62.76-.6-.31-1.65-1.06-1.06-5.62,4.42-10,9.98-13.53,16.17s-6.18,12.35-9.72,18.29c-6.84,11.49-17.81,20.17-23.51,32.39-2.73,5.85-3.86,12.24-3.18,18.67.35,3.31.96,6.75,2.56,9.7,1.13,2.09,2.8,3.71,4.74,5.05,2.07,1.44,4.27,2.65,6.19,4.29,2.86,2.44,4.75,5.36,5.82,8.95.96,3.24,1.77,6.41,3.5,9.35,1.45,2.44,3.31,4.64,5.49,6.46,9.16,7.64,21.92,8.55,33.09,11.12,1.42.33,2.84.68,4.24,1.07.76.21,1.2-.71.73-1.25-1.16-1.35-2.33-2.7-3.49-4.05-.48-.55-1.52.03-1.25.73.79,2.06,1.35,4.55,3.8,5.23,2.04.56,3.41-1.22,4.36-2.75,1.49-2.4,2.6-4.98,3.3-7.71.32-1.26.56-2.53.73-3.82.09-.64.16-1.28.21-1.92s.3-1.73.1-2.36c-.04-.12-.16-.22-.19-.33l-.06-.07c-.16-.1-.16-.16.01-.16-.18-.64-.08-1.46-.12-2.13-.09-1.46-.18-2.92-.28-4.39-.15-2.15-.32-4.29-.51-6.43-.24-2.69-.55-5.36-.8-8.05s-.32-5.2-.32-7.82c0-.42-.34-.73-.75-.75-4.51-.2-8.87-1.37-13.36-1.76-.86-.08-.99,1.24-.2,1.47l1.58.47c.37.11.84-.13.92-.52.87-3.9,2.18-7.69,4.11-11.2.98-1.78,2.1-3.49,3.38-5.06.45-.56,1.17-1.1,1.32-1.81.07-.35,0-.78,0-1.13,0-.4-.34-.76-.75-.75-4.5.13-8.47-.77-12.61-2.41s-8.02-2.41-12.39-2.29l.65,1.13c.91-1.85-.89-4.42-1.75-5.98-.31-.57-3.29-5.25-2.52-5.75l-1.03-.27c2.13,3.43,4.25,6.87,6.38,10.3.51.82,1.81.07,1.3-.76-4.32-6.97-6.69-14.91-11.38-21.67v.76c.54-1.08,1.91-2.01,2.85-2.76,1.18-.95,2.49-1.8,3.9-2.36,3.23-1.27,6.41-.5,9.28,1.29l.76-1.3-.99-.46.37.65c.73-6.24-2.54-11.93-2.99-18.05-.21-2.83.37-5.72.76-8.52.46-3.3.97-6.6,1.59-9.87l-.92.52.37.07c.94.18,1.35-1.26.4-1.45h0Z"/><path class="cls-5" d="m238.69,143.96c4.7.51,14.13-.78,18.9-1.8,4.49-.95,9.45-2.48,13.02-5.38-4.99-5.82-12.05-9.5-17.86-14.38-5.16-4.33-9.75-5.66-16.04-7.22l-.3-1.24c2.62-9.52-1.82-20.61.73-30.08,2.28-8.46,11.61-15.47,12.84-24.09-7.31,1.28-14.3,4.12-21.47,5.83-8.17,1.94-15.27,4.82-22.14,9.61-6.38,4.44-10.33,11.42-14.61,17.8-4.12,6.15-9.94,15.52-12.83,22.33l2.36-1.14c-5.74,2.51-11.66,5.03-17.58,6.9-5.5,1.74-11.43,3.19-16.6,5.89-13.09,6.85,7.04,16.96,14.5,17.93,5.69.74,11.63.67,17.44.67l-.89,1.84c.14-.75.25-1.56.31-2.45.53-7.5-1.14-14.36,3.04-21.02l-.02-.12c5.7-.8,11.24-2.66,17.01-3.3,7.67-.86,13.98.78,20.69,4.06,4.94,2.41,9.47,3.53,14.26,4.37v1.93c.06,2.59.93,6.24,2.97,7.94.09.08.19.15.28.22l1.15,1.18c-.71.47.21,5.56.2,7.03"/><path class="cls-5" d="m238.69,144.71c5.25.53,10.78-.36,15.95-1.23,5.79-.98,11.82-2.45,16.5-6.17.33-.26.24-.78,0-1.06-4.75-5.47-11.13-8.99-16.74-13.46-2.6-2.07-5.13-4.04-8.2-5.4s-6.13-2.15-9.29-2.93l.52.52c-.1-.39-.26-.86-.24-1.21.03-.8.43-1.81.54-2.65.29-2.14.33-4.31.24-6.47-.18-4.35-.83-8.67-.9-13.02-.06-4.05.51-7.96,2.4-11.57,1.74-3.31,4.07-6.26,6.2-9.33,2.27-3.27,4.41-6.78,5.03-10.77.09-.59-.32-1.03-.92-.92-6.94,1.25-13.53,3.82-20.35,5.55-6.24,1.58-12.28,3.46-17.95,6.56-2.65,1.45-5.26,3.06-7.58,5s-4.32,4.26-6.15,6.68c-3.53,4.68-6.68,9.72-9.82,14.67-3.55,5.6-7.04,11.34-9.64,17.45-.29.69.31,1.37,1.03,1.03.79-.38,1.57-.76,2.36-1.14.88-.42.11-1.67-.76-1.3-3.87,1.69-7.76,3.36-11.71,4.85-3.67,1.38-7.4,2.5-11.15,3.64-3.52,1.07-7.03,2.21-10.34,3.82-1.94.94-4.07,2.13-5.1,4.12-1.69,3.24.83,6.46,3.23,8.48,3.32,2.79,7.4,4.79,11.49,6.17,2.5.84,5,1.18,7.63,1.39,4.69.37,9.39.32,14.09.32l-.65-1.13c-.3.61-.59,1.23-.89,1.84l1.37.58c.75-4.18.33-8.45.46-12.67.07-2.08.27-4.15.84-6.15.32-1.15.76-2.26,1.32-3.31.33-.62.83-1.13.73-1.85l-.52.92c4.64-.68,9.15-2,13.76-2.82,4.36-.78,8.8-.95,13.16-.08s8.03,2.69,11.98,4.41,8.32,2.85,12.66,3.62l-.55-.72c0,2.19.07,4.33.77,6.43.43,1.28,1.03,2.55,1.97,3.54.6.63,1.28,1.2,1.88,1.82v-1.06c-.77.73-.49,2.33-.42,3.25.11,1.43.38,2.87.4,4.31.01.96,1.51.97,1.5,0-.01-1.15-.21-2.31-.32-3.46-.06-.59-.37-2.78-.1-3.04.3-.28.28-.78,0-1.06-.49-.5-.97-.99-1.48-1.45-1.07-.95-1.68-2.23-2.09-3.59-.57-1.88-.61-3.76-.61-5.7,0-.3-.23-.67-.55-.72-4.7-.84-9.3-2.03-13.64-4.08-3.8-1.8-7.64-3.38-11.81-4.1s-8.48-.57-12.7.15c-4.77.82-9.43,2.2-14.22,2.9-.44.06-.57.56-.52.92-.04-.31-.49.54-.57.7-.27.5-.5,1.02-.72,1.55-.34.82-.63,1.66-.85,2.52-.49,1.88-.69,3.82-.77,5.76-.17,4.21.33,8.5-.42,12.67-.14.77.97,1.4,1.37.58.3-.61.59-1.23.89-1.84.24-.5-.05-1.13-.65-1.13-3.89,0-7.79.03-11.68-.16-2.61-.13-5.27-.26-7.8-.94-3.85-1.02-7.62-2.77-10.92-5.02-2.21-1.51-6.12-4.49-4.9-7.66.78-2.02,3.1-3.14,4.91-4,3.14-1.5,6.47-2.56,9.79-3.57,3.82-1.16,7.64-2.31,11.38-3.73,4-1.51,7.93-3.2,11.85-4.91l-.76-1.3-2.36,1.14,1.03,1.03c2.25-5.26,5.17-10.23,8.17-15.09s6.15-9.67,9.39-14.38c1.73-2.51,3.58-4.95,5.74-7.11s4.8-4.02,7.51-5.63c5.43-3.23,11.35-5.45,17.46-6.97,7.48-1.86,14.73-4.67,22.33-6.03l-.92-.92c-1.17,7.52-7.43,12.97-10.91,19.43-4.1,7.59-2.47,15.97-1.95,24.17.15,2.37.2,4.77-.06,7.14-.08.68-.18,1.36-.32,2.04-.1.49-.36,1.09-.36,1.6,0,.47.22.98.33,1.44.06.25.28.46.52.52,3.14.78,6.31,1.58,9.27,2.93s5.57,3.47,8.22,5.53c5.44,4.22,11.52,7.7,16.08,12.94v-1.06c-4.54,3.61-10.57,4.91-16.16,5.84-4.94.82-10.21,1.63-15.23,1.12-.96-.1-.95,1.4,0,1.5h0Z"/><path class="cls-6" d="m195.54,220.32c5.02-4.41,11.39-7.03,17.78-8.76,6.56-1.78,13.34-2.67,20.12-3,1.92-.1,1.93-3.1,0-3-13.75.68-29.33,3.25-40.02,12.65-1.45,1.28.68,3.39,2.12,2.12h0Z"/><path class="cls-6" d="m231.94,208.19c0,13.38.09,26.84,2.32,40.07.32,1.9,3.21,1.09,2.89-.8-2.19-12.95-2.22-26.17-2.21-39.27,0-1.93-3-1.93-3,0h0Z"/><path class="cls-6" d="m234.97,246.42c-5.06-1.38-10.37.67-15.05,2.48-5.06,1.96-10.4,4.5-15.95,4.27-1.93-.08-1.93,2.92,0,3,5.48.23,10.73-2.03,15.73-3.98,4.39-1.71,9.68-4.18,14.47-2.87,1.87.51,2.66-2.39.8-2.89h0Z"/><path class="cls-6" d="m193.03,218.08c-6.48-2.02-12.97-3.99-19.54-5.68-5.98-1.54-12.08-2.97-18.26-3.44-1.93-.15-1.92,2.85,0,3,6.04.46,12.01,1.92,17.86,3.44,6.43,1.67,12.8,3.59,19.14,5.58,1.85.58,2.64-2.32.8-2.89h0Z"/><path class="cls-6" d="m152.8,210.35c4.7,6.75,7.06,14.7,11.38,21.67,1.02,1.64,3.61.13,2.59-1.51-4.32-6.97-6.69-14.92-11.38-21.67-1.09-1.57-3.7-.08-2.59,1.51h0Z"/><path class="cls-6" d="m188.1,236.16c-11.95.33-21.9-8.48-33.89-8.16l1.3,2.26c1.22-2.06,2.96-3.69,5.01-4.9,1.66-.98.15-3.58-1.51-2.59-2.48,1.47-4.62,3.49-6.09,5.98-.57.96.15,2.29,1.3,2.26,5.92-.15,11.42,2.05,16.83,4.18,5.48,2.16,11.08,4.15,17.06,3.99,1.93-.05,1.93-3.05,0-3h0Z"/><path class="cls-6" d="m189.54,240.32c.07-.05.33-.24,0,0,.08-.06.16-.12.24-.18.16-.12.32-.23.49-.34.36-.25.73-.49,1.11-.72.85-.52,1.73-1.01,2.61-1.48.44-.23.88-.44,1.32-.65.21-.1.43-.2.65-.3.11-.05.23-.1.34-.15.17-.08-.23.09.03-.01.71-.28,1.44-.56,2.19-.71l-1.9-1.45c.03.4.04.8.02,1.2,0,.09-.01.18-.02.27,0,.03-.04.31-.01.13s-.02.09-.02.12c-.02.08-.03.17-.05.25-.08.35-.19.68-.32,1.01.11-.29-.06.11-.1.2-.08.17-.18.33-.27.48-.09.14-.18.28-.27.42-.05.07-.1.14-.15.2-.13.18.15-.18,0,0-.24.29-.49.56-.75.83s-.53.51-.81.75c-.16.14-.33.28-.5.41-.02.02-.23.18-.14.11.1-.08-.21.16-.21.16-.65.49-.98,1.29-.54,2.05.37.64,1.4,1.03,2.05.54,1.49-1.12,2.92-2.35,3.91-3.96s1.33-3.38,1.2-5.19c-.08-1.02-.89-1.64-1.9-1.45-1.83.35-3.61,1.27-5.26,2.12-1.77.92-3.5,1.93-5.05,3.18-.63.51-.53,1.59,0,2.12.63.63,1.49.51,2.12,0h0Z"/><path class="cls-6" d="m155.06,210.46c2.4-1.59,4.84-3.6,7.58-4.59,2.36-.86,4.67-.27,6.93.64,2.67,1.07,5.21,2.43,7.89,3.5s5.64,2.18,8.39,3.44c2.54,1.17,5.38,2.47,7.19,4.68.5.61,1.62.56,2.12,0,4.56-5.04,10.36-8.35,16.84-10.28,6.41-1.91,13.09-2.66,19.69-3.62l-1.69-.69c.53,1.09,1.31,2.03,1.79,3.14.76,1.77,3.35.24,2.59-1.51-.48-1.11-1.26-2.05-1.79-3.14-.31-.65-1.07-.78-1.69-.69-6.84.99-13.78,1.76-20.4,3.83s-12.73,5.62-17.45,10.84h2.12c-1.73-2.11-4.33-3.48-6.74-4.65-2.92-1.41-5.95-2.58-8.97-3.77s-5.68-2.56-8.56-3.76c-2.58-1.07-5.33-1.81-8.12-1.13-3.4.82-6.37,3.29-9.23,5.18-1.6,1.06-.1,3.66,1.51,2.59h0Z"/><path class="cls-6" d="m191.99,220.48c2.54,4.23,2.1,9.58,3.1,14.26.17.79,1.1,1.25,1.85,1.05.82-.23,1.22-1.05,1.05-1.85-1.07-5.01-.68-10.44-3.4-14.98-.99-1.65-3.59-.15-2.59,1.51h0Z"/><path class="cls-6" d="m314.03,540.41c.44-3.93-.15-7.97-.79-11.84-.72-4.34-1.71-8.63-2.88-12.87-2.81-10.1-7.36-19.56-11.17-29.29-4.23-10.77-6.57-21.97-9.34-33.17-1.36-5.49-2.87-10.96-4.8-16.28s-4.48-10.59-6.39-16.02c-3.81-10.79-6.01-21.95-7.7-33.24-1.81-12.09-4.08-24.1-6.25-36.13s-4.24-24.12-5.57-36.3-1.18-24.17-1.74-36.27-2.86-24.08-3.58-36.21c-.35-5.84-.74-11.71-.61-17.57s.57-11.16.26-16.74c-.15-2.64-.48-5.27-1.09-7.84-.44-1.88-3.33-1.08-2.89.8,1.26,5.38,1.17,10.95.97,16.43s-.33,11.28-.06,16.95c.29,6.16.6,12.32,1.25,18.46s1.74,11.89,2.24,17.88c1.01,11.97.74,24,1.53,35.98s2.7,23.93,4.73,35.77,4.36,23.87,6.36,35.84,3.34,23,6.49,34.23,8.33,21.19,11.56,32.15,5.1,22.42,8.6,33.36,8.53,20.82,12.25,31.44c2.81,8,5.01,16.58,5.64,25.06.14,1.8.18,3.61-.02,5.41-.21,1.92,2.79,1.9,3,0h0Z"/><path class="cls-6" d="m151.03,296.86c-3.88,16.45-11.29,31.79-15.4,48.18-2.24,8.93-3.56,18.13-5.09,27.2s-3.08,18.46-4.82,27.66c-1.6,8.5-3.6,16.85-6.38,25.05s-5.89,15.46-9.47,22.92-7.5,14.8-11.52,22.06c-3.81,6.88-7.46,13.95-11.85,20.49-8.67,12.93-19.34,24.39-27.35,37.79-1.04,1.74-2.03,3.5-2.98,5.29s1.69,3.22,2.59,1.51c7.45-14.08,18.04-25.96,27.33-38.79,4.51-6.22,8.18-12.88,11.93-19.56,4.08-7.27,8.1-14.57,11.85-22.02,7.51-14.93,13.84-30.51,17.34-46.89,3.92-18.28,6.33-36.86,9.82-55.23,3.19-16.79,10.6-32.28,15.26-48.65.59-2.06,1.12-4.13,1.61-6.22.44-1.88-2.45-2.68-2.89-.8h0Z"/><path class="cls-6" d="m168.36,166.76c-.72,3.51-1.27,7.06-1.77,10.61-.43,3.04-1.17,6.28-.84,9.36.35,3.23,1.51,6.25,2.48,9.33.88,2.8,1.67,5.75.49,8.58-.74,1.78,2.16,2.56,2.89.8,2.47-5.93-1.77-12.24-2.76-18.03-.51-2.98.19-6.09.6-9.05.51-3.62,1.07-7.23,1.8-10.8.39-1.88-2.51-2.69-2.89-.8h0Z"/><path class="cls-6" d="m235.03,161.66c.9,3.6,1.85,7.19,3.37,10.58,1.39,3.1,3.71,6.76,7.6,6.18l-1.9-1.45c.09.69.21,1.47.06,2.17-.02.07-.1.35-.11.38-.03.07-.2.26-.11.18-.14.11-.46.18-.67.2-.46.04-.93,0-1.39-.06-2.14-.26-4.34-1-6.48-.34-1.05.32-1.51,1.71-.66,2.51,2.65,2.5,4.99,5.4,6.3,8.83s1.59,7.19,1.18,10.87c-.22,1.95-.74,3.73-1.57,5.51s-1.71,3.43-2.3,5.25c-1.1,3.37-.62,6.68,1.77,9.32,1.01,1.11,2.23,2.03,3.17,3.2.85,1.06.91,1.9-.01,2.96h2.12c-1.15-1.05-2.69-1.62-3.69-2.82s-2.83.11-2.51,1.46c.77,3.24,1.45,6.53,1.33,9.88-.06,1.6-.3,3.23-.84,4.74-.39,1.11-1.08,2.04-1.69,3.02-1.3,2.08-1.95,4.53-1,6.88.45,1.12,1.21,2.19,1.47,3.39.22,1.02.04,2.2-.18,3.22-1.53,7-9.92,7.49-15.42,9.76-3.61,1.49-6.41,3.8-8.19,7.34s-1.89,7.46-.29,11.15,4.28,6.58,6.78,9.55,5,5.85,5.99,9.49c1.46,5.34-.97,10.51-3.9,14.87-3.09,4.59-6.97,8.58-10.05,13.17l2.74,1.16c2-8.35,9.36-18.67,3.36-27-2.13-2.96-5.31-4.99-8.36-6.88-3.29-2.05-6.71-3.95-9.69-6.44-3.29-2.74-5.9-6.21-6.28-10.6-.17-1.91-3.17-1.93-3,0,.74,8.47,7.5,13.49,14.2,17.62,2.99,1.84,6.16,3.56,8.78,5.93,1.52,1.38,2.72,2.98,3.25,5,.55,2.14.34,4.41-.13,6.55-1.14,5.18-3.78,9.88-5.01,15.02-.4,1.69,1.8,2.56,2.74,1.16,5.33-7.94,14.09-15.03,14.77-25.23.6-8.96-6.91-14.57-11.52-21.23-2.04-2.95-3.55-6.32-2.5-9.94s3.7-6.32,7.15-7.79c6.03-2.58,14.1-3.04,16.91-10,.86-2.13,1.36-4.96.6-7.17-.45-1.31-1.47-2.6-1.67-3.98-.19-1.29.48-2.54,1.14-3.59,1.73-2.73,2.65-5.44,2.84-8.7.21-3.75-.56-7.5-1.42-11.12l-2.51,1.46c1.03,1.22,2.54,1.76,3.69,2.82.56.52,1.57.64,2.12,0,1.08-1.25,1.85-2.71,1.52-4.4-.26-1.36-1.17-2.49-2.11-3.46-1.01-1.05-2.21-1.98-3.09-3.15-1.04-1.38-1.16-3.12-.78-4.77.46-1.97,1.45-3.75,2.29-5.56s1.53-3.76,1.82-5.83c.56-3.97.46-8.06-.79-11.9-1.41-4.33-4.12-8.01-7.41-11.11l-.66,2.51c2.19-.67,4.71.61,6.98.52,3.36-.14,4.3-2.98,3.92-5.93-.13-1.05-.85-1.6-1.9-1.45-2.15.32-3.94-4.05-4.6-5.74-1.15-2.89-1.92-5.91-2.67-8.92-.47-1.87-3.36-1.08-2.89.8h0Z"/><path class="cls-6" d="m341.42,159.2c-2.49,2.08-4.78,4.28-6.95,6.7-2.4,2.67-4.87,5.27-7.68,7.51-5.65,4.51-12.03,8.17-18.39,11.58-1.9,1.01-3.81,2.03-5.76,2.93-1.75.81-.23,3.39,1.51,2.59,4.71-2.17,9.28-4.77,13.72-7.44,6.57-3.96,12.6-8.35,17.79-14.02,2.51-2.74,5.01-5.33,7.87-7.72,1.48-1.24-.65-3.35-2.12-2.12h0Z"/><path class="cls-6" d="m293.66,221.29c12.63-5.05,21.52-16.08,30.82-25.51,2.57-2.6,5.21-5.15,8.05-7.46,1.5-1.22-.64-3.33-2.12-2.12-10.13,8.24-17.8,19.16-28.36,26.92-2.85,2.09-5.91,3.96-9.2,5.27-1.77.71-1,3.61.8,2.89h0Z"/><path class="cls-5" d="m427.18,167.3c4.34,22.07,5,44.84,1.97,67.12s-9.6,43.81-19.4,63.89c-5.59,11.46-12.22,22.41-19.75,32.7-1.14,1.56,1.46,3.06,2.59,1.51,13.52-18.48,24.08-39.09,31.13-60.88s10.48-44.14,10.28-66.74c-.11-12.89-1.45-25.76-3.93-38.41-.37-1.89-3.26-1.09-2.89.8h0Z"/><path class="cls-5" d="m409.78,243.83c-6.02,19.67-15.58,38.33-29.03,53.97-14.35,16.69-32.92,29.37-52.24,39.65-11.2,5.96-22.81,11.13-34.61,15.79-1.77.7-1,3.6.8,2.89,21.46-8.49,42.45-18.59,61.26-32.08,8.89-6.38,17.3-13.45,24.65-21.57s13.08-16.24,18.2-25.29c5.82-10.29,10.4-21.27,13.86-32.57.57-1.85-2.33-2.64-2.89-.8h0Z"/><path class="cls-6" d="m179.95,365.65c-7.08,13.57-14.22,27.34-17.21,42.49-1.5,7.63-1.79,15.32-1.74,23.07.05,7.31.25,14.65-.55,21.93-.88,7.97-3.21,15.89-8.25,22.25-1.19,1.5.92,3.63,2.12,2.12,9.39-11.84,9.83-27.13,9.72-41.59-.06-7.62-.23-15.26.88-22.82s3.32-15.09,6.19-22.26c3.27-8.14,7.37-15.91,11.42-23.68.89-1.71-1.7-3.23-2.59-1.51h0Z"/><path class="cls-6" d="m214.25,382.26c.16,7.6-1.38,15.04-4.8,21.85s-8.25,12.64-13.41,18.12c-1.32,1.4.79,3.53,2.12,2.12,5.41-5.74,10.52-11.94,14.04-19.05s5.22-15.03,5.05-23.04c-.04-1.93-3.04-1.93-3,0h0Z"/><path class="cls-6" d="m302.72,187.97c-5.39,2.49-9.38,6.74-10.99,12.5s-1.14,11.39-.96,17.04c.1,3.03.17,6.07-.03,9.09s-.6,5.85-.95,8.77c-.81,6.7-1.62,13.42-1.67,20.18s.55,14.34,4.06,20.47c.96,1.67,3.55.17,2.59-1.51-2.91-5.08-3.55-11.18-3.64-16.93-.11-6.56.58-13.12,1.35-19.62.67-5.67,1.46-11.29,1.38-17.02s-.7-11.19.14-16.7c.41-2.74,1.23-5.41,2.78-7.74,1.81-2.73,4.53-4.59,7.46-5.94,1.75-.81.23-3.39-1.51-2.59h0Z"/><path class="cls-6" d="m297.69,280.68c1.1,1.04,2,1.97,3.5,2.38.5.14,1.1,0,1.46-.39,2.96-3.13,4.41-7.39,5.18-11.55s1-8.63.81-12.96c-.09-1.92-3.09-1.93-3,0,.18,3.94.06,7.94-.64,11.83s-1.8,7.73-4.47,10.55l1.46-.39c-.95-.26-1.49-.96-2.18-1.61-1.4-1.32-3.53.79-2.12,2.12h0Z"/><path class="cls-6" d="m249.74,202.68c.76,3.13,2.14,6.02,4.07,8.6,1.81,2.43,3.94,4.61,5.72,7.07,2.07,2.85,3.43,5.87,3.67,9.41s-.2,6.8-.04,10.2c.33,7.03,3.46,13.2,6.44,19.42,1.45,3.02,2.78,6.09,3.62,9.34s1.02,6.69,1.69,10c1.34,6.6,4.39,12.17,9.5,16.6,1.45,1.26,3.58-.85,2.12-2.12-4.41-3.82-7.16-8.42-8.47-14.1-.73-3.17-.94-6.43-1.59-9.61s-1.91-6.49-3.32-9.57c-2.75-6.04-6.32-11.97-6.92-18.72-.3-3.37.08-6.74,0-10.12s-.79-6.87-2.58-9.9-4.01-5.42-6.16-8.02c-2.29-2.78-4.02-5.77-4.88-9.29-.46-1.87-3.35-1.08-2.89.8h0Z"/><path class="cls-6" d="m290.42,297.32c2.52,2.19,5.92,3.73,8.99,1.62,2.73-1.88,4.16-5.24,5.34-8.22,1.33-3.35,2.52-6.67,3.86-9.96,2.25-5.54,3.73-11.28,4-17.27s-.06-12.19-.63-18.23c-.18-1.91-3.18-1.92-3,0,.96,10.13,1.55,20.58-1.67,30.37-1.23,3.74-2.91,7.29-4.23,11-1.01,2.85-2.02,5.92-3.86,8.36-.69.92-1.61,1.81-2.73,1.98-1.38.21-2.89-.84-3.95-1.77-1.45-1.26-3.58.85-2.12,2.12h0Z"/><path class="cls-6" d="m305.92,186.86c-.51-2.34-1.94-4.29-4.42-4.67-2.32-.35-4.68.48-6.83,1.26-2.51.91-4.93,1.77-7.61,2.02-2.84.27-5.66-.03-8.32-1.12s-5.06-2.83-7.31-4.6c-2.68-2.1-5.28-4.3-7.78-6.62-3.46-3.2-6.63-6.77-10.44-9.57-4.77-3.5-10.57-4.91-16.33-5.76-1.89-.28-2.7,2.61-.8,2.89,4.99.74,10.06,1.81,14.35,4.58,3.62,2.34,6.54,5.65,9.64,8.61,2.26,2.16,4.61,4.23,7.03,6.21s4.9,4,7.62,5.58c5.06,2.94,10.75,3.52,16.41,2.14,2.49-.61,4.81-1.79,7.29-2.42.94-.24,2.08-.5,3.02-.16,1.04.37,1.36,1.42,1.58,2.42.41,1.89,3.3,1.09,2.89-.8h0Z"/><path class="cls-6" d="m308.98,209.26c0,7.62.39,15.24.39,22.86,0,1.93,3,1.93,3,0,0-7.62-.39-15.24-.39-22.86,0-1.93-3-1.93-3,0h0Z"/><path class="cls-6" d="m202.12,127.84c-.05.13-.1.26-.16.39-.04.09-.18.43-.07.17-.14.34-.29.67-.43,1.01-.31.73-.61,1.45-.89,2.19-.49,1.32-.93,2.74-.92,4.16,0,1.28.28,2.77,1.3,3.66.95.84,2.15.98,3.36.79s2.27-.71,3.29-1.27c.69-.38.97-1.39.54-2.05-.45-.7-1.31-.94-2.05-.54-.19.1-.38.21-.58.3-.13.07-.45.29-.59.28,0,0,.29-.11.13-.05-.05.02-.09.04-.14.05-.11.04-.21.08-.32.12-.19.07-.39.13-.59.18-.09.02-.18.04-.27.06.01,0-.17.03-.18.03,0-.01.34-.03.18-.03-.18,0-.36.02-.54.02-.29,0,0-.06.09.02-.03-.03-.21-.05-.26-.06-.25-.06.12.08.08.04-.01-.01-.23-.13-.22-.13.01-.01.32.27.04,0-.19-.18.06.12.03.05-.03-.07-.09-.16-.13-.23-.16-.28.05.2-.01-.04-.03-.12-.07-.24-.1-.36-.01-.06-.06-.39-.04-.21s-.01-.2-.02-.26c0-.16-.01-.32,0-.48,0-.14.01-.28.02-.42,0-.06.01-.12.02-.19,0,.02-.05.25,0,.08.07-.31.12-.62.2-.93.16-.61.36-1.2.58-1.79.12-.32.25-.64.38-.96.06-.16.13-.32.19-.47.04-.09.07-.18.11-.27-.06.14-.03.06.01-.03.29-.67.58-1.35.85-2.03.29-.73-.32-1.68-1.05-1.85-.87-.2-1.53.26-1.85,1.05h0Z"/><path class="cls-6" d="m205.41,138.53c-3.62-2.2-8.76-.68-11.93,1.68-3.44,2.56-6.05,6.53-10.88,5.84-1.17-.17-2.5.99-1.69,2.2,1.26,1.9,2.33,3.9,4.38,5.07,2.54,1.45,5.53,1.62,8.39,1.55,5.23-.12,9.37-2.82,12.92-6.47l-2.36-.3c3.23,4.7,8.31,6.85,13.93,5.91,5.22-.87,10.1-4.11,13.34-8.23.86-1.09.11-2.96-1.46-2.51-2.38.68-4.79.66-7.05-.41s-3.86-2.7-5.7-4.25-4.09-3.04-6.56-2.9-4.4,2-6.7,2.89c-1.78.69-1.01,3.59.8,2.89,1.16-.45,2.2-1.06,3.27-1.69.98-.57,2.11-1.24,3.29-1.1,2.44.3,4.25,2.54,6.01,4.01,3.91,3.26,8.41,4.89,13.44,3.44l-1.46-2.51c-5.25,6.67-16.66,11.52-22.57,2.93-.53-.78-1.64-1.04-2.36-.3-2.86,2.95-6.15,5.38-10.4,5.58-2.3.1-4.84.1-6.94-.96-1.76-.89-2.58-2.59-3.63-4.17l-1.69,2.2c2.23.32,4.32.18,6.38-.78,1.89-.88,3.46-2.34,4.99-3.73,2.59-2.36,7.12-5.5,10.72-3.31,1.65,1.01,3.16-1.59,1.51-2.59h0Z"/><path class="cls-6" d="m216.45,131.18c.03-.06.07-.12.11-.18.11-.19-.3.32-.07.1.04-.04.07-.08.11-.11.12-.11.3-.17-.1.07.11-.06.21-.14.32-.2.15-.08.33-.07-.11.04.05-.01.11-.04.16-.06.13-.04.26-.08.39-.1s.44-.04-.11,0c.08,0,.16-.02.24-.02.29-.02.57,0,.86.03-.59-.05-.06,0,.09.03.14.03.28.07.41.12.12.04.4.19-.08-.04.06.03.13.06.19.09.13.07.26.14.38.22.05.03.09.07.14.1-.4-.23-.2-.16-.08-.05.05.05.1.09.14.14.11.12.14.27-.07-.11.06.11.14.22.21.33.17.29-.1-.32-.04-.1.02.07.05.15.06.22.19.76,1.09,1.29,1.85,1.05s1.25-1.03,1.05-1.85c-.74-2.92-4.55-3.83-7.03-2.72-.67.3-1.27.84-1.62,1.48-.37.69-.19,1.67.54,2.05s1.65.2,2.05-.54h0Z"/><path class="cls-6" d="m188.44,132.69c.09-.14.19-.28.28-.42.1-.15-.24.29-.05.06.05-.05.09-.11.14-.16.1-.12.21-.23.32-.33.05-.05.1-.09.15-.14.19-.16,0,.02-.08.06.24-.12.46-.29.69-.41.16-.08-.35.13-.12.05.06-.02.12-.04.17-.06s.33-.13.39-.09c-.02-.01-.43.04-.15.02.06,0,.12,0,.18,0,.12,0,.24.02.36.02-.41,0-.27-.04-.11,0,.06.01.12.03.18.04s.12.04.18.06c.26.07-.25-.13-.11-.05.13.07.26.13.38.2.06.04.11.08.17.11.15.1-.27-.23-.07-.06.11.1.22.19.32.3.06.07.13.14.19.21s.25.32,0,0c.24.32.49.58.9.69.36.1.84.05,1.16-.15.62-.4,1.04-1.38.54-2.05-.55-.73-1.19-1.43-2.04-1.83-.75-.35-1.56-.55-2.39-.45-1.81.22-3.22,1.36-4.16,2.88-.41.67-.17,1.68.54,2.05s1.61.18,2.05-.54h0Z"/><path class="cls-6" d="m198.27,159.84c-2.58,2.57-5.67,5.18-5.9,9.08-.13,2.18.82,4.06,1.48,6.08.33,1.02.59,2.11.29,3.17-.27.97-.74,1.89-.71,2.92.06,1.93,3.06,1.93,3,0-.03-.8.5-1.62.67-2.4.23-1.04.18-2.09-.01-3.14-.37-2-1.6-3.8-1.72-5.85-.19-3.3,2.92-5.63,5.02-7.73,1.37-1.36-.75-3.49-2.12-2.12h0Z"/><path class="cls-6" d="m202.48,165.7c-.24,1.33-.86,2.57-1.22,3.88-.42,1.52-.59,3.32.38,4.67.45.64,1.33,1,2.05.54.63-.41,1.03-1.37.54-2.05-.09-.12-.16-.25-.23-.38-.12-.22.05.24.03.07,0-.07-.05-.15-.06-.21-.01-.06-.02-.12-.04-.17-.07-.29,0,.26,0,.09,0-.15-.02-.31-.02-.46,0-.14.02-.28.03-.43.03-.34-.07.35,0,.01.01-.07.02-.13.04-.2.07-.33.15-.66.25-.99.36-1.19.92-2.35,1.14-3.58.14-.77-.21-1.65-1.05-1.85-.73-.17-1.7.22-1.85,1.05h0Z"/><path class="cls-6" d="m207.48,161.9c.11.38.21.77.29,1.16.04.2.08.4.11.6.02.13.04.29.01.07.01.09.02.18.03.27.04.4.06.81.06,1.21,0,.22,0,.45-.02.67,0,.09-.01.18-.02.27,0,.04-.04.4-.02.19.02-.18-.02.09-.02.13-.02.11-.04.21-.06.32-.04.19-.09.38-.14.57s-.12.37-.18.55c-.05.14-.05.12,0,0-.04.1-.09.19-.14.29-.09.17-.18.34-.28.5-.04.07-.09.14-.14.21,0,0-.23.3-.11.16.11-.13-.07.07-.09.1-.07.08-.14.16-.22.24-.16.16-.32.3-.49.44-.61.5-.56,1.61,0,2.12.65.59,1.47.53,2.12,0,3.15-2.59,3.24-7.23,2.18-10.85-.22-.75-1.07-1.3-1.85-1.05s-1.28,1.04-1.05,1.85h0Z"/><path class="cls-6" d="m226.05,130.22c0,1.12-.01,2.25-.1,3.37-.02.31-.05.63-.09.94,0,.05-.06.51-.04.34s-.04.29-.05.34c-.1.6-.22,1.19-.39,1.77-.08.27-.17.54-.27.81-.03.08-.06.16-.09.24.06-.14.07-.16.03-.06-.06.13-.12.27-.19.4-.13.26-.28.51-.44.75-.04.06-.26.36-.05.09-.09.11-.18.22-.28.32-.18.19-.37.37-.57.54.28-.23-.14.08-.19.12-.11.07-.21.13-.32.19-.1.05-.35.16-.1.06-.16.07-.33.12-.5.17-.13.04-.26.07-.4.1-.09.02-.18.04-.28.05.16-.02.15-.02-.04,0-.81.09-1.5.63-1.5,1.5,0,.74.69,1.59,1.5,1.5,1.6-.18,3.04-.71,4.23-1.81,1.06-.99,1.75-2.32,2.21-3.68.87-2.57.93-5.38.93-8.06,0-1.93-3-1.93-3,0h0Z"/><path class="cls-6" d="m200.09,154.09c1.38,1.16,3.09,1.95,4.9,2.06.88.05,1.82-.13,2.59-.58.93-.55,1.53-1.45,1.86-2.46.25-.75-.28-1.67-1.05-1.85-.83-.19-1.58.25-1.85,1.05-.02.05-.15.4-.04.14s-.04.06-.06.11c-.04.07-.08.13-.12.19-.1.14-.2.15.06-.07-.11.09-.22.22-.32.32-.09.07-.03.03.17-.13-.04.03-.07.05-.11.07-.06.03-.12.07-.17.1-.15.08-.24.03.12-.04-.06.01-.13.05-.19.07-.15.05-.31.07-.47.11.11-.03.4-.04.12-.02-.07,0-.14,0-.21,0-.16,0-.31,0-.47-.02-.32-.02.27.05.1.02-.09-.02-.17-.03-.26-.04-.15-.03-.3-.07-.44-.11-.16-.04-.32-.1-.48-.15-.09-.03-.17-.06-.25-.1-.25-.09.33.15.07.03-.3-.14-.59-.29-.87-.46-.12-.08-.25-.16-.37-.24-.06-.04-.11-.09-.17-.13.41.28.13.1.03.02-.6-.51-1.54-.63-2.12,0-.51.56-.64,1.58,0,2.12h0Z"/><path class="cls-6" d="m237.46,114.65c2.12-8.03-.23-16.23-.03-24.35.09-3.75.95-7.18,2.81-10.44s3.99-5.9,6-8.83c2.18-3.18,4.2-6.62,4.79-10.48.18-1.18-.65-2.06-1.85-1.85-6.41,1.15-12.52,3.42-18.79,5.13-5.85,1.59-11.58,3.05-17.07,5.69s-10.22,5.73-14.08,10.14-6.72,9.29-9.92,14.03c-4.01,5.94-8.14,11.89-10.98,18.5-.75,1.75,1.83,3.28,2.59,1.51,2.48-5.78,5.96-11.05,9.46-16.25,3.18-4.72,6.11-9.69,9.67-14.13,7.3-9.12,18.33-13.39,29.35-16.15,6.9-1.73,13.56-4.34,20.57-5.6l-1.85-1.85c-1.08,6.94-6.65,12.17-10.13,17.98-1.88,3.15-3.04,6.45-3.42,10.1-.43,4.08.03,8.19.39,12.25.41,4.59.78,9.28-.41,13.79-.49,1.87,2.4,2.67,2.89.8h0Z"/><path class="cls-6" d="m351.4,160.7c-.02.11-.06.21-.09.31-.06.18-.12.36-.18.54-.1.31-.2.62-.33.92l.15-.36s0,.02-.01.02c-.11.17-.17.36-.18.56-.04.2-.04.4.03.6.05.2.14.37.27.51.11.16.25.29.42.39.35.18.77.28,1.16.15.35-.11.73-.34.9-.69.15-.31.26-.64.38-.97.1-.3.2-.6.3-.9.03-.09.06-.19.08-.28.06-.2.07-.4.03-.6,0-.2-.07-.39-.18-.56-.09-.17-.22-.32-.39-.42-.14-.13-.31-.22-.51-.27-.38-.09-.81-.07-1.16.15l-.3.23c-.19.19-.31.41-.39.66h0Z"/><path class="cls-5" d="m398.91,198.03c-.17,10.4-1.77,20.79-4.38,30.85-2.75,10.59-6.68,21.04-12.59,30.3-3.06,4.8-6.7,9.23-11.08,12.89-1.48,1.24.65,3.35,2.12,2.12,8.23-6.87,13.96-16.39,18.17-26.13,4.52-10.47,7.52-21.58,9.24-32.84.87-5.69,1.43-11.43,1.52-17.19.03-1.93-2.97-1.93-3,0h0Z"/><path class="cls-1" d="m305.08,242.97c-2.9,8.7-5.8,17.41-8.7,26.11l-1.88,5.64c-.13.38-.31.78-.39,1.17-.04.21.43-.96,0-.03-.24.51-.48,1.01-.73,1.52-3.01,6.14-6.33,12.13-9.65,18.11-7.24,13.06-14.76,25.93-22.54,38.68-4.23,6.93-8.2,13.94-11.32,21.46-1.84,4.44-3.37,8.99-4.85,13.55-.46,1.41-.98,2.81-1.54,4.18-.16.39-.32.78-.48,1.18-.09.22-.19.45-.28.67.05-.12.19-.45-.05.11-.39.91-.79,1.81-1.19,2.72-3.43,7.68-7.21,15.2-10.84,22.79-.79,1.66-1.58,3.31-2.35,4.98-.33.71-.65,1.42-.96,2.13-.14.33-.29.65-.43.98-.06.14-.12.28-.18.42s-.46,1.08-.34.8c-2.2,5.15-4.91,10.07-7.23,15.17-1.14,2.51-2.21,5.05-3.07,7.67-.51,1.54.59,3.28,2.1,3.69,1.63.45,3.18-.55,3.69-2.1,1.71-5.18,4.27-10.02,6.67-14.9.6-1.22,1.19-2.44,1.77-3.68.25-.54.5-1.08.74-1.62.15-.33.29-.67.44-1.01.07-.16.73-1.71.49-1.16-.16.37.23-.54.3-.69.13-.3.26-.6.39-.89.36-.81.73-1.62,1.1-2.42,3.46-7.47,7.19-14.82,10.67-22.28,1.71-3.66,3.38-7.34,4.87-11.09s2.61-7.67,3.98-11.49c2.69-7.48,6.1-14.47,10.25-21.48,3.9-6.57,7.99-13.03,11.85-19.62s7.36-12.73,10.95-19.14,7.22-12.94,10.61-19.53c1.02-1.99,2.18-4.01,2.94-6.12.43-1.18.8-2.39,1.2-3.59,3.18-9.54,6.36-19.08,9.54-28.61.08-.23.15-.46.23-.69.51-1.54-.59-3.28-2.1-3.69-1.64-.45-3.18.55-3.69,2.1h0Z"/><path class="cls-1" d="m312.73,242.34c1.84-7.38,5.54-14.25,9.15-20.88,3.86-7.08,7.9-14.02,11.34-21.32,2.09-4.43,4.03-8.95,5.65-13.58.53-1.53-.61-3.28-2.1-3.69-1.65-.45-3.15.56-3.69,2.1-2.77,7.94-6.51,15.54-10.51,22.91-3.73,6.87-7.74,13.58-11.04,20.68-1.83,3.93-3.54,7.97-4.59,12.19-.93,3.75,4.85,5.35,5.79,1.6h0Z"/><path class="cls-1" d="m352.86,148.64c-.5.64.15-.27-.19.18-.26.12-.29.14-.1.05.2-.09.15-.08-.14.03-.67.16-1.33.37-2,.54-1.51.37-2.89.82-4.11,1.83l4.24,4.24c2.41-2.76,4.88-5.53,6.81-8.66,2.26-3.66,3.7-7.77,5.25-11.76,3.35-8.66,7-17.17,10.69-25.68,3.47-8.01,6.68-16.2,10.51-24.04,3.35-6.85,7.46-13.54,13.32-18.51,1.3-1.1,2.81-2.14,4.41-3.01.63-.34,1.27-.66,1.92-.95.17-.07.33-.15.5-.22-.12.05-.5.19.05-.01.35-.13.7-.27,1.05-.4,1.45-.53,2.93-.96,4.44-1.29.67-.15,1.34-.28,2.02-.38.19-.03.39-.06.58-.09-.13.02-.53.05.08,0,.39-.04.78-.08,1.17-.11,1.53-.11,3.07-.11,4.6.04.14.01.28.03.42.05.49.06-.44-.08.03,0,.32.06.64.11.95.18.71.15,1.41.34,2.1.57.13.05,1.09.43.53.18.32.14.64.3.95.46.27.14.54.3.8.46.13.08,1.04.72.58.36.49.38.94.8,1.36,1.26.08.09.74.89.4.43.22.29.43.6.62.92s.38.66.55,1c.09.17.17.35.25.53-.05-.13-.17-.45.04.12.3.83.54,1.67.82,2.51.63,1.88,1.3,3.75,1.77,5.69.39,1.63.67,3.42.31,4.87-.23.93-.22.82-.66,1.59s-.9,1.4-1.29,1.84c-2.4,2.78-5.27,4.97-8.26,7.03-2.71,1.87-5.47,3.82-8.37,5.38-.29.16-.59.31-.89.45-.16.08-.33.16-.5.23.11-.05.52-.19-.01,0-.6.22-1.21.38-1.83.55-.2.06-.52,0,.16-.02-.02,0-.3.03-.3.02,0,0-1.09-.09-.15.04-.51-.07-.32-.26-.05.06-.05-.06-.25-.12-.31-.17.21.16.44.41.12.08-.06-.07-.12-.14-.19-.2.64.64.13.25.13.12,0-.05-.16-.3-.2-.38.07.14.15.57.06.07-.06-.3-.15-.59-.21-.9-.09-.47.03.43,0-.09-.02-.28-.04-.55-.04-.83-.01-.43,0-.87.02-1.3.01-.21.02-1.1,0-.27-.02.74-.08.34-.02.24.05-.07.08-.21.1-.29.14-.6-.32.65-.06.13.9-1.84,1.78-3.71,2.54-5.62s1.4-4.03.78-6.04c-.96-3.1-4.36-3.45-7.03-2.61-1.55.49-3.09,1.06-4.02,2.46-.56.84-.9,1.85-1.16,2.82-.69,2.66-.92,5.49-1.01,8.22-.09,2.55-.08,5.24.51,7.73.71,3.03,3.37,4.9,6.39,5.19,3.24.32,6.5-1.19,9.27-2.7,2.55-1.39,4.91-3.09,7.41-4.57,3.02-1.8,6.04-3.64,8.85-5.76,5.57-4.21,10.23-9.53,11.8-16.51.83-3.72.87-7.57.41-11.34-.41-3.44-1.21-6.89-3.1-9.84-4.63-7.23-13.85-9.15-21.9-8.93-4.21.11-8.76.58-12.78,1.88-3,.97-5.65,2.57-8.09,4.55-5.05,4.08-8.8,9.73-11.92,15.35s-5.9,12.04-8.48,18.22c-.52,1.26-1.04,2.51-1.57,3.77-.14.33-.27.65-.41.98s.03-.08.05-.12c-.07.16-.13.31-.2.47-.26.6-.51,1.2-.78,1.8l5.48,2.31c.99-5.88,3.21-11.65,5.63-16.89,2.86-6.19,6.26-12.21,10.39-17.65.31-.41.87-1.11,1.38-1.71s1.02-1.19,1.55-1.76c1.07-1.15,2.19-2.25,3.4-3.25,2.29-1.89-.16-6.01-2.92-5.01-3.05,1.1-5.29,3.74-7.19,6.25s-3.56,5.2-3.9,8.3,4.2,3.93,5.59,1.51c1.75-3.03,4.07-5.87,6.94-7.85,1.46-1,3.01-1.84,4.62-2.36.83-.27,1.67-.47,2.52-.63.28-.05.56-.09.84-.14.35-.05.34-.05-.01,0,.18-.02.37-.05.55-.07,3.21-.36,6.48-.43,9.69-.16,1.43.12,2.57.27,4.21.72.28.08.55.16.83.25.11.04,1.16.45.55.18.59.26,1.15.58,1.67.97l1.51-5.59c-5.51.3-11.04.31-16.5,1.2s-10.78,3.15-15.3,6.67c-2.34,1.83.2,6.05,2.92,5.01,5.78-2.2,11.65-4.3,17.75-5.42.37-.07.74-.13,1.11-.19.21-.03.42-.07.63-.1.53-.08-.38.05.15-.02.88-.11,1.76-.2,2.64-.24.75-.04,1.5-.06,2.25-.04.39,0,.78.03,1.16.05.15.01,1.35.15.75.06.71.11,1.42.25,2.11.46.29.09.58.18.87.29.08.03.58.24.24.09-.37-.16.26.14.33.17.3.15.58.32.87.5.14.09.27.19.41.28-.1-.07-.42-.39-.02-.01.24.23.49.44.72.69.12.13.23.26.34.39-.28-.33.03.04.13.2,1.14,1.73,1.76,3.24,2.34,5.19.29.99.54,2.01.69,3.03.08.54-.03-.37.02.15.02.25.05.5.06.75.02.45.01.9-.02,1.36l5.59-1.51c-1.91-2.96-3.14-6.17-3.83-9.62l-5.48,2.31c1.84,2.46,3.16,5.17,3.94,8.13s.94,5.73.04,8.46c-1.06,3.24,3.83,5.26,5.48,2.31.71-1.26,1.13-2.62,1.4-4.04.22-1.14.32-2.43.81-3.5h-5.18c.2.41.4.93.57,1.52.07.25.13.51.19.77.03.15.06.3.09.45-.03-.25-.04-.27-.01-.06.04.53.03,1.04.01,1.56-.02.64.13-.37-.05.29-.06.22-.1.44-.16.66s-.14.43-.2.64c-.19.65.17-.27-.11.28-.25.49-.51.97-.81,1.43-.13.19-.26.38-.4.57-.18.25.2-.23-.14.17-.37.44-.76.87-1.17,1.28-1.69,1.71-2.9,2.58-4.8,3.88s-3.68,2.41-5.5,3.67c-1.33.92-1.94,2.63-1.08,4.1.77,1.32,2.76,2,4.1,1.08,4.21-2.91,8.88-5.46,12.31-9.34,1.72-1.95,3.22-4.26,3.74-6.85.65-3.21,0-6.24-1.41-9.16-.92-1.93-4.28-1.99-5.18,0-.61,1.35-.99,2.69-1.26,4.15-.21,1.15-.39,2.4-.94,3.39l5.48,2.31c2.29-7-.3-15.48-4.59-21.21-.9-1.2-2.28-1.87-3.75-1.23s-2.04,2.03-1.74,3.54c.78,3.91,2.28,7.71,4.43,11.06,1.67,2.59,5.36,1.44,5.59-1.51.31-4.03-1.16-8.49-3.01-12.02-1.74-3.33-4.52-5.64-8.1-6.76-3.39-1.06-7.11-1.03-10.6-.6-3.89.48-7.69,1.35-11.43,2.48-3.37,1.02-6.67,2.24-9.96,3.49l2.92,5.01c7.89-6.17,18.11-5.61,27.56-6.12,3.14-.17,3.87-3.84,1.51-5.59-2-1.49-4.62-2.15-7.04-2.53-3.02-.47-6.06-.63-9.12-.52-2.62.1-5.31.31-7.87.92-3.38.8-6.45,2.48-9.16,4.61-3.03,2.37-5.51,5.43-7.43,8.76l5.59,1.51c-.11.99.17-.41.27-.7.08-.2.05-.15-.07.15.07-.16.14-.32.22-.48.12-.25.25-.5.38-.74.61-1.13,1.32-2.21,2.09-3.24.12-.16.13-.17.02-.03.1-.13.2-.25.3-.37.23-.28.47-.56.71-.84.4-.45.81-.88,1.24-1.29.2-.19.4-.38.61-.56.17-.15.63-.47.19-.16.19-.13.39-.24.57-.38.66-.48-.21.02.16-.11l-2.92-5.01c-4.92,4.06-8.73,9.55-12.01,14.97-3.71,6.11-6.84,12.63-9.25,19.36-1.12,3.12-2.08,6.31-2.63,9.59-.25,1.47.26,2.95,1.74,3.54,1.25.5,3.14.16,3.75-1.23,2.5-5.7,4.38-10.63,6.88-16.12,2.68-5.89,5.67-11.7,9.54-16.91.34-.46.1-.15.37-.49.25-.32.5-.63.76-.94.51-.61,1.03-1.2,1.57-1.78.98-1.05,2.03-2.02,3.13-2.94.07-.06.44-.36.05-.05.11-.08.22-.17.33-.25.26-.19.52-.38.78-.56.59-.4,1.21-.78,1.84-1.13.31-.17.63-.33.95-.49.13-.06.87-.38.61-.28s.49-.18.62-.22c.37-.13.75-.25,1.13-.35,4-1.1,8.31-1.54,12.44-1.45,3.85.08,7.95.75,11.16,2.64,1.21.71,2.23,1.57,3.03,2.58.63.78,1.47,2.43,1.74,3.19,1.16,3.24,1.38,5.97,1.35,9.45-.01,1.85-.13,3.11-.53,4.84-.18.79-.41,1.57-.68,2.34-.12.35-.25.69-.39,1.03.15-.35-.27.56-.34.7-.34.68-.72,1.35-1.13,1.99-.19.3-.39.59-.59.88-.12.17-.24.33-.36.49.24-.31-.1.13-.19.23-.98,1.2-2.06,2.3-3.21,3.34-2.35,2.1-4.92,3.82-7.8,5.61-2.55,1.58-5.1,3.15-7.64,4.74-1.31.83-2.65,1.62-4.03,2.31-1.25.62-2.16.99-3.81,1.33.56-.11-.13,0-.36.02-.29,0-.57,0-.86-.03.75.07-.16-.09-.35-.15.59.18-.07-.06-.32-.24.62.43-.35-.48,0-.02.28.37.01,0-.03-.11.47,1.05,0-.18-.08-.54-.05-.24-.08-.49-.13-.73.11.59.03.26,0-.13-.06-.62-.1-1.25-.12-1.88-.05-1.32-.03-2.64.04-3.96.03-.67.08-1.35.14-2.02.03-.31.06-.61.09-.91.02-.17.04-.34.06-.51.06-.47-.13.72.01-.07.19-1.06.39-2.08.69-3.11.17-.58-.03.03-.04.04.05-.05.2-.33.22-.42.07-.3-.52.54-.13.18-.1.1-.42.45-.39.32.01-.05.52-.22.17-.07.59-.24,1.19-.4,1.8-.57.69-.18-.46.05.03,0,.72-.07-.47-.16-.03-.02-.56-.17-.8-.53-1.11-1.01-.28-.43-.06-.13-.02.08-.19-1.02-.06-.41-.08-.08-.04.64.18-.59.02-.13-.07.2-.09.44-.14.65-.12.47-.28.93-.44,1.39-.08.21-.16.42-.24.63-.24.64.18-.38-.04.1s-.43.96-.65,1.43c-.37.78-.75,1.55-1.11,2.34-1.14,2.51-1.29,5.17-.62,7.87.75,3.03,3.18,5.2,6.37,5.16,2.93-.03,5.76-1.53,8.18-3.04,6.09-3.79,12.75-7.85,17.15-13.62,1.03-1.36,1.91-2.85,2.4-4.49.63-2.12.5-4.34.17-6.49-.3-1.93-.88-3.81-1.5-5.66-.56-1.67-1.04-3.38-1.7-5.01-5.3-13.02-21.95-11.9-32.65-7.09-7.01,3.15-12.38,9.12-16.57,15.41-4.41,6.62-7.39,13.96-10.54,21.23-3.58,8.27-7.18,16.54-10.72,24.82-1.9,4.45-3.69,8.93-5.44,13.44-1.45,3.76-2.79,7.61-4.9,11.07-1.74,2.86-3.66,4.95-5.96,7.59-2.56,2.94,1.28,6.7,4.24,4.24-.37.27-.41.32-.12.14-.37.14-.39.15-.06.03.26-.08.52-.16.78-.24.67-.19,1.35-.33,2.02-.51,1.37-.37,3.01-.88,3.92-2.05.99-1.28,1.25-3,0-4.24-1.03-1.03-3.24-1.29-4.24,0h0Z"/><path class="cls-6" d="m337.75,172.2c-4.19,8.77-9.3,17.05-13.37,25.87s-7.41,17.59-11.28,26.32c-1.95,4.4-4.16,8.67-6.13,13.06s-3.6,8.55-5.21,12.9c-3.28,8.86-6.15,17.87-9.59,26.68s-7.93,17.51-12.95,25.8c-5.16,8.54-10.38,17.05-15.57,25.57-4.64,7.61-10.38,14.51-14.62,22.37-2.19,4.08-3.83,8.2-4.41,12.81-.3,2.4-.44,4.82-.98,7.18s-1.38,4.47-2.38,6.58c-1.99,4.2-4.26,8.24-6.2,12.47-2.08,4.52-4.02,9.1-5.99,13.67s-3.97,9.11-6.16,13.57c-2,4.05-4.53,7.9-6.27,12.06-.85,2.02-1.33,4.1-1.46,6.29-.04.63.49,1.31,1.1,1.45,1.68.39,3.56.38,5.24-.01.5-.12.92-.56,1.05-1.05,2.3-8.55,6.98-16.15,10.9-24.01,4.24-8.53,7.55-17.54,11.38-26.26,7.75-17.64,17.29-34.38,26.05-51.51s19.14-32.25,27.42-49.08c7.85-15.95,11.26-33.56,17.49-50.12,1.48-3.95,3.17-7.69,5.46-11.24s4.71-6.6,7.07-9.89,4.55-6.8,6.25-10.56c1.26-2.78,2.26-5.68,3.6-8.43.78-1.6,1.67-3.14,2.6-4.67,1-1.66-1.59-3.16-2.59-1.51-3.62,5.97-5.49,12.74-9.13,18.7-4.25,6.97-10.02,12.98-13.53,20.41-3.72,7.86-6.12,16.43-8.64,24.73s-5.13,17.13-8.58,25.38-8.31,16.64-12.99,24.63-9.63,16.11-14.04,24.39-8.89,17.08-13.38,25.58-8.98,17.13-13.03,25.9-7.71,17.9-11.56,26.85c-3.5,8.13-8.31,15.64-11.59,23.87-.79,1.98-1.47,3.99-2.02,6.04l1.05-1.05c-1.15.27-2.5.28-3.65.01l1.1,1.45c.26-4.55,2.83-8.29,4.93-12.18,2.32-4.31,4.39-8.75,6.37-13.22,3.96-8.93,7.56-18.02,12.1-26.67,2.08-3.97,4.23-8.03,5.1-12.47s.81-9.32,2.63-13.76c3.39-8.27,9.09-15.35,14.03-22.7,2.59-3.85,4.85-7.89,7.25-11.86,2.56-4.24,5.19-8.43,7.8-12.63,5.14-8.29,10.13-16.63,14.01-25.6s6.68-17.45,9.78-26.27,6.6-17.52,10.69-26.01,7.59-17.54,11.38-26.32c1.87-4.33,3.82-8.62,5.97-12.81s4.62-8.29,6.8-12.51c1.14-2.21,2.25-4.45,3.32-6.69.83-1.73-1.76-3.26-2.59-1.51h0Z"/><path class="cls-6" d="m410.23,79.73c-3.57-1.25-7.37-1.9-11.15-1.79-.86.02-1.44.67-1.5,1.5-.28,3.77-1.57,7.46-2.2,11.17-.67,3.92-1.17,8.39.75,12.05s6.14,5.07,10.05,4.69c4.56-.44,8.85-2.54,12.76-4.82,3.62-2.11,6.98-4.61,10.52-6.85,3.31-2.1,6.92-3.94,9.77-6.67s4.28-6.26,4.82-10.08c.66-4.65.49-9.5-.12-14.15s-1.75-9.74-4.47-13.77c-1.91-2.82-4.42-4.47-7.64-5.48-7.45-2.34-15.96-1.84-23.56-.62-3.62.58-7.25,1.42-10.65,2.83s-5.81,3.5-8.2,6.32c-6.93,8.18-11.13,18.26-14.88,28.19-1.87,4.94-3.62,9.93-5.58,14.84-2.42,6.08-5.1,12.07-7.69,18.09s-5.28,12.28-7.76,18.48c-2.18,5.47-4.08,11.01-6.73,16.28-1.26,2.5-2.49,5-3.6,7.57-.76,1.75,1.82,3.28,2.59,1.51,2.02-4.66,4.53-9.08,6.47-13.78,2.42-5.88,4.55-11.87,7-17.74,4.65-11.14,9.79-22.09,14.06-33.38,3.62-9.56,6.82-19.36,11.77-28.35,2.36-4.29,5.12-8.37,8.55-11.89,1.94-1.99,4.26-3.16,6.99-4.07,7.1-2.38,14.95-3.18,22.41-2.73,3.19.19,6.53.63,9.5,1.88s4.85,3.83,6.13,6.86c1.81,4.3,2.48,9.09,2.71,13.71.21,4.2.28,8.72-1.17,12.72-1.12,3.08-3.48,5.24-6.14,7.02-3.21,2.14-6.55,4.06-9.74,6.23-3.46,2.36-6.95,4.68-10.73,6.5-3.4,1.63-7.66,3.24-11.43,2s-4.41-4.76-4.33-8.14c.09-3.96,1.15-7.83,1.99-11.67.34-1.57.67-3.15.79-4.75l-1.5,1.5c3.54-.1,7.01.51,10.35,1.69,1.83.64,2.61-2.26.8-2.89h0Z"/><path class="cls-6" d="m357.57,152.7c2.77-6.38,5.64-12.69,8.27-19.13s5.18-12.76,7.85-19.11,5.41-12.53,8.35-18.69c2.69-5.65,5.73-11.01,8.94-16.39,2.39-4.01,4.51-8.36,7.64-11.86,1.38-1.54,2.81-2.4,4.81-2.92,2.27-.6,4.62-.88,6.95-1.14,2.14-.25,4.29-.46,6.4-.88,1.84-.36,3.85-.84,5.74-.56,1.56.23,2.68,1.17,3.51,2.48,1.36,2.15,2.2,4.74,2.78,7.21.62,2.66.69,5.48-.53,7.99s-3.59,4.58-5.68,6.53c-4.3,4.02-8.84,8.04-13.93,11.05l2.05.54c-1.78-2.6-.33-6.15.4-8.88.78-2.92,1.52-6.18-.58-8.73-1.23-1.49-3.34.64-2.12,2.12.7.85.57,2.17.41,3.17-.25,1.58-.75,3.11-1.15,4.66-.78,2.99-1.42,6.44.45,9.17.46.66,1.31.98,2.05.54,4.87-2.88,9.26-6.69,13.43-10.49s8.18-7.4,8.61-13.16c.21-2.81-.49-5.66-1.41-8.3-.8-2.3-1.72-4.68-3.38-6.5-3.01-3.3-7.54-2.48-11.45-1.72-4.7.92-9.63.82-14.23,2.27s-7.23,5.66-9.63,9.57c-3.01,4.89-6.06,9.84-8.76,14.91-3.32,6.23-6.25,12.67-9.09,19.13-3.3,7.52-6.41,15.11-9.5,22.72s-6.48,15.28-9.79,22.9c-.76,1.75,1.82,3.28,2.59,1.51h0Z"/><path class="cls-6" d="m339.48,178.97c-1.49-.13-2.92.46-3.89,1.59s-1.11,2.58.02,3.63,3.01,1.37,4.5,1.62c1.69.28,3.43.47,5.14.43,1.59-.03,3.06-.6,4.53-1.16,1.72-.67,3.51-1.39,5.02-2.47,1.44-1.02,2.79-2.72,1.31-4.35-1.12-1.24-2.95.6-1.84,1.84-.06-.07-.12-.08-.1-.35-.02.3.02-.32,0,0,.02-.29-.11.1.02-.04-.09.09-.16.19-.25.27-.47.44-1.06.8-1.7,1.15-1.42.78-2.93,1.39-4.46,1.92-.53.18-1.07.39-1.62.51-1.1.24-2.32.08-3.43-.02-1.56-.14-3.2-.33-4.68-.89-.28-.11-.46-.25-.72-.39-.03.35.02.37.14.08.1-.1.2-.21.3-.3.51-.44,1.04-.52,1.7-.46,1.66.15,1.65-2.45,0-2.6h0Z"/><path class="cls-6" d="m336.71,185.97c-.25,2.89,4.42,3.55,6.38,3.75,3.19.33,7.08.07,9.79-1.81,1.55-1.07,2.53-2.62,2.6-4.53.06-1.67-2.53-1.67-2.6,0-.02.46-.13.88-.35,1.26-.07.11-.14.22-.22.33-.12.16.12-.15,0,0-.04.04-.07.09-.11.13-.11.11-.22.22-.33.33-.2.19-.07.07-.2.17-1.09.78-2.13,1.1-3.51,1.37-2.44.47-5.34.41-7.73-.4-.13-.05-.26-.09-.39-.15.3.12-.11-.05-.18-.09-.11-.05-.21-.11-.31-.17s-.37-.31-.1-.05c-.06-.06-.14-.15-.21-.19-.15-.09.15.25.01,0-.16-.28.09.25.01.02.02.06,0,.31.03.04.14-1.66-2.45-1.65-2.6,0h0Z"/><path class="cls-6" d="m344.88,169.71c1.6-.62,2.69-1.72,3.67-3.09.83-1.16,1.5-2.45,2.58-3.41,1.3-1.16,3.03-1.77,4.57-2.53,1.39-.68,2.66-1.53,3.74-2.64s2.07-2.51,2.05-4.11c-.02-1.4-.93-2.56-2.28-2.95-2.77-.8-5.65.77-7.9,2.19-1.78,1.12-3.54,2.09-5.47,2.94-1.69.75-3.14,1.74-4.41,3.09s.8,3.53,2.12,2.12c.9-.97,1.87-1.7,3.06-2.28,1.34-.65,2.73-1.15,4.02-1.91,1.44-.85,2.8-1.83,4.29-2.59.61-.31,1.61-.66,2.4-.72.23-.02.47-.03.7-.01.2.01.1-.04.39.07.18.07.09.08.08.02-.05-.19,0,.07,0,.06.01.81-1.04,1.86-1.7,2.46-2.09,1.9-5.03,2.48-7.25,4.23-1.19.93-2.02,2.13-2.84,3.38-.67,1-1.43,2.33-2.61,2.79-.76.29-1.28,1.01-1.05,1.85.2.72,1.09,1.34,1.85,1.05h0Z"/><path class="cls-2" d="m341.21,174.78c-1.73.71-6.25,1.54-4,4.21,1.51,1.79,6.2,1.71,8.31,1.59,2.71-.16,5.56-.8,7.88-2.15,1.62-.94,5.18-3.74,3.4-5.85"/><path class="cls-6" d="m340.86,173.53c-1.72.69-4.13,1.04-5.18,2.77-1.39,2.3,1.07,4.43,3.08,5.06,2.33.73,4.99.68,7.4.47,3.09-.27,6.3-1.07,8.85-2.91,2.03-1.47,4.91-4.37,2.9-6.99-.43-.56-1.11-.84-1.78-.47-.55.31-.89,1.22-.47,1.78,1.19,1.56-2.09,3.61-3.22,4.23-2.62,1.43-5.68,1.85-8.63,1.87-1.19,0-2.4-.03-3.57-.28-.86-.18-1.91-.43-2.33-1.29-.07-.15-.13-.09.09-.24.32-.23.66-.43,1.03-.59.81-.36,1.68-.57,2.51-.9,1.53-.61.86-3.12-.69-2.5h0Z"/><path class="cls-6" d="m344.08,166.82c-2.77.43-7.42,1.83-6.75,5.5s5.56,3.18,8.23,3.16,5.6-.27,8.28-.99,5.72-2.17,5.68-5.25c-.07-4.52-5.93-6.76-9.71-6.75-1.93,0-1.93,3.01,0,3,2.34,0,6.12,1.15,6.69,3.58.04.16.04.41-.03.6.04-.11-.16.28-.23.38.17-.23,0,0-.06.05-.12.11-.23.23-.35.33.19-.15-.22.14-.3.19-.22.14-.46.26-.7.37-.41.2-.88.35-1.43.51-2.21.65-4.38.87-6.67.96-.92.04-1.83.04-2.75.04-1.1,0-2.52.02-3.44-.48-.28-.15-.34-.22-.22-.52-.03.07.11-.16.26-.29.19-.17.48-.34.76-.49,1.08-.56,2.35-.82,3.55-1,.8-.12,1.24-1.13,1.05-1.85-.23-.86-1.04-1.17-1.85-1.05h0Z"/><path class="cls-3" d="m191.91,264.05c-.37-2.13-1.07-4.34-2.69-5.86-1.91-1.79-4.42-2.09-6.88-1.56-4.34.95-5.46,4.69-5.51,8.64-.04,2.93.36,5.86.69,8.77.46,4.07.76,8.13,1.38,12.18.83,5.46,1.95,10.87,3.25,16.24.45,1.84,2.42,3.39,4.34,3.3,2.16-.1,3.54-1.38,4.34-3.3,2.64-6.34,3.04-13.49,2.92-20.28s-.86-13.41-.87-20.13c0-2.35-2.07-4.61-4.5-4.5s-4.51,1.98-4.5,4.5c.02,6.58.73,13.13.86,19.71.07,3.3,0,6.61-.37,9.89-.02.2-.05.4-.07.6.06-.47.07-.54.02-.21-.07.39-.12.78-.19,1.17-.14.77-.3,1.54-.49,2.3-.38,1.56-.88,3.07-1.49,4.55h8.68c-.97-4-1.83-8.03-2.56-12.08-.18-1.02-.36-2.04-.52-3.06-.09-.58-.18-1.16-.27-1.74-.04-.26-.25-1.76-.14-.96-.26-2-.48-4.01-.62-6.02-.15-2.16-.47-4.3-.66-6.45-.12-1.32-.21-2.64-.22-3.96,0-.57.02-1.13.05-1.7,0-.12.05-.31.04-.44,0,.03-.25,1.21-.07.59.06-.21.14-.48.17-.69.07-.52-.57,1.11-.15.42-.25.41-.55.71-.92,1-.25.2-1.85.77-.98.55.3-.07.74-.11,1.02-.25-.06.03-1.18.07-.53.09s-.55-.11-.6-.12c.12.03.24.06.36.1-.53-.17-.94-.42-1.35-.78.77.68-.46-.8,0,.03.21.38-.2-.46-.19-.48-.04.04.21.66.23.72.15.53.25,1.07.34,1.61.4,2.33,3.38,3.84,5.54,3.14,2.51-.81,3.57-3.04,3.14-5.54h0Z"/><path class="cls-4" d="m241.39,143.36c2.18-.83,4.26-2.36,5.31-4.49,1.44-2.93.11-6.03-2.85-7.28l-2.31,5.48c4.05,1.49,8.21,2.45,12.35,3.61,1.97.55,3.88,1.25,5.96,1.31s4.2-.56,6.27-.91l-2.31-5.48c-3.07,1.65-7.25,2.12-10.86,2.71s-7.99,1.59-11.49,1.12l.72,5.48c2.34-1.38,5.16-1.77,7.89-1.65,1.62.07,3-1.43,3-3,0-1.68-1.37-2.93-3-3-3.71-.17-7.69.57-10.92,2.47-1.03.61-1.61,1.81-1.43,2.99.16,1.05.98,2.34,2.15,2.49,4.83.65,9.58-.28,14.34-1.06,4.29-.71,8.74-1.28,12.62-3.37,1.3-.7,1.8-2.43,1.23-3.75-.64-1.45-2.02-1.99-3.54-1.74-1.67.28-3.39.87-5.1.67s-3.21-.9-4.79-1.3c-3.88-.98-7.74-2-11.5-3.39-1.38-.51-3.02.46-3.54,1.74s-.17,3.16,1.23,3.75c.23.09.45.19.66.3.33.21.37.22.12.05l-.15-.23c.17.3.15.26-.04-.11,0-.03-.03-1.14-.07-.54.04-.56.02-.08-.18.23-.12.17-.09.14.08-.1-.11.13-.23.26-.36.38-.19.19-.38.36-.59.53.49-.39-.11.04-.22.12-.17.1-1.09.49-.28.18-1.51.58-2.55,2.02-2.1,3.69.4,1.45,2.17,2.67,3.69,2.1h0Z"/><path class="cls-4" d="m176.25,123.89c-1.64.57-3.4.69-5.02,1.3-2.1.79-3.81,2.19-4.93,4.15s-1.7,4.34-1.01,6.5c.6,1.84,2.12,2.79,3.24,4.24.91,1.16,2.89,1.07,3.94.23s1.66-2.64.77-3.87c-.36-.49-.57-.91-.67-1.29-.14-.53-.02.03-.09-.54.04.36.22-.3,0,.04l-5.18-3.03c-1.43,2.9-1.61,6.37.88,8.77,1.22,1.19,2.86,1.8,4.53,1.98.51.05,1.01.06,1.52.1.22.02.21.01-.05-.03.31.08.35.08.11-.01-.25-.12-.21-.08.12.12-.28-.25-.34-.28-.18-.09l-.77-1.32c-.25-.68.65-3-.14-.98-.1.26-.18.51-.25.78l3.69-2.1c-4.5-.65-9-1.46-13.39-2.65-1.49-.41-2.97-.85-4.43-1.38-.28-.1-.55-.2-.83-.31-.11-.04-1.02-.41-.58-.23s-.38-.17-.48-.22c-.22-.1-.45-.21-.67-.32-.36-.18-.71-.37-1.05-.57-.14-.08-.27-.17-.4-.25-.08-.05-.14-.11-.22-.15-.39-.23.32.21.33.26,0-.02-.48-.47-.5-.47.06,0,.54.78.31.38.18.31.31.72.32,1.24,0,.85-.58,1.85-1.29,2.27.28-.16-.95.34-.49.22-.42.11-.93.02-.45.07,1.3.14,2.81.21,4.06-.2,1.81-.58,3.51-1.45,5.26-2.19-.12.05-.46.18.1-.04.28-.11.56-.22.84-.31.41-.14.83-.28,1.25-.38.22-.06.45-.1.67-.14-.41.07-.21.04.09.02.37-.02.48.2,0-.04.52.26-.34-.28-.41-.33l-.47-3.64c.26-.39-.11.14-.19.22-.2.2-.41.4-.63.59-.32.27-.68.53-1.11.81-.22.14-.45.28-.68.42-.31.19.44-.05-.11.04-.44.07-.9.19-1.33.32-2.58.83-4.35,3.78-2.88,6.33,1.02,1.77,3.12,1.92,4.93,1.71.73-.09,1.46-.2,2.2-.2.18,0,.35.02.53.02-.36,0-.46-.19-.11,0,.33.18-.59-.31-.12-.06l-.32-.26c.22.22.17.17-.12-.18l4.71-3.64c-.7-.78-1.66-1.26-2.72-1.31-.38-.02-.81.03-1.17.12-1.04.26.59-.31,1.38.3l1.08,1.08.07.26c-.59-1.51-2.01-2.56-3.69-2.1-1.44.39-2.69,2.17-2.1,3.69.49,1.23,1.17,2.3,2.53,2.67.62.17,1.2.15,1.82.01.11-.02.22-.05.33-.08-.62.11-1.21-.02-1.77-.4,2.27,2.51,6.56-.76,4.71-3.64s-5.58-2.65-8.65-2.2c-.39.06.25.03.36.06-.53-.15.97.62.91.57.81.68.93,1.93.21,2.64-.25.24-.74.39-.26.3.18-.03.36-.08.54-.13.48-.11.92-.24,1.38-.43,2.12-.9,4.19-2.6,5.46-4.51.66-.99.52-2.86-.47-3.64-2.08-1.62-4.43-1.62-6.87-.86-1,.31-1.97.73-2.93,1.14-.43.18-.85.37-1.27.57-.22.1-.45.2-.67.31-.19.08-.84.31-.04.02-.14.05-2.28.85-2.28.82-.02-.1.86.02.43-.06-.13-.02-.29,0-.42,0-.41-.01-.81-.05-1.22-.07-1.32-.05-2.64.06-3.62,1.06-2.14,2.17-.37,4.79,1.6,6.15,2.15,1.48,4.77,2.38,7.23,3.17,5.26,1.7,10.75,2.7,16.21,3.49,1.58.23,3.25-.37,3.69-2.1.08-.33.26-.83.03-.23.19-.5.38-.85.45-1.37.15-1.04-.16-2-.9-2.77-1.18-1.24-2.71-1.59-4.35-1.7-.3-.02-.59-.03-.89-.04-.67-.04.46.2-.32-.08-.24-.09-.64-.17-.64-.38.19.27.19.26,0-.03l.08.24c-.09-.21-.14-.78-.11-.26-.03-.57-.02-.66.28-1.26.72-1.45.39-3.25-1.08-4.1s-3.27-.32-4.1,1.08c-1.44,2.4-.83,5.65.75,7.84l4.71-3.64c-.35-.44-.74-.82-1.15-1.2-.18-.17-.36-.32-.53-.5-.21-.24-.26-.28-.13-.14.12.15.1.09-.08-.19.06.05.1.11.1.19.02.17.02.07,0-.31-.11.29.1-.43.12-.48.15-.52.39-.98.74-1.45-.22.28.28-.28.35-.35.15-.14.19-.16.4-.3.35-.23.86-.39,1.5-.54,1.25-.31,2.51-.49,3.73-.91,1.53-.53,2.54-2.06,2.1-3.69-.41-1.49-2.15-2.63-3.69-2.1h0Z"/><path class="cls-6" d="m182.34,126.39c.13-.14.26-.29.36-.46.24-.41.13,0-.32.2l-2.26-1.3c.02-.42-.05.21-.07.36-.07.4-.12.8-.17,1.2-.09.69-.16,1.38-.22,2.07-.15,1.8-.2,3.6-.15,5.4.1,3.35.38,7.38,2.43,10.19,1.09,1.49,2.68,2.42,4.56,2.33s1.93-3.1,0-3c-.15,0-.3,0-.45,0-.29,0,.11.04-.16-.01-.13-.03-.26-.06-.39-.1-.22-.07.09.07-.19-.09-.4-.23-.73-.54-.96-.88-.77-1.14-1.11-2.37-1.39-3.81-.63-3.18-.58-6.54-.33-9.77.05-.66.16-1.69.22-2.13,0,.02.08-.51.11-.71.06-.35.15-.7.16-1.05.05-1.23-1.29-1.74-2.26-1.3-.25.11-.41.35-.57.55-.04.05-.26.38-.07.18-1.31,1.42.81,3.54,2.12,2.12h0Z"/><path class="cls-6" d="m151.95,132.07l.12.52-.44,1.06c-.33.37.03.09.34.03.34-.07.68-.12,1.01-.2.85-.2,1.67-.51,2.49-.8,1.97-.68,3.93-1.4,5.88-2.12,3.71-1.37,7.46-2.92,11.31-3.85,3.64-.87,7.44-.82,11.12-1.49s7.64-1.76,11.49-2.45c7.04-1.26,13.87-.49,20.45,2.34,3.4,1.46,6.63,3.08,10.21,4.1s6.88,1.55,10.37,2.1c8.83,1.39,17.39,3.74,26.05,5.9,1.87.47,2.67-2.43.8-2.89-8.15-2.03-16.22-4.36-24.53-5.66-3.71-.58-7.44-1.14-11.07-2.11-3.83-1.02-7.26-2.73-10.88-4.26-7.01-2.97-14.23-3.76-21.72-2.48-4.02.69-7.95,1.79-11.96,2.53s-7.94.61-11.77,1.66c-4.54,1.24-8.94,3.06-13.36,4.67-2.08.75-4.17,1.64-6.35,2.06-1.3.25-3.32,1.2-2.13,2.86,1.11,1.56,3.71.06,2.59-1.51h0Z"/><path class="cls-6" d="m189.02,108.63c-1.09,1.3-2.61,2.01-4.16,2.63-1.75.7-3.48,1.41-5.2,2.17-4.17,1.82-8.36,3.59-12.63,5.14-3.98,1.44-8.06,2.54-12.08,3.83-3.58,1.15-7.51,2.39-10.61,4.59-1.77,1.26-3.29,2.99-3.4,5.25-.1,2,.95,3.8,2.2,5.27,3.1,3.62,7.87,5.95,12.25,7.62,2.54.97,5.04,1.48,7.73,1.8,4.78.56,9.57.83,14.38.84,1.93,0,1.93-3,0-3-3.97,0-7.94-.18-11.9-.57-2.5-.25-4.95-.5-7.36-1.25-4.15-1.3-8.46-3.33-11.71-6.27-1.13-1.03-2.42-2.43-2.59-3.87s1.11-2.74,2.5-3.61c3.08-1.94,6.7-3.09,10.16-4.17,3.83-1.2,7.69-2.28,11.46-3.65,4.44-1.61,8.79-3.47,13.12-5.36,3.3-1.44,7.58-2.41,9.97-5.27,1.23-1.47-.88-3.6-2.12-2.12h0Z"/><path class="cls-6" d="m238.3,145.73c5.32.53,10.92-.37,16.15-1.26,5.94-1,12.03-2.55,16.83-6.35.66-.53.48-1.57,0-2.12-3.3-3.79-7.41-6.71-11.49-9.59-2.05-1.45-4.11-2.9-6.05-4.5-1.78-1.46-3.61-2.84-5.65-3.93-3.9-2.09-8.2-3.15-12.47-4.2-5.31-1.3-10.68-3.07-16.21-2.98s-11.56,1.83-17.2.38c-1.87-.48-2.67,2.41-.8,2.89,4.92,1.26,9.98.34,14.95-.1,2.55-.22,5.09-.25,7.63.15,2.71.43,5.36,1.16,8.01,1.84,4.35,1.12,8.89,1.95,13,3.82s7.52,5.09,11.23,7.76c4.54,3.26,9.24,6.34,12.93,10.58v-2.12c-4.42,3.51-10.39,4.74-15.83,5.64-4.88.81-10.08,1.59-15.03,1.09-1.92-.19-1.91,2.81,0,3h0Z"/><path class="cls-6" d="m236.43,139.46c-1.03.94-.72,2.85-.61,4.07.14,1.54.44,3.1.35,4.65-.14,2.58-1.13,5.04-1.31,7.63s.14,5.32.78,7.88c.47,1.87,3.36,1.08,2.89-.8-.56-2.25-.81-4.56-.68-6.88s.98-4.65,1.25-7.02c.17-1.5-.02-2.93-.18-4.42-.08-.72-.15-1.44-.18-2.16-.01-.32,0-.63,0-.95,0-.17,0-.15.01-.15-.02,0-.02.12-.19.27,1.43-1.3-.7-3.42-2.12-2.12h0Z"/><path class="cls-6" d="m187.04,237.73c-7.55,8.43-10.89,20.11-10.66,31.28.18,8.79.33,17.81,2.38,26.4,1.03,4.3,2.65,8.88,5.98,11.96.49.45,1.23.59,1.82.23,5.73-3.46,7.64-10.12,8.2-16.41.64-7.25-.29-14.55-1.05-21.75-.36-3.4-.75-6.83-.71-10.25.02-1.93-2.98-1.93-3,0-.08,6.3,1.05,12.59,1.57,18.85s.98,13.51-1.12,19.79c-.98,2.94-2.71,5.56-5.4,7.18l1.82.23c-2.69-2.49-4.02-6.1-4.94-9.57-1.13-4.26-1.65-8.65-1.98-13.04-.68-9.15-1.33-18.72,1.18-27.64,1.56-5.54,4.17-10.85,8.03-15.16,1.28-1.43-.83-3.56-2.12-2.12h0Z"/><path class="cls-6" d="m194.48,243.76c7.34-.31,13.19-5.28,20.17-6.87l-1.85-1.05c1.17,3.69-4.3,5.83-6.89,6.95l1.51,2.59c3.63-1.87,7.07-4.47,11.04-5.61.38-.11.66-.16.86-.18.29-.02.07,0,.09,0-.02,0,.22.12.34.22.24.21.21.25.22.29,0,0,.01.02,0,.03.03-.13-.12.4-.1.36-.66,1.48-2.52,2.76-3.89,3.69-.92.63-1.88,1.22-2.85,1.76-.4.22-.8.44-1.21.65-.17.09-1.05.49-.63.32l1.16,2.74c2.21-1.1,4.63-2.5,7.13-2.74,1.05-.1,1.4-.1,1.41.87s-1.21,1.89-2.02,2.52c-6.69,5.1-14.79,6.29-23.01,5.91-5.42-.25-10.8-1.06-16.21-1.52-1.92-.16-1.91,2.84,0,3,10.91.93,22.6,3.49,33.19-.62,3.3-1.28,6.79-3.16,9.32-5.66,1.27-1.25,1.96-2.69,1.65-4.5-.26-1.52-1.32-2.63-2.84-2.93-3.41-.66-7.2,1.63-10.13,3.08-1.5.74-.42,3.4,1.16,2.74,1.87-.78,3.64-1.83,5.31-2.97,1.91-1.29,4.14-2.86,5.15-5.02s-.1-4.59-2.44-5.15-5.06,1.16-6.96,2.12c-2.46,1.24-4.79,2.73-7.23,3.99-1.75.9-.21,3.33,1.51,2.59,4.07-1.75,9.98-4.95,8.27-10.34-.25-.8-1.03-1.23-1.85-1.05-6.66,1.52-12.4,6.47-19.37,6.76-1.92.08-1.93,3.08,0,3h0Z"/><path class="cls-3" d="m120.95,537.41c2.61,2.26,5.68,4.25,8.98,5.32,1.61.52,3.33.58,4.91,1.21l-1.07-.45c.31.13.61.28.88.49l-.91-.7c.09.08.18.16.26.26l-.7-.91c.05.07.09.14.13.21l-.45-1.07c.03.08.05.15.06.23l-.16-1.2c0,.05,0,.11,0,.17l3.3-4.34c-.2.06-.4.11-.61.14l1.2-.16c-.41.04-.82.03-1.23-.01l1.2.16c-.75-.1-1.46-.3-2.16-.6l1.07.45c-.39-.18-.77-.38-1.11-.64l.91.7c-.69-.56-1.22-1.27-1.83-1.91-1.06-1.11-2.37-1.94-3.85-2.36-1.85-.52-4.16.33-5.08,2.07-.37.71-.58,1.47-.61,2.27-.04.99.51,2.55,1.32,3.18s1.31,1.44,2,2.14c1.7,1.68,3.87,2.31,6.2,1.88s4.23-1.93,4.88-4.13c.73-2.47-.84-4.92-2.97-6.04-1.89-.99-4.51-1.86-6.67-1.8-2.54.06-4.86,1.61-5.58,4.12-.63,2.21.09,4.25,1.57,5.9,2.04,2.28,6.42,4.6,9.34,2.63.98-.66,1.75-1.52,2.07-2.69.3-1.08.16-2.51-.45-3.47-1.25-1.94-4.07-3.02-6.16-1.61-.03.02-.06.04-.1.06l1.07-.45s-.08.03-.13.03l1.2-.16c-.11,0-.21,0-.32,0l1.2.16c-.3-.05-.57-.15-.85-.26l1.07.45c-.6-.27-1.17-.61-1.69-1.01l.91.7c-.35-.28-.67-.57-.94-.92l.7.91c-.11-.15-.2-.3-.27-.46l.45,1.07c-.03-.09-.05-.17-.07-.26l.16,1.2c0-.12,0-.21.01-.33l-.16,1.2c.03-.14.06-.27.12-.41l-.45,1.07c.03-.07.07-.15.12-.21l-.7.91c.08-.09.15-.16.24-.24l-.91.7c.06-.04.13-.08.19-.11l-1.07.45c.15-.06.29-.1.45-.12l-1.2.16c.26-.03.51-.02.77.01l-1.2-.16c1.12.15,2.27.5,3.32.93l-1.07-.45c.35.15.7.32,1.01.55l-.91-.7c.1.08.19.17.28.28l-.7-.91s.06.09.08.14l-.45-1.07s.03.09.03.15l-.16-1.2v.07c.05-.4.1-.8.16-1.2,0,.05-.02.1-.05.15l.45-1.07-.04.07.7-.91c-.07.09-.14.15-.23.22l.91-.7c-.18.12-.36.21-.55.3l1.07-.45c-.28.11-.56.2-.86.25l1.2-.16c-.2.02-.38.02-.58,0l1.2.16c-.13-.03-.25-.06-.38-.11l1.07.45c-.2-.09-.38-.2-.56-.34l.91.7c-.86-.72-1.42-1.72-2.31-2.41l-4.38,7.52c.18.05.35.11.52.18l-1.07-.45c.27.13.51.29.75.47l-.91-.7c.66.55,1.17,1.23,1.76,1.85.72.75,1.58,1.44,2.53,1.88,2.31,1.09,5.11,1.8,7.63,1,1.94-.62,3.24-2.29,3.3-4.34.1-3.41-2.95-5.33-5.86-6.09-1.54-.41-3.11-.55-4.59-1.17l1.07.45c-1.81-.78-3.52-1.79-5.09-2.98l.91.7c-.34-.27-.68-.54-1.01-.83-.91-.79-1.94-1.32-3.18-1.32-1.1,0-2.42.49-3.18,1.32-1.55,1.69-1.9,4.72,0,6.36h0Z"/><path class="cls-6" d="m117.74,531.36c.91,6.16,4.24,11.62,9.97,14.36,3.99,1.91,10.2,3.55,14.11.62,2.54-1.9,2.75-5.07,2.23-7.97-.34-1.9-3.23-1.09-2.89.8.4,2.22.11,4.56-2.27,5.35-2.18.73-4.72.27-6.86-.34-2.96-.85-5.69-2.39-7.73-4.74-2.16-2.48-3.19-5.68-3.66-8.88-.12-.81-1.13-1.24-1.85-1.05-.86.23-1.17,1.05-1.05,1.85h0Z"/><path class="cls-6" d="m169.42,163.2c-5.66,4.46-10.09,10.08-13.65,16.32s-6.13,12.23-9.62,18.13c-6.82,11.52-17.79,20.2-23.54,32.41-2.84,6.01-4.06,12.58-3.36,19.21.36,3.4.98,6.9,2.59,9.95,1.15,2.19,2.87,3.89,4.87,5.31s4.22,2.61,6.12,4.21c2.76,2.33,4.65,5.09,5.7,8.55.98,3.25,1.77,6.45,3.46,9.43,1.49,2.62,3.42,5.01,5.66,7.02,9.06,8.12,21.76,10.04,33.15,12.86,1.43.35,2.85.72,4.26,1.12,1.86.52,2.66-2.37.8-2.89-11.04-3.09-23.27-4.32-33.01-10.83-5.01-3.34-8.74-8.21-10.45-14-.94-3.18-1.67-6.42-3.59-9.2-1.76-2.54-4.12-4.57-6.66-6.3-1.83-1.24-3.84-2.29-5.46-3.81-1.97-1.85-3.03-4.29-3.66-6.89-1.58-6.44-1.28-13.24,1-19.47,4.46-12.18,15.03-20.64,22.15-31.14,7.56-11.15,11.44-24.63,21.21-34.25,1.31-1.29,2.69-2.49,4.14-3.62,1.52-1.19-.62-3.3-2.12-2.12h0Z"/><path class="cls-2" d="m174.38,132.5s.08.09.12.13l-.23-.3c.05.07.09.14.13.22l-.15-.36c.04.1.07.21.09.32l-.05-.4c.03.2.02.4,0,.6l.05-.4c-.05.33-.13.65-.2.98-.05.27-.09.55-.12.82s.02.52.06.79c.07.25.2.47.39.66.19.19.41.31.66.39.49.14,1.11,0,1.46-.39.53-.59.95-1.24,1.18-2,.11-.38.17-.78.17-1.18,0-.3-.01-.6.02-.9l-.05.4c.02-.1.04-.2.07-.29.12-.35.03-.84-.15-1.16s-.54-.61-.9-.69c-.38-.09-.81-.07-1.16.15s-.55.51-.69.9c-.22.63-.09,1.28-.17,1.93l.05-.4c-.04.26-.11.51-.21.75l.15-.36c-.12.27-.27.51-.44.74l.23-.3c-.08.1-.16.19-.24.28l2.51.66v-.04c.01.13.03.27.05.4-.02-.16,0-.32.01-.48l-.05.4c.08-.6.25-1.18.32-1.79.08-.81-.2-1.63-.78-2.22-.27-.27-.68-.44-1.06-.44s-.81.16-1.06.44c-.55.6-.59,1.52,0,2.12h0Z"/><path class="cls-2" d="m233.94,133.16c.46.86,1.11,1.61,1.5,2.51l-.15-.36c.11.26.19.52.23.79l-.05-.4c.02.14.02.29.02.43-.02.47.23.9.59,1.18.39.3.83.37,1.31.27,1.31-.29,1.88-1.72,1.97-2.91s-.51-2.63-1.79-2.93c-.39-.09-.81-.05-1.16.15-.31.18-.61.54-.69.9-.09.38-.07.81.15,1.16.21.32.51.6.9.69.04,0,.07.02.11.03l-.36-.15c.06.03.12.06.17.1l-.3-.23c.05.04.1.09.14.14l-.23-.3c.05.07.1.15.14.24l-.15-.36c.06.15.1.3.12.45l-.05-.4c.03.23.03.46,0,.69l.05-.4c-.03.22-.08.43-.17.63l.15-.36c-.05.12-.12.24-.19.34l.23-.3c-.06.07-.12.14-.19.19l.3-.23c-.05.04-.11.07-.17.1l.36-.15s-.09.03-.13.04l1.9,1.45c.04-.94-.33-1.86-.8-2.65-.37-.62-.81-1.2-1.15-1.84-.37-.69-1.39-.96-2.05-.54-.71.45-.93,1.31-.54,2.05h0Z"/><path class="cls-6" d="m231.59,131.2c.1,3.4,1.11,7.36,4,9.44.64.46,1.7.13,2.05-.54.41-.78.14-1.56-.54-2.05-.27-.19.16.16.03.02-.06-.06-.13-.11-.19-.16-.13-.11-.25-.24-.36-.36-.06-.06-.11-.14-.17-.2-.14-.14.21.29,0,.01-.1-.15-.21-.29-.3-.44-.19-.3-.35-.61-.5-.92-.04-.09-.08-.17-.12-.26.08.18.06.16,0,0-.07-.18-.14-.36-.2-.54-.24-.71-.42-1.43-.55-2.17-.03-.18-.04-.37-.09-.55.02.09.03.27.01.07-.01-.11-.02-.21-.03-.32-.03-.34-.05-.68-.06-1.02-.02-.78-.67-1.54-1.5-1.5s-1.52.66-1.5,1.5h0Z"/><path class="cls-6" d="m236.29,140.77c2.28-.31,4.31-1.86,4.93-4.12.55-2.03-.09-4.32-1.64-5.74-1.1-1.01-2.43-1.49-3.88-1.68-.78-.1-1.53.76-1.5,1.5.04.9.66,1.39,1.5,1.5-.29-.04-.12-.02.05.02.11.02.22.05.33.08s.21.06.31.09c.08.03.43.17.2.07-.24-.11.09.04.14.07.09.05.18.09.26.14s.17.1.25.16c.02.01.13.1.14.1-.02,0-.27-.23-.11-.08.14.13.28.25.41.38.06.07.12.14.18.21.1.1-.11-.15-.11-.15.02.05.08.11.11.16.1.15.19.3.28.46.04.07.06.18.11.24-.01-.01-.14-.37-.07-.15.02.05.03.09.05.14.06.17.1.33.14.51.02.07.06.38.02.09s0,.05,0,.13c.01.17.01.35,0,.52,0,.08-.03.17-.02.26,0-.01.08-.4.02-.18-.01.05-.02.1-.03.15-.04.17-.09.33-.14.5-.01.04-.05.1-.05.14,0,.01.15-.32.08-.19-.05.09-.09.18-.13.27-.09.16-.19.3-.28.45-.07.12.12-.15.12-.15-.03.01-.08.09-.1.12-.07.08-.14.15-.22.23s-.16.14-.24.21c-.16.15.28-.18-.02.01-.19.12-.39.23-.59.34-.22.11.08-.04.11-.04-.07,0-.15.06-.21.08-.12.04-.24.08-.36.11-.28.08-.55.13-.84.17-.78.11-1.27,1.15-1.05,1.85.28.86,1.01,1.16,1.85,1.05h0Z"/><path class="cls-6" d="m176.72,128.07c-1.21.15-2.27.58-3.18,1.41-.74.68-1.27,1.59-1.59,2.54-.64,1.9-.26,4.17,1.46,5.37,1.08.75,2.48.74,3.71.47.77-.17,1.29-1.1,1.05-1.85-.26-.81-1.02-1.23-1.85-1.05-.11.02-.23.04-.34.07-.19.04.42-.04.15-.02-.05,0-.09,0-.14.01-.2.02-.4,0-.61,0-.29-.02.42.09.08,0-.07-.02-.14-.03-.21-.05-.07-.02-.36-.14-.07-.01s0,0-.07-.05-.12-.08-.19-.12c-.14-.08.32.29.12.08-.06-.06-.11-.11-.17-.17-.21-.21.22.34.06.08-.07-.12-.13-.24-.2-.36-.08-.15.15.41.08.2-.01-.03-.02-.06-.03-.09-.03-.08-.05-.16-.07-.24-.02-.07-.03-.13-.04-.2-.07-.32.03.43.01.09-.01-.16-.02-.32-.02-.48,0-.08,0-.16.01-.24,0-.03,0-.11.01-.14.01-.02-.07.45-.03.24.04-.17.07-.35.11-.52.04-.16.1-.3.15-.46.07-.2-.08.22-.09.2,0-.02.05-.11.06-.13.04-.09.08-.17.13-.26.08-.14.16-.28.26-.42.03-.04.06-.08.08-.12.1-.15-.27.32-.11.14.06-.07.13-.15.19-.22.13-.14.29-.26.43-.39-.34.35-.16.12-.02.03.08-.05.17-.1.25-.15s.19-.08.27-.13c-.4.25-.18.07-.02.02.11-.04.22-.07.33-.09.14-.03.58-.08.01-.02.78-.09,1.54-.62,1.5-1.5-.03-.73-.67-1.6-1.5-1.5h0Z"/><path class="cls-6" d="m179.84,123.5c-2.19,3.59-3,7.59-3.13,11.74s.4,8.37-.45,12.43c-.66,3.14-2.41,5.64-4.02,8.35-1.99,3.35-3.09,6.94-3.88,10.74-.39,1.88,2.5,2.69,2.89.8.79-3.78,1.88-7.24,3.9-10.55,1.6-2.61,3.22-5.15,3.92-8.17,1.85-7.95-1.14-16.46,3.36-23.81,1.01-1.65-1.58-3.16-2.59-1.51h0Z"/><path class="cls-6" d="m287.46,489.65c1.18,3.76,1.84,7.63,1.47,11.57-.29,3.1-1.29,6.11-2.64,8.9-2.78,5.78-6.68,10.94-8.95,16.98-1.46,3.89-2.14,8.02-2.07,12.18.03,1.93,3.03,1.93,3,0-.13-7.21,2.51-13.46,6.09-19.57,3.26-5.57,6.65-11.1,7.47-17.63.56-4.46-.14-8.96-1.48-13.22-.58-1.83-3.48-1.05-2.89.8h0Z"/><path class="cls-6" d="m56.55,535.83c13.58,9.26,31.79,4.15,46.08-.49,7.47-2.42,15.47-4.38,23.36-3.12,3.81.61,7.47,1.89,10.9,3.66,4.01,2.07,7.51,4.85,11.29,7.27,7.06,4.52,14.87,7.83,23.02,9.8s17.07,2.61,25.72,2.66c5.13.02,10.26.35,15.4.4s9.89-.28,14.8-1.08,9.62-1.91,14.44-2.82c5-.95,9.99-1.45,15.07-1.67,10.38-.43,20.7,0,31.07.26,3.87.09,7.77-.32,11.46-1.51,3.43-1.11,6.62-2.81,9.73-4.61,1.82-1.05,3.63-2.14,5.44-3.2,1.67-.97.16-3.57-1.51-2.59-6.39,3.74-12.7,7.97-20.25,8.74-4.72.48-9.52-.05-14.25-.19-5.06-.14-10.12-.19-15.18-.09s-10.3.2-15.39.84c-4.79.61-9.5,1.61-14.22,2.58-4.76.98-9.55,1.9-14.4,2.19s-10.12.09-15.17-.09c-9-.31-17.95-.09-26.86-1.66-8.1-1.43-15.93-4.04-23.14-8.02-3.85-2.12-7.3-4.75-10.97-7.14-3.47-2.26-7.19-4.16-11.14-5.43-7.24-2.31-14.82-1.99-22.15-.31-7.8,1.79-15.23,4.84-23.1,6.41-7.72,1.53-16.1,2.11-23.59-.77-1.75-.67-3.39-1.58-4.94-2.63s-3.1,1.51-1.51,2.59h0Z"/></svg>