<svg width="64" height="64" viewBox="0 0 64 64" fill="none" xmlns="http://www.w3.org/2000/svg">
<path d="M51.6189 63.6342L52.8659 51.2491L64.0002 56.822L44.9799 22.2568L32.5986 29.069L51.6189 63.6342Z" fill="#B21936"/>
<path d="M12.3774 63.6342L11.1304 51.2491L0 56.822L19.0203 22.2568L31.3977 29.069L12.3774 63.6342Z" fill="#B21936"/>
<path d="M27.5835 20.1864C28.5072 19.6399 29.1692 18.7393 29.4039 17.6924C29.9658 14.6135 25.9632 11.3305 22.4801 9.10599C19.151 6.88529 15.4832 5.21496 11.6229 4.16041C9.19442 3.70242 6.68506 4.23354 4.65295 5.64601C0.423233 8.52099 -0.677493 14.2825 2.19748 18.5122C2.61699 19.128 3.10962 19.6938 3.66384 20.1902C-0.134828 23.6348 -0.423479 29.5041 3.02111 33.3028C4.79151 35.254 7.30471 36.3625 9.93722 36.3509C10.503 36.3548 11.0687 36.3009 11.6229 36.1931C15.4832 35.1386 19.151 33.4682 22.4801 31.2475C25.9632 28.9999 29.9658 25.7401 29.4039 22.6842C29.1615 21.6374 28.5033 20.7368 27.5835 20.1864Z" fill="#E82353"/>
<path d="M60.205 20.1865C63.9921 16.715 64.25 10.8265 60.7746 7.0355C58.6309 4.69549 55.4403 3.61016 52.3113 4.15668C48.4511 5.21122 44.7833 6.88156 41.4542 9.10225C37.9711 11.3499 33.9684 14.6097 34.5303 17.6887C34.7651 18.7355 35.4271 19.64 36.3508 20.1827C35.4309 20.733 34.7728 21.6336 34.5303 22.6766C33.472 28.365 48.1971 35.4466 52.3113 36.1663C52.8655 36.2741 53.4313 36.3279 53.9971 36.3241C59.1235 36.3433 63.2994 32.206 63.3186 27.0757C63.3301 24.4432 62.2217 21.93 60.2704 20.1596L60.205 20.1865Z" fill="#E82353"/>
<path d="M32.4063 8.54395C38.4834 8.54395 43.4097 13.4703 43.4097 19.5474C43.4097 25.6245 38.4834 30.5508 32.4063 30.5508C26.3292 30.5508 21.4028 25.6245 21.4028 19.5474C21.4028 13.4703 26.3292 8.54395 32.4063 8.54395Z" fill="#E82353"/>
<path d="M21.9183 11.5307C21.2217 11.5307 20.6598 12.0926 20.6598 12.7892V15.5334L13.1971 13.8245C12.5275 13.6321 11.8309 14.017 11.6384 14.6866C11.446 15.3563 11.8309 16.0529 12.5005 16.2454C12.5467 16.2569 12.5891 16.2684 12.6352 16.2761L20.6598 18.1197V20.7945L12.6352 22.638C11.9502 22.7651 11.4999 23.4193 11.6269 24.1044C11.7423 24.724 12.2966 25.1666 12.9277 25.132H13.1971L20.6598 23.4232V26.3213C20.6598 27.0179 21.2217 27.5798 21.9183 27.5798C22.6149 27.5798 23.1768 27.0179 23.1768 26.3213V12.8316C23.1999 12.1349 22.6572 11.5538 21.9645 11.5269C21.9491 11.5346 21.9337 11.5307 21.9183 11.5307Z" fill="#B21936"/>
<path d="M51.4146 22.6381L43.3208 20.7946V18.1197L51.3222 16.2762C52.0073 16.1569 52.4691 15.5065 52.3498 14.8214C52.2305 14.1363 51.5801 13.6745 50.895 13.7938C50.8488 13.8015 50.8026 13.813 50.7603 13.8246L43.3208 15.5334V12.7893C43.3208 12.0927 42.7588 11.5308 42.0622 11.5308C41.3656 11.5308 40.8037 12.0927 40.8037 12.7893V26.279C40.8037 26.9756 41.3656 27.5375 42.0622 27.5375C42.7588 27.5375 43.3208 26.9756 43.3208 26.279V23.3809L50.7603 25.0897H51.0528C51.6416 25.109 52.1651 24.7164 52.3113 24.1468C52.4807 23.4848 52.0804 22.8113 51.4184 22.642C51.4184 22.6381 51.4146 22.6381 51.4146 22.6381Z" fill="#B21936"/>
</svg>
