<svg xmlns="http://www.w3.org/2000/svg" viewBox="0 0 4800 3000"><defs><style>.cls-1,.cls-6{fill:#fff;}.cls-2,.cls-4{fill:#3b65ee;}.cls-2{opacity:0.1;}.cls-3,.cls-7{fill:none;}.cls-3,.cls-6,.cls-7{stroke:#3b65ee;}.cls-3,.cls-6{stroke-miterlimit:10;}.cls-3{stroke-width:6.9px;}.cls-5{opacity:0.2;}.cls-6{stroke-width:6.73px;}.cls-7{stroke-linecap:round;stroke-linejoin:round;stroke-width:6px;}</style></defs><title>Starfish</title><g id="Layer_2" data-name="Layer 2"><rect class="cls-1" width="4800" height="3000"/><path class="cls-2" d="M2995,1293.2c317.34,276-249.72,707.12-545,707.12-227.94,0-376.68-243.37-453.59-422.55-22.72-52.93-276-25-284.58-239.73-10.56-263.16,182.82-420.83,426-412.2,163.61,5.8,290,203.62,388.06,307C2604.68,1315.91,2906.42,1216.19,2995,1293.2Z"/><path class="cls-1" d="M2553.45,1320.79l-107.9-430c-2.31-9.2-7.78-9.84-12.15-1.42l-192.79,371.24c-4.37,8.42-15.7,14.93-25.18,14.46L1796.31,1271c-9.48-.11-11.31,4.81-4.07,10.93L2081,1503.43c7.52,5.79,11.45,18,8.74,27L1954.23,2044c-2.43,9.17,1.07,11.18,7.78,4.48l339.34-329.35c6.8-6.61,15-4.73,18.3,4.18l219.73,476.9c3.94,8.63,7.43,7.93,7.75-1.55l24.58-593.32c.39-9.48,8.2-19.3,17.34-21.82l437.49-110.19c9.2-2.32,9.53-7.15.74-10.72C3027.28,1462.62,2822.5,1379.43,2553.45,1320.79Z"/><path class="cls-3" d="M2553.45,1320.79l-107.9-430c-2.31-9.2-7.78-9.84-12.15-1.42l-192.79,371.24c-4.37,8.42-15.7,14.93-25.18,14.46L1796.31,1271c-9.48-.11-11.31,4.81-4.07,10.93L2081,1503.43c7.52,5.79,11.45,18,8.74,27L1954.23,2044c-2.43,9.17,1.07,11.18,7.78,4.48l339.34-329.35c6.8-6.61,15-4.73,18.3,4.18l219.73,476.9c3.94,8.63,7.43,7.93,7.75-1.55l24.58-593.32c.39-9.48,8.2-19.3,17.34-21.82l437.49-110.19c9.2-2.32,9.53-7.15.74-10.72C3027.28,1462.62,2822.5,1379.43,2553.45,1320.79Z"/><path class="cls-3" d="M2555.18,1320.79l-107.91-430c-2.31-9.2-7.78-9.84-12.15-1.42l-192.79,371.24c-4.37,8.42-15.7,14.93-25.17,14.46L1798,1271c-9.49-.11-11.32,4.81-4.07,10.93l288.78,221.53c7.51,5.79,11.44,18,8.73,27L1956,2044c-2.43,9.17,1.07,11.18,7.78,4.48l339.34-329.35c6.81-6.61,15-4.73,18.31,4.18l219.72,476.9c4,8.63,7.44,7.93,7.76-1.55l24.58-593.32c.39-9.48,8.19-19.3,17.33-21.82l437.5-110.19c9.19-2.32,9.53-7.15.74-10.72C3029,1462.62,2824.23,1379.43,2555.18,1320.79Z"/><path class="cls-4" d="M1811.84,1282.85c21.45,1.5,42.77,4.17,64,7.32s42.37,6.87,63.42,11.09l15.77,3.27,15.71,3.52q7.85,1.77,15.67,3.72c5.21,1.29,10.42,2.56,15.61,4,20.78,5.42,41.39,11.57,61.62,18.85-21.17-3.82-42.14-8.12-63.13-12.29s-42-8.4-63-12.59-42-8.49-62.9-12.94S1832.74,1287.87,1811.84,1282.85Z"/><path class="cls-4" d="M2435.31,926.7c-4.66,22.51-9.65,44.87-14.67,67.21s-10,44.66-14.84,67c-1.29,5.57-2.39,11.18-3.6,16.77l-1.82,8.37c-.61,2.8-1.12,5.61-1.72,8.4l-3.48,16.79q-1.6,8.41-3.34,16.81c-4.28,22.46-8.31,44.94-11.72,67.68-.17-23,2-46,5.08-68.78.8-5.69,1.62-11.38,2.5-17.07s2-11.33,2.93-17,2.11-11.3,3.23-16.94,2.25-11.27,3.51-16.87l3.78-16.81,4.08-16.74c1.37-5.58,2.84-11.13,4.32-16.68.75-2.77,1.46-5.55,2.23-8.32l2.36-8.28c3.08-11.07,6.43-22,9.9-33S2431.2,937.44,2435.31,926.7Z"/><path class="cls-4" d="M2614.68,1394.09c30.51.74,60.91,3.32,91.23,6.55s60.52,7.59,90.6,12.72,60,11.46,89.59,18.81c29.55,7.64,58.89,16.34,87.31,27.46-29.71-7-59.34-13.51-89.11-19.52q-44.7-8.76-89.55-16.56t-89.92-14.87l-22.52-3.63c-7.5-1.22-15-2.44-22.53-3.6C2644.76,1399,2629.72,1396.66,2614.68,1394.09Z"/><path class="cls-4" d="M2136.94,1720.06q-23.13,35.91-45.21,72.18-11,18.16-21.74,36.5t-21,36.88q-10.34,18.53-20.15,37.34c-3.34,6.23-6.46,12.57-9.73,18.85l-4.73,9.49L2012,1936l-2.31,4.78c-6.26,12.69-12.17,25.55-18,38.47s-11.26,26-16.85,39.14a543.52,543.52,0,0,1,27.46-81c2.72-6.61,5.69-13.09,8.6-19.61s6-12.94,9.2-19.33,6.42-12.75,9.67-19.1,6.7-12.6,10.18-18.83,7-12.41,10.61-18.58,7.27-12.27,11.05-18.32q11.26-18.18,23.32-35.85t25-34.67C2118.6,1741.87,2127.43,1730.67,2136.94,1720.06Z"/><path class="cls-4" d="M2442.21,1735.58c9,31.3,16.95,62.84,24.66,94.43s14.89,63.3,21.79,95.07,13.46,63.61,19.62,95.53,11.94,63.92,16.71,96.12c-9-31.32-17-62.86-24.67-94.45s-14.89-63.29-21.78-95-13.44-63.59-19.6-95.51S2447,1767.8,2442.21,1735.58Z"/><circle class="cls-4" cx="1879.1" cy="1313.89" r="5.17"/><circle class="cls-4" cx="1907.56" cy="1316.48" r="2.59"/><circle class="cls-4" cx="1898.93" cy="1338.9" r="4.31"/><circle class="cls-4" cx="1990.34" cy="1292.33" r="6.04"/><circle class="cls-4" cx="1967.92" cy="1294.06" r="2.59"/><circle class="cls-4" cx="2389.61" cy="1018.97" r="6.9"/><circle class="cls-4" cx="2370.63" cy="1063.81" r="3.45"/><circle class="cls-4" cx="2380.12" cy="1085.37" r="2.59"/><circle class="cls-4" cx="2451.7" cy="996.55" r="10.35"/><circle class="cls-4" cx="2428.41" cy="1052.6" r="6.04"/><circle class="cls-4" cx="2474.98" cy="1114.69" r="6.04"/><circle class="cls-4" cx="2754.38" cy="1387.19" r="6.04"/><circle class="cls-4" cx="2688.84" cy="1380.29" r="2.59"/><circle class="cls-4" cx="2844.92" cy="1458.77" r="10.35"/><circle class="cls-4" cx="2758.69" cy="1441.52" r="6.9"/><circle class="cls-4" cx="2775.07" cy="1495.85" r="4.31"/><circle class="cls-4" cx="2517.23" cy="1884.76" r="10.35"/><circle class="cls-4" cx="2518.96" cy="1952.03" r="5.17"/><circle class="cls-4" cx="2531.89" cy="1990.83" r="4.31"/><circle class="cls-4" cx="2037.77" cy="1939.95" r="6.9"/><circle class="cls-4" cx="2096.41" cy="1846.82" r="8.62"/><circle class="cls-4" cx="2063.64" cy="1758.86" r="5.17"/><path class="cls-2" d="M2365.63,1822.35l-65.82-159.86a9.35,9.35,0,0,0-15-3.31c-136.36,124.82-237.76,272.38-292,360.34,85.42-85,277.39-275.15,322.62-312.4,0,0,19.59,53.47,48.38,126.29l1.65-3.58A9.32,9.32,0,0,0,2365.63,1822.35Z"/><path class="cls-2" d="M2574.15,1588.12s419.1-115.56,470.84-119l-1.78-.71c-118.33-6.12-373.54,38.87-446,52.24a25.41,25.41,0,0,0-20.77,23.46l-3.87,64.12C2573.12,1599.29,2573.66,1592.47,2574.15,1588.12Z"/><path class="cls-2" d="M2110.22,1469.48a39.73,39.73,0,0,0-15.92-44.77c-51.19-34.11-175.17-111.86-301.88-154.72q-6,.36-11.63.78s232.83,196.62,315.62,243.19l-3.07,10.34Z"/><g class="cls-5"><circle class="cls-4" cx="2024.83" cy="1499.3" r="9.49"/><circle class="cls-4" cx="2055.02" cy="1536.38" r="5.17"/><circle class="cls-4" cx="2001.55" cy="1538.1" r="13.8"/><circle class="cls-4" cx="2047.26" cy="1582.08" r="4.31"/><circle class="cls-4" cx="1977.41" cy="1608.81" r="15.52"/><circle class="cls-4" cx="2325.79" cy="1808.88" r="12.07"/><circle class="cls-4" cx="2360.29" cy="1864.07" r="8.62"/><circle class="cls-4" cx="2297.34" cy="1844.23" r="7.76"/><circle class="cls-4" cx="2319.76" cy="1918.39" r="6.04"/><circle class="cls-4" cx="2694.01" cy="1645.89" r="16.38"/><circle class="cls-4" cx="2627.61" cy="1657.1" r="10.35"/><circle class="cls-4" cx="2692.29" cy="1697.63" r="14.66"/><circle class="cls-4" cx="2658.66" cy="1731.27" r="5.17"/><circle class="cls-4" cx="2607.78" cy="1280.26" r="6.04"/><circle class="cls-4" cx="2596.57" cy="1313.89" r="5.17"/><circle class="cls-4" cx="2656.93" cy="1322.52" r="13.8"/><circle class="cls-4" cx="2227.49" cy="1250.08" r="10.35"/><circle class="cls-4" cx="2252.49" cy="1211.27" r="7.76"/><circle class="cls-4" cx="2224.04" cy="1234.56" r="6.9"/><circle class="cls-4" cx="2162.81" cy="1228.52" r="9.49"/></g><path class="cls-2" d="M2527.11,1335.15s-40.4,290.93-49.83,334l-330-87.55,24.24-40.41Z"/><path class="cls-6" d="M2228.78,1315.62l299,18.85s-43.1,204.73-79.47,281.5c0,0-288.24-52.52-300.36-56.56C2148,1559.41,2218,1366.8,2228.78,1315.62Z"/><ellipse class="cls-4" cx="2372.45" cy="1400.7" rx="20.16" ry="20.28"/><ellipse class="cls-4" cx="2311.97" cy="1400.7" rx="20.16" ry="20.28"/><path class="cls-4" d="M2418.47,1453.18a8.21,8.21,0,0,1,6.75,10,84.64,84.64,0,0,1-95.34,61.74c-43.23-7.1-73.43-46-70.86-89a8.17,8.17,0,0,1,9.56-7.31Z"/><path class="cls-4" d="M2405,1114.38c-1.15,8.09-2,16.16-2.83,24.24-.19,2-.35,4.05-.57,6.07s-.35,4-.53,6.06c-.36,4-.71,8.09-1,12.14l-.48,6.07-.4,6.08c-.35,4-.5,8.11-.83,12.16-.17,2-.24,4.06-.39,6.09l-.42,6.09c-.28,4.06-.52,8.13-.93,12.2-.36-4.07-.57-8.15-.77-12.23s-.22-8.16-.18-12.24q0-12.25,1-24.49c.15-2,.36-4.07.55-6.1s.36-4.07.63-6.1c.5-4.05,1-8.11,1.69-12.14s1.41-8.06,2.29-12A118.34,118.34,0,0,1,2405,1114.38Z"/><path class="cls-7" d="M2137,1145s-47-133-68-286"/><polyline class="cls-7" points="2048 873 2064 833 2096 862"/><path class="cls-7" d="M1851,1486.07s-26.39,138.57-24.06,293"/><polyline class="cls-7" points="1804.02 1768.39 1825.87 1805.51 1853.13 1772.02"/><path class="cls-7" d="M2752,1832s139-10,216.38-23"/><polyline class="cls-7" points="2961.58 1833.36 2994.65 1805.75 2957.16 1784.31"/><path class="cls-7" d="M2559.63,1001.54s137.27-32.49,291.64-37"/><polyline class="cls-7" points="2839.6 942.18 2877.66 962.37 2845.39 991.08"/><path class="cls-7" d="M2104.78,2081.18s89.83-13.3,206.81-15.6"/><polyline class="cls-7" points="2300.07 2043.12 2337.99 2063.57 2305.53 2092.06"/><line class="cls-7" x1="2365.69" y1="2032.84" x2="2358.96" y2="2103.58"/><line class="cls-7" x1="2728.73" y1="1800.47" x2="2734.27" y2="1866.53"/></g></svg>