<svg width="1136" height="496" viewBox="0 0 1136 496" fill="none" xmlns="http://www.w3.org/2000/svg">
<path d="M992.082 78.5507C998.092 88.9307 1006.35 100.111 1017.52 112.031C1023.75 118.681 1029.78 125.491 1035.47 132.611C1048.65 149.111 1066.24 173.891 1055.55 181.171C1040.93 191.131 950.242 127.781 900.092 139.921C871.582 146.821 850.192 165.661 836.502 195.921C827.432 215.971 822.682 238.581 817.642 262.511C810.882 294.661 803.882 327.911 786.602 352.711C775.092 369.221 753.122 391.871 695.342 397.931C615.652 406.291 556.912 404.051 520.782 391.291C498.292 383.351 491.482 373.891 483.602 362.941C482.612 361.561 481.652 360.231 480.712 358.961C459.532 330.271 502.302 262.851 533.532 213.621C551.902 184.671 569.242 157.321 579.172 132.001C602.002 73.7907 576.492 43.1007 559.262 29.9907C543.512 18.0107 525.492 9.76071 505.712 5.48071C488.802 1.82071 470.312 0.910715 449.192 2.70072C413.842 5.70072 373.552 16.1407 326.902 28.2407C254.202 47.0907 166.202 77.5907 46.5916 86.8307C21.3616 88.7807 0.0215688 103.761 1.97157 128.991C3.92157 154.221 12.6016 166.421 37.8316 164.461C165.522 154.601 277.722 135.651 349.892 116.941C420.462 98.6407 487.892 85.3607 487.282 109.751C487.232 111.961 486.572 114.111 485.522 116.051C477.782 130.431 467.262 147.031 456.142 164.551C434.412 198.801 409.792 237.631 395.612 276.551C375.962 330.511 379.782 376.541 406.982 413.381C407.712 414.371 408.452 415.401 409.222 416.471C420.222 431.751 440.692 460.191 490.262 477.691C521.982 488.891 561.992 494.461 611.352 494.461C639.442 494.461 670.562 492.661 704.882 489.061C775.302 481.681 828.082 453.431 861.762 405.101C889.702 365.011 899.452 318.641 907.292 281.381C922.582 197.181 975.382 231.761 1002.08 240.161C1023.41 246.871 1043.57 253.211 1064.02 252.531C1084.12 251.861 1101.25 244.471 1114 231.441C1134.83 210.161 1139.89 177.781 1127.08 150.901C1109.03 113.041 1060.67 83.9607 1040.46 52.9907" fill="#B0C6ED"/>
<path d="M992.082 78.5507C998.092 88.9307 1006.35 100.111 1017.52 112.031C1023.75 118.681 1029.78 125.491 1035.47 132.611C1048.65 149.111 1066.24 173.891 1055.55 181.171C1040.93 191.131 950.242 127.781 900.092 139.921C871.582 146.821 850.192 165.661 836.502 195.921C827.432 215.971 822.682 238.581 817.642 262.511C810.882 294.661 803.882 327.911 786.602 352.711C775.092 369.221 753.122 391.871 695.342 397.931C615.652 406.291 556.912 404.051 520.782 391.291C498.292 383.351 491.482 373.891 483.602 362.941C482.612 361.561 481.652 360.231 480.712 358.961C459.532 330.271 502.302 262.851 533.532 213.621C551.902 184.671 569.242 157.321 579.172 132.001C602.002 73.7907 576.492 43.1007 559.262 29.9907C543.512 18.0107 525.492 9.76071 505.712 5.48071C488.802 1.82071 470.312 0.910715 449.192 2.70072C413.842 5.70072 373.552 16.1407 326.902 28.2407C254.202 47.0907 166.202 77.5907 46.5916 86.8307C21.3616 88.7807 0.0215688 103.761 1.97157 128.991C3.92157 154.221 12.6016 166.421 37.8316 164.461C165.522 154.601 277.722 135.651 349.892 116.941C420.462 98.6407 487.892 85.3607 487.282 109.751C487.232 111.961 486.572 114.111 485.522 116.051C477.782 130.431 467.262 147.031 456.142 164.551C434.412 198.801 409.792 237.631 395.612 276.551C375.962 330.511 379.782 376.541 406.982 413.381C407.712 414.371 408.452 415.401 409.222 416.471C420.222 431.751 440.692 460.191 490.262 477.691C521.982 488.891 561.992 494.461 611.352 494.461C639.442 494.461 670.562 492.661 704.882 489.061C775.302 481.681 828.082 453.431 861.762 405.101C889.702 365.011 899.452 318.641 907.292 281.381C922.582 197.181 975.382 231.761 1002.08 240.161C1023.41 246.871 1043.57 253.211 1064.02 252.531C1084.12 251.861 1101.25 244.471 1114 231.441C1134.83 210.161 1139.89 177.781 1127.08 150.901C1109.03 113.041 1060.67 83.9607 1040.46 52.9907" stroke="#3B65EE" stroke-width="3" stroke-miterlimit="10" stroke-linecap="round"/>
</svg>
