<?xml version="1.0" encoding="UTF-8"?>
<svg id="Layer_2" xmlns="http://www.w3.org/2000/svg" viewBox="0 0 220.81 406.42">
  <defs>
    <style>
      .cls-1 {
        stroke-linecap: round;
      }

      .cls-1, .cls-2, .cls-3, .cls-4, .cls-5 {
        fill: none;
        stroke: #3b65ee;
      }

      .cls-1, .cls-2, .cls-5 {
        stroke-linejoin: round;
      }

      .cls-1, .cls-3, .cls-5 {
        stroke-width: 2px;
      }

      .cls-3, .cls-4 {
        stroke-miterlimit: 10;
      }

      .cls-6, .cls-7 {
        fill: #3b65ee;
      }

      .cls-8 {
        fill: #fff;
      }

      .cls-7 {
        opacity: .2;
      }
    </style>
  </defs>
  <g id="Layer_7">
    <g>
      <g>
        <path class="cls-8" d="M216.13,383v.07l-.05-.07h.05v-146.49h-.13c.98-.03,1.96-.07,2.94-.11v-11.94c-3.47.44-27.47.89-30.45.95h.03s7.94-85.32,7.94-85.32l-5.49-24.71-8.69,25.04c-.01-.35-.04-.58-.07-.69-.94-2.76-4.06-3.24-4.06-3.24l.53,2.45-.53-.45-4.88-36.53s-.12-6.47-4.92-6.47-5.36,4.5-5.36,4.5l-6.06,23.85h0c-.02-.33-.03-.66-.05-.99-.67-13.26-1.79-23.45-3.59-27.2l-.64-49.19c2-10.54,3-45.46,3-45.46h-10.8l-2.2,3-.72-3h-5.28c0,11,3.01,45.9,3.01,45.9-.14,11.7,2.6,49.18,2.6,49.18,0,0-5.06,72.96,5.56,128.27l-.02,1.31c-7.31-.05-14.3-.13-20.86-.25l11.21.06-2.93-78.38-8.66-23.78-5.41,26.18,5.77,75.92c-3.4-.06-6.69-.12-9.83-.19l-11.05-100.15-10.36-23.09-3.5,26.5,14.42,96.49c-17.5-.48-28.63-1.02-28.63-1.02v12.29s6.12.38,17.34.77l-11.66-.08v146.07c-4,0-3.67.93-3.67.93v12.15s16.11,7.92,77.83,7.82l7.09-.37c42.91-1.56,54.91-7.45,54.91-7.45v-12.15s.33-.93-3.67-.93ZM168.31,225.6v.06c-6.93.04-13.7.03-20.23,0h0s20.23-.05,20.23-.05ZM148.08,225.65h0s-.02,0-.02,0h.02ZM117.02,225.21c-3.66-.08-7.13-.17-10.37-.26l10.37.26Z"/>
        <path class="cls-8" d="M99.13,224.46c-5.48-18.28-21.5-69.83-30.5-78.67l-17.98-45.79c-9-40-23-39-23-39-7,24,11,44,11,44,4,11,19.81,45.08,19.81,45.08,0,0,6.42,33.29,32.94,74.38h7.73Z"/>
      </g>
      <g>
        <line class="cls-1" x1="83.65" y1="383" x2="83.65" y2="236.93"/>
        <path class="cls-1" d="M179.23,237.55c-62.08,1.12-101.26-1.31-101.26-1.31v-12.29s53.34,2.57,110.22,1.48"/>
        <path class="cls-1" d="M188.19,225.42s27.05-.49,30.76-.95v11.94c-12.17.48-23.75.82-34.67,1.04"/>
        <path class="cls-1" d="M157.81,403.9c-61.72.09-77.83-7.82-77.83-7.82v-12.15s-.33-.93,3.67-.93v2s26.57,6.36,68.36,6.24l12.68-.3c31.92-1.25,51.45-5.93,51.45-5.93v-2c4,0,3.67.93,3.67.93v12.15s-11.99,5.89-54.91,7.45l-7.09.37Z"/>
        <line class="cls-1" x1="216.13" y1="383" x2="216.13" y2="236.51"/>
        <polyline class="cls-5" points="106.6 224.95 92.18 128.47 96.68 132.54 99.18 126.47 103.18 131.47 106.04 125.06 117.09 225.21"/>
        <polyline class="cls-5" points="106.04 125.06 95.68 101.97 92.18 128.47"/>
        <path class="cls-5" d="M101.03,113.88s-1.68,3.39-7.01.74"/>
        <line class="cls-2" x1="103.18" y1="131.47" x2="114.14" y2="225.15"/>
        <line class="cls-2" x1="96.68" y1="132.54" x2="109.5" y2="224.87"/>
        <path class="cls-6" d="M100.18,136.47c3.33,20.48,6.01,41.18,8,61.84-3.33-20.49-6.01-41.19-8-61.84h0Z"/>
        <polyline class="cls-5" points="126.92 225.41 121.16 149.49 125.35 153.88 128.28 148 131.91 153.27 135.22 147.09 138.16 225.47"/>
        <polyline class="cls-5" points="135.22 147.09 126.57 123.31 121.16 149.49"/>
        <path class="cls-5" d="M131.03,135.58s-1.92,3.25-7.05.23"/>
        <line class="cls-2" x1="131.91" y1="153.27" x2="135.08" y2="225.47"/>
        <line class="cls-2" x1="125.35" y1="153.88" x2="130.04" y2="225.46"/>
        <path class="cls-6" d="M128.55,158.04c1.83,20.67,3.01,41.51,3.5,62.26-1.84-20.67-3.01-41.52-3.5-62.26h0Z"/>
        <polyline class="cls-5" points="177.58 225.58 182.21 140.64 185.8 145.54 189.47 140.09 192.38 145.79 196.47 140.09 188.53 225.41"/>
        <polyline class="cls-5" points="196.47 140.09 190.98 115.38 182.21 140.64"/>
        <path class="cls-5" d="M193.81,128.13s-2.33,2.98-7.02-.69"/>
        <line class="cls-2" x1="192.38" y1="145.79" x2="185.48" y2="225.47"/>
        <line class="cls-2" x1="185.8" y1="145.54" x2="180.57" y2="226.01"/>
        <path class="cls-6" d="M188.44,150.08c-.87,20.73-2.41,41.55-4.62,62.19.87-20.74,2.41-41.55,4.62-62.19h0Z"/>
        <path class="cls-5" d="M99.13,224.46c-5.48-18.28-21.5-69.83-30.5-78.67l-10.16,4.29s6.42,33.29,32.94,74.38"/>
        <path class="cls-5" d="M58.46,150.08s-15.81-34.08-19.81-45.08l12-5,17.98,45.79-10.16,4.29Z"/>
        <path class="cls-5" d="M38.65,105s-18-20-11-44c0,0,14-1,23,39l-12,5Z"/>
        <line class="cls-2" x1="54.81" y1="142.13" x2="65.31" y2="137.35"/>
        <line class="cls-2" x1="56.48" y1="145.79" x2="66.83" y2="141.2"/>
        <path class="cls-6" d="M27.13,62.99c1.45,8.9,3.64,17.76,7.36,26,.47,1.21,1.14,2.32,1.67,3.51-5.93-8.57-8.75-19.16-9.02-29.51h0Z"/>
        <path class="cls-6" d="M30.15,61.5c7.88,9.86,13.12,21.76,16,34-4.2-11.83-9.26-23.38-16-34h0Z"/>
        <path class="cls-5" d="M156.94,124.14c-.02-.43-.04-.86-.06-1.29-.67-13.26-1.79-23.45-3.59-27.2l-11.03.42s-5.14,74.12,5.82,129.58"/>
        <path class="cls-5" d="M142.26,96.07s-2.75-37.47-2.6-49.18l12.99-.44.64,49.19-11.03.42Z"/>
        <line class="cls-2" x1="141.65" y1="87.34" x2="153.17" y2="86.58"/>
        <line class="cls-2" x1="141.93" y1="91.36" x2="153.22" y2="90.72"/>
        <path class="cls-5" d="M147.8,225.66l1.35-87.16s.59-1.85,4.79-2.92l-.63,3s9.9,2.83,25.37.38l-.53-2.45s3.13.48,4.06,3.24c.8,2.35-4.18,66.85-5.67,85.84"/>
        <path class="cls-6" d="M152.25,140.64s6.84,3.13,22.87,1.5c0,0-15.77,4.64-22.87-1.5Z"/>
        <path class="cls-4" d="M148.67,169.63s11.83,6.58,31.9,1.98"/>
        <path class="cls-4" d="M148.67,192.63s10.4,6.58,30.48,1.98"/>
        <path class="cls-3" d="M153.94,135.58l2.98-11.73,6.06-23.85s.56-4.5,5.36-4.5,4.92,6.47,4.92,6.47l4.88,36.53"/>
        <path class="cls-3" d="M139.66,46.9s-3.01-34.9-3.01-45.9h5.28l.72,3,2.2-3h10.8s-1,34.92-3,45.46"/>
        <path class="cls-6" d="M142.65,10c1.46,10.6,1.91,21.33,1,32-1.84-10.54-2.28-21.37-1-32h0Z"/>
        <path class="cls-6" d="M148.87.99c.61,6.01.78,11.99.27,18.01-.88-5.97-1.04-12.02-.27-18.01h0Z"/>
        <path class="cls-7" d="M156.94,404.39c-2.71.39-39.84-1.86-39.84-1.86v-12.25h6.11v-152.66h-3.55v-12.35c5.5.77,68.54.15,68.54.15l27.04-.72v11.4l-5.65.41v149.3l6.07,1.18v10.51l-58.71,6.88Z"/>
        <path class="cls-7" d="M152.25,225.66l1.69-83.84,4.56-2.73s3.94-29.21,6.54-26.65,5.68,26.65,5.68,26.65l-2.67,3.5-5.26,82.56-10.55.51Z"/>
        <path class="cls-7" d="M153.94,135.58s-1.3-26.59-4.8-27.08-6.19,6.47-1.34,95.99l2.28-67.13,3.87-1.78Z"/>
        <path class="cls-7" d="M94.01,223.94s-17.06-62.28-30.21-76.11c0,0-16.46-52.84-23.8-39.33l18.46,41.59s18.69,60.84,32.94,74.38l2.62-.53Z"/>
      </g>
      <path class="cls-7" d="M78.8,393.45S.35,395.05,0,400.03s139.65,6.4,139.65,6.4l14.29-2.52s-58.15.25-73.97-7.58v-2.88s-1.18,0-1.18,0Z"/>
    </g>
  </g>
</svg>