<?xml version="1.0" encoding="UTF-8"?><svg id="Finals" xmlns="http://www.w3.org/2000/svg" viewBox="0 0 300 300"><defs><style>.cls-1{fill:#fff;}.cls-2{fill:#dee5fc;}.cls-3{fill:#3b66ef;}</style></defs><path class="cls-2" d="m157.76,172.37c-13.61-3.14-23.72-13.9-24.85-27.41-.99-11.84,3.63-22.88,12.07-31.37,12.24-12.34,24.6-24.56,36.9-36.84,6.92-6.9,14.18-12.25,24.03-14.23,11.59-2.32,24.89,1.83,32.14,12.12,7.74,10.99,7.52,25.49.93,37.2-3.69,6.55-9.36,11.52-14.63,16.78-8.12,8.11-16.25,16.22-24.37,24.33-2.56,2.56-5.15,5.1-7.69,7.67-.95.96-1.89,1.93-2.75,2.98-1.59,1.91-2.91,3.96-4.34,5.97-.28.39-1.28,1.28-.16.24-.44.41-1.19.72-.34.38-5.27,2.12-8.99,7.02-7.36,12.96,1.38,5.01,7.65,9.49,12.96,7.36,4.96-2,8.72-4.35,11.92-8.68,1.46-1.98,2.69-3.95,4.36-5.71,1.97-2.07,4.06-4.05,6.08-6.07,8.17-8.16,16.34-16.31,24.52-24.47,6.7-6.69,13.86-13.13,18.89-21.25,10.19-16.41,11.56-36.99,3.47-54.48-7.87-17.03-25.28-27.38-43.6-28.81-17.11-1.34-33.91,6.04-45.99,17.86-13.28,12.99-26.34,26.22-39.45,39.38s-20.3,29.99-18.53,48.02c2.22,22.58,17.87,41.23,40.19,46.38,13.19,3.04,18.83-17.26,5.6-20.31h0Z"/><path class="cls-1" d="m137.87,139.76c12.88,3.82,22,14.95,23.49,27.59,1.21,10.27-2.16,19.11-7.95,27.63-9.62,14.16-19.19,28.36-28.86,42.49-12.86,18.81-40.95,22.84-55.44,3.76-7.75-10.21-9.07-24.56-3.35-36.09,3.09-6.23,7.57-11.94,11.47-17.67l18.71-27.54c1.38-2.03,2.75-4.06,4.13-6.08,2.29-3.35,2.88-4.23,5.13-6.59.25-.26,1.59-1.27.46-.42-1.28.96,1.02-.61,1.03-.61,1.67-1.03,3.35-2.06,5.02-3.09,11.5-7.13.93-25.37-10.63-18.19-6.47,4.01-11.64,7.77-16.18,13.97-1.97,2.69-3.81,5.48-5.68,8.24-6.03,8.88-12.06,17.76-18.1,26.64-4.57,6.72-9.91,13.41-13.54,20.72-8.27,16.66-8.4,36.4.53,52.85,18.1,33.33,66.06,36.02,89.74,7.33,5.44-6.58,9.95-14.03,14.74-21.08l18.15-26.73c8.42-12.39,13.32-26.34,11.45-41.52-2.69-21.87-17.55-39.63-38.72-45.92-13.02-3.87-18.59,16.46-5.6,20.31h0Z"/><path class="cls-3" d="m142.34,123.18c6.43,0,6.45-10,0-10s-6.45,10,0,10h0Z"/><path class="cls-3" d="m115.02,83.57c-9.2-18.59-19.31-36.71-28.53-55.3-2.86-5.77-11.49-.71-8.63,5.05,9.22,18.58,19.33,36.71,28.53,55.3,2.85,5.77,11.48.71,8.63-5.05h0Z"/><path class="cls-3" d="m95.52,92.87c-11.76-3.27-23.38-6.93-35.28-9.67-6.26-1.45-8.94,8.19-2.66,9.64,11.9,2.75,23.52,6.4,35.28,9.67,6.21,1.73,8.86-7.92,2.66-9.64h0Z"/><path class="cls-3" d="m177.09,222.02c3.11,9.4,7.04,18.49,10.35,27.82,2.13,6.02,11.8,3.43,9.64-2.66-3.3-9.33-7.24-18.42-10.35-27.82-2.01-6.08-11.67-3.48-9.64,2.66h0Z"/><path class="cls-3" d="m193.41,215.11c8.58,5.06,16.53,11.05,24.67,16.77,5.28,3.71,10.28-4.96,5.05-8.63-8.14-5.72-16.09-11.71-24.67-16.77-5.56-3.28-10.59,5.36-5.05,8.63h0Z"/><path class="cls-3" d="m153.8,188.26c-18.67-4.96-32.8-19.95-36.09-39.07-2.7-15.72,2.83-31.56,13.92-42.81,13.82-14.02,27.87-27.82,41.8-41.73,8.35-8.33,17.37-14.82,29.29-17.03,17.31-3.22,35.41,3.58,46.51,17.17s13.88,33.58,6.85,49.93c-3.93,9.16-10.84,15.66-17.72,22.52-9.38,9.36-18.76,18.72-28.13,28.08-8.88,8.87-16.98,17.75-29.31,21.94-6.06,2.06-3.46,11.72,2.66,9.64,12.99-4.42,22.04-12.85,31.44-22.23s18.4-18.36,27.59-27.54c7.7-7.68,15.95-15.02,20.93-24.88,8.67-17.17,8.52-37.84-.59-54.82-18.51-34.48-65.87-40.08-93.27-13.17-14.98,14.71-29.78,29.63-44.59,44.51-13.46,13.53-20.1,32.04-17.33,51.05,3.4,23.28,20.78,42.05,43.4,48.06,6.23,1.65,8.88-7.99,2.66-9.64h0Z"/><path class="cls-3" d="m156.68,166.53c-12.96-4.84-21.08-18.4-18.78-32.15,1.36-8.13,6.09-13.84,11.67-19.41l35.15-35.08c5.31-5.3,10.46-10.04,18.09-11.85,12.75-3.03,26.23,3.13,32.41,14.64s3.66,25.33-5.19,34.46c-3.75,3.87-7.64,7.62-11.45,11.43-7.21,7.19-14.41,14.38-21.62,21.58-5,4.99-9.89,10.82-16.02,14.45-5.54,3.27-.51,11.92,5.05,8.63,6.51-3.85,11.56-9.54,16.87-14.83,7.38-7.37,14.77-14.74,22.15-22.11,4.38-4.37,8.97-8.61,13.15-13.17,10.31-11.24,13.28-27.72,7.4-41.82s-19.11-23.05-34.03-23.96c-11.85-.72-22.64,4.32-30.91,12.52-12.74,12.64-25.41,25.36-38.11,38.05-8.03,8.01-13.92,16.8-14.85,28.5-1.41,17.87,9.94,33.64,26.36,39.77,6.04,2.25,8.64-7.41,2.66-9.64h0Z"/><path class="cls-3" d="m142.54,123.42c17.83,5.43,31.1,20.18,34.31,38.59,2.38,13.65-1.62,26.49-9.25,37.73-11.43,16.83-22.81,33.69-34.29,50.49-18.71,27.36-60.29,29.63-80.09,1.97-10.07-14.07-12.19-33.22-4.8-48.97,3.55-7.56,9.04-14.45,13.71-21.32,7.49-11.03,14.98-22.06,22.48-33.09,1.73-2.55,3.39-5.16,5.22-7.64,6.95-9.44,17.07-15.66,28.37-18.43,6.25-1.53,3.6-11.18-2.66-9.64-16.34,4.01-28.29,14.08-37.56,27.73-6.95,10.23-13.89,20.46-20.84,30.68-5.27,7.77-11.22,15.4-15.77,23.63-9.44,17.05-9.62,37.97-.86,55.32,18.35,36.35,70.36,42.44,96.62,11.28,6.08-7.21,11.01-15.57,16.3-23.35l21.3-31.36c9.24-13.6,14.5-28.4,12.17-45.08-3.21-22.91-19.69-41.47-41.69-48.17-6.17-1.88-8.81,7.77-2.66,9.64h0Z"/><path class="cls-3" d="m135.45,143.45c13.45,4.27,22.36,17.21,20.75,31.41-.82,7.25-4.72,12.82-8.66,18.63-9.39,13.82-18.77,27.64-28.16,41.46-4.65,6.85-10.2,12.38-18.49,14.63-12.77,3.46-26.51-2.24-33.02-13.77-5.71-10.12-4.57-21.97,1.71-31.48,3.4-5.14,6.92-10.2,10.39-15.29,5.81-8.56,11.63-17.12,17.44-25.69,4.78-7.03,8.81-13.7,16.61-17.93,5.66-3.07.62-11.71-5.05-8.63-8.47,4.59-13.53,11.7-18.75,19.39-5.76,8.49-11.53,16.97-17.29,25.46-4.03,5.93-8.14,11.81-12.09,17.8-7.43,11.27-8.78,25.46-3.35,37.87,5.97,13.62,19.47,22.68,34.3,23.27,13.78.55,26.35-6.42,34.15-17.55,9.96-14.22,19.52-28.73,29.27-43.09,5.69-8.38,10.7-16.46,11.12-27.04.72-18.06-11.3-33.71-28.24-39.09-6.15-1.95-8.78,7.7-2.66,9.64h0Z"/></svg>