<?xml version="1.0" encoding="UTF-8"?><svg id="Layer_1" xmlns="http://www.w3.org/2000/svg" viewBox="0 0 300 300"><defs><style>.cls-1{fill:none;}.cls-2{fill:#fff;}.cls-3{fill:#2b67f8;}</style></defs><path class="cls-1" d="m128.21,80.41c-48,13.09-70.9-17.45-70.9-17.45-1.09-28.36,17.45-37.09,17.45-37.09,32.72-10.91,63.27,31.63,63.27,31.63h23.95s30.54-42.54,63.27-31.63c0,0,18.54,8.73,17.45,37.09,0,0-22.91,30.54-70.9,17.45h-43.59Z"/><path class="cls-2" d="m171.27,79.99v196.34h88.35V79.99h-88.35ZM40.38,276.34h88.35V79.99H40.38v196.34Z"/><path class="cls-3" d="m167.52,79.99v196.34c0,2.03,1.72,3.75,3.75,3.75,25.75,0,51.49,0,77.24,0h11.11c2.03,0,3.75-1.72,3.75-3.75V79.99c0-2.03-1.72-3.75-3.75-3.75h-88.35c-4.83,0-4.83,7.5,0,7.5h88.35l-3.75-3.75v196.34l3.75-3.75h-88.35l3.75,3.75V79.99c0-4.83-7.5-4.83-7.5,0Z"/><path class="cls-3" d="m40.38,280.09h88.35c2.03,0,3.75-1.72,3.75-3.75V79.99c0-2.03-1.72-3.75-3.75-3.75H40.38c-2.03,0-3.75,1.72-3.75,3.75v196.34c0,4.83,7.5,4.83,7.5,0V79.99l-3.75,3.75h88.35l-3.75-3.75v196.34l3.75-3.75H40.38c-4.83,0-4.83,7.5,0,7.5Z"/><rect class="cls-2" x="128.73" y="79.99" width="42.54" height="196.34"/><path class="cls-3" d="m167.52,79.99v196.34l3.75-3.75h-42.54l3.75,3.75V79.99l-3.75,3.75h42.54c4.83,0,4.83-7.5,0-7.5h-42.54c-2.03,0-3.75,1.72-3.75,3.75v196.34c0,2.03,1.72,3.75,3.75,3.75h42.54c2.03,0,3.75-1.72,3.75-3.75V79.99c0-4.83-7.5-4.83-7.5,0Z"/><path class="cls-3" d="m170.38,73.64h-41l4.02,5.28c2.56-7.27,5.12-14.54,7.69-21.81l-4.02,3.06h25.62l-4.02-3.06c2.56,7.27,5.12,14.54,7.69,21.81,1.77,5.03,9.83,2.86,8.04-2.22-2.56-7.27-5.12-14.54-7.69-21.81-.62-1.75-2.09-3.06-4.02-3.06h-25.62c-1.94,0-3.4,1.31-4.02,3.06-2.56,7.27-5.12,14.54-7.69,21.81-.91,2.59,1.47,5.28,4.02,5.28h41c5.37,0,5.37-8.34,0-8.34Z"/><path class="cls-3" d="m60.48,65.07c22.34-7.31,48.53,2.92,66.92,15.98l-1.35-5.13-1.09,2.18,2.24-1.72c-17.99,4.75-37.3,4.46-53.68-5.15-4.08-2.39-7.88-5.25-11.18-8.65-.66-.68-1.59-1.44-2.06-2.27-.06-.11-.21-.2-.25-.31.84,2.11.87-.12.97-.7.54-2.95.31-6.02.95-9,2.23-10.43,8.72-21.3,20.01-22.68,16.85-2.05,32.43,9.51,43.61,20.83,3.01,3.04,6.65,7.49,8.85,10.06,2.78,3.24,6.7,2.32,10.69,2.32,5.42,0,11.32.68,16.7,0,3.32-.42,4.64-3.57,6.56-5.83,14.22-16.75,49.35-43.68,65.58-15.54,2.38,4.13,3.84,8.76,4.53,13.47.2,1.34.31,2.69.38,4.04.05.77.08,1.54.09,2.31-.47,1.48-.32,1.94.46,1.37-.03-.3.73-1.03,0-.04-2.45,3.32-6.15,6.13-9.52,8.42-16.96,11.54-37.73,12.46-57.14,7.34l2.24,1.72-1.09-2.18-1.35,5.13c18.4-13.06,44.59-23.29,66.92-15.98,4.6,1.5,6.57-5.74,1.99-7.23-24.17-7.9-52.73,2.56-72.7,16.74-1.74,1.23-2.32,3.18-1.35,5.13,2.33,4.67,6.53,4.86,11.45,5.76,5.62,1.03,11.36,1.62,17.08,1.53,9.04-.14,18.02-1.89,26.36-5.38s17.94-8.89,22.96-16.37c2.19-3.27,1.21-8.17.77-11.91-.57-4.83-1.76-9.47-3.74-13.91-2.69-6.04-6.86-11.43-12.22-15.32-11.68-8.47-29.44-3.35-40.79,3.12s-22.58,16.88-30.59,27.98l3.24-1.86c-7.98,0-15.97,0-23.95,0l3.24,1.86c-6.85-9.49-15.62-17.97-25.23-24.6-7.42-5.11-15.82-9.07-24.81-10.27-6.19-.83-14.03-.71-19.58,2.58-4.51,2.67-8.26,6.77-11.09,11.13-4.96,7.62-8.56,19.41-7,28.51.47,2.76,2.87,4.81,4.84,6.67,4.28,4.06,9.22,7.51,14.47,10.2,8.46,4.33,17.72,6.76,27.18,7.42,5.99.42,12,.04,17.94-.85,3.43-.51,8.11-.8,11.22-2.37,1.89-.95,2.42-2.07,3.33-3.9.97-1.94.4-3.89-1.35-5.13-19.97-14.18-48.53-24.64-72.7-16.74-4.57,1.49-2.61,8.74,1.99,7.23h0Z"/><path class="cls-3" d="m124.98,156.89v42.54l3.75-3.75c-25.75,0-51.49,0-77.24,0h-11.11l3.75,3.75v-42.54l-3.75,3.75h88.35c4.83,0,4.83-7.5,0-7.5H40.38c-2.03,0-3.75,1.72-3.75,3.75v42.54c0,2.03,1.72,3.75,3.75,3.75h88.35c2.03,0,3.75-1.72,3.75-3.75v-42.54c0-4.83-7.5-4.83-7.5,0Z"/><path class="cls-3" d="m255.33,156.89v42.54l3.75-3.75h-87.81l3.75,3.75v-42.54l-3.75,3.75h87.81c4.83,0,4.83-7.5,0-7.5h-87.81c-2.03,0-3.75,1.72-3.75,3.75v42.54c0,2.03,1.72,3.75,3.75,3.75h87.81c2.03,0,3.75-1.72,3.75-3.75v-42.54c0-4.83-7.5-4.83-7.5,0Z"/></svg>