<svg width="117" height="100" viewBox="0 0 117 100" fill="none" xmlns="http://www.w3.org/2000/svg">
<g clip-path="url(#clip0_9_180)">
<path d="M116.17 54.72L115.88 14.65C115.88 14.65 27.75 18.28 4.80005 28.21L116.17 54.72Z" fill="white" stroke="#3B65EE" stroke-width="1.69" stroke-linecap="round" stroke-linejoin="round"/>
<path d="M116.17 54.72V60.04L7.74005 39.22L4.80005 28.21L116.17 54.72Z" fill="white" stroke="#3B65EE" stroke-width="1.69" stroke-linecap="round" stroke-linejoin="round"/>
<path d="M116.17 60.04L115.89 98.24L20.29 81.18C20.29 81.18 18.22 79.8 17.46 77.23C16.7 74.66 7.75 39.21 7.75 39.21L116.17 60.03V60.04Z" fill="white" stroke="#3B65EE" stroke-width="1.69" stroke-linecap="round" stroke-linejoin="round"/>
<path d="M115.88 14.65V1.11002C115.88 1.11002 104.36 1.00002 100.71 6.08002C100.71 6.08002 76.8199 -7.99998 63.0499 10.01C63.0499 10.01 41.9699 -7.43999 24.8299 16.75C24.8299 16.75 14.9799 10.84 5.98993 13.53C-2.99007 16.22 1.88993 27.83 4.78993 28.2C4.78993 28.2 23.9699 19.25 115.87 14.64L115.88 14.65Z" fill="white" stroke="#3B65EE" stroke-width="1.69" stroke-linecap="round" stroke-linejoin="round"/>
<path opacity="0.2" d="M116.17 54.72V60.04L7.74005 39.22L4.80005 28.21L116.17 54.72Z" fill="#3B65EE"/>
<path opacity="0.2" d="M116.17 60.04L115.89 98.24L20.29 81.18C20.29 81.18 18.22 79.8 17.46 77.23C16.7 74.66 7.75 39.21 7.75 39.21L116.17 60.03V60.04Z" fill="#3B65EE"/>
<path d="M28.4898 61.47C29.2686 61.47 29.8998 60.8387 29.8998 60.06C29.8998 59.2813 29.2686 58.65 28.4898 58.65C27.7111 58.65 27.0798 59.2813 27.0798 60.06C27.0798 60.8387 27.7111 61.47 28.4898 61.47Z" fill="#3B65EE"/>
<path d="M35.2298 71.58C36.0085 71.58 36.6398 70.9487 36.6398 70.17C36.6398 69.3913 36.0085 68.76 35.2298 68.76C34.4511 68.76 33.8198 69.3913 33.8198 70.17C33.8198 70.9487 34.4511 71.58 35.2298 71.58Z" fill="#3B65EE"/>
<path d="M32.42 74.39C33.1987 74.39 33.83 73.7587 33.83 72.98C33.83 72.2013 33.1987 71.57 32.42 71.57C31.6413 71.57 31.01 72.2013 31.01 72.98C31.01 73.7587 31.6413 74.39 32.42 74.39Z" fill="#3B65EE"/>
<path opacity="0.2" d="M115.79 7.68001C115.79 7.68001 104.08 5.26001 100.71 12.57C100.71 12.57 78.07 -3.17999 64.38 14.53C64.38 14.53 36.64 5.42001 27.09 19.95C27.09 19.95 -3.87 11.65 6.83 26.72C6.83 26.72 88.9 12.23 115.88 14.65L115.8 7.68001H115.79Z" fill="#3B65EE"/>
<path d="M83.7 16.55C82.02 16.88 75.9201 18.43 77.4301 23.39C77.5201 23.68 77.3 23.98 76.99 23.96C74.95 23.82 68.9901 23.81 69.8601 28.84C69.8801 28.97 69.97 29.09 70.09 29.15C71.75 30.03 84.34 36.1 105.81 30.37C105.97 30.33 106.1 30.2 106.13 30.05C106.44 28.51 107.65 20.54 98.6101 21.47C98.4401 21.49 98.2701 21.42 98.1901 21.27C97.6801 20.44 95.6601 17.54 91.5401 16.47C88.2501 15.62 89.58 14.19 90.77 13.35C91.1 13.12 90.9501 12.6 90.5401 12.58C88.1701 12.46 83.51 12.64 84.03 16.04C84.06 16.27 83.93 16.49 83.7 16.54V16.55Z" fill="white" stroke="#3B65EE" stroke-width="1.12" stroke-miterlimit="10"/>
<path d="M82.8301 24.02C82.8301 24.02 89.2901 24.02 93.1701 22.76Z" fill="white"/>
<path d="M82.8301 24.02C86.2001 22.91 89.6401 22.72 93.1701 22.76C90.1901 24.76 86.2201 25 82.8301 24.02Z" fill="#3B65EE"/>
<path opacity="0.2" d="M74.5 30.8801C74.5 30.8801 73.14 27.1601 80.89 27.1601C88.64 27.1601 80.89 22.1301 84.77 20.8801C88.65 19.6301 92.25 20.8801 93.68 24.0201C95.11 27.1601 96.4 24.6501 98.98 25.9001C101.56 27.1501 103.47 27.6501 102.52 31.1701C102.52 31.1701 82.32 34.6001 74.5 30.8801Z" fill="#3B65EE"/>
</g>
<defs>
<clipPath id="clip0_9_180">
<rect width="117.01" height="99.09" fill="white"/>
</clipPath>
</defs>
</svg>
