<?xml version="1.0" encoding="UTF-8"?><svg id="Layer_1" xmlns="http://www.w3.org/2000/svg" viewBox="0 0 300 320"><defs><style>.cls-1{fill:#0069ff;}.cls-2{fill:#fff;}</style></defs><path class="cls-2" d="m175.55,299.97c-.09-1.19-.01-2.48.1-3.62.51,1.23,1.3,2.38,1.75,3.63,1.58-11.02-2.98-21.94-.21-32.9,1.5-5.93,4.22-10.3,7.85-15.28,6.83-9.36,15.02-17.52,20.86-27.4,5.46-9.24,13.72-21.35,14.53-32.5.87-12.06-12.97-15.09-17.12-24.56-4.13-9.43-2.56-20.52-2.56-30.62,0-11.71,0-23.42,0-35.13,0-13.8-.7-26.08-1.8-39.87-.42-5.29-1.32-27.66-9.31-17.65-4.55,5.7-3.39,16.85-4.46,23.62-1.59,10.05-1.36,20.04-1.83,30.31-.82,18.13-1.27,37.42-4.77,55.33-.85-6.11-2.95-13.88-8.6-17.25-2.39-1.43-6.09-.54-8.17-2.93-1.53-1.76.06-4.25-1.33-6.18-1.17-1.63-5.17-3.55-7.14-4.01-15.24-3.55-17.68,21.13-24.63,28.57-2.3-4.66.33-12.85-3.29-16.64-3.19-3.33-9.88-3.14-12.87-.13-7.4,7.43-4.3,25.17-12.68,31.82-4.25-5.24-3.73-13.21-7.86-18.44-2.21-2.79-7.13-3.33-6.85-7.39-11.52,12.61-.14,21.95-2.01,35.63-.91,6.64-3.79,12.03-3.6,18.67.35,12.42,7.71,23.91,14.42,34.16,5.95,9.08,14.66,16.89,19.04,26.96,5.38,12.36,8.03,31.92,5.83,45.08,18.4,2.1,38.66-.09,57.32-.09"/><path class="cls-2" d="m185.55,299.97c-.07-1.21-.03-2.42.1-3.62l-18.63,5.05c.58,1.22,1.21,2.4,1.75,3.63,1.76,3.98,7.38,5.67,11.29,4.6,4.56-1.25,6.84-5.21,7.34-9.64.91-8.01-.95-15.79-1.11-23.77-.14-7.03,2.45-12.39,6.42-18.01s9.01-11.2,13.43-16.85c4.8-6.14,8.88-12.61,12.86-19.3,7.01-11.78,15.72-27.65,9.05-41.35-2.33-4.78-6.25-8.25-10.2-11.66-4.16-3.59-6-5.39-6.96-11.21-1.2-7.2-.16-14.8-.14-22.07.02-8.46,0-16.92,0-25.37,0-16.44-.61-32.74-1.84-49.13-.58-7.83-.65-16.95-5.11-23.73-3.66-5.57-10.86-7.66-16.8-4.27-5.31,3.03-8.6,9.1-9.86,14.9-.81,3.75-1.11,7.64-1.33,11.46s-.32,5.59-.73,8.65c-1.25,9.25-1.29,18.53-1.65,27.83-.7,18.21-1.09,36.65-4.49,54.6h19.29c-.85-5.63-2.5-11.41-5.8-16.12-1.96-2.8-4.4-5.39-7.4-7.11-1.26-.72-2.71-1.25-4.09-1.64-.61-.17-1.23-.29-1.87-.36-2.06-.58-1.8-.08.78,1.53l1.37,5.05c-.53-4.85-.57-9.14-4.33-12.83-2.85-2.79-7.07-4.85-10.89-5.87-7.02-1.87-14.41.15-19.69,5.04-4.24,3.92-6.92,9.18-9.2,14.4-1.07,2.46-2.05,4.95-3.19,7.38-.51,1.09-1.11,2.12-1.63,3.2-.27.47-.55.94-.86,1.39.83-.99.89-1.08.2-.28l16.71,4.41c-1.07-2.68-.65-5.39-.93-8.6-.41-4.6-1.59-9.06-4.93-12.45-6.17-6.29-16.85-6.96-24.17-2.39-6.51,4.07-9.18,12.05-10.66,19.16-.68,3.26-1.18,6.56-2.07,9.77-.75,2.72-.85,3.44-2.79,5.14l15.71,2.02c-3.12-4.32-3.53-9.95-5.75-14.75-1.09-2.35-2.5-4.7-4.41-6.49-1.13-1.06-2.51-1.98-3.79-2.85-3.56-2.39.38-.66.61,3.3-.46-7.93-11.05-14.11-17.07-7.07-5.28,6.18-8.7,13.06-8.05,21.37.48,6.18,3.44,12.18,3.32,18.36-.16,7.97-4.26,15.11-3.72,23.33.58,8.92,3.84,17.31,8.07,25.1,3.9,7.18,8.49,14,13.54,20.42,4.43,5.63,9.51,11.04,12.53,17.63,5.15,11.26,7.27,26.58,5.41,38.7-1.06,6.9,2.65,11.91,9.64,12.66,19.07,2.03,38.21-.02,57.32-.09,12.87-.05,12.89-20.05,0-20-19.1.07-38.25,2.12-57.32.09l9.64,12.66c2.16-14.1.96-28.8-3.02-42.5-2.11-7.25-5.24-14.07-9.7-20.17s-9.5-11.53-13.61-17.77-8.35-12.51-10.73-19.5c-1.16-3.4-2.15-7.06-1.84-10.69.29-3.36,1.56-6.61,2.35-9.87,1.85-7.61,1.53-14.63-.34-22.19-1.29-5.22-3.15-8.95.65-13.39l-17.07-7.07c.23,3.99,1.34,7.4,4.23,10.28,1.25,1.24,2.75,2.07,4.13,3.11.21.16,1.39,1.04.68.21,1.57,1.82,1.8,4.88,2.46,7.08,1.07,3.58,2.38,7.15,4.58,10.2,3.93,5.43,10.52,6.57,15.71,2.02,8.38-7.34,8.2-18.64,11.15-28.5.08-.28,1.13-2.88.64-1.88l.53-.95c.64-1.04.76-1.21.36-.49.44.88-1.19.18-1.27.13-1.36-.79-.55-2.93-.84-.4-.12,1.06.05,2.26.1,3.32.13,3.11.29,6.39,1.46,9.31,2.56,6.38,11.25,10.65,16.71,4.41,5.12-5.84,7.13-13.15,10.54-19.97.81-1.61,1.66-3.25,2.72-4.72-.88,1.22,2.38-2.15,1.09-1.12.74-.59-1.4.13.3-.18s-.87-.59.9.04c-1.13-.4,1.35,1.32,1.03.58l-1.37-5.05c.35,4.42.41,8.63,3.73,12.03,2.83,2.9,6.13,3.22,9.65,4.61,1.21.48,1.98,1.24,2.79,3.27.97,2.45,1.38,5.29,1.77,7.89,1.46,9.72,17.51,9.37,19.29,0,5.6-29.55,3.78-59.66,7.11-89.4.53-4.72,0-9.82,1.4-14.4.1-.33.82-1.83.87-2.12l-.24.32c.91-.87.82-.83-.26.12h-3.87c-2.81.9-4.93.09-6.35-2.43.49.9.46.71-.11-.57.19.49.35.99.5,1.5,1.09,4.64,1.04,4.5,1.4,8.88.41,5.12.79,10.24,1.12,15.36.98,15.3.97,30.59.96,45.91,0,7.56.12,15.13-.1,22.68s-.43,14.49,1.03,21.65c1.26,6.19,3.95,11.71,8.32,16.27,3.05,3.18,7.07,5.54,9.77,9.03-.94-1.21.81,1.52.79,1.49-.55-1.44-.08,1.66-.1.36.04,2.16-.61,4.27-1.26,6.31-2.1,6.6-6.01,12.58-9.57,18.47s-7.48,11.69-11.95,17.14c-5.16,6.28-10.65,12.51-14.86,19.49s-6.37,14.4-6.54,22.33c-.18,8.6,2.1,16.98,1.12,25.59l18.63-5.05c-.55-1.23-1.17-2.42-1.75-3.63-1.89-3.94-7.29-5.7-11.29-4.6-4.45,1.22-7.02,5.22-7.34,9.64-.14,1.2-.17,2.41-.1,3.62.18,12.86,20.18,12.9,20,0h0Z"/><path class="cls-1" d="m100.69,147.13c-.32-5.72-2-12.72-6.72-16.4-7.98-6.21-18.71,1.56-22.67,8.85-5.85,10.75-4.56,24.48.33,35.31,3.93,8.7,14.02,22.88,25.25,21.17,6.03-.91,10.08-6.78,11.72-12.27.92-3.09-3.9-4.41-4.82-1.33-1.2,4.01-4.29,8.97-9,8.73-6.24-.32-11.94-7.64-15.15-12.27-3.83-5.53-6.25-12.07-6.96-18.76-.63-5.9-.05-12.23,2.69-17.58,2.24-4.37,7.18-9.53,12.62-9.06,5.78.49,7.46,8.9,7.72,13.6.18,3.2,5.18,3.22,5,0h0Z"/><path class="cls-1" d="m132.96,126.14c-6.25-10.08-19.76-9.72-28.19-2.33-8.86,7.77-9.51,21.17-8.1,32.02,1.26,9.78,3.78,21.59,9.94,29.63,7.08,9.23,16.78,7.64,24.19-.41,2.18-2.36-1.35-5.91-3.54-3.54-15.64,16.98-23.23-12.03-25.21-23.3-1.51-8.61-1.98-18.99,2.78-26.75,4.91-8,18.09-12.03,23.82-2.8,1.69,2.73,6.02.22,4.32-2.52h0Z"/><path class="cls-1" d="m141.02,221.99c.28-7.8,3.11-14.74,7.4-21.19,1.79-2.69-2.54-5.19-4.32-2.52-4.76,7.17-7.77,15.06-8.08,23.71-.12,3.22,4.89,3.21,5,0h0Z"/><path class="cls-1" d="m173.53,150.28c0-21.72.57-43.44,1.87-65.12.73-12.21.86-25.22,3.64-37.19,1.82-7.84,8.55-17.34,17.71-13.84,7.07,2.7,9.92,9.94,10.5,16.94,1.07,12.98.81,26.17.95,39.18.26,23.68.33,47.36.33,71.04,0,3.22,5,3.22,5,0,0-23.68-.07-47.36-.33-71.04-.15-13.81.81-28.45-1.27-42.15-1.21-7.92-4.91-14.34-12.17-18.03-5.98-3.03-13.82-1.76-18.28,3.26-9.36,10.51-9.13,25.31-10.17,38.58-2.03,26.06-2.77,52.24-2.77,78.37,0,3.22,5,3.22,5,0h0Z"/><path class="cls-1" d="m173.53,129.47c-.17-20.04-27.46-27.1-39.18-11.86-6.95,9.04-7.83,21.93-8.06,32.91-.1,5.1.1,10.19.2,15.29.15,7.64.24,15.73,4.4,22.46s12.29,8.74,20.07,7.65c4.2-.59,10.68-1.87,12.07-6.55.92-3.09-3.91-4.41-4.82-1.33-.76,2.58-8.3,3.1-10.67,3.16-8.69.24-13.49-4.69-15.18-13.15s-1.22-18.33-1.07-27.02c.15-8.96.71-18.8,4.87-26.92,4.48-8.76,15.25-12.36,24.33-8.04,4.97,2.37,8,7.98,8.05,13.41.03,3.22,5.03,3.22,5,0h0Z"/><path class="cls-1" d="m71.96,177.15c-3.38,6.03-4.79,13.48-4.88,20.32-.21,15.75,8.21,28.35,16.85,40.82,8.17,11.79,19.46,22.48,21.95,37.08,1.9,11.14.92,22.85.92,34.14,0,1.35,1.15,2.5,2.5,2.5h77c1.33,0,2.53-1.15,2.5-2.5-.17-7.95.22-15.9.04-23.85-.2-8.97-1.93-18.71,4.14-26.26,4.63-5.76,10.74-10.37,15.66-15.92,5.29-5.97,10.23-12.31,14.38-19.14,8.98-14.81,14.96-35.31,3.84-50.52-6.85-9.38-17.31-15.76-27.7-20.53-4.87-2.24-9.11-3.41-14.49-3.88-12.05-1.07-24.4.78-36.13,3.43-7.02,1.58-15.26,4.68-16.24,13.03-1.3,11.05,11.18,20.99,20.55,23.84,3.06.93,6.27,1.41,9.45,1.65,2.21.17,4.42.18,6.63.11,1.26-.04,3.78-.77,4.67-.63,1.72.28,4.16,2.37,5.56,3.28,3.59,2.35,6.86,5.03,9.74,8.23,2.16,2.4,5.68-1.15,3.54-3.54-3.77-4.19-8.31-7.62-13.13-10.5-1.01-.61-2.16-1.47-3.29-1.84-2.41-.79-5.31-.03-7.85.03-11.28.24-22.01-2.77-28.4-12.67s2.56-14.5,11.02-16.37c10.93-2.41,22.31-4.02,33.52-3.09,4.89.41,8.75,1.53,13.17,3.61,9.58,4.49,19.62,10.42,25.77,19.31,10.47,15.14,1.85,35.54-7.8,49.6-4.85,7.07-10.49,13.76-16.59,19.78-4.7,4.64-10.22,8.69-13.01,14.87-3.33,7.36-2.2,15.55-1.98,23.35.23,8.2-.2,16.41-.02,24.62l2.5-2.5h-77l2.5,2.5c0-10.41.97-21.29-.46-31.6-.82-5.9-2.01-11.22-4.82-16.51-3.24-6.11-7.88-11.28-11.97-16.83-13.26-17.98-31.19-41.87-18.27-64.9,1.58-2.81-2.74-5.33-4.32-2.52h0Z"/></svg>