<?xml version="1.0" encoding="UTF-8"?>
<svg xmlns="http://www.w3.org/2000/svg" xmlns:xlink="http://www.w3.org/1999/xlink" viewBox="0 0 409.19 161.37">
  <defs>
    <style>
      .cls-1, .cls-2, .cls-3, .cls-4 {
        fill: none;
      }

      .cls-5, .cls-6, .cls-7 {
        fill: #3b65ef;
      }

      .cls-6, .cls-8, .cls-7, .cls-9 {
        opacity: .2;
      }

      .cls-8, .cls-7 {
        mix-blend-mode: multiply;
      }

      .cls-8, .cls-10, .cls-9 {
        fill: #3b65ee;
      }

      .cls-2 {
        stroke-width: 2.2px;
      }

      .cls-2, .cls-3, .cls-11, .cls-12, .cls-13, .cls-14, .cls-15 {
        stroke: #3b65ee;
        stroke-linecap: round;
        stroke-linejoin: round;
      }

      .cls-3, .cls-12 {
        stroke-width: 2px;
      }

      .cls-16 {
        isolation: isolate;
      }

      .cls-11 {
        stroke-width: 2.24px;
      }

      .cls-11, .cls-12, .cls-13, .cls-14, .cls-15, .cls-17 {
        fill: #fff;
      }

      .cls-18 {
        clip-path: url(#clippath-1);
      }

      .cls-13 {
        stroke-width: 1.5px;
      }

      .cls-14 {
        stroke-width: 1.46px;
      }

      .cls-15 {
        stroke-width: 1.76px;
      }

      .cls-17 {
        stroke-width: 3px;
      }

      .cls-17, .cls-4 {
        stroke: #3b65ef;
        stroke-miterlimit: 10;
      }

      .cls-19 {
        clip-path: url(#clippath);
      }
    </style>
    <clipPath id="clippath">
      <path class="cls-1" d="M157.02,87.51l-23.26,10.89-8.72-27.35-27.62,3.21-5.42-23.98c-13.27,10.73-24.97,23.89-31.48,36.79-18.06,35.81,20.31,61.26,20.31,61.26,0,0,32.85,23.98,60.55-5.56,9.98-10.64,17.78-24.61,22.8-39.22l-7.17-16.03Z"/>
    </clipPath>
    <clipPath id="clippath-1">
      <path class="cls-1" d="M211.99,155.86c16.94,3.6,36.68-19.97,48.43-47.92l-16.12-18.57-22.81,15.9-20.62-19.98-15.34,20.6-13.91-10.73c4.83,29.63,20.08,56.4,40.36,60.7Z"/>
    </clipPath>
  </defs>
  <g class="cls-16">
    <g id="Layer_2" data-name="Layer 2">
      <g id="Layer_2-2" data-name="Layer 2">
        <g>
          <path class="cls-6" d="M209.51,56.68l-19.9-8.86-4.19,16.48-14.8-9.73-7.62,11.81-7.74-3.66c-5.18,17.85-6.75,38.79-2.84,54.51,8.36,33.6,47.8,28.62,47.8,28.62,0,0,35-2.82,36.47-37.75.92-21.78-8.04-46.42-21.09-62.97l-6.08,11.56Z"/>
          <path class="cls-13" d="M394.32,90.55s8.41-12.33,13.2-1.53c4.79,10.81-10.45,8.51-10.45,8.51,0,0,14.46,3.58,2.59,12.97s-13.33-6.86-13.33-6.86c0,0-1.87,15.97-11.69,9.1-9.82-6.87,2.3-15.24,6.27-14.57s-15.42,3.72-10.46-7.26,12.77,2.54,12.77,2.54c0,0-13.45-14.35,3.24-17.29,16.69-2.95,7.86,14.39,7.86,14.39Z"/>
          <path class="cls-9" d="M355.45,143.9s14-15.87,17.5-14.93-10.5,15.93-10.5,15.93c0,0,8-6.99,10-4.49s-1.93,4.49-1.93,4.49c0,0,5.74-5,5.84,0,0,0,5.24-4,13.1,2l-44.16.51s7.16-4.51,10.16-3.51Z"/>
          <path class="cls-3" d="M340.25,148.45s11.16-89.78,40.19-58.55"/>
          <path class="cls-11" d="M392.36,101.42c-2.46,1.52-5.51,1.04-6.81-1.07s.61-4.7,3.07-6.22,4.54-1.38,5.84.73.36,5.05-2.1,6.56Z"/>
          <path class="cls-12" d="M339.95,148.4s10-17,25-12c0,0-3,13-25,12Z"/>
          <path class="cls-12" d="M49.43,154.15s-.81-19.71,14.5-23.64c0,0,4.53,12.55-14.5,23.64Z"/>
          <path class="cls-12" d="M339.95,148.4s13.66-34,27-34c3,0-27,34-27,34Z"/>
          <path class="cls-10" d="M329.85,147.41s-.91-8.01-10.91-14.01"/>
          <path class="cls-10" d="M326.85,147.41s2.59-5.51-9.41-9.51"/>
          <path class="cls-9" d="M336.95,148.34s-12.5-20.44-14.5-17.44,12.5,17.44,12.5,17.44c0,0-15.16-11.9-15.33-7.17s.75,7.17.75,7.17c0,0-5.92-9.44-16.92-.44l33.5.44Z"/>
          <path class="cls-10" d="M368.61,147.41s2.84-7.37,11.34-7.94"/>
          <path class="cls-10" d="M371.76,146.77s4.68-6.36,13.03-4.67"/>
          <path class="cls-10" d="M298.45,140.44s5.95.82,8.54,7.5"/>
          <path class="cls-10" d="M299.45,143.96s3.16.43,4.54,3.99"/>
          <path class="cls-9" d="M392.36,101.42c-2.46,1.52-5.51,1.04-6.81-1.07s.61-4.7,3.07-6.22,4.54-1.38,5.84.73.36,5.05-2.1,6.56Z"/>
          <ellipse class="cls-9" cx="299.86" cy="153.28" rx="36.61" ry="6.61" transform="translate(-1.03 2.04) rotate(-.39)"/>
          <path class="cls-17" d="M295.77,153.55s-45.68,5.78-55.38-33.14,9.64-105.44,36.71-105.7c31.4-.3,62.69,52.18,60.9,95.1-1.69,40.46-42.23,43.74-42.23,43.74Z"/>
          <ellipse class="cls-9" cx="172.36" cy="153.85" rx="85.09" ry="7.5" transform="translate(-1.04 1.17) rotate(-.39)"/>
          <path class="cls-14" d="M11.18,107.46s-12.01,3.64-10.28-5.57c1.73-9.21,12.31-2.53,12.31-2.53,0,0-9.99-10.82,3.45-11.87,13.44-1.05,5.31,12.52,5.31,12.52,0,0,15.52-8.34,14.83,7.71-.69,16.04-12.91,3.33-13.68,1.12s6.4,12.87-8.69,13.29-9.41-11.36-3.25-14.66Z"/>
          <path class="cls-9" d="M64.45,149.9s14-15.87,17.5-14.93-10.5,15.93-10.5,15.93c0,0,8-6.99,10-4.49s-1.93,4.49-1.93,4.49c0,0,5.74-5,5.84,0,0,0,5.24-4,13.1,2l-44.16.51s7.16-4.51,10.16-3.51Z"/>
          <path class="cls-3" d="M49.45,153.9s-7-91-26-55"/>
          <path class="cls-2" d="M14.96,101.39c1.84-1.58,4.51-1.5,5.96.19s1.13,4.34-.71,5.92-4.75,1.22-6.19-.47-.9-4.06.94-5.64Z"/>
          <path class="cls-15" d="M47.8,154.45s-14.65-6.2-13.77-32.55c0,0,22.27,19.42,13.77,32.55Z"/>
          <path class="cls-10" d="M38.85,153.41s-.91-8.01-10.91-14.01"/>
          <path class="cls-10" d="M35.85,153.41s2.59-5.51-9.41-9.51"/>
          <path class="cls-9" d="M45.95,154.34s-12.5-20.44-14.5-17.44,12.5,17.44,12.5,17.44c0,0-15.16-11.9-15.33-7.17s.75,7.17.75,7.17c0,0-5.92-9.44-16.92-.44l33.5.44Z"/>
          <path class="cls-10" d="M77.61,153.41s2.84-7.37,11.34-7.94"/>
          <path class="cls-10" d="M80.76,152.77s4.68-6.36,13.03-4.67"/>
          <path class="cls-10" d="M7.45,146.44s5.95.82,8.54,7.5"/>
          <path class="cls-10" d="M8.45,149.96s3.16.43,4.54,3.99"/>
          <path class="cls-9" d="M14.96,101.39c1.84-1.58,4.51-1.5,5.96.19s1.13,4.34-.71,5.92-4.75,1.22-6.19-.47-.9-4.06.94-5.64Z"/>
          <path class="cls-17" d="M211.99,155.86c16.94,3.6,36.68-19.97,48.43-47.92l-16.12-18.57-22.81,15.9-20.62-19.98-15.34,20.6-13.91-10.73c4.83,29.63,20.08,56.4,40.36,60.7Z"/>
          <path class="cls-17" d="M157.02,87.51l-23.26,10.89-8.72-27.35-27.62,3.21-5.42-23.98c-13.27,10.73-24.97,23.89-31.48,36.79-18.06,35.81,20.31,61.26,20.31,61.26,0,0,32.85,23.98,60.55-5.56,9.98-10.64,17.78-24.61,22.8-39.22l-7.17-16.03Z"/>
          <polygon class="cls-6" points="94.16 59.79 110.8 57.25 113.17 72.43 97.43 74.27 94.16 59.79"/>
          <polygon class="cls-6" points="128.28 81.2 139.77 73.78 149.78 91.04 133.76 98.4 128.28 81.2"/>
          <polygon class="cls-6" points="177.66 99.81 182.45 88.9 193.73 94.89 185.69 104.85 177.66 99.81"/>
          <polygon class="cls-6" points="211.64 95.72 222.97 85.29 235.19 95.72 221.49 105.26 211.64 95.72"/>
          <g class="cls-19">
            <g>
              <ellipse class="cls-5" cx="97.87" cy="54.59" rx="19.64" ry="16.93" transform="translate(-10.32 83.82) rotate(-44.27)"/>
              <ellipse class="cls-5" cx="69.33" cy="111.72" rx="18.91" ry="21.01" transform="translate(-7.37 4.93) rotate(-3.86)"/>
              <ellipse class="cls-5" cx="161.42" cy="64.49" rx="21.32" ry="19.23" transform="translate(47.25 195.57) rotate(-70.72)"/>
              <ellipse class="cls-5" cx="120.6" cy="101.91" rx="17.41" ry="19.24" transform="translate(-35.45 77.81) rotate(-31.42)"/>
              <ellipse class="cls-5" cx="121.23" cy="147.12" rx="21.38" ry="16.68" transform="translate(-14.45 13.21) rotate(-5.89)"/>
            </g>
          </g>
          <path class="cls-7" d="M156.67,87.67l-22.67,10.62c-4.78,5.61-10.18,11.25-16.1,14.95-19.73,12.33-48.87,2.34-42.03,16.58,7.72,16.09,33.04,24.86,53.57,13.91,14.31-7.63,30.05-35.61,27.23-56.05Z"/>
          <g class="cls-18">
            <g>
              <ellipse class="cls-5" cx="253.37" cy="104.76" rx="19.64" ry="16.93" transform="translate(80 317.16) rotate(-73.24)"/>
              <ellipse class="cls-5" cx="250.67" cy="40.96" rx="18.91" ry="21.01" transform="translate(17.83 142.46) rotate(-32.83)"/>
              <ellipse class="cls-5" cx="192.98" cy="126.88" rx="19.23" ry="21.32" transform="translate(-18.6 34.29) rotate(-9.69)"/>
              <ellipse class="cls-5" cx="210.57" cy="74.37" rx="17.41" ry="19.24" transform="translate(41.87 220.69) rotate(-60.39)"/>
              <ellipse class="cls-5" cx="188.12" cy="35.12" rx="21.38" ry="16.68" transform="translate(13.67 113.81) rotate(-34.85)"/>
            </g>
          </g>
          <path class="cls-5" d="M338.07,104.01c-5.41-6.17-10.4-12.64-15.28-19.21,0,0,.81.55.81.55-6.69-1.38-13.34-2.93-19.97-4.59,0,0-.63-.16-.63-.16l-.27-.52c-1.26-2.44-2.95-5.68-4.15-8.12,0,0,.18-.44.18-.44,1.15-2.79,2.35-5.57,3.59-8.33,0,0,.02.49.02.49-.89-2.28-1.75-4.58-2.55-6.91,1.32,2.16,2.58,4.35,3.81,6.56-.86,3.01-1.79,6-2.75,8.97,0,0-.07-.93-.07-.93,1.28,2.11,3.11,5.2,4.36,7.37,0,0-.9-.68-.9-.68,6.87,1.45,13.71,3.01,20.51,4.76,4.67,6.93,9.21,13.91,13.31,21.2h0Z"/>
          <path class="cls-5" d="M296.62,88.9c5.66-4.11,12.51-6.48,19.51-6.69-5.65,4.13-12.52,6.47-19.51,6.69h0Z"/>
          <path class="cls-5" d="M239.95,68.4c7.61-4.31,15.68-7.97,23.73-11.36,0,0-.81.83-.81.83,1.56-4.14,3.34-8.4,5.09-12.46,3.19-1.32,6.44-2.51,9.69-3.67,0,0-.36.34-.36.34,1.18-1.92,2.37-3.82,3.65-5.67-.73,2.2-1.58,4.36-2.42,6.51-2.99,1.61-6,3.19-9.05,4.67,0,0,.68-.71.68-.71-1.02,2.93-2.23,6.16-3.35,9.07-.45,1.2-.96,2.39-1.43,3.59-2.22.89-4.44,1.8-6.69,2.63-6.11,2.31-12.43,4.54-18.74,6.24h0Z"/>
          <path class="cls-5" d="M258.86,60.52c-1.48-5.36-1.65-10.93-1.39-16.44,1.76-2.75,3.66-5.38,6.02-7.68-.37,1.58-.89,3.08-1.47,4.55-.57,1.47-1.23,2.89-1.93,4.28l.19-.7c.22,5.36.03,10.79-1.41,16h0Z"/>
          <path class="cls-8" d="M324.31,129.56c-13.35,19.05-39.9,22.69-54.07,11.83-12.53-9.61,17.97-13.88,29.99-33.8s9.16-56.48,20.91-43.06c14,16,13,51,3.17,65.03Z"/>
          <g>
            <polygon class="cls-5" points="135.96 27.35 136.91 27.65 136.88 27.76 135.93 27.44 135.96 27.35"/>
            <path class="cls-5" d="M138.89,28.07c.67.1,1.34.15,2.02.17v.17c-.69-.03-1.37-.09-2.04-.19l.02-.14Z"/>
            <path class="cls-5" d="M142.94,28.18c.67-.05,1.35-.14,2.01-.25l.04.22c-.67.1-1.35.18-2.03.23v-.19Z"/>
            <polygon class="cls-5" points="146.94 27.52 148.89 26.96 148.97 27.22 147 27.76 146.94 27.52"/>
            <polygon class="cls-5" points="150.8 26.27 152.66 25.48 152.8 25.78 150.9 26.55 150.8 26.27"/>
            <polygon class="cls-5" points="154.48 24.59 156.26 23.6 156.45 23.94 154.65 24.9 154.48 24.59"/>
            <polygon class="cls-5" points="157.98 22.54 159.66 21.4 159.91 21.76 158.2 22.89 157.98 22.54"/>
            <polygon class="cls-5" points="161.28 20.18 162.84 18.9 163.16 19.27 161.56 20.55 161.28 20.18"/>
            <polygon class="cls-5" points="164.34 17.54 165.77 16.1 166.16 16.47 164.7 17.91 164.34 17.54"/>
            <polygon class="cls-5" points="167.11 14.59 168.34 13 168.81 13.34 167.54 14.95 167.11 14.59"/>
            <path class="cls-5" d="M169.44,11.31c.34-.58.64-1.17.9-1.78l.57.24c-.28.64-.6,1.25-.95,1.84l-.51-.3Z"/>
            <path class="cls-5" d="M170.95,7.65c.14-.64.2-1.29.15-1.93l.65-.05c.05.72-.03,1.43-.19,2.12l-.62-.14Z"/>
            <path class="cls-5" d="M170.57,3.92c-.31-.55-.74-1.02-1.26-1.4l.42-.56c.57.43,1.08.98,1.43,1.63l-.59.33Z"/>
            <path class="cls-5" d="M167.61,1.62c-.61-.23-1.25-.4-1.9-.52l.14-.72c.68.14,1.36.32,2.02.57l-.26.67Z"/>
            <path class="cls-5" d="M163.73.85c-.67-.05-1.33-.07-2-.07v-.78c.69,0,1.38.03,2.07.09l-.06.76Z"/>
            <path class="cls-5" d="M159.72.85c-.67.05-1.33.13-1.98.25l-.15-.82c.69-.12,1.38-.19,2.07-.23l.06.8Z"/>
            <path class="cls-5" d="M155.84,1.61c-.61.22-1.19.5-1.7.86l-.52-.74c.6-.41,1.26-.71,1.93-.94l.29.82Z"/>
            <path class="cls-5" d="M152.91,3.81c-.29.52-.43,1.12-.42,1.73h-.97c0-.75.19-1.52.58-2.18l.82.46Z"/>
            <path class="cls-5" d="M152.83,7.36c.21.6.51,1.18.85,1.73l-.84.52c-.37-.6-.7-1.24-.94-1.92l.93-.33Z"/>
            <path class="cls-5" d="M154.85,10.67c.43.5.88.98,1.36,1.43l-.68.72c-.51-.48-.99-.98-1.44-1.52l.76-.64Z"/>
            <path class="cls-5" d="M157.72,13.4c.52.41,1.06.8,1.62,1.16l-.55.83c-.58-.38-1.14-.78-1.69-1.21l.62-.79Z"/>
            <polygon class="cls-5" points="161.04 15.62 162.82 16.54 162.43 17.37 160.58 16.46 161.04 15.62"/>
            <polygon class="cls-5" points="164.66 17.33 166.55 17.99 166.32 18.77 164.35 18.14 164.66 17.33"/>
            <path class="cls-5" d="M168.49,18.5c.65.15,1.31.28,1.97.37l-.09.68c-.68-.07-1.37-.17-2.04-.3l.16-.75Z"/>
            <path class="cls-5" d="M172.46,19.09c.67.04,1.34.06,2.01.04l.02.51c-.69.04-1.37.06-2.06.04l.03-.6Z"/>
            <path class="cls-5" d="M176.48,19c.67-.07,1.34-.17,2-.31l.07.28c-.66.18-1.33.32-2.01.44l-.06-.41Z"/>
            <polygon class="cls-5" points="180.45 18.19 181.4 17.88 181.43 17.97 180.5 18.35 180.45 18.19"/>
          </g>
          <ellipse class="cls-5" cx="186.95" cy="16.9" rx="2.5" ry="2"/>
          <path class="cls-4" d="M185.93,15.87s-2.36-6.57-4.65-4.4,4.05,4.63,4.65,4.4Z"/>
          <path class="cls-4" d="M185.78,15.87s2.36-6.57,4.65-4.4-4.05,4.63-4.65,4.4Z"/>
        </g>
      </g>
    </g>
  </g>
</svg>