<svg width="281" height="299" viewBox="0 0 281 299" fill="none" xmlns="http://www.w3.org/2000/svg">
<path d="M152.671 85.9144C164.711 82.9144 176.381 80.9544 187.561 79.7944C180.211 52.6244 169.621 30.2444 160.091 13.6444C151.671 -1.0156 130.651 -1.22561 121.751 13.1544C112.651 27.8744 103.151 46.4144 95.8008 68.4744C111.671 72.9144 128.521 79.1344 145.521 87.8144C147.881 87.1544 150.261 86.5144 152.681 85.9144H152.671Z" fill="white"/>
<path d="M145.252 90.4832L144.382 90.0432C128.912 82.1432 112.342 75.6932 95.1316 70.8832L92.6016 70.1732L93.4316 67.6832C99.8916 48.3032 108.702 29.5132 119.632 11.8432C124.292 4.28323 132.372 -0.136771 141.242 0.00322884C150.032 0.143229 157.882 4.77323 162.262 12.3932C174.382 33.4932 183.712 55.9532 189.982 79.1332L190.752 81.9632L187.832 82.2632C176.202 83.4732 164.582 85.5132 153.292 88.3232C151.002 88.8932 148.682 89.5132 146.202 90.2032L145.262 90.4632L145.252 90.4832ZM99.0116 66.7832C115.322 71.5032 131.032 77.6732 145.782 85.1432C147.952 84.5432 150.022 83.9932 152.072 83.4832C162.642 80.8532 173.492 78.8832 184.372 77.6232C178.232 55.8532 169.342 34.7532 157.922 14.8832C154.432 8.81323 148.162 5.11323 141.162 5.00323C134.062 4.88323 127.622 8.42323 123.882 14.4632C113.622 31.0532 105.262 48.6432 99.0116 66.7832Z" fill="#0069FF"/>
<path d="M93.1016 219.88C100.772 246.51 111.532 268.64 121.072 285.02C129.682 299.81 151.012 299.78 159.642 285.01C167.592 271.41 176.062 254.22 182.912 233.84C166.672 228.93 149.402 222.06 131.922 212.5C118.482 216.12 105.482 218.47 93.1116 219.89L93.1016 219.88Z" fill="white"/>
<path d="M140.331 298.6H140.311C131.391 298.6 123.391 293.99 118.901 286.28C106.711 265.36 97.2211 243.25 90.6911 220.58L89.8711 217.74L92.8111 217.4C105.791 215.92 118.731 213.45 131.261 210.08L132.231 209.82L133.111 210.3C149.031 219 166.031 226.11 183.631 231.44L186.101 232.19L185.281 234.63C179.271 252.5 171.371 269.88 161.801 286.27C157.291 293.99 149.271 298.6 140.341 298.6H140.331ZM96.3311 222.02C102.711 243.31 111.761 264.07 123.231 283.77C126.821 289.93 133.211 293.6 140.321 293.61H140.331C147.461 293.61 153.871 289.93 157.481 283.76C166.451 268.41 173.921 252.18 179.711 235.48C162.981 230.25 146.811 223.43 131.601 215.18C120.081 218.23 108.241 220.53 96.3411 222.02H96.3311Z" fill="#0069FF"/>
<path d="M48.0142 140.227C30.6942 154.957 17.1842 170.087 7.24423 182.827C-3.28577 196.317 4.66423 216.107 21.5942 218.627C40.8042 221.487 65.3642 223.067 93.0942 219.897C89.4942 207.417 86.5842 193.947 84.7842 179.627C70.1542 166.847 58.0342 153.427 48.0042 140.237L48.0142 140.227Z" fill="white"/>
<path d="M62.2624 224.145C48.5824 224.145 34.8624 223.125 21.2324 221.105C12.3824 219.785 5.11237 214.045 1.80237 205.755C-1.50763 197.475 -0.207628 188.335 5.28237 181.295C17.5724 165.545 31.4124 151.085 46.4024 138.335L48.4124 136.625L50.0124 138.725C60.8224 152.935 73.0724 166.065 86.4424 177.745L87.1624 178.375L87.2824 179.325C88.9524 192.635 91.7224 206.055 95.5124 219.215L96.3324 222.055L93.3924 222.395C83.0824 223.575 72.6824 224.165 62.2724 224.165L62.2624 224.145ZM47.6424 143.845C33.6724 155.955 20.7524 169.575 9.22237 184.365C4.84237 189.985 3.80237 197.285 6.44237 203.885C9.09237 210.515 14.8924 215.095 21.9724 216.155C44.5824 219.515 67.4224 220.045 89.9024 217.725C86.5324 205.545 84.0324 193.165 82.4424 180.875C69.7624 169.715 58.0724 157.275 47.6524 143.845H47.6424Z" fill="#0069FF"/>
<path d="M273.682 118.166C284.162 104.896 276.543 85.3055 259.883 82.3955C240.113 78.9455 215.353 76.8956 187.562 79.7956C191.023 92.5856 193.762 106.446 195.332 121.256C197.212 122.876 199.072 124.526 200.932 126.216C213.152 137.386 223.462 149.036 232.192 160.596C249.892 145.976 263.592 130.936 273.682 118.166Z" fill="white"/>
<path d="M231.771 164.191L230.201 162.101C220.941 149.821 210.531 138.371 199.251 128.051C197.501 126.451 195.691 124.841 193.711 123.131L192.961 122.481L192.861 121.501C191.401 107.721 188.811 93.9006 185.161 80.4306L184.391 77.6006L187.311 77.3006C211.391 74.7906 235.961 75.6706 260.321 79.9306C269.071 81.4606 276.181 87.3106 279.341 95.6006C282.471 103.811 281.091 112.831 275.651 119.721C263.241 135.441 249.151 149.841 233.791 162.531L231.781 164.191H231.771ZM197.711 120.001C199.441 121.501 201.051 122.941 202.621 124.371C213.481 134.301 223.551 145.271 232.601 157.011C246.921 144.951 260.071 131.381 271.731 116.621C276.071 111.121 277.171 103.931 274.671 97.3806C272.141 90.7606 266.461 86.0806 259.461 84.8606C236.531 80.8606 213.431 79.9006 190.741 81.9906C193.971 94.4906 196.321 107.261 197.721 120.001H197.711Z" fill="#0069FF"/>
<path d="M145.522 87.8169C162.252 96.3669 179.122 107.287 195.332 121.257C193.762 106.447 191.022 92.5869 187.562 79.7969C176.382 80.9669 164.712 82.9269 152.672 85.9169C150.252 86.5169 147.872 87.1569 145.512 87.8169H145.522Z" fill="white"/>
<path d="M198.481 127.276L193.701 123.156C178.731 110.256 162.141 99.1159 144.381 90.0459L138.691 87.1359L144.851 85.4059C147.371 84.6959 149.741 84.0759 152.081 83.4859C163.601 80.6159 175.451 78.5359 187.311 77.3059L189.431 77.0859L189.991 79.1359C193.701 92.8659 196.341 106.946 197.831 120.986L198.501 127.266L198.481 127.276ZM152.331 88.5859C166.431 96.2459 179.771 105.196 192.101 115.286C190.661 104.286 188.511 93.2959 185.691 82.5159C174.771 83.7459 163.881 85.7059 153.271 88.3459C152.961 88.4259 152.641 88.5059 152.331 88.5859Z" fill="#0069FF"/>
<path d="M98.933 191.139C93.973 187.369 89.273 183.519 84.793 179.609C86.593 193.929 89.503 207.399 93.103 219.879C105.473 218.469 118.473 216.109 131.913 212.489C120.933 206.489 109.883 199.439 98.933 191.129V191.139Z" fill="white"/>
<path d="M91.2805 222.614L90.6905 220.584C86.8305 207.174 84.0105 193.494 82.3005 179.924L81.4805 173.414L86.4205 177.734C91.0005 181.734 95.7105 185.584 100.43 189.154C110.73 196.974 121.72 204.084 133.1 210.304L138.57 213.294L132.55 214.914C119.78 218.354 106.6 220.854 93.3705 222.374L91.2705 222.614H91.2805ZM88.1705 185.784C89.7605 196.274 92.0205 206.794 94.9205 217.164C105.13 215.914 115.3 214.064 125.25 211.634C115.6 206.054 106.26 199.854 97.4205 193.144C94.3205 190.794 91.2305 188.334 88.1705 185.784Z" fill="#0069FF"/>
<path d="M182.902 233.834C204.782 240.454 224.802 243.534 240.972 244.874C257.762 246.264 269.962 229.164 263.212 213.734C256.232 197.794 246.302 179.304 232.192 160.594C221.102 169.754 208.432 178.744 194.092 186.914C191.622 204.004 187.662 219.684 182.912 233.824L182.902 233.834Z" fill="white"/>
<path d="M242.861 247.45C242.161 247.45 241.461 247.42 240.761 247.36C220.881 245.71 201.171 241.97 182.181 236.22L179.711 235.47L180.531 233.03C185.621 217.9 189.341 202.26 191.611 186.56L191.781 185.35L192.841 184.74C206.041 177.22 218.741 168.44 230.591 158.66L232.601 157L234.171 159.09C246.561 175.51 257.091 193.56 265.481 212.73C269.011 220.8 268.061 229.89 262.931 237.07C258.221 243.66 250.831 247.45 242.851 247.45H242.861ZM186.081 232.17C203.981 237.4 222.501 240.83 241.171 242.38C248.161 242.96 254.781 239.89 258.871 234.16C262.961 228.43 263.731 221.17 260.911 214.73C253.031 196.72 243.221 179.73 231.741 164.18C220.581 173.22 208.701 181.39 196.371 188.48C194.171 203.23 190.711 217.9 186.071 232.16L186.081 232.17Z" fill="#0069FF"/>
<path d="M95.8008 68.474C74.7308 62.584 55.3908 59.824 39.7708 58.624C22.7608 57.314 10.6008 74.824 17.8308 90.274C24.7308 105.014 34.4608 122.404 48.0108 140.224C58.8808 130.974 71.2608 121.884 85.2208 113.624C87.5008 97.254 91.2308 82.184 95.8008 68.464V68.474Z" fill="white"/>
<path d="M47.6215 143.84L46.0215 141.74C34.1715 126.15 23.9215 109.19 15.5615 91.3296C11.7915 83.2796 12.5615 74.0996 17.6215 66.7796C22.7015 59.4296 31.0515 55.4496 39.9515 56.1296C59.1315 57.5996 78.1515 60.9496 96.4615 66.0696L98.9915 66.7796L98.1615 69.2696C93.3115 83.8196 89.7915 98.8696 87.6815 113.98L87.5115 115.17L86.4715 115.78C73.6515 123.37 61.2415 132.23 49.6115 142.13L47.6015 143.84H47.6215ZM38.0115 61.0496C31.5015 61.0496 25.5015 64.1796 21.7415 69.6096C17.7015 75.4496 17.0815 82.7796 20.0915 89.1996C27.9315 105.94 37.4515 121.87 48.4215 136.6C59.3615 127.47 70.9515 119.23 82.9115 112.08C84.9515 97.9296 88.2115 83.8496 92.6115 70.1796C75.3915 65.5396 57.5615 62.4896 39.5815 61.1096C39.0515 61.0696 38.5315 61.0496 38.0115 61.0496Z" fill="#0069FF"/>
<path d="M145.523 87.8166C128.523 79.1366 111.673 72.9166 95.8027 68.4766C91.2327 82.1966 87.5027 97.2666 85.2227 113.637C102.793 103.247 122.843 94.1766 145.523 87.8166Z" fill="white"/>
<path d="M82.0312 118.422L82.7513 113.282C84.9013 97.8619 88.4912 82.5219 93.4412 67.6819L94.1912 65.4219L96.4812 66.0619C114.021 70.9619 130.901 77.5319 146.661 85.5819L152.351 88.4919L146.191 90.2219C125.381 96.0619 105.291 104.662 86.4912 115.782L82.0312 118.422ZM97.4313 71.5319C93.4913 83.7319 90.4913 96.2519 88.4613 108.862C104.451 99.8319 121.291 92.5719 138.681 87.2119C125.571 80.9219 111.731 75.6619 97.4212 71.5319H97.4313Z" fill="#0069FF"/>
<path d="M150.372 206.802C144.142 208.972 137.982 210.862 131.902 212.492C149.392 222.052 166.652 228.912 182.892 233.832C187.642 219.692 191.612 204.012 194.072 186.922C180.932 194.412 166.392 201.212 150.362 206.802H150.372Z" fill="white"/>
<path d="M184.502 236.937L182.182 236.237C164.252 230.817 146.932 223.567 130.712 214.697L125.242 211.707L131.262 210.087C137.422 208.427 143.572 206.537 149.552 204.447C164.492 199.237 179.062 192.607 192.852 184.757L197.292 182.227L196.562 187.287C194.252 203.287 190.452 219.217 185.272 234.637L184.502 236.937ZM138.592 213.227C152.202 220.247 166.532 226.127 181.302 230.737C185.472 217.947 188.672 204.817 190.842 191.607C178.132 198.527 164.822 204.427 151.202 209.177C147.062 210.617 142.842 211.977 138.592 213.227Z" fill="#0069FF"/>
<path d="M200.934 126.21C199.074 124.51 197.214 122.86 195.334 121.25C196.674 133.85 197.174 147.14 196.544 161.06C196.144 170.01 195.294 178.63 194.094 186.92C208.444 178.75 221.104 169.76 232.194 160.6C223.474 149.04 213.154 137.39 200.934 126.22V126.21Z" fill="white"/>
<path d="M190.883 191.627L191.613 186.567C192.843 178.067 193.653 169.447 194.043 160.947C194.633 147.837 194.233 134.577 192.853 121.507L192.183 115.227L196.963 119.347C198.983 121.087 200.833 122.727 202.623 124.357C214.123 134.877 224.743 146.557 234.193 159.077L235.633 160.987L233.793 162.507C221.723 172.477 208.783 181.417 195.333 189.077L190.893 191.607L190.883 191.627ZM198.413 127.307C199.333 138.567 199.543 149.927 199.033 161.177C198.713 168.147 198.113 175.187 197.243 182.187C208.183 175.667 218.753 168.287 228.733 160.187C219.843 148.627 209.923 137.827 199.243 128.057C198.963 127.807 198.693 127.557 198.413 127.297V127.307Z" fill="#0069FF"/>
<path d="M84.7917 179.613C82.2517 159.333 81.9517 137.333 85.1717 113.993C85.1917 113.873 85.2117 113.753 85.2217 113.633C71.2717 121.883 58.8917 130.983 48.0117 140.233C58.0417 153.423 70.1617 166.843 84.7917 179.623V179.613Z" fill="white"/>
<path d="M88.0837 185.814L83.1438 181.494C69.5238 169.594 57.0338 156.224 46.0238 141.734L44.5938 139.854L46.3938 138.324C58.2438 128.244 70.8737 119.214 83.9437 111.484L88.4038 108.844L87.6438 114.334C84.6838 135.814 84.5638 157.674 87.2738 179.304L88.0938 185.814H88.0837ZM51.4438 140.594C60.5538 152.354 70.6638 163.354 81.5638 173.374C79.7438 155.074 79.9138 136.644 82.0638 118.454C71.4638 125.014 61.1938 132.444 51.4438 140.594Z" fill="#0069FF"/>
<path d="M85.2204 113.63C85.2004 113.75 85.1804 113.87 85.1704 113.99C81.9504 137.34 82.2504 159.33 84.7904 179.61C89.2704 183.52 93.9704 187.38 98.9304 191.14C109.87 199.45 120.93 206.5 131.91 212.5C137.98 210.87 144.14 208.98 150.38 206.81C166.42 201.22 180.95 194.42 194.09 186.93C195.29 178.63 196.14 170.01 196.54 161.07C197.17 147.15 196.67 133.86 195.33 121.26C179.12 107.29 162.25 96.3703 145.52 87.8203C122.84 94.1803 102.79 103.24 85.2204 113.64V113.63Z" fill="white"/>
<path d="M131.592 215.173L130.712 214.693C119.122 208.353 107.922 201.103 97.4219 193.133C92.6119 189.483 87.8119 185.573 83.1419 181.493L82.4219 180.863L82.3019 179.913C79.5319 157.853 79.6619 135.553 82.6819 113.633L82.9019 112.073L83.9419 111.463C103.122 100.113 123.612 91.3428 144.842 85.3928L145.782 85.1328L146.652 85.5728C164.762 94.8228 181.692 106.183 196.962 119.343L197.712 119.993L197.812 120.973C199.222 134.283 199.632 147.803 199.032 161.163C198.642 169.823 197.812 178.603 196.562 187.273L196.392 188.483L195.332 189.083C181.282 197.083 166.432 203.843 151.202 209.153C145.112 211.283 138.832 213.213 132.562 214.903L131.592 215.163V215.173ZM87.1519 178.353C91.5019 182.133 95.9719 185.763 100.442 189.153C110.472 196.773 121.162 203.723 132.232 209.823C138.062 208.233 143.892 206.423 149.552 204.443C164.112 199.363 178.312 192.943 191.782 185.353C192.912 177.243 193.672 169.043 194.042 160.943C194.622 148.163 194.252 135.233 192.952 122.493C178.422 110.083 162.392 99.3128 145.252 90.4828C125.152 96.2028 105.752 104.503 87.5319 115.163C84.7219 136.063 84.6019 157.313 87.1519 178.353Z" fill="#0069FF"/>
<path d="M114.443 43.9559C121.103 43.9559 126.503 38.5565 126.503 31.8959C126.503 25.2354 121.103 19.8359 114.443 19.8359C107.782 19.8359 102.383 25.2354 102.383 31.8959C102.383 38.5565 107.782 43.9559 114.443 43.9559Z" fill="#EAF0FF"/>
<path d="M114.443 46.4559C106.413 46.4559 99.8828 39.9259 99.8828 31.8959C99.8828 23.8659 106.413 17.3359 114.443 17.3359C122.473 17.3359 129.003 23.8659 129.003 31.8959C129.003 39.9259 122.473 46.4559 114.443 46.4559ZM114.443 22.3459C109.173 22.3459 104.883 26.6359 104.883 31.9059C104.883 37.1759 109.173 41.4659 114.443 41.4659C119.713 41.4659 124.003 37.1759 124.003 31.9059C124.003 26.6359 119.713 22.3459 114.443 22.3459Z" fill="#0069FF"/>
<path d="M52.4406 239.147C62.2713 239.147 70.2406 231.178 70.2406 221.347C70.2406 211.516 62.2713 203.547 52.4406 203.547C42.61 203.547 34.6406 211.516 34.6406 221.347C34.6406 231.178 42.61 239.147 52.4406 239.147Z" fill="#EAF0FF"/>
<path d="M52.4406 241.647C41.2506 241.647 32.1406 232.547 32.1406 221.347C32.1406 210.147 41.2406 201.047 52.4406 201.047C63.6406 201.047 72.7406 210.147 72.7406 221.347C72.7406 232.547 63.6406 241.647 52.4406 241.647ZM52.4406 206.057C44.0106 206.057 37.1406 212.917 37.1406 221.357C37.1406 229.797 44.0006 236.657 52.4406 236.657C60.8806 236.657 67.7406 229.797 67.7406 221.357C67.7406 212.917 60.8806 206.057 52.4406 206.057Z" fill="#0069FF"/>
<path d="M137.143 166.81C149.26 166.81 159.083 156.987 159.083 144.87C159.083 132.753 149.26 122.93 137.143 122.93C125.026 122.93 115.203 132.753 115.203 144.87C115.203 156.987 125.026 166.81 137.143 166.81Z" fill="#EAF0FF"/>
<path d="M137.143 169.302C123.673 169.302 112.703 158.342 112.703 144.862C112.703 131.382 123.663 120.422 137.143 120.422C150.623 120.422 161.583 131.382 161.583 144.862C161.583 158.342 150.623 169.302 137.143 169.302ZM137.143 125.432C126.423 125.432 117.703 134.152 117.703 144.872C117.703 155.592 126.423 164.312 137.143 164.312C147.863 164.312 156.583 155.592 156.583 144.872C156.583 134.152 147.863 125.432 137.143 125.432Z" fill="#0069FF"/>
<path d="M223.521 256.362C230.181 256.362 235.581 250.963 235.581 244.302C235.581 237.642 230.181 232.242 223.521 232.242C216.86 232.242 211.461 237.642 211.461 244.302C211.461 250.963 216.86 256.362 223.521 256.362Z" fill="#EAF0FF"/>
<path d="M223.521 258.862C215.491 258.862 208.961 252.332 208.961 244.302C208.961 236.272 215.491 229.742 223.521 229.742C231.551 229.742 238.081 236.272 238.081 244.302C238.081 252.332 231.551 258.862 223.521 258.862ZM223.521 234.752C218.251 234.752 213.961 239.042 213.961 244.312C213.961 249.582 218.251 253.872 223.521 253.872C228.791 253.872 233.081 249.582 233.081 244.312C233.081 239.042 228.791 234.752 223.521 234.752Z" fill="#0069FF"/>
<path d="M236.154 89.8856C242.814 89.8856 248.214 84.4862 248.214 77.8256C248.214 71.1651 242.814 65.7656 236.154 65.7656C229.493 65.7656 224.094 71.1651 224.094 77.8256C224.094 84.4862 229.493 89.8856 236.154 89.8856Z" fill="#EAF0FF"/>
<path d="M236.154 92.37C228.124 92.37 221.594 85.84 221.594 77.81C221.594 69.78 228.124 63.25 236.154 63.25C244.184 63.25 250.714 69.78 250.714 77.81C250.714 85.84 244.184 92.37 236.154 92.37ZM236.154 68.26C230.884 68.26 226.594 72.55 226.594 77.82C226.594 83.09 230.884 87.38 236.154 87.38C241.424 87.38 245.714 83.09 245.714 77.82C245.714 72.55 241.424 68.26 236.154 68.26Z" fill="#0069FF"/>
</svg>
