<svg width="380" height="233" viewBox="0 0 380 233" fill="none" xmlns="http://www.w3.org/2000/svg">
<path d="M368.849 129.33C354.969 121.88 338.779 120.03 323.569 124.13C308.919 128.08 291.119 132.46 282.019 133.11C264.929 134.33 297.209 153.88 297.209 153.88L368.849 129.33Z" fill="#85D3C4" stroke="#3B65EE" stroke-width="2.5" stroke-miterlimit="10" stroke-linecap="round" stroke-linejoin="round"/>
<path d="M10.6797 129.33C24.5597 121.88 40.7497 120.03 55.9597 124.13C70.6097 128.08 88.4097 132.46 97.5097 133.11C114.6 134.33 82.3197 153.88 82.3197 153.88L10.6797 129.33Z" fill="#85D3C4" stroke="#3B65EE" stroke-width="2.5" stroke-miterlimit="10" stroke-linecap="round" stroke-linejoin="round"/>
<path d="M33.8506 136.28C35.1706 138.6 69.6806 196.75 189.761 196.75C309.841 196.75 344.351 138.6 345.761 136.12C347.151 133.56 349.101 131.5 351.371 130.02C345.871 132.81 303.291 151.53 189.761 151.53C69.6806 151.53 28.9706 130.59 27.6506 129.76L27.6406 129.8C30.1606 131.32 32.3406 133.5 33.8506 136.28Z" fill="#85D3C4" stroke="#3B65EE" stroke-width="2.5" stroke-miterlimit="10" stroke-linecap="round" stroke-linejoin="round"/>
<path d="M304.5 184.57L189.5 215.32L74.5 184.57V108.05C74.5 51.6897 115.04 10.3097 168.56 1.70966C175.35 0.619658 179.35 9.22968 189.5 9.22968C199.65 9.22968 203.67 0.619668 210.47 1.71967C263.97 10.3297 304.5 51.7097 304.5 108.06V184.57Z" fill="#BADDD7" stroke="#3B65EE" stroke-width="2.5" stroke-miterlimit="10" stroke-linecap="round" stroke-linejoin="round"/>
<path d="M209.492 1.70963H210.462C210.132 1.65963 209.812 1.66963 209.492 1.70963Z" fill="#B0C3EA" stroke="#B0C3EA" stroke-width="2.5" stroke-miterlimit="10" stroke-linecap="round" stroke-linejoin="round"/>
<path d="M168.562 1.70963H169.533C169.213 1.66963 168.893 1.65963 168.562 1.70963Z" fill="#B0C3EA" stroke="#B0C3EA" stroke-width="2.5" stroke-miterlimit="10" stroke-linecap="round" stroke-linejoin="round"/>
<path d="M189.503 30.47C199.153 30.47 203.263 2.54997 209.493 1.71997H208.093C202.593 2.58997 198.413 9.22998 189.493 9.22998C180.573 9.22998 176.403 2.57996 170.913 1.70996H169.523C175.753 2.53996 179.843 30.47 189.503 30.47Z" fill="#85D3C4" stroke="#85D3C4" stroke-width="2.5" stroke-miterlimit="10" stroke-linecap="round" stroke-linejoin="round"/>
<path d="M243.99 46.4818L110.594 101.471L135.483 161.85L268.879 106.861L243.99 46.4818Z" fill="white" stroke="#3B65EE" stroke-width="2.5" stroke-miterlimit="10" stroke-linecap="round" stroke-linejoin="round"/>
<path d="M304.5 127.99C280.33 135.18 242.31 141.44 189.95 141.44C134.01 141.44 98.6 134.28 74.5 126.51V184.56L184.37 214.45C186.24 214.48 189.99 214.56 191.89 214.56C192.03 214.56 190.23 214.55 190.37 214.55L304.5 184.55V127.99Z" fill="#BADDD7" stroke="#3B65EE" stroke-width="2.5" stroke-miterlimit="10" stroke-linecap="round" stroke-linejoin="round"/>
<path d="M294.849 159.89C270.659 165.91 235.799 170.72 189.949 170.72Z" fill="#BADDD7"/>
<path d="M294.849 159.89C286.439 162.6 277.819 164.63 269.129 166.24C264.789 167.05 260.409 167.71 256.039 168.34C251.659 168.93 247.269 169.41 242.869 169.86C238.469 170.25 234.059 170.58 229.659 170.86C225.249 171.06 220.839 171.29 216.419 171.33C207.589 171.49 198.759 171.33 189.949 170.73C198.759 170.09 207.539 169.59 216.319 168.99C225.089 168.38 233.849 167.73 242.589 166.87C246.959 166.48 251.329 166.01 255.689 165.52C257.869 165.29 260.049 165.01 262.229 164.76L268.759 163.93C277.469 162.77 286.139 161.39 294.849 159.89Z" fill="#3B65EE"/>
<path d="M148.929 154.94C124.009 153.08 104.499 149.61 88.8789 145.6Z" fill="#BADDD7"/>
<path d="M148.929 154.94C143.829 155.18 138.729 155.04 133.649 154.7C131.109 154.56 128.579 154.29 126.039 154.04C123.509 153.76 120.989 153.41 118.469 153.06C115.959 152.65 113.439 152.23 110.939 151.76C108.449 151.24 105.949 150.75 103.479 150.11C98.5289 148.9 93.6289 147.45 88.8789 145.59C93.9489 146.24 98.9489 147.04 103.939 147.81L111.429 148.96C113.919 149.35 116.419 149.74 118.919 150.1L133.909 152.38C138.909 153.16 143.919 153.94 148.929 154.94Z" fill="#3B65EE"/>
<path d="M368.849 129.329C368.289 129.029 367.729 128.769 367.159 128.529L367.149 128.479C360.079 124.959 352.459 122.849 344.699 122.209C345.239 122.349 352.739 124.469 345.759 136.109C344.349 138.589 309.839 196.739 189.759 196.739C73.8888 196.739 37.6988 142.589 34.1188 136.719C34.0188 136.529 33.8988 136.319 33.7788 136.109C26.7988 124.469 34.2988 122.339 34.8388 122.199C27.0788 122.829 19.4588 124.949 12.3888 128.469L12.3688 128.609C11.8088 128.839 11.2688 129.099 10.7288 129.389C2.4388 133.879 -0.641209 144.239 3.84879 152.529C5.57879 155.729 47.9288 230.879 189.769 230.879C331.609 230.879 373.959 155.729 375.689 152.529C380.169 144.259 377.139 133.819 368.849 129.329Z" fill="#BADDD7" stroke="#3B65EE" stroke-width="2.5" stroke-miterlimit="10" stroke-linecap="round" stroke-linejoin="round"/>
<path d="M168.559 1.70966C175.349 0.619658 179.349 9.22968 189.499 9.22968C199.649 9.22968 203.669 0.619668 210.469 1.71967" stroke="#3B65EE" stroke-width="2.5" stroke-miterlimit="10" stroke-linecap="round" stroke-linejoin="round"/>
</svg>
