<?xml version="1.0" encoding="UTF-8"?>
<svg id="Layer_2" xmlns="http://www.w3.org/2000/svg" viewBox="0 0 138.6 136.19">
  <defs>
    <style>
      .cls-1 {
        stroke-miterlimit: 10;
        stroke-width: .49px;
      }

      .cls-1, .cls-2, .cls-3 {
        stroke: #3b65ee;
      }

      .cls-1, .cls-3 {
        fill: none;
      }

      .cls-4, .cls-5 {
        fill: #3b65ee;
      }

      .cls-2 {
        fill: #fff;
        stroke-width: 1.5px;
      }

      .cls-2, .cls-3 {
        stroke-linecap: round;
        stroke-linejoin: round;
      }

      .cls-5 {
        opacity: .2;
      }

      .cls-3 {
        stroke-width: .99px;
      }
    </style>
  </defs>
  <g id="Layer_4">
    <g>
      <path class="cls-2" d="M115.78,77.32s5.83-9.92,22.06-14.02c0,0-1.03,48.35-26.36,28.85,0,0-14.88,43.54-39.05,43.28s-44.3-42.49-44.3-42.49c0,0-21.01,21.41-27.38-27.36,0,0,10.83-2.57,20.82,10.66C21.57,76.23-1.32,2.96,71.66.79s44.12,76.53,44.12,76.53Z"/>
      <path class="cls-4" d="M18.22,88.1c-4.57-1.39-4.85-5.39-1.82-8.63,0,0-.05.46-.05.46-1.81-2.72-5.04-4.15-8.12-5.05,2.5.26,5.01,1.15,7,2.73.67.54,1.25,1.2,1.74,1.92.1.15.07.34-.05.46-2.82,3.16-2.65,6.14,1.3,8.11h0Z"/>
      <path class="cls-4" d="M129.93,73.74c-2.07,1.28-4,2.78-5.41,4.76-.44.66-.8,1.35-1.05,2.08l-.03-.29c.81,1.65,1.28,3.58.66,5.37-.62,1.84-2.49,2.71-4.27,2.97.81-.32,1.66-.6,2.31-1.16,2.24-1.56,1.73-4.68.66-6.83-.05-.09-.06-.2-.03-.29,1.15-3.23,4.13-5.36,7.16-6.61h0Z"/>
      <path class="cls-3" d="M21.57,76.23s-4.33-40.9,20.32-41.62c24.65-.72,31.27,21.41,31.27,21.41,0,0,11.62-23.29,27.92-20.48s14.7,41.79,14.7,41.79"/>
      <polygon class="cls-4" points="66.75 68.16 64.39 74.35 36.26 65.74 40.27 56.33 66.75 68.16"/>
      <polygon class="cls-4" points="77.72 68.05 80.19 74.2 108.15 65.06 103.97 55.73 77.72 68.05"/>
      <circle class="cls-4" cx="54.64" cy="78.88" r="6.9"/>
      <circle class="cls-4" cx="89.65" cy="78.55" r="6.9"/>
      <polygon class="cls-5" points="61.64 89.18 71.59 98.45 81.79 87.51 71.84 102.32 61.64 89.18"/>
      <path class="cls-4" d="M62.12,89.17c3.37,2.76,6.71,5.89,9.81,8.93,0,0-.7.02-.7.02,2.84-3.02,5.74-5.99,8.83-8.76-2.55,3.28-5.3,6.38-8.11,9.43,0,0-.34.37-.34.37l-.36-.35c-3.11-3.05-6.3-6.32-9.13-9.63h0Z"/>
      <path class="cls-4" d="M44.29,106.85c3.31-.62,5.74-2.53,7.54-5.27-.44,3.44-4.13,6.17-7.54,5.27h0Z"/>
      <path class="cls-4" d="M95.77,106.36c-3.39.96-7.13-1.7-7.63-5.13,1.84,2.71,4.31,4.57,7.63,5.13h0Z"/>
      <path class="cls-4" d="M49.1,105.31c11.88,4.28,25.03,4.06,37.23,1.34,1.77-.37,3.49-.91,5.26-1.31-1.7.62-3.4,1.25-5.14,1.78-3.34.95-7.22,1.8-10.69,2.14-8.98.93-18.48.03-26.67-3.95h0Z"/>
      <polyline class="cls-1" points="53.47 107.28 55.76 120.06 63.34 108.82"/>
      <polyline class="cls-1" points="80.75 108.13 85.15 119.78 88.83 106.44"/>
      <path class="cls-5" d="M39.61,66.76s4.29,24.06,13.66,23.97,11.88-18.36,11.88-18.36l-25.54-5.61Z"/>
      <path class="cls-5" d="M105.04,66.15s-3.84,24.14-13.21,24.22c-9.37.09-12.22-18.14-12.22-18.14l25.43-6.09Z"/>
      <path class="cls-5" d="M21.3,72.29S8.57,5.33,71.7,4.74c63.62-.6,44.1,71.94,44.1,71.94,0,0,1.84-42.8-17.88-41.37-15.81,1.14-24.54,20.31-24.54,20.31,0,0-8.55-21.47-29.76-21.03-26.16.54-22.32,37.7-22.32,37.7Z"/>
      <path class="cls-5" d="M11.54,75.84s-2.44,11.6,6.69,12.26c0,0-6.67-1.17-1.56-8.37,0,0-1.59-3.17-5.13-3.89Z"/>
      <path class="cls-5" d="M128.58,74.74s.86,12.57-8.26,13.39c0,0,6.89-1.05,2.88-7.92,0,0,1.84-4.69,5.37-5.48Z"/>
      <path class="cls-5" d="M54.57,113.41s.86-2.97,2.34-2,.03,3.45,1.02,3.44h1.35s-3.52,5.2-3.52,5.2l-1.19-6.64Z"/>
      <path class="cls-5" d="M83.34,114.98s-.09-1.84,1.05-1.85.52-.9,1.56-2.19,1.92-1,1.92-1l-2.72,9.84-1.81-4.8Z"/>
      <path class="cls-5" d="M57.07,129.95s6.38-13.17,15.67-13.26,14.44,13.33,14.44,13.33c0,0-9.79,11.87-30.11-.07Z"/>
    </g>
  </g>
</svg>