<svg width="323" height="395" viewBox="0 0 323 395" fill="none" xmlns="http://www.w3.org/2000/svg">
<path opacity="0.38" d="M322.621 375.225C322.621 403.609 250.36 386.972 161.307 386.972C72.2673 386.972 -3.99357 409.885 0.162262 375.225C4.31809 340.565 75.0237 365.556 164.063 365.556C253.102 365.556 322.621 346.841 322.621 375.225Z" fill="#D1DAED"/>
<path d="M152.81 49.9667L161.178 67.2686C161.178 67.2686 191.754 62.0101 207.882 76.5131C223.997 91.0161 220.053 151.092 220.053 151.092L211.303 136.08C211.303 136.08 216.929 168.903 204.447 186.784C191.966 204.665 122.645 175.165 122.645 175.165L110.375 123.358C110.375 123.358 59.29 142.625 44.6315 126.242C29.973 109.845 37.3941 43.4785 37.3941 43.4785L63.7566 49.4296L74.1745 91.9774C74.1745 91.9774 102.092 77.3754 128.709 76.0891L125.911 56.2287L152.81 49.9667Z" fill="white" stroke="#3B65EE" stroke-width="2.5" stroke-miterlimit="10" stroke-linecap="round" stroke-linejoin="round"/>
<path d="M173.938 95.9062L152.594 109.08L182.773 113.166L173.938 95.9062Z" fill="#D1DAED"/>
<path d="M141.356 64.2568C140.989 68.7519 128.691 76.0882 128.691 76.0882L127.094 66.7164C127.108 66.7164 141.724 59.7759 141.356 64.2568Z" fill="#D1DAED"/>
<path d="M128.814 76.0869L126.016 56.2266" stroke="#3B65EE" stroke-width="2.5" stroke-miterlimit="10" stroke-linecap="round" stroke-linejoin="round"/>
<path d="M74.2263 91.9727L72.7422 103.394" stroke="#3B65EE" stroke-width="2.5" stroke-miterlimit="10" stroke-linecap="round" stroke-linejoin="round"/>
<path d="M175.069 82.7852C175.069 82.7852 167.86 104.526 182.716 113.162L175.069 82.7852Z" fill="white"/>
<path d="M175.069 82.7852C175.069 82.7852 167.86 104.526 182.716 113.162" stroke="#3B65EE" stroke-width="2.5" stroke-miterlimit="10" stroke-linecap="round" stroke-linejoin="round"/>
<path d="M24.3014 30.4017C23.8067 21.1147 27.0436 17.1991 27.0436 17.1991L56.4031 20.2524C55.8094 18.33 55.9507 16.351 57.8025 14.8102C63.174 10.3575 73.4081 20.9309 69.7329 31.1085C68.7293 33.9073 67.7116 36.2255 66.7645 38.1338C65.8457 39.9997 64.9834 41.4698 64.2766 42.5723C63.061 44.4665 62.8207 46.714 63.5699 48.7495L63.8101 49.4281C64.8702 52.3259 62.6087 55.3932 59.1596 55.7325L41.3629 57.4994C37.9986 57.8386 35.1574 55.4356 35.3836 52.4672C35.5391 50.4882 34.8325 48.5375 33.3906 47.025C30.196 43.6749 24.6548 36.9747 24.3014 30.4017Z" fill="#D1DAED" stroke="#3B65EE" stroke-width="2.5" stroke-miterlimit="10" stroke-linecap="round"/>
<path d="M24.301 30.4016C24.0182 25.0584 24.9653 21.4963 25.8275 19.4325L28.8384 17.3828L43.5252 18.9095L58.0141 23.447L61.3642 27.3766C61.3642 27.3766 57.3074 28.5499 54.5509 31.0377C53.5332 31.9565 51.4552 33.6104 49.236 35.3207C44.1896 39.2363 41.5604 45.0177 42.1824 50.8556L42.875 57.4145C42.875 57.4145 39.9914 58.2061 38.2951 57.0046C36.5989 55.8031 35.6659 54.3047 35.6659 54.3047C35.4539 53.7251 35.3407 53.1173 35.3973 52.4671C35.5528 50.4881 34.8459 48.5375 33.4041 47.025C30.1954 43.6749 24.6543 36.9888 24.301 30.4016Z" fill="#B0C3EA"/>
<path d="M24.3014 30.4017C23.8067 21.1147 27.0436 17.1991 27.0436 17.1991L56.4031 20.2524C55.8094 18.33 55.9507 16.351 57.8025 14.8102C63.174 10.3575 73.4081 20.9309 69.7329 31.1085C68.7293 33.9073 67.7116 36.2255 66.7645 38.1338C65.8457 39.9997 64.9834 41.4698 64.2766 42.5723C63.061 44.4665 62.8207 46.714 63.5699 48.7495L63.8101 49.4281C64.8702 52.3259 62.6087 55.3932 59.1596 55.7325L41.3629 57.4994C37.9986 57.8387 35.1574 55.4356 35.3836 52.4672C35.5391 50.4882 34.8325 48.5375 33.3906 47.025C30.196 43.6749 24.6548 36.9747 24.3014 30.4017Z" stroke="#3B65EE" stroke-width="2.5" stroke-miterlimit="10" stroke-linecap="round"/>
<path d="M45.4086 29.2522C56.4553 28.6637 65.1167 22.6695 64.7541 15.8637C64.3915 9.05785 55.1423 4.01777 44.0956 4.60629C33.0488 5.1948 24.3877 11.189 24.7503 17.9948C25.1128 24.8006 34.3618 29.8407 45.4086 29.2522Z" fill="#D1DAED" stroke="#3B65EE" stroke-width="2.5" stroke-miterlimit="10" stroke-linecap="round"/>
<path d="M53.5361 41.4547C53.5361 41.4547 50.3272 36.7758 53.0695 32.7614C55.8118 28.7328 61.3529 27.3899 61.3529 27.3899C61.3529 27.3899 52.4475 19.262 57.8049 14.8093C63.1763 10.3566 72.845 21.4106 67.6855 32.5069" fill="#D1DAED"/>
<path d="M53.4955 41.446C52.4354 40.2162 51.6296 38.6895 51.3469 36.9791C51.0218 35.2829 51.4033 33.2898 52.4635 31.8056C53.4247 30.2789 54.7676 29.0916 56.2094 28.1162C57.6795 27.1409 59.1779 26.3917 60.9589 25.8686L60.2663 28.5544C58.881 27.2964 57.6654 26.0242 56.6053 24.4834C55.5734 22.9568 54.598 21.2464 54.3295 19.0271C54.2022 17.9387 54.4001 16.6806 54.9513 15.6204C55.5168 14.532 56.2801 13.7263 57.2554 13.0902C58.2308 12.4541 59.4606 12.0725 60.6338 12.1431C61.8071 12.1997 62.8672 12.5672 63.7719 13.0619C65.5953 14.0655 66.91 15.5498 67.8712 17.1612C68.8324 18.7727 69.4826 20.5396 69.7653 22.3348C70.3873 25.9393 69.5533 29.657 67.6591 32.5265C68.6486 29.2329 68.6486 25.8404 67.6874 22.8296C67.1785 21.3312 66.4859 19.9176 65.5671 18.7019C64.6342 17.5146 63.5176 16.4544 62.316 15.9031C61.0863 15.3377 59.9837 15.366 59.1356 15.9597C58.6974 16.2565 58.2592 16.7513 58.0754 17.1754C57.8634 17.6277 57.7926 18.1224 57.8492 18.7161C57.934 19.9035 58.5984 21.3029 59.4324 22.5892C60.2805 23.8614 61.3123 25.176 62.3725 26.2503L64.3798 28.2858L61.6798 28.936C60.3652 29.247 58.881 29.7983 57.5805 30.4627C56.2801 31.1553 55.0645 32.0035 54.1033 33.0778C53.1562 34.1097 52.5908 35.4242 52.5484 36.9226C52.506 38.3786 52.8594 39.9618 53.4955 41.446Z" fill="#3B65EE"/>
<path d="M215.369 89.9121C215.369 89.9121 236.714 150.073 219.299 158.3C201.898 166.526 145.922 119.964 145.922 119.964L154.629 102.083L192.258 116.897" fill="white"/>
<path d="M215.37 89.9121C215.37 89.9121 236.714 150.073 219.299 158.3C201.898 166.526 145.922 119.964 145.922 119.964L154.629 102.083L192.258 116.897" stroke="#3B65EE" stroke-width="2.5" stroke-miterlimit="10" stroke-linecap="round" stroke-linejoin="round"/>
<path d="M114.412 87.9587C110.073 96.6662 107.076 118.166 127.247 119.17C129.961 119.34 132.279 119.34 134.23 119.241C136.138 119.142 137.679 118.972 138.867 118.774C140.902 118.449 142.867 119.057 144.309 120.428L144.789 120.88C146.839 122.831 150.232 122.054 151.786 119.269L159.759 104.978C161.257 102.278 160.296 99.0127 157.709 98.1222C155.985 97.5285 154.614 96.228 153.878 94.4611C152.239 90.5456 148.634 83.4496 143.234 80.7638C139.658 78.9827 136.789 78.3183 134.725 78.1204C134.131 77.4984 133.467 76.9755 132.704 76.5938C127.12 73.8091 118.935 78.8979 114.412 87.9587Z" fill="#D1DAED" stroke="#3B65EE" stroke-width="2.5" stroke-miterlimit="10" stroke-linecap="round" stroke-linejoin="round"/>
<path d="M110.968 24.8036L111.576 33.5111C105.158 28.5071 102.982 19.6441 106.614 12.3502C106.812 11.9544 107.024 11.5587 107.236 11.1629C111.788 3.03497 132.016 2.00302 132.016 2.00302C132.016 2.00302 155.127 1.49417 161.389 13.6931C167.651 25.892 161.927 59.0115 155.834 60.213C149.742 61.4145 147.183 51.138 147.183 51.138L131.337 46.4874L110.968 24.8036Z" fill="#D1DAED" stroke="#3B65EE" stroke-width="2.5" stroke-miterlimit="10" stroke-linecap="round" stroke-linejoin="round"/>
<path d="M150.071 44.0031C150.071 44.0031 141.703 41.0347 138.183 37.3453C134.678 33.6559 138.947 30.419 138.947 30.419C114.846 32.5534 110.93 24.793 110.93 24.793C110.93 24.793 111.665 33.5994 111.707 37.8966C111.764 42.1938 107.523 47.7773 107.523 47.7773L111.962 50.6327C111.962 50.6327 110.506 62.2379 114.704 65.9555C118.903 69.6731 135.215 70.2245 141.265 64.2593" fill="white"/>
<path d="M150.071 44.0031C150.071 44.0031 141.703 41.0347 138.183 37.3453C134.678 33.6559 138.947 30.419 138.947 30.419C114.846 32.5534 110.93 24.793 110.93 24.793C110.93 24.793 111.665 33.5994 111.707 37.8966C111.764 42.1938 107.523 47.7773 107.523 47.7773L111.962 50.6327C111.962 50.6327 110.506 62.2379 114.704 65.9555C118.903 69.6731 135.215 70.2245 141.265 64.2593" stroke="#3B65EE" stroke-width="2.5" stroke-miterlimit="10" stroke-linecap="round" stroke-linejoin="round"/>
<path d="M123.145 44.5807C122.523 44.92 121.929 45.0472 121.364 45.1038C120.784 45.1744 120.233 45.1462 119.682 45.0472C119.13 44.9483 118.593 44.7928 118.084 44.5384C117.561 44.2839 117.052 43.9729 116.586 43.4358C117.208 43.0965 117.802 42.9693 118.367 42.8986C118.947 42.8279 119.498 42.8563 120.049 42.9552C120.601 43.0542 121.138 43.2096 121.647 43.4782C122.17 43.7468 122.678 44.0577 123.145 44.5807Z" fill="#3B65EE"/>
<path d="M125.728 36.2549C125.12 37.2868 124.385 37.9937 123.621 38.6015C122.844 39.1952 122.01 39.6616 121.134 40.015C120.257 40.3684 119.338 40.6087 118.363 40.736C117.388 40.8349 116.37 40.8349 115.211 40.5097C115.805 39.4778 116.54 38.7711 117.317 38.1633C118.095 37.5696 118.929 37.1031 119.805 36.7497C120.681 36.3964 121.6 36.156 122.575 36.043C123.565 35.9299 124.583 35.9298 125.728 36.2549Z" fill="#3B65EE"/>
<path d="M140.906 41.5407C140.906 41.5407 143.606 32.282 149.444 34.897C155.282 37.498 151.593 49.6121 147.14 51.1528C142.687 52.6936 141.076 47.2091 141.076 47.2091" fill="white"/>
<path d="M140.906 41.5407C140.906 41.5407 143.606 32.282 149.444 34.897C155.282 37.498 151.593 49.6121 147.14 51.1528C142.687 52.6936 141.076 47.2091 141.076 47.2091" stroke="#3B65EE" stroke-width="2.5" stroke-miterlimit="10" stroke-linecap="round" stroke-linejoin="round"/>
<path d="M118.874 56.2637L115.977 57.1824L118.874 56.2637Z" fill="white"/>
<path d="M118.876 56.2598L116.501 58.8607L115.441 55.4823L118.876 56.2598ZM118.876 56.2598L116.501 58.8607C115.738 59.6947 114.452 59.7513 113.618 58.988C112.784 58.2247 112.727 56.9383 113.491 56.1043C113.999 55.5389 114.763 55.341 115.441 55.4965L118.876 56.2598Z" fill="#3B65EE"/>
<path d="M190.626 300.926C192.86 305.86 196.917 310.086 202.218 312.97L224.877 325.296C238.489 332.703 249.246 343.234 255.833 355.616L256.554 356.973C256.554 356.973 244.143 375.901 249.501 385.485C251.508 389.075 256.356 390.361 261.643 390.559C271.92 390.955 280.514 384.114 280.514 375.562V360.027C280.514 353.411 278.45 346.895 274.506 341.142L254.349 311.697C249.967 305.294 243.437 300.078 235.563 296.686L221.315 290.551L186.117 292.063L190.626 300.926Z" fill="white" stroke="#3B65EE" stroke-width="2.5" stroke-miterlimit="10" stroke-linecap="round" stroke-linejoin="round"/>
<path d="M261.586 340.553C257.19 340.553 256.427 356.95 256.427 356.95C256.427 356.95 244.016 375.877 249.373 385.461C251.381 389.052 256.229 390.338 261.516 390.536C271.792 390.932 280.387 384.09 280.387 375.538V360.003C280.387 357.812 280.132 355.621 279.694 353.487H273.277C270.11 353.487 267.34 351.338 266.562 348.271C265.658 344.68 264.074 340.553 261.586 340.553Z" fill="#D1DAED" stroke="#3B65EE" stroke-width="2.5" stroke-miterlimit="10" stroke-linecap="round" stroke-linejoin="round"/>
<path d="M71.3336 262.176C71.3336 262.176 66.6973 268.862 63.8419 275.336C55.3465 294.518 68.6337 321.559 63.3753 337.447C58.1169 353.336 19.6825 370.072 30.482 378.85C39.3449 386.045 71.8707 369.111 83.3205 362.764C85.8366 361.364 87.3351 359.032 87.3351 356.516V343.95C87.3351 342.013 87.6884 340.105 88.3811 338.309C90.4024 333.065 94.6854 321.191 95.3215 313.219C96.1555 302.745 95.3215 291.337 95.3215 291.337L114.108 271.321L71.3336 262.176Z" fill="white" stroke="#3B65EE" stroke-width="2.5" stroke-miterlimit="10" stroke-linecap="round" stroke-linejoin="round"/>
<path d="M30.4592 378.849C39.3222 386.044 71.848 369.11 83.2977 362.763C85.8138 361.364 87.3123 359.032 87.3123 356.515V344.783L82.2375 344.387C77.2618 344.005 73.4737 339.652 73.9119 334.69C74.1239 332.315 73.5866 330.379 71.3108 330.379C67.6922 330.379 65.0065 334.153 63.4374 337.107C63.4092 337.22 63.3808 337.334 63.3384 337.447C62.9991 338.493 62.5046 339.525 61.8967 340.571C53.2599 355.483 20.3665 370.637 30.4592 378.849Z" fill="#D1DAED" stroke="#3B65EE" stroke-width="2.5" stroke-miterlimit="10" stroke-linecap="round" stroke-linejoin="round"/>
<path d="M122.643 175.16C122.643 182.723 120.282 190.087 115.886 196.222L68.9844 261.754C68.9844 261.754 119.971 284.258 132.947 276.865C145.924 269.472 149.938 249.131 149.938 249.131L166.788 292.881C188.118 299.256 221.294 290.534 221.294 290.534C221.294 290.534 216.884 205.269 204.473 186.765C170.11 184.857 122.643 175.16 122.643 175.16Z" fill="#B0C3EA" stroke="#3B65EE" stroke-width="2.5" stroke-miterlimit="10" stroke-linecap="round" stroke-linejoin="round"/>
<path d="M186.446 260.342C184.17 260.413 182.276 258.618 182.205 256.328C182.134 254.038 183.93 252.129 186.205 252.059C188.481 251.988 190.375 253.783 190.446 256.073C190.503 258.363 188.722 260.271 186.446 260.342Z" fill="white"/>
<path d="M198.805 259.959C196.529 260.03 194.635 258.235 194.565 255.945C194.494 253.655 196.289 251.747 198.565 251.676C200.841 251.605 202.735 253.4 202.805 255.69C202.862 257.98 201.081 259.889 198.805 259.959Z" fill="white"/>
<path d="M177.211 267.096C176.984 267.138 176.772 267.223 176.575 267.351C176.377 267.478 176.221 267.647 176.094 267.845C175.967 268.043 175.882 268.255 175.854 268.481C175.825 268.708 175.825 268.948 175.896 269.16C177.14 273.259 179.854 276.751 183.515 278.97C187.176 281.175 191.544 281.952 195.742 281.133C199.94 280.313 203.701 277.966 206.259 274.531C208.832 271.111 210.033 266.842 209.637 262.587C209.609 262.361 209.538 262.135 209.411 261.937C209.298 261.739 209.143 261.569 208.945 261.428C208.761 261.286 208.549 261.202 208.323 261.145C208.097 261.103 207.87 261.103 207.644 261.145L177.211 267.096Z" fill="white"/>
<path d="M135.867 215.264C135.867 215.264 144.886 236.142 149.89 249.161L135.867 215.264Z" fill="#D1DAED"/>
<path d="M135.867 215.264C135.867 215.264 144.886 236.142 149.89 249.161" stroke="#3B65EE" stroke-width="2.5" stroke-miterlimit="10" stroke-linecap="round" stroke-linejoin="round"/>
</svg>
