<?xml version="1.0" encoding="UTF-8"?>
<svg xmlns="http://www.w3.org/2000/svg" xmlns:xlink="http://www.w3.org/1999/xlink" viewBox="0 0 145.17 152">
  <defs>
    <style>
      .cls-1, .cls-2, .cls-3, .cls-4 {
        fill: none;
      }

      .cls-2 {
        stroke-linecap: round;
        stroke-width: 5px;
      }

      .cls-2, .cls-3, .cls-5, .cls-4 {
        stroke-miterlimit: 10;
      }

      .cls-2, .cls-3, .cls-4 {
        stroke: #3b65ee;
      }

      .cls-3, .cls-5 {
        stroke-width: 3px;
      }

      .cls-6 {
        mix-blend-mode: multiply;
      }

      .cls-6, .cls-7, .cls-8 {
        fill: #3b65ee;
      }

      .cls-6, .cls-8 {
        opacity: .2;
      }

      .cls-9 {
        isolation: isolate;
      }

      .cls-10, .cls-5 {
        fill: #fff;
      }

      .cls-5 {
        stroke: #3b65ef;
      }

      .cls-4 {
        stroke-width: 7px;
      }

      .cls-11 {
        clip-path: url(#clippath);
      }
    </style>
    <clipPath id="clippath">
      <path class="cls-1" d="M56.76,143.5s-46-2-49-42S35.03-.81,61.76,3.5c31,5,53,62,44,104-8.49,39.6-49,36-49,36Z"/>
    </clipPath>
  </defs>
  <g class="cls-9">
    <g id="Layer_2" data-name="Layer 2">
      <g id="Layer_2-2" data-name="Layer 2">
        <g>
          <ellipse class="cls-8" cx="91.76" cy="137.5" rx="53.5" ry="7.5" transform="translate(-7.56 5.36) rotate(-3.21)"/>
          <path class="cls-5" d="M56.76,143.5s-46-2-49-42S35.03-.81,61.76,3.5c31,5,53,62,44,104-8.49,39.6-49,36-49,36Z"/>
          <g class="cls-11">
            <g>
              <ellipse class="cls-7" cx="55.26" cy="142" rx="26" ry="10"/>
              <ellipse class="cls-7" cx="61.26" cy="7" rx="19" ry="7"/>
              <path class="cls-2" d="M17.26,36s18-13,27,1c0,0,15.8-16,28.4,0,0,0,12.6-18,27.6-2"/>
              <path class="cls-2" d="M4.76,106.5s17,28,39,14c0,0,19,15,34-4,0,0,20,12,37-7"/>
              <path class="cls-3" d="M1.26,97.72s47.5,15.6,113.5,1.69"/>
              <path class="cls-3" d="M9.76,42.5s41,18,100,3"/>
              <path class="cls-4" d="M1.26,71.69s46.66,17.95,117.33,3.63"/>
              <g>
                <path class="cls-10" d="M35.3,83.89c-.08-.18-.11-.38-.08-.57s.11-.37.24-.52c7.94-9.61,8.06-25.02,8.08-25.18,0-.16.03-.31.11-.45.07-.14.17-.26.3-.35.13-.09.28-.15.44-.18.16-.03.32-.02.47.02,14.87,4.36,24.02,3.54,24.11,3.55.26-.03.52.03.73.18.21.15.36.37.42.62,4.46,16.7-6.79,32.94-7.27,33.62-.11.16-.27.28-.45.35-.18.07-.38.1-.57.07-22.55-3.32-26.39-10.82-26.52-11.16Z"/>
                <path class="cls-8" d="M71.78,65.01s3.16,19.89-6.78,33.45c0,0-12.65-.9-22.63-7.96-11.08-7.84-.82-.41-.82-.41l21.74,5.44s8.95-17.85,8.5-30.51Z"/>
                <path class="cls-7" d="M34.44,84.27c-.08-.19-.11-.39-.08-.6s.12-.39.25-.55c8.31-10.07,8.44-26.21,8.47-26.38,0-.16.04-.33.11-.47.07-.15.18-.27.32-.37.14-.09.29-.16.46-.18.16-.03.33-.02.49.02,15.57,4.57,25.16,3.7,25.25,3.72.27-.04.54.03.76.19.22.15.38.39.44.65,4.67,17.49-7.12,34.5-7.62,35.21-.12.16-.28.29-.47.37-.19.08-.39.1-.59.07-23.62-3.48-27.64-11.33-27.77-11.69ZM45.22,58.22c-.24,4.2-1.46,16.72-8.46,25.68,1.36,1.67,6.98,7.05,25.1,9.83,1.93-2.97,10.55-17.47,7.13-32.03-8.06.06-16.07-1.11-23.77-3.48Z"/>
                <path class="cls-7" d="M58.11,75.39c1.29.19,2.48-.7,2.67-1.98s-.7-2.47-1.99-2.66-2.48.7-2.67,1.98.7,2.47,1.99,2.66Z"/>
                <path class="cls-7" d="M51.11,74.36c1.29.19,2.48-.7,2.67-1.98s-.7-2.47-1.99-2.66-2.48.7-2.67,1.98.7,2.47,1.99,2.66Z"/>
                <path class="cls-7" d="M45.94,74.47l-.15-.02c-.24-.04-.48,0-.68.14s-.34.34-.39.57c-.47,2.22-.15,4.54.91,6.55,1.06,2.01,2.8,3.59,4.9,4.46,2.4,1.03,5.11,1.08,7.54.13,2.43-.95,4.38-2.82,5.44-5.2.04-.12.05-.25.03-.37-.01-.13-.05-.25-.11-.36-.06-.11-.14-.21-.24-.29-.1-.08-.21-.14-.33-.17l-16.92-5.44Z"/>
              </g>
            </g>
          </g>
          <path class="cls-6" d="M95.42,120.03c-13.35,19.05-39.9,22.69-54.07,11.83-12.53-9.61,17.97-13.88,29.99-33.8s9.16-56.48,20.91-43.06c14,16,13,51,3.17,65.03Z"/>
        </g>
      </g>
    </g>
  </g>
</svg>