<svg width="48" height="361" viewBox="0 0 48 361" fill="none" xmlns="http://www.w3.org/2000/svg">
<path d="M4.54975 2.73981C7.11975 1.46981 10.0697 2.60983 11.1097 5.28983C12.5497 9.02983 14.3098 13.6898 16.1798 18.6798C30.4998 57.0098 40.1498 97.6898 44.1798 139.44C45.4998 153.13 46.2397 166.85 46.2397 180.54C46.2597 194.2 45.5197 207.9 44.2097 221.56C40.1997 263.35 30.5397 304.07 16.1997 342.43C14.3397 347.42 12.5797 352.06 11.1397 355.79C10.1097 358.47 7.15966 359.61 4.57966 358.34L4.53974 358.32C2.49974 357.31 1.47976 355.01 2.05976 352.81C6.76976 335.15 10.2397 317.08 13.0197 298.91C18.8797 259.93 21.2597 220.28 21.2397 180.53C21.2797 140.78 18.8997 101.13 13.0397 62.1398C10.2597 43.9698 6.77965 25.8998 2.06965 8.23981C1.48965 6.04981 2.51975 3.73981 4.54975 2.73981Z" fill="#D1DAED" stroke="#4D67B0" stroke-width="2.5" stroke-miterlimit="10" stroke-linecap="round" stroke-linejoin="round"/>
</svg>
