<?xml version="1.0" encoding="UTF-8" standalone="no"?>
<svg
   xmlns:dc="http://purl.org/dc/elements/1.1/"
   xmlns:cc="http://creativecommons.org/ns#"
   xmlns:rdf="http://www.w3.org/1999/02/22-rdf-syntax-ns#"
   xmlns:svg="http://www.w3.org/2000/svg"
   xmlns="http://www.w3.org/2000/svg"
   xmlns:sodipodi="http://sodipodi.sourceforge.net/DTD/sodipodi-0.dtd"
   xmlns:inkscape="http://www.inkscape.org/namespaces/inkscape"
   version="1.1"
   id="svg2"
   xml:space="preserve"
   width="432.52533"
   height="432.52533"
   viewBox="0 0 432.52533 432.52533"
   sodipodi:docname="portrait-2899779 (1).ai"><metadata
     id="metadata8"><rdf:RDF><cc:Work
         rdf:about=""><dc:format>image/svg+xml</dc:format><dc:type
           rdf:resource="http://purl.org/dc/dcmitype/StillImage" /></cc:Work></rdf:RDF></metadata><defs
     id="defs6"><clipPath
       clipPathUnits="userSpaceOnUse"
       id="clipPath18"><path
         d="M 0,324.394 H 324.394 V 0 H 0 Z"
         id="path16" /></clipPath></defs><sodipodi:namedview
     pagecolor="#ffffff"
     bordercolor="#666666"
     borderopacity="1"
     objecttolerance="10"
     gridtolerance="10"
     guidetolerance="10"
     inkscape:pageopacity="0"
     inkscape:pageshadow="2"
     inkscape:window-width="640"
     inkscape:window-height="480"
     id="namedview4" /><g
     id="g10"
     inkscape:groupmode="layer"
     inkscape:label="portrait-2899779 (1)"
     transform="matrix(1.3333333,0,0,-1.3333333,0,432.52533)"><g
       id="g12"><g
         id="g14"
         clip-path="url(#clipPath18)"><g
           id="g20"
           transform="translate(139.0259,171.4684)"><path
             d="m 0,0 c -2.379,-0.56 -4.786,0.536 -7.126,1.24 -6.106,1.835 -12.979,0.934 -18.405,-2.412"
             style="fill:none;stroke:#000000;stroke-width:3;stroke-linecap:butt;stroke-linejoin:miter;stroke-miterlimit:10;stroke-dasharray:none;stroke-opacity:1"
             id="path22" /></g><g
           id="g24"
           transform="translate(126.0186,169.2711)"><path
             d="m 0,0 c -1.25,0.165 -2.533,0.073 -3.747,-0.269 0.915,0.107 1.83,0.213 2.744,0.319"
             style="fill:none;stroke:#000000;stroke-width:3;stroke-linecap:butt;stroke-linejoin:miter;stroke-miterlimit:10;stroke-dasharray:none;stroke-opacity:1"
             id="path26" /></g><g
           id="g28"
           transform="translate(214.8281,175.0959)"><path
             d="m 0,0 c -2.142,1.205 -4.501,2.022 -6.929,2.4 -5.621,0.876 -11.336,-0.602 -16.709,-2.469 -2.879,-1 -5.716,-2.116 -8.507,-3.344"
             style="fill:none;stroke:#000000;stroke-width:3;stroke-linecap:butt;stroke-linejoin:miter;stroke-miterlimit:10;stroke-dasharray:none;stroke-opacity:1"
             id="path30" /></g><g
           id="g32"
           transform="translate(203.1006,172.4059)"><path
             d="m 0,0 c -0.886,0.207 -1.806,0.259 -2.708,0.153 0.109,0.005 0.219,0.01 0.329,0.015"
             style="fill:none;stroke:#000000;stroke-width:3;stroke-linecap:butt;stroke-linejoin:miter;stroke-miterlimit:10;stroke-dasharray:none;stroke-opacity:1"
             id="path34" /></g><g
           id="g36"
           transform="translate(80.1221,195.7257)"><path
             d="M 0,0 13.794,-15.837"
             style="fill:none;stroke:#c72831;stroke-width:3;stroke-linecap:butt;stroke-linejoin:miter;stroke-miterlimit:10;stroke-dasharray:none;stroke-opacity:1"
             id="path38" /></g><g
           id="g40"
           transform="translate(239.6592,197.3219)"><path
             d="M 0,0 C -4.329,-4.018 -8.658,-8.036 -12.986,-12.053"
             style="fill:none;stroke:#c72831;stroke-width:3;stroke-linecap:butt;stroke-linejoin:miter;stroke-miterlimit:10;stroke-dasharray:none;stroke-opacity:1"
             id="path42" /></g><g
           id="g44"
           transform="translate(151.8384,167.0656)"><path
             d="m 0,0 c 0,-13.172 -13.055,-23.85 -29.159,-23.85 -16.103,0 -29.158,10.678 -29.158,23.85 0,13.172 13.055,23.85 29.158,23.85 C -13.055,23.85 0,13.172 0,0 Z"
             style="fill:none;stroke:#61c3d9;stroke-width:3;stroke-linecap:butt;stroke-linejoin:miter;stroke-miterlimit:10;stroke-dasharray:none;stroke-opacity:1"
             id="path46" /></g><g
           id="g48"
           transform="translate(154.8843,162.0358)"><path
             d="m 0,0 c 0,-13.172 -13.055,-23.85 -29.159,-23.85 -16.103,0 -29.158,10.678 -29.158,23.85 0,13.172 13.055,23.85 29.158,23.85 C -13.055,23.85 0,13.172 0,0 Z"
             style="fill:none;stroke:#c72831;stroke-width:3;stroke-linecap:butt;stroke-linejoin:miter;stroke-miterlimit:10;stroke-dasharray:none;stroke-opacity:1"
             id="path50" /></g><g
           id="g52"
           transform="translate(227.0703,172.464)"><path
             d="m 0,0 c 0.62,-13.157 -11.916,-24.439 -28.002,-25.198 -16.086,-0.759 -29.63,9.292 -30.25,22.449 -0.621,13.158 11.916,24.439 28.001,25.198 C -14.165,23.208 -0.621,13.157 0,0 Z"
             style="fill:none;stroke:#61c3d9;stroke-width:3;stroke-linecap:butt;stroke-linejoin:miter;stroke-miterlimit:10;stroke-dasharray:none;stroke-opacity:1"
             id="path54" /></g><g
           id="g56"
           transform="translate(229.8604,165.1427)"><path
             d="m 0,0 c 0.621,-13.157 -11.916,-24.438 -28.002,-25.198 -16.085,-0.759 -29.629,9.292 -30.25,22.449 -0.62,13.158 11.916,24.439 28.002,25.198 C -14.164,23.208 -0.62,13.158 0,0 Z"
             style="fill:none;stroke:#c72831;stroke-width:3;stroke-linecap:butt;stroke-linejoin:miter;stroke-miterlimit:10;stroke-dasharray:none;stroke-opacity:1"
             id="path58" /></g><g
           id="g60"
           transform="translate(85.5552,202.3522)"><path
             d="m 0,0 c -5.466,13.507 -6.248,23.783 -6.958,38.522 -0.829,17.224 4.174,18.616 17.208,25.558 13.866,7.386 0.98,11.105 1.99,22.791 1.393,16.14 23.15,15.208 35.017,16.832 15.209,2.081 30.595,4.63 45.779,1.026 16.184,-3.842 30.239,-13.229 43.453,-22.959 7.535,-5.55 22.069,-14.02 16.219,-25.516 -5.718,-11.235 -24.649,-5.286 -20.18,7.384 5.358,15.188 22.04,2.401 25.641,-6.548 5.846,-14.526 -3.034,-28.903 -19.328,-23.654 -13.343,4.297 -23.509,14.394 -31.589,25.372 -3.68,5 -23.184,24.958 -26.737,8.502 C 78.279,56.949 95.969,60.27 93.521,72.633 90.996,85.389 69.175,88.942 58.918,88.258 45.819,87.385 37.382,71.106 54.445,69.157 64.824,67.971 86.518,79.678 74.569,91.114 54.733,110.098 12.798,81.169 24.758,55.925 33.817,36.807 69.06,38.666 80.488,55.042"
             style="fill:none;stroke:#f39326;stroke-width:3;stroke-linecap:butt;stroke-linejoin:miter;stroke-miterlimit:10;stroke-dasharray:none;stroke-opacity:1"
             id="path62" /></g><g
           id="g64"
           transform="translate(102.2769,193.8195)"><path
             d="m 0,0 c 2.991,-0.38 5.77,1.411 8.339,2.988 2.57,1.577 5.654,3.057 8.491,2.036 1.05,-0.378 1.956,-1.071 2.969,-1.537 2.363,-1.086 5.298,-0.804 7.41,0.711 0.378,0.27 0.76,0.589 1.222,0.629 0.782,0.067 1.371,-0.659 1.857,-1.274 3.821,-4.842 10.69,-7.034 16.61,-5.303"
             style="fill:none;stroke:#f39326;stroke-width:3;stroke-linecap:butt;stroke-linejoin:miter;stroke-miterlimit:10;stroke-dasharray:none;stroke-opacity:1"
             id="path66" /></g><g
           id="g68"
           transform="translate(171.5869,196.5465)"><path
             d="m 0,0 c 4.055,0.665 8.109,1.33 12.164,1.996 1.6,0.262 3.248,0.542 4.62,1.406 1.536,0.967 2.618,2.603 4.279,3.335 C 23.547,7.83 26.359,6.579 28.908,5.648 34.579,3.579 40.822,3.105 46.74,4.295"
             style="fill:none;stroke:#f39326;stroke-width:3;stroke-linecap:butt;stroke-linejoin:miter;stroke-miterlimit:10;stroke-dasharray:none;stroke-opacity:1"
             id="path70" /></g><g
           id="g72"
           transform="translate(237.3877,186.3537)"><path
             d="m 0,0 c 1.399,1.516 2.834,3.06 4.651,4.036 1.818,0.975 4.121,1.295 5.926,0.295 2.631,-1.457 3.22,-5.047 2.672,-8.004 -0.548,-2.958 -1.915,-5.764 -2.051,-8.768 -0.272,-6.055 4.418,-12.348 1.666,-17.748 -1.447,-2.84 -4.566,-4.398 -6.586,-6.864 -2.174,-2.655 -2.94,-6.4 -1.984,-9.696"
             style="fill:none;stroke:#61c3d9;stroke-width:3;stroke-linecap:butt;stroke-linejoin:miter;stroke-miterlimit:10;stroke-dasharray:none;stroke-opacity:1"
             id="path74" /></g><g
           id="g76"
           transform="translate(78.8447,186.049)"><path
             d="m 0,0 c -14.991,13.224 -8.608,-10.193 -7.536,-15.93 1.131,-6.051 -0.419,-9.702 2.666,-15.299 2.816,-5.11 8.812,-5.178 8.033,-12.83"
             style="fill:none;stroke:#61c3d9;stroke-width:3;stroke-linecap:butt;stroke-linejoin:miter;stroke-miterlimit:10;stroke-dasharray:none;stroke-opacity:1"
             id="path78" /></g><g
           id="g80"
           transform="translate(215.9746,231.84)"><path
             d="m 0,0 c 0.827,-4.468 5.998,-7.583 10.335,-6.224 -1.587,-2.282 -2.461,-5.053 -2.472,-7.833 -0.018,-4.942 2.57,-9.471 5.08,-13.728"
             style="fill:none;stroke:#f39326;stroke-width:3;stroke-linecap:butt;stroke-linejoin:miter;stroke-miterlimit:10;stroke-dasharray:none;stroke-opacity:1"
             id="path82" /></g><g
           id="g84"
           transform="translate(112.1279,242.9093)"><path
             d="m 0,0 c -3.184,0.753 -6.617,-0.157 -9.324,-1.994 -2.706,-1.838 -4.743,-4.528 -6.27,-7.421 -1.55,-2.935 -2.616,-6.472 -1.343,-9.537 0.59,-1.418 1.654,-2.656 1.914,-4.17 0.409,-2.382 -1.249,-4.55 -2.421,-6.664 -2.784,-5.019 -3.009,-11.374 -0.588,-16.577"
             style="fill:none;stroke:#f39326;stroke-width:3;stroke-linecap:butt;stroke-linejoin:miter;stroke-miterlimit:10;stroke-dasharray:none;stroke-opacity:1"
             id="path86" /></g><g
           id="g88"
           transform="translate(237.6416,204.4479)"><path
             d="M 0,0 C 0,0 7.225,6.379 2.338,27"
             style="fill:none;stroke:#cf95c2;stroke-width:3;stroke-linecap:butt;stroke-linejoin:miter;stroke-miterlimit:10;stroke-dasharray:none;stroke-opacity:1"
             id="path90" /></g><g
           id="g92"
           transform="translate(146.1895,126.9601)"><path
             d="m 0,0 c 2.722,1.508 5.498,3.036 8.547,3.661 3.048,0.626 6.468,0.22 8.833,-1.804 1.186,-1.014 2.382,-2.505 3.917,-2.221 0.494,0.092 0.932,0.367 1.355,0.637 1.616,1.03 3.231,2.06 4.846,3.089 1.095,0.699 2.259,1.419 3.557,1.461 1.879,0.062 3.491,-1.306 4.7,-2.746 1.21,-1.439 2.29,-3.086 3.951,-3.967"
             style="fill:none;stroke:#cf95c2;stroke-width:3;stroke-linecap:butt;stroke-linejoin:miter;stroke-miterlimit:10;stroke-dasharray:none;stroke-opacity:1"
             id="path94" /></g><g
           id="g96"
           transform="translate(238.2832,177.7545)"><path
             d="m 0,0 c -4.591,-2.824 -4.82,-9.406 -3.697,-14.677 1.123,-5.272 3.028,-10.902 0.897,-15.852"
             style="fill:none;stroke:#f39326;stroke-width:3;stroke-linecap:butt;stroke-linejoin:miter;stroke-miterlimit:10;stroke-dasharray:none;stroke-opacity:1"
             id="path98" /></g><g
           id="g100"
           transform="translate(170.4512,43.1515)"><path
             d="M 0,0 C -4.765,-1.94 -10.115,-2.417 -15.147,-1.351"
             style="fill:none;stroke:#cf95c2;stroke-width:3;stroke-linecap:butt;stroke-linejoin:miter;stroke-miterlimit:10;stroke-dasharray:none;stroke-opacity:1"
             id="path102" /></g><g
           id="g104"
           transform="translate(46.6968,42.1974)"><path
             d="m 0,0 c 3.334,4.541 18.585,12.612 24.057,13.955 8.618,2.116 16.899,5.605 24.433,10.294"
             style="fill:none;stroke:#c72831;stroke-width:3;stroke-linecap:butt;stroke-linejoin:miter;stroke-miterlimit:10;stroke-dasharray:none;stroke-opacity:1"
             id="path106" /></g><g
           id="g108"
           transform="translate(108.5957,79.3371)"><path
             d="m 0,0 c -1.437,-7.441 -2.879,-14.927 -3.035,-22.505 -0.259,-12.514 2.992,-25.028 1.519,-37.457"
             style="fill:none;stroke:#c72831;stroke-width:3;stroke-linecap:butt;stroke-linejoin:miter;stroke-miterlimit:10;stroke-dasharray:none;stroke-opacity:1"
             id="path110" /></g><g
           id="g112"
           transform="translate(180.2012,16.1261)"><path
             d="m 0,0 c 10.233,8.652 21.383,16.271 30.791,25.814 9.408,9.544 7.978,24.054 9.23,37.397"
             style="fill:none;stroke:#61c3d9;stroke-width:3;stroke-linecap:butt;stroke-linejoin:miter;stroke-miterlimit:10;stroke-dasharray:none;stroke-opacity:1"
             id="path114" /></g><g
           id="g116"
           transform="translate(227.3867,80.5392)"><path
             d="M 0,0 C 1.393,-3.923 2.786,-7.846 4.179,-11.768 6.312,-17.772 8.469,-24.24 6.8,-30.391 5.912,-33.663 4.004,-36.549 2.596,-39.633 -1.737,-49.122 -1.183,-60.024 -0.543,-70.437"
             style="fill:none;stroke:#c72831;stroke-width:3;stroke-linecap:butt;stroke-linejoin:miter;stroke-miterlimit:10;stroke-dasharray:none;stroke-opacity:1"
             id="path118" /></g><g
           id="g120"
           transform="translate(237.0625,72.1105)"><path
             d="M 0,0 C 2.697,-5.47 9.155,-7.733 14.961,-9.601 24.072,-12.53 33.626,-16.1 39.438,-23.703"
             style="fill:none;stroke:#c72831;stroke-width:3;stroke-linecap:butt;stroke-linejoin:miter;stroke-miterlimit:10;stroke-dasharray:none;stroke-opacity:1"
             id="path122" /></g><g
           id="g124"
           transform="translate(119.3174,66.4464)"><path
             d="m 0,0 c 0.028,-8.735 4.19,-16.92 9.003,-24.211 4.812,-7.29 10.414,-14.15 13.94,-22.142"
             style="fill:none;stroke:#61c3d9;stroke-width:3;stroke-linecap:butt;stroke-linejoin:miter;stroke-miterlimit:10;stroke-dasharray:none;stroke-opacity:1"
             id="path126" /></g><g
           id="g128"
           transform="translate(137.9829,99.55)"><path
             d="m 0,0 c 2.64,2.035 5.302,4.084 8.286,5.571 2.984,1.488 6.346,2.394 9.656,1.993 1.567,-0.19 3.088,-0.666 4.652,-0.879 1.564,-0.213 3.246,-0.136 4.587,0.697 1.191,0.738 2.262,2.088 3.64,1.838 C 31.25,9.142 31.631,8.908 32.013,8.697 33.64,7.801 35.432,7.256 37.209,6.717 42.23,5.196 47.268,3.671 52.445,2.823"
             style="fill:none;stroke:#c72831;stroke-width:3;stroke-linecap:butt;stroke-linejoin:miter;stroke-miterlimit:10;stroke-dasharray:none;stroke-opacity:1"
             id="path130" /></g><g
           id="g132"
           transform="translate(148.6953,99.55)"><path
             d="m 0,0 c 4.756,-2.532 10.267,-3.311 15.655,-3.313 4.063,0 8.292,0.47 11.737,2.625"
             style="fill:none;stroke:#c72831;stroke-width:3;stroke-linecap:butt;stroke-linejoin:miter;stroke-miterlimit:10;stroke-dasharray:none;stroke-opacity:1"
             id="path134" /></g><g
           id="g136"
           transform="translate(85.5405,172.8234)"><path
             d="m 0,0 c 0.44,-2.189 0.083,-4.448 0.061,-6.681 -0.022,-2.233 0.382,-4.648 1.987,-6.2"
             style="fill:none;stroke:#f39326;stroke-width:3;stroke-linecap:butt;stroke-linejoin:miter;stroke-miterlimit:10;stroke-dasharray:none;stroke-opacity:1"
             id="path138" /></g><g
           id="g140"
           transform="translate(89.604,153.1593)"><path
             d="m 0,0 c 0.669,-6.936 4.521,-13.261 6.834,-19.909 3.923,-11.273 3.467,-23.659 8.92,-34.412 5.479,-10.805 16.29,-18.673 27.432,-25.141 5.229,-3.035 10.887,-5.934 17.115,-6.255 5.62,-0.29 11.288,1.557 16.819,0.615 1.775,-0.301 3.494,-0.888 5.296,-1.021 2.511,-0.185 4.993,0.523 7.344,1.333 24.854,8.558 43.216,30.479 45.374,54.168 0.415,4.562 0.278,9.153 0.651,13.719"
             style="fill:none;stroke:#cf95c2;stroke-width:3;stroke-linecap:butt;stroke-linejoin:miter;stroke-miterlimit:10;stroke-dasharray:none;stroke-opacity:1"
             id="path142" /></g><g
           id="g144"
           transform="translate(162.8774,154.1388)"><path
             d="M 0,0 C 1.368,-6.022 3.953,-11.767 7.552,-16.784"
             style="fill:none;stroke:#cf95c2;stroke-width:3;stroke-linecap:butt;stroke-linejoin:miter;stroke-miterlimit:10;stroke-dasharray:none;stroke-opacity:1"
             id="path146" /></g><g
           id="g148"
           transform="translate(159.6841,145.4054)"><path
             d="M 0,0 C 0.389,-2.096 0.436,-4.254 0.14,-6.364"
             style="fill:none;stroke:#cf95c2;stroke-width:3;stroke-linecap:butt;stroke-linejoin:miter;stroke-miterlimit:10;stroke-dasharray:none;stroke-opacity:1"
             id="path150" /></g><g
           id="g152"
           transform="translate(146.9287,171.6833)"><path
             d="M 0,0 H 30.875"
             style="fill:none;stroke:#c72831;stroke-width:3;stroke-linecap:butt;stroke-linejoin:miter;stroke-miterlimit:10;stroke-dasharray:none;stroke-opacity:1"
             id="path154" /></g></g></g></g></svg>
