<?xml version="1.0" encoding="UTF-8"?>
<svg xmlns="http://www.w3.org/2000/svg" xmlns:xlink="http://www.w3.org/1999/xlink" viewBox="0 0 150.42 152.07">
  <defs>
    <style>
      .cls-1 {
        fill: none;
      }

      .cls-2 {
        fill: #3b65ef;
      }

      .cls-3 {
        mix-blend-mode: multiply;
      }

      .cls-3, .cls-4 {
        fill: #3b65ee;
        opacity: .2;
      }

      .cls-5 {
        isolation: isolate;
      }

      .cls-6 {
        fill: #fff;
        stroke: #3b65ef;
        stroke-miterlimit: 10;
        stroke-width: 3px;
      }

      .cls-7 {
        clip-path: url(#clippath);
      }
    </style>
    <clipPath id="clippath">
      <path class="cls-1" d="M62,150s-46-2-49-42S40.27,5.69,67,10c31,5,53,62,44,104-8.49,39.6-49,36-49,36Z"/>
    </clipPath>
  </defs>
  <g class="cls-5">
    <g id="Layer_2" data-name="Layer 2">
      <g id="Layer_2-2" data-name="Layer 2">
        <g>
          <ellipse class="cls-4" cx="97" cy="144" rx="53.5" ry="7.5" transform="translate(-7.92 5.66) rotate(-3.21)"/>
          <path class="cls-6" d="M62,150s-46-2-49-42S40.27,5.69,67,10c31,5,53,62,44,104-8.49,39.6-49,36-49,36Z"/>
          <g class="cls-7">
            <g>
              <path class="cls-2" d="M14,57S57,32,70,0l23,14S56,63,0,69l14-12Z"/>
              <path class="cls-2" d="M2.5,95s68-15,115-58l8,28S77.5,97.35,2.5,104.67v-9.67Z"/>
              <path class="cls-2" d="M4,124s83.08-3.65,127.04-24.33l-10.04,28.33s-49,15-113,9l-4-13Z"/>
            </g>
          </g>
          <path class="cls-3" d="M100.67,126.53c-13.35,19.05-39.9,22.69-54.07,11.83-12.53-9.61,17.97-13.88,29.99-33.8,12.02-19.92,9.16-56.48,20.91-43.06,14,16,13,51,3.17,65.03Z"/>
        </g>
      </g>
    </g>
  </g>
</svg>