<svg width="1647" height="220" viewBox="0 0 1647 220" fill="none" xmlns="http://www.w3.org/2000/svg">
<path d="M638.461 219.401H637.531C634.221 219.401 631.531 216.711 631.531 213.401C631.531 210.091 634.221 207.401 637.531 207.401H638.461C644.541 207.401 650.561 207.391 656.511 207.371L664.501 207.351C668.791 207.351 673.151 207.301 677.471 207.241C680.791 207.141 683.511 209.831 683.561 213.151C683.611 216.461 680.971 219.191 677.651 219.241C673.281 219.311 668.861 219.351 664.521 219.351L656.541 219.371C650.591 219.381 644.561 219.401 638.461 219.401ZM567.531 217.951C567.431 217.951 567.321 217.951 567.221 217.951C552.801 217.211 539.641 216.181 526.991 214.801C523.701 214.441 521.321 211.481 521.681 208.181C522.041 204.891 525.001 202.511 528.291 202.871C540.711 204.221 553.651 205.241 567.841 205.971C571.151 206.141 573.691 208.961 573.521 212.271C573.351 215.471 570.701 217.961 567.531 217.961V217.951ZM747.451 215.721C744.361 215.721 741.741 213.361 741.481 210.221C741.201 206.921 743.651 204.021 746.951 203.741C759.971 202.641 773.281 201.271 786.531 199.661C789.821 199.261 792.811 201.601 793.211 204.891C793.611 208.181 791.271 211.171 787.981 211.571C774.591 213.191 761.131 214.581 747.971 215.691C747.801 215.701 747.631 215.711 747.461 215.711L747.451 215.721ZM458.851 202.231C458.321 202.231 457.791 202.161 457.261 202.011C443.641 198.271 430.681 193.801 418.731 188.731C415.681 187.441 414.261 183.911 415.551 180.861C416.851 177.811 420.371 176.391 423.421 177.681C434.881 182.551 447.341 186.841 460.441 190.441C463.641 191.321 465.511 194.621 464.641 197.821C463.911 200.481 461.491 202.231 458.861 202.231H458.851ZM856.441 201.181C853.591 201.181 851.061 199.141 850.541 196.241C849.951 192.981 852.121 189.861 855.391 189.281C868.131 186.991 881.281 184.441 894.491 181.691C897.731 181.021 900.911 183.101 901.591 186.341C902.271 189.581 900.181 192.761 896.941 193.441C883.631 196.211 870.361 198.791 857.511 201.091C857.151 201.151 856.801 201.181 856.441 201.181ZM963.891 177.811C961.211 177.811 958.761 175.991 958.081 173.271C957.271 170.061 959.221 166.801 962.431 165.991C974.831 162.871 987.811 159.471 1001.01 155.891C1004.21 155.021 1007.5 156.911 1008.37 160.111C1009.24 163.311 1007.35 166.611 1004.15 167.471C990.881 171.071 977.831 174.491 965.361 177.631C964.871 177.751 964.381 177.811 963.891 177.811ZM363.601 156.171C362.531 156.171 361.461 155.891 360.481 155.291C350.511 149.211 338.801 143.071 325.681 137.041C322.671 135.661 321.351 132.091 322.731 129.081C324.111 126.071 327.681 124.751 330.691 126.131C344.241 132.351 356.361 138.721 366.731 145.041C369.561 146.771 370.451 150.461 368.731 153.291C367.601 155.141 365.621 156.171 363.601 156.171ZM1069.87 148.481C1067.28 148.481 1064.9 146.791 1064.12 144.191C1063.17 141.011 1064.98 137.671 1068.16 136.731C1080.21 133.151 1092.71 129.361 1106.39 125.161C1109.56 124.191 1112.91 125.971 1113.89 129.131C1114.86 132.301 1113.09 135.651 1109.92 136.631C1096.21 140.841 1083.67 144.641 1071.59 148.241C1071.02 148.411 1070.44 148.491 1069.88 148.491L1069.87 148.481ZM1174.79 115.481C1172.27 115.481 1169.93 113.891 1169.1 111.371C1168.06 108.221 1169.76 104.831 1172.91 103.791C1185.75 99.5314 1198.68 95.2014 1210.82 91.1214C1213.96 90.0714 1217.36 91.7614 1218.42 94.9014C1219.47 98.0414 1217.78 101.441 1214.64 102.501C1202.49 106.581 1189.56 110.921 1176.69 115.181C1176.06 115.391 1175.43 115.491 1174.8 115.491L1174.79 115.481ZM262.841 112.521C262.231 112.521 261.621 112.431 261.011 112.231C248.541 108.231 235.721 104.531 222.901 101.221C219.691 100.391 217.761 97.1214 218.591 93.9114C219.421 90.7014 222.691 88.7714 225.901 89.6014C238.941 92.9714 251.981 96.7414 264.671 100.801C267.831 101.811 269.561 105.191 268.551 108.341C267.731 110.891 265.381 112.511 262.841 112.511V112.521ZM6.75073 89.5014C4.06073 89.5014 1.61073 87.6714 0.930725 84.9414C0.130725 81.7214 2.09073 78.4714 5.31073 77.6714C17.7307 74.5914 31.2907 72.3514 45.6107 70.9914C48.9107 70.6814 51.8407 73.1014 52.1507 76.4014C52.4607 79.7014 50.0407 82.6314 46.7407 82.9414C33.0107 84.2414 20.0407 86.3814 8.19073 89.3214C7.71073 89.4414 7.22073 89.5014 6.74073 89.5014H6.75073ZM155.861 87.3714C155.571 87.3714 155.271 87.3514 154.971 87.3014C141.601 85.3014 128.371 83.7914 115.651 82.8114C112.351 82.5614 109.871 79.6714 110.131 76.3714C110.391 73.0714 113.271 70.6114 116.571 70.8514C129.571 71.8514 143.091 73.4014 156.741 75.4314C160.021 75.9214 162.281 78.9714 161.791 82.2514C161.351 85.2314 158.781 87.3714 155.861 87.3714ZM1279.18 80.6814C1276.65 80.6814 1274.31 79.0714 1273.48 76.5414C1272.45 73.3914 1274.17 70.0014 1277.32 68.9714C1291.1 64.4614 1303.58 60.4614 1315.48 56.7214C1318.64 55.7314 1322.01 57.4914 1323 60.6514C1323.99 63.8114 1322.23 67.1814 1319.07 68.1714C1307.22 71.8914 1294.78 75.8814 1281.05 80.3714C1280.43 80.5714 1279.8 80.6714 1279.18 80.6714V80.6814ZM1384.4 48.5914C1381.77 48.5914 1379.35 46.8414 1378.62 44.1814C1377.74 40.9914 1379.62 37.6814 1382.81 36.8014C1396.14 33.1314 1409.23 29.7214 1421.7 26.6714C1424.92 25.8814 1428.17 27.8515 1428.95 31.0715C1429.74 34.2915 1427.77 37.5415 1424.55 38.3215C1412.19 41.3515 1399.22 44.7214 1385.99 48.3614C1385.46 48.5114 1384.92 48.5814 1384.39 48.5814L1384.4 48.5914ZM1491.6 24.0014C1488.74 24.0014 1486.21 21.9514 1485.7 19.0414C1485.13 15.7814 1487.31 12.6714 1490.57 12.0914C1504.09 9.72144 1517.5 7.68145 1530.42 6.05145C1533.71 5.64145 1536.71 7.96144 1537.13 11.2514C1537.55 14.5414 1535.22 17.5414 1531.93 17.9614C1519.2 19.5714 1505.98 21.5714 1492.65 23.9114C1492.3 23.9714 1491.95 24.0014 1491.61 24.0014H1491.6ZM1640.96 12.9514C1640.9 12.9514 1640.83 12.9514 1640.77 12.9514C1632.45 12.6814 1624.04 12.5414 1615.77 12.5214H1614.41C1614.41 12.5214 1614.36 12.5214 1614.34 12.5214C1609.97 12.5214 1605.5 12.5714 1601.07 12.6714C1597.73 12.7514 1595.01 10.1214 1594.93 6.81144C1594.85 3.50144 1597.48 0.751442 1600.79 0.671442C1605.34 0.571442 1609.94 0.481441 1614.4 0.521441H1615.79C1624.17 0.541441 1632.7 0.691443 1641.14 0.961443C1644.45 1.07144 1647.05 3.84145 1646.95 7.15145C1646.85 10.4014 1644.18 12.9614 1640.96 12.9614V12.9514Z" fill="#2B67F8"/>
</svg>
