<svg width="93" height="97" viewBox="0 0 93 97" fill="none" xmlns="http://www.w3.org/2000/svg">
<g clip-path="url(#clip0_9_200)">
<path d="M91.55 0.840027L2.46997 29.1C2.46997 29.1 34.79 35.97 91.27 36.81L91.55 0.840027Z" fill="white" stroke="#3B65EE" stroke-width="1.69" stroke-linecap="round" stroke-linejoin="round"/>
<path d="M91.27 36.81V49.04C91.27 49.04 68.51 56.15 53.05 47.75C53.05 47.75 26.92 51.1 19.33 43.25C19.33 43.25 7.25 46.07 2.47 41.58C2.47 41.58 -1.18 37.4 2.47 29.1C2.47 29.1 62.89 38.22 91.27 36.81Z" fill="white" stroke="#3B65EE" stroke-width="1.69" stroke-linecap="round" stroke-linejoin="round"/>
<path d="M2.46997 41.58V84.65C2.46997 84.65 32.54 95.49 91.27 95.51V49.03C91.27 49.03 65.7 56.14 53.05 47.74C53.05 47.74 25.79 49.96 19.33 43.24C19.33 43.24 7.24997 45.5 2.46997 41.57V41.58Z" fill="white" stroke="#3B65EE" stroke-width="1.69" stroke-linecap="round" stroke-linejoin="round"/>
<path opacity="0.2" d="M1.04001 33.74C1.04001 33.74 10.31 38.77 18.33 36.81C18.33 36.81 39.28 46.08 53.33 42.71C53.33 42.71 81.99 47.31 91.27 42.48V49.04C91.27 49.04 66.82 55.59 53.05 47.75C53.05 47.75 25.79 49.41 19.33 43.25C19.33 43.25 6.12001 44.39 2.47001 41.58C2.47001 41.58 -0.659992 38.26 1.04001 33.74Z" fill="#3B65EE"/>
<path d="M18.9701 54.48C20.4601 63.89 20.2701 73.37 20.8201 82.85C19.1401 78.35 18.9001 73.49 18.5801 68.75C18.3901 63.99 18.3801 59.23 18.9701 54.49V54.48Z" fill="#3B65EE"/>
<path d="M40.89 57.85C42.38 67.26 42.19 76.74 42.74 86.22C41.06 81.72 40.82 76.86 40.5 72.12C40.31 67.36 40.3 62.6 40.89 57.86V57.85Z" fill="#3B65EE"/>
<path d="M70.68 60.1C72.17 69.51 71.98 78.99 72.53 88.47C70.85 83.97 70.61 79.11 70.29 74.37C70.1 69.61 70.09 64.85 70.68 60.11V60.1Z" fill="#3B65EE"/>
<path d="M73.1501 9.28001C74.9301 9.59001 81.4101 11.03 79.8001 15.66C79.7101 15.93 79.9301 16.21 80.2701 16.19C82.4301 16.06 88.7601 16.05 87.8401 20.74C87.8201 20.86 87.7301 20.97 87.6001 21.03C85.8401 21.85 72.4801 27.52 49.6801 22.17C49.5101 22.13 49.3801 22.02 49.3401 21.87C49.0101 20.43 47.7301 12.99 57.3201 13.87C57.5001 13.89 57.6801 13.82 57.7701 13.69C58.3101 12.91 60.4501 10.21 64.8301 9.21001C68.3201 8.41001 66.9101 7.08001 65.6501 6.30001C65.3001 6.08001 65.4601 5.60001 65.8901 5.58001C68.4001 5.47001 73.3501 5.64001 72.8001 8.81001C72.7601 9.02001 72.9001 9.23001 73.1501 9.27001V9.28001Z" fill="white" stroke="#3B65EE" stroke-width="1.12" stroke-miterlimit="10"/>
<path d="M74.0801 16.24C74.0801 16.24 67.2201 16.24 63.1101 15.07Z" fill="white"/>
<path d="M74.0801 16.24C70.4801 17.22 66.3501 17.01 63.1101 15.07C66.8401 14.96 70.5001 15.14 74.0801 16.24Z" fill="#3B65EE"/>
<path opacity="0.2" d="M82.92 22.65C82.92 22.65 84.36 19.17 76.13 19.17C67.9 19.17 76.13 14.48 72.02 13.31C67.91 12.14 64.08 13.31 62.56 16.24C61.04 19.17 59.67 16.83 56.93 18C54.19 19.17 52.16 19.64 53.17 22.92C53.17 22.92 74.61 26.12 82.91 22.65H82.92Z" fill="#3B65EE"/>
</g>
<defs>
<clipPath id="clip0_9_200">
<rect width="92.39" height="96.36" fill="white"/>
</clipPath>
</defs>
</svg>
