<?xml version="1.0" encoding="UTF-8"?><svg id="Layer_1" xmlns="http://www.w3.org/2000/svg" viewBox="0 0 500 500"><defs><style>.cls-1{fill:#fff;}.cls-2{fill:#ecf0fe;}.cls-3{fill:#c8d4fa;}.cls-4{fill:#dee5fc;}.cls-5{fill:#89a3f5;}.cls-6{fill:#3b66ef;}.cls-7{opacity:.2;}.cls-8{opacity:.8;}</style></defs><rect class="cls-2" x="56.53" y="266.46" width="45.74" height="23.4"/><rect class="cls-2" x="32.59" y="239.33" width="45.74" height="23.4"/><rect class="cls-2" x="82.59" y="239.33" width="45.74" height="23.4"/><rect class="cls-2" x="33.65" y="293.58" width="45.74" height="23.4"/><rect class="cls-2" x="57.93" y="101.31" width="45.74" height="23.4"/><rect class="cls-2" x="108.34" y="101.31" width="45.74" height="23.4"/><rect class="cls-2" x="85.05" y="128.43" width="45.74" height="23.4"/><rect class="cls-2" x="35.06" y="128.43" width="45.74" height="23.4"/><rect class="cls-2" x="401.94" y="290.23" width="45.74" height="23.4"/><rect class="cls-2" x="429.06" y="317.36" width="45.74" height="23.4"/><rect class="cls-2" x="378" y="263.11" width="45.74" height="23.4"/><rect class="cls-2" x="428" y="263.11" width="45.74" height="23.4"/><rect class="cls-2" x="379.07" y="317.36" width="45.74" height="23.4"/><rect class="cls-3" x="98.16" y="365.24" width="311.22" height="13.92"/><path class="cls-4" d="m409.37,377.67H110.79c-4,0-8.11-.29-12.1,0-.17.01-.35,0-.53,0l1.49,1.49v-13.92l-1.49,1.49h298.58c4,0,8.11.29,12.1,0,.17-.01.35,0,.53,0l-1.49-1.49v13.92c0,1.92,2.98,1.92,2.98,0v-13.92c0-.81-.68-1.49-1.49-1.49H110.79c-4.03,0-8.07-.08-12.1,0-.18,0-.35,0-.53,0-.81,0-1.49.68-1.49,1.49v13.92c0,.81.68,1.49,1.49,1.49h298.58c4.03,0,8.07.08,12.1,0,.18,0,.35,0,.53,0,1.92,0,1.92-2.98,0-2.98Z"/><rect class="cls-5" x="106.86" y="147.99" width="294.31" height="214.27"/><path class="cls-6" d="m401.17,360.76H118.79c-3.78,0-7.66-.26-11.43,0-.16.01-.33,0-.5,0l1.5,1.5v-205.53c0-2.74.28-5.65,0-8.39-.01-.12,0-.24,0-.36l-1.5,1.5h282.38c3.78,0,7.66.26,11.43,0,.16-.01.33,0,.5,0l-1.5-1.5v205.53c0,2.79-.08,5.6,0,8.39,0,.12,0,.24,0,.36,0,1.93,3,1.93,3,0v-205.53c0-2.79.08-5.6,0-8.39,0-.12,0-.24,0-.36,0-.81-.69-1.5-1.5-1.5H118.79c-3.81,0-7.62-.07-11.43,0-.17,0-.33,0-.5,0-.81,0-1.5.69-1.5,1.5v205.53c0,2.79-.08,5.6,0,8.39,0,.12,0,.24,0,.36,0,.81.69,1.5,1.5,1.5h282.38c3.81,0,7.62.07,11.43,0,.17,0,.33,0,.5,0,1.93,0,1.93-3,0-3Z"/><rect class="cls-1" x="116.3" y="158.68" width="276" height="196.11"/><path class="cls-6" d="m392.31,353.3h-133.03c-13.41,0-26.81,0-40.22,0h-91.54c-3.55,0-7.19-.23-10.73,0-.15.01-.31,0-.47,0l1.49,1.49v-19.49c0-7.03,0-14.05,0-21.08v-147.56c0-2.5.25-5.15,0-7.65-.01-.11,0-.22,0-.33l-1.49,1.49h264.8c3.55,0,7.19.23,10.73,0,.15-.01.31,0,.47,0l-1.49-1.49v5.24c0,4.75,0,9.5,0,14.25v21.08c0,8.57,0,17.15,0,25.72v121.84c0,2.55-.07,5.1,0,7.65,0,.11,0,.22,0,.33,0,1.92,2.98,1.92,2.98,0v-19.49c0-7.03,0-14.05,0-21.08,0-8.57,0-17.15,0-25.72v-121.84c0-2.55.07-5.1,0-7.65,0-.11,0-.22,0-.33,0-.81-.68-1.49-1.49-1.49H127.51c-3.58,0-7.16-.07-10.73,0-.16,0-.31,0-.47,0-.81,0-1.49.68-1.49,1.49v188.13c0,2.55-.07,5.1,0,7.65,0,.11,0,.22,0,.33,0,.81.68,1.49,1.49,1.49h264.8c3.58,0,7.16.07,10.73,0,.16,0,.31,0,.47,0,1.92,0,1.92-2.98,0-2.98Z"/><rect class="cls-1" x="98.41" y="362.26" width="311.22" height="13.92"/><path class="cls-6" d="m409.62,374.68H111.04c-4,0-8.11-.29-12.1,0-.17.01-.35,0-.53,0l1.5,1.5v-13.92l-1.5,1.5h298.58c4,0,8.11.29,12.1,0,.17-.01.35,0,.53,0l-1.5-1.5v13.92c0,1.93,3,1.93,3,0v-13.92c0-.81-.69-1.5-1.5-1.5H111.04c-4.03,0-8.07-.08-12.1,0-.18,0-.35,0-.53,0-.81,0-1.5.69-1.5,1.5v13.92c0,.81.69,1.5,1.5,1.5h298.58c4.03,0,8.07.08,12.1,0,.18,0,.35,0,.53,0,1.93,0,1.93-3,0-3Z"/><g class="cls-8"><polygon class="cls-1" points="194.35 158.69 117.92 235.11 118.08 222.02 181.92 158.19 194.35 158.69"/><path class="cls-1" d="m117.4,236.34l.18-14.53,64.14-64.14,13.79.56-.81.81-77.3,77.3Zm1.18-14.11l-.14,11.64,74.73-74.73-11.05-.45-63.54,63.54Z"/><polygon class="cls-1" points="174.79 158.36 118.08 215.06 118.08 211.92 171.5 158.5 174.79 158.36"/><path class="cls-1" d="m117.83,215.67v-3.85l.07-.07,53.48-53.48,4.03-.18-57.58,57.58Zm.5-3.64v2.44l55.83-55.83-2.56.11-53.27,53.28Z"/><polygon class="cls-1" points="262.01 158.68 117.92 302.76 118.09 315.96 275.38 158.68 262.01 158.68"/><path class="cls-1" d="m117.38,317.71l-.2-15.25,144.52-144.52h15.44l-1.25,1.25-158.51,158.51Zm1.28-14.65l.14,11.15,154.8-154.8h-11.29l-143.65,143.65Z"/><polygon class="cls-1" points="282.74 158.51 118.22 323.03 118.08 326.43 286.01 158.5 282.74 158.51"/><path class="cls-1" d="m117.68,327.34l.19-4.47,164.72-164.72,4.3-.02-169.2,169.21Zm.9-4.16l-.1,2.33,166.65-166.65h-2.24s-164.31,164.32-164.31,164.32Z"/><polygon class="cls-1" points="391.1 267.75 307.46 351.82 308.45 351.82 390.87 269.4 391.1 267.75"/><path class="cls-1" d="m308.52,351.99h-1.48l.29-.29,84.01-84.44-.3,2.22-82.51,82.51Zm-.65-.34h.51l82.33-82.33.15-1.08-82.99,83.42Z"/><polygon class="cls-1" points="391 278.22 317.4 351.82 325.86 351.82 391.01 286.67 391 278.22"/><path class="cls-1" d="m326.03,352.24h-9.63l.71-.71,74.31-74.31v9.63s-65.39,65.39-65.39,65.39Zm-7.62-.83h7.28l64.91-64.91v-7.27s-72.18,72.18-72.18,72.18Z"/></g><g class="cls-7"><rect class="cls-3" x="114.8" y="158.2" width="276" height="196.11"/></g><rect class="cls-5" x="251.54" y="118.37" width="5.97" height="274.51" transform="translate(-1.09 510.15) rotate(-90)"/><path class="cls-6" d="m390.28,252.64v5.97l1.5-1.5H128.4c-3.53,0-7.14-.23-10.66,0-.15.01-.31,0-.47,0l1.5,1.5v-5.97l-1.5,1.5h263.38c3.55,0,7.11.07,10.66,0,.16,0,.31,0,.47,0,1.93,0,1.93-3,0-3H128.4c-3.55,0-7.11-.07-10.66,0-.16,0-.31,0-.47,0-.81,0-1.5.69-1.5,1.5v5.97c0,.81.69,1.5,1.5,1.5h263.38c3.55,0,7.11.07,10.66,0,.16,0,.31,0,.47,0,.81,0,1.5-.69,1.5-1.5v-5.97c0-1.93-3-1.93-3,0Z"/><rect class="cls-5" x="247.68" y="159.41" width="11.17" height="195"/><path class="cls-6" d="m258.85,352.91h-11.17l1.5,1.5v-187.09c0-2.49.21-5.09,0-7.58,0-.11,0-.22,0-.33l-1.5,1.5h11.17l-1.5-1.5v187.09c0,2.52-.07,5.06,0,7.58,0,.11,0,.22,0,.33,0,1.93,3,1.93,3,0v-187.09c0-2.52.07-5.06,0-7.58,0-.11,0-.22,0-.33,0-.81-.69-1.5-1.5-1.5h-11.17c-.81,0-1.5.69-1.5,1.5v40.39c0,8.51,0,17.02,0,25.53v121.18c0,2.52-.07,5.06,0,7.58,0,.11,0,.22,0,.33,0,.81.69,1.5,1.5,1.5h11.17c1.93,0,1.93-3,0-3Z"/><path class="cls-5" d="m214.63,342.62c.88.32,6.89.44,7.91.57,1.51.21,2.89.26,4.42.09.81-.09,4.47-.18,4.9-.86.36-.89-5.57-19.32-3.81-30.42,2.13-13.45,1.31-27.85-5.23-40.43-2.38-4.57-8.19-10.22-13.73-11.14-3.33-.56-6.24-.47-9.23.92-2.2,1.03-3.66,1.85-5.12,3.21-.87.81-1.45,1.88-1.71,3.03h0c-1.93-6.47-9.39-7.89-15.35-7.54-6.1.36-11.26,4.26-14.89,8.85-4.95,6.25-8.28,16.57-9.76,24.46-1.08,5.77-.72,12.03-1.23,17.36-.36,3.78-1.75,25.26-4.52,29.87"/><path class="cls-6" d="m214.23,344.07c1.38.42,3.02.34,4.44.41s2.88.11,4.32.27c2.05.24,4.1.06,6.15-.14,1.36-.13,3.74-.2,4.18-1.85.21-.77-.11-1.7-.27-2.45-.28-1.29-.6-2.57-.9-3.85-.92-3.93-1.75-7.89-2.32-11.89s-.9-8.42-.27-12.58c.83-5.5,1.23-11.05.94-16.61s-1.22-11.14-2.97-16.45c-1.64-4.96-3.81-9.79-7.47-13.59-3.99-4.15-9.02-6.87-14.88-6.71-3.1.08-5.96,1.18-8.61,2.73-2.27,1.33-4.39,3.17-4.99,5.85h2.89c-2.4-7.56-11.37-9.48-18.38-8.47-8.97,1.29-15.39,9.03-19.01,16.78-3.99,8.54-6.08,17.76-6.41,27.16-.22,6.17-.69,12.3-1.29,18.45-.36,3.69-.78,7.38-1.39,11.04-.42,2.51-.84,5.65-2.02,7.69-.97,1.67,1.62,3.18,2.59,1.51,1.1-1.89,1.54-4.2,1.95-6.32.6-3.06,1-6.15,1.37-9.25.58-4.98.95-9.98,1.4-14.98.42-4.68.27-9.4.76-14.07.44-4.27,1.56-8.51,2.87-12.59,2.55-7.89,6.49-16.18,13.97-20.46,3.72-2.13,8.08-2.63,12.28-1.88,3.68.65,7.21,2.4,8.41,6.19.42,1.34,2.56,1.51,2.89,0,.48-2.17,2.43-3.43,4.26-4.42,2.24-1.21,4.5-1.99,7.07-1.96,4.86.06,8.82,2.4,12.12,5.83s5.22,7.8,6.7,12.27c1.6,4.85,2.52,9.9,2.83,15s.08,10.31-.64,15.4c-.56,3.98-.72,7.78-.31,11.79.67,6.65,2.35,13.05,3.72,19.56.04.2.08.4.12.61.08.38.03.07.02.08-.01.01.02.12,0,.15,0,.02.49-1.08.55-1,.01.02-.63.17-.82.2-1.83.33-3.94.46-5.79.37-1.69-.08-3.38-.28-5.07-.36-1.34-.06-3.1,0-4.21-.33-1.85-.57-2.64,2.33-.8,2.89h0Z"/><path class="cls-1" d="m200.54,336.97s-.38-.13-.38-.13c-.11-.04-2.28-.76-2.39-.8v-5.54h-13.85v5.54s-2.15,1.54-2.77,1.85l-.46-.46c.22.38,3.42,5.71,9.7,6,4.56.22,8.89-2.31,11.08-6.46"/><path class="cls-6" d="m200.94,335.52c-.92-.31-1.85-.62-2.77-.92l1.1,1.45v-5.54c0-.81-.69-1.5-1.5-1.5h-13.85c-.81,0-1.5.69-1.5,1.5v5.54l.74-1.3c-.9.64-1.8,1.33-2.77,1.85l1.82.23-.46-.46c-1.2-1.2-3.22.34-2.36,1.82,1.83,3.13,5.14,5.63,8.66,6.43,5.87,1.33,11.87-1.67,14.7-6.89.92-1.7-1.67-3.21-2.59-1.51-2.29,4.21-7.13,6.71-11.87,5.37-2.66-.75-5.09-2.8-6.32-4.91l-2.36,1.82.46.46c.49.49,1.23.55,1.82.23.95-.51,1.91-1.16,2.75-1.84.95-.77.76-1.77.76-2.89v-3.96l-1.5,1.5h13.85l-1.5-1.5v5.54c0,.69.47,1.24,1.1,1.45.92.31,1.85.62,2.77.92,1.84.61,2.62-2.28.8-2.89h0Z"/><path class="cls-6" d="m174.97,339.11c-1.16.12-2,.72-3.01,1.25-.47.25-1.04.38-1.43.75-.12.11-.26.28-.34.42-.04.08-.27,1.09-.18.55l.69-.9c-.24.16-1.89-.14-2.38-.21-1.01-.15-2.01-.36-3.02-.52-1.93-.32-3.79-.36-5.73-.15-4.13.44-8.18.13-12.3-.27-1.92-.18-1.91,2.82,0,3,2.38.23,4.77.43,7.16.52s4.73-.33,7.12-.4c2.23-.07,4.37.5,6.56.81,1.78.25,4.58.74,4.88-1.66l-.44,1.06c.17-.19,1.02-.45,1.27-.59.3-.17.81-.62,1.16-.65,1.9-.2,1.92-3.2,0-3h0Z"/><path class="cls-2" d="m161.08,353.7c.82-2.12,3.42-7.22,8.31-11.08,4.61-3.64,9.3-4.71,11.54-5.08.22.38,3.42,5.71,9.7,6,4.56.22,8.89-2.31,11.08-6.46,1.83.14,7.73.8,12.93,5.54,4.62,4.21,6.03,9.2,6.46,11.08h-60.48"/><path class="cls-6" d="m162.52,354.1c3.11-7.86,10.48-13.72,18.8-15.11l-1.69-.69c1.82,3.12,5.12,5.62,8.63,6.42,5.89,1.35,11.87-1.66,14.73-6.88l-1.3.74c8.68.67,15.97,7.09,17.94,15.52l1.45-1.9h-60.48c-1.93,0-1.93,3,0,3h60.48c1,0,1.67-.96,1.45-1.9-2.29-9.79-10.86-16.95-20.84-17.72-.5-.04-1.06.31-1.3.74-2.33,4.25-7.22,6.75-12,5.33-2.55-.75-4.9-2.67-6.18-4.87-.36-.62-1.03-.8-1.69-.69-9.41,1.57-17.41,8.39-20.9,17.21-.71,1.8,2.19,2.57,2.89.8h0Z"/><path class="cls-1" d="m167.8,298.68c.3-2.87.8-5.62,1.52-8.18l.61-.03c8.72,3.27,20.45-4.15,22.35-12.75,3.7,9.03,14.31,16.95,24.12,13l.09-.25c.14,2.78.24,5.68.2,8.59h-.16c.47-.7.47-.95,1.87-1.49,2.56-.99,3.84,1.43,4.35,2.59,1.02,2.3.04,8.75-6.43,5.98h-.08c-.59,4.87-1.84,9.61-4.28,13.8-4.26,7.3-12,11.6-20.42,11.6-12.46,0-22.79-9.84-23.95-24.72l-.24-.68c-6.46,2.77-7.44-3.68-6.43-5.98.51-1.16,1.79-3.58,4.35-2.59,1.4.54,1.61,1.41,2.08,2.11l.33-.14"/><path class="cls-6" d="m169.3,298.68c.29-2.63.76-5.23,1.46-7.78l-1.45,1.1c.93-.05,1.97.45,2.97.59,1.3.18,2.6.21,3.9.06,2.74-.31,5.38-1.21,7.79-2.56,4.54-2.55,8.53-6.8,9.74-11.97h-2.89c2.25,5.36,6.25,10.04,11.4,12.8,2.52,1.35,5.31,2.21,8.18,2.33,1.37.06,2.76-.08,4.1-.38s2.91-.59,3.43-2.01l-2.95-.4c.14,2.86.23,5.73.2,8.59l1.5-1.5h-.16c.43.75.86,1.5,1.3,2.25.78-1.19,2.2-1.25,3.03-.04.62.91.81,1.61.72,2.72-.07.85-.37,1.93-1.13,2.46-1.33.93-2.86-.17-4.21-.33-.87-.11-1.41.78-1.5,1.5-.71,5.71-2.42,11.63-6.21,16.09-3.28,3.87-7.79,6.46-12.77,7.43-8.71,1.68-17.5-2.2-22.32-9.6-1.41-2.16-2.47-4.5-3.19-6.97-.39-1.33-.69-2.68-.91-4.05-.17-1.11-.17-2.23-.54-3.29-.24-.69-1.05-1.37-1.85-1.05-1.12.46-2.73,1.07-3.81.2-.75-.6-1.02-1.7-1.05-2.59-.04-1.03.15-1.67.73-2.53.35-.52.8-1,1.48-.94.97.09,1.31.89,1.76,1.6.32.51,1.08.95,1.69.69l.33-.14c.75-.31,1.27-.99,1.05-1.85-.19-.71-1.1-1.36-1.85-1.05l-.33.14,1.69.69c-.79-1.26-1.5-2.27-2.97-2.8-1.31-.47-2.75-.33-3.9.48-1.63,1.14-2.58,3.2-2.68,5.15s.49,3.9,1.85,5.21c1.87,1.8,4.58,1.54,6.81.63l-1.85-1.05c.33.94.35,1.94.49,2.93.21,1.43.51,2.85.91,4.24.72,2.5,1.76,4.94,3.11,7.17,2.45,4.03,5.98,7.46,10.21,9.58,9.55,4.77,21.63,2.68,29.03-5.02,5.02-5.22,7.2-12.26,8.07-19.31l-1.5,1.5c.11.01.63.31.84.37.34.1.69.17,1.04.22.56.08,1.11.11,1.67.05,1.09-.12,2.13-.55,2.92-1.32,1.36-1.31,1.95-3.36,1.85-5.21-.1-1.95-1.06-4.01-2.68-5.15-2.28-1.6-5.26-.45-6.67,1.7-.64.98.21,2.24,1.3,2.26h.16c.82.01,1.49-.69,1.5-1.5.03-2.87-.06-5.73-.2-8.59-.08-1.73-2.37-1.98-2.95-.4l-.09.25,1.05-1.05c-9.18,3.56-18.79-3.63-22.27-11.95-.52-1.24-2.52-1.6-2.89,0-1.07,4.56-4.63,8.17-8.66,10.34-2.03,1.1-4.31,1.88-6.62,2.05-1.13.08-2.28.06-3.4-.17-.97-.2-1.82-.6-2.83-.54-.66.04-1.26.44-1.45,1.1-.77,2.81-1.26,5.68-1.57,8.58-.21,1.92,2.79,1.9,3,0h0Z"/><path class="cls-6" d="m182.7,317.15c1.5,3.87,4.65,7.98,9.09,8.34s9.34-3.79,10.07-8.25c.22-1.35-.96-2.25-2.2-1.69.11-.05-.4.15-.54.2-.28.09-.57.17-.85.24-.57.14-1.15.25-1.73.32-1.39.18-2.8.22-4.2.18s-2.67-.13-3.98-.36c-.64-.11-1.28-.25-1.91-.43-.26-.07-.51-.15-.76-.24-.37-.13-.3-.1-.6-.24-.73-.35-1.62-.2-2.05.54-.38.65-.2,1.7.54,2.05,2.69,1.28,5.82,1.61,8.77,1.69s6.1-.13,8.84-1.35l-2.2-1.69c-.51,3.14-3.81,6.45-7.18,6.05-1.62-.19-2.94-1.3-3.97-2.48-.52-.59-.96-1.24-1.35-1.92-.2-.34-.39-.7-.57-1.05-.07-.14-.13-.28-.19-.42-.1-.23.03.09-.11-.26-.29-.76-1.01-1.28-1.85-1.05-.72.2-1.34,1.09-1.05,1.85h0Z"/><ellipse class="cls-5" cx="187.02" cy="303" rx="1.68" ry="2.5"/><path class="cls-6" d="m187.21,303c0,.16-.01.32-.03.48l.05-.4c-.04.3-.12.59-.23.87l.15-.36c-.05.1-.1.21-.16.31,0,0-.1.17-.11.17-.02,0,.29-.32.1-.13-.06.06-.32.29-.09.11s-.06.02-.14.06l.36-.15c-.1.04-.21.07-.32.09l.4-.05c-.11.01-.22.01-.33,0l.4.05c-.11-.02-.21-.05-.32-.09l.36.15c-.09-.04-.16-.1-.25-.14.33.18.24.2.12.08-.04-.04-.07-.07-.11-.11-.09-.1-.09-.21.1.13-.03-.05-.06-.09-.09-.14-.07-.11-.12-.22-.17-.33l.15.36c-.12-.28-.19-.57-.23-.87l.05.4c-.04-.32-.04-.65,0-.97l-.05.4c.04-.3.12-.59.23-.87l-.15.36c.05-.1.1-.21.16-.31,0,0,.1-.17.11-.17.02,0-.29.32-.1.13.06-.06.32-.29.09-.11s.06-.02.14-.06l-.36.15c.1-.04.21-.07.32-.09l-.4.05c.11-.01.22-.01.33,0l-.4-.05c.11.02.21.05.32.09l-.36-.15c.09.04.16.1.25.14-.33-.18-.24-.2-.12-.08.04.04.07.07.11.11.09.1.09.21-.1-.13.03.05.06.09.09.14.07.11.12.22.17.33l-.15-.36c.12.28.19.57.23.87l-.05-.4c.02.16.03.32.03.48,0,.78.68,1.54,1.5,1.5s1.51-.66,1.5-1.5c-.02-1.39-.58-2.99-1.89-3.67-.66-.34-1.47-.45-2.17-.17s-1.3.78-1.69,1.46c-.7,1.21-.82,2.84-.29,4.13.31.75.74,1.39,1.43,1.84.62.41,1.45.52,2.16.32,1.67-.48,2.44-2.29,2.46-3.9,0-.78-.7-1.54-1.5-1.5s-1.49.66-1.5,1.5Z"/><ellipse class="cls-5" cx="197.81" cy="303" rx="1.68" ry="2.5"/><path class="cls-6" d="m197.99,303c0,.16-.01.32-.03.48l.05-.4c-.04.3-.12.59-.23.87l.15-.36c-.05.1-.1.21-.16.31,0,0-.1.17-.11.17-.02,0,.29-.32.1-.13-.06.06-.32.29-.09.11s-.06.02-.14.06l.36-.15c-.1.04-.21.07-.32.09l.4-.05c-.11.01-.22.01-.33,0l.4.05c-.11-.02-.21-.05-.32-.09l.36.15c-.09-.04-.16-.1-.25-.14.33.18.24.2.12.08-.04-.04-.07-.07-.11-.11-.09-.1-.09-.21.1.13-.03-.05-.06-.09-.09-.14-.07-.11-.12-.22-.17-.33l.15.36c-.12-.28-.19-.57-.23-.87l.05.4c-.04-.32-.04-.65,0-.97l-.05.4c.04-.3.12-.59.23-.87l-.15.36c.05-.1.1-.21.16-.31,0,0,.1-.17.11-.17.02,0-.29.32-.1.13.06-.06.32-.29.09-.11s.06-.02.14-.06l-.36.15c.1-.04.21-.07.32-.09l-.4.05c.11-.01.22-.01.33,0l-.4-.05c.11.02.21.05.32.09l-.36-.15c.09.04.16.1.25.14-.33-.18-.24-.2-.12-.08.04.04.07.07.11.11.09.1.09.21-.1-.13.03.05.06.09.09.14.07.11.12.22.17.33l-.15-.36c.12.28.19.57.23.87l-.05-.4c.02.16.03.32.03.48,0,.78.68,1.54,1.5,1.5s1.51-.66,1.5-1.5c-.02-1.39-.58-2.99-1.89-3.67-.66-.34-1.47-.45-2.17-.17s-1.3.78-1.69,1.46c-.7,1.21-.82,2.84-.29,4.13.31.75.74,1.39,1.43,1.84.62.41,1.45.52,2.16.32,1.67-.48,2.44-2.29,2.46-3.9,0-.78-.7-1.54-1.5-1.5s-1.49.66-1.5,1.5Z"/><path class="cls-6" d="m392.31,353.3h-133.03c-13.41,0-26.81,0-40.22,0h-91.54c-3.55,0-7.19-.23-10.73,0-.15.01-.31,0-.47,0l1.49,1.49v-19.49c0-7.03,0-14.05,0-21.08v-147.56c0-2.5.25-5.15,0-7.65-.01-.11,0-.22,0-.33l-1.49,1.49h264.8c3.55,0,7.19.23,10.73,0,.15-.01.31,0,.47,0l-1.49-1.49v5.24c0,4.75,0,9.5,0,14.25v21.08c0,8.57,0,17.15,0,25.72v121.84c0,2.55-.07,5.1,0,7.65,0,.11,0,.22,0,.33,0,1.92,2.98,1.92,2.98,0v-19.49c0-7.03,0-14.05,0-21.08,0-8.57,0-17.15,0-25.72v-121.84c0-2.55.07-5.1,0-7.65,0-.11,0-.22,0-.33,0-.81-.68-1.49-1.49-1.49H127.51c-3.58,0-7.16-.07-10.73,0-.16,0-.31,0-.47,0-.81,0-1.49.68-1.49,1.49v188.13c0,2.55-.07,5.1,0,7.65,0,.11,0,.22,0,.33,0,.81.68,1.49,1.49,1.49h264.8c3.58,0,7.16.07,10.73,0,.16,0,.31,0,.47,0,1.92,0,1.92-2.98,0-2.98Z"/><path class="cls-4" d="m226.76,189.57c-1.29,2.8-4.63,4-7.45,2.7s-4.05-4.63-2.76-7.43,10.37-9.03,10.37-9.03c0,0,1.13,10.96-.17,13.76Z"/><path class="cls-4" d="m311.88,130.89c-1.29,2.8-4.63,4-7.45,2.7s-4.05-4.63-2.76-7.43c1.29-2.8,10.37-9.03,10.37-9.03,0,0,1.13,10.96-.17,13.76Z"/><path class="cls-4" d="m301.14,234.41c-1.29,2.8-4.63,4-7.45,2.7s-4.05-4.63-2.76-7.43,10.37-9.03,10.37-9.03c0,0,1.13,10.96-.17,13.76Z"/><path class="cls-4" d="m195.75,400.13c-1.29,2.8-4.63,4-7.45,2.7-2.82-1.31-4.05-4.63-2.76-7.43,1.29-2.8,10.37-9.03,10.37-9.03,0,0,1.13,10.96-.17,13.76Z"/><path class="cls-4" d="m212.57,236.75c-1.29,2.8-4.63,4-7.45,2.7-2.82-1.31-4.05-4.63-2.76-7.43,1.29-2.8,10.37-9.03,10.37-9.03,0,0,1.13,10.96-.17,13.76Z"/><path class="cls-4" d="m306.5,191.76c-1.29,2.8-4.63,4-7.45,2.7-2.82-1.31-4.05-4.63-2.76-7.43s10.37-9.03,10.37-9.03c0,0,1.13,10.96-.17,13.76Z"/><path class="cls-4" d="m290.09,320.44c-1.29,2.8-4.63,4-7.45,2.7-2.82-1.31-4.05-4.63-2.76-7.43s10.37-9.03,10.37-9.03c0,0,1.13,10.96-.17,13.76Z"/><path class="cls-4" d="m383.05,323.3c-1.29,2.8-4.63,4-7.45,2.7-2.82-1.31-4.05-4.63-2.76-7.43,1.29-2.8,10.37-9.03,10.37-9.03,0,0,1.13,10.96-.17,13.76Z"/><path class="cls-4" d="m354.44,177.66c-1.29,2.8-4.63,4-7.45,2.7-2.82-1.31-4.05-4.63-2.76-7.43,1.29-2.8,10.37-9.03,10.37-9.03,0,0,1.13,10.96-.17,13.76Z"/><path class="cls-4" d="m347.01,340.94c-1.29,2.8-4.63,4-7.45,2.7-2.82-1.31-4.05-4.63-2.76-7.43,1.29-2.8,10.37-9.03,10.37-9.03,0,0,1.13,10.96-.17,13.76Z"/><path class="cls-4" d="m422.59,236.08c-1.29,2.8-4.63,4-7.45,2.7-2.82-1.31-4.05-4.63-2.76-7.43,1.29-2.8,10.37-9.03,10.37-9.03,0,0,1.13,10.96-.17,13.76Z"/><path class="cls-4" d="m156.67,236.84c-1.29,2.8-4.63,4-7.45,2.7-2.82-1.31-4.05-4.63-2.76-7.43s10.37-9.03,10.37-9.03c0,0,1.13,10.96-.17,13.76Z"/><path class="cls-4" d="m241.86,120.3c-1.29,2.8-4.63,4-7.45,2.7-2.82-1.31-4.05-4.63-2.76-7.43,1.29-2.8,10.37-9.03,10.37-9.03,0,0,1.13,10.96-.17,13.76Z"/><path class="cls-4" d="m136.01,125.6c-1.29,2.8-4.63,4-7.45,2.7-2.82-1.31-4.05-4.63-2.76-7.43,1.29-2.8,10.37-9.03,10.37-9.03,0,0,1.13,10.96-.17,13.76Z"/><path class="cls-4" d="m179.66,204.84c-1.29,2.8-4.63,4-7.45,2.7-2.82-1.31-4.05-4.63-2.76-7.43,1.29-2.8,10.37-9.03,10.37-9.03,0,0,1.13,10.96-.17,13.76Z"/><path class="cls-4" d="m77.27,231.02c-1.29,2.8-4.63,4-7.45,2.7-2.82-1.31-4.05-4.63-2.76-7.43,1.29-2.8,10.37-9.03,10.37-9.03,0,0,1.13,10.96-.17,13.76Z"/><path class="cls-4" d="m354.36,222.83c-1.29,2.8-4.63,4-7.45,2.7s-4.05-4.63-2.76-7.43,10.37-9.03,10.37-9.03c0,0,1.13,10.96-.17,13.76Z"/><path class="cls-4" d="m96.09,336.64c-1.29,2.8-4.63,4-7.45,2.7-2.82-1.31-4.05-4.63-2.76-7.43,1.29-2.8,10.37-9.03,10.37-9.03,0,0,1.13,10.96-.17,13.76Z"/><path class="cls-4" d="m130.45,409.73c-1.29,2.8-4.63,4-7.45,2.7-2.82-1.31-4.05-4.63-2.76-7.43,1.29-2.8,10.37-9.03,10.37-9.03,0,0,1.13,10.96-.17,13.76Z"/><path class="cls-4" d="m327.83,286.97c-1.29,2.8-4.63,4-7.45,2.7-2.82-1.31-4.05-4.63-2.76-7.43,1.29-2.8,10.37-9.03,10.37-9.03,0,0,1.13,10.96-.17,13.76Z"/></svg>