<?xml version="1.0" encoding="UTF-8"?><svg id="Finals" xmlns="http://www.w3.org/2000/svg" viewBox="0 0 300 300"><defs><style>.cls-1{fill:#fff;}.cls-2{fill:#ecf0fe;}.cls-3{fill:#89a3f5;}.cls-4{fill:#3b66ef;}</style></defs><path class="cls-2" d="m176.64,60.87c-2.38,12.38-10.09,21.79-10.62,34.74-.44,10.83-.84,22.08-.46,32.73.54,15.14.04,30.42,1.41,45.51.91,10.01,4.8,18.38,7.55,27.94,2.89,10.04,6.31,20.3,9.1,30.53-4.85-4.26-12.39-4.43-18.2-6.5-6.62-2.37-13.04-6.1-19.16-9.44-14.57-7.95-30.51-12.61-45.97-18.58-10.21-3.95-21.7-8.4-31.14-13.86-7.74-4.48-5.57-19.65-6.41-27.87-.35-3.44-.69-6.76-.94-10.22-.34-4.69.83-9.24.38-13.99-3.23,10.19.09,20.89-.46,31.27-5.43-11.57-6.86-28.5-.91-40.24,4.54-8.96,15.27-15.26,24.35-19.07,22.85-9.6,47.33-13.58,67.61-28.7,6.16-4.59,23.42-7.9,25.32-15.68"/><path class="cls-2" d="m171.73,59.52c-2.81,13.19-10.27,24.22-10.88,38.01-.71,15.99-.24,31.9-.06,47.89.17,15.06,0,30.24,4.61,44.72s9.27,28.9,13.31,43.53l8.51-4.96c-5.8-4.54-12.25-5.26-19.08-7.36-7.44-2.3-14.1-6.65-20.94-10.24-14.77-7.75-30.82-12.54-46.33-18.53-7.33-2.83-14.67-5.69-21.74-9.13-2.57-1.25-6.63-2.63-8.5-4.85-1.46-1.74-1.82-4.5-2.12-6.65-.71-5.25-.24-10.6-.68-15.88-.33-3.98-.99-7.97-1.01-11.97s.67-8.13.44-12.24c-.31-5.6-8.41-7.08-10.01-1.35-3.03,10.84-.29,21.63-.64,32.63l9.49-2.57c-6.18-13.75-6.54-32.74,5.74-43.16,11.9-10.1,28.65-13.9,43.11-18.78,7.78-2.62,15.51-5.42,22.95-8.88,6.74-3.14,12.52-7.36,18.84-11.16,8.74-5.26,22.69-6.61,26.23-17.79,1.99-6.26-7.84-8.94-9.82-2.71-1.36,4.29-9.95,6.52-13.61,8.04-6.08,2.53-10.83,5.94-16.44,9.34-14.95,9.06-31.99,13.42-48.32,19.22-14.11,5.01-31.1,11.46-38.4,25.64s-5.33,31.5.91,45.38c2.2,4.89,9.34,2.07,9.49-2.57.32-9.98-2.46-20.12.28-29.92l-10.01-1.35c.25,4.39-.54,8.72-.41,13.11.12,4.04.77,8.05,1.06,12.07.4,5.66.04,11.31.85,16.94.76,5.29,2.61,10.57,7.14,13.78,6.32,4.47,14.25,7.34,21.36,10.26,15.97,6.57,32.68,11.43,48.38,18.64,7.66,3.52,14.79,8.07,22.46,11.54,3.37,1.53,6.79,2.83,10.38,3.72,3.9.96,8.44,1.43,11.71,3.99,3.75,2.94,9.99.39,8.51-4.96-3.89-14.07-8.24-28.06-12.79-41.93s-4.59-28.79-4.76-43.61c-.18-15.35-.61-30.62-.02-45.97.26-6.66,1.51-12.45,4-18.63s5.21-12.09,6.59-18.6-8.46-9.13-9.82-2.71h0Z"/><path class="cls-3" d="m43.56,114.53c-20.22-1.22-27.92,30.32-20.5,44.95,2.93,5.77,8.39,10.22,13.79,13.58,4.26,2.65,10.21,6.06,15.42,4.37,9.87-3.19,4.83-18.2,3.62-25.21-1.39-8.06-2.17-15.25.16-23.21,1.25-4.27,2.56-9.13.56-13.39-4.89-10.39-20.81-5.05-27.4.58-7.84,6.7-10.55,17.55-10.84,27.47s1.36,23.02,8.91,30.75c4.27,4.37,10.34,6.05,15.61,2.38s7.79-10.69,9.12-16.69c2.94-13.26,2.11-27.56-.36-40.83-.5-2.67-3.8-4.29-6.27-3.56-13.45,4.01-16.48,20.4-16.03,32.6.22,6,.89,12.9,4.48,17.92,2.07,2.9,4.77,5.14,7.4,7.5,1.5,1.35,4.99,3.77,4.52,6.13l4.91-3.74c-2.92.15-8.2.77-9.9-2.39-1.54-2.87.02-7.68.73-10.53,2.23-8.83,6.43-17.69,6.24-26.96-.1-4.8-5.33-6.21-8.7-3.6-8.45,6.54-12.41,15.66-11.3,26.28.97,9.22,5.52,18.73,4.19,28.09h9.82c-1.4-4.24-2.87-8.03-5.86-11.41-4.06-4.59-10.35,1.25-8,6.17,2.86,5.99,6.52,11.54,9.43,17.5,3.27,6.71,3.59,13.26,3.62,20.61.03,8.18.36,16.61-.77,24.74-.56,4.1-2.09,8.9,1.05,12.39s8.53,2.58,11.73-.25,4.73-7.54,5.46-11.8c1.42-8.32,1.23-17.16.68-25.56-.66-9.97-2.45-24.01-12.94-28.56-1.98-.86-4.58-1.03-6.17.8-7.64,8.77-8.25,23.09-8.42,34.11-.1,6.69.32,13.41,1.43,20.01.77,4.53,1.95,11.75,6.22,14.42,7.18,4.49,10.21-6.16,12.7-10.45,3.72-6.4,6.54-11.98,7.81-19.41s1.73-15.71,1.31-23.57c-.38-7.01-1.03-14.51-5.46-20.26-2.91-3.78-6.59-6.4-11.24-7.51-4.11-.98-6.06-1.63-8.77-4.96-4.7-5.79-8.9-13.11-11-20.28-1.56-5.34-10.35-4.56-10.01,1.35.55,9.37,4.81,17.39,9.87,25.11s11.31,15.32,12.46,24.46c.8,6.31,10.14,6.76,10.19,0,.11-16.45-1.14-32.86-1.94-49.28-.36-7.34-.45-14.57-.13-21.91s.41-14.11-1.46-20.97c-1.72-6.32-11.55-3.64-9.82,2.71s1.31,13.27,1.02,19.95c-.33,7.41-.07,14.75.31,22.15.8,15.78,1.95,31.54,1.84,47.35h10.19c-1.18-9.38-5.61-17.19-10.77-24.96s-11.01-15.33-11.56-24.6l-10.01,1.35c2.89,9.86,9.04,21.39,16.87,28.19,5.17,4.5,12.99,2.87,16.69,9.18,2.75,4.7,2.59,11.48,2.69,16.76.11,6.34-.19,12.77-1.44,19s-3.84,10.33-6.79,15.71c-.81,1.47-1.49,3-2.2,4.51-.13.27-1.02,1.88-.97,1.99.33.74,5.5-.53,5.45-.33.24-.98-1.39-4.35-1.64-5.46-1.11-5.02-1.48-10.19-1.61-15.31-.16-6.17.05-12.44,1.03-18.55.68-4.24,1.45-9.92,4.38-13.29l-6.17.8c8.47,3.68,8,18.21,8.14,25.87.07,3.68.12,7.39-.05,11.07-.1,2.08-.24,4.17-.6,6.22-.32,1.81-1.8,4.23-1.88,5.95-.62.59-.77.75-.44.47,1.01-.9,2.1-.24,3.27,1.99.18-.15.33-2.7.38-3.01.48-3.06.8-6.12.98-9.22.5-8.24.46-16.57.3-24.83-.28-14.45-8.46-24.99-14.43-37.52l-8,6.17c1.75,1.98,2.42,4.46,3.24,6.91,1.42,4.27,9.06,5.38,9.82,0,1.27-8.95-1.09-17.2-2.94-25.88-2.11-9.95-.99-17.47,7.42-23.99l-8.7-3.6c.23,10.84-6.14,21.02-7.26,31.77-.49,4.73.19,9.91,3.61,13.5,4.29,4.5,10.9,5.09,16.77,4.79,2.11-.11,4.46-1.49,4.91-3.74,2.62-13.18-13.22-16.44-15.37-27.83-1.51-7.98-2.19-26.21,7.88-29.21l-6.27-3.56c1.5,8.05,2.02,16.34,1.67,24.52-.18,4.1-.61,8.17-1.6,12.16-.55,2.2-2.41,9.91-5.42,10.13-2.34.17-4.94-5.98-5.55-7.61-1.26-3.34-1.84-7.08-2.15-10.62-.6-6.87-.31-14.35,2.7-20.68,1.3-2.73,3.13-5.2,5.63-6.94s7.39-3.83,10.42-2.79c-.03-.01.12-.89-.05.49-.2,1.59-.45,3.02-.89,4.58-1.39,4.84-2.48,9.54-2.41,14.62.12,8.61,2.81,16.88,3.67,25.39,0,.08.15,3.73.02,3.68-.33-.14,1.68-1.43,1.73-1.23,0,0-1.72-.4-2.02-.5-4.23-1.44-8.5-4.52-11.68-7.59-5.94-5.75-6.11-13.34-4.27-21,1.43-5.93,4.62-14.3,11.95-13.86,6.55.4,6.53-9.79,0-10.19h0Z"/><path class="cls-4" d="m56.25,191.82c0,15.38.91,30.74.76,46.11-.04,4.3,1.46,13.45-2.78,16.27-2.97,1.98-7.79,2.04-11.18,1.63s-6.79-1.33-7.62-4.89c-1.21-5.17.53-11.13.56-16.37.1-14.96-.96-29.94-.98-44.92,0-6.43-10.01-6.45-10,0,.02,17.78,1.66,35.68.41,53.41-.4,5.67-.62,12.24,3.43,16.76,3.58,4,9.03,5.55,14.21,6.01,11.44,1.02,22.47-3.63,23.58-16.17,1.69-19.15-.38-38.66-.38-57.85,0-6.43-10-6.45-10,0h0Z"/><path class="cls-4" d="m61.25,101.72c-10.3-.26-21.58-1.03-31.39,2.71-10.58,4.03-15.34,15.08-18.01,25.35-4.71,18.15-4.6,44.55,12.15,56.85,10.08,7.4,25.32,6.99,37.25,6.96,6.43-.02,6.45-10.02,0-10-10.42.03-25.91,1.13-33.75-7.11-7.23-7.6-8.65-20.01-8.24-30.01.39-9.61,2.67-23.86,10.31-30.5,3.87-3.37,9.85-3.86,14.76-4.2,5.64-.38,11.29-.19,16.93-.05,6.44.16,6.43-9.84,0-10h0Z"/><ellipse class="cls-1" cx="206.96" cy="143.18" rx="39.11" ry="100.15"/><path class="cls-4" d="m241.06,143.18c-.07,18.52-1.82,37.09-6.59,55.02-3.18,11.96-7.62,25.3-16.45,34.38-18.33,18.84-32.73-14.99-36.99-28.86-10.59-34.49-11.05-73.92-3.18-109.02,2.95-13.17,7.13-27.48,15.67-38.24,4.77-6.01,11.72-10.91,19.31-6.81,11.17,6.03,16.59,21.7,20.07,32.98,6.02,19.56,8.1,40.15,8.17,60.54.02,6.43,10.02,6.45,10,0-.07-20.77-2.2-41.88-8.12-61.85-3.86-13.02-9.5-27.62-20.09-36.73-8.25-7.1-19.19-8.77-28.48-2.54-11.32,7.59-17.47,21.52-21.71,33.96-6.43,18.85-9.05,39.1-9.68,58.94-.67,21.07,1.01,42.52,6.08,63.02,4.7,19.02,19.88,61.22,47.44,48.04,13.09-6.26,20.06-22.19,24.52-35.06,7.5-21.61,9.95-45.02,10.03-67.79.02-6.44-9.98-6.44-10,0Z"/><path class="cls-4" d="m66.08,187.77c-9.16-21.58-17.7-51.49-3.79-72.9,2.4-3.69,3.11-3.96,6.94-5.68l14.08-6.31c30.69-13.75,61.37-27.49,92.06-41.24,8.51-3.81,17.02-7.62,25.53-11.43,5.86-2.63.78-11.25-5.05-8.63-23.46,10.51-46.92,21.02-70.38,31.53-15.74,7.05-31.47,14.1-47.21,21.15l-14.43,6.46c-4.21,1.89-6.05,3.3-9.02,7.43-17.7,24.55-8.11,59.38,2.63,84.68,2.51,5.9,11.12.81,8.63-5.05h0Z"/><path class="cls-4" d="m59.92,193.41c39.48,15.42,78.96,30.85,118.43,46.27,5.59,2.19,11.19,4.37,16.78,6.56,6,2.34,8.6-7.32,2.66-9.64-39.48-15.42-78.96-30.85-118.43-46.27-5.59-2.19-11.19-4.37-16.78-6.56-6-2.34-8.6,7.32-2.66,9.64h0Z"/><path class="cls-4" d="m76.3,121.99c22.77-10.26,45.55-20.51,68.32-30.77,5.86-2.64.78-11.26-5.05-8.63-22.77,10.26-45.55,20.51-68.32,30.77-5.86,2.64-.78,11.26,5.05,8.63h0Z"/><path class="cls-4" d="m226.09,147.77h59.71c6.43,0,6.45-10,0-10h-59.71c-6.43,0-6.45,10,0,10h0Z"/><path class="cls-4" d="m225.81,118.28c18.3-7.83,36.6-15.66,54.89-23.48,5.9-2.52.81-11.14-5.05-8.63-18.3,7.83-36.6,15.66-54.89,23.48-5.9,2.52-.81,11.14,5.05,8.63h0Z"/><path class="cls-4" d="m280.7,192.17c-18.3-7.83-36.6-15.66-54.89-23.48-5.85-2.5-10.95,6.11-5.05,8.63,18.3,7.83,36.6,15.66,54.89,23.48,5.85,2.5,10.95-6.11,5.05-8.63h0Z"/><ellipse class="cls-1" cx="193.84" cy="144.84" rx="9.78" ry="21.7"/><path class="cls-4" d="m198.62,144.84c-.07,3.9-.44,7.78-1.71,11.49-.39,1.15-2.08,5.21-3.07,5.21s-2.67-4.09-3.07-5.21c-1.28-3.67-1.71-7.62-1.71-11.49s.43-7.81,1.71-11.49c.45-1.29,2.06-5.21,3.07-5.21.95,0,2.66,4.04,3.07,5.21,1.29,3.7,1.64,7.59,1.71,11.49.12,6.43,10.12,6.45,10,0-.16-8.82-2.61-26.7-14.78-26.7s-14.79,17.88-14.78,26.7,2.7,26.7,14.78,26.7,14.62-17.9,14.78-26.7c.12-6.44-9.88-6.44-10,0Z"/><path class="cls-1" d="m174.33,117.43c6.01,1.88,14.51,3.81,19.28,5.71"/><path class="cls-4" d="m173,122.25c6.4,1.96,13.02,3.31,19.28,5.71s8.62-7.36,2.66-9.64c-6.26-2.4-12.88-3.75-19.28-5.71s-8.8,7.76-2.66,9.64h0Z"/><path class="cls-1" d="m192.65,167.03c-6.01,1.88-14.51,3.81-19.28,5.71"/><path class="cls-4" d="m191.32,162.21c-6.4,1.96-13.02,3.31-19.28,5.71s-3.37,11.95,2.66,9.64,12.88-3.75,19.28-5.71,3.52-11.53-2.66-9.64h0Z"/></svg>