<svg width="102" height="86" viewBox="0 0 102 86" fill="none" xmlns="http://www.w3.org/2000/svg">
<g clip-path="url(#clip0_9_16)">
<path opacity="0.2" d="M47.1901 85.71C66.52 85.71 82.1901 84.3668 82.1901 82.71C82.1901 81.0531 66.52 79.71 47.1901 79.71C27.8601 79.71 12.1901 81.0531 12.1901 82.71C12.1901 84.3668 27.8601 85.71 47.1901 85.71Z" fill="#3B65EE"/>
<path d="M0.770021 33.42C0.770021 33.42 -2.75998 84.21 40.51 84.21C83.78 84.21 82.13 33.42 82.13 33.42H0.770021Z" fill="white" stroke="#3B65EE" stroke-width="1.41" stroke-miterlimit="10"/>
<path d="M82.13 38.35C82.13 41.34 63.92 43.76 41.45 43.76C18.98 43.76 0.77002 41.34 0.77002 38.35" stroke="#3B65EE" stroke-width="1.41" stroke-linecap="round" stroke-linejoin="round"/>
<path d="M41.45 38.83C63.917 38.83 82.13 36.4079 82.13 33.42C82.13 30.4321 63.917 28.01 41.45 28.01C18.9831 28.01 0.77002 30.4321 0.77002 33.42C0.77002 36.4079 18.9831 38.83 41.45 38.83Z" fill="white" stroke="#3B65EE" stroke-width="1.41" stroke-miterlimit="10"/>
<path opacity="0.2" d="M41.92 30.36C22.63 30.36 6.49005 32.15 2.30005 34.54C6.84005 36.87 22.75 38.59 41.68 38.59C60.6101 38.59 77.11 36.8 81.3 34.41C76.76 32.08 60.85 30.36 41.92 30.36Z" fill="#3B65EE"/>
<path d="M41.45 64.6899C52.35 64.6899 62.59 64.1299 70.31 63.0999C72.65 62.7899 74.56 62.4599 76.1 62.1299C77.6 58.9699 78.73 55.7499 79.58 52.6499C77.96 53.2499 75.07 53.9799 70.12 54.6399C62.47 55.6599 52.28 56.2199 41.45 56.2199C30.62 56.2199 20.43 55.6599 12.78 54.6399C6.89003 53.8599 3.92003 52.9699 2.53003 52.3199C3.25003 55.4299 4.25003 58.6699 5.62003 61.8499C7.35003 62.2699 9.61003 62.6899 12.59 63.0799C20.3 64.1099 30.55 64.6699 41.45 64.6699V64.6899Z" fill="#3B65EE"/>
<path opacity="0.2" d="M40.51 84.21C69.08 84.21 78.06 62.06 80.87 47.02C71.99 49.26 49.48 53.74 21.93 50.11C-2.21999 46.93 9.91001 66.3 22.07 80.21C27 82.7 33.06 84.21 40.51 84.21Z" fill="#3B65EE"/>
<path d="M79.11 34.99C79.24 34.49 79.31 33.96 79.31 33.41C79.31 29.9 76.47 27.06 72.96 27.06C72.01 27.06 71.12 27.27 70.31 27.64C69.91 27.02 69.41 26.48 68.83 26.03C68.24 23.13 65.6801 20.94 62.6101 20.94C62.2801 20.94 61.9501 20.97 61.6301 21.02C60.5601 19.01 58.4501 17.65 56.0201 17.65C55.4201 17.65 54.85 17.74 54.3 17.89C53.85 14.83 51.22 12.47 48.03 12.47C44.84 12.47 42.1401 14.88 41.7401 18C40.8401 15.6 38.52 13.88 35.8 13.88C32.5 13.88 29.79 16.4 29.48 19.62C28.68 19.26 27.8001 19.05 26.8601 19.05C23.5101 19.05 20.7801 21.64 20.5401 24.92C20.0101 24.77 19.45 24.69 18.87 24.69C16.4 24.69 14.26 26.11 13.21 28.17C12.36 27.75 11.41 27.51 10.4 27.51C6.89005 27.51 4.05005 30.35 4.05005 33.86C4.05005 34.28 4.10005 34.69 4.18005 35.09C10.47 37 24.78 38.33 41.44 38.33C58.1 38.33 73.02 36.94 79.1 34.97L79.11 34.99Z" fill="white" stroke="#3B65EE" stroke-width="1.41" stroke-linecap="round" stroke-linejoin="round"/>
<path d="M62.16 37.55C62.16 37.55 66.85 10.37 89.43 1.89999C89.43 1.89999 97.61 -2.00001 100.25 4.24999C104.01 13.19 76.29 12.32 68.52 37.21L62.17 37.55H62.16Z" fill="white" stroke="#3B65EE" stroke-width="1.41" stroke-linecap="round" stroke-linejoin="round"/>
<path opacity="0.2" d="M88.95 7.55001C78.6 13.19 71.55 23.54 69.34 28.01C67.13 32.48 65.99 37.35 65.99 37.35L68.51 37.22C73.9 19.95 88.9 15.08 96.32 10.73C98.51 8.26001 99.3 1.91001 88.95 7.55001Z" fill="#3B65EE"/>
<path d="M27.3 33.59C31.3317 33.59 34.6 30.3217 34.6 26.29C34.6 22.2583 31.3317 18.99 27.3 18.99C23.2683 18.99 20 22.2583 20 26.29C20 30.3217 23.2683 33.59 27.3 33.59Z" fill="white" stroke="#3B65EE" stroke-width="1.41" stroke-linecap="round" stroke-linejoin="round"/>
<path d="M30.83 24.76C30.35 25.25 29.8 25.53 29.14 25.52C28.83 25.49 28.5 25.33 28.2 25.36C27.33 25.49 26.65 26.33 25.77 26.49C25.2 26.62 24.66 26.64 23.95 26.63C23.91 26.63 23.87 26.59 23.87 26.55C24.27 25.5 25.25 25.03 26.24 24.95C26.84 24.83 27.53 25.16 28.11 24.93C28.67 24.64 29.13 24.16 29.84 24.31C30.15 24.34 30.47 24.41 30.8 24.62C30.85 24.65 30.85 24.71 30.82 24.75L30.83 24.76Z" fill="#3B65EE"/>
<path d="M27.06 22.86C27.71 22.8 28.31 23.15 28.54 23.72C28.63 24.01 28.59 24.35 28.67 24.61C28.82 25.14 29.45 25.5 29.59 26.05C29.96 26.88 29.8 27.8 29.13 28.5C29.1 28.53 29.04 28.53 29.01 28.5C28.62 27.95 28.49 27.46 28.38 27C28.23 26.35 28.65 25.36 28.29 24.8C27.93 24.42 27.4 24.36 27.23 23.78C27.13 23.55 27.04 23.3 26.99 22.96C26.99 22.91 27.02 22.87 27.06 22.86Z" fill="#3B65EE"/>
<path opacity="0.2" d="M33.0762 29.0496C33.8213 26.0252 31.7692 22.919 28.4927 22.1118C25.2162 21.3046 21.9561 23.102 21.211 26.1265C20.4659 29.1509 22.5179 32.2571 25.7944 33.0643C29.0709 33.8715 32.3311 32.0741 33.0762 29.0496Z" fill="#3B65EE"/>
<path d="M48.46 26.54C52.4917 26.54 55.76 23.2717 55.76 19.24C55.76 15.2083 52.4917 11.94 48.46 11.94C44.4284 11.94 41.16 15.2083 41.16 19.24C41.16 23.2717 44.4284 26.54 48.46 26.54Z" fill="white" stroke="#3B65EE" stroke-width="1.41" stroke-linecap="round" stroke-linejoin="round"/>
<path d="M50.67 22.4C50.09 22.02 49.71 21.54 49.59 20.9C49.56 20.59 49.65 20.24 49.57 19.95C49.27 19.12 48.32 18.62 47.98 17.79C47.74 17.25 47.61 16.74 47.48 16.04C47.48 16 47.5 15.96 47.54 15.95C48.65 16.13 49.3 17 49.57 17.95C49.81 18.51 49.62 19.26 49.95 19.78C50.34 20.27 50.9 20.63 50.9 21.36C50.93 21.67 50.93 22 50.79 22.37C50.77 22.42 50.71 22.44 50.66 22.41L50.67 22.4Z" fill="#3B65EE"/>
<path d="M51.78 18.32C51.96 18.95 51.74 19.6 51.23 19.95C50.97 20.1 50.62 20.12 50.38 20.25C49.89 20.5 49.66 21.19 49.15 21.43C48.41 21.96 47.47 21.98 46.65 21.46C46.61 21.43 46.6 21.38 46.63 21.34C47.1 20.85 47.54 20.62 47.98 20.43C48.59 20.15 49.64 20.37 50.12 19.91C50.42 19.49 50.37 18.95 50.91 18.67C51.11 18.53 51.34 18.39 51.67 18.27C51.72 18.25 51.77 18.27 51.78 18.32Z" fill="#3B65EE"/>
<path opacity="0.2" d="M53.7802 21.9939C54.5253 18.9695 52.4732 15.8633 49.1967 15.0561C45.9202 14.2489 42.6601 16.0463 41.9149 19.0707C41.1698 22.0952 43.2219 25.2014 46.4984 26.0086C49.7749 26.8158 53.0351 25.0184 53.7802 21.9939Z" fill="#3B65EE"/>
<path d="M46.1101 35C50.1417 35 53.4101 31.7316 53.4101 27.7C53.4101 23.6683 50.1417 20.4 46.1101 20.4C42.0784 20.4 38.8101 23.6683 38.8101 27.7C38.8101 31.7316 42.0784 35 46.1101 35Z" fill="white" stroke="#3B65EE" stroke-width="1.41" stroke-linecap="round" stroke-linejoin="round"/>
<path d="M44.8901 31.35C44.8501 30.66 45.0101 30.07 45.4501 29.59C45.6801 29.38 46.0201 29.24 46.2001 29C46.6801 28.26 46.5201 27.2 46.9901 26.44C47.2801 25.93 47.6201 25.52 48.1001 25C48.1301 24.97 48.1801 24.97 48.2101 25C48.7301 26 48.4201 27.04 47.8101 27.83C47.5001 28.36 46.7901 28.65 46.5701 29.23C46.4101 29.84 46.4501 30.5 45.8701 30.93C45.6301 31.14 45.3801 31.33 45.0001 31.44C44.9501 31.46 44.8901 31.42 44.8901 31.36V31.35Z" fill="#3B65EE"/>
<path d="M48.82 29.82C48.43 30.34 47.77 30.55 47.18 30.34C46.9 30.22 46.68 29.95 46.44 29.84C45.94 29.6 45.26 29.82 44.76 29.56C43.89 29.28 43.32 28.54 43.25 27.57C43.25 27.52 43.28 27.48 43.33 27.48C44 27.56 44.45 27.79 44.86 28.02C45.44 28.34 45.89 29.32 46.55 29.43C47.07 29.42 47.47 29.06 48.02 29.33C48.26 29.4 48.5 29.51 48.79 29.7C48.83 29.73 48.84 29.78 48.81 29.82H48.82Z" fill="#3B65EE"/>
<path opacity="0.2" d="M47.059 33.6021C49.9318 32.3981 51.2032 28.8991 49.8988 25.7869C48.5944 22.6748 45.2081 21.1279 42.3354 22.332C39.4626 23.5361 38.1912 27.035 39.4956 30.1472C40.8 33.2594 44.1863 34.8062 47.059 33.6021Z" fill="#3B65EE"/>
</g>
<defs>
<clipPath id="clip0_9_16">
<rect width="101.29" height="85.71" fill="white"/>
</clipPath>
</defs>
</svg>
