<?xml version="1.0" encoding="UTF-8"?>
<svg id="Layer_2" xmlns="http://www.w3.org/2000/svg" xmlns:xlink="http://www.w3.org/1999/xlink" viewBox="0 0 419.51 155">
  <defs>
    <style>
      .cls-1, .cls-2, .cls-3, .cls-4, .cls-5, .cls-6 {
        fill: none;
      }

      .cls-2 {
        stroke-linecap: round;
      }

      .cls-2, .cls-3, .cls-4, .cls-5, .cls-6 {
        stroke: #3b65ee;
      }

      .cls-2, .cls-3, .cls-6 {
        stroke-linejoin: round;
      }

      .cls-2, .cls-4, .cls-6 {
        stroke-width: 2px;
      }

      .cls-4, .cls-5 {
        stroke-miterlimit: 10;
      }

      .cls-7 {
        clip-path: url(#clippath-1);
      }

      .cls-8 {
        clip-path: url(#clippath-3);
      }

      .cls-9 {
        clip-path: url(#clippath-2);
      }

      .cls-10, .cls-11, .cls-12 {
        fill: #3b65ee;
      }

      .cls-13 {
        fill: #fff;
      }

      .cls-11 {
        opacity: .15;
      }

      .cls-12 {
        opacity: .2;
      }

      .cls-14 {
        opacity: .5;
      }

      .cls-15 {
        clip-path: url(#clippath);
      }
    </style>
    <clipPath id="clippath">
      <rect class="cls-1" x="238.03" y="74" width="64" height="6"/>
    </clipPath>
    <clipPath id="clippath-1">
      <rect class="cls-1" x="95.03" y="77" width="64" height="6"/>
    </clipPath>
    <clipPath id="clippath-2">
      <rect class="cls-1" x="278.03" y="82" width="23" height="3"/>
    </clipPath>
    <clipPath id="clippath-3">
      <rect class="cls-1" x="236.03" y="109" width="60" height="5"/>
    </clipPath>
  </defs>
  <g id="Layer_8">
    <g>
      <path class="cls-13" d="M94.03,11.69s-.18-2.78,2.91-2.73,32.04-3.18,32.04-3.18l48.57-4.77,52.73,1.4,112.45,2.95,63.03,1.65.27,3.36-4.7.43v23.35l-1.21,1.96.87.87v4.07l6.26,1.4.27,5.97,9.45.59v36.99l-14.39,2.75,15.92,1.49v3.24l-6.98,1.36v11.26l-.5,1.4.5,1.39v17.64s6.98,1.13,6.98,1.13v2.92l-117.99,23.33-79.01-7.21-97.48-9.07-26.96-2.43-1.96-1.67-.08-37.97,1-3.55v-32.45l-.61-3.97.11-1.54,6.35-2.04-7.23-.98-.62-15.76V11.69Z"/>
      <polyline class="cls-2" points="236.76 104.47 304.53 107.5 416.98 86 416.98 49 404.26 48.2"/>
      <polyline class="cls-3" points="95.53 92.5 304.53 104.76 413.03 83.68 413.03 55 304.53 68.25 95.53 57.5"/>
      <path class="cls-4" d="M416.53,49.5l-113,14-206.88-9.43c-.81-.04-1.43.72-1.23,1.5l.61,2.42v34l-1,3"/>
      <polyline class="cls-3" points="303.33 68.5 303.33 76.58 302.11 78.05 304.53 78.98 303.32 80.67 303.32 105"/>
      <line class="cls-5" x1="407.53" y1="55.5" x2="408.13" y2="84"/>
      <path class="cls-10" d="M337.53,76.5c23.38-4.15,47.02-7.65,70.6-10.47-23.39,4.15-47.02,7.65-70.6,10.47h0Z"/>
      <path class="cls-10" d="M303.8,32.15c23.57-2.92,47.35-5.18,71.06-6.77-23.58,2.92-47.36,5.18-71.06,6.77h0Z"/>
      <path class="cls-10" d="M326.53,83.5c15.19-2.99,30.6-5.34,46-7-15.2,2.99-30.61,5.34-46,7h0Z"/>
      <path class="cls-4" d="M239.03,57.86l48.99,2.14,119.23-13.5v-3.5l-117.23,11.78V21l116-10.64v-3.36L177.03,1l-80.81,8.03c-1.21-.02-2.19.96-2.19,2.17v38.56c0,.86.68,1.57,1.54,1.61l143.47,6.49Z"/>
      <polyline class="cls-5" points="401.33 10.79 401.33 33.86 400.03 36 400.99 36.97 400.99 43.6"/>
      <line class="cls-5" x1="400.99" y1="41.04" x2="407.53" y2="42.5"/>
      <path class="cls-6" d="M401.03,89l17.48,1.24v3.24l-112.98,22.02v32.81l112.98-20.66v2.92l-118.48,23.42-202.95-18.81c-1.16-.11-2.05-1.08-2.05-2.25v-37.94l141.73,9.46"/>
      <polyline class="cls-3" points="411.53 94.84 411.53 106.1 410.53 107.5 411.53 108.5 411.53 117.5 411.53 123.99 411.53 128.93"/>
      <line class="cls-3" x1="418.51" y1="127.66" x2="411.53" y2="126.53"/>
      <path class="cls-10" d="M301.08,120c.14,4.33.26,8.67.35,13,.08,4.27.36,8.94-.45,13-.54-4.33-.52-8.66-.35-13,.19-4.27.02-8.93.45-13h0Z"/>
      <path class="cls-10" d="M97.58,26c.14,4.33.26,8.67.35,13,.08,4.27.36,8.94-.45,13-.54-4.33-.52-8.66-.35-13,.19-4.27.02-8.93.45-13h0Z"/>
      <path class="cls-10" d="M98.48,127c-.14-4.33-.26-8.67-.35-13-.08-4.27-.36-8.94.45-13,.54,4.33.52,8.66.35,13-.19,4.27-.02,8.93-.45,13h0Z"/>
      <path class="cls-10" d="M287.08,25.5c.14,4.33.26,8.67.35,13,.08,4.27.36,8.94-.45,13-.54-4.33-.52-8.66-.35-13,.19-4.27.02-8.93.45-13h0Z"/>
      <path class="cls-10" d="M304.52,111.45c33.47-6.24,80.83-15.86,114-21,0,0,.02.1.02.1-32.6,6.87-80.93,15.17-114.02,20.9h0Z"/>
      <path class="cls-10" d="M287.02,16.95c34.95-3.01,84.47-8.05,119-10,0,0,0,.1,0,.1-34.12,3.72-84.49,7.36-119.01,9.9h0Z"/>
      <path class="cls-10" d="M367.52,116.45c7.14-1.64,14.28-3.26,21.43-4.84,7.09-1.56,14.52-3.42,21.59-4.06-7.05,2.02-14.22,3.51-21.43,4.84-7.14,1.3-14.59,3.04-21.59,4.06h0Z"/>
      <path class="cls-10" d="M372.02,38.95c4.82-.64,9.64-1.26,14.46-1.85,4.76-.57,9.9-1.39,14.55-1.05-4.77,1.03-9.61,1.52-14.46,1.85-4.79.31-9.93,1.01-14.55,1.05h0Z"/>
      <path class="cls-10" d="M323.05,133c18.67-3.82,37.58-7,56.48-9.5-18.67,3.82-37.58,7-56.48,9.5h0Z"/>
      <path class="cls-10" d="M248,16.93c5.84.03,11.68.08,17.52.16,5.78.09,11.96-.02,17.5.96-5.85.37-11.68.18-17.52-.16-5.77-.36-11.93-.37-17.5-.96h0Z"/>
      <path class="cls-10" d="M95.03,10.25c61.01.36,128.24,6.69,189,7.75-60.79-.09-127.95-6.15-188.78-6.94"/>
      <g class="cls-15">
        <path class="cls-10" d="M231.53,75.45c20.84.68,50.1.84,70.58,2.55,0,0,0,.1,0,.1-20.37.13-50.15-1.55-70.58-2.65h0Z"/>
      </g>
      <g class="cls-7">
        <path class="cls-10" d="M88.53,78.45c20.84.68,50.1.84,70.58,2.55,0,0,0,.1,0,.1-20.37.13-50.15-1.55-70.58-2.65h0Z"/>
      </g>
      <g class="cls-9">
        <path class="cls-10" d="M275.69,82.7c4.23.07,8.47.16,12.7.29,4.17.13,8.75.08,12.66,1.09-4.25.32-8.47.1-12.7-.29-4.15-.4-8.71-.46-12.66-1.09h0Z"/>
      </g>
      <g class="cls-8">
        <path class="cls-10" d="M231.53,109.45c18.56.63,44.63.72,62.86,2.38,0,0,0,.1,0,.1-18.13.17-44.7-1.43-62.86-2.48h0Z"/>
      </g>
      <g class="cls-14">
        <path class="cls-10" d="M107.3,109.48c0-.1.06-.16.17-.2l1.94-.71c.79-.29,1.59-.37,2.4-.23.81.14,1.55.45,2.22.93.68.49,1.21,1.11,1.61,1.88.08.12.05.21-.08.28l-2.26.88c-.11.06-.21.02-.29-.09-.29-.54-.6-1.04-.94-1.53-.34-.48-.7-.96-1.09-1.44l-.32,11.67c-.03,1.01-.41,1.67-1.14,2l.22.02c.66.05,1.23-.01,1.71-.2.49-.19.95-.4,1.39-.63.46-.24.92-.46,1.4-.66.48-.2,1.04-.29,1.68-.27.14.01.21.09.21.23l-.25,3.03c0,.14-.08.21-.22.2l-8.92-.71c-.14-.01-.21-.07-.21-.16,0-.11.06-.19.17-.23.58-.31.89-.75.9-1.32l.31-11.31c.01-.56-.13-.95-.45-1.16-.11-.07-.16-.16-.16-.25Z"/>
        <path class="cls-10" d="M119.58,111.4c.1-.07.19-.06.29.02,1.01.98,1.78,2.04,2.29,3.2.51,1.15.75,2.32.72,3.5-.03,1.12-.32,2.2-.86,3.26-.54,1.05-1.36,1.98-2.46,2.79-.1.06-.19.05-.29-.02-1.02-.98-1.78-2.05-2.29-3.21-.51-1.16-.75-2.33-.72-3.49.03-1.13.32-2.22.86-3.27.54-1.04,1.36-1.97,2.46-2.78ZM118.5,113.71c-.35.37-.53.95-.55,1.73-.02.62.08,1.32.28,2.09.2.77.51,1.52.92,2.26.41.74.92,1.38,1.51,1.92.18-.19.32-.44.42-.75.1-.3.15-.64.16-1.01.02-.64-.08-1.33-.28-2.09-.2-.75-.51-1.5-.92-2.24-.41-.74-.92-1.38-1.53-1.92Z"/>
        <path class="cls-10" d="M128.05,116.23c-.12.12-.21.1-.29-.07-.29-.57-.6-1.1-.94-1.59l-.26,9.56c0,.14-.08.21-.22.2l-2.11-.17c-.14-.01-.21-.09-.21-.23l.25-9.2-.66-.63c-.11-.12-.12-.23-.04-.31l1.4-1.81c.08-.12.18-.13.29-.02.27.23.52.45.76.67.24.22.48.45.71.69.08.07.12.16.11.27v.46s1.34-1.86,1.34-1.86c.03-.06.08-.09.15-.1.06,0,.12.04.17.12.21.32.42.66.63,1.01.21.35.39.7.56,1.05.06.1.05.2-.03.31l-1.61,1.65Z"/>
        <path class="cls-10" d="M133.53,123.2l-1.83,1.87c-.1.1-.2.1-.31,0-.69-.71-1.19-1.55-1.51-2.52-.32-.97-.46-1.99-.43-3.06.04-1.28.31-2.53.81-3.76.51-1.23,1.21-2.28,2.12-3.16.1-.12.2-.12.31,0l1.03,1.09.04-1.58c.01-.51-.13-.89-.42-1.14-.09-.09-.14-.18-.14-.27,0-.08.07-.13.2-.15l2.77-.21c.16-.02.24.05.23.21l-.34,12.15.7.92c.08.12.07.22-.03.31l-1.77,1.4c-.1.09-.2.08-.31-.03-.19-.22-.36-.44-.54-.66-.17-.21-.34-.44-.51-.68-.06-.09-.09-.18-.09-.27v-.46ZM133.69,117.64c.02-.8-.11-1.5-.39-2.12-.28-.61-.63-1.08-1.06-1.4-.27.44-.47.94-.61,1.5-.14.56-.21,1.12-.23,1.67-.02.7.05,1.39.21,2.07.16.68.4,1.28.72,1.81.32.53.73.94,1.22,1.21l.13-4.74Z"/>
        <path class="cls-10" d="M143.64,113.33c.1-.07.19-.06.29.02,1.01.98,1.78,2.04,2.29,3.2.51,1.15.75,2.32.72,3.5-.03,1.12-.32,2.2-.86,3.26-.54,1.05-1.36,1.98-2.46,2.79-.1.06-.19.05-.29-.02-1.02-.98-1.78-2.05-2.29-3.21-.51-1.16-.75-2.33-.72-3.49.03-1.13.32-2.22.86-3.27.54-1.04,1.36-1.97,2.46-2.78ZM142.57,115.64c-.35.37-.53.95-.55,1.73-.02.62.08,1.32.28,2.09.2.77.51,1.52.92,2.26.41.74.92,1.38,1.51,1.92.18-.19.32-.44.42-.75.1-.3.15-.64.16-1.01.02-.64-.08-1.33-.28-2.09-.2-.75-.51-1.5-.92-2.24-.41-.74-.92-1.38-1.53-1.92Z"/>
        <path class="cls-10" d="M151.06,115.51l-.29,10.56c0,.14-.08.21-.22.2l-2.09-.17c-.14-.01-.21-.09-.21-.23l.29-10.56-1.06-.08c-.14-.01-.21-.09-.21-.23l.02-.77c0-.14.08-.21.22-.2l1.06.08v-.31c.01-.21,0-.39-.04-.54s-.09-.32-.17-.48l-.16-.35c-.04-.13,0-.22.13-.28.61-.21,1.23-.4,1.86-.58.62-.18,1.24-.35,1.85-.51.11-.04.21,0,.28.14.12.25.25.5.37.76.13.26.26.51.4.76.08.13.05.24-.08.31l-1.29.66c-.13.07-.23.04-.31-.1-.2-.35-.38-.73-.55-1.12-.35.1-.43.4-.22.9l.43.95,1.1.09c.14.01.21.09.21.23l-.02.77c0,.14-.08.21-.22.2l-1.1-.09Z"/>
        <path class="cls-10" d="M159.3,125.39c.08.12.07.22-.03.31l-1.79,1.39c-.1.09-.2.08-.29-.02-.4-.43-.76-.88-1.07-1.33-.06-.09-.09-.18-.09-.27l.24-8.72c.01-.49-.18-.79-.58-.88-.14-.04-.21-.13-.21-.26v-.19c0-.11.06-.2.16-.25,1.22-.78,2.11-1.77,2.65-2.96.05-.11.14-.16.27-.15h.17c.14.03.21.1.21.25l-.07,2.64.94.08c.14.01.21.09.21.23l-.02.77c0,.14-.08.21-.22.2l-.94-.07-.23,8.34.7.92Z"/>
        <path class="cls-10" d="M165.32,115.21c.1-.09.2-.09.31,0,.78.8,1.36,1.75,1.75,2.85.39,1.1.56,2.25.53,3.43-.03,1.2-.3,2.38-.8,3.55-.5,1.17-1.25,2.19-2.25,3.05-.08.07-.16.08-.24.03-.08-.09-.09-.18-.04-.27.34-.71.6-1.44.77-2.19.17-.75.27-1.49.29-2.21.04-1.26-.15-2.4-.54-3.4-.4-1.01-.95-1.69-1.66-2.05l-.25,9.08c0,.14-.08.21-.22.2l-2.09-.17c-.14-.01-.21-.09-.21-.23l.35-12.6c0-.27-.03-.5-.11-.68-.08-.18-.19-.34-.31-.46-.09-.09-.14-.18-.14-.27,0-.08.07-.13.2-.15l2.7-.22c.16-.02.24.05.23.21l-.13,4.53,1.86-2.01Z"/>
        <path class="cls-10" d="M174.28,126.25c.11.02.17.06.16.11,0,.03-.04.08-.12.16l-2.31,1.83c-.12.07-.22.07-.31,0-.81-.74-1.46-1.58-1.94-2.52-.48-.94-.79-1.92-.93-2.92-.14-1-.11-1.98.11-2.93.21-.95.6-1.81,1.16-2.57.57-.76,1.3-1.36,2.21-1.8.13-.07.23-.04.31.1.42.66.82,1.33,1.21,2.02.39.69.77,1.4,1.15,2.13.06.1.05.2-.03.31l-3.63,3.31c.35.62.77,1.17,1.26,1.65.49.48,1.05.86,1.69,1.13ZM172.66,121.08c-.24-.56-.5-1.1-.78-1.6-.28-.5-.58-1.01-.88-1.51-.33.71-.5,1.46-.54,2.24-.04.78.08,1.5.37,2.17l1.84-1.29Z"/>
        <path class="cls-10" d="M179.41,115.38c-.22-.16-.4-.35-.55-.55-.15-.2-.27-.43-.38-.68-.04-.12-.03-.21.03-.29.05-.06.14-.06.26,0,.19.1.4.17.62.22.22.05.45.08.69.1.51.04,1.08.01,1.71-.09.63-.1,1.26-.13,1.9-.08.96.08,1.79.32,2.49.72.7.4,1.24.93,1.61,1.58.38.65.54,1.39.5,2.2,0,.13-.05.21-.15.25l-3.59,2.14v.19c.9.33,1.64.93,2.22,1.8.58.87.85,2.07.83,3.58,0,.98,0,1.91,0,2.78,0,.88.16,1.66.51,2.35.06.12.07.2.02.24-.05.04-.13.04-.24-.02-.79-.5-1.47-1.24-2.04-2.23-.57-.99-1.07-2.15-1.5-3.47-.43-1.32-.82-2.74-1.18-4.24l-.91-.07-.22,7.91c0,.14-.08.21-.22.2l-2.59-.21c-.14-.01-.21-.09-.21-.23l.39-14.11ZM182.44,115.26l-.16,5.73c.84-.4,1.48-.92,1.92-1.57.43-.65.66-1.31.68-1.96.02-.8-.17-1.4-.58-1.81-.41-.41-1.03-.54-1.87-.38Z"/>
        <path class="cls-10" d="M194.16,127.84c.11.02.17.06.17.11,0,.03-.04.08-.12.16l-2.31,1.83c-.12.07-.22.07-.31,0-.81-.74-1.46-1.58-1.94-2.52-.48-.94-.79-1.92-.93-2.92-.14-1-.1-1.98.11-2.93s.6-1.81,1.17-2.57c.57-.76,1.3-1.36,2.21-1.8.13-.07.23-.04.31.1.41.66.82,1.33,1.21,2.02.39.69.77,1.4,1.15,2.13.06.1.05.2-.03.31l-3.63,3.31c.35.62.77,1.17,1.26,1.65s1.05.86,1.69,1.13ZM192.55,122.67c-.24-.56-.5-1.1-.78-1.6-.28-.5-.58-1.01-.88-1.51-.33.71-.51,1.46-.54,2.24-.04.78.09,1.5.37,2.17l1.84-1.29Z"/>
        <path class="cls-10" d="M199.02,128.57c.08.12.07.22-.03.31l-1.79,1.39c-.1.09-.19.08-.29-.02-.41-.43-.76-.88-1.07-1.33-.06-.08-.09-.17-.09-.27l.24-8.72c.01-.49-.18-.79-.58-.89-.14-.04-.21-.13-.21-.26v-.19c0-.11.06-.2.16-.25,1.22-.78,2.11-1.77,2.66-2.96.05-.11.14-.16.27-.15h.17c.14.02.21.1.21.25l-.07,2.63.94.08c.14.01.21.09.21.23l-.02.77c0,.14-.08.21-.22.2l-.94-.08-.23,8.34.7.92Z"/>
        <path class="cls-10" d="M204.51,122.36c-.12.12-.21.1-.29-.07-.29-.57-.6-1.1-.94-1.59l-.26,9.56c0,.14-.08.21-.22.2l-2.11-.17c-.14-.01-.21-.09-.21-.23l.25-9.2-.66-.63c-.11-.12-.12-.23-.04-.31l1.4-1.81c.08-.12.18-.13.29-.02.27.23.52.45.76.67.24.22.48.45.71.69.08.07.12.16.11.27v.46s1.34-1.86,1.34-1.86c.03-.06.08-.09.15-.1s.12.04.17.12c.21.32.42.66.63,1.01.21.35.39.71.56,1.05.06.1.05.2-.03.31l-1.61,1.65Z"/>
        <path class="cls-10" d="M209.33,118.59c.1-.07.19-.06.29.02,1.01.98,1.78,2.04,2.29,3.2.51,1.15.75,2.32.72,3.5-.03,1.12-.32,2.2-.86,3.26s-1.36,1.98-2.46,2.79c-.1.06-.19.05-.29-.02-1.01-.98-1.78-2.05-2.29-3.21s-.75-2.33-.72-3.49c.03-1.13.32-2.22.86-3.27.54-1.04,1.36-1.97,2.46-2.78ZM208.25,120.91c-.35.37-.53.95-.55,1.73-.02.62.08,1.32.28,2.09s.51,1.52.92,2.26c.41.74.92,1.38,1.51,1.92.18-.19.32-.44.42-.75.1-.3.15-.64.16-1.01.02-.64-.07-1.33-.28-2.09-.2-.75-.51-1.5-.92-2.23-.41-.74-.92-1.38-1.53-1.92Z"/>
        <path class="cls-10" d="M218.21,125.98c.54.7.8,1.39.78,2.08-.02.67-.3,1.32-.86,1.96-.55.63-1.34,1.27-2.35,1.89-.11.06-.22.04-.31-.05-.36-.43-.73-.84-1.11-1.24-.38-.4-.77-.79-1.16-1.17-.11-.1-.11-.21-.02-.31l1.46-1.4c.1-.09.2-.08.31.02.69.65,1.34,1.35,1.96,2.1.2-.13.3-.29.3-.48,0-.25-.21-.67-.64-1.25l-2.27-3.01c-.54-.71-.8-1.41-.78-2.08.02-.67.31-1.32.87-1.96.56-.64,1.34-1.26,2.34-1.89.13-.07.23-.05.31.05.29.36.6.71.91,1.04s.64.66.98.96c.09.1.1.21.01.31l-1.46,1.4c-.08.07-.19.07-.31,0-.28-.26-.55-.54-.82-.83-.26-.29-.52-.59-.77-.88-.23.19-.32.41-.27.67.05.26.24.61.58,1.06l2.3,3.02Z"/>
      </g>
      <g class="cls-14">
        <path class="cls-10" d="M111.11,38.45c-.43-.02-.79-.15-.87-.46-.45-1.88-.57-4.77-.51-6.66.07-2.67.41-4.6.77-5.51.11-.28.38-.35.69-.33.73.03,1.59.75,1.57,1.6-.02.78-.29,3.22-.33,4.65-.04,1.34-.12,4.83.06,6.34,0,.18-.66.4-1.37.37Z"/>
        <path class="cls-10" d="M145.34,39.96c-.48-.02-.91-.12-1.09-.3-.1-.1-.29-1.01-.55-2.46-.76-.2-1.83-.4-2.74-.44-.33-.02-.65-.01-.95,0-.4,1.16-.72,2.14-.82,2.65-.09.41-.63.54-1.18.51-.68-.03-1.17-.27-1.16-.62.01-.38.25-1.28.62-2.45-.27-.01-1.22-.9-1.2-1.66.01-.51.99-.52,1.94-.58,1.23-3.5,2.97-8.27,3.59-8.54.15-.06.3-.09.43-.08.5.02.92.41,1.4.43.1,0,.22,0,.32,0,.18,0,.31.05.38.12.52.54,2.62,12.54,2.61,13.02,0,.31-.86.44-1.6.41ZM142.67,30.41c-.47.78-1.18,2.45-1.84,4.17.99.04,1.87.17,2.53.35-.37-2.29-.69-4.51-.69-4.51Z"/>
        <path class="cls-10" d="M156.75,35.1c-.02.63-.19,1.34-.3,1.4-.03.03-.22.04-.5.03-.7,2.29-2.4,4.06-4.41,3.97-1.89-.09-3.95-2.54-3.84-6.38.11-4.1,2.59-7.7,5.12-7.59,1.92.09,2.75,2.46,2.69,4.7-.03.93.08,1.93-1.2,1.87-.83-.04-1.85-.37-1.84-.78,0-.02.02-.05.02-.07.29-.77.52-2.02.55-2.93.02-.7-.08-1.13-.33-1.14-.76-.03-2.5,2.79-2.59,6.16-.06,2.32.53,4.11,1.56,4.15.98.04,1.67-1.45,1.87-2.19-1.09-.13-1.44-.21-1.58-.3-.16-.12-.23-.57-.22-.99,0-.28.05-.56.14-.67.22-.31,2.05.14,4.24-.31.03,0,.08-.01.12-.01.2,0,.33.13.41.3.09.19.12.47.11.79Z"/>
        <path class="cls-10" d="M159.36,40.66c-.5-.02-.98-.16-1.05-.5-.45-1.86-.55-4.79-.5-6.66.07-2.67.41-4.6.77-5.51.11-.28.38-.35.69-.33.75.03,1.66.84,1.63,1.7-.02.81-.29,3.22-.33,4.63-.04,1.34-.12,4.83.06,6.33,0,.18-.62.37-1.27.34Z"/>
        <path class="cls-10" d="M169.96,38.6c0,.25-.08.48-.28.6-1.35.8-3.48,1.7-4.84,1.64-.73-.03-2.1-.86-2.19-1.28-.32-1.48-.45-3.06-.4-4.65.06-2.21.47-6.25.83-7.02.17-.36,1.01-.68,1.63-.66.65.03.79.3.76,1.36-.04,1.39-.48,3.95-.58,7.78-.02.75,0,1.56.07,2.18.05,0,.1,0,.17,0,1.24.06,3.51-.36,4.5-.78.02,0,.03-.01.03-.01.05,0,.1.05.15.12.08.1.17.42.16.7Z"/>
        <path class="cls-10" d="M178.56,38.12c0,.25-.08.53-.25.7-1.55,1.54-3.79,2.45-4.93,2.4-.75-.03-2.07-.87-2.16-1.28-.43-1.86-.42-3.92-.37-5.88.07-2.67.39-4.58.77-5.49.25-.62,2.28-.64,3.83-.57.81.04,1.49.1,1.71.14.61.11,1.32.96,1.3,1.47,0,.18-.12.31-.42.31-.95,0-3.44.16-4.21.47-.07.74-.14,1.52-.19,2.53.17.02.35.03.55.04.86.04,1.89-.01,2.81-.3.02,0,.03,0,.05,0,.18,0,.34.36.33.75,0,.36-.15.77-.56.99-1.08.58-2.4.85-3.3,1-.02.88,0,2.46.02,3.54,1.53-.06,3.73-.96,4.69-1.55.02,0,.02-.02.03-.02.05,0,.12.06.16.12.08.1.14.35.13.62Z"/>
      </g>
      <line class="cls-5" x1="96.53" y1="53.5" x2="104.29" y2="52"/>
      <g class="cls-14">
        <path class="cls-10" d="M126.2,38.99v-12.77s-4.36-3.43-6.97,1.32,6.97,11.45,6.97,11.45Z"/>
        <path class="cls-10" d="M126.2,38.99v-12.77s4.36-3.28,6.97,1.56-6.97,11.21-6.97,11.21Z"/>
      </g>
      <polygon class="cls-12" points="300.03 154 0 142.08 95.53 130.17 97.08 135.19 300.03 154"/>
      <path class="cls-11" d="M95.03,10.25l192,7.75,3,3v33.78s-3,2.22-.5,5.22l-9.87,2.41,23.87,1.09-.19,5v8.07l-1.22,1.47,2.42.93-1.21,1.69v24.33l-3.29,1,4.5,1.5v41.55l-4.5,4.95-203.5-18.94-1.5-2.12v-37.94l1-3v-34l-.5-3.28,7.01-3.22-6.97-.13-1.54-1.61V12l1-1.75Z"/>
      <path class="cls-12" d="M305.53,120c1.5,0,103.5-24,103.5-24l-103.5,19.5v4.5Z"/>
      <polygon class="cls-12" points="407.53 55.5 408.13 84.63 413.03 83.68 413.03 55 407.53 55.5"/>
      <polygon class="cls-12" points="303.33 72.91 407.25 56.25 303.33 68.5 303.33 72.91"/>
      <polygon class="cls-12" points="290.03 26.61 374.86 14.13 290.03 21 290.03 26.61"/>
    </g>
  </g>
</svg>