<svg width="64" height="64" viewBox="0 0 64 64" fill="none" xmlns="http://www.w3.org/2000/svg">
<g clip-path="url(#clip0_1249_914)">
<path d="M32.3853 64.0001C46.9575 64.0001 58.7706 52.187 58.7706 37.6148C58.7706 23.0426 46.9575 11.2295 32.3853 11.2295C17.8131 11.2295 6 23.0426 6 37.6148C6 52.187 17.8131 64.0001 32.3853 64.0001Z" fill="#B974FF"/>
<path d="M26.2338 14.6553L38.5386 14.6553L38.5386 10.5012L26.2338 10.5012L26.2338 14.6553Z" fill="#B974FF"/>
<path d="M26.2349 6.90368V11.2294H38.5396V6.90368H33.0965C33.783 5.95096 35.1631 3.90543 35.1631 2.77408C35.1631 1.24693 33.9196 0 32.389 0C30.8618 0 29.6149 1.24343 29.6149 2.77408C29.6149 3.90543 30.9914 5.95096 31.6814 6.90368H26.2349ZM34.1683 2.77408C34.1683 3.45359 33.1946 5.05079 32.3855 6.19264C31.5764 5.05079 30.6026 3.45359 30.6026 2.77408C30.6026 1.78984 31.4012 0.991244 32.3855 0.991244C33.3697 0.991244 34.1683 1.79334 34.1683 2.77408Z" fill="#EFE1BD"/>
<path d="M39.5937 26.0667C42.3251 26.0667 44.5394 23.8524 44.5394 21.121C44.5394 18.3896 42.3251 16.1753 39.5937 16.1753C36.8622 16.1753 34.6479 18.3896 34.6479 21.121C34.6479 23.8524 36.8622 26.0667 39.5937 26.0667Z" fill="#2141AB"/>
<path d="M56.1122 35.3695C53.3802 35.3695 51.1665 33.1558 51.1665 30.4238C51.1665 27.7898 53.2296 25.6427 55.825 25.4956C57.2786 28.3047 58.2453 31.4045 58.6061 34.69C57.874 35.1208 57.0229 35.3695 56.1122 35.3695Z" fill="#2141AB"/>
<path d="M42.5956 44.2034C45.327 44.2034 47.5413 41.9892 47.5413 39.2577C47.5413 36.5263 45.327 34.312 42.5956 34.312C39.8642 34.312 37.6499 36.5263 37.6499 39.2577C37.6499 41.9892 39.8642 44.2034 42.5956 44.2034Z" fill="#2141AB"/>
<path d="M54.5429 46.0562C55.4921 46.0562 56.3748 46.3294 57.1278 46.7917C55.9614 49.9371 54.2136 52.7952 52.014 55.2435C50.5674 54.3819 49.5972 52.8057 49.5972 50.9984C49.6007 48.2698 51.8143 46.0562 54.5429 46.0562Z" fill="#2141AB"/>
<path d="M12.1089 20.7354C12.9846 21.6285 13.5275 22.8509 13.5275 24.1994C13.5275 26.9315 11.3138 29.1452 8.5818 29.1452C8.186 29.1452 7.80772 29.0926 7.43994 29.0086C8.49423 25.9578 10.0879 23.1627 12.1089 20.7354Z" fill="#2141AB"/>
<path d="M24.2347 12.5181C23.6673 14.6231 21.7513 16.1783 19.4641 16.1783C18.7881 16.1783 18.1401 16.0417 17.5552 15.7965C19.5937 14.4025 21.8389 13.2956 24.2347 12.5181Z" fill="#2141AB"/>
<path d="M15.1731 57.3067C15.1731 57.4048 15.1626 57.5028 15.1591 57.6009C13.3903 56.0738 11.8246 54.319 10.5146 52.375C13.1101 52.5221 15.1731 54.6692 15.1731 57.3067Z" fill="#2141AB"/>
<path d="M27.0473 36.1927C29.7787 36.1927 31.993 33.9784 31.993 31.247C31.993 28.5155 29.7787 26.3013 27.0473 26.3013C24.3158 26.3013 22.1016 28.5155 22.1016 31.247C22.1016 33.9784 24.3158 36.1927 27.0473 36.1927Z" fill="#2141AB"/>
<path d="M13.5273 45.0228C16.2587 45.0228 18.473 42.8085 18.473 40.0771C18.473 37.3456 16.2587 35.1313 13.5273 35.1313C10.7958 35.1313 8.58154 37.3456 8.58154 40.0771C8.58154 42.8085 10.7958 45.0228 13.5273 45.0228Z" fill="#2141AB"/>
<path d="M25.4784 56.7669C28.2099 56.7669 30.4241 54.5526 30.4241 51.8212C30.4241 49.0898 28.2099 46.8755 25.4784 46.8755C22.747 46.8755 20.5327 49.0898 20.5327 51.8212C20.5327 54.5526 22.747 56.7669 25.4784 56.7669Z" fill="#2141AB"/>
<path d="M41.1244 55.9438C43.6253 55.9438 45.6848 57.8002 46.0176 60.21C43.2925 61.8563 40.2453 63.0262 36.9913 63.5971C36.4799 62.8195 36.1787 61.8878 36.1787 60.8861C36.1787 58.1575 38.3924 55.9438 41.1244 55.9438Z" fill="#2141AB"/>
</g>
<defs>
<clipPath id="clip0_1249_914">
<rect width="64" height="64" fill="white"/>
</clipPath>
</defs>
</svg>
