<svg width="656" height="385" viewBox="0 0 656 385" fill="none" xmlns="http://www.w3.org/2000/svg">
<g clip-path="url(#clip0_9_594)">
<path opacity="0.2" d="M288.05 384.75C447.136 384.75 576.1 357.905 576.1 324.79C576.1 291.675 447.136 264.83 288.05 264.83C128.964 264.83 0 291.675 0 324.79C0 357.905 128.964 384.75 288.05 384.75Z" fill="#3B65EE"/>
<path d="M288.05 373.85C430.341 373.85 545.69 346.875 545.69 313.6C545.69 280.325 430.341 253.35 288.05 253.35C145.759 253.35 30.41 280.325 30.41 313.6C30.41 346.875 145.759 373.85 288.05 373.85Z" fill="white" stroke="#3B65EE" stroke-width="3.44" stroke-miterlimit="10"/>
<path d="M288.05 366.39C424.321 366.39 534.79 343.27 534.79 314.75C534.79 286.23 424.321 263.11 288.05 263.11C151.779 263.11 41.31 286.23 41.31 314.75C41.31 343.27 151.779 366.39 288.05 366.39Z" fill="white" stroke="#3B65EE" stroke-width="2.3" stroke-miterlimit="10"/>
<path opacity="0.2" d="M286.33 357.21C406.435 357.21 503.8 338.97 503.8 316.47C503.8 293.97 406.435 275.73 286.33 275.73C166.225 275.73 68.86 293.97 68.86 316.47C68.86 338.97 166.225 357.21 286.33 357.21Z" fill="#3B65EE"/>
<path d="M288.05 366.39C421.786 366.39 530.2 344.555 530.2 317.62C530.2 290.685 421.786 268.85 288.05 268.85C154.314 268.85 45.9 290.685 45.9 317.62C45.9 344.555 154.314 366.39 288.05 366.39Z" stroke="#3B65EE" stroke-width="1.15" stroke-miterlimit="10"/>
<path d="M102.14 322.78C102.14 322.78 37.87 249.33 133.13 139.16C228.38 28.99 386.75 48.5 498.07 129.98C498.07 129.98 517.58 127.68 537.09 127.68C556.6 127.68 570.37 98.99 574.96 100.14C579.55 101.29 579.55 107.03 579.55 109.32C579.55 111.61 579.55 115.06 582.99 115.06C586.43 115.06 597.91 110.47 600.2 113.91C602.49 117.35 599.05 122.87 600.2 124.7C601.35 126.53 610.53 134.56 603.64 136.86C596.75 139.16 578.39 134.56 563.47 174.73C548.55 214.9 498.06 349.17 302.96 353.76C107.86 358.35 111.31 327.36 102.13 322.77L102.14 322.78Z" fill="white" stroke="#3B65EE" stroke-width="3.44" stroke-linecap="round" stroke-linejoin="round"/>
<path opacity="0.2" d="M216.17 118.68C216.17 118.68 142.3 129.98 102.71 215.48C67.02 292.54 117.06 335.14 117.06 335.14C117.06 335.14 166.31 359.85 268.78 354.23C371.25 348.61 484.13 337.97 549.34 208.44C614.55 78.91 370.11 160.75 335.68 250.66C335.68 250.66 346.01 201.71 370.11 170.72C394.21 139.73 401.57 89.79 188.45 140.01C188.45 140.01 134.75 194.37 118.73 258.29C118.73 258.29 150.61 151.57 216.18 118.68H216.17Z" fill="#3B65EE"/>
<path opacity="0.2" d="M395.9 77.6C395.9 77.6 421.17 59.98 451.01 59.98C480.85 59.98 479.7 43.91 483.14 42.77C486.58 41.63 491.17 41.62 492.32 46.21C493.47 50.8 494.62 53.1 498.06 53.1C501.5 53.1 510.49 54.02 508.87 59.87C507.25 65.72 496.92 63.43 492.33 72.61C487.74 81.79 481.78 106.09 471.56 112.3C471.56 112.3 426.86 86.05 395.9 77.61V77.6Z" fill="#3B65EE"/>
<path opacity="0.2" d="M488.88 42.42C488.88 42.42 499.21 32.43 499.21 27.84C499.21 23.25 493.47 2.59 504.95 0.300001C516.43 -2 517.57 9.48 518.72 12.92C519.87 16.36 523.31 17.51 527.9 17.51C532.49 17.51 548.56 18.66 541.67 28.99C534.78 39.32 527.29 31.55 516.12 40.03C504.95 48.5 504.56 54.01 504.56 54.01C504.56 54.01 500.35 53.09 498.06 53.09C495.77 53.09 493.47 50.79 492.32 47.35C491.17 43.91 490.02 42.08 488.88 42.42Z" fill="#3B65EE"/>
<path d="M579.19 105.14C579.19 105.14 592.17 102.44 593.32 90.97C594.47 79.49 588.73 63.43 602.5 59.98C616.27 56.54 620.86 64.57 620.86 74.9C620.86 85.23 632.06 82.53 635.07 82.16C638.08 81.79 661.03 81.79 651.85 101.3C642.67 120.81 625.45 100.15 613.98 109.33C602.5 118.51 600.02 122.99 600.02 122.99C600.02 122.99 603 114.66 599.31 113.14C595.62 111.62 585.45 114.62 584.8 114.84C584.15 115.06 579.56 116.21 579.56 109.32C579.56 109.32 579.99 107.83 579.2 105.13L579.19 105.14Z" fill="white" stroke="#3B65EE" stroke-width="3.44" stroke-linecap="round" stroke-linejoin="round"/>
<path d="M81.8 242.44C81.8 242.44 96.56 157.33 114.76 121.95C135.42 81.78 160.41 74.93 170.86 77.21C181.32 79.49 183.66 89.6 181.34 97.17C181.34 97.17 99.84 143.76 81.79 242.45L81.8 242.44Z" fill="white" stroke="#3B65EE" stroke-width="3.44" stroke-linecap="round" stroke-linejoin="round"/>
<path d="M196.24 265.4C214.26 240.47 233.37 216.34 253.49 193.07C267.11 177.68 280.79 161.89 297.43 149.62C310.06 140.48 324.68 133 340.51 132.05C348.29 131.76 357.15 132.83 362.98 138.58C369.12 144.43 367.84 154.36 362.33 160.12C366.86 154.31 367.69 144.99 361.67 139.95C355.99 135.12 347.93 134.61 340.75 135.22C320.66 137.44 303.15 149.62 288.43 162.84C255.32 194.71 226.51 230.82 196.25 265.4H196.24Z" fill="#3B65EE"/>
<path d="M117.06 265.4C126.41 212.39 157.76 158.67 201.57 126.93C214.01 117.75 227.78 110.34 242.15 104.73C230.46 110.86 219.25 117.62 208.73 125.53C163.23 159.79 132.68 211.15 117.06 265.39V265.4Z" fill="#3B65EE"/>
<path d="M498.06 130.21C462.78 131.82 427.14 142.64 397.91 162.65C383.41 172.68 370.92 185.44 360.5 199.61C350.07 213.81 342.19 229.8 335.89 246.54C335.85 246.66 335.71 246.72 335.59 246.67C335.48 246.63 335.42 246.51 335.45 246.4C335.98 244.23 336.53 242.05 337.1 239.88C337.95 236.15 339.88 230.69 341.18 227.01C341.86 224.85 342.87 222.83 343.73 220.74C361.28 178 401.51 149.72 444.96 137.44C457.93 133.79 471.22 131.37 484.63 130.28C489.1 129.93 493.57 129.69 498.06 129.75C498.19 129.75 498.29 129.86 498.29 129.98C498.29 130.11 498.18 130.21 498.06 130.21Z" fill="#3B65EE"/>
<path d="M498.07 129.98C498.07 129.98 426.09 129.01 375.58 178.4" stroke="#3B65EE" stroke-width="3.44" stroke-linecap="round" stroke-linejoin="round"/>
<path opacity="0.2" d="M93.13 202.98C93.13 202.98 110.99 109.24 149.19 88.67C179.03 72.6 178.8 98.72 178.8 98.72C178.8 98.72 114.76 138.01 93.13 202.98Z" fill="#3B65EE"/>
<path d="M290.35 74.9C328.05 71.42 371.81 76.02 406.42 91.89C411.51 94.35 416.48 97.05 421.18 100.15C416.1 97.71 410.99 95.44 405.76 93.45C368.94 79.8 329.38 76.02 290.35 74.91V74.9Z" fill="#3B65EE"/>
<path d="M380.72 249.33C382.145 249.33 383.3 248.175 383.3 246.75C383.3 245.325 382.145 244.17 380.72 244.17C379.295 244.17 378.14 245.325 378.14 246.75C378.14 248.175 379.295 249.33 380.72 249.33Z" fill="#3B65EE"/>
<path d="M364.66 260.81C366.085 260.81 367.24 259.655 367.24 258.23C367.24 256.805 366.085 255.65 364.66 255.65C363.235 255.65 362.08 256.805 362.08 258.23C362.08 259.655 363.235 260.81 364.66 260.81Z" fill="#3B65EE"/>
<path d="M97.26 267.69C98.6849 267.69 99.84 266.535 99.84 265.11C99.84 263.685 98.6849 262.53 97.26 262.53C95.8351 262.53 94.68 263.685 94.68 265.11C94.68 266.535 95.8351 267.69 97.26 267.69Z" fill="#3B65EE"/>
<path d="M92.67 257.36C94.0949 257.36 95.25 256.205 95.25 254.78C95.25 253.355 94.0949 252.2 92.67 252.2C91.2451 252.2 90.09 253.355 90.09 254.78C90.09 256.205 91.2451 257.36 92.67 257.36Z" fill="#3B65EE"/>
<path d="M380.72 265.4C382.145 265.4 383.3 264.245 383.3 262.82C383.3 261.395 382.145 260.24 380.72 260.24C379.295 260.24 378.14 261.395 378.14 262.82C378.14 264.245 379.295 265.4 380.72 265.4Z" fill="#3B65EE"/>
<path d="M558.89 128.83C558.89 128.83 576.1 126.53 586.43 131.13C586.43 131.13 576.1 123.1 558.89 128.83Z" fill="#3B65EE"/>
<path d="M568.07 133.42C568.07 133.42 572.66 129.98 579.55 132.27C579.55 132.27 572.66 132.27 568.07 133.42Z" fill="#3B65EE"/>
<path opacity="0.2" d="M589.14 113.7C589.14 113.7 604.71 105.34 606.19 99.01C607.67 92.68 600.78 77.76 607.67 75.47C614.56 73.18 619.35 74.05 620.4 77.63C621.44 81.21 624.89 90.39 636.36 92.69C647.83 94.99 648.98 107.21 636.36 109.7C636.36 109.7 621.9 105.43 618.8 107.09C615.7 108.75 599.63 123.67 599.63 123.67C599.63 123.67 602.19 113.43 598.04 112.81C593.89 112.19 589.14 113.7 589.14 113.7Z" fill="#3B65EE"/>
<path d="M106.73 335.4C106.73 335.4 76.44 315.2 80.11 303.5C83.78 291.8 102.14 292.94 104.43 306.71C104.43 306.71 118.76 302.12 120.2 313.6C120.2 313.6 125.09 305.57 140.01 325.08C154.93 344.59 159.52 341.15 160.67 340C160.67 340 181.33 316.79 196.25 323.23C196.25 323.23 221.5 302.13 232.97 333.12C232.97 333.12 260.51 322.79 258.22 346.89C258.22 346.89 263.96 336.56 276.58 343.45C289.2 350.34 297.24 352.63 300.68 350.34C304.12 348.04 323.63 321.65 345.44 338.86C345.44 338.86 345.44 322.79 356.92 328.53C356.92 328.53 365.53 308.65 380.73 327.77C380.73 327.77 407.41 309.02 409.71 330.82C409.71 330.82 429.22 286.06 449.88 309.02C449.88 309.02 454.5 313.61 456.78 317.63C456.78 317.63 455.69 288.55 472.29 295.34C472.29 295.34 492.19 275.98 486.53 300.53C480.87 325.08 446.44 341.15 425.78 343.44C425.78 343.44 363.08 359.51 341.64 357.21C341.64 357.21 264.83 362.25 233.41 357.43C233.41 357.43 158.38 353.76 143.46 348.02C143.46 348.02 114.77 344.58 106.74 335.4H106.73Z" fill="white" stroke="#3B65EE" stroke-width="2.3" stroke-linecap="round" stroke-linejoin="round"/>
<path d="M487.35 295.89C487.35 295.89 491.18 288.35 496.91 290.64C502.65 292.94 493.26 317 476.72 318.16C476.72 318.16 486.96 301.13 487.34 295.88L487.35 295.89Z" fill="white" stroke="#3B65EE" stroke-width="2.3" stroke-linecap="round" stroke-linejoin="round"/>
<path d="M86.93 318.75C86.93 318.75 65.42 304.42 72.3 292.95C79.19 281.47 85.23 297.08 85.23 297.08C85.23 297.08 76.3 300.94 86.93 318.75Z" fill="white" stroke="#3B65EE" stroke-width="2.3" stroke-linecap="round" stroke-linejoin="round"/>
<path d="M104.22 313.6C106.27 320.44 108.54 326.6 111.32 333.11C105.86 328.48 103.02 320.66 104.22 313.6Z" fill="#3B65EE"/>
<path d="M120.1 316.47C123.41 326.95 129.21 336.47 138.29 342.87C127.39 339.33 120.14 327.71 120.1 316.47Z" fill="#3B65EE"/>
<path d="M200.26 326.8C206.61 332.42 202.41 341.37 196.06 344.98C193 346.63 192.9 346.66 195.34 344.11C199.89 339.33 203.42 333.4 200.25 326.8H200.26Z" fill="#3B65EE"/>
<path d="M230.1 336.55C228.81 338.12 227.07 339.95 225.73 341.44C224.22 343.07 222.97 344.67 221.35 346.3C221.35 345.1 221.62 343.92 222.11 342.85C223.56 339.67 226.54 336.95 230.1 336.55Z" fill="#3B65EE"/>
<path d="M359.78 331.39C365 335.64 367.13 343.3 365.52 349.75C363.85 343.39 362.34 337.54 359.78 331.39Z" fill="#3B65EE"/>
<path d="M407.98 334.83C405.25 340.25 400.23 344.96 394.21 346.31C398.64 342.18 402.88 338.13 407.98 334.83Z" fill="#3B65EE"/>
<path d="M473.39 299.26C475.62 304.32 474.2 310.72 470.53 314.75C470.74 312.35 471.46 309.32 471.88 306.97C472.34 304.64 472.89 301.6 473.39 299.26Z" fill="#3B65EE"/>
<path d="M437.82 309.58C443 316.96 442.93 328.54 436.03 334.83C439.94 326.86 439.8 318.08 437.82 309.58Z" fill="#3B65EE"/>
<path opacity="0.2" d="M71.01 296.71C71.01 296.71 79.59 292.47 82.26 300.74C82.26 300.74 95.5 294.09 103.99 310.73C103.99 310.73 118.92 316.78 122.01 323.8C122.01 323.8 124.42 317.04 127.63 319.91C130.84 322.78 143.4 343.44 156.63 344.01C169.86 344.58 191.39 317.46 202.43 331.02C202.43 331.02 225.56 314.92 228.12 337.78C228.12 337.78 258.11 326.8 255.3 352.91C255.3 352.91 261.92 344.84 272.7 347.01C283.48 349.18 291.79 357.1 300.83 355.43C309.87 353.76 324.93 338.84 334.04 340.56C343.15 342.28 349.35 346.88 349.35 346.88C349.35 346.88 350.94 325.06 361.96 334.82C361.96 334.82 374.14 314.74 379.87 337.69C379.87 337.69 408.89 317.04 405.86 337.12C405.86 337.12 428.09 317.03 439.56 314.74C451.03 312.44 457.66 321.89 457.66 321.89C457.66 321.89 462.79 302.19 473.55 302.73C473.55 302.73 481.95 285.33 487.15 297.17C487.15 297.17 499.77 289.96 497.2 300.63C497.2 300.63 494.66 314.13 470.55 321.9C470.55 321.9 453.58 339.36 424.76 343.69C424.76 343.69 372.61 357.61 348.13 357.41L341.64 357.21C341.64 357.21 253.36 361.1 233.41 357.43C233.41 357.43 152.64 352.62 143.46 348.02C143.46 348.02 84.93 339.99 71.01 296.7V296.71Z" fill="#3B65EE"/>
<path d="M81.48 323.35C84.9649 323.35 87.79 320.525 87.79 317.04C87.79 313.555 84.9649 310.73 81.48 310.73C77.9951 310.73 75.17 313.555 75.17 317.04C75.17 320.525 77.9951 323.35 81.48 323.35Z" fill="white" stroke="#3B65EE" stroke-width="2.3" stroke-linecap="round" stroke-linejoin="round"/>
<path d="M79.82 314.16C80.68 314.82 80.66 315.46 80.59 316.36C80.63 316.62 80.77 316.84 80.96 317.05C81.75 317.9 82.01 318.72 82.1 319.89C82.1 319.93 82.08 319.96 82.04 319.96C81.38 319.83 80.96 319.32 80.69 318.86C80.25 318.14 80.5 317.23 80.24 316.48C79.67 315.81 79.28 315.17 79.71 314.2C79.73 314.16 79.79 314.14 79.82 314.17V314.16Z" fill="#3B65EE"/>
<path d="M78.56 317.59C78.41 316.53 79.07 316.18 79.91 316.03C80.35 315.85 80.6 315.28 81.05 315.1C81.73 314.7 82.54 314.75 83.2 315.26C83.23 315.29 83.24 315.33 83.21 315.36C82.77 315.75 82.37 315.91 81.98 316.05C81.44 316.25 80.58 315.97 80.1 316.34C79.94 316.49 79.88 316.76 79.78 316.95C79.53 317.29 79.21 317.46 78.66 317.64C78.62 317.66 78.57 317.64 78.56 317.59Z" fill="#3B65EE"/>
<path d="M104.43 338.27C107.915 338.27 110.74 335.445 110.74 331.96C110.74 328.475 107.915 325.65 104.43 325.65C100.945 325.65 98.12 328.475 98.12 331.96C98.12 335.445 100.945 338.27 104.43 338.27Z" fill="white" stroke="#3B65EE" stroke-width="2.3" stroke-linecap="round" stroke-linejoin="round"/>
<path d="M104.96 328.67C105.21 329.72 104.79 330.21 104.18 330.86C103.88 331.56 104.15 332.48 103.87 333.16C103.7 333.64 103.47 334.04 103.13 334.55C103.11 334.58 103.07 334.59 103.04 334.57C102.29 333.54 102.69 332.29 103.44 331.42C103.63 331.21 103.77 330.98 103.83 330.73C103.81 329.85 103.91 329.11 104.86 328.62C104.9 328.6 104.95 328.62 104.96 328.67Z" fill="#3B65EE"/>
<path d="M101.82 330.55C102.36 329.64 103.12 329.77 103.85 330.19C104.31 330.33 104.86 330.04 105.32 330.19C106.1 330.31 106.7 330.85 106.89 331.67C106.89 331.71 106.87 331.75 106.83 331.76C106.25 331.78 105.83 331.66 105.45 331.52C104.9 331.33 104.41 330.58 103.81 330.56C103.59 330.57 103.37 330.75 103.18 330.83C102.78 330.94 102.42 330.87 101.88 330.66C101.84 330.65 101.81 330.6 101.83 330.56L101.82 330.55Z" fill="#3B65EE"/>
<path d="M92.96 335.98C96.4449 335.98 99.27 333.155 99.27 329.67C99.27 326.185 96.4449 323.36 92.96 323.36C89.4751 323.36 86.65 326.185 86.65 329.67C86.65 333.155 89.4751 335.98 92.96 335.98Z" fill="white" stroke="#3B65EE" stroke-width="2.3" stroke-linecap="round" stroke-linejoin="round"/>
<path d="M92.06 326.46C92.73 327.31 92.55 327.93 92.27 328.78C92.29 329.54 92.92 330.26 92.95 331C92.99 331.51 92.95 331.96 92.86 332.57C92.86 332.61 92.82 332.63 92.78 332.63C91.66 332.01 91.51 330.7 91.83 329.6C91.92 329.33 91.95 329.07 91.9 328.81C91.51 328.02 91.29 327.31 91.95 326.47C91.98 326.43 92.04 326.43 92.06 326.47V326.46Z" fill="#3B65EE"/>
<path d="M89.99 329.48C90.1 328.43 90.84 328.23 91.68 328.31C92.15 328.24 92.53 327.75 93.02 327.69C93.78 327.47 94.55 327.71 95.06 328.38C95.08 328.41 95.08 328.46 95.05 328.48C94.53 328.75 94.1 328.8 93.69 328.84C93.11 328.9 92.35 328.42 91.8 328.66C91.6 328.76 91.48 329.01 91.34 329.17C91.02 329.43 90.66 329.53 90.08 329.56C90.03 329.56 89.99 329.53 89.99 329.48Z" fill="#3B65EE"/>
<path d="M182.47 356.63C185.955 356.63 188.78 353.805 188.78 350.32C188.78 346.835 185.955 344.01 182.47 344.01C178.985 344.01 176.16 346.835 176.16 350.32C176.16 353.805 178.985 356.63 182.47 356.63Z" fill="white" stroke="#3B65EE" stroke-width="2.3" stroke-linecap="round" stroke-linejoin="round"/>
<path d="M182.99 347.04C183.24 348.09 182.82 348.58 182.21 349.23C181.91 349.93 182.18 350.85 181.9 351.53C181.73 352.01 181.5 352.41 181.16 352.92C181.14 352.95 181.1 352.96 181.07 352.94C180.32 351.91 180.72 350.66 181.47 349.79C181.66 349.58 181.8 349.35 181.86 349.1C181.84 348.22 181.94 347.48 182.89 346.99C182.93 346.97 182.98 346.99 182.99 347.04Z" fill="#3B65EE"/>
<path d="M179.86 348.91C180.4 348 181.16 348.13 181.89 348.55C182.35 348.69 182.9 348.4 183.36 348.55C184.14 348.67 184.74 349.21 184.93 350.03C184.93 350.07 184.91 350.11 184.87 350.12C184.29 350.14 183.87 350.02 183.49 349.88C182.94 349.69 182.45 348.94 181.85 348.92C181.63 348.92 181.41 349.11 181.22 349.19C180.82 349.3 180.46 349.23 179.92 349.02C179.88 349.01 179.85 348.96 179.87 348.92L179.86 348.91Z" fill="#3B65EE"/>
<path d="M189.93 349.17C193.415 349.17 196.24 346.345 196.24 342.86C196.24 339.375 193.415 336.55 189.93 336.55C186.445 336.55 183.62 339.375 183.62 342.86C183.62 346.345 186.445 349.17 189.93 349.17Z" fill="white" stroke="#3B65EE" stroke-width="2.3" stroke-linecap="round" stroke-linejoin="round"/>
<path d="M193.23 342.45C192.29 342.99 191.7 342.71 190.91 342.31C190.66 342.25 190.39 342.29 190.13 342.38C189.04 342.78 188.18 342.7 187.07 342.33C187.03 342.32 187.02 342.28 187.03 342.25C187.41 341.7 188.04 341.51 188.57 341.43C189.4 341.31 190.14 341.89 190.94 341.94C191.78 341.67 192.52 341.56 193.25 342.33C193.28 342.36 193.27 342.42 193.23 342.44V342.45Z" fill="#3B65EE"/>
<path d="M190.56 339.96C191.59 340.22 191.67 340.99 191.47 341.8C191.47 342.28 191.9 342.73 191.88 343.22C191.99 344 191.63 344.73 190.9 345.14C190.86 345.16 190.82 345.14 190.8 345.11C190.61 344.56 190.62 344.12 190.64 343.71C190.67 343.13 191.26 342.45 191.1 341.86C191.03 341.65 190.8 341.49 190.67 341.33C190.46 340.97 190.42 340.61 190.47 340.03C190.47 339.98 190.51 339.94 190.56 339.96Z" fill="#3B65EE"/>
<path d="M193.58 357.4C197.065 357.4 199.89 354.575 199.89 351.09C199.89 347.605 197.065 344.78 193.58 344.78C190.095 344.78 187.27 347.605 187.27 351.09C187.27 354.575 190.095 357.4 193.58 357.4Z" fill="white" stroke="#3B65EE" stroke-width="2.3" stroke-linecap="round" stroke-linejoin="round"/>
<path d="M196.88 350.67C195.94 351.21 195.35 350.93 194.56 350.53C194.31 350.47 194.04 350.51 193.78 350.6C192.69 351 191.83 350.92 190.72 350.55C190.68 350.54 190.67 350.5 190.68 350.47C191.06 349.92 191.69 349.73 192.22 349.65C193.05 349.53 193.79 350.11 194.59 350.16C195.43 349.89 196.17 349.78 196.9 350.55C196.93 350.58 196.92 350.64 196.88 350.66V350.67Z" fill="#3B65EE"/>
<path d="M194.21 348.19C195.24 348.45 195.32 349.22 195.12 350.03C195.12 350.51 195.55 350.96 195.53 351.45C195.64 352.23 195.28 352.96 194.55 353.37C194.51 353.39 194.47 353.37 194.45 353.34C194.26 352.79 194.27 352.35 194.29 351.94C194.32 351.36 194.91 350.68 194.75 350.09C194.68 349.88 194.45 349.72 194.32 349.56C194.11 349.2 194.07 348.84 194.12 348.26C194.12 348.21 194.16 348.17 194.21 348.19Z" fill="#3B65EE"/>
<path d="M270.84 362.37C274.325 362.37 277.15 359.545 277.15 356.06C277.15 352.575 274.325 349.75 270.84 349.75C267.355 349.75 264.53 352.575 264.53 356.06C264.53 359.545 267.355 362.37 270.84 362.37Z" fill="white" stroke="#3B65EE" stroke-width="2.3" stroke-linecap="round" stroke-linejoin="round"/>
<path d="M269.4 353.06C270.21 353.78 270.13 354.42 270 355.31C270.02 355.57 270.15 355.81 270.32 356.02C271.04 356.93 271.24 357.77 271.24 358.93C271.24 358.97 271.21 359 271.17 359C270.53 358.82 270.14 358.28 269.91 357.8C269.53 357.05 269.85 356.16 269.64 355.39C269.12 354.68 268.78 354.01 269.28 353.07C269.3 353.03 269.36 353.02 269.39 353.05L269.4 353.06Z" fill="#3B65EE"/>
<path d="M267.88 356.39C267.82 355.32 268.5 355.02 269.34 354.94C269.79 354.79 270.08 354.24 270.55 354.1C271.26 353.75 272.06 353.86 272.68 354.42C272.71 354.45 272.71 354.49 272.68 354.52C272.21 354.87 271.8 355 271.41 355.11C270.85 355.27 270.02 354.92 269.51 355.26C269.33 355.39 269.26 355.66 269.14 355.84C268.87 356.16 268.54 356.31 267.97 356.44C267.93 356.46 267.88 356.43 267.87 356.38L267.88 356.39Z" fill="#3B65EE"/>
<path d="M568.64 341.14C572.125 341.14 574.95 338.315 574.95 334.83C574.95 331.345 572.125 328.52 568.64 328.52C565.155 328.52 562.33 331.345 562.33 334.83C562.33 338.315 565.155 341.14 568.64 341.14Z" fill="white" stroke="#3B65EE" stroke-width="2.3" stroke-linecap="round" stroke-linejoin="round"/>
<path d="M567.2 331.83C568.01 332.55 567.93 333.19 567.8 334.08C567.82 334.34 567.95 334.58 568.12 334.79C568.84 335.7 569.04 336.54 569.04 337.71C569.04 337.75 569.01 337.78 568.97 337.78C568.33 337.6 567.94 337.06 567.71 336.58C567.33 335.83 567.65 334.94 567.44 334.17C566.92 333.46 566.58 332.79 567.08 331.85C567.1 331.81 567.16 331.8 567.19 331.83H567.2Z" fill="#3B65EE"/>
<path d="M565.69 335.15C565.63 334.08 566.3 333.78 567.15 333.7C567.6 333.55 567.89 333 568.36 332.86C569.07 332.51 569.87 332.62 570.49 333.18C570.52 333.21 570.52 333.25 570.49 333.28C570.02 333.63 569.61 333.76 569.22 333.87C568.66 334.03 567.83 333.68 567.32 334.02C567.14 334.15 567.06 334.42 566.95 334.6C566.68 334.92 566.35 335.07 565.78 335.2C565.74 335.22 565.69 335.19 565.68 335.14L565.69 335.15Z" fill="#3B65EE"/>
<path d="M479.13 323.93C482.615 323.93 485.44 321.105 485.44 317.62C485.44 314.135 482.615 311.31 479.13 311.31C475.645 311.31 472.82 314.135 472.82 317.62C472.82 321.105 475.645 323.93 479.13 323.93Z" fill="white" stroke="#3B65EE" stroke-width="2.3" stroke-linecap="round" stroke-linejoin="round"/>
<path d="M477.69 314.61C478.5 315.33 478.42 315.97 478.29 316.86C478.31 317.12 478.44 317.36 478.61 317.57C479.33 318.48 479.53 319.32 479.53 320.48C479.53 320.52 479.5 320.55 479.46 320.55C478.82 320.37 478.43 319.83 478.2 319.35C477.82 318.6 478.14 317.71 477.93 316.94C477.41 316.23 477.07 315.56 477.57 314.62C477.59 314.58 477.65 314.57 477.68 314.6L477.69 314.61Z" fill="#3B65EE"/>
<path d="M476.18 317.94C476.12 316.87 476.8 316.57 477.64 316.49C478.09 316.34 478.38 315.79 478.85 315.65C479.56 315.3 480.36 315.41 480.98 315.97C481.01 316 481.01 316.04 480.98 316.07C480.51 316.42 480.1 316.55 479.71 316.66C479.15 316.82 478.32 316.47 477.81 316.81C477.63 316.94 477.56 317.21 477.44 317.39C477.17 317.71 476.84 317.86 476.27 317.99C476.23 318.01 476.18 317.98 476.17 317.93L476.18 317.94Z" fill="#3B65EE"/>
<path d="M473.97 329.09C477.455 329.09 480.28 326.265 480.28 322.78C480.28 319.295 477.455 316.47 473.97 316.47C470.485 316.47 467.66 319.295 467.66 322.78C467.66 326.265 470.485 329.09 473.97 329.09Z" fill="white" stroke="#3B65EE" stroke-width="2.3" stroke-linecap="round" stroke-linejoin="round"/>
<path d="M474.8 319.56C474.95 320.63 474.48 321.08 473.81 321.67C473.44 322.33 473.63 323.28 473.28 323.93C473.06 324.39 472.8 324.76 472.41 325.24C472.39 325.27 472.34 325.27 472.32 325.24C471.67 324.14 472.19 322.93 473.03 322.15C473.24 321.96 473.4 321.75 473.49 321.5C473.56 320.62 473.72 319.89 474.71 319.5C474.75 319.48 474.8 319.51 474.81 319.56H474.8Z" fill="#3B65EE"/>
<path d="M471.5 321.12C472.12 320.27 472.87 320.47 473.55 320.96C473.99 321.14 474.57 320.91 475.02 321.1C475.79 321.29 476.33 321.89 476.44 322.72C476.44 322.76 476.42 322.8 476.38 322.8C475.8 322.77 475.4 322.6 475.03 322.43C474.5 322.19 474.09 321.39 473.49 321.32C473.27 321.31 473.03 321.46 472.83 321.53C472.42 321.6 472.07 321.5 471.55 321.23C471.51 321.21 471.49 321.16 471.51 321.12H471.5Z" fill="#3B65EE"/>
<path d="M467.08 332.53C470.565 332.53 473.39 329.705 473.39 326.22C473.39 322.735 470.565 319.91 467.08 319.91C463.595 319.91 460.77 322.735 460.77 326.22C460.77 329.705 463.595 332.53 467.08 332.53Z" fill="white" stroke="#3B65EE" stroke-width="2.3" stroke-linecap="round" stroke-linejoin="round"/>
<path d="M465.64 323.22C466.45 323.94 466.37 324.58 466.24 325.47C466.26 325.73 466.39 325.97 466.56 326.18C467.28 327.09 467.48 327.93 467.48 329.09C467.48 329.13 467.45 329.16 467.41 329.16C466.77 328.98 466.38 328.44 466.15 327.96C465.77 327.21 466.09 326.32 465.88 325.55C465.36 324.84 465.02 324.17 465.52 323.23C465.54 323.19 465.6 323.18 465.63 323.21L465.64 323.22Z" fill="#3B65EE"/>
<path d="M464.13 326.55C464.07 325.48 464.75 325.18 465.59 325.1C466.04 324.95 466.33 324.4 466.8 324.26C467.51 323.91 468.31 324.02 468.93 324.58C468.96 324.61 468.96 324.65 468.93 324.68C468.46 325.03 468.05 325.16 467.66 325.27C467.1 325.43 466.27 325.08 465.76 325.42C465.58 325.55 465.51 325.82 465.39 326C465.12 326.32 464.79 326.47 464.22 326.6C464.18 326.62 464.13 326.59 464.12 326.54L464.13 326.55Z" fill="#3B65EE"/>
</g>
<defs>
<clipPath id="clip0_9_594">
<rect width="655.72" height="384.75" fill="white"/>
</clipPath>
</defs>
</svg>
