<?xml version="1.0" encoding="UTF-8"?>
<svg id="Layer_2" data-name="Layer 2" xmlns="http://www.w3.org/2000/svg" viewBox="0 0 821 359.41">
  <defs>
    <style>
      .cls-1, .cls-2, .cls-3 {
        stroke-width: 3px;
      }

      .cls-1, .cls-2, .cls-3, .cls-4, .cls-5, .cls-6, .cls-7 {
        stroke: #3b65ee;
      }

      .cls-1, .cls-2, .cls-4, .cls-8 {
        fill: none;
      }

      .cls-1, .cls-3, .cls-4, .cls-5 {
        stroke-linecap: round;
      }

      .cls-1, .cls-3, .cls-4, .cls-5, .cls-6 {
        stroke-linejoin: round;
      }

      .cls-9 {
        fill: #3b65ef;
      }

      .cls-9, .cls-10 {
        opacity: .2;
      }

      .cls-2, .cls-8, .cls-7, .cls-11 {
        stroke-miterlimit: 10;
      }

      .cls-3, .cls-5, .cls-12, .cls-6, .cls-7, .cls-11 {
        fill: #fff;
      }

      .cls-4, .cls-5, .cls-8, .cls-6, .cls-11 {
        stroke-width: 2px;
      }

      .cls-13, .cls-10, .cls-14 {
        fill: #3b65ee;
      }

      .cls-8, .cls-11 {
        stroke: #3b65ef;
      }

      .cls-14 {
        opacity: .3;
      }
    </style>
  </defs>
  <g id="Layer_2-2" data-name="Layer 2">
    <g>
      <path class="cls-5" d="M213.44,31.2s-7.46-18.52-16.81-5.77c-9.34,12.75,11.23,14.11,11.23,14.11,0,0-19.92.54-7.09,16.21s19.38-5.16,19.38-5.16c0,0-2.12,21.41,12.68,15.23,14.79-6.17,1.35-20.57-4.03-20.83s19.08,9.27,15.74-6.5-17.42-.33-17.42-.33c0,0,21.67-14.9.71-23.52-20.97-8.62-14.38,16.55-14.38,16.55Z"/>
      <path class="cls-5" d="M280.2,19.48s-11.67-12.56-15.97-.49c-4.29,12.07,12.78,11.45,12.78,11.45,0,0-19.24,5.9-4.09,16.38,15.14,10.48,14.88-11.12,14.88-11.12,0,0,12.58,20.51,22.8,1.11,10.22-19.41-12.94-12.8-15.38-10.73-2.43,2.07,16.4-10.79-1.12-21.66-17.52-10.87-18.92,6.93-13.91,15.06Z"/>
      <ellipse class="cls-9" cx="780" cy="351.41" rx="41" ry="2"/>
      <path class="cls-9" d="M780.36,347.37s-8.89-3-7.21-11,11.13-18.48,16.12-16.12c5.78,2.73,6.86,15.14,2.72,22.85-3.9,7.27-11.63,4.27-11.63,4.27Z"/>
      <path class="cls-10" d="M285.36,102.22s-21.12,1.36-22.52,4.7,19.03,1.45,19.03,1.45c0,0-10.42,2.05-9.67,5.16s4.74,1.22,4.74,1.22c0,0-7.47,1.48-3.57,4.61,0,0-6.37,1.7-6.44,11.58l27.44-34.6s-7.95,2.9-9,5.88Z"/>
      <path class="cls-11" d="M772.67,350.58s-8.58,3.79-12.74-3.24-4.27-21.15,1-22.78c6.11-1.89,15.28,6.53,17.44,15.01,2.03,8-5.69,11-5.69,11Z"/>
      <path class="cls-11" d="M780.59,345.79s-3.74-8.6,3.32-12.72c7.06-4.12,21.17-4.13,22.77,1.15,1.85,6.12-6.63,15.24-15.13,17.34-8.01,1.98-10.97-5.76-10.97-5.76Z"/>
      <path class="cls-4" d="M297.52,107s-26.07-36.54-62.37-58.91"/>
      <path class="cls-3" d="M212.88,45.97c2.78,2.68,6.9,2.93,9.2.54,2.3-2.38.54-6.32-2.24-9s-5.53-3.1-7.84-.72c-2.3,2.38-1.91,6.49.87,9.18Z"/>
      <path class="cls-4" d="M295.08,107.84s-11.44-39.41-10.19-59.98"/>
      <path class="cls-1" d="M280.48,29.24c1.08,3.13,4.29,4.87,7.16,3.87s4.32-4.34,3.24-7.47-4.76-4.7-7.63-3.71-3.85,4.17-2.76,7.3Z"/>
      <path class="cls-5" d="M297.79,106.84s-15.01-12.8-27.55-3.17c0,0,7.08,11.31,27.55,3.17Z"/>
      <path class="cls-5" d="M298.12,106.79s13.45-12.12,2.7-40.14c0,0-16.73,29.18-2.7,40.14Z"/>
      <path class="cls-5" d="M297.79,106.84s-24.02-27.67-36.63-23.31c-2.84.98,36.63,23.31,36.63,23.31Z"/>
      <path class="cls-13" d="M307.01,102.61s-1.76-7.87,5.73-16.81"/>
      <path class="cls-13" d="M309.84,101.63s-4.25-4.36,5.78-12.06"/>
      <path class="cls-10" d="M299.16,100.03s9.58-21.96,11.97-19.27c2.39,2.7-9.99,18.99-9.99,18.99,0,0,13.38-13.87,14.2-9.21s.24,7.21.24,7.21c0,0,4.57-10.17,16.7-2.76l-33.12,5.03Z"/>
      <path class="cls-13" d="M279.38,114.28s-5.09-6.04-13.31-3.8"/>
      <path class="cls-13" d="M279.19,115.71s-6.5-4.48-13.84-.16"/>
      <path class="cls-13" d="M334.41,85.76s-5.36,2.72-5.62,9.88"/>
      <path class="cls-13" d="M334.61,89.41s-2.85,1.44-2.99,5.25"/>
      <polyline class="cls-8" points="757.38 339.99 761 332.41 768.62 333.44 770.33 327.51"/>
      <polyline class="cls-8" points="761.72 348.81 765.51 339.99 772 341.41 776.23 334.44"/>
      <circle class="cls-8" cx="791.5" cy="334.91" r="3.5"/>
      <circle class="cls-8" cx="802.5" cy="338.91" r="3.5"/>
      <circle class="cls-8" cx="790" cy="346.41" r="4"/>
      <path class="cls-10" d="M212.88,45.97c2.78,2.68,6.9,2.93,9.2.54,2.3-2.38.54-6.32-2.24-9s-5.53-3.1-7.84-.72c-2.3,2.38-1.91,6.49.87,9.18Z"/>
      <path class="cls-10" d="M280.48,29.24c1.08,3.13,4.29,4.87,7.16,3.87s4.32-4.34,3.24-7.47-4.76-4.7-7.63-3.71-3.85,4.17-2.76,7.3Z"/>
      <path class="cls-1" d="M516.35,147.71s103.21-94.51,144.11-53.14-132.24,61.33-132.24,61.33l-11.88-8.19Z"/>
      <path class="cls-10" d="M519.7,150.02s69.19-48.04,87.04-34.39c17.85,13.65-80.73,36.26-80.73,36.26l-6.31-1.88Z"/>
      <path class="cls-2" d="M513.14,146.23s44.64-120.19,1.72-118.9-11.77,115.92-11.77,115.92l10.05,2.99Z"/>
      <path class="cls-10" d="M510.49,142.84s18.23-76.36,2.93-77.05c-15.29-.69-6.35,76.04-6.35,76.04l3.42,1.02Z"/>
      <path class="cls-13" d="M519.7,150.02c20.24-14.05,50.39-33.88,74.76-37.57,4.12-.43,8.59-.39,12.25,1.97,3.58,2.17,4.21,5.88,1.27,8.96-3.57,3.76-8.41,5.99-12.94,8.15-7.35,3.31-14.92,5.97-22.55,8.41-15.3,4.76-30.8,8.75-46.44,12.11-2.17-.63-4.28-1.42-6.34-2.03h0ZM519.7,150.02c2.01.62,4.66,1.21,6.27,1.72,7.75-1.95,15.44-4.12,23.13-6.3,7.68-2.2,15.32-4.52,22.88-7.07,11.12-3.92,22.83-7.5,32.47-14.37,1.47-1.17,2.92-2.58,3.34-4.08.67-3.53-4.52-5.27-7.36-5.61-5.83-.61-11.67.9-17.25,2.64-22.62,7.76-43.32,20.37-63.48,33.09h0Z"/>
      <path class="cls-13" d="M510.49,142.84c2.59-13.06,4.96-26.17,6.59-39.38,1.03-9.81,2.38-19.82.91-29.6-1.14-8.38-6.99-9.97-9.81-1.33-2.89,9.44-2.75,19.58-2.89,29.42-.01,6.64.21,13.29.56,19.94.26,6.49.92,13.76,1.25,19.84,0,0,3.39,1.12,3.39,1.12h0ZM510.49,142.84s-3.45-.91-3.45-.91l-.07-.02v-.07c-1.8-13.21-2.94-26.52-3.29-39.88-.06-10.03-.2-20.3,2.67-30.05.85-2.47,2.07-5.3,4.62-6.62,1.86-.91,4.26-.53,5.74.9,9.95,10.53-2.54,62.16-6.23,76.65h0Z"/>
      <path class="cls-10" d="M100,348.41s-7-11-18-14-28,6-38,15c0,0-14-6-20,2,0,0-17-3-24,7h100v-10Z"/>
      <path class="cls-10" d="M662.28,346.08s18.99-24.26,21.87-20.58c2.88,3.68-18.92,20.64-18.92,20.64,0,0,22.7-13.88,22.83-8.17.13,5.71-1.3,8.63-1.3,8.63,0,0,12.23-11.19,25.23,2.81l-49.72-3.33Z"/>
      <path class="cls-6" d="M76,358.41s7-9,12-10,8-3,8-3c0,0,38-61,48-68s38-27,38-27c0,0,23-46,35-58s30-30,30-30c0,0,14-18,16-22s14-29,28-36,61-10,73-10c0,0,70-9,86-8s28-3,49,19,26,49,38,55,16,6,19,13,2,25,14,39,51,48,58,68,11,27,11,27c0,0,25,19,29,28s5,13,5,13c0,0,7-6,13-6s18,7,18,7c0,0,4-4,9-4s12,7,12,7l-649,6Z"/>
      <path class="cls-13" d="M200,336.41s13-4,22-9,20-21,41-24,39-4,57,2c0,0-45-6-67,6s-31,24-53,25Z"/>
      <path class="cls-13" d="M175,289.41s44-25,58-39,25-16,39-16,48,4,55,8,18,12,26,26c0,0-19-26-49-28s-34-4-42-2-20,8-24,15-51,31-63,36Z"/>
      <path class="cls-13" d="M314,176.41c-2.62-1.32-14.72-8.21-13.89-11.24.76-1.73,2.99-.71,4.17-.4,5.14,1.71,9.35,5.88,11.73,10.64-2.01-2.24-4.19-4.27-6.59-5.92-2.23-1.56-5.34-3.03-7.75-3.32.04-.02.29-.19.33-.4.06-.19,0-.3.02-.29.34.68,1.25,1.47,1.87,2.09,3.28,3.04,6.81,5.78,10.12,8.84h0Z"/>
      <path class="cls-13" d="M325.5,168.91c-2.01-3-5.61-9.18-3.8-12.81,1.23-1.92,3.76-1.46,4.58.56.85,1.85.95,3.85,1,5.8.02,2.52-.22,5.01-.78,7.45-.28-2.48-.48-4.94-.78-7.34-.19-1.07-.71-6.09-2.11-5.65-.47.26-.49.8-.54,1.48.09,3.54,1.49,7.02,2.43,10.51h0Z"/>
      <path class="cls-13" d="M242,314.41c-2.62-1.32-14.72-8.21-13.89-11.24.76-1.73,2.99-.71,4.17-.4,5.14,1.71,9.35,5.88,11.73,10.64-2.01-2.24-4.19-4.27-6.59-5.92-2.23-1.56-5.34-3.03-7.75-3.32.04-.02.29-.19.33-.4.06-.19,0-.3.02-.29.34.68,1.25,1.47,1.87,2.09,3.28,3.04,6.81,5.78,10.12,8.84h0Z"/>
      <path class="cls-13" d="M242.26,312.91c-1.42-4.7-2.65-9.47-3.62-14.29-.76-4.3-1.86-8.64-1.37-13.05.07-.62.61-1.77,1.56-1.7.4,0,.64.14.85.25,2.22,1.62,2.97,4.46,3.64,6.95,1.61,7.27,1.59,14.77,1.03,22.13-.25-4.9-.62-9.79-1.24-14.62-.74-4.28-1.08-9.04-3.79-12.56-.17-.2-.37-.36-.49-.45-.05-.03-.1-.04-.01-.03.08,0,.23-.09.22-.09-.26.5-.27,1.42-.28,2.1.06,3.61.65,7.23,1.16,10.83,0,0,2.33,14.52,2.33,14.52h0Z"/>
      <path class="cls-13" d="M244.5,310.73c-.35-3.6-.58-10.74,2.74-13.08,1.28-.84,3.36-.09,3.65,1.46.48,2.42-.75,4.73-1.75,6.79-1.18,2.22-2.58,4.3-4.22,6.19,1.34-3.43,2.99-6.71,3.9-10.22.16-.69.46-2.06.02-2.48-2.32-.97-3.81,9.51-4.33,11.34h0Z"/>
      <path class="cls-13" d="M360,280.41s18,36,19,41,1,9,1,9l-5-3s-4-18-15-47Z"/>
      <path class="cls-13" d="M353,318.72s20.92,7.69,29.96,11.69,17.54,12.12,17.54,12.12l3.5,4.88-51-28.69Z"/>
      <path class="cls-13" d="M405,346.41c.83-5.39,3.27-17.71,8.73-20.05,2.04-.84,4.59.89,4.57,3.09,0,6.52-7.9,15.42-12.3,19.96,2.39-3.94,12.01-16.71,10.03-20.72-4.2-3.82-9.86,14.79-11.03,17.72h0Z"/>
      <path class="cls-13" d="M409.5,347.91c1.96-3.48,6.47-9.88,11.18-8.64,1.29.45,2.47,1.61,2.47,3.07-.34,4.63-8.83,7.55-12.66,8.57,2.07-1.45,11.68-6.35,10.53-8.98-2.52-3.48-9.37,4.09-11.53,5.98h0Z"/>
      <path class="cls-13" d="M382.5,148.91c2.86-10.89,10.29-34.41,20.91-39.46,3.82-1.81,9.18.78,8.91,5.39-.72,11.65-20.92,30.12-29.82,37.55,5.13-6.02,30.91-32.64,26.21-39.49-9.03-7.52-23.33,29.53-26.21,36h0Z"/>
      <path class="cls-13" d="M393.5,146.91c2.38-5.06,6.74-12.93,12.64-14.29,1.66-.3,4.13.46,4.43,2.43.2,1.81-1.11,3.16-2.15,4.27-4.04,3.78-8.91,6.4-13.92,8.59,2.93-2.13,5.86-4.2,8.65-6.41,1.92-1.62,4.13-3.24,5.3-5.4.19-.44.23-.65.08-.93-1.14-1.11-2.95-.58-4.25.22-4.41,2.84-7.54,7.37-10.78,11.53h0Z"/>
      <path class="cls-13" d="M674.13,349.65s-.6-9.71,10.03-18.93"/>
      <path class="cls-13" d="M676.7,348.02s-4.23-6.01,9.19-13.27"/>
      <path class="cls-13" d="M707,335.81s-6.9,2.21-8.58,10.69"/>
      <path class="cls-13" d="M711.55,341.2s-3.67,1.18-4.56,5.68"/>
      <path class="cls-10" d="M529,190.67s-12-5.25-19-10.25-17.79-8-25.39-4-30.61,22-36.61,26-14,20-13,28,4,12,8,19,2,16,4,21,20,12,21,22,0,15,0,22-2.37,15,5.31,17,14.21-2,18.45,5,7.1,14,11.67,13,14.34-10.57,19.95-7.79,11.5,12.24,15.06,12.51,40.28,0,40.28,0c0,0,2.83-15.72,13.55-22.72s10.72-28,11.72-36-8-42-18-52-23-27-28-34-21-14.5-29-18.75Z"/>
      <path class="cls-13" d="M467.81,318.72c.14-8.16,1.28-25.43-3.39-31.9-5.51-6.67-13.97-9.87-20.2-16.07-3.5-4.31-6.43-9.09-9.31-13.82,3.43,4.29,6.67,8.75,10.35,12.82,6.47,5.74,15.17,8.92,20.69,15.87,5.29,7.36,3.17,24.42,1.85,33.11h0Z"/>
      <path class="cls-7" d="M508.5,353.91h32c0-6-12-12-16-7.31s-7,.31-9,1.31-6,3-7,6Z"/>
      <path class="cls-7" d="M485,353.91s5-7,7-9,8-3,10-2,6,7,8,7,7,1,7,3-1.04,1-1.04,1h-30.96Z"/>
      <path class="cls-13" d="M447,270.41c-.61-5.62-1.07-11.37-3.22-16.6-3.63-6.37-8.38-12.18-11.46-18.96-1.41-3.17-2.68-6.43-2.76-10.02.08-3.44,1.71-6.73,2.91-9.89,2.45-6.14,5.75-11.84,8.03-18.03-.43,3.28-1.58,6.43-2.6,9.56,0,0-3.24,9.29-3.24,9.29-.85,3-2.26,5.87-2.27,9.02.14,2.9,1.29,5.94,2.64,8.8,2.93,6.64,7.61,12.61,10.73,19.4,1.84,5.6,1.71,11.64,1.23,17.42h0Z"/>
      <path class="cls-13" d="M563.5,213.91c-9.9-11.52-24.8-15.46-38.12-21.77-4.62-2.26-9.65-4.72-13.17-8.73-6.06-7.62-14.93-12.06-24.5-13.5,3.72,0,7.5.48,11.13,1.6,5.47,1.66,10.49,4.93,14.42,9.09.46.51,1.39,1.48,1.88,1.94,3.36,2.96,7.39,4.93,11.52,6.88,13.18,6.32,28.8,11.33,36.84,24.48h0Z"/>
      <path class="cls-10" d="M325.63,241.77s10.86-5.85,18.37-7.35,8.5,1.07,16-2.71,5.5-5.79,15.5-2.79,13.34,12.33,21.17,19.16,14.83,11.84,15.83,18.84,1,7-4,19,1.68,13.35,7.34,21.18-14.8,13.26-17.07,20.04,3.85,11.03,2.79,12.91-1.01,5.44-1.01,5.44l-25.06-16.56-14.47-46.43s-13.51-24.34-21.02-30.45-14.38-10.26-14.38-10.26Z"/>
      <path class="cls-10" d="M265.35,152.4s12.04-12.73,13.84-18.86,1.08-7.77,6.45-10.45,15.93-8.13,26.65-8.4,50.82,1.45,54.77-.41,14.97-8.12,21.46-7.49.49,6.97-6.01,14.8-11.04,17.35-11.27,22.59-41.98-2.49-49.1.38-23.24,10.77-32.18,11.32-15.24-.49-24.59-3.47Z"/>
      <g>
        <path class="cls-12" d="M320.5,172.91s-22-36-15-33,17,32,17,32"/>
        <path class="cls-13" d="M320.5,172.91c-1.64-2.16-25.7-38.16-14.23-33.72,7.41,4.74,13.68,24.16,16.23,32.72-2.46-5.74-4.97-11.46-7.73-17.06-1.4-2.78-2.81-5.54-4.45-8.14-1.41-2.11-2.78-4.45-4.97-5.75-.26-.18-.6-.23-.54-.23.08.02.3-.13.32-.22.13,2.51,1.57,5.04,2.55,7.41,1.28,2.82,2.71,5.59,4.12,8.37l8.7,16.62h0Z"/>
      </g>
      <path class="cls-13" d="M163,297.41s1.74-7.89,5.37-10.95"/>
      <path class="cls-13" d="M155.57,303.21s-1.27-6.74,3.58-11.26"/>
      <path class="cls-14" d="M547,211.41c-5-7-21-14.5-29-18.75,0,0-12-5.25-19-10.25-4.13-2.95-9.57-5.19-14.9-5.72-8.07,4.48-30.22,21.8-36.1,25.72s-14,20-13,28,4,12,8,19,2,16,4,21,20,12,21,22,0,15,0,22-2.37,15,5.31,17c7.69,2,14.21-2,18.45,5,2.76,4.55,4.94,9.09,7.38,11.45,4.5-2.83,9.7-5.99,13.25-4.23.24.12.49.27.73.41,3.68-2.14,7.48-3.8,10.27-2.41,5.62,2.79,11.5,12.24,15.06,12.51,2.31.18,18.58.13,29.72.07,1.14-4.42,4.69-15.29,13.11-20.79,10.72-7,10.72-28,11.72-36s-8-42-18-52-23-27-28-34Z"/>
    </g>
  </g>
</svg>