<svg width="274" height="281" viewBox="0 0 274 281" fill="none" xmlns="http://www.w3.org/2000/svg">
<path d="M145.27 148.54L272.75 50.9404H1.40039L128.87 148.54V262.99L83.2504 279.05H190.9L145.27 262.99V148.54Z" fill="white" stroke="#3B65EE" stroke-width="2.5" stroke-miterlimit="10" stroke-linecap="round" stroke-linejoin="round"/>
<path d="M67.8594 87.2197L137.069 140.22L206.289 87.2197H67.8594Z" fill="#E5ECF9" stroke="#3B65EE" stroke-width="2.5" stroke-miterlimit="10" stroke-linecap="round" stroke-linejoin="round"/>
<path d="M144.33 124.28L205.29 14.7998" stroke="#3B65EE" stroke-width="2.5" stroke-miterlimit="10" stroke-linecap="round" stroke-linejoin="round"/>
<path d="M179.917 94.4528C187.131 81.4968 186.494 67.3826 178.494 62.9277C170.493 58.4729 158.16 65.3645 150.945 78.3205C143.731 91.2764 144.368 105.391 152.369 109.845C160.369 114.3 172.703 107.409 179.917 94.4528Z" fill="#BADDD7" stroke="#3B65EE" stroke-width="2.5" stroke-miterlimit="10" stroke-linecap="round" stroke-linejoin="round"/>
<path d="M178.211 75.6687C178.925 74.3851 178.057 72.5387 176.272 71.5445C174.487 70.5504 172.46 70.785 171.745 72.0686C171.031 73.3521 171.899 75.1985 173.684 76.1926C175.469 77.1868 177.496 76.9522 178.211 75.6687Z" fill="#3B65EE"/>
<path d="M147.891 117.89L157.431 100.75" stroke="#3B65EE" stroke-width="2.5" stroke-miterlimit="10" stroke-linecap="round" stroke-linejoin="round"/>
<path d="M208.65 15.6701C212.461 15.6701 215.55 12.5809 215.55 8.77011C215.55 4.95935 212.461 1.87012 208.65 1.87012C204.839 1.87012 201.75 4.95935 201.75 8.77011C201.75 12.5809 204.839 15.6701 208.65 15.6701Z" stroke="#3B65EE" stroke-width="2.5" stroke-miterlimit="10" stroke-linecap="round" stroke-linejoin="round"/>
<path d="M206.289 87.2197H67.8594" stroke="#3B65EE" stroke-width="2.5" stroke-miterlimit="10" stroke-linecap="round" stroke-linejoin="round"/>
</svg>
