<svg width="93" height="97" viewBox="0 0 93 97" fill="none" xmlns="http://www.w3.org/2000/svg">
<g clip-path="url(#clip0_9_53)">
<path d="M0.839966 0.840027L89.92 29.1C89.92 29.1 57.6 35.97 1.11997 36.81L0.839966 0.840027Z" fill="white" stroke="#3B65EE" stroke-width="1.69" stroke-linecap="round" stroke-linejoin="round"/>
<path d="M1.13 36.81V49.04C1.13 49.04 23.89 56.15 39.35 47.75C39.35 47.75 65.48 51.1 73.07 43.25C73.07 43.25 85.15 46.07 89.93 41.58C89.93 41.58 93.58 37.4 89.93 29.1C89.93 29.1 29.51 38.22 1.13 36.81Z" fill="white" stroke="#3B65EE" stroke-width="1.69" stroke-linecap="round" stroke-linejoin="round"/>
<path d="M89.93 41.58V84.65C89.93 84.65 59.86 95.49 1.13 95.51V49.03C1.13 49.03 26.7 56.14 39.35 47.74C39.35 47.74 66.61 49.96 73.07 43.24C73.07 43.24 85.15 45.5 89.93 41.57V41.58Z" fill="white" stroke="#3B65EE" stroke-width="1.69" stroke-linecap="round" stroke-linejoin="round"/>
<path opacity="0.2" d="M91.35 33.7401C91.35 33.7401 82.08 38.7701 74.06 36.8101C74.06 36.8101 53.11 46.08 39.06 42.71C39.06 42.71 10.4 47.31 1.12 42.48V49.0401C1.12 49.0401 25.57 55.59 39.34 47.75C39.34 47.75 66.6 49.41 73.06 43.25C73.06 43.25 86.27 44.3901 89.92 41.5801C89.92 41.5801 93.05 38.2601 91.35 33.7401Z" fill="#3B65EE"/>
<path d="M73.4199 54.48C74.0099 59.22 73.9999 63.98 73.8099 68.74C73.4799 73.48 73.2399 78.34 71.5699 82.84C72.1199 73.36 71.9299 63.88 73.4199 54.47V54.48Z" fill="#3B65EE"/>
<path d="M51.5 57.85C52.09 62.59 52.08 67.35 51.89 72.11C51.56 76.85 51.32 81.71 49.65 86.21C50.2 76.73 50.01 67.25 51.5 57.84V57.85Z" fill="#3B65EE"/>
<path d="M21.72 60.1C22.31 64.84 22.3 69.6 22.11 74.36C21.78 79.1 21.54 83.96 19.87 88.46C20.42 78.98 20.23 69.5 21.72 60.09V60.1Z" fill="#3B65EE"/>
<path d="M23.42 9.88C21.74 10.21 15.64 11.76 17.15 16.72C17.24 17.01 17.02 17.31 16.71 17.29C14.67 17.15 8.71002 17.14 9.58002 22.17C9.60002 22.3 9.69002 22.42 9.81002 22.48C11.47 23.36 24.06 29.43 45.53 23.7C45.69 23.66 45.82 23.53 45.85 23.38C46.16 21.84 47.37 13.87 38.33 14.8C38.16 14.82 37.99 14.75 37.91 14.6C37.4 13.77 35.38 10.87 31.26 9.8C27.97 8.95 29.3 7.52 30.49 6.68C30.82 6.45 30.67 5.93 30.26 5.91C27.89 5.79 23.23 5.97 23.75 9.37C23.78 9.6 23.65 9.82 23.42 9.87V9.88Z" fill="white" stroke="#3B65EE" stroke-width="1.12" stroke-miterlimit="10"/>
<path d="M22.55 17.35C22.55 17.35 29.01 17.35 32.89 16.09Z" fill="white"/>
<path d="M22.55 17.35C25.92 16.24 29.36 16.05 32.89 16.09C29.91 18.09 25.94 18.33 22.55 17.35Z" fill="#3B65EE"/>
<path opacity="0.2" d="M14.22 24.22C14.22 24.22 12.86 20.5 20.61 20.5C28.36 20.5 20.61 15.47 24.49 14.22C28.37 12.97 31.97 14.22 33.4 17.36C34.83 20.5 36.12 17.99 38.7 19.24C41.28 20.49 43.19 20.99 42.24 24.51C42.24 24.51 22.04 27.94 14.22 24.22Z" fill="#3B65EE"/>
</g>
<defs>
<clipPath id="clip0_9_53">
<rect width="92.39" height="96.36" fill="white"/>
</clipPath>
</defs>
</svg>
