<?xml version="1.0" encoding="UTF-8"?><svg id="Layer_1" xmlns="http://www.w3.org/2000/svg" viewBox="0 0 300 300"><defs><style>.cls-1{fill:#fff;}.cls-2{fill:#2b67f8;}</style></defs><polyline class="cls-1" points="50.4 76.43 83 189.5 237 189.5 273 75.5 50 75.5"/><path class="cls-1" d="m49.19,76.76c9.52,33.01,19.03,66.02,28.55,99.02,1.35,4.68,2.7,9.37,4.05,14.05.15.53.65.92,1.21.92,44.93,0,89.86,0,134.8,0h19.2c.57,0,1.04-.39,1.21-.92,10.49-33.2,20.97-66.41,31.46-99.61,1.51-4.8,3.03-9.59,4.54-14.39.25-.78-.42-1.58-1.21-1.58-25.21,0-50.42,0-75.63,0-39.96,0-79.92,0-119.87,0h-27.49c-1.61,0-1.61,2.5,0,2.5,25.21,0,50.42,0,75.63,0,39.96,0,79.92,0,119.87,0h27.49l-1.21-1.58c-8.39,26.57-16.78,53.13-25.17,79.7-2.3,7.28-4.6,14.55-6.89,21.83l-2.39,7.57c-.34,1.07-1.41,3.03-1.31,4.16.12,1.35.79-.03.56-.18-.56-.35-2.52,0-3.17,0h-14.93c-34.71,0-69.42,0-104.13,0h-19.94c-2.76,0-7.96-1.04-10.57,0-1.42.57.33.37.27.59.21-.82-.83-2.89-1.06-3.68l-4.85-16.81c-8.67-30.08-17.35-60.16-26.02-90.25-.19-.67-.39-1.34-.58-2.01-.44-1.54-2.86-.89-2.41.66h0Z"/><path class="cls-2" d="m18.87,60.01h26.5l-3.62-2.75c11.11,38.52,22.21,77.03,33.32,115.55,1.6,5.56,3.21,11.13,4.81,16.69.46,1.59,1.95,2.75,3.62,2.75h154c1.7,0,3.12-1.17,3.62-2.75,10.49-33.2,20.97-66.41,31.46-99.61,1.51-4.8,3.03-9.59,4.54-14.39.74-2.34-1.25-4.75-3.62-4.75H50.5c-4.83,0-4.83,7.5,0,7.5,25.21,0,50.42,0,75.63,0,39.96,0,79.92,0,119.87,0h27.49l-3.62-4.75c-10.49,33.2-20.97,66.41-31.46,99.61-1.51,4.8-3.03,9.59-4.54,14.39l3.62-2.75H83.5l3.62,2.75c-11.11-38.52-22.21-77.03-33.32-115.55-1.6-5.56-3.21-11.13-4.81-16.69-.46-1.59-1.95-2.75-3.62-2.75h-26.5c-4.83,0-4.83,7.5,0,7.5h0Z"/><path class="cls-2" d="m68.43,117.03h190.29c4.83,0,4.83-7.5,0-7.5H68.43c-4.83,0-4.83,7.5,0,7.5h0Z"/><path class="cls-2" d="m77.32,155.16c56.13,0,112.26,0,168.38,0,4.83,0,4.83-7.5,0-7.5-56.13,0-112.26,0-168.38,0-4.83,0-4.83,7.5,0,7.5h0Z"/><path class="cls-2" d="m157.08,79.3c0,34.68,0,69.36,0,104.04,0,4.83,7.5,4.83,7.5,0,0-34.68,0-69.36,0-104.04,0-4.83-7.5-4.83-7.5,0h0Z"/><path class="cls-2" d="m98.84,78.01c6.62,32.42,13.25,64.84,19.87,97.26.96,4.68,1.91,9.36,2.87,14.05s8.29,2.76,7.31-2.02c-6.62-32.42-13.25-64.84-19.87-97.26-.96-4.68-1.91-9.36-2.87-14.05s-8.29-2.76-7.31,2.02h0Z"/><path class="cls-2" d="m212.25,79c-4.22,31.93-8.45,63.85-12.67,95.78-.6,4.51-1.19,9.02-1.79,13.53-.63,4.77,6.88,4.72,7.5,0,4.22-31.93,8.45-63.85,12.67-95.78.6-4.51,1.19-9.02,1.79-13.53.63-4.77-6.88-4.72-7.5,0h0Z"/><path class="cls-2" d="m77.26,187.59c-6.33,10.84-12.67,21.68-19,32.52-1.44,2.46.4,5.63,3.24,5.64,19.41.06,38.82.11,58.24.17,30.96.09,61.92.18,92.88.27,7.13.02,14.26.04,21.39.06,4.83.01,4.83-7.49,0-7.5-19.41-.06-38.82-.11-58.24-.17-30.96-.09-61.92-.18-92.88-.27-7.13-.02-14.26-.04-21.39-.06l3.24,5.64c6.33-10.84,12.67-21.68,19-32.52,2.44-4.18-4.04-7.96-6.48-3.79h0Z"/><circle class="cls-1" cx="95.8" cy="245.92" r="23.5"/><path class="cls-2" d="m115.71,245.92c-.31,10.85-8.82,19.9-19.9,19.9s-19.86-9.05-19.9-19.9,9.08-19.9,19.9-19.9,19.59,9.06,19.9,19.9c.13,4.62,7.33,4.64,7.19,0-.33-11.27-6.93-21.32-17.6-25.36s-23.12-.68-30.37,8.12c-15.81,19.19,1.56,48.35,25.91,43.86,12.9-2.38,21.69-13.77,22.06-26.62.13-4.63-7.06-4.63-7.19,0Z"/><circle class="cls-1" cx="95.8" cy="245.92" r="9.34"/><path class="cls-2" d="m101.4,245.92c-.39,7.17-11.18,7.23-11.18,0s10.8-7.17,11.18,0c.26,4.8,7.76,4.83,7.5,0-.38-7.09-5.69-13.09-13.09-13.09s-13.06,5.99-13.09,13.09,5.7,12.76,12.58,13.06c7.6.34,13.21-5.8,13.6-13.06.26-4.82-7.24-4.81-7.5,0Z"/><circle class="cls-1" cx="202.92" cy="245.92" r="23.5"/><path class="cls-2" d="m222.82,245.92c-.31,10.85-8.82,19.9-19.9,19.9s-19.86-9.05-19.9-19.9,9.08-19.9,19.9-19.9,19.59,9.06,19.9,19.9c.13,4.62,7.33,4.64,7.19,0-.33-11.27-6.93-21.32-17.6-25.36s-23.12-.68-30.37,8.12c-15.81,19.19,1.56,48.35,25.91,43.86,12.9-2.38,21.69-13.77,22.06-26.62.13-4.63-7.06-4.63-7.19,0Z"/><circle class="cls-1" cx="202.92" cy="245.92" r="9.34"/><path class="cls-2" d="m208.51,245.92c-.39,7.17-11.18,7.23-11.18,0s10.8-7.17,11.18,0c.26,4.8,7.76,4.83,7.5,0-.38-7.09-5.69-13.09-13.09-13.09s-13.06,5.99-13.09,13.09,5.7,12.76,12.58,13.06c7.6.34,13.21-5.8,13.6-13.06.26-4.82-7.24-4.81-7.5,0Z"/></svg>