<?xml version="1.0" encoding="UTF-8"?><svg id="Layer_2" xmlns="http://www.w3.org/2000/svg" viewBox="0 0 4082 2108.96"><defs><style>.cls-1{fill:#ebf0ff;}.cls-2{fill:#fff;}.cls-3{fill:#80a4fb;}.cls-4{fill:#2b67f8;}</style></defs><g id="Layer_1-2"><rect class="cls-2" x="391.1" y="287" width="1364.28" height="1364.28" transform="translate(-370.94 1042.75) rotate(-45)"/><path class="cls-4" d="m1073.24,1937.84c-1.06,0-2.08-.42-2.83-1.17L105.72,971.97c-1.56-1.56-1.56-4.09,0-5.66L1070.41,1.62c1.5-1.5,4.16-1.5,5.66,0l964.69,964.7c1.56,1.56,1.56,4.09,0,5.66l-964.69,964.7c-.75.75-1.77,1.17-2.83,1.17ZM114.2,969.14l959.04,959.04,959.04-959.04L1073.24,10.1,114.2,969.14Z"/><rect class="cls-2" x="2322.16" y="286.55" width="1364.28" height="1364.28" transform="translate(194.97 2408.09) rotate(-45)"/><path class="cls-4" d="m3004.31,1937.39c-1.06,0-2.08-.42-2.83-1.17l-964.7-964.7c-1.56-1.56-1.56-4.09,0-5.66L3001.48,1.17c.75-.75,1.77-1.17,2.83-1.17s2.08.42,2.83,1.17l964.69,964.7c1.56,1.56,1.56,4.09,0,5.66l-964.69,964.7c-.75.75-1.77,1.17-2.83,1.17Zm-959.04-968.7l959.04,959.04,959.04-959.04L3004.31,9.66l-959.04,959.04Z"/><path class="cls-3" d="m1069.39,1928.31c0-2.2,1.79-4,4-4h0c2.21,0,4,1.8,4,4h0c0,2.21-1.79,4.01-4,4.01h0c-2.21,0-4-1.8-4-4.01Zm0-30c0-2.21,1.79-4,4-4h0c2.21,0,4,1.79,4,4h0c0,2.21-1.79,4-4,4h0c-2.21,0-4-1.79-4-4Zm0-30c0-2.2,1.79-3.99,4-3.99h0c2.21,0,4,1.79,4,3.99h0c0,2.21-1.79,4-4,4h0c-2.21,0-4-1.79-4-4Zm0-29.99c0-2.21,1.79-4,4-4h0c2.21,0,4,1.79,4,4h0c0,2.2-1.79,4-4,4h0c-2.21,0-4-1.8-4-4Zm0-30c0-2.21,1.79-4,4-4h0c2.21,0,4,1.79,4,4h0c0,2.21-1.79,4-4,4h0c-2.21,0-4-1.79-4-4Zm0-30c0-2.21,1.79-4,4-4h0c2.21,0,4,1.79,4,4h0c0,2.21-1.79,4-4,4h0c-2.21,0-4-1.79-4-4Zm0-30c0-2.21,1.79-4.01,4-4.01h0c2.21,0,4,1.8,4,4.01h0c0,2.2-1.79,4-4,4h0c-2.21,0-4-1.8-4-4Zm0-30.01c0-2.2,1.79-4,4-4h0c2.21,0,4,1.8,4,4h0c0,2.21-1.79,4-4,4h0c-2.21,0-4-1.79-4-4Zm0-30c0-2.2,1.79-4,4-4h0c2.21,0,4,1.8,4,4h0c0,2.21-1.79,4-4,4h0c-2.21,0-4-1.79-4-4Zm0-29.99c0-2.21,1.79-4,4-4h0c2.21,0,4,1.79,4,4h0c0,2.2-1.79,3.99-4,3.99h0c-2.21,0-4-1.79-4-3.99Zm0-30c0-2.21,1.79-4,4-4h0c2.21,0,4,1.79,4,4h0c0,2.21-1.79,4-4,4h0c-2.21,0-4-1.79-4-4Zm0-30c0-2.21,1.79-4,4-4h0c2.21,0,4,1.79,4,4h0c0,2.21-1.79,4-4,4h0c-2.21,0-4-1.79-4-4Zm0-30c0-2.21,1.79-4,4-4h0c2.21,0,4,1.79,4,4h0c0,2.21-1.79,4-4,4h0c-2.21,0-4-1.79-4-4Zm0-30c0-2.21,1.79-4.01,4-4.01h0c2.21,0,4,1.8,4,4.01h0c0,2.2-1.79,4-4,4h0c-2.21,0-4-1.8-4-4Zm0-30.01c0-2.21,1.79-4,4-4h0c2.21,0,4,1.79,4,4h0c0,2.21-1.79,4-4,4h0c-2.21,0-4-1.79-4-4Zm0-30c0-2.2,1.79-3.99,4-3.99h0c2.21,0,4,1.79,4,3.99h0c0,2.21-1.79,4-4,4h0c-2.21,0-4-1.79-4-4Zm0-29.99c0-2.21,1.79-4,4-4h0c2.21,0,4,1.79,4,4h0c0,2.2-1.79,3.99-4,3.99h0c-2.21,0-4-1.79-4-3.99Zm0-30c0-2.21,1.79-4,4-4h0c2.21,0,4,1.79,4,4h0c0,2.21-1.79,4-4,4h0c-2.21,0-4-1.79-4-4Zm0-30c0-2.21,1.79-4,4-4h0c2.21,0,4,1.79,4,4h0c0,2.21-1.79,4-4,4h0c-2.21,0-4-1.79-4-4Zm0-30c0-2.21,1.79-4,4-4h0c2.21,0,4,1.79,4,4h0c0,2.2-1.79,4-4,4h0c-2.21,0-4-1.8-4-4Zm0-30.01c0-2.2,1.79-4,4-4h0c2.21,0,4,1.8,4,4h0c0,2.21-1.79,4.01-4,4.01h0c-2.21,0-4-1.8-4-4.01Zm0-30c0-2.21,1.79-4,4-4h0c2.21,0,4,1.79,4,4h0c0,2.21-1.79,4-4,4h0c-2.21,0-4-1.79-4-4Zm0-30c0-2.2,1.79-3.99,4-3.99h0c2.21,0,4,1.79,4,3.99h0c0,2.21-1.79,4-4,4h0c-2.21,0-4-1.79-4-4Zm0-29.99c0-2.21,1.79-4,4-4h0c2.21,0,4,1.79,4,4h0c0,2.21-1.79,4-4,4h0c-2.21,0-4-1.79-4-4Zm0-30c0-2.21,1.79-4,4-4h0c2.21,0,4,1.79,4,4h0c0,2.21-1.79,4-4,4h0c-2.21,0-4-1.79-4-4Zm0-30c0-2.21,1.79-4,4-4h0c2.21,0,4,1.79,4,4h0c0,2.21-1.79,4-4,4h0c-2.21,0-4-1.79-4-4Zm0-30c0-2.21,1.79-4.01,4-4.01h0c2.21,0,4,1.8,4,4.01h0c0,2.2-1.79,4-4,4h0c-2.21,0-4-1.8-4-4Zm0-30.01c0-2.2,1.79-4,4-4h0c2.21,0,4,1.8,4,4h0c0,2.21-1.79,4-4,4h0c-2.21,0-4-1.79-4-4Zm0-30c0-2.2,1.79-4,4-4h0c2.21,0,4,1.8,4,4h0c0,2.21-1.79,4-4,4h0c-2.21,0-4-1.79-4-4Zm0-29.99c0-2.21,1.79-4,4-4h0c2.21,0,4,1.79,4,4h0c0,2.2-1.79,3.99-4,3.99h0c-2.21,0-4-1.79-4-3.99Zm0-30c0-2.21,1.79-4,4-4h0c2.21,0,4,1.79,4,4h0c0,2.21-1.79,4-4,4h0c-2.21,0-4-1.79-4-4Zm0-30c0-2.21,1.79-4,4-4h0c2.21,0,4,1.79,4,4h0c0,2.21-1.79,4-4,4h0c-2.21,0-4-1.79-4-4Zm0-30c0-2.21,1.79-4,4-4h0c2.21,0,4,1.79,4,4h0c0,2.21-1.79,4-4,4h0c-2.21,0-4-1.79-4-4Zm0-30.01c0-2.2,1.79-4,4-4h0c2.21,0,4,1.8,4,4h0c0,2.21-1.79,4.01-4,4.01h0c-2.21,0-4-1.8-4-4.01Zm0-30c0-2.21,1.79-4,4-4h0c2.21,0,4,1.79,4,4h0c0,2.21-1.79,4-4,4h0c-2.21,0-4-1.79-4-4Zm0-30c0-2.2,1.79-3.99,4-3.99h0c2.21,0,4,1.79,4,3.99h0c0,2.21-1.79,4-4,4h0c-2.21,0-4-1.79-4-4Zm0-29.99c0-2.21,1.79-4,4-4h0c2.21,0,4,1.79,4,4h0c0,2.2-1.79,4-4,4h0c-2.21,0-4-1.8-4-4Zm0-30c0-2.21,1.79-4,4-4h0c2.21,0,4,1.79,4,4h0c0,2.21-1.79,4-4,4h0c-2.21,0-4-1.79-4-4Zm0-30c0-2.21,1.79-4,4-4h0c2.21,0,4,1.79,4,4h0c0,2.21-1.79,4-4,4h0c-2.21,0-4-1.79-4-4Zm0-30c0-2.21,1.79-4.01,4-4.01h0c2.21,0,4,1.8,4,4.01h0c0,2.2-1.79,4-4,4h0c-2.21,0-4-1.8-4-4Zm0-30.01c0-2.2,1.79-4,4-4h0c2.21,0,4,1.8,4,4h0c0,2.21-1.79,4.01-4,4.01h0c-2.21,0-4-1.8-4-4.01Zm0-30c0-2.21,1.79-4,4-4h0c2.21,0,4,1.79,4,4h0c0,2.21-1.79,4-4,4h0c-2.21,0-4-1.79-4-4Zm0-29.99c0-2.21,1.79-4,4-4h0c2.21,0,4,1.79,4,4h0c0,2.2-1.79,3.99-4,3.99h0c-2.21,0-4-1.79-4-3.99Zm0-30c0-2.21,1.79-4,4-4h0c2.21,0,4,1.79,4,4h0c0,2.21-1.79,4-4,4h0c-2.21,0-4-1.79-4-4Zm0-30c0-2.21,1.79-4,4-4h0c2.21,0,4,1.79,4,4h0c0,2.21-1.79,4-4,4h0c-2.21,0-4-1.79-4-4Zm0-30c0-2.21,1.79-4,4-4h0c2.21,0,4,1.79,4,4h0c0,2.21-1.79,4-4,4h0c-2.21,0-4-1.79-4-4Zm0-30c0-2.21,1.79-4.01,4-4.01h0c2.21,0,4,1.8,4,4.01h0c0,2.2-1.79,4-4,4h0c-2.21,0-4-1.8-4-4Zm0-30.01c0-2.21,1.79-4,4-4h0c2.21,0,4,1.79,4,4h0c0,2.21-1.79,4-4,4h0c-2.21,0-4-1.79-4-4Zm0-30c0-2.2,1.79-4,4-4h0c2.21,0,4,1.8,4,4h0c0,2.21-1.79,4-4,4h0c-2.21,0-4-1.79-4-4Zm0-29.99c0-2.21,1.79-4,4-4h0c2.21,0,4,1.79,4,4h0c0,2.2-1.79,3.99-4,3.99h0c-2.21,0-4-1.79-4-3.99Zm0-30c0-2.21,1.79-4,4-4h0c2.21,0,4,1.79,4,4h0c0,2.21-1.79,4-4,4h0c-2.21,0-4-1.79-4-4Zm0-30c0-2.21,1.79-4,4-4h0c2.21,0,4,1.79,4,4h0c0,2.21-1.79,4-4,4h0c-2.21,0-4-1.79-4-4Zm0-30c0-2.21,1.79-4,4-4h0c2.21,0,4,1.79,4,4h0c0,2.2-1.79,4-4,4h0c-2.21,0-4-1.8-4-4Zm0-30.01c0-2.2,1.79-4,4-4h0c2.21,0,4,1.8,4,4h0c0,2.21-1.79,4.01-4,4.01h0c-2.21,0-4-1.8-4-4.01Zm0-30c0-2.21,1.79-4,4-4h0c2.21,0,4,1.79,4,4h0c0,2.21-1.79,4-4,4h0c-2.21,0-4-1.79-4-4Zm0-30c0-2.2,1.79-3.99,4-3.99h0c2.21,0,4,1.79,4,3.99h0c0,2.21-1.79,4-4,4h0c-2.21,0-4-1.79-4-4Zm0-29.99c0-2.21,1.79-4,4-4h0c2.21,0,4,1.79,4,4h0c0,2.2-1.79,4-4,4h0c-2.21,0-4-1.8-4-4Zm0-30c0-2.21,1.79-4,4-4h0c2.21,0,4,1.79,4,4h0c0,2.21-1.79,4-4,4h0c-2.21,0-4-1.79-4-4Zm0-30c0-2.21,1.79-4,4-4h0c2.21,0,4,1.79,4,4h0c0,2.21-1.79,4-4,4h0c-2.21,0-4-1.79-4-4Zm0-30c0-2.21,1.79-4.01,4-4.01h0c2.21,0,4,1.8,4,4.01h0c0,2.2-1.79,4-4,4h0c-2.21,0-4-1.8-4-4Zm0-30.01c0-2.2,1.79-4,4-4h0c2.21,0,4,1.8,4,4h0c0,2.21-1.79,4-4,4h0c-2.21,0-4-1.79-4-4Zm0-30c0-2.2,1.79-4,4-4h0c2.21,0,4,1.8,4,4h0c0,2.21-1.79,4-4,4h0c-2.21,0-4-1.79-4-4Zm0-29.99c0-2.21,1.79-4,4-4h0c2.21,0,4,1.79,4,4h0c0,2.2-1.79,3.99-4,3.99h0c-2.21,0-4-1.79-4-3.99Zm0-30c0-2.21,1.79-4,4-4h0c2.21,0,4,1.79,4,4h0c0,2.21-1.79,4-4,4h0c-2.21,0-4-1.79-4-4Zm0-30c0-2.21,1.79-4,4-4h0c2.21,0,4,1.79,4,4h0c0,2.21-1.79,4-4,4h0c-2.21,0-4-1.79-4-4Z"/><path class="cls-3" d="m3000.67,1928.31c0-2.2,1.79-4,4-4h0c2.21,0,4,1.8,4,4h0c0,2.21-1.79,4.01-4,4.01h0c-2.21,0-4-1.8-4-4.01Zm0-30c0-2.21,1.79-4,4-4h0c2.21,0,4,1.79,4,4h0c0,2.21-1.79,4-4,4h0c-2.21,0-4-1.79-4-4Zm0-30c0-2.2,1.79-3.99,4-3.99h0c2.21,0,4,1.79,4,3.99h0c0,2.21-1.79,4-4,4h0c-2.21,0-4-1.79-4-4Zm0-29.99c0-2.21,1.79-4,4-4h0c2.21,0,4,1.79,4,4h0c0,2.2-1.79,4-4,4h0c-2.21,0-4-1.8-4-4Zm0-30c0-2.21,1.79-4,4-4h0c2.21,0,4,1.79,4,4h0c0,2.21-1.79,4-4,4h0c-2.21,0-4-1.79-4-4Zm0-30c0-2.21,1.79-4,4-4h0c2.21,0,4,1.79,4,4h0c0,2.21-1.79,4-4,4h0c-2.21,0-4-1.79-4-4Zm0-30c0-2.21,1.79-4.01,4-4.01h0c2.21,0,4,1.8,4,4.01h0c0,2.2-1.79,4-4,4h0c-2.21,0-4-1.8-4-4Zm0-30.01c0-2.2,1.79-4,4-4h0c2.21,0,4,1.8,4,4h0c0,2.21-1.79,4-4,4h0c-2.21,0-4-1.79-4-4Zm0-30c0-2.2,1.79-4,4-4h0c2.21,0,4,1.8,4,4h0c0,2.21-1.79,4-4,4h0c-2.21,0-4-1.79-4-4Zm0-29.99c0-2.21,1.79-4,4-4h0c2.21,0,4,1.79,4,4h0c0,2.2-1.79,3.99-4,3.99h0c-2.21,0-4-1.79-4-3.99Zm0-30c0-2.21,1.79-4,4-4h0c2.21,0,4,1.79,4,4h0c0,2.21-1.79,4-4,4h0c-2.21,0-4-1.79-4-4Zm0-30c0-2.21,1.79-4,4-4h0c2.21,0,4,1.79,4,4h0c0,2.21-1.79,4-4,4h0c-2.21,0-4-1.79-4-4Zm0-30c0-2.21,1.79-4,4-4h0c2.21,0,4,1.79,4,4h0c0,2.21-1.79,4-4,4h0c-2.21,0-4-1.79-4-4Zm0-30c0-2.21,1.79-4.01,4-4.01h0c2.21,0,4,1.8,4,4.01h0c0,2.2-1.79,4-4,4h0c-2.21,0-4-1.8-4-4Zm0-30.01c0-2.21,1.79-4,4-4h0c2.21,0,4,1.79,4,4h0c0,2.21-1.79,4-4,4h0c-2.21,0-4-1.79-4-4Zm0-30c0-2.2,1.79-3.99,4-3.99h0c2.21,0,4,1.79,4,3.99h0c0,2.21-1.79,4-4,4h0c-2.21,0-4-1.79-4-4Zm0-29.99c0-2.21,1.79-4,4-4h0c2.21,0,4,1.79,4,4h0c0,2.2-1.79,3.99-4,3.99h0c-2.21,0-4-1.79-4-3.99Zm0-30c0-2.21,1.79-4,4-4h0c2.21,0,4,1.79,4,4h0c0,2.21-1.79,4-4,4h0c-2.21,0-4-1.79-4-4Zm0-30c0-2.21,1.79-4,4-4h0c2.21,0,4,1.79,4,4h0c0,2.21-1.79,4-4,4h0c-2.21,0-4-1.79-4-4Zm0-30c0-2.21,1.79-4,4-4h0c2.21,0,4,1.79,4,4h0c0,2.2-1.79,4-4,4h0c-2.21,0-4-1.8-4-4Zm0-30.01c0-2.2,1.79-4,4-4h0c2.21,0,4,1.8,4,4h0c0,2.21-1.79,4.01-4,4.01h0c-2.21,0-4-1.8-4-4.01Zm0-30c0-2.21,1.79-4,4-4h0c2.21,0,4,1.79,4,4h0c0,2.21-1.79,4-4,4h0c-2.21,0-4-1.79-4-4Zm0-30c0-2.2,1.79-3.99,4-3.99h0c2.21,0,4,1.79,4,3.99h0c0,2.21-1.79,4-4,4h0c-2.21,0-4-1.79-4-4Zm0-29.99c0-2.21,1.79-4,4-4h0c2.21,0,4,1.79,4,4h0c0,2.21-1.79,4-4,4h0c-2.21,0-4-1.79-4-4Zm0-30c0-2.21,1.79-4,4-4h0c2.21,0,4,1.79,4,4h0c0,2.21-1.79,4-4,4h0c-2.21,0-4-1.79-4-4Zm0-30c0-2.21,1.79-4,4-4h0c2.21,0,4,1.79,4,4h0c0,2.21-1.79,4-4,4h0c-2.21,0-4-1.79-4-4Zm0-30c0-2.21,1.79-4.01,4-4.01h0c2.21,0,4,1.8,4,4.01h0c0,2.2-1.79,4-4,4h0c-2.21,0-4-1.8-4-4Zm0-30.01c0-2.2,1.79-4,4-4h0c2.21,0,4,1.8,4,4h0c0,2.21-1.79,4-4,4h0c-2.21,0-4-1.79-4-4Zm0-30c0-2.2,1.79-4,4-4h0c2.21,0,4,1.8,4,4h0c0,2.21-1.79,4-4,4h0c-2.21,0-4-1.79-4-4Zm0-29.99c0-2.21,1.79-4,4-4h0c2.21,0,4,1.79,4,4h0c0,2.2-1.79,3.99-4,3.99h0c-2.21,0-4-1.79-4-3.99Zm0-30c0-2.21,1.79-4,4-4h0c2.21,0,4,1.79,4,4h0c0,2.21-1.79,4-4,4h0c-2.21,0-4-1.79-4-4Zm0-30c0-2.21,1.79-4,4-4h0c2.21,0,4,1.79,4,4h0c0,2.21-1.79,4-4,4h0c-2.21,0-4-1.79-4-4Zm0-30c0-2.21,1.79-4,4-4h0c2.21,0,4,1.79,4,4h0c0,2.21-1.79,4-4,4h0c-2.21,0-4-1.79-4-4Zm0-30.01c0-2.2,1.79-4,4-4h0c2.21,0,4,1.8,4,4h0c0,2.21-1.79,4.01-4,4.01h0c-2.21,0-4-1.8-4-4.01Zm0-30c0-2.21,1.79-4,4-4h0c2.21,0,4,1.79,4,4h0c0,2.21-1.79,4-4,4h0c-2.21,0-4-1.79-4-4Zm0-30c0-2.2,1.79-3.99,4-3.99h0c2.21,0,4,1.79,4,3.99h0c0,2.21-1.79,4-4,4h0c-2.21,0-4-1.79-4-4Zm0-29.99c0-2.21,1.79-4,4-4h0c2.21,0,4,1.79,4,4h0c0,2.2-1.79,4-4,4h0c-2.21,0-4-1.8-4-4Zm0-30c0-2.21,1.79-4,4-4h0c2.21,0,4,1.79,4,4h0c0,2.21-1.79,4-4,4h0c-2.21,0-4-1.79-4-4Zm0-30c0-2.21,1.79-4,4-4h0c2.21,0,4,1.79,4,4h0c0,2.21-1.79,4-4,4h0c-2.21,0-4-1.79-4-4Zm0-30c0-2.21,1.79-4.01,4-4.01h0c2.21,0,4,1.8,4,4.01h0c0,2.2-1.79,4-4,4h0c-2.21,0-4-1.8-4-4Zm0-30.01c0-2.2,1.79-4,4-4h0c2.21,0,4,1.8,4,4h0c0,2.21-1.79,4.01-4,4.01h0c-2.21,0-4-1.8-4-4.01Zm0-30c0-2.21,1.79-4,4-4h0c2.21,0,4,1.79,4,4h0c0,2.21-1.79,4-4,4h0c-2.21,0-4-1.79-4-4Zm0-29.99c0-2.21,1.79-4,4-4h0c2.21,0,4,1.79,4,4h0c0,2.2-1.79,3.99-4,3.99h0c-2.21,0-4-1.79-4-3.99Zm0-30c0-2.21,1.79-4,4-4h0c2.21,0,4,1.79,4,4h0c0,2.21-1.79,4-4,4h0c-2.21,0-4-1.79-4-4Zm0-30c0-2.21,1.79-4,4-4h0c2.21,0,4,1.79,4,4h0c0,2.21-1.79,4-4,4h0c-2.21,0-4-1.79-4-4Zm0-30c0-2.21,1.79-4,4-4h0c2.21,0,4,1.79,4,4h0c0,2.21-1.79,4-4,4h0c-2.21,0-4-1.79-4-4Zm0-30c0-2.21,1.79-4.01,4-4.01h0c2.21,0,4,1.8,4,4.01h0c0,2.2-1.79,4-4,4h0c-2.21,0-4-1.8-4-4Zm0-30.01c0-2.21,1.79-4,4-4h0c2.21,0,4,1.79,4,4h0c0,2.21-1.79,4-4,4h0c-2.21,0-4-1.79-4-4Zm0-30c0-2.2,1.79-4,4-4h0c2.21,0,4,1.8,4,4h0c0,2.21-1.79,4-4,4h0c-2.21,0-4-1.79-4-4Zm0-29.99c0-2.21,1.79-4,4-4h0c2.21,0,4,1.79,4,4h0c0,2.2-1.79,3.99-4,3.99h0c-2.21,0-4-1.79-4-3.99Zm0-30c0-2.21,1.79-4,4-4h0c2.21,0,4,1.79,4,4h0c0,2.21-1.79,4-4,4h0c-2.21,0-4-1.79-4-4Zm0-30c0-2.21,1.79-4,4-4h0c2.21,0,4,1.79,4,4h0c0,2.21-1.79,4-4,4h0c-2.21,0-4-1.79-4-4Zm0-30c0-2.21,1.79-4,4-4h0c2.21,0,4,1.79,4,4h0c0,2.2-1.79,4-4,4h0c-2.21,0-4-1.8-4-4Zm0-30.01c0-2.2,1.79-4,4-4h0c2.21,0,4,1.8,4,4h0c0,2.21-1.79,4.01-4,4.01h0c-2.21,0-4-1.8-4-4.01Zm0-30c0-2.21,1.79-4,4-4h0c2.21,0,4,1.79,4,4h0c0,2.21-1.79,4-4,4h0c-2.21,0-4-1.79-4-4Zm0-30c0-2.2,1.79-3.99,4-3.99h0c2.21,0,4,1.79,4,3.99h0c0,2.21-1.79,4-4,4h0c-2.21,0-4-1.79-4-4Zm0-29.99c0-2.21,1.79-4,4-4h0c2.21,0,4,1.79,4,4h0c0,2.2-1.79,4-4,4h0c-2.21,0-4-1.8-4-4Zm0-30c0-2.21,1.79-4,4-4h0c2.21,0,4,1.79,4,4h0c0,2.21-1.79,4-4,4h0c-2.21,0-4-1.79-4-4Zm0-30c0-2.21,1.79-4,4-4h0c2.21,0,4,1.79,4,4h0c0,2.21-1.79,4-4,4h0c-2.21,0-4-1.79-4-4Zm0-30c0-2.21,1.79-4.01,4-4.01h0c2.21,0,4,1.8,4,4.01h0c0,2.2-1.79,4-4,4h0c-2.21,0-4-1.8-4-4Zm0-30.01c0-2.2,1.79-4,4-4h0c2.21,0,4,1.8,4,4h0c0,2.21-1.79,4-4,4h0c-2.21,0-4-1.79-4-4Zm0-30c0-2.2,1.79-4,4-4h0c2.21,0,4,1.8,4,4h0c0,2.21-1.79,4-4,4h0c-2.21,0-4-1.79-4-4Zm0-29.99c0-2.21,1.79-4,4-4h0c2.21,0,4,1.79,4,4h0c0,2.2-1.79,3.99-4,3.99h0c-2.21,0-4-1.79-4-3.99Zm0-30c0-2.21,1.79-4,4-4h0c2.21,0,4,1.79,4,4h0c0,2.21-1.79,4-4,4h0c-2.21,0-4-1.79-4-4Zm0-30c0-2.21,1.79-4,4-4h0c2.21,0,4,1.79,4,4h0c0,2.21-1.79,4-4,4h0c-2.21,0-4-1.79-4-4Z"/><path class="cls-4" d="m1073.24,1937.84c-1.06,0-2.08-.42-2.83-1.17L105.72,971.97c-1.56-1.56-1.56-4.09,0-5.66L1070.41,1.62c1.5-1.5,4.16-1.5,5.66,0l964.69,964.7c1.56,1.56,1.56,4.09,0,5.66l-964.69,964.7c-.75.75-1.77,1.17-2.83,1.17ZM114.2,969.14l959.04,959.04,959.04-959.04L1073.24,10.1,114.2,969.14Z"/><path class="cls-4" d="m3004.31,1937.39c-1.06,0-2.08-.42-2.83-1.17l-964.7-964.7c-1.56-1.56-1.56-4.09,0-5.66L3001.48,1.17c.75-.75,1.77-1.17,2.83-1.17s2.08.42,2.83,1.17l964.69,964.7c1.56,1.56,1.56,4.09,0,5.66l-964.69,964.7c-.75.75-1.77,1.17-2.83,1.17Zm-959.04-968.7l959.04,959.04,959.04-959.04L3004.31,9.66l-959.04,959.04Z"/><circle class="cls-1" cx="2039" cy="968.92" r="107"/><path class="cls-4" d="m2039,1079.92c-61.21,0-111-49.79-111-111s49.79-111,111-111,111,49.79,111,111-49.79,111-111,111Zm0-214c-56.79,0-103,46.21-103,103s46.21,103,103,103,103-46.21,103-103-46.21-103-103-103Z"/><circle class="cls-1" cx="111" cy="968.92" r="107"/><path class="cls-4" d="m111,1079.92c-61.21,0-111-49.79-111-111s49.79-111,111-111,111,49.79,111,111-49.79,111-111,111Zm0-214c-56.79,0-103,46.21-103,103s46.21,103,103,103,103-46.21,103-103-46.21-103-103-103Z"/><circle class="cls-1" cx="3971" cy="968.92" r="107"/><path class="cls-4" d="m3971,1079.92c-61.21,0-111-49.79-111-111s49.79-111,111-111,111,49.79,111,111-49.79,111-111,111Zm0-214c-56.79,0-103,46.21-103,103s46.21,103,103,103,103-46.21,103-103-46.21-103-103-103Z"/><path class="cls-4" d="m1075.28,2108.78c-2.21,0-4-1.79-4-4v-69.11c0-2.21,1.79-4,4-4s4,1.79,4,4v69.11c0,2.21-1.79,4-4,4Z"/><path class="cls-4" d="m3970.03,2108.78c-2.21,0-4-1.79-4-4v-69.11c0-2.21,1.79-4,4-4s4,1.79,4,4v69.11c0,2.21-1.79,4-4,4Z"/><path class="cls-4" d="m110.37,2108.78c-2.21,0-4-1.79-4-4v-69.11c0-2.21,1.79-4,4-4s4,1.79,4,4v69.11c0,2.21-1.79,4-4,4Z"/><path class="cls-4" d="m2040.2,2108.96c-2.21,0-4-1.79-4-4v-69.29c0-2.21,1.79-4,4-4s4,1.79,4,4v69.29c0,2.21-1.79,4-4,4Z"/><path class="cls-4" d="m3005.12,2108.78c-2.21,0-4-1.79-4-4v-69.11c0-2.21,1.79-4,4-4s4,1.79,4,4v69.11c0,2.21-1.79,4-4,4Z"/><path class="cls-4" d="m3968.45,2039.67H113.55c-2.21,0-4-1.79-4-4s1.79-4,4-4h3854.9c2.21,0,4,1.79,4,4s-1.79,4-4,4Z"/></g></svg>