<?xml version="1.0" encoding="UTF-8"?><svg id="Layer_1" xmlns="http://www.w3.org/2000/svg" viewBox="0 0 300 300"><defs><style>.cls-1{fill:#3b66ef;}</style></defs><path class="cls-1" d="m148.09,24.62v125.66c0,3.22,5,3.22,5,0V24.62c0-3.22-5-3.22-5,0h0Z"/><path class="cls-1" d="m153.62,52.97c4.91-3.07,9.82-6.13,14.73-9.2,2.72-1.7.22-6.03-2.52-4.32-4.91,3.07-9.82,6.13-14.73,9.2-2.72,1.7-.22,6.03,2.52,4.32h0Z"/><path class="cls-1" d="m153.72,75.4c6.87-4.29,13.75-8.58,20.62-12.88,2.72-1.7.22-6.03-2.52-4.32-6.87,4.29-13.75,8.58-20.62,12.88-2.72,1.7-.22,6.03,2.52,4.32h0Z"/><path class="cls-1" d="m153.57,98.12c9.51-5.94,19.03-11.88,28.54-17.82,2.72-1.7.22-6.03-2.52-4.32-9.51,5.94-19.03,11.88-28.54,17.82-2.72,1.7-.22,6.03,2.52,4.32h0Z"/><path class="cls-1" d="m150.33,48.66c-4.91-3.07-9.82-6.13-14.73-9.2-2.74-1.71-5.25,2.62-2.52,4.32,4.91,3.07,9.82,6.13,14.73,9.2,2.74,1.71,5.25-2.62,2.52-4.32h0Z"/><path class="cls-1" d="m150.24,71.08c-6.87-4.29-13.75-8.58-20.62-12.88-2.74-1.71-5.25,2.62-2.52,4.32,6.87,4.29,13.75,8.58,20.62,12.88,2.74,1.71,5.25-2.62,2.52-4.32h0Z"/><path class="cls-1" d="m150.39,93.8c-9.51-5.94-19.03-11.88-28.54-17.82-2.74-1.71-5.25,2.62-2.52,4.32,9.51,5.94,19.03,11.88,28.54,17.82,2.74,1.71,5.25-2.62,2.52-4.32h0Z"/><path class="cls-1" d="m40.45,88.96c36.27,20.94,72.55,41.89,108.82,62.83,2.79,1.61,5.31-2.71,2.52-4.32-36.27-20.94-72.55-41.89-108.82-62.83-2.79-1.61-5.31,2.71-2.52,4.32h0Z"/><path class="cls-1" d="m67.79,98.36c-.2-5.79-.4-11.57-.6-17.36-.11-3.21-5.11-3.22-5,0,.2,5.79.4,11.57.6,17.36.11,3.21,5.11,3.22,5,0h0Z"/><path class="cls-1" d="m87.25,109.49c-.28-8.1-.56-16.2-.84-24.3-.11-3.21-5.11-3.22-5,0,.28,8.1.56,16.2.84,24.3.11,3.21,5.11,3.22,5,0h0Z"/><path class="cls-1" d="m106.85,120.98c-.39-11.21-.77-22.42-1.16-33.63-.11-3.21-5.11-3.22-5,0,.39,11.21.77,22.42,1.16,33.63.11,3.21,5.11,3.22,5,0h0Z"/><path class="cls-1" d="m62.38,99.05c-5.11,2.72-10.22,5.44-15.33,8.16-2.84,1.51-.32,5.83,2.52,4.32,5.11-2.72,10.22-5.44,15.33-8.16,2.84-1.51.32-5.83-2.52-4.32h0Z"/><path class="cls-1" d="m81.75,110.35c-7.15,3.81-14.31,7.62-21.46,11.42-2.84,1.51-.32,5.83,2.52,4.32,7.15-3.81,14.31-7.62,21.46-11.42,2.84-1.51.32-5.83-2.52-4.32h0Z"/><path class="cls-1" d="m101.5,121.58c-9.9,5.27-19.8,10.54-29.71,15.81-2.84,1.51-.32,5.83,2.52,4.32,9.9-5.27,19.8-10.54,29.71-15.81,2.84-1.51.32-5.83-2.52-4.32h0Z"/><path class="cls-1" d="m42.39,214.34c36.27-20.94,72.55-41.89,108.82-62.83,2.79-1.61.27-5.93-2.52-4.32-36.27,20.94-72.55,41.89-108.82,62.83-2.79,1.61-.27,5.93,2.52,4.32h0Z"/><path class="cls-1" d="m64.19,195.39c-5.11-2.72-10.22-5.44-15.33-8.16-2.84-1.51-5.37,2.8-2.52,4.32,5.11,2.72,10.22,5.44,15.33,8.16,2.84,1.51,5.37-2.8,2.52-4.32h0Z"/><path class="cls-1" d="m83.56,184.1c-7.15-3.81-14.31-7.62-21.46-11.42-2.84-1.51-5.37,2.8-2.52,4.32,7.15,3.81,14.31,7.62,21.46,11.42,2.84,1.51,5.37-2.8,2.52-4.32h0Z"/><path class="cls-1" d="m103.3,172.86c-9.9-5.27-19.8-10.54-29.71-15.81-2.84-1.51-5.37,2.8-2.52,4.32,9.9,5.27,19.8,10.54,29.71,15.81,2.84,1.51,5.37-2.8,2.52-4.32h0Z"/><path class="cls-1" d="m62.07,200.4c-.2,5.79-.4,11.57-.6,17.36-.11,3.22,4.89,3.21,5,0,.2-5.79.4-11.57.6-17.36.11-3.22-4.89-3.21-5,0h0Z"/><path class="cls-1" d="m81.53,189.27c-.28,8.1-.56,16.2-.84,24.3-.11,3.22,4.89,3.21,5,0,.28-8.1.56-16.2.84-24.3.11-3.22-4.89-3.21-5,0h0Z"/><path class="cls-1" d="m101.14,177.78c-.39,11.21-.77,22.42-1.16,33.63-.11,3.22,4.89,3.21,5,0,.39-11.21.77-22.42,1.16-33.63.11-3.22-4.89-3.21-5,0h0Z"/><path class="cls-1" d="m151.91,275.38c0-41.89,0-83.77,0-125.66,0-3.22-5-3.22-5,0,0,41.89,0,83.77,0,125.66,0,3.22,5,3.22,5,0h0Z"/><path class="cls-1" d="m146.38,247.03c-4.91,3.07-9.82,6.13-14.73,9.2-2.72,1.7-.22,6.03,2.52,4.32,4.91-3.07,9.82-6.13,14.73-9.2,2.72-1.7.22-6.03-2.52-4.32h0Z"/><path class="cls-1" d="m146.28,224.6c-6.87,4.29-13.75,8.58-20.62,12.88-2.72,1.7-.22,6.03,2.52,4.32,6.87-4.29,13.75-8.58,20.62-12.88,2.72-1.7.22-6.03-2.52-4.32h0Z"/><path class="cls-1" d="m146.43,201.88c-9.51,5.94-19.03,11.88-28.54,17.82-2.72,1.7-.22,6.03,2.52,4.32,9.51-5.94,19.03-11.88,28.54-17.82,2.72-1.7.22-6.03-2.52-4.32h0Z"/><path class="cls-1" d="m149.67,251.34c4.91,3.07,9.82,6.13,14.73,9.2,2.74,1.71,5.25-2.62,2.52-4.32-4.91-3.07-9.82-6.13-14.73-9.2-2.74-1.71-5.25,2.62-2.52,4.32h0Z"/><path class="cls-1" d="m149.76,228.92c6.87,4.29,13.75,8.58,20.62,12.88,2.74,1.71,5.25-2.62,2.52-4.32-6.87-4.29-13.75-8.58-20.62-12.88-2.74-1.71-5.25,2.62-2.52,4.32h0Z"/><path class="cls-1" d="m149.61,206.2c9.51,5.94,19.03,11.88,28.54,17.82,2.74,1.71,5.25-2.62,2.52-4.32-9.51-5.94-19.03-11.88-28.54-17.82-2.74-1.71-5.25,2.62-2.52,4.32h0Z"/><path class="cls-1" d="m259.55,211.04c-36.27-20.94-72.55-41.89-108.82-62.83-2.79-1.61-5.31,2.71-2.52,4.32,36.27,20.94,72.55,41.89,108.82,62.83,2.79,1.61,5.31-2.71,2.52-4.32h0Z"/><path class="cls-1" d="m232.21,201.64c.2,5.79.4,11.57.6,17.36.11,3.21,5.11,3.22,5,0-.2-5.79-.4-11.57-.6-17.36-.11-3.21-5.11-3.22-5,0h0Z"/><path class="cls-1" d="m212.75,190.51c.28,8.1.56,16.2.84,24.3.11,3.21,5.11,3.22,5,0-.28-8.1-.56-16.2-.84-24.3-.11-3.21-5.11-3.22-5,0h0Z"/><path class="cls-1" d="m193.15,179.02c.39,11.21.77,22.42,1.16,33.63.11,3.21,5.11,3.22,5,0-.39-11.21-.77-22.42-1.16-33.63-.11-3.21-5.11-3.22-5,0h0Z"/><path class="cls-1" d="m237.62,200.95c5.11-2.72,10.22-5.44,15.33-8.16,2.84-1.51.32-5.83-2.52-4.32-5.11,2.72-10.22,5.44-15.33,8.16-2.84,1.51-.32,5.83,2.52,4.32h0Z"/><path class="cls-1" d="m218.25,189.65c7.15-3.81,14.31-7.62,21.46-11.42,2.84-1.51.32-5.83-2.52-4.32-7.15,3.81-14.31,7.62-21.46,11.42-2.84,1.51-.32,5.83,2.52,4.32h0Z"/><path class="cls-1" d="m198.5,178.42c9.9-5.27,19.8-10.54,29.71-15.81,2.84-1.51.32-5.83-2.52-4.32-9.9,5.27-19.8,10.54-29.71,15.81-2.84,1.51-.32,5.83,2.52,4.32h0Z"/><path class="cls-1" d="m257.61,85.66c-36.27,20.94-72.55,41.89-108.82,62.83-2.79,1.61-.27,5.93,2.52,4.32,36.27-20.94,72.55-41.89,108.82-62.83,2.79-1.61.27-5.93-2.52-4.32h0Z"/><path class="cls-1" d="m235.81,104.61c5.11,2.72,10.22,5.44,15.33,8.16,2.84,1.51,5.37-2.8,2.52-4.32-5.11-2.72-10.22-5.44-15.33-8.16-2.84-1.51-5.37,2.8-2.52,4.32h0Z"/><path class="cls-1" d="m216.44,115.9c7.15,3.81,14.31,7.62,21.46,11.42,2.84,1.51,5.37-2.8,2.52-4.32-7.15-3.81-14.31-7.62-21.46-11.42-2.84-1.51-5.37,2.8-2.52,4.32h0Z"/><path class="cls-1" d="m196.7,127.14c9.9,5.27,19.8,10.54,29.71,15.81,2.84,1.51,5.37-2.8,2.52-4.32-9.9-5.27-19.8-10.54-29.71-15.81-2.84-1.51-5.37,2.8-2.52,4.32h0Z"/><path class="cls-1" d="m237.93,99.6c.2-5.79.4-11.57.6-17.36.11-3.22-4.89-3.21-5,0-.2,5.79-.4,11.57-.6,17.36-.11,3.22,4.89,3.21,5,0h0Z"/><path class="cls-1" d="m218.47,110.73c.28-8.1.56-16.2.84-24.3.11-3.22-4.89-3.21-5,0-.28,8.1-.56,16.2-.84,24.3-.11,3.22,4.89,3.21,5,0h0Z"/><path class="cls-1" d="m198.86,122.22c.39-11.21.77-22.42,1.16-33.63.11-3.22-4.89-3.21-5,0-.39,11.21-.77,22.42-1.16,33.63-.11,3.22,4.89,3.21,5,0h0Z"/></svg>