<svg id="Layer_1" data-name="Layer 1" xmlns="http://www.w3.org/2000/svg" viewBox="0 0 4800 3000"><defs><style>.cls-1,.cls-12,.cls-8{fill:#fff;}.cls-10,.cls-15,.cls-2,.cls-4,.cls-5,.cls-7{fill:none;}.cls-10,.cls-12,.cls-13,.cls-14,.cls-15,.cls-2,.cls-4,.cls-5,.cls-6,.cls-7,.cls-8{stroke:#3b65ee;stroke-linecap:round;stroke-linejoin:round;}.cls-2{stroke-width:7.54px;}.cls-11,.cls-13,.cls-14,.cls-3,.cls-6,.cls-9{fill:#3b65ee;}.cls-15,.cls-4{stroke-width:4.52px;}.cls-10,.cls-5,.cls-6{stroke-width:3.77px;}.cls-12,.cls-13,.cls-7{stroke-width:4.78px;}.cls-8{stroke-width:4.8px;}.cls-10,.cls-13,.cls-15,.cls-9{opacity:0.2;}.cls-11,.cls-16{opacity:0.1;}.cls-14{stroke-width:4.5px;}</style></defs><title>balloon</title><rect class="cls-1" width="4800" height="3000"/><path class="cls-2" d="M1198.44,716.9c6.85,56.25-32.64,107.33-88.2,114.09s-106.14-33.37-113-89.62,25.68-108,81.23-114.78S1191.6,660.65,1198.44,716.9Z"/><line class="cls-2" x1="952.46" y1="613.16" x2="988.58" y2="643.72"/><line class="cls-2" x1="1121.93" y1="568.71" x2="1119.15" y2="602.05"/><line class="cls-2" x1="1219.17" y1="677.06" x2="1246.95" y2="657.61"/><line class="cls-2" x1="1177.5" y1="838.2" x2="1191.39" y2="857.64"/><line class="cls-2" x1="1021.92" y1="846.53" x2="996.91" y2="874.31"/><line class="cls-2" x1="966.35" y1="743.74" x2="916.34" y2="746.52"/><ellipse class="cls-3" cx="1080.31" cy="692.67" rx="8.63" ry="8.68" transform="translate(-164.93 382.45) rotate(-18.68)"/><ellipse class="cls-3" cx="1104.82" cy="684.38" rx="8.63" ry="8.68" transform="translate(-160.98 389.86) rotate(-18.68)"/><path class="cls-3" d="M1068.84,720.24a3.52,3.52,0,0,0-1.36,5,36.2,36.2,0,0,0,63.62-33.84,3.49,3.49,0,0,0-4.87-1.65Z"/><path class="cls-4" d="M2334.23,1791.19l28.21,117.59a13.86,13.86,0,0,0,10.44,10.31c20.45,4.59,75.85,13.28,144.79-6.5a13.93,13.93,0,0,0,10-12l12.11-125a13.88,13.88,0,0,0-10.89-14.92c-29.1-6.24-106.7-17.71-186.43,14.43A13.88,13.88,0,0,0,2334.23,1791.19Z"/><path class="cls-4" d="M2337.1,1797.81s82.65-30.38,201.85-15.49"/><path class="cls-3" d="M2359.33,1809.64c2.39,7.54,4.35,15.17,6.15,22.82s3.44,15.34,4.92,23,2.82,15.46,3.94,23.25,2.14,15.58,2.7,23.47c-2.4-7.53-4.36-15.16-6.16-22.81s-3.44-15.34-4.92-23.06-2.81-15.46-3.93-23.24S2359.88,1817.53,2359.33,1809.64Z"/><path class="cls-3" d="M2486.33,1864.29a47.84,47.84,0,0,1,1.77,8.85,79.57,79.57,0,0,1,.48,8.86,77.19,77.19,0,0,1-.48,8.85,47,47,0,0,1-1.77,8.85,46.29,46.29,0,0,1-1.78-8.85,77.19,77.19,0,0,1-.48-8.85,79.57,79.57,0,0,1,.48-8.86A47.07,47.07,0,0,1,2486.33,1864.29Z"/><path class="cls-3" d="M2519.47,1801.8c.34,8.12.24,16.21,0,24.29s-.68,16.14-1.27,24.2-1.35,16.09-2.27,24.12-2,16-3.53,24c-.35-8.12-.25-16.21,0-24.29s.68-16.14,1.28-24.2,1.35-16.09,2.27-24.12S2517.94,1809.79,2519.47,1801.8Z"/><path class="cls-5" d="M2349.74,1772.28a128.38,128.38,0,0,0,3.77,20.41"/><path class="cls-5" d="M2385.38,1761.61a150.1,150.1,0,0,0,3.55,23.49"/><line class="cls-5" x1="2433.32" y1="1754.38" x2="2434.84" y2="1779.63"/><path class="cls-5" d="M2480.41,1753.88s.31,11.31-.41,24.14"/><path class="cls-5" d="M2515.92,1758.18a163.11,163.11,0,0,1-.5,21.86"/><ellipse class="cls-3" cx="2441.47" cy="1828.91" rx="8.26" ry="8.22" transform="translate(560.24 4230.3) rotate(-88.76)"/><ellipse class="cls-3" cx="2416.83" cy="1828.38" rx="8.26" ry="8.22" transform="translate(536.66 4205.14) rotate(-88.76)"/><path class="cls-3" d="M2459.76,1850.7a3.34,3.34,0,0,1,2.66,4.12,34.48,34.48,0,0,1-67.47-12.58,3.33,3.33,0,0,1,4-2.89Z"/><path class="cls-5" d="M2341.51,1685l4,13.15a2.68,2.68,0,0,0,3.65,1.67c13.57-6,76.21-30.5,159.26-8.62a2.67,2.67,0,0,0,3.33-2.25l1.86-14.47a2.69,2.69,0,0,0-1.88-2.9c-14.34-4.36-97.45-27-168.93,10.27A2.68,2.68,0,0,0,2341.51,1685Z"/><path class="cls-6" d="M2346.92,1701.07s74.64,20.53,163.69-8.81C2510.61,1692.26,2441,1665.61,2346.92,1701.07Z"/><line class="cls-5" x1="2339.59" y1="1776.75" x2="2346.17" y2="1699.85"/><line class="cls-5" x1="2528.83" y1="1760.56" x2="2511.12" y2="1690.74"/><line class="cls-5" x1="2368.43" y1="1766.13" x2="2368.43" y2="1701.87"/><line class="cls-5" x1="2495.94" y1="1755.5" x2="2489.87" y2="1694.28"/><line class="cls-5" x1="2321.89" y1="1626.99" x2="2341.62" y2="1685.17"/><line class="cls-5" x1="2366.16" y1="1608.01" x2="2383.61" y2="1677.59"/><line class="cls-5" x1="2479.49" y1="1602.45" x2="2469.12" y2="1672.53"/><line class="cls-5" x1="2523.77" y1="1614.85" x2="2513.65" y2="1674.04"/><circle class="cls-4" cx="2383.87" cy="1677.33" r="5.31"/><circle class="cls-4" cx="2469.38" cy="1673.28" r="5.31"/><path class="cls-7" d="M2524.27,1615.35c12.3-36.2,56.31-150.72,140.45-237.8,75.27-77.91,184.68-193.28,206.94-333.44s-46.55-446.26-421-476.11h-58.47c-374.42,29.85-443.23,336-421,476.11s131.67,255.53,206.94,333.44c101.19,104.73,143.7,249.44,143.7,249.44"/><path class="cls-7" d="M2199.78,616.83s191.93-67.55,433.28-4.81"/><path class="cls-7" d="M2258,602.2s-180,190.45-144.05,412.57c37.27,230.4,126.5,283.34,179.62,395.66s72.35,197.36,72.35,197.36"/><line class="cls-7" x1="2422.83" y1="1597.9" x2="2391.99" y2="585.51"/><path class="cls-7" d="M2525.25,591.94C2553.52,616,2714,761.32,2714,955.57c0,198.85-97.9,274.49-163.17,420.21s-71.09,226.92-71.09,226.92"/><path class="cls-7" d="M2392,1601.59s-17-178-66.56-308c-29.08-76.26-147.74-317.24-11.51-700.83"/><path class="cls-7" d="M2451.92,1598.15s12.14-175.07,44-278.28c37.1-120.13,154.76-432.41-31-733.5"/><path class="cls-7" d="M2342.88,1616.15s-42.24-144-127.75-239.61c-73.33-82-393.14-390.65.25-764.29"/><path class="cls-7" d="M2503,1608s48.18-129.27,102.74-219.84c72.86-120.92,233.25-229.71,209-452.33-14.26-130.7-102.35-279.56-242.27-337.36"/><path class="cls-8" d="M2315.49,1607.79s48.3-32.92,106.07-32.92c62.83,0,110.3,19.74,110.3,19.74l-6.61,17.88s-115.82-38.89-204.38,12.47Z"/><path class="cls-1" d="M2378.81,1690.37s55.85,9,99.93-4.63C2478.74,1685.74,2433.45,1678.37,2378.81,1690.37Z"/><path class="cls-5" d="M2343.41,2219.55s-33.21,40.77-40.14,70-6.39,59.89,34.67,65.83,52.36-15.78,56.48-46.88c4.51-34.11-18.93-86.46-28.64-105.61,0,0,8.22-35.15,1.83-37s-11.2,3.63-11.2,3.63-2.72-14.14-9.67-7.92-6.4,17.53-6.4,17.53-15.28,3.59-14.07,9.88,32,14.69,32,14.69Z"/><line class="cls-5" x1="2353.42" y1="2205.56" x2="2368.77" y2="2201.47"/><line class="cls-5" x1="2351.72" y1="2206.87" x2="2370.88" y2="2204.81"/><path class="cls-3" d="M2357.16,2165.26l2.39,17.13-6-16.2a1.9,1.9,0,0,1,3.55-1.33A1.47,1.47,0,0,1,2357.16,2165.26Z"/><path class="cls-3" d="M2360.73,2206.93l-16.39,40.3,12.84-41.57a1.88,1.88,0,0,1,3.6,1.11A.75.75,0,0,1,2360.73,2206.93Z"/><path class="cls-5" d="M2522.44,2132.73s-24.65,59.38-17.85,97.35,36.56,35.54,52.62,33.44,35.93-27.44,26.3-58-48.84-72.46-54.78-75.94c0,0,16.13-11.76,17.65-22.08s-10.66-5-10.66-5,2.59-20.09-9-18.94S2517,2113.44,2522.44,2132.73Z"/><path class="cls-9" d="M2425.78,2059.66s24,47.49,20.68,79.23-28,31.56-41.37,30.81-31.33-20.44-25.25-46.25,35.86-62.78,40.55-66c0,0-14-8.72-15.92-17.14s8.5-4.82,8.5-4.82-3.37-16.41,6.25-16.18S2429.1,2043.41,2425.78,2059.66Z"/><line class="cls-5" x1="2518.06" y1="2129.6" x2="2533.27" y2="2129.12"/><line class="cls-5" x1="2534.97" y1="2130.98" x2="2517.95" y2="2133.68"/><path class="cls-3" d="M2537.45,2102.53l-6.89,14.65,3.32-15.84a1.9,1.9,0,1,1,3.71.78A1.8,1.8,0,0,1,2537.45,2102.53Z"/><path class="cls-3" d="M2527.74,2131.76l6.7,24.7L2524.18,2133a1.89,1.89,0,0,1,3.47-1.52Z"/><line class="cls-5" x1="2378.81" y1="1920.32" x2="2356.8" y2="2169.89"/><line class="cls-5" x1="2522" y1="2086.04" x2="2499.23" y2="1917.3"/><line class="cls-10" x1="2421.97" y1="2020.14" x2="2425.24" y2="1925"/><path class="cls-9" d="M2493.74,2331.82s26.24,24.07,31.13,41.78,2.09,53.06-32,57.88-41.29-24.69-43.8-43.65c-2.75-20.8,18.09-53.59,26.65-65.61,0,0-5.78-21.33-.45-22.66a10.86,10.86,0,0,1,9.13,1.91s2.65-8.76,8.21-5.13,4.78,10.57,4.78,10.57,12.51,1.76,11.33,5.65-26.82,9.93-26.82,9.93Z"/><line class="cls-10" x1="2479.49" y1="2299.17" x2="2464.32" y2="1923.23"/><path class="cls-11" d="M3388.9,707.5l241.73-3.07s-5.77-43.12-42.87-31.24c0,0-61.54-111.68-130.21-13.83C3457.55,659.36,3411,643.65,3388.9,707.5Z"/><path class="cls-12" d="M3470.24,769.55h406.54s-22.67-50.22-78.55-39.69c0,0-8.1-59.93-67.22-51.83,0,0-35.63-74.5-123.91-45.35S3531,728.24,3531,728.24,3480.77,731.48,3470.24,769.55Z"/><path class="cls-13" d="M3745.27,788.29a358.12,358.12,0,0,0-17,38.87l25.11-4s-27.54,40.5-38.88,70.46c0,0,62.36-76.13,78.56-85.84,0,0-21.87-1.62-34.82,1.62,0,0,13.76-18.63,27.53-29.16C3785.76,780.19,3759,782.62,3745.27,788.29Z"/><path class="cls-9" d="M3777.16,665.32l106.5.86s-1.8-20.73-26-16.64c0,0-25.89-29.51-57.49-1.19C3800.16,648.35,3784.51,644.65,3777.16,665.32Z"/><path class="cls-14" d="M2321.43,1627.17s95.17,18.61,202.4-11.64C2523.83,1615.53,2418.53,1569.31,2321.43,1627.17Z"/><path class="cls-15" d="M1997.28,836.24s368.62-208,850.31,4.48"/><path class="cls-15" d="M1986.58,1105s402.93-177.35,868.59,2.87"/><path class="cls-15" d="M2147.71,1345.66s230.84-110.29,547.48,0"/><path class="cls-15" d="M2282,1529.18s122.35-66.12,278.58,0"/><path class="cls-11" d="M3845.81,769.55c-10.43-12.26-30-27.16-60.85-21.34,0,0-7.24-53.63-60.14-46.38,0,0-31.88-66.67-110.87-40.58s-68.11,85.51-68.11,85.51-31.6,2-47.35,22.79Z"/><path class="cls-12" d="M3607.21,736.44s-27.54,56.69-41.31,107.71c0,0,29.16-8.91,47.79-11.34,0,0-37.26,75.32-53.45,121.48,0,0,112.56-136.87,136.05-153.06,0,0-34,1.62-50.21,4,0,0,33.2-44.55,55.07-65.6A499.4,499.4,0,0,0,3607.21,736.44Z"/><path class="cls-11" d="M3478.62,876.37a7.34,7.34,0,0,1-13.28-6.25c1.73-3.67,13.87-12.36,13.91-12.33S3480.34,872.7,3478.62,876.37Z"/><path class="cls-11" d="M3499.3,832.42a7.33,7.33,0,1,1-13.27-6.25c1.72-3.67,13.86-12.36,13.91-12.33S3501,828.75,3499.3,832.42Z"/><path class="cls-11" d="M3515.51,866.89a7.33,7.33,0,0,1-13.27-6.25c1.72-3.67,13.86-12.35,13.91-12.33S3517.24,863.22,3515.51,866.89Z"/><path class="cls-11" d="M3413.35,809.58a7.34,7.34,0,0,1-13.28-6.25c1.73-3.67,13.87-12.35,13.91-12.33S3415.07,805.91,3413.35,809.58Z"/><path class="cls-11" d="M3434,765.63a7.33,7.33,0,0,1-13.27-6.25c1.72-3.66,13.86-12.35,13.91-12.33S3435.76,762,3434,765.63Z"/><path class="cls-11" d="M3814.07,856.13a7.33,7.33,0,1,1-13.27-6.25c1.72-3.67,13.86-12.36,13.91-12.33S3815.8,852.46,3814.07,856.13Z"/><path class="cls-11" d="M3834.76,812.18a7.34,7.34,0,0,1-13.28-6.25c1.73-3.67,13.87-12.35,13.91-12.33S3836.48,808.51,3834.76,812.18Z"/><path class="cls-11" d="M3450.24,800.1a7.33,7.33,0,1,1-13.27-6.25c1.72-3.66,13.86-12.35,13.91-12.33S3452,796.44,3450.24,800.1Z"/><path class="cls-11" d="M3536.2,822.94a7.34,7.34,0,0,1-13.28-6.25c1.73-3.66,13.86-12.35,13.91-12.33S3537.92,819.27,3536.2,822.94Z"/><path class="cls-11" d="M3536.8,900.15a7.33,7.33,0,1,1-13.27-6.25c1.72-3.67,13.86-12.36,13.91-12.33S3538.53,896.48,3536.8,900.15Z"/><path class="cls-11" d="M3655.2,893.06a7.34,7.34,0,1,1-13.28-6.24c1.73-3.67,13.87-12.36,13.92-12.34S3656.93,889.4,3655.2,893.06Z"/><path class="cls-11" d="M3692.09,883.59a7.33,7.33,0,1,1-13.27-6.25c1.72-3.67,13.86-12.36,13.91-12.33S3693.82,879.92,3692.09,883.59Z"/><path class="cls-11" d="M3671.41,927.53a7.34,7.34,0,1,1-13.28-6.24c1.73-3.67,13.87-12.36,13.92-12.34S3673.14,923.87,3671.41,927.53Z"/><path class="cls-9" d="M1536.47,1411.08s17.56-61.88,63.73-81.66c0,0-60.6,14.94-68.84,54.53,0,0-25-24.17-70.19-23.08C1461.17,1360.87,1526.91,1391.3,1536.47,1411.08Z"/><path class="cls-9" d="M1615.35,1291.19s24.73-59.37,72.92-73.57c0,0-62,7.69-74.8,46,0,0-22-27-67-31.19C1546.49,1232.45,1608.18,1270.42,1615.35,1291.19Z"/><path class="cls-9" d="M1486.41,1321.63s3.12-42.35,30.34-61.28c0,0-37.2,17.72-37.26,44.41,0,0-19.4-12.29-48.45-5.58C1431,1299.18,1477.59,1310.11,1486.41,1321.63Z"/><path class="cls-9" d="M2875.23,1711s26.26-17.47,49.77-10.13c0,0-27.35-13.74-43-1.61,0,0-1.63-17-18.81-31C2863.16,1668.27,2878,1700.56,2875.23,1711Z"/><path class="cls-9" d="M2814.37,1688.26s12.81-16.41,29.06-16.71c0,0-20-2.91-27.28,8,0,0-4.56-10.3-18.24-15.48C2797.91,1664,2813.91,1681.17,2814.37,1688.26Z"/><g class="cls-16"><path class="cls-3" d="M2392.32,585.51c3.12,20.54,5.69,41.09,8.09,61.65s4.56,41.13,6.62,61.69c4,41.14,7.34,82.31,10.33,123.48,5.81,82.34,9.69,164.75,12.17,247.19S2433,1244.46,2432,1327c-.54,41.27-1.41,82.56-3,123.87-.45,10.32-.84,20.65-1.34,31s-1,20.66-1.64,31c-1.19,20.67-2.55,41.34-4.47,62-3.13-20.53-5.72-41.09-8.12-61.65-1.25-10.27-2.33-20.56-3.47-30.84s-2.11-20.56-3.17-30.85c-4.05-41.14-7.36-82.3-10.34-123.47-5.8-82.35-9.68-164.75-12.11-247.2s-3.39-164.94-2.44-247.48c.54-41.28,1.41-82.57,3-123.87.83-20.66,1.75-41.31,3-62S2390.42,606.2,2392.32,585.51Z"/></g><g class="cls-16"><path class="cls-3" d="M2258,602.2c-6.8,9.31-13.25,18.79-19.49,28.39s-12.26,19.3-18.09,29.09c-11.59,19.61-22.43,39.56-32.21,59.92-19.62,40.66-35.54,82.77-45.68,125.84a458.37,458.37,0,0,0-10.69,65q-1.5,16.32-1.67,32.62t1.06,32.48c.24,2.69.39,5.39.69,8.07l.85,8,1.07,8c.32,2.68.83,5.33,1.24,8l.65,4,.78,4.14,1.51,8.26,1.52,8.27,1.7,8.21c1.15,5.47,2.17,11,3.46,16.4l1.85,8.16c.61,2.72,1.21,5.44,1.92,8.13,1.37,5.4,2.63,10.82,4.05,16.2s2.9,10.72,4.41,16.06a619.3,619.3,0,0,0,49.15,122.75l3.93,7.32,4.08,7.25c1.34,2.42,2.72,4.84,4.14,7.24s2.77,4.82,4.21,7.22q8.58,14.37,17.68,28.71c12.11,19.14,24.81,38.41,36.75,58.61,6,10.05,11.69,20.46,17.09,31,1.33,2.66,2.7,5.28,4,8l3.82,8.06c1.27,2.68,2.43,5.43,3.62,8.16l1.77,4.1,1.63,4c8.91,21.45,16.89,43.26,24.28,65.23q5.46,16.5,10.38,33.16c3.2,11.13,6.33,22.26,9.08,33.5,5.57,22.44,10.47,45.06,13.41,68-7.84-21.68-16.46-42.91-25.36-64-4.5-10.51-9-21-13.74-31.38s-9.42-20.75-14.39-31l-3.65-7.71-3.75-7.66c-2.5-5.1-4.95-10.22-7.58-15.27l-7.69-15.19-7.9-15.07-2-3.76-2-3.62c-1.37-2.4-2.63-4.85-4-7.24l-4.18-7.16c-1.39-2.39-2.89-4.73-4.33-7.09-5.86-9.42-12-18.66-18.44-27.86-12.82-18.4-26.5-36.65-39.95-55.57s-26.56-38.56-38.4-59.15a551.47,551.47,0,0,1-31.66-63.95l-1.74-4.11-1.63-4.15-3.24-8.32c-1.11-2.76-2.08-5.56-3.1-8.35l-3-8.39c-1.93-5.61-3.72-11.26-5.59-16.9s-3.42-11.33-5.12-17-3.08-11.41-4.62-17.11-2.82-11.46-4.21-17.19c-.71-2.86-1.32-5.74-1.93-8.62l-1.84-8.63c-1.28-5.75-2.33-11.53-3.4-17.3l-1.61-8.66-1.43-8.68-1.41-8.67-.69-4.34-.62-4.5c-.38-3-.86-6-1.15-9l-.94-9.06-.68-9.07c-.23-3-.3-6.06-.46-9.08a390.1,390.1,0,0,1,3.81-72.21A436.06,436.06,0,0,1,2108.34,836c14.43-45.33,35.28-88,60.58-127.2a590,590,0,0,1,41.24-56.31q11.07-13.43,23-26.07C2241.12,618,2249.26,609.77,2258,602.2Z"/></g><g class="cls-16"><path class="cls-3" d="M2525.25,591.94c19.31,13.3,37.35,28.49,54.55,44.6,8.65,8,16.88,16.48,25,25,4,4.34,8.06,8.67,11.93,13.16,1.95,2.23,3.92,4.44,5.85,6.7l5.73,6.81,2.86,3.42,2.76,3.49,5.52,7c1.83,2.34,3.59,4.74,5.39,7.12s3.61,4.74,5.33,7.17l5.17,7.3,2.57,3.67,2.47,3.74c3.3,5,6.64,9.94,9.74,15.07l4.74,7.65c1.54,2.57,3,5.18,4.51,7.79s3,5.2,4.42,7.85l4.22,8c2.89,5.29,5.45,10.75,8.1,16.18l2,4.08c.65,1.36,1.24,2.76,1.85,4.14l3.63,8.32a407.15,407.15,0,0,1,22.61,69.41,367.41,367.41,0,0,1,9.13,73.15c.18,3.12.09,6.08.12,9.12V971c0,3-.09,6-.2,9.07l-.31,9.08c-.06,1.52-.08,3-.18,4.55l-.31,4.54-.64,9.09c-.18,3-.53,6.05-.84,9.08l-.95,9.08-.24,2.28-.32,2.26-.64,4.53-1.3,9.06c-.49,3-1.05,6-1.58,9s-1,6-1.66,9c-2.51,12-5.29,23.92-8.76,35.67-.86,2.94-1.68,5.89-2.61,8.81l-2.86,8.72-1.44,4.36-1.56,4.31-3.14,8.61c-4.46,11.36-9.12,22.64-14.33,33.58a693.42,693.42,0,0,1-34.24,63.25q-4.59,7.59-9.23,15.1l-9.35,14.9-18.68,29.45c-6.16,9.77-12.32,19.5-18.25,29.29-3,4.88-5.88,9.8-8.84,14.71s-5.78,9.84-8.56,14.81-5.58,9.93-8.26,14.94l-4.06,7.51-3.9,7.58c-2.64,5-5.11,10.25-7.64,15.41s-5.08,10.34-7.63,15.51l-7.33,15.65-3.67,7.84-3.55,7.88-7.1,15.78-6.78,15.92c-2.35,5.28-4.44,10.65-6.64,16l-3.26,8-3.14,8.07c-2.08,5.39-4.24,10.77-6.17,16.21s-4.05,10.85-5.89,16.33l-2.85,8.21c-.94,2.74-1.79,5.5-2.72,8.25-1.88,5.5-3.52,11-5.24,16.6s-3.28,11.15-4.77,16.78-2.95,11.27-4.1,17c-.07-2.93,0-5.86.07-8.8s.24-5.87.48-8.8c.37-5.87,1-11.71,1.61-17.57s1.46-11.68,2.39-17.49c.44-2.91.86-5.83,1.38-8.72l1.57-8.69c1-5.82,2.22-11.57,3.44-17.34s2.57-11.5,3.9-17.24c.68-2.87,1.33-5.75,2.06-8.6l2.27-8.54c1.53-5.69,3-11.43,4.65-17.07,6.39-22.72,14-45,22-67.24,2.09-5.51,4.14-11,6.29-16.52s4.19-11,6.54-16.52l3.42-8.28,3.58-8.2c2.34-5.5,4.93-10.86,7.44-16.26,10.16-21.56,21.47-42.42,33-62.91s23.27-40.5,34.43-60.5c22.35-40,41.8-80.17,53.89-122.69,3.18-10.57,5.69-21.33,8.05-32.13.61-2.69,1.06-5.43,1.59-8.14s1-5.43,1.54-8.16l1.26-8.22.64-4.1.33-2.06.26-2.06,1-8.28c.33-2.75.72-5.51.92-8.29l.76-8.32.39-4.17c.13-1.38.18-2.78.28-4.17l.51-8.37c.18-2.79.37-5.58.41-8.39l.26-8.41c.07-2.78.26-5.64.18-8.34.55-43.79-7.49-87.82-22-130.15l-2.8-7.92c-.48-1.32-.91-2.65-1.4-4l-1.52-3.93c-2-5.23-4-10.51-6.28-15.66l-3.31-7.78c-1.12-2.59-2.36-5.12-3.54-7.69l-3.55-7.7-3.76-7.62c-5-10.2-10.49-20.13-16.05-30.08-1.37-2.5-2.87-4.93-4.3-7.4s-2.87-4.94-4.37-7.37l-4.53-7.28-2.26-3.65-2.33-3.61-4.66-7.23c-1.57-2.4-3.2-4.76-4.8-7.15-3.16-4.79-6.56-9.42-9.82-14.18q-10-14.06-20.69-27.76C2556.28,626.78,2541.26,609,2525.25,591.94Z"/></g><g class="cls-16"><path class="cls-3" d="M2392,1601.59q-7-31.77-14.34-63.25c-1.25-5.24-2.52-10.48-3.72-15.72s-2.54-10.47-3.8-15.69c-2.48-10.47-5.17-20.87-7.76-31.28l-4-15.57c-1.34-5.19-2.67-10.37-4.14-15.52s-2.83-10.32-4.22-15.48c-.67-2.58-1.41-5.15-2.17-7.71l-2.23-7.69c-5.83-20.53-12.25-40.81-19-60.87l-1.24-3.77-1.36-3.72-2.68-7.45c-1.81-4.95-3.51-9.95-5.38-14.85l-5.79-14.62-2.88-7.31-3.05-7.21c-4.18-9.72-8.58-19.7-12.78-29.77s-8.38-20.28-12.24-30.61q-11.77-30.91-21-62.91T2242.67,1106c-1-5.44-1.94-10.9-2.92-16.36s-1.79-10.93-2.62-16.4c-1.72-11-2.91-22-4.2-33-.58-5.5-1-11-1.48-16.53l-.71-8.27c-.23-2.76-.32-5.52-.48-8.28l-.88-16.57c-.22-5.52-.28-11.05-.41-16.58-.37-11-.06-22.09.07-33.12l.05-4.14.18-4.14.38-8.26c.27-5.51.48-11,.82-16.52l1.33-16.48c.46-5.48.83-11,1.54-16.44l1.91-16.39c.34-2.73.6-5.46,1-8.18l1.24-8.15a874,874,0,0,1,28.95-128l4.89-15.61,1.23-3.9,1.33-3.86,2.72-7.72,5.47-15.38c.94-2.56,1.79-5.13,2.79-7.67l3-7.58c2-5.05,4-10.11,6.07-15.13s4-10.08,6.31-15c4.48-9.91,8.94-19.79,13.63-29.57-2.23,10.65-4.69,21.18-7.12,31.7-1.31,5.22-2.32,10.54-3.44,15.81s-2.25,10.54-3.38,15.8l-1.69,7.88-1.54,7.92-3,15.82-1.54,7.89-.78,3.94-.67,4-2.66,15.84A1269.11,1269.11,0,0,0,2272.89,846l-.57,7.92c-.18,2.64-.25,5.29-.39,7.93l-.73,15.84c-.32,5.27-.37,10.56-.48,15.83l-.33,15.83c0,5.27.05,10.54.06,15.81l0,7.9v4l.13,4,.5,15.78c.08,5.26.44,10.51.74,15.76s.57,10.5.91,15.74l1.3,15.7c.23,2.62.4,5.24.67,7.85l.83,7.83c.59,5.21,1.07,10.44,1.73,15.64l2.05,15.6.51,3.9c.17,1.3.4,2.59.6,3.89l1.23,7.76c1.48,10.39,3.5,20.68,5.36,31a932.54,932.54,0,0,0,32.4,121.61l2.54,7.49,2.65,7.47c1.71,5,3.57,10,5.36,15l11.21,30.29c.94,2.62,1.89,5.24,2.8,7.87l2.57,7.92,5.12,15.83c1.61,5.29,3,10.62,4.54,15.92l2.22,8,1.1,4,1,4a1049.56,1049.56,0,0,1,23.54,128.88c2.48,21.62,4.59,43.24,6,64.91S2392.3,1579.88,2392,1601.59Z"/></g><g class="cls-16"><path class="cls-3" d="M2451.92,1598.15c-.91-21.87-.78-43.73-.26-65.59.15-5.46.26-10.93.49-16.39l.71-16.4c.21-5.47.62-10.92.94-16.38l.5-8.2.6-8.19c1.57-21.85,3.87-43.69,6.69-65.53.78-5.46,1.5-10.93,2.31-16.38l.61-4.09.69-4.1,1.4-8.18c1.75-10.92,4.06-21.85,6.33-32.77,2.64-10.88,5.3-22,8.31-32.44l8.9-31.36c3-10.39,5.86-20.77,8.73-31.12s5.61-20.72,8.3-31.08c10.68-41.46,19.75-83.11,26.35-125.06a980.64,980.64,0,0,0,11.87-126.45c.51-21.14.31-42.3-.71-63.43s-2.95-42.21-5.64-63.23l-.5-3.95-.57-3.93-1.12-7.87c-.78-5.25-1.66-10.48-2.51-15.72s-1.85-10.46-2.91-15.66-2-10.45-3.19-15.63l-1.7-7.8c-.55-2.61-1.23-5.18-1.84-7.77l-1.87-7.78-2-7.74c-.68-2.58-1.3-5.18-2-7.75l-2.16-7.72c-1.38-5.17-3-10.24-4.53-15.39l-1.15-3.85-1.22-3.83-2.46-7.66c-1.62-5.12-3.49-10.14-5.17-15.26s-3.65-10.11-5.47-15.19l-5.78-15.12c-7.92-20.1-16.69-40-25.95-59.79a513.92,513.92,0,0,1,37.25,54.21c2.77,4.75,5.6,9.48,8.29,14.29s5.33,9.65,7.89,14.54q7.67,14.67,14.55,29.79a612.92,612.92,0,0,1,41.23,126.59,666.84,666.84,0,0,1,10.38,66.12c1.1,11.11,2.11,22.24,2.67,33.38s1,22.31,1.13,33.47a803.25,803.25,0,0,1-10.14,133.17,1006.63,1006.63,0,0,1-29.73,129.47c-6.26,21.15-13.17,42.06-20.31,62.73l-10.82,30.77c-3.72,10.24-6.77,20.09-10.09,30.1-2.88,10.19-6.1,20.29-8.68,30.67-2.83,10.29-5.23,20.75-7.85,31.16-1.3,5.22-2.42,10.48-3.63,15.73s-2.4,10.5-3.53,15.78l-3.46,15.82c-1.12,5.29-2.14,10.6-3.28,15.89-4.4,21.2-8.58,42.49-12.67,63.85Z"/></g><g class="cls-16"><path class="cls-3" d="M2342.88,1616.15q-7.08-16.65-14.78-32.91c-5.07-10.87-10.37-21.6-15.77-32.26-10.85-21.28-22.36-42.14-34.65-62.38a686.75,686.75,0,0,0-39.5-58.46l-5.34-6.93-5.47-6.8c-1.79-2.29-3.68-4.49-5.54-6.71s-3.7-4.47-5.64-6.6l-5.76-6.47-5.91-6.28c-3.92-4.17-8.13-8.39-12.31-12.67-8.41-8.52-16.89-17.23-25.25-26.09s-16.59-17.92-24.65-27.16a727.83,727.83,0,0,1-45.78-58c-28.58-40.36-53-84.44-70-131.86-2.06-6-4.15-11.88-6-17.93s-3.58-12.09-5.29-18.16c-3.12-12.24-6-24.55-8-37a394.14,394.14,0,0,1-5.68-75.71c0-3.16.17-6.33.34-9.49l.48-9.49.86-9.46c.29-3.15.55-6.3,1-9.43.82-6.27,1.54-12.55,2.73-18.76.55-3.11,1.07-6.23,1.64-9.33l2-9.25a408.67,408.67,0,0,1,22.78-71.65l3.75-8.57,1.89-4.27,1-2.14,1-2.09,4.11-8.38c1.39-2.78,2.68-5.61,4.19-8.32l4.4-8.2c1.48-2.72,2.88-5.49,4.48-8.13l4.7-8,2.36-4,1.19-2,1.25-1.95c3.34-5.19,6.62-10.41,10-15.54s7-10.13,10.53-15.15l11-14.71c1.81-2.47,3.8-4.8,5.7-7.2l5.77-7.13,2.9-3.55c1-1.17,2-2.31,3-3.46l6-6.91,6-6.88,6.23-6.68c8.24-9,16.87-17.52,25.53-26a708.21,708.21,0,0,1,54.92-47.36c-15.57,18.46-30.93,36.88-45.54,55.78-7.12,9.6-14.44,19-21.19,28.78l-5.17,7.24-5,7.37-5,7.37c-.82,1.23-1.67,2.44-2.46,3.69l-2.36,3.75a619.23,619.23,0,0,0-35.08,61.13l-1,1.94-.94,2-1.86,4-3.76,7.89c-1.31,2.61-2.39,5.31-3.57,8l-3.49,8c-1.21,2.64-2.19,5.37-3.27,8.06l-3.18,8.08-.8,2-.71,2-1.45,4.08-2.92,8.15c-1.82,5.47-3.47,11-5.25,16.46l-2.3,8.3-1.16,4.15c-.38,1.38-.78,2.75-1.09,4.15l-2,8.36-1,4.17c-.35,1.39-.58,2.8-.87,4.2-1.09,5.61-2.33,11.19-3.16,16.83l-1.38,8.43L2047.4,935l-.53,4.24-.26,2.11-.19,2.13-.75,8.48c-.3,2.83-.42,5.66-.56,8.5l-.44,8.5-.14,8.5c0,2.83-.12,5.66,0,8.5a385.25,385.25,0,0,0,6.72,67.56,429.62,429.62,0,0,0,17.9,65.8c15.4,43,37.12,84.06,62.73,122.88q9.63,14.55,19.91,28.76c6.89,9.43,13.93,18.8,21.21,28,14.49,18.53,29.75,36.44,45.38,54.71,3.9,4.6,7.87,9.16,11.78,14.09l5.87,7.33,5.63,7.47c7.38,10,14.48,20.22,20.91,30.76,1.67,2.6,3.22,5.27,4.81,7.91s3.19,5.27,4.69,8l4.56,8,4.36,8.11c5.7,10.86,11.19,21.79,16.25,32.9a694,694,0,0,1,26.66,67.88q5.79,17.24,10.6,34.74C2337.65,1592.56,2340.62,1604.28,2342.88,1616.15Z"/></g><g class="cls-16"><path class="cls-3" d="M2503,1608c6.45-24.11,14.05-47.88,22.18-71.48s17-47,26.5-70.16c2.37-5.8,4.8-11.57,7.34-17.31l3.77-8.62,1.89-4.32,2-4.28c2.63-5.72,5.23-11.44,8-17.11l8.38-17c2.95-5.6,5.86-11.24,8.87-16.83,1.53-2.8,3.19-5.59,4.79-8.39l2.41-4.2,2.52-4.11,5.06-8.2,5.24-8,2.63-4,2.7-3.93,5.42-7.85c14.62-20.7,30-40.48,45-60.09s29.89-39.06,43.8-58.84a623.86,623.86,0,0,0,37.86-60.85l2.13-3.89,2-4,4-7.89c.68-1.31,1.3-2.64,1.9-4l1.84-4,3.67-8,3.35-8.11,1.69-4c.28-.68.58-1.35.84-2l.75-2,3-8.22,1.51-4.11,1.32-4.17c1.74-5.55,3.67-11.06,5.06-16.7l2.29-8.42c.41-1.4.67-2.83,1-4.25l.93-4.26,1.91-8.51,1.49-8.59c.48-2.87,1-5.73,1.46-8.61l1.05-8.67a381.31,381.31,0,0,0,1.81-70.11c-.63-11.82-1.94-23.38-3.65-35-1.9-11.6-4.14-23.19-7-34.68-.68-2.88-1.5-5.73-2.22-8.6l-1.13-4.3-1.24-4.27-2.52-8.54-2.75-8.47c-.88-2.85-1.9-5.64-2.89-8.44s-1.95-5.63-3-8.4l-3.23-8.34c-1-2.8-2.26-5.52-3.39-8.28-2.23-5.54-4.79-10.93-7.21-16.4-1.22-2.74-2.58-5.4-3.87-8.1s-2.58-5.4-4-8l-4.16-8c-1.41-2.64-2.91-5.23-4.36-7.85l-2.2-3.93c-.74-1.31-1.52-2.58-2.28-3.88l-4.58-7.75-4.81-7.62-2.41-3.81-2.52-3.74-5.07-7.47-5.27-7.33L2706,715l-2.74-3.59-5.51-7.19-5.73-7-2.88-3.51-3-3.42-5.95-6.86-6.18-6.66-3.1-3.33-3.2-3.21-6.42-6.48-6.62-6.26c-1.11-1.05-2.2-2.11-3.33-3.14l-3.42-3-6.88-6-7.06-5.83c-1.19-1-2.36-2-3.56-2.9l-3.65-2.78-7.31-5.58-7.51-5.34c-1.26-.88-2.51-1.8-3.78-2.66l-3.86-2.52-7.75-5.1-7.94-4.8-4-2.42-4.06-2.25-8.15-4.59,8.91,2.88,4.45,1.48,4.39,1.66,8.78,3.38,8.64,3.76,4.32,1.91c1.42.66,2.82,1.38,4.24,2.07l8.48,4.19c2.79,1.47,5.54,3,8.31,4.54l4.15,2.29c1.38.79,2.71,1.63,4.07,2.44l8.13,4.92c2.68,1.7,5.28,3.49,7.93,5.25l4,2.64c1.3.9,2.57,1.85,3.87,2.77l7.73,5.59c2.53,1.93,5,3.9,7.52,5.87l3.75,3,3.65,3.08,7.29,6.19,7.09,6.44,3.54,3.23,3.41,3.36,6.83,6.73,6.6,7,3.3,3.48,3.19,3.59c2.12,2.39,4.26,4.78,6.36,7.2l6.1,7.42,3.05,3.73,2.94,3.8,5.86,7.64,5.64,7.8c.93,1.31,1.91,2.59,2.8,3.92l2.67,4c1.78,2.68,3.6,5.33,5.33,8l5.12,8.17c1.74,2.71,3.33,5.51,5,8.28s3.29,5.54,4.83,8.37c3.09,5.65,6.19,11.3,9,17.1a441.19,441.19,0,0,1,28.64,72.07q5.52,18.71,9.37,37.94a382,382,0,0,1,5.48,38.84,394.19,394.19,0,0,1-.22,78.54l-1.08,9.83c-.46,3.26-1,6.51-1.54,9.77l-1.59,9.76-2,9.68-1.05,4.84c-.36,1.61-.66,3.23-1.12,4.82l-2.54,9.55c-1.58,6.41-3.7,12.65-5.68,18.93l-1.52,4.7-1.71,4.63-3.43,9.24-.86,2.31c-.3.77-.63,1.52-1,2.28l-1.9,4.53-3.83,9.06-4.17,8.88-2.1,4.43c-.69,1.48-1.39,3-2.16,4.39l-4.51,8.68-2.26,4.33-2.4,4.24a586,586,0,0,1-42.3,64.54c-15.26,20.39-31.39,39.78-47.52,58.78s-32.33,37.56-47.71,56.41l-5.66,7.11-2.85,3.55-2.76,3.58-5.52,7.17-5.31,7.26-2.64,3.64-2.52,3.69c-1.68,2.47-3.39,4.89-5,7.41-3.26,5.13-6.6,10.22-9.9,15.34l-9.59,15.62c-1.62,2.59-3.12,5.28-4.68,7.92l-4.68,7.92-2.35,4-2.28,4-4.57,8c-1.5,2.69-3.07,5.34-4.53,8l-4.47,8.09C2547.72,1519.16,2525.28,1563.42,2503,1608Z"/></g><path class="cls-11" d="M2307.47,2315.86s62.23,12.65,73.36-55.15c0,0,13.66,66.28-12.14,80.45S2311,2345.21,2307.47,2315.86Z"/><path class="cls-11" d="M2512.64,2206.83s19.22,52.62,60.71,34.4c0,0-15,24.87-44.52,12.65C2508.08,2245.28,2512.64,2206.83,2512.64,2206.83Z"/><path class="cls-9" d="M1011.61,745.29s69.82,91.58,163.43,33.9c0,0-39.47,56.16-97.65,38.46S1011.61,745.29,1011.61,745.29Z"/></svg>