<svg width="144" height="267" viewBox="0 0 144 267" fill="none" xmlns="http://www.w3.org/2000/svg">
<path opacity="0.38" d="M121.819 257.94C121.819 271.15 94.5694 264.84 60.9494 264.84C27.3294 264.84 -1.72057 272.83 0.0794332 257.94C1.87943 243.05 27.3294 251.66 60.9494 251.66C94.5694 251.66 121.819 244.72 121.819 257.94Z" fill="#D1DAED"/>
<path d="M141.449 11.5006C140.919 11.2206 140.239 11.3406 139.809 11.7306L134.139 16.8706C134.139 16.8706 137.419 9.54058 138.659 6.76058C138.929 6.16058 138.669 5.46057 138.039 5.13057L138.009 5.11058C137.299 4.73058 136.379 4.98058 136.009 5.64058L130.839 14.8406C130.839 14.8406 133.039 6.72057 133.909 3.53057C134.099 2.84057 133.599 2.16057 132.819 2.03057L132.789 2.02059C132.139 1.91059 131.499 2.25058 131.299 2.82058L127.169 14.0306L126.969 3.56057C126.959 2.88057 126.299 2.33056 125.509 2.40056C124.889 2.46056 124.419 2.92057 124.339 3.47057L122.469 15.3906C122.419 15.6906 122.249 15.9706 121.969 16.1606C121.289 16.6306 120.349 16.3606 119.969 15.6706L118.339 12.7606C117.709 11.6306 116.329 11.0006 114.939 11.2006C114.489 11.2706 114.209 11.6906 114.379 12.0806L118.209 20.9406C118.419 21.4206 118.669 21.8906 118.959 22.3406L120.659 24.9606C120.749 25.0906 120.819 25.2206 120.899 25.3606C121.489 26.4706 121.539 27.7606 121.199 28.9506L115.059 44.8006L98.7891 54.9506V74.3706L123.129 55.3706C124.979 53.9206 126.319 52.0206 126.979 49.9006C129.429 41.9906 135.499 22.3206 135.759 21.4306C136.119 20.6906 136.559 19.9806 137.079 19.3206L141.899 13.1906C142.299 12.6506 142.129 11.8606 141.449 11.5006Z" fill="#D1DAED" stroke="#9CAFEE" stroke-width="2.5" stroke-miterlimit="10" stroke-linecap="round" stroke-linejoin="round"/>
<path d="M119.156 34.1604L130.306 39.0204C132.836 30.8404 135.546 22.0404 135.716 21.4504C136.076 20.7104 136.516 20.0003 137.036 19.3403L141.856 13.2103C142.296 12.6603 142.126 11.8704 141.446 11.5104C140.916 11.2304 140.236 11.3504 139.806 11.7404L134.136 16.8804C134.136 16.8804 137.416 9.55037 138.656 6.77037C138.926 6.17037 138.666 5.47037 138.036 5.14037L138.006 5.12035C137.296 4.74035 136.376 4.99035 136.006 5.65035L130.836 14.8504C130.836 14.8504 133.036 6.73036 133.906 3.54036C134.096 2.85036 133.596 2.17036 132.816 2.04036L132.786 2.03035C132.136 1.92035 131.496 2.26037 131.296 2.83037L127.166 14.0404L126.966 3.57036C126.956 2.89036 126.296 2.34036 125.506 2.41036C124.886 2.47036 124.416 2.93036 124.336 3.48036L122.466 15.4003C122.416 15.7003 122.246 15.9804 121.966 16.1704C121.286 16.6404 120.346 16.3703 119.966 15.6803L118.346 12.7704C117.716 11.6404 116.336 11.0103 114.946 11.2103C114.496 11.2803 114.216 11.7003 114.386 12.0904L118.216 20.9504C118.426 21.4304 118.676 21.9004 118.966 22.3504L120.666 24.9704C120.756 25.1004 120.826 25.2303 120.906 25.3703C121.496 26.4803 121.546 27.7703 121.206 28.9603L119.156 34.1604Z" fill="white" stroke="#9CAFEE" stroke-width="2.5" stroke-miterlimit="10" stroke-linecap="round" stroke-linejoin="round"/>
<path d="M31.008 235.411L31.218 240.311C31.398 244.441 29.588 248.411 26.358 250.991C24.418 252.541 22.078 253.491 19.608 253.741L15.138 254.201C12.528 254.471 10.318 256.411 9.93799 259.011C9.78799 260.071 9.96804 261.071 10.858 261.681C12.948 263.121 35.458 257.871 45.178 255.521C47.668 254.921 49.248 252.471 48.768 249.961L45.868 234.461L31.008 235.411Z" fill="#7B99FB" stroke="#9CAFEE" stroke-width="2.5" stroke-miterlimit="10" stroke-linecap="round" stroke-linejoin="round"/>
<path d="M86.1556 235.541L86.1456 240.441C86.1356 244.581 88.1056 248.471 91.4456 250.911C93.4456 252.371 95.8256 253.231 98.2956 253.381L103.376 253.691C106.766 253.901 109.036 257.451 107.586 260.521C107.516 260.661 107.446 260.811 107.366 260.951C105.556 264.141 82.2956 258.781 72.5656 256.381C70.1656 255.791 68.6056 253.471 68.9656 251.021L71.2556 235.201L86.1556 235.541Z" fill="#7B99FB" stroke="#9CAFEE" stroke-width="2.5" stroke-miterlimit="10" stroke-linecap="round" stroke-linejoin="round"/>
<path d="M58.715 57.9315L67.295 55.7916L66.835 45.3516L58.465 47.1616L50.085 45.3516L49.625 55.7916L58.215 57.9315V58.0516L58.465 57.9916L58.715 58.0516V57.9315Z" fill="#D1DAED"/>
<path d="M58.7119 57.9313L62.8719 56.6613C64.2919 56.2313 65.7319 55.7813 67.1919 55.3813L66.8619 55.8213C66.5819 52.3413 66.3519 48.8613 66.1519 45.3813L66.9719 46.0114C64.1919 46.6714 61.4019 47.2714 58.6119 47.8914C58.5019 47.9114 58.3919 47.9114 58.2919 47.8914C55.5019 47.2714 52.7119 46.6714 49.9319 46.0214L50.7719 45.3713C50.5719 48.8513 50.3419 52.3313 50.0719 55.8113L49.7219 55.3513C51.1419 55.7513 52.5619 56.1613 53.9719 56.5913C55.3819 57.0213 56.8019 57.4213 58.2119 57.8813H58.2219C58.2419 57.8913 58.2519 57.9113 58.2519 57.9313L58.2419 58.0514L58.1919 58.0114L58.4419 57.9613H58.4519L58.6919 58.0414L58.6819 58.0514L58.7119 57.9313ZM58.7119 57.9313L58.7219 58.0514L58.7119 58.0613L58.4619 58.0114H58.4719L58.2319 58.0913C58.2119 58.1013 58.1919 58.0913 58.1819 58.0613V58.0514V58.0414L58.1719 57.9214L58.2119 57.9713C56.7519 57.7213 55.3119 57.4013 53.8619 57.1213C52.4119 56.8413 50.9619 56.5414 49.5219 56.2314C49.3119 56.1914 49.1719 56.0014 49.1719 55.8014V55.7714C49.2119 52.2814 49.2919 48.8013 49.4019 45.3113C49.4119 44.9313 49.7319 44.6313 50.1119 44.6513C50.1519 44.6513 50.1819 44.6613 50.2219 44.6613H50.2419C53.0419 45.2213 55.8319 45.8314 58.6319 46.4214H58.3119C61.1119 45.8414 63.8919 45.2214 66.7019 44.6714H66.7219C67.0819 44.6014 67.4419 44.8414 67.5119 45.2014C67.5219 45.2414 67.5219 45.2713 67.5219 45.3113C67.6319 48.7913 67.7019 52.2814 67.7319 55.7714V55.8014C67.7319 56.0014 67.5919 56.1713 67.4019 56.2113C66.0019 56.5113 64.5819 56.7813 63.1319 57.0613L58.7119 57.9313Z" fill="#8EA6F3"/>
<path d="M22.1452 82.4023L18.6152 92.0124C15.6652 100.032 16.7952 108.812 21.6852 116.022L40.2252 143.322L44.1852 94.6324L22.1452 82.4023Z" fill="#D1DAED" stroke="#9CAFEE" stroke-width="2.5" stroke-miterlimit="10" stroke-linecap="round" stroke-linejoin="round"/>
<path d="M32.8225 120.471L20.3125 239.741H51.6325L58.4625 146.121L67.1025 239.741H96.6125L85.6525 120.471L58.4625 106.721L32.8225 120.471Z" fill="#D1DAED" stroke="#9CAFEE" stroke-width="2.5" stroke-miterlimit="10" stroke-linecap="round" stroke-linejoin="round"/>
<path d="M103.026 52.1116L78.9756 61.7816L77.3356 61.2216L71.0256 59.0416L69.2556 52.1016C69.2556 52.1016 63.8356 55.3116 58.4556 55.3116C53.0756 55.3116 47.6556 52.1016 47.6556 52.1016L45.8356 59.2416L32.2156 64.2516C29.2656 65.2516 26.8556 67.2516 25.5156 69.8116L12.0156 95.5416L32.8256 103.782V120.472C32.8256 120.472 46.1456 115.622 59.2456 115.622C72.3456 115.622 85.6656 120.472 85.6656 120.472L89.5056 92.8716C90.0756 88.7416 92.5956 85.1316 96.2756 83.1616L109.166 76.2616L103.026 52.1116Z" fill="white" stroke="#9CAFEE" stroke-width="2.5" stroke-miterlimit="10" stroke-linecap="round" stroke-linejoin="round"/>
<path d="M32.8281 95.6211V103.771" stroke="#9CAFEE" stroke-width="2.5" stroke-miterlimit="10" stroke-linecap="round" stroke-linejoin="round"/>
<path d="M69.8675 35.2119C69.8675 35.2119 71.3075 31.1819 73.6075 32.7119C75.8975 34.2419 74.1275 43.0219 72.2275 43.9019C70.3275 44.7819 68.6875 41.1319 68.6875 41.1319L69.8675 35.2119Z" fill="#D1DAED"/>
<path d="M69.8672 35.2124C70.1972 34.3424 70.6372 33.5124 71.3072 32.8324C71.6472 32.5024 72.0972 32.2524 72.6072 32.2324C73.1172 32.2324 73.6272 32.3824 74.0072 32.7624C74.7972 33.5124 74.9872 34.5524 75.1372 35.5024C75.2572 36.4724 75.2872 37.4424 75.1772 38.4024C75.0872 39.3624 74.9072 40.3124 74.6172 41.2424C74.2972 42.1724 73.9772 43.0924 73.2172 43.9624C73.0672 44.1724 72.6972 44.4124 72.4072 44.5324C72.0972 44.6524 71.7472 44.6924 71.4172 44.6524C70.7472 44.5424 70.2672 44.1624 69.9072 43.7924C69.1972 43.0124 68.7772 42.1524 68.4172 41.2524L68.4072 41.2224C68.3872 41.1724 68.3872 41.1224 68.3972 41.0824C68.6772 40.1024 68.9572 39.1324 69.1872 38.1524C69.4572 37.1824 69.6472 36.2024 69.8672 35.2124ZM69.8672 35.2124C69.6872 36.2024 69.4972 37.1924 69.3572 38.1924C69.1972 39.1924 69.0872 40.1924 68.9672 41.1924L68.9472 41.0224C69.3972 41.7824 69.9672 42.5224 70.6172 43.0224C71.2872 43.5424 71.8972 43.5224 72.1872 43.0424C72.6072 42.4824 72.9372 41.6224 73.2072 40.7924C73.4972 39.9624 73.6772 39.0824 73.8672 38.2124C74.0372 37.3324 74.1572 36.4424 74.1872 35.5624C74.2072 34.6924 74.1572 33.7524 73.6672 33.1124C73.4472 32.7824 73.0072 32.5824 72.6072 32.5224C72.1872 32.4624 71.7572 32.6624 71.3972 32.9424C70.6672 33.5124 70.2272 34.3724 69.8672 35.2124Z" fill="#93A7EB"/>
<path d="M47.0645 35.2119C47.0645 35.2119 45.6245 31.1819 43.3245 32.7119C41.0345 34.2419 42.8045 43.0219 44.7045 43.9019C46.6045 44.7819 48.2445 41.1319 48.2445 41.1319L47.0645 35.2119Z" fill="#D1DAED"/>
<path d="M47.0679 35.2124C46.7079 34.3724 46.2679 33.5124 45.5379 32.9424C45.1879 32.6624 44.7579 32.4724 44.3279 32.5224C43.9279 32.5824 43.4879 32.7824 43.2679 33.1124C42.7779 33.7524 42.7279 34.7024 42.7479 35.5624C42.7779 36.4524 42.8979 37.3324 43.0679 38.2124C43.2579 39.0824 43.4379 39.9624 43.7279 40.7924C43.9879 41.6124 44.3279 42.4724 44.7379 43.0424C45.0279 43.5324 45.6379 43.5424 46.3079 43.0224C46.9479 42.5224 47.5279 41.7824 47.9779 41.0224L47.9579 41.1924C47.8379 40.1924 47.7279 39.1924 47.5679 38.1924C47.4379 37.1924 47.2479 36.2124 47.0679 35.2124ZM47.0679 35.2124C47.2879 36.1924 47.4779 37.1824 47.7379 38.1524C47.9679 39.1324 48.2579 40.1024 48.5279 41.0824C48.5379 41.1324 48.5379 41.1824 48.5179 41.2224L48.5079 41.2524C48.1579 42.1524 47.7279 43.0224 47.0179 43.7924C46.6479 44.1624 46.1779 44.5424 45.5079 44.6524C45.1779 44.6924 44.8279 44.6524 44.5179 44.5324C44.2279 44.4024 43.8679 44.1724 43.7079 43.9624C42.9379 43.0924 42.6179 42.1624 42.3079 41.2424C42.0179 40.3124 41.8379 39.3624 41.7479 38.4024C41.6379 37.4424 41.6679 36.4724 41.7879 35.5024C41.9379 34.5624 42.1279 33.5124 42.9179 32.7624C43.2979 32.3824 43.8179 32.2324 44.3179 32.2324C44.8279 32.2524 45.2779 32.5024 45.6179 32.8324C46.2979 33.5124 46.7379 34.3524 47.0679 35.2124Z" fill="#93A7EB"/>
<path d="M72.2965 28.9515C71.5265 25.0915 69.0565 21.6415 65.3565 19.5615C63.4965 18.5115 61.3165 17.6915 58.9765 17.5515C58.8665 17.5315 58.7464 17.5215 58.6264 17.5215C58.5664 17.5215 58.5064 17.5315 58.4564 17.5315C58.3964 17.5315 58.3365 17.5215 58.2865 17.5215C58.1665 17.5215 58.0464 17.5315 57.9364 17.5515C55.5964 17.6915 53.4164 18.5215 51.5564 19.5615C47.8564 21.6415 45.3864 25.1015 44.6164 28.9515C44.2564 30.7415 44.2864 32.5715 44.7064 34.3515C45.4964 37.7215 46.9264 43.4015 48.3464 46.6715C50.1964 50.9315 56.6964 51.6215 58.2764 51.7215C58.2764 51.7315 58.2764 51.7415 58.2764 51.7415C58.2764 51.7415 58.3364 51.7415 58.4464 51.7315C58.5564 51.7415 58.6164 51.7415 58.6164 51.7415C58.6164 51.7415 58.6164 51.7315 58.6164 51.7215C60.1964 51.6215 66.6965 50.9315 68.5465 46.6715C69.9665 43.4015 71.3964 37.7215 72.1864 34.3515C72.6264 32.5715 72.6565 30.7415 72.2965 28.9515Z" fill="#D1DAED" stroke="#9CAFEE" stroke-width="2.5" stroke-miterlimit="10" stroke-linecap="round" stroke-linejoin="round"/>
<path d="M59.7559 30.9023C58.9359 33.6123 60.5759 38.4424 60.5759 38.4424L56.3359 38.7123" fill="#D1DAED"/>
<path d="M59.7537 30.9023C59.9037 31.6123 60.0837 32.2024 60.2637 32.7924L60.7938 34.5424C60.9538 35.1224 61.1337 35.7024 61.2737 36.3024C61.4237 36.8824 61.5637 37.5023 61.6837 38.0623L61.7337 38.3224C61.8537 38.9024 61.4737 39.4624 60.9037 39.5724C60.8237 39.5924 60.7337 39.5923 60.6537 39.5923C59.9437 39.5623 59.2337 39.4924 58.5137 39.3624C57.7937 39.2224 57.0738 39.0324 56.3438 38.7024C57.0238 38.2824 57.7138 38.0024 58.4138 37.7724C59.1038 37.5424 59.8037 37.3824 60.5137 37.2624L59.4837 38.8024C59.1937 38.1524 59.0038 37.5323 58.8538 36.8723C58.6938 36.2223 58.6137 35.5424 58.5938 34.8624C58.5738 34.1824 58.6238 33.4824 58.7938 32.7924C58.9738 32.1224 59.2537 31.4223 59.7537 30.9023Z" fill="#93A7EB"/>
<path d="M52.575 35.2117C53.0997 35.2117 53.525 34.4954 53.525 33.6117C53.525 32.7281 53.0997 32.0117 52.575 32.0117C52.0503 32.0117 51.625 32.7281 51.625 33.6117C51.625 34.4954 52.0503 35.2117 52.575 35.2117Z" fill="#93A7EB"/>
<path d="M48.8047 31.1103C48.8047 31.1103 51.9147 29.2003 54.8847 30.4903L48.8047 31.1103Z" fill="#D1DAED"/>
<path d="M48.8047 31.1109C49.1147 30.5809 49.5647 30.2009 50.0547 29.9209C50.5447 29.6309 51.1047 29.4509 51.6847 29.3709C52.2547 29.2909 52.8647 29.3409 53.4247 29.5209C53.9947 29.6809 54.5147 30.0309 54.8747 30.5009C54.2647 30.6009 53.7747 30.6109 53.2847 30.6809L51.8747 30.8609C50.9347 30.9609 50.0047 31.1109 48.8047 31.1109Z" fill="#93A7EB"/>
<path d="M64.2156 35.2117C64.7403 35.2117 65.1656 34.4954 65.1656 33.6117C65.1656 32.7281 64.7403 32.0117 64.2156 32.0117C63.691 32.0117 63.2656 32.7281 63.2656 33.6117C63.2656 34.4954 63.691 35.2117 64.2156 35.2117Z" fill="#93A7EB"/>
<path d="M67.9862 31.1103C67.9862 31.1103 64.8763 29.2003 61.9062 30.4903L67.9862 31.1103Z" fill="#D1DAED"/>
<path d="M67.984 31.1111C66.784 31.1111 65.8541 30.9611 64.9141 30.8511L63.504 30.6711C63.014 30.6011 62.5241 30.5911 61.9141 30.4911C62.2841 30.0111 62.804 29.6711 63.364 29.5111C63.924 29.3311 64.5341 29.2811 65.1041 29.3611C65.6841 29.4411 66.234 29.6211 66.734 29.9111C67.224 30.2011 67.674 30.5711 67.984 31.1111Z" fill="#93A7EB"/>
<path d="M56.125 44.0508C56.515 43.5308 56.905 43.2608 57.295 43.0708C57.685 42.8908 58.075 42.8008 58.465 42.8008C58.855 42.8008 59.245 42.8808 59.635 43.0708C60.025 43.2608 60.415 43.5308 60.805 44.0508C60.415 44.5708 60.025 44.8408 59.635 45.0308C59.245 45.2108 58.855 45.3008 58.465 45.3008C58.075 45.3008 57.685 45.2108 57.295 45.0308C56.905 44.8308 56.515 44.5608 56.125 44.0508Z" fill="#93A7EB"/>
<path d="M66.4144 55.4922C66.4144 55.4922 61.3444 56.0122 59.6144 57.7322C59.3844 57.2822 58.9544 56.9722 58.4644 56.9722C57.9744 56.9722 57.5544 57.2822 57.3144 57.7322C55.5744 56.0222 50.5144 55.4922 50.5144 55.4922C50.5144 55.4922 49.2944 62.5822 52.3444 63.3422C52.3444 63.3422 55.8944 61.2822 57.3744 59.3922C57.6144 59.7822 58.0144 60.0422 58.4644 60.0422C58.9144 60.0422 59.3144 59.7822 59.5544 59.3922C61.0344 61.2722 64.5844 63.3422 64.5844 63.3422C67.6344 62.5822 66.4144 55.4922 66.4144 55.4922Z" fill="#7B99FB"/>
</svg>
