<?xml version="1.0" encoding="UTF-8"?>
<svg xmlns="http://www.w3.org/2000/svg" viewBox="0 0 139.12 143.78">
  <defs>
    <style>
      .cls-1 {
        fill: #3b65ef;
      }

      .cls-2 {
        mix-blend-mode: multiply;
      }

      .cls-2, .cls-3 {
        fill: #3b65ee;
        opacity: .2;
      }

      .cls-4 {
        isolation: isolate;
      }

      .cls-5 {
        fill: #fff;
        stroke: #3b65ef;
        stroke-miterlimit: 10;
        stroke-width: 3px;
      }
    </style>
  </defs>
  <g class="cls-4">
    <g id="Layer_2" data-name="Layer 2">
      <g id="Layer_2-2" data-name="Layer 2">
        <g>
          <ellipse class="cls-3" cx="85.71" cy="135.71" rx="53.5" ry="7.5" transform="translate(-7.47 5.02) rotate(-3.21)"/>
          <path class="cls-5" d="M50.71,141.71s-46-2-49-42S28.98-2.6,55.71,1.71c31,5,53,62,44,104-8.49,39.6-49,36-49,36Z"/>
          <path class="cls-1" d="M63.75,4.24c-8.22,8.37-18.5,16.69-28.54,18.97-6.26,1.42-11.95,5.03-16.89,9.47-4.53,8.36-8.41,17.76-11.31,27.36,15.84-17.34,27.75-19.99,48.19-25.83,11.71-3.35,19.39-10.19,24.37-17.02-4.74-5.76-10.07-10.25-15.83-12.95Z"/>
          <path class="cls-1" d="M59.71,64.71c17.04.59,28.56-10.17,35.17-19.15-1.84-5.26-4-10.28-6.46-14.92-10.23,13.15-23.92,17.78-47.71,21.07-18.06,2.49-31.46,22.04-39.01,36.44-.26,3.99-.27,7.87,0,11.56.2,2.62.58,5.07,1.12,7.38,3.94-7.07,9.18-15.78,14.88-23.38,12-16,13-20,42-19Z"/>
          <path class="cls-1" d="M100.89,71.67c-31.69,18.61-37.21,4.28-58.19,9.05-16.57,3.77-29.73,26.81-35.22,37.96,1.79,2.98,3.9,5.57,6.22,7.83,23.31-29.37,35.48-25.69,62-23.79,11.81.84,19.87-1.52,25.26-4.53,1.07-8.58.99-17.59-.08-26.52Z"/>
          <path class="cls-1" d="M53.71,116.71c-13.82-.73-26.04,10.18-31.69,16.18,3.82,2.31,7.78,4.02,11.49,5.28,6.87-4.13,15.44-7.05,24.2-4.39,8.26,2.51,16.51,1.91,23.36.34,5.5-3.52,10.66-8.64,14.38-16.07-30.98,10.09-24.7-.45-41.74-1.35Z"/>
          <path class="cls-2" d="M89.37,118.24c-13.35,19.05-39.9,22.69-54.07,11.83-12.53-9.61,17.97-13.88,29.99-33.8,12.02-19.92,9.16-56.48,20.91-43.06,14,16,13,51,3.17,65.03Z"/>
        </g>
      </g>
    </g>
  </g>
</svg>