<?xml version="1.0" encoding="UTF-8"?><svg id="Layer_1" xmlns="http://www.w3.org/2000/svg" viewBox="0 0 300 300"><defs><style>.cls-1{fill:#ffd96a;}.cls-2{fill:#ecf0fe;}.cls-3{fill:#3b66ef;}</style></defs><circle class="cls-1" cx="196.68" cy="139.73" r="48.41"/><path class="cls-3" d="m242.59,139.73c-.27,19.19-12.2,36.85-30.52,43.27-18.14,6.36-38.71.68-50.93-14.18s-13.68-35.91-4.11-52.26c9.79-16.71,29.56-25.63,48.57-21.88,21.48,4.24,36.67,23.38,36.98,45.05.05,3.21,5.05,3.22,5,0-.3-21.31-13.44-40.48-33.56-47.86-20.32-7.46-43.84-.67-57.23,16.26-13.14,16.61-14.62,40.4-3.39,58.42,11.2,17.98,32.78,27.22,53.53,23.05,23.63-4.75,40.32-26.05,40.65-49.87.05-3.22-4.95-3.22-5,0Z"/><path class="cls-3" d="m145.7,83.25c3.3,3.93,6.6,7.86,9.89,11.79,2.07,2.47,5.59-1.08,3.54-3.54l-9.89-11.79c-2.07-2.47-5.59,1.08-3.54,3.54h0Z"/><path class="cls-3" d="m120.88,129.15c5.05.89,10.11,1.78,15.16,2.67,3.15.55,4.5-4.26,1.33-4.82-5.05-.89-10.11-1.78-15.16-2.67-3.15-.55-4.5,4.26-1.33,4.82h0Z"/><path class="cls-3" d="m132.04,180.23c4.44-2.57,8.89-5.13,13.33-7.7,2.79-1.61.27-5.93-2.52-4.32-4.44,2.57-8.89,5.13-13.33,7.7-2.79,1.61-.27,5.93,2.52,4.32h0Z"/><path class="cls-3" d="m173.25,212.13c1.75-4.82,3.51-9.64,5.26-14.46,1.1-3.03-3.73-4.33-4.82-1.33l-5.26,14.46c-1.1,3.03,3.73,4.33,4.82,1.33h0Z"/><path class="cls-3" d="m225.41,210.62l-5.26-14.46c-1.09-3-5.93-1.7-4.82,1.33l5.26,14.46c1.09,3,5.93,1.7,4.82-1.33h0Z"/><path class="cls-3" d="m264.1,175.47c-4.44-2.57-8.89-5.13-13.33-7.7-2.79-1.61-5.31,2.71-2.52,4.32,4.44,2.57,8.89,5.13,13.33,7.7,2.79,1.61,5.31-2.71,2.52-4.32h0Z"/><path class="cls-3" d="m271.05,123.82c-5.05.89-10.11,1.78-15.16,2.67-3.16.56-1.82,5.38,1.33,4.82,5.05-.89,10.11-1.78,15.16-2.67,3.16-.56,1.82-5.38-1.33-4.82h0Z"/><path class="cls-3" d="m243.72,79.39c-3.3,3.93-6.6,7.86-9.89,11.79-2.06,2.45,1.46,6,3.54,3.54l9.89-11.79c2.06-2.45-1.46-6-3.54-3.54h0Z"/><path class="cls-3" d="m193.92,63.48v15.39c0,3.22,5,3.22,5,0v-15.39c0-3.22-5-3.22-5,0h0Z"/><path class="cls-2" d="m71.64,236.52h138.57c20.37,0,36.98-17.36,34.94-37.64-.06-.61-.14-1.23-.23-1.85-2.64-17.21-17.49-22.54-34.93-22.78,5.39-12.33.07-33.65-10.63-39.48-16.7-9.11-31.93-6.89-39.48,1.52-6.61-26.73-23.98-38.13-50.11-30.37-26.07,7.74-40.82,36.29-31.89,62.26-13.81-5.45-29.38-2.46-39.48,7.59-14.06,13.98-9.46,33.56-9.11,34.93,2.62,10.32,12.49,17.02,20.84,21.02,6.71,3.21,14.08,4.8,21.52,4.8Z"/><path class="cls-3" d="m71.64,239.02h129.99c2.84,0,5.69.04,8.53,0,11.58-.18,22.54-5.27,29.76-14.39,8.21-10.37,10.86-26.08,4.1-37.91s-21.4-14.69-34.05-14.96l2.41,3.16c5.11-12.6,1.7-31.65-9.13-40.48-12.09-9.86-33.85-11.77-45.16.08l4.18,1.1c-3-11.68-8.59-23.49-19.33-29.88-10.43-6.21-23.3-5.56-34.52-2.03-27.07,8.52-41.73,38.39-32.97,65.13l3.08-3.08c-25.45-9.44-52.5,7.89-52.75,35.37-.08,8.66,2.25,16.41,8.47,22.75,9.67,9.85,23.78,14.91,37.39,15.13,3.22.05,3.22-4.95,0-5-12.11-.2-24.57-4.59-33.36-13.17-5.36-5.23-7.4-11.47-7.5-18.72-.31-24.79,23.59-40.01,46.42-31.54,1.77.66,3.64-1.35,3.08-3.08-7.9-24.09,4.9-51.24,29.47-58.98,9.96-3.13,21.37-4.01,30.67,1.52,9.62,5.72,14.36,16.49,17.04,26.89.46,1.8,2.89,2.46,4.18,1.1,9.72-10.19,30.04-8.15,39.69,1.35,8.27,8.15,10.5,23.67,6.24,34.18-.63,1.57.95,3.13,2.41,3.16,11.38.25,25.25,2.51,30.56,14.07s.82,27.02-9.02,35.37-21.74,7.82-33.81,7.82h-126.08c-3.22,0-3.22,5,0,5Z"/></svg>