<?xml version="1.0" encoding="UTF-8"?><svg id="Finals" xmlns="http://www.w3.org/2000/svg" viewBox="0 0 300 300"><defs><style>.cls-1{fill:#fff;}.cls-2{fill:#3b66ef;}</style></defs><circle class="cls-1" cx="150" cy="150" r="124.98"/><path class="cls-2" d="m269.98,150c-.27,49.66-31.61,95.56-78.54,112.65s-101.41,2.66-133.78-35.99-36.44-95.28-10.6-138.35c25.75-42.92,77.13-65.89,126.29-56.04,48.91,9.8,87.29,49.83,95.21,99.05.99,6.17,1.38,12.43,1.42,18.67s10.04,6.45,10,0c-.3-54.12-34.42-103.26-85.25-122.06-51.02-18.88-110.5-2.7-144.97,39.34-34.61,42.21-39.39,103.2-10.99,150.02s83.87,70.77,137.25,60.07,94.13-54.08,102.3-106.71c1.06-6.85,1.63-13.73,1.66-20.66.04-6.44-9.96-6.44-10,0Z"/><circle class="cls-2" cx="150" cy="150" r="6.5"/><path class="cls-2" d="m150,156.75c-3.72,0-6.75-3.03-6.75-6.75s3.03-6.75,6.75-6.75,6.75,3.03,6.75,6.75-3.03,6.75-6.75,6.75Zm0-13c-3.45,0-6.25,2.8-6.25,6.25s2.8,6.25,6.25,6.25,6.25-2.8,6.25-6.25-2.8-6.25-6.25-6.25Z"/><path class="cls-2" d="m144.53,7.15v84.85c0,7.04,10.94,7.05,10.94,0V7.15c0-7.04-10.94-7.05-10.94,0h0Z"/><path class="cls-2" d="m7.15,155.47c28.28,0,56.56,0,84.85,0,7.04,0,7.05-10.94,0-10.94-28.28,0-56.56,0-84.85,0-7.04,0-7.05,10.94,0,10.94h0Z"/><path class="cls-2" d="m155.47,292.85v-84.85c0-7.04-10.94-7.05-10.94,0v84.85c0,7.04,10.94,7.05,10.94,0h0Z"/><path class="cls-2" d="m292.85,144.53c-28.28,0-56.56,0-84.85,0-7.04,0-7.05,10.94,0,10.94,28.28,0,56.56,0,84.85,0,7.04,0,7.05-10.94,0-10.94h0Z"/></svg>