<?xml version="1.0" encoding="UTF-8"?>
<svg id="Layer_2" data-name="Layer 2" xmlns="http://www.w3.org/2000/svg" viewBox="0 0 177.77 174.06">
  <defs>
    <style>
      .cls-1 {
        stroke-width: 3px;
      }

      .cls-1, .cls-2, .cls-3, .cls-4 {
        stroke: #3b65ee;
        stroke-linecap: round;
        stroke-linejoin: round;
      }

      .cls-1, .cls-3 {
        fill: #fff;
      }

      .cls-2 {
        fill: none;
      }

      .cls-2, .cls-3 {
        stroke-width: 2px;
      }

      .cls-5, .cls-6, .cls-7, .cls-4 {
        fill: #3b65ee;
      }

      .cls-6 {
        opacity: .1;
      }

      .cls-7 {
        opacity: .2;
      }

      .cls-4 {
        stroke-width: .5px;
      }
    </style>
  </defs>
  <g id="Layer_2-2" data-name="Layer 2">
    <g>
      <path class="cls-1" d="M1.5,93.06s52,12,68-30S95.5,4.06,107.5,2.06c0,0-6,5-6,7,0,0,14.98-10,31.49-7s51.51,39,41.51,96-68,64-97,61S4.5,129.06,1.5,93.06Z"/>
      <path class="cls-5" d="M146.19,96.61c-7.6,30.47-31.3,51.98-63.72,42.14-9.11-2.86-17.57-7.68-25.08-13.51-.18-.14,0-.45.21-.34,8.57,3.95,17.07,7.8,25.96,10.01,19.43,5.31,35.97,2.12,49.15-13.89,5.89-7.12,10.28-15.58,13.09-24.49.03-.11.15-.18.25-.14.1.03.16.14.13.24h0Z"/>
      <path class="cls-4" d="M59.08,126.22s17.92-18.66,45.92-14.66c0,0-27.13-7.27-47.5,13.5l1.58,1.16Z"/>
      <path class="cls-4" d="M91.58,110.36s9.42-12.8,17.42-15.8c0,0-11,4-20,16l2.58-.2Z"/>
      <polyline class="cls-2" points="94.11 159.64 94.11 166.84 89 169.56"/>
      <polyline class="cls-2" points="99 169.56 94.11 166.84 94 170.56"/>
      <polyline class="cls-2" points="111.5 158.06 111.5 165.27 106.39 167.98"/>
      <polyline class="cls-2" points="116.39 167.98 111.5 165.27 111.39 168.98"/>
      <ellipse class="cls-5" cx="145" cy="30.56" rx="5" ry="7" transform="translate(-2.32 14.6) rotate(-5.72)"/>
      <ellipse class="cls-5" cx="162.56" cy="29.32" rx="4.49" ry="6.29" transform="translate(-2.11 16.35) rotate(-5.72)"/>
      <path class="cls-6" d="M21.5,124.06s18.96-6.32,37,4c7.51,4.3,31.72,13.83,48,11,23-4,36.17-29.12,39-42,8.68-39.5,11.2-55,23.1-42s15.8,94.74-62.21,103.37c-59.89,6.63-91.89-30.37-84.89-34.37Z"/>
      <polygon class="cls-3" points="156.5 37.06 176.27 40.3 161.5 55.06 151.5 44.06 156.5 37.06"/>
      <path class="cls-5" d="M155.5,44.06c5.24-1.35,10.59-2.02,16-2-5.24,1.35-10.59,2.01-16,2h0Z"/>
      <polygon class="cls-7" points="152.5 44.06 175.5 41.06 161.19 54.72 152.5 44.06"/>
      <path class="cls-5" d="M91.55,72.02s3.95,6.04,10.95,7.04"/>
      <path class="cls-5" d="M89.72,77.93s5.65,4.49,12.61,3.23"/>
      <path class="cls-6" d="M64.99,126.22s26.51-12.16,42.51-4.16c0,0,19-21,33-19,0,0-10,31-37,33-17.98,1.33-38.51-9.84-38.51-9.84Z"/>
      <ellipse class="cls-5" cx="141" cy="170.06" rx="3.5" ry="1"/>
      <ellipse class="cls-5" cx="133.5" cy="169.56" rx="2" ry="1.5"/>
      <ellipse class="cls-5" cx="79.5" cy="169.56" rx="2" ry="1.5"/>
      <ellipse class="cls-5" cx="68" cy="170.06" rx="1.5" ry="1"/>
      <ellipse class="cls-5" cx="149" cy="170.06" rx="1.5" ry="1"/>
      <path class="cls-5" d="M123.77,168.98s.73-5.13,7.73-7.53"/>
      <path class="cls-5" d="M129.98,169.06s-2.48-2.92,1.52-4.46"/>
      <path class="cls-5" d="M73.98,170.06c-.48-2,1.57-3.92-3.95-5.46"/>
      <path class="cls-5" d="M64.99,170.06s.95-1.59-1.27-4.8"/>
      <ellipse class="cls-7" cx="103.5" cy="169.56" rx="73" ry="4.5"/>
    </g>
  </g>
</svg>