<?xml version="1.0" encoding="UTF-8"?><svg id="Layer_1" xmlns="http://www.w3.org/2000/svg" viewBox="0 0 500 800"><defs><style>.cls-1{fill:#fff;}.cls-2{fill:#ecf0fe;}.cls-3{fill:#c8d4fa;}.cls-4{fill:#89a3f5;}.cls-5,.cls-6,.cls-7{fill:#3b66ef;}.cls-6,.cls-8{opacity:.16;}.cls-7{opacity:.25;}</style></defs><path class="cls-4" d="m82.38,119.84s-.06,602.36-.04,602.44c.01.09.03.19.04.29,5.19,31.52,74.73,52.42,160.96,53.63.84,0,1.68.02,2.53.03,1.34.01,2.68.02,4.03.02,1.41,0,2.82,0,4.23-.01.69,0,1.39-.01,2.08-.03,1.38-.01,2.75-.05,4.12-.07h0c84.71-1.9,152.45-22.69,157.14-53.89V121.21"/><path class="cls-5" d="m79.88,119.84c0,7.23,0,14.45,0,21.68,0,19.18,0,38.37,0,57.55,0,27.78,0,55.56,0,83.34,0,32.75,0,65.49,0,98.24,0,34.15,0,68.3,0,102.45,0,31.84,0,63.69,0,95.53,0,26.3,0,52.6,0,78.9,0,17.03,0,34.06,0,51.08,0,10.25-.81,18.39,5.83,27.29,10.25,13.74,27.95,21.12,43.66,26.43,24.72,8.35,50.93,12.33,76.85,14.54,28.28,2.42,56.75,2.46,85.04.16,26.21-2.13,52.69-6.03,77.74-14.26,16.02-5.26,34.1-12.57,44.75-26.34,3.6-4.66,6.21-10.16,6.26-16.1.1-10.98,0-21.97,0-32.96,0-22.09,0-44.19,0-66.28V166.94c0-13.46,0-26.93,0-40.39v-5.34c0-3.22-5-3.22-5,0,0,7.04,0,14.08,0,21.12,0,18.95,0,37.9,0,56.85,0,27.24,0,54.47,0,81.71v293.16c0,26.47,0,52.94,0,79.41s0,35.03,0,52.55c0,8.66,1.35,17.21-3.45,24.89-9.21,14.75-28.84,22.17-44.52,27.26-25.57,8.31-52.58,12.17-79.32,14.15-27.7,2.06-55.58,1.88-83.25-.59-25.93-2.31-52.2-6.48-76.8-15.26-14.67-5.24-33.55-13.17-40.81-28.15-1.94-4-1.99-5.54-1.99-9.65,0-12.29,0-24.58,0-36.87,0-22.64,0-45.28,0-67.92,0-29.77,0-59.54,0-89.31,0-33.18,0-66.36,0-99.54s0-66.63,0-99.94c0-30.17,0-60.34,0-90.51,0-23.31,0-46.62,0-69.93,0-13.19,0-26.39,0-39.58,0-1.74,0-3.48,0-5.22,0-3.22-5-3.22-5,0h0Z"/><polygon class="cls-1" points="281.44 285.63 252.77 428.59 344.12 423.62 215.69 606.33 243.98 464.52 154.91 469.49 281.44 285.63"/><path class="cls-5" d="m279.03,284.96c-8.38,41.79-16.76,83.58-25.14,125.37-1.18,5.86-2.35,11.73-3.53,17.59-.3,1.5.68,3.26,2.41,3.16,26.65-1.45,53.29-2.9,79.94-4.35,3.81-.21,7.61-.41,11.42-.62l-2.16-3.76c-14.45,20.55-28.9,41.11-43.35,61.66-23.05,32.79-46.1,65.58-69.14,98.36-5.31,7.56-10.63,15.12-15.94,22.68l4.57,1.93c8.25-41.36,16.5-82.71,24.75-124.07,1.18-5.92,2.36-11.83,3.54-17.75.3-1.5-.68-3.26-2.41-3.16-26,1.45-52.01,2.9-78.01,4.35-3.68.21-7.37.41-11.05.62l2.16,3.76c14.3-20.79,28.61-41.57,42.91-62.36,22.67-32.94,45.34-65.89,68.01-98.83,5.2-7.56,10.4-15.11,15.6-22.67,1.83-2.66-2.5-5.16-4.32-2.52-14.3,20.79-28.61,41.57-42.91,62.36-22.67,32.94-45.34,65.89-68.01,98.83-5.2,7.56-10.4,15.11-15.6,22.67-1.06,1.53.34,3.86,2.16,3.76,26-1.45,52.01-2.9,78.01-4.35,3.68-.21,7.37-.41,11.05-.62l-2.41-3.16c-8.25,41.36-16.5,82.71-24.75,124.07-1.18,5.92-2.36,11.83-3.54,17.75-.56,2.82,2.92,4.27,4.57,1.93,14.45-20.55,28.9-41.11,43.35-61.66,23.05-32.79,46.1-65.58,69.14-98.36,5.31-7.56,10.63-15.12,15.94-22.68,1.08-1.53-.35-3.86-2.16-3.76-26.65,1.45-53.29,2.9-79.94,4.35-3.81.21-7.61.41-11.42.62l2.41,3.16c8.38-41.79,16.76-83.58,25.14-125.37,1.18-5.86,2.35-11.73,3.53-17.59.63-3.14-4.19-4.49-4.82-1.33Z"/><path class="cls-1" d="m435.36,101.51c0,.85-.05,1.7-.14,2.53-3.68,33.05-79.07,59.72-173.62,61.73h0c-1.51.03-3.03.06-4.55.08-.76.01-1.53.02-2.29.02-1.56.01-3.11.02-4.67.02s-2.97,0-4.45-.02c-.93,0-1.86-.02-2.79-.03-95.47-1.26-172.44-27.65-177.74-60.68-.2-1.2-.3-2.43-.3-3.65s.1-2.45.3-3.67c3.74-23.16,42.69-43.05,98.55-53.31,25.8-4.74,55.21-7.42,86.43-7.42s60.64,2.68,86.44,7.42c56.77,10.43,96.07,30.8,98.7,54.44.1.84.14,1.69.14,2.53Z"/><path class="cls-5" d="m432.86,101.51c-.49,17.35-19.2,28.39-32.93,35.1-24.19,11.83-51.34,17.8-77.82,21.73-31.72,4.71-64,5.95-96.02,4.52s-63.16-5.42-93.49-14.16c-19.76-5.69-42.15-13.42-56.7-28.74-5.87-6.18-10.04-14.24-8.09-22.98s8.79-15.47,15.64-20.58c22.87-17.09,53.3-24.39,80.86-29.45,34.23-6.29,69.32-8.2,104.08-7.02,33.62,1.15,67.54,5.18,99.9,14.6,13.39,3.9,26.65,8.73,38.8,15.65,8.53,4.86,17.28,11,22.35,19.63,2.13,3.63,3.3,7.5,3.42,11.71.09,3.21,5.09,3.22,5,0-.6-21.54-23.94-34.53-41.19-42.11-30.66-13.46-64.57-19.38-97.73-22.53-37.71-3.57-76-3.09-113.57,1.77-31.61,4.09-64.68,10.72-92.92,26.15-16.16,8.83-36.41,25.23-28.33,46.18,6.71,17.4,26.76,27.42,42.85,34.11,27.82,11.57,58.09,17.17,87.92,20.4,34.78,3.77,70.09,3.93,104.91.57,30.66-2.96,61.82-8.37,90.56-19.8,16.63-6.62,37.39-16.39,45.1-33.83,1.54-3.49,2.3-7.1,2.41-10.91.09-3.22-4.91-3.22-5,0Z"/><path class="cls-3" d="m415.37,100.52c0,.65-.04,1.29-.13,1.93-3.28,25.18-70.54,45.49-154.88,47.03h0c-1.35.02-2.7.05-4.06.06-.68,0-1.36.01-2.04.02-1.39,0-2.77.01-4.17.01s-2.65,0-3.97-.02c-.83,0-1.66-.01-2.49-.02-85.17-.96-153.83-21.06-158.56-46.23-.17-.92-.26-1.85-.26-2.78s.09-1.87.26-2.79c3.34-17.64,38.08-32.79,87.91-40.61,23.02-3.61,49.25-5.65,77.1-5.65s54.09,2.04,77.11,5.65c50.64,7.94,85.71,23.46,88.05,41.47.08.64.13,1.28.13,1.93Z"/><path class="cls-5" d="m412.87,100.52c-.95,14.38-19.39,22.3-30.79,26.85-22.59,9.01-47.1,13.44-71.16,16.27-54.43,6.4-112.09,5.39-165.48-7.72-17.22-4.23-37.3-9.66-50.76-21.94-4.55-4.16-8.5-9.73-7.06-16.24,1.55-7.03,8.21-12.18,13.94-15.82,21.08-13.39,47.8-18.57,72.08-22.38,29.68-4.65,59.9-6.12,89.91-5.4,33.18.79,66.86,4.09,98.92,13.02,12.22,3.4,24.55,7.6,35.4,14.3,6.99,4.32,14.42,10.28,15,19.07.21,3.19,5.21,3.22,5,0-1.2-18.26-23.01-27.44-37.69-32.92-27.95-10.43-58.32-14.71-87.93-17.02-33.57-2.62-67.53-2.2-101,1.59-27.93,3.16-57.03,8.05-82.62,20.2-12.83,6.09-32.11,18.55-24.7,35.54,6.13,14.06,24.25,21.25,37.57,26.08,25.29,9.16,52.43,13.36,79.11,15.84,30.86,2.87,62.06,3.02,92.95.53,27.22-2.2,54.83-6.18,80.81-14.86,14.25-4.76,33.48-11.71,41.09-25.91,1.56-2.91,2.21-5.79,2.42-9.06s-4.79-3.2-5,0Z"/><g class="cls-8"><path class="cls-5" d="m170.29,78.78c-9.62,0-50.98,1.46-37.53,19.61,7.3,9.85,38.57,16.03,49.54,11.94"/><path class="cls-5" d="m170.29,75.24c-6.57.01-13.15.47-19.65,1.41s-14.94,2.38-20.22,7.17c-5.21,4.72-4.48,11.46-.43,16.71,5.24,6.79,14.84,9.86,22.82,11.89,9.36,2.38,21.02,4.54,30.44,1.32,4.28-1.46,2.44-8.3-1.88-6.82-8.59,2.93-19.4.66-27.88-1.63-5.42-1.46-20.49-5.52-19.85-13.56.44-5.59,12.05-7.1,16.07-7.8,6.77-1.18,13.71-1.58,20.58-1.6,4.55-.01,4.56-7.08,0-7.07h0Z"/></g><path class="cls-2" d="m172.28,34.84v61.51-3.67c-.05.17-.08.35-.12.52-.07.33-.11.66-.12.99v.66c.01.33.05.66.12.99,2.24,11.9,34.67,21.4,74.9,21.86.39,0,.78,0,1.18.01.62,0,1.25,0,1.88,0,.66,0,1.31,0,1.97,0,.32,0,.64,0,.96-.01.65,0,1.28-.01,1.92-.02h0c39.66-.72,71.33-10.24,73.14-22.08v-2.15c-.05-.34-.13-.68-.24-1.03v3.73s0-62,0-62"/><path class="cls-5" d="m169.78,34.84v61.51c0,3.22,5,3.22,5,0v-3.67c0-2.76-4.27-3.47-4.91-.66-1.83,8.04,5.74,13.48,12.04,16.61,12.23,6.07,26.3,8.44,39.74,10,17.06,1.99,34.42,2.13,51.52.56,14.19-1.3,28.85-3.52,42.05-9.15,7.35-3.14,17.26-8.81,15.07-18.28-.64-2.77-4.91-2.13-4.91.66v3.73c0,3.22,5,3.22,5,0v-62c0-3.22-5-3.22-5,0v62h5v-3.73c-1.64.22-3.28.44-4.91.66,2.16,9.33-16.34,14.18-22.3,15.86-16.52,4.66-33.97,6.15-51.08,6.26-18.1.13-36.59-1.22-54.11-6.01-5.76-1.57-25.4-6.58-23.29-15.85l-4.91-.66v3.67h5v-61.51c0-3.22-5-3.22-5,0h0Z"/><path class="cls-1" d="m327.94,32.31c0,.31-.02.61-.06.91-1.55,11.93-33.23,21.56-72.96,22.29h0c-.64.01-1.27.02-1.91.03-.32,0-.64,0-.96,0-.65,0-1.31,0-1.96,0s-1.25,0-1.87,0c-.39,0-.78,0-1.17-.01-40.12-.46-72.46-9.98-74.69-21.91-.08-.43-.12-.88-.12-1.32s.04-.88.12-1.32c1.57-8.36,17.94-15.54,41.41-19.25,10.84-1.71,23.2-2.68,36.32-2.68s25.48.97,36.32,2.68c23.85,3.76,40.37,11.12,41.48,19.66.04.3.06.61.06.91Z"/><path class="cls-5" d="m325.44,32.31c-.43,6.52-10.04,10.16-15.08,12.06-10.24,3.86-21.23,5.85-32.07,7.12-24.83,2.9-51.01,2.44-75.42-3.25-8.22-1.92-17.71-4.33-24.36-9.86-6.43-5.35-2.72-10.82,3.4-14.43,9.69-5.71,21.54-8.05,32.51-9.79,14.32-2.27,28.95-2.9,43.43-2.47s29.63,1.96,43.89,5.83c6.58,1.79,23.11,5.81,23.7,14.8.21,3.19,5.21,3.22,5,0-.54-8.31-9.01-12.83-15.83-15.71-13.16-5.57-27.76-7.76-41.9-9.04-16.78-1.52-33.8-1.38-50.55.54-13.43,1.54-27.44,3.91-39.7,9.88-6.4,3.12-14.94,9.1-12.22,17.44,2.28,7,10.68,10.79,16.93,13.27,12.02,4.77,25.14,6.86,37.95,8.15,15.35,1.55,30.9,1.65,46.28.34,14.3-1.21,29.09-3.36,42.45-8.84,7.03-2.88,16.03-7.44,16.59-16.03.21-3.21-4.79-3.2-5,0Z"/><path class="cls-5" d="m62.19,105.28c0,7.58,0,15.16,0,22.74,0,20.23,0,40.46,0,60.69,0,29.12,0,58.24,0,87.36,0,34.25,0,68.49-.01,102.74,0,35.61,0,71.22-.01,106.83,0,33.22,0,66.43,0,99.65,0,27.06,0,54.12,0,81.17,0,17.14,0,34.28,0,51.42,0,3.66-.1,7.34,0,11,.2,7.31,4.59,14.06,9.43,19.26,12.75,13.7,31.7,21.44,49.08,27.25,26.41,8.82,54.21,13.42,81.87,15.95,30.21,2.76,60.74,2.85,90.97.32,28.17-2.36,56.49-6.86,83.43-15.59,17.83-5.78,37.19-13.48,50.49-27.22,5.15-5.32,9.87-12.33,10.11-19.95.33-10.73,0-21.52,0-32.25,0-22.57,0-45.15,0-67.72,0-30.62,0-61.24,0-91.86,0-34.89,0-69.78,0-104.67s0-70.76,0-106.15c0-32.1,0-64.19,0-96.29,0-25.03,0-50.07,0-75.1v-48.14c0-3.22-5-3.22-5,0v81.8c0,28.69,0,57.38,0,86.06,0,33.83,0,67.65,0,101.48v105.39c0,33.1,0,66.21,0,99.31,0,27.24,0,54.48,0,81.72v65.47c0,5.85-3.19,11.2-6.98,15.54-12.65,14.49-32.78,22.23-50.6,27.95-27.19,8.72-55.73,13.19-84.14,15.42-30.23,2.37-60.73,2.14-90.91-.79-27.42-2.65-55-7.47-81.06-16.6-16.54-5.79-36.18-13.85-46.83-28.61-3.37-4.66-4.87-8.4-4.87-13.43,0-11.98,0-23.97,0-35.95,0-23.24,0-46.48,0-69.71,0-30.81,0-61.62,0-92.43,0-34.56,0-69.11,0-103.67,0-34.99,0-69.97.01-104.96,0-31.6,0-63.21,0-94.81,0-24.47,0-48.94,0-73.41,0-13.92,0-27.84,0-41.77,0-1.81,0-3.63,0-5.44,0-3.22-5-3.22-5,0h0Z"/><path class="cls-7" d="m97.16,559.36c-2.47,42.6-.88,85.37-.77,128.05.03,11.61-1.26,24.45,6.27,34.11,13.72,17.61,38.02,26.83,58.88,32.27,33.41,8.72,68.68,9.87,103.01,8.57,0,0-155.37-24.05-167.39-203"/><polygon class="cls-6" points="185 47.28 184.66 107 172.05 98.9 172.05 38 185 47.28"/><path class="cls-2" d="m398.35,96.12c.28,2.36.14,3.34-1.82,5.02-1.03.88-.9,2.63,0,3.54,1.02,1.02,2.51.88,3.54,0,2.71-2.32,3.7-5.07,3.28-8.55-.16-1.34-1.03-2.5-2.5-2.5-1.23,0-2.66,1.15-2.5,2.5h0Z"/><path class="cls-2" d="m389.71,107.12c-9.76,6.47-20.62,11.38-32.01,14.14-3.13.76-1.8,5.58,1.33,4.82,11.77-2.85,23.13-7.96,33.21-14.64,2.67-1.77.17-6.1-2.52-4.32h0Z"/></svg>