<?xml version="1.0" encoding="UTF-8"?><svg id="Layer_1" xmlns="http://www.w3.org/2000/svg" viewBox="0 0 300 300"><defs><style>.cls-1{fill:#fff;}.cls-2{fill:#2b67f8;}</style></defs><rect class="cls-1" x="62.98" y="74.74" width="223.48" height="93.1" rx="46.55" ry="46.55"/><path class="cls-2" d="m239.91,164.1c-27.33,0-54.65,0-81.98,0-14.48,0-28.95,0-43.43,0-4.3,0-8.57.1-12.82-.72-12.97-2.51-24.16-10.91-30.24-22.63-12.6-24.29,1.81-54.78,28.26-61.11,9.89-2.37,21.27-1.15,31.34-1.15,33.46,0,66.92,0,100.38,0,2.82,0,5.64-.04,8.47,0,12.5.16,24.26,5.48,32.47,14.96,17.96,20.73,11.15,53.42-12.99,65.94-6.05,3.14-12.67,4.61-19.45,4.71-4.82.07-4.84,7.57,0,7.5,27.55-.41,50.71-23.11,50.29-51s-23.23-49.28-50.32-49.61c-30.77-.37-61.57,0-92.34,0-12.48,0-24.97-.1-37.45,0-24.24.2-46.09,17.46-50.11,41.78-4.49,27.17,14.28,53.92,41.7,58.18,10.94,1.7,22.69.64,33.7.64,34.07,0,68.14,0,102.21,0h2.32c4.83,0,4.83-7.5,0-7.5Z"/><path class="cls-1" d="m180.46,76.89c4.25,6.13,21.44,32.44,12.89,63.62-2.99,10.89-8.27,19.31-12.89,25.18"/><path class="cls-2" d="m177.22,78.79c17.66,25.6,20.27,58.85.59,84.26-2.92,3.77,2.35,9.12,5.3,5.3,12.32-15.91,18.34-35.25,15.62-55.36-1.84-13.59-7.26-26.72-15.03-37.99-2.72-3.95-9.23-.2-6.48,3.79h0Z"/><path class="cls-2" d="m214.91,90.99h-.18c-4.83,0-4.83,7.5,0,7.5h28.7c4.83,0,4.83-7.5,0-7.5h-28.7c-4.83,0-4.83,7.5,0,7.5h.18c4.83,0,4.83-7.5,0-7.5h0Z"/><path class="cls-1" d="m168.28,94.08c-20.21,0-37.96-.72-59.36-.35-6.73.11-13.18,3.15-18.34,7.47-3.85,3.22-6.78,8.68-6.75,14.25"/><path class="cls-2" d="m168.28,90.33c-18.82-.02-37.64-.64-56.47-.39-15.04.19-31.04,8.92-31.74,25.52-.2,4.83,7.3,4.82,7.5,0,.33-7.74,5.98-13.07,12.76-16.02s15.24-2.07,22.68-2.06c15.09.02,30.18.44,45.27.45,4.83,0,4.83-7.49,0-7.5h0Z"/><rect class="cls-1" x="10.84" y="153.6" width="223.48" height="93.1" rx="46.55" ry="46.55" transform="translate(183.09 426.92) rotate(-163.46)"/><path class="cls-2" d="m45.84,229.83c28.92,8.59,57.85,17.18,86.77,25.77,12.39,3.68,24.76,7.4,37.17,11.04,22.55,6.61,47.35-2.42,59.08-23.2,13.67-24.19,4.4-56.21-20.26-69.18-9.9-5.21-21.88-7.53-32.52-10.69-32.93-9.78-65.85-19.56-98.78-29.34-19.94-5.92-41.48-1.7-55.4,14.66-17.83,20.96-15.38,53.65,5.99,71.31,5.33,4.4,11.34,7.57,17.93,9.64,4.62,1.45,6.59-5.79,1.99-7.23-26.48-8.3-38.88-39.95-24.02-63.72,11.13-17.8,32.03-23.2,51.34-17.46,30.3,9,60.59,18,90.89,26.99,10.27,3.05,20.57,6,30.81,9.15,22.99,7.07,36.43,31.65,28.79,54.76s-31.7,33.58-53.78,27.12c-11.12-3.25-22.21-6.6-33.32-9.9-29.62-8.8-59.13-18.12-88.9-26.4-.61-.17-1.21-.36-1.82-.54-4.64-1.38-6.62,5.86-1.99,7.23Z"/><path class="cls-1" d="m129.71,155.95c-5.82,4.67-29.79,24.99-30.47,57.32-.24,11.29,2.43,20.87,5.19,27.81"/><path class="cls-2" d="m127.06,153.3c-26.62,21.44-38.92,56.11-26.25,88.78,1.73,4.45,8.98,2.52,7.23-1.99-7.1-18.3-6.66-38.17,2.62-55.61,5.33-10.03,12.88-18.76,21.7-25.87,3.76-3.03-1.58-8.3-5.3-5.3h0Z"/><path class="cls-1" d="m91.61,163.25c2.3.68-19.08-5.67-21.49-6.38l-5.85-1.74"/><path class="cls-2" d="m90.62,166.87l.17.05c4.64,1.38,6.62-5.86,1.99-7.23-9.17-2.72-18.34-5.45-27.51-8.17-4.64-1.38-6.62,5.86-1.99,7.23,9.17,2.72,18.34,5.45,27.51,8.17l1.99-7.23-.17-.05c-4.64-1.38-6.62,5.86-1.99,7.23h0Z"/><path class="cls-1" d="m136.49,175.9c19.38,5.76,36.59,10.12,57.01,16.56,6.42,2.03,11.74,6.77,15.46,12.38,2.77,4.18,4.03,10.25,2.41,15.58"/><path class="cls-2" d="m135.5,179.51c14.47,4.28,29.05,8.18,43.52,12.45,7.14,2.11,15.37,3.52,21.17,8.49s9.48,11.39,7.57,18.97c-1.18,4.68,6.05,6.68,7.23,1.99,4.06-16.12-8.93-28.99-23.25-33.45-17.98-5.59-36.19-10.36-54.25-15.7-4.64-1.37-6.62,5.86-1.99,7.23h0Z"/></svg>