<svg width="64" height="64" viewBox="0 0 64 64" fill="none" xmlns="http://www.w3.org/2000/svg">
<path d="M26.2336 11.9605V10.5H38.5376V11.9605C50.1412 14.7344 58.7677 25.1647 58.7677 37.6159C58.7677 52.186 46.954 63.9997 32.3838 63.9997C17.8137 63.9997 6 52.186 6 37.6159C6.0035 25.1612 14.63 14.7309 26.2336 11.9605Z" fill="#B974FF"/>
<path d="M56.7225 27.4238L22.3286 13.2284C23.586 12.71 24.8889 12.2827 26.2338 11.9605V10.5H27.7819L52.6912 20.7831C54.3444 22.7725 55.7068 25.0071 56.7225 27.4238Z" fill="#FCEE21"/>
<path d="M33.0951 6.9033C33.7816 5.95064 35.1615 3.90521 35.1615 2.77393C35.1615 1.24687 33.9181 0 32.3876 0C30.857 0 29.6137 1.24336 29.6137 2.77393C29.6137 3.90521 30.9901 5.95064 31.6801 6.9033H26.2373V11.2288H38.5414V6.9033H33.0951ZM32.3841 0.99119C33.3683 0.99119 34.1668 1.78974 34.1668 2.77393C34.1668 3.4534 33.1931 5.05051 32.3841 6.19231C31.575 5.05051 30.6013 3.4534 30.6013 2.77393C30.6013 1.79325 31.4034 0.99119 32.3841 0.99119Z" fill="#EFE1BD"/>
<path d="M37.459 63.5061L10.5218 52.3859C9.22238 50.4666 8.17515 48.3616 7.41162 46.1235L44.0856 61.2611C42.0157 62.2873 39.7951 63.0508 37.459 63.5061Z" fill="#FCEE21"/>
<path d="M52.2706 54.9423L6.06299 35.8715C6.16806 34.2709 6.41323 32.7054 6.79149 31.1958L55.0515 51.1141C54.2425 52.4731 53.3073 53.7515 52.2706 54.9423Z" fill="#FCEE21"/>
<path d="M58.267 42.7406L10.4272 22.9939C11.3204 21.6594 12.3326 20.4091 13.4463 19.2603L58.7609 37.9633C58.7398 39.5954 58.5717 41.1925 58.267 42.7406Z" fill="#FCEE21"/>
</svg>
