<svg width="175" height="443" viewBox="0 0 175 443" fill="none" xmlns="http://www.w3.org/2000/svg">
<path d="M158 368.08C158 295.22 158 182.75 158 182.75C158 167.56 153.16 153.52 144.96 142.03H30.66C22.46 153.51 17.6201 167.56 17.6201 182.75C17.6201 182.75 17.6201 295.41 17.6201 368.28C17.6201 441.15 2.06006 440.94 2.06006 440.94H173.55C173.56 440.95 158 440.95 158 368.08Z" fill="white" stroke="#3B65EE" stroke-width="2.5" stroke-miterlimit="10" stroke-linecap="round" stroke-linejoin="round"/>
<path d="M139.75 159.51C139.75 159.51 127.71 179.52 127.71 208.39Z" fill="white"/>
<path d="M139.75 159.51C138.12 163.45 136.7 167.41 135.4 171.4C134.76 173.4 134.13 175.4 133.57 177.42C133.31 178.43 133.01 179.44 132.73 180.45L131.98 183.5C131 187.57 130.14 191.67 129.47 195.82C128.74 199.96 128.3 204.15 127.7 208.38C127.25 204.14 127.15 199.85 127.53 195.58C127.81 191.3 128.58 187.08 129.54 182.9C130.55 178.73 131.89 174.65 133.56 170.71C135.25 166.79 137.21 162.95 139.75 159.51Z" fill="#3B65EE"/>
<path d="M35.8701 159.51C35.8701 159.51 47.9101 179.52 47.9101 208.39Z" fill="white"/>
<path d="M35.8701 159.51C38.4101 162.95 40.3701 166.79 42.0401 170.72C43.7101 174.66 45.0601 178.75 46.0601 182.91C47.0201 187.08 47.8001 191.31 48.0701 195.59C48.4501 199.85 48.3501 204.15 47.9001 208.39C47.3101 204.16 46.8701 199.97 46.1301 195.83C45.4701 191.68 44.6101 187.58 43.6201 183.51L42.8701 180.46C42.5901 179.45 42.2902 178.45 42.0302 177.43C41.4702 175.41 40.8401 173.41 40.2001 171.41C38.9201 167.41 37.5101 163.45 35.8701 159.51Z" fill="#3B65EE"/>
<path d="M61.1401 390.55C60.6201 386.35 60.3501 382.14 60.1701 377.94C59.9701 373.74 59.9201 369.53 59.8901 365.33C59.9101 361.13 59.9701 356.92 60.1601 352.72C60.3401 348.52 60.6201 344.31 61.1401 340.11C61.6601 344.31 61.9301 348.52 62.1201 352.72C62.3201 356.92 62.3701 361.13 62.3901 365.33C62.3701 369.53 62.3101 373.74 62.1101 377.94C61.9301 382.15 61.6501 386.35 61.1401 390.55Z" fill="#3B65EE"/>
<path d="M27.77 440.95C29.35 440.58 30.48 439.34 31.44 438.15C31.89 437.5 32.39 436.91 32.73 436.2L33.3 435.17L33.58 434.66L33.81 434.12L34.74 431.96C35.04 431.24 35.25 430.47 35.51 429.73C35.74 428.98 36.04 428.25 36.24 427.49L36.84 425.2C37.03 424.43 37.25 423.68 37.43 422.91L37.9 420.58C38.2 419.02 38.59 417.49 38.78 415.91L39.53 411.21C39.8 409.65 39.91 408.05 40.11 406.48L40.7 401.75L41.11 396.99L41.57 392.23C41.66 390.64 41.78 389.05 41.9 387.46C42.45 381.1 42.7 374.71 43.33 368.31C43.74 374.71 44.04 381.13 43.85 387.55C43.83 389.16 43.81 390.76 43.76 392.37L43.47 397.18L43.13 401.99L42.59 406.79C41.84 413.18 40.66 419.56 38.71 425.75L37.96 428.06C37.7 428.83 37.36 429.57 37.05 430.32C36.72 431.06 36.44 431.83 36.07 432.55L34.91 434.71L34.61 435.24L34.26 435.75L33.55 436.76C33.12 437.45 32.52 438.04 31.97 438.64C31.71 438.95 31.38 439.21 31.06 439.47C30.72 439.71 30.45 440.02 30.07 440.19C29.35 440.57 28.59 440.94 27.77 440.95Z" fill="#3B65EE"/>
<path d="M132.6 440.95C131.65 440.98 130.73 440.56 129.9 440.06C129.5 439.8 129.12 439.49 128.73 439.19L127.69 438.18C126.41 436.74 125.32 435.14 124.45 433.44C123.51 431.77 122.87 429.98 122.16 428.22C121.86 427.33 121.6 426.42 121.32 425.52C121.03 424.62 120.79 423.71 120.57 422.8C120.15 420.97 119.72 419.14 119.44 417.29C119.15 415.44 118.83 413.6 118.7 411.73C118.28 408.02 118.21 404.28 118.32 400.54C119.25 404.18 119.86 407.82 120.63 411.44L121.16 414.15L121.76 416.84C121.97 417.73 122.1 418.65 122.33 419.53L122.99 422.19C123.34 423.99 123.95 425.71 124.4 427.48L125.25 430.07C125.38 430.51 125.54 430.93 125.72 431.34L126.21 432.6C126.88 434.28 127.67 435.89 128.64 437.4L129.41 438.5L130.31 439.49C130.97 440.11 131.69 440.71 132.6 440.95Z" fill="#3B65EE"/>
<path d="M64.6401 117.95C64.9201 125.14 65.0401 132.33 65.2501 139.52L65.6001 161.09C65.8301 175.47 65.8601 189.85 65.8901 204.23C65.8601 218.61 65.8301 232.99 65.6001 247.37L65.2501 268.94C65.0401 276.13 64.9201 283.32 64.6401 290.51C64.3601 283.32 64.2302 276.13 64.0302 268.94L63.6801 247.37C63.4501 232.99 63.4201 218.61 63.3901 204.23C63.4201 189.85 63.4501 175.47 63.6801 161.09L64.0302 139.52C64.2402 132.33 64.3601 125.14 64.6401 117.95Z" fill="#3B65EE"/>
<path d="M105.04 192.86C104.52 187.35 104.25 181.85 104.07 176.34C103.87 170.83 103.82 165.33 103.79 159.82C103.81 154.31 103.87 148.81 104.06 143.3C104.24 137.79 104.52 132.29 105.04 126.78C105.56 132.29 105.83 137.79 106.02 143.3C106.22 148.81 106.27 154.31 106.29 159.82C106.27 165.33 106.21 170.83 106.01 176.34C105.83 181.85 105.56 187.36 105.04 192.86Z" fill="#3B65EE"/>
<path d="M87.8101 112.57C62.5801 112.57 40.4701 125.89 28.1001 145.87C44.3301 155.72 65.1301 161.64 87.8101 161.64C110.49 161.64 131.29 155.72 147.52 145.87C135.15 125.89 113.04 112.57 87.8101 112.57Z" fill="white" stroke="#3B65EE" stroke-width="2.5" stroke-miterlimit="10" stroke-linecap="round" stroke-linejoin="round"/>
<path d="M71.6201 121.46V93.76H91.1101H104.01V121.46" fill="white"/>
<path d="M71.6201 121.46V93.76H91.1101H104.01V121.46" stroke="#3B65EE" stroke-width="2.5" stroke-miterlimit="10" stroke-linecap="round" stroke-linejoin="round"/>
<path d="M71.6201 91.47V112.73C76.5801 115.4 82.1101 116.9 87.9501 116.9C93.6801 116.9 99.1201 115.45 104.01 112.87V91.47H91.1101H71.6201Z" fill="#D1DAED" stroke="#D1DAED" stroke-width="2.5" stroke-miterlimit="10" stroke-linecap="round" stroke-linejoin="round"/>
<path d="M71.6201 121.46V93.76H91.1101H104.01V121.46" stroke="#3B65EE" stroke-width="2.5" stroke-miterlimit="10" stroke-linecap="round" stroke-linejoin="round"/>
<path d="M48.3501 192.86V285.14" stroke="#3B65EE" stroke-width="2.5" stroke-miterlimit="10" stroke-linecap="round" stroke-linejoin="round"/>
<path d="M118.31 184.06C118.83 188.12 119.1 192.17 119.28 196.23C119.48 200.29 119.53 204.34 119.56 208.4C119.54 212.46 119.48 216.51 119.29 220.57C119.11 224.63 118.83 228.68 118.31 232.74C117.79 228.68 117.52 224.63 117.33 220.57C117.13 216.51 117.08 212.46 117.06 208.4C117.08 204.34 117.14 200.29 117.34 196.23C117.52 192.17 117.79 188.11 118.31 184.06Z" fill="#3B65EE"/>
<path d="M140.14 184.06L102.62 206.27L129.36 300.38C132.79 312.43 149.93 312.26 153.11 300.14L167.11 246.76C169.27 238.52 169.48 229.88 167.72 221.54L156.22 167.01" fill="white"/>
<path d="M140.14 184.06L102.62 206.27L129.36 300.38C132.79 312.43 149.93 312.26 153.11 300.14L167.11 246.76C169.27 238.52 169.48 229.88 167.72 221.54L156.22 167.01" stroke="#3B65EE" stroke-width="2.5" stroke-miterlimit="10" stroke-linecap="round" stroke-linejoin="round"/>
<path d="M35.5003 184.06L73.0204 206.27L46.2804 300.38C42.8504 312.43 25.7104 312.26 22.5304 300.14L8.53036 246.76C6.37036 238.52 6.16032 229.88 7.92032 221.54L19.4203 167.01" fill="white"/>
<path d="M35.5003 184.06L73.0204 206.27L46.2804 300.38C42.8504 312.43 25.7104 312.26 22.5304 300.14L8.53036 246.76C6.37036 238.52 6.16032 229.88 7.92032 221.54L19.4203 167.01" stroke="#3B65EE" stroke-width="2.5" stroke-miterlimit="10" stroke-linecap="round" stroke-linejoin="round"/>
<path d="M77.04 229.73C77.32 237.17 77.4401 244.62 77.6501 252.06L78.0001 274.39C78.2301 289.28 78.26 304.16 78.29 319.05C78.26 333.94 78.2301 348.82 78.0001 363.71L77.6501 386.04C77.4401 393.48 77.32 400.93 77.04 408.37C76.76 400.93 76.6301 393.48 76.4301 386.04L76.0801 363.71C75.8501 348.82 75.82 333.94 75.79 319.05C75.82 304.16 75.8501 289.28 76.0801 274.39L76.4301 252.06C76.6401 244.61 76.76 237.17 77.04 229.73Z" fill="#3B65EE"/>
<path d="M73.0199 206.26L87.2899 213.59C93.8899 216.98 98.4399 223.37 99.4799 230.72L100.39 237.12C101.26 243.27 94.5199 247.62 89.2799 244.29L66.3599 229.73L73.0199 206.26Z" fill="#E5ECF9" stroke="#3B65EE" stroke-width="2.5" stroke-miterlimit="10" stroke-linecap="round" stroke-linejoin="round"/>
<path d="M102.61 206.26L88.34 213.59C81.74 216.98 77.19 223.37 76.15 230.72L75.24 237.12C74.37 243.27 81.11 247.62 86.35 244.29L109.27 229.73L102.61 206.26Z" fill="white" stroke="#3B65EE" stroke-width="2.5" stroke-miterlimit="10" stroke-linecap="round" stroke-linejoin="round"/>
<path d="M100.14 207.61L106.81 231.08L101.11 234.7L93.23 211.17L100.14 207.61Z" fill="#E5ECF9" stroke="#E5ECF9" stroke-width="2.5" stroke-miterlimit="10" stroke-linecap="round" stroke-linejoin="round"/>
<path d="M102.61 206.26L88.34 213.59C81.74 216.98 77.19 223.37 76.15 230.72L75.24 237.12C74.37 243.27 81.11 247.62 86.35 244.29L109.27 229.73L102.61 206.26Z" stroke="#3B65EE" stroke-width="2.5" stroke-miterlimit="10" stroke-linecap="round" stroke-linejoin="round"/>
<path d="M100.14 207.61C100.42 206.71 101.19 206.01 102.18 205.87C103.55 205.68 104.81 206.63 105.01 208L123.26 317.62C123.45 318.99 122.5 320.25 121.13 320.45C119.76 320.64 118.5 319.69 118.3 318.32L100.06 208.7C99.9999 208.32 100.04 207.95 100.14 207.61Z" fill="white" stroke="#3B65EE" stroke-width="2.5" stroke-miterlimit="10" stroke-linecap="round" stroke-linejoin="round"/>
<path d="M146.91 380.48L84.9004 358.71L147.03 280.92L146.91 380.48Z" fill="#E5ECF9" stroke="#3B65EE" stroke-width="2.5" stroke-miterlimit="10" stroke-linecap="round" stroke-linejoin="round"/>
<path d="M146.95 341.95C146.45 341.54 145.79 341.31 145.1 341.39L94.5601 346.61L91.79 350.08C92.06 350.76 92.6 351.29 93.29 351.53C93.63 351.65 94.0001 351.7 94.3701 351.66L145.61 346.36C146.12 346.31 146.58 346.1 146.94 345.8L146.95 341.95Z" fill="#B0C3EA" stroke="#B0C3EA" stroke-width="2.5" stroke-miterlimit="10" stroke-linecap="round" stroke-linejoin="round"/>
<path d="M146.99 315.53C146.49 315.12 145.83 314.89 145.14 314.97L117.56 317.82L114.79 321.29C115.06 321.97 115.6 322.5 116.29 322.74C116.63 322.86 116.99 322.91 117.37 322.87L145.65 319.95C146.16 319.9 146.62 319.69 146.98 319.39L146.99 315.53Z" fill="#B0C3EA" stroke="#B0C3EA" stroke-width="2.5" stroke-miterlimit="10" stroke-linecap="round" stroke-linejoin="round"/>
<path d="M146.91 380.48L84.9004 358.71L147.03 280.92L146.91 380.48Z" stroke="#3B65EE" stroke-width="2.5" stroke-miterlimit="10" stroke-linecap="round" stroke-linejoin="round"/>
<path d="M94.8904 347.53C94.0104 347.22 93.3304 346.42 93.2304 345.43C93.0904 344.06 94.0904 342.83 95.4604 342.69L146.7 337.39C148.07 337.25 149.3 338.25 149.44 339.62C149.58 340.99 148.58 342.22 147.21 342.36L95.9704 347.66C95.5904 347.7 95.2204 347.65 94.8904 347.53Z" fill="white" stroke="#3B65EE" stroke-width="2.5" stroke-miterlimit="10" stroke-linecap="round" stroke-linejoin="round"/>
<path d="M117.88 318.74C117 318.43 116.32 317.63 116.22 316.64C116.08 315.27 117.08 314.04 118.45 313.9L146.73 310.98C148.1 310.84 149.33 311.84 149.47 313.21C149.61 314.58 148.61 315.81 147.24 315.95L118.96 318.87C118.59 318.9 118.22 318.86 117.88 318.74Z" fill="white" stroke="#3B65EE" stroke-width="2.5" stroke-miterlimit="10" stroke-linecap="round" stroke-linejoin="round"/>
<path d="M98.3002 342.46C98.3002 342.46 87.5102 346.37 79.6302 341.81C71.7402 337.25 69.7402 325.96 69.7402 325.96C69.7402 325.96 80.5302 322.05 88.4102 326.61C96.3002 331.16 98.3002 342.46 98.3002 342.46Z" fill="#E5ECF9" stroke="#3B65EE" stroke-width="2.5" stroke-miterlimit="10" stroke-linecap="round" stroke-linejoin="round"/>
<path d="M98.0903 339.32C98.0903 339.32 90.8103 330.46 92.4703 321.5C94.1303 312.54 104.11 306.88 104.11 306.88C104.11 306.88 111.39 315.74 109.73 324.7C108.07 333.66 98.0903 339.32 98.0903 339.32Z" fill="#E5ECF9" stroke="#3B65EE" stroke-width="2.5" stroke-miterlimit="10" stroke-linecap="round" stroke-linejoin="round"/>
<path d="M95.9703 349.87C99.9191 349.87 103.12 346.669 103.12 342.72C103.12 338.771 99.9191 335.57 95.9703 335.57C92.0214 335.57 88.8203 338.771 88.8203 342.72C88.8203 346.669 92.0214 349.87 95.9703 349.87Z" fill="#B0C3EA" stroke="#3B65EE" stroke-width="2.5" stroke-miterlimit="10" stroke-linecap="round" stroke-linejoin="round"/>
<path d="M45.9198 147.61C45.9198 147.61 39.3098 156.98 30.2298 157.76C21.1498 158.54 13.0498 150.42 13.0498 150.42C13.0498 150.42 19.6598 141.05 28.7398 140.27C37.8198 139.49 45.9198 147.61 45.9198 147.61Z" fill="#E5ECF9" stroke="#3B65EE" stroke-width="2.5" stroke-miterlimit="10" stroke-linecap="round" stroke-linejoin="round"/>
<path d="M47.7697 146.45C47.7697 146.45 36.4396 148.26 29.5496 142.3C22.6596 136.34 22.8197 124.87 22.8197 124.87C22.8197 124.87 34.1496 123.06 41.0396 129.02C47.9296 134.98 47.7697 146.45 47.7697 146.45Z" fill="#E5ECF9" stroke="#3B65EE" stroke-width="2.5" stroke-miterlimit="10" stroke-linecap="round" stroke-linejoin="round"/>
<path d="M48.3497 159.82C52.2985 159.82 55.4997 156.619 55.4997 152.67C55.4997 148.721 52.2985 145.52 48.3497 145.52C44.4008 145.52 41.1997 148.721 41.1997 152.67C41.1997 156.619 44.4008 159.82 48.3497 159.82Z" fill="#B0C3EA" stroke="#3B65EE" stroke-width="2.5" stroke-miterlimit="10" stroke-linecap="round" stroke-linejoin="round"/>
<path d="M62.65 162.43C66.5989 162.43 69.8 159.229 69.8 155.28C69.8 151.331 66.5989 148.13 62.65 148.13C58.7012 148.13 55.5 151.331 55.5 155.28C55.5 159.229 58.7012 162.43 62.65 162.43Z" fill="#B0C3EA" stroke="#3B65EE" stroke-width="2.5" stroke-miterlimit="10" stroke-linecap="round" stroke-linejoin="round"/>
<path d="M58.23 151.41C62.1789 151.41 65.3801 148.209 65.3801 144.26C65.3801 140.311 62.1789 137.11 58.23 137.11C54.2812 137.11 51.0801 140.311 51.0801 144.26C51.0801 148.209 54.2812 151.41 58.23 151.41Z" fill="#B0C3EA" stroke="#3B65EE" stroke-width="2.5" stroke-miterlimit="10" stroke-linecap="round" stroke-linejoin="round"/>
<path d="M135.76 151.86C135.76 151.86 133.38 140.64 138.98 133.45C144.58 126.26 156.05 125.84 156.05 125.84C156.05 125.84 158.43 137.06 152.83 144.25C147.23 151.43 135.76 151.86 135.76 151.86Z" fill="#E5ECF9" stroke="#3B65EE" stroke-width="2.5" stroke-miterlimit="10" stroke-linecap="round" stroke-linejoin="round"/>
<path d="M109.63 125.95C109.63 125.95 121.1 126.04 126.91 133.06C132.72 140.08 130.67 151.36 130.67 151.36C130.67 151.36 119.2 151.27 113.39 144.25C107.58 137.24 109.63 125.95 109.63 125.95Z" fill="#E5ECF9" stroke="#3B65EE" stroke-width="2.5" stroke-miterlimit="10" stroke-linecap="round" stroke-linejoin="round"/>
<path d="M130.44 156.34C134.389 156.34 137.59 153.139 137.59 149.19C137.59 145.241 134.389 142.04 130.44 142.04C126.491 142.04 123.29 145.241 123.29 149.19C123.29 153.139 126.491 156.34 130.44 156.34Z" fill="#B0C3EA" stroke="#3B65EE" stroke-width="2.5" stroke-miterlimit="10" stroke-linecap="round" stroke-linejoin="round"/>
<path d="M133.11 188.2C134.15 186.98 135.32 185.98 136.53 185.04C137.74 184.11 139 183.26 140.31 182.49C141.61 181.72 142.96 181.02 144.36 180.4C145.77 179.8 147.2 179.25 148.77 178.93C147.73 180.15 146.56 181.15 145.36 182.09C144.15 183.02 142.89 183.87 141.58 184.64C140.27 185.41 138.93 186.11 137.53 186.72C136.12 187.33 134.68 187.88 133.11 188.2Z" fill="#3B65EE"/>
<path d="M42.5099 188.2C40.9399 187.88 39.4999 187.33 38.0999 186.73C36.6999 186.12 35.3499 185.42 34.0499 184.65C32.7399 183.88 31.4799 183.03 30.2699 182.1C29.0699 181.16 27.8899 180.16 26.8599 178.94C28.4299 179.26 29.8699 179.81 31.2699 180.41C32.6699 181.02 34.0199 181.72 35.3199 182.5C36.6199 183.27 37.8899 184.12 39.0999 185.05C40.2999 185.99 41.4699 186.98 42.5099 188.2Z" fill="#3B65EE"/>
<path d="M117.02 88.94C117.02 88.94 124.3 94.48 130.44 87.75C136.57 81.03 131.42 72.91 131.42 72.91C131.42 72.91 140.03 60.08 137.62 53.72C135.21 47.36 129.48 47.35 129.48 47.35C129.48 47.35 138.49 36.06 131.82 28.53C125.15 20.99 110.89 25.53 110.89 25.53C110.89 25.53 112.38 3.94001 103.83 2.34001C95.2801 0.730011 89.72 11.34 89.72 11.34C89.72 11.34 80.8701 5.98002 74.7101 7.94002C68.5501 9.91002 68.5501 18.14 68.5501 18.14C68.5501 18.14 55.7201 20.41 53.4501 24.7C51.1801 28.99 53.4501 35.34 53.4501 35.34C53.4501 35.34 45.1801 32.93 40.6501 38.58C36.1201 44.23 48.0501 64.85 48.0501 64.85C48.0501 64.85 37.3501 83.38 43.6501 90.27C49.9501 97.17 62.8401 86.77 62.8401 86.77L117.02 88.94Z" fill="#E5ECF9" stroke="#3B65EE" stroke-width="2.5" stroke-miterlimit="10" stroke-linecap="round" stroke-linejoin="round"/>
<path d="M49.7507 79.035C52.8679 78.5943 54.711 73.4003 53.8675 67.4339C53.0239 61.4675 49.8131 56.9881 46.6959 57.4288C43.5787 57.8695 41.7356 63.0635 42.5792 69.0299C43.4227 74.9963 46.6335 79.4757 49.7507 79.035Z" fill="#E5ECF9" stroke="#3B65EE" stroke-width="2.5" stroke-miterlimit="10" stroke-linecap="round" stroke-linejoin="round"/>
<path d="M133.398 69.0196C134.241 63.0532 132.398 57.8592 129.281 57.4185C126.164 56.9778 122.953 61.4572 122.109 67.4236C121.266 73.3899 123.109 78.584 126.226 79.0247C129.343 79.4654 132.554 74.9859 133.398 69.0196Z" fill="#E5ECF9" stroke="#3B65EE" stroke-width="2.5" stroke-miterlimit="10" stroke-linecap="round" stroke-linejoin="round"/>
<path d="M120.68 42.91C120.68 42.91 119.47 46.66 113.39 45.15C107.31 43.64 97.2198 26.72 97.2198 26.72C97.2198 26.72 96.0299 35.48 87.9399 35.79C79.8499 36.09 74.8599 30.65 74.8599 30.65C74.8599 30.65 67.8899 49.4 61.8499 49.55C55.8099 49.7 55.5399 42.31 55.5399 42.31C51.6599 49.22 49.3999 57.45 49.3999 66.29C49.3999 90.76 66.6599 110.6 87.9399 110.6C109.23 110.6 126.48 90.76 126.48 66.29C126.49 57.71 124.36 49.7 120.68 42.91Z" fill="white" stroke="#3B65EE" stroke-width="2.5" stroke-miterlimit="10" stroke-linecap="round" stroke-linejoin="round"/>
<path d="M76.1801 63.9801C77.9142 63.9801 79.3201 60.3625 79.3201 55.9001C79.3201 51.4376 77.9142 47.8201 76.1801 47.8201C74.4459 47.8201 73.04 51.4376 73.04 55.9001C73.04 60.3625 74.4459 63.9801 76.1801 63.9801Z" fill="#3B65EE"/>
<path d="M99.72 63.9801C101.454 63.9801 102.86 60.3625 102.86 55.9001C102.86 51.4376 101.454 47.8201 99.72 47.8201C97.9859 47.8201 96.5801 51.4376 96.5801 55.9001C96.5801 60.3625 97.9859 63.9801 99.72 63.9801Z" fill="#3B65EE"/>
<path d="M83.3799 69.33C83.3799 69.33 83.8299 61.78 87.9499 61.78C92.0599 61.78 92.5199 69.33 92.5199 69.33" fill="#E5ECF9"/>
<path d="M83.3799 69.33C83.3799 69.33 83.8299 61.78 87.9499 61.78C92.0599 61.78 92.5199 69.33 92.5199 69.33" stroke="#E5ECF9" stroke-width="2.5" stroke-miterlimit="10" stroke-linecap="round" stroke-linejoin="round"/>
<path d="M81.9004 88.75C82.8804 88.13 83.8703 87.81 84.8503 87.57C85.8303 87.35 86.8204 87.25 87.8004 87.25C88.7804 87.25 89.7704 87.35 90.7504 87.57C91.7304 87.8 92.7204 88.12 93.7004 88.75C92.7204 89.37 91.7304 89.7 90.7504 89.93C89.7704 90.15 88.7804 90.25 87.8004 90.25C86.8204 90.25 85.8303 90.15 84.8503 89.93C83.8703 89.7 82.8904 89.37 81.9004 88.75Z" fill="#E5ECF9"/>
<path d="M102.96 68.14C102.96 68.14 101.47 83.15 87.9504 83.15C74.4304 83.15 72.9404 68.14 72.9404 68.14" fill="white"/>
<path d="M102.96 68.14C102.92 72.06 101.7 76.1 99.0804 79.34C97.8104 81 96.0204 82.26 94.1004 83.13C92.1604 84.06 90.0204 84.27 87.9504 84.4C85.8804 84.27 83.7404 84.07 81.8004 83.14C79.8804 82.27 78.0904 81.01 76.8204 79.35C74.2004 76.11 72.9804 72.06 72.9404 68.14C74.0004 71.9 75.7104 75.43 78.2704 78.04C80.8204 80.68 84.3404 81.89 87.9604 81.9C91.5704 81.89 95.1005 80.68 97.6505 78.04C100.19 75.44 101.9 71.9 102.96 68.14Z" fill="#3B65EE"/>
<path d="M83.3804 69.33C83.3804 69.33 83.8304 64.76 87.9504 64.76C92.0604 64.76 92.5204 69.33 92.5204 69.33" fill="white"/>
<path d="M83.3804 69.33C83.3804 69.33 83.8304 64.76 87.9504 64.76C92.0604 64.76 92.5204 69.33 92.5204 69.33" stroke="#3B65EE" stroke-width="2.5" stroke-miterlimit="10" stroke-linecap="round" stroke-linejoin="round"/>
<path d="M66.77 48.2301C66.77 48.2301 69.57 39.5601 76.8 39.5601Z" fill="white"/>
<path d="M66.7702 48.23C66.6702 46.94 66.9802 45.7 67.4602 44.54C67.9602 43.38 68.6702 42.3 69.5902 41.39C70.5202 40.48 71.6902 39.77 72.9602 39.39C74.2302 39.01 75.6102 39.09 76.7902 39.56C75.6202 40.14 74.6302 40.57 73.7602 41.19C72.8902 41.8 72.1002 42.44 71.3402 43.18C69.8302 44.66 68.5002 46.38 66.7702 48.23Z" fill="#3B65EE"/>
<path d="M109.12 48.2301C109.12 48.2301 106.32 39.5601 99.0903 39.5601Z" fill="white"/>
<path d="M109.12 48.23C107.39 46.38 106.06 44.66 104.54 43.17C103.78 42.44 102.99 41.79 102.12 41.18C101.24 40.56 100.26 40.13 99.0903 39.55C100.26 39.08 101.65 39 102.92 39.38C104.19 39.76 105.36 40.47 106.29 41.38C107.21 42.3 107.93 43.38 108.42 44.53C108.91 45.7 109.22 46.94 109.12 48.23Z" fill="#3B65EE"/>
</svg>
