<?xml version="1.0" encoding="UTF-8"?>
<svg id="Layer_2" xmlns="http://www.w3.org/2000/svg" viewBox="0 0 526.17 523.92">
  <defs>
    <style>
      .cls-1 {
        stroke-dasharray: 6.19 6.19;
      }

      .cls-1, .cls-2, .cls-3, .cls-4, .cls-5 {
        fill: none;
      }

      .cls-1, .cls-2, .cls-3, .cls-4, .cls-5, .cls-6, .cls-7, .cls-8 {
        stroke: #3b65ee;
      }

      .cls-1, .cls-2, .cls-3, .cls-5, .cls-7 {
        stroke-linecap: round;
        stroke-linejoin: round;
      }

      .cls-2, .cls-6 {
        stroke-width: 2px;
      }

      .cls-4, .cls-6, .cls-8 {
        stroke-miterlimit: 10;
      }

      .cls-9, .cls-10, .cls-11, .cls-7 {
        fill: #3b65ee;
      }

      .cls-12, .cls-6, .cls-8 {
        fill: #fff;
      }

      .cls-10 {
        opacity: .1;
      }

      .cls-11 {
        opacity: .2;
      }

      .cls-5 {
        stroke-dasharray: 6;
      }

      .cls-8 {
        stroke-width: 3px;
      }
    </style>
  </defs>
  <g id="Layer_7">
    <g>
      <path class="cls-8" d="M174.72,391.93c-2.05-27.52-4.01-58.15-5.21-87.82l-.19-4.97c-1.4-37.16-1.57-72.47.79-97.84,8-86,67.5-131.5,98.5-135.5s68,7,105,11,82,11,103,74,12,118,14,123-1,11,2,13,21,18,27,39,5,33,5,33c0,0-1,3-2,4s1,93-7,111c-8,18-36,25-61,27,0,0-16,8-41,5,0,0-15.58,4.86-38.6,6.81-9.6.81-17.4,5.19-39.4,8.19s-53.15-3.51-53.15-3.51l-2.42-.45c-6.55-.57-12.95-1.4-19.11-2.53,0,0-14.03-1.89-30.18-4.51,0,0-33.93-4.76-44.54-8.38s-8.62-16.85-9.11-29.23-2.38-80.25-2.38-80.25Z"/>
      <path class="cls-7" d="M261.61,293.8s153-15,228-8c0,0-205,5-228,8Z"/>
      <path class="cls-9" d="M229.11,305.3c2.07-88.09,34.39-212.13,139.6-219.53,12.79-.59,25.83-1.88,38.51.82,41.25,8.04,61.81,42.47,71.36,80.57,6.4,25.98,7.9,53.46,7.53,80.14-.75-58.24-10.48-144.17-79.4-158.03-10.51-2.14-21.16-1.66-31.82-.92-15.94.5-31.78,3.77-46.37,10.19-72.71,32.86-95.41,134.08-99.41,206.75h0Z"/>
      <path class="cls-9" d="M520.61,358.8c-51.61,6.1-104.62,10.49-156.46,13.36-25.9,1.34-52.53,2.3-78.51,2.18-5.24-.06-10.47-.16-15.71-.28,5.23-.2,10.46-.38,15.69-.52,76.46-3.21,158.49-9.94,234.98-14.74h0Z"/>
      <path class="cls-2" d="M490.11,362.3v14s0,4,3,4v-8h9v-11"/>
      <rect class="cls-3" x="495.11" y="364.3" width="4" height="4"/>
      <path class="cls-9" d="M493.61,380.3s6,38.5,4,38.5c0,0,5-4-4-38.5Z"/>
      <path class="cls-2" d="M501.61,372.8s13.07,41,9.03,46c-4.03,5-17.03,4-17.03,1s-1.32-39.5-1.32-39.5"/>
      <path class="cls-9" d="M436.01,285.58s30.21-6.8,42.22,33.39c0,0-11.5-32.33-42.22-33.39Z"/>
      <path class="cls-9" d="M272.66,305.3s39.21,35.33,85.45,50.13c0,0-50.35-5.86-85.45-50.13Z"/>
      <path class="cls-9" d="M383.11,112.3s52,28,65,71c0,0-32-50-65-71Z"/>
      <g>
        <path class="cls-10" d="M337.88,163.26s9.8,70.58,12.09,81.03l80.05-21.24-5.88-9.8-86.26-49.99Z"/>
        <g>
          <path class="cls-12" d="M410.25,158.53l-72.54,4.57s10.46,49.67,19.28,68.29c0,0,69.92-12.74,72.87-13.72,0,0-16.99-46.73-19.61-59.14Z"/>
          <path class="cls-9" d="M356.25,231.74c-8.76-18.5-19.23-67.97-19.34-68.47l-.19-.92,74.19-4.68.15.69c2.57,12.22,19.4,58.56,19.57,59.03l.29.79-.8.27c-2.96.99-70.12,13.23-72.98,13.75l-.62.11-.27-.57ZM409.61,159.38l-70.89,4.47c1.47,6.81,10.79,49.31,18.76,66.62,22.92-4.18,64.66-11.87,71.32-13.38-2.34-6.45-16.35-45.33-19.18-57.71Z"/>
        </g>
        <ellipse class="cls-9" cx="390.09" cy="179.17" rx="4.89" ry="4.92"/>
        <ellipse class="cls-9" cx="375.42" cy="179.17" rx="4.89" ry="4.92"/>
        <path class="cls-9" d="M401.25,191.9c1.13.19,1.94,1.31,1.64,2.42-2.71,10.1-12.64,16.7-23.13,14.98-10.49-1.72-17.82-11.15-17.19-21.6.07-1.15,1.19-1.96,2.32-1.77l36.36,5.97Z"/>
      </g>
      <path class="cls-6" d="M269.66,64.94s-7.56-59.64,30.44-63.64,41.41,33,42.7,71l-15.99-2.84S333.11-.7,303.11,4.3s-16.15,60.64-16.15,60.64c0,0-9.73-.36-17.29,0Z"/>
      <path class="cls-4" d="M305.93,4.05s27.18-5.75,34.18,66.25"/>
      <g>
        <path class="cls-3" d="M298.61,368.8s1,.02,3,.02"/>
        <path class="cls-1" d="M307.78,368.79c21.07-.18,78.24-1.58,169.75-10.4"/>
        <path class="cls-3" d="M480.62,358.09c.99-.1,1.99-.19,2.99-.29"/>
      </g>
      <path class="cls-9" d="M408.92,507.79s7.68-3.99,10.68-19.99c0,0-.36,15.99-10.68,19.99Z"/>
      <path class="cls-9" d="M449.11,501.3s6-1,16.21-10.45c0,0-6.98,11.85-16.21,10.45Z"/>
      <path class="cls-5" d="M279.67,64.98s-79.23,14.02-103.15,120.92c0,0-2.92,15.9-2.92,71.9s6,112,7,138-3.28,104.61,7.86,106.3"/>
      <path class="cls-9" d="M229.11,348.32s4.2,86.01,3.37,126.98c0,0,5.37-64.71-3.37-126.98Z"/>
      <path class="cls-11" d="M352.74,517.69s-109.1,19.01-315.63-9.39c-134.5-18.5,139.91-38.54,139.91-38.54,0,0-.51,18.47,2.04,24.76s11.4,8.6,30.47,11.94,96.12,14.99,101.1,14.66,31.24,1.47,42.11-3.43Z"/>
      <path class="cls-11" d="M232.62,264.43s49.71-188.9,168.1-166.02c0,0,56.4,4.87,85.4,97.38,0,0-8.01-116.32-110.51-108.91-102.5,7.42-136.48,107.68-142.99,177.55Z"/>
      <path class="cls-11" d="M316.04,6.69s21.06,11.65,24.06,65.13l-13.29-2.36s1.16-53.37-10.77-62.77Z"/>
      <path class="cls-11" d="M493.61,372.8s9.73,32.49,6.61,44.49-6.22,1.01-6.67,0-1.45-43,.05-44.5Z"/>
      <path class="cls-11" d="M490.11,364.3s-122.76,18.53-188.38,9.76l188.38-12.56v2.79Z"/>
    </g>
  </g>
</svg>