<svg width="321" height="108" viewBox="0 0 321 108" fill="none" xmlns="http://www.w3.org/2000/svg">
<g clip-path="url(#clip0_9_414)">
<path opacity="0.2" d="M160.06 107.88C248.459 107.88 320.12 86.0181 320.12 59.05C320.12 32.0819 248.459 10.22 160.06 10.22C71.6613 10.22 0 32.0819 0 59.05C0 86.0181 71.6613 107.88 160.06 107.88Z" fill="#3B65EE"/>
<path d="M160.06 99C239.125 99 303.22 77.0351 303.22 49.94C303.22 22.8449 239.125 0.880005 160.06 0.880005C80.9948 0.880005 16.8999 22.8449 16.8999 49.94C16.8999 77.0351 80.9948 99 160.06 99Z" fill="white" stroke="#3B65EE" stroke-width="1.75" stroke-miterlimit="10"/>
<path d="M210.05 60.38C210.729 60.38 211.28 59.8293 211.28 59.15C211.28 58.4707 210.729 57.92 210.05 57.92C209.371 57.92 208.82 58.4707 208.82 59.15C208.82 59.8293 209.371 60.38 210.05 60.38Z" fill="#3B65EE"/>
<path d="M136.38 63.89C137.059 63.89 137.61 63.3393 137.61 62.66C137.61 61.9807 137.059 61.43 136.38 61.43C135.701 61.43 135.15 61.9807 135.15 62.66C135.15 63.3393 135.701 63.89 136.38 63.89Z" fill="#3B65EE"/>
<path d="M137.26 44.59C137.939 44.59 138.49 44.0393 138.49 43.36C138.49 42.6807 137.939 42.13 137.26 42.13C136.581 42.13 136.03 42.6807 136.03 43.36C136.03 44.0393 136.581 44.59 137.26 44.59Z" fill="#3B65EE"/>
<path d="M124.1 44.59C124.779 44.59 125.33 44.0393 125.33 43.36C125.33 42.6807 124.779 42.13 124.1 42.13C123.421 42.13 122.87 42.6807 122.87 43.36C122.87 44.0393 123.421 44.59 124.1 44.59Z" fill="#3B65EE"/>
<path d="M221.45 56.87C222.129 56.87 222.68 56.3193 222.68 55.64C222.68 54.9607 222.129 54.41 221.45 54.41C220.771 54.41 220.22 54.9607 220.22 55.64C220.22 56.3193 220.771 56.87 221.45 56.87Z" fill="#3B65EE"/>
<path d="M174.09 40.2C174.769 40.2 175.32 39.6493 175.32 38.97C175.32 38.2907 174.769 37.74 174.09 37.74C173.411 37.74 172.86 38.2907 172.86 38.97C172.86 39.6493 173.411 40.2 174.09 40.2Z" fill="#3B65EE"/>
<path d="M227.59 63.01C228.269 63.01 228.82 62.4593 228.82 61.78C228.82 61.1007 228.269 60.55 227.59 60.55C226.911 60.55 226.36 61.1007 226.36 61.78C226.36 62.4593 226.911 63.01 227.59 63.01Z" fill="#3B65EE"/>
<path d="M296.88 48.68C296.88 72.41 235.62 91.66 160.06 91.66C84.5 91.66 23.24 72.41 23.24 48.68C23.24 24.95 84.5 3.95001 160.06 3.95001C235.62 3.95001 296.88 24.94 296.88 48.68Z" stroke="#3B65EE" stroke-width="0.8" stroke-miterlimit="10"/>
</g>
<defs>
<clipPath id="clip0_9_414">
<rect width="320.12" height="107.88" fill="white"/>
</clipPath>
</defs>
</svg>
