<svg width="200" height="200" viewBox="0 0 200 200" fill="none" xmlns="http://www.w3.org/2000/svg">
<g clip-path="url(#clip0_2223_66)">
<path d="M48.5527 148.713C48.166 152.76 47.0727 158.693 44.1327 163.2C39.2327 170.727 32.206 173.007 32.7993 174.533C33.5193 176.367 44.306 174.613 54.706 170.753C64.1127 167.26 71.4927 162.68 76.8727 158.687C84.186 160.153 91.886 160.933 99.8327 160.933C148.339 160.933 187.666 131.847 187.666 95.9667C187.666 60.0867 148.339 31 99.8327 31C51.326 31 11.9993 60.0867 11.9993 95.9667C11.9993 117.687 26.4127 136.92 48.5527 148.713Z" fill="white"/>
<path d="M51.0539 148.71C50.1073 157.823 46.9406 165.823 39.6873 171.71C38.5673 172.623 37.3606 173.723 36.0939 174.417C35.9206 174.51 35.2806 175.21 35.1006 175.203L35.0873 175.19C34.5273 174.55 34.3206 173.73 34.4739 172.717C34.6073 172.617 35.1939 172.797 35.3673 172.763C37.1473 172.377 39.1006 172.457 40.9273 172.097C43.5406 171.583 46.1206 170.917 48.6673 170.15C54.0273 168.53 59.2139 166.417 64.1539 163.79C66.2806 162.657 68.3673 161.437 70.3939 160.137C72.0539 159.07 73.8206 157.303 75.6139 156.537C77.4073 155.77 79.7339 156.717 81.6206 157.023C84.5806 157.503 87.5606 157.85 90.5473 158.083C95.7539 158.49 100.981 158.55 106.194 158.277C137.234 156.643 175.094 140.637 183.667 107.657C192.114 75.1766 164.274 49.1033 136.107 39.43C102.854 28.01 60.6873 32.3366 33.8206 56.4166C22.9273 66.1833 15.0006 79.5033 14.5206 94.3966C13.9406 112.283 23.9939 128.13 37.7673 138.823C41.5473 141.757 45.6073 144.29 49.8139 146.563C52.6473 148.09 50.1273 152.41 47.2873 150.883C33.0006 143.17 20.2339 131.69 13.7739 116.53C8.15394 103.337 8.18061 88.51 13.8139 75.3366C25.8273 47.2366 57.4073 32.61 86.2006 29.29C117.374 25.6966 153.061 34.1966 174.707 58.19C183.554 67.99 189.467 80.31 190.107 93.61C190.754 106.997 185.834 119.897 177.607 130.323C157.501 155.81 121.794 165.51 90.5473 163.083C85.7339 162.71 80.9473 162.037 76.2139 161.11L78.1406 160.857C71.4806 165.75 64.2539 169.743 56.5473 172.73C52.0806 174.463 47.4606 175.87 42.7673 176.83C39.8606 177.423 36.3473 178.263 33.3806 177.583C31.4673 177.15 29.8806 175.697 30.3873 173.577C30.8273 171.723 32.9206 170.603 34.3339 169.563C41.5006 164.303 45.1473 157.557 46.0673 148.717C46.3939 145.55 51.4006 145.517 51.0673 148.717L51.0539 148.71Z" fill="#2B67F8"/>
<path d="M128.392 95.8028C128.839 107.329 146.232 107.276 146.232 95.8028C146.232 84.3295 128.839 84.2628 128.392 95.8028C128.266 99.0095 123.266 99.0228 123.392 95.8028C123.686 88.2428 129.519 81.8828 137.312 81.8828C145.106 81.8828 151.232 88.2295 151.232 95.8028C151.232 103.376 144.886 109.723 137.312 109.723C129.739 109.723 123.686 103.363 123.392 95.8028C123.266 92.5828 128.266 92.5895 128.392 95.8028Z" fill="#2B67F8"/>
<path d="M91.4393 95.8028C91.886 107.329 109.279 107.276 109.279 95.8028C109.279 84.3295 91.886 84.2628 91.4393 95.8028C91.3126 99.0095 86.3126 99.0228 86.4393 95.8028C86.7326 88.2428 92.566 81.8828 100.359 81.8828C108.153 81.8828 114.279 88.2295 114.279 95.8028C114.279 103.376 107.933 109.723 100.359 109.723C92.786 109.723 86.7326 103.363 86.4393 95.8028C86.3126 92.5828 91.3126 92.5895 91.4393 95.8028Z" fill="#2B67F8"/>
<path d="M54.4862 95.8028C54.9328 107.329 72.3262 107.276 72.3262 95.8028C72.3262 84.3295 54.9328 84.2628 54.4862 95.8028C54.3595 99.0095 49.3595 99.0228 49.4862 95.8028C49.7795 88.2428 55.6128 81.8828 63.4062 81.8828C71.1995 81.8828 77.3262 88.2295 77.3262 95.8028C77.3262 103.376 70.9795 109.723 63.4062 109.723C55.8328 109.723 49.7795 103.363 49.4862 95.8028C49.3595 92.5828 54.3595 92.5895 54.4862 95.8028Z" fill="#2B67F8"/>
</g>
<defs>
<clipPath id="clip0_2223_66">
<rect width="200" height="200" fill="white" transform="matrix(-1 0 0 1 200 0)"/>
</clipPath>
</defs>
</svg>
