<svg width="208" height="462" viewBox="0 0 208 462" fill="none" xmlns="http://www.w3.org/2000/svg">
<path d="M89.3727 219.111C89.3727 219.111 70.2526 222.951 65.7026 220.601C61.1526 218.251 48.9727 196.971 48.9727 196.971L51.7627 194.781L86.8427 204.161L89.3727 219.111Z" fill="white" stroke="#3B65EE" stroke-width="2.5" stroke-miterlimit="10" stroke-linecap="round" stroke-linejoin="round"/>
<path d="M42.3618 187.781L68.5619 197.141C68.6219 197.161 68.6318 197.231 68.5818 197.271L57.7018 206.321C57.6718 206.351 57.6218 206.341 57.5918 206.311L42.2618 187.901C42.2318 187.841 42.2918 187.751 42.3618 187.781Z" fill="#B0C3EA" stroke="#3B65EE" stroke-width="2.5" stroke-miterlimit="10" stroke-linecap="round" stroke-linejoin="round"/>
<path d="M109.803 69.9298L115.983 94.0798L150.263 88.6399L147.963 67.4898C147.663 64.7398 147.893 61.9599 148.643 59.2899L152.013 47.2899L135.673 28.3698L103.203 25.3398L109.803 69.9298Z" fill="white" stroke="#3B65EE" stroke-width="2.5" stroke-miterlimit="10" stroke-linecap="round" stroke-linejoin="round"/>
<path d="M103.201 25.3398L100.611 40.8499C100.151 43.6199 98.6612 46.0999 96.4412 47.8199L87.7812 54.5099L97.9612 56.4398L98.4012 73.0198C98.5112 77.1498 101.881 80.4298 106.011 80.4298C106.971 80.4298 107.911 80.2498 108.801 79.8998L121.101 75.0498C124.741 73.6198 127.131 70.0998 127.131 66.1898V59.4598" fill="white"/>
<path d="M103.201 25.3398L100.611 40.8499C100.151 43.6199 98.6612 46.0999 96.4412 47.8199L87.7812 54.5099L97.9612 56.4398L98.4012 73.0198C98.5112 77.1498 101.881 80.4298 106.011 80.4298C106.971 80.4298 107.911 80.2498 108.801 79.8998L121.101 75.0498C124.741 73.6198 127.131 70.0998 127.131 66.1898V59.4598" stroke="#3B65EE" stroke-width="2.5" stroke-miterlimit="10" stroke-linecap="round" stroke-linejoin="round"/>
<path d="M106.972 61.0996C106.862 61.6996 106.512 62.1796 106.102 62.5596C105.692 62.9496 105.192 63.2296 104.662 63.4296C103.602 63.7796 102.432 63.7996 101.402 63.2096C101.912 62.8896 102.382 62.6996 102.832 62.5096C103.282 62.3196 103.722 62.1596 104.162 62.0096C105.042 61.6996 105.872 61.4396 106.972 61.0996Z" fill="#3B65EE"/>
<path d="M87.793 54.5098L97.9729 56.4398L98.413 73.0197" stroke="#3B65EE" stroke-width="2.5" stroke-miterlimit="10" stroke-linecap="round" stroke-linejoin="round"/>
<path d="M127.612 40.7214L151.482 49.1814L148.642 59.2914C148.392 60.1714 148.072 61.9814 148.072 61.9814C124.652 72.6214 132.342 46.2614 132.342 46.2614L125.822 53.1414C125.072 53.9314 123.992 54.2914 122.922 54.1114C121.042 53.8014 119.832 51.9614 120.282 50.1114L122.782 39.9414L127.612 40.7214Z" fill="#B0C3EA"/>
<path d="M147.964 67.4813C147.664 64.7313 147.894 61.9513 148.644 59.2812L152.014 47.2812" stroke="#3B65EE" stroke-width="2.5" stroke-miterlimit="10" stroke-linecap="round" stroke-linejoin="round"/>
<path d="M175.852 56.9913L74.3125 29.7513L79.8125 25.3613L177.232 54.9514L175.852 56.9913Z" fill="#D1DAED" stroke="#3B65EE" stroke-width="2.5" stroke-miterlimit="10" stroke-linecap="round" stroke-linejoin="round"/>
<path d="M161.513 24.0204L152.023 47.2905L98.2227 30.9505L117.243 2.23047L160.693 21.9604C161.473 22.3104 161.833 23.2204 161.513 24.0204Z" fill="#D1DAED" stroke="#3B65EE" stroke-width="2.5" stroke-miterlimit="10" stroke-linecap="round" stroke-linejoin="round"/>
<path d="M149.594 211.54L81.3041 221.95L79.4141 202.4L122.774 181.58L149.594 211.54Z" fill="#D1DAED" stroke="#3B65EE" stroke-width="2.5" stroke-miterlimit="10" stroke-linecap="round" stroke-linejoin="round"/>
<path d="M197.502 419.289L202.812 430.579C205.592 436.479 206.772 443.009 206.242 449.509L205.442 459.229H189.622L189.332 446.549L176.042 459.529H131.422L137.122 448.719L164.562 443.759C168.312 443.079 170.472 439.119 169.012 435.599L163.902 423.299L197.502 419.289Z" fill="#B0C3EA" stroke="#3B65EE" stroke-width="2.5" stroke-miterlimit="10" stroke-linecap="round" stroke-linejoin="round"/>
<path d="M134.613 419.02L138.103 428.87C140.603 435.94 141.583 443.449 140.973 450.919L140.293 459.229H124.473L124.183 446.549L110.893 459.53H66.2734L71.9734 448.719L104.093 442.44L103.713 423.299L134.613 419.02Z" fill="#D1DAED" stroke="#3B65EE" stroke-width="2.5" stroke-miterlimit="10" stroke-linecap="round" stroke-linejoin="round"/>
<path d="M134.613 419.32L138.103 429.17C140.603 436.24 141.583 443.75 140.973 451.22L140.293 459.53H124.473L124.183 446.85L110.893 459.83H66.2734L71.9734 449.02L99.1735 443.7C102.013 443.14 104.053 440.63 103.993 437.73L103.713 423.6L134.613 419.32Z" fill="#D1DAED" stroke="#3B65EE" stroke-width="2.5" stroke-miterlimit="10" stroke-linecap="round" stroke-linejoin="round"/>
<path d="M168.68 276.35L153.3 320.1C151.13 326.27 151.73 333.07 154.94 338.76L203.35 424.6H162.43L116.07 352.36L128.34 297.65L168.68 276.35Z" fill="#D1DAED" stroke="#3B65EE" stroke-width="2.5" stroke-miterlimit="10" stroke-linecap="round" stroke-linejoin="round"/>
<path d="M193.832 197.98V224.951C193.832 243.3 187.272 261.05 175.322 274.99L134.712 322.38C130.652 327.12 128.742 333.35 129.452 339.55L139.322 425.43L100.192 424.62L88.8218 329.91C87.3818 317.88 90.1419 305.72 96.6419 295.49L125.252 250.48L125.442 228.98L148.632 199.951L193.832 197.98Z" fill="white" stroke="#3B65EE" stroke-width="2.5" stroke-miterlimit="10" stroke-linecap="round" stroke-linejoin="round"/>
<path d="M154.042 78.0898C171.392 86.7998 184.102 102.61 188.882 121.42C192.172 134.34 193.832 147.61 193.832 160.94V197.98L125.442 228.96L112.352 132.07L132.342 86.8698L154.042 78.0898Z" fill="white" stroke="#3B65EE" stroke-width="2.5" stroke-miterlimit="10" stroke-linecap="round" stroke-linejoin="round"/>
<path d="M83.9022 167.41L81.2522 165.01C77.7622 161.85 72.5822 161.47 68.6622 164.08L62.8922 167.93C60.5322 169.5 58.9122 171.95 58.3822 174.73L57.8922 177.32C57.3622 180.11 60.4422 182.17 62.8222 180.61L64.4722 179.53L67.7422 183.59C69.2822 185.5 71.6122 186.62 74.0722 186.62H86.5922L83.9022 167.41Z" fill="white" stroke="#3B65EE" stroke-width="2.5" stroke-miterlimit="10" stroke-linecap="round" stroke-linejoin="round"/>
<path d="M138.832 104.17L101.792 161.52L84.1821 165.39C79.0121 166.52 75.332 171.1 75.332 176.4C75.332 182.62 80.3721 187.67 86.6021 187.67H113.492C120.382 187.67 126.902 184.55 131.212 179.18L173.372 126.71C176.552 122.75 178.012 117.69 177.422 112.64C176.802 107.34 173.972 102.57 169.652 99.4499C165.902 96.7399 161.242 94.0899 157.382 94.0899C149.872 94.0799 142.892 97.8799 138.832 104.17Z" fill="#D1DAED" stroke="#3B65EE" stroke-width="2.5" stroke-miterlimit="10" stroke-linecap="round" stroke-linejoin="round"/>
<path d="M149.591 72.959L110.641 91.749L112.351 132.059L131.021 100.199C135.591 92.399 141.951 85.789 149.581 80.919L154.041 78.069L149.591 72.959Z" fill="#D1DAED" stroke="#3B65EE" stroke-width="2.5" stroke-miterlimit="10" stroke-linecap="round" stroke-linejoin="round"/>
<path d="M122.771 94.0781C122.011 95.1781 121.161 96.1782 120.271 97.1382C119.381 98.0982 118.441 98.9982 117.491 99.8882C116.521 100.748 115.531 101.608 114.481 102.388C113.441 103.178 112.371 103.938 111.191 104.578C111.951 103.468 112.801 102.478 113.691 101.518C114.581 100.558 115.521 99.6581 116.481 98.7681C117.461 97.9081 118.441 97.0581 119.491 96.2681C120.531 95.4781 121.601 94.7181 122.771 94.0781Z" fill="#3B65EE"/>
<path d="M154.044 78.0897C154.044 78.0897 173.164 82.4197 174.164 78.0897C175.164 73.7597 163.994 68.4597 155.884 72.9697C157.894 66.0697 156.514 62.8497 153.054 63.9497C149.594 65.0497 149.594 72.9697 149.594 72.9697L154.044 78.0897Z" fill="#D1DAED" stroke="#3B65EE" stroke-width="2.5" stroke-miterlimit="10" stroke-linecap="round" stroke-linejoin="round"/>
<path d="M115.213 40.7207L100.293 42.7907" stroke="#3B65EE" stroke-width="2.5" stroke-miterlimit="10" stroke-linecap="round" stroke-linejoin="round"/>
<path d="M108.37 45.951C107.94 46.311 107.48 46.5209 107.03 46.6809C106.57 46.8509 106.11 46.9409 105.64 47.0009C105.17 47.0509 104.7 47.0609 104.22 46.9909C103.74 46.9309 103.25 46.8209 102.75 46.5609C103.18 46.2009 103.63 45.9909 104.09 45.8309C104.55 45.6609 105.01 45.571 105.48 45.511C105.95 45.461 106.42 45.4609 106.9 45.5209C107.39 45.5809 107.87 45.691 108.37 45.951Z" fill="#3B65EE"/>
<path d="M104.191 49.1907C104.651 49.0507 105.061 49.0507 105.441 49.1007C105.831 49.1407 106.191 49.2407 106.531 49.3907C106.871 49.5407 107.191 49.7307 107.491 49.9807C107.791 50.2307 108.061 50.5307 108.281 50.9607C107.821 51.1007 107.411 51.1007 107.031 51.0607C106.641 51.0207 106.281 50.9207 105.941 50.7707C105.601 50.6207 105.281 50.4307 104.981 50.1807C104.681 49.9207 104.411 49.6207 104.191 49.1907Z" fill="#3B65EE"/>
<path d="M66.9104 213.89L50.1604 190.58C50.1504 190.57 50.1404 190.56 50.1204 190.55L41.3104 187.4C38.6204 186.44 35.8004 188.43 35.8004 191.29C35.8004 191.34 35.7603 191.37 35.7103 191.36L4.64038 185.96C3.04038 185.68 1.57031 186.92 1.57031 188.54V188.56C1.57031 189.83 2.48035 190.91 3.73035 191.14L34.5204 196.69C34.5504 196.7 34.5803 196.72 34.5803 196.75L34.9004 198.58C35.2004 200.28 36.5203 201.62 38.2203 201.93L47.0304 203.55C47.0604 203.55 47.0803 203.569 47.0903 203.6L54.0703 220.33C55.2703 223.2 58.0704 225.07 61.1804 225.07C66.9304 225.07 70.2704 218.56 66.9104 213.89Z" fill="#B0C3EA" stroke="#3B65EE" stroke-width="2.5" stroke-miterlimit="10" stroke-linecap="round" stroke-linejoin="round"/>
<path d="M51.3685 203.69L57.6085 216.01C58.8585 218.47 57.4685 221.44 54.7885 222.08L53.1785 222.46C51.0785 222.95 48.9384 221.8 48.1984 219.78L43.5684 207.08C42.8084 205.01 43.7685 202.7 45.7585 201.77C47.8485 200.78 50.3285 201.64 51.3685 203.69Z" fill="white" stroke="#3B65EE" stroke-width="2.5" stroke-miterlimit="10" stroke-linecap="round" stroke-linejoin="round"/>
<path d="M121.211 60.0516C119.891 59.8716 118.631 59.5517 117.391 59.1917C116.141 58.8317 114.931 58.3917 113.721 57.9417C112.521 57.4617 111.331 56.9617 110.171 56.3817C109.011 55.8117 107.861 55.1916 106.781 54.4316C108.101 54.6116 109.361 54.9217 110.601 55.2917C111.851 55.6517 113.061 56.0917 114.271 56.5417C115.471 57.0217 116.661 57.5217 117.821 58.1017C118.981 58.6817 120.121 59.3016 121.211 60.0516Z" fill="#3B65EE"/>
<path d="M117.861 55.0508C117.911 56.1808 117.681 57.2108 117.371 58.2308C117.031 59.2308 116.631 60.2108 115.931 61.1008C115.871 59.9708 116.111 58.9408 116.421 57.9208C116.751 56.9208 117.161 55.9408 117.861 55.0508Z" fill="#3B65EE"/>
<path d="M112.521 52.8809C112.571 54.0109 112.341 55.0409 112.031 56.0609C111.691 57.0609 111.291 58.0408 110.591 58.9308C110.531 57.8008 110.771 56.7709 111.081 55.7509C111.411 54.7509 111.821 53.7709 112.521 52.8809Z" fill="#3B65EE"/>
<path d="M115.44 53.2012C115.41 54.5912 115.09 55.9012 114.7 57.1812C114.28 58.4512 113.79 59.7012 113 60.8512C113.03 59.4612 113.35 58.1512 113.74 56.8712C114.17 55.6012 114.66 54.3512 115.44 53.2012Z" fill="#3B65EE"/>
</svg>
