<svg xmlns="http://www.w3.org/2000/svg" xmlns:xlink="http://www.w3.org/1999/xlink" viewBox="0 0 4800 3000"><defs><style>.cls-1,.cls-10,.cls-11,.cls-12,.cls-13,.cls-14,.cls-15,.cls-16,.cls-19,.cls-7,.cls-8,.cls-9{fill:none;}.cls-2{fill:#fff;}.cls-17,.cls-3,.cls-4,.cls-6{fill:#3b65ee;}.cls-3{opacity:0.1;}.cls-5{clip-path:url(#clip-path);}.cls-6{opacity:0.2;}.cls-10,.cls-11,.cls-12,.cls-13,.cls-14,.cls-15,.cls-16,.cls-17,.cls-19,.cls-7,.cls-8,.cls-9{stroke:#3b65ee;}.cls-10,.cls-11,.cls-13,.cls-14,.cls-15,.cls-16,.cls-19,.cls-7,.cls-8,.cls-9{stroke-linecap:round;}.cls-10,.cls-13,.cls-15,.cls-16,.cls-19,.cls-7,.cls-8,.cls-9{stroke-linejoin:round;}.cls-7{stroke-width:4px;}.cls-8{stroke-width:3.92px;}.cls-9{stroke-width:4.25px;}.cls-10,.cls-14{stroke-width:3.29px;}.cls-11,.cls-12,.cls-14,.cls-17{stroke-miterlimit:10;}.cls-11,.cls-12,.cls-13{stroke-width:2.92px;}.cls-15{stroke-width:3.64px;}.cls-16{stroke-width:1.76px;}.cls-17{stroke-width:2.3px;}.cls-18{clip-path:url(#clip-path-2);}.cls-19{stroke-width:3.47px;}</style><clipPath id="clip-path"><circle class="cls-1" cx="847.37" cy="1230.13" r="171.14"/></clipPath><clipPath id="clip-path-2"><circle class="cls-1" cx="3954.75" cy="1230.13" r="171.14"/></clipPath></defs><title>Super</title><g id="sketches"><rect class="cls-2" width="4800" height="3000"/></g><g id="Layer_4" data-name="Layer 4"><circle class="cls-3" cx="847.37" cy="1230.13" r="240"/><circle class="cls-3" cx="847.37" cy="1230.13" r="212.23"/><circle class="cls-3" cx="847.37" cy="1230.13" r="193.85"/><path class="cls-4" d="M847.37,1423.94l-9.52.07c-3.18-.11-6.35-.31-9.53-.47s-6.33-.62-9.5-.93-6.3-.93-9.46-1.4a186,186,0,0,1-36.78-10.51,189.46,189.46,0,0,1-34-17.79,190.34,190.34,0,0,1-54-54,189.46,189.46,0,0,1-17.79-34,186.81,186.81,0,0,1-10.52-36.79c-.46-3.15-1-6.29-1.39-9.45s-.69-6.34-.93-9.51-.35-6.35-.46-9.52l.07-9.53a204,204,0,0,0,16.23,73.55,197.68,197.68,0,0,0,18.06,33,198.16,198.16,0,0,0,52.93,52.94,197.68,197.68,0,0,0,33,18.06A203.8,203.8,0,0,0,847.37,1423.94Z"/><path class="cls-4" d="M847.37,1036.33l9.53-.08c3.17.11,6.35.32,9.52.47s6.34.62,9.51.93,6.3.94,9.45,1.4a185.94,185.94,0,0,1,36.79,10.52,189.41,189.41,0,0,1,34,17.78,190.55,190.55,0,0,1,54,54,189.07,189.07,0,0,1,17.78,34,185.17,185.17,0,0,1,10.52,36.78c.46,3.16,1,6.29,1.4,9.46s.69,6.33.93,9.5.35,6.35.46,9.53l-.07,9.52a204,204,0,0,0-16.23-73.55,198.07,198.07,0,0,0-18.06-33A198,198,0,0,0,954,1070.61a198.31,198.31,0,0,0-33-18.06A203.8,203.8,0,0,0,847.37,1036.33Z"/><circle class="cls-2" cx="847.37" cy="1230.13" r="171.14"/><path class="cls-4" d="M833.37,1119.63c1.48-4.53,3.26-8.91,5.14-13.25.91-2.18,1.92-4.3,2.89-6.46l3.06-6.38,3.21-6.3c1.13-2.08,2.2-4.18,3.39-6.22,2.3-4.12,4.71-8.2,7.42-12.12-1.49,4.53-3.26,8.91-5.14,13.25-.91,2.18-1.93,4.31-2.89,6.46l-3.07,6.38-3.21,6.3c-1.13,2.08-2.21,4.17-3.39,6.22C838.47,1111.63,836.07,1115.7,833.37,1119.63Z"/><path class="cls-4" d="M810,1113.3a98.3,98.3,0,0,1,.64-11.15c.37-3.69.91-7.35,1.53-11s1.36-7.27,2.24-10.88a96.34,96.34,0,0,1,3.15-10.72,96.08,96.08,0,0,1-.63,11.16c-.38,3.69-.91,7.35-1.54,11s-1.36,7.27-2.25,10.87A93.6,93.6,0,0,1,810,1113.3Z"/><path class="cls-4" d="M851,1126a96.92,96.92,0,0,1,7.6-8.19c2.64-2.6,5.39-5.08,8.2-7.5s5.68-4.74,8.66-7a93.63,93.63,0,0,1,9.25-6.25,95.29,95.29,0,0,1-7.6,8.19c-2.64,2.6-5.38,5.08-8.19,7.49s-5.68,4.74-8.66,7A96.88,96.88,0,0,1,851,1126Z"/><path class="cls-4" d="M746,1264.8c-2.68,4-5.59,7.67-8.59,11.32-1.48,1.85-3,3.61-4.56,5.42l-4.7,5.29-4.83,5.17c-1.65,1.69-3.26,3.41-5,5-3.35,3.33-6.79,6.58-10.47,9.61,2.67-4,5.59-7.67,8.58-11.32,1.48-1.85,3-3.61,4.57-5.42l4.7-5.29,4.83-5.17c1.65-1.68,3.26-3.4,5-5C738.91,1271.09,742.34,1267.84,746,1264.8Z"/><path class="cls-4" d="M766.71,1277.31a94.65,94.65,0,0,1-3.69,10.55c-1.37,3.44-2.89,6.82-4.5,10.15s-3.3,6.62-5.15,9.84a94.67,94.67,0,0,1-6,9.44,92.62,92.62,0,0,1,3.68-10.55c1.37-3.44,2.89-6.82,4.5-10.15s3.31-6.62,5.16-9.84A95.84,95.84,0,0,1,766.71,1277.31Z"/><path class="cls-4" d="M730.83,1253.82a97.53,97.53,0,0,1-9.56,5.78c-3.26,1.77-6.58,3.4-9.94,5s-6.77,3-10.24,4.3a94.77,94.77,0,0,1-10.62,3.46,94.5,94.5,0,0,1,9.56-5.78c3.25-1.78,6.58-3.41,9.94-5s6.77-3,10.24-4.29A92.81,92.81,0,0,1,730.83,1253.82Z"/><g class="cls-5"><path class="cls-4" d="M768.73,1147.14s15.62,26.26,49.75,19.55c0,0,10-25.46,4.55-41.35,0,0-48.15-8.51-64.7,3Z"/><path class="cls-4" d="M965.16,1409.45s-14.24,27-48.67,22.1c0,0-11.35-24.89-6.69-41,0,0,47.65-11,64.77-.41Z"/><path class="cls-4" d="M758.33,1128.29s-39.67,35.07-39.46,95.44c0,0,22.22,39.46,93.48,57.35,0,0,25.69-47.06,52-49,0,0-19.27-15-51.54-6.87,0,0,1.9-35.6-44.59-22.6a117,117,0,0,0,3.4-31c-.68-15.77,10.48-25.8,10.48-25.8Z"/><path class="cls-4" d="M811.44,1260.06s-12.55,66.62,13.25,150.32c0,0,34.36,31.54,87.06,9.57,0,0-3.59-47.87,55.9-91.22,0,0,26.1-39.78.31-68.77,0,0-22.69-27.84-51.54-36.24S838,1231.19,811.44,1260.06Z"/><path class="cls-4" d="M957.63,1258.83s39.3,1.1,51,26.52c0,0,50.74,28.91,49.14,91.1,0,0-4.2,34.54-106.79,38.15L937.69,1389s42-12.28,58.4-22.55,25.74-7.23,25.74-7.23-43.45,7.3-58.67-48.29Z"/><path class="cls-4" d="M938.4,1247.06s22.39-72,32.61-95.4c0,0-2.72-19.21-28.87-26.51s-39.57,1.29-52.62,21.18-25.6,53.51-25.6,53.51,9.2,7.85,26.34,9.34L875,1234.85Z"/></g><circle class="cls-3" cx="2400" cy="2222.69" r="240"/><circle class="cls-3" cx="2400" cy="2222.69" r="212.23"/><circle class="cls-3" cx="2400" cy="2222.69" r="193.85"/><path class="cls-4" d="M2400,2416.5l-9.53.07c-3.17-.11-6.34-.32-9.52-.47s-6.33-.62-9.5-.93-6.3-.94-9.46-1.4a185.82,185.82,0,0,1-36.78-10.51,190.1,190.1,0,0,1-34-17.79,190.34,190.34,0,0,1-54-54,189.54,189.54,0,0,1-17.79-34,186.52,186.52,0,0,1-10.52-36.78c-.46-3.16-1-6.29-1.39-9.46s-.69-6.33-.94-9.5-.35-6.35-.46-9.52l.07-9.53a204.22,204.22,0,0,0,16.23,73.55,198.45,198.45,0,0,0,18.07,33,198.16,198.16,0,0,0,52.93,52.94,198.4,198.4,0,0,0,33,18.06A204,204,0,0,0,2400,2416.5Z"/><path class="cls-4" d="M2400,2028.88l9.53-.07c3.17.11,6.34.32,9.52.47s6.33.62,9.5.93,6.3.94,9.46,1.4a185.82,185.82,0,0,1,36.78,10.51,190.1,190.1,0,0,1,34,17.79,190.34,190.34,0,0,1,54,54,189.54,189.54,0,0,1,17.79,34,186.52,186.52,0,0,1,10.52,36.78c.46,3.16,1,6.29,1.39,9.46s.69,6.33.94,9.5.35,6.35.46,9.52l-.07,9.53a204.22,204.22,0,0,0-16.23-73.55,198.45,198.45,0,0,0-18.07-33,198.16,198.16,0,0,0-52.93-52.94,198.4,198.4,0,0,0-33-18.06A204,204,0,0,0,2400,2028.88Z"/><circle class="cls-2" cx="2400" cy="2222.69" r="171.14"/><path class="cls-6" d="M2502.33,2186.38c3.7,59.45-37.69,170.3-97,174s-104.11-101.23-107.82-160.68,31.35-110.56,90.69-114.25A107.75,107.75,0,0,1,2502.33,2186.38Z"/><path class="cls-4" d="M2295,2214.48s44.84,5.26,68,17.32,36.49-10.83,63.39-28.45,77.31-29.07,77.31-29.07S2479,2291.79,2437.9,2293s-41.75-26.29-58.44-22.58-16.7,19.79-29.38,19.79S2306.48,2267.36,2295,2214.48Z"/><path class="cls-4" d="M2367.56,2189.08a2.43,2.43,0,0,1-1-1.68c-.2-1.77-.31-3.12-.33-4.06a22.24,22.24,0,0,1,2.62-10.9,75.73,75.73,0,0,1,7.58-11.07,72.61,72.61,0,0,0,5.59-7.79,11.18,11.18,0,0,0,1.68-6.07,8.77,8.77,0,0,0-4.26-7.83,14.64,14.64,0,0,0-9.62-2q-12.24,1.36-13.4,13.9a3.62,3.62,0,0,1-3.34,3.31l-11,1.23a2.74,2.74,0,0,1-2.18-.65,3.22,3.22,0,0,1-1.08-2.18,25.14,25.14,0,0,1,2.78-13.48,28.74,28.74,0,0,1,10.33-11.06,39.12,39.12,0,0,1,17.13-5.69q10.47-1.17,17.61,1.42a23,23,0,0,1,10.8,7.42,21.5,21.5,0,0,1,2.68,21.69,73.29,73.29,0,0,1-7.2,11.67,75.26,75.26,0,0,0-5.42,8.08,17.84,17.84,0,0,0-2.22,7c-.11,2.14-.16,3.6-.16,4.36a6.92,6.92,0,0,1-1.12,2.56,2.92,2.92,0,0,1-2.06,1l-12.5,1.39A2.54,2.54,0,0,1,2367.56,2189.08Zm2,23.8a2.88,2.88,0,0,1-1.12-2l-1.26-11.24a2.91,2.91,0,0,1,.64-2.24,3,3,0,0,1,2-1.13l12.5-1.4a3.18,3.18,0,0,1,2.31.64,2.85,2.85,0,0,1,1.18,2l1.26,11.24a3,3,0,0,1-.64,2.24,3.09,3.09,0,0,1-2.18,1.14l-12.5,1.4A2.92,2.92,0,0,1,2369.58,2212.88Z"/><path class="cls-2" d="M2399.56,2253.75s24.43-43.29,69.88-41.74C2469.44,2212,2451.2,2295.19,2399.56,2253.75Z"/><path class="cls-2" d="M2366.13,2258.61s-19.57-28.46-50.5-24.4C2315.63,2234.21,2333.65,2290.8,2366.13,2258.61Z"/><polyline class="cls-7" points="1916.99 976.12 1938.97 987.06 1921.02 1003.88"/><polyline class="cls-8" points="2386 1538 2398.95 1518 2414 1536.66"/><path class="cls-7" d="M1246,1133s367-95,658-140"/><path class="cls-7" d="M2399.5,1547.5s2.25,205,0,315"/><polygon class="cls-6" points="2391.81 1089.07 2408.21 1089.1 2400.08 879.55 2391.81 1089.07"/><path class="cls-6" d="M2371.63,482.3s-19.38-31-34.55-34.07a49.61,49.61,0,0,0-26.73,1.77S2363.14,475,2371.63,482.3Z"/><path class="cls-6" d="M2210.77,608l16.46-37.63,35.9-37.59s16.95,35.26,27.24,49.85,41.23,42.59,29,111.8c0,0-4.82-23.69-14.54-23.71s-36.44,2.37-38.26,3.58c0,0-18.21-10.36-29.71-28S2215,609.26,2210.77,608Z"/><path class="cls-6" d="M2192.15,663s42.46,29.23,57.63,37.15c0,0,6,23.09,13.31,28.57s22.45,12.79,27.31,11,20.08-23,21.3-23c0,0-55,176,15.18,341.35,0,0-9.15,22.46-9.17,33.39,0,0-130,15-133,16.77,0,0,7.2,52.85,10.23,57.71,0,0-83.8-12.29-95.9-36,0,0-.4-119,36.31-267.77S2192.15,663,2192.15,663Z"/><path class="cls-9" d="M2482.14,696.58s44.72,124.59,22.65,238.12-31.19,123.24-31.19,123.24,20.56,48.62,6.5,99-25.62,68-27.5,99.55c0,0,21.14,66.85,14.4,99.63s-28,42.46-36.52,43.66-25.48-19.48-24.82-49.23,17.13-68,14.13-88.65-.56-26.73,2.5-36.44c0,0-2.9-78.35-10.75-106.3S2400.45,841,2400.45,841"/><path class="cls-9" d="M2319.33,696.3s-45.17,124.42-23.51,238,30.76,123.35,30.76,123.35-20.74,48.55-6.86,99,25.39,68.07,27.15,99.65c0,0-21.37,66.77-14.75,99.58s27.86,42.56,36.36,43.79,25.55-19.39,25-49.15-16.88-68-13.81-88.69.66-26.72-2.36-36.45c0,0,3.17-78.34,11.12-106.26s12-278.14,12-278.14"/><path class="cls-9" d="M2315.18,1128.36s21-30,41.11-45.12a129.44,129.44,0,0,1,30,45.25"/><path class="cls-9" d="M2412.92,1124.79s16.24-33.53,27.18-41.4c0,0,29.31,12.1,44.65,45.27"/><path class="cls-4" d="M2353.17,618.42a80,80,0,0,1,9.91-10.67,95.28,95.28,0,0,1,11.56-9,72.72,72.72,0,0,1,27.24-11.22,52.89,52.89,0,0,1,29.39,3,56.75,56.75,0,0,1,12.8,7.35,64.56,64.56,0,0,1,5.59,4.72c1.77,1.66,3.37,3.5,5,5.27-7.53-6.06-15.67-11.23-24.55-14.23a55.54,55.54,0,0,0-27.51-2,82,82,0,0,0-26.24,9.85,125.67,125.67,0,0,0-12,7.77A135.9,135.9,0,0,0,2353.17,618.42Z"/><path class="cls-9" d="M2319.33,696.3s81.35,17.75,162.76.28"/><path class="cls-9" d="M2311.92,719.89s52.79,28.25,178.59,4.11"/><path class="cls-9" d="M2304.55,748.5s55.9,47.47,81.94,88.82c0,0,9.09,8.52,27.33,0,0,0,45.69-64.82,85.18-78.15"/><path class="cls-9" d="M2372.54,483.82s-18.16-31.61-33.95-35.89a44.73,44.73,0,0,0-28.54,1.77"/><path class="cls-6" d="M2430,482.3s19.38-31,34.56-34.07a49.61,49.61,0,0,1,26.73,1.77S2438.48,475,2430,482.3Z"/><path class="cls-9" d="M2429.08,483.82s18.17-31.61,34-35.89a44.76,44.76,0,0,1,28.55,1.77"/><path class="cls-9" d="M2192.45,663.27c-45.59,136.49-99.21,330.3-92.54,466.88,0,0-1.86,20,95.29,36,0,0-12.68-45-9.62-57.72,0,0,63.29-10.29,131.83-16.77"/><path class="cls-9" d="M2226,570.41c-3.6,9.78-11.29,28.9-15.26,40.06"/><path class="cls-4" d="M2184.39,1094.47c.55-31.66,1.9-63.3,3.81-94.91l1.52-23.69,1.71-23.69c.55-7.9,1.29-15.78,1.93-23.67l1-11.84,1.09-11.82c.76-7.88,1.48-15.77,2.29-23.64l2.49-23.62c.83-7.87,1.84-15.73,2.75-23.59s1.84-15.73,2.93-23.57c4-31.42,9-62.71,14.52-93.87-1.8,15.73-4.13,31.38-5.79,47.12l-2.8,23.56-2.63,23.58c-.91,7.86-1.68,15.73-2.53,23.59s-1.72,15.73-2.45,23.6l-2.35,23.61-2.2,23.62-1.13,11.81-1.05,11.82-2.06,23.63-2,23.64-1.93,23.65-3.64,47.33C2186.58,1062.89,2185.54,1078.68,2184.39,1094.47Z"/><polyline class="cls-10" points="2338.59 447.93 2362.86 438.04 2361.28 400.2"/><polyline class="cls-10" points="2459.45 449.36 2434.92 438.17 2436.62 406.92"/><path class="cls-4" d="M2388.69,455a36.13,36.13,0,0,1,3.09,4.46c.9,1.5,1.71,3,2.5,4.51s1.53,3,2.3,4.52l2.4,4.75a11.65,11.65,0,0,1-4.72-3.07,19.46,19.46,0,0,1-3.21-4.52,22.91,22.91,0,0,1-1.92-5.12A16.19,16.19,0,0,1,2388.69,455Z"/><line class="cls-9" x1="2408.03" y1="1089.29" x2="2392.03" y2="1089.27"/><path class="cls-11" d="M2418.35,299c2.28-11-.84-23.46-19-33,0,0-8.55,20.18-33.64,31.09a69.14,69.14,0,0,0-19,12.13l4.31,36c13.66-14.58,15.63-27.72,15.63-27.72"/><path class="cls-4" d="M2409,323a35.45,35.45,0,0,1,4.91-6.11,45.9,45.9,0,0,1,5.93-5.11,36.58,36.58,0,0,1,6.81-4,19.39,19.39,0,0,1,7.69-1.81,62.29,62.29,0,0,0-6.6,3.84c-2.11,1.35-4.14,2.84-6.19,4.3l-6.15,4.47C2413.33,320.1,2411.25,321.59,2409,323Z"/><path class="cls-4" d="M2421.68,317.66a18.58,18.58,0,0,1,4.34-3.59,26.81,26.81,0,0,1,5-2.41,25.22,25.22,0,0,1,5.43-1.34,18.09,18.09,0,0,1,5.64.07c-1.72.87-3.41,1.48-5.08,2.15s-3.33,1.26-5,1.86-3.35,1.18-5.06,1.75S2423.54,317.24,2421.68,317.66Z"/><path class="cls-12" d="M2434.34,312.1s2.89,15.81,13.59,20.69l3-28.22s-7.28-8.78-32.09-18.55"/><path class="cls-4" d="M2358.17,311.46c2.64,1.42,5.27,2.66,7.9,3.9s5.3,2.35,8,3.48,5.36,2.22,8.07,3.32c1.35.55,2.72,1.08,4.08,1.67s2.73,1.11,4.08,1.8c-1.5-.05-3-.23-4.47-.42s-2.94-.51-4.39-.88a56.74,56.74,0,0,1-8.5-2.8,49.74,49.74,0,0,1-7.94-4.19A28.53,28.53,0,0,1,2358.17,311.46Z"/><path class="cls-4" d="M2403.72,286a15.78,15.78,0,0,1,2.44,4.49c.33.79.53,1.62.79,2.45s.37,1.67.56,2.51a38.21,38.21,0,0,1,.32,10.24,48.2,48.2,0,0,1-2,10c-.52,1.61-1.15,3.18-1.77,4.75s-1.46,3-2.3,4.51c.23-1.69.59-3.31.94-4.94s.6-3.26.92-4.87c.53-3.25,1.09-6.47,1.35-9.7a70.08,70.08,0,0,0,.33-9.72c-.11-1.61-.2-3.24-.47-4.85A27.68,27.68,0,0,0,2403.72,286Z"/><path class="cls-4" d="M2403.17,325.41a64.05,64.05,0,0,0,4.73-6.06,73,73,0,0,0,4-6.52,53.34,53.34,0,0,0,3.11-6.91,42.16,42.16,0,0,0,1.91-7.21v-.06a1.46,1.46,0,0,1,2.88.52l0,.13a44.78,44.78,0,0,1-2.75,7.47,55.66,55.66,0,0,1-3.88,6.81,71.41,71.41,0,0,1-4.67,6.21A65.66,65.66,0,0,1,2403.17,325.41Z"/><path class="cls-11" d="M2350.78,343s4.1,38.79,6.52,47.07,12.12,29.71,17,35.07,11.18,8.29,25.79,8.32,21.42-4.83,24.83-8.72S2440,404.81,2443,383.89s5.4-55.3,5.4-55.3"/><path class="cls-11" d="M2447.62,338.39s-.41-8.28-17.93-8.31-27.78,16.5-27.78,16.5-23-17.72-51.42-6l3.58,30.15s7.39,5,21,.15,15.6-12.14,28.25-12.6,21,20.54,42.14,4Z"/><path class="cls-4" d="M2447.62,338.39s-.41-8.28-17.93-8.31-27.78,16.5-27.78,16.5-23-17.72-51.42-6l3.58,30.15s7.39,5,21,.15,15.6-12.14,28.25-12.6,21,20.54,42.14,4Z"/><path class="cls-2" d="M2390.22,354.84s-8.25-12.67-26.76-5.89C2363.46,349,2370.72,367.94,2390.22,354.84Z"/><path class="cls-2" d="M2412.61,351.47s8.3-12.64,26.78-5.79C2439.39,345.68,2432.06,364.65,2412.61,351.47Z"/><path class="cls-13" d="M2374.11,382.55s38.44,3,55-2.33c0,0-4.42,21.89-24.87,23.8S2374.11,382.55,2374.11,382.55Z"/><path class="cls-4" d="M2396.44,415.69a10.74,10.74,0,0,1,2.7-3.05,16,16,0,0,1,3.42-2.08,14.39,14.39,0,0,1,3.9-1.09,9,9,0,0,1,4.1.4c-1.23.72-2.35,1.26-3.47,1.81s-2.22,1.06-3.35,1.56-2.28,1-3.47,1.39A24.87,24.87,0,0,1,2396.44,415.69Z"/><path class="cls-4" d="M2376.79,377.93l-1.58,2.65c-.5.81-1,1.6-1.49,2.37s-1,1.56-1.63,2.34a14.6,14.6,0,0,1-1,1.18,9.28,9.28,0,0,1-1.17,1.18,7.38,7.38,0,0,1,0-3.31,9.53,9.53,0,0,1,1.28-3,8.64,8.64,0,0,1,2.3-2.37A5.26,5.26,0,0,1,2376.79,377.93Z"/><path class="cls-4" d="M2433.55,384.61l-2.1-2.26c-.64-.7-1.26-1.38-1.86-2.09s-1.21-1.43-1.79-2.22c-.29-.4-.59-.8-.86-1.26a8.6,8.6,0,0,1-.81-1.45,7.32,7.32,0,0,1,3.17,1,9.08,9.08,0,0,1,2.51,2.07,8.52,8.52,0,0,1,1.64,2.87A5.31,5.31,0,0,1,2433.55,384.61Z"/><path class="cls-4" d="M2396.2,371.73l7,1.13a.5.5,0,0,0,.17,0l6.88-2.16a.35.35,0,0,1,.31.63l-7.1,4.85a.38.38,0,0,1-.37,0l-7.15-3.79A.35.35,0,0,1,2396.2,371.73Z"/><path class="cls-14" d="M2380.28,392.55s23.49,2.64,43.44-1.56"/><path class="cls-4" d="M2338.39,563.93a191.51,191.51,0,0,1-18.26-7.32c-1.5-.67-3-1.36-4.46-2.09s-3-1.43-4.41-2.2-2.93-1.5-4.37-2.3l-4.31-2.41a160.39,160.39,0,0,1-16.51-10.93A97.81,97.81,0,0,1,2271.51,523l2.71,0c-2.9,3.41-5.84,6.74-8.81,10.06s-6,6.56-9.07,9.8c-6.09,6.5-12.41,12.78-18.86,18.93-3.22,3.08-6.56,6-9.87,9s-6.76,5.81-10.29,8.54c-7,5.48-14.28,10.79-22.32,14.65l5.56-3.67,5.31-4c1.77-1.33,3.43-2.8,5.15-4.19s3.37-2.87,5-4.32c6.65-5.85,13-12,19.27-18.26s12.38-12.66,18.42-19.14q4.53-4.86,9-9.8c3-3.28,5.93-6.59,8.81-9.92l1.36-1.58,1.35,1.6a106.14,106.14,0,0,0,13.83,13.38,187.26,187.26,0,0,0,15.85,11.25c5.49,3.49,11.16,6.71,16.91,9.81S2332.42,561.23,2338.39,563.93Z"/><path class="cls-15" d="M2250.08,699.82s-84.94-49.35-108.57-78.54l-5.41-30.38s45-47.29,61.46-66.7,40.82-74,98.52-77.56c0,0,10.64-5.15,84,42.36,0,0,13.43,5.57,21.29,6.45"/><path class="cls-4" d="M2185.3,587.34a133.53,133.53,0,0,1,12.08,9c3.86,3.21,7.61,6.57,11.19,10.11s7,7.25,10.27,11.1,6.17,8,9,12.14l8.37,12.44c2.76,4.13,5.62,8.18,8.65,12.08.73,1,1.54,1.94,2.32,2.89s1.57,1.91,2.41,2.81,1.64,1.85,2.49,2.74l2.63,2.61a74,74,0,0,0,11.78,9.1,57.44,57.44,0,0,1-13-7.75A83.69,83.69,0,0,1,2242.71,656c-3.38-3.78-6.33-7.87-9.3-11.93s-5.68-8.26-8.53-12.34-5.63-8.19-8.71-12-6.33-7.62-9.65-11.31Q2196.47,597.41,2185.3,587.34Z"/><path class="cls-6" d="M2589.23,608l-16.46-37.63-35.9-37.59s-16.95,35.26-27.24,49.85-41.23,42.59-29,111.8c0,0,4.82-23.69,14.54-23.71s36.44,2.37,38.26,3.58c0,0,18.21-10.36,29.71-28S2585,609.26,2589.23,608Z"/><path class="cls-6" d="M2607.85,663s-42.46,29.23-57.63,37.15c0,0-6,23.09-13.31,28.57s-22.45,12.79-27.31,11-20.08-23-21.3-23c0,0,55,176-15.18,341.35,0,0,9.15,22.46,9.17,33.39,0,0,130,15,133,16.77,0,0-7.2,52.85-10.23,57.71,0,0,83.8-12.29,95.9-36,0,0,.4-119-36.31-267.77S2607.85,663,2607.85,663Z"/><path class="cls-9" d="M2607.55,663.27c45.59,136.49,99.21,330.3,92.54,466.88,0,0,1.86,20-95.29,36,0,0,12.68-45,9.62-57.72,0,0-63.29-10.29-131.83-16.77"/><path class="cls-9" d="M2574,570.41c3.6,9.78,11.29,28.9,15.26,40.06"/><path class="cls-4" d="M2615.61,1094.47c-1.15-15.79-2.19-31.58-3.46-47.35l-3.64-47.33-1.93-23.65-2-23.64-2.06-23.63-1.05-11.82-1.13-11.81-2.2-23.62L2595.78,858c-.73-7.87-1.64-15.73-2.45-23.6s-1.62-15.73-2.53-23.59l-2.63-23.58-2.8-23.56c-1.66-15.74-4-31.39-5.79-47.12,5.56,31.16,10.55,62.45,14.52,93.87,1.09,7.84,2,15.7,2.93,23.57s1.92,15.72,2.75,23.59l2.49,23.62c.81,7.87,1.53,15.76,2.29,23.64l1.09,11.82,1,11.84c.64,7.89,1.38,15.77,1.93,23.67l1.71,23.69,1.52,23.69C2613.71,1031.17,2615.06,1062.81,2615.61,1094.47Z"/><path class="cls-15" d="M2268.35,674.34s33.42-7.84,41.9.07c0,0,8.48,14.6,7.26,20.06,0,0-14.66,44.31-26.81,45.5,0,0-25.5-4.9-30.95-13.41s-10.29-17-9.67-24.92S2255.59,678,2268.35,674.34Z"/><path class="cls-4" d="M2308.41,684.74q-1.87,1.74-3.86,3.34c-1.3,1.09-2.65,2.1-4,3.15l.47-.56a93.09,93.09,0,0,1-4,9.58q-2.25,4.66-4.9,9.11c-1.78,2.95-3.65,5.85-5.7,8.63a79.93,79.93,0,0,1-6.62,8c1.38-3.2,3-6.24,4.48-9.3s3.15-6.06,4.77-9.06l4.85-9c1.61-3,3.3-6,4.87-8.95l.11-.19a.78.78,0,0,1,.36-.36c1.51-.77,3-1.58,4.53-2.3S2306.83,685.39,2308.41,684.74Z"/><path class="cls-15" d="M2263.37,532.67s7.43,23.25,42.15,71.89c29.08,40.75,12,100.84,12,100.84"/><path class="cls-4" d="M2463.64,563.93c6-2.7,11.81-5.65,17.57-8.71s11.42-6.32,16.9-9.81A185.83,185.83,0,0,0,2514,534.16a106.06,106.06,0,0,0,13.82-13.38l1.36-1.6,1.36,1.58c2.87,3.33,5.84,6.64,8.81,9.92s5.94,6.56,9,9.8c6,6.48,12.14,12.91,18.43,19.14S2579.33,572,2586,577.88c1.66,1.45,3.3,2.94,5,4.32s3.39,2.86,5.16,4.19l5.31,4L2607,594c-8-3.86-15.3-9.17-22.32-14.65-3.53-2.73-6.91-5.63-10.29-8.54s-6.65-5.93-9.87-9c-6.45-6.15-12.77-12.43-18.86-18.93-3.05-3.24-6.09-6.49-9.07-9.8s-5.91-6.65-8.81-10.06l2.71,0A98.3,98.3,0,0,1,2516,536.68a160.39,160.39,0,0,1-16.51,10.93l-4.31,2.41c-1.44.8-2.91,1.53-4.37,2.3s-2.93,1.48-4.41,2.2-3,1.42-4.46,2.09A191.51,191.51,0,0,1,2463.64,563.93Z"/><path class="cls-15" d="M2552,699.82s84.94-49.35,108.57-78.54l5.41-30.38s-45-47.29-61.46-66.7-40.82-74-98.52-77.56c0,0-10.64-5.15-84,42.36,0,0-13.43,5.57-21.29,6.45"/><path class="cls-4" d="M2616.73,587.34q-11.17,10-21.22,21.06c-3.32,3.69-6.6,7.42-9.65,11.31s-5.92,7.9-8.71,12-5.62,8.25-8.53,12.34-5.92,8.15-9.3,11.93a83.69,83.69,0,0,1-10.87,10.59,57.44,57.44,0,0,1-12.95,7.75,74,74,0,0,0,11.78-9.1l2.63-2.61c.85-.89,1.66-1.83,2.49-2.74s1.62-1.86,2.41-2.81,1.59-1.89,2.32-2.89c3-3.9,5.88-8,8.65-12.08l8.36-12.44c2.88-4.11,5.78-8.25,9.05-12.14s6.67-7.58,10.27-11.1,7.33-6.9,11.19-10.11A133.53,133.53,0,0,1,2616.73,587.34Z"/><path class="cls-15" d="M2533.68,674.34s-33.42-7.84-41.9.07c0,0-8.48,14.6-7.26,20.06,0,0,14.66,44.31,26.81,45.5,0,0,25.5-4.9,31-13.41s10.29-17,9.67-24.92S2546.44,678,2533.68,674.34Z"/><path class="cls-4" d="M2493.62,684.74q2.37,1,4.65,2.11c1.53.72,3,1.53,4.52,2.3a.81.81,0,0,1,.37.36l.1.19c1.58,3,3.27,6,4.88,8.95l4.85,9c1.62,3,3.19,6,4.76,9.06s3.11,6.1,4.48,9.3a81.22,81.22,0,0,1-6.61-8c-2-2.78-3.92-5.68-5.7-8.63s-3.4-6-4.9-9.11a93.09,93.09,0,0,1-4-9.58l.47.56c-1.33-1.05-2.68-2.06-4-3.15S2494.87,685.9,2493.62,684.74Z"/><path class="cls-15" d="M2538.66,532.67s-7.43,23.25-42.15,71.89c-29.08,40.75-12,100.84-12,100.84"/><path class="cls-16" d="M2379.63,567.55l11.11-19.72s12.09,1.45,26.88,9.85"/><polyline class="cls-16" points="2389.23 550.49 2381.36 547.29 2381.5 527.08"/><path class="cls-3" d="M2453.93,505.24s-8.94,87.48-11.29,100.48L2343,583.1l6.82-12.35Z"/><path class="cls-2" d="M2364.46,502.63l89.67,2.4s-10.68,61.72-20.73,85.08c0,0-86.81-12.59-90.48-13.67C2342.92,576.44,2361.79,518.06,2364.46,502.63Z"/><path class="cls-17" d="M2434,591.22l-.77-.11c-3.54-.51-86.91-12.62-90.61-13.7l-1-.29.31-1c.19-.58,18.88-58.49,21.51-73.67l.15-.86,91.7,2.45-.2,1.15c-.11.62-10.81,62.11-20.8,85.31Zm-89.8-15.53c8.28,1.57,60.1,9.18,88.55,13.31,9.05-21.7,18.66-74.53,20.16-83l-87.63-2.35C2362.36,519.06,2346.82,567.63,2344.22,575.69Z"/><ellipse class="cls-4" cx="2408.37" cy="526.53" rx="6.04" ry="6.07" transform="translate(-17.47 87.48) rotate(-2.07)"/><ellipse class="cls-4" cx="2390.27" cy="527.18" rx="6.04" ry="6.07" transform="translate(-17.51 86.83) rotate(-2.07)"/><path class="cls-4" d="M2422.7,541.73a2.45,2.45,0,0,1,2.13,2.91,25.33,25.33,0,0,1-50-6.36,2.45,2.45,0,0,1,2.78-2.29Z"/><circle class="cls-3" cx="3954.63" cy="1230.13" r="240"/><circle class="cls-3" cx="3954.63" cy="1230.13" r="212.23"/><circle class="cls-3" cx="3954.63" cy="1230.13" r="193.85"/><path class="cls-4" d="M3954.63,1423.94l-9.53.07c-3.17-.11-6.35-.31-9.52-.47s-6.34-.62-9.51-.93-6.3-.93-9.45-1.4a185.91,185.91,0,0,1-36.79-10.51,189.46,189.46,0,0,1-34-17.79,190.69,190.69,0,0,1-54-54,189.41,189.41,0,0,1-17.78-34,185.46,185.46,0,0,1-10.52-36.79c-.46-3.15-1-6.29-1.4-9.45s-.69-6.34-.93-9.51-.35-6.35-.46-9.52l.07-9.53a204,204,0,0,0,16.23,73.55,197.68,197.68,0,0,0,18.06,33,198,198,0,0,0,52.94,52.94,197.59,197.59,0,0,0,33,18.06A203.81,203.81,0,0,0,3954.63,1423.94Z"/><path class="cls-4" d="M3954.63,1036.33l9.52-.08c3.18.11,6.35.32,9.53.47s6.33.62,9.5.93,6.3.94,9.46,1.4a186,186,0,0,1,36.78,10.52,189.41,189.41,0,0,1,34,17.78,190.21,190.21,0,0,1,54,54,189.12,189.12,0,0,1,17.79,34,186.52,186.52,0,0,1,10.52,36.78c.46,3.16,1,6.29,1.39,9.46s.69,6.33.93,9.5.35,6.35.46,9.53l-.07,9.52a204,204,0,0,0-16.23-73.55,198.07,198.07,0,0,0-18.06-33,198.16,198.16,0,0,0-52.93-52.94,198.4,198.4,0,0,0-33-18.06A203.79,203.79,0,0,0,3954.63,1036.33Z"/><circle class="cls-2" cx="3954.63" cy="1230.13" r="171.14"/><circle class="cls-2" cx="3954.75" cy="1230.13" r="171.14"/><g class="cls-18"><path class="cls-4" d="M3962.9,1135.11a119.94,119.94,0,0,1-3.72-13.32c-1-4.48-1.84-9-2.55-13.5s-1.26-9.08-1.67-13.65a119.73,119.73,0,0,1-.48-13.82,119.94,119.94,0,0,1,3.72,13.32c1,4.48,1.85,9,2.55,13.51s1.26,9.07,1.66,13.64A119.81,119.81,0,0,1,3962.9,1135.11Z"/><path class="cls-4" d="M4036.17,1145.88a79.08,79.08,0,0,1,1.08-11.27q.89-5.55,2.23-11c.89-3.63,1.91-7.23,3.1-10.78a79.23,79.23,0,0,1,4.26-10.49,79.22,79.22,0,0,1-1.08,11.27q-.89,5.55-2.23,11c-.9,3.62-1.92,7.22-3.11,10.77A81.25,81.25,0,0,1,4036.17,1145.88Z"/><path class="cls-4" d="M4056.31,1161.15a57.26,57.26,0,0,1,7.52-6q3.95-2.68,8.1-4.94c2.77-1.52,5.6-2.91,8.52-4.16a58.39,58.39,0,0,1,9.1-3.11,56.61,56.61,0,0,1-7.53,6,94.5,94.5,0,0,1-8.09,4.94c-2.78,1.51-5.61,2.9-8.53,4.15A57.6,57.6,0,0,1,4056.31,1161.15Z"/><path class="cls-4" d="M4047.63,1273.65a104.18,104.18,0,0,1,12.51,2.87c4.1,1.18,8.13,2.51,12.12,4s7.92,3.06,11.8,4.81a102,102,0,0,1,11.39,5.94,103.87,103.87,0,0,1-12.52-2.86q-6.13-1.77-12.11-4t-11.8-4.82A101.87,101.87,0,0,1,4047.63,1273.65Z"/><path class="cls-4" d="M4058.74,1260.46a39.26,39.26,0,0,1,7.82-1,66.57,66.57,0,0,1,7.74.13,64.69,64.69,0,0,1,7.67,1,40.27,40.27,0,0,1,7.58,2.21,38.75,38.75,0,0,1-7.83,1.06,66.33,66.33,0,0,1-15.4-1.16A39.09,39.09,0,0,1,4058.74,1260.46Z"/><path class="cls-4" d="M4009.25,1313.91a102.29,102.29,0,0,1,6.38,11.15q2.85,5.7,5.28,11.6t4.46,11.94a104.29,104.29,0,0,1,3.35,12.4,103.25,103.25,0,0,1-6.38-11.15c-1.91-3.81-3.66-7.68-5.28-11.6s-3.11-7.91-4.45-12A102.8,102.8,0,0,1,4009.25,1313.91Z"/><path class="cls-4" d="M3864.89,1282.56a108.06,108.06,0,0,1-11.13,6.78q-5.72,3.06-11.63,5.71c-3.93,1.76-7.92,3.4-12,4.89a106.57,106.57,0,0,1-12.48,3.8,104.88,104.88,0,0,1,11.14-6.79c3.81-2,7.68-3.94,11.62-5.7s7.93-3.4,12-4.89A106.41,106.41,0,0,1,3864.89,1282.56Z"/><path class="cls-4" d="M3860,1271.79a50.58,50.58,0,0,1-8.39,3.17c-2.84.82-5.71,1.48-8.6,2a85.24,85.24,0,0,1-8.76,1.12,48.92,48.92,0,0,1-9,0,49.71,49.71,0,0,1,8.39-3.17,83,83,0,0,1,8.6-2,86,86,0,0,1,8.76-1.12A49.8,49.8,0,0,1,3860,1271.79Z"/><path class="cls-4" d="M4026.48,1313.14a38.87,38.87,0,0,1,6.08,5,66.65,66.65,0,0,1,9.59,12.11,38.5,38.5,0,0,1,3.51,7.07,38.87,38.87,0,0,1-6.08-5,64.1,64.1,0,0,1-5.14-5.78,65.27,65.27,0,0,1-4.44-6.33A39.84,39.84,0,0,1,4026.48,1313.14Z"/><polyline class="cls-19" points="3852.91 1066.06 3887.29 1124.05 3865.07 1135.16 3908.82 1172.31 3892.15 1183.77 3958.82 1226.48 3920.28 1181.69 3938.68 1168.49 3907.78 1140.71 3928.61 1130.3 3901.53 1043.49"/><polyline class="cls-19" points="3737.55 1202.69 3803.15 1218.2 3795.73 1241.91 3852.84 1236.2 3849.52 1256.15 3926.54 1237.81 3867.54 1234.46 3870.82 1212.06 3829.37 1215.02 3836.33 1192.79 3755.05 1152.03"/><path class="cls-4" d="M3870.08,1339.41l27.39-62.85a2.19,2.19,0,0,1,1.4-1.24l60.56-17.83a2.24,2.24,0,0,0,1.38-1.17l17.82-37.3a2.24,2.24,0,0,0-.08-2.06l-19.71-34.5a2.22,2.22,0,0,1-.12-2l16.14-38.47a2.22,2.22,0,0,1,4.27.86v35.79a2.2,2.2,0,0,0,.46,1.35l21.67,28.33a2.18,2.18,0,0,0,1.14.79l32.5,9.38a2.28,2.28,0,0,0,1,.06l41.59-6.77a2.12,2.12,0,0,0,1.11-.52l24.4-21.5a2.22,2.22,0,0,1,3.39,2.77l-20.85,36a2.28,2.28,0,0,1-1.39,1l-47.43,11.77a2.23,2.23,0,0,0-1.06.61l-37.8,38.83a2,2,0,0,0-.46.69l-22.25,53a2.38,2.38,0,0,0-.17.79l-1.65,51.21a2.22,2.22,0,0,1-4.34.6l-18.08-57.08a2.27,2.27,0,0,1,0-1.39l13.77-40.35a2.22,2.22,0,0,0-2.59-2.88l-44.77,10.09a2.29,2.29,0,0,0-1.14.65l-42.42,45.56A2.22,2.22,0,0,1,3870.08,1339.41Z"/><ellipse class="cls-4" cx="4027.61" cy="1186.99" rx="23.09" ry="18.58" transform="translate(985.84 4081.51) rotate(-60)"/></g><polyline class="cls-7" points="2883.38 976.12 2861.41 987.06 2879.36 1003.88"/><path class="cls-7" d="M3554.39,1133s-367-95-658-140"/></g></svg>