<svg width="122" height="116" viewBox="0 0 122 116" fill="none" xmlns="http://www.w3.org/2000/svg">
<g clip-path="url(#clip0_9_316)">
<path d="M69.63 115.16C84.9007 115.16 97.28 113.741 97.28 111.99C97.28 110.239 84.9007 108.82 69.63 108.82C54.3593 108.82 41.98 110.239 41.98 111.99C41.98 113.741 54.3593 115.16 69.63 115.16Z" fill="white" stroke="#3B65EE" stroke-width="1.16" stroke-miterlimit="10"/>
<path opacity="0.2" d="M69.63 112.67C81.0181 112.67 90.25 111.806 90.25 110.74C90.25 109.674 81.0181 108.81 69.63 108.81C58.2419 108.81 49.01 109.674 49.01 110.74C49.01 111.806 58.2419 112.67 69.63 112.67Z" fill="#3B65EE"/>
<path d="M20.22 21.11C20.22 17.98 42.85 15.44 70.76 15.44C98.67 15.44 121.3 17.98 121.3 21.11C121.3 21.4 121.1 21.69 120.73 21.96C116.44 28.31 88.9 68.03 70.76 68.03C52.62 68.03 25.08 28.31 20.79 21.96C20.41 21.68 20.22 21.4 20.22 21.11Z" fill="white" stroke="#3B65EE" stroke-width="1.36" stroke-miterlimit="10"/>
<path d="M76.78 67.25L71.89 111.09C71.89 111.09 70.41 112.45 68.43 111.09L64.64 67.12C64.64 67.12 71.24 70.1 76.78 67.25Z" fill="white" stroke="#3B65EE" stroke-width="1.36" stroke-miterlimit="10"/>
<path d="M94.1 26.78C94.1 26.78 88.46 4.05002 82.67 6.35002C76.88 8.65002 80.05 12.28 75.52 9.11002C70.99 5.94002 68.27 1.40002 64.19 2.31002C60.11 3.22002 61.92 5.48002 59.2 5.94002C56.48 6.40002 54.21 2.77002 51.49 4.13002C48.77 5.49002 49.68 8.66002 49.68 11.38C49.68 14.1 47.87 14.55 46.51 15.91C45.15 17.27 42.88 21.58 46.51 23.5C50.14 25.42 52.83 21.8 53.75 26.78C54.67 31.76 56.03 34.94 60.56 34.49C65.09 34.04 66.91 32.22 70.98 34.04C75.05 35.86 84.58 37.21 86.84 35.85C89.1 34.49 94.55 35.4 95.91 33.13C97.27 30.86 94.1 26.78 94.1 26.78Z" fill="white" stroke="#3B65EE" stroke-width="1.36" stroke-miterlimit="10"/>
<path d="M93.4 32.32C81.61 23.41 69.21 14.52 54.67 10.91C69.25 12.46 83.22 22.19 93.4 32.32Z" fill="#3B65EE"/>
<path d="M84.4401 25.07C83.2301 23.53 82.5101 21.72 82.0101 19.85C81.5601 17.99 81.3501 15.99 81.8701 14.08C82.1601 15.02 82.3901 15.92 82.6301 16.82C83.3101 19.5 84.1201 22.26 84.4401 25.06V25.07Z" fill="#3B65EE"/>
<path d="M72.01 17.15C69 15.19 65.8 11.54 66 7.74002C67.73 11.13 70.26 13.72 72.01 17.15Z" fill="#3B65EE"/>
<path d="M79.9901 21.95C75.5601 22.43 71.7201 23.86 67.8201 25.87C70.5001 22.3 75.7201 20.45 79.9901 21.95Z" fill="#3B65EE"/>
<path d="M70.08 16.35C64.51 16.11 59.05 15.37 53.49 16.2C58.54 13.51 64.94 14.25 70.08 16.35Z" fill="#3B65EE"/>
<path opacity="0.2" d="M93.4001 29.81C93.4001 29.81 90.1001 27.43 89.3801 25.06C88.6601 22.69 89.9801 13.63 84.3301 14.08C78.6901 14.53 76.1701 18.16 74.0301 16.35C71.8901 14.54 66.9001 7.28002 62.8201 9.55002C58.7401 11.82 54.6601 7.63002 53.5301 12.44C52.4001 17.25 54.2101 16.35 55.5701 20.43C56.9301 24.51 53.7001 29.5 57.8101 31.08C61.9201 32.66 68.0401 29.38 72.0001 32.16C75.9601 34.93 81.5101 37.3 85.0801 35.44C88.6501 33.58 97.6801 34.21 93.3901 29.82L93.4001 29.81Z" fill="#3B65EE"/>
<path d="M108.7 0.970013L80.0099 33.94C79.5999 34.41 79.8099 35.15 80.4199 35.32C84.8799 36.59 100.07 39.97 109.52 30.53C119.08 20.97 112.27 5.42001 110.11 1.15001C109.84 0.610013 109.1 0.510013 108.7 0.970013Z" fill="white" stroke="#3B65EE" stroke-width="1.36" stroke-miterlimit="10"/>
<path d="M107.74 28.85C117.35 19.24 107.74 2.62003 107.74 2.62003" stroke="#3B65EE" stroke-width="1.17" stroke-miterlimit="10"/>
<path d="M111.96 16.32H95.34L107.73 28.85C98.12 38.46 81.61 32.64 81.61 32.64" stroke="#3B65EE" stroke-width="1.17" stroke-linecap="round" stroke-linejoin="round"/>
<path d="M95.34 16.32V34.26" stroke="#3B65EE" stroke-width="1.17" stroke-linecap="round" stroke-linejoin="round"/>
<path opacity="0.2" d="M109.29 3.89001L82.37 34.39C82.37 34.39 98.18 39.47 108.15 29.96C118.12 20.44 109.28 3.90001 109.28 3.90001L109.29 3.89001Z" fill="#3B65EE"/>
<path d="M20.22 21.11C20.22 24.24 42.85 26.78 70.76 26.78C98.67 26.78 121.3 24.24 121.3 21.11" stroke="#3B65EE" stroke-width="1.36" stroke-miterlimit="10"/>
<path d="M52.63 25.14C52.63 25.14 53.92 13.12 43.64 10.89C43.64 10.89 39.26 -3.12999 27.02 2.76001C27.02 2.76001 17.95 0.490009 12.52 7.29001C12.52 7.29001 3.90996 9.10001 2.99996 17.26C2.99996 17.26 -0.630037 25.42 1.18996 29.95C1.18996 29.95 2.99996 51.25 9.79996 50.8C16.6 50.35 12.07 41.28 15.69 34.03C15.69 34.03 19.39 31.31 22.53 28.14C22.53 28.14 29.74 23.61 34.73 24.51C34.73 24.51 46.06 26.67 52.63 25.14Z" fill="white" stroke="#3B65EE" stroke-width="1.36" stroke-miterlimit="10"/>
<path d="M9.79998 50.8C7.07998 45.81 9.34998 33.58 9.34998 33.58C8.89998 26.78 13.43 22.7 13.43 22.7C15.24 15.45 21.14 13.28 21.14 13.28C26.13 7.94002 34.57 9.52002 34.57 9.52002C38.03 7.68002 43.66 10.88 43.66 10.88" stroke="#3B65EE" stroke-width="1.36" stroke-miterlimit="10"/>
<path d="M41.97 25.47C41.97 25.47 43 13.12 34.56 9.53001C34.56 9.53001 35.18 4.57001 27.02 2.76001" stroke="#3B65EE" stroke-width="1.36" stroke-miterlimit="10"/>
<path d="M34.73 24.51C34.73 24.51 32.01 12.48 21.13 13.28C21.13 13.28 20.68 6.38 12.52 7.28" stroke="#3B65EE" stroke-width="1.36" stroke-miterlimit="10"/>
<path d="M15.6899 34.03C15.6899 34.03 12.9699 29.95 9.33993 33.58C9.33993 33.58 5.25993 25.87 1.17993 29.95" stroke="#3B65EE" stroke-width="1.36" stroke-miterlimit="10"/>
<path d="M13.9499 44.57C13.9499 44.57 30.1899 56.24 24.7499 65.3C19.3099 74.37 11.6099 50.34 11.6099 50.34C11.6099 50.34 17.3999 66.68 10.8799 68.03C4.35991 69.38 5.11991 51.99 6.54991 49.13C6.54991 49.13 12.6599 53.76 13.9499 44.57Z" fill="white" stroke="#3B65EE" stroke-width="1.36" stroke-miterlimit="10"/>
<path opacity="0.2" d="M13.9499 44.57C13.9499 44.57 30.1899 56.24 24.7499 65.3C19.3099 74.37 11.6099 50.34 11.6099 50.34C11.6099 50.34 17.3999 66.68 10.8799 68.03C4.35991 69.38 5.11991 51.99 6.54991 49.13C6.54991 49.13 12.6599 53.76 13.9499 44.57Z" fill="#3B65EE"/>
<path opacity="0.2" d="M50.7399 25.47C50.7399 25.47 46.9499 10.03 37.3299 11.27C37.3299 11.27 26.7999 10.09 23.6299 13.34C23.6299 13.34 16.8299 16.22 15.6999 22.3C15.6999 22.3 11.2099 25.24 10.8499 32.48C10.8499 32.48 6.97993 44.43 10.5499 50.23C10.5499 50.23 13.7899 49.76 14.0699 41.68C14.3499 33.6 17.1399 32.54 20.7299 29.89C24.3199 27.24 28.8599 24.74 31.1199 24.63C33.3799 24.52 40.2799 25.31 40.2799 25.31C40.2799 25.31 49.0899 25.98 50.7499 25.47H50.7399Z" fill="#3B65EE"/>
<path d="M22.53 28.14C22.53 28.14 21.13 22.7 13.43 22.7C13.43 22.7 9.80001 14.99 3.01001 17.26" stroke="#3B65EE" stroke-width="1.36" stroke-miterlimit="10"/>
<path d="M110.2 29.72C110.2 29.72 86.01 63.61 70.54 63.61C55.07 63.61 30.88 29.72 30.88 29.72C30.88 29.72 57.17 35.16 110.2 29.72Z" fill="#3B65EE" stroke="#3B65EE" stroke-width="1.81" stroke-linecap="round" stroke-linejoin="round"/>
<path opacity="0.2" d="M28.38 25.07L30.87 30.63L55.35 32.88L53.54 27L28.38 25.07Z" fill="#3B65EE"/>
</g>
<defs>
<clipPath id="clip0_9_316">
<rect width="121.98" height="115.74" fill="white"/>
</clipPath>
</defs>
</svg>
