<?xml version="1.0" encoding="UTF-8"?><svg id="Layer_1" xmlns="http://www.w3.org/2000/svg" viewBox="0 0 300 500"><defs><style>.cls-1{fill:#0069ff;}.cls-2{fill:#fff;}</style></defs><path class="cls-2" d="m148.99,106.75s53.5-.5,66.5,8.5,12,29,12,29v218s.02,30-78,31h1.02c-77-1-78-31-78-31v-218s-1-20,12-29,64.5-8.5,64.5-8.5"/><path class="cls-1" d="m148.99,109.25c14.42-.12,28.99.44,43.3,2.27,8.06,1.03,18.28,1.98,24.4,7.95s8.28,15.8,8.31,24.37c.06,18.09-.01,36.18-.01,54.27,0,34.98,0,69.95,0,104.93,0,19.62,1.05,39.56,0,59.16-.04.67-.06,1.06-.56,2.57-.93,2.86-2.95,5.67-5.19,7.94-11.8,11.9-31.43,15.11-47.27,16.78-7.47.79-14.97,1.13-22.48,1.25-3.21.05-3.22,5,0,5h1.02c3.22,0,3.22-4.95,0-5-20.92-.34-45.26-1.63-63.47-13.32-5.36-3.45-11.07-8.74-12.05-15.17.12.8.02-1.11.01-1.71-.02-3.02,0-6.05,0-9.07v-140.23c0-22.02.1-44.04,0-66.06-.06-12.7,3.8-26.49,17.18-30.63,16.67-5.16,35.44-5.16,52.75-5.3,1.36-.01,2.71-.02,4.07,0,3.22.03,3.22-4.97,0-5-15.22-.14-30.65.53-45.71,2.82-8,1.22-16.93,2.71-23.06,8.44-7.04,6.58-9.85,16.74-10.21,26.12-.71,18.34-.02,36.84-.02,55.18v150.11c0,5.07-.39,10.32,0,15.38.45,5.77,4.33,11.05,8.45,14.82,12.86,11.8,32.06,15.4,48.77,17.27,7.73.86,15.5,1.24,23.28,1.36v-5h-1.02v5c21.57-.34,46.34-1.75,65.31-13.32,6.57-4.01,13.29-10.13,14.91-18.02.7-3.39.28-7.09.28-10.51v-36.57c0-36.29,0-72.58,0-108.86,0-21.37-.02-42.74,0-64.12.01-15.37-6.07-30.39-21.85-34.88-17.5-4.97-36.86-5.07-54.94-5.21-1.4-.01-2.81-.02-4.21,0-3.22.03-3.22,5.03,0,5h0Z"/><path class="cls-1" d="m229.99,157.25c.38-8.34-1.89-17.56-6.58-24.47-5.77-8.5-14.37-11.06-24.04-12.7-16.52-2.81-33.66-3.24-50.4-2.83-3.21.08-3.23,5,0,5h.02c3.22,0,3.22-4.93,0-5-16.47-.38-33.41.08-49.64,3.06-9.26,1.7-17.42,4.35-22.76,12.63-4.49,6.96-6.56,16.05-6.61,24.3-.02,3.22,4.98,3.22,5,0,.04-7.57,1.96-16.01,6.25-22.3,5.32-7.78,14.88-9.22,23.59-10.5,14.53-2.13,29.49-2.54,44.16-2.2v-5h-.02v5c14.88-.36,30.01.02,44.77,2,8.3,1.12,17.99,2.3,23.77,9.01,5.45,6.34,7.86,15.7,7.48,23.99-.15,3.22,4.85,3.21,5,0h0Z"/><path class="cls-1" d="m211.38,252.75h-114.39c-2.38,0-8.86,1.32-9.99-1.72-.41-1.09,0-3.12,0-4.27v-78.18c0-1.93-.43-4.42,0-6.31.8-3.54,4.32-2.53,7.28-2.53h104.33c3.57,0,8.94-1.04,12.39,0s2,7.94,2,10.64v77.46c0,1.96.67,4.51-2.29,4.99-3.17.51-1.82,5.33,1.33,4.82,7.09-1.15,5.96-8.43,5.96-13.75v-27.28c0-17.8.17-35.62,0-53.42-.05-5.09-2.56-8.31-7.87-8.47s-10.86,0-16.28,0h-62.02c-14.14,0-28.49-.71-42.62,0-5.86.29-7.21,4.59-7.21,9.51v23.09c0,19.4,0,38.8,0,58.2,0,5.22-.46,11.67,6.66,12.2,3.78.28,7.69,0,11.48,0h111.24c3.22,0,3.22-5,0-5Z"/><path class="cls-1" d="m130.74,127.41c11.36,8.33,27.17,8.33,38.52,0,2.57-1.88.08-6.22-2.52-4.32-10.06,7.37-23.42,7.37-33.48,0-2.6-1.91-5.09,2.43-2.52,4.32h0Z"/><path class="cls-1" d="m154.96,285.38c-3.31,0-11.91,1.62-12.71-2.79-.33-1.78,0-3.93,0-5.74,0-2.62-.72-6.33,2.79-6.97,1.66-.3,3.67,0,5.35,0,2.4,0,5.71-.67,6.95,1.8.9,1.79.41,4.39.41,6.34,0,2.49.83,6.99-2.79,7.36-3.17.32-3.2,5.33,0,5,8.16-.83,7.79-7.98,7.79-14.29,0-2.75.24-5.52-1.44-7.89-1.91-2.69-4.68-3.27-7.76-3.32-5.4-.09-13.45-1.34-15.79,5.07-.9,2.48-.51,5.49-.51,8.07s-.34,5.27.63,7.59c2.74,6.48,11.48,4.77,17.08,4.77,3.22,0,3.22-5,0-5Z"/><path class="cls-1" d="m126.49,283.88c-3.15,0-7.52.85-10.53,0-2.68-.76-2.71-2.51-2.71-4.7,0-2.32-.87-5.96,2.26-6.94,1.17-.36,3.12,0,4.32,0,1.8,0,4.3-.45,6.05,0,2.62.68,2.87,2.43,2.87,4.7,0,1.87.86,6.57-2.26,6.94s-3.2,5.37,0,5c4.65-.54,7.11-3.5,7.26-8.1.1-2.92.58-6.95-.83-9.62-2.89-5.5-12.2-4.25-17.41-3.91-4.39.29-7.08,3.39-7.26,7.66-.13,2.88-.54,6.73.58,9.47,2.6,6.42,12.22,4.51,17.66,4.51,3.22,0,3.22-5,0-5Z"/><path class="cls-1" d="m98.45,281.97c-3.14-.78-6.33-1.47-9.45-2.36-1.67-.47-3.36-.7-4.28-2.49-1.27-2.45.01-4.54,2.51-4.88,2.67-.37,7.32-.65,9.97,0,2.15.53,2.55,1.79,2.55,3.68,0,1.62.76,5.64-1.97,5.95-3.16.37-3.2,5.37,0,5,4.04-.47,6.71-2.95,6.97-7.1.16-2.5.4-5.82-.55-8.19-2.4-6.04-11.35-4.43-16.47-4.34-2.81.05-5.37.43-7.16,2.92-2.25,3.11-1.6,8.07.81,10.89,3.46,4.06,10.86,4.52,15.73,5.74,3.12.78,4.45-4.04,1.33-4.82Z"/><path class="cls-1" d="m173.51,288.88c5.44,0,15.06,1.9,17.66-4.51,1.11-2.75.7-6.58.58-9.47-.18-4.26-2.88-7.37-7.26-7.66-5.22-.34-14.51-1.61-17.41,3.91-1.41,2.68-.92,6.69-.83,9.62.15,4.61,2.61,7.56,7.26,8.1,3.19.37,3.16-4.63,0-5-1.57-.18-2.09-2.17-2.26-3.39-.14-1.01,0-2.16,0-3.19,0-2.3-.12-4.26,2.71-5.06,1.65-.47,4.11,0,5.82,0,1.31,0,3.45-.41,4.71,0,3.76,1.22,3.37,10.7-.28,11.64-3.13.81-7.44,0-10.69,0s-3.22,5,0,5Z"/><path class="cls-1" d="m202.88,286.79c4.87-1.22,12.28-1.68,15.73-5.74,2.31-2.72,3-7.38,1.07-10.48-1.72-2.78-4.43-3.28-7.43-3.33-5.12-.09-14.07-1.69-16.47,4.34-.95,2.37-.7,5.69-.55,8.19.26,4.15,2.92,6.63,6.97,7.1,3.19.37,3.16-4.63,0-5-2.73-.32-1.97-4.34-1.97-5.95,0-1.89.4-3.15,2.55-3.68,1.27-.31,3.1,0,4.41,0,1.79,0,3.78-.25,5.56,0,2.46.34,3.83,2.44,2.51,4.88-.92,1.71-2.62,2.01-4.28,2.49-3.12.89-6.3,1.57-9.45,2.36s-1.8,5.6,1.33,4.82Z"/><path class="cls-1" d="m80.33,313.63c45.77,10.84,93.56,10.84,139.33,0,3.13-.74,1.8-5.56-1.33-4.82-44.9,10.63-91.78,10.63-136.67,0-3.13-.74-4.46,4.08-1.33,4.82h0Z"/><path class="cls-1" d="m80.33,331.2c45.77,10.84,93.56,10.84,139.33,0,3.13-.74,1.8-5.56-1.33-4.82-44.9,10.63-91.78,10.63-136.67,0-3.13-.74-4.46,4.08-1.33,4.82h0Z"/><path class="cls-1" d="m80.33,348.77c45.77,10.84,93.56,10.84,139.33,0,3.13-.74,1.8-5.56-1.33-4.82-44.9,10.63-91.78,10.63-136.67,0-3.13-.74-4.46,4.08-1.33,4.82h0Z"/><path class="cls-1" d="m88.53,295.91v49.93c0,3.22,5,3.22,5,0v-49.93c0-3.22-5-3.22-5,0h0Z"/><path class="cls-1" d="m103.27,300.47v49.93c0,3.22,5,3.22,5,0v-49.93c0-3.22-5-3.22-5,0h0Z"/><path class="cls-1" d="m118.02,300.47v49.93c0,3.22,5,3.22,5,0v-49.93c0-3.22-5-3.22-5,0h0Z"/><path class="cls-1" d="m147.5,302.47v49.93c0,3.22,5,3.22,5,0v-49.93c0-3.22-5-3.22-5,0h0Z"/><path class="cls-1" d="m132.76,302.47v49.93c0,3.22,5,3.22,5,0v-49.93c0-3.22-5-3.22-5,0h0Z"/><path class="cls-1" d="m162.24,302.47v49.93c0,3.22,5,3.22,5,0v-49.93c0-3.22-5-3.22-5,0h0Z"/><path class="cls-1" d="m176.98,300.47v49.93c0,3.22,5,3.22,5,0v-49.93c0-3.22-5-3.22-5,0h0Z"/><path class="cls-1" d="m191.73,299.47v49.93c0,3.22,5,3.22,5,0v-49.93c0-3.22-5-3.22-5,0h0Z"/><path class="cls-1" d="m206.47,297.47v49.93c0,3.22,5,3.22,5,0v-49.93c0-3.22-5-3.22-5,0h0Z"/><path class="cls-1" d="m80.33,364.34c45.77,10.84,93.56,10.84,139.33,0,3.13-.74,1.8-5.56-1.33-4.82-44.9,10.63-91.78,10.63-136.67,0-3.13-.74-4.46,4.08-1.33,4.82h0Z"/><path class="cls-1" d="m121.32,355.59v10.13c0,3.22,5,3.22,5,0v-10.13c0-3.22-5-3.22-5,0h0Z"/><path class="cls-1" d="m101.93,352.7v11.57c0,3.22,5,3.22,5,0v-11.57c0-3.22-5-3.22-5,0h0Z"/><path class="cls-1" d="m174.84,354.73v10.13c0,3.22,5,3.22,5,0v-10.13c0-3.22-5-3.22-5,0h0Z"/><path class="cls-1" d="m193.07,352.99v11.28c0,3.22,5,3.22,5,0v-11.28c0-3.22-5-3.22-5,0h0Z"/><path class="cls-1" d="m80.33,296.05c45.77,10.84,93.56,10.84,139.33,0,3.13-.74,1.8-5.56-1.33-4.82-44.9,10.63-91.78,10.63-136.67,0-3.13-.74-4.46,4.08-1.33,4.82h0Z"/></svg>