<?xml version="1.0" encoding="UTF-8"?><svg id="Layer_2" xmlns="http://www.w3.org/2000/svg" viewBox="0 0 287.7 225.45"><defs><style>.cls-1{fill:#0069ff;}.cls-2{fill:#66a5ff;}.cls-3{fill:#fff;}</style></defs><g id="Layer_1-2"><path class="cls-3" d="m155.69,37.03c10.97-22.61,47.03-38.54,68.19-24.09,23.1,15.77,19.41,51.63,5.18,70.93,27.23,1.73,41.65,20.43,51.48,46.01,10.06,26.16,4.69,62.69-24.18,74.27-19.7,7.9-34.59,4.11-47.52-12-7.89,41.05-89.6,36.11-93.9-5.25-16.06,30.06-59.81,45.97-90.1,29.27-34.83-19.21-27.89-76.23,13.29-80.43-23.15-9.9-23.44-45.85-14.39-65.36,9.91-21.35,34.07-37.74,57.15-26.49C69.49,20.58,96.4.76,117.31,2.62c16.12,1.44,35.28,21.73,38.38,34.41"/><path class="cls-1" d="m52.31,225.45c-10.32,0-20.12-2.39-28.67-7.11C3.1,207.02-2.54,184.54.98,167.29c3.4-16.68,14.64-28.75,30.01-32.81-5.1-3.79-9.08-9.23-11.68-16.03-6.41-16.73-3.37-37.2,2.17-49.14,6.38-13.76,17.86-24.69,30.71-29.26,8.17-2.9,16.49-3.09,24.39-.6-2-7.57-.61-15.24,4.09-22.07C88.38,6.17,103.87-1.08,117.53.13c15.65,1.4,32.5,18.03,38.65,31.01,7.39-11.24,20.61-20.55,35.1-24.41,12.97-3.45,25.05-1.98,34.01,4.14,9.05,6.18,14.9,15.73,16.91,27.61,2.42,14.28-.98,30.81-8.72,43.29,11.62,1.53,21.34,6.25,29.59,14.36,7.76,7.62,14.23,18.36,19.8,32.83,10.77,28.01,4.05,65.6-25.59,77.49-19.16,7.69-34.29,4.81-47.26-9.12-6.54,18.82-28.45,26.49-48.56,25.62-19.78-.85-41.81-10.4-47.7-29.35-9.05,13.22-23.78,23.73-40.56,28.7-7.06,2.09-14.1,3.13-20.9,3.13Zm13.05-182.72c-3.82,0-7.68.68-11.5,2.03-11.61,4.12-22.02,14.09-27.85,26.65-5.27,11.37-7.67,30.56-2.04,45.24,3.13,8.17,8.23,13.81,15.14,16.76,1.05.45,1.66,1.55,1.49,2.68-.17,1.13-1.08,1.99-2.22,2.11-19.86,2.02-29.82,16.86-32.51,30.08-3.15,15.46,1.86,35.58,20.18,45.68,13.01,7.18,29.26,8.44,45.74,3.56,17.81-5.28,33.12-17.17,40.95-31.82.52-.97,1.6-1.49,2.69-1.27,1.08.21,1.89,1.1,2.01,2.19,1.48,14.24,15.96,30.12,44.26,31.34,19.57.85,40.98-6.96,44.7-26.31.18-.96.91-1.72,1.85-1.95.95-.23,1.94.1,2.55.86,12.24,15.26,26,18.73,44.64,11.25,26.81-10.76,32.7-45.26,22.78-71.06-11.25-29.26-26.46-42.96-49.31-44.41-.91-.06-1.72-.61-2.11-1.44-.39-.83-.29-1.8.25-2.54,8.66-11.74,12.67-28.64,10.23-43.06-1.78-10.52-6.9-18.93-14.8-24.32-7.74-5.29-18.36-6.51-29.91-3.44-14.93,3.97-28.85,14.64-34.62,26.55-.46.95-1.46,1.51-2.51,1.4-1.05-.11-1.91-.87-2.16-1.89-2.76-11.28-20.82-31.14-36.18-32.51-11.76-1.05-25.66,5.44-32.3,15.11-3.38,4.92-6.41,12.82-1.65,22.55.47.96.28,2.11-.48,2.87-.75.76-1.9.95-2.86.48-4.63-2.25-9.5-3.39-14.43-3.39Z"/><circle class="cls-1" cx="130.46" cy="141.66" r="10.76"/><path class="cls-1" d="m126.61,123.31h0c-2.84.72-5.76-.85-6.72-3.61l-20.73-59.55c-1.09-3.12.73-6.51,3.94-7.33l10.48-2.67c3.21-.82,6.42,1.29,6.96,4.55l10.26,62.22c.48,2.89-1.34,5.67-4.18,6.39Z"/><circle class="cls-2" cx="165.4" cy="117.43" r="7.32"/><path class="cls-2" d="m167.98,104.94h0c-1.97-.32-3.36-2.09-3.21-4.08l3.25-42.78c.17-2.24,2.23-3.86,4.45-3.5l7.26,1.18c2.22.36,3.66,2.55,3.11,4.73l-10.51,41.6c-.49,1.93-2.37,3.17-4.34,2.85Z"/></g></svg>