<?xml version="1.0" encoding="UTF-8"?><svg id="Layer_1" xmlns="http://www.w3.org/2000/svg" viewBox="0 0 300 320"><defs><style>.cls-1{fill:#0069ff;}.cls-2{fill:#fff;}</style></defs><path class="cls-2" d="m198.65,183.55c3.55-15.56,11.12-30.44,16.89-44.99,5.19-13.1,8.09-27.54,12.96-40.95,5.18-14.26,11.79-29.23,13.54-44.42.75-6.49-.9-14.98-8.15-8.11-7.04,6.67-10,17.7-13.59,26.36-5.16,12.42-10.8,24.73-14.9,37.53-3.44,10.75-6.1,24.6-13.34,33.04-2.23-5.11-6.16-3.42-10.25-5.41-3.43-1.66-5.57-5.12-7.74-8.23-5.97-8.57-1.6-19.67-1.62-29.83-.05-23.57,7.92-44.85,1.15-68.5-4.11-14.35-9.99-1.9-12.17,6.61-4.23,16.52-3.15,34.74-3.02,51.86.06,8.08,5.72,39.8-3.73,47.57-2.71,2.23-7.57,3.47-11.04,4.11-10.12,1.89-9.52-1.86-11.59-9.65-2.81-10.57-8.52-20.57-12.79-30.56-3.5-8.2-5.62-16.75-7.94-25.23-1.75-6.39-4.68-12.14-5.98-18.94,4.98,3.13,4.85,12.21,6.42,17.25,3.03,9.77,5.49,21.02,10.13,29.98-2.96-13.93-6.67-27.71-12.39-40.79-2.47-5.65-5.07-19.01-12.79-18.97-1.05,8.21.24,15.43,1.71,23.84,3.3,18.88,7.92,37.53,11.42,56.37,1.69,9.13,7.07,24.59,5.54,34.29-.45,2.85-.69,7.19-6.21,3.44-4.3-2.92-3.86-12.52-7.26-16.75-1.38-1.72-4.29-3.8-5.95-5.56-7.7,5.62-8.67,13.91-6.1,22.32.76,2.49,2.34,4.2,2.55,6.74.46,5.74-4.2,9.98-5.13,15.29-1.67,9.5,4.83,21.52,9.16,29.66-6.46-1.97-10.93-19.34-11.36-25.57,6.35,13.9,10.27,29.38,18.71,42.25,5.24,7.98,10.85,15.32,15.62,23.6,3.41,5.92,5.44,11.01,5.43,17.97,0,7.99,1.82,23.7-5.92,29.31,9.44,3.03,20.21-1.2,29.73-1.12s20.62.99,30.27,1.78c1.91-7.29-1.57-20.04-1.32-28.06.27-8.45,1.36-17,5.68-24.33,8.69-14.71,18.12-24.64,18.89-42.73.3-7.04-2.68-11.79-4.15-18.27"/><path class="cls-2" d="m208.3,186.21c4.63-19.45,14.74-36.88,20.68-55.88,2.95-9.43,5.31-19.04,8.56-28.38s7.18-18.52,10.11-28.01c2.7-8.76,5.48-18.66,4.16-27.88s-9.06-16.13-18.45-12.41c-8.33,3.3-13.44,12.42-16.81,20.23-3.55,8.23-6.64,16.66-10.14,24.92-4.4,10.4-8.74,20.82-11.93,31.67-2.36,8.05-4.05,17.78-9.5,24.47l15.71,2.02c-1.63-3.05-3.89-5.52-6.98-7.13-2.31-1.2-5.98-1.01-8.03-2.39-3.87-2.59-4.89-8.41-4.7-12.6.3-6.7,1.32-13.3,1.53-20.02.22-7.25,1.14-14.45,2.02-21.65,1.85-15.17,3.27-30.92-1.28-45.81-1.73-5.67-4.69-11.76-10.9-13.47-6.75-1.86-12.57,2.54-15.83,8.07-6.78,11.49-7.78,26.48-8.21,39.46-.36,11.08-.46,22.39.55,33.44.82,8.9,1.76,17.88,1.02,26.83-.08.98-.36,2.39-.83,4.55-.05.23-.73,3.24-.23,1.02-.11.51-1.73,2.51-.16.68-1.15,1.35,1.47-.38-1.13.82-.83.38-1.88.66-2.76.9-1.23.34-2.53.7-3.8.86-.35.23-.75.27-1.22.12-1.34-.04-1.36,0-.04.1l1.11.45c2.16,2.54,2.8,3.07,1.91,1.58.52,1.24.59,1.28.21.14-.17-.61-.32-1.22-.46-1.83-.7-2.76-1.39-5.5-2.33-8.2-2.77-8-6.63-15.57-10.15-23.25s-5.83-15.78-8.05-23.94c-2.07-7.6-5.32-14.87-6.97-22.57l-14.69,11.29c-1.3-.97-.99-1.82-.7-.28-.14-.75.3,1.04.28.99.5,1.61.76,3.3,1.07,4.96.7,3.8,1.75,7.41,2.81,11.13,2.63,9.16,5.23,18.27,9.51,26.84,5.28,10.56,20.56,2.91,18.28-7.71-3.22-14.99-8.11-28.87-13.33-43.23-3.96-10.87-8.04-22.97-21.49-23.87-5.8-.39-9.46,4.93-10,10-1.19,11.09,1.22,22.24,3.28,33.1s4.66,22.53,7.02,33.79c1.94,9.27,3.71,18.54,5.95,27.74.96,3.93,2.01,7.93,2.47,11.96.21,1.82.23,3.66.19,5.49-.04,1.7-.17.46-.07,1-.04.28-.09.56-.16.83-.61,2.5.91,1.12,4.57-4.14h5.32c-2.35-.4.49.18.55.87.08.95-.66-2-.66-2-.64-2.22-1.08-4.48-1.86-6.66-2.1-5.94-5.92-9.12-10.28-13.4s-9.86-3.37-14.14,0c-6.52,5.13-10.13,12.85-10.3,21.12-.09,4.13.7,8.49,2.17,12.34,1.37,3.59,2.15,3.08.67,6.04-3.99,7.97-5.28,15.14-3.28,23.93,1.82,8,5.84,15.49,9.67,22.69l11.29-14.69c.53.08,1,.29,1.4.61.6.45.51.31-.25-.42.47.6.51.6.1,0-.3-.45-.57-.92-.82-1.4-.96-1.74-1.32-2.73-2-4.75s-1.28-4.17-1.76-6.3c-.23-1.02-.44-2.04-.62-3.07-.41-2.24.11,1.4-.07-.62l-18.63,5.05c4.45,9.92,7.71,20.33,12.22,30.23,4.79,10.53,11.88,19.51,18.14,29.16,2.57,3.96,5.48,8.13,6.96,12.66,1.21,3.7,1.07,7.43,1.17,11.28s.33,7.8-.22,11.61c-.44,3.06-.9,4.47-2.87,6.07-6.04,4.88-2.26,14.86,4.41,16.71,10.54,2.92,20.25-.35,30.79-.74,10.58-.39,21.34.9,31.87,1.76,4.13.34,8.77-3.33,9.64-7.34,2.17-9.96-.86-19.51-.97-29.48-.06-5.13.52-10.3,2-15.22s4.65-9.14,7.39-13.39c5.39-8.36,10.75-16.87,13.29-26.6,1.49-5.69,2.32-11.9,1.62-17.75s-2.86-10.77-4.23-16.25c-3.13-12.48-22.42-7.19-19.29,5.32,1.13,4.49,3.41,9,3.82,13.63s-.85,9.22-2.29,13.33c-2.99,8.52-8.86,15.92-13.56,23.54-5.94,9.62-8.33,20.08-8.71,31.32-.28,8.44,3.31,18.56,1.64,26.24l9.64-7.34c-10.05-.82-20.18-1.85-30.27-1.78-8.86.06-18.35,3.89-27.07,1.48l4.41,16.71c7.85-6.35,9.03-17.7,9.03-27.09,0-10.99-.81-20.97-6.15-30.84-6.12-11.31-14.85-21-20.71-32.45s-9.3-23.39-14.44-34.86c-4.02-8.96-19.46-4.58-18.63,5.05,1.11,12.84,5.55,30.06,18.7,35.22,8.67,3.4,15.02-7.68,11.29-14.69-2.92-5.49-6.05-11.06-7.48-17.17-1.33-5.71.93-8.34,3.03-13.54,1.52-3.76,2.24-7.82,1.42-11.85-.58-2.88-2.17-5.34-2.94-8.14-1.39-5.02-.12-8.01,3.92-11.19h-14.14c1.92,1.89,4.7,3.73,5.49,5.35.57,1.15,1.18,5.03,1.85,7.08,2.37,7.28,7.97,14.27,16.38,14.27,16.87,0,13.17-23.93,11-34.17-3.11-14.67-6.38-29.31-9.52-43.97-1.87-8.75-3.75-17.5-5.36-26.3s-2.95-16.44-2.03-24.95l-10,10c-.2-.01-2.16-.78-2.16-.78.43-.09.81,1.37.32.32.68,1.45,1.87,3.52,2.1,4.12,1.46,3.81,2.8,7.62,4.35,11.4,4.94,12.03,8.21,24.67,10.94,37.36l18.28-7.71c-4.36-8.71-6.77-18.7-9.26-28.08s-2.8-16.69-10.88-22.73c-7.57-5.67-16.32,3.65-14.69,11.29,2.02,9.47,5.83,18.69,8.46,28.03,2.91,10.3,7.01,19.93,11.55,29.61,3.54,7.56,5.58,15.14,8.19,22.98s8.78,12.14,17,11.51c7.84-.6,17.07-2.91,22.38-9.09,4.72-5.49,6-12.79,6.6-19.78,1.03-12.02-1.37-23.89-1.51-35.87s-.55-22.9.54-34.3c.47-4.87,1.32-9.75,2.76-14.43.53-1.72,1-3.01,1.58-4.11.19-.36,1.04-1.49,1.05-1.78-.04,1.43-4.98,2.28-4.63,2.33l-5.05-1.37c.06.03-1.25-1.23-1.25-1.22-.1.59.87,2.81,1.07,3.59.7,2.74,1.24,5.52,1.52,8.34.6,5.93.38,11.95-.11,17.88-.98,11.99-3.18,23.85-3.41,35.91-.21,10.96-3.6,22.22.91,32.75,2.14,4.99,5.8,10.05,10.02,13.47,2.28,1.84,4.75,3.18,7.57,4.01.88.26,1.98.63,2.91.63,2.25-.02-.32-.2-.46-.48,2.82,5.26,11.68,6.97,15.71,2.02,9.93-12.2,12.38-27.53,17.44-42.01,3-8.57,6.59-16.91,10.13-25.27,2.89-6.81,5.23-13.95,8.37-20.64,1.29-2.75,3.74-5.31,4.86-7.99.18-.43,1.26-.87,1.33-1.28l-4.69-1.94c-3.75-2.98-5.27-3.47-4.56-1.45-.13.25,0,.67.11,0-.15.86.09,2.03.05,2.93-.38,8.21-3.47,16.64-6.18,24.32-2.86,8.12-6.2,16.08-8.87,24.27s-4.83,16.69-7.42,24.99c-5.94,19-16.05,36.43-20.68,55.88-2.98,12.51,16.3,17.85,19.29,5.32h0Z"/><path class="cls-1" d="m103.32,129.62c-7.93-24.14-14.35-49.18-17.15-74.49-.55-4.99-.08-9.7,2.16-14.32,2.78-5.72,9.8-6.97,15.43-5.13,8.56,2.79,11.23,13.77,13.67,21.32,3.8,11.78,7.17,23.7,10.59,35.59,2.22,7.74,4.44,15.48,6.66,23.22,1.4,4.88,1.88,12.66,7.37,14.8,3.99,1.56,7.5-.95,8.49-4.98.8-3.29.22-7.12.24-10.49.02-4.38.05-8.76.09-13.14.16-14.43.46-28.86,1.14-43.28.42-8.89.75-17.92,2.14-26.72.82-5.16,2.96-9.77,6.45-13.73,4.4-5.01,11.37-3.84,16.13-.07,6.94,5.49,6.35,16.22,6.3,24.18-.08,11.44-.61,22.88-1.11,34.31-.33,7.51-.67,15.01-1.01,22.52-.18,3.99-.36,7.97-.54,11.96-.17,3.71-1.3,8.83-.25,12.45s5.46,5.69,8.91,5.03c6.08-1.16,6.7-10.61,8.19-15.36,6.92-21.97,14.35-44.24,24.68-64.89,4.44-8.88,15.42-20.24,24.59-10.03,4.37,4.87,4.02,12.22,3.11,18.3-1.18,7.84-2.96,15.61-5.13,23.23-4.17,14.62-9.98,28.67-15.49,42.82s-10.44,28.94-15.14,43.62c-2.08,6.51-4.15,13.03-6.31,19.52-1.02,3.06,3.81,4.37,4.82,1.33,4.75-14.31,9.09-28.75,14-43,5.39-15.66,11.97-30.87,17.58-46.46,5.25-14.59,10.9-31.01,11.23-46.66.21-10.26-4.36-19.73-15.19-21.58-9.95-1.7-18.04,7.81-22.09,15.82s-7.38,16.09-10.62,24.3c-5.49,13.92-10.35,28.08-14.84,42.34-.8,2.54-2.3,11.68-5.63,11.54s-1.49-10.15-1.39-12.34c.37-8.29.76-16.58,1.13-24.88.59-13.16,1.23-26.33,1.48-39.5.15-7.87.7-16.26-2.13-23.76-3.55-9.41-14.03-16.2-24.03-11.91-8.58,3.68-11.92,14.7-12.97,23.17-3.22,26.04-2.92,52.75-3.05,78.93-.01,2.2,1.16,13.02-2.07,12.67-2.16-.24-4.43-12.2-4.99-14.13-2.34-8.13-4.66-16.27-7-24.41-3.4-11.8-6.72-23.65-10.65-35.28-2.56-7.58-5.58-15.87-13.05-19.96-9.09-4.97-20.94-1.59-24.82,8.12-3.5,8.75-1.87,17.28-.48,26.27,2.01,13,4.79,25.89,8.14,38.62,2.29,8.7,4.86,17.31,7.67,25.86,1,3.04,5.83,1.74,4.82-1.33h0Z"/><path class="cls-1" d="m146.25,220.95c.18-6.82,1.8-13.31,4.67-19.49,1.35-2.9-2.96-5.44-4.32-2.52-3.25,6.99-5.15,14.29-5.36,22.01-.08,3.22,4.92,3.22,5,0h0Z"/><path class="cls-1" d="m113.32,151.62c-1.17-6.64-3.51-13.87-7.72-19.21-6.55-8.32-16.74-6.39-23.04,1.37-7.8,9.61-7.69,24.11-3.67,35.26,2.51,6.96,6.68,12.97,11.81,18.26,3.3,3.39,7.72,7.51,12.76,7.72,5.6.24,9.1-5.04,9.85-10.06.47-3.15-4.34-4.51-4.82-1.33-.72,4.75-3.42,7.9-8.27,5.15-12.32-6.99-19.73-23.31-18.92-37.08.35-6.04,2.3-12.56,6.97-16.7,3.94-3.5,8.7-4.54,12.54-.54,4.48,4.68,6.58,12.24,7.69,18.5.56,3.16,5.38,1.82,4.82-1.33h0Z"/><path class="cls-1" d="m159.07,201.02c-3.12-4.47-6.84-8.35-11.1-11.75-1.89-1.5-4.51-4.22-7.06-4.49-2.74-.29-5.95.88-8.81.83s-5.5-.41-8.18-1.11c-4.2-1.1-8.14-3.01-11.65-5.55-2.78-2.01-6.15-4.74-7.52-7.68-.98-2.11-1.52-4.83-1.32-7.15.54-6.16,6.61-7.37,11.78-7.99,12.66-1.53,28.38-2.11,40.43,2.48,6.76,2.58,12.8,7.07,18.96,10.79,5.69,3.44,11.37,6.36,17.41,9.12,5.11,2.33,10.75,4.91,14.07,9.66,3.61,5.17,4.5,11.92,4.12,18.06-.81,13.03-6.95,25.42-12.86,36.81-4.76,9.19-11.8,17.52-11.96,28.3-.19,12.68-.26,25.46.02,38.13l2.5-2.5h-77l2.5,2.5c.03-6.05-.15-12.11.04-18.16.36-11.56,3.38-24.61-2.54-35.35-3.67-6.67-8.24-12.97-12.29-19.41-7.73-12.26-18.21-24.92-20.31-39.62-1.14-7.95-.23-17.27,3.77-24.42,1.58-2.81-2.74-5.33-4.32-2.52-2.98,5.31-4.36,11.75-4.78,17.76-1.01,14.45,5.41,26.01,12.83,37.85,6.08,9.69,12.18,19.37,18.31,29.02,5.71,8.98,5.61,18.51,4.8,28.97-.67,8.63-.49,17.24-.52,25.88,0,1.35,1.15,2.5,2.5,2.5h77c1.33,0,2.53-1.15,2.5-2.5-.27-12.53-.1-25.13-.02-37.67.08-11.34,8.93-21.36,13.8-31.21,5.7-11.53,11.21-24.21,11.11-37.32s-6.3-22.05-17.64-27.64c-6.07-2.99-12.16-5.56-17.99-9.05-6.91-4.14-13.65-9.12-21.12-12.19-12.82-5.27-29-4.82-42.57-3.36-8.87.95-17.97,4.11-17.53,14.61.16,3.88,1.29,7.78,3.79,10.76,5.71,6.82,14.01,11.75,22.74,13.43,3.04.58,6.15.84,9.24.72,1.7-.07,3.38-.28,5.07-.5s-.25-.67.95-.29c2.08.67,4.53,3.21,6.11,4.57,3.17,2.72,6.03,5.74,8.43,9.18,1.83,2.62,6.16.12,4.32-2.52h0Z"/></svg>