<svg width="408" height="664" viewBox="0 0 408 664" fill="none" xmlns="http://www.w3.org/2000/svg">
<g clip-path="url(#clip0_3919_797)">
<ellipse cx="205" cy="657.5" rx="203" ry="6.5" fill="#E7EDFF"/>
<ellipse cx="205" cy="660" rx="70" ry="2" fill="#CFD8F7"/>
<rect x="185.051" y="560.25" width="26.5" height="52.5" fill="#DA763F"/>
<rect x="185.051" y="560.25" width="26.5" height="52.5" stroke="#B45928" stroke-width="2.5"/>
<path d="M192.801 614C191.134 612.333 188.801 606.5 192.801 596.5C197.801 584 198.801 564.5 184.801 562" stroke="#B45928" stroke-width="2.5"/>
<path d="M206.551 607C206.551 609.87 205.914 612.406 204.946 614.18C203.953 616.001 202.786 616.75 201.801 616.75C200.816 616.75 199.649 616.001 198.656 614.18C197.688 612.406 197.051 609.87 197.051 607C197.051 604.13 197.688 601.594 198.656 599.82C199.649 597.999 200.816 597.25 201.801 597.25C202.786 597.25 203.953 597.999 204.946 599.82C205.914 601.594 206.551 604.13 206.551 607Z" stroke="#B45928" stroke-width="2.5"/>
<path d="M356.014 500.42L364.054 525.13C367.674 536.24 375.534 545.52 385.984 550.76C395.134 555.34 403.654 561.7 396.824 567.45C384.314 578 336.684 556.45 336.684 556.45C336.684 556.45 347.294 583.61 320.824 586.95C294.354 590.29 287.344 558.7 287.344 558.7C287.344 558.7 280.304 581.48 251.454 584.94C222.604 588.39 197.514 564.98 197.514 564.98C197.514 564.98 180.074 582.48 151.394 582.48C122.714 582.48 117.294 561.84 117.294 561.84C117.294 561.84 82.8243 584.16 60.3143 578.44C37.8043 572.72 52.6843 552.87 52.6843 552.87C52.6843 552.87 14.3343 567.93 3.52429 558.7C-3.02571 553.11 12.8343 543.66 26.3543 537.09C37.1343 531.85 45.3243 522.46 49.0243 511.05L56.2743 488.7L244.264 468.96L356.014 500.42Z" fill="#0EA84C" stroke="#09823A" stroke-width="2.5" stroke-miterlimit="10" stroke-linecap="round" stroke-linejoin="round"/>
<path d="M371.084 538.44C368.024 534.47 365.644 529.97 364.064 525.13L356.024 500.42L244.294 468.96L57.3242 488.59C56.8042 489.26 56.2643 489.92 55.6943 490.56L49.0543 511.05C46.8243 517.94 42.9342 524.08 37.8442 529.03C59.1342 524.98 85.5942 514.11 85.5942 514.11C85.5942 514.11 88.9143 539.35 111.794 540.31C134.674 541.27 160.624 510.54 160.624 510.54C160.624 510.54 150.744 546.75 174.784 548.17C198.824 549.59 220.064 512.05 220.064 512.05C220.064 512.05 236.364 556.19 259.874 556.19C283.384 556.19 297.584 511.73 297.584 511.73C297.584 511.73 343.654 533.99 371.084 538.44Z" fill="#09823A" stroke="#09823A" stroke-width="2.5" stroke-miterlimit="10" stroke-linecap="round" stroke-linejoin="round"/>
<path d="M356.014 500.42L364.054 525.13C367.674 536.24 375.534 545.52 385.984 550.76C395.134 555.34 403.654 561.7 396.824 567.45C384.314 578 336.684 556.45 336.684 556.45C336.684 556.45 347.294 583.61 320.824 586.95C294.354 590.29 287.344 558.7 287.344 558.7C287.344 558.7 280.304 581.48 251.454 584.94C222.604 588.39 197.514 564.98 197.514 564.98C197.514 564.98 180.074 582.48 151.394 582.48C122.714 582.48 117.294 561.84 117.294 561.84C117.294 561.84 82.8243 584.16 60.3143 578.44C37.8043 572.72 52.6843 552.87 52.6843 552.87C52.6843 552.87 14.3343 567.93 3.52429 558.7C-3.02571 553.11 12.8343 543.66 26.3543 537.09C37.1343 531.85 45.3243 522.46 49.0243 511.05L56.2743 488.7L244.264 468.96L356.014 500.42Z" stroke="#09823A" stroke-width="2.5" stroke-miterlimit="10" stroke-linecap="round" stroke-linejoin="round"/>
<path d="M336.564 440.66L345.294 467.48C347.374 473.87 351.274 479.5 356.524 483.69C371.264 495.46 400.264 520.7 387.694 528.09C371.114 537.83 297.584 502.29 297.584 502.29C297.584 502.29 283.384 546.75 259.874 546.75C236.364 546.75 220.064 502.61 220.064 502.61C220.064 502.61 198.824 540.14 174.784 538.73C150.744 537.32 160.624 501.1 160.624 501.1C160.624 501.1 134.674 531.84 111.794 530.87C88.9143 529.91 85.5943 504.67 85.5943 504.67C85.5943 504.67 21.5543 531 12.5543 516.98C6.58428 507.69 28.4243 496.29 43.8343 489.65C52.8843 485.75 59.8043 478.13 62.8543 468.76L65.4542 460.78L160.854 414.67L336.564 440.66Z" fill="#0EA84C" stroke="#09823A" stroke-width="2.5" stroke-miterlimit="10" stroke-linecap="round" stroke-linejoin="round"/>
<path d="M307.894 451.38C307.894 451.38 328.664 462.58 345.034 466.69L336.564 440.66L160.834 414.67L65.4343 460.78L62.8343 468.76C61.7443 472.11 60.1543 475.23 58.1543 478.04C80.8143 475.33 112.534 458.32 112.534 458.32C112.534 458.32 111.224 481.98 133.624 481.98C156.024 481.98 178.884 445.82 178.884 445.82C178.884 445.82 183.864 481.98 208.264 481.98C232.664 481.98 253.124 446.62 253.124 446.62C253.124 446.62 262.574 473.6 282.504 476C302.414 478.39 307.894 451.38 307.894 451.38Z" fill="#09823A" stroke="#09823A" stroke-width="2.5" stroke-miterlimit="10" stroke-linecap="round" stroke-linejoin="round"/>
<path d="M336.564 440.66L345.294 467.48C347.374 473.87 351.274 479.5 356.524 483.69C371.264 495.46 400.264 520.7 387.694 528.09C371.114 537.83 297.584 502.29 297.584 502.29C297.584 502.29 283.384 546.75 259.874 546.75C236.364 546.75 220.064 502.61 220.064 502.61C220.064 502.61 198.824 540.14 174.784 538.73C150.744 537.32 160.624 501.1 160.624 501.1C160.624 501.1 134.674 531.84 111.794 530.87C88.9143 529.91 85.5943 504.67 85.5943 504.67C85.5943 504.67 21.5543 531 12.5543 516.98C6.58428 507.69 28.4243 496.29 43.8343 489.65C52.8843 485.75 59.8043 478.13 62.8543 468.76L65.4542 460.78L160.854 414.67L336.564 440.66Z" stroke="#09823A" stroke-width="2.5" stroke-miterlimit="10" stroke-linecap="round" stroke-linejoin="round"/>
<path d="M78.7243 419.94C74.6843 432.34 65.6343 442.41 53.8643 448.02C42.4643 453.45 31.6743 460.93 41.9343 466.71C60.1543 476.97 112.534 448.88 112.534 448.88C112.534 448.88 111.224 472.54 133.624 472.54C156.024 472.54 178.884 436.38 178.884 436.38C178.884 436.38 183.864 472.54 208.264 472.54C232.664 472.54 253.124 437.18 253.124 437.18C253.124 437.18 262.574 464.16 282.504 466.56C302.434 468.96 307.914 441.95 307.914 441.95C307.914 441.95 354.364 467.01 363.114 455.92C368.474 449.12 355.104 438.21 343.954 430.78C335.174 424.93 328.644 416.28 325.374 406.25L317.884 383.26L157.704 368.45L87.5543 392.85L78.7243 419.94Z" fill="#0EA84C" stroke="#09823A" stroke-width="2.5" stroke-miterlimit="10" stroke-linecap="round" stroke-linejoin="round"/>
<path d="M278.914 419.62C298.714 419.62 299.254 397.78 299.254 397.78C299.254 397.78 312.824 405.3 325.974 408.04C325.754 407.45 325.544 406.85 325.344 406.25L317.854 383.26L157.674 368.45L87.5242 392.85L79.1343 418.63C96.0743 414.91 117.434 400.17 117.434 400.17C117.434 400.17 118.894 416.45 141.144 418.03C163.404 419.62 179.654 385.87 179.654 385.87C179.654 385.87 194.674 404.19 214.624 404.08C234.574 403.97 245.944 387.46 245.944 387.46C245.944 387.46 259.124 419.62 278.914 419.62Z" fill="#09823A" stroke="#09823A" stroke-width="2.5" stroke-miterlimit="10" stroke-linecap="round" stroke-linejoin="round"/>
<path d="M78.7243 419.94C74.6843 432.34 65.6343 442.41 53.8643 448.02C42.4643 453.45 31.6743 460.93 41.9343 466.71C60.1543 476.97 112.534 448.88 112.534 448.88C112.534 448.88 111.224 472.54 133.624 472.54C156.024 472.54 178.884 436.38 178.884 436.38C178.884 436.38 183.864 472.54 208.264 472.54C232.664 472.54 253.124 437.18 253.124 437.18C253.124 437.18 262.574 464.16 282.504 466.56C302.434 468.96 307.914 441.95 307.914 441.95C307.914 441.95 354.364 467.01 363.114 455.92C368.474 449.12 355.104 438.21 343.954 430.78C335.174 424.93 328.644 416.28 325.374 406.25L317.884 383.26L157.704 368.45L87.5543 392.85L78.7243 419.94Z" stroke="#09823A" stroke-width="2.5" stroke-miterlimit="10" stroke-linecap="round" stroke-linejoin="round"/>
<path d="M99.4142 356.38C96.0542 366.71 89.5042 375.69 80.7742 382.15C69.1842 390.73 55.4742 403.16 64.8142 408.39C79.7542 416.76 117.454 390.74 117.454 390.74C117.454 390.74 118.914 407.02 141.164 408.6C163.414 410.18 179.674 376.44 179.674 376.44C179.674 376.44 194.694 394.76 214.644 394.65C234.594 394.54 245.964 378.03 245.964 378.03C245.964 378.03 259.114 410.19 278.914 410.19C298.714 410.19 299.254 388.35 299.254 388.35C299.254 388.35 335.164 408.27 346.794 395.1C353.714 387.26 339.514 376.45 326.884 368.98C315.934 362.5 307.764 352.2 303.824 340.1L296.744 318.35L189.544 294.87L108.794 327.55L99.4142 356.38Z" fill="#0EA84C" stroke="#09823A" stroke-width="2.5" stroke-miterlimit="10" stroke-linecap="round" stroke-linejoin="round"/>
<path d="M301.684 333.49L296.754 318.35L189.544 294.87L108.794 327.55L101.054 351.34C115.484 347.2 130.034 340.12 130.034 340.12C130.034 340.12 132.084 357.22 153.914 357.22C175.744 357.22 181.024 326.89 181.024 326.89C181.024 326.89 188.884 351.74 205.714 351.74C222.544 351.74 236.774 323.93 236.774 323.93C236.774 323.93 250.234 350.25 264.924 349.1C279.604 347.95 284.794 328.24 284.794 328.24C284.794 328.24 292.324 330.95 301.684 333.49Z" fill="#09823A" stroke="#09823A" stroke-width="2.5" stroke-miterlimit="10" stroke-linecap="round" stroke-linejoin="round"/>
<path d="M99.4142 356.38C96.0542 366.71 89.5042 375.69 80.7742 382.15C69.1842 390.73 55.4742 403.16 64.8142 408.39C79.7542 416.76 117.454 390.74 117.454 390.74C117.454 390.74 118.914 407.02 141.164 408.6C163.414 410.18 179.674 376.44 179.674 376.44C179.674 376.44 194.694 394.76 214.644 394.65C234.594 394.54 245.964 378.03 245.964 378.03C245.964 378.03 259.114 410.19 278.914 410.19C298.714 410.19 299.254 388.35 299.254 388.35C299.254 388.35 335.164 408.27 346.794 395.1C353.714 387.26 339.514 376.45 326.884 368.98C315.934 362.5 307.764 352.2 303.824 340.1L296.744 318.35L189.544 294.87L108.794 327.55L99.4142 356.38Z" stroke="#09823A" stroke-width="2.5" stroke-miterlimit="10" stroke-linecap="round" stroke-linejoin="round"/>
<path d="M199.415 250L124.774 278.47L120.014 293.09C115.974 305.49 107.034 315.67 95.2645 321.29C82.5945 327.34 68.8845 335.78 74.8545 341.91C85.2045 352.53 130.035 330.68 130.035 330.68C130.035 330.68 132.085 347.78 153.915 347.78C175.745 347.78 181.024 317.45 181.024 317.45C181.024 317.45 188.884 342.3 205.714 342.3C222.544 342.3 236.774 314.49 236.774 314.49C236.774 314.49 250.235 340.81 264.925 339.66C279.615 338.51 284.795 318.8 284.795 318.8C284.795 318.8 331.534 335.72 336.574 324.56C339.534 318.01 322.665 308.92 308.225 302.53C295.874 297.07 286.425 286.61 282.245 273.77L280.295 267.77L199.415 250Z" fill="#0EA84C" stroke="#09823A" stroke-width="2.5" stroke-miterlimit="10" stroke-linecap="round" stroke-linejoin="round"/>
<path d="M282.235 273.76L280.285 267.76L199.425 250.01L124.785 278.48L120.185 292.61C134.455 290.78 150.155 285.76 150.155 285.76C150.155 285.76 150.365 299.74 166.745 299.74C183.125 299.74 215.355 279.63 215.355 279.63C215.355 279.63 243.925 301.26 261.385 298.54C278.845 295.82 268.135 280.42 268.135 280.42C268.135 280.42 276.815 282.12 286.395 283.02C284.695 280.11 283.295 277.01 282.235 273.76Z" fill="#09823A" stroke="#09823A" stroke-width="2.5" stroke-miterlimit="10" stroke-linecap="round" stroke-linejoin="round"/>
<path d="M199.415 250L124.774 278.47L120.014 293.09C115.974 305.49 107.034 315.67 95.2645 321.29C82.5945 327.34 68.8845 335.78 74.8545 341.91C85.2045 352.53 130.035 330.68 130.035 330.68C130.035 330.68 132.085 347.78 153.915 347.78C175.745 347.78 181.024 317.45 181.024 317.45C181.024 317.45 188.884 342.3 205.714 342.3C222.544 342.3 236.774 314.49 236.774 314.49C236.774 314.49 250.235 340.81 264.925 339.66C279.615 338.51 284.795 318.8 284.795 318.8C284.795 318.8 331.534 335.72 336.574 324.56C339.534 318.01 322.665 308.92 308.225 302.53C295.875 297.07 286.425 286.61 282.245 273.77L280.295 267.77L199.415 250Z" stroke="#09823A" stroke-width="2.5" stroke-miterlimit="10" stroke-linecap="round" stroke-linejoin="round"/>
<path d="M202.324 191.6L145.264 215.53L139.184 234.21C135.324 246.07 127.114 256.08 116.124 261.97C105.294 267.77 94.0144 275.53 99.0644 280.67C108.034 289.81 150.154 276.33 150.154 276.33C150.154 276.33 150.364 290.31 166.744 290.31C183.124 290.31 215.354 270.2 215.354 270.2C215.354 270.2 243.924 291.83 261.384 289.11C278.844 286.39 268.134 270.99 268.134 270.99C268.134 270.99 303.984 278.04 310.434 270.99C313.504 267.64 305.814 263.56 296.904 260.2C283.074 254.98 272.444 243.66 267.874 229.61L261.394 209.69L202.324 191.6Z" fill="#0EA84C" stroke="#09823A" stroke-width="2.5" stroke-miterlimit="10" stroke-linecap="round" stroke-linejoin="round"/>
<path d="M261.374 209.68L202.324 191.6L145.264 215.53L140.634 229.77C151.674 226.15 162.314 221.04 162.314 221.04C162.314 221.04 167.004 233.03 184.584 232.66C202.164 232.29 213.954 216.52 213.954 216.52C213.954 216.52 235.424 236.52 246.874 234.59C258.314 232.66 252.364 222.33 252.364 222.33C252.364 222.33 259.134 224.89 267.074 227.13L261.374 209.68Z" fill="#09823A" stroke="#09823A" stroke-width="2.5" stroke-miterlimit="10" stroke-linecap="round" stroke-linejoin="round"/>
<path d="M202.324 191.6L145.264 215.53L139.184 234.21C135.324 246.07 127.114 256.08 116.124 261.97C105.294 267.77 94.0144 275.53 99.0644 280.67C108.034 289.81 150.154 276.33 150.154 276.33C150.154 276.33 150.364 290.31 166.744 290.31C183.124 290.31 215.354 270.2 215.354 270.2C215.354 270.2 243.924 291.83 261.384 289.11C278.844 286.39 268.134 270.99 268.134 270.99C268.134 270.99 303.984 278.04 310.434 270.99C313.504 267.64 305.814 263.56 296.904 260.2C283.074 254.98 272.444 243.66 267.874 229.61L261.394 209.69L202.324 191.6Z" stroke="#09823A" stroke-width="2.5" stroke-miterlimit="10" stroke-linecap="round" stroke-linejoin="round"/>
<path d="M208.774 124.15L170.694 137.41L163.164 160.54C157.874 176.78 147.694 190.98 134.014 201.2C123.584 208.99 113.774 217.95 117.454 221.93C124.634 229.69 162.314 211.6 162.314 211.6C162.314 211.6 167.004 223.59 184.584 223.22C202.164 222.85 213.954 207.08 213.954 207.08C213.954 207.08 235.424 227.08 246.874 225.15C258.324 223.22 252.364 212.89 252.364 212.89C252.364 212.89 284.024 224.86 290.764 219.67C294.304 216.94 283.804 207.48 273.024 199.1C259.944 188.93 250.144 175.12 245.014 159.36L238.354 138.97L208.774 124.15Z" fill="#0EA84C" stroke="#09823A" stroke-width="2.5" stroke-miterlimit="10" stroke-linecap="round" stroke-linejoin="round"/>
<path d="M235.954 150.91C235.954 150.91 239.025 152.14 243.055 153.39L238.354 138.97L208.774 124.15L170.695 137.41L164.584 156.17C171.434 153.07 177.185 149.77 177.185 149.77C177.185 149.77 176.375 166.89 184.885 166.89C193.395 166.89 204.745 148.92 204.745 148.92C204.745 148.92 222.244 166.89 230.534 166.89C238.834 166.89 235.954 150.91 235.954 150.91Z" fill="#09823A" stroke="#09823A" stroke-width="2.5" stroke-miterlimit="10" stroke-linecap="round" stroke-linejoin="round"/>
<path d="M208.774 124.15L170.694 137.41L163.164 160.54C157.874 176.78 147.694 190.98 134.014 201.2C123.584 208.99 113.774 217.95 117.454 221.93C124.634 229.69 162.314 211.6 162.314 211.6C162.314 211.6 167.004 223.59 184.584 223.22C202.164 222.85 213.954 207.08 213.954 207.08C213.954 207.08 235.424 227.08 246.874 225.15C258.324 223.22 252.364 212.89 252.364 212.89C252.364 212.89 284.024 224.86 290.764 219.67C294.304 216.94 283.804 207.48 273.024 199.1C259.944 188.93 250.144 175.12 245.014 159.36L238.354 138.97L208.774 124.15Z" stroke="#09823A" stroke-width="2.5" stroke-miterlimit="10" stroke-linecap="round" stroke-linejoin="round"/>
<path d="M204.274 34.26L186.414 89.12C183.394 98.41 178.234 106.85 171.354 113.78C158.524 126.7 138.854 147.75 143.364 151.12C149.934 156.03 177.194 140.35 177.194 140.35C177.194 140.35 176.384 157.47 184.894 157.47C193.404 157.47 204.754 139.5 204.754 139.5C204.754 139.5 222.254 157.47 230.544 157.47C238.844 157.47 235.964 141.49 235.964 141.49C235.964 141.49 258.144 150.34 261.384 144.83C263.004 142.08 255.644 135.68 247.884 129.97C237.304 122.19 229.384 111.35 225.314 98.87L204.274 34.26Z" fill="#0EA84C" stroke="#09823A" stroke-width="2.5" stroke-miterlimit="10" stroke-linecap="round" stroke-linejoin="round"/>
<path d="M214.964 67.11L204.274 34.26L193.574 67.11H214.964Z" fill="#FF9F43" stroke="#F28A27" stroke-width="2.5" stroke-miterlimit="10" stroke-linecap="round" stroke-linejoin="round"/>
<path d="M234.974 22.41H211.034L204.314 2L197.594 22.41H173.654L192.224 35.04L185.744 57.71L204.314 42.81L222.884 57.71L216.404 35.04L234.974 22.41Z" fill="#FFCDA4" stroke="#FF9F43" stroke-width="2.5" stroke-miterlimit="10" stroke-linecap="round" stroke-linejoin="round"/>
<path d="M164.664 625.801C163.178 621.954 166.017 617.815 170.14 617.815H232.674C236.772 617.815 239.609 621.907 238.172 625.745L226.597 656.644C225.738 658.936 223.547 660.455 221.099 660.455H182.076C179.65 660.455 177.474 658.963 176.6 656.7L164.664 625.801Z" fill="#235B0F" stroke="#1D4B0C" stroke-width="3.08989"/>
<path d="M244.607 607H157.472C156.107 607 155 608.107 155 609.472V621.831C155 623.197 156.107 624.303 157.472 624.303H244.607C245.972 624.303 247.079 623.197 247.079 621.831V609.472C247.079 608.107 245.972 607 244.607 607Z" fill="#235B0F" stroke="#1D4B0C" stroke-width="3.08989"/>
<path d="M244.607 607.618H158.09C156.725 607.618 155.618 608.725 155.618 610.09V612.562C155.618 613.927 156.725 615.034 158.09 615.034H244.607C245.972 615.034 247.079 613.927 247.079 612.562V610.09C247.079 608.725 245.972 607.618 244.607 607.618Z" fill="#1D4B0C" stroke="#1D4B0C" stroke-width="3.08989"/>
<path d="M167.376 632.587L165.522 627.643C164.916 626.027 166.111 624.303 167.836 624.303H235.478C237.204 624.303 238.398 626.027 237.792 627.643L235.938 632.587C235.577 633.552 234.654 634.191 233.624 634.191H169.69C168.66 634.191 167.738 633.552 167.376 632.587Z" fill="#1D4B0C"/>
</g>
<defs>
<clipPath id="clip0_3919_797">
<rect width="408" height="664" fill="white"/>
</clipPath>
</defs>
</svg>
