<?xml version="1.0" encoding="UTF-8"?>
<svg id="Layer_2" data-name="Layer 2" xmlns="http://www.w3.org/2000/svg" viewBox="0 0 177.77 174.06">
  <defs>
    <style>
      .cls-1 {
        stroke-width: 3px;
      }

      .cls-1, .cls-2, .cls-3, .cls-4 {
        stroke: #3b65ee;
        stroke-linecap: round;
        stroke-linejoin: round;
      }

      .cls-1, .cls-3 {
        fill: #fff;
      }

      .cls-2 {
        fill: none;
      }

      .cls-2, .cls-3 {
        stroke-width: 2px;
      }

      .cls-5, .cls-6, .cls-7, .cls-4 {
        fill: #3b65ee;
      }

      .cls-6 {
        opacity: .1;
      }

      .cls-7 {
        opacity: .2;
      }

      .cls-4 {
        stroke-width: .5px;
      }
    </style>
  </defs>
  <g id="Layer_2-2" data-name="Layer 2">
    <g>
      <path class="cls-1" d="M176.27,93.06s-52,12-68-30C92.27,21.06,82.27,4.06,70.27,2.06c0,0,6,5,6,7,0,0-14.98-10-31.49-7C28.27,5.06-6.73,41.06,3.27,98.06s68,64,97,61c29-3,73-30,76-66Z"/>
      <path class="cls-5" d="M31.96,96.51c5.54,17.2,17.18,34.65,35.43,39.49,8.78,2.36,18.13,1.14,26.8-1.11,8.89-2.21,17.4-6.06,25.96-10.01.2-.11.41.2.21.34-7.5,5.83-15.97,10.66-25.08,13.51-19.49,6.27-39.71.13-51.82-16.5-5.63-7.66-9.68-16.42-11.91-25.64-.02-.11.04-.21.15-.24.11-.02.21.04.24.15h0Z"/>
      <path class="cls-4" d="M118.69,126.22s-17.92-18.66-45.92-14.66c0,0,27.13-7.27,47.5,13.5l-1.58,1.16Z"/>
      <path class="cls-4" d="M86.18,110.36s-9.42-12.8-17.42-15.8c0,0,11,4,20,16l-2.58-.2Z"/>
      <polyline class="cls-2" points="83.66 159.64 83.66 166.84 88.77 169.56"/>
      <polyline class="cls-2" points="78.77 169.56 83.66 166.84 83.77 170.56"/>
      <polyline class="cls-2" points="66.27 158.06 66.27 165.27 71.37 167.98"/>
      <polyline class="cls-2" points="61.37 167.98 66.27 165.27 66.37 168.98"/>
      <ellipse class="cls-5" cx="32.77" cy="30.56" rx="7" ry="5" transform="translate(-.91 60.12) rotate(-84.28)"/>
      <ellipse class="cls-5" cx="15.2" cy="29.32" rx="6.29" ry="4.49" transform="translate(-15.49 41.53) rotate(-84.28)"/>
      <path class="cls-6" d="M156.27,124.06s-18.96-6.32-37,4c-7.51,4.3-31.72,13.83-48,11-23-4-36.17-29.12-39-42-8.68-39.5-11.2-55-23.1-42-11.9,13-15.8,94.74,62.21,103.37,59.89,6.63,91.89-30.37,84.89-34.37Z"/>
      <polygon class="cls-3" points="21.27 37.06 1.5 40.3 16.27 55.06 26.27 44.06 21.27 37.06"/>
      <path class="cls-5" d="M22.27,44.06c-5.41.01-10.76-.65-16-2,5.41-.02,10.76.65,16,2h0Z"/>
      <polygon class="cls-7" points="25.27 44.06 2.27 41.06 16.58 54.72 25.27 44.06"/>
      <path class="cls-5" d="M86.21,72.02s-3.95,6.04-10.95,7.04"/>
      <path class="cls-5" d="M88.04,77.93s-5.65,4.49-12.61,3.23"/>
      <path class="cls-6" d="M112.78,126.22s-26.51-12.16-42.51-4.16c0,0-19-21-33-19,0,0,10,31,37,33,17.98,1.33,38.51-9.84,38.51-9.84Z"/>
      <ellipse class="cls-5" cx="36.77" cy="170.06" rx="3.5" ry="1"/>
      <ellipse class="cls-5" cx="44.27" cy="169.56" rx="2" ry="1.5"/>
      <ellipse class="cls-5" cx="98.27" cy="169.56" rx="2" ry="1.5"/>
      <ellipse class="cls-5" cx="109.77" cy="170.06" rx="1.5" ry="1"/>
      <ellipse class="cls-5" cx="28.77" cy="170.06" rx="1.5" ry="1"/>
      <path class="cls-5" d="M54,168.98s-.73-5.13-7.73-7.53"/>
      <path class="cls-5" d="M47.79,169.06s2.48-2.92-1.52-4.46"/>
      <path class="cls-5" d="M103.79,170.06c.48-2-1.57-3.92,3.95-5.46"/>
      <path class="cls-5" d="M112.78,170.06s-.95-1.59,1.27-4.8"/>
      <ellipse class="cls-7" cx="74.27" cy="169.56" rx="73" ry="4.5"/>
    </g>
  </g>
</svg>