<?xml version="1.0" encoding="UTF-8"?><svg id="Layer_2" xmlns="http://www.w3.org/2000/svg" viewBox="0 0 459.67 244.47"><defs><style>.cls-1{fill:#f9d953;}.cls-2{fill:#f7c800;}.cls-3{fill:#f9e8a0;}.cls-4{fill:#fff6ae;}.cls-5{fill:#ffea5a;}</style></defs><g id="Layer_1-2"><path class="cls-4" d="m261.74,20.15c-6.15-16.37-30.25-15.51-42.97-8.67-8.36,4.5-12.01,13.11-22.28,16.82-6.98,2.52-13.88,1.51-20.61,5.03-5.87,3.06-8.72,10.84-14.09,14.21-7.55,4.75-14.58,3.89-22.36,8.21-9.01,5-14.03,16.31-22.41,22.44-7.59,5.55-16.78,6.24-23.86,11.05-8.03,5.46-8.62,13.03-14.54,20.92-6.29,8.39-17.76,15.29-25.09,23.71-8.08,9.28-5.99,9.47-17.09,15.46s-18.77,5.8-27.28,16.79c-18.92,24.45.58,25.24,21.26,30.53,8.82,2.26,18.12,9.08,26.49,10.76,12.34,2.48,25.07-1.91,38,1.21,21.07,5.09,22.23,26.35,43.33,29.68,19.04,3,35.26-9.47,52.62-14.23,8.06-2.21,22.7-7.1,31.03-4.72,15.78,4.49,1.56,4.39,7,13.74,9.98,17.16,26.84,8.76,39.67.38,18.17-11.87,34.27-12.07,54.86-17.93,19.88-5.66,28.54,3.63,48.21,2.1,22.55-1.76,21.75-18.57,37.74-27.04,15.06-7.97,31.81,8.6,27.52-19.32-3.91-25.42-27.49-15.97-41.21-31.18-8.39-9.3-3.28-22.22-10.22-32.82-5.8-8.86-19.87-15.62-29.2-20.25-12.01-5.96-24.65-11.15-36.06-18.75-9.77-6.51-10.45-12.94-17.6-20.69-10.7-11.6-36.32-31.23-51.18-36.02"/><path class="cls-4" d="m263.18,19.75c-6.09-15.6-26.23-16.7-39.95-11.85-3.8,1.34-7.25,3.25-10.33,5.86-3.6,3.06-6.61,6.77-10.41,9.59-4.81,3.57-10.24,4.69-16.06,5.53-5.34.77-10.75,1.91-14.82,5.71-3.41,3.19-5.59,7.51-9.13,10.57-4.52,3.9-10.81,4.68-16.34,6.28-5.16,1.49-9.7,3.92-13.57,7.67-3.65,3.54-6.6,7.71-9.91,11.55-3.6,4.18-7.59,7.52-12.66,9.76s-10.45,3.49-15.3,6.12c-4.47,2.42-7.85,6.01-10.32,10.42s-4.58,9.51-8,13.63c-7.28,8.75-17.41,14.59-24.81,23.27-2.24,2.63-4.2,5.56-6.62,8.03-2.59,2.65-6.03,4.41-9.26,6.14-8.06,4.31-17.18,6.36-23.91,12.88-3.79,3.67-7.14,8.28-9.5,13-1.48,2.96-2.7,6.32-2.15,9.68,1.01,6.17,7.75,8.74,13.01,10.32,3.94,1.19,7.98,2.05,11.99,2.99,5.27,1.24,10.12,2.84,15,5.19s9.83,5.13,15.16,6.48c5.87,1.49,12.04,1.21,18.04.85,11.19-.68,22.66-1.24,32.14,5.74,6.41,4.73,10.7,11.64,16.61,16.9,6.85,6.1,15.43,8.67,24.56,8.12,10.92-.67,20.93-5.41,30.84-9.62,9.27-3.94,19.03-6.95,28.89-9.06,4.53-.97,9.59-1.92,14.2-.94,2.04.43,4.18,1.08,6.08,1.96.46.21.87.47,1.31.72.37.21.16.08.16.08-.3,1.48-1.81,3.04-1.99,4.9-.35,3.61,2.12,7.05,4.31,9.66,5.59,6.63,13.89,7.86,21.9,5.46,9.29-2.79,16.71-9.1,25.3-13.32,9.83-4.82,20.54-7.04,31.16-9.36,10.93-2.39,21.6-6.52,32.95-5.11,4.6.57,9.09,1.76,13.65,2.59,5.12.92,10.3,1.39,15.49,1.05,8.4-.55,15.82-3.48,21.58-9.7,4.98-5.38,8.73-11.82,14.95-15.97,5.87-3.91,11.94-4.02,18.73-3.66,4.53.24,9.82.23,11.89-4.62,1.4-3.26,1.16-7.12.81-10.56-.46-4.45-1.25-8.91-3.35-12.91-7.06-13.49-24.72-11.25-35.56-19.74-3.89-3.04-6.37-7-7.47-11.81s-1.11-9.98-2.18-14.89c-2.18-10.07-9.74-16.43-18.17-21.57-9.28-5.66-19.33-10.06-29.12-14.74-5.66-2.7-11.28-5.5-16.68-8.69-5.02-2.96-9.78-6.13-13.3-10.86-2.77-3.72-4.97-7.81-7.96-11.38-2.61-3.12-5.63-5.93-8.65-8.65-7.11-6.4-14.73-12.28-22.66-17.63-6.82-4.59-14.06-9.11-21.91-11.7-1.84-.6-2.63,2.29-.8,2.89,7.98,2.63,15.33,7.38,22.22,12.09,7.79,5.32,15.27,11.16,22.22,17.55,2.92,2.69,5.84,5.46,8.29,8.6,2.86,3.66,5.01,7.81,7.95,11.41,3.4,4.17,7.84,7.13,12.41,9.87,5.16,3.09,10.53,5.8,15.95,8.41,9.68,4.66,19.58,9,28.86,14.42,4.39,2.56,8.72,5.42,12.29,9.07s5.51,7.98,6.43,12.94.91,9.57,2.07,14.24,3.48,8.51,7,11.62c5.28,4.67,11.95,6.77,18.58,8.74,6.09,1.81,12.68,3.82,16.44,9.36,2.55,3.75,3.52,8.25,4.03,12.7.36,3.2.89,7.2-.57,10.23-1.99,4.14-8.64,2.57-12.24,2.43-6.86-.27-12.93,1.1-18.51,5.26s-9.35,10.26-14.11,15.41c-6.16,6.66-14.17,8.94-23.1,8.94-9.48,0-18.42-3.27-27.81-3.99-10.75-.82-21.07,3.18-31.43,5.45s-19.98,4.3-29.35,8.49c-8.86,3.96-16.38,10.49-25.59,13.7-3.67,1.28-7.7,2.11-11.57,1.34-4.57-.91-8.09-3.96-10.57-7.79-1.46-2.27-2.46-4.53-1.09-7.04.78-1.43,1.86-2.88.91-4.54-1.42-2.47-6-3.36-8.43-4.01-4.04-1.07-8.3-.72-12.39-.1-4.9.75-9.71,2.05-14.47,3.41-4.51,1.28-8.99,2.54-13.36,4.24-17.58,6.84-39.88,19.77-57.16,5.12-5.63-4.78-9.72-11.07-15.3-15.9-7.58-6.56-16.85-8.84-26.75-8.72-6.07.08-12.11.86-18.18.74s-11.57-1.68-17.15-4.32c-4.86-2.31-9.62-4.95-14.76-6.61-4.27-1.38-8.75-2.17-13.11-3.23-3.46-.84-7-1.7-10.27-3.14-2.29-1.02-4.83-2.44-5.89-4.85-1.29-2.95.03-6.44,1.37-9.12,2.35-4.69,5.64-9.24,9.49-12.82,6.72-6.27,16.18-8.31,24.09-12.66,2.95-1.62,5.98-3.32,8.4-5.71s4.27-5.21,6.42-7.76c6.94-8.24,16.15-14,23.49-21.81,3.62-3.85,6.15-8.26,8.51-12.95s4.83-8.75,9.2-11.55,9.79-4.21,14.73-6.18,9.3-4.59,13.03-8.4c7.27-7.44,12.19-17.03,22.6-20.59,5.18-1.77,10.66-2.46,15.6-4.96,4.27-2.17,6.93-5.66,9.82-9.36,1.46-1.86,2.99-3.78,4.93-5.16,2.44-1.74,5.45-2.57,8.36-3.14,5.5-1.07,11.05-1.34,16.18-3.82,8.28-4.02,13-12.63,21.33-16.54,6.82-3.2,15.03-4.4,22.47-3.29s14,4.75,16.76,11.83c.69,1.78,3.6,1,2.89-.8h0Z"/><ellipse class="cls-1" cx="199.77" cy="73.01" rx="19.5" ry="13"/><ellipse class="cls-1" cx="195.77" cy="133.51" rx="15.5" ry="12.5"/><ellipse class="cls-1" cx="133.77" cy="164.51" rx="20.5" ry="12.5"/><circle class="cls-1" cx="266.27" cy="195.01" r="16"/><ellipse class="cls-1" cx="389.77" cy="210.51" rx="21.5" ry="14.5"/><ellipse class="cls-1" cx="297.77" cy="116.51" rx="15.5" ry="11.5"/><ellipse class="cls-2" cx="344.77" cy="150.51" rx="22.5" ry="11.5"/><ellipse class="cls-1" cx="42.27" cy="180.01" rx="22" ry="16"/><ellipse class="cls-2" cx="112.27" cy="189.01" rx="22" ry="15"/><ellipse class="cls-1" cx="251.27" cy="79.01" rx="17" ry="13"/><ellipse class="cls-1" cx="251.27" cy="146.01" rx="17" ry="15"/><ellipse class="cls-1" cx="200.27" cy="189.01" rx="19" ry="15"/><ellipse class="cls-1" cx="326.27" cy="83.01" rx="23" ry="15"/><ellipse class="cls-2" cx="191.77" cy="37.01" rx="19.5" ry="10"/><ellipse class="cls-1" cx="218.27" cy="231.01" rx="24" ry="12"/><ellipse class="cls-2" cx="123.27" cy="140.51" rx="16" ry="11.5"/><ellipse class="cls-3" cx="181.27" cy="167.51" rx="14" ry="8.5"/><ellipse class="cls-3" cx="278.77" cy="87.01" rx="17.5" ry="11"/><ellipse class="cls-3" cx="374.77" cy="107.51" rx="17.5" ry="13.5"/><ellipse class="cls-3" cx="218.27" cy="39.51" rx="16" ry="8.5"/><ellipse class="cls-3" cx="194.77" cy="102.51" rx="17.5" ry="10.5"/><ellipse class="cls-3" cx="150.77" cy="138.01" rx="16.5" ry="10"/><ellipse class="cls-3" cx="234.77" cy="181.01" rx="16.5" ry="10"/><ellipse class="cls-3" cx="355.77" cy="198.51" rx="18.5" ry="11.5"/><ellipse class="cls-3" cx="406.77" cy="181.01" rx="17.5" ry="10"/><ellipse class="cls-3" cx="97.77" cy="222.01" rx="23.5" ry="14"/><ellipse class="cls-3" cx="285.77" cy="224.51" rx="17.5" ry="13.5"/><ellipse class="cls-3" cx="87.77" cy="106.01" rx="15.5" ry="12"/><ellipse class="cls-3" cx="62.27" cy="144.51" rx="19" ry="10.5"/><ellipse class="cls-3" cx="235.77" cy="64.51" rx="25.5" ry="17.5"/><ellipse class="cls-2" cx="213.27" cy="125.51" rx="17" ry="12.5"/><ellipse class="cls-1" cx="97.77" cy="121.01" rx="23.5" ry="18"/><path class="cls-4" d="m143.31,141.14l1.62,6.54c.74,2.99-.39,6.19-2.88,9.12-3.44,4.05-9.46,7.6-16.77,9.41-7.31,1.81-14.29,1.48-19.22-.5-3.57-1.43-6.06-3.74-6.8-6.73l-1.62-6.54c.28,1.13.81,2.16,1.55,3.09,3.94,4.9,13.87,6.76,24.47,4.14,10.6-2.62,18.51-8.91,19.71-15.08.22-1.17.21-2.32-.07-3.46Z"/><path class="cls-5" d="m141.87,141.54c.59,2.37,1.44,4.8,1.75,7.23.69,5.39-4.98,9.82-9.09,12.19-5.41,3.12-11.78,4.82-18.01,4.94-4.94.09-11.73-.71-14.82-5.14-.93-1.33-1.18-2.95-1.57-4.5-.35-1.41-.7-2.81-1.04-4.22l-2.89.8c2.25,8.2,12.86,9.86,20.04,9.46,8.73-.48,18.36-3.68,24.51-10.15,2.94-3.09,4.95-7.07,4-11.41-.41-1.89-3.3-1.09-2.89.8,1.45,6.69-6.52,11.88-11.57,14.24-7.08,3.32-15.95,4.82-23.57,2.6-3.27-.95-6.67-2.82-7.63-6.33-.51-1.86-3.36-1.08-2.89.8.34,1.37.68,2.73,1.02,4.1.39,1.57.69,3.19,1.47,4.63,2.86,5.27,9.74,6.96,15.26,7.28,6.96.4,14.17-1.25,20.39-4.37,5.02-2.52,10.5-6.66,11.99-12.37.97-3.72-.66-7.77-1.56-11.37-.46-1.87-3.36-1.08-2.89.8Z"/><path class="cls-4" d="m143.31,141.14c.28,1.13.29,2.29.07,3.46-1.2,6.17-9.11,12.45-19.71,15.08-10.6,2.62-20.53.76-24.47-4.14-.74-.93-1.27-1.96-1.55-3.09-.71-2.88.31-5.96,2.61-8.81,3.39-4.18,9.53-7.86,17.03-9.72,7.5-1.86,14.65-1.47,19.6.65,3.37,1.44,5.71,3.69,6.42,6.57Z"/><path class="cls-5" d="m141.87,141.54c1.38,6.35-5.87,11.39-10.67,13.81-6.85,3.44-15.37,5.08-22.93,3.42-2.75-.6-5.61-1.67-7.56-3.79-2.67-2.89-1.92-6.72.18-9.69,4.2-5.94,12.07-9.07,18.95-10.4,4.44-.86,9.18-1.01,13.59.1,3.52.88,7.42,2.76,8.44,6.55.5,1.86,3.4,1.07,2.89-.8-2.32-8.57-13.75-10.01-21.14-9.38-8.53.73-17.95,3.97-23.81,10.5-2.82,3.14-4.88,7.5-3.39,11.73,1.2,3.43,4.2,5.65,7.45,6.97,8.08,3.29,18.02,1.93,25.89-1.29,7.12-2.92,16.96-9.47,14.99-18.52-.41-1.89-3.3-1.09-2.89.8Z"/><path class="cls-4" d="m183.34,155.11l1.62,6.54c.74,2.99-.39,6.19-2.88,9.12-3.44,4.05-9.46,7.6-16.77,9.41-7.31,1.81-14.29,1.48-19.22-.5-3.57-1.43-6.06-3.74-6.8-6.73l-1.62-6.54c.28,1.13.81,2.16,1.55,3.09,3.94,4.9,13.87,6.76,24.47,4.14,10.6-2.62,18.51-8.91,19.71-15.08.22-1.17.21-2.32-.07-3.46Z"/><path class="cls-5" d="m181.9,155.51c.59,2.37,1.44,4.8,1.75,7.23.69,5.39-4.98,9.82-9.09,12.19-5.41,3.12-11.78,4.82-18.01,4.94-4.94.09-11.73-.71-14.82-5.14-.93-1.33-1.18-2.95-1.57-4.5-.35-1.41-.7-2.81-1.04-4.22l-2.89.8c2.25,8.2,12.86,9.86,20.04,9.46,8.73-.48,18.36-3.68,24.51-10.15,2.94-3.09,4.95-7.07,4-11.41-.41-1.89-3.3-1.09-2.89.8,1.45,6.69-6.52,11.88-11.57,14.24-7.08,3.32-15.95,4.82-23.57,2.6-3.27-.95-6.67-2.82-7.63-6.33-.51-1.86-3.36-1.08-2.89.8.34,1.37.68,2.73,1.02,4.1.39,1.57.69,3.19,1.47,4.63,2.86,5.27,9.74,6.96,15.26,7.28,6.96.4,14.17-1.25,20.39-4.37,5.02-2.52,10.5-6.66,11.99-12.37.97-3.72-.66-7.77-1.56-11.37-.46-1.87-3.36-1.08-2.89.8Z"/><path class="cls-4" d="m183.34,155.11c.28,1.13.29,2.29.07,3.46-1.2,6.17-9.11,12.45-19.71,15.08-10.6,2.62-20.53.76-24.47-4.14-.74-.93-1.27-1.96-1.55-3.09-.71-2.88.31-5.96,2.61-8.81,3.39-4.18,9.53-7.86,17.03-9.72,7.5-1.86,14.65-1.47,19.6.65,3.37,1.44,5.71,3.69,6.42,6.57Z"/><path class="cls-5" d="m181.9,155.51c1.38,6.35-5.87,11.39-10.67,13.81-6.85,3.44-15.37,5.08-22.93,3.42-2.75-.6-5.61-1.67-7.56-3.79-2.67-2.89-1.92-6.72.18-9.69,4.2-5.94,12.07-9.07,18.95-10.4,4.44-.86,9.18-1.01,13.59.1,3.52.88,7.42,2.76,8.44,6.55.5,1.86,3.4,1.07,2.89-.8-2.32-8.57-13.75-10.01-21.14-9.38-8.53.73-17.95,3.97-23.81,10.5-2.82,3.14-4.88,7.5-3.39,11.73,1.2,3.43,4.2,5.65,7.45,6.97,8.08,3.29,18.02,1.93,25.89-1.29,7.12-2.92,16.96-9.47,14.99-18.52-.41-1.89-3.3-1.09-2.89.8Z"/><ellipse class="cls-1" cx="154.77" cy="100.51" rx="15.5" ry="11.5"/><path class="cls-4" d="m367.53,175.47l.65,6.02c.19,1.76-.66,3.52-2.28,5.1-3,2.93-8.66,5.27-15.32,6s-12.69-.35-16.25-2.57c-1.93-1.2-3.13-2.73-3.32-4.49l-.65-6.02c.11,1.06.59,2.03,1.38,2.89,2.92,3.26,10.09,5.04,18.2,4.16s14.72-4.16,16.88-7.98c.58-1.01.84-2.07.72-3.12Z"/><path class="cls-5" d="m366.03,175.47c.22,1.99.49,3.97.65,5.96.31,3.97-4.72,6.48-7.82,7.67-4.72,1.8-9.9,2.49-14.94,2.11-2.26-.17-4.52-.6-6.65-1.41-1.7-.65-3.72-1.72-4.5-3.46-.43-.96-.42-2.29-.55-3.46s-.24-2.25-.37-3.37l-2.95.4c.97,6.34,9.68,8.01,14.85,8.32,6.83.41,14.67-.9,20.4-4.87,2.62-1.81,5.09-4.48,4.86-7.89-.12-1.92-3.13-1.93-3,0,.2,3.06-2.85,5.15-5.23,6.43-3.32,1.79-7.13,2.76-10.87,3.17s-7.8.33-11.52-.7c-2.69-.74-6.13-2.14-6.6-5.26-.25-1.65-3.13-1.28-2.95.4.25,2.31.25,4.81.83,7.06,1.22,4.73,7.16,6.64,11.41,7.3,5.52.87,11.34.42,16.68-1.23,4.34-1.34,9.69-3.79,11.48-8.32.63-1.6.41-3.13.23-4.77-.15-1.36-.3-2.72-.44-4.08-.21-1.9-3.21-1.92-3,0Z"/><path class="cls-4" d="m367.53,175.47c.11,1.06-.14,2.11-.72,3.12-2.15,3.81-8.77,7.09-16.88,7.98s-15.28-.9-18.2-4.16c-.78-.86-1.26-1.84-1.38-2.89-.1-.92.09-1.84.52-2.74,1.92-3.97,8.71-7.45,17.08-8.36,8.38-.91,15.76,1.03,18.48,4.5.62.78.99,1.64,1.09,2.56Z"/><path class="cls-5" d="m366.03,175.47c.15,2.37-1.69,4.16-3.51,5.39-2.25,1.53-4.81,2.53-7.43,3.23-5.75,1.54-12.33,1.85-18.01-.14-1.94-.68-4.5-1.92-5.12-4.07s1.31-4.22,2.92-5.43c4.58-3.41,10.84-4.65,16.44-4.76,3.19-.06,6.42.26,9.45,1.32,2.32.81,4.91,2.2,5.32,4.86.29,1.9,3.18,1.09,2.89-.8-.97-6.35-9.7-8.01-14.88-8.32-6.82-.41-14.62.91-20.35,4.85-2.19,1.51-4.35,3.6-4.82,6.33-.56,3.27,1.58,5.95,4.25,7.52,5.93,3.49,13.9,3.35,20.43,2.06,3.63-.72,7.34-1.97,10.42-4.06,2.68-1.81,5.22-4.51,5-7.98-.12-1.92-3.13-1.93-3,0Z"/><path class="cls-4" d="m98.48,190.62c.06.47.04.91-.04,1.36v.03c-.35,2.16-2.08,4.29-4.83,6.3-5.52,4.01-15.18,7.34-26.43,8.68s-21.41.37-27.71-2.23c-3.14-1.3-5.32-2.97-6.18-4.98-.18-.42-.3-.88-.36-1.35-.82-6.89,13.19-14.21,31.28-16.37s33.44,1.67,34.26,8.56Z"/><path class="cls-5" d="m96.98,190.62c.32,4.55-5.65,7.67-9.31,9.4-4.79,2.26-9.99,3.68-15.18,4.65-5.95,1.12-12.05,1.6-18.1,1.36-4.75-.19-9.66-.79-14.11-2.55-3.07-1.22-7.18-3.81-5.43-7.45,1.44-3,4.84-4.95,7.68-6.41,4.43-2.27,9.28-3.73,14.13-4.78,5.85-1.27,11.84-1.91,17.82-1.87,5.3.03,10.75.52,15.79,2.28,2.75.96,6.32,2.63,6.76,5.78.11.81,1.14,1.23,1.85,1.05.87-.23,1.16-1.05,1.05-1.85-.46-3.33-3.56-5.58-6.39-6.88-4.59-2.11-9.72-2.89-14.72-3.22-6.43-.43-12.93.04-19.28,1.12-5.84.99-11.62,2.57-17.01,5.06-3.64,1.68-7.49,3.93-9.75,7.34s-1.41,7.51,1.83,10.07c4.12,3.26,9.79,4.34,14.89,4.94,6.47.76,13.05.49,19.49-.39s13.38-2.55,19.57-5.35c4.79-2.17,11.87-6.15,11.43-12.29-.14-1.91-3.14-1.93-3,0Z"/><path class="cls-4" d="m98.45,192.01l1.21,10.13c-1.05,6.44-14.37,12.96-31.26,14.97-16.87,2.01-31.35-1.19-33.89-7.21l-1.21-10.13c.85,2.02,3.03,3.68,6.18,4.98,6.3,2.6,16.48,3.57,27.71,2.23s20.91-4.67,26.43-8.68c2.75-2,4.48-4.14,4.83-6.3Z"/><path class="cls-5" d="m96.95,192.01c.21,1.77.42,3.54.63,5.31l.43,3.59c.04.32.07.65.12.97.01.08.03.16.03.24,0-.37,0,.03-.08.25-.77,2.21-2.6,3.84-4.49,5.14-3.04,2.09-6.47,3.57-9.96,4.74-8.84,2.99-18.38,4.26-27.7,3.93-3.94-.14-7.9-.59-11.71-1.65-2.58-.72-5.4-1.73-7.3-3.7-.38-.39-.58-.84-.92-1.26-.39-.48,0,.28,0,.28,0-.11-.03-.24-.04-.34-.11-1.11-.26-2.21-.4-3.32-.25-2.13-.51-4.26-.76-6.4l-2.8.76c1.81,3.98,6.71,5.81,10.64,6.86,4.8,1.28,9.84,1.7,14.79,1.69,10.72-.01,22-1.87,31.75-6.48,4.24-2.01,9.74-5.2,10.71-10.2.37-1.89-2.52-2.69-2.89-.8-.76,3.93-5.26,6.39-8.56,8.03-4.01,2-8.35,3.34-12.7,4.35-9.64,2.22-20.18,3.04-29.94,1.06-3.85-.78-9.42-2.1-11.21-6.04-.6-1.32-2.97-.7-2.8.76.24,1.97.47,3.94.71,5.92.22,1.83.12,4.17,1.13,5.78,1.52,2.43,4.18,3.88,6.76,4.92,3.65,1.46,7.59,2.13,11.49,2.51,9.86.96,20.15-.14,29.66-2.88,4.01-1.15,8.01-2.64,11.63-4.74,2.6-1.5,5.23-3.41,6.83-6,.58-.94,1.15-2.14,1.13-3.27-.02-1-.24-2.03-.36-3.03-.28-2.33-.55-4.65-.83-6.98-.23-1.89-3.23-1.92-3,0Z"/><path class="cls-4" d="m201.27,206.89v11.83c0,5.4-2.95,10.38-7.89,14.33-6.83,5.45-17.44,8.95-29.36,8.95s-22.53-3.5-29.36-8.95c-4.94-3.95-7.89-8.93-7.89-14.33v-11.83c0,2.05.42,4.02,1.21,5.92,4.19,10,18.75,17.37,36.04,17.37s31.85-7.37,36.04-17.37c.79-1.89,1.21-3.87,1.21-5.92Z"/><path class="cls-5" d="m199.77,206.89c0,4.23.23,8.53-.03,12.75-.59,9.5-10.51,15.48-18.59,18.18-9.81,3.28-20.79,3.58-30.8,1.02-8.43-2.16-18.63-7.04-21.44-16.02-.86-2.75-.64-5.67-.64-8.52v-7.4h-3c.2,13.43,14.59,20.92,26.01,23.43,13.54,2.97,29.65,1.51,41.26-6.6,5.64-3.94,10.13-9.68,10.23-16.82.03-1.93-2.97-1.93-3,0-.18,12.12-14.11,18.48-24.2,20.62-12.48,2.64-27.06,1.24-37.88-5.92-5.04-3.34-9.33-8.38-9.42-14.69-.03-1.93-3-1.93-3,0v6.79c0,2.52-.17,5.13.22,7.63,1.55,9.98,11.42,16.25,20.23,19.28,10.4,3.57,22.14,3.86,32.77,1.14,9.21-2.35,19.4-7.58,23.1-16.91,1.28-3.23,1.18-6.54,1.18-9.93v-8c0-1.93-3-1.93-3,0Z"/><path class="cls-4" d="m201.27,206.89c0,2.05-.42,4.02-1.21,5.92-4.19,10-18.75,17.37-36.04,17.37s-31.85-7.37-36.04-17.37c-.79-1.89-1.21-3.87-1.21-5.92,0-5.21,2.74-10.02,7.37-13.9,6.8-5.69,17.65-9.38,29.88-9.38s23.08,3.68,29.88,9.38c4.63,3.88,7.37,8.69,7.37,13.9Z"/><path class="cls-5" d="m199.77,206.89c-.17,11.55-12.99,17.92-22.66,20.27-12.05,2.93-25.99,1.96-36.97-4.09-4.17-2.3-8.08-5.48-10.29-9.78-2.99-5.8-1.36-12.27,2.92-16.92,4.04-4.39,9.6-7.2,15.24-8.93,6.53-2.01,13.45-2.65,20.25-2.17s14.24,2.31,20.4,5.9c5.73,3.34,11.02,8.71,11.11,15.73.02,1.93,3.02,1.93,3,0-.18-14.28-16.27-21.77-28.33-23.87-13.6-2.37-29.46-.45-40.59,8.29-5.35,4.2-9.32,10.52-8.45,17.54.72,5.8,4.4,10.55,8.93,14.01,10.74,8.21,25.84,10.09,38.88,8.12,11.03-1.67,24.56-7.16,28.62-18.58.63-1.76.92-3.63.95-5.5s-2.97-1.93-3,0Z"/><path class="cls-4" d="m158.4,68.41l2.68,9.57c1.22,4.37-.05,9.07-3.18,13.39-4.32,5.96-12.16,11.21-21.86,13.92s-19.13,2.29-25.91-.56c-4.92-2.07-8.44-5.43-9.66-9.8l-2.68-9.57c.46,1.66,1.25,3.16,2.32,4.51,5.67,7.14,19.18,9.79,33.26,5.86s24.25-13.21,25.4-22.26c.21-1.71.11-3.41-.36-5.06Z"/><path class="cls-5" d="m156.95,68.81c.93,3.31,1.96,6.62,2.78,9.96,1.93,7.94-4.99,15.16-11.03,19.17-7.3,4.86-16.21,7.55-24.96,7.67-7.27.1-16.73-1.64-20.74-8.5-1.11-1.91-1.55-4.19-2.14-6.3-.55-1.95-1.09-3.9-1.64-5.86l-2.89.8c3.39,11.36,17.64,13.99,27.85,13.14,11.44-.96,23.88-5.8,31.27-14.94,3.64-4.51,5.9-10.12,4.39-15.94-.48-1.87-3.38-1.08-2.89.8,2.45,9.45-6.75,17.46-14.09,21.48-9.51,5.2-21.71,7.56-32.26,4.41-4.97-1.48-9.82-4.52-11.38-9.74-.55-1.85-3.41-1.07-2.89.8s1.03,3.67,1.54,5.5c.54,1.94.98,3.98,1.78,5.84,3.35,7.8,12.59,10.81,20.4,11.4,9.5.72,19.43-1.73,27.69-6.44,7-3.99,14.16-10.53,15.18-18.96.37-3.04-.47-5.79-1.28-8.66-.6-2.14-1.2-4.29-1.8-6.43-.52-1.86-3.41-1.07-2.89.8Z"/><path class="cls-4" d="m158.4,68.41c.46,1.66.57,3.35.36,5.06-1.15,9.04-11.32,18.32-25.4,22.26s-27.59,1.28-33.26-5.86c-1.07-1.35-1.86-2.86-2.32-4.51-1.18-4.21-.04-8.73,2.85-12.93,4.24-6.15,12.24-11.6,22.19-14.39s19.62-2.27,26.44.79c4.65,2.08,7.96,5.36,9.14,9.57Z"/><path class="cls-5" d="m156.95,68.81c2.36,9.11-6.19,16.94-13.24,21.01-9.19,5.29-20.93,7.81-31.37,5.35-4.03-.95-8.07-2.71-10.81-5.91-3.76-4.37-3.17-10.24-.35-14.92,5.25-8.69,15.76-13.65,25.35-15.65,6.18-1.29,12.79-1.45,18.88.33,5.01,1.46,9.99,4.52,11.55,9.79.54,1.85,3.44,1.06,2.89-.8-3.43-11.64-18.27-14.1-28.62-13.06-11.3,1.13-23.48,6.02-30.7,15.13-3.64,4.59-5.99,10.7-3.93,16.49,1.74,4.9,5.92,8.18,10.6,10.1,10.91,4.47,24.13,2.39,34.53-2.45,9.57-4.46,21.22-14.28,18.12-26.21-.48-1.87-3.38-1.08-2.89.8Z"/><path class="cls-4" d="m250.06,97.44l-1.94,6.46c-.88,2.95-3.48,5.13-7.12,6.39-5.02,1.74-12.01,1.72-19.22-.44s-13.06-6-16.29-10.21c-2.34-3.05-3.31-6.3-2.43-9.25l1.94-6.46c-.33,1.12-.4,2.27-.24,3.45.9,6.22,8.5,12.88,18.96,16.02,10.46,3.14,20.47,1.75,24.64-2.95.78-.89,1.36-1.89,1.7-3.01Z"/><path class="cls-5" d="m248.62,97.04c-.7,2.32-1.2,4.82-2.14,7.06-2.05,4.84-8.81,5.9-13.41,5.94-6.32.06-12.77-1.67-18.3-4.71-4.35-2.4-9.68-6.38-10.46-11.67-.26-1.77.36-3.38.86-5.04.43-1.43.85-2.85,1.28-4.28l-2.89-.8c-2.12,7.87,5.44,14.49,11.55,17.88,7.92,4.38,18.19,6.7,27.08,4.23,4.11-1.14,7.94-3.58,9.32-7.8.6-1.84-2.29-2.63-2.89-.8-1,3.06-3.97,4.74-6.89,5.61-3.64,1.08-7.55,1.13-11.3.66-7.52-.94-15.55-4.15-20.78-9.81-2.27-2.46-4.13-5.74-3.2-9.17.5-1.87-2.34-2.65-2.89-.8-.4,1.35-.81,2.7-1.21,4.05-.49,1.63-1.09,3.25-1.1,4.98-.05,6.12,5.22,11.08,9.99,14.15,5.7,3.66,12.51,5.8,19.25,6.25,5.71.38,12.94-.43,16.99-4.98,2.4-2.7,3.02-6.77,4.03-10.14.56-1.85-2.34-2.65-2.89-.8Z"/><path class="cls-4" d="m250.06,97.44c-.33,1.12-.91,2.12-1.7,3.01-4.17,4.7-14.18,6.08-24.64,2.95-10.46-3.14-18.06-9.8-18.96-16.02-.17-1.18-.1-2.33.24-3.45.85-2.84,3.3-4.98,6.73-6.25,5.04-1.88,12.21-1.92,19.61.3s13.36,6.2,16.54,10.54c2.17,2.96,3.04,6.08,2.18,8.93Z"/><path class="cls-5" d="m248.62,97.04c-2.14,6.54-11.76,6.92-17.32,6.37-7.37-.73-15.17-3.68-20.6-8.85-1.93-1.84-3.68-4.07-4.32-6.71-.84-3.5,1.15-6.38,4.14-7.99s6.85-2.12,10.35-2.07c4.29.07,8.55.98,12.58,2.46s7.59,3.48,10.62,6.27c2.85,2.63,5.67,6.43,4.55,10.51-.51,1.87,2.39,2.66,2.89.8,2.33-8.57-6.69-15.59-13.4-18.83-7.97-3.84-18.43-5.99-26.96-2.7-3.64,1.4-7.03,4.04-7.79,8.07-.66,3.5.75,6.9,2.84,9.64,5.09,6.68,13.77,10.53,21.86,11.94s20.45,1.06,23.46-8.13c.6-1.84-2.29-2.63-2.89-.8Z"/><path class="cls-4" d="m257.26,211.21l.64,8.45c.29,3.86-1.22,7.55-4,10.59-3.83,4.2-10.06,7.18-17.26,7.73s-13.81-1.47-18.22-5.05c-3.2-2.59-5.25-6.01-5.54-9.87l-.64-8.45c.11,1.46.47,2.85,1.05,4.17,3.07,6.95,12.26,11.55,22.72,10.76s18.86-6.71,20.85-14.04c.37-1.39.52-2.82.41-4.28Z"/><path class="cls-5" d="m255.76,211.21c.21,2.8.46,5.6.63,8.41.4,6.31-4.15,11.25-9.44,13.99-5.77,2.99-12.82,3.73-19.12,2.19-5.78-1.42-11.84-5.13-13.25-11.32-.37-1.63-.37-3.38-.49-5.04s-.24-3.23-.36-4.84h-3c.83,8.97,9.07,14.51,17.34,16,8.78,1.58,18.76-.51,25.33-6.8,3.44-3.29,5.64-7.77,5.36-12.6-.11-1.92-3.11-1.93-3,0,.44,7.66-6.19,13.16-12.86,15.41-7.37,2.49-16.19,2.06-22.8-2.29-3.36-2.21-5.98-5.62-6.36-9.72-.18-1.9-3.15-1.94-3,0,.24,3.12.32,6.29.74,9.39.93,6.88,6.72,11.68,12.93,13.91,6.81,2.45,14.77,2.19,21.47-.52,6.06-2.46,11.96-7.24,13.27-13.99.44-2.26.2-4.47.03-6.73-.14-1.82-.27-3.63-.41-5.45-.14-1.91-3.15-1.93-3,0Z"/><path class="cls-4" d="m257.26,211.21c.11,1.46-.04,2.89-.41,4.28-1.99,7.33-10.4,13.25-20.85,14.04s-19.65-3.81-22.72-10.76c-.58-1.32-.94-2.71-1.05-4.17-.28-3.72,1.12-7.28,3.71-10.26,3.8-4.37,10.16-7.5,17.55-8.05s14.15,1.58,18.56,5.33c3.01,2.56,4.92,5.87,5.2,9.59Z"/><path class="cls-5" d="m255.76,211.21c.42,7.22-5.53,12.62-11.8,15.03-7.04,2.7-15.54,2.67-22.26-.95-2.78-1.5-5.25-3.63-6.73-6.46-1.91-3.65-1.54-7.92.55-11.39,4.07-6.72,12.67-9.71,20.17-9.74,8.16-.03,19.21,4.05,20.07,13.51.17,1.91,3.17,1.93,3,0-.86-9.48-9.95-15-18.63-16.2s-18.92,1.23-25.03,8.02c-3.16,3.51-4.96,8.1-4.22,12.84.62,3.95,2.96,7.39,6.05,9.85,6.88,5.46,16.61,6.54,24.93,4.34s17.45-9.12,16.89-18.85c-.11-1.92-3.11-1.93-3,0Z"/><path class="cls-4" d="m302.07,54.86l-3.15,9.66c-1.44,4.41-5.17,7.69-10.25,9.6-7.02,2.63-16.61,2.67-26.34-.5-9.73-3.17-17.46-8.85-21.59-15.11-2.99-4.54-4.07-9.38-2.63-13.8l3.15-9.66c-.54,1.67-.72,3.4-.59,5.15.76,9.28,10.68,19.17,24.8,23.76,14.12,4.6,27.96,2.45,34.04-4.6,1.14-1.34,2.02-2.84,2.56-4.51Z"/><path class="cls-5" d="m300.62,54.46c-1.08,3.32-2.07,6.69-3.25,9.98-2.69,7.49-12.04,9.89-19.13,10.09-9.11.26-18.41-2.44-26.1-7.3-6.28-3.97-13.25-10.63-13.16-18.65.03-2.5,1.04-4.9,1.8-7.24.64-1.96,1.28-3.93,1.92-5.89l-2.89-.8c-3.29,10.71,5.83,20.46,14.18,25.66,10.42,6.49,24.42,9.76,36.42,6.2,5.81-1.72,11.08-5.33,13.11-11.26.63-1.83-2.27-2.62-2.89-.8-3.48,10.14-17.47,11.29-26.38,10.03-10.42-1.47-21.47-6.4-28.02-14.91-3.1-4.02-5.07-9.07-3.52-14.12.57-1.85-2.3-2.63-2.89-.8s-1.2,3.69-1.8,5.54c-.68,2.1-1.55,4.23-1.86,6.42-1.25,8.75,5.2,16.45,11.76,21.34,7.67,5.71,17.34,9.02,26.86,9.53,8.26.44,18.15-1.35,23.43-8.37,1.64-2.18,2.35-4.74,3.18-7.29.71-2.19,1.43-4.38,2.14-6.58.6-1.84-2.3-2.63-2.89-.8Z"/><path class="cls-4" d="m302.07,54.86c-.54,1.67-1.41,3.17-2.56,4.51-6.08,7.05-19.92,9.2-34.04,4.6-14.12-4.6-24.04-14.49-24.8-23.76-.14-1.75.04-3.48.59-5.15,1.38-4.25,4.9-7.46,9.71-9.39,7.06-2.84,16.9-2.96,26.89.29s17.87,9.14,21.9,15.6c2.75,4.4,3.7,9.06,2.32,13.31Z"/><path class="cls-5" d="m300.62,54.46c-3.34,9.72-16.4,11.11-25.05,10.19-10.34-1.1-21.11-5.74-28.11-13.6-2.56-2.87-4.73-6.43-5.24-10.31-.68-5.15,2.06-9.64,6.39-12.24s9.95-3.55,15.13-3.47c6.01.09,12.03,1.47,17.56,3.8s10.25,5.38,14.14,9.59c3.96,4.28,6.99,10.14,5.17,16.05-.57,1.85,2.33,2.64,2.89.8,3.62-11.74-7.45-22.14-16.75-27.14-10.72-5.75-24.98-8.56-36.57-3.75-5.05,2.1-9.54,6.01-10.73,11.55-1.03,4.77.46,9.61,3.07,13.61,6.25,9.58,17.77,15.39,28.74,17.49s27.89.93,32.24-11.76c.63-1.83-2.27-2.62-2.89-.8Z"/><path class="cls-4" d="m327.59,111.74l-1.88,6.92c-.86,3.16,0,6.52,2.13,9.58,2.94,4.22,8.31,7.89,14.97,9.7,6.66,1.81,13.14,1.37,17.82-.78,3.39-1.56,5.83-4.02,6.69-7.18l1.88-6.92c-.33,1.2-.88,2.29-1.62,3.28-3.93,5.21-13.23,7.32-22.89,4.69s-16.61-9.15-17.36-15.64c-.14-1.23-.06-2.45.27-3.64Z"/><path class="cls-5" d="m326.15,111.35c-.74,2.73-1.77,5.51-2.15,8.32-.86,6.32,3.68,11.82,8.55,15.21,5.46,3.81,12.39,5.82,19.03,5.7,5.87-.11,12.63-2.02,15.92-7.3.99-1.59,1.4-3.41,1.89-5.19l1.26-4.62c.51-1.87-2.35-2.65-2.89-.8-2,6.75-10.53,8.31-16.59,7.94-7.12-.44-14.65-3.45-19.33-8.98-2.23-2.63-3.63-6.03-2.78-9.48.46-1.87-2.43-2.67-2.89-.8-1.93,7.86,4.38,14.63,10.75,18.15,7.33,4.05,17.08,5.74,25.06,2.6,4.02-1.58,7.42-4.38,8.68-8.64l-2.89-.8c-.63,2.3-1.22,4.62-1.88,6.91-1.5,5.16-7.24,7.38-12.13,7.87-6.22.63-12.73-.92-18.08-4.13-4.35-2.61-9.08-7.15-8.77-12.66.09-1.54.68-3.11,1.08-4.59l1.07-3.93c.51-1.87-2.39-2.66-2.89-.8Z"/><path class="cls-4" d="m327.59,111.74c-.33,1.2-.4,2.42-.27,3.64.75,6.49,7.7,13.01,17.36,15.64s18.96.53,22.89-4.69c.74-.99,1.29-2.08,1.62-3.28.83-3.05.07-6.28-1.9-9.25-2.89-4.36-8.36-8.17-15.19-10.03-6.83-1.86-13.48-1.35-18.18.95-3.2,1.57-5.5,3.97-6.33,7.01Z"/><path class="cls-5" d="m326.15,111.35c-1.87,7.59,3.98,14.18,10.08,17.77,7.15,4.2,16.55,5.96,24.57,3.4,3.26-1.04,6.35-2.88,8.31-5.75,2.51-3.67,2.34-8.28.39-12.14-3.68-7.31-12.27-11.61-20.01-12.96-8.34-1.45-20.54.11-23.34,9.68-.54,1.86,2.35,2.65,2.89.8,2.02-6.93,10.95-8.38,17.1-7.9,6.98.54,14.37,3.58,18.92,9.05,2.27,2.74,3.74,6.45,2.51,9.96-.99,2.83-3.55,4.78-6.24,5.89-6.58,2.72-14.63,1.67-20.96-1.25-5.76-2.66-13.11-8.5-11.32-15.75.46-1.87-2.43-2.67-2.89-.8Z"/><path class="cls-4" d="m325.18,149.47v10.96c0,5.01-2.31,9.62-6.19,13.28-5.36,5.05-13.68,8.29-23.04,8.29s-17.68-3.25-23.04-8.29c-3.88-3.66-6.19-8.27-6.19-13.28v-10.96c0,1.9.33,3.73.95,5.48,3.29,9.27,14.71,16.1,28.28,16.1s25-6.83,28.28-16.1c.62-1.75.95-3.59.95-5.48Z"/><path class="cls-5" d="m323.68,149.47c0,3.64.03,7.29,0,10.94-.07,8.06-6.39,14.07-13.32,17.18-8.02,3.59-17.61,3.85-25.91,1.11-7.38-2.43-14.9-8-16.09-16.18-.32-2.22-.14-4.58-.14-6.82v-6.23h-3c.17,11.49,10.47,19.21,20.74,21.84,10.98,2.81,23.74,1,32.68-6.26,4.75-3.86,7.95-9.37,8.04-15.58.03-1.93-2.97-1.93-3,0-.15,10.2-9.73,16.74-18.72,18.99-9.79,2.46-21.39.97-29.45-5.43-4.22-3.35-7.21-8.06-7.29-13.56-.03-1.93-3-1.93-3,0,0,3.96-.2,7.97.03,11.92.53,8.89,7.51,15.65,15.3,19.01,8.63,3.72,18.77,4.12,27.7,1.19,7.98-2.63,15.9-8.42,17.93-16.99.64-2.68.5-5.44.5-8.17v-6.96c0-1.93-3-1.93-3,0Z"/><path class="cls-4" d="m325.18,149.47c0,1.9-.33,3.73-.95,5.48-3.29,9.27-14.71,16.1-28.28,16.1s-25-6.83-28.28-16.1c-.62-1.75-.95-3.59-.95-5.48,0-4.83,2.15-9.29,5.78-12.88,5.33-5.28,13.85-8.69,23.45-8.69s18.11,3.41,23.45,8.69c3.63,3.59,5.78,8.06,5.78,12.88Z"/><path class="cls-5" d="m323.68,149.47c-.14,9.76-9.02,16.25-17.62,18.7-9.53,2.72-20.62,1.58-28.95-3.99-3.33-2.22-6.27-5.32-7.78-9.07-2.07-5.15-1.05-10.76,2.21-15.16,6.21-8.37,17.93-11.27,27.85-10.41,10.7.93,24.14,7.62,24.29,19.93.02,1.93,3.02,1.93,3,0-.14-12.02-11.42-19.86-22.16-22.17-11.2-2.4-24.36-.17-32.83,7.98-4.19,4.03-6.92,9.69-6.41,15.59.45,5.15,3.08,9.76,6.86,13.21,8.19,7.48,20.29,9.7,30.98,7.83,11.25-1.97,23.38-9.87,23.56-22.45.03-1.93-2.97-1.93-3,0Z"/><path class="cls-4" d="m189.52,45.86l1.76,6.29c.8,2.88-.03,5.96-2.09,8.8-2.84,3.92-8,7.37-14.37,9.15s-12.57,1.51-17.04-.37c-3.23-1.36-5.55-3.57-6.35-6.44l-1.76-6.29c.3,1.09.82,2.08,1.53,2.97,3.73,4.69,12.61,6.44,21.86,3.85s15.94-8.69,16.7-14.63c.14-1.12.07-2.24-.23-3.33Z"/><path class="cls-5" d="m188.07,46.26c.59,2.09,1.21,4.18,1.76,6.29,1.3,5.03-2.94,9.58-6.78,12.17-4.71,3.18-10.47,4.97-16.15,5.08-4.71.09-10.98-.98-13.47-5.53-.65-1.19-.91-2.64-1.27-3.93s-.7-2.49-1.04-3.73l-2.89.8c2.32,7.54,11.43,9.52,18.36,9.05,7.76-.53,16.26-3.76,21.3-9.92,2.58-3.15,4.1-6.99,3.09-11.07-.46-1.87-3.36-1.08-2.89.8,1.51,6.09-4.55,11.15-9.28,13.68-6.06,3.24-13.77,4.7-20.46,2.74-3.15-.92-6.21-2.78-7.22-6.08-.57-1.84-3.42-1.07-2.89.8.7,2.51,1.19,5.23,2.25,7.62,2.32,5.26,8.52,7.3,13.82,7.71,6.39.5,13.09-1.19,18.63-4.38,4.69-2.71,9.38-7.1,10.08-12.75.41-3.35-1.14-6.95-2.03-10.14-.52-1.86-3.41-1.07-2.89.8Z"/><path class="cls-4" d="m189.52,45.86c.3,1.09.37,2.2.23,3.33-.75,5.95-7.44,12.05-16.7,14.63s-18.14.84-21.86-3.85c-.7-.89-1.22-1.88-1.53-2.97-.77-2.77-.03-5.74,1.87-8.5,2.79-4.05,8.05-7.63,14.59-9.46s12.9-1.49,17.38.52c3.05,1.37,5.24,3.52,6.01,6.29Z"/><path class="cls-5" d="m188.07,46.26c1.44,5.82-4.09,10.74-8.6,13.3-5.85,3.33-13.29,4.93-19.93,3.43-2.56-.58-5.15-1.65-6.93-3.65-2.49-2.8-2.02-6.54-.16-9.52,3.41-5.46,10.07-8.56,16.16-9.85,3.89-.82,8.06-.94,11.92.12,3.24.89,6.51,2.76,7.53,6.16.56,1.84,3.45,1.06,2.89-.8-2.36-7.79-12.03-9.64-19.09-8.98-7.68.71-15.94,4-20.83,10.2-2.45,3.1-4.02,7.21-2.7,11.13,1.1,3.28,3.8,5.58,6.89,6.93,7.32,3.18,16.21,1.89,23.28-1.32,6.69-3.03,14.49-9.71,12.45-17.95-.46-1.87-3.36-1.08-2.89.8Z"/><path class="cls-4" d="m189.04,124.69l-1.3,6.4c-.59,2.93-2.75,5.29-5.87,6.88-4.32,2.19-10.48,2.92-16.97,1.6-6.49-1.32-11.88-4.39-15-8.09-2.26-2.68-3.31-5.7-2.72-8.63l1.3-6.4c-.23,1.11-.21,2.22,0,3.34,1.18,5.88,8.29,11.48,17.71,13.39s18.15-.47,21.53-5.42c.64-.94,1.08-1.96,1.31-3.07Z"/><path class="cls-5" d="m187.59,124.29c-.43,2.13-.83,4.28-1.3,6.4-1.11,5.02-6.71,7.16-11.27,7.8-5.53.78-11.5-.2-16.55-2.57-4.27-2-9.43-5.65-9.92-10.77-.14-1.47.3-2.96.59-4.39.27-1.31.53-2.61.8-3.92l-2.89-.8c-1.31,7.58,5.3,13.39,11.56,16.23,7.34,3.32,16.51,4.38,24.07,1.17,3.68-1.56,6.88-4.33,7.81-8.36.43-1.88-2.46-2.68-2.89-.8-1.46,6.32-9.41,8.04-14.95,8.04-6.76,0-14.19-2.2-19.13-6.98-2.28-2.21-4.15-5.21-3.58-8.51.32-1.88-2.5-2.71-2.89-.8-.55,2.69-1.49,5.58-1.52,8.34-.05,5.77,4.7,10.37,9.35,13.05,5.44,3.13,12.02,4.63,18.28,4.24,5.42-.34,11.64-2.15,14.73-7,1.73-2.72,1.98-6.49,2.61-9.59.38-1.88-2.51-2.69-2.89-.8Z"/><path class="cls-4" d="m189.04,124.69c-.23,1.11-.67,2.13-1.31,3.07-3.38,4.95-12.12,7.33-21.53,5.42s-16.53-7.52-17.71-13.39c-.22-1.11-.23-2.23,0-3.34.57-2.82,2.59-5.12,5.54-6.71,4.33-2.33,10.64-3.12,17.3-1.77,6.66,1.35,12.16,4.55,15.23,8.38,2.09,2.61,3.05,5.52,2.48,8.34Z"/><path class="cls-5" d="m187.59,124.29c-1.41,6.1-8.94,7.92-14.33,8.04-6.59.14-13.81-1.83-18.89-6.18-1.86-1.59-3.55-3.58-4.25-5.97-.94-3.25.49-6.31,3.15-8.21,5.63-4.04,13.77-3.75,20.13-1.94,3.42.97,6.8,2.52,9.54,4.82s5.31,5.67,4.64,9.45c-.34,1.89,2.55,2.7,2.89.8,1.44-8.09-6.14-14.02-12.78-16.75-7.42-3.05-16.81-3.81-24.13-.06-3.24,1.66-6.04,4.53-6.62,8.24-.54,3.43.81,6.66,2.92,9.3,4.8,5.98,13.02,8.88,20.45,9.43,7.42.55,18.19-1.62,20.15-10.16.43-1.88-2.46-2.68-2.89-.8Z"/><path class="cls-4" d="m324.05,207.72l-1.3,6.4c-.59,2.93-2.75,5.29-5.87,6.88-4.32,2.19-10.48,2.92-16.97,1.6-6.49-1.32-11.88-4.39-15-8.09-2.26-2.68-3.31-5.7-2.72-8.63l1.3-6.4c-.23,1.11-.21,2.22,0,3.34,1.18,5.88,8.29,11.48,17.71,13.39s18.15-.47,21.53-5.42c.64-.94,1.08-1.96,1.31-3.07Z"/><path class="cls-5" d="m322.6,207.33c-.43,2.13-.83,4.28-1.3,6.4-1.11,5.02-6.71,7.16-11.27,7.8-5.53.78-11.5-.2-16.55-2.57-4.27-2-9.43-5.65-9.92-10.77-.14-1.47.3-2.96.59-4.39.27-1.31.53-2.61.8-3.92l-2.89-.8c-1.31,7.58,5.3,13.39,11.56,16.23,7.34,3.32,16.51,4.38,24.07,1.17,3.68-1.56,6.88-4.33,7.81-8.36.43-1.88-2.46-2.68-2.89-.8-1.46,6.32-9.41,8.04-14.95,8.04-6.76,0-14.19-2.2-19.13-6.98-2.28-2.21-4.15-5.21-3.58-8.51.32-1.88-2.5-2.71-2.89-.8-.55,2.69-1.49,5.58-1.52,8.34-.05,5.77,4.7,10.37,9.35,13.05,5.44,3.13,12.02,4.63,18.28,4.24,5.42-.34,11.64-2.15,14.73-7,1.73-2.72,1.98-6.49,2.61-9.59.38-1.88-2.51-2.69-2.89-.8Z"/><path class="cls-4" d="m324.05,207.72c-.23,1.11-.67,2.13-1.31,3.07-3.38,4.95-12.12,7.33-21.53,5.42s-16.53-7.52-17.71-13.39c-.22-1.11-.23-2.23,0-3.34.57-2.82,2.59-5.12,5.54-6.71,4.33-2.33,10.64-3.12,17.3-1.77,6.66,1.35,12.16,4.55,15.23,8.38,2.09,2.61,3.05,5.52,2.48,8.34Z"/><path class="cls-5" d="m322.6,207.33c-1.41,6.1-8.94,7.92-14.33,8.04-6.59.14-13.81-1.83-18.89-6.18-1.86-1.59-3.55-3.58-4.25-5.97-.94-3.25.49-6.31,3.15-8.21,5.63-4.04,13.77-3.75,20.13-1.94,3.42.97,6.8,2.52,9.54,4.82s5.31,5.67,4.64,9.45c-.34,1.89,2.55,2.7,2.89.8,1.44-8.09-6.14-14.02-12.78-16.75-7.42-3.05-16.81-3.81-24.13-.06-3.24,1.66-6.04,4.53-6.62,8.24-.54,3.43.81,6.66,2.92,9.3,4.8,5.98,13.02,8.88,20.45,9.43s18.19-1.62,20.15-10.16c.43-1.88-2.46-2.68-2.89-.8Z"/><path class="cls-4" d="m458.05,179.72l-1.3,6.4c-.59,2.93-2.75,5.29-5.87,6.88-4.32,2.19-10.48,2.92-16.97,1.6-6.49-1.32-11.88-4.39-15-8.09-2.26-2.68-3.31-5.7-2.72-8.63l1.3-6.4c-.23,1.11-.21,2.22,0,3.34,1.18,5.88,8.29,11.48,17.71,13.39s18.15-.47,21.53-5.42c.64-.94,1.08-1.96,1.31-3.07Z"/><path class="cls-5" d="m456.6,179.33c-.43,2.13-.83,4.28-1.3,6.4-1.11,5.02-6.71,7.16-11.27,7.8-5.53.78-11.5-.2-16.55-2.57-4.27-2-9.43-5.65-9.92-10.77-.14-1.47.3-2.96.59-4.39.27-1.31.53-2.61.8-3.92l-2.89-.8c-1.31,7.58,5.3,13.39,11.56,16.23,7.34,3.32,16.51,4.38,24.07,1.17,3.68-1.56,6.88-4.33,7.81-8.36.43-1.88-2.46-2.68-2.89-.8-1.46,6.32-9.41,8.04-14.95,8.04-6.76,0-14.19-2.2-19.13-6.98-2.28-2.21-4.15-5.21-3.58-8.51.32-1.88-2.5-2.71-2.89-.8-.55,2.69-1.49,5.58-1.52,8.34-.05,5.77,4.7,10.37,9.35,13.05,5.44,3.13,12.02,4.63,18.28,4.24,5.42-.34,11.64-2.15,14.73-7,1.73-2.72,1.98-6.49,2.61-9.59.38-1.88-2.51-2.69-2.89-.8Z"/><path class="cls-4" d="m458.05,179.72c-.23,1.11-.67,2.13-1.31,3.07-3.38,4.95-12.12,7.33-21.53,5.42s-16.53-7.52-17.71-13.39c-.22-1.11-.23-2.23,0-3.34.57-2.82,2.59-5.12,5.54-6.71,4.33-2.33,10.64-3.12,17.3-1.77,6.66,1.35,12.16,4.55,15.23,8.38,2.09,2.61,3.05,5.52,2.48,8.34Z"/><path class="cls-5" d="m456.6,179.33c-1.41,6.1-8.94,7.92-14.33,8.04-6.59.14-13.81-1.83-18.89-6.18-1.86-1.59-3.55-3.58-4.25-5.97-.94-3.25.49-6.31,3.15-8.21,5.63-4.04,13.77-3.75,20.13-1.94,3.42.97,6.8,2.52,9.54,4.82s5.31,5.67,4.64,9.45c-.34,1.89,2.55,2.7,2.89.8,1.44-8.09-6.14-14.02-12.78-16.75-7.42-3.05-16.81-3.81-24.13-.06-3.24,1.66-6.04,4.53-6.62,8.24-.54,3.43.81,6.66,2.92,9.3,4.8,5.98,13.02,8.88,20.45,9.43s18.19-1.62,20.15-10.16c.43-1.88-2.46-2.68-2.89-.8Z"/><path class="cls-4" d="m276.39,115.75l.65,6.02c.19,1.76-.66,3.52-2.28,5.1-3,2.93-8.66,5.27-15.32,6s-12.69-.35-16.25-2.57c-1.93-1.2-3.13-2.73-3.32-4.49l-.65-6.02c.11,1.06.59,2.03,1.38,2.89,2.92,3.26,10.09,5.04,18.2,4.16s14.72-4.16,16.88-7.98c.58-1.01.84-2.07.72-3.12Z"/><path class="cls-5" d="m274.89,115.75c.22,1.99.49,3.97.65,5.96.31,3.97-4.72,6.48-7.82,7.67-4.72,1.8-9.9,2.49-14.94,2.11-2.26-.17-4.52-.6-6.65-1.41-1.7-.65-3.72-1.72-4.5-3.46-.43-.96-.42-2.29-.55-3.46s-.24-2.25-.37-3.37l-2.95.4c.97,6.34,9.68,8.01,14.85,8.32,6.83.41,14.67-.9,20.4-4.87,2.62-1.81,5.09-4.48,4.86-7.89-.12-1.92-3.13-1.93-3,0,.2,3.06-2.85,5.15-5.23,6.43-3.32,1.79-7.13,2.76-10.87,3.17s-7.8.33-11.52-.7c-2.69-.74-6.13-2.14-6.6-5.26-.25-1.65-3.13-1.28-2.95.4.25,2.31.25,4.81.83,7.06,1.22,4.73,7.16,6.64,11.41,7.3,5.52.87,11.34.42,16.68-1.23,4.34-1.34,9.69-3.79,11.48-8.32.63-1.6.41-3.13.23-4.77-.15-1.36-.3-2.72-.44-4.08-.21-1.9-3.21-1.92-3,0Z"/><path class="cls-4" d="m276.39,115.75c.11,1.06-.14,2.11-.72,3.12-2.15,3.81-8.77,7.09-16.88,7.98s-15.28-.9-18.2-4.16c-.78-.86-1.26-1.84-1.38-2.89-.1-.92.09-1.84.52-2.74,1.92-3.97,8.71-7.45,17.08-8.36,8.38-.91,15.76,1.03,18.48,4.5.62.78.99,1.64,1.09,2.56Z"/><path class="cls-5" d="m274.89,115.75c.15,2.37-1.69,4.16-3.51,5.39-2.25,1.53-4.81,2.53-7.43,3.23-5.75,1.54-12.33,1.85-18.01-.14-1.94-.68-4.5-1.92-5.12-4.07s1.31-4.22,2.92-5.43c4.58-3.41,10.84-4.65,16.44-4.76,3.19-.06,6.42.26,9.45,1.32,2.32.81,4.91,2.2,5.32,4.86.29,1.9,3.18,1.09,2.89-.8-.97-6.35-9.7-8.01-14.88-8.32-6.82-.41-14.62.91-20.35,4.85-2.19,1.51-4.35,3.6-4.82,6.33-.56,3.27,1.58,5.95,4.25,7.52,5.93,3.49,13.9,3.35,20.43,2.06,3.63-.72,7.34-1.97,10.42-4.06,2.68-1.81,5.22-4.51,5-7.98-.12-1.92-3.13-1.93-3,0Z"/><path class="cls-4" d="m236.39,150.75l.65,6.02c.19,1.76-.66,3.52-2.28,5.1-3,2.93-8.66,5.27-15.32,6s-12.69-.35-16.25-2.57c-1.93-1.2-3.13-2.73-3.32-4.49l-.65-6.02c.11,1.06.59,2.03,1.38,2.89,2.92,3.26,10.09,5.04,18.2,4.16s14.72-4.16,16.88-7.98c.58-1.01.84-2.07.72-3.12Z"/><path class="cls-5" d="m234.89,150.75c.22,1.99.49,3.97.65,5.96.31,3.97-4.72,6.48-7.82,7.67-4.72,1.8-9.9,2.49-14.94,2.11-2.26-.17-4.52-.6-6.65-1.41-1.7-.65-3.72-1.72-4.5-3.46-.43-.96-.42-2.29-.55-3.46s-.24-2.25-.37-3.37l-2.95.4c.97,6.34,9.68,8.01,14.85,8.32,6.83.41,14.67-.9,20.4-4.87,2.62-1.81,5.09-4.48,4.86-7.89-.12-1.92-3.13-1.93-3,0,.2,3.06-2.85,5.15-5.23,6.43-3.32,1.79-7.13,2.76-10.87,3.17s-7.8.33-11.52-.7c-2.69-.74-6.13-2.14-6.6-5.26-.25-1.65-3.13-1.28-2.95.4.25,2.31.25,4.81.83,7.06,1.22,4.73,7.16,6.64,11.41,7.3,5.52.87,11.34.42,16.68-1.23,4.34-1.34,9.69-3.79,11.48-8.32.63-1.6.41-3.13.23-4.77-.15-1.36-.3-2.72-.44-4.08-.21-1.9-3.21-1.92-3,0Z"/><path class="cls-4" d="m236.39,150.75c.11,1.06-.14,2.11-.72,3.12-2.15,3.81-8.77,7.09-16.88,7.98s-15.28-.9-18.2-4.16c-.78-.86-1.26-1.84-1.38-2.89-.1-.92.09-1.84.52-2.74,1.92-3.97,8.71-7.45,17.08-8.36,8.38-.91,15.76,1.03,18.48,4.5.62.78.99,1.64,1.09,2.56Z"/><path class="cls-5" d="m234.89,150.75c.15,2.37-1.69,4.16-3.51,5.39-2.25,1.53-4.81,2.53-7.43,3.23-5.75,1.54-12.33,1.85-18.01-.14-1.94-.68-4.5-1.92-5.12-4.07s1.31-4.22,2.92-5.43c4.58-3.41,10.84-4.65,16.44-4.76,3.19-.06,6.42.26,9.45,1.32,2.32.81,4.91,2.2,5.32,4.86.29,1.9,3.18,1.09,2.89-.8-.97-6.35-9.7-8.01-14.88-8.32-6.82-.41-14.62.91-20.35,4.85-2.19,1.51-4.35,3.6-4.82,6.33-.56,3.27,1.58,5.95,4.25,7.52,5.93,3.49,13.9,3.35,20.43,2.06,3.63-.72,7.34-1.97,10.42-4.06,2.68-1.81,5.22-4.51,5-7.98-.12-1.92-3.13-1.93-3,0Z"/><path class="cls-4" d="m94.24,154.59c.04.35.04.67,0,1v.02c-.19,1.59-1.25,3.14-2.95,4.58-3.42,2.88-9.45,5.21-16.51,6.05-7.05.84-13.46,0-17.46-2.01-1.99-1-3.39-2.26-3.95-3.76-.12-.31-.2-.65-.24-1-.61-5.09,8.11-10.31,19.45-11.66,11.36-1.35,21.05,1.67,21.66,6.76Z"/><path class="cls-5" d="m92.74,154.59c.23,2.88-2.77,4.97-5.09,6.27-2.87,1.61-6.05,2.61-9.26,3.28-3.59.76-7.29,1.06-10.96.88-3.05-.15-6.28-.62-9.07-1.94-2.08-.98-4.59-2.85-3.47-5.43.81-1.86,2.7-3.19,4.38-4.18,5.73-3.38,12.88-4.58,19.45-4.45,3.32.06,6.79.48,9.88,1.78,1.87.79,3.88,2.03,4.2,4.19.12.81,1.13,1.24,1.85,1.05.86-.23,1.16-1.05,1.05-1.85-.85-5.91-9.17-7.53-13.92-8-7.76-.77-16.37.54-23.27,4.27-2.4,1.3-4.93,3.11-6.17,5.63-1.31,2.68-.67,5.64,1.56,7.64,2.66,2.38,6.37,3.41,9.82,3.91,4.27.63,8.58.5,12.84-.14s8.75-1.89,12.62-4.06c3.19-1.79,6.9-4.81,6.58-8.86-.15-1.91-3.15-1.93-3,0Z"/><path class="cls-4" d="m94.24,155.62l.89,7.48c-.57,4.74-8.87,9.37-19.46,10.63-10.58,1.26-19.73-1.29-21.4-5.76l-.89-7.48c.56,1.5,1.95,2.76,3.95,3.76,4,2,10.41,2.85,17.46,2.01,7.06-.84,13.09-3.17,16.51-6.05,1.7-1.44,2.76-2.99,2.96-4.58Z"/><path class="cls-5" d="m92.74,155.62c.29,2.45.75,4.93.88,7.39,0,.04.02.19.02-.01,0-.31-.07.31-.07.31-.09.3-.19.57-.33.85-.39.78-.99,1.44-1.63,2.03-1.68,1.56-3.83,2.68-5.95,3.54-5.61,2.26-11.86,3.13-17.88,2.75-2.59-.16-5.21-.6-7.65-1.53-.91-.35-1.81-.79-2.61-1.35-.67-.47-1.07-1.05-1.6-1.63-.09-.1-.11-.28-.2-.37.05.05.07.57.02.21-.03-.25-.06-.5-.09-.75l-.31-2.59c-.16-1.33-.32-2.66-.47-3.98l-2.95.4c2.46,5.9,10.79,7.01,16.37,7.17,7,.19,14.53-1.11,20.71-4.52,2.89-1.59,6.11-4.05,6.67-7.52.3-1.89-2.59-2.7-2.89-.8-.52,3.21-4.03,5.18-6.71,6.45-3.45,1.63-7.29,2.57-11.07,3.05s-7.98.55-11.86-.19c-2.73-.52-7.12-1.56-8.32-4.44-.29-.7-.84-1.18-1.65-1.07-.67.09-1.39.73-1.3,1.47.16,1.33.32,2.66.47,3.98s.14,2.83.55,4.09c1.44,4.43,7.75,6,11.72,6.58,6.57.96,13.54.29,19.84-1.79,4.38-1.45,10.05-3.95,11.8-8.63.55-1.48.22-2.86.04-4.39s-.37-3.14-.56-4.71c-.23-1.89-3.23-1.92-3,0Z"/><path class="cls-4" d="m237.14,9.94l1.61,6.55c.74,2.99-.4,6.19-2.89,9.12-3.44,4.04-9.47,7.58-16.78,9.38-7.31,1.8-14.29,1.46-19.22-.53-3.57-1.44-6.05-3.75-6.79-6.74l-1.61-6.55c.28,1.13.81,2.16,1.55,3.09,3.93,4.9,13.86,6.79,24.46,4.18,10.61-2.61,18.53-8.88,19.74-15.05.22-1.17.21-2.32-.06-3.46Z"/><path class="cls-5" d="m235.7,10.34c.58,2.37,1.44,4.81,1.74,7.23.67,5.4-4.99,9.81-9.11,12.18-5.42,3.11-11.78,4.8-18.02,4.9-4.94.08-11.73-.73-14.81-5.16-.93-1.33-1.18-2.96-1.56-4.5-.35-1.41-.69-2.81-1.04-4.22l-2.89.8c2.24,8.2,12.85,9.88,20.03,9.49,8.73-.47,18.36-3.65,24.53-10.11,2.94-3.08,4.96-7.06,4.02-11.41-.41-1.89-3.3-1.09-2.89.8,1.44,6.69-6.55,11.87-11.6,14.22-7.09,3.31-15.95,4.79-23.58,2.55-3.27-.96-6.66-2.84-7.62-6.35-.51-1.86-3.35-1.08-2.89.8.34,1.37.67,2.74,1.01,4.1.39,1.57.68,3.19,1.46,4.63,2.85,5.27,9.74,6.97,15.25,7.3,6.96.42,14.17-1.22,20.4-4.34,5.02-2.51,10.51-6.64,12.01-12.35.97-3.72-.65-7.77-1.54-11.37-.46-1.87-3.35-1.08-2.89.8Z"/><path class="cls-4" d="m237.14,9.94c.28,1.13.29,2.29.06,3.46-1.21,6.16-9.13,12.44-19.74,15.05-10.61,2.61-20.54.72-24.46-4.18-.74-.93-1.27-1.96-1.55-3.09-.71-2.88.32-5.96,2.63-8.8,3.39-4.18,9.55-7.85,17.05-9.69,7.5-1.84,14.66-1.44,19.6.69,3.37,1.45,5.7,3.7,6.41,6.58Z"/><path class="cls-5" d="m235.7,10.34c1.37,6.35-5.89,11.38-10.7,13.79-6.86,3.43-15.38,5.05-22.94,3.38-2.75-.61-5.6-1.68-7.56-3.8-2.66-2.89-1.91-6.72.2-9.69,4.22-5.94,12.08-9.05,18.97-10.37,4.44-.85,9.18-.99,13.59.12,3.52.89,7.41,2.77,8.43,6.56.5,1.86,3.4,1.07,2.89-.8C236.29.96,224.85-.49,217.47.12c-8.53.71-17.96,3.94-23.83,10.46-2.82,3.13-4.89,7.49-3.41,11.72,1.2,3.43,4.19,5.65,7.44,6.98,8.07,3.3,18.02,1.97,25.89-1.25,7.13-2.91,16.97-9.44,15.02-18.5-.41-1.89-3.3-1.09-2.89.8Z"/><path class="cls-4" d="m334.79,89.62l-.35,6.73c-.16,3.08-2.17,5.81-5.4,7.9-4.47,2.88-11.26,4.52-18.78,4.13-7.52-.39-14.1-2.73-18.25-6.05-3-2.41-4.71-5.34-4.55-8.41l.35-6.73c-.06,1.16.15,2.3.59,3.41,2.35,5.83,11.31,10.5,22.22,11.07,10.91.57,20.3-3.15,23.24-8.71.55-1.05.88-2.16.94-3.33Z"/><path class="cls-5" d="m333.29,89.62c-.13,2.45.03,5.1-.45,7.51-1.06,5.31-7.6,7.84-12.25,8.92-6,1.39-12.48,1.18-18.41-.46-4.76-1.31-10.91-3.96-12.79-8.95-.62-1.63-.4-3.31-.31-5,.08-1.49.15-2.97.23-4.46h-3c-.19,8.34,9.19,12.99,16.06,14.75,8.58,2.19,18.8,1.93,26.68-2.46,3.77-2.1,6.87-5.37,7.23-9.85.16-1.92-2.85-1.91-3,0-.26,3.24-2.82,5.57-5.47,7.1-3.09,1.79-6.67,2.76-10.2,3.2-7.62.96-16.22-.16-22.78-4.38-2.92-1.88-5.62-4.67-5.54-8.36.05-1.94-2.9-1.92-3,0-.07,1.41-.15,2.81-.22,4.22-.09,1.68-.27,3.35.1,5.01,1.33,5.93,7.62,9.5,12.91,11.36,6.43,2.26,13.59,2.72,20.29,1.57,5.63-.96,12.29-3.41,15.27-8.66,1.83-3.22,1.44-7.48,1.63-11.06.1-1.93-2.9-1.92-3,0Z"/><path class="cls-4" d="m334.79,89.62c-.06,1.16-.39,2.28-.94,3.33-2.94,5.55-12.33,9.27-23.24,8.71-10.91-.57-19.87-5.24-22.22-11.07-.44-1.1-.65-2.24-.59-3.41.15-2.96,2.02-5.62,5.06-7.67,4.45-3.02,11.41-4.76,19.12-4.36,7.71.4,14.45,2.85,18.57,6.31,2.81,2.36,4.39,5.19,4.24,8.15Z"/><path class="cls-5" d="m333.29,89.62c-.53,6.6-9.3,9.29-14.66,10.16-7.43,1.2-15.85.23-22.49-3.46-2.39-1.33-4.7-3.1-6.01-5.56-1.79-3.35-.35-6.75,2.34-9.06s6.16-3.54,9.54-4.29c4.07-.9,8.31-1.01,12.45-.55s8.48,1.63,12.18,3.73c3.32,1.88,6.78,4.89,6.66,9.03-.06,1.93,2.94,1.93,3,0,.25-8.89-10.33-13.56-17.6-15.1-8.51-1.8-18.82-1.38-26.31,3.52-3.45,2.26-6.42,5.87-6.05,10.23.31,3.57,2.54,6.5,5.29,8.64,6.73,5.25,16.24,6.87,24.57,6.16,7.79-.66,19.34-4.05,20.1-13.45.16-1.92-2.85-1.91-3,0Z"/><path class="cls-4" d="m421.38,148.4l-.84,10.12c-.38,4.62-3.26,8.68-7.77,11.7-6.23,4.18-15.55,6.43-25.75,5.59-10.2-.84-19.03-4.59-24.49-9.73-3.95-3.73-6.12-8.19-5.74-12.82l.84-10.12c-.14,1.75.08,3.47.62,5.15,2.88,8.85,14.81,16.19,29.61,17.41,14.8,1.22,27.78-4.06,32.07-12.32.81-1.56,1.31-3.23,1.45-4.98Z"/><path class="cls-5" d="m419.88,148.4c-.29,3.57-.36,7.24-.91,10.78-1.24,7.93-9.82,12.22-16.81,14-8.65,2.2-18.1,1.65-26.53-1.24-7.02-2.4-15.22-7.25-17.07-15.01-.58-2.44-.15-5.03.05-7.5.17-2.1.35-4.2.52-6.3h-3c-.74,11.6,11.2,19.04,20.86,22.01,11.44,3.52,25.36,3.31,35.92-2.84,5.21-3.03,9.35-7.73,9.96-13.92.19-1.92-2.81-1.91-3,0-1.03,10.26-13.7,14.7-22.36,15.67-10.61,1.19-22.62-.9-31.22-7.57-4.19-3.25-7.52-7.84-7.16-13.37.12-1.94-2.84-1.91-3,0s-.33,3.95-.49,5.93c-.18,2.17-.55,4.44-.31,6.61.93,8.74,8.84,14.75,16.38,17.95,8.76,3.72,18.73,4.74,28.09,3.11,7.97-1.39,17.23-5.26,20.86-13.05,1.26-2.7,1.41-5.5,1.65-8.41.19-2.3.38-4.59.57-6.89.16-1.92-2.84-1.91-3,0Z"/><path class="cls-4" d="m421.38,148.4c-.14,1.75-.65,3.41-1.45,4.98-4.29,8.26-17.27,13.54-32.07,12.32-14.8-1.22-26.73-8.56-29.61-17.41-.54-1.67-.76-3.4-.62-5.15.37-4.46,3.05-8.39,7.29-11.38,6.22-4.39,15.76-6.78,26.23-5.91s19.49,4.78,24.9,10.13c3.69,3.65,5.69,7.96,5.32,12.42Z"/><path class="cls-5" d="m419.88,148.4c-.99,9.87-12.81,14.3-21.17,15.52-10.38,1.51-22.01-.39-30.82-6.28-3.28-2.19-6.35-5.15-7.87-8.86-2.14-5.21-.25-10.48,3.73-14.16,3.75-3.46,8.76-5.4,13.68-6.47,5.69-1.23,11.7-1.29,17.44-.35s11.61,2.93,16.53,6.29,8.88,8.24,8.47,14.31c-.13,1.93,2.87,1.92,3,0,.83-12.35-12.63-19.92-22.88-22.58-11.45-2.97-25.53-2.45-35.57,4.45-4.75,3.27-8.52,8.29-8.34,14.29.15,5.04,2.95,9.51,6.6,12.82,8.62,7.81,21.44,10.66,32.79,9.87s26.1-5.94,27.39-18.86c.19-1.92-2.81-1.91-3,0Z"/></g></svg>