<svg width="26" height="91" viewBox="0 0 26 91" fill="none" xmlns="http://www.w3.org/2000/svg">
<path d="M13.0853 75.6504L14.347 76.4616L14.347 76.4616L13.0853 75.6504ZM3.25274 88.9832C3.4287 89.7927 4.2276 90.3063 5.03712 90.1303L18.2291 87.2629C19.0386 87.0869 19.5522 86.288 19.3762 85.4785C19.2003 84.669 18.4014 84.1554 17.5919 84.3313L5.86569 86.8802L3.31685 75.154C3.14089 74.3445 2.34199 73.8309 1.53247 74.0068C0.722946 74.1828 0.209341 74.9817 0.385302 75.7912L3.25274 88.9832ZM11.8235 74.8392L3.45677 87.8534L5.98026 89.4757L14.347 76.4616L11.8235 74.8392ZM10.4167 2.42206C25.5331 24.0405 26.0889 52.65 11.8235 74.8392L14.347 76.4616C29.2706 53.2485 28.6892 23.3189 12.8753 0.702936L10.4167 2.42206Z" fill="#88AAE5"/>
</svg>
