<svg width="100" height="84" viewBox="0 0 100 84" fill="none" xmlns="http://www.w3.org/2000/svg">
<g clip-path="url(#clip0_9_509)">
<path d="M98.4198 46.36L98.1698 12.41C98.1698 12.41 23.5098 15.48 4.05981 23.9L98.4198 46.36Z" fill="white" stroke="#3B65EE" stroke-width="1.43" stroke-linecap="round" stroke-linejoin="round"/>
<path d="M98.4198 46.36V50.87L6.55981 33.23L4.05981 23.9L98.4198 46.36Z" fill="white" stroke="#3B65EE" stroke-width="1.43" stroke-linecap="round" stroke-linejoin="round"/>
<path d="M98.4198 50.87L98.1798 83.24L17.1898 68.79C17.1898 68.79 15.4398 67.62 14.7898 65.44C14.1398 63.26 6.55981 33.23 6.55981 33.23L98.4198 50.87Z" fill="white" stroke="#3B65EE" stroke-width="1.43" stroke-linecap="round" stroke-linejoin="round"/>
<path d="M98.1699 12.41V0.939999C98.1699 0.939999 88.4099 0.839999 85.3199 5.15C85.3199 5.15 65.0799 -6.78 53.4199 8.48C53.4199 8.48 35.5599 -6.3 21.0399 14.19C21.0399 14.19 12.6899 9.18 5.07992 11.46C-2.53008 13.74 1.60992 23.57 4.05992 23.89C4.05992 23.89 20.3099 16.31 98.1699 12.4V12.41Z" fill="white" stroke="#3B65EE" stroke-width="1.43" stroke-linecap="round" stroke-linejoin="round"/>
<path opacity="0.2" d="M98.4198 46.36V50.87L6.55981 33.23L4.05981 23.9L98.4198 46.36Z" fill="#3B65EE"/>
<path opacity="0.2" d="M98.4198 50.87L98.1798 83.24L17.1898 68.79C17.1898 68.79 15.4398 67.62 14.7898 65.44C14.1398 63.26 6.55981 33.23 6.55981 33.23L98.4198 50.87Z" fill="#3B65EE"/>
<path d="M24.1399 52.07C24.7972 52.07 25.33 51.5372 25.33 50.88C25.33 50.2228 24.7972 49.69 24.1399 49.69C23.4827 49.69 22.95 50.2228 22.95 50.88C22.95 51.5372 23.4827 52.07 24.1399 52.07Z" fill="#3B65EE"/>
<path d="M29.8499 60.64C30.5071 60.64 31.0399 60.1072 31.0399 59.45C31.0399 58.7928 30.5071 58.26 29.8499 58.26C29.1927 58.26 28.6599 58.7928 28.6599 59.45C28.6599 60.1072 29.1927 60.64 29.8499 60.64Z" fill="#3B65EE"/>
<path d="M27.47 63.02C28.1272 63.02 28.66 62.4872 28.66 61.83C28.66 61.1728 28.1272 60.64 27.47 60.64C26.8128 60.64 26.28 61.1728 26.28 61.83C26.28 62.4872 26.8128 63.02 27.47 63.02Z" fill="#3B65EE"/>
<path opacity="0.2" d="M98.1 6.5C98.1 6.5 88.18 4.45 85.32 10.64C85.32 10.64 66.14 -2.71 54.54 12.3C54.54 12.3 31.04 4.58 22.94 16.9C22.94 16.9 -3.29001 9.87 5.77999 22.64C5.77999 22.64 75.31 10.37 98.17 12.41L98.1 6.51V6.5Z" fill="#3B65EE"/>
<path opacity="0.2" d="M78.08 30.67C82.2939 30.67 85.71 30.1014 85.71 29.4C85.71 28.6986 82.2939 28.13 78.08 28.13C73.866 28.13 70.45 28.6986 70.45 29.4C70.45 30.1014 73.866 30.67 78.08 30.67Z" fill="#3B65EE"/>
<path d="M78.9 29.14C81.7553 29.14 84.07 26.8253 84.07 23.97C84.07 21.1147 81.7553 18.8 78.9 18.8C76.0447 18.8 73.73 21.1147 73.73 23.97C73.73 26.8253 76.0447 29.14 78.9 29.14Z" fill="white" stroke="#3B65EE" stroke-width="0.85" stroke-linecap="round" stroke-linejoin="round"/>
<path d="M77.6301 21.54C78.6401 23.04 78.8501 24.64 79.2201 26.34C77.7301 25.33 77.3401 23.25 77.6301 21.54Z" fill="#3B65EE"/>
<path d="M76.52 24.3C76.77 22.63 79 21.83 80.38 22.65C78.98 23.23 77.88 23.51 76.52 24.3Z" fill="#3B65EE"/>
</g>
<defs>
<clipPath id="clip0_9_509">
<rect width="99.13" height="83.95" fill="white"/>
</clipPath>
</defs>
</svg>
