<?xml version="1.0" encoding="UTF-8"?><svg id="Layer_1" xmlns="http://www.w3.org/2000/svg" viewBox="0 0 500 500"><defs><style>.cls-1{fill:#ecf0fe;}.cls-2{fill:#c8d4fa;}.cls-3{fill:#dee5fc;}.cls-4{fill:#89a3f5;}.cls-5{fill:#3b66ef;}</style></defs><polyline class="cls-4" points="357.04 176.19 344.1 193.46 333.48 225.27 341.33 229.2 343.3 233.13 366.86 239.02 366.86 254.72 378.64 260.61 384.53 268.47 376.67 262.58 362.93 256.69 360.97 242.94 347.22 239.02 343.3 290.06 351.15 299.88 374.71 313.62 374.71 323.44 386.49 327.37 396.31 347 382.56 329.33 372.75 327.37 368.82 313.62 353.11 307.73 349.19 317.55 357.04 329.33 341.33 354.85 347.22 386.27 333.48 413.75 337.41 433.39 319.74 464.8 333.48 427.5 329.55 411.79 341.33 384.3 335.44 358.78 325.63 362.71 325.63 380.38 307.96 380.38 304.03 386.27 266.73 388.23 300.11 382.34 304.03 374.49 321.7 374.49 321.7 356.82 337.41 350.93 351.15 329.33 341.33 315.59 349.19 303.81 337.41 290.06 339.37 288.1 343.3 250.8 339.37 256.69 333.48 254.72 327.59 272.39 309.92 278.28 307.96 280.25 300.11 282.21 298.14 278.28 292.25 290.06 280.47 290.06 280.47 297.92 272.62 303.81 284.4 313.62 274.58 327.37 282.44 343.07 262.8 354.85 276.55 341.11 266.73 325.4 276.55 315.59 270.66 309.7 249.06 337.18 239.24 337.18 237.28 352.89 209.79 364.67 233.35 350.93 233.35 333.26 247.1 333.26 268.69 301.84 276.55 295.95 276.55 284.17 288.33 286.14 298.14 274.36 304.03 278.28 325.63 266.5 333.48 244.91 337.41 250.8 341.33 240.98 339.37 233.13 327.59 227.24 338.21 191.49 351.15 174.23"/><path class="cls-4" d="m357.83,176.78s-12.94,17.27-12.94,17.27c.79-2-10.74,32.23-10.48,31.54,0,0-.49-1.19-.49-1.19s7.85,3.93,7.85,3.93l.29.15.15.29,1.96,3.93s-.64-.51-.64-.51l23.56,5.89.74.19v.77s0,15.71,0,15.71c0,0-.54-.88-.54-.88,0,0,11.78,5.89,11.78,5.89,0,0,.21.1.21.1,0,0,.14.19.14.19,2.42,3.23,7.63,10.17,10.01,13.35,0,0-5.5-4.12-5.5-4.12l-7.85-5.89s.2.12.2.12-13.74-5.89-13.74-5.89c0,0-.51-.22-.51-.22,0,0-.08-.55-.08-.55l-1.96-13.74s.7.8.7.8c0,0-13.74-3.93-13.74-3.93l1.25-.87-3.93,51.05-.21-.69,7.85,9.82c-1.44-1.05,23.58,13.74,23.29,13.51,0,0,.49.28.49.28v10.38l-.67-.93,11.78,3.93s.41.14.41.14c0,0,.16.36.16.36,0,0,8.94,20.07,8.94,20.07,0,0-14.52-17.07-14.52-17.07,0,0,.58.36.58.36,0,0-9.82-1.96-9.82-1.96,0,0-.59-.12-.59-.12,0,0-.16-.58-.16-.58s-3.93-13.74-3.93-13.74l.6.65-15.71-5.89,1.26-.55s-3.93,9.82-3.93,9.82l-.09-.91,7.85,11.78.35.52s-.33.54-.33.54l-15.71,25.52.13-.7,5.89,31.41.06.32s-.15.3-.15.3l-13.74,27.49s.08-.63.08-.63c0,0,3.93,19.63,3.93,19.63l.07.37s-.18.3-.18.3c0,0-18.53,30.93-18.53,30.93,0,0,12.82-37.64,12.82-37.64,0,0-.03.58-.03.58,0,0-3.93-15.71-3.93-15.71l-.08-.32.13-.3,11.78-27.49-.05.61-5.89-25.52,1.32.69-9.82,3.93.62-.91v18.65s-.98,0-.98,0h-17.67l.82-.44s-3.93,5.89-3.93,5.89c0,0-.28.42-.28.42h-.48s-37.35,1-37.35,1l33.21-6.86-.71.53,3.93-7.85s.27-.54.27-.54h.61s17.67,0,17.67,0l-.98.98s0-17.67,0-17.67c0,0,0-.68,0-.68,0,0,.64-.24.64-.24l15.71-5.89s-.48.39-.48.39l13.74-21.6s.03,1.1.03,1.1l-9.82-13.74-.39-.55s.38-.56.38-.56l7.85-11.78s.07,1.18.07,1.18l-11.78-13.74s-.59-.69-.59-.69c.54-.55,2.06-2.06,2.61-2.61,0,0-.28.59-.28.59l3.93-37.3,1.79.65s-3.93,5.89-3.93,5.89c0,0-.42.62-.42.62,0,0-.71-.24-.71-.24,0,0-5.89-1.96-5.89-1.96,0,0,1.24-.62,1.24-.62,0,0-5.89,17.67-5.89,17.67,0,0-.16.47-.16.47,0,0-.47.16-.47.16s-17.67,5.89-17.67,5.89l.38-.24-1.96,1.96s-.19.19-.19.19c0,0-.26.07-.26.07-.34.03-8.53,2.17-8.62,2.15-.36-.7-1.95-3.91-2.32-4.63,0,0,1.76,0,1.76,0,0,0-5.89,11.78-5.89,11.78s-.27.54-.27.54c0,0-.61,0-.61,0h-11.78l.98-.98v7.85s0,.49,0,.49l-.39.29s-7.85,5.89-7.85,5.89l.04-1.54,11.78,9.82.7.58-.53.74-9.82,13.74.08-1.01,7.85,15.71.41.81c-5.25,3.15-22.2,13.33-27.25,16.35,3.56-3.55,15.6-15.61,19.38-19.38,0,0-.14,1.21-.14,1.21,0,0-9.82-15.71-9.82-15.71,0,0-.41-.66-.41-.66,0,0,.55-.55.55-.55,0,0,9.82-9.82,9.82-9.82v1.39s-5.89-5.89-5.89-5.89l1.47-.09-21.6,27.49-.29.38h-10.29s.97-.86.97-.86c0,0-1.96,15.71-1.96,15.71l-.07.58s-.52.2-.52.2l-27.87,10.88s23.07-14.59,23.07-14.59c0,0-.49.85-.49.85v-17.67s0-.98,0-.98h14.72l-.81.43,21.6-31.41s.09-.13.09-.13c0,0,.13-.1.13-.1,0,0,7.85-5.89,7.85-5.89,0,0-.39.79-.39.79v-12.94l1.14.19s11.78,1.96,11.78,1.96l-.92.34s9.82-11.78,9.82-11.78l.56-.68s.73.49.73.49l5.89,3.93s-1.01-.04-1.01-.04c0,0,21.6-11.78,21.6-11.78l-.45.53s7.85-21.6,7.85-21.6c0,0,.66-1.82.66-1.82.6.94,4.3,6.42,5,7.5,0,0-1.73.18-1.73.18l3.93-9.82s-.04.6-.04.6l-1.96-7.85s.51.64.51.64l-11.78-5.89-.74-.37.23-.79s10.62-35.74,10.62-35.74c0,0,.05-.17.05-.17,0,0,.11-.14.11-.14,0,0,12.94-17.27,12.94-17.27,0,0,1.57,1.18,1.57,1.18,0,0-12.94,17.27-12.94,17.27,0,0,.16-.31.16-.31,0,0-10.62,35.74-10.62,35.74,0,0-.5-1.16-.5-1.16l11.78,5.89s.4.2.4.2l.11.44,1.96,7.85.08.31-.12.29c-.56,1.4-4.19,10.48-4.62,11.55-.81-1.27-4.11-6.14-4.96-7.44,0,0,1.74-.21,1.74-.21,0,0-7.85,21.6-7.85,21.6,0,0-.13.35-.13.35,0,0-.33.18-.33.18l-21.6,11.78s-.52.28-.52.28c0,0-.49-.33-.49-.33l-5.89-3.93,1.3-.19-9.82,11.78-.36.43-.56-.09-11.78-1.96s1.14-.97,1.14-.97v12.27l-.39.29-7.85,5.89c.93-1.25-21.55,31.46-21.38,31.18,0,0-.29.43-.29.43h-.52s-13.74,0-13.74,0l.98-.98v18.26l-.49.26-24.05,12.9s27.1-12.68,27.1-12.68c0,0-.59.78-.59.78,0,0,1.96-15.71,1.96-15.71,0,0,.11-.86.11-.86,0,0,.87,0,.87,0,0,0,9.82,0,9.82,0l-.77.38s21.6-27.49,21.6-27.49l.68-.87s.78.78.78.78c0,0,5.89,5.89,5.89,5.89l.69.69-.69.69-9.82,9.82.14-1.21s9.82,15.71,9.82,15.71c0,0,.41.66.41.66l-.55.55s-13.74,13.74-13.74,13.74l-1.2-1.54,19.63-11.78s-.37,1.28-.37,1.28c0,0-7.85-15.71-7.85-15.71,0,0-.26-.53-.26-.53,0,0,.34-.48.34-.48l9.82-13.74s.17,1.32.17,1.32l-11.78-9.82s-.95-.79-.95-.79l.99-.74s7.85-5.89,7.85-5.89l-.39.79s0-7.85,0-7.85c0,0,0-.98,0-.98h.98s11.78,0,11.78,0l-.88.54,5.89-11.78.88-1.76c.54,1.07,2.27,4.55,2.84,5.68,0,0-1.12-.51-1.12-.51,0,0,7.85-1.96,7.85-1.96l-.46.26s1.96-1.96,1.96-1.96c0,0,.16-.16.16-.16,0,0,.22-.07.22-.07l17.67-5.89s-.62.62-.62.62l5.89-17.67s.31-.93.31-.93l.93.31,5.89,1.96-1.13.39c1.31-1.94,4.84-7.27,6.14-9.21,0,0-.42,3.96-.42,3.96l-3.93,37.3-.04.35c-.12.12-2.05,2.05-2.21,2.21,0,0,.05-1.33.05-1.33,0,0,11.78,13.74,11.78,13.74,0,0,.48.56.48.56,0,0-.41.62-.41.62l-7.85,11.78s-.02-1.11-.02-1.11l9.82,13.74.38.54-.36.56s-13.74,21.6-13.74,21.6c0,0-.18.28-.18.28l-.31.12s-15.71,5.89-15.71,5.89l.64-.92s0,17.67,0,17.67,0,.98,0,.98c0,0-.98,0-.98,0,0,0-17.67,0-17.67,0l.88-.54-3.93,7.85-.23.46s-.48.07-.48.07l-33.55,4.92s37.25-2.94,37.25-2.94c0,0-.77.44-.77.44l3.93-5.89s.29-.44.29-.44h18.2l-.98.98v-18.33s.62-.25.62-.25c0,0,9.82-3.93,9.82-3.93l1.06-.43.26,1.12,5.89,25.52.07.31s-.13.29-.13.29c0,0-11.78,27.49-11.78,27.49l.05-.62s3.93,15.71,3.93,15.71c0,0,.08.31.08.31s-.11.27-.11.27c0,0-14.66,36.96-14.66,36.96,0,0,16.81-31.89,16.81-31.89l-.11.67s-3.93-19.63-3.93-19.63l-.07-.33s.15-.3.15-.3c0,0,13.74-27.49,13.74-27.49l-.09.62-5.89-31.41-.07-.37.2-.32,15.71-25.52.02,1.06-7.85-11.78s-.29-.43-.29-.43c0,0,.19-.48.19-.48,0,0,3.93-9.82,3.93-9.82l.36-.89s.9.34.9.34l15.71,5.89s.46.17.46.17l.14.48s3.93,13.74,3.93,13.74c0,0-.75-.69-.75-.69,0,0,9.82,1.96,9.82,1.96s.38.08.38.08c0,0,.2.28.2.28l12.97,18.27s-10.69-19.19-10.69-19.19c0,0,.57.49.57.49,0,0-11.78-3.93-11.78-3.93l-.67-.22s0-.71,0-.71v-9.82l.49.85-23.56-13.74s-.16-.09-.16-.09l-.11-.14-7.85-9.82s-.24-.3-.24-.3l.03-.39,3.93-51.05s.09-1.2.09-1.2l1.16.33s13.74,3.93,13.74,3.93c0,0,.61.17.61.17l.09.63,1.96,13.74-.59-.76,13.74,5.89s.11.05.11.05c0,0,.09.07.09.07,0,0,7.85,5.89,7.85,5.89,0,0-1.37,1.37-1.37,1.37l-5.89-7.85s.35.29.35.29c0,0-11.78-5.89-11.78-5.89,0,0-.54-.27-.54-.27,0,0,0-.61,0-.61v-15.71s.74.95.74.95l-23.56-5.89s-.44-.11-.44-.11c0,0-.2-.4-.2-.4,0,0-1.96-3.93-1.96-3.93,0,0,.44.44.44.44,0,0-7.85-3.93-7.85-3.93l-.76-.38s.27-.81.27-.81c0,0,10.62-31.82,10.62-31.82,0,0,.05-.15.05-.15,0,0,.1-.13.1-.13,0,0,12.94-17.27,12.94-17.27l1.57,1.18h0Z"/><path class="cls-4" d="m52.97,197.31c89.36.59,324.9.59,382.89.59,10.88,0,31.23-4.55,31.96-15.39.48-7.12-3.42-18.57-11.84-21.3-12.15-3.95-21.97,4.28-22.49,4.73,1.5-13.74-4.43-27.08-15.39-34.32-13.42-8.87-32.21-7.15-44.98,4.73,3.47-8.44.29-18.06-7.1-22.49-6.59-3.95-15.32-3.04-21.3,2.37-.51-1.5-3.97-11.26-14.2-15.39-8.61-3.47-18.68-1.61-26.04,4.73-.12-1.37-2.99-29.34-23.67-39.06-20.58-9.67-51.76,2.02-65.1,31.96-2.5-2.17-16.89-14.23-36.69-11.84-18.51,2.24-34.37,16.21-40.24,35.51-6.14-6.97-15.77-9.3-23.67-5.92-9.63,4.12-11.69,14.57-11.84,15.39-11.32-11.75-29.19-14.09-42.61-5.92-14.46,8.8-20.31,27.73-13.02,43.79-9.89.64-16.42,9.24-15.39,16.57,1.09,7.73,11.84,11.84,20.71,11.24Z"/><path class="cls-5" d="m52.97,198.81c28.74.19,57.49.27,86.23.33,36.51.09,73.03.14,109.54.18,35.45.04,70.9.06,106.36.07,24.89,0,49.77.01,74.66.01,5.91,0,11.71-.07,17.55-1.22,7.17-1.42,16.42-4.11,20.48-10.79,1.86-3.07,1.78-6.63,1.23-10.06-.69-4.36-2.41-8.69-5.16-12.17-6.09-7.69-17-7.84-25.37-4.04-2.15.98-4.24,2.22-6.04,3.76l2.56,1.06c1.21-12.06-3.04-24.58-12.26-32.66-8.91-7.81-21.27-10.42-32.71-7.69-6.74,1.61-12.87,5.04-17.96,9.7l2.51,1.46c3.19-8.16.85-17.85-6.27-23.16-7.5-5.58-17.78-4.4-24.64,1.58l2.51.66c-2.24-6.61-7.07-12.53-13.38-15.61-9.78-4.77-21.2-2.57-29.37,4.29l2.56,1.06c-1.19-13.19-7.09-27.64-17.58-36.04-14.76-11.82-35.69-8.99-50.75.71-10.29,6.63-18.22,16.36-23.24,27.47l2.36-.3c-8.03-6.94-18.29-11.53-28.89-12.43-14.46-1.23-28.71,4.97-38.46,15.55-5.59,6.06-9.64,13.35-12.09,21.22l2.51-.66c-6.78-7.48-18.08-10.38-27.17-5.33-5.59,3.11-9.68,9.18-10.84,15.46l2.51-.66c-9.49-9.68-23.91-13.69-36.94-9.55-12.47,3.97-21.69,14.94-23.85,27.8-1.23,7.32-.19,14.68,2.81,21.44l1.3-2.26c-8.98.74-18.12,8.31-16.89,18.07s13.91,13.2,22.21,12.74c1.92-.11,1.93-3.11,0-3-6.58.36-17.7-1.76-19.18-9.64s6.6-14.57,13.86-15.17c1.21-.1,1.77-1.18,1.3-2.26-4.81-10.85-3.58-23.76,3.42-33.39,7.14-9.82,19.62-14.63,31.53-12.47,7.01,1.28,13.34,4.72,18.33,9.8.74.76,2.3.47,2.51-.66.95-5.14,4.02-10.2,8.43-13.05,8.05-5.2,18.4-2.56,24.57,4.24.79.87,2.19.37,2.51-.66,4.02-12.93,12.85-24.19,25.08-30.26,12.33-6.12,26.73-5.68,38.97.42,3.71,1.85,7.24,4.11,10.38,6.83.66.57,1.93.64,2.36-.3,7.89-17.48,23.92-32.11,43.53-34.27,8.23-.91,16.68.56,23.65,5.18s12.04,12.34,15.05,20.27c1.82,4.8,3.3,10.26,3.75,15.17.12,1.34,1.53,1.93,2.56,1.06,7.44-6.25,18.2-8.07,26.87-3.23,5.05,2.82,9.01,7.74,10.86,13.22.38,1.11,1.63,1.42,2.51.66,5.88-5.13,14.92-5.99,21.18-.97,5.88,4.72,7.4,12.78,4.72,19.63-.58,1.49,1.5,2.38,2.51,1.46,8.13-7.44,19.38-11.27,30.36-9.47,10.95,1.79,20.13,9.04,24.63,19.16,2.63,5.92,3.46,12.43,2.82,18.84-.14,1.41,1.68,1.82,2.56,1.06,5.64-4.83,14.55-6.91,21.54-4.17,4.3,1.69,7.12,5.9,8.67,10.08,1.25,3.38,2.43,8,1.13,11.53s-4.63,5.56-7.7,7.09c-3.66,1.82-7.68,2.95-11.68,3.74-5.57,1.1-11.11,1.12-16.75,1.12-24.08,0-48.17,0-72.25-.01-33.97-.01-67.93-.03-101.9-.06-35.82-.03-71.63-.08-107.45-.16-29.08-.06-58.17-.14-87.25-.31-2.65-.02-5.29-.03-7.94-.05-1.93-.01-1.93,2.99,0,3Z"/><path class="cls-1" d="m102.08,226.23c4.62,1.33,10.12.6,14.57.35,8.77-.5,17.58-.29,26.36-.29,19.45,0,38.9.01,58.35,0,16.55,0,33.1-.02,49.65-.05,9.57-.02,25.93-1.54,28.45-14.17,3.55-11.84-8.51-31.7-21.29-34.32-10.7-2.2-22.26,2.98-29.57,13.02-10.21-21.66-32.83-32.53-52.04-27.22-20.09,5.54-27.67,26.34-28.38,28.41-4.97-8.86-15.27-12.67-23.65-9.47-6.57,2.5-11.18,9.01-11.83,16.57-.94-.54-7.78-4.32-14.19-1.18-.64.31-3.87,3.52-5.91,7.1-3.4,5.95-.04,14.63,4.83,18.82,1.36,1.17,2.95,1.94,4.65,2.43Z"/><path class="cls-5" d="m101.68,227.68c4.71,1.28,9.58.74,14.38.44,5.41-.34,10.84-.38,16.26-.37,11.05.02,22.09.05,33.14.05,21.98,0,43.96,0,65.94-.02,5.54,0,11.09-.01,16.63-.02,3.31,0,6.62,0,9.92-.32,6.2-.6,12.74-2.02,17.65-6.08,5.01-4.15,6.61-11.03,5.72-17.27-1.02-7.14-4.73-13.98-9.51-19.31s-10.9-8.91-18.21-9.02c-8.25-.12-16.17,3.63-22.02,9.31-1.57,1.52-2.97,3.19-4.26,4.95h2.59c-7.23-15.2-21.6-26.91-38.53-29-7.84-.96-15.9.44-22.88,4.15-6.36,3.39-11.6,8.58-15.64,14.49-2.5,3.67-4.65,7.69-6.11,11.89l2.74-.36c-3.46-6.05-9.51-10.34-16.46-11.18s-13.48,2.18-17.61,7.68c-2.48,3.3-3.82,7.27-4.2,11.36l2.26-1.3c-2.43-1.38-5.16-2.25-7.93-2.54-2.13-.22-4.37,0-6.39.76-1.39.52-2.31,1.24-3.33,2.29-2.64,2.74-5.31,6.11-5.9,9.97s.34,7.55,2.05,10.88c2.08,4.04,5.32,7.21,9.72,8.54,1.85.56,2.64-2.34.8-2.89-6.05-1.83-10.05-8.77-9.74-14.94.17-3.36,2.25-6.15,4.41-8.58.45-.5.9-.99,1.39-1.46.28-.27.57-.53.7-.61,1.53-.9,3.61-1.1,5.35-1.03,2.56.1,5.14.93,7.37,2.2,1.06.6,2.15-.18,2.26-1.3.57-6.06,3.99-11.8,9.51-14.58,5.07-2.55,11.22-1.91,16.04.91,3.01,1.76,5.41,4.31,7.14,7.32.67,1.18,2.33.82,2.74-.36s.75-1.99,1.19-2.96c.94-2.09,2.02-4.11,3.22-6.06,3.36-5.47,7.75-10.41,13.16-13.92,12.99-8.44,29.55-6.83,42.23,1.37,7.81,5.05,13.89,12.37,17.88,20.74.53,1.12,1.99.82,2.59,0,4.69-6.37,11.62-11.19,19.51-12.48,3.41-.56,7.1-.43,10.38.71,2.95,1.02,5.59,2.91,7.85,5.03,4.95,4.66,8.72,10.92,10.31,17.55,1.32,5.54.66,12.07-3.66,16.18s-10.48,5.33-16.05,5.89c-3.06.31-6.13.34-9.21.35-5.13,0-10.26.02-15.39.02-20.98.02-41.96.03-62.94.02-10.47,0-20.94.03-31.41-.02-5.22-.02-10.45-.08-15.67.04-4.81.1-9.6.62-14.41.68-2.27.03-4.52-.12-6.73-.72-1.86-.51-2.66,2.38-.8,2.89Z"/><path class="cls-3" d="m206.89,253.78c-1.54,3.33-5.51,4.77-8.86,3.21s-4.83-5.51-3.29-8.84,12.35-10.75,12.35-10.75c0,0,1.34,13.05-.2,16.38Z"/><path class="cls-3" d="m258.51,259.68c-1.54,3.33-5.51,4.77-8.86,3.21s-4.83-5.51-3.29-8.84c1.54-3.33,12.35-10.75,12.35-10.75,0,0,1.34,13.05-.2,16.38Z"/><path class="cls-3" d="m188.27,352.15c-1.54,3.33-5.51,4.77-8.86,3.21s-4.83-5.51-3.29-8.84c1.54-3.33,12.35-10.75,12.35-10.75,0,0,1.34,13.05-.2,16.38Z"/><path class="cls-3" d="m136.84,250.56c-1.54,3.33-5.51,4.77-8.86,3.21s-4.83-5.51-3.29-8.84,12.35-10.75,12.35-10.75c0,0,1.34,13.05-.2,16.38Z"/><path class="cls-3" d="m258.64,307.58c-1.54,3.33-5.51,4.77-8.86,3.21-3.35-1.55-4.83-5.51-3.29-8.84,1.54-3.33,12.35-10.75,12.35-10.75,0,0,1.34,13.05-.2,16.38Z"/><path class="cls-3" d="m222.87,303.79c-1.54,3.33-5.51,4.77-8.86,3.21-3.35-1.55-4.83-5.51-3.29-8.84s12.35-10.75,12.35-10.75c0,0,1.34,13.05-.2,16.38Z"/><path class="cls-3" d="m238.48,394.18c-1.54,3.33-5.51,4.77-8.86,3.21-3.35-1.55-4.83-5.51-3.29-8.84s12.35-10.75,12.35-10.75c0,0,1.34,13.05-.2,16.38Z"/><path class="cls-3" d="m318.95,339.59c-1.54,3.33-5.51,4.77-8.86,3.21-3.35-1.55-4.83-5.51-3.29-8.84,1.54-3.33,12.35-10.75,12.35-10.75,0,0,1.34,13.05-.2,16.38Z"/><path class="cls-3" d="m305.45,241.21c-1.54,3.33-5.51,4.77-8.86,3.21-3.35-1.55-4.83-5.51-3.29-8.84,1.54-3.33,12.35-10.75,12.35-10.75,0,0,1.34,13.05-.2,16.38Z"/><path class="cls-3" d="m380.81,372.42c-1.54,3.33-5.51,4.77-8.86,3.21-3.35-1.55-4.83-5.51-3.29-8.84,1.54-3.33,12.35-10.75,12.35-10.75,0,0,1.34,13.05-.2,16.38Z"/><path class="cls-3" d="m415.14,231.03c-1.54,3.33-5.51,4.77-8.86,3.21-3.35-1.55-4.83-5.51-3.29-8.84s12.35-10.75,12.35-10.75c0,0,1.34,13.05-.2,16.38Z"/><path class="cls-3" d="m145.18,346.56c-1.54,3.33-5.51,4.77-8.86,3.21-3.35-1.55-4.83-5.51-3.29-8.84,1.54-3.33,12.35-10.75,12.35-10.75,0,0,1.34,13.05-.2,16.38Z"/><path class="cls-3" d="m91.65,254.2c-1.54,3.33-5.51,4.77-8.86,3.21-3.35-1.55-4.83-5.51-3.29-8.84,1.54-3.33,12.35-10.75,12.35-10.75,0,0,1.34,13.05-.2,16.38Z"/><path class="cls-3" d="m367.45,223.82c-1.54,3.33-5.51,4.77-8.86,3.21-3.35-1.55-4.83-5.51-3.29-8.84,1.54-3.33,12.35-10.75,12.35-10.75,0,0,1.34,13.05-.2,16.38Z"/><path class="cls-3" d="m415.02,298.52c-1.54,3.33-5.51,4.77-8.86,3.21s-4.83-5.51-3.29-8.84,12.35-10.75,12.35-10.75c0,0,1.34,13.05-.2,16.38Z"/><polygon class="cls-2" points="201.03 217.43 186.82 245.83 174.99 250.57 168.48 289.04 162.56 292.59 162.56 300.87 145.99 312.71 159.01 299.69 157.83 289.04 164.93 286.67 167.29 265.36 156.64 268.91 155.46 274.83 145.99 281.93 140.07 272.47 130.6 286.67 117.58 283.12 114.03 289.04 95.1 286.67 112.85 285.49 115.22 280.75 130.6 281.93 140.07 266.55 145.99 277.2 151.91 273.65 154.28 265.36 166.11 259.45 170.85 247.61 187.42 239.33 194.52 219.2 201.03 217.43"/><path class="cls-2" d="m201.48,217.05c-4.24,8.81-9.79,20.78-14.14,29.34,0,0-.25.1-.25.1,0,0-11.83,4.74-11.83,4.74,0,0,.44-.55.44-.55-2.16,12.92-4.42,25.83-6.64,38.75,0,0-.25.15-.25.15l-5.93,3.53.3-.53-.03,8.28s0,.31,0,.31c0,0-.25.18-.25.18-5.41,3.93-11.43,7.54-16.91,11.36.99-1.09,2.19-2.17,3.23-3.29,3.19-3.32,6.19-6.83,9.39-10.14,0,0-.16.46-.16.46-.47-3.71-.86-7.43-1.3-11.14,0,0,.48-.16.48-.16,0,0,7.09-2.39,7.09-2.39l-.44.54,2.3-21.31.94.76-10.64,3.59.5-.57-1.18,5.92-.06.28-.23.17-9.47,7.1-.66.5-.44-.7-5.92-9.47,1.29.02-9.49,14.19-.3.44-.51-.14-13.01-3.6.77-.31-3.57,5.91-.23.38s-.42-.07-.42-.07l-18.85-3.03,17.71-1.87s-.57.38-.57.38,2.37-4.73,2.37-4.73l.21-.41s.46.04.46.04l15.39,1.19s-.62.32-.62.32l9.48-15.38.59-.96.55.99,5.91,10.66-.91-.24,5.92-3.55-.29.38,2.37-8.28.08-.27s.25-.13.25-.13l11.84-5.91s-.3.33-.3.33l4.74-11.83.09-.22.21-.11,16.58-8.27-.3.34,7.12-20.12.1-.29c2.43-.71,5.07-1.21,7.43-1.66h0Zm-.92.75c-2.08.75-3.9,1.46-5.9,1.98l.41-.38s-7.09,20.13-7.09,20.13l-.08.23s-.22.11-.22.11c0,0-16.56,8.3-16.56,8.3l.3-.33-4.73,11.84-.09.22-.22.11-11.83,5.93.33-.4-2.36,8.29-.07.25s-.22.13-.22.13l-5.92,3.55-.58.35-.33-.59-5.93-10.65,1.14.03-9.46,15.39-.21.35-.41-.03-15.39-1.17.66-.38-2.36,4.74-.18.37s-.39.01-.39.01c0,0-17.8.5-17.8.5l19.02,1.71-.65.32,3.53-5.93s.27-.45.27-.45l.51.14s13.03,3.51,13.03,3.51l-.81.3,9.44-14.22.66-.99c.04.13,6.26,9.98,6.55,10.48,0,0-1.1-.21-1.1-.21l9.47-7.1-.29.46,1.19-5.92.09-.43s.42-.14.42-.14l10.66-3.51s1.07-.35,1.07-.35l-.13,1.11-2.44,21.3-.05.41s-.39.13-.39.13l-7.11,2.34.42-.66c.37,3.55.79,7.1,1.13,10.66,0,0,.03.28.03.28-2.26,2.2-4.64,4.29-6.96,6.43-2.29,2.02-4.51,4.29-6.65,6.36,5.4-3.95,10.77-8.46,16.23-12.31,0,0-.25.49-.25.49l-.03-8.28v-.35s.3-.18.3-.18l5.91-3.57-.3.44c2.16-12.96,4.28-25.93,6.5-38.88,0,0,.37-.15.37-.15,0,0,11.84-4.73,11.84-4.73l-.37.34c4.06-8.14,10.09-19.56,14.38-27.71h0Z"/><polyline class="cls-2" points="170.14 268.33 175.55 278.07 186.37 282.4 175.55 282.4 169.06 268.33"/><path class="cls-2" d="m189.19,282.94h-13.98l-6.64-14.39.98-.45.2.44.86-.48,5.32,9.57,13.26,5.3Zm-13.29-1.08h7.67l-8.39-3.36-4.86-8.76,5.59,12.12Z"/></svg>