<svg width="408" height="672" viewBox="0 0 408 672" fill="none" xmlns="http://www.w3.org/2000/svg">
<path d="M351.41 361.15L317.81 247.83C313.83 234.41 304.91 223 292.85 215.9L227.04 177.17H214.35H201.66L135.85 215.9C123.79 223 114.87 234.41 110.89 247.83L77.2901 361.15H115.54L40.3701 669.95H212.37H216.32H388.32L326.21 414.8L351.41 361.15Z" fill="#D1DAED" stroke="#3B65EE" stroke-width="2.5" stroke-miterlimit="10" stroke-linecap="round" stroke-linejoin="round"/>
<path d="M324.56 302.78C324.4 309.32 324.04 315.84 323.62 322.35C323.21 328.86 322.7 335.36 322.2 341.87L320.53 361.36L318.81 380.86C318.31 374.33 318.38 367.77 318.58 361.24C318.65 357.97 318.87 354.71 319.02 351.45C319.23 348.19 319.46 344.93 319.71 341.67C320.26 335.16 320.88 328.66 321.68 322.18C322.47 315.69 323.37 309.21 324.56 302.78Z" fill="#3B65EE"/>
<path d="M114.45 305.61C114.37 309.79 114.04 313.93 113.62 318.06C113.22 322.19 112.68 326.3 112.1 330.41C111.48 334.51 110.83 338.6 110.04 342.68C109.26 346.76 108.4 350.82 107.28 354.85C107.36 350.67 107.69 346.53 108.1 342.4C108.5 338.27 109.04 334.16 109.62 330.05C110.24 325.95 110.89 321.86 111.68 317.78C112.47 313.7 113.34 309.63 114.45 305.61Z" fill="#3B65EE"/>
<path d="M216.57 357.74C215.62 369.49 215.09 381.24 214.85 393C214.61 404.75 214.7 416.51 215.18 428.25C215.32 434.12 215.76 439.98 216.09 445.85L216.81 454.63L217.18 459.02L217.66 463.4L218.61 472.17L219.81 480.91L220.39 485.29L221.12 489.64C221.6 492.54 222.07 495.45 222.52 498.37C221.81 495.51 221.12 492.65 220.44 489.77L219.43 485.46L218.59 481.12L216.98 472.41C216.52 469.49 216.14 466.57 215.71 463.65L215.09 459.26L214.63 454.86L213.73 446.05C213.33 440.16 212.86 434.27 212.68 428.36C212.42 422.46 212.4 416.55 212.39 410.65L212.55 401.8C212.64 398.85 212.78 395.9 212.91 392.95C213.52 381.14 214.59 369.37 216.57 357.74Z" fill="#3B65EE"/>
<path d="M178.42 408.52C180.28 416.29 182.15 424.05 184.25 431.76C186.25 439.49 188.37 447.18 190.59 454.85C195.05 470.17 199.78 485.4 204.97 500.48L208.94 511.76C210.26 515.52 211.76 519.21 213.14 522.95L215.24 528.55L217.5 534.08L219.76 539.61C220.52 541.45 221.2 543.33 222.03 545.14L226.85 556.08L228.06 558.82L229.36 561.51L231.98 566.89C235.25 574.18 239.27 581.07 242.91 588.19C240.83 584.78 238.76 581.36 236.72 577.92C234.6 574.52 232.78 570.96 230.88 567.44L228.09 562.13L226.7 559.47L225.41 556.76L220.26 545.92C213.71 531.32 207.81 516.42 202.6 501.29C197.45 486.14 192.76 470.83 188.74 455.35C186.74 447.61 184.82 439.84 183.06 432.04L181.79 426.18L180.59 420.31C179.8 416.39 179.07 412.46 178.42 408.52Z" fill="#3B65EE"/>
<path d="M274.58 443.93C266.51 458.08 274.78 515.6 277.32 567.19C279.86 618.78 301.61 662.6 310 633.6C318.4 604.6 313.93 538.77 313.93 538.77L298.37 450.72C298.38 450.72 282.66 429.78 274.58 443.93Z" fill="#B0C3EA" stroke="#3B65EE" stroke-width="2.5" stroke-miterlimit="10" stroke-linecap="round" stroke-linejoin="round"/>
<path d="M127.36 320.56C129.26 316.07 135.35 315.12 138.34 318.97C155.94 341.65 168.47 449.06 168.47 480.12C168.47 516.11 155.23 554.49 143.43 537.1C131.63 519.71 118.13 440.97 118.13 440.97V342.4L127.36 320.56Z" fill="#B0C3EA" stroke="#3B65EE" stroke-width="2.5" stroke-miterlimit="10" stroke-linecap="round" stroke-linejoin="round"/>
<path d="M250.29 234.03C250.29 234.03 293.94 199.95 293.94 173.2C293.94 146.45 260.1 58.86 214.35 58.86C168.6 58.86 134.76 146.45 134.76 173.2C134.76 199.95 178.41 234.03 178.41 234.03" fill="#D1DAED"/>
<path d="M250.29 234.03C250.29 234.03 293.94 199.95 293.94 173.2C293.94 146.45 260.1 58.86 214.35 58.86C168.6 58.86 134.76 146.45 134.76 173.2C134.76 199.95 178.41 234.03 178.41 234.03" stroke="#3B65EE" stroke-width="2.5" stroke-miterlimit="10" stroke-linecap="round" stroke-linejoin="round"/>
<path d="M216.57 104.2C219.69 104.85 222.69 106.05 225.57 107.46C228.44 108.89 231.18 110.63 233.71 112.64C238.79 116.64 243.05 121.75 246.02 127.54C247.46 130.45 248.71 133.47 249.56 136.6C250.38 139.73 251.04 142.91 251.26 146.13C251.83 152.55 251.35 159 249.98 165.21C250.33 158.86 250.24 152.54 249.33 146.36C248.44 140.19 246.65 134.17 243.81 128.69C242.44 125.92 240.73 123.33 238.83 120.9C236.94 118.45 234.78 116.22 232.48 114.13C230.15 112.08 227.66 110.17 224.99 108.53C222.32 106.86 219.52 105.38 216.57 104.2Z" fill="#3B65EE"/>
<path d="M201.67 79.92L193.83 87.07C191.26 89.47 188.71 91.87 186.25 94.36L184.4 96.21L182.6 98.12C181.37 99.36 180.25 100.7 179.06 101.99C176.74 104.62 174.59 107.37 172.37 110.18C173.68 106.86 175.44 103.69 177.53 100.78C179.62 97.87 181.95 95.12 184.49 92.59C187.04 90.08 189.73 87.71 192.6 85.58C195.44 83.44 198.44 81.48 201.67 79.92Z" fill="#3B65EE"/>
<path d="M250.29 161.53C250.29 181.38 234.2 236.99 214.36 236.99C194.51 236.99 178.43 181.38 178.43 161.53C178.43 141.68 194.52 117.36 214.36 117.36C234.2 117.36 250.29 141.69 250.29 161.53Z" fill="#B0C3EA" stroke="#3B65EE" stroke-width="2.5" stroke-miterlimit="10" stroke-linecap="round" stroke-linejoin="round"/>
<path d="M203.39 193.62C205.124 193.62 206.53 190.002 206.53 185.54C206.53 181.078 205.124 177.46 203.39 177.46C201.656 177.46 200.25 181.078 200.25 185.54C200.25 190.002 201.656 193.62 203.39 193.62Z" fill="#3B65EE"/>
<path d="M225.32 193.62C227.054 193.62 228.46 190.002 228.46 185.54C228.46 181.078 227.054 177.46 225.32 177.46C223.586 177.46 222.18 181.078 222.18 185.54C222.18 190.002 223.586 193.62 225.32 193.62Z" fill="#3B65EE"/>
<path d="M214.35 149.53C230.83 149.53 244.71 161.8 248.95 174.27C249.81 169.3 250.29 164.89 250.29 161.53C250.29 141.68 234.2 117.36 214.36 117.36C194.52 117.36 178.43 141.69 178.43 161.53C178.43 164.89 178.9 169.3 179.77 174.27C183.99 161.8 197.87 149.53 214.35 149.53Z" fill="#99B2E0" stroke="#3B65EE" stroke-width="2.5" stroke-miterlimit="10" stroke-linecap="round" stroke-linejoin="round"/>
<path d="M193.29 104.2C188.96 107.78 185.1 111.8 181.55 116.04C179.78 118.17 178.09 120.36 176.5 122.61L174.17 126.03C173.44 127.2 172.74 128.39 172.03 129.57C171.27 130.72 170.66 131.96 170.01 133.18C169.38 134.4 168.67 135.6 168.13 136.87L166.38 140.63C166.07 141.25 165.86 141.91 165.6 142.55L164.83 144.48C163.73 147.03 162.98 149.7 162.08 152.34C161.58 153.65 161.32 155.02 160.93 156.36C160.57 157.71 160.19 159.06 159.79 160.41C159.93 159.02 160.08 157.62 160.25 156.22C160.44 154.83 160.55 153.41 160.88 152.04C161.5 149.29 162.02 146.5 162.98 143.83C164.58 138.39 167.06 133.23 169.87 128.31C172.72 123.4 176.19 118.85 180.1 114.75C184.01 110.66 188.36 106.94 193.29 104.2Z" fill="#3B65EE"/>
<path d="M262.67 165.21C262.74 169.57 262.39 173.92 261.84 178.23C261.3 182.55 260.49 186.83 259.53 191.08C258.53 195.32 257.3 199.51 255.81 203.61C254.31 207.71 252.5 211.7 250.29 215.45C251.55 211.27 252.82 207.17 253.96 203.02C254.48 200.93 255.11 198.88 255.58 196.78L256.37 193.66L257.1 190.52C258.1 186.34 259 182.13 259.93 177.92C260.83 173.68 261.72 169.46 262.67 165.21Z" fill="#3B65EE"/>
<path d="M329.56 287.47L365.1 407.35C368.53 418.94 368.57 431.26 365.21 442.87L310 633.6C310 633.6 306.46 465.41 274.58 443.93L327.97 345.98" fill="#D1DAED"/>
<path d="M329.56 287.47L365.1 407.35C368.53 418.94 368.57 431.26 365.21 442.87L310 633.6C310 633.6 306.46 465.41 274.58 443.93L327.97 345.98" stroke="#3B65EE" stroke-width="2.5" stroke-miterlimit="10" stroke-linecap="round" stroke-linejoin="round"/>
<path d="M298.38 234.03C296.19 240.37 294.22 246.74 292.42 253.16C290.63 259.58 289 266.03 287.65 272.55C286.88 275.79 286.35 279.07 285.7 282.33C285.18 285.61 284.56 288.89 284.14 292.19C283.12 298.78 282.61 305.42 281.97 312.1C281.57 305.41 281.54 298.66 282.21 291.97L282.41 289.45C282.49 288.61 282.62 287.78 282.72 286.95L283.37 281.94C283.96 278.63 284.48 275.3 285.21 272.02C285.9 268.73 286.74 265.47 287.6 262.22L289.02 257.38C289.5 255.77 290.05 254.18 290.58 252.58C292.73 246.22 295.24 239.96 298.38 234.03Z" fill="#3B65EE"/>
<path d="M265.11 230.9C261.58 240.62 257.3 250.07 252.36 259.19C249.9 263.76 247.17 268.19 244.19 272.48C242.67 274.6 241.1 276.7 239.36 278.67C237.63 280.65 235.81 282.58 233.71 284.26C231.62 285.92 229.28 287.43 226.54 288.21L225.51 288.48C225.16 288.55 224.79 288.56 224.43 288.6C224.07 288.63 223.71 288.67 223.35 288.68L222.31 288.62C220.92 288.55 219.57 288.27 218.26 287.88C215.64 287.1 213.23 285.84 211.02 284.36C208.8 282.89 206.78 281.18 204.89 279.36C201.1 275.72 197.84 271.63 194.88 267.37C191.95 263.08 189.27 258.64 187.03 253.97C189.76 258.36 192.7 262.6 195.87 266.64C199.03 270.68 202.44 274.53 206.22 277.93C210 281.26 214.2 284.3 218.92 285.6C221.26 286.23 223.72 286.5 225.89 285.85C228.13 285.21 230.22 283.86 232.14 282.31C234.09 280.78 235.85 278.95 237.52 277.06C239.21 275.18 240.74 273.13 242.27 271.1C245.29 266.98 248.03 262.64 250.66 258.23C255.88 249.38 260.63 240.21 265.11 230.9Z" fill="#3B65EE"/>
<path d="M254.01 269.16C253.21 274.02 251.44 278.72 249.07 283.09C246.7 287.47 243.61 291.51 239.81 294.84C237.89 296.47 235.85 297.99 233.63 299.19C233.09 299.52 232.51 299.77 231.94 300.04C231.37 300.31 230.81 300.59 230.21 300.81C229.62 301.04 229.04 301.28 228.45 301.5L226.64 302.04C221.8 303.41 216.7 303.57 211.86 302.77C216.77 302.54 221.57 301.82 226.05 300.18C230.51 298.54 234.64 296.11 238.17 292.95C241.77 289.86 244.78 286.11 247.4 282.09C250 278.06 252.22 273.73 254.01 269.16Z" fill="#3B65EE"/>
<path d="M254.01 293.02C253.65 297.45 252.57 301.81 251.07 306.01C249.56 310.21 247.55 314.28 244.96 317.99C243.64 319.82 242.21 321.59 240.6 323.2C238.96 324.77 237.21 326.25 235.28 327.46C233.35 328.67 231.27 329.61 229.12 330.32C226.96 330.98 224.73 331.32 222.51 331.39C224.65 330.78 226.73 330.12 228.68 329.18C230.63 328.24 232.46 327.13 234.17 325.86C237.56 323.26 240.47 320.09 242.91 316.57C244.17 314.84 245.28 312.98 246.33 311.1C247.4 309.22 248.34 307.27 249.26 305.3C251.07 301.31 252.64 297.23 254.01 293.02Z" fill="#3B65EE"/>
<path d="M162.62 269.16C166.24 275.65 170.29 281.84 174.75 287.69C179.23 293.52 184.16 299 189.82 303.58C192.61 305.91 195.63 307.95 198.83 309.63C202.01 311.34 205.39 312.67 208.9 313.51C212.42 314.29 216.06 314.59 219.7 314.36C223.36 314.15 226.93 313.24 230.5 312.19C227.14 313.76 223.57 315.02 219.83 315.58C216.1 316.1 212.26 316.08 208.5 315.42C200.98 314.02 194.06 310.29 188.23 305.52C185.32 303.11 182.6 300.49 180.09 297.7C177.61 294.88 175.28 291.93 173.17 288.84C168.94 282.67 165.31 276.1 162.62 269.16Z" fill="#3B65EE"/>
<path d="M93.1102 307.82L68.5802 395.71C64.6802 409.68 67.1302 424.66 75.2702 436.66L143.43 537.1C143.43 537.1 114.61 347.63 128.43 318.43L93.8702 355.06" fill="#D1DAED"/>
<path d="M93.1102 307.82L68.5802 395.71C64.6802 409.68 67.1302 424.66 75.2702 436.66L143.43 537.1C143.43 537.1 114.61 347.63 128.43 318.43L93.8702 355.06" stroke="#3B65EE" stroke-width="2.5" stroke-miterlimit="10" stroke-linecap="round" stroke-linejoin="round"/>
<path d="M365.93 36.93C134.76 -11.65 42.4899 134.66 42.4899 134.66L13.3599 91.76C13.3599 91.76 151.35 -67.64 365.93 36.93Z" fill="white" stroke="#3B65EE" stroke-width="2.5" stroke-miterlimit="10" stroke-linecap="round" stroke-linejoin="round"/>
<path d="M312.08 23.1401L303.22 22.4601L298.79 22.1001L294.35 21.8701L285.48 21.4201L276.6 21.2501C275.12 21.2301 273.64 21.1601 272.16 21.1601L267.72 21.1901C264.76 21.2301 261.8 21.1801 258.85 21.3001L249.99 21.6501C247.04 21.7601 244.09 22.0501 241.14 22.2401C229.37 23.2201 217.6 24.4501 205.98 26.6101C194.36 28.7001 182.85 31.4001 171.54 34.7701C160.21 38.0801 149.07 42.0501 138.23 46.7201C127.38 51.3701 116.87 56.7801 106.64 62.6901C101.52 65.6301 96.5399 68.8201 91.6199 72.0901C86.7499 75.4301 81.9199 78.8401 77.2599 82.4901C67.8399 89.6401 58.9999 97.5601 50.6299 105.94C54.6099 101.54 58.7799 97.3201 63.1099 93.2601C65.2499 91.2101 67.4899 89.2501 69.6899 87.2601C71.9499 85.3401 74.1799 83.3701 76.4999 81.5201C85.7299 74.0301 95.4899 67.2101 105.65 61.0301C125.99 48.6801 148.02 39.1701 170.82 32.3601C193.68 25.7301 217.27 21.6501 241 20.3201C252.86 19.5701 264.76 19.5701 276.61 20.0101L285.5 20.4601L294.37 21.1901L298.8 21.5601L303.22 22.0701L312.08 23.1401Z" fill="#D1DAED"/>
<path d="M405.99 669.95L13.3599 91.76L1.70996 99.68L388.96 669.95H405.99Z" fill="white" stroke="#3B65EE" stroke-width="2.5" stroke-miterlimit="10" stroke-linecap="round" stroke-linejoin="round"/>
<path d="M177.91 324.81C175.15 318.66 147.21 335.85 143.68 338.05C147.12 335.88 173.62 318.89 170.25 312.19C167.79 307.3 148.49 324.53 139.94 331.37C147.89 324.5 165.1 306.2 162.63 302.87C158.96 297.93 132.48 323.72 132.48 323.72C132.48 323.72 158.9 295.48 154.67 289.67C150.64 284.13 128.44 318.42 128.44 318.42C125.37 324.9 124.41 339.29 124.76 357.73C138.93 350.87 180.36 330.26 177.91 324.81Z" fill="white" stroke="#3B65EE" stroke-width="2.5" stroke-miterlimit="10" stroke-linecap="round" stroke-linejoin="round"/>
<path d="M254.24 483.23C252.32 476.77 271.73 469.39 275.85 468.75C271.83 469.35 247.55 475.78 245.73 468.51C244.4 463.2 263.38 461.65 274.33 461.25C263.82 461.23 240.51 460.92 240.21 456.78C239.76 450.64 274.99 450.58 274.99 450.58C274.99 450.58 236.55 446.42 235.96 439.26C235.4 432.44 274.59 443.92 274.59 443.92C281.14 446.83 287 453.15 291.5 475.09C276.28 479.15 255.94 488.96 254.24 483.23Z" fill="white" stroke="#3B65EE" stroke-width="2.5" stroke-miterlimit="10" stroke-linecap="round" stroke-linejoin="round"/>
</svg>
