<svg width="616" height="688" viewBox="0 0 616 688" fill="none" xmlns="http://www.w3.org/2000/svg">
<path d="M118.74 675.521L54.6797 260.12L76.0297 256.561L136.54 675.521" stroke="#3B65EE" stroke-width="3.9" stroke-linecap="round" stroke-linejoin="round"/>
<path d="M107.049 675.52C105.772 671.525 103.887 667.75 101.459 664.33Z" fill="white"/>
<path d="M107.05 675.52C106.102 674.86 105.262 674.057 104.56 673.14C103.93 672.338 103.39 671.47 102.95 670.55C102.523 669.643 102.188 668.694 101.95 667.72C101.656 666.614 101.508 665.474 101.51 664.33C102.673 664.661 103.731 665.288 104.58 666.15C105.37 666.933 106.019 667.847 106.5 668.85C106.985 669.841 107.302 670.905 107.44 672C107.588 673.188 107.454 674.394 107.05 675.52V675.52Z" fill="#3B65EE"/>
<path d="M101.288 675.741C101.288 675.741 96.4684 663.801 87.8984 660.551Z" fill="white"/>
<path d="M101.288 675.74C99.9801 674.548 98.7508 673.271 97.6084 671.92C96.5084 670.64 95.4785 669.36 94.4585 668.1L91.3684 664.37C90.2984 663.15 89.1984 661.96 87.8984 660.55C89.8021 660.505 91.679 661.004 93.3084 661.99C94.8976 662.962 96.3081 664.2 97.4784 665.65C98.6198 667.073 99.5463 668.657 100.228 670.35C100.946 672.055 101.307 673.889 101.288 675.74V675.74Z" fill="#3B65EE"/>
<path d="M89.5098 669.67C89.8338 672.126 90.5072 674.524 91.5098 676.79Z" fill="white"/>
<path d="M89.5097 669.67C90.2102 670.048 90.8261 670.565 91.3197 671.19C91.6956 671.664 91.9743 672.208 92.1397 672.79C92.2965 673.366 92.3373 673.968 92.2597 674.56C92.15 675.339 91.9064 676.094 91.5397 676.79C90.7123 676.631 89.9564 676.214 89.3797 675.6C88.9174 675.097 88.5847 674.489 88.4105 673.829C88.2362 673.168 88.2257 672.475 88.3797 671.81C88.5469 671.004 88.9386 670.262 89.5097 669.67V669.67Z" fill="#3B65EE"/>
<path d="M89.5098 437.82C91.0198 445.51 92.3698 453.22 93.8098 460.92L97.8098 484.06C100.5 499.49 102.99 514.95 105.48 530.41C107.97 545.87 110.33 561.35 112.56 576.85L115.9 600.11C116.9 607.87 118.02 615.62 118.97 623.4C117.46 615.71 116.1 608 114.67 600.3L110.67 577.16C107.99 561.73 105.49 546.27 103.01 530.81C100.53 515.35 98.1598 499.87 95.9298 484.37L92.5898 461.11C91.5598 453.35 90.4498 445.6 89.5098 437.82Z" fill="#3B65EE"/>
<path d="M92.5586 416C93.6286 419.95 94.4586 423.94 95.1886 427.94C95.9186 431.94 96.5486 435.94 97.1186 439.94C97.6886 443.94 98.1186 448.01 98.4986 452.06C98.8786 456.11 99.1386 460.17 99.1686 464.27C98.0886 460.27 97.2686 456.33 96.5286 452.33C95.7886 448.33 95.1786 444.33 94.6086 440.33C94.0386 436.33 93.6086 432.27 93.2286 428.22C92.8486 424.17 92.5886 420.05 92.5586 416Z" fill="#3B65EE"/>
<path d="M143.908 675.261C143.908 675.261 144.418 663.571 150.008 656.961Z" fill="white"/>
<path d="M143.91 675.261C143.268 673.632 142.958 671.891 143 670.141C143.023 668.428 143.278 666.725 143.76 665.081C144.263 663.417 145.022 661.842 146.01 660.411C147.023 658.935 148.401 657.746 150.01 656.961C149.61 658.751 149.19 660.241 148.77 661.751C148.35 663.261 147.95 664.751 147.5 666.201C147.05 667.651 146.57 669.201 146.01 670.671C145.44 672.257 144.738 673.793 143.91 675.261V675.261Z" fill="#3B65EE"/>
<path d="M149.76 676.001C149.76 676.001 149.25 669.892 149.76 667.352Z" fill="white"/>
<path d="M149.76 676.001C149.101 675.494 148.565 674.845 148.192 674.102C147.818 673.36 147.615 672.543 147.6 671.711C147.579 670.937 147.722 670.167 148.02 669.451C148.364 668.586 148.973 667.851 149.76 667.352C150.311 668.017 150.76 668.762 151.09 669.562C151.343 670.223 151.478 670.923 151.49 671.631C151.502 672.356 151.387 673.077 151.15 673.761C150.85 674.598 150.377 675.362 149.76 676.001V676.001Z" fill="#3B65EE"/>
<path d="M157.129 675.26C157.129 675.26 157.639 672.21 161.709 669.67Z" fill="white"/>
<path d="M157.13 675.261C156.858 674.917 156.661 674.521 156.551 674.098C156.441 673.674 156.42 673.233 156.49 672.801C156.607 672.062 156.925 671.37 157.41 670.801C157.893 670.241 158.524 669.829 159.23 669.611C160.043 669.357 160.918 669.389 161.71 669.7C161.654 670.476 161.479 671.238 161.19 671.96C160.822 672.961 160.114 673.8 159.19 674.331C158.524 674.685 157.836 674.996 157.13 675.261Z" fill="#3B65EE"/>
<path d="M75.9989 256.141C76.2789 257.941 71.5289 260.141 65.3889 261.141C59.2489 262.141 54.7389 261.141 54.4589 259.361C54.1789 257.581 58.2389 255.571 64.3789 254.611C70.5189 253.651 75.6889 254.331 75.9989 256.141Z" fill="white" stroke="#3B65EE" stroke-width="3.7" stroke-linecap="round" stroke-linejoin="round"/>
<path d="M81.6532 300.558L61.5548 303.683C59.612 303.986 58.282 305.805 58.5842 307.748C58.8863 309.691 60.7062 311.021 62.649 310.719L82.7474 307.593C84.6902 307.291 86.0201 305.471 85.718 303.528C85.4158 301.585 83.596 300.255 81.6532 300.558Z" fill="white" stroke="#3B65EE" stroke-width="3.7" stroke-linecap="round" stroke-linejoin="round"/>
<path d="M77.077 276.161L56.9786 279.287C55.0359 279.589 53.7059 281.409 54.008 283.352C54.3102 285.294 56.13 286.624 58.0728 286.322L78.1712 283.197C80.114 282.894 81.444 281.074 81.1418 279.132C80.8397 277.189 79.0198 275.859 77.077 276.161Z" fill="white" stroke="#3B65EE" stroke-width="3.7" stroke-linecap="round" stroke-linejoin="round"/>
<path d="M80.2511 286.835L60.9487 293.249C59.0829 293.869 58.0729 295.884 58.6929 297.75C59.3128 299.615 61.3279 300.625 63.1938 300.005L82.4961 293.592C84.362 292.972 85.372 290.957 84.752 289.091C84.1321 287.225 82.1169 286.215 80.2511 286.835Z" fill="white" stroke="#3B65EE" stroke-width="3.7" stroke-linecap="round" stroke-linejoin="round"/>
<path d="M83.587 296.267L60.2907 293.962C58.3342 293.768 56.5911 295.198 56.3976 297.154C56.204 299.111 57.6332 300.854 59.5898 301.047L82.8861 303.352C84.8426 303.546 86.5857 302.116 86.7792 300.16C86.9728 298.203 85.5436 296.46 83.587 296.267Z" fill="white" stroke="#3B65EE" stroke-width="3.91" stroke-linecap="round" stroke-linejoin="round"/>
<path d="M549.72 675.521L613.78 260.12L592.43 256.561L531.92 675.521" stroke="#3B65EE" stroke-width="3.9" stroke-linecap="round" stroke-linejoin="round"/>
<path d="M561.408 675.52C562.691 671.525 564.58 667.752 567.008 664.33Z" fill="white"/>
<path d="M561.409 675.52C561.026 674.389 560.91 673.184 561.069 672C561.211 670.906 561.529 669.843 562.009 668.85C562.49 667.847 563.14 666.933 563.929 666.15C564.781 665.287 565.842 664.66 567.009 664.33C567.014 665.475 566.862 666.616 566.559 667.72C566.055 669.689 565.153 671.533 563.909 673.14C563.204 674.057 562.36 674.86 561.409 675.52V675.52Z" fill="#3B65EE"/>
<path d="M567.17 675.741C567.17 675.741 572 663.801 580.57 660.551Z" fill="white"/>
<path d="M567.168 675.74C567.154 673.89 567.515 672.057 568.228 670.35C568.911 668.657 569.837 667.074 570.978 665.65C572.151 664.202 573.561 662.965 575.148 661.99C576.781 661.003 578.661 660.503 580.568 660.55C579.258 661.96 578.158 663.15 577.088 664.37L573.998 668.1C572.998 669.36 571.998 670.64 570.838 671.92C569.699 673.271 568.473 674.547 567.168 675.74Z" fill="#3B65EE"/>
<path d="M579 669.67C578.681 672.128 578.008 674.526 577 676.79Z" fill="white"/>
<path d="M578.998 669.67C579.538 670.199 579.927 670.863 580.125 671.592C580.324 672.321 580.325 673.09 580.128 673.82C579.946 674.486 579.603 675.098 579.128 675.6C578.549 676.216 577.789 676.633 576.958 676.79C576.592 676.094 576.348 675.339 576.238 674.56C576.165 673.968 576.206 673.367 576.358 672.79C576.528 672.21 576.806 671.667 577.178 671.19C577.675 670.564 578.294 670.047 578.998 669.67V669.67Z" fill="#3B65EE"/>
<path d="M585.059 372.74C583.729 384.47 582.149 396.17 580.489 407.85C578.829 419.53 577.039 431.19 575.219 442.85C573.399 454.51 571.449 466.14 569.399 477.76C567.349 489.38 565.239 500.99 562.869 512.56C564.199 500.83 565.769 489.13 567.439 477.45C569.109 465.77 570.879 454.11 572.709 442.45C574.539 430.79 576.479 419.16 578.529 407.54C580.579 395.92 582.689 384.31 585.059 372.74Z" fill="#3B65EE"/>
<path d="M599.29 281.221C599.29 285.311 598.98 289.381 598.62 293.431C598.26 297.481 597.77 301.511 597.25 305.541C596.73 309.571 596.07 313.541 595.32 317.541C594.57 321.541 593.76 325.541 592.68 329.481C592.68 325.381 592.99 321.321 593.35 317.271C593.71 313.221 594.2 309.181 594.73 305.161C595.26 301.141 595.91 297.161 596.66 293.161C597.41 289.161 598.22 285.171 599.29 281.221Z" fill="#3B65EE"/>
<path d="M524.549 675.261C524.549 675.261 524.039 663.571 518.449 656.961Z" fill="white"/>
<path d="M524.549 675.261C523.725 673.791 523.023 672.256 522.449 670.671C521.889 669.171 521.399 667.671 520.969 666.201C520.539 664.731 520.089 663.261 519.699 661.751C519.309 660.241 518.849 658.751 518.449 656.961C520.06 657.743 521.439 658.932 522.449 660.411C523.437 661.842 524.196 663.417 524.699 665.081C525.181 666.725 525.436 668.428 525.459 670.141C525.501 671.891 525.191 673.632 524.549 675.261V675.261Z" fill="#3B65EE"/>
<path d="M518.699 676.001C518.699 676.001 519.209 669.892 518.699 667.352Z" fill="white"/>
<path d="M518.699 676.001C517.571 674.829 516.949 673.259 516.969 671.631C516.98 670.922 517.119 670.221 517.379 669.562C517.705 668.762 518.15 668.017 518.699 667.352C519.486 667.851 520.095 668.586 520.439 669.451C520.74 670.166 520.887 670.936 520.869 671.711C520.849 672.471 520.679 673.218 520.369 673.911C519.996 674.736 519.422 675.455 518.699 676.001Z" fill="#3B65EE"/>
<path d="M511.33 675.26C511.33 675.26 510.82 672.21 506.75 669.67Z" fill="white"/>
<path d="M511.33 675.261C510.642 674.971 509.974 674.637 509.33 674.261C508.87 674.002 508.46 673.663 508.12 673.261C507.764 672.849 507.483 672.379 507.289 671.871C507.006 671.147 506.83 670.386 506.77 669.611C507.562 669.299 508.437 669.268 509.25 669.521C509.956 669.739 510.586 670.151 511.07 670.711C511.554 671.28 511.872 671.972 511.99 672.711C512.07 673.158 512.053 673.618 511.939 674.058C511.825 674.498 511.617 674.908 511.33 675.261V675.261Z" fill="#3B65EE"/>
<path d="M592.488 256.141C592.208 257.941 596.958 260.141 603.098 261.141C609.238 262.141 613.438 261.681 613.718 259.871C613.998 258.061 610.248 255.571 604.118 254.611C597.988 253.651 592.768 254.331 592.488 256.141Z" fill="white" stroke="#3B65EE" stroke-width="3.7" stroke-linecap="round" stroke-linejoin="round"/>
<path d="M564.198 451.485L584.297 454.611C586.24 454.913 588.059 453.583 588.362 451.64C588.664 449.698 587.334 447.878 585.391 447.576L565.293 444.45C563.35 444.148 561.53 445.478 561.228 447.42C560.926 449.363 562.256 451.183 564.198 451.485Z" fill="white" stroke="#3B65EE" stroke-width="3.7" stroke-linecap="round" stroke-linejoin="round"/>
<path d="M564.616 437.483L583.918 443.897C585.784 444.517 587.799 443.507 588.419 441.641C589.039 439.775 588.029 437.76 586.164 437.14L566.861 430.727C564.995 430.107 562.98 431.117 562.36 432.982C561.74 434.848 562.75 436.863 564.616 437.483Z" fill="white" stroke="#3B65EE" stroke-width="3.7" stroke-linecap="round" stroke-linejoin="round"/>
<path d="M563.968 447.298L587.264 444.993C589.221 444.799 590.65 443.056 590.456 441.1C590.263 439.143 588.52 437.714 586.563 437.908L563.267 440.212C561.31 440.406 559.881 442.149 560.074 444.106C560.268 446.062 562.011 447.491 563.968 447.298Z" fill="white" stroke="#3B65EE" stroke-width="3.91" stroke-linecap="round" stroke-linejoin="round"/>
<path d="M195.77 673.231L205.13 672.951L214.49 672.741L233.21 672.331C245.69 672.111 258.166 671.931 270.64 671.791C283.12 671.621 295.64 671.581 308.08 671.481L345.51 671.381L382.95 671.481C395.42 671.581 407.9 671.611 420.38 671.781C432.86 671.951 445.38 672.111 457.81 672.321L476.53 672.741L485.89 672.951L495.25 673.231L485.89 673.511L476.53 673.721L457.81 674.141C445.343 674.354 432.866 674.534 420.38 674.681C407.9 674.851 395.38 674.881 382.95 674.981L345.51 675.081L308.08 674.981C295.6 674.881 283.08 674.841 270.64 674.671C258.2 674.501 245.69 674.351 233.21 674.131L214.49 673.721L205.13 673.511L195.77 673.231Z" fill="#3B65EE"/>
<path opacity="0.2" d="M485.589 677.551C485.589 679.941 424.469 687.21 349.069 687.21C273.669 687.21 212.549 679.941 212.549 677.551C212.549 675.161 273.669 673.23 349.069 673.23C424.469 673.23 485.589 675.161 485.589 677.551Z" fill="#3B65EE"/>
<path opacity="0.1" d="M460.17 398.16C453.115 396.893 445.853 397.489 439.1 399.89V399.89L447.28 478.41C447.444 479.522 448.012 480.534 448.875 481.254C449.738 481.973 450.837 482.349 451.96 482.31H503.45C504.574 482.352 505.675 481.977 506.541 481.257C507.406 480.538 507.975 479.524 508.14 478.41L515.9 403.84C492.86 414.53 472.34 400.19 460.17 398.16Z" fill="#3B65EE"/>
<path d="M518.36 380.25L508.14 478.41C507.976 479.523 507.406 480.537 506.541 481.257C505.675 481.977 504.575 482.352 503.45 482.31H452C450.877 482.349 449.779 481.973 448.915 481.253C448.052 480.534 447.484 479.522 447.32 478.41L437.09 380.25H518.36Z" stroke="#3B65EE" stroke-width="3.87" stroke-linecap="round" stroke-linejoin="round"/>
<path opacity="0.1" d="M453.299 392.82L461.439 481.29" stroke="#3B65EE" stroke-width="3.87" stroke-linecap="round" stroke-linejoin="round"/>
<path opacity="0.1" d="M500.589 392.82L492.449 481.29" stroke="#3B65EE" stroke-width="3.87" stroke-linecap="round" stroke-linejoin="round"/>
<path opacity="0.1" d="M477.709 393.33V481.29" stroke="#3B65EE" stroke-width="3.87" stroke-linecap="round" stroke-linejoin="round"/>
<path d="M439.1 399.89C445.853 397.489 453.115 396.893 460.17 398.16C472.37 400.16 492.98 414.61 516.1 403.75" stroke="#3B65EE" stroke-width="2.54" stroke-miterlimit="10"/>
<path opacity="0.5" d="M479.648 403.521C479.648 403.521 489.218 404.191 494.488 402.111C501.598 399.301 510.248 396.581 516.098 400.051L514.318 404.221C514.318 404.221 489.228 411.251 479.648 403.521Z" fill="#3B65EE"/>
<path d="M517.878 396.381C521.399 396.381 524.841 395.337 527.768 393.381C530.696 391.424 532.977 388.644 534.324 385.391C535.671 382.138 536.023 378.558 535.335 375.105C534.648 371.652 532.951 368.48 530.461 365.991C527.971 363.502 524.798 361.808 521.345 361.122C517.891 360.436 514.312 360.79 511.059 362.139C507.807 363.488 505.028 365.771 503.073 368.699C501.118 371.628 500.076 375.07 500.078 378.591H535.668" stroke="#3B65EE" stroke-width="2.95" stroke-linecap="round" stroke-linejoin="round"/>
<path d="M517.879 361.301V396.381" stroke="#3B65EE" stroke-width="2.95" stroke-linecap="round" stroke-linejoin="round"/>
<path d="M531.689 367.751L521.879 375.471L529.609 365.671C529.728 365.516 529.877 365.387 530.046 365.291C530.216 365.195 530.403 365.133 530.597 365.11C530.79 365.087 530.986 365.102 531.174 365.156C531.361 365.209 531.537 365.299 531.689 365.421C531.866 365.559 532.008 365.736 532.107 365.938C532.205 366.14 532.256 366.361 532.256 366.586C532.256 366.81 532.205 367.032 532.107 367.234C532.008 367.435 531.866 367.612 531.689 367.751V367.751Z" fill="#3B65EE"/>
<path d="M506.648 365.671L514.378 375.471L504.568 367.751C504.415 367.63 504.288 367.48 504.193 367.31C504.097 367.14 504.037 366.953 504.014 366.759C503.991 366.566 504.007 366.369 504.06 366.182C504.113 365.994 504.203 365.819 504.323 365.666C504.444 365.513 504.594 365.385 504.764 365.29C504.934 365.195 505.122 365.134 505.315 365.112C505.509 365.089 505.705 365.105 505.893 365.158C506.08 365.211 506.255 365.3 506.408 365.421C506.498 365.494 506.579 365.578 506.648 365.671V365.671Z" fill="#3B65EE"/>
<path d="M529.099 391.771L521.369 381.961L531.179 389.681C531.334 389.801 531.463 389.951 531.559 390.121C531.656 390.292 531.717 390.479 531.74 390.674C531.764 390.868 531.748 391.065 531.695 391.254C531.641 391.442 531.551 391.618 531.429 391.771C531.183 392.079 530.826 392.277 530.435 392.324C530.044 392.371 529.651 392.262 529.339 392.021C529.252 391.945 529.171 391.862 529.099 391.771V391.771Z" fill="#3B65EE"/>
<path d="M77.8086 268.51L154.589 218.17L164.759 142.92" stroke="#3B65EE" stroke-width="3.7" stroke-linecap="round" stroke-linejoin="round"/>
<path d="M79.8496 276.131L162.22 223.261L173.4 139.871" stroke="#3B65EE" stroke-width="3.7" stroke-linecap="round" stroke-linejoin="round"/>
<path d="M2.55814 204.44C2.55814 204.44 212.038 111.44 384.408 84.4404C384.408 84.4404 309.668 -33.5596 153.568 12.7504C-2.53186 59.0605 2.55814 204.44 2.55814 204.44Z" stroke="#3B65EE" stroke-width="3.7" stroke-linecap="round" stroke-linejoin="round"/>
<path d="M77.8081 173.63C77.8081 173.63 64.0881 69.1996 136.288 18.3496" stroke="#3B65EE" stroke-width="3.7" stroke-linecap="round" stroke-linejoin="round"/>
<path d="M164.76 9.71094C164.76 9.71094 256.4 13.631 306.67 100.141" stroke="#3B65EE" stroke-width="3.7" stroke-linecap="round" stroke-linejoin="round"/>
<path d="M179.648 136.96L143.908 15.8203" stroke="#3B65EE" stroke-width="3.7" stroke-linecap="round" stroke-linejoin="round"/>
<path opacity="0.2" d="M306.67 100.141C256.4 13.631 164.76 9.71094 164.76 9.71094C161.08 10.6376 157.353 11.661 153.58 12.781C150.29 13.781 147.07 14.7809 143.92 15.8409L179.65 137.001C219.65 123.721 263.18 110.681 306.65 100.181L306.67 100.141Z" fill="#3B65EE"/>
<path opacity="0.2" d="M76.289 173.631C76.289 173.631 62.629 69.6312 134.289 18.7012C-3.65097 70.3012 0.99902 204.441 0.99902 204.441C0.99902 204.441 30.409 191.381 76.249 173.631H76.289Z" fill="#3B65EE"/>
<path d="M83.4082 306.641C83.4082 306.641 157.638 603.571 338.648 596.001C519.658 588.431 564.398 449.511 564.398 449.511C564.398 449.511 268.478 564.421 83.4082 306.641Z" fill="white" stroke="#3B65EE" stroke-width="3.7" stroke-linecap="round" stroke-linejoin="round"/>
<path d="M91.5391 324.941C95.7791 333.241 100.309 341.371 105.049 349.361C109.789 357.351 114.709 365.231 119.819 372.981C124.929 380.731 130.229 388.352 135.769 395.792C137.169 397.642 138.509 399.531 139.929 401.361L144.169 406.881C147.059 410.501 149.929 414.141 152.939 417.671C155.949 421.201 158.939 424.731 161.939 428.231C164.939 431.731 168.149 435.111 171.359 438.441C174.569 441.771 177.829 445.081 181.079 448.381L186.079 453.171C187.729 454.801 189.459 456.341 191.169 457.891C204.907 470.405 219.691 481.72 235.359 491.711C218.852 482.927 203.388 472.31 189.259 460.062C185.649 457.062 182.259 453.871 178.799 450.721C175.339 447.571 172.029 444.261 168.799 440.881C162.239 434.201 156.019 427.202 150.019 420.042C138.075 405.653 127.148 390.45 117.319 374.542C112.386 366.602 107.746 358.501 103.399 350.241C99.1491 342.001 94.9991 333.591 91.5391 324.941Z" fill="#3B65EE"/>
<path d="M136.289 424.602C144.289 435.762 152.939 446.452 161.889 456.812C166.399 461.962 170.959 467.071 175.689 472.001C180.419 476.931 185.229 481.801 190.209 486.481C195.189 491.161 200.259 495.732 205.499 500.112C210.739 504.492 216.139 508.671 221.649 512.721L225.819 515.721L230.069 518.582C231.469 519.582 232.919 520.461 234.369 521.381C235.819 522.301 237.239 523.242 238.729 524.082C244.569 527.672 250.639 530.841 256.789 533.951C250.285 531.601 243.939 528.835 237.789 525.671C231.669 522.474 225.73 518.942 219.999 515.092C208.499 507.394 197.683 498.722 187.669 489.171C182.669 484.381 177.789 479.491 173.129 474.391C168.469 469.291 163.959 464.061 159.669 458.661C155.379 453.261 151.239 447.742 147.299 442.082C143.359 436.422 139.619 430.622 136.289 424.602Z" fill="#3B65EE"/>
<path d="M553.719 459.17C547.409 464.935 540.728 470.28 533.719 475.17C530.239 477.65 526.719 479.99 523.079 482.29C521.289 483.46 519.459 484.55 517.619 485.64C515.779 486.73 513.969 487.86 512.099 488.88C504.657 493.089 496.978 496.862 489.099 500.18C481.216 503.492 473.058 506.109 464.719 508C472.579 504.67 480.319 501.29 487.899 497.54C488.899 497.1 489.789 496.6 490.729 496.11L493.559 494.68L496.379 493.25C497.319 492.77 498.239 492.25 499.169 491.74L504.759 488.74L510.289 485.63C512.149 484.63 513.959 483.53 515.789 482.49L518.539 480.91L521.259 479.28C524.929 477.17 528.499 474.91 532.139 472.73C539.379 468.297 546.572 463.777 553.719 459.17Z" fill="#3B65EE"/>
<path d="M541.999 475.441C538.577 482.062 534.561 488.358 529.999 494.251C528.869 495.721 527.729 497.201 526.559 498.641L522.959 502.921C521.749 504.341 520.449 505.682 519.199 507.062C517.949 508.442 516.629 509.772 515.319 511.062C512.709 513.722 509.929 516.211 507.179 518.721L502.869 522.302L500.709 524.072L498.449 525.731C496.939 526.821 495.449 527.951 493.929 529.011L489.219 532.011C488.429 532.491 487.649 533.011 486.849 533.471L484.399 534.822C482.759 535.715 481.112 536.575 479.459 537.401C480.909 536.231 482.359 535.081 483.829 533.961L486.039 532.292C486.759 531.712 487.459 531.111 488.169 530.521L492.459 527.052L496.639 523.451C502.169 518.631 507.569 513.661 512.699 508.451C515.349 505.911 517.819 503.202 520.359 500.552L524.099 496.552C525.312 495.172 526.536 493.801 527.769 492.441C532.649 486.908 537.392 481.241 541.999 475.441Z" fill="#3B65EE"/>
<path opacity="0.2" d="M172.459 499.941C212.609 554.691 267.339 598.941 338.649 595.941C406.349 593.081 454.989 571.881 489.359 546.441C309.919 623.151 218.869 539.071 172.459 499.941Z" fill="#3B65EE"/>
<path opacity="0.2" d="M199.43 469C238.28 509 290.81 540.94 358.35 537.38C422.49 534.01 468.29 517.32 500.49 497.76C331.52 558.14 244 497.25 199.43 469Z" fill="#3B65EE"/>
<path d="M183.89 407.141L159.42 325.201L387.2 275.881L417.6 474.971" stroke="#3B65EE" stroke-width="5.08" stroke-linecap="round" stroke-linejoin="round"/>
<path d="M336.719 408.471C337.202 411.928 336.988 415.447 336.091 418.82C335.195 422.194 333.632 425.354 331.496 428.115C329.359 430.875 326.693 433.181 323.652 434.896C320.612 436.611 317.259 437.7 313.791 438.101C310.324 438.501 306.811 438.203 303.46 437.226C300.109 436.248 296.987 434.611 294.278 432.409C291.569 430.207 289.328 427.486 287.686 424.406C286.045 421.325 285.036 417.947 284.719 414.471" fill="#3B65EE"/>
<path opacity="0.2" d="M159.479 179.421L168.289 175.421L173.129 139.381L164.509 142.221L159.479 179.421Z" fill="#3B65EE"/>
<path opacity="0.2" d="M391.62 304.83L307 320.37C305.938 320.562 304.927 320.97 304.03 321.569C303.133 322.168 302.369 322.945 301.785 323.852C301.2 324.759 300.809 325.776 300.634 326.841C300.46 327.905 300.506 328.994 300.77 330.04C300.95 330.73 301.14 331.42 301.33 332.11L293.69 333.51C293.57 332.3 293.45 331.08 293.29 329.85C293.184 328.977 292.901 328.135 292.457 327.375C292.014 326.615 291.42 325.954 290.712 325.433C290.004 324.911 289.197 324.54 288.34 324.341C287.483 324.143 286.595 324.122 285.73 324.28L184.48 342.88C183.614 343.041 182.791 343.377 182.061 343.868C181.33 344.358 180.707 344.993 180.231 345.732C179.754 346.472 179.434 347.301 179.289 348.169C179.144 349.037 179.179 349.926 179.39 350.78C189.39 391.78 219.99 419.78 249.93 414.28C277.46 409.23 295.41 377.46 294.09 339.84L303.21 338.17C315.34 373.8 343.4 397.11 370.93 392.05C383.46 389.75 394 381.93 401.65 370.53" fill="#3B65EE"/>
<path d="M181.438 338.3C180.574 338.463 179.752 338.799 179.022 339.29C178.292 339.781 177.67 340.416 177.193 341.155C176.717 341.894 176.396 342.723 176.251 343.591C176.106 344.458 176.139 345.346 176.348 346.2C186.348 387.2 216.948 415.2 246.888 409.71C276.828 404.22 295.428 367.13 290.248 325.28C290.142 324.407 289.859 323.564 289.416 322.804C288.973 322.044 288.379 321.383 287.672 320.86C286.964 320.338 286.157 319.965 285.3 319.766C284.443 319.566 283.554 319.544 282.688 319.7L181.438 338.3Z" fill="#3B65EE"/>
<path d="M303.998 315.801C302.937 315.992 301.927 316.399 301.03 316.997C300.133 317.595 299.368 318.371 298.784 319.277C298.2 320.183 297.808 321.199 297.633 322.263C297.458 323.327 297.505 324.416 297.768 325.461C308.168 365.611 338.358 392.911 367.928 387.461C397.498 382.011 416.018 345.781 411.468 304.561C411.345 303.489 411.003 302.455 410.463 301.521C409.923 300.588 409.196 299.775 408.329 299.135C407.461 298.494 406.471 298.039 405.42 297.797C404.368 297.556 403.279 297.533 402.218 297.731L303.998 315.801Z" fill="#3B65EE"/>
<path d="M317.452 324.002L274.334 331.924L275.472 338.12L318.591 330.199L317.452 324.002Z" fill="#3B65EE"/>
<path opacity="0.6" d="M211.278 407.059L193.488 400.449L224.498 325.199L246.368 320.619L211.278 407.059Z" fill="white"/>
<path opacity="0.6" d="M235.168 411.71H223.188L262.557 315.85H274.547L235.168 411.71Z" fill="white"/>
<path opacity="0.3" d="M324.98 386.04H305L344.38 290.17H364.35L324.98 386.04Z" fill="white"/>
<path opacity="0.3" d="M350.08 388.32H338.1L375.51 297.74H387.2L350.08 388.32Z" fill="white"/>
<path d="M472.108 364.851C473.229 364.851 474.138 363.942 474.138 362.821C474.138 361.7 473.229 360.791 472.108 360.791C470.987 360.791 470.078 361.7 470.078 362.821C470.078 363.942 470.987 364.851 472.108 364.851Z" stroke="#3B65EE" stroke-width="1.53" stroke-miterlimit="10"/>
<path d="M487.998 362.321C489.755 362.321 491.178 360.897 491.178 359.141C491.178 357.385 489.755 355.961 487.998 355.961C486.242 355.961 484.818 357.385 484.818 359.141C484.818 360.897 486.242 362.321 487.998 362.321Z" stroke="#3B65EE" stroke-width="1.53" stroke-miterlimit="10"/>
<path d="M478.47 351.131C479.734 351.131 480.76 350.105 480.76 348.841C480.76 347.576 479.734 346.551 478.47 346.551C477.205 346.551 476.18 347.576 476.18 348.841C476.18 350.105 477.205 351.131 478.47 351.131Z" stroke="#3B65EE" stroke-width="1.53" stroke-miterlimit="10"/>
</svg>
