<svg width="75" height="149" viewBox="0 0 75 149" fill="none" xmlns="http://www.w3.org/2000/svg">
<g clip-path="url(#clip0_9_709)">
<path d="M38.4 147.41C56.4266 147.41 71.04 144.294 71.04 140.45C71.04 136.606 56.4266 133.49 38.4 133.49C20.3734 133.49 5.76001 136.606 5.76001 140.45C5.76001 144.294 20.3734 147.41 38.4 147.41Z" fill="white" stroke="#3B65EE" stroke-width="1.8" stroke-miterlimit="10"/>
<path opacity="0.2" d="M38.4 144.12C52.5716 144.12 64.06 141.671 64.06 138.65C64.06 135.629 52.5716 133.18 38.4 133.18C24.2284 133.18 12.74 135.629 12.74 138.65C12.74 141.671 24.2284 144.12 38.4 144.12Z" fill="#3B65EE"/>
<path d="M11.39 6.78001C11.39 6.78001 -3.02003 32.89 1.93997 54.04C6.89997 75.19 24.45 83.92 38.85 83.92C53.25 83.92 73.9 71.62 73.9 48.87C73.9 26.12 66.31 6.77001 66.31 6.77001C66.31 6.77001 64.06 1.37001 38.85 0.920007C13.64 0.470007 11.39 6.78001 11.39 6.78001Z" fill="white" stroke="#3B65EE" stroke-width="1.8" stroke-miterlimit="10"/>
<path opacity="0.2" d="M38.85 12.63C54.0158 12.63 66.31 10.0109 66.31 6.77999C66.31 3.54913 54.0158 0.929993 38.85 0.929993C23.6843 0.929993 11.39 3.54913 11.39 6.77999C11.39 10.0109 23.6843 12.63 38.85 12.63Z" fill="#3B65EE"/>
<path d="M22.73 80.33C22.73 80.33 32.55 84.66 33.45 99.06C34.35 113.47 34.8 133.72 32.1 138.22C32.1 138.22 37.28 142.72 42.79 138.22C42.79 138.22 37.5 114.6 39.3 99.18C41.1 83.76 53.47 80.33 53.47 80.33C53.47 80.33 41.27 87.71 22.73 80.33Z" fill="white" stroke="#3B65EE" stroke-width="1.8" stroke-linecap="round" stroke-linejoin="round"/>
<path d="M64.1499 9.05002C53.2799 14.71 32.8799 14.33 21.0099 11.67C18.9799 11.18 16.9599 10.59 15.0699 9.70002C23.1399 11.56 31.4399 11.69 39.6799 11.72C47.8699 11.52 56.29 11.53 64.16 9.05002H64.1499Z" fill="#3B65EE"/>
</g>
<defs>
<clipPath id="clip0_9_709">
<rect width="74.8" height="148.31" fill="white"/>
</clipPath>
</defs>
</svg>
