<svg width="389" height="389" viewBox="0 0 389 389" fill="none" xmlns="http://www.w3.org/2000/svg">
<circle cx="194.5" cy="194.5" r="193.5" transform="rotate(-179.801 194.5 194.5)" fill="#40B8A8"/>
<path d="M104.511 294.235C89.0033 294.182 76.4781 281.568 76.532 266.063L76.7368 207.187C76.7907 191.682 89.4032 179.156 104.911 179.21C120.414 179.264 132.939 191.877 132.885 207.382L132.68 266.258C132.627 281.764 120.014 294.289 104.511 294.235Z" fill="white"/>
<path d="M316.769 193.528C316.794 186.213 312.957 179.826 307.199 176.177C313.21 172.425 317.18 165.68 316.871 157.98C316.427 146.939 307.044 138.363 295.991 138.325C295.991 138.325 233.289 137.626 233.105 137.626C231.762 137.621 230.646 136.398 230.889 134.978C235.299 109.132 233.118 90.145 228.819 76.5949C226.019 67.763 217.6 61.8005 208.353 62.4022C208.218 62.4115 208.082 62.4208 207.947 62.4295C201.341 62.9349 196.53 68.9953 197.584 75.5455C198.591 81.853 191.682 119.682 190.9 123.439C187.162 141.423 177.876 157.954 164.121 170.569L158.185 176.007C155.986 178.024 155.938 183.983 155.938 183.983L155.613 277.513C155.603 280.401 157.933 282.753 160.824 282.763L272.065 283.15C283.324 283.189 292.86 274.332 293.094 263.072C293.206 257.313 290.94 252.074 287.202 248.278C297.172 246.911 304.899 238.471 304.935 228.123C304.954 222.497 302.699 217.392 299.031 213.684C309.001 212.316 316.733 203.876 316.769 193.528Z" fill="white"/>
</svg>
