<svg width="64" height="64" viewBox="0 0 64 64" fill="none" xmlns="http://www.w3.org/2000/svg">
<path d="M62.812 30.6515C58.3134 30.0771 53.5545 29.699 47.3863 29.4207C44.3183 29.2709 41.2646 29.1995 38.6604 29.1567C38.9815 28.7857 39.2954 28.4218 39.6058 28.0508C41.7355 25.5215 43.266 23.4452 44.5645 21.3226C44.8963 20.7804 44.8107 20.0918 44.3647 19.6423C43.9224 19.2 43.2445 19.1144 42.7094 19.4283L42.688 19.4426C40.5725 20.734 38.4998 22.2644 35.9598 24.4013C35.5888 24.7117 35.2214 25.0292 34.8539 25.3503C34.8111 22.7317 34.7362 19.6709 34.5899 16.6243C34.3117 10.4455 33.9335 5.6865 33.3627 1.19509C33.2735 0.503009 32.7063 0 32.0071 0C31.3079 0 30.7371 0.503009 30.6515 1.19509C30.0807 5.68294 29.7025 10.4419 29.4243 16.6172C29.2744 19.6602 29.1995 22.7246 29.1567 25.3467C28.7857 25.022 28.4183 24.7081 28.0508 24.3977C25.5144 22.2644 23.4417 20.734 21.3226 19.439C20.7804 19.1072 20.0918 19.1893 19.6423 19.6388C19.1928 20.0883 19.1108 20.7768 19.4426 21.319C20.734 23.4345 22.2644 25.5072 24.4013 28.0437C24.7081 28.4111 25.0256 28.7786 25.3503 29.1496C22.7353 29.1924 19.6744 29.2637 16.6243 29.4136C10.4383 29.6918 5.67937 30.07 1.19509 30.6408C0.503009 30.73 0 31.2972 0 31.9964C0 32.6956 0.503009 33.2664 1.19509 33.352C5.68294 33.9228 10.4419 34.301 16.6171 34.5792C19.6851 34.7291 22.7389 34.804 25.3431 34.8432C25.022 35.2142 24.7045 35.5781 24.3942 35.9456C22.2608 38.4784 20.734 40.5511 19.439 42.6773C19.1108 43.216 19.1928 43.9081 19.6388 44.354C20.0847 44.8 20.7768 44.8856 21.3155 44.5538C23.4381 43.2588 25.5144 41.732 28.0472 39.5986C28.4111 39.2918 28.7786 38.9779 29.146 38.6532C29.1888 41.2611 29.2602 44.3112 29.41 47.3685C29.6883 53.5366 30.0664 58.2956 30.6408 62.7977C30.73 63.4898 31.3007 63.9928 31.9964 63.9928C32.6956 63.9928 33.2628 63.4898 33.352 62.7977C33.9264 58.2956 34.3045 53.5402 34.5828 47.3721C34.7326 44.2862 34.804 41.2396 34.8468 38.6497C35.2142 38.9707 35.5817 39.2847 35.9491 39.5951C38.4856 41.732 40.5618 43.2588 42.6809 44.5502C43.2196 44.8784 43.9117 44.7964 44.3576 44.3505C44.8035 43.9045 44.8891 43.2124 44.5574 42.6738C43.2624 40.5476 41.732 38.4713 39.6022 35.942C39.2918 35.5745 38.9779 35.2107 38.6568 34.8432C41.2575 34.8004 44.3112 34.7291 47.3756 34.5792C53.5473 34.301 58.3063 33.9228 62.8048 33.3485C63.4969 33.2593 63.9999 32.6885 63.9999 31.9928C64.0071 31.3114 63.5041 30.7407 62.812 30.6515ZM62.5694 32.5529L62.5837 32.4281L62.5694 32.5529Z" fill="#E0C924"/>
</svg>
