<svg width="81" height="154" viewBox="0 0 81 154" fill="none" xmlns="http://www.w3.org/2000/svg">
<path d="M58.75 54.97C58.75 54.97 72.6 54.05 77.06 42.81C81.52 31.58 81.52 20.5 74.29 20.5C67.06 20.5 67.98 31.12 66.9 37.74C65.82 44.36 59.97 44.2 59.97 44.2L58.75 54.97Z" fill="#D1DAED"/>
<path d="M58.75 54.9688L59.98 44.1989C59.98 44.1989 63.45 44.2888 65.54 41.2988C65.82 45.2488 65.97 49.2488 66.02 53.1888C62.09 54.7488 58.75 54.9688 58.75 54.9688Z" fill="#B0C3EA"/>
<path d="M58.75 54.97C58.75 54.97 72.6 54.05 77.06 42.81C81.52 31.58 81.52 20.5 74.29 20.5C67.06 20.5 67.98 31.12 66.9 37.74C65.82 44.36 59.97 44.2 59.97 44.2L58.75 54.97Z" stroke="#3B65EE" stroke-width="1.5" stroke-miterlimit="10" stroke-linecap="round" stroke-linejoin="round"/>
<path d="M32.8882 78.5189C32.8882 78.5189 23.4982 77.5989 18.7282 69.7489C13.9582 61.8989 19.3482 40.8189 8.56821 41.5889C-2.2018 42.3589 -1.13179 64.6689 8.56821 77.1389C18.2682 89.6089 33.4982 87.4489 33.4982 87.4489L32.8882 78.5189Z" fill="#D1DAED"/>
<path d="M26.6763 87.2986C26.2063 83.6186 25.6862 79.7987 25.1562 75.8887C29.1263 78.1487 32.8863 78.5186 32.8863 78.5186L33.5063 87.4487C33.5063 87.4387 30.6763 87.8386 26.6763 87.2986Z" fill="#B0C3EA"/>
<path d="M32.8882 78.5189C32.8882 78.5189 23.4982 77.5989 18.7282 69.7489C13.9582 61.8989 19.3482 40.8189 8.56821 41.5889C-2.2018 42.3589 -1.13179 64.6689 8.56821 77.1389C18.2682 89.6089 33.4982 87.4489 33.4982 87.4489L32.8882 78.5189Z" stroke="#3B65EE" stroke-width="1.5" stroke-miterlimit="10" stroke-linecap="round" stroke-linejoin="round"/>
<path d="M55.6773 147.33C55.6773 147.33 59.5873 105.91 61.3873 82.6496C63.1873 59.3996 66.0073 -1.47037 39.6673 2.12963C13.3273 5.72963 29.9473 69.3896 32.0073 102.19C34.0773 134.98 34.9773 149.25 34.9773 149.25L55.6773 147.33Z" fill="white" stroke="#3B65EE" stroke-width="2" stroke-miterlimit="10" stroke-linecap="round" stroke-linejoin="round"/>
<path d="M39.508 2.58984C35.678 14.2798 35.398 26.6298 35.778 38.7698C36.018 44.8598 36.428 50.9498 36.978 57.0298C37.508 63.1098 38.118 69.1898 38.768 75.2798C39.998 87.4498 41.288 99.6498 41.918 111.9C42.568 124.14 42.668 136.47 41.408 148.66C41.628 136.41 40.988 124.21 39.968 112.03C39.438 105.94 38.868 99.8598 38.208 93.7798L36.278 75.5298C35.068 63.3498 33.888 51.1198 33.828 38.8098C33.788 32.6598 34.058 26.4999 34.848 20.3899C35.668 14.2899 37.088 8.22984 39.508 2.58984Z" fill="#B0C3EA"/>
<path d="M10.9698 42.1797C10.3198 44.1097 9.83984 46.0797 9.52984 48.0797C9.19984 50.0697 9.01979 52.0897 9.03979 54.0997C9.05979 58.1097 9.80982 62.1297 11.5698 65.7097C12.3998 67.5197 13.4898 69.2097 14.7798 70.7297C15.3898 71.5197 16.1198 72.2097 16.8098 72.9297C17.5798 73.5697 18.2798 74.2897 19.0898 74.8797C22.2498 77.3597 25.8798 79.2397 29.6498 80.7697C28.6798 80.4597 27.7098 80.1497 26.7498 79.7997C25.8098 79.3997 24.8498 79.0497 23.9198 78.6097C23.0198 78.1297 22.0698 77.7197 21.2098 77.1697L19.8898 76.3797L18.6298 75.4997C17.7598 74.9397 17.0098 74.2197 16.2198 73.5597C15.4998 72.8197 14.7298 72.1297 14.0798 71.3197C12.7298 69.7497 11.5598 68.0197 10.6698 66.1397C8.90979 62.3797 8.12984 58.1997 8.27984 54.0797C8.42984 49.9697 9.29978 45.8997 10.9698 42.1797Z" fill="#3B65EE"/>
<path d="M1.56998 50.6895C1.71998 54.8195 2.21994 58.9395 3.40995 62.8495C4.57995 66.7595 6.38999 70.4894 9.01999 73.5894C11.57 76.7594 14.9099 79.2094 18.5399 81.0594C19.4599 81.4894 20.38 81.9494 21.32 82.3694L24.23 83.3694C24.72 83.5294 25.19 83.7494 25.69 83.8594L27.19 84.2195C28.19 84.4595 29.19 84.7095 30.2 84.9695C26.13 84.3695 21.97 83.6194 18.2 81.7495C14.41 79.9895 10.95 77.4495 8.23996 74.2195C5.57996 70.9595 3.69994 67.0894 2.65995 63.0494L2.28 61.5294L2.00998 59.9894C1.79998 58.9694 1.72995 57.9294 1.59995 56.8994C1.48995 54.8294 1.42998 52.7495 1.56998 50.6895Z" fill="#3B65EE"/>
<path d="M73.6664 20.5293C72.4064 22.8293 71.4764 25.2793 71.0964 27.8193C70.7364 30.3693 70.9664 32.9393 70.9364 35.6093C70.8964 36.9393 70.7764 38.2993 70.3764 39.6093C69.9764 40.9093 69.4264 42.1493 68.6964 43.2793C67.9564 44.3993 67.0664 45.4493 65.9864 46.2493C64.8964 47.0193 63.6364 47.6293 62.3164 47.6993C63.5964 47.4093 64.7364 46.7293 65.6764 45.8693C66.6464 45.0393 67.4164 43.9993 68.0364 42.8893C68.6364 41.7693 69.1464 40.5793 69.4664 39.3693C69.8064 38.1493 69.9064 36.8793 69.9364 35.5993C69.9764 34.3093 69.9264 33.0093 69.9464 31.6793C69.9864 30.3593 70.0764 29.0193 70.3464 27.6993C70.6364 26.3893 71.0364 25.1093 71.6064 23.9093C71.8764 23.2993 72.2464 22.7493 72.5564 22.1693C72.9064 21.5993 73.2864 21.0593 73.6664 20.5293Z" fill="#3B65EE"/>
<path d="M77.4666 21.4902C78.0766 24.5102 78.1666 27.6302 77.9366 30.7202C77.7066 33.8102 77.0166 36.8903 75.8366 39.7903C74.6266 42.6603 72.8966 45.3802 70.5466 47.4702C68.2566 49.6102 65.4166 51.0802 62.4766 51.9402C63.8666 51.2802 65.2666 50.6502 66.5066 49.7702C67.1666 49.3902 67.7466 48.8903 68.3566 48.4503C68.9266 47.9503 69.5066 47.4703 70.0166 46.9203C71.0666 45.8403 72.0366 44.6802 72.8266 43.4102C73.6366 42.1502 74.3566 40.8203 74.9166 39.4203C76.0666 36.6403 76.7766 33.6702 77.1766 30.6602C77.3766 29.1502 77.4966 27.6302 77.5366 26.1003C77.5966 24.5503 77.5666 23.0202 77.4666 21.4902Z" fill="#3B65EE"/>
<path d="M39.6685 2.13867C37.8685 8.00867 36.8485 14.0687 36.4485 20.1587C35.9985 26.2487 36.0086 32.3687 36.2086 38.4787C36.6486 50.6987 37.8285 62.8987 38.9885 75.1087C40.1185 87.3187 41.2985 99.5487 41.8885 111.829C42.4985 124.099 42.5485 136.429 41.4185 148.659C41.7785 136.389 41.2086 124.139 40.3386 111.929C39.4386 99.7087 38.1785 87.5187 37.0085 75.3087C35.8885 63.0887 34.7885 50.8387 34.6585 38.5287C34.5985 32.3787 34.7985 26.2087 35.4785 20.0787C36.1985 13.9587 37.4385 7.85867 39.6685 2.13867Z" fill="#3B65EE"/>
<path d="M48.1167 148.03C49.2367 135.84 50.1967 123.64 51.0667 111.44C51.9067 99.2396 52.6267 87.0296 53.0067 74.8196C53.2167 68.7096 53.3567 62.6096 53.3367 56.4996C53.3467 50.3896 53.2467 44.2896 52.9267 38.1996C52.5967 32.1096 52.1067 26.0196 51.1567 20.0096C50.2067 14.0096 48.8467 7.97961 45.8867 2.59961C46.6367 3.92961 47.5467 5.18961 48.1067 6.62961C48.4167 7.32961 48.7367 8.02961 49.0367 8.73961L49.7867 10.9196C50.7867 13.8296 51.5067 16.8296 52.1267 19.8396C53.3167 25.8696 54.0167 31.9896 54.4867 38.1096C55.4067 50.3596 55.3767 62.6496 55.0067 74.8996C54.5867 87.1496 53.7767 99.3896 52.6167 111.58C51.4767 123.77 49.9967 135.93 48.1167 148.03Z" fill="#3B65EE"/>
<path d="M40.3489 32.1103C38.8789 32.0603 37.7289 30.8103 37.7789 29.3303C37.8289 27.8503 39.0689 26.6903 40.5389 26.7503C42.0089 26.8003 43.1589 28.0503 43.1089 29.5303C43.0589 31.0103 41.8189 32.1603 40.3489 32.1103Z" fill="#3B65EE"/>
<path d="M48.3489 32.3993C46.8789 32.3493 45.7289 31.0993 45.7789 29.6193C45.8289 28.1393 47.0689 26.9793 48.5489 27.0393C50.0189 27.0893 51.1689 28.3393 51.1189 29.8193C51.0589 31.2993 49.8189 32.4493 48.3489 32.3993Z" fill="#3B65EE"/>
<path d="M34.097 36.0795C33.947 36.0995 33.807 36.1395 33.677 36.2195C33.547 36.2995 33.437 36.3995 33.347 36.5195C33.257 36.6395 33.197 36.7795 33.167 36.9195C33.137 37.0695 33.137 37.2195 33.167 37.3595C33.797 40.0595 35.397 42.4395 37.677 44.0195C39.957 45.6095 42.737 46.2895 45.487 45.9395C48.237 45.5895 50.7671 44.2295 52.5671 42.1295C54.3771 40.0195 55.3371 37.3195 55.2671 34.5495C55.2571 34.3995 55.2171 34.2495 55.1471 34.1195C55.0771 33.9895 54.987 33.8695 54.867 33.7695C54.747 33.6695 54.617 33.5995 54.477 33.5595C54.337 33.5195 54.187 33.5095 54.037 33.5295L34.097 36.0795Z" fill="#3B65EE"/>
<path d="M37.7672 58.2598C37.8772 60.2198 37.7072 62.1397 37.4572 64.0497C37.4172 64.3197 37.1772 64.5098 36.8972 64.4798C36.7072 64.4598 36.5572 64.3298 36.4972 64.1598V64.1497C36.1472 63.1997 35.8172 62.2398 35.5472 61.2598C35.2672 60.2798 35.0172 59.2898 34.8672 58.2598C35.4172 59.1398 35.8672 60.0498 36.2872 60.9798C36.7072 61.9098 37.0872 62.8497 37.4272 63.7997L36.4672 63.8997C36.7572 61.9997 37.1172 60.1098 37.7672 58.2598Z" fill="#3B65EE"/>
<path d="M37.768 16.5806C37.478 18.3106 36.928 19.9305 36.298 21.5305C36.198 21.7805 35.908 21.9105 35.658 21.8105C35.508 21.7505 35.408 21.6305 35.368 21.4905V21.4806C35.048 20.3906 34.748 19.3006 34.498 18.1906C34.248 17.0806 34.028 15.9605 33.918 14.8105C34.448 15.8405 34.868 16.8906 35.258 17.9606C35.658 19.0306 35.998 20.1106 36.318 21.2006L35.378 21.1505C36.048 19.5705 36.768 18.0206 37.768 16.5806Z" fill="#3B65EE"/>
<path d="M55.63 76.2892C55.39 78.0992 54.88 79.8192 54.31 81.5092C54.22 81.7692 53.94 81.9092 53.68 81.8192C53.53 81.7692 53.43 81.6591 53.38 81.5191V81.5092C53.03 80.5592 52.7 79.5991 52.43 78.6191C52.15 77.6391 51.9 76.6491 51.75 75.6191C52.3 76.4991 52.75 77.4091 53.17 78.3391C53.59 79.2691 53.96 80.2091 54.31 81.1591H53.37C53.98 79.4891 54.67 77.8392 55.63 76.2892Z" fill="#3B65EE"/>
<path d="M52.3777 56.2305C53.3877 58.0405 54.1077 59.9505 54.7677 61.8805C54.8577 62.1405 54.7177 62.4205 54.4577 62.5105C54.2377 62.5805 54.0077 62.5005 53.8877 62.3205V62.3105C53.3577 61.5105 52.8377 60.7005 52.3677 59.8505C51.8977 59.0105 51.4477 58.1505 51.0977 57.2305C51.8077 57.9105 52.4377 58.6505 53.0277 59.4105C53.6277 60.1705 54.1777 60.9505 54.7177 61.7605L53.8277 62.1905C53.2077 60.2505 52.6477 58.2905 52.3777 56.2305Z" fill="#3B65EE"/>
<path d="M43.0675 109.709C42.8275 111.519 42.3175 113.239 41.7475 114.929C41.6575 115.189 41.3775 115.329 41.1175 115.239C40.9675 115.189 40.8675 115.079 40.8175 114.939V114.929C40.4675 113.979 40.1375 113.019 39.8675 112.039C39.5875 111.059 39.3375 110.069 39.1875 109.039C39.7375 109.919 40.1875 110.829 40.6075 111.759C41.0275 112.689 41.4075 113.629 41.7475 114.579H40.8075C41.4175 112.919 42.1075 111.269 43.0675 109.709Z" fill="#3B65EE"/>
<path d="M20.9073 79.9492C21.5873 80.7792 21.9873 81.7092 22.3173 82.6592C22.4073 82.9192 22.2673 83.1992 22.0173 83.2892C21.8473 83.3492 21.6673 83.3092 21.5373 83.1992L21.5273 83.1892C21.0173 82.7492 20.5173 82.2992 20.0573 81.7992C19.5873 81.3092 19.1473 80.7892 18.7773 80.1892C19.4273 80.4592 20.0173 80.8192 20.5773 81.1992C21.1373 81.5792 21.6673 81.9992 22.1773 82.4292L21.3873 82.9592C21.0773 82.0092 20.8573 81.0192 20.9073 79.9492Z" fill="#3B65EE"/>
<path d="M13.2684 67.54C13.6484 68.24 13.7484 68.94 13.7684 69.65C13.7784 69.92 13.5684 70.15 13.2984 70.15C13.1984 70.15 13.0984 70.12 13.0184 70.07L13.0084 70.06C12.3984 69.66 11.8084 69.24 11.2484 68.78C10.6784 68.32 10.1384 67.83 9.64844 67.25C10.3684 67.47 11.0384 67.78 11.6784 68.11C12.3284 68.44 12.9484 68.82 13.5484 69.22L12.7784 69.64C12.7984 68.94 12.8884 68.24 13.2684 67.54Z" fill="#3B65EE"/>
<path d="M10.7072 53.8594C10.4172 55.3794 9.86719 56.7794 9.24719 58.1394C9.13719 58.3894 8.84717 58.4994 8.59717 58.3894C8.49717 58.3394 8.41719 58.2694 8.36719 58.1694V58.1594C7.95719 57.3994 7.57718 56.6294 7.23718 55.8294C6.89718 55.0394 6.58719 54.2194 6.36719 53.3594C6.95719 54.0194 7.46719 54.7294 7.93719 55.4494C8.40719 56.1694 8.83719 56.9194 9.24719 57.6794L8.35718 57.6994C9.00718 56.3694 9.72721 55.0494 10.7072 53.8594Z" fill="#3B65EE"/>
<path d="M71.35 39.1104C70.81 40.3504 70.05 41.3905 69.23 42.4005C69.06 42.6105 68.75 42.6405 68.54 42.4705C68.44 42.3905 68.38 42.2805 68.36 42.1605V42.1505C68.26 41.4705 68.19 40.7805 68.18 40.0905C68.16 39.4005 68.17 38.7005 68.29 37.9805C68.6 38.6305 68.8 39.3005 68.97 39.9805C69.14 40.6505 69.26 41.3304 69.35 42.0204L68.48 41.7704C69.32 40.7804 70.22 39.8504 71.35 39.1104Z" fill="#3B65EE"/>
<path d="M76.48 31.99C76.85 33.35 76.93 34.7 76.93 36.05C76.93 36.32 76.71 36.55 76.44 36.55C76.24 36.55 76.07 36.43 75.99 36.26V36.25C75.58 35.37 75.2 34.48 74.86 33.56C74.52 32.65 74.21 31.72 74 30.75C74.6 31.54 75.11 32.38 75.58 33.23C76.06 34.08 76.48 34.95 76.89 35.83L75.94 36.03C75.97 34.69 76.08 33.34 76.48 31.99Z" fill="#3B65EE"/>
<path d="M29.6489 98.6895C30.7889 100.839 31.6389 103.079 32.4389 105.339C32.5289 105.599 32.3889 105.879 32.1389 105.969C31.9589 106.029 31.7789 105.989 31.6489 105.869C31.0889 105.379 30.5489 104.859 30.0389 104.309C29.5289 103.759 29.0389 103.179 28.6289 102.529C29.3289 102.859 29.9589 103.279 30.5689 103.719C31.1789 104.159 31.7489 104.629 32.3089 105.129L31.5089 105.659C30.7389 103.379 30.0589 101.079 29.6489 98.6895Z" fill="#3B65EE"/>
<path d="M63.1165 21.4902C62.7265 23.6402 62.0565 25.6803 61.3265 27.7003L60.5565 27.1302C61.0465 26.7602 61.5465 26.4102 62.0765 26.1102C62.6065 25.8002 63.1565 25.5203 63.7765 25.3203C63.4165 25.8603 62.9965 26.3102 62.5565 26.7402C62.1165 27.1702 61.6465 27.5603 61.1565 27.9203C60.9365 28.0803 60.6265 28.0403 60.4665 27.8203C60.3565 27.6803 60.3365 27.5002 60.3965 27.3402C61.1665 25.3402 62.0065 23.3602 63.1165 21.4902Z" fill="#3B65EE"/>
<path d="M23.1294 41.0996C24.2694 43.2496 25.1194 45.4896 25.9194 47.7496C26.0094 48.0096 25.8694 48.2896 25.6194 48.3796C25.4394 48.4396 25.2594 48.3996 25.1294 48.2796C24.5694 47.7896 24.0294 47.2696 23.5194 46.7196C23.0094 46.1696 22.5194 45.5896 22.1094 44.9396C22.8094 45.2696 23.4394 45.6896 24.0494 46.1296C24.6594 46.5696 25.2294 47.0396 25.7894 47.5396L24.9894 48.0696C24.2294 45.7896 23.5394 43.4896 23.1294 41.0996Z" fill="#3B65EE"/>
<path d="M46.8495 151.12C47.4995 149.9 47.3595 148.41 46.4795 147.35C44.8595 145.4 41.8495 142.65 37.7695 142.65C33.7095 142.65 31.5195 144.86 30.4695 146.45C29.8095 147.45 28.6695 148.03 27.4695 148.03H24.6595C22.8795 148.03 21.1895 148.82 20.0495 150.19C19.1395 151.28 19.9095 152.94 21.3295 152.94H43.8295C45.0995 152.94 46.2595 152.24 46.8495 151.12Z" fill="white" stroke="#3B65EE" stroke-width="2" stroke-miterlimit="10" stroke-linecap="round" stroke-linejoin="round"/>
<path d="M50.109 152.939H69.789C70.979 152.939 71.669 151.589 70.979 150.619L69.199 148.139C67.069 145.169 63.329 143.799 59.789 144.699L49.409 147.319C47.859 147.709 46.929 149.309 47.359 150.849C47.709 152.079 48.829 152.939 50.109 152.939Z" fill="white" stroke="#3B65EE" stroke-width="2" stroke-miterlimit="10" stroke-linecap="round" stroke-linejoin="round"/>
<path d="M12.8589 152.939H6.37891L8.65887 150.679C10.0589 149.289 12.3789 149.479 13.5289 151.089L13.6889 151.319C14.1789 151.989 13.6889 152.939 12.8589 152.939Z" stroke="#3B65EE" stroke-miterlimit="10" stroke-linecap="round" stroke-linejoin="round"/>
<path d="M37.8691 147.01C37.2691 147.55 36.6191 148 35.9591 148.42C35.2991 148.83 34.6391 149.26 33.8191 149.54C33.0291 149.82 32.1691 149.88 31.4091 149.88C30.6291 149.9 29.8391 149.87 29.0391 149.76C29.7891 149.47 30.5591 149.27 31.3191 149.11C32.1091 148.94 32.8191 148.86 33.4991 148.6C34.1791 148.39 34.8591 148.01 35.5991 147.73C36.3391 147.44 37.0791 147.18 37.8691 147.01Z" fill="#3B65EE"/>
</svg>
