<?xml version="1.0" encoding="UTF-8"?><svg id="Layer_1" xmlns="http://www.w3.org/2000/svg" viewBox="0 0 4500 1372"><defs><style>.cls-1{fill:#2b67f8;}</style></defs><path class="cls-1" d="m3107.66,1274.22c-3.24,0-5.9-2.58-5.99-5.83-.09-3.31,2.52-6.07,5.83-6.16,4.34-.12,8.75-.29,13.13-.49,8.77-.41,17.65-1.01,26.4-1.78,3.3-.29,6.21,2.15,6.5,5.45s-2.15,6.21-5.45,6.5c-8.92.78-17.96,1.39-26.9,1.81-4.45.21-8.94.38-13.35.5-.06,0-.11,0-.17,0Zm-69.93-1.88c-.17,0-.35,0-.52-.02-13.65-1.18-27.15-2.86-40.14-5-3.27-.54-5.48-3.63-4.94-6.9.54-3.27,3.63-5.48,6.9-4.94,12.68,2.09,25.88,3.74,39.22,4.89,3.3.29,5.75,3.19,5.46,6.49-.27,3.13-2.89,5.49-5.97,5.49Zm178.96-10.2c-2.81,0-5.32-1.99-5.88-4.85-.63-3.25,1.49-6.4,4.74-7.04,12.81-2.5,25.84-5.43,38.73-8.71,3.21-.81,6.48,1.12,7.3,4.33.82,3.21-1.12,6.48-4.33,7.29-13.11,3.34-26.36,6.32-39.39,8.86-.39.08-.77.11-1.16.11Zm-286.55-11.39c-.63,0-1.27-.1-1.9-.31-12.94-4.31-25.66-9.28-37.81-14.76-3.02-1.36-4.36-4.92-3-7.94,1.36-3.02,4.92-4.36,7.94-3,11.78,5.32,24.12,10.13,36.67,14.32,3.14,1.05,4.84,4.45,3.79,7.59-.84,2.51-3.18,4.1-5.69,4.1Zm392.49-17.77c-2.47,0-4.79-1.54-5.66-4-1.1-3.12.53-6.55,3.66-7.66,12.19-4.31,24.65-9.04,37.05-14.06,3.07-1.25,6.57.24,7.81,3.31,1.24,3.07-.24,6.57-3.31,7.81-12.56,5.09-25.2,9.89-37.55,14.25-.66.23-1.34.34-2,.34Zm-490.46-31.38c-1.19,0-2.4-.36-3.45-1.1-3.14-2.21-6.29-4.51-9.37-6.82-7.41-5.57-14.98-11.74-22.51-18.34-2.49-2.18-2.74-5.97-.56-8.47,2.18-2.49,5.97-2.74,8.47-.56,7.31,6.4,14.65,12.38,21.82,17.77,2.98,2.24,6.02,4.46,9.06,6.6,2.71,1.91,3.36,5.65,1.45,8.36-1.17,1.66-3.02,2.55-4.91,2.55Zm591.62-11.32c-2.22,0-4.36-1.24-5.4-3.37-1.45-2.98-.21-6.57,2.77-8.02,11.59-5.64,23.53-11.7,35.49-18.01,2.93-1.55,6.56-.42,8.11,2.51,1.55,2.93.42,6.56-2.51,8.11-12.07,6.37-24.13,12.49-35.83,18.19-.85.41-1.74.61-2.62.61Zm96.77-52.21c-2.06,0-4.06-1.06-5.18-2.96-1.68-2.86-.72-6.54,2.14-8.21,10.99-6.45,22.5-13.36,34.2-20.53,2.82-1.73,6.52-.85,8.25,1.98,1.73,2.83.85,6.52-1.98,8.25-11.76,7.21-23.34,14.16-34.4,20.65-.95.56-2,.83-3.03.83Zm-769.44-10.51c-1.62,0-3.23-.65-4.41-1.93-7.45-8.07-14.93-16.36-22.17-24.37l-4.77-5.29c-2.22-2.46-2.03-6.25.43-8.47,2.46-2.22,6.25-2.03,8.47.43l4.78,5.29c7.21,7.99,14.66,16.25,22.07,24.27,2.25,2.43,2.1,6.23-.33,8.48-1.15,1.07-2.61,1.59-4.07,1.59Zm862.94-47.46c-1.97,0-3.9-.97-5.04-2.74-1.8-2.78-1-6.5,1.78-8.3,10.36-6.7,21.3-13.85,33.45-21.85,2.77-1.82,6.49-1.06,8.31,1.71,1.82,2.77,1.06,6.49-1.71,8.31-12.18,8.02-23.15,15.19-33.54,21.91-1.01.65-2.14.96-3.25.96Zm-937.95-32.98c-1.51,0-3.02-.56-4.18-1.7-10.19-9.91-19.8-18.53-29.38-26.35-2.57-2.1-2.95-5.88-.85-8.44,2.1-2.57,5.88-2.95,8.44-.85,9.84,8.04,19.71,16.89,30.15,27.04,2.38,2.31,2.43,6.11.12,8.48-1.18,1.21-2.74,1.82-4.3,1.82Zm1029.72-27.59c-1.94,0-3.84-.94-5-2.67-1.84-2.76-1.09-6.48,1.67-8.32,11.06-7.37,22.14-14.76,33.25-22.13,2.76-1.83,6.49-1.08,8.32,1.68,1.83,2.76,1.08,6.49-1.68,8.32-11.11,7.37-22.18,14.75-33.23,22.12-1.02.68-2.18,1.01-3.32,1.01Zm-1117.72-37.69c-.94,0-1.89-.22-2.78-.69-11.46-6-23.5-11.45-35.78-16.19-3.09-1.19-4.63-4.66-3.44-7.76,1.19-3.09,4.66-4.63,7.76-3.44,12.72,4.9,25.18,10.54,37.04,16.75,2.94,1.54,4.07,5.17,2.53,8.1-1.07,2.05-3.16,3.22-5.32,3.22Zm1209.46-22.84c-1.97,0-3.9-.97-5.04-2.74-1.8-2.78-1-6.5,1.78-8.3,11.84-7.66,22.87-14.71,33.74-21.55,2.8-1.77,6.51-.93,8.27,1.88,1.77,2.8.93,6.51-1.88,8.27-10.82,6.82-21.82,13.85-33.62,21.48-1.01.65-2.14.96-3.25.96Zm-1313.08-12.72c-.38,0-.77-.04-1.16-.11-12.38-2.42-25.52-4.44-39.06-6.01-3.29-.38-5.65-3.36-5.27-6.65.38-3.29,3.36-5.65,6.65-5.27,13.85,1.61,27.3,3.68,39.98,6.16,3.25.64,5.37,3.79,4.74,7.04-.56,2.86-3.07,4.85-5.88,4.85Zm-562.25-2.04c-9.13,0-18.24-.03-27.07-.09-3.31-.02-5.98-2.73-5.96-6.04.02-3.31,2.68-5.97,6.04-5.96,12.98.09,26.52.11,39.94.07h.02c3.31,0,5.99,2.67,6,5.98,0,3.31-2.67,6.01-5.98,6.02-4.33.01-8.66.02-12.98.02Zm82.96-.71c-3.27,0-5.94-2.62-6-5.9-.05-3.31,2.59-6.04,5.9-6.1,12.73-.2,26.17-.46,39.96-.75,3.31-.08,6.06,2.56,6.13,5.87.07,3.31-2.56,6.06-5.87,6.13-13.81.3-27.28.55-40.03.76-.03,0-.07,0-.1,0Zm-179.98-.53c-.05,0-.11,0-.17,0-13.5-.36-26.98-.82-40.06-1.35-3.31-.13-5.89-2.93-5.75-6.24.14-3.31,2.93-5.89,6.24-5.75,13.02.53,26.45.99,39.89,1.35,3.31.09,5.93,2.85,5.84,6.16-.09,3.26-2.76,5.84-5.99,5.84Zm289.95-1.96c-3.24,0-5.91-2.58-5.99-5.84-.09-3.31,2.52-6.07,5.83-6.16,13.33-.36,26.65-.74,39.98-1.12,3.33-.07,6.07,2.51,6.17,5.83.1,3.31-2.51,6.07-5.82,6.17-13.33.38-26.66.76-39.99,1.13-.06,0-.11,0-.17,0Zm109.96-3.1c-3.24,0-5.91-2.58-6-5.84-.09-3.31,2.52-6.07,5.83-6.16,13.34-.36,26.67-.71,40-1.04,3.3-.08,6.06,2.54,6.14,5.85.08,3.31-2.54,6.06-5.85,6.14-13.32.33-26.65.67-39.97,1.04-.06,0-.11,0-.17,0Zm-509.78-.08c-.14,0-.28,0-.41-.01-2.47-.17-4.94-.34-7.41-.52-7.27-.52-14.68-1.04-22.21-1.57l-10.32-.72c-3.31-.23-5.8-3.1-5.56-6.41.23-3.3,3.1-5.77,6.41-5.56l10.31.72c7.53.53,14.95,1.05,22.23,1.57,2.46.18,4.91.35,7.36.52,3.31.23,5.8,3.09,5.58,6.39-.22,3.17-2.85,5.59-5.98,5.59Zm659.77-2.16s-.09,0-.13,0c-7.99-.17-16.46-.26-25.2-.26-4.71,0-9.63.03-14.63.08h-.06c-3.29,0-5.97-2.65-6-5.94-.03-3.31,2.63-6.03,5.94-6.06,5.04-.05,10-.08,14.75-.08,8.82,0,17.38.09,25.46.26,3.31.07,5.94,2.82,5.87,6.13-.07,3.27-2.74,5.87-6,5.87Zm-769.52-6.01c-.17,0-.35,0-.53-.02-14.22-1.24-27.29-2.5-39.95-3.85-3.29-.35-5.68-3.31-5.33-6.6s3.3-5.69,6.6-5.33c12.58,1.34,25.57,2.59,39.72,3.83,3.3.29,5.74,3.2,5.46,6.5-.27,3.12-2.89,5.48-5.97,5.48Zm-109.27-12.87c-.31,0-.62-.02-.94-.07-13.65-2.15-26.99-4.51-39.64-7-3.25-.64-5.37-3.8-4.72-7.05s3.8-5.37,7.05-4.72c12.5,2.47,25.68,4.8,39.18,6.92,3.27.51,5.51,3.59,4.99,6.86-.47,2.96-3.02,5.07-5.92,5.07Zm2394.62-15.84c-2.05,0-4.05-1.05-5.17-2.95-1.69-2.85-.74-6.53,2.11-8.22,11.77-6.96,23.45-13.7,34.72-20.04,2.89-1.62,6.55-.6,8.17,2.29,1.63,2.89.6,6.55-2.29,8.17-11.2,6.3-22.8,13-34.5,19.92-.96.57-2.01.84-3.05.84Zm-2502.06-7.59c-.56,0-1.13-.08-1.69-.24-13.28-3.9-26.2-8.15-38.38-12.63-3.11-1.15-4.7-4.59-3.56-7.7,1.15-3.11,4.59-4.7,7.7-3.56,11.93,4.39,24.58,8.56,37.61,12.38,3.18.93,5,4.27,4.07,7.45-.77,2.62-3.16,4.31-5.76,4.31Zm-101.68-41.4c-.99,0-1.99-.24-2.91-.76-12.12-6.74-23.69-14.04-34.38-21.68-2.7-1.93-3.32-5.67-1.39-8.37,1.93-2.7,5.67-3.32,8.37-1.39,10.32,7.38,21.5,14.43,33.23,20.95,2.9,1.61,3.94,5.26,2.33,8.16-1.1,1.97-3.14,3.08-5.25,3.08Zm2700.03-3.97c-2.19,0-4.3-1.21-5.36-3.3-1.49-2.96-.31-6.57,2.65-8.06,12.08-6.1,24.21-12,36.05-17.54,3-1.4,6.57-.11,7.98,2.89,1.4,3,.11,6.57-2.89,7.98-11.73,5.49-23.75,11.33-35.73,17.38-.87.44-1.79.64-2.7.64Zm100.03-45.16c-2.39,0-4.65-1.44-5.58-3.79-1.22-3.08.29-6.57,3.37-7.79,12.54-4.96,25.21-9.69,37.66-14.07,3.13-1.1,6.55.54,7.65,3.67,1.1,3.13-.54,6.55-3.67,7.65-12.3,4.32-24.83,9-37.22,13.91-.72.29-1.47.42-2.21.42Zm-2885.17-19.43c-1.77,0-3.51-.78-4.7-2.26-8.66-10.88-16.11-22.56-22.15-34.72-1.47-2.97-.26-6.57,2.7-8.04,2.97-1.47,6.57-.26,8.04,2.71,5.66,11.4,12.66,22.36,20.79,32.58,2.06,2.59,1.63,6.37-.96,8.43-1.1.88-2.42,1.3-3.73,1.3Zm2989.35-15.32c-2.64,0-5.06-1.76-5.79-4.44-.87-3.2,1.03-6.49,4.22-7.36,12.97-3.51,26.11-6.75,39.05-9.64,3.23-.72,6.44,1.32,7.16,4.55.72,3.23-1.32,6.44-4.55,7.16-12.77,2.85-25.73,6.05-38.53,9.51-.52.14-1.05.21-1.57.21Zm107.54-22.02c-2.95,0-5.52-2.17-5.94-5.17-.46-3.28,1.83-6.31,5.12-6.77,13.23-1.84,26.67-3.38,39.96-4.59,3.31-.28,6.22,2.13,6.52,5.43.3,3.3-2.13,6.22-5.43,6.52-13.1,1.19-26.36,2.72-39.4,4.53-.28.04-.56.06-.83.06Zm149.5-7.43c-.08,0-.15,0-.23,0-13.24-.5-26.6-.69-39.71-.58-3.28.02-6.02-2.64-6.05-5.95-.03-3.31,2.63-6.02,5.95-6.05,13.29-.11,26.84.09,40.27.59,3.31.12,5.9,2.91,5.77,6.22-.12,3.23-2.78,5.77-5.99,5.77Zm-3285.69-56.06c-3.18,0-5.83-2.5-5.99-5.71-.12-2.6-.19-5.24-.19-7.83,0-11.25,1.18-22.51,3.5-33.46.69-3.24,3.87-5.31,7.11-4.62,3.24.69,5.31,3.87,4.62,7.11-2.15,10.13-3.24,20.55-3.24,30.97,0,2.41.06,4.85.17,7.26.16,3.31-2.4,6.12-5.71,6.28-.1,0-.19,0-.29,0Zm32.09-102.92c-1.23,0-2.46-.37-3.53-1.15-2.68-1.95-3.26-5.71-1.31-8.38,8.02-10.99,17.03-21.4,26.78-30.95,2.37-2.32,6.17-2.28,8.48.09,2.32,2.37,2.28,6.17-.09,8.48-9.28,9.08-17.85,18.99-25.48,29.45-1.17,1.61-3,2.46-4.85,2.46Zm82.11-71.86c-2.09,0-4.12-1.09-5.22-3.04-1.63-2.88-.62-6.54,2.26-8.18,11.28-6.4,23.55-12.43,36.48-17.94,3.05-1.3,6.57.12,7.87,3.17,1.3,3.05-.12,6.57-3.17,7.87-12.51,5.33-24.38,11.16-35.26,17.34-.93.53-1.95.78-2.96.78Zm102.08-40.22c-2.64,0-5.05-1.75-5.78-4.41-.88-3.2,1-6.5,4.2-7.37,12.04-3.3,24.83-6.48,39.09-9.7,3.23-.74,6.45,1.29,7.18,4.53.73,3.23-1.3,6.44-4.53,7.18-14.08,3.19-26.7,6.32-38.57,9.57-.53.15-1.07.21-1.59.21Zm107.57-22.71c-2.97,0-5.55-2.21-5.94-5.23-.42-3.29,1.9-6.29,5.18-6.72,12.87-1.66,26.03-2.87,40.24-3.7,3.3-.2,6.15,2.33,6.34,5.64.19,3.31-2.33,6.15-5.64,6.34-13.93.81-26.81,1.99-39.4,3.62-.26.03-.52.05-.78.05Zm240.78-1.45c-6.7,0-13.6-.06-21.12-.18-3.31-.05-5.96-2.78-5.9-6.1.05-3.31,2.76-5.97,6.1-5.9,7.45.12,14.29.18,20.93.18s12.84-.06,18.86-.17c3.3-.03,6.05,2.57,6.11,5.88.06,3.31-2.57,6.05-5.88,6.11-6.09.12-12.52.18-19.09.18Zm-90.99-2.24c-.07,0-.13,0-.2,0-11.78-.39-25.73-.82-39.89-1.06-3.31-.06-5.95-2.79-5.9-6.1.05-3.28,2.73-5.9,6-5.9.03,0,.07,0,.1,0,14.25.24,28.26.67,40.08,1.06,3.31.11,5.91,2.88,5.8,6.2-.11,3.25-2.77,5.8-5.99,5.8Zm179.76-2.72c-2.97,0-5.56-2.21-5.94-5.24-.42-3.29,1.9-6.29,5.19-6.71,13.43-1.72,26.51-3.96,38.9-6.65,3.24-.71,6.43,1.35,7.14,4.59.7,3.24-1.35,6.43-4.59,7.14-12.72,2.77-26.16,5.07-39.93,6.83-.26.03-.52.05-.77.05Zm104.45-31.76c-2.01,0-3.98-1.01-5.11-2.85-1.74-2.82-.87-6.52,1.95-8.26,11.41-7.05,21.25-15.25,29.24-24.37,2.18-2.49,5.98-2.74,8.47-.55,2.49,2.18,2.74,5.98.56,8.47-8.78,10.02-19.54,18.99-31.96,26.67-.98.61-2.07.9-3.15.9Zm58.35-88.63c-.24,0-.49-.01-.74-.05-3.29-.4-5.63-3.4-5.22-6.69.61-4.93.91-9.97.91-14.97,0-7.72-.73-15.46-2.16-23-.62-3.26,1.52-6.4,4.78-7.01,3.25-.62,6.4,1.52,7.01,4.78,1.57,8.28,2.37,16.77,2.37,25.24,0,5.49-.34,11.02-1,16.43-.37,3.04-2.96,5.27-5.95,5.27Zm-1335.54-1.69h-.93c-3.31,0-6-2.69-6-6s2.69-6,6-6h.93c6.08,0,12.1-.01,18.05-.03l7.99-.02c4.29,0,8.65-.05,12.97-.11,3.32-.1,6.04,2.59,6.09,5.91.05,3.31-2.59,6.04-5.91,6.09-4.37.07-8.79.11-13.13.11l-7.98.02c-5.95.01-11.98.03-18.08.03Zm-70.93-1.45c-.1,0-.21,0-.31,0-14.42-.74-27.58-1.77-40.23-3.15-3.29-.36-5.67-3.32-5.31-6.62.36-3.29,3.32-5.67,6.61-5.31,12.42,1.35,25.36,2.37,39.55,3.1,3.31.17,5.85,2.99,5.68,6.3-.17,3.2-2.82,5.69-5.99,5.69Zm179.92-2.23c-3.09,0-5.71-2.36-5.97-5.5-.28-3.3,2.17-6.2,5.47-6.48,13.02-1.1,26.33-2.47,39.58-4.08,3.29-.4,6.28,1.94,6.68,5.23.4,3.29-1.94,6.28-5.23,6.68-13.39,1.62-26.85,3.01-40.01,4.12-.17.01-.34.02-.51.02Zm-288.6-13.49c-.53,0-1.06-.07-1.59-.22-13.62-3.74-26.58-8.21-38.53-13.28-3.05-1.29-4.47-4.82-3.18-7.87,1.3-3.05,4.82-4.47,7.87-3.18,11.46,4.87,23.92,9.16,37.02,12.76,3.2.88,5.07,4.18,4.2,7.38-.73,2.66-3.15,4.41-5.78,4.41Zm397.59-1.05c-2.85,0-5.38-2.04-5.9-4.94-.59-3.26,1.58-6.38,4.85-6.96,12.74-2.29,25.89-4.84,39.1-7.59,3.24-.67,6.42,1.41,7.1,4.65s-1.41,6.42-4.65,7.1c-13.31,2.77-26.58,5.35-39.43,7.65-.36.06-.71.09-1.07.09Zm107.45-23.37c-2.68,0-5.13-1.82-5.81-4.54-.81-3.21,1.14-6.47,4.35-7.28,12.4-3.12,25.38-6.52,38.58-10.1,3.2-.87,6.49,1.02,7.36,4.22.87,3.2-1.02,6.5-4.22,7.36-13.27,3.6-26.32,7.02-38.79,10.16-.49.12-.98.18-1.47.18Zm-600.29-21.64c-1.07,0-2.14-.28-3.12-.88-9.97-6.08-21.68-12.22-34.8-18.25-3.01-1.38-4.33-4.95-2.95-7.96,1.38-3.01,4.95-4.33,7.96-2.95,13.55,6.22,25.67,12.59,36.04,18.91,2.83,1.73,3.72,5.42,2,8.25-1.13,1.85-3.11,2.88-5.13,2.88Zm706.27-7.69c-2.59,0-4.97-1.69-5.75-4.29-.95-3.18.86-6.52,4.04-7.46,12.05-3.58,24.55-7.37,38.23-11.57,3.17-.97,6.52.81,7.5,3.97.97,3.17-.8,6.52-3.97,7.5-13.71,4.21-26.25,8.01-38.33,11.61-.57.17-1.15.25-1.71.25Zm874.06-30.2c-1.79,0-3.56-.8-4.74-2.32-7.57-9.75-16.67-18.99-27.04-27.45-2.57-2.09-2.95-5.87-.86-8.44,2.09-2.57,5.87-2.95,8.44-.86,11.07,9.03,20.8,18.92,28.93,29.38,2.03,2.62,1.56,6.39-1.06,8.42-1.09.85-2.39,1.26-3.68,1.26Zm-769.14-2.8c-2.52,0-4.86-1.59-5.69-4.11-1.04-3.15.66-6.54,3.81-7.58,12.84-4.26,25.77-8.59,37.91-12.67,3.14-1.05,6.54.64,7.6,3.78,1.05,3.14-.64,6.54-3.78,7.6-12.15,4.08-25.08,8.42-37.95,12.68-.63.21-1.26.31-1.89.31Zm-911.95-2.96c-.61,0-1.22-.09-1.83-.29-12.47-4-25.29-7.7-38.11-11.01-3.21-.83-5.14-4.1-4.31-7.31.83-3.21,4.1-5.14,7.31-4.31,13.04,3.37,26.08,7.14,38.77,11.2,3.16,1.01,4.89,4.39,3.88,7.54-.82,2.55-3.17,4.17-5.71,4.17ZM11.75,186.5c-2.69,0-5.14-1.83-5.82-4.56-.8-3.22,1.16-6.47,4.38-7.27,12.42-3.08,25.98-5.32,40.3-6.68,3.3-.31,6.23,2.11,6.54,5.41.31,3.3-2.11,6.23-5.41,6.54-13.73,1.3-26.7,3.44-38.55,6.38-.48.12-.97.18-1.45.18Zm149.11-2.13c-.29,0-.59-.02-.89-.07-13.37-2-26.6-3.51-39.32-4.49-3.3-.25-5.78-3.14-5.52-6.44s3.14-5.76,6.44-5.52c13,1,26.52,2.55,40.17,4.58,3.28.49,5.54,3.54,5.05,6.82-.44,2.98-3.01,5.12-5.93,5.12Zm1123.32-6.69c-2.53,0-4.87-1.61-5.7-4.14-1.03-3.15.69-6.54,3.84-7.57,13.78-4.51,26.26-8.51,38.16-12.25,3.16-.99,6.53.77,7.52,3.93.99,3.16-.77,6.53-3.93,7.52-11.85,3.72-24.29,7.71-38.02,12.2-.62.2-1.25.3-1.87.3Zm576.81-26.46c-.8,0-1.61-.16-2.39-.5-11.45-4.99-23.87-9.61-36.9-13.74-3.16-1-4.91-4.37-3.91-7.53,1-3.16,4.37-4.91,7.53-3.91,13.43,4.25,26.24,9.02,38.07,14.18,3.04,1.32,4.43,4.86,3.1,7.9-.98,2.26-3.19,3.6-5.5,3.6Zm-471.59-5.63c-2.63,0-5.05-1.75-5.78-4.41-.88-3.19,1-6.5,4.19-7.38,13.33-3.67,26.42-7.08,38.89-10.13,3.22-.79,6.47,1.18,7.25,4.4.79,3.22-1.18,6.47-4.4,7.25-12.36,3.03-25.33,6.4-38.56,10.04-.53.15-1.07.22-1.6.22Zm107.2-24.59c-2.86,0-5.39-2.05-5.9-4.96-.57-3.26,1.61-6.37,4.87-6.95,13.52-2.37,26.93-4.41,39.85-6.04,3.29-.41,6.29,1.91,6.71,5.2.42,3.29-1.91,6.29-5.2,6.71-12.73,1.61-25.95,3.61-39.28,5.95-.35.06-.7.09-1.04.09Zm258.85-.12c-.35,0-.7-.03-1.05-.09-12.61-2.23-25.82-4.16-39.27-5.74-3.29-.39-5.65-3.37-5.26-6.66.39-3.29,3.37-5.64,6.66-5.26,13.68,1.61,27.12,3.58,39.95,5.84,3.26.58,5.44,3.69,4.87,6.95-.51,2.91-3.05,4.96-5.9,4.96Zm-109.49-10.93c-.06,0-.13,0-.19,0-8.32-.27-16.73-.41-25-.43h-1.36s-.05,0-.07,0c-4.37,0-8.84.05-13.27.15-3.34.08-6.06-2.55-6.14-5.86-.08-3.31,2.55-6.06,5.86-6.14,4.55-.1,9.15-.19,13.61-.15h1.39c8.38.02,16.91.17,25.35.44,3.31.11,5.91,2.88,5.81,6.19-.1,3.25-2.77,5.81-5.99,5.81Z"/></svg>