<svg xmlns="http://www.w3.org/2000/svg" viewBox="0 0 4800 3000"><defs><style>.cls-1,.cls-13,.cls-21,.cls-4,.cls-5{fill:#fff;}.cls-16,.cls-18,.cls-2,.cls-20,.cls-3{fill:#3b65ee;}.cls-3{opacity:0.2;}.cls-10,.cls-11,.cls-12,.cls-13,.cls-14,.cls-15,.cls-16,.cls-17,.cls-18,.cls-19,.cls-21,.cls-4,.cls-5,.cls-6,.cls-8,.cls-9{stroke:#3b65ee;}.cls-10,.cls-11,.cls-14,.cls-16,.cls-17,.cls-18,.cls-19,.cls-4,.cls-6,.cls-8{stroke-miterlimit:10;}.cls-10,.cls-11,.cls-4,.cls-5,.cls-6,.cls-9{stroke-width:6.67px;}.cls-10,.cls-11,.cls-12,.cls-13,.cls-14,.cls-15,.cls-21,.cls-5,.cls-9{stroke-linecap:round;}.cls-12,.cls-13,.cls-15,.cls-21,.cls-5,.cls-9{stroke-linejoin:round;}.cls-10,.cls-11,.cls-12,.cls-14,.cls-15,.cls-17,.cls-19,.cls-6,.cls-8,.cls-9{fill:none;}.cls-11,.cls-16,.cls-18,.cls-7{opacity:0.4;}.cls-8{stroke-width:5.46px;}.cls-12,.cls-13,.cls-14{stroke-width:6.53px;}.cls-15,.cls-17{stroke-width:6.19px;}.cls-16{stroke-width:1.7px;}.cls-18{stroke-width:1.3px;}.cls-19{stroke-width:6.23px;}.cls-20{opacity:0.1;}.cls-21{stroke-width:5.28px;}</style></defs><title>Sailboat</title><g id="Layer_2" data-name="Layer 2"><rect class="cls-1" width="4800" height="3000"/><rect class="cls-1" width="4800" height="3000"/><path class="cls-2" d="M3559.68,1136.16c19.41-1.09,38.83-1.66,58.24-2.05,9.71-.24,19.41-.3,29.12-.44l29.12-.15,29.12.14c9.7.15,19.41.2,29.11.44,19.42.39,38.83,1,58.24,2.06-19.41,1.1-38.82,1.67-58.24,2.06-9.7.24-19.41.29-29.11.44l-29.12.13-29.12-.14c-9.71-.14-19.41-.2-29.12-.44C3598.51,1137.82,3579.09,1137.25,3559.68,1136.16Z"/><path class="cls-2" d="M1927.9,1132.84l31.31-.5,31.31-.38,62.63-.74q62.61-.59,125.24-1c41.75-.31,83.5-.37,125.24-.56l125.25-.18,125.24.18c41.75.18,83.5.24,125.25.55l62.62.42,62.62.55,62.62.75,31.31.38,31.32.5-31.32.5-31.31.38-62.62.76L2742,1135l-62.62.41c-41.75.31-83.5.37-125.25.56l-125.24.17-125.25-.18c-41.74-.18-83.49-.25-125.24-.56s-83.5-.57-125.24-1l-62.63-.75-31.31-.38Z"/><path class="cls-3" d="M2397.84,1614.79s190-10,173.31-35-111.15-16-111.15-16-38.83,7.69-33.83,37.68"/><path class="cls-4" d="M2182.06,1619.06c-183.45-18.66-252-139.59-271.22-184.32a12.26,12.26,0,0,1,11-17.1c68.66-1.5,330.6-2.62,578.68,57.87a12.28,12.28,0,0,1,9.07,14.5c-3.68,17.3-16,50.48-56.93,79.18"/><path class="cls-5" d="M2302.54,1085c2.79,42.21,6.51,157.1-24.77,262.66a7.64,7.64,0,0,0,7.77,9.81c33.84-2,136.9-6.32,185.2,12.47a7.64,7.64,0,0,0,10.08-9.43c-16.6-52.22-71.89-206.69-165.87-282A7.65,7.65,0,0,0,2302.54,1085Z"/><circle class="cls-6" cx="2422.83" cy="1513.13" r="10"/><ellipse class="cls-2" cx="2186.29" cy="1477.45" rx="13.27" ry="13.35"/><ellipse class="cls-2" cx="2146.49" cy="1477.45" rx="13.27" ry="13.35"/><path class="cls-2" d="M2216.58,1512a5.42,5.42,0,0,1,4.45,6.58,55.69,55.69,0,0,1-109.39-18,5.38,5.38,0,0,1,6.29-4.81Z"/><path class="cls-5" d="M2340.37,911c-30.62,63-89.52,217.11-79.13,455.13a9.89,9.89,0,0,1-13.21,9.76c-29.86-10.69-105.47-31.15-206.43-10.91a9.91,9.91,0,0,1-11.76-11.42c10.86-61.4,67.17-304.33,296.12-455.11C2334.37,892.93,2344.77,902,2340.37,911Z"/><path class="cls-2" d="M1962.9,1593.12a188.7,188.7,0,0,0,22.31-1.18,164.18,164.18,0,0,0,21.89-3.79c.89-.23,1.79-.43,2.68-.68l2.65-.75,5.38-1.58c3.62-1,7.26-2,10.94-2.89s7.4-1.64,11.17-2.25c1.89-.29,3.78-.58,5.7-.78,1-.1,1.93-.19,2.91-.26.49,0,1-.06,1.49-.08s1,0,1.62,0a3.34,3.34,0,1,1-.12,6.67l-.28,0c-.28,0-.77,0-1.18-.06l-1.31,0c-.88,0-1.78,0-2.68,0-1.8,0-3.61.18-5.43.33-3.64.31-7.28.79-10.92,1.37s-7.27,1.26-10.9,2l-5.47,1.17-2.78.58c-.93.18-1.87.32-2.8.48a168.13,168.13,0,0,1-22.44,2.2A190.64,190.64,0,0,1,1962.9,1593.12Z"/><path class="cls-2" d="M2039,1644.61a317.42,317.42,0,0,0,52.6-.26,259.79,259.79,0,0,0,26-3.49,209.13,209.13,0,0,0,25.29-6.32,159.52,159.52,0,0,0,23.93-9.88,114.71,114.71,0,0,0,21.39-14.17l2.44-2.07c.81-.69,1.54-1.47,2.32-2.2,1.53-1.48,3-2.91,4.65-4.54s3.15-3.18,4.83-4.68,3.28-3,5-4.49a135.61,135.61,0,0,1,22.07-15.56,114.82,114.82,0,0,1,12.27-5.84,103.47,103.47,0,0,1,13-4.19,79.52,79.52,0,0,1,27.3-2,60.28,60.28,0,0,1,13.55,3.08c4.38,1.67,8.71,3.74,12.38,7.45a10.46,10.46,0,0,1,2.52,3.76,5.51,5.51,0,0,1,.05,3.47,5.71,5.71,0,0,1-1.86,2.59,12.48,12.48,0,0,1-3.76,2c-1.17.42-2.3.74-3.41,1-4.45,1.09-8.72,1.82-12.88,2.89a43.38,43.38,0,0,0-11.61,4.4c-3.45,2-6,5-6.79,8.65a14.81,14.81,0,0,0-.31,2.85,20.76,20.76,0,0,0,.84,5.86l.52,1.4a13.69,13.69,0,0,0,.62,1.35,25.37,25.37,0,0,0,8.17,9.07,45.91,45.91,0,0,0,11.35,5.81,69.7,69.7,0,0,0,12.58,3.12,68.24,68.24,0,0,0,13,.73,57.22,57.22,0,0,0,6.53-.61,46.18,46.18,0,0,0,6.41-1.5,47.68,47.68,0,0,1-6.31,2,57.78,57.78,0,0,1-6.55,1.11,68.92,68.92,0,0,1-13.32.1c-8.85-.83-17.76-3.13-25.55-8a32.05,32.05,0,0,1-5.42-4.34,25.09,25.09,0,0,1-4.29-5.64c-.27-.54-.6-1-.82-1.6l-.69-1.68a23.44,23.44,0,0,1-.93-3.5,27.16,27.16,0,0,1-.4-3.6,20.43,20.43,0,0,1,.26-3.72,16,16,0,0,1,3-6.94,21.21,21.21,0,0,1,5.48-5,48.69,48.69,0,0,1,12.82-5.35c4.33-1.24,8.71-2.13,12.78-3.26,1-.29,2-.59,2.89-.93a7.86,7.86,0,0,0,2-1.06c.18-.15.15-.2.07,0s0,.35-.05.23a5.56,5.56,0,0,0-1.25-1.59,20.59,20.59,0,0,0-4.64-3.35,38.59,38.59,0,0,0-5.57-2.43,53.61,53.61,0,0,0-12.18-2.53,75.05,75.05,0,0,0-25.07,2.06,97.68,97.68,0,0,0-12.09,4,110.75,110.75,0,0,0-11.51,5.56,128.16,128.16,0,0,0-21.08,14.69c-1.67,1.36-3.25,2.82-4.85,4.28s-3.13,3-4.67,4.48-3.18,3.08-4.82,4.64c-.83.77-1.62,1.59-2.5,2.31l-2.62,2.16a121.57,121.57,0,0,1-22.78,14.52,148.66,148.66,0,0,1-25.05,9.63c-17.15,5-34.88,7.36-52.56,8.11A268.48,268.48,0,0,1,2039,1644.61Z"/><path class="cls-1" d="M2270.09,1616.44c27.75-2,56.22-8.62,78.62-24.4,61.72-43.46,113.71-24.47,123.88-10.89s-43.69-1.52-46.49,22.83,41.63,39.16,66.29,34.6"/><path class="cls-2" d="M2270.09,1616.44c14.89-1.8,29.64-4.61,43.69-9.45a135.16,135.16,0,0,0,20.34-8.74c1.62-.88,3.19-1.83,4.8-2.72s3.12-1.92,4.65-2.93l9.21-6.43a148.42,148.42,0,0,1,41.2-19.7,118.22,118.22,0,0,1,22.67-4.26,112,112,0,0,1,11.59-.34c1.93,0,3.87.18,5.8.29,1,.08,1.93.2,2.9.3s1.93.21,2.89.37a80.38,80.38,0,0,1,11.41,2.49,70.08,70.08,0,0,1,11,4.21,44.4,44.4,0,0,1,10.14,6.67,25.52,25.52,0,0,1,2.24,2.38l.53.65.52.75c.17.27.34.56.5.85a10.76,10.76,0,0,1,.46,1,6,6,0,0,1,.37,2.92,5.12,5.12,0,0,1-1.55,3,7.14,7.14,0,0,1-2.05,1.39,12.73,12.73,0,0,1-1.79.65,34.54,34.54,0,0,1-6.13,1c-1.94.17-3.83.27-5.71.37-3.74.2-7.42.4-11,.8a50.81,50.81,0,0,0-10.38,2.13c-3.23,1.08-6.14,2.74-7.88,5.17a10.49,10.49,0,0,0-1.78,4.13,18.55,18.55,0,0,0-.26,2.4,7.1,7.1,0,0,0,0,1.22c0,.41,0,.82.07,1.22a19.67,19.67,0,0,0,3.78,9.18,35.6,35.6,0,0,0,7.55,7.4,59.28,59.28,0,0,0,9.35,5.59,86.22,86.22,0,0,0,21,7,80.36,80.36,0,0,0,11.05,1.47,57.29,57.29,0,0,0,11.18-.29,66,66,0,0,1-22.53.65,86.14,86.14,0,0,1-22-5.82,61.35,61.35,0,0,1-10.2-5.44,39.65,39.65,0,0,1-8.83-7.88,23.69,23.69,0,0,1-5.07-11.2,23,23,0,0,1,0-6.36,15.9,15.9,0,0,1,2.43-6.2,17.39,17.39,0,0,1,4.69-4.64,26.41,26.41,0,0,1,5.58-2.83,54.14,54.14,0,0,1,11.55-2.66c3.83-.52,7.63-.79,11.36-1.07,1.87-.14,3.71-.28,5.51-.47a29.84,29.84,0,0,0,4.95-.86,6.14,6.14,0,0,0,.84-.33c.24-.1.32-.2.27-.16a1.32,1.32,0,0,0-.28.62c0,.24,0,.29,0,.16s-.09-.17-.12-.26l-.22-.35-.28-.41-.37-.43a19.68,19.68,0,0,0-1.62-1.7,37.93,37.93,0,0,0-8.64-5.55,63.4,63.4,0,0,0-10-3.74,76.34,76.34,0,0,0-10.55-2.23c-.89-.15-1.78-.28-2.68-.36s-1.79-.22-2.69-.3c-1.81-.11-3.61-.29-5.42-.31a106.79,106.79,0,0,0-10.88.24,119.54,119.54,0,0,0-21.5,3.84A133.72,133.72,0,0,0,2375,1580a178.46,178.46,0,0,0-19.43,10.49l-9.45,6.12c-1.64,1-3.31,1.93-5,2.9s-3.4,1.76-5.11,2.59a135.6,135.6,0,0,1-21.35,8A182,182,0,0,1,2270.09,1616.44Z"/><path class="cls-3" d="M2071.22,1596.46s-41.66-5-56.66,8.33,60.14,33.62,160.88,18.47l-4.25-5.44S2076.22,1594.79,2071.22,1596.46Z"/><g class="cls-7"><circle class="cls-6" cx="2913.93" cy="1975.29" r="15.83"/><circle class="cls-6" cx="2913.93" cy="1975.29" r="29.16"/><rect class="cls-8" x="2990.75" y="1922.25" width="16.66" height="142.48" transform="translate(446.96 4534.19) rotate(-78.48)"/><path class="cls-2" d="M3026,1938.37a59.46,59.46,0,0,1,46.34,70.05l-5.35-1.09a54,54,0,0,0-42.08-63.61l1.09-5.35m0-6.66a6.66,6.66,0,0,0-6.53,5.33l-1.09,5.35a6.67,6.67,0,0,0,5.2,7.87A47.33,47.33,0,0,1,3060.5,2006a6.66,6.66,0,0,0,5.2,7.86l5.35,1.09a6.17,6.17,0,0,0,1.34.14,6.66,6.66,0,0,0,6.52-5.34,66.11,66.11,0,0,0-51.54-77.91,6.59,6.59,0,0,0-1.33-.13Z"/><path class="cls-2" d="M3021.46,1927.47l-7.36,11.09,2.44,13.08-9.24-8.18-9.23-8.17,11.7-3.91,11.69-3.91m0-6.67a6.71,6.71,0,0,0-2.11.35l-11.7,3.91L2996,1929a6.66,6.66,0,0,0-2.31,11.31l9.24,8.18,9.23,8.17a6.66,6.66,0,0,0,11-6.21l-1.94-10.43,5.87-8.83a6.68,6.68,0,0,0-5.56-10.36Zm0,13.34h0Z"/><path class="cls-2" d="M3067,2007.33l5.35,1.09a59.36,59.36,0,0,1-70.05,46.34l1.09-5.35a53.9,53.9,0,0,0,63.61-42.08m0-6.66a6.66,6.66,0,0,0-6.52,5.33,47.27,47.27,0,0,1-55.75,36.88,6.85,6.85,0,0,0-1.34-.14,6.66,6.66,0,0,0-6.52,5.34l-1.09,5.35a6.66,6.66,0,0,0,5.2,7.86,66,66,0,0,0,77.91-51.54,6.59,6.59,0,0,0-1-5,6.66,6.66,0,0,0-4.23-2.86l-5.35-1.09a6.83,6.83,0,0,0-1.34-.13Z"/><path class="cls-2" d="M2998.77,2038.83h0m0,0-7.36,11.09,2.44,13.08-9.24-8.17-9.23-8.18,11.7-3.91,11.69-3.91m0-6.66c-.2,0-.4,0-.6,0a6.56,6.56,0,0,0-1.66.37l-11.55,3.86-11.69,3.91a6.66,6.66,0,0,0-2.31,11.31l9.24,8.18,9.23,8.17a6.66,6.66,0,0,0,11-6.21l-1.94-10.43,5.78-8.7a6.67,6.67,0,0,0-5.17-10.48Zm0,13.33h0Z"/><circle class="cls-4" cx="3070.69" cy="2007.23" r="14.16"/><line class="cls-9" x1="3040.25" y1="2018.88" x2="3046.57" y2="1987.86"/></g><path class="cls-10" d="M2422.83,1513.13s295-15,201.64,33.33c-38.81,20.1-121.71,44-193,73.45"/><path class="cls-11" d="M2354.51,1783.1c171.64,118.31,558.28,194.31,558.28,194.31"/><path class="cls-11" d="M2431.49,1619.91c-100.1,41.45-177.24,94.07-77,163.19"/><line class="cls-11" x1="2912.79" y1="1969.08" x2="2887.79" y2="1949.08"/><path class="cls-2" d="M1946.23,1436.48c45.16-2.33,90.44-1.92,135.63-.26,11.3.49,22.61.81,33.9,1.53l33.86,2,33.83,2.67c5.64.42,11.27,1,16.9,1.53l16.88,1.64,16.88,1.71,16.85,2,16.85,2,8.42,1c2.81.32,5.61.67,8.41,1.1l33.58,4.86c5.59.84,11.21,1.55,16.77,2.55l16.73,2.86c44.65,7.25,88.89,16.92,132.77,27.7-44.49-8.07-88.87-16.29-133.59-22.56-22.3-3.46-44.7-6.19-67.07-9.15-11.19-1.39-22.41-2.62-33.61-3.93l-16.81-1.93-16.85-1.64c-44.88-4.73-89.89-8.18-134.94-10.86q-33.79-2-67.65-3.29C1991.41,1437.3,1968.83,1436.67,1946.23,1436.48Z"/><path class="cls-3" d="M2055.38,1345.66s83.33-295,256.64-409.95C2312,935.71,2095.38,1267.33,2055.38,1345.66Z"/><path class="cls-2" d="M885,2209.33a166.41,166.41,0,0,1,31.43-10.63,227.72,227.72,0,0,1,32.88-5.3,239,239,0,0,1,66.54,3.75,249.85,249.85,0,0,1,32.34,8.63l7.87,2.85c1.32.45,2.62,1,3.91,1.51l3.88,1.57c1.29.53,2.6,1,3.87,1.59l3.81,1.67,7.6,3.35c20.25,9,40.14,18.74,60,28.36s39.73,19.2,59.95,27.88l7.59,3.23c2.54,1.06,5,2.19,7.63,3.15l15.37,6c5.16,1.89,10.37,3.63,15.55,5.46s10.45,3.41,15.69,5.05l7.89,2.42,2,.6,2,.52,4,1,16,4.14c10.77,2.24,21.48,4.88,32.38,6.46,21.68,4,43.69,5.87,65.72,7.7-22.08-.38-44.26-1.35-66.21-4.53-5.49-.73-11-1.37-16.44-2.47l-16.37-3c-5.42-1.18-10.81-2.5-16.22-3.76l-4-1-2-.47-2-.57-8-2.26c-10.75-2.83-21.24-6.46-31.77-10l-15.6-5.82c-2.62-.93-5.16-2-7.73-3.07l-7.71-3.15c-20.46-8.57-40.49-18.08-60.39-27.7s-39.65-19.46-59.69-28.61c-10-4.64-20-9.11-30.29-12.78a274.87,274.87,0,0,0-31.5-9,249.62,249.62,0,0,0-32.43-4.93,241,241,0,0,0-65.57,3.27q-8.1,1.54-16.09,3.71A136.22,136.22,0,0,0,885,2209.33Z"/><path class="cls-2" d="M1257,2273c21-5.12,42.57-8.11,64.11-10.51q32.36-3.33,64.94-3.93a843.47,843.47,0,0,1,129.88,7.66c10.77,1.36,21.46,3.26,32.18,5l16,3c2.67.52,5.34,1,8,1.54l7.95,1.72c21.25,4.46,42.26,9.94,63.09,16a828.42,828.42,0,0,1,121.31,46.48,1115,1115,0,0,0-122.69-41.58c-20.88-5.43-41.79-10.76-63-14.84l-7.92-1.63c-2.64-.55-5.3-1-7.94-1.49l-15.91-2.89c-10.66-1.65-21.28-3.47-32-4.79-10.67-1.58-21.39-2.7-32.1-3.92l-16.1-1.49c-2.68-.27-5.37-.44-8.06-.64l-8.06-.6c-21.51-1.55-43.07-2.27-64.64-2.4s-43.16.57-64.7,2A630.82,630.82,0,0,0,1257,2273Z"/><polyline class="cls-12" points="982.1 2193.83 1038.39 2023.32 1041.66 2038 1098.77 1891.15 1162.4 2124.48 1172.19 2109.8 1187.69 2169.36"/><polyline class="cls-12" points="1150.98 2238.7 1286.41 1984.16 1289.67 2003.74 1330.47 1923.79 1387.58 2078.8 1394.1 2060.85 1438.97 2232.99"/><polyline class="cls-12" points="1417.76 2260.73 1495.27 2160.38 1503.43 2173.43 1545.85 2108.17 1580.12 2228.91 1593.99 2281.94"/><path class="cls-2" d="M1090.84,2034.12q3.17,9.18,6.12,18.41c2,6.14,3.9,12.32,5.83,18.49a1,1,0,0,1,.06.33v.1l.53,20.09.33,20.09.16,20.1v20.09q-.08,20.1-.52,40.19c-.36,13.4-.76,26.79-1.55,40.19-.88-13.39-1.38-26.78-1.83-40.18s-.66-26.79-.82-40.18l-.15-20.1,0-20.09.19-20.09.37-20.1.06.43c-1.52-6.28-3.08-12.55-4.54-18.84S1092.19,2040.44,1090.84,2034.12Z"/><path class="cls-2" d="M1101.79,1902.26c-.4,9.35-1.29,18.64-2.34,27.9s-2.29,18.49-3.69,27.69-3,18.39-4.75,27.54-3.7,18.27-6.11,27.32c.4-9.36,1.28-18.64,2.33-27.9s2.29-18.49,3.7-27.7,3-18.38,4.76-27.53S1099.39,1911.31,1101.79,1902.26Z"/><path class="cls-2" d="M1354.22,1988.27c-1.39,12.1-2.91,24.18-4.47,36.25l-2.4,18.11-2.45,18.09c-1.68,12.06-3.34,24.12-5.12,36.16l-2.61,18.07-2.71,18.05-.67-2.05c6.8,6.8,13.66,13.54,20.42,20.37l20.34,20.45,0,0a2.26,2.26,0,0,1,.63,1.2l3.92,21.24c1.29,7.09,2.62,14.16,3.87,21.26l-3.14-1.19,10.72-8,10.73-8,0,0a1.56,1.56,0,0,1,2.19.32,1.51,1.51,0,0,1,.31,1l-.29,15.37-.36,15.36-.41,15.37-.52,15.36-.51-15.36-.42-15.37-.35-15.36-.3-15.37,2.54,1.25-10.47,8.33-10.5,8.3a2,2,0,0,1-2.74-.32,1.85,1.85,0,0,1-.38-.8l0-.07c-1.47-7.05-2.86-14.11-4.29-21.17l-4.24-21.18.65,1.22-20.45-20.34c-6.83-6.77-13.58-13.62-20.37-20.43h0a2.38,2.38,0,0,1-.66-2l2.82-18,2.92-18c1.91-12,3.94-24,6-36l3.07-18,3.14-18Q1350.82,2006.22,1354.22,1988.27Z"/><polygon class="cls-3" points="1147.01 2068.04 1188.51 2007 1230.07 2090.06 1190.07 2165.22 1172.19 2108.17 1162.4 2124.48 1147.01 2068.04"/><path class="cls-3" d="M936.41,2196.23l24.48-82.35L993,2161l-13.29,33.9S954.36,2190.47,936.41,2196.23Z"/><path class="cls-3" d="M1359,2353.74c-15.46,30.05-171.33,60.37-298.86,22.59C988.45,2355.08,952.27,2290,967.73,2260s93.62,6.22,164.49,30.14C1262.75,2334.16,1374.48,2323.69,1359,2353.74Z"/><path class="cls-3" d="M1343.55,2290.19c4.41-11.83,78.61-23.38,146.13-8.08,38,8.6,63.06,34.43,58.65,46.27s-47.23-2.73-85.07-12.39C1393.55,2298.21,1339.14,2302,1343.55,2290.19Z"/><path class="cls-12" d="M1604,2264.53a32.74,32.74,0,0,1,24.31-7.67"/><path class="cls-12" d="M1617.28,2241.65s6.11-6.63,23.23-6.47"/><path class="cls-12" d="M1601.33,2242s1.63-14.69,16.32-24.48"/><polygon class="cls-3" points="1303.24 1977.14 1328.02 2042.08 1365.56 2019.04 1341.07 1953.97 1307.11 1968.65 1303.24 1977.14"/><path class="cls-13" d="M1280.7,1932.76s-42.42-35.9,14.69-71.8,75,19.58,75,31c0,0,24.48-9.79,29.37,6.52s-8.15,31-19.58,44.06l21.22,34.27-65.27,29.37-18-40.8s-32.63,13.06-49-3.26S1272.54,1931.13,1280.7,1932.76Z"/><circle class="cls-2" cx="1311.7" cy="1919.71" r="11.42"/><circle class="cls-2" cx="1337.81" cy="1906.65" r="11.42"/><line class="cls-14" x1="1339.44" y1="1971.92" x2="1353.72" y2="1998.29"/><line class="cls-14" x1="1354.13" y1="1963.76" x2="1368.53" y2="1991.63"/><line class="cls-14" x1="1368.81" y1="1958.87" x2="1387.2" y2="1983.23"/><path class="cls-3" d="M1326.39,1962.13c-9.79-18-26.11-8.16-32.64-13.05s13.06-14.69,13.06-14.69V1923c-18.71-13.51-17.55-41.57-14.25-60.17-52.84,35.28-11.86,70-11.86,70-8.16-1.63-27.74,13-11.42,29.37s49,3.26,49,3.26l18,40.8,15.06-6.78Z"/><path class="cls-15" d="M753.75,1130.53h523S990.48,1026.87,753.75,1130.53Z"/><path class="cls-15" d="M1347.89,1130.53H1482.5S1417.52,1088.76,1347.89,1130.53Z"/><path class="cls-2" d="M614.5,1130.53c19.21-1.28,38.42-2,57.63-2.4s38.43-.7,57.64-.69,38.42.23,57.63.68,38.43,1.13,57.64,2.41c-19.21,1.29-38.42,2-57.64,2.42s-38.42.69-57.63.68-38.42-.24-57.64-.69S633.71,1131.81,614.5,1130.53Z"/><path class="cls-2" d="M796.3,1156.34l19.14-.52,19.13-.44,38.27-.69,38.28-.54,38.27-.4a2.59,2.59,0,0,1,.67,5.09h0l-31.08,8-31.1,8-31.12,7.9c-10.38,2.61-20.74,5.29-31.13,7.86l-.75-6.06c22.06.07,44.11,0,66.17.19s44.11.25,66.16.52,44.11.54,66.17.89,44.11.82,66.16,1.48c-22,.66-44.11,1.07-66.16,1.47s-44.11.69-66.17.89-44.11.38-66.16.52-44.11.12-66.17.19a3.07,3.07,0,0,1-.77-6h0c10.37-2.65,20.77-5.2,31.15-7.8l31.15-7.77,31.18-7.66,31.19-7.63.63,5.11-38.27-.41-38.28-.54-38.27-.69-19.13-.44Z"/><path class="cls-2" d="M1088.73,1151.42c26.17-1.28,52.35-2,78.52-2.4,13.09-.29,26.17-.35,39.26-.52l39.26-.17,39.26.16c13.09.17,26.18.23,39.27.52,26.17.45,52.34,1.12,78.52,2.41-26.18,1.29-52.35,2-78.52,2.42-13.09.28-26.18.34-39.27.51l-39.26.16-39.26-.17c-13.09-.16-26.17-.23-39.26-.51C1141.08,1153.37,1114.9,1152.7,1088.73,1151.42Z"/><path class="cls-3" d="M854.32,1130.53h422.4S1045.52,1054,854.32,1130.53Z"/><path class="cls-3" d="M1182.34,1002.11l-27.85,12.38-38.69-77.36-46.41-154.72-34-15.48-37.14,97.48-17,17-20,64.75,46.29-41.54,43.32-24.76L1092.6,917l35.58,109.86,65,38.68,23.56,46.42s-162.81-49.51-329.92-21.66l9.4-12.75,33.93-46,4.79-20.49-56.72,31.9-10,5.61-29.5,53.53c211.88-47,392.72,14.34,392.72,14.34Z"/><path class="cls-15" d="M1208.64,1093.4l9.63,18.57s-162.81-49.51-329.91-21.66l9.28-12.38"/><polyline class="cls-15" points="912.16 1058 931.68 1031.51 948.7 958.79 1009.04 904.64 1052.37 879.88 1094.14 917.01 1129.73 1026.87 1194.71 1065.55 1199.36 1076.38"/><path class="cls-1" d="M879,1040.34s18.39,34.3,19.3,39l16.41-12.58-23.31-34.36Z"/><path class="cls-16" d="M837.26,973.05s-37.39,39.09-22.1,81.58C815.16,1054.63,845.76,1025.74,837.26,973.05Z"/><path class="cls-15" d="M833.71,974.32s-52.65,12.45-62.94,56.42C770.77,1030.74,812.16,1023.15,833.71,974.32Z"/><path class="cls-15" d="M831.5,974.85s52.61-12.57,81.59,22.07C913.09,996.92,872.71,1008.77,831.5,974.85Z"/><path class="cls-17" d="M834.71,980.69s52.52,57.35,67,109.41"/><path class="cls-17" d="M838.11,977.29s68,57.42,85.86,110.3"/><polygon class="cls-1" points="1196.26 1084.12 1211.73 1062.45 1216.38 1073.29 1205.55 1094.95 1196.26 1084.12"/><path class="cls-18" d="M1251.34,1017.9s28.5,29.8,16.84,62.19C1268.18,1080.09,1244.86,1058.06,1251.34,1017.9Z"/><path class="cls-15" d="M1254,1018.88s40.13,9.48,48,43C1302,1061.88,1270.46,1056.1,1254,1018.88Z"/><path class="cls-15" d="M1255.73,1019.28s-40.11-9.58-62.19,16.82C1193.54,1036.1,1224.32,1045.13,1255.73,1019.28Z"/><path class="cls-17" d="M1253.28,1023.73s-40,43.71-51.11,83.39"/><path class="cls-17" d="M1250.69,1021.14s-51.86,43.76-65.44,84.07"/><path class="cls-3" d="M954.41,1083l17.5-51.49h38.68l-15.47-58.79,40.23-58.8,24.75-17,29.4,29.4L1122,1031.51l52.61,46.42,3.59,24.93S1017.37,1071.06,954.41,1083Z"/><path class="cls-19" d="M966.56,753.53c3.81,31.33-18.18,59.78-49.12,63.54s-59.11-18.58-62.92-49.91,14.3-60.16,45.24-63.92S962.75,722.21,966.56,753.53Z"/><line class="cls-15" x1="829.57" y1="695.76" x2="849.68" y2="712.78"/><line class="cls-15" x1="923.95" y1="671" x2="922.4" y2="689.57"/><line class="cls-15" x1="978.1" y1="731.35" x2="993.57" y2="720.52"/><line class="cls-15" x1="954.89" y1="821.09" x2="962.63" y2="831.92"/><line class="cls-15" x1="868.25" y1="825.73" x2="854.32" y2="841.2"/><line class="cls-15" x1="837.3" y1="768.48" x2="809.45" y2="770.03"/><ellipse class="cls-2" cx="900.77" cy="740.04" rx="4.8" ry="4.83" transform="translate(-189.56 327.44) rotate(-18.68)"/><ellipse class="cls-2" cx="914.42" cy="735.42" rx="4.8" ry="4.83" transform="translate(-187.36 331.57) rotate(-18.68)"/><path class="cls-2" d="M894.38,755.4a2,2,0,0,0-.76,2.77,20.17,20.17,0,0,0,35.44-18.85,2,2,0,0,0-2.72-.92Z"/><path class="cls-5" d="M2219.87,1371.09s-5.17,31.54-7,57.06"/><path class="cls-5" d="M2234.53,1373.15s-3.83,31.45-5.67,57"/><g class="cls-7"><path class="cls-2" d="M3589.48,799.54A530,530,0,0,1,3559,853.8c-5.54,8.79-11.37,17.39-17.37,25.88l-4.52,6.35-4.64,6.26c-3,4.21-6.3,8.28-9.45,12.41-25.76,32.64-54.83,62.93-87.9,88.51-4.14,3.18-8.39,6.23-12.58,9.35s-8.63,5.9-12.94,8.86c-4.44,2.77-8.87,5.55-13.34,8.27-4.57,2.56-9.09,5.19-13.7,7.68l-7,3.55-3.51,1.78c-1.16.59-2.33,1.2-3.53,1.71l-7.18,3.22-3.58,1.61-1.8.81-1.82.73c-4.87,1.91-9.68,4-14.64,5.69l-7.4,2.65-7.5,2.39-3.75,1.2-3.8,1c-2.53.69-5.06,1.41-7.6,2.06-5.14,1.15-10.23,2.46-15.44,3.32-5.16,1-10.41,1.67-15.63,2.39l-7.9.71c-1.31.15-2.64.2-4,.25l-4,.16a159.84,159.84,0,0,1-31.77-2,120.36,120.36,0,0,1-30.65-9.39,100.4,100.4,0,0,1-26.68-18.11,96.46,96.46,0,0,1-19.07-26.08c-.66-1.18-1.14-2.44-1.7-3.67l-1.61-3.71-1.38-3.81c-.45-1.27-.94-2.52-1.27-3.83-.73-2.59-1.56-5.16-2.06-7.8l-.86-3.94c-.23-1.32-.41-2.65-.62-4s-.45-2.65-.56-4l-.36-4-.18-2c-.05-.67-.05-1.35-.09-2l-.07-2v-2a83,83,0,0,1,1.75-16.18,87.9,87.9,0,0,1,12.48-29.79,98.79,98.79,0,0,1,50.05-38.87,90,90,0,0,1,15.7-3.76,80.18,80.18,0,0,1,16.17-.64,72.26,72.26,0,0,1,16,2.92,68,68,0,0,1,14.81,6.67,72.38,72.38,0,0,1,22.83,22.51,86.55,86.55,0,0,1,7.49,14.15,68.93,68.93,0,0,1,4.33,15.49,56.9,56.9,0,0,1,.18,16.12,52.43,52.43,0,0,1-4.58,15.45,54.4,54.4,0,0,1-21.35,23.39,49.52,49.52,0,0,1-30.62,7,45.87,45.87,0,0,1-7.79-1.62,43.57,43.57,0,0,1-7.34-3,46.81,46.81,0,0,1-6.64-4.3,50.6,50.6,0,0,1-5.76-5.38c-7-7.83-11.51-17.54-14.25-27.51,3.12,9.86,8,19.31,15.13,26.68a49.24,49.24,0,0,0,5.77,5,44.15,44.15,0,0,0,6.52,3.94,42.6,42.6,0,0,0,7.11,2.66,45.17,45.17,0,0,0,7.46,1.31A47.43,47.43,0,0,0,3277.8,985a51,51,0,0,0,19.4-22.38,49.25,49.25,0,0,0,3.91-14.35,52.14,52.14,0,0,0-.48-14.86,63.65,63.65,0,0,0-4.32-14.31A81.32,81.32,0,0,0,3289,906a68.27,68.27,0,0,0-21.43-20.47,61.86,61.86,0,0,0-13.58-5.86,66.24,66.24,0,0,0-14.6-2.45,74.5,74.5,0,0,0-14.84.81,84.06,84.06,0,0,0-14.46,3.7A91.55,91.55,0,0,0,3184,896.17a90.17,90.17,0,0,0-20,22,80.28,80.28,0,0,0-11.18,27.35,79.09,79.09,0,0,0-1.49,14.71v1.85l.08,1.85c0,.62,0,1.23.08,1.85l.18,1.87.34,3.74c.1,1.25.36,2.48.53,3.72s.37,2.47.59,3.7l.81,3.65c.47,2.46,1.26,4.83,1.93,7.23.31,1.2.77,2.36,1.19,3.53l1.27,3.51,1.51,3.41c.52,1.13.95,2.3,1.57,3.38a88.47,88.47,0,0,0,17.54,23.84,92.91,92.91,0,0,0,24.6,16.59,112,112,0,0,0,28.61,8.84,151.49,151.49,0,0,0,30.19,2l3.8-.14c1.27,0,2.53-.08,3.8-.22l7.59-.66c5.05-.69,10.11-1.27,15.11-2.27,5-.81,10-2.07,15-3.17l7.41-2,3.71-1,3.67-1.13,7.34-2.26,7.26-2.54c4.87-1.61,9.6-3.61,14.4-5.44l1.79-.7,1.76-.77,3.52-1.55,7-3.08c1.18-.49,2.33-1.07,3.48-1.65l3.44-1.7,6.9-3.42a376.35,376.35,0,0,0,52-32.92,475.76,475.76,0,0,0,46.78-40.35A572.62,572.62,0,0,0,3520,902.25q19.71-23.93,37.17-49.66,8.74-12.84,16.87-26.09C3579.41,817.67,3584.67,808.73,3589.48,799.54Z"/></g><g class="cls-7"><path class="cls-2" d="M3592.89,874.61c-6.84,7.79-13.29,15.92-19.58,24.15s-12.38,16.6-18.27,25.11q-17.72,25.5-33,52.53a572.7,572.7,0,0,0-27.57,55.42,476.44,476.44,0,0,0-20.87,58.09,376,376,0,0,0-12.06,60.33l-.72,7.65-.36,3.82c-.12,1.28-.25,2.55-.29,3.83l-.35,7.67-.18,3.83-.09,1.92,0,1.92c0,5.13-.16,10.26.08,15.37l.24,7.68.51,7.65.26,3.83.41,3.8.81,7.62c.76,5,1.36,10.11,2.4,15.09.85,5,2.12,9.94,3.28,14.88l2.1,7.31c.32,1.23.73,2.43,1.15,3.62l1.22,3.59a151.54,151.54,0,0,0,12.65,27.38,112,112,0,0,0,18.42,23.44,92.31,92.31,0,0,0,24.15,16.95,88.08,88.08,0,0,0,28.38,7.81c1.22.19,2.46.18,3.7.26l3.7.18,3.71-.06c1.24,0,2.48,0,3.71-.15,2.47-.23,5-.34,7.4-.78l3.68-.55c1.22-.23,2.44-.52,3.65-.77s2.45-.48,3.64-.83l3.6-1,1.8-.5c.6-.17,1.17-.39,1.76-.58l1.74-.59,1.71-.66a78.74,78.74,0,0,0,13.13-6.61,80.06,80.06,0,0,0,21.43-20.1,89.84,89.84,0,0,0,13.34-26.45,91,91,0,0,0,4.18-29.4,84,84,0,0,0-1.69-14.75,73.51,73.51,0,0,0-4.52-14.07,65.44,65.44,0,0,0-7.45-12.7,61.53,61.53,0,0,0-10.26-10.52,67.71,67.71,0,0,0-26.63-12.65,80,80,0,0,0-14.83-2.14,62.49,62.49,0,0,0-14.84,1,52.17,52.17,0,0,0-14,4.82,49,49,0,0,0-11.95,8.72,50.69,50.69,0,0,0-13.94,26,47.29,47.29,0,0,0,3.27,29.45,44.23,44.23,0,0,0,3.86,6.49,42.17,42.17,0,0,0,5,5.68,43.22,43.22,0,0,0,6,4.68,49.46,49.46,0,0,0,6.74,3.6c9.43,4.07,20,5.24,30.31,4.64-10.29,1-21,.37-30.82-3.39a49.94,49.94,0,0,1-7.1-3.44,46.48,46.48,0,0,1-6.42-4.66,44,44,0,0,1-5.47-5.78,46.27,46.27,0,0,1-4.33-6.71,49.6,49.6,0,0,1-4.47-31.19,54.61,54.61,0,0,1,14.21-28.45,52.74,52.74,0,0,1,12.84-9.86,57.13,57.13,0,0,1,15.19-5.65,68.57,68.57,0,0,1,16.08-1.53,87.32,87.32,0,0,1,16,1.92,72.71,72.71,0,0,1,29.34,13.3,68.17,68.17,0,0,1,11.59,11.5,72.22,72.22,0,0,1,8.5,13.93,80.34,80.34,0,0,1,5.23,15.4,91,91,0,0,1,2.13,16.08,99.08,99.08,0,0,1-18.45,60.93,88.24,88.24,0,0,1-23.46,22.44,83,83,0,0,1-14.56,7.47l-1.91.74-1.94.66c-.64.22-1.29.46-1.93.65l-1.95.55-3.88,1.1c-1.29.38-2.62.61-3.94.92s-2.63.59-3.95.84l-4,.62c-2.66.48-5.37.62-8.06.87-1.35.15-2.7.15-4.06.18l-4.06.08-4.06-.18c-1.36-.09-2.72-.08-4.06-.28a96.61,96.61,0,0,1-31.33-8.51,100.72,100.72,0,0,1-26.6-18.52,121.23,121.23,0,0,1-19.82-25.37,160.4,160.4,0,0,1-13.3-29l-1.27-3.78c-.43-1.25-.86-2.51-1.2-3.79l-2.16-7.65c-1.2-5.15-2.5-10.28-3.36-15.49-1.06-5.18-1.67-10.41-2.43-15.63-.3-2.61-.53-5.23-.79-7.85l-.38-3.93-.22-3.93-.45-7.87-.17-7.87c-.19-5.25,0-10.49.08-15.73l0-2,.11-2,.22-3.94.45-7.86c0-1.31.2-2.61.34-3.92l.4-3.91.82-7.83c.68-5.2,1.52-10.37,2.27-15.56.95-5.15,2-10.29,3-15.43,1.22-5.09,2.4-10.19,3.66-15.27,1.43-5,2.75-10.09,4.26-15.1,12.08-40.06,30-78.05,51.35-113.76,2.74-4.42,5.39-8.9,8.23-13.26l4.21-6.57,4.32-6.49c5.8-8.63,11.76-17.14,18-25.45A523.66,523.66,0,0,1,3592.89,874.61Z"/></g><g class="cls-7"><path class="cls-2" d="M3353.59,1086.75c-5,8.29-10.39,16.38-16,24.34s-11.36,15.75-17.31,23.43-12.19,15.15-18.6,22.48-13.07,14.46-20.05,21.29-14.19,13.45-21.83,19.62a198.93,198.93,0,0,1-24.28,16.86A111.86,111.86,0,0,1,3208,1226.6a74.06,74.06,0,0,1-15.11,2.41,59.65,59.65,0,0,1-15.46-1.18,56.8,56.8,0,0,1-14.63-5.34,62.77,62.77,0,0,1-12.61-8.93,45,45,0,0,1-9.88-12.35,40.74,40.74,0,0,1-4.56-15.31,45.94,45.94,0,0,1,1.34-15.7,57.4,57.4,0,0,1,5.92-14.3,65.44,65.44,0,0,1,9.17-12.29,62.41,62.41,0,0,1,11.75-9.81,54.19,54.19,0,0,1,13.95-6.47,43.91,43.91,0,0,1,15.39-1.83,38.54,38.54,0,0,1,14.94,4.1,31.22,31.22,0,0,1,11.85,10,26,26,0,0,1,4.72,14.71,25,25,0,0,1-4.47,14.54,23.3,23.3,0,0,1-12.09,8.71,30,30,0,0,1-14.56.52,29.78,29.78,0,0,0,14.11-1.79,21.39,21.39,0,0,0,10.45-8.81,22,22,0,0,0,3.12-13,23,23,0,0,0-4.75-12.31,26.66,26.66,0,0,0-10.55-8,35.23,35.23,0,0,0-13.05-3c-9-.26-17.9,3-25.37,8.2a59.16,59.16,0,0,0-18.24,20.13,50.24,50.24,0,0,0-4.9,12.56,39.46,39.46,0,0,0-1,13.13,32.88,32.88,0,0,0,3.76,12.33,34.73,34.73,0,0,0,3.65,5.39,39,39,0,0,0,4.63,4.75,59,59,0,0,0,11,7.82,49.19,49.19,0,0,0,12.55,4.67c8.76,1.93,18,1.31,27-1a111.21,111.21,0,0,0,25.86-10.71,192,192,0,0,0,23.69-15.84c7.59-5.81,14.89-12.06,21.93-18.59q5.3-4.89,10.4-10t10.12-10.32c6.66-7,13.06-14.19,19.4-21.48Q3336.42,1110.24,3353.59,1086.75Z"/></g><g class="cls-7"><path class="cls-2" d="M3327.37,1196.07q-12.54,17-23.62,34.86c-3.67,6-7.28,12-10.66,18.09s-6.61,12.32-9.61,18.61-5.73,12.69-8.11,19.2a140,140,0,0,0-5.83,19.83,80.5,80.5,0,0,0-1.8,20.21,42,42,0,0,0,5.14,18.84,35.18,35.18,0,0,0,5.93,7.65,42.48,42.48,0,0,0,7.79,6,26.92,26.92,0,0,0,8.79,3.53,23.72,23.72,0,0,0,9.31-.07,28.29,28.29,0,0,0,8.84-3.53,36.48,36.48,0,0,0,7.62-6.1,42.78,42.78,0,0,0,10-17,31,31,0,0,0,.2-19.29,25.36,25.36,0,0,0-4.87-8.37,19.39,19.39,0,0,0-7.8-5.57,16.63,16.63,0,0,0-9.53-.63,15.83,15.83,0,0,0-8.33,5,15.45,15.45,0,0,0-3.85,9.12,21.59,21.59,0,0,0,1.8,10.16,21.78,21.78,0,0,1-2.81-10.2,16.94,16.94,0,0,1,3.41-10.27,18.11,18.11,0,0,1,9.11-6.26,18.9,18.9,0,0,1,11.24.07,22.65,22.65,0,0,1,9.52,6,28.12,28.12,0,0,1,6.1,9.47c2.74,7.12,2.59,15,.62,22.16a45.53,45.53,0,0,1-4.26,10.28,47.71,47.71,0,0,1-6.53,9c-5,5.47-11.61,9.92-19.25,11.55a29.33,29.33,0,0,1-11.62.16,32.44,32.44,0,0,1-10.72-4.18,45.51,45.51,0,0,1-8.94-6.8,41.32,41.32,0,0,1-6.88-9,48,48,0,0,1-5.78-21.48,81.51,81.51,0,0,1,2.23-21.65c3.23-14.06,8.83-27.25,15.3-39.85,3.23-6.31,6.72-12.46,10.41-18.49s7.52-12,11.56-17.74A375,375,0,0,1,3327.37,1196.07Z"/></g><path class="cls-3" d="M3839.84,722.85l207,38.06s3.6-41-44.93-41.28c0,0-40.33-66.29-111.51-21.94C3890.42,697.69,3861.21,685.14,3839.84,722.85Z"/><path class="cls-20" d="M3173.08,690.28l471.63,76.57s3.48-85.91-72.79-75.45c0,0-81.65-238.43-248.76-71.39C3323.16,620,3237.82,573.52,3173.08,690.28Z"/><path class="cls-21" d="M3166.74,771.67l865.32,170.08S3986,855.65,3919.72,866c0,0-68.11-152.29-172.45-120.27,0,0-103.09-200-278.6-25.58,0,0-98-83.45-178.27,22.16C3290.4,742.29,3206.28,707.08,3166.74,771.67Z"/><path class="cls-3" d="M3438.64,753.73c55.48,10.91,73,62.2,73,62.2S3582,707.21,3649,728.55s86,61.26,86,61.26,78.3-24.29,98,101c0,0,122.41.71,166.8,42.12L3342.45,803.69S3374.59,741.14,3438.64,753.73Z"/><path class="cls-2" d="M706,1505.5l4.78,0,2.39,0c.8,0,1.6.11,2.39.16,1.59.14,3.19.23,4.78.4l4.74.71a82.18,82.18,0,0,1,18.31,5.75c5.87,2.54,11.55,5.43,17.53,7.42a74.9,74.9,0,0,0,18.44,3.71c12.52,1,25.38.32,37.23-3.54,5.94-1.91,11.56-4.71,17.34-7.48a88.41,88.41,0,0,1,18.23-6.79c.8-.19,1.58-.43,2.39-.57l2.41-.43c1.61-.28,3.21-.61,4.83-.73l4.86-.51,4.86-.19,2.43-.09c.81,0,1.62,0,2.43,0l4.86.13c1.63.07,3.25.28,4.87.41l2.43.22,2.43.4a77.54,77.54,0,0,1,18.84,5.4c6,2.54,11.61,5.51,17.4,7.73a77.47,77.47,0,0,0,17.91,4.55c3.1.28,6.18.67,9.31.67,1.56,0,3.12.13,4.68.1l4.67-.15a82.1,82.1,0,0,0,18.33-2.75,101.45,101.45,0,0,0,17.33-6.91,106.69,106.69,0,0,1,18.16-7.16,86.7,86.7,0,0,1,19.41-2.86l4.87-.14c1.63,0,3.26.08,4.88.12,3.25,0,6.5.43,9.75.73a80,80,0,0,1,19,4.94c6.1,2.41,11.74,5.48,17.47,7.94a72.85,72.85,0,0,0,17.76,5.27l2.29.4,2.32.24c1.55.14,3.09.35,4.65.43l4.69.16c.79,0,1.57.08,2.35.07l2.35-.06,4.69-.11,4.66-.42c1.56-.09,3.08-.38,4.62-.62l2.3-.37c.77-.12,1.51-.35,2.27-.51a85.08,85.08,0,0,0,17.61-6.27c5.74-2.64,11.62-5.48,17.87-7.33a84,84,0,0,1,19.15-3.32,118.57,118.57,0,0,1,19.31.47,76.48,76.48,0,0,1,18.83,4.36c6.07,2.23,11.7,5.31,17.44,8a81.21,81.21,0,0,0,17.91,6.21l4.68.89c1.57.24,3.15.39,4.73.58.79.09,1.58.2,2.37.26l2.39.12,4.77.24-4.78,0-2.39,0c-.8,0-1.6-.11-2.39-.16-1.59-.14-3.19-.22-4.78-.39l-4.74-.71a82.18,82.18,0,0,1-18.31-5.75c-5.87-2.55-11.55-5.44-17.53-7.43a74.43,74.43,0,0,0-18.44-3.7c-12.52-1-25.38-.32-37.23,3.54-5.94,1.91-11.55,4.7-17.33,7.48a89.88,89.88,0,0,1-18.24,6.79c-.8.18-1.58.43-2.39.57l-2.41.43c-1.6.28-3.21.61-4.83.73l-4.86.5-4.86.19-2.43.09c-.81,0-1.62,0-2.43,0l-4.86-.12c-1.63-.07-3.25-.28-4.87-.41l-2.44-.23-2.42-.39a77.54,77.54,0,0,1-18.84-5.4c-6-2.54-11.62-5.51-17.41-7.73a77.23,77.23,0,0,0-17.91-4.56c-3.09-.28-6.17-.67-9.3-.67-1.56,0-3.12-.13-4.68-.09l-4.68.15a81.51,81.51,0,0,0-18.32,2.74,102.23,102.23,0,0,0-17.33,6.9,107,107,0,0,1-18.16,7.17,86.69,86.69,0,0,1-19.41,2.85l-4.87.14c-1.63,0-3.26-.08-4.88-.11-3.25,0-6.5-.43-9.75-.73a80,80,0,0,1-19-5c-6.1-2.4-11.74-5.47-17.46-7.93a72.64,72.64,0,0,0-17.77-5.28l-2.29-.4-2.32-.23c-1.55-.14-3.09-.35-4.65-.44l-4.69-.16c-.79,0-1.57-.07-2.35-.06l-2.35.05-4.69.11-4.66.42c-1.56.09-3.09.38-4.62.62l-2.3.37c-.77.12-1.52.35-2.27.51a84.88,84.88,0,0,0-17.61,6.27c-5.75,2.64-11.62,5.48-17.88,7.33a83.84,83.84,0,0,1-19.14,3.33,118.57,118.57,0,0,1-19.31-.48,76.59,76.59,0,0,1-18.83-4.36c-6.07-2.22-11.7-5.3-17.44-8a81.76,81.76,0,0,0-17.91-6.22l-4.68-.89c-1.57-.23-3.15-.38-4.73-.57-.79-.09-1.58-.2-2.37-.26l-2.39-.12Z"/><path class="cls-2" d="M897.5,1464l4.78,0,2.39,0c.8,0,1.6.11,2.39.16,1.59.14,3.19.23,4.78.4l4.74.71a82.18,82.18,0,0,1,18.31,5.75c5.87,2.54,11.55,5.43,17.53,7.42a74.9,74.9,0,0,0,18.44,3.71c12.52,1,25.38.32,37.23-3.54,5.94-1.91,11.56-4.71,17.34-7.48a88.41,88.41,0,0,1,18.23-6.79c.8-.19,1.58-.43,2.39-.57l2.41-.43c1.61-.28,3.21-.61,4.83-.73l4.86-.51,4.86-.19,2.43-.09c.81,0,1.62,0,2.43,0l4.86.13c1.63.07,3.25.28,4.87.41l2.44.22,2.42.4a77.54,77.54,0,0,1,18.84,5.4c6,2.54,11.61,5.51,17.4,7.73a77.47,77.47,0,0,0,17.91,4.55c3.1.28,6.18.67,9.31.67,1.56,0,3.12.13,4.68.1l4.67-.15a82.1,82.1,0,0,0,18.33-2.75,101.45,101.45,0,0,0,17.33-6.91,106.69,106.69,0,0,1,18.16-7.16,86.7,86.7,0,0,1,19.41-2.86l4.87-.14c1.63,0,3.26.08,4.88.12,3.25,0,6.5.43,9.75.73a80,80,0,0,1,19,4.94c6.1,2.41,11.74,5.48,17.47,7.94a72.85,72.85,0,0,0,17.76,5.27l2.29.4,2.32.24c1.55.14,3.09.35,4.65.43l4.69.16c.79,0,1.57.08,2.35.07l2.35-.06,4.69-.11,4.66-.42c1.56-.09,3.08-.38,4.62-.62l2.3-.37c.77-.12,1.51-.35,2.27-.51a85.08,85.08,0,0,0,17.61-6.27c5.74-2.64,11.62-5.48,17.87-7.33a84,84,0,0,1,19.15-3.32,118.57,118.57,0,0,1,19.31.47,76.48,76.48,0,0,1,18.83,4.36c6.07,2.23,11.7,5.31,17.44,8a81.21,81.21,0,0,0,17.91,6.21l4.68.89c1.57.24,3.15.39,4.73.58.79.09,1.58.2,2.37.26l2.39.12,4.77.24-4.78,0-2.39,0c-.8,0-1.6-.11-2.39-.16-1.59-.14-3.19-.22-4.78-.39l-4.74-.71a82.18,82.18,0,0,1-18.31-5.75c-5.87-2.55-11.55-5.44-17.53-7.43a74.43,74.43,0,0,0-18.44-3.7c-12.52-1-25.38-.32-37.23,3.54-5.94,1.91-11.55,4.7-17.33,7.48a89.88,89.88,0,0,1-18.24,6.79c-.8.18-1.58.43-2.39.57l-2.41.43c-1.6.28-3.21.61-4.83.73l-4.86.5-4.86.19-2.43.09c-.81,0-1.62,0-2.43,0l-4.86-.12c-1.63-.07-3.25-.28-4.87-.41l-2.44-.23-2.42-.39a77.54,77.54,0,0,1-18.84-5.4c-6-2.54-11.62-5.51-17.41-7.73a77.23,77.23,0,0,0-17.91-4.56c-3.09-.28-6.17-.67-9.3-.67-1.56,0-3.12-.13-4.68-.09l-4.68.15a81.51,81.51,0,0,0-18.32,2.74,102.23,102.23,0,0,0-17.33,6.9,107,107,0,0,1-18.16,7.17,86.69,86.69,0,0,1-19.41,2.85l-4.87.14c-1.63,0-3.26-.08-4.88-.11-3.25,0-6.5-.43-9.75-.73a80,80,0,0,1-19-5c-6.1-2.4-11.74-5.47-17.46-7.93a72.64,72.64,0,0,0-17.77-5.28l-2.29-.4-2.32-.23c-1.55-.14-3.09-.35-4.65-.44l-4.69-.16c-.79,0-1.57-.07-2.35-.06l-2.35.05-4.69.11-4.66.42c-1.56.09-3.09.38-4.62.62l-2.3.37c-.77.12-1.52.35-2.27.51a84.88,84.88,0,0,0-17.61,6.27c-5.75,2.64-11.62,5.48-17.88,7.33a83.84,83.84,0,0,1-19.14,3.33,118.57,118.57,0,0,1-19.31-.48,76.59,76.59,0,0,1-18.83-4.36c-6.07-2.22-11.7-5.3-17.44-8a81.76,81.76,0,0,0-17.91-6.22l-4.68-.89c-1.57-.23-3.15-.38-4.73-.57-.79-.09-1.58-.2-2.37-.26l-2.39-.12Z"/><path class="cls-2" d="M3264,1686.5l4.78,0,2.39,0c.8,0,1.6.11,2.39.16,1.59.14,3.19.23,4.78.4l4.74.71a82.18,82.18,0,0,1,18.31,5.75c5.87,2.54,11.55,5.43,17.53,7.42a74.9,74.9,0,0,0,18.44,3.71c12.52,1,25.38.32,37.23-3.54,5.94-1.91,11.56-4.71,17.34-7.48a88.41,88.41,0,0,1,18.23-6.79c.8-.19,1.58-.43,2.39-.57l2.41-.43c1.61-.28,3.21-.61,4.83-.73l4.86-.51,4.86-.19,2.43-.09c.81,0,1.62,0,2.43,0l4.86.13c1.63.07,3.25.28,4.87.41l2.44.22,2.42.4a77.54,77.54,0,0,1,18.84,5.4c6,2.54,11.61,5.51,17.4,7.73a77.47,77.47,0,0,0,17.91,4.55c3.1.28,6.18.67,9.31.67,1.56,0,3.12.13,4.68.1l4.67-.15a82.1,82.1,0,0,0,18.33-2.75,101.45,101.45,0,0,0,17.33-6.91,106.69,106.69,0,0,1,18.16-7.16,86.7,86.7,0,0,1,19.41-2.86l4.87-.14c1.63,0,3.26.08,4.88.12,3.25,0,6.5.43,9.75.73a80,80,0,0,1,19,4.94c6.1,2.41,11.74,5.48,17.47,7.94a72.85,72.85,0,0,0,17.76,5.27l2.29.4,2.32.24c1.55.14,3.09.35,4.65.43l4.69.16c.79,0,1.57.08,2.35.07l2.35-.06,4.69-.11,4.66-.42c1.56-.09,3.08-.38,4.62-.62l2.3-.37c.77-.12,1.51-.35,2.27-.51a85.08,85.08,0,0,0,17.61-6.27c5.74-2.64,11.62-5.48,17.87-7.33a84,84,0,0,1,19.15-3.32,118.57,118.57,0,0,1,19.31.47,76.48,76.48,0,0,1,18.83,4.36c6.07,2.23,11.7,5.31,17.44,8a81.21,81.21,0,0,0,17.91,6.21l4.68.89c1.57.24,3.15.39,4.73.58.79.09,1.58.2,2.37.26l2.39.12,4.77.24-4.78,0-2.39,0c-.8,0-1.6-.11-2.39-.16-1.59-.14-3.19-.22-4.78-.39l-4.74-.71a82.18,82.18,0,0,1-18.31-5.75c-5.87-2.55-11.55-5.44-17.53-7.43a74.43,74.43,0,0,0-18.44-3.7c-12.52-1-25.38-.32-37.23,3.54-5.94,1.91-11.55,4.7-17.33,7.48a89.88,89.88,0,0,1-18.24,6.79c-.8.18-1.58.43-2.39.57l-2.41.43c-1.6.28-3.21.61-4.83.73l-4.86.5-4.86.19-2.43.09c-.81,0-1.62,0-2.43,0l-4.86-.12c-1.63-.07-3.25-.28-4.87-.41l-2.44-.23-2.42-.39a77.54,77.54,0,0,1-18.84-5.4c-6-2.54-11.62-5.51-17.41-7.73a77.23,77.23,0,0,0-17.91-4.56c-3.09-.28-6.17-.67-9.3-.67-1.56,0-3.12-.13-4.68-.09l-4.68.15a81.51,81.51,0,0,0-18.32,2.74,102.23,102.23,0,0,0-17.33,6.9,107,107,0,0,1-18.16,7.17,86.69,86.69,0,0,1-19.41,2.85l-4.87.14c-1.63,0-3.26-.08-4.88-.11-3.25,0-6.5-.43-9.75-.73a80,80,0,0,1-19-5c-6.1-2.4-11.74-5.47-17.46-7.93a72.64,72.64,0,0,0-17.77-5.28l-2.29-.4-2.32-.23c-1.55-.14-3.09-.35-4.65-.44l-4.69-.16c-.79,0-1.57-.07-2.35-.06l-2.35.05-4.69.11-4.66.42c-1.56.09-3.09.38-4.62.62l-2.3.37c-.77.12-1.52.35-2.27.51a84.88,84.88,0,0,0-17.61,6.27c-5.75,2.64-11.62,5.48-17.88,7.33a83.84,83.84,0,0,1-19.14,3.33,118.57,118.57,0,0,1-19.31-.48,76.59,76.59,0,0,1-18.83-4.36c-6.07-2.22-11.7-5.3-17.44-8a81.76,81.76,0,0,0-17.91-6.22l-4.68-.89c-1.57-.23-3.15-.38-4.73-.57-.79-.09-1.58-.2-2.37-.26l-2.39-.12Z"/><path class="cls-2" d="M3455.5,1645l4.78,0,2.39,0c.8,0,1.6.11,2.39.16,1.59.14,3.19.23,4.78.4l4.74.71a82.18,82.18,0,0,1,18.31,5.75c5.87,2.54,11.55,5.43,17.53,7.42a74.9,74.9,0,0,0,18.44,3.71c12.52,1,25.38.32,37.23-3.54,5.94-1.91,11.56-4.71,17.34-7.48a88.41,88.41,0,0,1,18.23-6.79c.8-.19,1.58-.43,2.39-.57l2.41-.43c1.61-.28,3.21-.61,4.83-.73l4.86-.51,4.86-.19,2.43-.09c.81,0,1.62,0,2.43,0l4.86.13c1.63.07,3.25.28,4.87.41l2.44.22,2.42.4a77.54,77.54,0,0,1,18.84,5.4c6,2.54,11.61,5.51,17.4,7.73a77.47,77.47,0,0,0,17.91,4.55c3.1.28,6.18.67,9.31.67,1.56,0,3.12.13,4.68.1l4.67-.15a82.1,82.1,0,0,0,18.33-2.75,101.45,101.45,0,0,0,17.33-6.91,106.69,106.69,0,0,1,18.16-7.16,86.7,86.7,0,0,1,19.41-2.86l4.87-.14c1.63,0,3.26.08,4.88.12,3.25,0,6.5.43,9.75.73a80,80,0,0,1,19,4.94c6.1,2.41,11.74,5.48,17.47,7.94a72.85,72.85,0,0,0,17.76,5.27l2.29.4,2.32.24c1.55.14,3.09.35,4.65.43l4.69.16c.79,0,1.57.08,2.35.07l2.35-.06,4.69-.11,4.66-.42c1.56-.09,3.08-.38,4.62-.62l2.3-.37c.77-.12,1.51-.35,2.27-.51a85.08,85.08,0,0,0,17.61-6.27c5.74-2.64,11.62-5.48,17.87-7.33a84,84,0,0,1,19.15-3.32,118.57,118.57,0,0,1,19.31.47,76.48,76.48,0,0,1,18.83,4.36c6.07,2.23,11.7,5.31,17.44,8a81.21,81.21,0,0,0,17.91,6.21l4.68.89c1.57.24,3.15.39,4.73.58.79.09,1.58.2,2.37.26l2.39.12,4.77.24-4.78,0-2.39,0c-.8,0-1.6-.11-2.39-.16-1.59-.14-3.19-.22-4.78-.39l-4.74-.71a82.18,82.18,0,0,1-18.31-5.75c-5.87-2.55-11.55-5.44-17.53-7.43a74.43,74.43,0,0,0-18.44-3.7c-12.52-1-25.38-.32-37.23,3.54-5.94,1.91-11.55,4.7-17.33,7.48a89.88,89.88,0,0,1-18.24,6.79c-.8.18-1.58.43-2.39.57l-2.41.43c-1.6.28-3.21.61-4.83.73l-4.86.5-4.86.19-2.43.09c-.81,0-1.62,0-2.43,0l-4.86-.12c-1.63-.07-3.25-.28-4.87-.41l-2.44-.23-2.42-.39a77.54,77.54,0,0,1-18.84-5.4c-6-2.54-11.62-5.51-17.41-7.73a77.23,77.23,0,0,0-17.91-4.56c-3.09-.28-6.17-.67-9.3-.67-1.56,0-3.12-.13-4.68-.09l-4.68.15a81.51,81.51,0,0,0-18.32,2.74,102.23,102.23,0,0,0-17.33,6.9,107,107,0,0,1-18.16,7.17,86.69,86.69,0,0,1-19.41,2.85l-4.87.14c-1.63,0-3.26-.08-4.88-.11-3.25,0-6.5-.43-9.75-.73a80,80,0,0,1-19-5c-6.1-2.4-11.74-5.47-17.46-7.93a72.64,72.64,0,0,0-17.77-5.28l-2.29-.4-2.32-.23c-1.55-.14-3.09-.35-4.65-.44l-4.69-.16c-.79,0-1.57-.07-2.35-.06l-2.35.05-4.69.11-4.66.42c-1.56.09-3.09.38-4.62.62l-2.3.37c-.77.12-1.52.35-2.27.51a84.88,84.88,0,0,0-17.61,6.27c-5.75,2.64-11.62,5.48-17.88,7.33a83.84,83.84,0,0,1-19.14,3.33,118.57,118.57,0,0,1-19.31-.48,76.59,76.59,0,0,1-18.83-4.36c-6.07-2.22-11.7-5.3-17.44-8a81.76,81.76,0,0,0-17.91-6.22l-4.68-.89c-1.57-.23-3.15-.38-4.73-.57-.79-.09-1.58-.2-2.37-.26l-2.39-.12Z"/></g></svg>