<?xml version="1.0" encoding="UTF-8"?>
<svg id="Layer_2" data-name="Layer 2" xmlns="http://www.w3.org/2000/svg" viewBox="0 0 162 116.72">
  <defs>
    <style>
      .cls-1, .cls-2 {
        stroke-width: 3px;
      }

      .cls-1, .cls-2, .cls-3, .cls-4 {
        stroke: #3b65ee;
        stroke-linecap: round;
        stroke-linejoin: round;
      }

      .cls-1, .cls-3, .cls-5 {
        fill: none;
      }

      .cls-6 {
        fill: #3b65ef;
      }

      .cls-6, .cls-7 {
        opacity: .2;
      }

      .cls-2, .cls-4, .cls-8 {
        fill: #fff;
      }

      .cls-3, .cls-4, .cls-5, .cls-8 {
        stroke-width: 2px;
      }

      .cls-9, .cls-7 {
        fill: #3b65ee;
      }

      .cls-5, .cls-8 {
        stroke: #3b65ef;
        stroke-miterlimit: 10;
      }
    </style>
  </defs>
  <g id="Layer_2-2" data-name="Layer 2">
    <g>
      <path class="cls-4" d="M96.5,16.61s1-19.94,14-10.94-6,17-6,17c0,0,19-6,12,13s-20,1.46-20,1.46c0,0,9,19.54-7,18.54s-8-19-3-21-15,15-17-1,16.35-6,16.35-6c0,0-25.35-7-8.35-22s19,10.94,19,10.94Z"/>
      <path class="cls-4" d="M29.57,27.35s6.93-15.68,14.93-5.68-8.34,15-8.34,15c0,0,20.11-.72,9.22,14.14s-17.69-5.64-17.69-5.64c0,0-5.19,23.5-21.19,8.5s8.05-16.33,11.02-15.16-19.02-4.84-6.02-20.84,20.14.37,18.07,9.68Z"/>
      <ellipse class="cls-6" cx="121" cy="114.17" rx="41" ry="2"/>
      <path class="cls-6" d="M121.36,110.12s-8.89-3-7.21-11,11.13-18.48,16.12-16.12c5.78,2.73,6.86,15.14,2.72,22.85-3.9,7.27-11.63,4.27-11.63,4.27Z"/>
      <path class="cls-7" d="M57,111.17s14-15.87,17.5-14.93-10.5,15.93-10.5,15.93c0,0,8-6.99,10-4.49s-1.93,4.49-1.93,4.49c0,0,5.74-5,5.84,0,0,0,5.24-4,13.1,2l-44.16.51s7.16-4.51,10.16-3.51Z"/>
      <path class="cls-8" d="M113.67,113.34s-8.58,3.79-12.74-3.24-4.27-21.15,1-22.78c6.11-1.89,15.28,6.53,17.44,15.01,2.03,8-5.69,11-5.69,11Z"/>
      <path class="cls-8" d="M121.59,108.54s-3.74-8.6,3.32-12.72c7.06-4.12,21.17-4.13,22.77,1.15,1.85,6.12-6.63,15.24-15.13,17.34-8.01,1.98-10.97-5.76-10.97-5.76Z"/>
      <path class="cls-3" d="M41.81,115.72s12.69-43.05,39.69-76.05"/>
      <path class="cls-2" d="M101.85,30.39c-1.75,3.45-5.57,5.02-8.52,3.52s-2.58-5.79-.83-9.24,4.22-4.74,7.17-3.24,3.93,5.51,2.18,8.96Z"/>
      <path class="cls-3" d="M44.38,115.72s-2.07-40.98-9.98-60.02"/>
      <path class="cls-1" d="M32.5,36.67c0,3.31-2.46,6-5.5,6s-5.5-2.69-5.5-6,2.96-6,6-6,5,2.69,5,6Z"/>
      <path class="cls-4" d="M41.5,115.67s10-17,25-12c0,0-3,13-25,12Z"/>
      <path class="cls-4" d="M41.17,115.72s-16.67-7.05-15.67-37.05c0,0,25.34,22.11,15.67,37.05Z"/>
      <path class="cls-4" d="M41.5,115.67s13.66-34,27-34c3,0-27,34-27,34Z"/>
      <path class="cls-9" d="M31.41,114.68s-.91-8.01-10.91-14.01"/>
      <path class="cls-9" d="M28.41,114.68s2.59-5.51-9.41-9.51"/>
      <path class="cls-7" d="M38.5,115.61s-12.5-20.44-14.5-17.44,12.5,17.44,12.5,17.44c0,0-15.16-11.9-15.33-7.17s.75,7.17.75,7.17c0,0-5.92-9.44-16.92-.44l33.5.44Z"/>
      <path class="cls-9" d="M70.16,114.68s2.84-7.37,11.34-7.94"/>
      <path class="cls-9" d="M73.31,114.05s4.68-6.36,13.03-4.67"/>
      <path class="cls-9" d="M0,107.72s5.95.82,8.54,7.5"/>
      <path class="cls-9" d="M1,111.23s3.16.43,4.54,3.99"/>
      <polyline class="cls-5" points="98.38 102.75 102 95.17 109.62 96.19 111.33 90.26"/>
      <polyline class="cls-5" points="102.72 111.57 106.51 102.75 113 104.17 117.23 97.2"/>
      <circle class="cls-5" cx="132.5" cy="97.67" r="3.5"/>
      <circle class="cls-5" cx="143.5" cy="101.67" r="3.5"/>
      <circle class="cls-5" cx="131" cy="109.17" r="4"/>
      <path class="cls-7" d="M101.85,30.39c-1.75,3.45-5.57,5.02-8.52,3.52s-2.58-5.79-.83-9.24,4.22-4.74,7.17-3.24,3.93,5.51,2.18,8.96Z"/>
      <path class="cls-7" d="M32.5,36.67c0,3.31-2.46,6-5.5,6s-5.5-2.69-5.5-6,2.96-6,6-6,5,2.69,5,6Z"/>
    </g>
  </g>
</svg>