<?xml version="1.0" encoding="UTF-8"?><svg id="Layer_2" xmlns="http://www.w3.org/2000/svg" viewBox="0 0 166.07 309.11"><defs><style>.cls-1{fill:#0069ff;}.cls-2{fill:#e6e6e6;}.cls-3{fill:#e9f0ff;}.cls-4{fill:#fff;}.cls-5{fill:#c1d5ff;}.cls-6{fill:#dae6ff;}</style></defs><g id="Layer_1-2"><path class="cls-4" d="m156.86,289.32c-9.93,8.15-28.31,12.49-36.45,13.95-28.42,5.12-58.33,4.21-86.2-3.53-8.75-2.43-19.08-5.03-25.97-11.33-4.91-4.47-7.41-11.67-4.24-17.85.07-.12,34.12-66.55,53.11-103.59V52.7c5.33,1.75,14.9,2.93,25.8,2.93s20.47-1.18,25.8-2.93v114.5s52.95,103.26,53,103.36c3.96,7.73,1.04,13.91-4.86,18.75Z"/><path class="cls-1" d="m154.99,287.45c-14.12,11.12-35.56,14.12-52.89,15.62-23.38,2.03-46.69-.19-69.29-6.46-12.59-3.49-33.78-10.57-25.21-27.29,5.09-9.93,10.19-19.87,15.28-29.8,7.57-14.76,15.14-29.53,22.71-44.29,3.72-7.26,7.45-14.53,11.17-21.79,1.41-2.74,2.93-5,2.99-8.05.38-18.83,0-37.71,0-56.54v-56.14l-3.34,2.55c8.46,2.6,17.72,3.02,26.51,3.02s18.05-.42,26.51-3.02l-3.34-2.55v104.09c0,3.61-.81,8.28.37,11.76,1.31,3.87,3.94,7.68,5.8,11.3,9.65,18.82,19.3,37.65,28.96,56.47,4.7,9.16,9.39,18.31,14.09,27.47,1.22,2.37,2.49,4.72,3.65,7.12,3.18,6.59,1.56,11.78-3.94,16.54-2.58,2.23,1.18,5.95,3.74,3.74,5.94-5.15,9.19-12.07,6.24-19.8-.61-1.59-1.45-3.1-2.23-4.61-3.28-6.39-6.55-12.78-9.83-19.17-10.22-19.93-20.44-39.86-30.66-59.79-3.31-6.45-6.62-12.9-9.92-19.35-.31-.6-.58-1.42-1-1.96-.65-.83.08-1.02.04.63.04-1.4,0-2.81,0-4.21V52.7c0-1.67-1.69-3.06-3.34-2.55-8.04,2.47-16.75,2.83-25.1,2.83s-17.07-.36-25.1-2.83c-1.65-.51-3.34.87-3.34,2.55v112.13c0,3.26-1.64,4.72-3.37,8.08-3.98,7.77-7.97,15.53-11.95,23.3-7.85,15.31-15.7,30.63-23.55,45.94-4.53,8.83-9.24,17.58-13.59,26.5-7.72,15.83,8.37,26.38,21.43,30.7,24.63,8.16,50.98,11.16,76.82,9.15,19.55-1.52,42.59-4.81,58.48-17.32,2.67-2.1-1.09-5.82-3.74-3.74Z"/><path class="cls-4" d="m113.2,49.46c0,1.19-1.64,2.3-4.49,3.24-5.33,1.75-14.89,2.93-25.8,2.93s-20.47-1.18-25.8-2.93c-2.85-.94-4.49-2.05-4.49-3.24,0-3.41,13.56-6.17,30.29-6.17s30.29,2.76,30.29,6.17Z"/><path class="cls-1" d="m110.65,48.76c-.66,2.4-10.95,3.21-12.75,3.42-5.6.67-11.26.87-16.9.8s-11.72-.41-17.46-1.44c-1.76-.32-3.54-.66-5.24-1.23-1.52-.51-2.25-1.76-3.16-.29.19-.31.95-.63,1.29-.71,9.83-2.26,19.14-3.54,29.34-3.35,5.53.11,11.11.44,16.56,1.43,1.26.23,8.08,1.14,8.32,2.77.51,3.35,5.6,1.93,5.1-1.4-.54-3.56-5.45-4.91-8.34-5.67-7.28-1.91-15.1-2.34-22.58-2.43s-15.26.28-22.74,1.64c-3.49.63-9.52,1.51-11.52,5.05-5.47,9.68,22.59,10.66,26.7,10.81,8.34.32,16.79.02,25.04-1.3,4.4-.71,12.03-1.62,13.43-6.7.9-3.28-4.19-4.69-5.1-1.4Z"/><ellipse class="cls-4" cx="83.21" cy="103.31" rx="22.72" ry="3.93"/><path class="cls-1" d="m103.23,102.57c.19-.8-1.74.19-2.43.36-1.84.46-3.75.71-5.62.92-3.97.43-7.98.59-11.97.59s-8-.15-11.97-.59c-1.88-.21-3.79-.46-5.62-.92-1.49-.38-2.56-1.53-2.56.38s1.06.76,2.56.38c1.84-.46,3.75-.71,5.62-.92,3.97-.43,7.98-.59,11.97-.59s8,.15,11.97.59c1.88.21,3.79.46,5.62.92.69.17,2.61,1.16,2.43.36.82,3.51,6.23,2.02,5.41-1.49-.73-3.11-4.78-3.97-7.43-4.51-6.18-1.28-12.64-1.51-18.93-1.46-4.23.03-24.59-.99-24.59,6.72,0,7.54,19.49,6.66,23.66,6.72,6.59.09,13.38-.12,19.86-1.46,2.66-.55,6.7-1.4,7.43-4.51.82-3.51-4.58-5.01-5.41-1.49Z"/><path class="cls-2" d="m63.37,61.68c5.9,1.32,12,1.57,18.3,1.57"/><path class="cls-1" d="m62.67,64.23c6.27,1.32,12.61,1.64,19,1.66,3.4.01,3.41-5.27,0-5.28-5.92-.02-11.79-.25-17.6-1.47-3.32-.7-4.74,4.39-1.4,5.1h0Z"/><path class="cls-2" d="m52.92,50.09c1.73,3.17,4.4,7.39,4.08,11.17"/><path class="cls-1" d="m50.64,51.42c1.67,3.03,3.86,6.24,3.72,9.84-.13,3.4,5.15,3.4,5.28,0,.18-4.59-2.31-8.63-4.44-12.51-1.64-2.98-6.21-.32-4.56,2.67h0Z"/><path class="cls-2" d="m108.57,62.34c-.26-3.74,1.58-7.44,3.44-10.53"/><path class="cls-1" d="m111.22,62.34c-.12-3.4,1.38-6.34,3.08-9.19s-2.83-5.59-4.56-2.67c-2.16,3.63-3.94,7.55-3.8,11.86.11,3.39,5.4,3.41,5.28,0h0Z"/><circle class="cls-5" cx="59.56" cy="24.58" r="4.15"/><path class="cls-1" d="m61.07,24.58c-.1,1.94-3.02,1.95-3.02,0s2.91-1.94,3.02,0c.18,3.38,5.47,3.4,5.28,0-.2-3.68-2.96-6.79-6.79-6.79s-6.76,3.11-6.79,6.79,2.99,6.65,6.57,6.78c3.93.15,6.82-3.02,7.02-6.78.18-3.4-5.1-3.39-5.28,0Z"/><circle class="cls-5" cx="74.98" cy="5.61" r="2.97"/><path class="cls-1" d="m75.31,5.61c-.02.42-.65.43-.65,0s.62-.43.65,0c.08,1.43,1.16,2.64,2.64,2.64,1.37,0,2.72-1.21,2.64-2.64-.16-3.03-2.44-5.61-5.61-5.61s-5.57,2.57-5.61,5.61,2.49,5.47,5.45,5.6c3.23.14,5.6-2.53,5.77-5.6.08-1.43-1.27-2.64-2.64-2.64-1.49,0-2.57,1.21-2.64,2.64Z"/><circle class="cls-5" cx="74.39" cy="42.97" r="4.74"/><path class="cls-1" d="m76.49,42.97c-.15,2.7-4.2,2.72-4.2,0s4.06-2.7,4.2,0c.18,3.38,5.47,3.4,5.28,0-.22-4-3.21-7.39-7.39-7.39s-7.36,3.38-7.39,7.39,3.24,7.22,7.13,7.37c4.27.17,7.42-3.28,7.64-7.37.18-3.4-5.1-3.39-5.28,0Z"/><path class="cls-6" d="m155.63,289.7c-9.93,8.15-28.31,12.48-36.45,13.95-28.42,5.12-58.33,4.21-86.2-3.53-8.75-2.43-19.08-5.03-25.97-11.33-4.91-4.46-7.4-11.66-4.24-17.85.07-.12,34.12-66.55,53.11-103.58v-65.32c4.5-1.35,14.35-2.28,25.78-2.28s21.34.94,25.83,2.29v65.53s52.95,103.26,53,103.36c3.96,7.73,1.04,13.92-4.86,18.76Z"/><circle class="cls-5" cx="81.51" cy="143.78" r="4.74"/><path class="cls-1" d="m83.61,143.78c-.15,2.7-4.2,2.72-4.2,0s4.06-2.7,4.2,0c.18,3.38,5.47,3.4,5.28,0-.22-4-3.21-7.39-7.39-7.39s-7.36,3.38-7.39,7.39,3.24,7.22,7.13,7.37c4.27.17,7.42-3.28,7.64-7.37.18-3.4-5.1-3.39-5.28,0Z"/><circle class="cls-5" cx="92.77" cy="155.05" r="1.78"/><path class="cls-1" d="m91.91,155.05c0-.17.12-.46,0-.14.03-.16.1-.3.21-.42.12-.14.13-.16.03-.06-.16.16.27-.15.32-.19.21-.07.2-.08-.03,0l.32-.05c.17,0,.47.12.14,0,.13.04.63.41.47.25s.15.27.19.32c.06.18.07.2.03.06-.05-.2-.04-.12.03.23,0,.17-.12.47,0,.14-.07.21-.16.37-.31.54.28-.32-.16.06-.26.13-.18.06-.2.07-.06.03.14-.04.12-.04-.07,0-.15-.03-.7-.12-.3.02-.21-.07-.37-.16-.54-.31.31.27-.03-.14-.13-.26-.06-.18-.07-.2-.03-.06.05.2.04.12-.03-.23.07,1.38,1.16,2.71,2.64,2.64,1.37-.06,2.72-1.16,2.64-2.64-.13-2.39-1.93-4.42-4.42-4.42s-4.38,2.03-4.42,4.42,2,4.34,4.32,4.42c2.53.09,4.39-2,4.52-4.42.07-1.38-1.27-2.7-2.64-2.64-1.5.07-2.56,1.16-2.64,2.64Z"/><circle class="cls-5" cx="90.4" cy="125.4" r="4.15"/><path class="cls-1" d="m91.91,125.4c-.1,1.94-3.02,1.95-3.02,0s2.91-1.94,3.02,0c.18,3.38,5.47,3.4,5.28,0-.2-3.68-2.96-6.79-6.79-6.79s-6.76,3.11-6.79,6.79,2.99,6.65,6.57,6.78c3.93.15,6.82-3.02,7.02-6.78.18-3.4-5.1-3.39-5.28,0Z"/><path class="cls-1" d="m155.09,287.55c-14.15,11.14-35.62,14.15-52.99,15.66-23.39,2.03-46.72-.19-69.33-6.46-12.7-3.52-33.92-10.67-25.29-27.49,5.09-9.93,10.19-19.87,15.28-29.8,7.57-14.76,15.14-29.53,22.71-44.29,3.72-7.26,7.45-14.53,11.17-21.79,1.4-2.72,2.91-4.95,2.97-7.98.38-18.83,0-37.71,0-56.54v-56.14l-3.16,2.41c8.44,2.6,17.7,3.02,26.47,3.02s18.03-.42,26.47-3.02l-3.16-2.41v104.09c0,3.58-.81,8.23.35,11.69,1.29,3.87,3.94,7.69,5.8,11.3,9.65,18.82,19.3,37.65,28.96,56.47,4.7,9.16,9.39,18.31,14.09,27.47,1.22,2.37,2.49,4.72,3.65,7.12,3.21,6.65,1.59,11.91-3.96,16.71-2.44,2.11,1.11,5.63,3.54,3.54,5.91-5.12,9.14-11.98,6.2-19.66-.6-1.58-1.44-3.08-2.21-4.58-3.28-6.39-6.55-12.78-9.83-19.17-10.22-19.93-20.44-39.86-30.66-59.79-3.31-6.45-6.62-12.9-9.92-19.35-.31-.61-.59-1.4-1-1.96-.62-.83.04-.95.02.56.02-1.4,0-2.81,0-4.21V52.7c0-1.58-1.6-2.89-3.16-2.41-8.05,2.48-16.77,2.84-25.14,2.84s-17.09-.36-25.14-2.84c-1.56-.48-3.16.83-3.16,2.41v112.13c0,3.25-1.71,4.89-3.38,8.15-3.98,7.77-7.97,15.53-11.95,23.3-7.85,15.31-15.7,30.63-23.55,45.94-4.53,8.83-9.24,17.58-13.59,26.5-7.67,15.74,8.38,26.2,21.34,30.49,24.62,8.15,50.95,11.16,76.78,9.14,19.51-1.52,42.52-4.8,58.37-17.28,2.53-1.99-1.03-5.51-3.54-3.54Z"/><ellipse class="cls-3" cx="83.21" cy="103.31" rx="22.72" ry="3.93"/><path class="cls-1" d="m103.23,102.57c.19-.8-1.74.19-2.43.36-1.84.46-3.75.71-5.62.92-3.97.43-7.98.59-11.97.59s-8-.15-11.97-.59c-1.88-.21-3.79-.46-5.62-.92-1.49-.38-2.56-1.53-2.56.38s1.06.76,2.56.38c1.84-.46,3.75-.71,5.62-.92,3.97-.43,7.98-.59,11.97-.59s8,.15,11.97.59c1.88.21,3.79.46,5.62.92.69.17,2.61,1.16,2.43.36.82,3.51,6.23,2.02,5.41-1.49-.73-3.11-4.78-3.97-7.43-4.51-6.18-1.28-12.64-1.51-18.93-1.46-4.23.03-24.59-.99-24.59,6.72,0,7.54,19.49,6.66,23.66,6.72,6.59.09,13.38-.12,19.86-1.46,2.66-.55,6.7-1.4,7.43-4.51.82-3.51-4.58-5.01-5.41-1.49Z"/></g></svg>