<svg width="160" height="92" viewBox="0 0 160 92" fill="none" xmlns="http://www.w3.org/2000/svg">
<g clip-path="url(#clip0_9_155)">
<path d="M159.14 6.45996H12.0399C12.0399 6.45996 18.7899 24.59 69.4299 34.63L159.14 6.45996Z" fill="white" stroke="#3B65EE" stroke-width="1.69" stroke-linecap="round" stroke-linejoin="round"/>
<path d="M12.04 6.45996C12.04 6.45996 11.05 1.95996 6.54995 1.95996C2.04995 1.95996 1.37995 4.03996 0.869953 8.33996C0.359953 12.64 6.95995 24.71 15.75 27.38C15.75 27.38 30.15 41.81 51.51 37.62C51.51 37.62 59.94 48.03 70.06 47.19C70.06 47.19 66 40.31 69.44 34.62C69.44 34.62 28.21 27.8 12.05 6.44996L12.04 6.45996Z" fill="white" stroke="#3B65EE" stroke-width="1.69" stroke-linecap="round" stroke-linejoin="round"/>
<path d="M159.14 6.45996V16.55L70.06 47.2C70.06 47.2 67.13 41.45 69.44 34.63L159.14 6.45996Z" fill="white" stroke="#3B65EE" stroke-width="1.69" stroke-linecap="round" stroke-linejoin="round"/>
<path d="M159.14 16.5499V54.9699L70.0599 90.2699C70.0599 90.2699 68.9399 56.4599 70.0599 47.1999L159.14 16.5499Z" fill="white" stroke="#3B65EE" stroke-width="1.69" stroke-linecap="round" stroke-linejoin="round"/>
<path d="M70.05 47.1999C70.05 47.1999 69.49 81.9099 70.05 90.2699C70.05 90.2699 41.85 80.1399 29.5 73.2799C29.5 73.2799 23.5 69.2799 21.5 61.2799C20.01 55.3099 15.74 27.3799 15.74 27.3799C15.74 27.3799 26.77 40.1199 51.5 37.6199C51.5 37.6199 61.05 49.1499 70.05 47.1899V47.1999Z" fill="white" stroke="#3B65EE" stroke-width="1.69" stroke-linecap="round" stroke-linejoin="round"/>
<path opacity="0.2" d="M159.13 6.45996V16.55L70.05 47.2C70.05 47.2 67.12 41.45 69.43 34.63L159.13 6.45996Z" fill="#3B65EE"/>
<path opacity="0.2" d="M159.13 16.5499V54.9699L70.0499 90.2699C70.0499 90.2699 68.9299 56.4599 70.0499 47.1999L159.13 16.5499Z" fill="#3B65EE"/>
<path opacity="0.2" d="M6.54992 1.96995C6.54992 1.96995 1.63992 27.6799 69.4299 34.6399C69.4299 34.6399 22.8599 27.54 12.0399 6.46995C12.0399 6.46995 10.1999 1.12995 6.54992 1.96995Z" fill="#3B65EE"/>
<path opacity="0.2" d="M68.08 39.0299C68.08 39.0299 55.74 36.1099 53.48 34.6399C51.22 33.1699 47.85 42.7099 70.05 47.2099C70.05 47.2099 66.95 43.7799 68.08 39.0299Z" fill="#3B65EE"/>
<path d="M27.06 39.34C29.03 49.48 29.74 59.65 32.12 69.69C29.61 65.13 28.58 59.9 27.78 54.81C27.08 49.68 26.7 44.51 27.06 39.34Z" fill="#3B65EE"/>
<path d="M42.8999 43.68C43.8799 54.03 44.0099 64.86 45.0399 75.21C41.6899 65.13 41.5699 54.14 42.8999 43.68Z" fill="#3B65EE"/>
<path d="M59.0899 51.71C60.5799 61.12 60.3899 70.6 60.9399 80.08C59.2599 75.58 59.0199 70.72 58.6999 65.98C58.5099 61.22 58.4999 56.46 59.0899 51.72V51.71Z" fill="#3B65EE"/>
<path d="M131.31 48.34C132.089 48.34 132.72 47.7087 132.72 46.93C132.72 46.1512 132.089 45.52 131.31 45.52C130.531 45.52 129.9 46.1512 129.9 46.93C129.9 47.7087 130.531 48.34 131.31 48.34Z" fill="#3B65EE"/>
<path d="M88.04 48.9C88.8187 48.9 89.45 48.2687 89.45 47.49C89.45 46.7112 88.8187 46.08 88.04 46.08C87.2613 46.08 86.63 46.7112 86.63 47.49C86.63 48.2687 87.2613 48.9 88.04 48.9Z" fill="#3B65EE"/>
<path d="M92.53 55.6399C93.3087 55.6399 93.94 55.0087 93.94 54.2299C93.94 53.4512 93.3087 52.8199 92.53 52.8199C91.7513 52.8199 91.12 53.4512 91.12 54.2299C91.12 55.0087 91.7513 55.6399 92.53 55.6399Z" fill="#3B65EE"/>
<path d="M81.03 4.53997C79.35 4.86997 73.25 6.41997 74.76 11.38C74.85 11.67 74.63 11.97 74.32 11.95C72.28 11.81 66.32 11.8 67.19 16.83C67.21 16.96 67.3 17.08 67.42 17.14C69.08 18.02 81.67 24.09 103.14 18.36C103.3 18.32 103.43 18.19 103.46 18.04C103.77 16.5 104.98 8.52997 95.94 9.45997C95.77 9.47997 95.6 9.40997 95.52 9.25997C95.01 8.42997 92.99 5.52997 88.87 4.45997C85.58 3.60997 86.91 2.17997 88.1 1.33997C88.43 1.10997 88.28 0.589974 87.87 0.569974C85.5 0.449974 80.84 0.629974 81.36 4.02997C81.39 4.25997 81.26 4.47997 81.03 4.52997V4.53997Z" fill="white" stroke="#3B65EE" stroke-width="1.12" stroke-miterlimit="10"/>
<path d="M80.15 12.0099C80.15 12.0099 86.61 12.0099 90.49 10.7499Z" fill="white"/>
<path d="M80.15 12.01C83.52 10.9 86.96 10.71 90.49 10.75C87.51 12.75 83.54 12.99 80.15 12.01Z" fill="#3B65EE"/>
<path opacity="0.2" d="M71.8201 18.88C71.8201 18.88 70.4601 15.16 78.2101 15.16C85.9601 15.16 78.2101 10.13 82.0901 8.87998C85.9701 7.61998 89.5701 8.87998 91.0001 12.02C92.4301 15.16 93.7201 12.65 96.3001 13.9C98.8801 15.15 100.79 15.65 99.8401 19.17C99.8401 19.17 79.6401 22.6 71.8201 18.88Z" fill="#3B65EE"/>
</g>
<defs>
<clipPath id="clip0_9_155">
<rect width="159.98" height="91.12" fill="white"/>
</clipPath>
</defs>
</svg>
