<?xml version="1.0" encoding="UTF-8"?>
<svg id="Layer_2" xmlns="http://www.w3.org/2000/svg" viewBox="0 0 172.67 159.24">
  <defs>
    <style>
      .cls-1, .cls-2, .cls-3 {
        fill: #3b65ee;
      }

      .cls-1, .cls-4 {
        stroke-width: 2px;
      }

      .cls-1, .cls-4, .cls-5 {
        stroke: #3b65ee;
        stroke-miterlimit: 10;
      }

      .cls-3 {
        opacity: .2;
      }

      .cls-4, .cls-5 {
        fill: #fff;
      }

      .cls-5 {
        stroke-width: 3px;
      }
    </style>
  </defs>
  <g id="Layer_7">
    <g>
      <path class="cls-5" d="M132.95,83.33c-2.77,40.66-28.26,63.52-35.28,67.91-8,5-22,2-32,1s-8,1-19,2S-1.33,135.24,1.67,77.24s66-39,66-39c0,0,4,1,7,3,8,1,53-28,58,24,.11,1.1.19,2.19.27,3.26"/>
      <path class="cls-2" d="M85.67,40.24c-13,0-43,8-43,8,1.21.05,2.41.08,3.6.08,21.44,0,39.4-8.08,39.4-8.08h0Z"/>
      <path class="cls-1" d="M71.67,39.24s-3-14,4-25c0,0,4-2,5,2,0,0-7,8-9,23Z"/>
      <path class="cls-4" d="M65.67,36.24S68.67-6.76,26.67,2.24c0,0-12,26,39,34Z"/>
      <path class="cls-2" d="M61.67,30.24S54.67,10.24,29.67,4.24c0,0,23,11,32,26Z"/>
      <path class="cls-3" d="M18.67,55.24c-11.06,2.77-17,39,3,71s48,3,42-15-26-15-33-31,4-29-12-25Z"/>
      <path class="cls-3" d="M58.19,36.24s-19.52,4-.52,9,19.04-11,.52-9Z"/>
      <path class="cls-3" d="M26.67,3.24s26,7,39,32c0,0-26.3-3.42-35.15-13.71s-3.85-18.29-3.85-18.29Z"/>
      <path class="cls-4" d="M108.67,70.24s40,2,41-14-3.86-21,4.57-26,17.43,1,17.43,7c0,6-8,9-8,14s-8,38.78-55,32.89c0,0-4-6.89,0-13.89Z"/>
      <path class="cls-2" d="M152.67,41.24s2,5,9,6c0,0-8,3-9-6Z"/>
      <path class="cls-2" d="M149.76,54.51s2.17,5.78,11.54,5.75c0,0-9.45,3.52-11.54-5.75Z"/>
      <path class="cls-2" d="M146.59,61.4s-2.44,5.67,4.33,12.14c0,0-9.25-4.01-4.33-12.14Z"/>
      <path class="cls-2" d="M140.51,66.11s-4.98,4.78-.82,14.41c0,0-7.8-8.17.82-14.41Z"/>
      <path class="cls-2" d="M124.51,69.11s-4.98,4.78-.82,14.41c0,0-7.8-8.17.82-14.41Z"/>
      <path class="cls-2" d="M120.51,72.11s-2.75,2.64-.45,7.96c0,0-4.31-4.51.45-7.96Z"/>
      <ellipse class="cls-2" cx="163.27" cy="33.95" rx="1.66" ry="1.66"/>
      <ellipse class="cls-2" cx="158.3" cy="33.95" rx="1.66" ry="1.66"/>
      <path class="cls-2" d="M167.05,38.26c.38.06.66.44.55.82-.92,3.42-4.28,5.65-7.83,5.07s-6.03-3.77-5.82-7.31c.02-.39.4-.66.78-.6l12.31,2.02Z"/>
      <path class="cls-3" d="M107.67,84.24s2,3,3,9c0,0,16.2-4.42,22.1-9.71,0,0-11.51,2.29-25.1.71Z"/>
      <ellipse class="cls-3" cx="55.17" cy="156.24" rx="52.5" ry="3"/>
    </g>
  </g>
</svg>