<svg width="64" height="64" viewBox="0 0 64 64" fill="none" xmlns="http://www.w3.org/2000/svg">
<path d="M45.9905 33.1399C42.6245 34.1508 39.0785 32.2438 38.0637 28.8816C37.049 25.5195 38.9598 21.9697 42.322 20.9549C45.6842 19.9401 64 21.0736 64 21.0736C64 21.0736 49.3565 32.1289 45.9905 33.1399Z" fill="#09823A"/>
<path d="M38.6918 22.6167C37.409 25.887 33.7137 27.4953 30.4434 26.2125C27.1731 24.9296 25.5648 21.2343 26.8476 17.964C28.1305 14.6938 40.3461 1 40.3461 1C40.3461 1 39.9746 19.3464 38.6918 22.6167Z" fill="#09823A"/>
<path d="M45.1136 29.8581C41.8204 33.1514 36.4746 33.1514 33.1814 29.8581C29.8881 26.5649 29.8881 21.2191 33.1814 17.9258C36.4746 14.6326 58.5815 4.45801 58.5815 4.45801C58.5815 4.45801 48.4069 26.561 45.1136 29.8581Z" fill="#B21936"/>
<path d="M46.0786 15.111L33.2809 27.9087C32.7716 28.418 32.7716 29.2451 33.2809 29.7544C33.7902 30.2637 34.6173 30.2637 35.1266 29.7544L47.9244 16.9567C48.4337 16.4474 48.4337 15.6203 47.9244 15.111C47.415 14.6017 46.5879 14.6017 46.0786 15.111Z" fill="#820B27"/>
<path d="M15.3482 35.7551C18.6415 32.4618 23.9872 32.4618 27.2805 35.7551C30.5737 39.0483 30.5737 44.3941 27.2805 47.6874C23.9872 50.9806 1.88037 61.1552 1.88037 61.1552C1.88037 61.1552 12.0511 39.0522 15.3482 35.7551Z" fill="#B21936"/>
<path d="M27.1768 35.8624C26.9241 35.6097 26.5871 35.4795 26.2539 35.4795C25.9208 35.4795 25.5838 35.6059 25.331 35.8624L12.5333 48.6601C12.024 49.1694 12.024 49.9966 12.5333 50.5059C13.0426 51.0152 13.8698 51.0152 14.3791 50.5059L27.1768 37.7082C27.6861 37.1989 27.6861 36.3679 27.1768 35.8624Z" fill="#820B27"/>
<path d="M33.1814 47.6913C29.8881 44.398 29.8881 39.0522 33.1814 35.759C36.4746 32.4658 41.8204 32.4658 45.1136 35.759C48.4069 39.0522 58.5815 61.1591 58.5815 61.1591C58.5815 61.1591 36.4746 50.9845 33.1814 47.6913Z" fill="#B21936"/>
<path d="M47.9244 48.6562L35.1266 35.8585C34.6173 35.3492 33.7902 35.3492 33.2809 35.8585C32.7716 36.3678 32.7716 37.195 33.2809 37.7043L46.0786 50.502C46.5879 51.0113 47.415 51.0113 47.9244 50.502C48.4337 49.9927 48.4337 49.1655 47.9244 48.6562Z" fill="#820B27"/>
<path d="M27.2805 17.9258C30.5737 21.2191 30.5737 26.5649 27.2805 29.8581C23.9872 33.1514 18.6415 33.1514 15.3482 29.8581C12.055 26.5649 1.88037 4.45801 1.88037 4.45801C1.88037 4.45801 23.9872 14.6288 27.2805 17.9258Z" fill="#B21936"/>
<path d="M14.3791 15.1115C14.1264 14.8587 13.7894 14.7285 13.4562 14.7285C13.1231 14.7285 12.7861 14.8549 12.5333 15.1115C12.024 15.6208 12.024 16.4479 12.5333 16.9572L25.331 29.7549C25.5761 30 25.9055 30.1378 26.2539 30.1378C26.6024 30.1378 26.9317 30.0038 27.1768 29.7549C27.4219 29.506 27.5597 29.1805 27.5597 28.832C27.5597 28.4836 27.4257 28.1542 27.1768 27.9092L14.3791 15.1115Z" fill="#820B27"/>
<path d="M37.3974 26.4463H23.2441V39.9716H37.3974V26.4463Z" fill="#820B27"/>
<path d="M36.5932 23.3021C36.5932 26.8174 33.7441 29.6627 30.2326 29.6627C26.7211 29.6627 23.8721 26.8136 23.8721 23.3021C23.8721 19.7906 30.2326 2.57764 30.2326 2.57764C30.2326 2.57764 36.5932 19.7868 36.5932 23.3021Z" fill="#E82353"/>
<path d="M30.229 29.6625C29.6239 29.6625 29.1338 29.1723 29.1338 28.5673V14.9233C29.1338 14.3183 29.6239 13.8281 30.229 13.8281C30.834 13.8281 31.3242 14.3183 31.3242 14.9233V28.5673C31.3242 29.1723 30.834 29.6625 30.229 29.6625Z" fill="#B21936"/>
<path d="M23.8682 42.3147C23.8682 38.7993 26.7172 35.9541 30.2287 35.9541C33.7402 35.9541 36.5893 38.8031 36.5893 42.3147C36.5893 45.8262 30.2287 63.0391 30.2287 63.0391C30.2287 63.0391 23.8682 45.8262 23.8682 42.3147Z" fill="#E82353"/>
<path d="M30.229 35.9541C30.834 35.9541 31.3242 36.4443 31.3242 37.0493V50.6933C31.3242 51.2983 30.834 51.7885 30.229 51.7885C29.6239 51.7885 29.1338 51.2983 29.1338 50.6933V37.0493C29.1338 36.4404 29.6239 35.9541 30.229 35.9541Z" fill="#B21936"/>
<path d="M39.737 39.1708C36.2217 39.1708 33.3765 36.3218 33.3765 32.8103C33.3765 29.2949 36.2255 26.4497 39.737 26.4497C43.2524 26.4497 60.4615 32.8103 60.4615 32.8103C60.4615 32.8103 43.2524 39.1708 39.737 39.1708Z" fill="#E82353"/>
<path d="M33.3765 32.8066C33.3765 32.2016 33.8666 31.7114 34.4717 31.7114H48.1156C48.7207 31.7114 49.2108 32.2016 49.2108 32.8066C49.2108 33.4117 48.7207 33.9018 48.1156 33.9018H34.4717C33.8666 33.9018 33.3765 33.4117 33.3765 32.8066Z" fill="#B21936"/>
<path d="M20.7245 26.4458C24.2398 26.4458 27.085 29.2948 27.085 32.8064C27.085 36.3217 24.236 39.1669 20.7245 39.1669C17.2091 39.1669 0 32.8064 0 32.8064C0 32.8064 17.2091 26.4458 20.7245 26.4458Z" fill="#E82353"/>
<path d="M27.0849 32.8061C27.0849 33.4112 26.5947 33.9013 25.9897 33.9013H12.3457C11.7406 33.9013 11.2505 33.4112 11.2505 32.8061C11.2505 32.2011 11.7406 31.7109 12.3457 31.7109H25.9897C26.5947 31.7109 27.0849 32.2011 27.0849 32.8061Z" fill="#B21936"/>
<path d="M34.38 33.1358C33.9013 32.6571 33.2733 32.4235 32.6491 32.4273C32.6491 32.412 32.6491 32.4005 32.6491 32.3852C33.2771 32.389 33.9052 32.1554 34.38 31.6768C35.3259 30.7309 35.3259 29.1992 34.38 28.2533C33.4342 27.3075 31.9024 27.3075 30.9566 28.2533C30.4779 28.732 30.2443 29.36 30.2481 29.9842C30.2328 29.9842 30.2213 29.9842 30.206 29.9842C30.2098 29.3562 29.9762 28.7282 29.4976 28.2533C28.5517 27.3075 27.02 27.3075 26.0741 28.2533C25.1283 29.1992 25.1283 30.7309 26.0741 31.6768C26.5528 32.1554 27.1808 32.389 27.805 32.3852C27.805 32.4005 27.805 32.412 27.805 32.4273C27.177 32.4235 26.549 32.6571 26.0741 33.1358C25.1283 34.0816 25.1283 35.6134 26.0741 36.5592C27.02 37.5051 28.5517 37.5051 29.4976 36.5592C29.9762 36.0805 30.2098 35.4525 30.206 34.8283C30.2213 34.8283 30.2328 34.8283 30.2481 34.8283C30.2443 35.4563 30.4779 36.0844 30.9566 36.5592C31.9024 37.5051 33.4342 37.5051 34.38 36.5592C35.3259 35.6134 35.3259 34.0778 34.38 33.1358Z" fill="#FCEE21"/>
</svg>
