<?xml version="1.0" encoding="UTF-8"?><svg id="Layer_1" xmlns="http://www.w3.org/2000/svg" viewBox="0 0 300 500"><defs><style>.cls-1{fill:#0069ff;}.cls-2{fill:#fff;}</style></defs><rect class="cls-2" x="79.03" y="110.92" width="141.94" height="278.17" rx="17.74" ry="17.74"/><path class="cls-1" d="m203.23,386.58h-99.74c-3.48,0-7.38.38-10.76-.56-11.7-3.24-11.21-14.13-11.21-23.58v-80.37c0-34.5,0-68.99,0-103.49v-36.31c0-5.36-.88-11.72.38-17.01,3.51-14.75,20.88-11.85,32.25-11.85,16.88,0,33.76,0,50.64,0,12.37,0,24.75-.08,37.12,0,9.01.06,16.16,5.93,16.56,15.25.06,1.39,0,2.8,0,4.2v72.7c0,34.78,0,69.56,0,104.34,0,20.24.26,40.5,0,60.74-.11,8.77-6.33,15.6-15.24,15.95-3.21.12-3.22,5.13,0,5,11.25-.44,19.88-8.95,20.24-20.25.05-1.49,0-2.99,0-4.49v-133.26c0-30.36,0-60.71,0-91.07,0-5.78.71-12.2-.43-17.92-1.92-9.66-10.55-15.92-20.11-16.18-3.8-.1-7.61,0-11.41,0h-92.44c-12.88,0-22.46,8.37-22.54,21.6-.05,7.75,0,15.5,0,23.25,0,33.08,0,66.16,0,99.23s0,65.08,0,97.62c0,6.89-.15,13.8,0,20.7.16,7.38,3.54,14.19,10.04,18,4.6,2.7,9.47,2.77,14.56,2.77,31.25,0,62.5,0,93.75,0h8.36c3.22,0,3.22-5,0-5Z"/><path class="cls-1" d="m213.89,345.58h-127.79l2.5,2.5v-206l-2.5,2.5h127.79l-2.5-2.5v206c0,3.22,5,3.22,5,0v-206c0-1.35-1.15-2.5-2.5-2.5h-127.79c-1.35,0-2.5,1.15-2.5,2.5v206c0,1.35,1.15,2.5,2.5,2.5h127.79c3.22,0,3.22-5,0-5Z"/><path class="cls-1" d="m136.65,130.87c8.9,0,17.8,0,26.69,0,3.22,0,3.22-5,0-5-8.9,0-17.8,0-26.69,0-3.22,0-3.22,5,0,5h0Z"/><path class="cls-1" d="m159.47,368.08c-.59,10.89-17,10.98-17,0s16.41-10.89,17,0c.17,3.2,5.17,3.22,5,0-.39-7.32-5.86-13.5-13.5-13.5s-13.5,6.16-13.5,13.5,5.8,13.16,12.9,13.47c7.87.34,13.69-5.9,14.1-13.47.17-3.22-4.83-3.21-5,0Z"/></svg>