<svg width="60" height="66" viewBox="0 0 60 66" fill="none" xmlns="http://www.w3.org/2000/svg">
<path d="M0.292889 57.2929C-0.0976349 57.6834 -0.0976349 58.3166 0.292889 58.7071L6.65685 65.0711C7.04737 65.4616 7.68054 65.4616 8.07106 65.0711C8.46159 64.6805 8.46159 64.0474 8.07106 63.6568L2.41421 58L8.07106 52.3431C8.46159 51.9526 8.46159 51.3195 8.07106 50.9289C7.68054 50.5384 7.04738 50.5384 6.65685 50.9289L0.292889 57.2929ZM58 3.72727e-06C58 31.4802 32.4802 57 0.999996 57L0.999996 59C33.5848 59 60 32.5848 60 3.90212e-06L58 3.72727e-06Z" fill="#3F51B5"/>
</svg>
