<?xml version="1.0" encoding="UTF-8"?>
<svg xmlns="http://www.w3.org/2000/svg" xmlns:xlink="http://www.w3.org/1999/xlink" viewBox="0 0 139.16 143.78">
  <defs>
    <style>
      .cls-1 {
        fill: none;
      }

      .cls-2 {
        fill: #3b65ef;
      }

      .cls-3 {
        mix-blend-mode: multiply;
      }

      .cls-3, .cls-4 {
        fill: #3b65ee;
        opacity: .2;
      }

      .cls-5 {
        isolation: isolate;
      }

      .cls-6 {
        fill: #fff;
        stroke: #3b65ef;
        stroke-miterlimit: 10;
        stroke-width: 3px;
      }

      .cls-7 {
        clip-path: url(#clippath);
      }
    </style>
    <clipPath id="clippath">
      <path class="cls-1" d="M50.74,141.71s-46-2-49-42S29.01-2.6,55.74,1.71c31,5,53,62,44,104-8.49,39.6-49,36-49,36Z"/>
    </clipPath>
  </defs>
  <g class="cls-5">
    <g id="Layer_2" data-name="Layer 2">
      <g id="Layer_2-2" data-name="Layer 2">
        <g>
          <ellipse class="cls-4" cx="85.74" cy="135.71" rx="53.5" ry="7.5" transform="translate(-7.47 5.02) rotate(-3.21)"/>
          <path class="cls-6" d="M50.74,141.71s-46-2-49-42S29.01-2.6,55.74,1.71c31,5,53,62,44,104-8.49,39.6-49,36-49,36Z"/>
          <g class="cls-7">
            <g>
              <ellipse class="cls-2" cx="17.27" cy="51.99" rx="19.64" ry="16.93" transform="translate(-37.5 53.17) rotate(-72.85)"/>
              <ellipse class="cls-2" cx="19.54" cy="115.8" rx="18.91" ry="21.01" transform="translate(-59.08 28.56) rotate(-32.44)"/>
              <ellipse class="cls-2" cx="77.82" cy="30.28" rx="19.23" ry="21.32" transform="translate(-3.87 12.97) rotate(-9.3)"/>
              <ellipse class="cls-2" cx="59.87" cy="82.67" rx="17.41" ry="19.24" transform="translate(-41.66 93.18) rotate(-60)"/>
              <ellipse class="cls-2" cx="82.05" cy="122.06" rx="21.38" ry="16.68" transform="translate(-54.67 67.86) rotate(-34.47)"/>
            </g>
          </g>
          <path class="cls-3" d="M89.41,118.24c-13.35,19.05-39.9,22.69-54.07,11.83-12.53-9.61,17.97-13.88,29.99-33.8,12.02-19.92,9.16-56.48,20.91-43.06,14,16,13,51,3.17,65.03Z"/>
        </g>
      </g>
    </g>
  </g>
</svg>