<?xml version="1.0" encoding="UTF-8"?>
<svg id="Layer_2" xmlns="http://www.w3.org/2000/svg" viewBox="0 0 233 44.5">
  <defs>
    <style>
      .cls-1, .cls-2 {
        fill: none;
        stroke: #3b65ee;
        stroke-linejoin: round;
      }

      .cls-3, .cls-4 {
        fill: #3b65ee;
      }

      .cls-5 {
        fill: #fff;
      }

      .cls-4 {
        opacity: .2;
      }

      .cls-2 {
        stroke-width: 2px;
      }
    </style>
  </defs>
  <g id="Layer_7">
    <g>
      <polyline class="cls-5" points="205.5 43.5 3 10 1 8 1 3 3 1 5.55 1.39 208.91 29.64"/>
      <polyline class="cls-5" points="208.91 29.64 232 40 205.5 43.5"/>
      <polygon class="cls-2" points="5.55 1.39 208.91 29.64 202.5 32.5 207.5 36.5 201.42 39 205.5 43.5 3 10 1 8 1 3 3 1 5.55 1.39"/>
      <polyline class="cls-2" points="208.91 29.64 232 40 205.5 43.5"/>
      <path class="cls-2" d="M220.09,34.66s-3.39,1.68-.74,7.01"/>
      <line class="cls-1" x1="202.5" y1="32.5" x2=".5" y2="3.5"/>
      <line class="cls-1" x1="201.42" y1="39" x2=".5" y2="7.5"/>
      <path class="cls-3" d="M197.5,35.5c-20.73-2.66-41.48-6.01-62-10,20.73,2.66,41.49,6.01,62,10h0Z"/>
      <path class="cls-4" d="M230.47,39.31c-.47-.31-29.04-.31-29.04-.31L0,7l3,4,202.5,32.6,26.5-3.6-1.53-.69Z"/>
    </g>
  </g>
</svg>