<svg width="211" height="321" viewBox="0 0 211 321" fill="none" xmlns="http://www.w3.org/2000/svg">
<path d="M191.711 116.72C188.571 100.75 174.681 89.6296 158.871 89.6196C150.301 89.6196 143.501 82.5296 143.901 73.9696C144.121 69.3396 145.031 64.7297 146.631 60.3197L149.481 52.4397C150.771 49.1197 151.631 45.5496 151.951 41.7996C153.681 21.5096 139.251 3.70964 119.721 2.04964C107.271 0.989641 95.7507 6.75964 88.6007 16.3296C88.7207 15.2396 88.7007 14.1297 88.5407 13.0297L88.1007 10.0297C87.8407 8.30965 85.8208 7.49965 84.4608 8.58965C79.2508 12.7396 69.1308 21.5797 67.7008 28.5997C66.4608 34.6997 67.6608 43.0696 68.6808 48.2896C69.2708 51.2996 68.0807 54.3797 65.6007 56.1997L10.0608 96.9296C3.20076 101.96 0.460758 110.9 3.31076 118.91C6.17076 126.92 13.9508 132.11 22.4508 131.66L81.3708 128.57L77.9608 215.66H173.111L191.461 130.71C192.451 126.12 192.621 121.34 191.711 116.72ZM97.7508 89.6196C90.8208 89.6196 83.9108 90.4796 77.1908 92.1696L46.3708 99.9397L77.2008 67.9196C78.1708 66.9096 79.0608 65.8297 79.8708 64.6897C80.4908 63.8097 81.0508 62.8997 81.5608 61.9597C81.4308 65.4897 81.1308 68.5297 80.5608 70.1997L87.3607 67.7896L89.6508 73.3897C92.0308 79.2297 98.5508 82.1996 104.521 80.1596L112.101 77.5797L112.411 81.9497C112.711 86.0997 109.421 89.6297 105.261 89.6297H97.7508V89.6196Z" fill="#E5ECF9" stroke="#3B65EE" stroke-width="2.5" stroke-miterlimit="10" stroke-linecap="round" stroke-linejoin="round"/>
<path d="M108.14 89.0195C107.26 89.4095 106.29 89.6195 105.26 89.6195H97.7504C90.8204 89.6195 83.9104 90.4795 77.1904 92.1695L74.4703 92.8495L67.6504 99.9295L98.4703 92.1595C105.2 90.4795 108.14 89.0195 108.14 89.0195Z" fill="white"/>
<path d="M81.3114 129.71L77.9414 215.67H99.2314L81.3114 129.71Z" fill="white"/>
<path d="M24.5805 118.93C21.7205 110.92 24.4605 101.98 31.3305 96.9501L86.8705 56.2201C89.3505 54.4001 90.5405 51.3201 89.9505 48.3101C88.9305 43.0901 87.7305 34.7101 88.9705 28.6201C90.4005 21.6001 96.9705 15.2801 105.73 8.61013C114.49 1.94013 127.451 3.64016 127.451 3.64016C124.991 2.84016 122.41 2.30015 119.73 2.07015C107.28 1.01015 95.7605 6.78015 88.6105 16.3501C88.7305 15.2601 88.7105 14.1501 88.5505 13.0501L88.1105 10.0501C87.8505 8.33013 85.8305 7.52013 84.4705 8.61013C79.2605 12.7601 69.1405 21.6001 67.7105 28.6201C66.4705 34.7201 67.6705 43.0901 68.6905 48.3101C69.2805 51.3201 68.0905 54.4001 65.6105 56.2201L10.0705 96.9501C3.21052 101.98 0.470524 110.92 3.32052 118.93C6.18052 126.94 13.9605 132.13 22.4605 131.68L37.2605 130.9C31.4705 129.19 26.6905 124.83 24.5805 118.93Z" fill="white"/>
<path d="M170.371 153.01L177.891 193.44L173.091 215.67L160.951 215.35L170.371 153.01Z" fill="#B0C3EA"/>
<path d="M171.541 145.3L160.951 215.35" stroke="#3B65EE" stroke-width="2.5" stroke-miterlimit="10" stroke-linecap="round" stroke-linejoin="round"/>
<path d="M174.171 127.89C174.291 130.59 174.161 133.24 173.941 135.89C173.731 138.54 173.431 141.17 173.031 143.78C172.641 146.4 172.151 149 171.571 151.59C170.991 154.18 170.331 156.76 169.421 159.3C169.301 156.6 169.431 153.95 169.641 151.3C169.861 148.66 170.151 146.02 170.561 143.41C170.951 140.79 171.451 138.19 172.021 135.6C172.601 133.01 173.261 130.43 174.171 127.89Z" fill="#3B65EE"/>
<path d="M38.5604 108.869L60.0404 96.4893L46.3704 99.9393L38.2104 108.419C37.9704 108.659 38.2704 109.039 38.5604 108.869Z" fill="#B0C3EA"/>
<path d="M81.8215 116.62L58.7715 129.77L81.3615 128.59L81.8215 116.62Z" fill="#B0C3EA"/>
<path d="M81.961 113.029C82.371 115.739 82.541 118.439 82.611 121.139C82.691 123.839 82.681 126.529 82.571 129.219C82.471 131.909 82.271 134.589 81.981 137.279C81.691 139.959 81.311 142.639 80.691 145.309C80.281 142.599 80.111 139.899 80.031 137.199C79.951 134.499 79.961 131.809 80.071 129.119C80.171 126.429 80.381 123.749 80.661 121.059C80.971 118.379 81.341 115.699 81.961 113.029Z" fill="#3B65EE"/>
<path d="M34.7305 112.03C36.4005 109.55 38.2405 107.24 40.1505 105C42.0505 102.74 44.0505 100.58 46.0705 98.4496C48.1305 96.3496 50.2105 94.2597 52.3905 92.2797C54.5605 90.2897 56.8005 88.3596 59.2205 86.5996C57.5505 89.0796 55.7105 91.3896 53.8005 93.6396C51.9005 95.8996 49.9005 98.0496 47.8705 100.19C45.8105 102.29 43.7305 104.38 41.5505 106.36C39.3805 108.34 37.1405 110.27 34.7305 112.03Z" fill="#3B65EE"/>
<path d="M60.4615 85.3099L77.2015 67.9199C78.1715 66.9099 79.0615 65.8299 79.8715 64.6899C84.0915 58.7099 85.7715 51.2899 84.5215 44.0699L82.5015 32.3399C82.2015 30.6099 82.5315 28.8399 83.4315 27.3399L86.8315 21.6299C88.3715 19.0499 88.9715 16.0099 88.5315 13.0399L88.0915 10.0399C87.8315 8.31994 85.8115 7.50994 84.4515 8.59994C79.2415 12.7499 69.1215 21.5899 67.6915 28.6099C66.4515 34.7099 67.6514 43.0799 68.6714 48.2999C69.2614 51.3099 68.0715 54.39 65.5915 56.21L58.7715 61.21" fill="#E5ECF9"/>
<path d="M60.4615 85.3099L77.2015 67.9199C78.1715 66.9099 79.0615 65.8299 79.8715 64.6899C84.0915 58.7099 85.7715 51.2899 84.5215 44.0699L82.5015 32.3399C82.2015 30.6099 82.5315 28.8399 83.4315 27.3399L86.8315 21.6299C88.3715 19.0499 88.9715 16.0099 88.5315 13.0399L88.0915 10.0399C87.8315 8.31994 85.8115 7.50994 84.4515 8.59994C79.2415 12.7499 69.1215 21.5899 67.6915 28.6099C66.4515 34.7099 67.6514 43.0799 68.6714 48.2999C69.2614 51.3099 68.0715 54.39 65.5915 56.21L58.7715 61.21" stroke="#3B65EE" stroke-width="2.5" stroke-miterlimit="10" stroke-linecap="round" stroke-linejoin="round"/>
<path d="M68.6617 48.2992C68.7317 48.6792 68.7817 49.0492 68.8017 49.4292C68.9317 52.0592 67.7517 54.6192 65.5817 56.2092L58.7617 61.2092L59.8017 76.0492L82.8917 59.1092C84.8017 54.3792 85.3917 49.1692 84.5117 44.0592L82.4917 32.3292C82.1917 30.5992 82.5217 28.8292 83.4217 27.3292L86.8217 21.6192C87.7917 19.9892 88.3917 18.1792 88.5917 16.3292C88.6217 16.0192 88.6417 15.7092 88.6517 15.3892C88.6517 15.2692 88.6517 15.1592 88.6517 15.0392C88.6517 14.8092 88.6517 14.5792 88.6417 14.3392C88.6417 14.2292 88.6317 14.1292 88.6217 14.0192C88.6017 13.6892 88.5717 13.3592 88.5217 13.0292L88.0817 10.0292C87.8217 8.3092 85.8017 7.4992 84.4417 8.5892C82.4817 10.1492 79.8317 12.3692 77.2117 14.9092C76.7817 15.3292 76.3517 15.7492 75.9217 16.1892C75.6017 16.5192 75.2817 16.8492 74.9717 17.1792C74.2317 17.9692 73.5017 18.7692 72.8117 19.5892C72.6117 19.8192 72.4217 20.0492 72.2317 20.2892C71.8517 20.7592 71.4917 21.2292 71.1417 21.6992C69.4117 24.0492 68.1217 26.4192 67.6717 28.6192C67.5917 28.9992 67.5217 29.3892 67.4717 29.7892C67.2317 31.3792 67.1417 33.0892 67.1517 34.8392C67.1817 39.6292 67.9617 44.7092 68.6617 48.2992Z" fill="white"/>
<path d="M191.711 116.72C188.571 100.75 174.681 89.6296 158.871 89.6196C150.301 89.6196 143.501 82.5296 143.901 73.9696C144.121 69.3396 145.031 64.7297 146.631 60.3197L149.481 52.4397C150.771 49.1197 151.631 45.5496 151.951 41.7996C153.681 21.5096 139.251 3.70964 119.721 2.04964C107.271 0.989641 95.7507 6.75964 88.6007 16.3296C88.7207 15.2396 88.7007 14.1297 88.5407 13.0297L88.1007 10.0297C87.8407 8.30965 85.8208 7.49965 84.4608 8.58965C79.2508 12.7396 69.1308 21.5797 67.7008 28.5997C66.4608 34.6997 67.6608 43.0696 68.6808 48.2896C69.2708 51.2996 68.0807 54.3797 65.6007 56.1997L10.0608 96.9296C3.20076 101.96 0.460758 110.9 3.31076 118.91C6.17076 126.92 13.9508 132.11 22.4508 131.66L81.3708 128.57L77.9608 215.66H173.111L191.461 130.71C192.451 126.12 192.621 121.34 191.711 116.72ZM97.7508 89.6196C90.8208 89.6196 83.9108 90.4796 77.1908 92.1696L46.3708 99.9397L77.2008 67.9196C78.1708 66.9096 79.0608 65.8297 79.8708 64.6897C80.4908 63.8097 81.0508 62.8997 81.5608 61.9597C81.4308 65.4897 81.1308 68.5297 80.5608 70.1997L87.3607 67.7896L89.6508 73.3897C92.0308 79.2297 98.5508 82.1996 104.521 80.1596L112.101 77.5797L112.411 81.9497C112.711 86.0997 109.421 89.6297 105.261 89.6297H97.7508V89.6196Z" stroke="#3B65EE" stroke-width="2.5" stroke-miterlimit="10" stroke-linecap="round" stroke-linejoin="round"/>
<path d="M114.49 45.5595C114.6 40.4895 117.15 36.3695 120.83 35.8195C125.17 35.1695 129.44 39.7295 130.37 45.9895C131.3 52.2495 128.55 57.8595 124.21 58.4995C121.52 58.8995 118.86 57.2995 117 54.5395" fill="#E5ECF9"/>
<path d="M114.49 45.5593C114.28 43.3893 114.59 41.1093 115.59 39.0293C116.11 37.9993 116.82 37.0293 117.76 36.2493C118.69 35.4593 119.91 34.9593 121.17 34.8193C122.44 34.6693 123.74 34.9193 124.86 35.4593C125.99 35.9893 126.97 36.7393 127.81 37.5993C129.46 39.3593 130.53 41.5193 131.16 43.7593C131.76 46.0093 131.91 48.3693 131.57 50.6893C131.15 52.9793 130.33 55.3093 128.6 57.0693C127.75 57.9393 126.7 58.6693 125.5 59.0093C124.31 59.3593 123.03 59.3593 121.89 58.9993C119.59 58.2593 117.97 56.4693 116.99 54.5393C118.42 56.1593 120.21 57.5093 122.18 57.7993C124.14 58.1493 125.98 57.2293 127.16 55.7593C128.35 54.2693 129 52.3293 129.24 50.3593C129.46 48.3793 129.31 46.3393 128.76 44.4093C128.27 42.4793 127.35 40.6493 126.08 39.1893C124.83 37.7293 123.11 36.7193 121.32 36.7493C119.51 36.7493 117.78 37.9393 116.65 39.6393C115.47 41.3293 114.82 43.4093 114.49 45.5593Z" fill="#3B65EE"/>
<path d="M129.56 46.6988C129.56 46.6988 124.82 36.5988 114.67 43.5388C114.67 43.5388 115.49 35.2189 122.52 35.8289C129.56 36.4389 129.56 46.6988 129.56 46.6988Z" fill="white"/>
<path d="M114.49 45.5593C114.28 43.3893 114.59 41.1093 115.59 39.0293C116.11 37.9993 116.82 37.0293 117.76 36.2493C118.69 35.4593 119.91 34.9593 121.17 34.8193C122.44 34.6693 123.74 34.9193 124.86 35.4593C125.99 35.9893 126.97 36.7393 127.81 37.5993C129.46 39.3593 130.53 41.5193 131.16 43.7593C131.76 46.0093 131.91 48.3693 131.57 50.6893C131.15 52.9793 130.33 55.3093 128.6 57.0693C127.75 57.9393 126.7 58.6693 125.5 59.0093C124.31 59.3593 123.03 59.3593 121.89 58.9993C119.59 58.2593 117.97 56.4693 116.99 54.5393C118.42 56.1593 120.21 57.5093 122.18 57.7993C124.14 58.1493 125.98 57.2293 127.16 55.7593C128.35 54.2693 129 52.3293 129.24 50.3593C129.46 48.3793 129.31 46.3393 128.76 44.4093C128.27 42.4793 127.35 40.6493 126.08 39.1893C124.83 37.7293 123.11 36.7193 121.32 36.7493C119.51 36.7493 117.78 37.9393 116.65 39.6393C115.47 41.3293 114.82 43.4093 114.49 45.5593Z" fill="#3B65EE"/>
<path d="M121.499 39.5098C122.089 40.7498 122.479 42.0197 122.809 43.2997C123.129 44.5797 123.389 45.8697 123.569 47.1597C123.749 48.4597 123.849 49.7698 123.889 51.0798C123.919 52.3998 123.889 53.7298 123.649 55.0798C123.059 53.8398 122.659 52.5697 122.339 51.2897C122.019 50.0097 121.759 48.7197 121.589 47.4297C121.409 46.1297 121.309 44.8198 121.269 43.5098C121.229 42.1898 121.269 40.8698 121.499 39.5098Z" fill="#3B65EE"/>
<path d="M104.521 80.1595C105.761 79.1695 107.091 78.4395 108.441 77.7495C109.791 77.0795 111.181 76.5095 112.601 76.0095C114.011 75.5095 115.461 75.0995 116.931 74.7795C118.411 74.4695 119.911 74.2295 121.501 74.2295C120.261 75.2195 118.931 75.9595 117.581 76.6395C116.231 77.3095 114.841 77.8795 113.421 78.3695C112.001 78.8595 110.561 79.2795 109.091 79.5995C107.611 79.8995 106.111 80.1495 104.521 80.1595Z" fill="#3B65EE"/>
<path d="M112.101 77.5801C112.991 79.2101 113.391 81.0301 113.641 82.8301C113.871 84.6401 113.861 86.4501 113.731 88.2501C113.601 90.0501 113.301 91.8201 112.871 93.5701C112.421 95.3101 111.871 97.03 111.001 98.66C110.841 96.82 110.871 95.05 110.921 93.29C110.981 91.53 111.101 89.7901 111.231 88.0601L111.671 82.8701L112.101 77.5801Z" fill="#3B65EE"/>
<path d="M201.93 302.559V232.379C206.05 231.759 209.22 228.209 209.22 223.909C209.22 219.609 206.06 216.069 201.93 215.439V215.329H200.65H43.4098H42.1298V215.439C38.0098 216.059 34.8398 219.609 34.8398 223.909C34.8398 228.209 37.9998 231.749 42.1298 232.379V302.559C38.0098 303.179 34.8398 306.729 34.8398 311.029C34.8398 315.329 37.9998 318.869 42.1298 319.499V319.609H43.4098H200.65H201.93V319.499C206.05 318.879 209.22 315.329 209.22 311.029C209.22 306.729 206.06 303.179 201.93 302.559Z" fill="#E5ECF9" stroke="#3B65EE" stroke-width="2.5" stroke-miterlimit="10" stroke-linecap="round" stroke-linejoin="round"/>
<path d="M166.779 301.809H200.989V274.079C200.989 274.079 195.449 301.809 166.779 301.809Z" fill="#B0C3EA" stroke="#B0C3EA" stroke-width="2.5" stroke-miterlimit="10" stroke-linecap="round"/>
<path d="M60.6398 311.189C60.6398 306.889 63.7998 303.349 67.9298 302.719V232.539C63.8098 231.919 60.6398 228.369 60.6398 224.069C60.6398 219.769 63.7998 216.229 67.9298 215.599V215.489H69.2098H202.21C202.12 215.469 202.02 215.449 201.93 215.429V215.319H200.65H43.4098H42.1298V215.429C38.0098 216.049 34.8398 219.599 34.8398 223.899C34.8398 228.199 37.9998 231.739 42.1298 232.369V302.549C38.0098 303.169 34.8398 306.719 34.8398 311.019C34.8398 315.319 37.9998 318.859 42.1298 319.489V319.599H43.4098H67.6398C63.6598 318.859 60.6398 315.389 60.6398 311.189Z" fill="white" stroke="white" stroke-width="2.5" stroke-miterlimit="10" stroke-linecap="round" stroke-linejoin="round"/>
<path d="M187.449 250.619H56.6094V282.939H187.449V250.619Z" fill="white" stroke="#3B65EE" stroke-width="2.5" stroke-miterlimit="10" stroke-linecap="round"/>
<path d="M201.939 232.39H42.1289V302.57H201.939V232.39Z" stroke="#3B65EE" stroke-width="2.5" stroke-miterlimit="10" stroke-linecap="round" stroke-linejoin="round"/>
<path d="M201.93 302.559V232.379C206.05 231.759 209.22 228.209 209.22 223.909C209.22 219.609 206.06 216.069 201.93 215.439V215.329H200.65H43.4098H42.1298V215.439C38.0098 216.059 34.8398 219.609 34.8398 223.909C34.8398 228.209 37.9998 231.749 42.1298 232.379V302.559C38.0098 303.179 34.8398 306.729 34.8398 311.029C34.8398 315.329 37.9998 318.869 42.1298 319.499V319.609H43.4098H200.65H201.93V319.499C206.05 318.879 209.22 315.329 209.22 311.029C209.22 306.729 206.06 303.179 201.93 302.559Z" stroke="#3B65EE" stroke-width="2.5" stroke-miterlimit="10" stroke-linecap="round" stroke-linejoin="round"/>
<path d="M60.4615 85.3099L77.2015 67.9199C78.1715 66.9099 79.0615 65.8299 79.8715 64.6899C84.0915 58.7099 85.7715 51.2899 84.5215 44.0699L82.5015 32.3399C82.2015 30.6099 82.5315 28.8399 83.4315 27.3399L86.8315 21.6299C88.3715 19.0499 88.9715 16.0099 88.5315 13.0399L88.0915 10.0399C87.8315 8.31994 85.8115 7.50994 84.4515 8.59994C79.2415 12.7499 69.1215 21.5899 67.6915 28.6099C66.4515 34.7099 67.6514 43.0799 68.6714 48.2999C69.2614 51.3099 68.0715 54.39 65.5915 56.21L58.7715 61.21" stroke="#3B65EE" stroke-width="2.5" stroke-miterlimit="10" stroke-linecap="round" stroke-linejoin="round"/>
</svg>
