<?xml version="1.0" encoding="UTF-8"?><svg id="Layer_2" xmlns="http://www.w3.org/2000/svg" viewBox="0 0 2646.2 3745.02"><defs><style>.cls-1{fill:#0069ff;}.cls-2{fill:#eef4ff;}.cls-3{fill:#fff;}.cls-4{fill:#a3c9ff;}</style></defs><g id="Layer_1-2"><rect class="cls-2" x="3.89" y="304.63" width="2572" height="3436.5" rx="61.49" ry="61.49"/><path class="cls-1" d="m2514.39,3737.38c-30.64,0-61.28,0-91.92,0-81.6,0-163.2,0-244.8,0-116.57,0-233.13,0-349.7,0-137.05,0-274.1,0-411.15,0-141.09,0-282.18,0-423.27,0-130.85,0-261.69,0-392.54,0-104.21,0-208.42,0-312.63,0-62.99,0-125.99,0-188.98,0-10.98,0-22.05.38-33.03,0-36.26-1.27-58.56-28.94-58.74-63.46s0-70.34,0-105.51c0-73.5,0-147,0-220.5,0-103.34,0-206.67,0-310.01,0-124.2,0-248.4,0-372.59,0-137.65,0-275.29,0-412.94,0-141.62,0-283.24,0-424.86,0-138.32,0-276.65,0-414.97,0-125.55,0-251.09,0-376.64,0-105.37,0-210.73,0-316.1,0-76.21,0-152.42,0-228.63,0-38.54,0-77.08,0-115.62,0-34.69,19.25-65.53,57.77-67.16,8.52-.36,17.13,0,25.65,0,58.97,0,117.94,0,176.92,0,101.44,0,202.88,0,304.33,0,129.31,0,258.61,0,387.92,0,140.79,0,281.58,0,422.38,0,137.99,0,275.98,0,413.97,0,118.74,0,237.48,0,356.22,0,85.02,0,170.04,0,255.07,0,35.21,0,70.72-1.33,105.91,0,62.91,2.38,58.38,58.54,58.38,102.15,0,56.11,0,112.22,0,168.32,0,90.01,0,180.02,0,270.04,0,114.97,0,229.94,0,344.91,0,132.44,0,264.88,0,397.33,0,140.48,0,280.96,0,421.44s0,282.48,0,423.72c0,132.49,0,264.99,0,397.48,0,116.4,0,232.81,0,349.21,0,91.32,0,182.63,0,273.95,0,57.63,0,115.26,0,172.89,0,44.27,6.66,105.05-57.74,107.55-4.81.19-4.83,7.69,0,7.5,40.12-1.56,65.08-32.95,65.24-71.29.06-12.64,0-25.28,0-37.92,0-56.55,0-113.11,0-169.66,0-90.97,0-181.94,0-272.91,0-116.74,0-233.48,0-350.22,0-133.86,0-267.72,0-401.58,0-142.34,0-284.67,0-427.01,0-142.16,0-284.33,0-426.49,0-133.34,0-266.69,0-400.03,0-115.88,0-231.75,0-347.63,0-89.76,0-179.53,0-269.29,0-55,0-110,0-165.01,0-11.74.08-23.48,0-35.22-.26-37.86-26.29-68.53-65.4-69.74-33.16-1.02-66.51,0-99.68,0-84.74,0-169.49,0-254.23,0-119.15,0-238.3,0-357.44,0-139.52,0-279.05,0-418.57,0-141.92,0-283.83,0-425.75,0-130.17,0-260.35,0-390.52,0-102.01,0-204.02,0-306.03,0-57.99,0-115.99,0-173.98,0-10.7,0-22-.82-32.62.8C19.28,307.19.27,338.9.14,372.86c-.15,36.87,0,73.75,0,110.62,0,75.46,0,150.91,0,226.37,0,105.4,0,210.79,0,316.19,0,126.69,0,253.37,0,380.06,0,139.33,0,278.66,0,417.99,0,143.33,0,286.65,0,429.98s0,277.35,0,416.03c0,125.38,0,250.75,0,376.13,0,103.43,0,206.86,0,310.29,0,72.84,0,145.68,0,218.52,0,33.55-.3,67.12,0,100.67.34,37.84,26.75,67.94,65.56,69.18,9.92.32,19.89,0,29.81,0,61.54,0,123.08,0,184.61,0,104.56,0,209.11,0,313.67,0,131.58,0,263.17,0,394.75,0,142.76,0,285.52,0,428.29,0s276.18,0,414.27,0c117.57,0,235.13,0,352.7,0,81.19,0,162.38,0,243.57,0,29.01,0,58.02,0,87.03,0,4.83,0,4.83-7.5,0-7.5Z"/><rect class="cls-3" x="211.24" y="519.63" width="2179.64" height="3033"/><path class="cls-1" d="m2390.89,3548.88H244.23c-8.92,0-20.5-1.99-29.25,0-1.12.26-2.57,0-3.74,0l3.75,3.75V565.35c0-13.1,1.73-27.55,0-40.56-.22-1.66,0-3.48,0-5.16l-3.75,3.75h737.66c104.25,0,208.5,0,312.74,0s211.47,0,317.21,0h779.04c8.92,0,20.5,1.99,29.25,0,1.12-.26,2.57,0,3.74,0l-3.75-3.75v2909.88c0,39.31-.44,78.65,0,117.96.02,1.72,0,3.44,0,5.16,0,4.83,7.5,4.83,7.5,0V642.75c0-39.31.44-78.65,0-117.96-.02-1.72,0-3.44,0-5.16,0-2.03-1.72-3.75-3.75-3.75H299.98c-28.02,0-57.04-2.18-85,0-1.23.1-2.51,0-3.74,0-2.03,0-3.75,1.72-3.75,3.75v2909.88c0,39.31-.44,78.65,0,117.96.02,1.72,0,3.44,0,5.16,0,2.03,1.72,3.75,3.75,3.75h2090.9c28.02,0,57.04,2.18,85,0,1.23-.1,2.51,0,3.74,0,4.83,0,4.83-7.5,0-7.5Z"/><path class="cls-3" d="m2390.39,523.13c-1.21,433.54-14.05,879.54,3.87,1310.57,14.96,359.76,9.33,702.86,73.28,1055.53,21.27,117.3,44.02,235.62,78.74,351.27,22.75,75.76,93.69,156.09,96.17,233.41-141.86-4.68-291.12,22.11-432.58,28.86-163.59,7.8-328.84-4.58-491.34,3.27-365.25,17.63-729.05,5.71-1095.12,5.71-135.53,0-211.02,2.38-342.02-.62,1.05-299.41-60.51-617.36-76.39-917.15-16.89-318.92-21.55-636.56-7.35-957.26,14.2-320.6,29.44-645.09,29.76-966.08.07-68.53-1.56-148.55-1.03-148.51,15,1,46.22-.11,92.29.15,93.92.51,266.52-2.65,361.21-2.65,212.33,0,341.16,37.49,553.24,39.37,200.84,1.78,413.23-39.56,613.76-39.37,98.77.09,189.24,4.12,288,3,65.79-.75,201.05-6.34,255.5.5"/><path class="cls-1" d="m2386.64,523.13c-.58,199.14-3.52,398.27-4.89,597.41-1.37,200.09-1.2,400.24,4.74,600.27,5.84,196.34,11.64,392.86,19.84,589.12s22.97,388.68,57.58,580.29c17.53,97.06,36.1,194.08,61.33,289.48,10.99,41.56,22.5,81.85,42.07,120.24s42.41,74.42,57.81,114.34c7.4,19.19,12.57,39.02,13.57,59.61l3.75-3.75c-152.67-4.6-303.7,24.3-455.96,29.84-155.96,5.67-312.03-4.94-467.96,2.29-319.17,14.8-638.59,8.22-957.94,6.19-159.72-1.02-319.51,2.49-479.2-1.09l3.75,3.75c.4-179.13-20.29-357.41-40.53-535.13-10.27-90.2-20.57-180.43-28.15-270.91-7.57-90.32-11.56-180.91-15.14-271.47-7.44-188-10.22-376.2-7.01-564.32,3.21-188.15,13.86-376.08,21.46-564.09,7.59-187.79,13.67-375.67,15.09-563.62.33-43.93.42-87.85.03-131.78-.14-16.4-.33-32.79-.53-49.19-.12-10.03,2.71-25.47-.33-35.11-1.39-4.4-1.52-.33.44.57,3.81,1.73,12.12.22,16.27.22,16.71,0,33.43-.27,50.14-.31,32.38-.08,64.76.1,97.14-.12,145.08-.97,290.99-7.9,435.79,3.68,74.88,5.99,149.34,16.05,224.09,23.25,85.48,8.23,171.29,12,257.13,8.67,179.01-6.94,356.48-38.06,535.85-38.1,90.11-.02,180.19,3.64,270.31,3.15,65.35-.36,130.66-3.28,196.02-2.99,25.71.12,51.62.28,77.17,3.34,4.78.57,4.74-6.93,0-7.5-54.87-6.56-111.39-3.49-166.49-2.34-67.29,1.41-134.45,2.41-201.76,1.34-82.46-1.31-165.02-4.39-247.47-.94-83.14,3.48-165.97,12.06-248.76,20.11-80.76,7.85-161.65,15.39-242.81,17.31-78.15,1.85-156.28-2.4-234.04-10.02-68.2-6.68-136.16-15.65-204.44-21.55-70.56-6.1-141.09-7.71-211.88-7.23-72.44.5-144.88,1.56-217.32,2.15-31.16.25-62.31.45-93.47.32s-63.85,1.69-95.56-.16c-1.6-.09-3.23,1.23-3.62,2.75-1.48,5.87-.2,13.27-.14,19.24.17,16.74.39,33.49.57,50.23.48,45.4.54,90.79.26,136.19-.64,101.78-2.67,203.56-5.59,305.3-5.87,204.62-15.52,409.08-24.36,613.58-8.82,204.14-10.04,408.56-5.24,612.83,4.7,199.96,14,399.54,35.51,598.45s47.65,387.23,52.97,582.2c.65,23.99.94,47.98.89,71.97,0,2.06,1.72,3.7,3.75,3.75,139.84,3.14,279.72.21,419.58.78,158.76.64,317.5,2.98,476.26,3.62,160.61.64,321.27-.47,481.77-6.87,78.23-3.12,156.18-5.81,234.5-5.13,78.15.68,156.31,2.7,234.47,1.64,86.54-1.16,172.34-8.62,258.4-17.22,85.1-8.5,170.47-16.62,256.09-14.04,1.96.06,3.85-1.77,3.75-3.75-3.88-80.34-62.73-144.98-90.5-217.5-16.93-44.22-27.16-92.03-38.04-138.03-11.36-48.04-21.34-96.41-30.66-144.88-37.5-195.08-59.59-391.07-69.73-589.42-10.02-195.83-13.41-391.99-20.74-587.93-7.47-199.61-8.61-399.41-7.71-599.14.9-199.43,3.9-398.84,5-598.27.14-25.2.25-50.4.32-75.6.01-4.83-7.49-4.83-7.5,0h0Z"/><polygon class="cls-4" points="738.27 395.13 1846.27 395.13 1846.27 308.13 1288.27 215.13 738.27 305.13 738.27 395.13"/><path class="cls-1" d="m738.27,398.88h29.84c26.82,0,53.65,0,80.47,0,39.77,0,79.54,0,119.31,0h304.44c53.82,0,107.64,0,161.46,0,49.84,0,99.68,0,149.52,0h217.98c14.36,0,28.74.26,43.09,0,.63-.01,1.26,0,1.88,0,2.03,0,3.75-1.72,3.75-3.75v-87c0-1.5-1.15-3.35-2.75-3.62-18.38-3.06-36.75-6.13-55.13-9.19-44-7.33-88-14.67-132-22-53.36-8.89-106.73-17.79-160.09-26.68-46.59-7.77-93.18-15.53-139.77-23.3-23.2-3.87-46.37-7.88-69.59-11.6-3.49-.56-6.85.33-10.33.9-10.91,1.78-21.81,3.57-32.72,5.35-41.36,6.77-82.73,13.54-124.09,20.31-53.04,8.68-106.09,17.36-159.13,26.04-48.08,7.87-96.17,15.74-144.25,23.61-26.42,4.32-52.84,8.65-79.25,12.97-1.21.2-2.42.4-3.63.59-1.6.26-2.75,2.1-2.75,3.62v90c0,4.83,7.5,4.83,7.5,0v-90l-2.75,3.62c18.49-3.03,36.98-6.05,55.46-9.08,44.3-7.25,88.6-14.5,132.91-21.75,53.2-8.71,106.4-17.41,159.6-26.12,45.89-7.51,91.78-15.02,137.66-22.53,14.71-2.41,29.43-4.82,44.14-7.22l13.31-2.18c1.92-.31,4.64-.26,6.43-1.05,1.27-.56-1.12.15-1.39-.06.32.24,1.24.19,1.62.27,2.85.58,5.76.96,8.63,1.44,12.16,2.03,24.31,4.05,36.47,6.08,42.47,7.08,84.94,14.16,127.41,21.24,53.02,8.84,106.05,17.67,159.07,26.51,47.72,7.95,95.44,15.91,143.15,23.86,25.98,4.33,51.96,8.66,77.94,12.99,1.19.2,2.39.4,3.58.6l-2.75-3.62v87l3.75-3.75h-29.84c-26.82,0-53.65,0-80.47,0-39.77,0-79.54,0-119.31,0h-304.44c-53.82,0-107.64,0-161.46,0-49.84,0-99.68,0-149.52,0h-217.98c-14.36,0-28.74-.26-43.09,0-.63.01-1.26,0-1.88,0-4.83,0-4.83,7.5,0,7.5Z"/><path class="cls-4" d="m1806.32,444.61c-26.93-6.46-55.04-5.46-82.76-6.5-70.71-2.64-153.4-18.87-188.34-86.31-12.79-24.69-17.51-52.49-26.31-78.79-17.85-53.37-60.45-82.2-115.58-87.88,19.42-31.39,23.99-71.34,8.82-108.06-25.08-60.68-94.61-89.55-155.3-64.46-60.68,25.08-89.54,94.61-64.46,155.29,2.51,6.07,5.46,11.82,8.81,17.23-55.12,5.69-97.72,34.52-115.57,87.88-8.8,26.3-13.52,54.1-26.31,78.79-34.94,67.44-117.63,83.67-188.34,86.31-27.71,1.04-55.83.04-82.76,6.5-76.03,18.22-87.68,97.16-89.44,162.52h1206.98c-1.75-65.36-13.41-144.3-89.44-162.52Zm-514.48-270.27c-30.65,0-55.5-24.85-55.5-55.5s24.85-55.5,55.5-55.5,55.5,24.85,55.5,55.5-24.85,55.5-55.5,55.5Z"/><path class="cls-1" d="m1807.32,440.99c-39.35-9.13-80.43-4.78-120.38-9.32-32.66-3.72-65.87-11.33-94.75-27.54-14.15-7.94-27.04-18-37.65-30.32-12.45-14.44-20.65-31.57-26.58-49.57-6.4-19.42-10.39-39.68-17.79-58.77-5.72-14.75-13.73-28.5-24.25-40.35-23.71-26.71-57.69-39.98-92.58-43.74l3.24,5.64c20.78-34.22,24.1-76.59,8.16-113.42-12.86-29.7-37.33-53.16-67.34-65.14-62.18-24.82-134.46,6.98-159.13,68.92-14.31,35.92-10.27,76.71,9.71,109.64l3.24-5.64c-46.32,5-88.81,27.62-110.6,70.14-13.17,25.7-17.08,54.88-27.18,81.75-9.28,24.69-24.77,45.99-46.24,61.43-39.12,28.14-89.47,36.63-136.56,39.21-51.47,2.83-111.18-3.48-148.39,39.78-31.04,36.09-35.92,87.82-37.2,133.43-.06,2.03,1.76,3.75,3.75,3.75h32.5c29.22,0,58.44,0,87.66,0,43.32,0,86.65,0,129.97,0h331.63c58.63,0,117.26,0,175.89,0,54.29,0,108.59,0,162.88,0h237.45c15.64,0,31.31.28,46.94,0,.68-.01,1.37,0,2.05,0,1.99,0,3.81-1.72,3.75-3.75-1.41-50.5-7.58-111.56-49.84-145.7-12.41-10.02-26.92-16.63-42.36-20.44-4.69-1.16-6.68,6.07-1.99,7.23,25.84,6.38,47.43,21.36,61.36,44.17,13.1,21.45,19.15,46.65,22.27,71.36,1.82,14.39,2.65,28.88,3.05,43.37l3.75-3.75h-32.5c-29.22,0-58.44,0-87.66,0-43.32,0-86.65,0-129.97,0h-331.63c-58.63,0-117.26,0-175.89,0-54.29,0-108.59,0-162.88,0h-268.25c-5.29,0-10.87-.5-16.14,0-.67.06-1.38,0-2.05,0l3.75,3.75c1.14-40.67,4.97-85.53,28.76-120.03,12.25-17.76,30.05-30.54,50.64-36.89,30.24-9.31,62.64-7.12,93.85-8.56,45.49-2.09,93.28-9.25,133.14-32.65,19.1-11.22,35.75-26.39,47.74-45.09,15.71-24.49,21.4-53.3,29.69-80.76,7.83-25.94,20.6-49.41,42.09-66.51s46.66-24.95,72.76-27.77c2.7-.29,4.84-3,3.24-5.64-16.71-27.54-21.79-60.73-13.04-91.84,8.14-28.93,27.57-53.98,53.69-68.87,54.21-30.9,125.37-12,156.72,42.06,21.35,36.8,20.26,82.44-1.72,118.65-1.61,2.64.54,5.35,3.24,5.64,31.88,3.43,62.96,15.5,85.19,39.25,11.21,11.98,19.68,26.39,25.32,41.76,7.13,19.41,11.18,39.81,17.89,59.37,11.09,32.32,30.7,59,59.78,77.26,27.41,17.22,59.45,26.07,91.23,30.79,17.98,2.67,36.12,4.08,54.28,4.67,26.2.84,52.59.28,78.3,6.25,4.7,1.09,6.7-6.14,1.99-7.23Z"/><path class="cls-1" d="m1291.84,170.59c-21.55-.26-41.43-13.68-48.71-34.21-7.28-20.51-.87-43.77,15.94-57.61,16.69-13.74,40.97-15.4,59.45-4.28,18.37,11.05,28.33,33.11,24.15,54.21-4.81,24.26-26.23,41.59-50.82,41.89-4.82.06-4.84,7.56,0,7.5,24.61-.3,46.68-15.42,55.49-38.48,8.91-23.34,1.41-50.82-17.91-66.55-19.17-15.62-46.77-17.84-68.04-5.04s-32.22,37.76-27.72,62.02c5.16,27.81,30.22,47.72,58.18,48.06,4.83.06,4.83-7.44,0-7.5Z"/></g></svg>