<?xml version="1.0" encoding="UTF-8"?><svg id="Layer_1" xmlns="http://www.w3.org/2000/svg" viewBox="0 0 300 320"><defs><style>.cls-1{fill:#0069ff;}.cls-2{fill:#fff;}</style></defs><path class="cls-2" d="m177,301c2.28-3.32-.55-11.98-.04-17.85.77-8.79,3.29-19.54,6.66-27.6,5.9-14.14,28.8-12.54,36.54-26.73,5.22-9.57,6.42-18.35,13.64-26.61s13.7-13.77,22.92-18.34c6.87-3.41,15.26-6.31,19.14-13.56,4.65-8.67-6.86-12.24-14.6-11.31-10.88,1.3-19.4,11.65-28.42,16.82-7.59,4.35-16.25,7.56-24.61,8.46-.03.25.07.42.29.51-7.65-.9-17.3-13.59-18.03-20.83-1.17-11.58,7.49-18.27,8.11-28.13-.41,11.07-5.74,27.43-1.47,38.5-4.15-16.51.49-32.71,6.84-47.82,7.78-18.51,10.53-38.67,16.11-57.95,1.2-4.14,9.34-30.7-2.5-26.15-5.24,2.01-9.36,13.6-11.83,18.43-7.23,14.13-10.21,29.15-15.05,44.17-3.91,12.13-5.8,36.73-23.71,32.99-11.71-2.45-11.94-6.81-13-17-1.12-10.76,1.5-20.02,2-31,.65-14.23,11.95-60.8-4.64-69.87-10.19,7.87-8.4,29.75-8.91,41.71s-1.18,24.43-1.53,36.67c-.21,7.47,1.66,55.34-19.66,40.7-7.97-5.48-11.14-19.82-13.94-28.57-4.81-15.03-8.78-30.23-13.2-45.23-1.73-5.87-4.15-23.71-12.79-24.16-10.14-.53-1.72,34.51.21,42.54,3.19,13.31,6.85,26.57,10.48,39.79,1.62,5.91,7.02,17.38,5.07,23.69-2.49,8.11-12.62,9.58-19.14,6.71-6.52-2.88-12.68-11.24-17.79-16.38s-30.1-39.75-36.71-30.27c-.63.91-.34,5.05-.05,6.03,1.14,3.88,7.99,9.48,10.53,12.43,3.34,3.89,6.63,7.76,9.82,11.77,7.1,8.91,15.35,16.93,22.63,25.69,7.9,9.5,12.08,21.37,15.91,33.06s8.73,23.27,13.67,34.8,12.28,21.87,16.78,33.47c4.24,10.9,3.91,23.27,3.52,34.83,19.67.02,38.74.6,58.27,1.74"/><path class="cls-2" d="m185.63,306.05c4.4-8.43.4-17.74,1.79-26.71.79-5.09,2.03-10.15,3.61-15.06,1.34-4.15,2-6.24,4.81-8.38,4.07-3.1,12.77-5.74,18.45-8.71,8.46-4.43,13.74-10.93,17.49-19.59,1.92-4.44,3.48-9.08,5.81-13.34s5.74-7.92,9.31-11.36c6.83-6.56,14.8-10.03,23.06-14.36s17.3-12.25,16.94-22.46-10.6-15.99-20.02-17.01c-10.91-1.19-20.22,4.1-28.56,10.52-9,6.92-18.5,13.24-30.09,14.69-7.29.92-12.76,7.84-8.63,15.05l.29.51,11.29-14.69c-2.72-.49-4.91-2.52-7.2-5.47-2.15-2.76-3.62-5.63-3.59-8.02.05-3.73,1.99-7.03,3.55-10.31,2.44-5.14,4.09-9.84,4.66-15.52h-20c-.72,13.72-5.82,27.59-1.11,41.16,4.2,12.09,22.22,7.33,19.29-5.32-4.39-18.91,4.94-35.34,10.63-52.75,5.26-16.08,8.09-32.84,12.73-49.1,2.46-8.63,5.55-19.05,2.87-27.94-2.03-6.72-8.33-10.77-15.25-9.73-7.51,1.13-12.35,7-15.75,13.37-7.74,14.47-13.04,29.85-17.56,45.57-1.87,6.51-3.95,12.93-5.57,19.5-.64,2.59-1.29,5.18-2.06,7.74-.98,3.23-1.21,4.05-2.45,6.34-.53.98-1.08,2-1.79,2.87,1.44-1.77-2.18,1.82-.27.2-.25.21-.83.6-1.15.66-1.47.31,1.42-.29-.13-.06-1.2.18.18,0,.3,0-.04,0-2.37-.08-1.87-.02-.56-.07-3.09-.73-4.21-1.19-.11-.04-1.18-.94-.15.01-.31-.29-1.46-1.3.05.2-.62-.62-.07-1.3,0,.2-.05-1.13-.64-2.43-.83-3.57.26,1.55-.28-2.68-.31-2.99-.19-2.16-.29-4.31-.26-6.48.07-4.79.73-9.54,1.31-14.29.71-5.82.95-11.66,1.69-17.48.02-.13.21-1.59.06-.46-.17,1.31.17-1.25.21-1.49.21-1.52.42-3.05.63-4.57.49-3.63.99-7.27,1.41-10.91.76-6.52,1.34-13.08,1.31-19.65-.06-12.46-2.22-27.25-13.95-34.17-4.11-2.42-8.68-1.31-12.12,1.56-9.36,7.82-10.97,21.51-11.5,32.89-.64,13.64-.9,27.32-1.46,40.97-.33,8.06-.28,16.12-.61,24.18-.07,1.71-.16,3.42-.29,5.12-.08,1.03-.17,2.06-.27,3.09-.07.66-.41,3.27-.13,1.32-.27,1.86-.59,3.7-1.02,5.53-.19.8-.39,1.6-.62,2.39-.17.58-1.1,3.24-.63,2.08.51-1.26-.4.73-.55,1.06-.85,1.81-1.16.54-.05.37-.12.02-.52.55-.61.65-.69.75.92-.63.93-.64-1.91.77.37-.04.15.04.66-.23.79-.28,2.08.09-.68-.19-1.35-.33-2.01-.58,1.77.66.06,0-.59-.52-.75-.59-1.42-1.08-2.25-2.21-2.81-3.84-4.33-9.21-5.75-13.84-2.16-7.06-4.37-14.11-6.45-21.2-3.87-13.24-7.52-26.54-11.07-39.86-2.81-10.54-9.02-24.02-22.13-22.55-21.21,2.38-11.46,38.12-8.57,50.76,3.16,13.83,6.94,27.52,10.7,41.2,1.59,5.78,3.95,11.34,5.37,17.16.14.56.51,2.51.5,2.39.05.57-.29,3.02-.02,1.66.15-.77-.35.31-.45.33,1.19-.19-1.33.37-1.74.43-.47.07-2.32-.06-3.56-.63-2.35-1.08-4.74-3.76-6.65-5.76-3.22-3.38-6.45-6.81-9.5-10.34-5.27-6.1-10.19-12.47-15.73-18.34s-13.58-14.33-22.65-14.56c-13.27-.34-17.34,15.02-11.27,24.9,3.05,4.97,7.79,8.62,11.6,12.96,5.54,6.31,10.61,13.01,16.2,19.27,5.28,5.9,11.02,11.52,15.88,17.78,4.16,5.35,7.15,11.67,9.51,17.99,5.76,15.36,11.02,30.72,17.51,45.81,6.12,14.23,16.86,27.37,19.22,42.96,1.1,7.24.7,14.74.46,22.02-.18,5.41,4.72,9.99,10,10,19.44.04,38.86.63,58.27,1.74,12.86.74,12.82-19.26,0-20-19.41-1.11-38.83-1.71-58.27-1.74l10,10c.52-16.06-.42-30.85-7.36-45.59-3.17-6.74-7.03-13.13-10.47-19.74s-6.22-13.45-9.02-20.3c-5.77-14.16-9.58-29.19-16.36-42.92s-17.91-23.67-27.64-34.86c-5.46-6.29-10.32-13.16-16.16-19.11-1.86-1.89-3.89-4.42-5.83-5.95-1.05-.83-.38-.75-.27.94-.03-.41.06-1.2-.09-1.58-.38-.97-.41.76,0-.33l-2.57,4.41c1.36-1.74-2.69,1.27-3.87,1.3-2.39.06-1.91-.16-.84-.02,1,.13-1.95-1.36-.37-.14.98.76,2.16,1.31,3.17,2.05-1.64-1.22,1.51,1.37,2.08,1.89,4.99,4.59,9.44,9.78,13.79,14.97,3.16,3.77,6.2,7.63,9.58,11.21,7.17,7.58,14.09,16.84,24.92,19.04,9.89,2.01,21.03-1.43,26.04-10.69s1.29-19.35-1.82-28.38c-6.17-17.86-10.72-36.81-14.45-55.34-1.46-7.25-2.41-11.61-2.33-18.98,0-.88.51-4.35,0-1.93.11-.54.52-1.49.49-2.03.02.5-1.22,1.76-.27.77-2.11,2.18-3.23,2.96-6.32,3.07-.27,0-1.38-.8-1.58-.76.76.83.82.88.2.16.28.42.54.86.77,1.3.91,1.98,2.05,5.22,2.87,8.44.98,3.84,1.88,7.66,2.99,11.47,3.65,12.57,7.03,25.21,10.92,37.71,4.82,15.5,9.45,38.57,28.53,42.04,15.27,2.78,22.16-12.26,24.16-24.76,2.31-14.41,1.68-29.21,2.31-43.75.49-11.3.88-22.58,1.18-33.89.12-4.35.29-8.76,1.14-12.73,1-4.73,1.64-6.75,4.62-9.24l-12.12,1.56c1.54.91.05-.02-.17-.3.28.37.79.69,1.1,1.03,1.04,1.14-.47-1.31.52.8.28.6,1.21,2.81.58,1.04.41,1.15.75,2.31,1.03,3.5.74,3.11.59,2.31.82,5.88.18,2.78.19,5.58.12,8.37-.33,12.22-2.04,21.83-3.52,33.23-.7,5.36-.91,10.74-1.53,16.11-1,8.62-1.94,16.9-.94,25.58.71,6.17,1.68,12.46,6.35,17.03s12.43,7.15,19.11,7.34c13.84.39,21.7-10.84,25.66-22.66,4.25-12.67,7.19-25.93,11.03-38.74,2.35-7.87,5.23-15.28,8.72-22.7,1.17-2.5,2.24-5.04,3.5-7.5.75-1.48,1.52-3,2.47-4.36.62-.88,1.43-1.14.7-.97-2.2.51-3.12.53-5.16-.72-1.55-.95-1.62-1.68-2.71-2.82-.55-.57-.37-.82-.08-.07.56,1.47,0-.18-.03-.59.03.52.08,1.05.06,1.57-.05,1.15-.09,2.3-.2,3.45.19-1.97-.14.86-.25,1.46-.19,1.06-.41,2.12-.64,3.18-.46,2.09-1,4.17-1.58,6.23-4.83,17.32-7.91,35.2-13.7,52.24-3.23,9.51-7.62,18.51-9.85,28.36-2.51,11.08-2.78,22.2-.21,33.3l19.29-5.32c-3.92-11.28,1.22-24.34,1.82-35.84.28-5.4-4.8-10-10-10-5.86,0-9.46,4.6-10,10-.48,4.79-4.25,9.84-5.99,14.39-2.27,5.94-2.96,12.65-1.25,18.82,2.95,10.65,13.15,23.36,24.5,25.39,8.32,1.48,15.9-6.63,11.29-14.69l-.29-.51-8.63,15.05c10.7-1.35,20.95-4.58,30.24-10.18,7.14-4.3,13.15-11.48,21.04-14.49,1.98-.75,4.89-.87,5.85-.72.75.11,1.47.44,2.21.54,3.25.46.57.41.58.25-.01.25-2.93-5.51-.93-4.43,1.04.56-6.99,5.82-7.35,6.01-3.87,2.03-7.92,3.67-11.72,5.84-8.11,4.63-15.37,10.95-21.43,18.02-6.58,7.68-9.33,16.53-13.6,25.47-3.14,6.58-6.63,8.46-13.72,11.56-6.56,2.88-13.11,5.39-18.52,10.28-7.2,6.52-9.85,17.37-11.8,26.51-1.16,5.44-2.34,11.28-2.18,16.85.07,2.17.4,4.34.64,6.5.12,1.07,0,2.44.31,3.46.32,1.07-.28,1.67.5.18-5.95,11.4,11.3,21.52,17.27,10.09h0Z"/><path class="cls-1" d="m189.79,273.28c.41-7.19,4.17-14.54,10.9-17.7,5.59-2.63,11.11-3.98,16.18-7.79,6.56-4.94,12.34-12.37,15.78-19.85,5.7-12.39,13.43-22.42,24.4-30.69,3.45-2.6,7.06-5.13,10.88-7.16,4.79-2.55,9.95-4.44,14.25-7.83,9.11-7.2,7.7-20.93-.53-28.39-7.03-6.37-18.87-7.68-27.76-5.45-9.67,2.43-14.81,8.46-21.88,14.69-6.65,5.86-24.7,15.54-24.39-.62.09-4.71,1.51-8.84,2.97-13.26,2.6-7.89,5.16-15.8,7.68-23.72,4.06-12.8,7.99-25.63,11.68-38.54,2.4-8.38,4.77-16.8,6.65-25.32,1.7-7.73,2.94-16.77-1.17-23.98s-14.44-11.18-22.02-6.53-11.28,11.11-14.83,18.69c-9.99,21.38-17.63,43.92-24.58,66.44-.64,2.07-3.83,10.87-6.09,5.31-.54-1.34.19-4.38.26-5.85.11-2.53.23-5.06.34-7.59.35-7.63.7-15.26,1.04-22.88.55-12.18,1.12-24.36,1.39-36.55.16-6.93.7-14.29-.7-21.14-1.85-9.05-8.42-17.7-18.35-17.79-20.1-.19-20.56,26.41-21.42,40.77-.77,12.67-1.13,25.36-1.37,38.05-.15,7.82-.24,15.64-.28,23.46-.02,3.05,1.27,10.53-.86,12.77s-2.9-2.04-3.54-4.02c-.7-2.14-1.25-4.35-1.88-6.52-6.52-22.7-11.92-46.26-20.55-68.3-3.29-8.39-8.84-14.79-18.12-16.13-10.33-1.49-17.05,5.84-19.26,15.19-1.65,6.99.25,14.33,1.7,21.22,2.33,11.1,5.23,22.09,8.34,33,2.02,7.08,4.15,14.13,6.38,21.15.97,3.06,8.62,20.84,3.97,21.49-2.48.35-4.64-3.51-6-5.03-2.8-3.12-5.61-6.22-8.44-9.3-4.59-4.98-9.22-9.92-13.95-14.76-5.43-5.56-10.95-11.93-17.38-16.37-8.4-5.8-18.98-3.1-24.92,4.74-5.06,6.68-3.11,16.22,1.68,22.43,6.47,8.37,13.88,16.04,20.84,23.99,5.06,5.78,10.06,11.62,14.92,17.57,2.76,3.38,5.49,6.79,8.15,10.24,2.47,3.21,3.13,6.21,4.05,10.08,3.47,14.63,8.52,28.88,14.96,42.46,3.48,7.33,7.32,14.57,11.72,21.4s9.46,12.47,11.78,20.22c1.88,6.3,1.42,13.38,1.73,19.91s.82,13.34.88,20c.01,1.35,1.14,2.5,2.5,2.5h79c1.37,0,2.47-1.15,2.5-2.5.26-12.07.53-24.14.79-36.22.07-3.22-4.93-3.22-5,0-.26,12.07-.53,24.14-.79,36.22l2.5-2.5h-79l2.5,2.5c-.06-6.66-.56-13.35-.88-20-.27-5.62-.12-11.47-.88-17.05-.89-6.53-4.27-12.73-8.01-18.02-4.58-6.5-8.82-13.08-12.56-20.1-7.47-14.02-13.32-28.88-17.43-44.22-1.64-6.11-2.13-12.1-6.05-17.2-4.54-5.91-9.24-11.7-14.03-17.4-8.21-9.75-16.8-19.17-25.15-28.79-5.61-6.46-13.18-15.41-5.68-23.74,4.17-4.63,10.59-6.2,16.17-2.95,2.73,1.59,5.05,4.07,7.33,6.22,8.2,7.74,15.95,15.98,23.6,24.27,2.4,2.6,4.78,5.21,7.14,7.83,2.2,2.43,4.47,6.1,7.41,7.64,2.47,1.29,6.15,1.41,8.37-.41,3.95-3.24,2.22-9.06.88-13.05-2.54-7.54-4.97-15.11-7.28-22.72-3.66-12.07-7.06-24.22-9.96-36.5-1.61-6.81-3.48-13.85-4.04-20.85-.41-5.09,1.14-12.96,5.89-15.8,5.29-3.16,12.15-2.45,16.63,1.79,5.51,5.21,7.41,13.37,9.62,20.35,3.53,11.14,6.73,22.39,9.96,33.62,2.14,7.43,4.26,14.87,6.4,22.3,1.4,4.88,1.9,12.98,7.04,15.47,12.1,5.87,9.32-17.59,9.36-22.83.18-23.73.17-47.76,2.79-71.37.96-8.65,4.21-20.88,14.65-21.18s14.4,11.37,14.69,20.12c.74,22.2-1.17,44.64-2.18,66.8-.18,4.04-.37,8.07-.55,12.11-.14,3.05-1,6.96,0,9.9,1.14,3.33,5.41,5.35,8.78,4.73,5.9-1.08,6.48-9.89,7.91-14.46,2.25-7.16,4.59-14.29,7.05-21.38,3.7-10.66,7.64-21.26,12.07-31.64,2.5-5.85,4.92-12.21,8.41-17.57,3.88-5.95,10.43-11.02,17.66-8.38,4.14,1.51,6.5,5.32,7.44,9.46,1.77,7.83-.75,16.08-2.67,23.66-6.06,23.83-13.56,47.33-21.16,70.7-2.94,9.04-8.25,19.98-5.46,29.8,2.44,8.6,11.54,9.03,18.72,6.41,5.03-1.84,9.55-4.87,13.55-8.4,3.21-2.83,5.71-6.18,9.26-8.6,8.61-5.88,21.2-7.96,30.62-2.53,6.37,3.67,11.04,13.51,6.29,20.17-3.23,4.53-9.39,6.66-14.2,9.03-8.68,4.27-16.76,10.48-23.55,17.32-4.77,4.8-9.19,10.25-12.41,16.23-2.37,4.39-3.92,9-6.72,13.18-5.68,8.49-12.54,14.95-22.45,18.19-10.56,3.45-16.98,12.6-17.6,23.65-.18,3.21,4.82,3.2,5,0Z"/><path class="cls-1" d="m141.29,229.78c.19-17.47,9.31-33.88,25.76-40.84,2.95-1.25.41-5.56-2.52-4.32-18.03,7.62-28.03,26.07-28.24,45.16-.03,3.22,4.97,3.22,5,0h0Z"/></svg>