<svg width="64" height="64" viewBox="0 0 64 64" fill="none" xmlns="http://www.w3.org/2000/svg">
<g clip-path="url(#clip0_1249_761)">
<path d="M23.6324 11.769C23.6324 11.769 28.0773 32.3281 26.9368 38.1702C25.7963 44.0124 -0.925895 53.9634 7.71841 62.0677C12.8733 66.8978 23.6739 61.6371 35.0864 57.5963C42.8168 54.8584 50.4113 54.5299 56.0873 49.6431C61.7595 44.7564 50.5585 6.45557 50.5585 6.45557L23.6324 11.769Z" fill="#E82353"/>
<path d="M57.5791 40.209C53.5345 40.2732 49.3691 41.1191 47.5299 43.993C45.4453 47.2483 45.8305 51.2098 46.7105 54.3216C50.1508 53.302 53.3457 52.0066 56.0912 49.6426C57.5753 48.3624 57.9039 44.7861 57.5791 40.209Z" fill="#B21936"/>
<path d="M52.1107 11.3306L23.5758 18.1924C22.7677 18.3888 21.952 17.8903 21.7594 17.0784L19.7503 8.72106C19.5539 7.9129 20.0524 7.09719 20.8643 6.90459L49.3992 0.0427673C50.2074 -0.153608 51.0231 0.344883 51.2157 1.15682L53.2248 9.51412C53.4212 10.3223 52.9227 11.138 52.1107 11.3306Z" fill="#EFE1BD"/>
<path d="M21.5023 56.8332C19.2515 53.4268 16.0151 51.2063 12.9939 49.7637C7.57851 53.8498 3.56414 58.1701 7.71824 62.0636C11.0944 65.2283 16.8912 64.0613 23.7002 61.7464C23.3943 60.3189 22.7221 58.6799 21.5023 56.8332Z" fill="#B21936"/>
</g>
<defs>
<clipPath id="clip0_1249_761">
<rect width="64" height="64" fill="white"/>
</clipPath>
</defs>
</svg>
