<?xml version="1.0" encoding="UTF-8"?><svg id="Layer_1" xmlns="http://www.w3.org/2000/svg" viewBox="0 0 300 320"><defs><style>.cls-1{fill:#0069ff;}.cls-2{fill:#fff;}</style></defs><path class="cls-2" d="m200.1,178.95c5.53-17.02,12.99-32.48,19.73-49,4.15-10.18,6.31-20.99,9.62-31.35s6.64-20.65,9.07-31.31c1.5-6.57,6.42-19.17.83-24.63-8.68,7.39-12,19.64-16.43,29.72-3.94,8.97-8.4,17.72-12,26.9-5.65,14.4-9.07,29.8-18.16,42.43-5-4.83-13.07-3.26-19.08-6.99-8.4-5.21-10.09-17.37-11.7-26.51-3.75-21.24-3.99-43.59-5.08-65.1-.3-6-2.13-20.53-10.28-21.02-5.94,10.65-2.28,27.02-1.13,38.63s3.3,24,4.18,36.01c.45,6.14,4.64,33.72-2.37,38.5-.9.61-10.68,3.11-11.77,2.88-2.29-.49-9.71-7.55-10.92-9.62-8.46,3.79-11.79,15.56-18.08,21.87-4.2-1.55-9.85-7.9-11.4-12.49-13.09,5.35-7.05,20.77-3.6,30.4,1.69,4.72,2.59,7.06.82,10.79s-4.93,5.14-5.63,9.76c-1.74,11.6,5.49,27.93,12.12,37.17,2.88,4.01,5.64,7.67,8.24,11.94,10.68,17.56,10.91,39.87,15.61,59.8,8.56.57,16.63-1.15,25.15.48,6.68,1.27,13.91.99,20.73.8,3.82-.1,10.91,2.57,13-1s-.51-18.31-.65-22.02c-.78-20.81,9.87-32.12,16.89-50.93,4.82-12.93,5.63-27.96,3.66-40.94,2.22,3.59,4.81,8.34,5.53,12.58,1.88,11.03-8.06,21.92-9.02,32.63,9.21-17.51,11.13-37.54,6.29-56.37"/><path class="cls-2" d="m209.75,181.61c4.26-12.92,9.73-25.34,15.05-37.85,5.46-12.83,9.27-25.7,13.23-39.04,3.75-12.64,7.52-25.19,10.94-37.92,2.87-10.66,5.46-22.11-2.55-31.21-3.7-4.21-10.33-3.43-14.14,0-6.79,6.11-10.76,14.13-14.21,22.42s-7.25,16.83-11.06,25.2c-4.17,9.16-7.65,18.49-10.93,28-3.1,8.97-6.49,17.61-11.96,25.44l15.71-2.02c-5.73-4.87-11.49-5.44-18.34-7.49-3.87-1.15-5.45-3.69-6.77-7.5-4.35-12.53-5.12-26.93-6.02-40.03-.99-14.47-.49-29.24-2.55-43.61-1.67-11.64-6.84-22.25-19.52-23.91-3.23-.42-7.2,2.17-8.63,4.95-6.93,13.46-4.23,28.02-2.63,42.37s3.42,28.74,4.91,43.14c.52,5.02.97,10.05,1.04,15.09.04,2.57.01,5.15-.26,7.71-.08.75-.07.69.04-.18-.1.61-.22,1.21-.36,1.81-.13.55-.29,1.1-.47,1.64.5-1.05.58-1.27.26-.64-.38.66-.17.46.62-.63-1.34,1.28-.42.8,2.79-1.45-.68-.09-1.98.62-2.65.8-2.11.59-4.58.78-6.6,1.57-.89.16-.5.11,1.17-.15,3.77,1.32,4.77,1.47,2.99.46-.3-.67-.67-.45-1.65-1.38s-1.95-1.79-2.88-2.74c-.53-.54-2.8-3.67-1.04-1.03-3.14-4.71-8.61-6.14-13.68-3.59-10.13,5.09-12.9,15.76-20.1,23.43l12.12-1.56c-2.76-1.23-5.87-4.14-6.81-6.51-2.53-6.43-8.36-8.85-14.69-5.98-15.35,6.97-14.26,24.21-9.61,37.71.73,2.12,3.17,6.82,2.84,8.31-.04.19-3.21,3.68-3.84,4.75-4.5,7.59-3.28,17.58-1.12,25.72s5.79,16.14,10.38,23.16,10.19,13.41,13.43,21.27c6.54,15.88,7.09,33.66,10.9,50.25,1.02,4.42,5.37,7.13,9.64,7.34,4.81.23,9.57-.12,14.37-.21s9.36.68,14.16,1.2,9.26.49,13.91.38c4.21-.1,6.04.46,10.59.71,9.4.52,15.82-5.33,16.56-14.58.47-5.79-.68-11.54-1.2-17.28-1.37-15.13,6.28-27.17,12.27-40.39,8.18-18.06,10.55-36.49,7.77-56.09-6.09,2.57-12.18,5.14-18.28,7.71,1.6,2.65,3.87,5.84,4.35,8.97s-.75,6.07-1.8,8.79c-2.92,7.56-6.38,14.24-7.4,22.4-1.24,9.95,14.33,13.47,18.63,5.05,10.22-19.99,12.66-42.29,7.3-64.07-3.07-12.49-22.37-7.2-19.29,5.32,4.04,16.43,2.45,33.54-5.28,48.66l18.63,5.05c.99-7.94,6.78-14.92,8.43-22.79,2.1-10.06-1.11-18.89-6.31-27.45-2.57-4.23-7.93-6.1-12.49-4.09-4.93,2.17-6.51,6.7-5.79,11.8,2.22,15.66-.9,30.74-7.71,44.85-6.38,13.23-12.89,25.94-13.23,40.98-.12,5.05.84,10.01,1.25,15.03.17,2.05-.51,5.69.14,7.6-.01-2.41,1.4-4.15,4.25-5.22.81-.22.54-.29-.82-.21-.05-.02-2-.26-2.35-.31-7.58-1.05-15.26.11-22.87-.94-9.39-1.29-18.41-.37-27.81-.83l9.64,7.34c-3.55-15.45-4.47-31.54-9.59-46.62-2.86-8.42-6.94-15.88-12.09-23.1-3.99-5.59-7.87-11.14-10.54-17.51-1.92-4.58-5.34-12.87-3.44-17.8.66-1.72,3.69-4.66,4.8-7.13,1.86-4.13,2.23-8.39,1.16-12.8-1.34-5.52-3.95-10.65-5.15-16.23-.4-1.88-.37-1.72-.39-2.97,0-.09.25-3.2-.01-1.59.38-1.15.38-1.32-.01-.52.63-.99.69-1.18.19-.55.94-.8,1.34-1.03,2.91-1.74l-14.69-5.98c2.93,7.46,8.45,15.11,16,18.46,4.01,1.78,8.86,1.91,12.12-1.56,3.44-3.67,6.07-7.91,8.7-12.17,2.07-3.35,3.88-6.39,7.35-8.13l-13.68-3.59c2.7,4.06,6.37,7.42,10.19,10.4,4.52,3.52,8.52,4.61,14.19,3.55,9.44-1.76,17.12-5.05,19.65-15.19,2.32-9.31,1.31-19.41.35-28.83-1.22-12.07-2.68-24.08-4.13-36.12-.87-7.22-1.84-14.47-2.5-21.71-.55-5.94-1.3-13,1.53-18.49l-8.63,4.95c-4.05-.53-2.19-1.47-2.23-.46-.45-.6-.49-.6-.1,0,.28.45.53.91.75,1.39-.48-1.07.54,1.84.53,1.8.31,1.09.56,2.2.78,3.31.47,2.41.31,1.33.52,4.22.22,3.11.31,6.23.44,9.34.66,15.08,1.17,30.19,3,45.18,1.43,11.71,2.63,24.71,8.14,35.36,2.76,5.34,7.21,9.88,12.69,12.36,2.97,1.34,5.95,2.06,9.12,2.72,1.52.31,4.25.47,5.43,1.47,5.18,4.41,11.82,3.54,15.71-2.02,10.88-15.57,14.44-34.66,22.12-51.77,3.9-8.68,8.04-17.22,11.57-26.06,2.79-7,5.62-14.06,11.33-19.19h-14.14c-1.2-1.37-.27.05-.35,1.55-.1,1.78-.51,3.5-.93,5.26-1.11,4.58-2.32,9.16-3.49,13.72-3.14,12.18-7.4,24.03-10.74,36.15-6.65,24.14-18.48,46.16-26.3,69.89-4.04,12.25,15.27,17.5,19.29,5.32h0Z"/><path class="cls-1" d="m214.4,173.95c10.72-29.35,23.31-57.95,32.86-87.74,3.13-9.77,6.76-20.02,7.72-30.3.68-7.32-.63-14.55-5.93-19.82-4.83-4.8-12.8-6.04-18.67-2.49-9.18,5.55-13.28,14.85-17.7,24.18-5.33,11.23-10.03,22.76-14.31,34.42-2.15,5.87-4.19,11.77-6.13,17.71-1.47,4.48-2.5,15.25-9.13,13.8-5.64-1.23-5.27-7.8-5.87-12.34-.83-6.36-1.61-12.72-2.36-19.09-1.45-12.38-2.84-24.78-3.98-37.2-.9-9.74-1.35-20.45-5-29.64-2.9-7.27-7.77-12.55-15.51-14.53-5.91-1.51-12.99,1.09-16.33,6.18-7.7,11.77-4.91,26.7-3.43,39.82,1.08,9.5,2.42,18.98,3.88,28.43.94,6.08,1.95,12.15,3,18.22.63,3.67,1.29,7.34,1.95,11.01.42,2.32,2.56,9.24-1.87,7.41-2.97-1.23-4.26,3.6-1.33,4.82,7.08,2.94,9.76-3.8,8.72-9.72-1.94-11.01-3.93-22.01-5.65-33.07-2.28-14.69-4.47-29.51-5.22-44.37-.31-6.08-.14-11.39,2.63-17.05,1.96-4.02,4.26-6.16,8.82-6.86s9.7,1.91,12.53,5.71c5.41,7.25,6.14,17.55,7.07,26.17,1.31,12.1,2.39,24.21,3.75,36.3,1.27,11.32,2.44,22.7,4.18,33.97,1.09,7.07,5.85,12.05,13.57,10.94,3.03-.43,4.94-2.22,6.23-4.91,2.4-5.01,3.56-10.89,5.32-16.15,3.99-11.93,8.37-23.75,13.33-35.31,2.24-5.24,4.59-10.43,7.1-15.55s4.95-10.98,9.24-15.04,8.47-6.63,14.23-4.37c3.05,1.2,5.53,3.75,6.7,6.84,3.87,10.24-1.05,23.15-4.04,33.09-9.76,32.48-23.57,63.43-35.19,95.23-1.11,3.03,3.72,4.33,4.82,1.33h0Z"/><path class="cls-1" d="m144.25,218.23c.28-7.8,3.11-14.74,7.4-21.19,1.79-2.69-2.54-5.19-4.32-2.52-4.76,7.17-7.77,15.06-8.08,23.71-.12,3.22,4.89,3.21,5,0h0Z"/><path class="cls-1" d="m106.49,144.28c-.32-5.72-2-12.72-6.72-16.4-7.98-6.21-18.71,1.56-22.67,8.85-5.85,10.75-4.56,24.48.33,35.31,3.93,8.7,14.02,22.88,25.25,21.17,6.03-.91,10.08-6.78,11.72-12.27.92-3.09-3.9-4.41-4.82-1.33-1.2,4.01-4.29,8.97-9,8.73-6.24-.32-11.94-7.64-15.15-12.27-3.83-5.53-6.25-12.07-6.96-18.76-.63-5.9-.05-12.23,2.69-17.58,2.24-4.37,7.18-9.53,12.62-9.06,5.78.49,7.46,8.9,7.72,13.6.18,3.2,5.18,3.22,5,0h0Z"/><path class="cls-1" d="m142.49,148.28c1.49-13.02-1.47-34.31-18.93-32.72-29.93,2.72-22.87,44.93-13.73,62.98,4.71,9.31,14.29,13.75,22.93,6.51,2.47-2.07-1.09-5.59-3.54-3.54-11.44,9.6-17.69-11.24-19.68-18.59-3.09-11.36-5.77-28.57,3.82-37.74,3.89-3.73,10.87-6.16,16.1-4.01,3.84,1.58,5.8,5.55,6.88,9.32,1.62,5.66,1.81,11.95,1.15,17.79-.36,3.19,4.64,3.17,5,0h0Z"/><path class="cls-1" d="m178.45,195.8c-3.87-4.31-8.57-7.81-13.54-10.75-4.19-2.47-7.35-1.55-12.26-1.56-11.51,0-23.47-4.15-28.48-15.45s11.68-13.55,18.58-14.82c9.97-1.83,20.58-3.01,30.69-1.53,6.77.99,12.85,4.36,18.68,7.8,7.64,4.51,15.6,10.53,19.47,18.78,2.09,4.46,2.58,9.36,2.9,14.65.85,13.9-2.83,27.9-8.51,40.5-2.28,5.06-4.92,10.02-8.03,14.63-2.51,3.73-6.03,6.73-7.77,10.93-3.2,7.71-1.8,16.83-1.59,24.93.22,8.53-.18,17.05,0,25.58l2.5-2.5h-77l2.5,2.5c0-13.06-.21-25.97-1-39-.53-8.77-5.99-14.26-10.81-21.24-13.79-19.95-37.02-46.93-22.72-72.44,1.58-2.81-2.74-5.33-4.32-2.52-4.02,7.17-5.38,16.31-4.75,24.4,1.35,17.53,13.24,32.1,22.73,46.16,3.4,5.03,6.85,10.03,10.37,14.97,2.06,2.89,3.89,5.05,4.35,8.74,1.7,13.54,1.14,27.31,1.14,40.93,0,1.35,1.15,2.5,2.5,2.5h77c1.33,0,2.53-1.15,2.5-2.5-.17-8.21.21-16.41.02-24.62s-2.38-19.32,2.6-26.65c2.35-3.46,5.32-6.39,7.56-9.99,3.03-4.88,5.61-10.04,7.84-15.33,5.69-13.48,9.21-28.42,7.6-43.11-.54-4.94-1.31-10.1-3.58-14.57-4.43-8.71-12.77-15.19-21.01-20.05-6.42-3.79-13.06-7.33-20.49-8.39-10.85-1.55-22.03-.35-32.74,1.62-8.04,1.48-19.38,2.83-22.55,12.03-3.89,11.28,9.53,22.68,18.89,25.9,2.97,1.02,6.08,1.58,9.2,1.89,2.14.22,4.3.29,6.45.27,1.77-.02,4.31-.72,5.84-.49,5.34.8,12.08,7.35,15.67,11.34,2.16,2.4,5.68-1.15,3.54-3.54h0Z"/></svg>