<?xml version="1.0" encoding="UTF-8"?><svg id="Layer_2" xmlns="http://www.w3.org/2000/svg" viewBox="0 0 267.32 268.06"><defs><style>.cls-1{fill:#0069ff;}.cls-2{fill:#66a5ff;}.cls-3{fill:#e6e6e6;}.cls-4{fill:#fff;}.cls-5{fill:#c1d5ff;}</style></defs><g id="Layer_1-2"><circle class="cls-5" cx="116" cy="152.06" r="113.5"/><path class="cls-1" d="m116,268.06C52.04,268.06,0,216.03,0,152.06S52.04,36.06,116,36.06s116,52.04,116,116-52.04,116-116,116Zm0-227c-61.21,0-111,49.79-111,111s49.79,111,111,111,111-49.79,111-111-49.79-111-111-111Z"/><circle class="cls-4" cx="116" cy="152.06" r="87"/><circle class="cls-5" cx="116" cy="152.06" r="64"/><circle class="cls-4" cx="116" cy="152.06" r="39"/><circle class="cls-5" cx="116" cy="152.06" r="16.68"/><line class="cls-3" x1="113.8" y1="153" x2="254.8" y2="13"/><path class="cls-1" d="m115.57,154.77c15.85-15.73,31.69-31.47,47.54-47.2,25.3-25.12,50.59-50.23,75.89-75.35,5.86-5.82,11.72-11.64,17.58-17.45,2.29-2.27-1.25-5.81-3.54-3.54-15.85,15.73-31.69,31.47-47.54,47.2-25.3,25.12-50.59,50.23-75.89,75.35-5.86,5.82-11.72,11.64-17.58,17.45-2.29,2.27,1.25,5.81,3.54,3.54h0Z"/><polygon class="cls-2" points="236.7 30.97 236.3 2.5 203.3 34.5 203.3 64.14 236.7 30.97"/><path class="cls-1" d="m203.3,66.64c-.32,0-.65-.06-.96-.19-.93-.39-1.54-1.3-1.54-2.31v-29.63c0-.68.27-1.32.76-1.79L234.56.71c.72-.69,1.78-.9,2.7-.51.92.38,1.53,1.28,1.54,2.27l.4,28.47c0,.68-.26,1.33-.74,1.81l-33.4,33.16c-.48.47-1.11.73-1.76.73Zm2.5-31.08v22.57l28.39-28.19-.3-21.62-28.08,27.23Z"/><polygon class="cls-2" points="236.35 31.62 264.82 32.02 232.82 65.02 203.18 65.02 236.35 31.62"/><path class="cls-1" d="m232.82,67.52h-29.63c-1.01,0-1.92-.61-2.31-1.54-.39-.93-.18-2.01.53-2.72l33.16-33.4c.48-.48,1.12-.75,1.81-.74l28.47.4c1,.01,1.89.62,2.27,1.54.38.92.18,1.98-.51,2.7l-32,33c-.47.49-1.12.76-1.79.76Zm-23.63-5h22.57l27.23-28.08-21.62-.3-28.19,28.39Z"/></g></svg>