<svg width="79" height="82" viewBox="0 0 79 82" fill="none" xmlns="http://www.w3.org/2000/svg">
<g clip-path="url(#clip0_9_427)">
<path d="M0.709961 0.710007L76.18 24.65C76.18 24.65 48.81 30.47 0.949961 31.19L0.709961 0.710007Z" fill="white" stroke="#3B65EE" stroke-width="1.43" stroke-linecap="round" stroke-linejoin="round"/>
<path d="M0.949951 31.19V41.55C0.949951 41.55 20.23 47.57 33.33 40.45C33.33 40.45 55.47 43.29 61.9 36.64C61.9 36.64 72.14 39.03 76.18 35.23C76.18 35.23 79.28 31.69 76.18 24.65C76.18 24.65 24.99 32.37 0.949951 31.18V31.19Z" fill="white" stroke="#3B65EE" stroke-width="1.43" stroke-linecap="round" stroke-linejoin="round"/>
<path d="M76.19 35.23V71.72C76.19 71.72 50.72 80.9 0.959961 80.92V41.54C0.959961 41.54 22.63 47.56 33.34 40.44C33.34 40.44 56.43 42.32 61.91 36.63C61.91 36.63 72.15 38.55 76.19 35.22V35.23Z" fill="white" stroke="#3B65EE" stroke-width="1.43" stroke-linecap="round" stroke-linejoin="round"/>
<path opacity="0.2" d="M77.4 28.59C77.4 28.59 69.55 32.86 62.75 31.19C62.75 31.19 45 39.05 33.1 36.19C33.1 36.19 8.81996 40.08 0.959961 35.99V41.55C0.959961 41.55 21.67 47.1 33.34 40.45C33.34 40.45 56.43 41.86 61.91 36.64C61.91 36.64 73.1 37.6 76.19 35.23C76.19 35.23 78.85 32.42 77.4 28.59Z" fill="#3B65EE"/>
<path d="M62.21 46.16C62.71 50.18 62.7 54.21 62.54 58.25C62.26 62.27 62.06 66.38 60.64 70.2C61.11 62.17 60.95 54.13 62.21 46.17V46.16Z" fill="#3B65EE"/>
<path d="M43.6399 49.02C44.1399 53.04 44.1299 57.07 43.9699 61.11C43.6899 65.13 43.4899 69.24 42.0699 73.06C42.5399 65.03 42.3799 56.99 43.6399 49.03V49.02Z" fill="#3B65EE"/>
<path d="M18.4 50.92C18.9 54.94 18.89 58.97 18.73 63.01C18.45 67.03 18.25 71.14 16.83 74.96C17.3 66.93 17.14 58.89 18.4 50.93V50.92Z" fill="#3B65EE"/>
<path opacity="0.2" d="M18.1 21.56C22.3139 21.56 25.73 20.9914 25.73 20.29C25.73 19.5886 22.3139 19.02 18.1 19.02C13.886 19.02 10.47 19.5886 10.47 20.29C10.47 20.9914 13.886 21.56 18.1 21.56Z" fill="#3B65EE"/>
<path d="M18.91 20.03C21.7653 20.03 24.08 17.7153 24.08 14.86C24.08 12.0047 21.7653 9.69 18.91 9.69C16.0547 9.69 13.74 12.0047 13.74 14.86C13.74 17.7153 16.0547 20.03 18.91 20.03Z" fill="white" stroke="#3B65EE" stroke-width="0.85" stroke-linecap="round" stroke-linejoin="round"/>
<path d="M20.03 12.36C19.48 14.09 18.36 15.24 17.26 16.59C17.13 14.79 18.52 13.2 20.03 12.36Z" fill="#3B65EE"/>
<path d="M17.1799 13.21C18.6399 12.37 20.6599 13.62 20.8699 15.21C19.5499 14.47 18.6399 13.78 17.1799 13.21Z" fill="#3B65EE"/>
</g>
<defs>
<clipPath id="clip0_9_427">
<rect width="78.28" height="81.64" fill="white"/>
</clipPath>
</defs>
</svg>
