<svg width="1329" height="684" viewBox="0 0 1329 684" fill="none" xmlns="http://www.w3.org/2000/svg">
<path d="M932.998 292.35C944.368 240.43 967.898 192 967.898 192C919.378 208.21 453.998 107.67 453.998 107.67C467.698 192 404.548 328.79 380.398 577.39C545.628 577.94 867.558 653.85 867.558 653.85C867.558 653.85 921.698 344.28 932.998 292.35Z" fill="white" stroke="#3B65EE" stroke-width="3" stroke-miterlimit="10" stroke-linecap="round"/>
<path d="M864.89 679.6L849.47 680.12L834.05 680.51L803.2 681.26C782.64 681.673 762.083 682.006 741.53 682.26C720.96 682.57 700.33 682.64 679.83 682.83L618.16 683.01L556.47 682.83C535.92 682.64 515.36 682.59 494.8 682.28C474.24 681.97 453.6 681.67 433.12 681.28L402.28 680.51L386.85 680.12L371.43 679.6L386.85 679.09C386.85 679.09 451.68 665.35 542.35 665.35C633.02 665.35 834.05 678.7 834.05 678.7L864.89 679.6Z" fill="#D1DAED"/>
<path d="M769.713 375.529C771.631 376.819 773.095 378.68 773.895 380.849C774.696 383.017 774.793 385.383 774.173 387.609C765.819 414.731 747.694 437.786 723.312 452.307C698.929 466.827 670.025 471.781 642.199 466.207C614.373 460.632 589.606 444.928 572.699 422.135C555.791 399.343 547.946 371.086 550.683 342.839C550.883 341.323 551.39 339.863 552.173 338.549C552.96 337.236 554.012 336.102 555.263 335.219C556.507 334.328 557.924 333.708 559.423 333.399C560.923 333.089 607.603 326.239 669.053 338.689C730.503 351.139 768.443 374.669 769.713 375.529Z" fill="#3B65EE"/>
<path d="M597.328 212.65C612.808 180.16 643.468 193 643.468 193Z" fill="white"/>
<path d="M597.328 212.651C598.434 207.947 600.565 203.546 603.568 199.761C605.1 197.816 606.87 196.072 608.838 194.571C609.827 193.807 610.862 193.106 611.938 192.471L613.588 191.581C614.148 191.291 614.728 191.061 615.298 190.801C619.9 188.879 624.902 188.11 629.868 188.561C634.698 188.922 639.366 190.456 643.468 193.031C638.953 192.377 634.381 192.196 629.828 192.491C625.501 192.767 621.248 193.75 617.238 195.401C615.26 196.211 613.368 197.216 611.588 198.401C610.658 198.961 609.828 199.651 608.938 200.281C608.508 200.611 608.108 200.981 607.678 201.281C607.246 201.623 606.833 201.987 606.438 202.371C603.118 205.536 600.071 208.974 597.328 212.651V212.651Z" fill="#3B65EE"/>
<path d="M764.999 227.61C754.279 193.26 722.109 201.61 722.109 201.61Z" fill="white"/>
<path d="M764.999 227.61C762.8 223.604 760.268 219.791 757.429 216.21C757.1 215.771 756.742 215.353 756.359 214.96C755.979 214.56 755.639 214.13 755.259 213.74C754.469 212.99 753.739 212.19 752.909 211.51C751.316 210.078 749.584 208.809 747.739 207.72C744.005 205.515 739.934 203.937 735.689 203.05C731.224 202.109 726.673 201.639 722.109 201.65C726.537 199.687 731.376 198.829 736.209 199.15C741.191 199.408 746.034 200.877 750.319 203.43C750.839 203.77 751.379 204.09 751.889 204.43L753.409 205.55C754.386 206.329 755.312 207.17 756.179 208.07C757.898 209.851 759.384 211.844 760.599 214C763.049 218.157 764.552 222.805 764.999 227.61V227.61Z" fill="#3B65EE"/>
<path d="M1090.1 192C1078.9 195.415 1068.03 199.843 1057.62 205.23C1047.25 210.563 1037.42 216.886 1028.27 224.11C1010.03 238.628 994.442 256.194 982.193 276.03C975.973 285.881 970.453 296.156 965.673 306.78C960.865 317.417 956.609 328.294 952.923 339.37C945.707 361.664 940.096 384.445 936.133 407.54C936.863 401.72 937.413 395.86 938.423 390.07L939.793 381.36L941.403 372.68C943.669 361.122 946.522 349.687 949.953 338.42C953.394 327.128 957.491 316.045 962.223 305.23C966.989 294.4 972.533 283.929 978.813 273.9C985.118 263.866 992.264 254.385 1000.17 245.56C1008.12 236.761 1016.9 228.75 1026.38 221.64C1028.7 219.82 1031.19 218.21 1033.61 216.5C1036.03 214.79 1038.61 213.28 1041.1 211.75C1043.59 210.22 1046.19 208.75 1048.83 207.42L1052.76 205.42L1056.76 203.53C1059.41 202.24 1062.18 201.19 1064.88 200.02C1066.25 199.47 1067.63 198.97 1069.01 198.44C1070.39 197.91 1071.76 197.44 1073.16 196.95C1078.72 195.004 1084.37 193.352 1090.1 192Z" fill="#ADBEDB"/>
<path d="M953.719 481.151C955.795 471.475 958.433 461.929 961.619 452.56C964.91 443.195 968.819 434.059 973.319 425.211C982.367 407.396 994.374 391.246 1008.83 377.451C1016.11 370.594 1024 364.418 1032.4 359C1040.81 353.631 1049.72 349.08 1059 345.41C1068.25 341.748 1077.81 338.927 1087.57 336.98C1097.3 335.08 1107.18 334.076 1117.09 333.98C1107.28 334.888 1097.56 336.532 1088 338.901C1078.49 341.278 1069.2 344.422 1060.2 348.3C1042.26 356.075 1025.81 366.925 1011.6 380.36C1004.49 387.049 997.956 394.325 992.069 402.11C986.132 409.888 980.783 418.097 976.069 426.67C971.366 435.285 967.156 444.159 963.459 453.25C959.749 462.36 956.659 471.721 953.719 481.151Z" fill="#ADBEDB"/>
<path d="M1040.6 277.801C1038.06 279.605 1035.64 281.573 1033.35 283.691C1032.17 284.691 1031.06 285.801 1029.91 286.851L1026.6 290.141C1022.26 294.587 1018.16 299.26 1014.31 304.141C1006.57 313.861 999.529 324.117 993.238 334.831C986.934 345.536 981.171 356.549 975.968 367.831C970.798 379.131 966.128 390.651 961.838 402.311C959.838 408.191 957.618 414.011 955.838 419.951L952.998 428.841L950.378 437.841L949.048 442.311C948.618 443.811 948.228 445.311 947.818 446.821L945.408 455.821C944.558 458.821 943.928 461.871 943.158 464.891L940.938 473.961L936.938 492.211C935.748 498.331 934.488 504.441 933.348 510.561C932.208 516.681 931.128 522.841 930.088 528.991L928.658 538.241L927.148 547.481L928.058 538.161L929.058 528.841C929.798 522.641 930.648 516.451 931.438 510.251C932.228 504.051 933.438 497.901 934.378 491.721C935.318 485.541 936.718 479.431 937.888 473.291C939.248 467.181 940.508 461.051 942.008 454.971L944.298 445.871C944.688 444.351 945.048 442.871 945.458 441.321L946.728 436.791L949.298 427.791L952.118 418.791C953.058 415.791 953.988 412.791 955.048 409.871L958.138 400.981C962.528 389.241 967.258 377.621 972.598 366.271C977.974 354.942 983.984 343.924 990.598 333.271C997.198 322.595 1004.63 312.456 1012.83 302.951C1016.92 298.209 1021.26 293.689 1025.83 289.411C1030.36 285.071 1035.31 281.182 1040.6 277.801V277.801Z" fill="#ADBEDB"/>
<path d="M247.07 247.891C249.66 249.001 252.16 250.301 254.64 251.631C257.12 252.961 259.51 254.461 261.89 255.981C266.65 258.981 271.24 262.291 275.68 265.761C280.12 269.231 284.36 272.991 288.52 276.811C290.52 278.811 292.58 280.741 294.57 282.761C296.56 284.781 298.48 286.841 300.36 288.951C307.914 297.38 314.814 306.373 321 315.851C327.124 325.372 332.626 335.279 337.47 345.511L340.95 353.251C342.06 355.851 343.06 358.501 344.12 361.121L345.69 365.061L347.09 369.061C348.01 371.731 348.98 374.391 349.86 377.061L352.27 385.181C352.66 386.541 353.09 387.891 353.46 389.251L354.46 393.361L356.52 401.571L358.2 409.871C359.41 415.381 360.2 420.971 361.06 426.541C361.54 429.321 361.83 432.121 362.13 434.921L363.06 443.321C363.23 444.721 363.3 446.131 363.39 447.531L363.65 451.751L364.18 460.171C364.36 465.791 364.44 471.411 364.51 477.031L363.79 468.631L363.12 460.241L362.12 451.891L361.63 447.711C361.46 446.321 361.32 444.931 361.08 443.541C359.48 432.461 357.65 421.411 355.08 410.541L353.19 402.371L351 394.281L349.92 390.281C349.53 388.941 349.09 387.611 348.67 386.281L346.16 378.281L343.36 370.391L341.95 366.451L340.38 362.581C339.32 360.001 338.32 357.391 337.21 354.841L333.75 347.231C329.038 337.134 323.695 327.345 317.75 317.921C311.803 308.498 305.204 299.502 298 291.001C290.77 282.492 282.89 274.558 274.43 267.271C270.21 263.601 265.84 260.091 261.28 256.851C256.74 253.563 251.994 250.57 247.07 247.891Z" fill="#ADBEDB"/>
<path d="M291.859 104.51C296.269 108.73 300.659 112.98 304.859 117.44C309.059 121.9 313.169 126.44 317.059 131.15C324.886 140.619 331.81 150.8 337.739 161.56C343.567 172.398 348.445 183.72 352.319 195.4C356.088 207.069 359.141 218.958 361.459 231C363.766 243.04 365.566 255.153 366.859 267.34C368.109 279.51 369.089 291.7 369.659 303.91C370.229 316.12 370.579 328.33 370.659 340.54C370.739 352.75 370.559 364.95 370.139 377.15L369.789 368C369.689 365 369.629 361.91 369.499 358.86C369.239 352.77 369.049 346.67 368.699 340.59L368.289 331.45L367.769 322.33C367.439 316.25 367.009 310.17 366.599 304.1C365.659 291.96 364.599 279.84 363.149 267.77C361.699 255.7 359.929 243.67 357.589 231.77C355.336 219.86 352.384 208.093 348.749 196.53C345.069 185.004 340.471 173.791 334.999 163C329.401 152.242 322.891 141.985 315.539 132.34C308.259 122.58 300.079 113.53 291.859 104.51Z" fill="#ADBEDB"/>
<path d="M390.367 141.83C392.197 154.59 393.277 167.44 394.027 180.3C394.437 186.73 394.637 193.17 394.877 199.61C395.117 206.05 395.137 212.49 395.167 218.93C395.197 225.37 395.037 231.82 394.927 238.26L394.567 247.92C394.497 249.53 394.457 251.14 394.367 252.75L394.067 257.57C393.377 270.44 392.067 283.28 390.367 296.04C390.457 283.15 390.847 270.31 390.947 257.46C391.047 244.61 391.227 231.78 391.167 218.94C391.107 206.1 391.057 193.26 390.917 180.41L390.367 141.83Z" fill="#ADBEDB"/>
<path d="M652.506 270.138C656.997 249.366 650.931 230.429 638.958 227.84C626.985 225.252 613.638 239.992 609.147 260.764C604.656 281.536 610.722 300.474 622.695 303.062C634.668 305.651 648.015 290.91 652.506 270.138Z" fill="#3B65EE" stroke="#3B65EE" stroke-width="11" stroke-miterlimit="10"/>
<path d="M957.148 281.05L964.968 311.29L978.648 306.02L970.898 274.5L957.148 281.05Z" fill="#BADDD7" stroke="#3B65EE" stroke-width="3" stroke-miterlimit="10" stroke-linecap="round"/>
<path d="M129.383 199.8L141.773 217.61L148.863 186.25L139.513 171.98L129.383 199.8Z" fill="#B0C6ED" stroke="#4267E7" stroke-width="3" stroke-miterlimit="10" stroke-linecap="round"/>
<path d="M1120.17 370.999L1139.47 364.079C1139.47 364.079 1167.47 362.079 1165.65 345.359L1145.87 352.359C1145.87 352.359 1140.57 362.999 1120.17 370.999Z" fill="#B0C6ED" stroke="#4267E7" stroke-width="3" stroke-miterlimit="10" stroke-linecap="round"/>
<path d="M144.883 290.4L178.933 295.16L189.383 282.05L158.563 276.27L144.883 290.4Z" fill="#F7D3B5" stroke="#3B65EE" stroke-width="3" stroke-miterlimit="10" stroke-linecap="round"/>
<path d="M1195.33 214.119C1195.33 214.119 1211.33 233.699 1203.33 246.599H1220.33C1227.33 234.079 1209.69 215.809 1209.69 215.809L1195.33 214.119Z" fill="#E5ECF9" stroke="#4267E7" stroke-width="3" stroke-miterlimit="10" stroke-linecap="round"/>
<path d="M1110.07 200.271L1107.61 224.711L1124.02 199.421L1126.54 178.461L1110.07 200.271Z" fill="#EAA2AC" stroke="#3B65EE" stroke-width="3" stroke-miterlimit="10" stroke-linecap="round"/>
<path d="M1035.39 325L1049.39 328.25C1049.39 328.25 1070.62 311.74 1063.77 300.6L1047.58 297.5C1051.69 313.14 1035.39 325 1035.39 325Z" fill="#F7D3B5" stroke="#3B65EE" stroke-width="3" stroke-miterlimit="10" stroke-linecap="round"/>
<path d="M1290.76 248.959L1309.93 244.699L1324.72 225.859L1287.91 234.279L1290.76 248.959Z" fill="#F7D3B5" stroke="#3B65EE" stroke-width="3" stroke-miterlimit="10" stroke-linecap="round"/>
<path d="M1216.92 386.08L1231.26 381.9L1247.24 355.91L1227.93 361.92L1216.92 386.08Z" fill="#EAA2AC" stroke="#3B65EE" stroke-width="3" stroke-miterlimit="10" stroke-linecap="round"/>
<path d="M139.203 87.0991L165.513 98.709L178.733 82.7891L145.483 73.5391L139.203 87.0991Z" fill="#BADDD7" stroke="#3B65EE" stroke-width="3" stroke-miterlimit="10" stroke-linecap="round"/>
<path d="M1176.72 455.13L1179.16 482.3L1191.81 453.56L1194.25 433.48L1176.72 455.13Z" fill="#D5DCF7" stroke="#4267E7" stroke-width="3" stroke-miterlimit="10" stroke-linecap="round"/>
<path d="M1120.36 250.81L1131.28 253.64C1125.21 244.37 1144.07 222.43 1144.07 222.43L1129.19 221.18C1129.19 221.18 1109.45 240.51 1120.36 250.81Z" fill="#D5DCF7" stroke="#4267E7" stroke-width="3" stroke-miterlimit="10" stroke-linecap="round"/>
<path d="M1228.98 191.799L1233.48 217.879L1253.36 206.849L1249.15 181.109L1228.98 191.799Z" fill="#AEBACE" stroke="#3B65EE" stroke-width="3" stroke-miterlimit="10" stroke-linecap="round"/>
<path d="M1229.75 173.091L1235.54 192.781C1235.54 192.781 1250.7 183.171 1243.35 164.321L1232.4 145.711C1232.4 145.711 1239.47 175.531 1229.75 173.091Z" fill="#E5ECF9" stroke="#4267E7" stroke-width="3" stroke-miterlimit="10" stroke-linecap="round"/>
<path d="M282.661 209.07C287.742 209.07 291.861 204.951 291.861 199.87C291.861 194.789 287.742 190.67 282.661 190.67C277.58 190.67 273.461 194.789 273.461 199.87C273.461 204.951 277.58 209.07 282.661 209.07Z" fill="#B0C6ED" stroke="#4267E7" stroke-width="3" stroke-miterlimit="10" stroke-linecap="round"/>
<path d="M172.981 161.24C178.062 161.24 182.181 157.121 182.181 152.04C182.181 146.959 178.062 142.84 172.981 142.84C167.9 142.84 163.781 146.959 163.781 152.04C163.781 157.121 167.9 161.24 172.981 161.24Z" fill="#EAA2AC" stroke="#3B65EE" stroke-width="3" stroke-miterlimit="10" stroke-linecap="round"/>
<path d="M177.302 271.701C182.383 271.701 186.502 267.582 186.502 262.501C186.502 257.42 182.383 253.301 177.302 253.301C172.221 253.301 168.102 257.42 168.102 262.501C168.102 267.582 172.221 271.701 177.302 271.701Z" fill="#B0C6ED" stroke="#4267E7" stroke-width="3" stroke-miterlimit="10" stroke-linecap="round"/>
<path d="M92.1089 302.156C98.4685 300.923 103.313 298.318 102.929 296.337C102.544 294.356 97.0777 293.749 90.7181 294.982C84.3586 296.215 79.5145 298.821 79.8985 300.802C80.2826 302.783 85.7494 303.389 92.1089 302.156Z" fill="#B0C6ED" stroke="#4267E7" stroke-width="2.99475" stroke-miterlimit="10" stroke-linecap="round"/>
<path d="M982.983 433.236C984.766 432.285 983.737 426.872 980.683 421.146C977.63 415.42 973.708 411.549 971.925 412.5C970.141 413.452 971.171 418.865 974.224 424.591C977.278 430.317 981.199 434.187 982.983 433.236Z" fill="#B0C6ED" stroke="#4267E7" stroke-width="3" stroke-miterlimit="10" stroke-linecap="round"/>
<path d="M1172.46 424.148C1174.06 422.91 1172.14 417.748 1168.16 412.617C1164.19 407.487 1159.67 404.332 1158.07 405.569C1156.48 406.807 1158.4 411.97 1162.37 417.1C1166.35 422.23 1170.87 425.386 1172.46 424.148Z" fill="#B0C6ED" stroke="#4267E7" stroke-width="3" stroke-miterlimit="10" stroke-linecap="round"/>
<path d="M425.492 13.8657C427.396 7.66188 427.373 2.15198 425.44 1.55896C423.508 0.965951 420.398 5.51439 418.494 11.7182C416.59 17.922 416.613 23.4319 418.546 24.0249C420.478 24.6179 423.588 20.0695 425.492 13.8657Z" fill="#B0C6ED" stroke="#4267E7" stroke-width="3" stroke-miterlimit="10" stroke-linecap="round"/>
<path d="M1050.25 154.461C1055.33 154.461 1059.45 150.342 1059.45 145.261C1059.45 140.18 1055.33 136.061 1050.25 136.061C1045.17 136.061 1041.05 140.18 1041.05 145.261C1041.05 150.342 1045.17 154.461 1050.25 154.461Z" fill="#F7D3B5" stroke="#3B65EE" stroke-width="3" stroke-miterlimit="10" stroke-linecap="round"/>
<path d="M129.927 144.849C135.008 144.849 139.127 140.73 139.127 135.649C139.127 130.568 135.008 126.449 129.927 126.449C124.846 126.449 120.727 130.568 120.727 135.649C120.727 140.73 124.846 144.849 129.927 144.849Z" fill="white"/>
<path d="M1105.59 306.05C1110.67 306.05 1114.79 301.931 1114.79 296.85C1114.79 291.769 1110.67 287.65 1105.59 287.65C1100.51 287.65 1096.39 291.769 1096.39 296.85C1096.39 301.931 1100.51 306.05 1105.59 306.05Z" fill="#E5ECF9" stroke="#4267E7" stroke-width="3" stroke-miterlimit="10" stroke-linecap="round"/>
<path d="M1090.1 405.22C1095.18 405.22 1099.3 401.101 1099.3 396.02C1099.3 390.939 1095.18 386.82 1090.1 386.82C1085.02 386.82 1080.9 390.939 1080.9 396.02C1080.9 401.101 1085.02 405.22 1090.1 405.22Z" fill="#BADDD7" stroke="#3B65EE" stroke-width="3" stroke-miterlimit="10" stroke-linecap="round"/>
<path d="M330.981 233.66C336.062 233.66 340.181 229.541 340.181 224.46C340.181 219.379 336.062 215.26 330.981 215.26C325.9 215.26 321.781 219.379 321.781 224.46C321.781 229.541 325.9 233.66 330.981 233.66Z" fill="#B0C6ED" stroke="#4267E7" stroke-width="3" stroke-miterlimit="10" stroke-linecap="round"/>
<path d="M129.38 209C134.461 209 138.58 204.881 138.58 199.8C138.58 194.719 134.461 190.6 129.38 190.6C124.299 190.6 120.18 194.719 120.18 199.8C120.18 204.881 124.299 209 129.38 209Z" fill="#BADDD7" stroke="#3B65EE" stroke-width="3" stroke-miterlimit="10" stroke-linecap="round"/>
<path d="M235.052 332.291C240.133 332.291 244.252 328.172 244.252 323.091C244.252 318.01 240.133 313.891 235.052 313.891C229.971 313.891 225.852 318.01 225.852 323.091C225.852 328.172 229.971 332.291 235.052 332.291Z" fill="#E5ECF9" stroke="#4267E7" stroke-width="3" stroke-miterlimit="10" stroke-linecap="round"/>
<path d="M397.938 241.454C404.314 240.247 409.178 237.658 408.802 235.672C408.426 233.686 402.952 233.055 396.576 234.262C390.2 235.469 385.336 238.057 385.712 240.043C386.088 242.029 391.562 242.661 397.938 241.454Z" fill="#EAA2AC" stroke="#3B65EE" stroke-width="3" stroke-miterlimit="10" stroke-linecap="round"/>
<path d="M401.852 212C401.852 212 424.052 195.57 417.132 182.1L426.352 187.39C435.942 202.39 413.302 214.04 413.302 214.04L401.852 212Z" fill="#AEBACE" stroke="#3B65EE" stroke-width="3" stroke-miterlimit="10" stroke-linecap="round"/>
<path d="M1066.12 329.193C1067.9 328.242 1066.87 322.829 1063.82 317.103C1060.76 311.377 1056.84 307.506 1055.06 308.457C1053.27 309.409 1054.3 314.822 1057.36 320.548C1060.41 326.274 1064.33 330.144 1066.12 329.193Z" fill="#E5ECF9" stroke="#4267E7" stroke-width="3" stroke-miterlimit="10" stroke-linecap="round"/>
<path d="M1199.57 269.211C1207.49 279.939 1212.08 292.756 1212.78 306.071L1232.08 299.211C1232.08 299.211 1232.26 285.591 1218.08 273.971L1199.57 269.211Z" fill="#F7D3B5" stroke="#3B65EE" stroke-width="3" stroke-miterlimit="10" stroke-linecap="round"/>
<path d="M185.719 373.3C192.519 395.2 221.609 379.55 221.609 379.55L225.849 366.23C225.849 366.23 202.119 377.12 200.679 365.34L185.719 373.3Z" fill="#BADDD7" stroke="#3B65EE" stroke-width="3" stroke-miterlimit="10" stroke-linecap="round"/>
<path d="M156.117 178C163.227 188.48 157.177 199.91 157.177 199.91L174.607 201.69C174.607 201.69 182.877 193.69 170.467 179.32L156.117 178Z" fill="#E5ECF9" stroke="#4267E7" stroke-width="3" stroke-miterlimit="10" stroke-linecap="round"/>
<path d="M301.539 323.791L313.339 307.001C313.339 307.001 335.099 289.241 323.999 276.641L311.869 293.791C311.869 293.791 313.599 305.491 301.539 323.791Z" fill="#EAA2AC" stroke="#3B65EE" stroke-width="3" stroke-miterlimit="10" stroke-linecap="round"/>
<path d="M159.505 387.097C161.366 386.308 160.821 380.825 158.287 374.85C155.754 368.876 152.191 364.673 150.33 365.462C148.47 366.251 149.015 371.734 151.548 377.708C154.082 383.683 157.644 387.886 159.505 387.097Z" fill="#B0C6ED" stroke="#4267E7" stroke-width="3" stroke-miterlimit="10" stroke-linecap="round"/>
<path d="M310.739 389.961C315.82 389.961 319.939 385.842 319.939 380.761C319.939 375.68 315.82 371.561 310.739 371.561C305.658 371.561 301.539 375.68 301.539 380.761C301.539 385.842 305.658 389.961 310.739 389.961Z" fill="#F7D3B5" stroke="#3B65EE" stroke-width="3" stroke-miterlimit="10" stroke-linecap="round"/>
<path d="M1183.56 139.34C1182.78 139.312 1182.02 139.588 1181.44 140.11C1174.74 146.23 1168.34 148.851 1162.44 147.921C1158.79 147.341 1155.18 145.4 1151.71 142.15C1153.7 139.283 1155.48 136.275 1157.03 133.15C1158.4 130.614 1158.7 127.639 1157.87 124.88C1157.04 122.121 1155.15 119.805 1152.61 118.441C1150.07 117.076 1147.1 116.775 1144.34 117.604C1141.58 118.433 1139.27 120.324 1137.9 122.86C1136.96 124.484 1136.47 126.326 1136.47 128.201C1136.47 130.075 1136.96 131.917 1137.9 133.541C1139.66 136.676 1141.7 139.651 1143.98 142.43C1139.3 147.73 1134.52 149.69 1129.83 148.34C1113.69 143.69 1113.53 125.531 1113.53 124.761C1113.49 124.009 1113.16 123.303 1112.61 122.786C1112.06 122.27 1111.34 121.982 1110.59 121.982C1109.83 121.982 1109.11 122.27 1108.56 122.786C1108.01 123.303 1107.68 124.009 1107.64 124.761C1107.64 125.001 1107.73 148.131 1128.2 154.031C1135.09 156.031 1141.74 153.58 1147.98 146.81L1148.04 146.74C1151.75 150.362 1156.45 152.799 1161.54 153.74C1169.32 154.96 1177.37 151.84 1185.44 144.46L1185.64 144.27C1186.01 143.859 1186.27 143.35 1186.36 142.803C1186.46 142.255 1186.4 141.691 1186.19 141.176C1185.98 140.661 1185.63 140.215 1185.18 139.89C1184.73 139.565 1184.2 139.375 1183.64 139.34H1183.56ZM1143.67 124.881C1144.19 124.325 1144.83 123.896 1145.54 123.626C1146.26 123.357 1147.02 123.253 1147.78 123.323C1148.54 123.394 1149.27 123.636 1149.92 124.033C1150.57 124.429 1151.12 124.969 1151.53 125.61C1151.99 126.341 1152.25 127.176 1152.29 128.037C1152.32 128.897 1152.14 129.752 1151.75 130.52C1150.51 132.979 1149.14 135.363 1147.62 137.661C1145.91 135.442 1144.36 133.103 1142.98 130.661C1142.48 129.745 1142.27 128.693 1142.39 127.654C1142.52 126.616 1142.96 125.642 1143.67 124.87V124.881Z" fill="#E5ECF9" stroke="#4267E7" stroke-width="3" stroke-miterlimit="10" stroke-linecap="round"/>
<path d="M1143.94 142.471C1145.17 144.004 1146.53 145.435 1148 146.751Z" fill="#E5ECF9"/>
<path d="M1143.94 142.471C1145.17 144.004 1146.53 145.435 1148 146.751" stroke="#4267E7" stroke-width="3" stroke-miterlimit="10" stroke-linecap="round"/>
<path d="M1147.62 137.66C1148.74 139.352 1150.11 140.865 1151.68 142.15Z" fill="#E5ECF9"/>
<path d="M1147.62 137.66C1148.74 139.352 1150.11 140.865 1151.68 142.15" stroke="#4267E7" stroke-width="3" stroke-miterlimit="10" stroke-linecap="round"/>
<path d="M137.177 303.27C137.04 302.552 136.645 301.909 136.067 301.461C135.489 301.014 134.767 300.793 134.037 300.84H133.767C122.987 302.7 115.587 307.15 111.767 314.06C109.467 318.23 108.547 323.26 109.017 329.01H108.997C99.8274 329.79 93.8374 333.56 91.1774 340.23C83.2974 360.02 101.537 374.23 101.727 374.4C102.034 374.635 102.384 374.808 102.757 374.908C103.13 375.007 103.52 375.033 103.903 374.982C104.286 374.931 104.655 374.806 104.99 374.613C105.324 374.419 105.617 374.162 105.852 373.855C106.087 373.549 106.26 373.199 106.36 372.825C106.46 372.452 106.485 372.063 106.434 371.68C106.384 371.297 106.258 370.928 106.065 370.593C105.871 370.258 105.614 369.965 105.307 369.73C104.697 369.26 90.4374 358.01 96.6574 342.4C98.4574 337.87 102.927 335.29 109.987 334.84C110.793 338.346 111.9 341.776 113.297 345.09C113.823 346.417 114.604 347.627 115.597 348.651C116.59 349.675 117.775 350.494 119.084 351.06C120.393 351.627 121.801 351.93 123.228 351.952C124.654 351.974 126.071 351.716 127.397 351.19C128.724 350.665 129.934 349.884 130.958 348.891C131.982 347.898 132.801 346.713 133.368 345.404C133.934 344.094 134.237 342.686 134.259 341.26C134.282 339.833 134.023 338.417 133.497 337.09C132.857 335.322 131.767 333.752 130.334 332.535C128.901 331.318 127.175 330.496 125.327 330.15C121.896 329.516 118.424 329.132 114.937 329C114.497 324.26 115.167 320.22 116.937 317C119.827 311.74 125.827 308.29 134.767 306.74C135.534 306.599 136.215 306.165 136.667 305.53C136.903 305.209 137.069 304.842 137.157 304.453C137.245 304.064 137.252 303.662 137.177 303.27V303.27ZM122.537 345.83C121.688 345.715 120.884 345.377 120.208 344.85C119.531 344.323 119.007 343.626 118.687 342.83C117.6 340.232 116.705 337.559 116.007 334.83C118.75 335.043 121.478 335.413 124.177 335.94C125.023 336.102 125.813 336.48 126.47 337.037C127.127 337.595 127.629 338.312 127.927 339.12C128.215 339.929 128.29 340.798 128.144 341.644C127.999 342.49 127.638 343.285 127.096 343.951C126.555 344.617 125.851 345.132 125.053 345.447C124.254 345.763 123.388 345.867 122.537 345.75V345.83Z" fill="#B0C6ED" stroke="#4267E7" stroke-width="3" stroke-miterlimit="10" stroke-linecap="round"/>
<path d="M110.002 334.881C109.546 332.965 109.245 331.015 109.102 329.051Z" fill="#B0C6ED"/>
<path d="M110.002 334.881C109.546 332.965 109.245 331.015 109.102 329.051" stroke="#4267E7" stroke-width="3" stroke-miterlimit="10" stroke-linecap="round"/>
<path d="M116 334.911C115.341 332.994 114.98 330.987 114.93 328.961Z" fill="#B0C6ED"/>
<path d="M116 334.911C115.341 332.994 114.98 330.987 114.93 328.961" stroke="#4267E7" stroke-width="3" stroke-miterlimit="10" stroke-linecap="round"/>
<path d="M981.337 473.841C981.455 474.21 981.645 474.552 981.895 474.847C982.146 475.142 982.453 475.385 982.797 475.561C990.857 479.721 995.547 484.811 996.727 490.691C997.457 494.321 996.897 498.381 995.047 502.761C991.68 501.894 988.254 501.269 984.797 500.891C982.933 500.669 981.042 500.935 979.311 501.662C977.579 502.39 976.066 503.553 974.919 505.04C973.771 506.527 973.029 508.285 972.765 510.145C972.5 512.004 972.722 513.9 973.409 515.648C974.096 517.395 975.224 518.935 976.684 520.117C978.144 521.298 979.885 522.081 981.737 522.388C983.59 522.696 985.491 522.518 987.254 521.872C989.017 521.225 990.583 520.133 991.797 518.701C994.123 515.958 996.204 513.017 998.017 509.911C1004.62 512.451 1008.11 516.261 1008.48 521.121C1009.73 537.871 992.747 544.331 992.027 544.591C991.303 544.872 990.716 545.423 990.39 546.128C990.063 546.833 990.023 547.637 990.277 548.371C990.556 549.095 991.105 549.682 991.808 550.011C992.511 550.339 993.313 550.382 994.047 550.131C994.267 550.051 1015.94 541.931 1014.35 520.681C1013.82 513.531 1009.23 508.141 1000.71 504.681H1000.63C1002.73 499.95 1003.38 494.701 1002.49 489.601C1000.94 481.871 995.207 475.411 985.487 470.401L985.237 470.291C984.719 470.077 984.15 470.016 983.598 470.114C983.045 470.213 982.533 470.468 982.121 470.848C981.709 471.229 981.414 471.72 981.272 472.262C981.129 472.805 981.145 473.377 981.317 473.911L981.337 473.841ZM981.637 516.281C980.56 515.796 979.69 514.945 979.18 513.879C978.67 512.814 978.554 511.602 978.852 510.459C979.151 509.316 979.844 508.315 980.81 507.635C981.775 506.954 982.951 506.638 984.127 506.741C986.863 507.039 989.578 507.503 992.257 508.131C990.754 510.507 989.084 512.773 987.257 514.911C986.709 515.563 986 516.061 985.2 516.356C984.401 516.651 983.538 516.732 982.697 516.591C982.334 516.525 981.979 516.421 981.637 516.281V516.281Z" fill="#F7D3B5" stroke="#3B65EE" stroke-width="3" stroke-miterlimit="10" stroke-linecap="round"/>
<path d="M998 509.909C999.012 508.216 999.884 506.444 1000.61 504.609Z" fill="#E5ECF9"/>
<path d="M998 509.909C999.012 508.216 999.884 506.444 1000.61 504.609" stroke="#4267E7" stroke-width="3" stroke-miterlimit="10" stroke-linecap="round"/>
<path d="M992.258 508.13C993.453 506.49 994.393 504.68 995.048 502.76Z" fill="#E5ECF9"/>
<path d="M992.258 508.13C993.453 506.49 994.393 504.68 995.048 502.76" stroke="#4267E7" stroke-width="3" stroke-miterlimit="10" stroke-linecap="round"/>
<path d="M384.282 92.1599C384.175 92.8855 384.338 93.6249 384.74 94.2385C385.142 94.852 385.754 95.2972 386.462 95.4899L386.732 95.5399C397.532 97.2699 405.972 95.4699 411.802 90.1699C415.544 86.5895 418.137 81.9775 419.252 76.9199H419.342C428.272 79.1599 435.162 77.5399 439.832 72.0999C453.712 55.9299 441.082 36.5499 440.952 36.3499C440.51 35.7121 439.838 35.2703 439.077 35.1174C438.316 34.9645 437.526 35.1123 436.872 35.5299C436.232 35.9703 435.789 36.6416 435.634 37.4025C435.479 38.1633 435.625 38.9546 436.042 39.6099C436.472 40.2499 446.302 55.5199 435.362 68.2599C432.182 71.9599 427.122 72.9599 420.292 71.0899C420.678 67.5129 420.745 63.9087 420.492 60.3199C420.36 58.4504 419.747 56.6468 418.711 55.0849C417.675 53.523 416.252 52.2561 414.581 51.4075C412.91 50.5589 411.048 50.1576 409.176 50.2427C407.303 50.3278 405.485 50.8965 403.898 51.8932C402.311 52.8899 401.009 54.2807 400.119 55.9302C399.23 57.5796 398.782 59.4314 398.821 61.3051C398.859 63.1789 399.383 65.0107 400.34 66.622C401.297 68.2334 402.655 69.5694 404.282 70.4999C407.291 72.2473 410.422 73.7747 413.652 75.0699C412.532 79.6899 410.582 83.2999 407.842 85.7899C403.402 89.7899 396.612 91.1399 387.652 89.6999C387.27 89.6386 386.88 89.653 386.504 89.7425C386.129 89.832 385.774 89.9946 385.461 90.2213C385.148 90.4479 384.883 90.734 384.68 91.0632C384.478 91.3924 384.343 91.7583 384.282 92.1399V92.1599ZM412.002 56.6599C412.763 57.0444 413.41 57.6216 413.878 58.3339C414.346 59.0463 414.62 59.8689 414.672 60.7199C414.868 63.5131 414.868 66.3166 414.672 69.1099C412.143 68.0254 409.682 66.7899 407.302 65.4099C406.561 64.9805 405.942 64.3679 405.506 63.6309C405.07 62.8939 404.83 62.0572 404.81 61.201C404.79 60.3447 404.99 59.4977 405.391 58.7411C405.793 57.9844 406.382 57.3436 407.102 56.8799C407.667 56.5185 408.3 56.277 408.962 56.1704C409.625 56.0637 410.302 56.0942 410.952 56.2599C411.314 56.357 411.666 56.4911 412.002 56.6599V56.6599Z" fill="#AEBACE" stroke="#3B65EE" stroke-width="3" stroke-miterlimit="10" stroke-linecap="round"/>
<path d="M420.289 71.1094C420.113 73.0699 419.779 75.013 419.289 76.9194Z" fill="#B0C6ED"/>
<path d="M420.289 71.1094C420.113 73.0699 419.779 75.013 419.289 76.9194" stroke="#4267E7" stroke-width="3" stroke-miterlimit="10" stroke-linecap="round"/>
<path d="M414.578 69.1094C414.57 71.1446 414.257 73.1671 413.648 75.1094Z" fill="#B0C6ED"/>
<path d="M414.578 69.1094C414.57 71.1446 414.257 73.1671 413.648 75.1094" stroke="#4267E7" stroke-width="3" stroke-miterlimit="10" stroke-linecap="round"/>
<path d="M10.9219 315L35.6919 317.17C47.0019 310.87 51.2519 295 51.2519 295L33.7619 292.43C33.7619 292.43 27.0019 311.61 10.9219 315Z" fill="#D5DCF7" stroke="#4267E7" stroke-width="3" stroke-miterlimit="10" stroke-linecap="round"/>
<path d="M243.961 203.91L261.651 224.46L256.921 203.27L241.031 179.35L243.961 203.91Z" fill="#B0C6ED" stroke="#4267E7" stroke-width="3" stroke-miterlimit="10" stroke-linecap="round"/>
<path d="M1022.28 394.221L1033.97 423.501L1040.6 406.641L1030.86 376.211L1022.28 394.221Z" fill="#EAA2AC" stroke="#3B65EE" stroke-width="3" stroke-miterlimit="10" stroke-linecap="round"/>
<path d="M330.219 191.881L349.529 191.121L368.559 166.811L346.149 168.771L330.219 191.881Z" fill="#AEBACE" stroke="#3B65EE" stroke-width="3" stroke-miterlimit="10" stroke-linecap="round"/>
<path d="M1004.57 450.581L1036.33 465.681L1053.56 460.721L1019.46 447.641L1004.57 450.581Z" fill="#BADDD7" stroke="#3B65EE" stroke-width="3" stroke-miterlimit="10" stroke-linecap="round"/>
<path d="M271.523 292.6C282.373 301.37 282.963 314.94 282.963 314.94L293.803 305.61C293.803 305.61 291.303 289.83 279.803 285.49L271.523 292.6Z" fill="#F7D3B5" stroke="#3B65EE" stroke-width="3" stroke-miterlimit="10" stroke-linecap="round"/>
<path d="M84.4813 239.541C89.5623 239.541 93.6812 235.422 93.6812 230.341C93.6812 225.26 89.5623 221.141 84.4813 221.141C79.4002 221.141 75.2812 225.26 75.2812 230.341C75.2812 235.422 79.4002 239.541 84.4813 239.541Z" fill="#AEBACE" stroke="#3B65EE" stroke-width="3" stroke-miterlimit="10" stroke-linecap="round"/>
<path d="M340.177 104.509C345.258 104.509 349.377 100.39 349.377 95.3094C349.377 90.2284 345.258 86.1094 340.177 86.1094C335.096 86.1094 330.977 90.2284 330.977 95.3094C330.977 100.39 335.096 104.509 340.177 104.509Z" fill="#EAA2AC" stroke="#3B65EE" stroke-width="3" stroke-miterlimit="10" stroke-linecap="round"/>
<path d="M626.568 250.77C629.976 250.77 632.738 248.007 632.738 244.6C632.738 241.192 629.976 238.43 626.568 238.43C623.161 238.43 620.398 241.192 620.398 244.6C620.398 248.007 623.161 250.77 626.568 250.77Z" fill="white"/>
<path d="M741.474 282.461C745.965 261.689 739.9 242.751 727.927 240.162C715.954 237.574 702.607 252.314 698.116 273.086C693.625 293.858 699.69 312.796 711.663 315.384C723.636 317.973 736.983 303.233 741.474 282.461Z" fill="#3B65EE" stroke="#3B65EE" stroke-width="11" stroke-miterlimit="10"/>
<path d="M715.553 263.09C718.96 263.09 721.723 260.328 721.723 256.92C721.723 253.512 718.96 250.75 715.553 250.75C712.145 250.75 709.383 253.512 709.383 256.92C709.383 260.328 712.145 263.09 715.553 263.09Z" fill="white"/>
<path d="M728.459 251.8C730.448 251.8 732.059 250.188 732.059 248.2C732.059 246.211 730.448 244.6 728.459 244.6C726.471 244.6 724.859 246.211 724.859 248.2C724.859 250.188 726.471 251.8 728.459 251.8Z" fill="white"/>
<path d="M639.483 239.479C641.471 239.479 643.083 237.868 643.083 235.879C643.083 233.891 641.471 232.279 639.483 232.279C637.495 232.279 635.883 233.891 635.883 235.879C635.883 237.868 637.495 239.479 639.483 239.479Z" fill="white"/>
<path d="M921.997 358.169C927.078 358.169 931.197 354.051 931.197 348.969C931.197 343.888 927.078 339.77 921.997 339.77C916.916 339.77 912.797 343.888 912.797 348.969C912.797 354.051 916.916 358.169 921.997 358.169Z" fill="#F7D3B5" stroke="#3B65EE" stroke-width="3" stroke-miterlimit="10" stroke-linecap="round"/>
<path d="M901.093 268L908.163 259.21C897.163 260.94 884.953 234.73 884.953 234.73L877.703 247.78C877.703 247.78 887.223 273.75 901.093 268Z" fill="#D5DCF7" stroke="#4267E7" stroke-width="3" stroke-miterlimit="10" stroke-linecap="round"/>
</svg>
