<?xml version="1.0" encoding="UTF-8"?>
<svg id="Layer_2" data-name="Layer 2" xmlns="http://www.w3.org/2000/svg" viewBox="0 0 531.37 610.21">
  <defs>
    <style>
      .cls-1, .cls-2, .cls-3, .cls-4, .cls-5, .cls-6, .cls-7, .cls-8 {
        stroke-linejoin: round;
      }

      .cls-1, .cls-2, .cls-3, .cls-4, .cls-5, .cls-7, .cls-8 {
        stroke-linecap: round;
      }

      .cls-1, .cls-3, .cls-4, .cls-5 {
        stroke: #3b65ee;
      }

      .cls-1, .cls-3, .cls-9 {
        stroke-width: 3px;
      }

      .cls-1, .cls-4, .cls-8 {
        fill: none;
      }

      .cls-10, .cls-2, .cls-11, .cls-6, .cls-7 {
        fill: #3b65ef;
      }

      .cls-2, .cls-6, .cls-7, .cls-9, .cls-8, .cls-12 {
        stroke: #3b65ef;
      }

      .cls-11, .cls-13 {
        opacity: .2;
      }

      .cls-3, .cls-5, .cls-14, .cls-9, .cls-12 {
        fill: #fff;
      }

      .cls-4, .cls-5, .cls-8, .cls-12 {
        stroke-width: 2px;
      }

      .cls-15, .cls-16, .cls-13 {
        fill: #3b65ee;
      }

      .cls-7 {
        stroke-width: .75px;
      }

      .cls-16 {
        opacity: .1;
      }

      .cls-9, .cls-12 {
        stroke-miterlimit: 10;
      }
    </style>
  </defs>
  <g id="Layer_2-2" data-name="Layer 2">
    <g>
      <path class="cls-13" d="M62.02,570.28S-.32,567.56,0,573.56s204.37,70.86,456.85,12.43c0,0,26.07-9.22-148.73-16.32s-246.1.62-246.1.62Z"/>
      <path class="cls-12" d="M281.63,119.96c.05-.49-88.3-154.4-145.3-103.4s125,117,131,117,13.6-7.21,14.3-13.6Z"/>
      <path class="cls-8" d="M264.88,124.74S172.08,17.77,154.2,41.17s83.23,78.76,110.68,83.58Z"/>
      <path class="cls-11" d="M264.88,124.74S172.08,17.77,154.2,41.17s83.23,78.76,110.68,83.58Z"/>
      <path class="cls-12" d="M349.32,527.56s61,11,61,37c0,0,0,8-3,12,0,0-2,9-10,11,0,0-24,4-39-2,0,0-26-40-9-58Z"/>
      <path class="cls-7" d="M384.32,557.56s20.33,9.07,21.66,22.53l-2.45,2.91s.28-12.94-19.22-25.44Z"/>
      <path class="cls-9" d="M130.32,447.56s-21-41-55-24-17,39-17,39c0,0-30-3-29,27s22,23,22,23c0,0-28.75,19.82-17.88,36.91s30.49,11.09,30.49,11.09c0,0-9.29,18,12.05,19.5s46.55-9.03,48.94-20.27,5.39-112.23,5.39-112.23Z"/>
      <path class="cls-13" d="M469.32,579.56s14-15.87,17.5-14.93-10.5,15.93-10.5,15.93c0,0,8-6.99,10-4.49s-1.93,4.49-1.93,4.49c0,0,5.74-5,5.84,0,0,0,5.24-4,13.1,2l-44.16.51s7.16-4.51,10.16-3.51Z"/>
      <path class="cls-4" d="M454.13,584.11s12.69-43.05,39.69-76.05"/>
      <path class="cls-5" d="M508.82,485s1-19.94,14-10.94-6,17-6,17c0,0,19-6,12,13s-20,1.46-20,1.46c0,0,9,19.54-7,18.54s-8-19-3-21-15,15-17-1,16.35-6,16.35-6c0,0-25.35-7-8.35-22s19,10.94,19,10.94Z"/>
      <path class="cls-3" d="M514.17,498.78c-1.75,3.45-5.57,5.02-8.52,3.52s-2.58-5.79-.83-9.24,4.22-4.74,7.17-3.24,3.93,5.51,2.18,8.96Z"/>
      <path class="cls-4" d="M456.71,584.11s-2.07-40.98-9.98-60.02"/>
      <path class="cls-5" d="M441.9,495.74s6.93-15.68,14.93-5.68-8.34,15-8.34,15c0,0,20.11-.72,9.22,14.14-10.88,14.86-17.69-5.64-17.69-5.64,0,0-5.19,23.5-21.19,8.5s8.05-16.33,11.02-15.16-19.02-4.84-6.02-20.84,20.14.37,18.07,9.68Z"/>
      <path class="cls-1" d="M444.82,505.06c0,3.31-2.46,6-5.5,6s-5.5-2.69-5.5-6,2.96-6,6-6,5,2.69,5,6Z"/>
      <path class="cls-5" d="M453.82,584.06s10-17,25-12c0,0-3,13-25,12Z"/>
      <path class="cls-5" d="M453.5,584.11s-16.67-7.05-15.67-37.05c0,0,25.34,22.11,15.67,37.05Z"/>
      <path class="cls-5" d="M453.82,584.06s13.66-34,27-34c3,0-27,34-27,34Z"/>
      <path class="cls-15" d="M443.73,583.07s-.91-8.01-10.91-14.01"/>
      <path class="cls-15" d="M440.73,583.07s2.59-5.51-9.41-9.51"/>
      <path class="cls-13" d="M450.82,584s-12.5-20.44-14.5-17.44,12.5,17.44,12.5,17.44c0,0-15.16-11.9-15.33-7.17s.75,7.17.75,7.17c0,0-5.92-9.44-16.92-.44l33.5.44Z"/>
      <path class="cls-15" d="M482.48,583.07s2.84-7.37,11.34-7.94"/>
      <path class="cls-15" d="M485.64,582.44s4.68-6.36,13.03-4.67"/>
      <path class="cls-15" d="M412.32,576.11s5.95.82,8.54,7.5"/>
      <path class="cls-15" d="M413.32,579.62s3.16.43,4.54,3.99"/>
      <path class="cls-13" d="M514.17,498.78c-1.75,3.45-5.57,5.02-8.52,3.52s-2.58-5.79-.83-9.24,4.22-4.74,7.17-3.24,3.93,5.51,2.18,8.96Z"/>
      <path class="cls-13" d="M444.82,505.06c0,3.31-2.46,6-5.5,6s-5.5-2.69-5.5-6,2.96-6,6-6,5,2.69,5,6Z"/>
      <path class="cls-9" d="M244.32,264.56s-41,71-74,116-71,87-63,169c0,0-1,12,6,17,0,0,105,65,238,29,0,0,15,0,18-4,0,0,4-1,7-6,0,0,6-14-13-22,0,0,13-147,6-276s-22-159-82-167-109,37-102,82,45,60,59,62Z"/>
      <path class="cls-12" d="M353.32,174.56S377.32-10.44,326.32,1.56c-40.73,9.58-36.17,81.69-27.08,121.02,2.29,9.91,4.87,17.75,7.08,21.98"/>
      <path class="cls-8" d="M208.32,171.56s6.67-4,23.34,0c0,0-8.34,21-13.34,21s-10-21-10-21Z"/>
      <ellipse class="cls-10" cx="272.82" cy="151.56" rx="7.5" ry="15"/>
      <ellipse class="cls-10" cx="210.32" cy="152.06" rx="5.5" ry="11"/>
      <path class="cls-10" d="M218.32,193.56s-5,7-13,9c0,0,11-7,11-11l2,2Z"/>
      <path class="cls-10" d="M218.32,193.56s5,7,13,9c0,0-11-7-11-11l-2,2Z"/>
      <path class="cls-10" d="M197.32,171.56s-22.25-8.56-43.12-1.78l43.12,1.78Z"/>
      <path class="cls-10" d="M195.44,179.33s-23.01-6.22-43.08,2.66l43.08-2.66Z"/>
      <path class="cls-10" d="M198.28,183.78s-23.58-3.47-42.47,7.71l42.47-7.71Z"/>
      <path class="cls-10" d="M243.32,176.56s22.25-8.56,43.12-1.78l-43.12,1.78Z"/>
      <path class="cls-10" d="M245.2,184.33s23.01-6.22,43.08,2.66l-43.08-2.66Z"/>
      <path class="cls-10" d="M242.36,188.78s23.58-3.47,42.47,7.71l-42.47-7.71Z"/>
      <path class="cls-10" d="M293.07,259.34s38.25-12.78,47.25-41.78c0,0-3.5,31.57-47.25,41.78Z"/>
      <path class="cls-10" d="M296.32,262.56s15.75-2.14,20.38-5.57c0,0-8.38,8.57-20.38,5.57Z"/>
      <path class="cls-6" d="M141.32,451.56s73-64,131-23,4.25,136-10.88,151.5c0,0,69.88-104.5,8.88-146.5s-129,18-129,18Z"/>
      <path class="cls-10" d="M364.32,562.56s-38-17-83.91-12.25c0,0,48.91.25,83.91,14.68v-2.43Z"/>
      <path class="cls-2" d="M362.32,573.56s9.71,8.91,8.35,17.45l-2.3,1.43s.94-9.88-6.06-18.88Z"/>
      <path class="cls-2" d="M354.05,595.48s5.28-20.92-16.72-20.92c0,0,19,2,14,21l2.72-.08Z"/>
      <path class="cls-10" d="M70.32,466.56s10,3,14,9c0,0-2-12-14-9Z"/>
      <path class="cls-10" d="M94.32,532.56s-3,8-9,11c0,0,9-1,9-11Z"/>
      <path class="cls-7" d="M397.82,555.06s11.22,7.2,12.11,14.1l.37-5.36s-3.48-6.74-12.48-8.74Z"/>
      <path class="cls-8" d="M338.82,156.06s5-128-10-127-18,107,10,127Z"/>
      <path class="cls-10" d="M303.32,140.56s6,14,10,15c0,0-10.79-20-10.39-22l.39,7Z"/>
      <path class="cls-10" d="M321.14,166.56s5.52,6,10.35,8c0,0-5.54,0-10.35-8Z"/>
      <path class="cls-11" d="M338.82,156.06s5-128-10-127-18,107,10,127Z"/>
      <path class="cls-11" d="M115.32,523.56s53-86,100-70,69.16,71.61,49.08,121.81c0,0,51.68-10.19,65.3,0s11.68,22.71,11.68,22.71c0,0-110.07,32.49-228.07-31.51,0,0-8-17,2-43Z"/>
      <path class="cls-11" d="M348.92,577.62c-.3-.27,13.88-2.33,16.14,16.31l-11.74.64s1.2-11.89-4.4-16.94Z"/>
      <path class="cls-11" d="M365.06,576.51s8.63-1.51,10.44,10.27l-4.83,4.23s-2.87-11.55-5.61-14.5Z"/>
      <path class="cls-11" d="M370.81,533.9s1.52,22.66,1.52,25.66c0,0,21.21,3.86,28.61,26.43,0,0-13.54,4.91-26.07,2.74,0,0,12.95-15.6-9.8-24.39l1.26-32.62,4.48,2.18Z"/>
      <path class="cls-11" d="M257.32,264.72s49.91,4.32,79.95-37.42c0,0,16.05,76.58-79.95,37.42Z"/>
      <path class="cls-11" d="M208.32,171.56s6.67-4,23.34,0c0,0-8.34,21-13.34,21s-10-21-10-21Z"/>
      <path class="cls-11" d="M218.32,191.56s1.37-14.78,12.18-19.39c0,0-5.18,18.39-12.18,19.39Z"/>
      <path class="cls-11" d="M81.99,579.05s-23.63-14.66-5.65-29.58c0,0-36.02,2.09-16.02-31.91s35.78-15,35.78-15c0,0-2.68-37,17.77-27,0,0-14.48,55.15-4.52,86.07,0,0,4.19,7.18,7.58,8.05,0,0-21.28,10.85-34.95,9.36Z"/>
      <path class="cls-11" d="M70.32,466.56s-11-21,3-24,34,21,11,33c0,0-4-10-14-9Z"/>
      <g>
        <path class="cls-14" d="M244.38,414.77c-.21-.48-.29-1.02-.21-1.54s.3-1.01.65-1.41c21.46-25.99,21.8-67.68,21.87-68.11,0-.42.09-.84.28-1.22.19-.38.47-.7.81-.95.35-.24.76-.4,1.18-.47.42-.07.86-.05,1.27.06,40.22,11.8,64.96,9.56,65.2,9.6.69-.09,1.39.08,1.97.48.57.4.97,1,1.13,1.68,12.06,45.16-18.37,89.08-19.67,90.93-.31.42-.73.75-1.22.96-.48.2-1.02.27-1.54.19-61-8.98-71.36-29.26-71.71-30.19Z"/>
        <path class="cls-13" d="M343.03,363.7s8.55,53.79-18.34,90.46c0,0-34.22-2.44-61.2-21.54-29.96-21.2-2.23-1.11-2.23-1.11l58.79,14.7s24.2-48.28,22.98-82.51Z"/>
        <path class="cls-15" d="M242.05,415.8c-.22-.51-.3-1.06-.22-1.61s.31-1.06.68-1.48c22.48-27.23,22.84-70.89,22.9-71.34,0-.44.1-.88.3-1.28.2-.4.49-.74.85-1,.37-.25.79-.42,1.23-.5.44-.08.9-.05,1.33.06,42.12,12.36,68.03,10.01,68.28,10.05.72-.09,1.46.08,2.06.5.6.42,1.02,1.04,1.18,1.76,12.63,47.3-19.24,93.3-20.6,95.24-.33.44-.77.79-1.27,1-.51.21-1.06.28-1.61.2-63.89-9.4-74.75-30.65-75.11-31.62ZM269.96,342.67c-.69,11.98-4.17,47.73-24.15,73.31,3.88,4.76,19.93,20.12,71.66,28.06,5.5-8.48,30.13-49.87,20.35-91.44-23,.18-45.88-3.18-67.87-9.94Z"/>
        <path class="cls-15" d="M306.06,391.79c3.48.51,6.71-1.88,7.22-5.35.51-3.47-1.89-6.69-5.37-7.2-3.48-.51-6.71,1.88-7.22,5.35-.51,3.47,1.89,6.69,5.37,7.2Z"/>
        <path class="cls-15" d="M287.13,389c3.48.51,6.71-1.88,7.22-5.35.51-3.47-1.89-6.69-5.37-7.2-3.48-.51-6.71,1.88-7.22,5.35-.51,3.47,1.89,6.69,5.37,7.2Z"/>
        <path class="cls-15" d="M273.16,389.28l-.4-.06c-.64-.12-1.3.01-1.84.37s-.92.91-1.05,1.55c-1.28,6.01-.4,12.28,2.47,17.72,2.87,5.44,7.56,9.71,13.25,12.07,6.48,2.8,13.81,2.92,20.38.35,6.57-2.57,11.86-7.63,14.71-14.07.1-.33.13-.67.09-1.01-.04-.34-.14-.67-.3-.97-.17-.3-.39-.56-.66-.77-.27-.21-.58-.37-.91-.46l-45.75-14.72Z"/>
      </g>
      <g>
        <path class="cls-9" d="M220.32,321.56s-9,11-5,24,27,49,48,36,11-48,6-57-21-34-49-3Z"/>
        <path class="cls-2" d="M247.58,365.03s10.75,14.53,15.75,17.53c0,0-12.49-1.07-15.75-17.53Z"/>
        <path class="cls-2" d="M257.32,355.56s3.33,12.51,14.16,17.75c0,0-9.16-14.75-14.16-17.75Z"/>
        <path class="cls-11" d="M247.58,383.26s-36.25-23.7-19.25-44.7,43.61-3,47.81,17c0,0,2.7,31.41-28.55,27.7Z"/>
      </g>
      <g>
        <path class="cls-9" d="M387.32,324.56s-15-3-26,9-40,54-25,76,53-14,62-33,20-42-11-52Z"/>
        <path class="cls-2" d="M355.32,384.56s-17.75,17.97-21.38,20.48l1.37,2.88s17-15.37,20-23.37Z"/>
        <path class="cls-2" d="M352.22,416.21s9.1-9.65,14.1-16.65c0,0-6.68,12.27-9.84,15.63l-4.27,1.02Z"/>
        <path class="cls-11" d="M333.95,396.24s6.38-32.93,28.38-31.81,36.41,6.12,31.21,20.12-36.55,41.68-52.05,29.94c-9.16-6.94-7.54-18.25-7.54-18.25Z"/>
      </g>
      <path class="cls-11" d="M259.48,389.18s24.34-6.12,17.34-34.12c0,0-2.2,24.01-17.1,28.51l-.24,5.61Z"/>
      <path class="cls-16" d="M296.32,549.48s17.92-100.09,73.96-119l-6.96,133.09s-37-14.17-67-14.08Z"/>
    </g>
  </g>
</svg>