<svg width="35" height="66" viewBox="0 0 35 66" fill="none" xmlns="http://www.w3.org/2000/svg">
<g clip-path="url(#clip0_9_392)">
<path opacity="0.2" d="M2.69993 53.87L2.45993 53.91C0.00993347 54.3 -0.860067 57.37 0.999933 59L7.21993 64.43C7.74993 64.89 8.43993 65.15 9.13993 65.15H26.0599C26.7699 65.15 27.4599 64.89 27.9999 64.41L33.3199 59.7C35.0399 58.17 34.4099 55.34 32.1899 54.7L29.5699 53.94C29.3099 53.86 29.0299 53.82 28.7599 53.82H3.15993C2.99993 53.82 2.84993 53.83 2.68993 53.86L2.69993 53.87Z" fill="#3B65EE"/>
<path d="M7.96997 9.53999L0.989967 55.51C0.919967 55.97 1.09997 56.44 1.46997 56.73L7.77997 61.74C8.00997 61.92 8.29997 62.02 8.58997 62.02H25.52C25.84 62.02 26.15 61.9 26.39 61.69L31.97 56.7C32.28 56.42 32.44 56.01 32.4 55.59L27.71 9.59999C27.64 8.92999 27.08 8.42999 26.41 8.42999H9.25997C8.60997 8.42999 8.06997 8.89999 7.96997 9.53999Z" fill="white" stroke="#3B65EE" stroke-width="0.85" stroke-miterlimit="10"/>
<path d="M17.74 15.8C23.9311 15.8 28.95 14.5553 28.95 13.02C28.95 11.4846 23.9311 10.24 17.74 10.24C11.5489 10.24 6.53003 11.4846 6.53003 13.02C6.53003 14.5553 11.5489 15.8 17.74 15.8Z" fill="white" stroke="#3B65EE" stroke-width="0.64" stroke-linecap="round" stroke-linejoin="round"/>
<path d="M17.74 14.74C23.9311 14.74 28.95 13.4953 28.95 11.96C28.95 10.4246 23.9311 9.17999 17.74 9.17999C11.5489 9.17999 6.53003 10.4246 6.53003 11.96C6.53003 13.4953 11.5489 14.74 17.74 14.74Z" fill="white" stroke="#3B65EE" stroke-width="0.64" stroke-linecap="round" stroke-linejoin="round"/>
<path d="M30.66 8.21999C30.66 12.52 24.92 13.24 17.85 13.24C10.78 13.24 5.04004 12.53 5.04004 8.21999C5.04004 3.90999 10.78 0.429993 17.85 0.429993C24.92 0.429993 30.66 3.91999 30.66 8.21999Z" fill="white" stroke="#3B65EE" stroke-width="0.85" stroke-linecap="round" stroke-linejoin="round"/>
<path d="M17.8098 5.74999C18.6327 5.74999 19.2998 5.41868 19.2998 5.00999C19.2998 4.6013 18.6327 4.26999 17.8098 4.26999C16.9869 4.26999 16.3198 4.6013 16.3198 5.00999C16.3198 5.41868 16.9869 5.74999 17.8098 5.74999Z" fill="#3B65EE"/>
<path opacity="0.2" d="M8.55994 12.41C8.55994 12.41 2.97994 2.06999 15.2699 2.16999C27.5599 2.26999 28.6699 11.67 20.0099 13.27L8.56994 12.42L8.55994 12.41Z" fill="#3B65EE"/>
<path opacity="0.2" d="M8.97992 12.4C8.97992 12.4 8.79992 13.74 10.4899 14.07C10.4899 14.07 10.1099 15.24 11.6799 15.36C11.6799 15.36 22.8799 16.66 27.7799 14.26C27.7799 14.26 28.1899 13.35 28.0799 13.03C28.0799 13.03 28.5199 12.09 28.3599 11.76C28.3599 11.76 23.9099 14.23 8.97992 12.4Z" fill="#3B65EE"/>
<path opacity="0.2" d="M9.43003 14.89L4.29003 55.83C4.29003 55.83 3.66003 57.05 6.86003 59.32L8.13003 60.31H25.7L29.9 56.68L25.37 14.73C25.37 14.73 25.02 16.43 9.41003 14.88L9.43003 14.89Z" fill="#3B65EE"/>
<path d="M7.61987 24.8L28.3999 58.39L30.9799 56.04L8.77987 16.16L7.61987 24.8Z" fill="white"/>
<path d="M8.78003 58.39C9.49003 44.54 10.77 30.72 12.62 16.97C11.91 30.82 10.63 44.64 8.78003 58.39Z" fill="#3B65EE"/>
<path d="M26.07 58.39C24.22 44.64 22.93 30.82 22.23 16.97C24.08 30.72 25.36 44.54 26.07 58.39Z" fill="#3B65EE"/>
<path d="M19.31 34.55C19.8844 34.55 20.35 34.0844 20.35 33.51C20.35 32.9356 19.8844 32.47 19.31 32.47C18.7356 32.47 18.27 32.9356 18.27 33.51C18.27 34.0844 18.7356 34.55 19.31 34.55Z" fill="#3B65EE"/>
<path d="M16.1999 34.55C16.7743 34.55 17.2399 34.0844 17.2399 33.51C17.2399 32.9356 16.7743 32.47 16.1999 32.47C15.6255 32.47 15.1599 32.9356 15.1599 33.51C15.1599 34.0844 15.6255 34.55 16.1999 34.55Z" fill="#3B65EE"/>
<path d="M21.6699 36.21C21.9099 36.25 22.0799 36.49 22.0199 36.72C21.4499 38.86 19.3399 40.26 17.1199 39.89C14.8999 39.52 13.3399 37.53 13.4799 35.31C13.4899 35.07 13.7299 34.9 13.9699 34.93L21.6799 36.2L21.6699 36.21Z" fill="#3B65EE"/>
</g>
<defs>
<clipPath id="clip0_9_392">
<rect width="34.31" height="65.15" fill="white"/>
</clipPath>
</defs>
</svg>
