<svg width="1196" height="475" viewBox="0 0 1196 475" fill="none" xmlns="http://www.w3.org/2000/svg">
<path d="M500.841 137C500.131 137 499.451 137.1 498.781 137.27C500.181 134.03 501.001 130.17 501.001 126.01C501.001 114.67 494.941 105.47 487.461 105.47C479.981 105.47 473.921 114.67 473.921 126.01C473.921 127.54 474.041 129.03 474.251 130.47L467.341 133.86L461.131 126.15C463.331 123.01 464.691 118.83 464.691 114.23C464.691 104.47 458.631 96.55 451.151 96.55C444.431 96.55 438.871 102.95 437.811 111.34L431.451 108.74C433.481 105.63 434.751 101.32 434.751 96.55C434.751 87.05 429.761 79.3501 423.601 79.3501C417.441 79.3501 412.451 87.05 412.451 96.55C412.451 100.53 413.331 104.19 414.811 107.1C411.581 107.3 408.671 108.96 406.541 111.52C405.061 101.48 402.561 84.24 402.631 82.08C402.721 79.01 409.131 69.8301 408.541 68.9801C407.951 68.1301 401.931 75.3501 401.931 75.3501C401.931 75.3501 404.121 59.8701 403.091 59.4701C402.061 59.0701 398.511 71.83 398.511 71.83C398.511 71.83 398.991 57.0001 397.831 56.7001C396.671 56.3901 396.181 72.02 396.181 72.02C396.181 72.02 394.351 61.1001 393.121 61.1001C391.891 61.1001 393.931 74.3101 393.931 74.3101C393.931 74.3101 389.471 63.2301 388.481 63.7301C387.491 64.2301 394.111 80.7401 394.891 84.4101C395.471 87.0901 393.891 104.16 393.001 113.11L383.531 123.61L378.121 114.3C382.751 111.78 386.001 105.99 386.001 99.2501C386.001 90.1901 380.151 82.8501 372.941 82.8501C365.731 82.8501 359.881 90.1901 359.881 99.2501C359.881 102.15 360.491 104.87 361.541 107.24L353.931 110.36C354.071 109.34 354.141 108.29 354.141 107.21C354.141 98.1501 349.081 90.8101 342.831 90.8101C336.581 90.8101 331.521 98.1501 331.521 107.21C331.521 108.2 331.591 109.16 331.711 110.1L328.971 109.9C328.971 109.85 328.981 109.81 328.981 109.76C328.981 102.46 323.631 96.5401 317.041 96.5401C316.941 96.5401 316.841 96.5501 316.741 96.5601C318.231 93.3001 319.111 89.4901 319.111 85.4001C319.111 73.4401 311.771 63.74 302.711 63.74C293.651 63.74 286.311 73.4401 286.311 85.4001C286.311 90.0501 287.431 94.3401 289.321 97.8701C287.051 96.2301 284.391 95.27 281.541 95.27C274.001 95.27 267.781 101.86 266.741 110.43C263.911 106.63 259.541 104.19 254.631 104.19C247.251 104.19 241.091 109.69 239.561 117.03L231.501 116.89C234.291 113.27 236.001 108.5 236.001 103.24C236.001 91.9801 228.231 82.86 218.641 82.86C209.051 82.86 201.281 91.9901 201.281 103.24C201.281 105.48 201.601 107.62 202.161 109.64L197.351 108.04C196.261 97.2601 193.811 71.65 194.631 67.86C195.671 63.04 204.371 41.3201 203.071 40.6601C201.771 40.0001 195.901 54.5701 195.901 54.5701C195.901 54.5701 198.591 37.1901 196.971 37.1901C195.351 37.1901 192.941 51.5601 192.941 51.5601C192.941 51.5601 192.301 31.0101 190.771 31.4101C189.241 31.8101 189.881 51.3201 189.881 51.3201C189.881 51.3201 185.211 34.5301 183.861 35.0601C182.501 35.5901 185.381 55.9501 185.381 55.9501C185.381 55.9501 177.461 46.4501 176.691 47.5601C175.911 48.6701 184.351 60.7501 184.471 64.7901C184.541 67.2001 182.191 83.9001 180.291 96.9701C178.811 88.2201 171.741 81.5901 163.231 81.5901C153.641 81.5901 145.871 90.0001 145.871 100.38C145.871 102.9 146.331 105.29 147.161 107.48L127.971 111.35C128.001 110.83 128.041 110.3 128.041 109.77C128.041 98.25 120.201 88.9101 110.521 88.9101C109.351 88.9101 108.201 89.0501 107.091 89.3101C104.331 81.2101 102.041 74.22 101.791 72.71C101.141 68.72 107.141 55.2701 106.161 54.3201C105.191 53.3701 99.2108 64.2001 99.2108 64.2001C99.2108 64.2001 98.1908 43.6601 96.7508 43.4001C95.3208 43.1401 93.9108 60.5101 93.9108 60.5101C93.9108 60.5101 90.8408 41.2301 89.2708 41.1301C87.7008 41.0201 90.9608 61.33 90.9608 61.33C90.9608 61.33 85.8708 47.6701 84.2808 47.9801C82.6908 48.2901 88.6208 64.8401 88.6208 64.8401C88.6208 64.8401 80.1008 51.6401 78.9508 52.5301C77.8008 53.4201 90.4508 73.1101 92.3808 77.6401C93.2608 79.7201 94.4608 89.2801 95.5008 99.0301C93.9208 102.17 92.9908 105.83 92.9908 109.75C92.9908 110.5 93.0308 111.25 93.0908 111.98L87.2408 111.9C87.2408 111.77 87.2508 111.64 87.2508 111.5C87.2508 102.53 81.8308 95.2601 75.1508 95.2601C73.3108 95.2601 71.5708 95.8301 70.0108 96.8101C66.9708 87.9201 58.9608 81.5601 49.5108 81.5601C37.4608 81.5601 27.6908 91.9001 27.6908 104.65C27.6908 107.13 28.0708 109.52 28.7508 111.76C26.2008 110.48 23.3608 109.75 20.3608 109.75C9.28078 109.75 0.300781 119.48 0.300781 131.49C0.300781 133.39 0.550795 135.22 0.970795 136.97L1.00079 137L0.3508 365.13C0.3508 365.13 383.831 283.1 477.921 284.61C490.541 284.81 500.321 169.8 500.831 169.8C507.251 169.8 512.451 162.46 512.451 153.4C512.451 144.34 507.261 137 500.841 137Z" fill="url(#paint0_linear_753_2539)"/>
<path d="M695.109 137C695.819 137 696.499 137.1 697.169 137.27C695.769 134.03 694.949 130.17 694.949 126.01C694.949 114.67 701.009 105.47 708.489 105.47C715.969 105.47 722.029 114.67 722.029 126.01C722.029 127.54 721.909 129.03 721.699 130.47L728.609 133.86L734.819 126.15C732.619 123.01 731.259 118.83 731.259 114.23C731.259 104.47 737.319 96.55 744.799 96.55C751.519 96.55 757.079 102.95 758.139 111.34L764.499 108.74C762.469 105.63 761.199 101.32 761.199 96.55C761.199 87.05 766.189 79.3501 772.349 79.3501C778.509 79.3501 783.499 87.05 783.499 96.55C783.499 100.53 782.619 104.19 781.139 107.1C784.369 107.3 787.279 108.96 789.409 111.52C790.889 101.48 793.389 84.24 793.319 82.08C793.229 79.01 786.819 69.8301 787.409 68.9801C787.999 68.1301 794.019 75.3501 794.019 75.3501C794.019 75.3501 791.829 59.8701 792.859 59.4701C793.889 59.0701 797.439 71.83 797.439 71.83C797.439 71.83 796.959 57.0001 798.119 56.7001C799.279 56.3901 799.769 72.02 799.769 72.02C799.769 72.02 801.599 61.1001 802.829 61.1001C804.059 61.1001 802.019 74.3101 802.019 74.3101C802.019 74.3101 806.479 63.2301 807.469 63.7301C808.459 64.2301 801.849 80.7401 801.059 84.4101C800.479 87.0901 802.059 104.16 802.949 113.11L812.419 123.61L817.829 114.3C813.199 111.78 809.949 105.99 809.949 99.2501C809.949 90.1901 815.799 82.8501 823.009 82.8501C830.219 82.8501 836.069 90.1901 836.069 99.2501C836.069 102.15 835.459 104.87 834.409 107.24L842.009 110.36C841.869 109.34 841.799 108.29 841.799 107.21C841.799 98.1501 846.859 90.8101 853.109 90.8101C859.359 90.8101 864.419 98.1501 864.419 107.21C864.419 108.2 864.349 109.16 864.229 110.1L866.969 109.9C866.969 109.85 866.959 109.81 866.959 109.76C866.959 102.46 872.309 96.5401 878.899 96.5401C878.999 96.5401 879.099 96.5501 879.199 96.5601C877.709 93.3001 876.829 89.4901 876.829 85.4001C876.829 73.4401 884.169 63.74 893.229 63.74C902.289 63.74 909.629 73.4401 909.629 85.4001C909.629 90.0501 908.509 94.3401 906.619 97.8701C908.889 96.2301 911.549 95.27 914.399 95.27C921.939 95.27 928.159 101.86 929.199 110.43C932.029 106.63 936.399 104.19 941.309 104.19C948.689 104.19 954.849 109.69 956.379 117.03L964.439 116.89C961.649 113.27 959.939 108.5 959.939 103.24C959.939 91.9801 967.709 82.86 977.299 82.86C986.889 82.86 994.659 91.9901 994.659 103.24C994.659 105.48 994.339 107.62 993.779 109.64L998.589 108.04C999.679 97.2601 1002.13 71.65 1001.31 67.86C1000.27 63.04 991.569 41.3201 992.869 40.6601C994.169 40.0001 1000.04 54.5701 1000.04 54.5701C1000.04 54.5701 997.349 37.1901 998.969 37.1901C1000.59 37.1901 1003 51.5601 1003 51.5601C1003 51.5601 1003.64 31.0101 1005.17 31.4101C1006.7 31.8101 1006.06 51.3201 1006.06 51.3201C1006.06 51.3201 1010.73 34.5301 1012.08 35.0601C1013.43 35.5901 1010.56 55.9501 1010.56 55.9501C1010.56 55.9501 1018.48 46.4501 1019.25 47.5601C1020.03 48.6701 1011.59 60.7501 1011.47 64.7901C1011.4 67.2001 1013.75 83.9001 1015.65 96.9701C1017.13 88.2201 1024.2 81.5901 1032.71 81.5901C1042.3 81.5901 1050.07 90.0001 1050.07 100.38C1050.07 102.9 1049.61 105.29 1048.78 107.48L1067.97 111.35C1067.94 110.83 1067.9 110.3 1067.9 109.77C1067.9 98.25 1075.74 88.9101 1085.42 88.9101C1086.59 88.9101 1087.74 89.0501 1088.85 89.3101C1091.61 81.2101 1093.9 74.22 1094.15 72.71C1094.8 68.72 1088.8 55.2701 1089.78 54.3201C1090.75 53.3701 1096.73 64.2001 1096.73 64.2001C1096.73 64.2001 1097.75 43.6601 1099.19 43.4001C1100.62 43.1401 1102.03 60.5101 1102.03 60.5101C1102.03 60.5101 1105.1 41.2301 1106.67 41.1301C1108.24 41.0201 1104.98 61.33 1104.98 61.33C1104.98 61.33 1110.07 47.6701 1111.66 47.9801C1113.25 48.2901 1107.32 64.8401 1107.32 64.8401C1107.32 64.8401 1115.84 51.6401 1116.99 52.5301C1118.14 53.4201 1105.49 73.1101 1103.56 77.6401C1102.68 79.7201 1101.48 89.2801 1100.44 99.0301C1102.02 102.17 1102.95 105.83 1102.95 109.75C1102.95 110.5 1102.91 111.25 1102.85 111.98L1108.7 111.9C1108.7 111.77 1108.69 111.64 1108.69 111.5C1108.69 102.53 1114.11 95.2601 1120.79 95.2601C1122.63 95.2601 1124.37 95.8301 1125.93 96.8101C1128.97 87.9201 1136.98 81.5601 1146.43 81.5601C1158.48 81.5601 1168.25 91.9001 1168.25 104.65C1168.25 107.13 1167.87 109.52 1167.19 111.76C1169.74 110.48 1172.58 109.75 1175.58 109.75C1186.66 109.75 1195.64 119.48 1195.64 131.49C1195.64 133.39 1195.39 135.22 1194.97 136.97L1194.99 136.98L1195.64 365.11C1195.64 365.11 812.159 283.08 718.069 284.59C705.449 284.79 695.669 169.78 695.159 169.78C688.739 169.78 683.539 162.44 683.539 153.38C683.539 144.32 688.689 137 695.109 137Z" fill="url(#paint1_linear_753_2539)"/>
<path d="M1033.36 218.913L1089.73 231.414L1096.58 200.524L1040.21 188.023L1033.36 218.913Z" fill="#6485F2" stroke="#3B65EE" stroke-width="2.5" stroke-miterlimit="10" stroke-linecap="round" stroke-linejoin="round"/>
<path d="M1065.01 223.611C1064 223.611 1062.99 223.501 1061.99 223.281C1058.37 222.481 1055.28 220.311 1053.29 217.191C1051.3 214.061 1050.64 210.351 1051.45 206.731C1052.85 200.431 1058.54 195.851 1064.99 195.851C1066 195.851 1067.01 195.961 1068.01 196.181C1075.48 197.841 1080.21 205.261 1078.56 212.741C1077.15 219.031 1071.45 223.611 1065.01 223.611Z" fill="white"/>
<path d="M1064.98 197.091C1065.89 197.091 1066.81 197.191 1067.73 197.391C1074.54 198.901 1078.84 205.651 1077.33 212.451C1076.02 218.341 1070.8 222.351 1065.01 222.351C1064.1 222.351 1063.18 222.251 1062.26 222.051C1055.45 220.541 1051.15 213.791 1052.66 206.991C1053.97 201.101 1059.19 197.091 1064.98 197.091ZM1064.98 194.591C1057.95 194.591 1051.74 199.581 1050.22 206.451C1048.41 214.591 1053.57 222.691 1061.72 224.501C1062.8 224.741 1063.91 224.861 1065.01 224.861C1072.04 224.861 1078.25 219.871 1079.77 213.001C1080.65 209.051 1079.93 205.001 1077.76 201.601C1075.59 198.191 1072.22 195.831 1068.27 194.961C1067.19 194.711 1066.08 194.591 1064.98 194.591Z" fill="#3B65EE"/>
<path d="M1064.99 219.341C1070.3 219.341 1074.61 215.034 1074.61 209.721C1074.61 204.408 1070.3 200.101 1064.99 200.101C1059.68 200.101 1055.37 204.408 1055.37 209.721C1055.37 215.034 1059.68 219.341 1064.99 219.341Z" fill="#B0C3EA"/>
<path d="M1041.37 195.443L1051.87 197.771L1052.69 194.061L1042.2 191.733L1041.37 195.443Z" fill="#3B65EE"/>
<path d="M1054.35 185.115L1084.98 191.909L1087 182.82L1056.36 176.026L1054.35 185.115Z" fill="#6485F2" stroke="#3B65EE" stroke-width="2.5" stroke-miterlimit="10" stroke-linecap="round" stroke-linejoin="round"/>
<path d="M1065.51 193.645L1071.28 194.925L1072.56 189.155L1066.79 187.875L1065.51 193.645Z" fill="#3B65EE" stroke="#3B65EE" stroke-width="2.5" stroke-miterlimit="10" stroke-linecap="round" stroke-linejoin="round"/>
<path d="M1051.53 140.05L1047.9 157.89L1037.33 143.07L1041.27 160.84L1025.59 151.6L1036.42 166.23L1018.33 164.17L1034.17 173.14L1016.81 178.61L1034.93 180.36L1021.3 192.42L1038.56 186.64L1031.01 203.2L1044.43 190.91L1044.27 209.11L1051.53 192.42L1058.79 209.11L1058.63 190.91L1072.05 203.2L1064.5 186.64L1081.76 192.42L1068.13 180.36L1086.25 178.61L1068.89 173.14L1084.73 164.17L1066.65 166.23L1077.47 151.6L1061.79 160.84L1065.73 143.07L1055.16 157.89L1051.53 140.05Z" fill="white" stroke="#3B65EE" stroke-width="2.5" stroke-miterlimit="10" stroke-linecap="round"/>
<path d="M734.79 175.77H461.17V215.35H734.79V175.77Z" fill="#E5ECF9" stroke="#3B65EE" stroke-width="2.5" stroke-miterlimit="10" stroke-linecap="round" stroke-linejoin="round"/>
<path d="M655.589 175.77H540.369V215.35H655.589V175.77Z" fill="#E27A8C" stroke="#3B65EE" stroke-width="2.5" stroke-miterlimit="10" stroke-linecap="round" stroke-linejoin="round"/>
<path d="M700.98 163.89H494.98L461.17 175.77H734.78L700.98 163.89Z" fill="white" stroke="#3B65EE" stroke-width="2.5" stroke-miterlimit="10" stroke-linecap="round" stroke-linejoin="round"/>
<path d="M621.779 163.89H574.169L540.369 175.77H655.589L621.779 163.89Z" fill="#EAA2AC" stroke="#3B65EE" stroke-width="2.5" stroke-miterlimit="10" stroke-linecap="round" stroke-linejoin="round"/>
<path d="M768.589 227.229H427.359V266.81H768.589V227.229Z" fill="#E5ECF9" stroke="#3B65EE" stroke-width="2.5" stroke-miterlimit="10" stroke-linecap="round" stroke-linejoin="round"/>
<path d="M689.399 227.229H506.559V266.81H689.399V227.229Z" fill="#E27A8C" stroke="#3B65EE" stroke-width="2.5" stroke-miterlimit="10" stroke-linecap="round" stroke-linejoin="round"/>
<path d="M734.779 215.359H461.169L427.359 227.229H768.589L734.779 215.359Z" fill="white" stroke="#3B65EE" stroke-width="2.5" stroke-miterlimit="10" stroke-linecap="round" stroke-linejoin="round"/>
<path d="M655.589 215.359H540.369L506.559 227.229H689.389L655.589 215.359Z" fill="#EAA2AC" stroke="#3B65EE" stroke-width="2.5" stroke-miterlimit="10" stroke-linecap="round" stroke-linejoin="round"/>
<path d="M689.389 266.819H506.559L265.789 473.109H930.159L689.389 266.819Z" fill="#EAA2AC" stroke="#3B65EE" stroke-width="2.5" stroke-miterlimit="10" stroke-linecap="round" stroke-linejoin="round"/>
<path d="M320.409 209.741C320.409 209.741 319.819 267.991 347.809 267.991C375.799 267.991 391.099 177.391 391.099 177.391" stroke="#3B65EE" stroke-width="2.5" stroke-miterlimit="10" stroke-linecap="round" stroke-linejoin="round"/>
<path d="M214.68 213.851H197.09V461.721H214.68V213.851Z" fill="#D1DAED" stroke="#3B65EE" stroke-width="2.5" stroke-miterlimit="10" stroke-linecap="round" stroke-linejoin="round"/>
<path d="M197.08 461.716L214.67 461.716L214.67 452.826L197.08 452.826L197.08 461.716Z" fill="#B0C3EA"/>
<path d="M214.67 231.961C212.11 233.801 209.1 234.881 205.88 234.881C202.66 234.881 199.65 233.801 197.09 231.961V213.851H214.68V231.961H214.67Z" fill="#B0C3EA"/>
<path d="M214.68 213.851H197.09V461.721H214.68V213.851Z" stroke="#3B65EE" stroke-width="2.5" stroke-miterlimit="10" stroke-linecap="round" stroke-linejoin="round"/>
<path d="M205.881 224.88C215.22 224.88 222.791 215.997 222.791 205.04C222.791 194.083 215.22 185.2 205.881 185.2C196.542 185.2 188.971 194.083 188.971 205.04C188.971 215.997 196.542 224.88 205.881 224.88Z" fill="#E5ECF9" stroke="#3B65EE" stroke-width="2.5" stroke-miterlimit="10" stroke-linecap="round" stroke-linejoin="round"/>
<path d="M220.38 251.2H191.39C189.52 251.2 188 249.68 188 247.81C188 245.94 189.52 244.42 191.39 244.42H220.38C222.25 244.42 223.77 245.94 223.77 247.81C223.77 249.68 222.25 251.2 220.38 251.2Z" fill="#E5ECF9" stroke="#3B65EE" stroke-width="2.5" stroke-miterlimit="10" stroke-linecap="round" stroke-linejoin="round"/>
<path d="M239.469 473.11H172.289L174.359 467.55C175.669 464.04 179.019 461.72 182.759 461.72H228.999C232.739 461.72 236.089 464.04 237.399 467.55L239.469 473.11Z" fill="#D1DAED" stroke="#3B65EE" stroke-width="2.5" stroke-miterlimit="10" stroke-linecap="round" stroke-linejoin="round"/>
<path d="M320.41 179.37H306.34V377.66H320.41V179.37Z" fill="#D1DAED" stroke="#3B65EE" stroke-width="2.5" stroke-miterlimit="10" stroke-linecap="round" stroke-linejoin="round"/>
<path d="M306.332 377.662L320.402 377.662L320.402 368.772L306.332 368.772L306.332 377.662Z" fill="#B0C3EA"/>
<path d="M320.41 195.86C318.36 197.33 315.96 198.19 313.38 198.19C310.8 198.19 308.4 197.33 306.35 195.86V179.37H320.42V195.86H320.41Z" fill="#B0C3EA"/>
<path d="M320.41 179.37H306.34V377.66H320.41V179.37Z" stroke="#3B65EE" stroke-width="2.5" stroke-miterlimit="10" stroke-linecap="round" stroke-linejoin="round"/>
<path d="M313.37 188.19C320.842 188.19 326.9 181.085 326.9 172.32C326.9 163.555 320.842 156.45 313.37 156.45C305.897 156.45 299.84 163.555 299.84 172.32C299.84 181.085 305.897 188.19 313.37 188.19Z" fill="#E5ECF9" stroke="#3B65EE" stroke-width="2.5" stroke-miterlimit="10" stroke-linecap="round" stroke-linejoin="round"/>
<path d="M324.971 209.251H301.781C300.281 209.251 299.061 208.031 299.061 206.531C299.061 205.031 300.281 203.811 301.781 203.811H324.971C326.471 203.811 327.691 205.031 327.691 206.531C327.681 208.031 326.471 209.251 324.971 209.251Z" fill="#E5ECF9" stroke="#3B65EE" stroke-width="2.5" stroke-miterlimit="10" stroke-linecap="round" stroke-linejoin="round"/>
<path d="M340.24 386.78H286.5L287.72 383.5C289.03 379.99 292.38 377.67 296.12 377.67H330.62C334.36 377.67 337.71 379.99 339.02 383.5L340.24 386.78Z" fill="#D1DAED" stroke="#3B65EE" stroke-width="2.5" stroke-miterlimit="10" stroke-linecap="round" stroke-linejoin="round"/>
<path d="M402.36 154.971H391.1V313.601H402.36V154.971Z" fill="#D1DAED" stroke="#3B65EE" stroke-width="2.5" stroke-miterlimit="10" stroke-linecap="round" stroke-linejoin="round"/>
<path d="M391.097 313.612L402.387 313.612L402.387 304.722L391.097 304.722L391.097 313.612Z" fill="#B0C3EA"/>
<path d="M402.36 170.161C400.72 171.341 398.8 172.031 396.73 172.031C394.66 172.031 392.74 171.341 391.1 170.161V154.971H402.36V170.161Z" fill="#B0C3EA"/>
<path d="M402.36 154.971H391.1V313.601H402.36V154.971Z" stroke="#3B65EE" stroke-width="2.5" stroke-miterlimit="10" stroke-linecap="round" stroke-linejoin="round"/>
<path d="M396.73 162.031C402.706 162.031 407.55 156.345 407.55 149.331C407.55 142.317 402.706 136.631 396.73 136.631C390.754 136.631 385.91 142.317 385.91 149.331C385.91 156.345 390.754 162.031 396.73 162.031Z" fill="#E5ECF9" stroke="#3B65EE" stroke-width="2.5" stroke-miterlimit="10" stroke-linecap="round" stroke-linejoin="round"/>
<path d="M405.999 178.871H387.449C386.249 178.871 385.279 177.901 385.279 176.701C385.279 175.501 386.249 174.531 387.449 174.531H405.999C407.199 174.531 408.169 175.501 408.169 176.701C408.179 177.901 407.199 178.871 405.999 178.871Z" fill="#E5ECF9" stroke="#3B65EE" stroke-width="2.5" stroke-miterlimit="10" stroke-linecap="round" stroke-linejoin="round"/>
<path d="M418.229 320.901H375.229L375.769 319.441C377.079 315.931 380.429 313.611 384.169 313.611H409.279C413.019 313.611 416.369 315.931 417.679 319.441L418.229 320.901Z" fill="#D1DAED" stroke="#3B65EE" stroke-width="2.5" stroke-miterlimit="10" stroke-linecap="round" stroke-linejoin="round"/>
<path d="M452.461 144.78H443.461V271.69H452.461V144.78Z" fill="#D1DAED" stroke="#3B65EE" stroke-width="2.5" stroke-miterlimit="10" stroke-linecap="round" stroke-linejoin="round"/>
<path d="M443.469 271.692L452.359 271.692L452.359 262.802L443.469 262.802L443.469 271.692Z" fill="#B0C3EA"/>
<path d="M452.471 158.94C451.161 159.88 449.621 160.43 447.971 160.43C446.321 160.43 444.781 159.88 443.471 158.94V144.79H452.471V158.94Z" fill="#B0C3EA"/>
<path d="M452.461 144.78H443.461V271.69H452.461V144.78Z" stroke="#3B65EE" stroke-width="2.5" stroke-miterlimit="10" stroke-linecap="round" stroke-linejoin="round"/>
<path d="M447.971 150.43C452.753 150.43 456.631 145.882 456.631 140.27C456.631 134.659 452.753 130.11 447.971 130.11C443.188 130.11 439.311 134.659 439.311 140.27C439.311 145.882 443.188 150.43 447.971 150.43Z" fill="#E5ECF9" stroke="#3B65EE" stroke-width="2.5" stroke-miterlimit="10" stroke-linecap="round" stroke-linejoin="round"/>
<path d="M455.391 163.9H440.551C439.591 163.9 438.811 163.12 438.811 162.16C438.811 161.2 439.591 160.42 440.551 160.42H455.391C456.351 160.42 457.131 161.2 457.131 162.16C457.121 163.13 456.351 163.9 455.391 163.9Z" fill="#E5ECF9" stroke="#3B65EE" stroke-width="2.5" stroke-miterlimit="10" stroke-linecap="round" stroke-linejoin="round"/>
<path d="M465.16 277.52H430.76C432.07 274.01 435.42 271.69 439.16 271.69H456.76C460.51 271.69 463.86 274.02 465.16 277.52Z" fill="#D1DAED" stroke="#3B65EE" stroke-width="2.5" stroke-miterlimit="10" stroke-linecap="round" stroke-linejoin="round"/>
<path d="M214.669 251.201C214.669 251.201 213.909 326.731 250.199 326.731C286.489 326.731 306.329 209.261 306.329 209.261" stroke="#3B65EE" stroke-width="2.5" stroke-miterlimit="10" stroke-linecap="round" stroke-linejoin="round"/>
<path d="M402.36 185.3C402.36 185.3 402.02 219.17 418.29 219.17C434.57 219.17 443.46 166.49 443.46 166.49" stroke="#3B65EE" stroke-width="2.5" stroke-miterlimit="10" stroke-linecap="round" stroke-linejoin="round"/>
<path d="M1026.72 82.3948L954.469 98.418L963.248 138.007L1035.5 121.984L1026.72 82.3948Z" fill="#6485F2" stroke="#3B65EE" stroke-width="2.5" stroke-miterlimit="10" stroke-linecap="round" stroke-linejoin="round"/>
<path d="M994.939 127.629C986.839 127.629 979.689 121.879 977.929 113.959C976.919 109.409 977.739 104.749 980.249 100.819C982.749 96.8893 986.629 94.1693 991.179 93.1593C992.429 92.8793 993.699 92.7393 994.969 92.7393C1003.07 92.7393 1010.22 98.4893 1011.98 106.409C1012.99 110.959 1012.17 115.619 1009.66 119.549C1007.16 123.479 1003.28 126.199 998.729 127.209C997.489 127.489 996.209 127.629 994.939 127.629Z" fill="#6485F2"/>
<path d="M994.979 93.9893C1002.4 93.9893 1009.09 99.1293 1010.77 106.679C1012.71 115.409 1007.2 124.049 998.469 125.989C997.289 126.249 996.109 126.379 994.949 126.379C987.529 126.379 980.839 121.239 979.159 113.689C977.219 104.959 982.729 96.3193 991.459 94.3793C992.639 94.1193 993.809 93.9993 994.979 93.9893ZM994.979 91.4893C993.619 91.4893 992.249 91.6393 990.919 91.9393C986.049 93.0193 981.889 95.9293 979.199 100.139C976.509 104.349 975.639 109.349 976.719 114.229C978.599 122.719 986.269 128.869 994.949 128.869C996.309 128.869 997.669 128.719 999.009 128.419C1009.07 126.189 1015.44 116.189 1013.21 106.129C1011.32 97.6493 1003.66 91.4893 994.979 91.4893Z" fill="#3B65EE"/>
<path d="M994.959 122.509C1001.76 122.509 1007.28 116.993 1007.28 110.189C1007.28 103.385 1001.76 97.8691 994.959 97.8691C988.154 97.8691 982.639 103.385 982.639 110.189C982.639 116.993 988.154 122.509 994.959 122.509Z" fill="#B0C3EA"/>
<path d="M1024.16 87.1546L1010.72 90.1357L1011.77 94.8903L1025.22 91.9091L1024.16 87.1546Z" fill="#3B65EE"/>
<path d="M1006 67.0141L966.736 75.7217L969.321 87.3787L1008.59 78.6711L1006 67.0141Z" fill="#6485F2" stroke="#3B65EE" stroke-width="2.5" stroke-miterlimit="10" stroke-linecap="round" stroke-linejoin="round"/>
<path d="M992.652 82.196L985.262 83.835L986.901 91.2256L994.291 89.5866L992.652 82.196Z" fill="#3B65EE" stroke="#3B65EE" stroke-width="2.5" stroke-miterlimit="10" stroke-linecap="round" stroke-linejoin="round"/>
<path d="M1012.21 20.8896L1016.86 43.7496L1030.41 24.7596L1025.36 47.5396L1045.46 35.6996L1031.59 54.4496L1054.77 51.8096L1034.46 63.2896L1056.71 70.3096L1033.49 72.5496L1050.96 87.9996L1028.84 80.5996L1038.51 101.83L1021.31 86.0696L1021.52 109.4L1012.21 87.9996L1002.91 109.4L1003.11 86.0696L985.921 101.83L995.591 80.5996L973.471 87.9996L990.941 72.5496L967.721 70.3096L989.971 63.2896L969.661 51.8096L992.841 54.4496L978.961 35.6996L999.061 47.5396L994.021 24.7596L1007.56 43.7496L1012.21 20.8896Z" fill="white" stroke="#3B65EE" stroke-width="2.5" stroke-miterlimit="10" stroke-linecap="round"/>
<path d="M871.465 165.3L922.252 176.562L928.422 148.738L877.635 137.476L871.465 165.3Z" fill="#6485F2" stroke="#3B65EE" stroke-width="2.5" stroke-miterlimit="10" stroke-linecap="round" stroke-linejoin="round"/>
<path d="M899.972 169.65C899.052 169.65 898.132 169.55 897.232 169.35C890.432 167.84 886.132 161.09 887.642 154.29C888.912 148.56 894.092 144.39 899.962 144.39C900.882 144.39 901.802 144.49 902.702 144.69C905.992 145.42 908.802 147.39 910.622 150.23C912.432 153.07 913.032 156.46 912.302 159.75C911.022 165.49 905.842 169.65 899.972 169.65C899.982 169.65 899.982 169.65 899.972 169.65Z" fill="#6485F2"/>
<path d="M899.951 145.64C900.771 145.64 901.592 145.73 902.422 145.91C908.552 147.27 912.432 153.35 911.062 159.48C909.882 164.79 905.181 168.4 899.961 168.4C899.141 168.4 898.321 168.31 897.491 168.13C891.361 166.77 887.481 160.69 888.851 154.56C890.031 149.25 894.741 145.64 899.951 145.64ZM899.951 143.14C893.501 143.14 887.812 147.71 886.412 154.02C885.612 157.64 886.261 161.35 888.251 164.48C890.241 167.61 893.331 169.77 896.951 170.57C897.941 170.79 898.961 170.9 899.971 170.9C906.421 170.9 912.111 166.33 913.511 160.02C915.171 152.55 910.441 145.12 902.971 143.47C901.981 143.25 900.961 143.14 899.951 143.14Z" fill="#3B65EE"/>
<path d="M899.961 165.679C904.743 165.679 908.621 161.802 908.621 157.019C908.621 152.237 904.743 148.359 899.961 148.359C895.178 148.359 891.301 152.237 891.301 157.019C891.301 161.802 895.178 165.679 899.961 165.679Z" fill="#B0C3EA"/>
<path d="M878.682 144.16L888.133 146.256L888.873 142.917L879.423 140.821L878.682 144.16Z" fill="#3B65EE"/>
<path d="M890.373 134.85L917.973 140.971L919.789 132.78L892.189 126.659L890.373 134.85Z" fill="#6485F2" stroke="#3B65EE" stroke-width="2.5" stroke-miterlimit="10" stroke-linecap="round" stroke-linejoin="round"/>
<path d="M900.433 142.531L905.627 143.683L906.779 138.489L901.585 137.337L900.433 142.531Z" fill="#3B65EE" stroke="#3B65EE" stroke-width="2.5" stroke-miterlimit="10" stroke-linecap="round" stroke-linejoin="round"/>
<path d="M887.84 94.2598L884.57 110.32L875.051 96.9698L878.59 112.98L864.47 104.66L874.22 117.84L857.931 115.99L872.2 124.06L856.561 128.99L872.88 130.56L860.6 141.43L876.151 136.23L869.35 151.15L881.44 140.07L881.301 156.46L887.84 141.43L894.38 156.46L894.23 140.07L906.32 151.15L899.521 136.23L915.07 141.43L902.791 130.56L919.11 128.99L903.47 124.06L917.75 115.99L901.45 117.84L911.21 104.66L897.08 112.98L900.63 96.9698L891.11 110.32L887.84 94.2598Z" fill="white" stroke="#3B65EE" stroke-width="2.5" stroke-miterlimit="10" stroke-linecap="round"/>
<path d="M936.551 51.9405L882.475 56.9805L885.236 86.6125L939.313 81.5725L936.551 51.9405Z" fill="#6485F2" stroke="#3B65EE" stroke-width="2.5" stroke-miterlimit="10" stroke-linecap="round" stroke-linejoin="round"/>
<path d="M910.861 82.4006C904.051 82.4006 898.431 77.2806 897.801 70.4906C897.471 67.0006 898.531 63.5906 900.771 60.8906C903.011 58.1906 906.171 56.5206 909.661 56.2006C910.071 56.1606 910.491 56.1406 910.891 56.1406C917.701 56.1406 923.321 61.2606 923.951 68.0506C924.281 71.5406 923.221 74.9506 920.981 77.6506C918.741 80.3506 915.581 82.0206 912.091 82.3406C911.681 82.3806 911.271 82.4006 910.861 82.4006Z" fill="#6485F2"/>
<path d="M910.89 57.3906C916.95 57.3906 922.13 62.0106 922.7 68.1706C923.31 74.7006 918.51 80.4906 911.97 81.1006C911.6 81.1306 911.22 81.1506 910.85 81.1506C904.79 81.1506 899.61 76.5306 899.04 70.3706C898.43 63.8406 903.23 58.0506 909.77 57.4406C910.15 57.4106 910.52 57.3906 910.89 57.3906ZM910.89 54.8906C910.44 54.8906 909.99 54.9106 909.54 54.9506C905.72 55.3106 902.26 57.1306 899.81 60.0906C897.36 63.0506 896.2 66.7806 896.56 70.6106C897.25 78.0506 903.4 83.6606 910.86 83.6606C911.31 83.6606 911.76 83.6406 912.21 83.6006C920.1 82.8606 925.93 75.8406 925.19 67.9506C924.5 60.5006 918.35 54.8906 910.89 54.8906Z" fill="#3B65EE"/>
<path d="M910.88 78.3207C915.878 78.3207 919.93 74.2689 919.93 69.2707C919.93 64.2725 915.878 60.2207 910.88 60.2207C905.882 60.2207 901.83 64.2725 901.83 69.2707C901.83 74.2689 905.882 78.3207 910.88 78.3207Z" fill="#B0C3EA"/>
<path d="M934.262 55.1741L924.195 56.1123L924.527 59.667L934.593 58.7287L934.262 55.1741Z" fill="#3B65EE"/>
<path d="M922.879 38.8348L893.486 41.5742L894.299 50.2966L923.692 47.5571L922.879 38.8348Z" fill="#6485F2" stroke="#3B65EE" stroke-width="2.5" stroke-miterlimit="10" stroke-linecap="round" stroke-linejoin="round"/>
<path d="M911.769 48.6696L906.232 49.1855L906.748 54.7216L912.285 54.2057L911.769 48.6696Z" fill="#3B65EE" stroke="#3B65EE" stroke-width="2.5" stroke-miterlimit="10" stroke-linecap="round" stroke-linejoin="round"/>
<path d="M933.031 6.94043L934.111 21.1604L943.771 10.6804L938.971 24.1004L952.061 18.4604L942.221 28.7704L956.471 28.9404L943.281 34.3504L956.241 40.3004L941.991 39.8904L951.401 50.5904L938.551 44.4204L942.801 58.0304L933.571 47.1604L931.911 61.3204L927.911 47.6304L920.631 59.9004L922.541 45.7704L910.901 54.0104L918.391 41.8804L904.411 44.6804L916.191 36.6404L902.281 33.5104L916.301 30.9504L904.871 22.4404L918.721 25.8104L911.741 13.3804L923.021 22.0904L921.701 7.90042L928.471 20.4504L933.031 6.94043Z" fill="white" stroke="#3B65EE" stroke-width="2.5" stroke-miterlimit="10" stroke-linecap="round"/>
<path d="M768.24 94.0838L837.949 92.2568L836.948 54.0683L767.239 55.8952L768.24 94.0838Z" fill="#6485F2" stroke="#3B65EE" stroke-width="2.5" stroke-miterlimit="10" stroke-linecap="round" stroke-linejoin="round"/>
<path d="M802.641 90.5901C793.631 90.5901 786.391 83.5301 786.151 74.5201C786.031 70.1101 787.641 65.9301 790.681 62.7301C793.711 59.5301 797.811 57.7101 802.221 57.5901C802.371 57.5901 802.511 57.5801 802.661 57.5801C811.671 57.5801 818.911 64.6401 819.151 73.6501C819.271 78.0601 817.661 82.2401 814.621 85.4401C811.591 88.6401 807.491 90.4601 803.081 90.5801C802.931 90.5901 802.781 90.5901 802.641 90.5901Z" fill="#6485F2"/>
<path d="M802.65 58.8398C810.89 58.8398 817.67 65.4099 817.89 73.6898C818.11 82.1098 811.46 89.1198 803.04 89.3398C802.9 89.3398 802.77 89.3499 802.63 89.3499C794.39 89.3499 787.61 82.7798 787.39 74.4998C787.17 66.0798 793.82 59.0699 802.24 58.8499C802.38 58.8399 802.52 58.8398 802.65 58.8398ZM802.65 56.3398C802.49 56.3398 802.34 56.3399 802.18 56.3499C797.44 56.4699 793.03 58.4399 789.77 61.8799C786.51 65.3199 784.78 69.8198 784.9 74.5598C785.15 84.2498 792.95 91.8499 802.64 91.8499C802.8 91.8499 802.95 91.8498 803.11 91.8398C807.85 91.7198 812.26 89.7498 815.52 86.3098C818.78 82.8698 820.51 78.3699 820.39 73.6299C820.14 63.9299 812.34 56.3398 802.65 56.3398Z" fill="#3B65EE"/>
<path d="M802.641 85.6995C809.053 85.6995 814.251 80.5015 814.251 74.0895C814.251 67.6775 809.053 62.4795 802.641 62.4795C796.229 62.4795 791.031 67.6775 791.031 74.0895C791.031 80.5015 796.229 85.6995 802.641 85.6995Z" fill="#B0C3EA"/>
<path d="M770.774 64.2444L783.75 63.9043L783.63 59.3157L770.654 59.6558L770.774 64.2444Z" fill="#3B65EE"/>
<path d="M782.973 48.3472L820.852 47.3545L820.557 36.1079L782.678 37.1006L782.973 48.3472Z" fill="#6485F2" stroke="#3B65EE" stroke-width="2.5" stroke-miterlimit="10" stroke-linecap="round" stroke-linejoin="round"/>
<path d="M798.536 55.0784L805.664 54.8916L805.477 47.7637L798.349 47.9505L798.536 55.0784Z" fill="#3B65EE" stroke="#3B65EE" stroke-width="2.5" stroke-miterlimit="10" stroke-linecap="round" stroke-linejoin="round"/>
<path d="M813.729 54.2391L814.689 76.1992L797.969 61.9192L807.779 81.5891L786.709 75.3492L803.669 89.3291L781.879 92.1992L803.059 98.0692L784.319 109.559L806.049 106.309L793.609 124.419L812.139 112.609L808.139 134.229L820.269 115.899L825.399 137.269L829.029 115.589L842.409 133.029L836.909 111.749L856.219 122.229L842.539 105.029L864.449 106.749L844.949 96.6091L865.669 89.2691L843.729 87.9291L859.669 72.7991L839.089 80.4991L847.499 60.1891L831.819 75.5992L831.239 53.6191L823.189 74.0692L813.729 54.2391Z" fill="white" stroke="#3B65EE" stroke-width="2.5" stroke-miterlimit="10" stroke-linecap="round"/>
<path d="M877.651 209.741C877.651 209.741 878.241 267.991 850.251 267.991C822.261 267.991 806.961 177.391 806.961 177.391" stroke="#3B65EE" stroke-width="2.5" stroke-miterlimit="10" stroke-linecap="round" stroke-linejoin="round"/>
<path d="M983.385 461.723L1000.97 461.723L1000.97 213.853L983.385 213.853L983.385 461.723Z" fill="#D1DAED" stroke="#3B65EE" stroke-width="2.5" stroke-miterlimit="10" stroke-linecap="round" stroke-linejoin="round"/>
<path d="M1000.97 452.83H983.381V461.72H1000.97V452.83Z" fill="#B0C3EA"/>
<path d="M983.381 231.961C985.941 233.801 988.951 234.881 992.171 234.881C995.391 234.881 998.401 233.801 1000.96 231.961V213.851H983.371V231.961H983.381Z" fill="#B0C3EA"/>
<path d="M983.385 461.723L1000.97 461.723L1000.97 213.853L983.385 213.853L983.385 461.723Z" stroke="#3B65EE" stroke-width="2.5" stroke-miterlimit="10" stroke-linecap="round" stroke-linejoin="round"/>
<path d="M992.182 224.88C1001.52 224.88 1009.09 215.997 1009.09 205.04C1009.09 194.083 1001.52 185.2 992.182 185.2C982.842 185.2 975.271 194.083 975.271 205.04C975.271 215.997 982.842 224.88 992.182 224.88Z" fill="#E5ECF9" stroke="#3B65EE" stroke-width="2.5" stroke-miterlimit="10" stroke-linecap="round" stroke-linejoin="round"/>
<path d="M977.681 251.2H1006.67C1008.54 251.2 1010.06 249.68 1010.06 247.81C1010.06 245.94 1008.54 244.42 1006.67 244.42H977.681C975.811 244.42 974.291 245.94 974.291 247.81C974.291 249.68 975.811 251.2 977.681 251.2Z" fill="#E5ECF9" stroke="#3B65EE" stroke-width="2.5" stroke-miterlimit="10" stroke-linecap="round" stroke-linejoin="round"/>
<path d="M958.58 473.11H1025.76L1023.69 467.55C1022.38 464.04 1019.03 461.72 1015.29 461.72H969.05C965.31 461.72 961.96 464.04 960.65 467.55L958.58 473.11Z" fill="#D1DAED" stroke="#3B65EE" stroke-width="2.5" stroke-miterlimit="10" stroke-linecap="round" stroke-linejoin="round"/>
<path d="M877.655 377.672L891.725 377.672L891.725 179.382L877.655 179.382L877.655 377.672Z" fill="#D1DAED" stroke="#3B65EE" stroke-width="2.5" stroke-miterlimit="10" stroke-linecap="round" stroke-linejoin="round"/>
<path d="M891.72 368.78H877.65V377.67H891.72V368.78Z" fill="#B0C3EA"/>
<path d="M877.651 195.86C879.701 197.33 882.101 198.19 884.681 198.19C887.261 198.19 889.661 197.33 891.711 195.86V179.37H877.641V195.86H877.651Z" fill="#B0C3EA"/>
<path d="M877.655 377.672L891.725 377.672L891.725 179.382L877.655 179.382L877.655 377.672Z" stroke="#3B65EE" stroke-width="2.5" stroke-miterlimit="10" stroke-linecap="round" stroke-linejoin="round"/>
<path d="M884.69 188.19C892.162 188.19 898.22 181.085 898.22 172.32C898.22 163.555 892.162 156.45 884.69 156.45C877.218 156.45 871.16 163.555 871.16 172.32C871.16 181.085 877.218 188.19 884.69 188.19Z" fill="#E5ECF9" stroke="#3B65EE" stroke-width="2.5" stroke-miterlimit="10" stroke-linecap="round" stroke-linejoin="round"/>
<path d="M873.091 209.251H896.281C897.781 209.251 899.001 208.031 899.001 206.531C899.001 205.031 897.781 203.811 896.281 203.811H873.091C871.591 203.811 870.371 205.031 870.371 206.531C870.381 208.031 871.591 209.251 873.091 209.251Z" fill="#E5ECF9" stroke="#3B65EE" stroke-width="2.5" stroke-miterlimit="10" stroke-linecap="round" stroke-linejoin="round"/>
<path d="M857.811 386.78H911.561L910.34 383.5C909.03 379.99 905.68 377.67 901.94 377.67H867.44C863.7 377.67 860.351 379.99 859.041 383.5L857.811 386.78Z" fill="#D1DAED" stroke="#3B65EE" stroke-width="2.5" stroke-miterlimit="10" stroke-linecap="round" stroke-linejoin="round"/>
<path d="M795.699 313.61L806.959 313.61L806.959 154.98L795.699 154.98L795.699 313.61Z" fill="#D1DAED" stroke="#3B65EE" stroke-width="2.5" stroke-miterlimit="10" stroke-linecap="round" stroke-linejoin="round"/>
<path d="M806.962 304.711H795.672V313.601H806.962V304.711Z" fill="#B0C3EA"/>
<path d="M795.701 170.161C797.341 171.341 799.261 172.031 801.331 172.031C803.401 172.031 805.321 171.341 806.961 170.161V154.971H795.701V170.161V170.161Z" fill="#B0C3EA"/>
<path d="M795.699 313.61L806.959 313.61L806.959 154.98L795.699 154.98L795.699 313.61Z" stroke="#3B65EE" stroke-width="2.5" stroke-miterlimit="10" stroke-linecap="round" stroke-linejoin="round"/>
<path d="M801.332 162.031C807.307 162.031 812.152 156.345 812.152 149.331C812.152 142.317 807.307 136.631 801.332 136.631C795.356 136.631 790.512 142.317 790.512 149.331C790.512 156.345 795.356 162.031 801.332 162.031Z" fill="#E5ECF9" stroke="#3B65EE" stroke-width="2.5" stroke-miterlimit="10" stroke-linecap="round" stroke-linejoin="round"/>
<path d="M792.051 178.871H810.601C811.801 178.871 812.771 177.901 812.771 176.701C812.771 175.501 811.801 174.531 810.601 174.531H792.051C790.851 174.531 789.881 175.501 789.881 176.701C789.881 177.901 790.851 178.871 792.051 178.871Z" fill="#E5ECF9" stroke="#3B65EE" stroke-width="2.5" stroke-miterlimit="10" stroke-linecap="round" stroke-linejoin="round"/>
<path d="M779.83 320.901H822.83L822.29 319.441C820.98 315.931 817.63 313.611 813.89 313.611H788.78C785.04 313.611 781.69 315.931 780.38 319.441L779.83 320.901Z" fill="#D1DAED" stroke="#3B65EE" stroke-width="2.5" stroke-miterlimit="10" stroke-linecap="round" stroke-linejoin="round"/>
<path d="M745.594 271.697L754.594 271.697L754.594 144.787L745.594 144.787L745.594 271.697Z" fill="#D1DAED" stroke="#3B65EE" stroke-width="2.5" stroke-miterlimit="10" stroke-linecap="round" stroke-linejoin="round"/>
<path d="M754.589 262.801H745.699V271.691H754.589V262.801Z" fill="#B0C3EA"/>
<path d="M745.59 158.94C746.9 159.88 748.44 160.43 750.09 160.43C751.74 160.43 753.28 159.88 754.59 158.94V144.79H745.59V158.94Z" fill="#B0C3EA"/>
<path d="M745.594 271.697L754.594 271.697L754.594 144.787L745.594 144.787L745.594 271.697Z" stroke="#3B65EE" stroke-width="2.5" stroke-miterlimit="10" stroke-linecap="round" stroke-linejoin="round"/>
<path d="M750.09 150.43C754.872 150.43 758.75 145.882 758.75 140.27C758.75 134.659 754.872 130.11 750.09 130.11C745.307 130.11 741.43 134.659 741.43 140.27C741.43 145.882 745.307 150.43 750.09 150.43Z" fill="#E5ECF9" stroke="#3B65EE" stroke-width="2.5" stroke-miterlimit="10" stroke-linecap="round" stroke-linejoin="round"/>
<path d="M742.67 163.9H757.51C758.47 163.9 759.25 163.12 759.25 162.16C759.25 161.2 758.47 160.42 757.51 160.42H742.67C741.71 160.42 740.93 161.2 740.93 162.16C740.93 163.13 741.71 163.9 742.67 163.9Z" fill="#E5ECF9" stroke="#3B65EE" stroke-width="2.5" stroke-miterlimit="10" stroke-linecap="round" stroke-linejoin="round"/>
<path d="M732.891 277.52H767.291C765.981 274.01 762.631 271.69 758.891 271.69H741.291C737.551 271.69 734.201 274.02 732.891 277.52Z" fill="#D1DAED" stroke="#3B65EE" stroke-width="2.5" stroke-miterlimit="10" stroke-linecap="round" stroke-linejoin="round"/>
<path d="M983.381 251.201C983.381 251.201 984.141 326.731 947.851 326.731C911.561 326.731 891.721 209.261 891.721 209.261" stroke="#3B65EE" stroke-width="2.5" stroke-miterlimit="10" stroke-linecap="round" stroke-linejoin="round"/>
<path d="M795.702 185.3C795.702 185.3 796.042 219.17 779.772 219.17C763.492 219.17 754.602 166.49 754.602 166.49" stroke="#3B65EE" stroke-width="2.5" stroke-miterlimit="10" stroke-linecap="round" stroke-linejoin="round"/>
<defs>
<linearGradient id="paint0_linear_753_2539" x1="256.408" y1="365.132" x2="256.408" y2="31.3988" gradientUnits="userSpaceOnUse">
<stop offset="0.1945" stop-color="white"/>
<stop offset="1" stop-color="#3B65EE"/>
</linearGradient>
<linearGradient id="paint1_linear_753_2539" x1="939.544" y1="365.132" x2="939.544" y2="31.3988" gradientUnits="userSpaceOnUse">
<stop offset="0.1945" stop-color="white"/>
<stop offset="1" stop-color="#3B65EE"/>
</linearGradient>
</defs>
</svg>
