<svg width="249" height="238" viewBox="0 0 249 238" fill="none" xmlns="http://www.w3.org/2000/svg">
<path d="M175.52 151.14L179.53 132.65C179.53 132.65 158.94 128.62 124.53 128.62C90.11 128.62 69.53 132.65 69.53 132.65L73.54 151.14L17.3101 172.36C7.95006 175.89 1.76001 184.85 1.76001 194.85V236.57H247.31V194.85C247.31 184.85 241.12 175.89 231.76 172.36L175.52 151.14Z" fill="#D1DAED" stroke="#3B65EE" stroke-width="2.5" stroke-miterlimit="10" stroke-linecap="round" stroke-linejoin="round"/>
<path d="M175.52 151.14L172.52 164.96L186.94 155.45L175.52 151.14Z" fill="#B0C3EA"/>
<path d="M73.5402 151.14L76.5402 164.96L62.1201 155.45L73.5402 151.14Z" fill="#B0C3EA"/>
<path d="M175.52 151.14L179.53 132.65C179.53 132.65 158.94 128.62 124.53 128.62C90.11 128.62 69.53 132.65 69.53 132.65L73.54 151.14L17.3101 172.36C7.95006 175.89 1.76001 184.85 1.76001 194.85V236.57H247.31V194.85C247.31 184.85 241.12 175.89 231.76 172.36L175.52 151.14Z" stroke="#3B65EE" stroke-width="2.5" stroke-miterlimit="10" stroke-linecap="round" stroke-linejoin="round"/>
<path d="M69.53 132.65C70.7 135.62 71.64 138.65 72.49 141.69C73.35 144.73 74.07 147.8 74.77 150.88C75.42 153.97 76.03 157.06 76.51 160.18C77 163.3 77.4001 166.44 77.5601 169.63C76.3801 166.66 75.45 163.63 74.6 160.59C73.74 157.55 73.02 154.48 72.33 151.4C71.69 148.31 71.07 145.22 70.59 142.1C70.1 138.98 69.69 135.84 69.53 132.65Z" fill="#3B65EE"/>
<path d="M179.53 132.65C179.37 135.84 178.96 138.98 178.47 142.1C178 145.22 177.38 148.32 176.73 151.4C176.04 154.48 175.32 157.55 174.46 160.59C173.61 163.63 172.68 166.66 171.5 169.63C171.66 166.44 172.06 163.3 172.55 160.18C173.02 157.06 173.64 153.96 174.29 150.88C174.98 147.8 175.7 144.73 176.57 141.69C177.43 138.65 178.36 135.62 179.53 132.65Z" fill="#3B65EE"/>
<path d="M93.27 162.88V236.56H124.53V175.47L93.27 162.88Z" fill="#B0C3EA" stroke="#3B65EE" stroke-width="2.5" stroke-miterlimit="10" stroke-linecap="round" stroke-linejoin="round"/>
<path d="M95.2101 144.72L89.7902 158.39C88.3002 162.14 89.7802 166.41 93.2702 168.43L114.56 180.8C120.4 184.2 127.5 184.67 133.74 182.07L154.05 173.62C158.33 171.84 160.68 167.2 159.58 162.7L154.55 142.04L95.2101 144.72Z" fill="#B0C3EA" stroke="#3B65EE" stroke-width="2.5" stroke-miterlimit="10" stroke-linecap="round" stroke-linejoin="round"/>
<path d="M150.88 164.96C149.14 166.18 147.3 167.15 145.44 168.07C143.58 168.97 141.68 169.78 139.75 170.51C137.82 171.24 135.86 171.89 133.87 172.45C131.87 172.99 129.85 173.48 127.74 173.72C129.48 172.5 131.32 171.53 133.18 170.61C135.04 169.71 136.94 168.9 138.87 168.17C140.8 167.44 142.76 166.79 144.75 166.23C146.74 165.69 148.76 165.2 150.88 164.96Z" fill="#3B65EE"/>
<path d="M79.15 75.36C79.15 75.36 59.72 90.32 60.75 95.23C61.78 100.14 74.05 95.09 74.05 95.09C74.05 95.09 64.37 113.76 68.7 115.23C73.03 116.71 76.6 106.66 76.6 106.66C76.6 106.66 78.1699 125.68 86.6899 125.68C95.2099 125.68 95.21 74.59 95.21 74.59L79.15 75.36Z" fill="#B0C3EA" stroke="#3B65EE" stroke-width="2.5" stroke-miterlimit="10" stroke-linecap="round" stroke-linejoin="round"/>
<path d="M168.51 75.36C168.51 75.36 187.94 90.32 186.91 95.23C185.88 100.14 173.61 95.09 173.61 95.09C173.61 95.09 183.29 113.76 178.96 115.23C174.63 116.71 171.06 106.66 171.06 106.66C171.06 106.66 169.49 125.68 160.97 125.68C152.45 125.68 152.45 74.59 152.45 74.59L168.51 75.36Z" fill="#B0C3EA" stroke="#3B65EE" stroke-width="2.5" stroke-miterlimit="10" stroke-linecap="round" stroke-linejoin="round"/>
<path d="M159.74 76.19H87.9201C87.9201 76.19 83.2701 131.31 89.1501 142.03C93.2201 149.45 99.24 151.5 102.57 152.06C104.02 152.3 105.26 153.24 105.85 154.58C107.64 158.67 112.59 166.74 123.83 166.74C135.07 166.74 140.02 158.67 141.81 154.58C142.4 153.23 143.64 152.3 145.09 152.06C148.42 151.5 154.45 149.44 158.51 142.03C164.39 131.31 159.74 76.19 159.74 76.19Z" fill="white" stroke="#3B65EE" stroke-width="2.5" stroke-miterlimit="10" stroke-linecap="round" stroke-linejoin="round"/>
<path d="M90.1101 84.57C92.6501 84.08 95.1802 84.17 97.6702 84.47C100.16 84.8 102.62 85.39 104.99 86.31C107.35 87.24 109.65 88.4 111.68 90.03C113.68 91.65 115.49 93.67 116.39 96.1C114.19 94.73 112.14 93.68 110.02 92.7C107.92 91.71 105.73 90.9 103.55 90.03L96.9001 87.49C94.6701 86.63 92.4101 85.71 90.1101 84.57Z" fill="#3B65EE"/>
<path d="M109.24 104.31C110.621 104.31 111.74 101.888 111.74 98.9C111.74 95.9121 110.621 93.49 109.24 93.49C107.86 93.49 106.74 95.9121 106.74 98.9C106.74 101.888 107.86 104.31 109.24 104.31Z" fill="#3B65EE" stroke="#3B65EE" stroke-width="2.5" stroke-miterlimit="10" stroke-linecap="round" stroke-linejoin="round"/>
<path d="M157.55 84.57C155.25 85.72 152.99 86.63 150.75 87.51L144.1 90.05C141.93 90.92 139.74 91.73 137.63 92.72C135.51 93.7 133.46 94.75 131.26 96.12C132.16 93.69 133.97 91.67 135.97 90.05C138 88.42 140.3 87.26 142.66 86.33C145.03 85.41 147.49 84.82 149.98 84.49C152.48 84.16 155.01 84.07 157.55 84.57Z" fill="#3B65EE"/>
<path d="M138.42 104.31C139.801 104.31 140.92 101.888 140.92 98.9C140.92 95.9121 139.801 93.49 138.42 93.49C137.04 93.49 135.92 95.9121 135.92 98.9C135.92 101.888 137.04 104.31 138.42 104.31Z" fill="#3B65EE" stroke="#3B65EE" stroke-width="2.5" stroke-miterlimit="10" stroke-linecap="round" stroke-linejoin="round"/>
<path d="M128.36 96.59C129.16 105.24 138.94 110.74 137 114.68C135.06 118.62 131.01 114.82 131.01 114.82C131.01 114.82 128.34 123.73 123.83 123.73C119.32 123.73 116.65 114.82 116.65 114.82C116.65 114.82 112.59 118.62 110.66 114.68C108.73 110.74 118.5 105.24 119.3 96.59" fill="white"/>
<path d="M128.36 96.59C129.16 105.24 138.94 110.74 137 114.68C135.06 118.62 131.01 114.82 131.01 114.82C131.01 114.82 128.34 123.73 123.83 123.73C119.32 123.73 116.65 114.82 116.65 114.82C116.65 114.82 112.59 118.62 110.66 114.68C108.73 110.74 118.5 105.24 119.3 96.59" stroke="#3B65EE" stroke-width="2" stroke-miterlimit="10" stroke-linecap="round" stroke-linejoin="round"/>
<path d="M119.23 91.48C119.23 91.48 120.06 97.49 118.07 101.06Z" fill="white"/>
<path d="M119.23 91.48C119.74 92.24 120 93.07 120.18 93.9C120.34 94.74 120.39 95.59 120.32 96.45C120.24 97.3 120.05 98.16 119.7 98.96C119.33 99.76 118.83 100.53 118.07 101.05C118.09 100.13 118.13 99.36 118.17 98.58C118.21 97.8 118.25 97.04 118.32 96.27C118.48 94.73 118.63 93.18 119.23 91.48Z" fill="#3B65EE"/>
<path d="M128.43 91.48C128.43 91.48 127.6 97.49 129.59 101.06Z" fill="white"/>
<path d="M128.43 91.48C129.03 93.18 129.19 94.73 129.34 96.28C129.42 97.05 129.45 97.81 129.49 98.59C129.53 99.37 129.57 100.14 129.59 101.06C128.83 100.54 128.33 99.77 127.96 98.97C127.61 98.16 127.42 97.31 127.34 96.46C127.27 95.61 127.32 94.75 127.48 93.91C127.66 93.07 127.92 92.24 128.43 91.48Z" fill="#3B65EE"/>
<path d="M104.35 142.03C104.35 142.03 110.07 132.65 123.83 132.65C137.59 132.65 143.31 142.03 143.31 142.03" fill="white"/>
<path d="M104.35 142.03C105.17 140.31 106.41 138.81 107.79 137.47C109.2 136.15 110.77 134.97 112.52 134.09C115.99 132.26 119.94 131.44 123.84 131.4C127.73 131.43 131.69 132.26 135.16 134.08C136.9 134.96 138.48 136.14 139.89 137.46C141.27 138.8 142.51 140.31 143.33 142.03C142.06 140.63 140.64 139.43 139.12 138.42C137.61 137.39 136.01 136.52 134.34 135.86C132.65 135.25 130.96 134.64 129.18 134.39C128.31 134.19 127.41 134.14 126.53 134.02C125.64 133.94 124.74 133.95 123.84 133.91C122.95 133.95 122.04 133.94 121.15 134.02C120.27 134.14 119.37 134.19 118.5 134.39C116.72 134.64 115.03 135.24 113.34 135.86C111.67 136.53 110.07 137.4 108.56 138.42C107.04 139.43 105.62 140.63 104.35 142.03Z" fill="#3B65EE"/>
<path d="M110.66 122.07C110.66 122.07 108.86 132.77 99.3601 141.31Z" fill="white"/>
<path d="M110.66 122.07C110.8 124.03 110.44 125.98 109.9 127.84C109.34 129.71 108.56 131.51 107.56 133.18C106.57 134.86 105.39 136.44 104.01 137.81C102.65 139.21 101.08 140.4 99.3601 141.3C100.38 139.62 101.5 138.14 102.49 136.57C103.53 135.04 104.47 133.48 105.41 131.91C107.28 128.77 108.92 125.53 110.66 122.07Z" fill="#3B65EE"/>
<path d="M137 122.07C137 122.07 138.8 132.77 148.3 141.31Z" fill="white"/>
<path d="M137 122.07C138.74 125.54 140.38 128.77 142.25 131.92C143.19 133.49 144.14 135.05 145.17 136.58C146.16 138.15 147.28 139.63 148.3 141.31C146.57 140.4 145 139.22 143.65 137.82C142.27 136.44 141.1 134.86 140.1 133.19C139.1 131.52 138.32 129.71 137.76 127.85C137.23 125.97 136.86 124.03 137 122.07Z" fill="#3B65EE"/>
<path d="M123.83 57.41C84.04 57.41 51.78 62.76 51.78 69.35C51.78 69.35 51.78 73.1 51.78 73.31C51.78 79.91 84.04 85.25 123.83 85.25C163.62 85.25 195.88 79.9 195.88 73.31C195.88 72.9 195.88 69.35 195.88 69.35C195.88 62.76 163.62 57.41 123.83 57.41Z" fill="#D1DAED" stroke="#3B65EE" stroke-width="2.5" stroke-miterlimit="10" stroke-linecap="round" stroke-linejoin="round"/>
<path d="M88.1499 67.83C98.6699 68.83 110.85 69.4 123.84 69.4C136.83 69.4 149 68.83 159.53 67.83V1.67999C159.53 1.67999 136.83 3.44 123.84 3.44C110.85 3.44 88.1499 1.67999 88.1499 1.67999V67.83Z" fill="#D1DAED" stroke="#3B65EE" stroke-width="2.5" stroke-miterlimit="10" stroke-linecap="round" stroke-linejoin="round"/>
<path d="M88.1499 49.33V67.82C98.6699 68.82 110.85 69.39 123.84 69.39C136.83 69.39 149 68.82 159.53 67.82V49.33C149.01 50.33 136.83 50.9 123.84 50.9C110.84 50.9 98.6699 50.33 88.1499 49.33Z" fill="#B0C3EA" stroke="#3B65EE" stroke-width="2.5" stroke-miterlimit="10" stroke-linecap="round" stroke-linejoin="round"/>
<path d="M103.26 201.85C103.78 204.74 104.05 207.64 104.23 210.53C104.41 213.42 104.51 216.32 104.51 219.21C104.52 222.1 104.42 225 104.24 227.89C104.06 230.78 103.78 233.68 103.26 236.57C102.74 233.68 102.47 230.78 102.28 227.89C102.1 225 102 222.1 102.01 219.21C102.01 216.32 102.1 213.42 102.29 210.53C102.47 207.64 102.74 204.74 103.26 201.85Z" fill="#3B65EE"/>
</svg>
