<svg width="108" height="50" viewBox="0 0 108 50" fill="none" xmlns="http://www.w3.org/2000/svg">
<path d="M25.02 48.6504C12.19 48.6504 1.75 38.2104 1.75 25.3804C1.75 12.5504 12.19 2.11035 25.02 2.11035H82.68C95.51 2.11035 105.95 12.5504 105.95 25.3804C105.95 38.2104 95.51 48.6504 82.68 48.6504H25.02Z" fill="white"/>
<path d="M82.6702 3.36035C94.8102 3.36035 104.69 13.2404 104.69 25.3804C104.69 37.5204 94.8102 47.4004 82.6702 47.4004H25.0103C12.8703 47.4004 2.99023 37.5204 2.99023 25.3804C2.99023 13.2404 12.8703 3.36035 25.0103 3.36035H82.6702ZM82.6702 0.860352H25.0103C11.4903 0.860352 0.490234 11.8604 0.490234 25.3804C0.490234 38.9004 11.4903 49.9004 25.0103 49.9004H82.6702C96.1902 49.9004 107.19 38.9004 107.19 25.3804C107.2 11.8604 96.1902 0.860352 82.6702 0.860352Z" fill="#4D67B0"/>
</svg>
