<?xml version="1.0" encoding="UTF-8"?><svg id="Layer_1" xmlns="http://www.w3.org/2000/svg" viewBox="0 0 500 500"><defs><style>.cls-1{fill:#fff;}.cls-2{fill:#c8d4fa;}.cls-3{fill:#3b66ef;}</style></defs><path class="cls-3" d="m382.42,248.96c-.09,13.13-2.36,26.15-6.57,38.58s-10.16,23.83-17.59,34.41c-7.44,10.59-16.35,20.14-26.32,28.38-9.97,8.24-21.07,15.15-32.9,20.39s-24.14,8.71-36.82,10.17-26.14.89-38.86-1.99-25.52-8.24-36.93-15.24-21.7-15.73-30.64-25.67c-8.93-9.93-16.49-21.08-22.46-33.03s-10.26-24.61-12.7-37.68c-2.43-13.07-2.9-26.53-1.18-39.71,2.01-15.42,7.18-30.32,14.8-43.86,7-12.43,16.07-23.6,26.83-32.96,9.3-8.08,19.81-14.74,31-19.87s23.07-8.67,35.19-10.68,24.39-2.41,36.56-1.29,24.18,3.86,35.62,8.14c11.56,4.33,22.51,10.34,32.34,17.8,10.79,8.19,20.09,18.23,27.68,29.44,9.77,14.43,16.73,30.67,20.27,47.73,1.84,8.86,2.71,17.88,2.68,26.92,0,1.93,2.99,1.93,3,0,.07-18.48-3.74-36.81-11.06-53.76-6.36-14.73-15.35-28.46-26.49-40.02-8.85-9.18-19.13-16.99-30.32-23.1-11.05-6.05-22.99-10.49-35.27-13.26s-24.84-3.89-37.37-3.4-25.03,2.58-37.03,6.27-23.56,8.99-34.11,15.81-20.44,15.43-28.64,25.22c-10.96,13.09-19.34,28.41-24.36,44.74-4.01,13.04-5.73,26.78-5.27,40.41.46,13.63,3.05,27.18,7.47,40.07,4.42,12.92,10.62,25.23,18.35,36.49s16.95,21.5,27.46,30.22,22.2,15.9,34.82,21.11c12.58,5.2,26,8.2,39.6,8.82,13.13.6,26.36-1.05,39.01-4.61,12.65-3.56,24.78-9.03,35.92-15.99s21.5-15.56,30.47-25.29c8.97-9.74,16.67-20.69,22.65-32.51,5.99-11.83,10.3-24.54,12.48-37.63,1.08-6.47,1.65-13.02,1.7-19.58.01-1.93-2.99-1.93-3,0Z"/><path class="cls-2" d="m310.81,74.58l-6.16,8.18c-4.05,5.38-9.28,10.16-15.56,14.21l-11.31,7.29,8.49.6c8.68.61,17.67,3.63,24.98,8.38l7.68,4.99-4.86-14.03c-2.1-6.08-3.18-12.09-3.21-17.93l-.05-11.7Z"/><path class="cls-2" d="m309.51,73.82c-3.07,4.07-5.99,8.36-9.46,12.1-4.98,5.37-10.97,9.26-17.06,13.19-1.99,1.28-3.98,2.57-5.97,3.85-1.29.83-.72,2.69.76,2.8,4.66.33,9.41.44,14,1.32,7.53,1.44,14.26,4.56,20.64,8.71,1.92,1.25,3.83,2.49,5.75,3.74,1.07.69,2.63-.46,2.2-1.69-1.54-4.45-3.08-8.9-4.62-13.35s-2.61-8.55-3.09-13c-.32-2.99-.3-5.99-.31-8.99-.01-2.64-.02-5.27-.04-7.91,0-1.93-3.01-1.93-3,0,.02,5.01-.18,10.08.19,15.09.57,7.76,3.12,14.92,5.64,22.19.78,2.26,1.57,4.52,2.35,6.78l2.2-1.69c-3.97-2.58-7.88-5.38-12.1-7.55-7.15-3.68-14.84-5.57-22.83-6.13l-6.98-.49.76,2.8c3.73-2.4,7.46-4.81,11.18-7.21,4.01-2.59,7.8-5.56,11.16-8.95,2.37-2.39,4.42-5.02,6.44-7.71,1.59-2.12,3.19-4.23,4.78-6.35,1.16-1.54-1.44-3.04-2.59-1.51Z"/><path class="cls-2" d="m196.08,72.34l-.17,10.24c-.11,6.73-1.54,13.67-4.24,20.64l-4.86,12.55,7.22-4.51c7.38-4.61,16.42-7.45,25.13-7.9l9.15-.47-12.18-8.49c-5.27-3.68-9.68-7.91-13.13-12.62l-6.92-9.44Z"/><path class="cls-2" d="m194.58,72.34c-.09,5.05.06,10.18-.49,15.21-.83,7.52-3.55,14.45-6.25,21.43-.83,2.13-1.65,4.26-2.48,6.39-.48,1.24,1.16,2.35,2.2,1.69,3.98-2.49,7.91-5.18,12.15-7.21,6.92-3.31,14.26-4.73,21.86-5.12,2.25-.12,4.49-.23,6.74-.35,1.54-.08,1.98-1.94.76-2.8-3.89-2.71-7.78-5.43-11.68-8.14-3.49-2.44-6.76-5.16-9.66-8.29-2.06-2.23-3.82-4.66-5.61-7.1-1.58-2.16-3.17-4.32-4.75-6.47-1.13-1.54-3.73-.05-2.59,1.51,3.06,4.17,5.97,8.52,9.31,12.47,4.94,5.83,11.16,10.04,17.37,14.37,2.03,1.42,4.06,2.83,6.09,4.25l.76-2.8c-4.61.24-9.27.29-13.85.94-8.12,1.14-15.64,4.17-22.56,8.5-1.95,1.22-3.9,2.44-5.85,3.65l2.2,1.69c1.59-4.09,3.17-8.19,4.76-12.28,1.73-4.49,3.05-9.12,3.76-13.88.49-3.3.62-6.6.68-9.93.04-2.58.09-5.15.13-7.73.03-1.93-2.97-1.93-3,0Z"/><path class="cls-2" d="m101.95,137.96l5.88,8.39c3.87,5.52,6.79,11.96,8.7,19.19l3.44,13.01,3.19-7.89c3.26-8.06,8.91-15.68,15.69-21.16l7.12-5.76-14.84.29c-6.43.12-12.49-.71-18.04-2.49l-11.15-3.57Z"/><path class="cls-2" d="m100.66,138.72c2.96,4.22,6.17,8.37,8.7,12.87,3.62,6.44,5.48,13.41,7.36,20.49.61,2.29,1.21,4.58,1.82,6.87.41,1.56,2.37,1.28,2.89,0,1.78-4.41,3.4-8.94,5.71-13.11,3.68-6.63,8.72-12,14.57-16.73,1.78-1.44,3.55-2.87,5.33-4.31,1.03-.84.16-2.58-1.06-2.56-4.73.09-9.45.18-14.18.27-4.4.08-8.78-.17-13.09-1.06-3.01-.62-5.91-1.58-8.83-2.52-2.51-.8-5.02-1.61-7.54-2.41-1.84-.59-2.63,2.31-.8,2.89,4.79,1.53,9.57,3.3,14.45,4.5,7.45,1.83,14.96,1.61,22.55,1.47,2.47-.05,4.95-.1,7.42-.14l-1.06-2.56c-3.69,2.99-7.58,5.85-10.96,9.2-5.69,5.66-9.82,12.39-12.81,19.79-.87,2.16-1.75,4.32-2.62,6.49h2.89c-1.14-4.29-2.27-8.58-3.41-12.87-1.21-4.55-2.85-8.99-4.99-13.19-1.51-2.95-3.32-5.67-5.22-8.38-1.52-2.17-3.04-4.34-4.56-6.51-1.1-1.57-3.7-.07-2.59,1.51Z"/><path class="cls-2" d="m64.37,246.38l9.68,3.33c6.37,2.19,12.53,5.69,18.32,10.41l10.43,8.5-2.06-8.26c-2.1-8.44-2.01-17.92.25-26.34l2.38-8.84-11.84,8.96c-5.13,3.88-10.52,6.76-16.06,8.59l-11.11,3.67Z"/><path class="cls-2" d="m63.97,247.82c4.82,1.66,9.82,3.1,14.45,5.24,6.63,3.07,12.2,7.55,17.82,12.12,1.84,1.5,3.67,2.99,5.51,4.49,1.12.91,2.89.09,2.51-1.46-1.12-4.48-2.46-8.99-3.07-13.57s-.61-9.75.09-14.54c.41-2.76,1.11-5.45,1.83-8.14.57-2.14,1.15-4.27,1.72-6.41.31-1.15-1.11-2.52-2.2-1.69-3.77,2.85-7.54,5.7-11.31,8.55-3.5,2.64-7.19,5-11.17,6.85-2.8,1.3-5.73,2.22-8.66,3.18-2.5.83-5.01,1.65-7.51,2.48-1.82.6-1.04,3.5.8,2.89,4.77-1.58,9.68-2.95,14.34-4.86,7.11-2.9,13.05-7.44,19.11-12.03,1.97-1.49,3.95-2.99,5.92-4.48l-2.2-1.69c-1.19,4.44-2.6,8.89-3.38,13.43-1.39,8.15-.83,16.24,1.16,24.22.55,2.2,1.09,4.4,1.64,6.6l2.51-1.46c-3.42-2.79-6.84-5.58-10.27-8.37-3.76-3.06-7.77-5.79-12.11-7.96-3.01-1.51-6.14-2.66-9.31-3.75-2.47-.85-4.94-1.7-7.41-2.55-1.83-.63-2.62,2.27-.8,2.89Z"/><path class="cls-2" d="m97.69,356.18l9.79-3c6.44-1.97,13.48-2.76,20.94-2.35l13.44.74-6.52-5.48c-6.66-5.59-12.16-13.32-15.28-21.46l-3.28-8.55-4.32,14.21c-1.87,6.15-4.54,11.65-7.94,16.39l-6.83,9.5Z"/><path class="cls-2" d="m98.09,357.62c4.9-1.5,9.81-3.26,14.84-4.28,7.26-1.47,14.52-1.07,21.84-.66,2.36.13,4.73.26,7.09.39,1.24.07,2.05-1.73,1.06-2.56-3.63-3.05-7.45-5.98-10.71-9.44-5.21-5.5-8.83-11.96-11.52-18.99-.82-2.13-1.63-4.27-2.45-6.4-.51-1.34-2.44-1.5-2.89,0-1.38,4.54-2.76,9.08-4.14,13.62-1.28,4.21-2.9,8.28-5.08,12.11-1.47,2.59-3.23,4.98-4.96,7.39-1.59,2.2-3.17,4.41-4.76,6.61-1.13,1.57,1.47,3.07,2.59,1.51,2.98-4.15,6.2-8.21,8.88-12.57,3.96-6.46,6.03-13.6,8.21-20.78.72-2.37,1.44-4.74,2.16-7.1h-2.89c1.7,4.43,3.22,9,5.33,13.25,3.56,7.17,8.66,13.28,14.77,18.4,1.79,1.5,3.57,3,5.36,4.5l1.06-2.56c-4.4-.24-8.79-.49-13.19-.73-4.81-.26-9.62-.06-14.37.71-3.28.53-6.44,1.44-9.61,2.41-2.46.75-4.93,1.51-7.39,2.26-1.84.56-1.06,3.46.8,2.89Z"/><path class="cls-2" d="m189.19,425.42l6.16-8.18c4.05-5.38,9.28-10.16,15.56-14.21l11.31-7.29-8.49-.6c-8.68-.61-17.67-3.63-24.98-8.38l-7.68-4.99,4.86,14.03c2.1,6.08,3.18,12.09,3.21,17.93l.05,11.7Z"/><path class="cls-2" d="m190.49,426.18c3.07-4.07,5.99-8.36,9.46-12.1,4.98-5.37,10.97-9.26,17.06-13.19,1.99-1.28,3.98-2.57,5.97-3.85,1.29-.83.72-2.69-.76-2.8-4.66-.33-9.41-.44-14-1.32-7.53-1.44-14.26-4.56-20.64-8.71-1.92-1.25-3.83-2.49-5.75-3.74-1.07-.69-2.63.46-2.2,1.69,1.54,4.45,3.08,8.9,4.62,13.35s2.61,8.55,3.09,13c.32,2.99.3,5.99.31,8.99.01,2.64.02,5.27.04,7.91,0,1.93,3.01,1.93,3,0-.02-5.01.18-10.08-.19-15.09-.57-7.76-3.12-14.92-5.64-22.19l-2.35-6.78-2.2,1.69c3.97,2.58,7.88,5.38,12.1,7.55,7.15,3.68,14.84,5.57,22.83,6.13,2.33.16,4.65.33,6.98.49l-.76-2.8c-3.73,2.4-7.46,4.81-11.18,7.21-4.01,2.59-7.8,5.56-11.16,8.95-2.37,2.39-4.42,5.02-6.44,7.71-1.59,2.12-3.19,4.23-4.78,6.35-1.16,1.54,1.44,3.04,2.59,1.51Z"/><path class="cls-2" d="m303.92,427.66l.17-10.24c.11-6.73,1.54-13.67,4.24-20.64l4.86-12.55-7.22,4.51c-7.38,4.61-16.42,7.45-25.13,7.9l-9.15.47,12.18,8.49c5.27,3.68,9.68,7.91,13.13,12.62l6.92,9.44Z"/><path class="cls-2" d="m305.42,427.66c.09-5.05-.06-10.18.49-15.21.83-7.52,3.55-14.45,6.25-21.43.83-2.13,1.65-4.26,2.48-6.39.48-1.24-1.16-2.35-2.2-1.69-3.98,2.49-7.91,5.18-12.15,7.21-6.92,3.31-14.26,4.73-21.86,5.12l-6.74.35c-1.54.08-1.98,1.94-.76,2.8,3.89,2.71,7.78,5.43,11.68,8.14,3.49,2.44,6.76,5.16,9.66,8.29,2.06,2.23,3.82,4.66,5.61,7.1,1.58,2.16,3.17,4.32,4.75,6.47,1.13,1.54,3.73.05,2.59-1.51-3.06-4.17-5.97-8.52-9.31-12.47-4.94-5.83-11.16-10.04-17.37-14.37-2.03-1.42-4.06-2.83-6.09-4.25l-.76,2.8c4.61-.24,9.27-.29,13.85-.94,8.12-1.14,15.64-4.17,22.56-8.5,1.95-1.22,3.9-2.44,5.85-3.65l-2.2-1.69c-1.59,4.09-3.17,8.19-4.76,12.28-1.73,4.49-3.05,9.12-3.76,13.88-.49,3.3-.62,6.6-.68,9.93-.04,2.58-.09,5.15-.13,7.73-.03,1.93,2.97,1.93,3,0Z"/><path class="cls-2" d="m398.05,362.04l-5.88-8.39c-3.87-5.52-6.79-11.96-8.7-19.19l-3.44-13.01-3.19,7.89c-3.26,8.06-8.91,15.68-15.69,21.16l-7.12,5.76,14.84-.29c6.43-.12,12.49.71,18.04,2.49l11.15,3.57Z"/><path class="cls-2" d="m399.34,361.28c-2.96-4.22-6.17-8.37-8.7-12.87-3.62-6.44-5.48-13.41-7.36-20.49-.61-2.29-1.21-4.58-1.82-6.87-.41-1.56-2.37-1.28-2.89,0-1.78,4.41-3.4,8.94-5.71,13.11-3.68,6.63-8.72,12-14.57,16.73-1.78,1.44-3.55,2.87-5.33,4.31-1.03.84-.16,2.58,1.06,2.56,4.73-.09,9.45-.18,14.18-.27,4.4-.08,8.78.17,13.09,1.06,3.01.62,5.91,1.58,8.83,2.52,2.51.8,5.02,1.61,7.54,2.41,1.84.59,2.63-2.31.8-2.89-4.79-1.53-9.57-3.3-14.45-4.5-7.45-1.83-14.96-1.61-22.55-1.47-2.47.05-4.95.1-7.42.14l1.06,2.56c3.69-2.99,7.58-5.85,10.96-9.2,5.69-5.66,9.82-12.39,12.81-19.79.87-2.16,1.75-4.32,2.62-6.49h-2.89c1.14,4.29,2.27,8.58,3.41,12.87,1.21,4.55,2.85,8.99,4.99,13.19,1.51,2.95,3.32,5.67,5.22,8.38,1.52,2.17,3.04,4.34,4.56,6.51,1.1,1.57,3.7.07,2.59-1.51Z"/><path class="cls-2" d="m435.63,253.62l-9.68-3.33c-6.37-2.19-12.53-5.69-18.32-10.41l-10.43-8.5,2.06,8.26c2.1,8.44,2.01,17.92-.25,26.34l-2.38,8.84,11.84-8.96c5.13-3.88,10.52-6.76,16.06-8.59l11.11-3.67Z"/><path class="cls-2" d="m436.03,252.18c-4.82-1.66-9.82-3.1-14.45-5.24-6.63-3.07-12.2-7.55-17.82-12.12-1.84-1.5-3.67-2.99-5.51-4.49-1.12-.91-2.89-.09-2.51,1.46,1.12,4.48,2.46,8.99,3.07,13.57s.61,9.75-.09,14.54c-.41,2.76-1.11,5.45-1.83,8.14-.57,2.14-1.15,4.27-1.72,6.41-.31,1.15,1.11,2.52,2.2,1.69,3.77-2.85,7.54-5.7,11.31-8.55,3.5-2.64,7.19-5,11.17-6.85,2.8-1.3,5.73-2.22,8.66-3.18,2.5-.83,5.01-1.65,7.51-2.48,1.82-.6,1.04-3.5-.8-2.89-4.77,1.58-9.68,2.95-14.34,4.86-7.11,2.9-13.05,7.44-19.11,12.03-1.97,1.49-3.95,2.99-5.92,4.48l2.2,1.69c1.19-4.44,2.6-8.89,3.38-13.43,1.39-8.15.83-16.24-1.16-24.22-.55-2.2-1.09-4.4-1.64-6.6l-2.51,1.46c3.42,2.79,6.84,5.58,10.27,8.37,3.76,3.06,7.77,5.79,12.11,7.96,3.01,1.51,6.14,2.66,9.31,3.75,2.47.85,4.94,1.7,7.41,2.55,1.83.63,2.62-2.27.8-2.89Z"/><path class="cls-2" d="m402.31,143.82l-9.79,3c-6.44,1.97-13.48,2.76-20.94,2.35l-13.44-.74,6.52,5.48c6.66,5.59,12.16,13.32,15.28,21.46l3.28,8.55,4.32-14.21c1.87-6.15,4.54-11.65,7.94-16.39l6.83-9.5Z"/><path class="cls-2" d="m401.91,142.38c-4.9,1.5-9.81,3.26-14.84,4.28-7.26,1.47-14.52,1.07-21.84.66l-7.09-.39c-1.24-.07-2.05,1.73-1.06,2.56,3.63,3.05,7.45,5.98,10.71,9.44,5.21,5.5,8.83,11.96,11.52,18.99.82,2.13,1.63,4.27,2.45,6.4.51,1.34,2.44,1.5,2.89,0,1.38-4.54,2.76-9.08,4.14-13.62,1.28-4.21,2.9-8.28,5.08-12.11,1.47-2.59,3.23-4.98,4.96-7.39,1.59-2.2,3.17-4.41,4.76-6.61,1.13-1.57-1.47-3.07-2.59-1.51-2.98,4.15-6.2,8.21-8.88,12.57-3.96,6.46-6.03,13.6-8.21,20.78-.72,2.37-1.44,4.74-2.16,7.1h2.89c-1.7-4.43-3.22-9-5.33-13.25-3.56-7.17-8.66-13.28-14.77-18.4-1.79-1.5-3.57-3-5.36-4.5l-1.06,2.56c4.4.24,8.79.49,13.19.73,4.81.26,9.62.06,14.37-.71,3.28-.53,6.44-1.44,9.61-2.41,2.46-.75,4.93-1.51,7.39-2.26,1.84-.56,1.06-3.46-.8-2.89Z"/><path class="cls-1" d="m383.92,248.96c-.49,85.96-93.46,158.29-176.61,126.67-65.25-24.81-106.76-103.42-84.14-170.69,1.48-4.39,3.2-8.71,5.15-12.91,3.73-8.02,8.26-15.67,13.55-22.77,50.38-67.56,159.63-70.78,212.6-4.28,11.38,14.29,19.92,30.87,24.75,48.49,3.26,11.89,4.77,23.8,4.7,35.5Z"/><path class="cls-3" d="m382.42,248.96c-.09,13.13-2.36,26.15-6.57,38.58s-10.16,23.83-17.59,34.41c-7.44,10.59-16.35,20.14-26.32,28.38-9.97,8.24-21.07,15.15-32.9,20.39s-24.14,8.71-36.82,10.17-26.14.89-38.86-1.99-25.52-8.24-36.93-15.24-21.7-15.73-30.64-25.67c-8.93-9.93-16.49-21.08-22.46-33.03s-10.26-24.61-12.7-37.68c-2.43-13.07-2.9-26.53-1.18-39.71,2.01-15.42,7.18-30.32,14.8-43.86,7-12.43,16.07-23.6,26.83-32.96,9.3-8.08,19.81-14.74,31-19.87s23.07-8.67,35.19-10.68,24.39-2.41,36.56-1.29,24.18,3.86,35.62,8.14c11.56,4.33,22.51,10.34,32.34,17.8,10.79,8.19,20.09,18.23,27.68,29.44,9.77,14.43,16.73,30.67,20.27,47.73,1.84,8.86,2.71,17.88,2.68,26.92,0,1.93,2.99,1.93,3,0,.07-18.48-3.74-36.81-11.06-53.76-6.36-14.73-15.35-28.46-26.49-40.02-8.85-9.18-19.13-16.99-30.32-23.1-11.05-6.05-22.99-10.49-35.27-13.26s-24.84-3.89-37.37-3.4-25.03,2.58-37.03,6.27-23.56,8.99-34.11,15.81-20.44,15.43-28.64,25.22c-10.96,13.09-19.34,28.41-24.36,44.74-4.01,13.04-5.73,26.78-5.27,40.41.46,13.63,3.05,27.18,7.47,40.07,4.42,12.92,10.62,25.23,18.35,36.49s16.95,21.5,27.46,30.22,22.2,15.9,34.82,21.11c12.58,5.2,26,8.2,39.6,8.82,13.13.6,26.36-1.05,39.01-4.61,12.65-3.56,24.78-9.03,35.92-15.99s21.5-15.56,30.47-25.29c8.97-9.74,16.67-20.69,22.65-32.51,5.99-11.83,10.3-24.54,12.48-37.63,1.08-6.47,1.65-13.02,1.7-19.58.01-1.93-2.99-1.93-3,0Z"/><circle class="cls-3" cx="242.4" cy="245.62" r="11.04"/><path class="cls-3" d="m242.4,257.16c-.95,0-1.92-.12-2.88-.37-6.16-1.59-9.88-7.9-8.29-14.06,1.59-6.16,7.9-9.88,14.06-8.29,2.98.77,5.49,2.66,7.06,5.31s2,5.76,1.23,8.75h0c-1.34,5.2-6.04,8.66-11.17,8.66Zm0-22.08c-4.69,0-8.98,3.16-10.21,7.91-1.45,5.63,1.94,11.39,7.57,12.84,5.63,1.46,11.39-1.94,12.84-7.57,1.45-5.63-1.94-11.39-7.57-12.84-.88-.23-1.76-.34-2.63-.34Z"/><circle class="cls-3" cx="276.25" cy="242.96" r="11.04"/><path class="cls-3" d="m276.25,254.5c-.95,0-1.92-.12-2.88-.37-6.16-1.59-9.88-7.9-8.29-14.06,1.59-6.16,7.89-9.87,14.06-8.29,6.16,1.59,9.88,7.9,8.29,14.06-1.34,5.2-6.04,8.66-11.18,8.66Zm0-22.08c-4.69,0-8.98,3.16-10.21,7.91-1.45,5.63,1.94,11.39,7.57,12.84,5.63,1.46,11.39-1.94,12.84-7.57s-1.94-11.39-7.57-12.84c-.88-.23-1.76-.34-2.63-.34Z"/><path class="cls-3" d="m302.62,255.97l-84.83,20.3c-2.01.48-3.1,2.68-2.24,4.56,4.81,10.55,22.74,42.72,59.34,29.66,35.39-12.63,34.08-41.81,31.72-52.05-.41-1.79-2.2-2.9-3.98-2.47Z"/><path class="cls-3" d="m258.41,314.05c-25.93,0-39.37-24.34-43.32-33-.47-1.03-.45-2.2.04-3.22.5-1.03,1.42-1.77,2.54-2.03l84.83-20.3c.99-.24,2.02-.07,2.88.46.87.54,1.47,1.38,1.7,2.38.9,3.9,7.63,38.47-32.04,52.63-6.04,2.16-11.58,3.09-16.65,3.09Zm44.33-57.59l-84.83,20.3c-.82.2-1.5.74-1.87,1.5-.37.75-.38,1.61-.03,2.37,3.88,8.5,17.07,32.4,42.46,32.4,4.95,0,10.36-.91,16.25-3.01,15.12-5.4,25.12-14.36,29.71-26.63,4.25-11.37,2.36-21.88,1.68-24.84-.17-.74-.62-1.36-1.25-1.76-.64-.4-1.39-.51-2.13-.34h0Z"/><path class="cls-2" d="m150.65,169.71c-4.67,6.98-38,58.68-18.06,117.42,9.9,29.17,28.67,47.46,39.14,56.2-8.98-12.82-19.33-30.94-26.09-54.19-15.67-53.89-1.91-100.34,5.02-119.42Z"/><path class="cls-2" d="m174.29,346.12l-2.89-2.41c-12.82-10.69-30.04-29.16-39.29-56.42-19.44-57.27,11.69-108.22,18.12-117.86l2.29-3.43-1.41,3.88c-10.04,27.67-19.06,70.8-5.01,119.11,5.58,19.17,14.33,37.36,26.02,54.04l2.16,3.08Zm-25.55-172.48c-9.32,15.26-33.2,61.73-15.68,113.33,8.5,25.04,23.78,42.6,36.09,53.49-10.67-15.91-18.74-33.11-24-51.18-13.45-46.25-5.88-87.76,3.59-115.64Z"/></svg>