<svg width="499" height="287" viewBox="0 0 499 287" fill="none" xmlns="http://www.w3.org/2000/svg">
<path d="M111.51 167.9C111.51 167.9 107.49 188.98 117.27 202.95C123.1 211.28 131.71 215.76 137.7 218.02C141.75 219.55 144.24 223.64 143.79 227.94L140.83 256.33C140.55 259.01 141.41 261.69 143.21 263.7L152.84 274.48C156.6 278.69 163.56 276.67 164.48 271.1C164.85 268.88 164.08 266.63 162.44 265.1L156.94 259.96C154.74 257.9 153.74 254.86 154.28 251.9L159.84 221.53C160.34 218.81 159.54 216.03 157.68 213.98C153 208.82 144.64 197.45 146.13 183.47" fill="#D1DAED"/>
<path d="M111.51 167.9C111.51 167.9 107.49 188.98 117.27 202.95C123.1 211.28 131.71 215.76 137.7 218.02C141.75 219.55 144.24 223.64 143.79 227.94L140.83 256.33C140.55 259.01 141.41 261.69 143.21 263.7L152.84 274.48C156.6 278.69 163.56 276.67 164.48 271.1C164.85 268.88 164.08 266.63 162.44 265.1L156.94 259.96C154.74 257.9 153.74 254.86 154.28 251.9L159.84 221.53C160.34 218.81 159.54 216.03 157.68 213.98C153 208.82 144.64 197.45 146.13 183.47" stroke="#3B65EE" stroke-width="2.5" stroke-miterlimit="10" stroke-linecap="round" stroke-linejoin="round"/>
<path d="M69.8299 152.56L42.94 144.32L15.05 147.55C5.08996 148.7 0.269966 160.34 6.48997 168.2L31.71 200.09C33.05 201.78 34.6599 203.24 36.4699 204.4L41.12 207.39C44.06 209.27 47.92 208.8 50.31 206.26C53.74 202.63 52.56 196.71 48.01 194.66L41.24 191.62C37.92 190.13 35.1099 187.69 33.1599 184.62L19.19 162.63L61.9699 161.85C66.8599 161.76 70.5499 157.4 69.8299 152.56Z" fill="#D1DAED" stroke="#3B65EE" stroke-width="2.5" stroke-miterlimit="10" stroke-linecap="round" stroke-linejoin="round"/>
<path d="M108.83 150.98C118.73 154.53 136.66 154.3 148.87 153.62C154.34 153.31 159.39 155.02 163.4 158.03C163.12 156.31 162.64 151.03 166.24 147.07C168.65 144.42 172.65 144.13 175.75 144.39C178.71 144.64 181.61 143.47 183.52 141.19L189.53 134.01C189.53 134.01 190.79 153.38 183.65 160.78C179.45 165.14 173.94 166.09 170.12 166.15C171.81 169.67 172.58 173.7 172.11 177.93C172.09 178.11 172.07 178.29 172.05 178.47C171.4 183.58 168.94 187.97 165.75 191.64C157.52 201.11 144.79 205.38 132.36 203.61C111.69 200.67 73.37 195.2 72.08 194.93H72.0699C69.6699 194.43 67.1301 193.7 64.4301 192.71C21.6001 176.92 45.52 141.56 45.52 141.56C45.52 141.56 58.8 120.91 61.14 111.53L61.8101 108.25C61.8301 108.17 61.85 108.08 61.87 108C63.18 102.33 59.06 96.83 53.26 96.3C47.82 95.79 38.88 94.58 37.57 91.96C35.67 88.17 50.6899 87.43 50.6899 87.43C46.4299 87.69 41.67 86.3 38.03 84.86C34.4 83.43 32.01 79.93 31.94 76.03L31.75 64.74L36.77 68.69C39.94 71.18 44.18 72.14 48.35 71C51.44 70.15 54.05 68.08 55.83 65.41L58.55 61.32C65.14 52.4 76.11 47.77 86.86 50.45C101.44 54.08 110.08 69.76 106.17 85.48C104.41 92.55 100.41 98.41 95.22 102.4C80.02 116.2 88.39 142.98 108.83 150.98Z" fill="white" stroke="#3B65EE" stroke-width="2.5" stroke-miterlimit="10" stroke-linecap="round" stroke-linejoin="round"/>
<path d="M102.86 80.8C104.24 81.4 105.59 81.75 106.84 81.94C107.49 77.02 106.95 72.19 105.41 67.83L94.5898 72.49C94.5998 72.49 97.6799 78.56 102.86 80.8Z" fill="#D1DAED" stroke="#D1DAED" stroke-width="2.5" stroke-miterlimit="10" stroke-linecap="round" stroke-linejoin="round"/>
<path d="M86.8699 50.45C101.45 54.08 110.09 69.76 106.18 85.48C104.42 92.55 100.42 98.41 95.2299 102.4" stroke="#3B65EE" stroke-width="2.5" stroke-miterlimit="10" stroke-linecap="round" stroke-linejoin="round"/>
<path d="M71.15 188.33C47.26 183.02 43.92 171.62 43.92 171.62L39.98 170.83C42.39 178.95 49.1699 187.07 64.4399 192.7C67.1399 193.7 69.68 194.43 72.08 194.92H72.09C73.38 195.19 111.7 200.66 132.37 203.6C133.28 203.73 134.2 203.82 135.11 203.88L137.64 192.2C137.64 192.21 95.04 193.64 71.15 188.33Z" fill="#E5ECF9" stroke="#E5ECF9" stroke-width="2.5" stroke-miterlimit="10" stroke-linecap="round" stroke-linejoin="round"/>
<path d="M72.0799 194.93C69.6799 194.43 67.1399 193.7 64.4399 192.71C21.6099 176.92 45.53 141.56 45.53 141.56" stroke="#3B65EE" stroke-width="2.5" stroke-miterlimit="10" stroke-linecap="round" stroke-linejoin="round"/>
<path d="M132.37 203.61C111.7 200.67 73.3798 195.2 72.0898 194.93H72.0798" stroke="#3B65EE" stroke-width="2.5" stroke-miterlimit="10" stroke-linecap="round" stroke-linejoin="round"/>
<path d="M80.8899 49.26C79.8499 49.26 78.8198 49.16 77.8298 48.96C77.6198 48.92 77.4199 48.87 77.2199 48.82C67.6599 46.44 64.7899 35.57 64.6799 35.11C64.1699 33.1 65.3899 31.04 67.3999 30.53C67.7099 30.45 68.0198 30.41 68.3298 30.41C70.0498 30.41 71.5499 31.57 71.9799 33.24C71.9999 33.3 73.9699 40.47 79.3699 41.57C79.8699 41.67 80.3998 41.72 80.9398 41.72C85.1698 41.72 94.7799 38.43 111.63 16.37C112.35 15.43 113.44 14.89 114.62 14.89C115.45 14.89 116.24 15.16 116.91 15.67C117.71 16.28 118.22 17.17 118.36 18.16C118.49 19.16 118.23 20.15 117.62 20.95C115.64 23.54 113.68 25.98 111.75 28.25C116.21 26.94 119.79 24.63 122.41 21.36C122.56 21.09 122.75 20.84 122.98 20.6C127.1 14.93 127.15 8.55998 127.15 8.28998C127.15 6.21998 128.84 4.53003 130.92 4.53003C131.93 4.53003 132.87 4.92001 133.58 5.64001C134.29 6.35001 134.68 7.29999 134.68 8.29999C134.68 8.32999 134.67 10.05 134.16 12.67C136.43 9.03998 136.39 5.53998 136.39 5.34998C136.35 3.27998 138 1.56 140.06 1.5C142.2 1.5 143.85 3.10001 143.92 5.14001C144.08 10.51 140.93 21.8 127.9 26.41C122.42 33.12 114.23 36.69 103.54 37.03C95.0899 45.15 87.4599 49.26 80.8899 49.26Z" fill="#D1DAED"/>
<path d="M140.16 2.75C141.51 2.75 142.63 3.81999 142.67 5.17999C142.83 10.35 139.74 21.07 127.15 25.35C122.81 30.81 115.46 35.52 103.02 35.8C94.6499 43.92 87.2399 48.01 80.8799 48.01C79.9199 48.01 78.9898 47.92 78.0798 47.73C77.8898 47.69 77.6999 47.65 77.5199 47.6C68.6799 45.4 65.9999 35.24 65.8799 34.8C65.5399 33.45 66.3498 32.08 67.6998 31.74C67.9098 31.69 68.1098 31.66 68.3198 31.66C69.4398 31.66 70.4699 32.42 70.7599 33.55C70.7899 33.66 72.9099 41.53 79.1199 42.8C79.7099 42.92 80.3198 42.98 80.9398 42.98C91.2698 42.98 105.06 27.03 112.62 17.14C113.12 16.49 113.86 16.15 114.62 16.15C115.15 16.15 115.69 16.32 116.15 16.67C117.25 17.51 117.47 19.09 116.62 20.2C113.76 23.95 110.98 27.32 108.29 30.31C115.79 29.1 120.5 25.78 123.45 22.06C123.57 21.82 123.74 21.61 123.93 21.42C128.29 15.47 128.4 8.79999 128.4 8.29999C128.4 6.90999 129.53 5.78998 130.92 5.78998C132.31 5.78998 133.43 6.92 133.43 8.31C133.43 8.41 133.37 12.46 131.56 17.42C137.7 12.56 137.66 5.69001 137.65 5.32001C137.62 3.94001 138.72 2.78 140.1 2.75C140.12 2.75 140.14 2.75 140.16 2.75ZM140.16 0.25H140.03C137.28 0.32 135.09 2.62 135.14 5.37C135.14 5.39 135.14 5.46998 135.14 5.59998C134.95 5.29998 134.72 5.02001 134.46 4.76001C133.51 3.81001 132.25 3.28998 130.91 3.28998C128.14 3.28998 125.89 5.53999 125.89 8.29999C125.89 8.54999 125.84 14.48 122 19.81C121.75 20.08 121.54 20.36 121.36 20.65C119.86 22.5 118.02 24.03 115.86 25.21C116.77 24.08 117.68 22.91 118.6 21.71C119.41 20.65 119.76 19.33 119.59 18C119.41 16.67 118.73 15.49 117.66 14.68C116.78 14.01 115.73 13.65 114.62 13.65C113.04 13.65 111.59 14.37 110.63 15.62C98.5599 31.42 87.7399 40.48 80.9299 40.48C80.4699 40.48 80.0198 40.44 79.5998 40.35C74.9798 39.41 73.1799 32.97 73.1699 32.91C72.6099 30.71 70.6098 29.16 68.3198 29.16C67.9098 29.16 67.4898 29.21 67.0898 29.31C64.4098 29.99 62.7798 32.73 63.4598 35.41C63.5898 35.9 66.6399 47.46 76.9099 50.02C77.1299 50.07 77.3498 50.12 77.5698 50.17C78.6398 50.39 79.7599 50.5 80.8799 50.5C87.6999 50.5 95.4899 46.38 104.05 38.26C114.74 37.83 123 34.2 128.64 27.47C142.08 22.55 145.33 10.75 145.16 5.09998C145.09 2.38998 142.89 0.25 140.16 0.25Z" fill="#3B65EE"/>
<path d="M93.25 52.34C92.21 52.34 91.18 52.24 90.2 52.04C89.99 52 89.79 51.95 89.59 51.9C80.04 49.52 77.1601 38.66 77.0501 38.2C76.5401 36.19 77.76 34.13 79.77 33.62C80.08 33.54 80.39 33.5 80.7 33.5C82.42 33.5 83.92 34.66 84.35 36.33C84.37 36.39 86.34 43.56 91.74 44.66C92.24 44.76 92.7701 44.81 93.3101 44.81C97.5401 44.81 107.15 41.52 124 19.46C124.72 18.52 125.81 17.98 126.99 17.98C127.82 17.98 128.61 18.25 129.28 18.75C130.08 19.36 130.59 20.25 130.73 21.24C130.86 22.24 130.6 23.23 129.99 24.03C128.01 26.62 126.05 29.07 124.12 31.33C128.58 30.02 132.16 27.71 134.78 24.44C134.93 24.17 135.12 23.92 135.35 23.68C139.47 18.01 139.52 11.64 139.52 11.37C139.52 9.3 141.21 7.60999 143.29 7.60999C144.3 7.60999 145.24 7.99997 145.95 8.71997C146.66 9.43997 147.05 10.38 147.05 11.39C147.05 11.42 147.03 13.16 146.53 15.76C148.8 12.13 148.77 8.62999 148.77 8.42999C148.73 6.35999 150.38 4.64002 152.44 4.58002C154.58 4.58002 156.23 6.17997 156.3 8.21997C156.46 13.59 153.31 24.88 140.28 29.49C134.8 36.2 126.61 39.77 115.92 40.11C107.45 48.23 99.83 52.34 93.25 52.34C93.26 52.34 93.25 52.34 93.25 52.34Z" fill="#D1DAED"/>
<path d="M152.53 5.83002C153.88 5.83002 155 6.90001 155.04 8.26001C155.2 13.43 152.11 24.15 139.52 28.43C135.18 33.89 127.83 38.6 115.39 38.88C107.02 47 99.61 51.09 93.25 51.09C92.29 51.09 91.3599 51 90.4499 50.81C90.2599 50.77 90.07 50.73 89.89 50.68C81.05 48.48 78.37 38.32 78.25 37.88C77.91 36.53 78.7199 35.16 80.0699 34.82C80.2799 34.77 80.4799 34.74 80.6899 34.74C81.8099 34.74 82.84 35.5 83.13 36.63C83.16 36.74 85.28 44.61 91.49 45.88C92.08 46 92.6901 46.06 93.3101 46.06C103.64 46.06 117.43 30.11 124.99 20.22C125.49 19.57 126.23 19.23 126.99 19.23C127.52 19.23 128.06 19.4 128.52 19.75C129.62 20.59 129.84 22.17 128.99 23.28C126.13 27.03 123.35 30.4 120.66 33.39C128.16 32.18 132.87 28.86 135.82 25.14C135.94 24.9 136.11 24.69 136.3 24.5C140.66 18.55 140.77 11.88 140.77 11.38C140.77 9.99 141.9 8.87 143.29 8.87C144.68 8.87 145.8 10 145.8 11.39C145.8 11.5 145.74 15.54 143.93 20.5C150.07 15.64 150.03 8.77002 150.02 8.40002C149.99 7.02002 151.09 5.86002 152.47 5.83002C152.48 5.83002 152.51 5.83002 152.53 5.83002ZM152.53 3.33002H152.4C149.65 3.40002 147.46 5.70001 147.51 8.45001C147.51 8.47001 147.51 8.54999 147.51 8.67999C147.32 8.37999 147.09 8.10003 146.83 7.84003C145.88 6.89003 144.62 6.37 143.28 6.37C140.51 6.37 138.26 8.62 138.26 11.38C138.26 11.63 138.21 17.56 134.37 22.89C134.12 23.16 133.91 23.44 133.73 23.73C132.23 25.58 130.39 27.11 128.23 28.29C129.14 27.16 130.05 25.99 130.97 24.79C131.78 23.73 132.13 22.41 131.96 21.08C131.78 19.75 131.1 18.57 130.03 17.76C129.15 17.09 128.1 16.73 126.99 16.73C125.41 16.73 123.96 17.45 123 18.7C110.93 34.5 100.11 43.56 93.3 43.56C92.84 43.56 92.39 43.52 91.97 43.43C87.35 42.49 85.55 36.05 85.54 35.99C84.98 33.79 82.9799 32.24 80.6899 32.24C80.2799 32.24 79.86 32.29 79.46 32.39C76.78 33.07 75.1499 35.81 75.8299 38.49C75.9599 38.98 79.01 50.54 89.28 53.1C89.5 53.15 89.7199 53.2 89.9399 53.25C91.0099 53.47 92.13 53.58 93.25 53.58C100.07 53.58 107.86 49.46 116.42 41.34C127.11 40.91 135.37 37.28 141.01 30.55C154.45 25.63 157.7 13.83 157.53 8.17999C157.46 5.46999 155.26 3.33002 152.53 3.33002Z" fill="#3B65EE"/>
<path d="M50.7 87.43C54.52 87.43 56.55 84.64 56.55 84.64Z" fill="white"/>
<path d="M50.7 87.43C54.52 87.43 56.55 84.64 56.55 84.64" stroke="#3B65EE" stroke-width="2.5" stroke-miterlimit="10" stroke-linecap="round" stroke-linejoin="round"/>
<path d="M69.7553 70.7408C71.0043 65.7244 70.4266 61.2618 68.4651 60.7735C66.5036 60.2851 63.9009 63.9559 62.652 68.9722C61.4031 73.9886 61.9808 78.4511 63.9423 78.9394C65.9039 79.4278 68.5064 75.7571 69.7553 70.7408Z" fill="#3B65EE"/>
<path d="M90.01 61.14C90.01 61.14 92.01 53.11 101.35 47.04C110.69 40.98 126.07 47.18 126.07 47.18C126.07 47.18 125.99 61.85 114.21 69.26C110.62 71.52 107.4 72.7 104.65 73.25C98.38 74.51 94.59 72.49 94.59 72.49" fill="white"/>
<path d="M90.01 61.14C90.01 61.14 92.01 53.11 101.35 47.04C110.69 40.98 126.07 47.18 126.07 47.18C126.07 47.18 125.99 61.85 114.21 69.26C110.62 71.52 107.4 72.7 104.65 73.25C98.38 74.51 94.59 72.49 94.59 72.49" stroke="#3B65EE" stroke-width="2.5" stroke-miterlimit="10" stroke-linecap="round" stroke-linejoin="round"/>
<path d="M118.71 51.22C118.71 51.22 107.8 52.93 96.8799 63.05Z" fill="white"/>
<path d="M118.71 51.22C114.83 53.01 111.21 54.8 107.63 56.79C105.86 57.81 104.06 58.78 102.31 59.87C100.53 60.92 98.7899 62.04 96.8799 63.06C98.0799 61.28 99.5299 59.68 101.16 58.29C102.76 56.86 104.55 55.66 106.42 54.61C108.3 53.57 110.29 52.74 112.35 52.13C114.4 51.52 116.54 51.11 118.71 51.22Z" fill="#D1DAED"/>
<path d="M118.71 51.22C116.48 51.45 114.39 51.87 112.37 52.48C110.37 53.1 108.44 53.88 106.65 54.92C106.18 55.14 105.77 55.46 105.33 55.73C104.88 55.99 104.45 56.27 104.04 56.6L102.77 57.51C102.38 57.86 101.98 58.2001 101.57 58.5301L100.96 59.04L100.39 59.6L99.2198 60.71C98.4398 61.46 97.7399 62.3 96.8899 63.06C97.2699 62.01 97.7099 60.97 98.2399 59.97C98.8599 59.04 99.3899 58 100.18 57.18C100.55 56.74 100.92 56.31 101.31 55.89L102.59 54.74C103.01 54.34 103.48 54.01 103.97 53.69C104.46 53.38 104.91 53.02 105.44 52.76C107.45 51.59 109.71 50.9 111.98 50.6C114.24 50.29 116.59 50.42 118.71 51.22Z" fill="#3B65EE"/>
<path d="M32.6228 66.6985C35.2771 65.9367 36.5839 62.3755 35.5416 58.7444C34.4994 55.1133 31.5028 52.7874 28.8485 53.5493C26.1942 54.3111 24.8874 57.8724 25.9296 61.5034C26.9719 65.1345 29.9685 67.4604 32.6228 66.6985Z" fill="#3B65EE" stroke="#3B65EE" stroke-width="2.5" stroke-miterlimit="10" stroke-linecap="round" stroke-linejoin="round"/>
<path d="M40.8799 155.11L12.9899 158.34C3.0299 159.49 -1.79009 171.13 4.42991 178.99L29.6499 210.88C30.9899 212.57 32.5999 214.03 34.4099 215.19L39.0599 218.18C41.9999 220.06 45.8599 219.59 48.2499 217.05C51.6799 213.42 50.4999 207.5 45.9499 205.45L39.1799 202.41C35.8599 200.92 33.0499 198.48 31.0999 195.41L17.1299 173.42L59.91 172.64C64.79 172.55 68.4899 168.19 67.7699 163.36" fill="white"/>
<path d="M40.8799 155.11L12.9899 158.34C3.0299 159.49 -1.79009 171.13 4.42991 178.99L29.6499 210.88C30.9899 212.57 32.5999 214.03 34.4099 215.19L39.0599 218.18C41.9999 220.06 45.8599 219.59 48.2499 217.05C51.6799 213.42 50.4999 207.5 45.9499 205.45L39.1799 202.41C35.8599 200.92 33.0499 198.48 31.0999 195.41L17.1299 173.42L59.91 172.64C64.79 172.55 68.4899 168.19 67.7699 163.36" stroke="#3B65EE" stroke-width="2.5" stroke-miterlimit="10" stroke-linecap="round" stroke-linejoin="round"/>
<path d="M131.11 176.06C131.11 176.06 127.09 197.14 136.87 211.11C142.7 219.44 151.31 223.92 157.3 226.18C161.35 227.71 163.84 231.8 163.39 236.1L160.43 264.49C160.15 267.17 161.01 269.85 162.81 271.86L172.44 282.64C176.2 286.85 183.16 284.83 184.08 279.26C184.45 277.04 183.68 274.79 182.04 273.26L176.54 268.12C174.34 266.06 173.34 263.02 173.88 260.06L179.44 229.69C179.94 226.97 179.14 224.19 177.28 222.14C172.6 216.98 164.24 205.61 165.73 191.63" fill="white"/>
<path d="M131.11 176.06C131.11 176.06 127.09 197.14 136.87 211.11C142.7 219.44 151.31 223.92 157.3 226.18C161.35 227.71 163.84 231.8 163.39 236.1L160.43 264.49C160.15 267.17 161.01 269.85 162.81 271.86L172.44 282.64C176.2 286.85 183.16 284.83 184.08 279.26C184.45 277.04 183.68 274.79 182.04 273.26L176.54 268.12C174.34 266.06 173.34 263.02 173.88 260.06L179.44 229.69C179.94 226.97 179.14 224.19 177.28 222.14C172.6 216.98 164.24 205.61 165.73 191.63" stroke="#3B65EE" stroke-width="2.5" stroke-miterlimit="10" stroke-linecap="round" stroke-linejoin="round"/>
<path d="M226.79 164.24L234.56 172.21L246.3 169.22L241.13 163.25L226.79 164.24Z" fill="#D1DAED" stroke="#3B65EE" stroke-width="2.5" stroke-miterlimit="10" stroke-linecap="round" stroke-linejoin="round"/>
<path d="M216.61 182.53V194.66L221.19 186.09L222.78 173.35L216.61 182.53Z" fill="#B0C3EA" stroke="#3B65EE" stroke-width="2.5" stroke-miterlimit="10" stroke-linecap="round" stroke-linejoin="round"/>
<path d="M271.08 137.14L266.5 150.48L273.67 146.7L279.25 133.54L271.08 137.14Z" fill="#E5ECF9" stroke="#3B65EE" stroke-width="2.5" stroke-miterlimit="10" stroke-linecap="round" stroke-linejoin="round"/>
<path d="M216.41 137.73L210.23 150.26L216.41 152.46L222.98 139.52L216.41 137.73Z" fill="#E5ECF9" stroke="#3B65EE" stroke-width="2.5" stroke-miterlimit="10" stroke-linecap="round" stroke-linejoin="round"/>
<path d="M198.56 182.14L205.33 187.52L218.87 184.83L210.71 178.95L198.56 182.14Z" fill="#E5ECF9" stroke="#3B65EE" stroke-width="2.5" stroke-miterlimit="10" stroke-linecap="round" stroke-linejoin="round"/>
<path d="M304.4 161.33L303.41 170.99L314.96 162.42L315.95 154.85L304.4 161.33Z" fill="#B0C3EA" stroke="#3B65EE" stroke-width="2.5" stroke-miterlimit="10" stroke-linecap="round" stroke-linejoin="round"/>
<path d="M295.25 92.76L303.82 96.05L318.16 97.34L309.39 93.96L295.25 92.76Z" fill="#B0C3EA" stroke="#3B65EE" stroke-width="2.5" stroke-miterlimit="10" stroke-linecap="round" stroke-linejoin="round"/>
<path d="M283.22 196.57L293.37 208.12L300.74 206.73L291.98 195.77L283.22 196.57Z" fill="#D1DAED" stroke="#3B65EE" stroke-width="2.5" stroke-miterlimit="10" stroke-linecap="round" stroke-linejoin="round"/>
<path d="M364.18 141.32L357.41 154.66L363.19 159.64L368.57 146.1L364.18 141.32Z" fill="#E5ECF9" stroke="#3B65EE" stroke-width="2.5" stroke-miterlimit="10" stroke-linecap="round" stroke-linejoin="round"/>
<path d="M364.8 56.97L356.83 64.54L369.78 60.76L376.75 54.39L364.8 56.97Z" fill="#D1DAED" stroke="#3B65EE" stroke-width="2.5" stroke-miterlimit="10" stroke-linecap="round" stroke-linejoin="round"/>
<path d="M344.94 79.34L348.73 84.52L361.67 79.34L357.09 73.56L344.94 79.34Z" fill="#B0C3EA" stroke="#3B65EE" stroke-width="2.5" stroke-miterlimit="10" stroke-linecap="round" stroke-linejoin="round"/>
<path d="M331.48 229.69L339.22 233.84L349.74 231.77L334.8 223.88L331.48 229.69Z" fill="#D1DAED" stroke="#3B65EE" stroke-width="2.5" stroke-miterlimit="10" stroke-linecap="round" stroke-linejoin="round"/>
<path d="M478.41 153.57L484.5 156.34L497.5 152.19L489.2 148.59L478.41 153.57Z" fill="#D1DAED" stroke="#3B65EE" stroke-width="2.5" stroke-miterlimit="10" stroke-linecap="round" stroke-linejoin="round"/>
<path d="M457.9 85.72L463.43 97.34L472.56 95.8L463.98 82.96L457.9 85.72Z" fill="#B0C3EA" stroke="#3B65EE" stroke-width="2.5" stroke-miterlimit="10" stroke-linecap="round" stroke-linejoin="round"/>
<path d="M360.41 184.39L353.31 194.31L365.99 188.26L372.67 182.16L360.41 184.39Z" fill="#D1DAED" stroke="#3B65EE" stroke-width="2.5" stroke-miterlimit="10" stroke-linecap="round" stroke-linejoin="round"/>
<path d="M368.59 73.3L371.46 77.45L384.91 70.59L380.23 65.83L368.59 73.3Z" fill="#D1DAED" stroke="#3B65EE" stroke-width="2.5" stroke-miterlimit="10" stroke-linecap="round" stroke-linejoin="round"/>
<path d="M412 93L418.36 107.38H424.17L416.43 93H412Z" fill="#B0C3EA" stroke="#3B65EE" stroke-width="2.5" stroke-miterlimit="10" stroke-linecap="round" stroke-linejoin="round"/>
<path d="M382.11 141.32L376.02 151.48L385.98 153.54L392.06 143.58L382.11 141.32Z" fill="#B0C3EA" stroke="#3B65EE" stroke-width="2.5" stroke-miterlimit="10" stroke-linecap="round" stroke-linejoin="round"/>
<path d="M387.83 137.46L384.04 145.82L395 138.45L399.38 130.69L387.83 137.46Z" fill="#E5ECF9" stroke="#3B65EE" stroke-width="2.5" stroke-miterlimit="10" stroke-linecap="round" stroke-linejoin="round"/>
</svg>
