<?xml version="1.0" encoding="UTF-8"?>
<svg id="Layer_2" xmlns="http://www.w3.org/2000/svg" viewBox="0 0 128.49 121.48">
  <defs>
    <style>
      .cls-1 {
        stroke-width: .52px;
      }

      .cls-1, .cls-2 {
        fill: none;
      }

      .cls-1, .cls-2, .cls-3 {
        stroke: #3b65ee;
        stroke-miterlimit: 10;
      }

      .cls-2 {
        stroke-width: .49px;
      }

      .cls-3 {
        fill: #fff;
        stroke-width: 1.5px;
      }

      .cls-4, .cls-5 {
        fill: #3b65ee;
      }

      .cls-5 {
        opacity: .2;
      }
    </style>
  </defs>
  <g id="Layer_4">
    <g>
      <path class="cls-3" d="M26.32,29.68s.19,11.03-6.76,16.6c-6.95,5.57-20.93,9.59-14.81,17.73,0,0,1.03,2.18,5.54,2.12,0,0-10.96,5.07-9.39,9.99,1.57,4.91,6.08,4.85,8.08,4.28,0,0-4.96,3.9-1.9,7.7,3.06,3.8,9.47,2.62,11.75,1.22,0,0-8.12,8.05-11.6,10.84-3.47,2.79-2.91,7.71,1.64,10.39s10.23,1.51,12.87-.17c0,0-1.59,4.42,2.35,6.55,3.94,2.13,8.31-.95,9.59-3.02,0,0,3.41,8.03,12.08-.16,0,0,11.37,7.12,21.4,6.99s18.98-7.51,18.98-7.51c0,0,5.88,8.55,12.64-.16,0,0,11.46,5.47,15.32-5.54,0,0,5.54,2.12,7.98-2.84s2.23-7.7-2.25-12.3-4.33-4.05-6.7-7.58c0,0,4.33,4.6,7.72-1.2,3.39-5.8-.86-8.21-.86-8.21,0,0,8.94-2.08,3.21-10.2,0,0,5.87-2.24,4.27-9.35-1.6-7.1-12.67-10.79-18.84-22.22C102.47,22.18,104.98.25,66.18.76,28.08,1.25,26.32,29.68,26.32,29.68Z"/>
      <path class="cls-4" d="M47.95,25.68c1.95-4.67,8.7-4.93,12.05-1.7,1.17.81,2.65,1.17,4.13,1.49-1.5.05-3.1-.06-4.52-.86-3.47-2.68-8.92-2.66-11.67,1.07h0Z"/>
      <path class="cls-4" d="M73,25.35c2.14-.49,4.05-1.63,5.25-3.42,1.49-2.42,3.77-5.7,7.13-4.8.75.18,1.43.52,2.07.9-1.41-.45-2.91-.68-4.17-.17-1.95.81-3.06,2.9-4.31,4.59-1.36,1.86-3.72,2.98-5.98,2.89h0Z"/>
      <path class="cls-4" d="M48.05,32.76c9.02-7.15,12,3.36,20.42,1.25,3.41-.92,6.07-3.72,9.43-5.36,1.67-.83,3.48-1.37,5.34-1.59,1.9-.3,3.6.77,5.46.84-1.82.15-3.58-.81-5.4-.37-3.65.54-6.66,2.66-9.61,4.78-5.51,4.23-10.11,3.51-15.57-.24-3.15-2.11-7.08-1.38-10.08.69h0Z"/>
      <ellipse class="cls-4" cx="52.36" cy="48.41" rx="7.47" ry="8.17" transform="translate(-.63 .69) rotate(-.75)"/>
      <ellipse class="cls-4" cx="79.45" cy="48.06" rx="7.47" ry="8.17" transform="translate(-.62 1.04) rotate(-.75)"/>
      <path class="cls-4" d="M59.38,50.34c-1.2,7.79-6.42,16.16-14.72,17.49,7.75-2.64,12.18-10.12,14.72-17.49h0Z"/>
      <path class="cls-4" d="M58.15,53.19c-1.42,4.42-6.39,6.65-10.74,6.82-.64-.02-1.27-.01-1.9-.06.62-.16,1.24-.26,1.84-.4,4.14-.93,8.37-2.69,10.8-6.36h0Z"/>
      <path class="cls-4" d="M72.47,49.69c2.44,6.93,8.07,12.34,15.13,14.41-.91-.15-1.84-.27-2.73-.53-6.34-1.71-11.4-7.41-12.41-13.89h0Z"/>
      <path class="cls-4" d="M74.61,54.22c3.66,2.84,8.45,3.54,12.91,2.71.65-.1,1.29-.28,1.96-.38-.6.3-1.21.57-1.84.82-4.41,1.63-10.08.73-13.03-3.16h0Z"/>
      <ellipse class="cls-4" cx="62.79" cy="60.53" rx="1.87" ry="2.04" transform="translate(-.78 .82) rotate(-.75)"/>
      <ellipse class="cls-4" cx="68.4" cy="60.46" rx="1.87" ry="2.04" transform="translate(-.78 .9) rotate(-.75)"/>
      <path class="cls-2" d="M40.77,91.45s-1.96-7.12,5.42-13.86c7.39-6.73,13.43-9.15,24.18-8.38s19.74,9.34,21.21,14.42-3.11,12.81-13.19,9.62c-10.08-3.19-18.03-3.59-23.6-.97-5.57,2.63-11.15,4.74-14.02-.84Z"/>
      <path class="cls-4" d="M54.84,101.78c2.69-2.38,6.12-4,9.72-4.39,3.59-.12,7.34.35,10.44,2.21-.82-.35-1.68-.55-2.54-.7-2.55-.42-5.26-.75-7.81-.56-3.47.35-6.77,1.73-9.81,3.45h0Z"/>
      <ellipse class="cls-1" cx="40.93" cy="25.22" rx="1" ry="1.1" transform="translate(-.33 .54) rotate(-.75)"/>
      <ellipse class="cls-1" cx="50.82" cy="12.92" rx="1.75" ry="1.92" transform="translate(-.16 .66) rotate(-.75)"/>
      <ellipse class="cls-1" cx="101.53" cy="27.12" rx="1.5" ry="1.64" transform="translate(-.34 1.32) rotate(-.75)"/>
      <ellipse class="cls-1" cx="103.86" cy="33.4" rx=".75" ry=".82" transform="translate(-.43 1.36) rotate(-.75)"/>
      <path class="cls-2" d="M40.76,90.56s10.78-16.21,26.43-15.28c15.64.94,24.43,10.91,24.43,10.91"/>
      <path class="cls-2" d="M41.68,89.3s10.16-9.18,24.41-8.88c14.25.3,24.26,4.51,24.26,4.51"/>
      <path class="cls-2" d="M45.28,78.5s-.03,1.74,2.37,4.48"/>
      <path class="cls-2" d="M51.58,73.34s.68,3.42,2.11,5.31"/>
      <path class="cls-2" d="M58.85,70.03s.38,4.02,1.34,5.95"/>
      <line class="cls-2" x1="66.93" y1="69.08" x2="67.19" y2="75.28"/>
      <path class="cls-2" d="M75.29,70.12s-.76,4.58-1.61,6.11"/>
      <path class="cls-2" d="M82.76,73.61s-.79,3.28-2.78,4.7"/>
      <path class="cls-2" d="M88.73,78.83s-.61,1.22-2.62,2.81"/>
      <path class="cls-2" d="M48.16,84.93s1.15,6.91,3.68,8.67"/>
      <path class="cls-2" d="M57,81.8s.81,5.83,2.12,9.15"/>
      <line class="cls-2" x1="66.09" y1="80.43" x2="66.06" y2="90.85"/>
      <path class="cls-2" d="M75.44,81.19s.67,6.62-1.55,10.79"/>
      <path class="cls-2" d="M85.04,83.19s0,8.73-2.01,11.3"/>
      <path class="cls-4" d="M32.01,39.54c-4.17,9.6-10.11,19.85-19.22,25.46.52-.44,1.04-.86,1.56-1.28,7.46-6.73,12.6-15.59,17.66-24.18h0Z"/>
      <path class="cls-4" d="M28.91,52.18c-2.64,10.04-7.6,20.54-16.64,26.25.99-.89,2.04-1.67,2.91-2.65,6.39-6.6,10.34-15.15,13.74-23.59h0Z"/>
      <path class="cls-4" d="M30.07,68.66c-.92,6.5-3.36,13.38-8.45,17.78,4.07-5.27,6.24-11.58,8.45-17.78h0Z"/>
      <path class="cls-4" d="M30.35,90.11c-.88,5.65-2.75,11.43-6.5,15.84,2.64-5.13,4.35-10.5,6.5-15.84h0Z"/>
      <path class="cls-4" d="M36.3,97.29c-.32,4.68-1.54,9.14-2.46,13.71-.39-4.66.89-9.34,2.46-13.71h0Z"/>
      <path class="cls-4" d="M93.94,97.9c2.05,3.86,3.1,8.27,4.8,12.25-1.59-1.59-2.31-3.81-3.13-5.84-.73-2.08-1.36-4.2-1.67-6.41h0Z"/>
      <path class="cls-4" d="M105.34,89.13c2.25,4.64,5.48,11.05,7.67,15.66-3.64-4.57-6.33-9.96-7.67-15.66h0Z"/>
      <path class="cls-4" d="M102.01,63.83c3.62,6.16,6.61,12.98,9.97,19.27-4.52-5.69-7.49-12.49-9.97-19.27h0Z"/>
      <path class="cls-4" d="M108.78,66.4c2.62,2.45,4.8,5.04,7.23,7.68-3.23-1.59-5.68-4.48-7.23-7.68h0Z"/>
      <path class="cls-4" d="M106.67,49.09c4.03,5.26,8.02,10.7,13.54,14.5-6.24-2.66-10.64-8.56-13.54-14.5h0Z"/>
      <path class="cls-5" d="M63.42,3.55s-19.81-.9-26.68,12.94c-6.87,13.84-8.07,15.06-1.27,18.16,6.8,3.1,16.81.59,22.47,3.13,5.66,2.53,1.66,7.26,4.67,9.62s7.74,2.3,8.6-4.34c.86-6.64,5.31-8.89,8.52-8.31s13.98,4.56,16.85.57S102.01.84,63.42,3.55Z"/>
      <path class="cls-5" d="M56.71,50.43s-3.18-1.49-4.43,1.56-2.29,4.41-7.91,5.34-10.06,6.06-6.79,11.14c3.27,5.08,26.4-9.9,19.13-18.04Z"/>
      <path class="cls-5" d="M76.44,49.22s3.14-1.57,4.47,1.44,2.41,4.35,8.04,5.13c5.63.78,10.21,5.8,7.08,10.96-3.14,5.16-26.65-9.21-19.59-17.53Z"/>
      <path class="cls-5" d="M65.73,65.61s-16.27-1.48-25.11,13.21c-8.97,14.91,2.55,18.68,7.76,23.04,5.2,4.36-1.86,7.3,3.87,11.01,5.73,3.71,16.66,7.36,22.76,3.49,6.1-3.87,11.84-6.23,10.31-11.22s2.19-7.01,6.45-10.3c5.62-4.33,8.13-29.92-26.04-29.24ZM90.63,89.91c-.61.26-1-.19-3.19-1.16-2.19-.96-4.31-4.2-22.31-4.92-13.25-.52-23.4,9.08-23.4,9.08-1.77-1.61-.96-2.36-.96-2.36,9.02-9.8,24.16-10.07,24.16-10.07,22.08.15,26.94,5.87,26.94,5.87,0,0-.63,3.28-1.24,3.54Z"/>
      <path class="cls-4" d="M41.33,89.97s11.13-10.43,24.78-9.56,24.23,4.53,24.23,4.53c0,0-12.39-10.24-24.3-9.69-16.17.74-24.72,14.72-24.72,14.72Z"/>
      <path class="cls-5" d="M31.09,41.39s-11.82,9.92-16.52,12.82c-4.7,2.9-8.42,7.6.12,9.42,0,0,14.24-15.41,16.4-22.24Z"/>
      <path class="cls-5" d="M26.91,56.88s-13.1,11.53-17.8,14.43-8.42,7.6.12,9.42c0,0,15.35-11.22,17.67-23.85Z"/>
      <path class="cls-5" d="M29,71.53s-7.95,7.68-12.64,10.58-8.42,7.6.12,9.42c0,0,10.2-7.37,12.52-20Z"/>
      <path class="cls-5" d="M104.31,83.18s6.51,8.93,10.63,12.6,6.99,8.94-1.74,9.26c0,0-8.78-9.01-8.89-21.86Z"/>
      <path class="cls-5" d="M29.26,91.4s-6.51,8.6-11.21,11.51c-4.7,2.9-8.42,7.6.12,9.42,0,0,8.92-5.75,11.09-20.93Z"/>
      <path class="cls-5" d="M94.26,96.24s3.48,6.5,6.34,8.95,4.87,6.02-1.08,6.34c0,0-5.41-4.83-5.26-15.3Z"/>
      <path class="cls-5" d="M35.99,99.36s-2.28,6.66-6.98,9.56-7.97,6.21.58,8.04c0,0,5.7,1.35,6.4-17.6Z"/>
      <path class="cls-5" d="M103.24,42.82s8.59,6.39,13.22,9.62c4.63,3.22,9.4,6.96,7.07,9.35-2.33,2.39-5.47,5.64-20.29-18.97Z"/>
      <path class="cls-5" d="M103.11,56.36s7.8,6.55,12.43,9.78c4.63,3.22,8.09,4.17,5.76,6.56-2.33,2.39-7.03,4.82-18.19-16.33Z"/>
      <path class="cls-5" d="M105.19,70.54s7.69,8.89,10.77,10.39c3.41,1.66,5,3.51,3.24,4.89s-8.5-.19-14-15.28Z"/>
    </g>
  </g>
</svg>