<svg width="171" height="79" viewBox="0 0 171 79" fill="none" xmlns="http://www.w3.org/2000/svg">
<path d="M39.1174 76.7064C18.6591 76.7064 2.01172 60.0591 2.01172 39.6008C2.01172 19.1424 18.6591 2.49512 39.1174 2.49512H131.06C151.519 2.49512 168.166 19.1424 168.166 39.6008C168.166 60.0591 151.519 76.7064 131.06 76.7064H39.1174Z" fill="white"/>
<path d="M131.042 4.48838C150.4 4.48838 166.154 20.2427 166.154 39.6008C166.154 58.9589 150.4 74.7133 131.042 74.7133H39.0989C19.7408 74.7133 3.98642 58.9589 3.98642 39.6008C3.98642 20.2427 19.7408 4.48838 39.0989 4.48838H131.042ZM131.042 0.501953H39.0989C17.5403 0.501953 0 18.0422 0 39.6008C0 61.1594 17.5403 78.6997 39.0989 78.6997H131.042C152.6 78.6997 170.141 61.1594 170.141 39.6008C170.141 18.0422 152.6 0.501953 131.042 0.501953Z" fill="#4D67B0"/>
</svg>
