<svg width="48" height="361" viewBox="0 0 48 361" fill="none" xmlns="http://www.w3.org/2000/svg">
<path d="M4.12983 2.73981C6.69983 1.46981 9.64983 2.60983 10.6898 5.28983C12.1298 9.02983 13.8898 13.6898 15.7598 18.6798C30.0798 57.0098 39.7298 97.6898 43.7598 139.44C45.0798 153.13 45.8198 166.85 45.8198 180.54C45.8398 194.2 45.0998 207.9 43.7898 221.56C39.7798 263.35 30.1199 304.07 15.7799 342.43C13.9199 347.42 12.1598 352.06 10.7198 355.79C9.6898 358.47 6.7398 359.61 4.1598 358.34L4.11982 358.32C2.07982 357.31 1.05984 355.01 1.63984 352.81C6.34984 335.15 9.8198 317.08 12.5998 298.91C18.4598 259.93 20.8398 220.28 20.8198 180.53C20.8598 140.78 18.4798 101.13 12.6198 62.1398C9.83982 43.9698 6.35985 25.8998 1.64985 8.23981C1.05985 6.04981 2.08983 3.73981 4.12983 2.73981Z" fill="#D1DAED" stroke="#4D67B0" stroke-width="2.5" stroke-miterlimit="10" stroke-linecap="round" stroke-linejoin="round"/>
</svg>
