<?xml version="1.0" encoding="UTF-8"?><svg id="Layer_1" xmlns="http://www.w3.org/2000/svg" viewBox="0 0 300 500"><defs><style>.cls-1{fill:#0069ff;}.cls-2{fill:#fff;}</style></defs><rect class="cls-2" x="57.25" y="78.25" width="185.5" height="343.5" rx="22.54" ry="22.54"/><path class="cls-1" d="m220.21,419.25h-100.73c-13.12,0-26.3.35-39.42,0-11.44-.3-20.01-8.88-20.32-20.32-.06-2.36,0-4.73,0-7.09,0-32.49,0-64.99,0-97.48,0-43.57,0-87.13,0-130.7v-46.34c0-7.11-1.27-16.22,1.12-23.09,5.88-16.92,26.26-13.48,40.3-13.48h114.78c7.46,0,14.55,1.06,19.71,7.3,3.73,4.52,4.58,9.84,4.58,15.41v218.67c0,25.46.26,50.93,0,76.39-.12,11.39-8.53,20.37-20.04,20.72-3.21.1-3.22,5.1,0,5,13.88-.42,24.67-11.16,25.04-25.06.05-2.01,0-4.03,0-6.05V113.61c0-9.95,1.14-20.27-5.65-28.59-9.84-12.06-26.95-9.27-40.77-9.27-38.82,0-77.64,0-116.46,0-15.93,0-27.57,10.63-27.62,26.85-.03,10.15,0,20.3,0,30.44,0,41.98,0,83.96,0,125.94s0,79.18,0,118.76c0,7.13-.17,14.29,0,21.42.33,13.49,10.75,24.5,24.35,25.05,3.66.15,7.34.02,10.99.02,40.03,0,80.06,0,120.08,0h10.04c3.22,0,3.22-5,0-5Z"/><path class="cls-1" d="m233.5,386.25H66.5l2.5,2.5V99.25l-2.5,2.5h167l-2.5-2.5v289.5c0,3.22,5,3.22,5,0V99.25c0-1.35-1.15-2.5-2.5-2.5H66.5c-1.35,0-2.5,1.15-2.5,2.5v289.5c0,1.35,1.15,2.5,2.5,2.5h167c3.22,0,3.22-5,0-5Z"/><path class="cls-1" d="m132.56,89.96h34.88c3.22,0,3.22-5,0-5h-34.88c-3.22,0-3.22,5,0,5h0Z"/><path class="cls-1" d="m163,409.25h-16.38c-2.81,0-5.7.18-8.51,0-1.3-.08-1.92.24-3.38-.62-4.17-2.44-1.84-7.86,2.26-8.38,5.12-.66,10.75,0,15.9,0,2.97,0,6.01-.19,8.98,0,1.3.08,1.93-.23,3.38.62,4.07,2.38,2.06,7.99-2.26,8.38-3.18.29-3.21,5.29,0,5,9.78-.88,13.47-14.45,3.4-18.34-2.44-.94-5.27-.66-7.84-.66h-12.87c-6.4,0-15-1.27-17.66,6.4-1.46,4.2.34,9.05,4.18,11.3,2.43,1.42,5.12,1.3,7.82,1.3h22.97c3.22,0,3.22-5,0-5Z"/></svg>