<svg width="35" height="66" viewBox="0 0 35 66" fill="none" xmlns="http://www.w3.org/2000/svg">
<g clip-path="url(#clip0_9_292)">
<path opacity="0.2" d="M2.70006 54.59L2.46006 54.63C0.0100555 55.02 -0.859944 58.09 1.00006 59.72L7.22006 65.15C7.75006 65.61 8.44006 65.87 9.14006 65.87H26.0601C26.7701 65.87 27.4601 65.61 28.0001 65.13L33.3201 60.42C35.0401 58.89 34.4101 56.06 32.1901 55.42L29.5701 54.66C29.3101 54.58 29.0301 54.54 28.7601 54.54H3.16006C3.00006 54.54 2.85006 54.55 2.69006 54.58L2.70006 54.59Z" fill="#3B65EE"/>
<path d="M8.95007 9.53999L1.97007 55.51C1.90007 55.97 2.08007 56.44 2.45007 56.73L8.76007 61.74C8.99007 61.92 9.28007 62.02 9.57007 62.02H26.5001C26.8201 62.02 27.1301 61.9 27.3701 61.69L32.9501 56.7C33.2601 56.42 33.4201 56.01 33.3801 55.59L28.6901 9.59999C28.6201 8.92999 28.0601 8.42999 27.3901 8.42999H10.2401C9.59007 8.42999 9.05007 8.89999 8.95007 9.53999Z" fill="white" stroke="#3B65EE" stroke-width="0.85" stroke-miterlimit="10"/>
<path d="M18.73 15.8C24.9211 15.8 29.94 14.5553 29.94 13.02C29.94 11.4846 24.9211 10.24 18.73 10.24C12.5389 10.24 7.52002 11.4846 7.52002 13.02C7.52002 14.5553 12.5389 15.8 18.73 15.8Z" fill="white" stroke="#3B65EE" stroke-width="0.64" stroke-linecap="round" stroke-linejoin="round"/>
<path d="M18.73 14.74C24.9211 14.74 29.94 13.4953 29.94 11.96C29.94 10.4246 24.9211 9.17999 18.73 9.17999C12.5389 9.17999 7.52002 10.4246 7.52002 11.96C7.52002 13.4953 12.5389 14.74 18.73 14.74Z" fill="white" stroke="#3B65EE" stroke-width="0.64" stroke-linecap="round" stroke-linejoin="round"/>
<path d="M31.64 8.21999C31.64 12.52 25.9 13.24 18.83 13.24C11.76 13.24 6.02002 12.53 6.02002 8.21999C6.02002 3.90999 11.76 0.429993 18.83 0.429993C25.9 0.429993 31.64 3.91999 31.64 8.21999Z" fill="white" stroke="#3B65EE" stroke-width="0.85" stroke-linecap="round" stroke-linejoin="round"/>
<path d="M16.4801 4.89998C17.303 4.89998 17.9701 4.56867 17.9701 4.15998C17.9701 3.75129 17.303 3.41998 16.4801 3.41998C15.6572 3.41998 14.9901 3.75129 14.9901 4.15998C14.9901 4.56867 15.6572 4.89998 16.4801 4.89998Z" fill="#3B65EE"/>
<path d="M20.7101 4.89998C21.533 4.89998 22.2001 4.56867 22.2001 4.15998C22.2001 3.75129 21.533 3.41998 20.7101 3.41998C19.8872 3.41998 19.2201 3.75129 19.2201 4.15998C19.2201 4.56867 19.8872 4.89998 20.7101 4.89998Z" fill="#3B65EE"/>
<path d="M21.64 7.14998C22.4629 7.14998 23.13 6.81867 23.13 6.40998C23.13 6.00129 22.4629 5.66998 21.64 5.66998C20.8171 5.66998 20.15 6.00129 20.15 6.40998C20.15 6.81867 20.8171 7.14998 21.64 7.14998Z" fill="#3B65EE"/>
<path d="M17.4 7.14998C18.2229 7.14998 18.89 6.81867 18.89 6.40998C18.89 6.00129 18.2229 5.66998 17.4 5.66998C16.5771 5.66998 15.91 6.00129 15.91 6.40998C15.91 6.81867 16.5771 7.14998 17.4 7.14998Z" fill="#3B65EE"/>
<path opacity="0.2" d="M11.6801 13.02C11.6801 13.02 6.10006 2.66998 18.3901 2.77998C30.6801 2.87998 31.7901 11.42 23.1201 13.03H11.6801V13.02Z" fill="#3B65EE"/>
<path opacity="0.2" d="M9.97003 12.4C9.97003 12.4 9.79003 13.74 11.48 14.07C11.48 14.07 11.1 15.24 12.67 15.36C12.67 15.36 23.87 16.66 28.77 14.26C28.77 14.26 29.18 13.35 29.07 13.03C29.07 13.03 29.51 12.09 29.35 11.76C29.35 11.76 24.9 14.23 9.97003 12.4Z" fill="#3B65EE"/>
<path opacity="0.2" d="M10.42 14.89L5.28002 55.83C5.28002 55.83 4.65002 57.05 7.85002 59.32L9.12002 60.31H26.69L30.89 56.68L26.36 14.73C26.36 14.73 26.01 16.43 10.4 14.88L10.42 14.89Z" fill="#3B65EE"/>
<path d="M9.33008 16.97L29.3901 58.39L31.9601 56.04L9.76008 16.16L9.33008 16.97Z" fill="white"/>
<path d="M14.67 21.67L30.9 49.21L30.68 43.66L14.67 18.25V21.67Z" fill="white"/>
<path d="M9.76001 58.39C10.47 44.54 11.75 30.72 13.6 16.97C12.89 30.82 11.61 44.64 9.76001 58.39Z" fill="#3B65EE"/>
<path d="M27.0501 58.39C25.2001 44.64 23.9101 30.82 23.2101 16.97C25.0601 30.72 26.3401 44.54 27.0501 58.39Z" fill="#3B65EE"/>
<path d="M16.0401 42.88C15.9201 42.91 15.8101 42.86 15.7001 42.75C15.6301 42.7 15.5401 42.62 15.4401 42.51C15.3401 42.4 15.2701 42.19 15.2301 41.89C15.1901 41.59 15.2001 41.14 15.2701 40.53C15.2801 40.13 15.3001 39.84 15.3201 39.65C15.3401 39.46 15.3401 39.33 15.3201 39.25C15.3001 39.14 15.2901 39.05 15.3001 38.97C15.3001 38.89 15.3001 38.82 15.2901 38.75C15.3501 38.74 15.4001 38.67 15.4301 38.55C15.4601 38.43 15.4801 38.27 15.4801 38.07C15.4801 37.89 15.4801 37.75 15.5001 37.64C15.5101 37.53 15.5101 37.45 15.5001 37.41C15.5301 37.32 15.5601 37.19 15.5701 37C15.5901 36.82 15.6301 36.6 15.7001 36.33C15.7101 36.02 15.7301 35.69 15.7601 35.34C15.7901 35 15.8201 34.67 15.8601 34.37C15.9001 34.06 15.9401 33.82 15.9701 33.65C16.0101 33.32 16.0501 33.08 16.0801 32.95C16.1101 32.81 16.0901 32.73 16.0301 32.71C15.9501 32.68 15.8901 32.56 15.8501 32.35C15.8101 32.14 15.8601 31.95 16.0101 31.76C16.0901 31.61 16.2101 31.48 16.3701 31.39C16.5301 31.3 16.7101 31.23 16.9301 31.18C17.1501 31.13 17.3801 31.09 17.6201 31.06C17.8001 31.03 17.9901 30.99 18.2001 30.95L18.5801 30.87C18.6801 30.89 18.8001 30.91 18.9401 30.93C19.0801 30.95 19.2101 30.97 19.3201 30.99C19.4301 31.01 19.4901 31.04 19.5001 31.07C19.5101 31.13 19.5401 31.16 19.5901 31.17C19.6401 31.17 19.6901 31.17 19.7401 31.17C19.8101 31.15 19.9401 31.19 20.1201 31.28C20.3101 31.37 20.5001 31.48 20.7001 31.62C20.9001 31.76 21.0601 31.9 21.1601 32.06C21.2801 32.21 21.3801 32.35 21.4701 32.49C21.5601 32.63 21.6101 32.84 21.6201 33.13C21.6401 33.28 21.6501 33.43 21.6501 33.59C21.6501 33.75 21.6301 33.85 21.6001 33.91C21.5501 33.96 21.5101 34.02 21.4701 34.09C21.4301 34.16 21.4201 34.22 21.4301 34.27C21.4301 34.31 21.4301 34.41 21.3801 34.59C21.3301 34.76 21.2701 34.96 21.2001 35.18C21.1201 35.4 21.0401 35.62 20.9401 35.84C20.8401 36.06 20.7501 36.24 20.6501 36.37C20.5601 36.56 20.4401 36.74 20.2901 36.92C20.1501 37.1 20.0201 37.25 19.9001 37.37C19.6701 37.55 19.4001 37.73 19.0901 37.91C18.7801 38.09 18.4801 38.25 18.1901 38.38C17.9001 38.51 17.6501 38.59 17.4601 38.63C17.1801 38.73 17.0001 38.81 16.9201 38.87C16.8401 38.92 16.7901 39.03 16.7801 39.17C16.7601 39.31 16.7401 39.45 16.7301 39.6C16.7201 39.75 16.7101 39.85 16.7301 39.91C16.7201 39.95 16.7001 40.07 16.6801 40.27C16.6601 40.46 16.6301 40.69 16.6001 40.94C16.5701 41.2 16.5401 41.45 16.5301 41.71C16.5101 41.96 16.5001 42.18 16.5001 42.36C16.5001 42.51 16.4301 42.63 16.3201 42.73C16.2101 42.83 16.1101 42.89 16.0201 42.9L16.0401 42.88ZM17.0601 37.44C17.0601 37.44 17.2401 37.44 17.4501 37.37C17.6601 37.29 17.9101 37.16 18.1901 36.97C18.3701 36.86 18.5501 36.73 18.7401 36.58C18.9201 36.44 19.0901 36.28 19.2601 36.12C19.3401 36.03 19.4301 35.92 19.5101 35.79C19.5901 35.66 19.7101 35.45 19.8501 35.16C19.8701 35.1 19.9001 35 19.9401 34.83C19.9801 34.67 20.0201 34.52 20.0501 34.38C20.1101 34.22 20.1501 34 20.1801 33.7C20.2101 33.41 20.1801 33.18 20.0901 33.01C19.9801 32.76 19.8401 32.57 19.6501 32.43C19.4601 32.29 19.2501 32.2 19.0001 32.17C18.7701 32.17 18.5901 32.19 18.4401 32.22C18.2901 32.24 18.1401 32.29 17.9801 32.35C17.8301 32.43 17.7401 32.53 17.6901 32.63C17.6501 32.73 17.6001 32.94 17.5401 33.26C17.5001 33.41 17.4401 33.63 17.3701 33.9C17.3001 34.17 17.2401 34.44 17.2101 34.71C17.1801 35.4 17.1301 35.94 17.0701 36.32C17.0101 36.7 16.9801 36.94 16.9601 37.06C16.9901 37.17 17.0101 37.25 17.0001 37.29C17.0001 37.34 17.0101 37.38 17.0601 37.42V37.44Z" fill="#3B65EE"/>
</g>
<defs>
<clipPath id="clip0_9_292">
<rect width="34.31" height="65.86" fill="white"/>
</clipPath>
</defs>
</svg>
