<svg width="291" height="389" viewBox="0 0 291 389" fill="none" xmlns="http://www.w3.org/2000/svg">
<path d="M74.8613 349.083L81.1606 387.071H101.27L103.274 368.704L107.019 387.071H127.767L131.666 345.735L74.8613 349.083Z" fill="white" stroke="#3B65EE" stroke-width="2" stroke-linecap="round" stroke-linejoin="round"/>
<path d="M215.671 349.083L209.372 387.071H189.284L187.258 368.704L183.536 387.071H162.766L158.867 345.735L215.671 349.083Z" fill="white" stroke="#3B65EE" stroke-width="2" stroke-linecap="round" stroke-linejoin="round"/>
<path d="M232.984 253.154C245.429 268.57 263.16 261.787 271.023 253.154C272.162 251.918 272.979 250.421 273.403 248.794C273.826 247.168 273.843 245.462 273.451 243.828C273.06 242.194 272.271 240.681 271.156 239.423C270.041 238.165 268.634 237.201 267.058 236.616V236.616C265.506 236.035 263.836 235.839 262.192 236.046C260.548 236.252 258.978 236.854 257.618 237.801C256.258 238.747 255.147 240.009 254.382 241.479C253.617 242.949 253.221 244.582 253.226 246.239C253.226 253.859 255.825 262.337 265.494 265.222C284.525 270.926 289.591 258.616 289.591 258.616" fill="white"/>
<path d="M232.984 253.154C245.429 268.57 263.16 261.787 271.023 253.154C272.162 251.918 272.979 250.421 273.403 248.794C273.826 247.168 273.843 245.462 273.451 243.828C273.06 242.194 272.271 240.681 271.156 239.423C270.041 238.165 268.634 237.201 267.058 236.616V236.616C265.506 236.035 263.836 235.839 262.192 236.046C260.548 236.252 258.978 236.854 257.618 237.801C256.258 238.747 255.147 240.009 254.382 241.479C253.617 242.949 253.221 244.582 253.226 246.239C253.226 253.859 255.825 262.337 265.494 265.222C284.525 270.926 289.591 258.616 289.591 258.616" stroke="#3B65EE" stroke-width="2" stroke-linecap="round" stroke-linejoin="round"/>
<path d="M53.5616 123.553C38.496 99.3286 47.7688 73.5626 47.7688 73.5626L27.0428 71.3604L23.3865 88.5377L23.2322 70.92L6.73493 69.1582C-0.0664429 86.8231 -0.840752 106.24 4.53236 124.39C13.7832 153.525 57.5925 195.654 57.5925 195.654L98.0537 163.545C98.0537 163.545 68.6272 147.866 53.5616 123.553Z" fill="white" stroke="#3B65EE" stroke-width="2" stroke-linecap="round" stroke-linejoin="round"/>
<path d="M57.6594 195.654L92.7465 228.335L98.1206 163.546C98.1206 163.546 68.6282 147.866 53.5627 123.554C51.1848 119.715 49.2771 115.604 47.8801 111.31L4.59961 124.391C13.8504 153.526 57.6594 195.654 57.6594 195.654Z" fill="#B0C3EA" stroke="#3B65EE" stroke-width="2" stroke-linecap="round" stroke-linejoin="round"/>
<path d="M101.579 148.747C85.2453 175.561 73.6517 204.987 67.3073 235.735C56.9993 286.386 71.0298 356.856 71.0298 356.856H137.922L144.133 308.011L157.701 356.856H217.985C217.985 356.856 236.134 297.837 236.134 245.138C236.134 192.439 204.219 149.98 204.219 149.98L101.579 148.747Z" fill="#FF9F43" stroke="#3B65EE" stroke-width="2" stroke-linecap="round" stroke-linejoin="round"/>
<path d="M112.392 167.003L103.273 216.069H168.381L168.161 164.272L112.392 167.003Z" fill="#B0C3EA" stroke="#3B65EE" stroke-width="2" stroke-linecap="round" stroke-linejoin="round"/>
<path d="M147.282 200.675C120.697 211.202 97.0412 197.548 97.0412 197.548L91.1825 217.544L107.459 224.151L90.103 221.178L85.4336 237.1C101.629 246.895 120.607 251.068 139.419 248.97C169.726 245.028 213.755 205.476 213.755 205.476L187.721 186.03C187.721 186.03 173.933 190.148 147.282 200.675Z" fill="white" stroke="#3B65EE" stroke-width="2" stroke-linecap="round" stroke-linejoin="round"/>
<path d="M221.728 189.862C222.055 187.303 222.055 184.713 221.728 182.154C221.67 181.64 221.567 181.131 221.42 180.635C216.946 170.454 211.541 160.709 205.275 151.521C202.236 155.089 189.857 169.624 183.646 175.614C175.056 183.982 162.038 194.795 147.171 200.675C142.967 202.35 138.573 203.504 134.088 204.11L139.308 249.014C149.682 247.67 167.942 240.755 182.258 234.831C198.024 228.428 210.796 216.318 218.028 200.917C219.8 197.435 221.047 193.709 221.728 189.862V189.862Z" fill="#B0C3EA" stroke="#3B65EE" stroke-width="2" stroke-linecap="round" stroke-linejoin="round"/>
<path d="M79.2227 151.104C79.2227 151.104 85.8305 167.444 111.799 175.328C119.359 177.585 127.34 178.057 135.113 176.708C142.887 175.359 150.241 172.226 156.599 167.554C156.599 167.554 193.734 170.615 215.782 146.038C237.83 121.462 229.46 77.1974 229.46 77.1974L174.99 73.916L79.2227 151.104Z" fill="white" stroke="#3B65EE" stroke-width="2" stroke-linecap="round" stroke-linejoin="round"/>
<path d="M209.307 116.528C209.307 133.551 195.959 154.23 185.299 164.118C196.938 161.044 207.469 154.737 215.672 145.927C219.821 141.212 223.089 135.789 225.319 129.917C220.562 119.06 209.307 97.3684 209.307 116.528Z" fill="#D1DAED"/>
<path d="M156.488 167.444C156.488 167.444 193.624 170.505 215.671 145.928C237.719 121.352 229.349 77.0869 229.349 77.0869" stroke="#3B65EE" stroke-width="2" stroke-linecap="round" stroke-linejoin="round"/>
<path d="M164.991 159.846C164.991 159.846 156.38 168.853 147.371 172.486Z" fill="#D1DAED"/>
<path d="M164.991 159.846C164.36 161.679 163.397 163.382 162.15 164.867C160.964 166.335 159.595 167.645 158.075 168.765C156.558 169.894 154.899 170.82 153.141 171.517C151.318 172.251 149.356 172.582 147.393 172.486C148.624 171.085 149.949 169.768 151.357 168.545C152.679 167.355 154.044 166.342 155.454 165.241C156.867 164.17 158.337 163.178 159.859 162.268C161.484 161.29 163.203 160.478 164.991 159.846Z" fill="#3B65EE"/>
<path d="M203.094 1.00003C178.866 1.00003 143.955 47.1145 143.955 47.1145L176.994 79.7955C203.997 98.5804 267.585 55.2627 267.585 55.2627C267.585 55.2627 227.388 0.955982 203.094 1.00003Z" fill="#D1DAED" stroke="#3B65EE" stroke-width="2" stroke-linecap="round" stroke-linejoin="round"/>
<path d="M154.11 134.234C151.356 132.001 147.856 130.898 144.319 131.148C140.782 131.397 137.472 132.98 135.058 135.577C133.67 136.987 132.129 138.44 130.455 139.982C124.79 145.045 118.054 148.76 110.749 150.85C103.444 152.94 95.7611 153.351 88.2755 152.05C77.0592 149.95 66.2819 145.959 56.4043 140.246L55.3691 104.9C57.5231 105.953 59.8657 106.564 62.2594 106.697C64.6532 106.83 67.0496 106.484 69.3073 105.677C71.565 104.871 73.6383 103.621 75.4055 102.001C77.1727 100.381 78.5981 98.4243 79.5974 96.2455C89.7954 73.8709 94.3324 39.4942 134.992 28.9015C186.973 15.3578 215.738 54.8217 215.738 54.8217L238.821 85.6528" fill="white"/>
<path d="M154.11 134.234C151.356 132.001 147.856 130.898 144.319 131.148C140.782 131.397 137.472 132.98 135.058 135.577C133.67 136.987 132.129 138.44 130.455 139.982C124.79 145.045 118.054 148.76 110.749 150.85C103.444 152.94 95.7611 153.351 88.2755 152.05C77.0592 149.95 66.2819 145.959 56.4043 140.246L55.3691 104.9C57.5231 105.953 59.8657 106.564 62.2594 106.697C64.6532 106.83 67.0496 106.484 69.3073 105.677C71.565 104.871 73.6383 103.621 75.4055 102.001C77.1727 100.381 78.5981 98.4243 79.5974 96.2455C89.7954 73.8709 94.3324 39.4942 134.992 28.9015C186.973 15.3578 215.738 54.8217 215.738 54.8217L238.821 85.6528" stroke="#3B65EE" stroke-width="2" stroke-linecap="round" stroke-linejoin="round"/>
<path d="M84.0037 130.601C83.7835 140.268 73.2108 145.113 60.3697 141.612C47.5286 138.11 36.8682 127.385 36.5819 117.563C36.2955 107.741 46.8459 102.148 60.2156 105.869C73.5854 109.591 84.224 120.691 84.0037 130.601Z" fill="white" stroke="#3B65EE" stroke-width="2" stroke-linecap="round" stroke-linejoin="round"/>
<path d="M50.8965 116.66L53.5396 127.032" stroke="#3B65EE" stroke-width="2" stroke-linecap="round" stroke-linejoin="round"/>
<path d="M63.7168 121.857L66.3599 132.208" stroke="#3B65EE" stroke-width="2" stroke-linecap="round" stroke-linejoin="round"/>
<path d="M147.502 131.261C149.057 130.757 150.72 130.683 152.314 131.047C153.908 131.412 155.373 132.201 156.554 133.331C157.765 134.409 158.701 135.761 159.285 137.273C159.909 138.788 160.033 140.462 159.638 142.052C158.338 140.973 157.435 140.048 156.378 139.145L153.603 136.612C152.7 135.798 151.797 134.983 150.784 134.168C149.771 133.353 148.581 132.472 147.502 131.261Z" fill="#3B65EE"/>
<path d="M137.592 99.7693C139.392 99.7693 140.852 95.3226 140.852 89.8373C140.852 84.352 139.392 79.9053 137.592 79.9053C135.791 79.9053 134.332 84.352 134.332 89.8373C134.332 95.3226 135.791 99.7693 137.592 99.7693Z" fill="#3B65EE"/>
<path d="M99.0234 83.7373C100.824 83.7373 102.283 79.2905 102.283 73.8052C102.283 68.3198 100.824 63.873 99.0234 63.873C97.2231 63.873 95.7637 68.3198 95.7637 73.8052C95.7637 79.2905 97.2231 83.7373 99.0234 83.7373Z" fill="#3B65EE"/>
<path d="M140.895 58.6982C141.065 63.3958 142.649 67.9325 145.439 71.716C148.229 75.4995 152.095 78.3537 156.533 79.9056" fill="white"/>
<path d="M140.894 58.6982C142.556 62.8373 144.669 66.7811 147.193 70.4582C148.422 72.1961 149.816 73.8111 151.356 75.2809C152.876 76.8665 154.682 78.1879 156.532 79.9056C154.013 79.9387 151.529 79.3083 149.33 78.0777C147.06 76.8652 145.107 75.1381 143.625 73.0347C142.124 70.9765 141.087 68.6173 140.586 66.1197C140.048 63.6606 140.154 61.1043 140.894 58.6982V58.6982Z" fill="#3B65EE"/>
<path d="M198.447 72.176C198.447 72.176 251.661 53.8536 270.317 69.3132C288.973 84.7727 288.752 158.172 288.752 158.172C288.752 158.172 215.077 155.728 205.055 122.012" fill="white"/>
<path d="M198.447 72.176C198.447 72.176 251.661 53.8536 270.317 69.3132C288.973 84.7727 288.752 158.172 288.752 158.172C288.752 158.172 215.077 155.728 205.055 122.012" stroke="#3B65EE" stroke-width="2" stroke-linecap="round" stroke-linejoin="round"/>
<path d="M215.561 90.3883C240.406 87.3933 266.066 70.5684 267.167 126.329Z" fill="#D1DAED"/>
<path d="M215.561 90.3882C222.168 88.6485 228.556 86.4242 235.384 84.9047C238.838 84.0691 242.38 83.6477 245.934 83.6494C249.75 83.6613 253.488 84.7365 256.727 86.7545C259.811 88.975 262.257 91.9673 263.819 95.4313C265.277 98.6949 266.292 102.139 266.837 105.672C267.907 112.508 268.033 119.458 267.211 126.328C266.154 119.546 265.163 112.807 263.489 106.508C261.815 100.21 259.216 93.8237 254.282 90.5424C249.348 87.2611 242.542 87.5914 235.979 88.3402C229.227 89.483 222.405 90.1672 215.561 90.3882Z" fill="#3B65EE"/>
<path d="M111.687 49.5371C111.687 49.5371 111.687 56.1436 95.7402 58.1916Z" fill="white"/>
<path d="M111.688 49.5371C112.029 50.4457 112.029 51.4473 111.688 52.3559C111.368 53.2618 110.89 54.1042 110.278 54.8444C109.068 56.204 107.56 57.2665 105.873 57.9494C104.267 58.5976 102.56 58.9628 100.829 59.0286C99.0794 59.105 97.3323 58.8202 95.6973 58.1918C97.0728 57.1955 98.5492 56.3466 100.102 55.6592C101.534 54.9985 102.9 54.404 104.265 53.8974C105.631 53.3909 106.886 52.8183 108.12 52.2017C109.505 51.6119 110.729 50.6981 111.688 49.5371V49.5371Z" fill="#3B65EE"/>
<path d="M137.326 283.435L144.132 307.967" stroke="#3B65EE" stroke-width="2" stroke-linecap="round" stroke-linejoin="round"/>
</svg>
