<svg width="335" height="242" viewBox="0 0 335 242" fill="none" xmlns="http://www.w3.org/2000/svg">
<path d="M321.07 25.6096C313.2 14.7496 304.33 8.87966 294.68 8.02966C294.58 7.86966 294.44 7.73961 294.24 7.72961L178.78 5.15961V3.63965C178.78 3.60965 178.75 3.59964 178.75 3.56964C178.76 3.49964 178.78 3.43963 178.76 3.36963C178.69 3.12963 178.48 2.9696 178.23 2.9696L155.09 2.59961C155 2.59961 154.9 2.61961 154.82 2.65961C154.66 2.73961 153.61 3.30963 152.01 4.55963L67.6503 2.67963C67.6203 2.67963 67.6003 2.67963 67.5803 2.67963C59.8703 3.53963 52.9703 6.40961 47.1603 9.90961C47.1503 9.91961 47.1303 9.91964 47.1203 9.93964C42.4403 12.7596 38.4603 15.9796 35.3303 18.8896C34.1403 19.9896 33.0503 21.0797 32.0203 22.1497C32.0103 22.1597 32.0003 22.1696 31.9903 22.1796C26.4703 27.9196 23.3503 32.7496 23.3103 32.8096C23.3103 32.8196 23.3103 32.8297 23.3103 32.8297C23.3003 32.8397 23.2903 32.8496 23.2903 32.8596C23.2403 32.9696 23.2303 33.0896 23.2503 33.1996C23.2503 33.2296 23.2703 33.2497 23.2803 33.2797C23.3003 33.3397 23.3103 33.3996 23.3403 33.4496L70.4903 96.0897C70.3103 96.1597 70.1303 96.2296 69.9603 96.3096C68.5003 97.0196 68.2603 97.7496 68.3203 98.2296C68.3203 98.2496 68.3303 98.2597 68.3303 98.2697C68.2003 98.2896 68.0703 98.2996 67.9403 98.3196L65.4903 98.6497C64.6603 98.7397 63.8503 98.9096 63.0503 99.0496C61.4403 99.3196 59.8303 99.7096 58.2203 100.08C57.4203 100.27 56.6103 100.51 55.8103 100.72L54.6003 101.05C54.2003 101.16 53.8203 101.29 53.4203 101.41C51.7803 101.91 50.1603 102.48 48.5503 103.08C48.5003 103.07 48.4603 103.04 48.4103 103.04L14.3803 108.14L2.8103 109.63C2.8003 109.63 2.79032 109.65 2.77032 109.65C2.65032 109.67 2.54033 109.72 2.46033 109.81C2.46033 109.81 2.46032 109.82 2.45032 109.82C2.44032 109.83 2.44031 109.83 2.44031 109.84C2.37031 109.94 2.33032 110.05 2.33032 110.17C2.33032 110.18 2.32031 110.19 2.32031 110.21C2.32031 110.22 2.33032 110.22 2.33032 110.23C2.33032 110.24 2.33032 110.26 2.33032 110.27L20.4403 228.99C20.4803 229.25 20.7003 229.45 20.9703 229.47L220.32 239.55C220.33 239.55 220.34 239.55 220.35 239.55C220.39 239.55 220.44 239.55 220.48 239.53L293.65 222.17C293.89 222.11 294.06 221.91 294.08 221.67L303 106.58C303.06 106.56 303.12 106.56 303.17 106.53C303.41 106.36 327.31 89.2397 331.48 64.1497C333.61 51.0797 330.12 38.1096 321.07 25.6096ZM81.6803 94.7596C81.5203 94.7696 81.3703 94.7996 81.2103 94.8196C81.4003 94.7796 81.5603 94.7496 81.6903 94.7196C81.6903 94.7296 81.6903 94.7496 81.6803 94.7596Z" fill="white"/>
<path d="M121.373 151.348L120.883 149.368L120.433 147.778L115.193 135.438C116.313 134.828 117.203 133.848 117.693 132.678C118.193 131.498 118.273 130.188 117.923 128.958C117.573 127.728 116.823 126.648 115.783 125.898C114.743 125.148 113.483 124.778 112.203 124.838C110.923 124.898 109.703 125.398 108.743 126.238C107.783 127.088 107.143 128.228 106.913 129.488C106.693 130.748 106.903 132.048 107.513 133.168C108.123 134.288 109.093 135.178 110.273 135.678L109.273 150.628L121.373 151.348Z" fill="#D1DAED"/>
<path d="M22.3711 32.2598L133.301 34.3298L131.611 38.6597L132.361 40.7297H157.031C157.031 40.7297 158.471 35.6998 159.591 34.3798L251.101 35.7397L303.551 105.91L279.501 107.74C279.501 107.74 269.651 101.39 256.091 101.95C256.091 101.95 246.671 97.9898 236.311 99.3098C236.311 99.3098 236.481 95.9397 218.051 95.7297C214.851 90.4597 204.491 92.1498 204.491 92.1498C204.491 92.1498 200.351 85.7498 171.531 84.8098C171.531 84.8098 154.201 84.9998 146.861 87.8198C146.861 87.8198 136.121 87.6298 129.531 92.8998C129.531 92.8998 110.701 92.8997 97.7011 97.0397L97.5111 94.3998C97.5111 94.3998 89.0311 89.6898 81.3111 94.3998C81.3111 94.3998 75.6611 95.3397 72.0811 97.7897L22.3711 32.2598Z" fill="#D1DAED"/>
<path opacity="0.2" d="M151.66 116.719L154.86 160.979L157.31 159.099L154.11 116.719H151.66Z" fill="#3B65EE"/>
<path d="M219.281 119.549L303.651 106.549L294.421 222.559L220.781 240.079L219.281 119.549Z" fill="#D1DAED"/>
<path d="M251.109 35.7397C251.109 35.7397 289.299 -20.0103 321.989 25.1097C354.679 70.2197 304.019 105.97 304.019 105.97L251.109 35.7397Z" fill="#D1DAED"/>
<path opacity="0.2" d="M114.82 115.03C116.14 113.9 131.88 104.65 149.96 106.55C149.96 106.55 167.29 95.81 178.21 97.13C178.21 97.13 208.34 97.51 222.28 106.55C222.28 106.55 261.07 103.15 272.17 110.13L219.27 119.55L114.82 115.03Z" fill="#3B65EE"/>
<path opacity="0.2" d="M144.691 96.2892V97.9492C144.691 97.9492 146.311 100.129 152.101 99.8792C157.891 99.6292 158.541 97.9092 158.541 97.9092V96.1992C158.541 96.1992 157.281 98.0692 151.831 97.8592C146.381 97.6492 145.621 96.9792 144.691 96.2892Z" fill="#3B65EE"/>
<path d="M158.53 97.5985C158.53 98.9285 155.32 99.9085 151.58 99.8785C147.84 99.8485 144.68 98.8185 144.68 97.4785" stroke="#3B65EE" stroke-width="2.5" stroke-linecap="round" stroke-linejoin="round"/>
<path d="M159.612 96.0183C159.622 94.6883 156.602 93.5782 152.872 93.5382C149.132 93.4982 146.092 94.5482 146.082 95.8782C146.072 97.2082 149.092 98.3182 152.822 98.3582C156.562 98.3982 159.602 97.3483 159.612 96.0183Z" fill="white" stroke="#3B65EE" stroke-width="2.5" stroke-linecap="round" stroke-linejoin="round"/>
<path d="M19.6411 229.909L1.37109 110.129L219.271 119.549L220.781 240.079L19.6411 229.909Z" stroke="#3B65EE" stroke-width="2.5" stroke-linecap="round" stroke-linejoin="round"/>
<path d="M219.281 119.548L303.651 105.988L294.611 222.568L220.781 240.088L219.281 119.548Z" stroke="#3B65EE" stroke-width="2.5" stroke-linecap="round" stroke-linejoin="round"/>
<path d="M79.0898 113.488L84.8098 157.778L154.87 160.978L151.56 116.618" stroke="#3B65EE" stroke-width="2.5" stroke-linecap="round" stroke-linejoin="round"/>
<path d="M120.591 148.359L117.301 134.329C118.471 133.279 119.221 131.729 119.221 129.999C119.221 126.849 116.771 124.289 113.761 124.289C110.751 124.289 108.301 126.849 108.301 129.999C108.301 132.879 110.361 135.269 113.021 135.649L112.121 147.989L120.591 148.359Z" fill="#3B65EE"/>
<path d="M154.051 116.729L157.321 159.099L154.871 160.979" stroke="#3B65EE" stroke-width="2.5" stroke-linecap="round" stroke-linejoin="round"/>
<path d="M16.0625 110.77L32.5025 230.57" stroke="#3B65EE" stroke-width="2.5" stroke-miterlimit="10"/>
<path d="M155.242 131.029C189.032 132.369 207.032 133.459 207.032 133.459" stroke="#3B65EE" stroke-width="2.5" stroke-linecap="round" stroke-linejoin="round"/>
<path d="M18.0508 125.289C18.1608 125.699 44.3208 126.859 81.0408 128.399" stroke="#3B65EE" stroke-width="2.5" stroke-linecap="round" stroke-linejoin="round"/>
<path d="M219.283 119.549L1.38281 110.129" stroke="#3B65EE" stroke-width="2.5" stroke-linecap="round" stroke-linejoin="round"/>
<path d="M206.691 119.549L210.241 239.519" stroke="#3B65EE" stroke-width="2.5" stroke-linecap="round" stroke-linejoin="round"/>
<path d="M230.133 117.799V237.859" stroke="#3B65EE" stroke-width="2.5" stroke-linecap="round" stroke-linejoin="round"/>
<path d="M230.199 132.539L294.419 120.109" stroke="#3B65EE" stroke-width="2.5" stroke-linecap="round" stroke-linejoin="round"/>
<path d="M295.29 107.33L287.93 224.15" stroke="#3B65EE" stroke-width="2.5" stroke-linecap="round" stroke-linejoin="round"/>
<path opacity="0.2" d="M81.043 95.8794V97.8794C81.043 97.8794 83.013 100.499 90.033 100.129C97.053 99.7594 97.803 97.6994 97.803 97.6994V95.6094C97.803 95.6094 96.293 97.8794 89.693 97.6994C83.093 97.5194 82.173 96.6994 81.043 95.8794Z" fill="#3B65EE"/>
<path d="M97.803 97.3184C97.803 98.9384 93.943 100.158 89.423 100.158C84.903 100.158 81.043 98.9384 81.043 97.3184" stroke="#3B65EE" stroke-width="2.5" stroke-linecap="round" stroke-linejoin="round"/>
<path d="M89.4205 98.0685C93.9405 98.0685 97.6105 96.7586 97.6105 95.1486C97.6105 93.5386 93.9405 92.2285 89.4205 92.2285C84.9005 92.2285 81.2305 93.5386 81.2305 95.1486C81.2305 96.7586 84.9005 98.0685 89.4205 98.0685Z" fill="white" stroke="#3B65EE" stroke-width="2.5" stroke-linecap="round" stroke-linejoin="round"/>
<path d="M81.043 95.0586V97.1286" stroke="#3B65EE" stroke-width="2.5" stroke-linecap="round" stroke-linejoin="round"/>
<path d="M97.8008 95.0586V97.1286" stroke="#3B65EE" stroke-width="2.5" stroke-linecap="round" stroke-linejoin="round"/>
<path opacity="0.2" d="M133.422 102.249L133.682 104.239C133.682 104.239 135.972 106.589 142.892 105.309C149.802 104.029 150.282 101.869 150.282 101.869L150.012 99.8086C150.012 99.8086 148.812 102.239 142.252 102.929C135.692 103.619 134.632 102.909 133.422 102.249Z" fill="#3B65EE"/>
<path d="M150.231 101.5C150.441 103.1 146.771 104.8 142.291 105.39C137.801 105.97 133.831 105.28 133.621 103.68" stroke="#3B65EE" stroke-width="2.5" stroke-linecap="round" stroke-linejoin="round"/>
<path d="M142.021 103.358C146.511 102.768 149.971 100.998 149.761 99.3983C149.551 97.7983 145.741 96.9783 141.261 97.5683C136.771 98.1583 133.311 99.9283 133.521 101.528C133.731 103.118 137.531 103.938 142.021 103.358Z" fill="white" stroke="#3B65EE" stroke-width="2.5" stroke-linecap="round" stroke-linejoin="round"/>
<path d="M133.32 101.43L133.59 103.48" stroke="#3B65EE" stroke-width="2.5" stroke-linecap="round" stroke-linejoin="round"/>
<path d="M149.941 99.2598L150.211 101.31" stroke="#3B65EE" stroke-width="2.5" stroke-linecap="round" stroke-linejoin="round"/>
<path opacity="0.2" d="M157.492 102.829L157.662 104.149C157.662 104.149 159.192 105.709 163.782 104.859C168.372 104.009 168.712 102.589 168.712 102.589L168.532 101.219C168.532 101.219 167.722 102.839 163.372 103.289C159.022 103.739 158.312 103.279 157.492 102.829Z" fill="#3B65EE"/>
<path d="M168.661 102.34C168.801 103.4 166.361 104.53 163.391 104.92C160.421 105.31 157.761 104.84 157.621 103.78" stroke="#3B65EE" stroke-width="2.5" stroke-linecap="round" stroke-linejoin="round"/>
<path d="M163.211 103.579C166.191 103.189 168.501 102.009 168.361 100.949C168.221 99.889 165.691 99.339 162.711 99.729C159.731 100.119 157.421 101.299 157.561 102.359C157.691 103.419 160.221 103.969 163.211 103.579Z" fill="white" stroke="#3B65EE" stroke-width="2.5" stroke-linecap="round" stroke-linejoin="round"/>
<path d="M157.43 102.289L157.61 103.649" stroke="#3B65EE" stroke-width="2.5" stroke-linecap="round" stroke-linejoin="round"/>
<path d="M168.473 100.85L168.653 102.22" stroke="#3B65EE" stroke-width="2.5" stroke-linecap="round" stroke-linejoin="round"/>
<path opacity="0.2" d="M190.992 98.7086L191.032 99.8485C191.032 99.8485 192.212 101.309 196.202 100.959C200.202 100.619 200.592 99.4085 200.592 99.4085L200.552 98.2285C200.552 98.2285 199.742 99.5585 195.972 99.5685C192.202 99.5785 191.652 99.1486 190.992 98.7086Z" fill="#3B65EE"/>
<path d="M200.582 99.209C200.612 100.129 198.432 100.899 195.852 100.979C193.272 101.069 191.042 100.449 191.012 99.529" stroke="#3B65EE" stroke-width="2.5" stroke-linecap="round" stroke-linejoin="round"/>
<path d="M195.82 99.7891C198.4 99.6991 200.47 98.8891 200.44 97.9691C200.41 97.0491 198.29 96.3692 195.71 96.4592C193.13 96.5492 191.06 97.3592 191.09 98.2792C191.12 99.1992 193.23 99.8691 195.82 99.7891Z" fill="white" stroke="#3B65EE" stroke-width="2.5" stroke-linecap="round" stroke-linejoin="round"/>
<path d="M190.98 98.2383L191.021 99.4183" stroke="#3B65EE" stroke-width="2.5" stroke-linecap="round" stroke-linejoin="round"/>
<path d="M200.543 97.9199L200.583 99.0999" stroke="#3B65EE" stroke-width="2.5" stroke-linecap="round" stroke-linejoin="round"/>
<path opacity="0.2" d="M217.621 103.74L217.871 104.86C217.871 104.86 219.291 106.08 223.141 105C226.991 103.92 227.171 102.67 227.171 102.67L226.911 101.51C226.911 101.51 226.351 102.96 222.661 103.68C218.961 104.39 218.361 104.06 217.621 103.74Z" fill="#3B65EE"/>
<path d="M227.141 102.459C227.341 103.359 225.341 104.509 222.821 105.079C220.301 105.639 218.001 105.449 217.801 104.549" stroke="#3B65EE" stroke-width="2.5" stroke-linecap="round" stroke-linejoin="round"/>
<path d="M222.57 103.999C225.09 103.439 226.97 102.249 226.77 101.349C226.57 100.449 224.36 100.179 221.84 100.739C219.32 101.299 217.44 102.489 217.64 103.389C217.84 104.289 220.05 104.569 222.57 103.999Z" fill="white" stroke="#3B65EE" stroke-width="2.5" stroke-linecap="round" stroke-linejoin="round"/>
<path d="M217.52 103.279L217.78 104.439" stroke="#3B65EE" stroke-width="2.5" stroke-linecap="round" stroke-linejoin="round"/>
<path d="M226.859 101.199L227.119 102.349" stroke="#3B65EE" stroke-width="2.5" stroke-linecap="round" stroke-linejoin="round"/>
<path d="M100.062 96.5692C102.412 95.7692 104.802 95.0992 107.232 94.5792C109.662 94.0392 112.102 93.5792 114.562 93.2592C117.022 92.9392 119.502 92.6792 121.992 92.5692C124.482 92.4592 126.973 92.4292 129.463 92.5092L129.162 92.5991C130.462 91.7491 131.822 90.9892 133.222 90.3192C134.622 89.6492 136.072 89.0692 137.552 88.5792C139.032 88.0892 140.553 87.7191 142.093 87.4691C143.653 87.2291 145.232 87.1291 146.812 87.1791L146.622 87.1992C150.642 86.1292 154.732 85.3792 158.872 84.9592C160.932 84.7292 162.993 84.5891 165.062 84.4791L168.162 84.3691H171.263C175.393 84.4191 179.522 84.7291 183.622 85.2991C185.673 85.5391 187.683 85.9592 189.713 86.3292C190.733 86.4992 191.742 86.7591 192.732 86.9991L195.732 87.7291L192.693 87.1691C191.683 86.9791 190.663 86.7592 189.653 86.6292C187.623 86.3392 185.593 86.0091 183.533 85.8591C179.453 85.4291 175.342 85.2392 171.232 85.2692C167.132 85.2892 163.033 85.5392 158.963 86.0292C154.903 86.4692 150.872 87.2292 146.922 88.2792C146.862 88.2992 146.802 88.2991 146.732 88.2991C145.242 88.2491 143.743 88.3492 142.273 88.5792C140.783 88.8092 139.312 89.1592 137.872 89.6292C136.432 90.0892 135.033 90.6291 133.653 91.2491C132.283 91.8791 130.963 92.5992 129.693 93.3992C129.603 93.4492 129.503 93.4791 129.403 93.4791C126.943 93.3891 124.473 93.3092 122.013 93.3992C119.553 93.4892 117.083 93.6392 114.633 93.8892C112.183 94.1392 109.722 94.4891 107.292 94.9191C104.862 95.3491 102.443 95.8892 100.062 96.5692Z" fill="#3B65EE"/>
<path d="M228.32 96.5686C229.04 96.4986 229.77 96.5086 230.49 96.6086C231.22 96.6986 231.93 96.8486 232.63 97.0586C233.32 97.2786 234 97.5385 234.66 97.8485C235.32 98.1685 235.97 98.5286 236.58 98.9286L236.38 98.8686C238.06 98.7786 239.72 98.7886 241.39 98.8386C243.06 98.8886 244.73 99.0086 246.39 99.1886C248.06 99.3686 249.72 99.6386 251.36 99.9986C253.01 100.359 254.63 100.859 256.2 101.509L255.94 101.469C258.01 101.399 260.09 101.519 262.14 101.839C264.18 102.129 266.19 102.549 268.18 103.089C268.67 103.229 269.16 103.379 269.65 103.519L270.39 103.749L271.11 104.009L272.56 104.519L273.98 105.089C274.45 105.279 274.93 105.499 275.39 105.689L276.78 106.329C277.7 106.769 278.59 107.269 279.49 107.739C278.54 107.359 277.61 106.959 276.65 106.599C275.69 106.229 274.76 105.869 273.78 105.569C271.87 104.899 269.91 104.389 267.95 103.899C265.98 103.449 263.99 103.099 261.99 102.849C260.01 102.599 258 102.499 256.01 102.569C255.92 102.569 255.84 102.559 255.75 102.529C254.24 101.929 252.68 101.439 251.1 101.069C249.51 100.699 247.88 100.449 246.26 100.209C244.63 99.9686 242.99 99.8385 241.34 99.7185C239.69 99.5985 238.04 99.5386 236.4 99.5186C236.33 99.5186 236.26 99.4986 236.21 99.4586C235.92 99.2586 235.63 99.0486 235.33 98.8586C235.03 98.6686 234.73 98.4786 234.42 98.3186C233.8 97.9686 233.16 97.6686 232.49 97.4186C231.82 97.1686 231.14 96.9586 230.44 96.8086C229.74 96.6586 229.03 96.5786 228.32 96.5686Z" fill="#3B65EE"/>
<path d="M117.76 104.479C120.57 104.479 122.84 103.509 122.84 102.309C122.84 101.109 120.56 100.139 117.76 100.139C114.96 100.139 112.68 101.109 112.68 102.309C112.68 103.509 114.96 104.479 117.76 104.479Z" stroke="#3B65EE" stroke-width="2.5" stroke-linecap="round" stroke-linejoin="round"/>
<path d="M86.872 105.928C88.822 105.928 90.412 105.258 90.412 104.418C90.412 103.578 88.832 102.908 86.872 102.908C84.912 102.908 83.332 103.578 83.332 104.418C83.332 105.258 84.922 105.928 86.872 105.928Z" fill="white" stroke="#3B65EE" stroke-width="2.5" stroke-linecap="round" stroke-linejoin="round"/>
<path d="M211.321 106.549C213.271 106.549 214.861 105.879 214.861 105.039C214.861 104.199 213.281 103.529 211.321 103.529C209.361 103.529 207.781 104.199 207.781 105.039C207.781 105.879 209.371 106.549 211.321 106.549Z" stroke="#3B65EE" stroke-width="2.5" stroke-linecap="round" stroke-linejoin="round"/>
<path d="M192.061 95.2485C194.091 95.2485 195.731 94.5785 195.731 93.7385C195.731 92.9085 194.091 92.2285 192.061 92.2285C190.031 92.2285 188.391 92.8985 188.391 93.7385C188.391 94.5785 190.031 95.2485 192.061 95.2485Z" stroke="#3B65EE" stroke-width="2.5" stroke-linecap="round" stroke-linejoin="round"/>
<path d="M235.099 106.358C237.809 106.358 239.999 105.478 239.999 104.378C239.999 103.288 237.809 102.398 235.099 102.398C232.399 102.398 230.199 103.278 230.199 104.378C230.199 105.478 232.389 106.358 235.099 106.358Z" stroke="#3B65EE" stroke-width="2.5" stroke-linecap="round" stroke-linejoin="round"/>
<path d="M38.3828 137.718C44.0628 137.678 49.7028 137.858 55.3528 138.098C58.1928 138.228 61.0028 138.378 63.8228 138.558C66.6428 138.738 69.4628 138.968 72.2828 139.228C69.4528 139.248 66.6228 139.219 63.7928 139.139C60.9528 139.079 58.1428 138.968 55.3128 138.848C49.6628 138.588 44.0228 138.268 38.3828 137.718Z" fill="#3B65EE"/>
<path d="M53.8203 162.77L70.2103 163.2L86.6003 163.71L119.37 164.849L152.14 166.159L168.52 166.87L184.9 167.669L168.51 167.24L152.12 166.729L119.34 165.59L86.5703 164.28L70.1903 163.56L53.8203 162.77Z" fill="#3B65EE"/>
<path d="M123.98 185.648C127.34 185.698 130.7 185.808 134.06 185.888L144.141 186.208C150.861 186.428 157.57 186.718 164.29 186.968C171.01 187.218 177.72 187.558 184.44 187.898L194.51 188.428C197.87 188.628 201.221 188.808 204.581 189.038C201.221 188.978 197.86 188.878 194.5 188.798L184.42 188.478C177.7 188.258 170.98 187.968 164.26 187.718C157.54 187.468 150.83 187.128 144.11 186.778L134.04 186.248C130.69 186.058 127.33 185.878 123.98 185.648Z" fill="#3B65EE"/>
<path d="M139.24 224.069C136.44 224.019 133.64 223.919 130.85 223.849L122.46 223.549C116.87 223.349 111.28 223.079 105.69 222.839C100.1 222.599 94.5197 222.279 88.9297 221.949L80.5497 221.469C77.7597 221.269 74.9697 221.099 72.1797 220.889C74.9797 220.929 77.7797 221.029 80.5697 221.109L88.9597 221.409C94.5497 221.619 100.13 221.879 105.73 222.119C111.31 222.419 116.9 222.679 122.49 223.009L130.86 223.509C133.65 223.679 136.44 223.849 139.24 224.069Z" fill="#3B65EE"/>
<path d="M237.449 144.12C239.539 143.71 241.639 143.37 243.739 143L250.029 141.95C254.229 141.25 258.429 140.62 262.639 139.98C266.849 139.34 271.059 138.76 275.269 138.18L281.599 137.34C283.709 137.09 285.819 136.81 287.929 136.58C285.839 136.99 283.739 137.33 281.649 137.7L275.359 138.75C271.159 139.44 266.959 140.08 262.749 140.72C258.539 141.36 254.329 141.94 250.119 142.52L243.789 143.36C241.669 143.62 239.569 143.9 237.449 144.12Z" fill="#3B65EE"/>
<path d="M257.602 165.779C261.812 164.679 266.072 163.789 270.342 162.959C272.472 162.549 274.612 162.149 276.762 161.819C278.912 161.489 281.062 161.149 283.222 160.889C281.112 161.429 278.992 161.939 276.872 162.399C274.752 162.869 272.622 163.289 270.482 163.699C266.212 164.509 261.932 165.259 257.602 165.779Z" fill="#3B65EE"/>
<path d="M235.949 204.579C237.759 204.269 239.579 204.009 241.389 203.719L246.839 202.929C250.489 202.409 254.109 201.939 257.749 201.479C261.389 201.009 265.029 200.589 268.679 200.199L274.149 199.619C275.979 199.449 277.799 199.259 279.639 199.119C277.829 199.429 276.009 199.699 274.199 199.989L268.749 200.789C265.119 201.309 261.479 201.779 257.839 202.239C254.199 202.699 250.539 203.129 246.879 203.519L241.409 204.099C239.599 204.249 237.779 204.439 235.949 204.579Z" fill="#3B65EE"/>
<path d="M157.133 155.709L207.983 157.779" stroke="#3B65EE" stroke-width="2.5" stroke-linecap="round" stroke-linejoin="round"/>
<path d="M21.6797 149.869L84.0497 152.509" stroke="#3B65EE" stroke-width="2.5" stroke-linecap="round" stroke-linejoin="round"/>
<path d="M24.6094 172.939L208.479 180.429" stroke="#3B65EE" stroke-width="2.5" stroke-linecap="round" stroke-linejoin="round"/>
<path d="M27.5703 194.709L209.1 201.399" stroke="#3B65EE" stroke-width="2.5" stroke-linecap="round" stroke-linejoin="round"/>
<path d="M32.4492 212.58L209.099 219.11" stroke="#3B65EE" stroke-width="2.5" stroke-linecap="round" stroke-linejoin="round"/>
<path d="M230.281 155.709L292.971 144.129" stroke="#3B65EE" stroke-width="2.5" stroke-linecap="round" stroke-linejoin="round"/>
<path d="M230.062 179.528L291.452 168.318" stroke="#3B65EE" stroke-width="2.5" stroke-linecap="round" stroke-linejoin="round"/>
<path d="M230.062 201.409L289.812 188.949" stroke="#3B65EE" stroke-width="2.5" stroke-linecap="round" stroke-linejoin="round"/>
<path d="M230.062 219.109L288.922 207.77" stroke="#3B65EE" stroke-width="2.5" stroke-linecap="round" stroke-linejoin="round"/>
<path d="M251.013 35.7396L22.5625 32.3496" stroke="#3B65EE" stroke-width="2.5" stroke-linecap="round" stroke-linejoin="round"/>
<path d="M22.4727 32.3496L71.8027 97.8896" stroke="#3B65EE" stroke-width="2.5" stroke-linecap="round" stroke-linejoin="round"/>
<path d="M1.37109 110.129L50.3311 103.049" stroke="#3B65EE" stroke-width="2.5" stroke-linecap="round" stroke-linejoin="round"/>
<path d="M55.9003 102.459L54.0303 101.279L44.0703 104.459L45.1303 105.589L55.9003 102.459Z" fill="white"/>
<path d="M22.4727 32.3488C22.4727 32.3488 39.8027 5.22875 66.7327 2.21875L293.333 7.48877" stroke="#3B65EE" stroke-width="2.5" stroke-linecap="round" stroke-linejoin="round"/>
<path d="M251.109 35.7397C251.109 35.7397 289.299 -20.0103 321.989 25.1097C354.679 70.2197 304.019 105.97 304.019 105.97L251.109 35.7397Z" stroke="#3B65EE" stroke-width="2.5" stroke-linecap="round" stroke-linejoin="round"/>
<path d="M251.109 35.7397C251.109 35.7397 289.299 -20.0103 321.989 25.1097C354.679 70.2197 304.019 105.97 304.019 105.97L251.109 35.7397Z" stroke="#3B65EE" stroke-width="2.5" stroke-linecap="round" stroke-linejoin="round"/>
<path d="M261.891 48.749L302.771 9.70898" stroke="#3B65EE" stroke-width="2.5" stroke-linecap="round" stroke-linejoin="round"/>
<path d="M274.141 65.0897L318.471 21.1797" stroke="#3B65EE" stroke-width="2.5" stroke-linecap="round" stroke-linejoin="round"/>
<path d="M285.57 80.4485L327.92 36.4785" stroke="#3B65EE" stroke-width="2.5" stroke-linecap="round" stroke-linejoin="round"/>
<path d="M295.211 93.5084L332.471 54.8984" stroke="#3B65EE" stroke-width="2.5" stroke-linecap="round" stroke-linejoin="round"/>
<path d="M131.699 38.3696L132.449 40.4396L156.739 40.8196C156.739 40.8196 162.579 17.3397 178.309 4.70966V2.59961L158.429 3.91962L131.699 38.3696Z" fill="white" stroke="#3B65EE" stroke-width="2.5" stroke-linecap="round" stroke-linejoin="round"/>
<path d="M154.963 2.11914C154.963 2.11914 139.913 10.0292 131.793 38.2792L154.963 38.6591C154.963 38.6591 162.303 13.0491 178.313 2.49915L154.963 2.11914Z" fill="white" stroke="#3B65EE" stroke-width="2.5" stroke-linecap="round" stroke-linejoin="round"/>
<path d="M31.1523 21.709L137.352 23.689" stroke="#3B65EE" stroke-width="2.5" stroke-linecap="round" stroke-linejoin="round"/>
<path d="M162.961 24.7598L258.841 25.9498" stroke="#3B65EE" stroke-width="2.5" stroke-linecap="round" stroke-linejoin="round"/>
<path d="M46.4102 9.35938L144.7 11.0594" stroke="#3B65EE" stroke-width="2.5" stroke-linecap="round" stroke-linejoin="round"/>
<path d="M171.133 11.9199L274.933 13.1199" stroke="#3B65EE" stroke-width="2.5" stroke-linecap="round" stroke-linejoin="round"/>
<path d="M32.5 109.96C35.29 108.16 38.23 106.6 41.27 105.27C44.31 103.92 47.42 102.75 50.6 101.77C51.01 101.65 51.39 101.52 51.79 101.4L53.01 101.07C53.82 100.86 54.63 100.619 55.44 100.419C57.06 100.049 58.69 99.6595 60.31 99.3895C61.12 99.2395 61.93 99.0695 62.77 98.9795L65.25 98.6495C66.06 98.5195 66.9 98.4695 67.73 98.3995L70.21 98.1995L69.98 98.2995C70.65 97.7795 71.37 97.3295 72.12 96.9395C73.6 96.1695 75.18 95.6195 76.82 95.3195C77.63 95.1595 78.45 95.0695 79.28 95.0195C78.47 95.1595 77.67 95.3395 76.88 95.5595C76.1 95.7795 75.33 96.0495 74.58 96.3695C73.84 96.6895 73.12 97.0595 72.43 97.4795C71.74 97.8795 71.1 98.3495 70.49 98.8695C70.43 98.9195 70.36 98.9495 70.28 98.9595C67.01 99.3695 63.74 99.7695 60.54 100.45C57.34 101.13 54.12 101.879 50.96 102.799C47.8 103.719 44.68 104.779 41.61 105.969C38.52 107.159 35.47 108.49 32.5 109.96Z" fill="#3B65EE"/>
<path d="M71.7 99.8584C74.72 99.5184 77.07 98.3784 76.95 97.2984C76.83 96.2184 74.29 95.6184 71.27 95.9584C68.25 96.2984 65.9 97.4384 66.02 98.5184C66.14 99.5984 68.68 100.198 71.7 99.8584Z" fill="white" stroke="#3B65EE" stroke-width="2.5" stroke-linecap="round" stroke-linejoin="round"/>
<path d="M85.7983 56.5283C87.1583 55.0383 88.5383 53.5683 89.8883 52.0683C92.6183 49.0783 95.2883 46.0783 97.8883 42.9883C94.9183 45.7483 92.0783 48.5883 89.2383 51.4483C87.8083 52.8783 86.4183 54.3283 85.0083 55.7783L80.8283 60.1483C78.0683 63.0783 75.3183 66.0283 72.6183 69.0283C71.2583 70.5183 69.9283 72.0383 68.5983 73.5483L66.6283 75.8483C65.9783 76.6183 65.3183 77.3983 64.7383 78.2083C65.0583 77.8483 65.4383 77.4783 65.7883 77.1283L66.8683 76.0683L69.0183 73.9483C70.4383 72.5183 71.8683 71.0883 73.2783 69.6483C76.1083 66.7783 78.8883 63.8583 81.6683 60.9483L85.7983 56.5283Z" fill="#88AAE5"/>
<path d="M111.199 52.1384C110.529 47.7084 109.159 43.4084 107.139 39.3984C108.729 43.5284 109.799 47.8384 110.329 52.2284C110.809 56.5984 110.659 61.0184 109.879 65.3484C109.089 69.6884 107.769 73.9084 105.939 77.9284C104.089 81.9584 101.919 85.8384 99.4492 89.5184C102.299 86.0784 104.749 82.3184 106.729 78.3084C107.729 76.2984 108.589 74.2184 109.309 72.0984C110.029 69.9684 110.589 67.7884 110.989 65.5684C111.379 63.3484 111.599 61.1084 111.639 58.8584C111.679 56.6084 111.529 54.3684 111.199 52.1384Z" fill="#88AAE5"/>
<path d="M107.88 55.418C104.93 58.168 102.07 61.008 99.2305 63.878C97.8105 65.298 96.4105 66.758 95.0005 68.198L90.8205 72.568C88.0605 75.508 85.3105 78.448 82.6105 81.448C81.2605 82.948 79.9205 84.458 78.5905 85.968L76.6205 88.268C75.9705 89.038 75.3105 89.818 74.7305 90.628C75.0505 90.248 75.4305 89.898 75.7805 89.558L76.8605 88.498L79.0105 86.368C80.4305 84.938 81.8605 83.508 83.2705 82.068C86.1005 79.198 88.8805 76.278 91.6605 73.358L95.7905 68.948C97.1505 67.448 98.5305 65.978 99.8805 64.488C102.6 61.508 105.27 58.498 107.88 55.418Z" fill="#88AAE5"/>
<path d="M75.6089 42.3675L79.1289 38.7175L80.8789 36.8675L81.7489 35.9375L82.1789 35.4675L82.3989 35.2175L82.5089 35.0875C82.5789 34.9975 82.6489 34.8975 82.6989 34.7875H82.7089C82.7689 34.6675 82.7789 34.5375 82.7489 34.4175C82.7189 34.2975 82.6389 34.1875 82.5289 34.1075C82.4189 34.0375 82.2889 34.0075 82.1589 34.0175C82.0289 34.0375 81.9089 34.0975 81.8289 34.1875L81.6189 34.4175L78.3989 38.0375L74.9889 41.7975L68.1289 49.2775L54.3789 64.2375L68.5389 49.6675L75.6089 42.3675Z" fill="#88AAE5"/>
<path d="M57.0392 36.5684L57.8892 35.6884L58.2992 35.2383C58.3692 35.1583 58.4392 35.0884 58.5092 34.9984L58.6192 34.8784L58.6392 34.8384L58.6892 34.7584C58.7192 34.7084 58.7492 34.6483 58.7792 34.5983L58.8392 34.5784C58.8592 34.5084 58.8692 34.4283 58.8692 34.3583C58.8592 34.2783 58.8392 34.2084 58.8092 34.1384C58.7792 34.0684 58.7292 34.0084 58.6692 33.9584C58.6092 33.9084 58.5492 33.8683 58.4792 33.8483C58.4092 33.8283 58.3292 33.8184 58.2592 33.8184C58.1892 33.8284 58.1092 33.8484 58.0392 33.8784C57.9692 33.9084 57.9092 33.9584 57.8592 34.0184C57.8092 34.0784 57.7692 34.1384 57.7492 34.2084C57.7492 34.1984 57.7492 34.1883 57.7492 34.1683L57.6692 34.2784L57.4892 34.4984L57.0992 34.9584L56.2892 35.8784L54.6892 37.7084L51.4392 41.3583L44.9492 48.6183L51.8792 41.7383L55.3192 38.2883L57.0392 36.5684Z" fill="#88AAE5"/>
<path d="M127.65 85.0184C126.53 84.9684 125.42 84.9584 124.31 84.9284L120.97 84.8984C118.75 84.9084 116.51 84.9384 114.28 85.0284C112.05 85.1184 109.82 85.2384 107.59 85.4684C109.82 85.7084 112.05 85.8184 114.28 85.9084C116.5 85.9984 118.74 86.0384 120.97 86.0384L124.31 86.0084C125.43 85.9784 126.54 85.9684 127.65 85.9184C129.87 85.8384 132.11 85.7084 134.34 85.4784C132.12 85.2184 129.88 85.0984 127.65 85.0184Z" fill="#88AAE5"/>
<path d="M257.35 75.6886L236.47 75.2586C229.51 75.0986 222.55 75.0285 215.59 74.9085L194.71 74.5886L173.83 74.3685C166.87 74.3085 159.91 74.1985 152.95 74.1785L132.07 74.0686C125.11 74.0686 118.14 74.0286 111.18 74.0686C118.14 74.2886 125.1 74.4385 132.06 74.6085L152.94 75.0385C159.9 75.1985 166.86 75.2786 173.82 75.3886L194.7 75.7086L215.58 75.9285C222.54 75.9885 229.51 76.0985 236.46 76.1185L257.34 76.2285C264.3 76.2285 271.27 76.2685 278.23 76.2285C271.27 76.0085 264.31 75.8686 257.35 75.6886Z" fill="#88AAE5"/>
<path d="M249.689 62.078L230.379 61.608C223.939 61.428 217.499 61.338 211.059 61.198L191.749 60.828L172.429 60.558C165.989 60.478 159.549 60.358 153.109 60.318L133.789 60.1579C127.349 60.1479 120.909 60.098 114.469 60.118C120.909 60.358 127.329 60.508 133.779 60.708L153.089 61.188C159.529 61.368 165.969 61.4579 172.409 61.5979L191.719 61.9679L211.039 62.238C217.479 62.318 223.919 62.4379 230.359 62.4779L249.679 62.638C256.119 62.648 262.559 62.678 268.999 62.678C262.559 62.438 256.119 62.278 249.689 62.078Z" fill="#88AAE5"/>
<path d="M241.379 48.9393L223.459 48.3593C217.479 48.1493 211.509 48.0293 205.529 47.8593L187.599 47.3893L169.669 47.0193C163.689 46.9093 157.719 46.7493 151.739 46.6793L133.809 46.4193C127.829 46.3793 121.849 46.2793 115.879 46.2793C121.849 46.5393 127.829 46.7392 133.819 46.9692L151.719 47.5493C157.699 47.7593 163.669 47.8793 169.649 48.0493L187.579 48.5193L205.509 48.8893C211.489 48.9993 217.459 49.1592 223.439 49.2292L241.369 49.4893C247.349 49.5293 253.319 49.6293 259.299 49.6293C253.329 49.3693 247.349 49.1693 241.379 48.9393Z" fill="#88AAE5"/>
<path d="M265.291 85.9991C262.381 85.8891 259.471 85.829 256.551 85.739L247.821 85.549C242.001 85.449 236.181 85.3591 230.351 85.3391C224.531 85.3091 218.701 85.3391 212.871 85.4491C218.691 85.7791 224.541 86.019 230.341 86.219C236.141 86.419 241.961 86.549 247.791 86.669L256.521 86.799C259.431 86.819 262.351 86.8691 265.261 86.8691C271.091 86.8991 276.911 86.8591 282.741 86.7591C276.921 86.4491 271.111 86.1891 265.291 85.9991Z" fill="#88AAE5"/>
<path d="M294.079 95.6075C293.969 95.4975 293.829 95.4375 293.679 95.4375L256.199 95.9975L293.679 96.5575C293.829 96.5575 293.969 96.4975 294.079 96.3875C294.189 96.2775 294.249 96.1375 294.249 95.9875C294.249 95.8575 294.189 95.7075 294.079 95.6075Z" fill="#88AAE5"/>
</svg>
