<?xml version="1.0" encoding="UTF-8"?><svg id="Layer_1" xmlns="http://www.w3.org/2000/svg" viewBox="0 0 500 500"><defs><style>.cls-1{fill:#fff;}.cls-2{fill:#ecf0fe;}.cls-3{fill:#c8d4fa;}.cls-4{fill:#89a3f5;}.cls-5{fill:#3b66ef;}</style></defs><path class="cls-1" d="m312.64,212.02c.24-3.59,5.59-5.69,5.44-1.06.67-1.66,3.13-6.38,5.58-3.89,1.03,1.05.18,5.25-.1,6.45,2.25-1.49,10.22-5.68,8.44.71-.57,2.03-2.25,3.41-3.3,5.14-.98,1.62-1.86,3.26-2.91,4.82,2.61.88,9.36-1.81,7.65,3.9-1.22,4.06-6.55,6.55-10.3,5.74"/><path class="cls-5" d="m314.14,212.02c.09-.9.81-1.84,1.66-2.14.31-.11.54-.1.59-.04.14.15.19.78.19,1.12,0,1.82,2.34,1.87,2.95.4.28-.67,2.11-4.2,2.92-3.38.41.42.21,1.65.16,2.26-.09.97-.27,1.93-.49,2.88-.27,1.2,1.05,2.45,2.2,1.69,1.04-.68,2.15-1.29,3.29-1.78.67-.28,1.37-.53,2.08-.67.29-.06.43-.09.72-.08.07,0,.4.03.29.02.14,0,.01,0,.01,0,.02.21.05.41.03.67-.12,1.14-.72,2.13-1.4,3.02-.8,1.07-1.63,2.07-2.31,3.22-.84,1.41-1.64,2.84-2.54,4.22-.55.83.01,1.94.9,2.2,1.4.43,2.93.21,4.37.17.61-.02,1.3-.04,1.84.08.46.1.6.12.61.39.18,4.02-5.14,6.79-8.66,6.11-1.89-.36-2.69,2.53-.8,2.89,5.29,1.02,12.39-2.73,12.47-8.68.03-2.3-1.65-3.53-3.78-3.75-1.7-.17-3.75.35-5.25-.1l.9,2.2c1.1-1.68,2-3.48,3.11-5.15.85-1.28,1.97-2.37,2.67-3.74.92-1.81,1.58-4.82-.42-6.19-2.75-1.88-7.31.82-9.65,2.35l2.2,1.69c.61-2.71,1.74-7.32-1.51-8.76-3.4-1.51-5.82,2.86-6.87,5.4l2.95.4c.01-2.48-1.58-4.69-4.29-4.05-2.37.57-3.92,2.77-4.16,5.1-.19,1.92,2.81,1.91,3,0h0Z"/><path class="cls-1" d="m218.03,307.97c-.25-.27-.08-.61-.22-.89-.12-.25-.58-.56-.84-.66-1-.36-2.24-.52-3.29-.83-2.87-.85-5.76-1.69-8.61-2.6s-5.68-1.63-8.37-2.73c-.78-.32-1.56-.65-2.33-1-.17-.08-.52-.32-.73-.29-.32.04-.51.26-.72.5-.82.94-1.36,2.09-2.12,3.08-.54.71-.93,1.52-1.47,2.23-.57.75-1.29,1.36-1.78,2.17-.82,1.37-1.61,2.87-2.07,4.41-.26.85-.48,1.37.39,1.87l.72.29c5.27,2.75,9.36,7.2,16.06,6.86,5.59-.29,15.07-5.44,15.5-11.49"/><path class="cls-5" d="m219.32,307.22c.23.5-.05-.48-.07-.54-.11-.32-.3-.61-.53-.86-.48-.5-1.1-.77-1.75-.98-1.84-.59-3.77-.96-5.62-1.51-3.6-1.06-7.19-2.15-10.77-3.29-1.72-.55-3.43-1.16-5.07-1.91-.59-.27-1.2-.68-1.87-.67-.89.02-1.52.62-2.05,1.26-.95,1.18-1.76,2.53-2.59,3.8-.99,1.54-2.3,2.82-3.19,4.42-1.25,2.22-3.62,6.28-.26,7.75,2.38,1.04,4.49,2.72,6.71,4.07,2.48,1.51,5.13,2.7,8.04,3.03,2.65.3,5.29-.2,7.77-1.15,5.08-1.95,11.03-5.84,11.58-11.76.18-1.92-2.82-1.91-3,0-.37,4.03-4.96,6.87-8.24,8.39-4.09,1.9-8.36,2.16-12.47.12-2.18-1.09-4.17-2.52-6.24-3.81-.9-.56-1.81-1.13-2.78-1.54-.05-.02-.55-.25-.57-.23l.21.26c.17.36.26.35.28-.01.17-.19.21-.68.3-.93.18-.51.4-1,.64-1.48.62-1.26,1.32-2.29,2.23-3.34.97-1.12,1.75-2.44,2.57-3.68.38-.58.71-1.2,1.13-1.75-.11.14.48-.59.49-.58l-.79.14c.19.11.4.2.6.29,1.31.6,2.66,1.15,4.02,1.63,3.37,1.19,6.84,2.16,10.26,3.19,1.66.5,3.32,1.02,5,1.48.82.23,1.67.37,2.5.6.01,0,.57.12.66.2-.07-.27-.07-.18.01.26.09.22.18.44.29.65.82,1.75,3.4.23,2.59-1.51h0Z"/><path class="cls-1" d="m269.4,335.1c-.07-.27-.1-.55-.21-.8-2.04-4.42-3.69-9.17-5.6-13.63-2.12-4.94-4.32-10.84-6.43-15.78l-17,2c-.18.86,5.87,15.3,6.94,17.88,1.94,4.64,3.63,9.41,5.44,14.11"/><path class="cls-5" d="m270.85,334.7c-.28-1.3-.99-2.52-1.5-3.74s-1.05-2.57-1.56-3.86c-1.03-2.61-2.07-5.22-3.17-7.8-2.13-5.03-4.03-10.15-6.17-15.17-.18-.43-.83-.8-1.3-.74-5.67.67-11.33,1.33-17,2-.88.1-1.4.61-1.5,1.5-.06.55.23,1.23.4,1.74.34,1.02.72,2.02,1.11,3.02,1,2.6,2.05,5.18,3.1,7.75,2.7,6.59,5.28,13.21,7.82,19.87.68,1.78,3.58,1.01,2.89-.8-2.51-6.57-5.05-13.11-7.72-19.62-1.06-2.58-2.11-5.17-3.12-7.77-.38-.98-.75-1.96-1.09-2.95-.12-.35-.22-.7-.34-1.05-.14-.43-.04-.37-.06-.2l-1.5,1.5c5.67-.67,11.33-1.33,17-2l-1.3-.74c2.1,4.9,3.95,9.9,6.02,14.82,1.04,2.47,2.03,4.95,3.02,7.44.48,1.22.97,2.44,1.47,3.65.54,1.28,1.29,2.59,1.59,3.95.41,1.89,3.3,1.09,2.89-.8h0Z"/><path class="cls-2" d="m171.87,182.64c2.35,1.08,4.51,2.42,5.73,4.78.62,1.2,1.14,2.47,1.86,3.62s1.64,2.06,2.57,3.01c1.73,1.76,2.35,4.62,4.8,5.57,2.22.86,4.59.05,6.86,0,1.93-.04,1.94-3.01,0-3s-3.71-.06-5.56,0c-.49.02-1.44-.17-1.88,0-.11.04-.26-.22.32.33.77.74.25.38.35.17.03-.05.04-.44.01-.49,0-.12,0-.15.01-.11.1.23-.1.37-.6.41.19.13.99-.21,1.16-.3.39-.19.75-.46,1.08-.75.61-.55,1.05-1.25,1.33-2.01.55-1.47.36-3.09.91-4.56l-2.89-.8c-.53,3-1.7,5.87-1.82,8.94-.07,1.68,2.56,2.05,2.95.4.71-3.04.98-6.35,2.42-9.16s4.71-4.99,4.63-8.42c-.15-6.38-10.6-3.67-14.1-3.19-1.6.22-3.31.21-4.8.88-1.37.61-2.19,1.91-2.4,3.37-.23,1.63.34,3.05,1.19,4.42.92,1.47,1.72,2.97,2.45,4.55,1.36,2.9,2.46,5.91,3.7,8.85.45,1.06,1.24,2.12,2.52,2.09,1.12-.03,1.9-.84,2.14-1.88.49-2.12-.12-4.61-.37-6.73-.46-3.95-1.82-7.66-2.77-11.5-.17-.69-.79-1.03-1.45-1.1-1.07-.12-2.08-.48-3.16-.49-.84-.01-1.46.7-1.5,1.5-.2,3.67,2.67,6.39,4.45,9.28.47.76.74,1.54,1.06,2.37.38.99.94,1.85,1.6,2.68,1.17,1.47,2.69,2.57,4.32,3.48l.36-2.74c-.89.33-1.8.55-2.67.95l2.2.9c-.54-2.94.33-6.01.53-8.95.11-1.54.21-3.07.29-4.61s-.11-3.14.11-4.64c.28-1.88-2.24-2.65-2.89-.8-1.65,4.65-1.86,9.6-2.74,14.42l2.95.4c.02-2.51-.08-5.02-.2-7.53-.06-1.22-.12-2.44-.17-3.66-.05-1.08-.21-2.25.01-3.32l-1.85,1.05c2.1.51,3.55,2.46,5.85,2.44l-1.3-2.26c-1.33,2.46-1.96,5.19-2.95,7.78-.29.76.32,1.64,1.05,1.85.86.25,1.54-.3,1.85-1.05-.24.59.17-.23.28-.41.23-.39.47-.77.7-1.16.62-1.03,1.22-2.07,1.72-3.17.76-1.66,1.9-4.93-.83-5.51l-.8,2.89c1.02.17,1.91.08,2.87-.3,1.25-.5,1.59-2.54,0-2.89-1.38-.3-2.71-.49-4.12-.26-.48.08-.95.59-1.05,1.05-.35,1.64-.28,3.26-.21,4.93s-.03,3.28-.32,4.92-.71,3.35-1.05,5.03-.78,3.41-.57,5.09l2.95-.4-.12-.33c-.63-1.81-3.53-1.03-2.89.8l.12.33c.52,1.48,3.17,1.38,2.95-.4-.19-1.56.23-3.17.55-4.7.35-1.68.75-3.34,1.03-5.04.26-1.57.43-3.15.38-4.74s-.25-3.16.07-4.7l-1.05,1.05c.83-.13,1.72.09,2.52.26v-2.89c-.39.16-.84.38-1.27.3-1.87-.31-2.71,2.49-.8,2.89.17.04.15.03-.05-.05-.2-.11-.33-.29-.39-.52.06.07.08-.06,0,.05-.09.15.04-.07-.04.24-.05.19-.1.38-.16.57-.28.82-.7,1.6-1.11,2.35-.71,1.3-1.66,2.54-2.22,3.91l2.89.8c.9-2.35,1.44-4.84,2.64-7.07.53-.98-.13-2.27-1.3-2.26-.85,0-1.64-.64-2.34-1.06-.85-.53-1.73-1.03-2.72-1.27-.75-.18-1.68.23-1.85,1.05-.49,2.36-.09,4.95.03,7.34.13,2.65.24,5.31.22,7.96-.01,1.64,2.63,2.1,2.95.4.88-4.82,1.09-9.76,2.74-14.42l-2.89-.8c-.24,1.59-.11,3.2-.19,4.81-.09,1.75-.2,3.49-.32,5.24-.22,3.27-1.02,6.48-.42,9.75.19,1.04,1.4,1.26,2.2.9.62-.28,1.31-.4,1.95-.64,1.15-.43,1.56-2.07.36-2.74-1.4-.79-2.69-1.69-3.68-2.98s-1.33-3.03-2.22-4.47c-1.44-2.34-4.21-4.81-4.04-7.77l-1.5,1.5c1.06.01,2.1.37,3.16.49l-1.45-1.1c.68,2.75,1.61,5.44,2.22,8.2.42,1.89.61,3.83.81,5.75.08.78.14,1.56.13,2.34,0-.06,0,.58-.02.35.03.49-.36.11.15-.08.05-.02,1.04-.06,1.05-.09.01-.03-.26-.52-.29-.61-.94-2.4-1.91-4.79-2.94-7.15-.57-1.3-1.17-2.6-1.82-3.86-.61-1.18-1.44-2.26-2-3.46-.38-.81-.58-2.13.37-2.64,1.06-.57,2.6-.47,3.78-.62,1.4-.18,2.76-.56,4.16-.74,1.21-.16,2.42-.14,3.64-.12,1.43.03,3.64-.06,2.93,1.99-.47,1.35-1.55,2.45-2.41,3.55-.91,1.17-1.67,2.37-2.23,3.74-1.12,2.74-1.47,5.7-2.13,8.57l2.95.4c.11-2.78,1.23-5.42,1.71-8.14.34-1.9-2.22-2.62-2.89-.8-.34.93-.43,1.89-.55,2.87-.09.76-.16,1.59-.7,2.17s-1.32.4-1.95,1.04-.83,1.6-.81,2.51c.02.84.23,1.74,1.02,2.19.69.39,1.61.35,2.37.33,2.13-.03,4.25-.02,6.38-.03v-3c-1.1.02-2.18.22-3.27.33-.86.08-2.02.25-2.8-.26-.93-.6-1.28-1.97-1.87-2.85-.74-1.1-1.71-1.98-2.61-2.93-1.74-1.83-2.29-4.34-3.76-6.35s-3.71-3.47-6.01-4.52c-1.74-.8-3.27,1.79-1.51,2.59h0Z"/><path class="cls-4" d="m193.93,297.6l-30.4-19.03c-.46-.29-1.06-.21-1.42.19-4,4.35-26.8,29.23-21.36,37.21,5.99,8.79,22.97-7.08,22.97-7.08l18.16,11.95,12.06-23.25Z"/><path class="cls-5" d="m194.69,296.31c-5.45-3.41-10.91-6.83-16.36-10.24-3.5-2.19-6.99-4.38-10.49-6.57-1.91-1.19-4.71-3.8-6.85-1.73-2.45,2.36-4.62,5.12-6.8,7.72-3.33,3.98-6.55,8.08-9.42,12.41-2.5,3.76-5.09,7.94-6.05,12.42-.8,3.75.23,7.62,4.07,9.21,4.11,1.71,8.88-.45,12.45-2.5,3.24-1.86,6.27-4.15,9.06-6.63.16-.14.32-.29.48-.44l-1.82.23c5.29,3.48,10.59,6.97,15.88,10.45.76.5,1.52,1,2.28,1.5.65.43,1.69.15,2.05-.54,3.52-6.78,7.03-13.55,10.55-20.33.5-.97,1.01-1.94,1.51-2.92.89-1.71-1.7-3.23-2.59-1.51-3.52,6.78-7.03,13.55-10.55,20.33-.5.97-1.01,1.94-1.51,2.92l2.05-.54c-5.29-3.48-10.59-6.97-15.88-10.45-.76-.5-1.52-1-2.28-1.5-.57-.37-1.35-.2-1.82.23-1.79,1.67-3.75,3.19-5.77,4.59-3.14,2.17-7.08,4.74-11.06,4.7-1.53-.01-2.95-.64-3.84-1.97-.62-.94-.7-2.17-.51-3.4.61-4.03,2.96-7.82,5.11-11.19,4.58-7.15,10.12-13.69,15.84-19.95.15-.16.34-.32.46-.51.03-.05.22-.19.23-.25.01-.15-.3.1-.36.02.08.11.32.2.44.28l2.62,1.64c3.2,2,6.41,4.01,9.61,6.01,5.79,3.62,11.51,7.39,17.38,10.88.12.07.23.14.34.21,1.64,1.03,3.15-1.57,1.51-2.59Z"/><path class="cls-2" d="m144.82,221.04c3.12-3,6.08-3.1,9.89-4.08s7.51-3.04,11.24-4.34c8.86-3.07,17.28-7.34,26.27-10.34,3.16-1.06,6.71-2.86,9.74-2.52s6.25,1.93,9.29,2.75,13.73,4.38,15.12.98c.88-2.15-.78-7.18-.89-9.61-.15-3.33-.26-6.61-.31-9.94,2.95,5.13,11.3,8.26,16.76,9.95,3.24,1,17.47,2.94,19.78-.22-1.29,1.46-6.28,4.89-5.9,7.15.3,1.82,3.3,2.13,4.85,2.37,5.41.83,9.94,1.77,15.12,3.51,5.77,1.94,11.38,4.05,17.41,5.13,4.21.75,8.45,1.34,12.5,2.38,3.09.8,7.28,1.5,9.82,3.56,3.14,2.54,3.73,7.31,3.72,11.21s-1.06,9.46-5.06,10.9c-4.88,1.76-11.72-1.75-16.59-2.98-6.32-1.59-12.64-3.1-19.12-3.62-6.13-.49-13.22-1.92-19.31-1.47.12,6.43,2.95,13.04,4.13,19.29s2.33,12.12,3.8,18.09c1.65,6.7,1.08,13.57,2.74,20.26.45,1.82,2.29,5.75.91,7.5-.73.93-3.07,1.02-4.24,1.2-2.97.44-4.99,1.38-7.84,2.5-7.09,2.79-14.09,1.19-20.99,3.15-3.12.89-3.84,2.71-7,2.39s-6.1-1.91-9.41-2.11c-8.1-.49-16.16-1.39-24.03-3.27-3.97-.95-15.99-4.84-16.92-9.75-.46-2.4,1.44-5.63,2.04-7.88.9-3.4,1.46-6.9,2.08-10.35,1.22-6.86,5.23-12.63,7.73-19.06,2.27-5.83,4.85-11.55,6.55-17.57.87-3.08,2.68-9.5,1.49-12.4-7.06,2.54-13.51,6.41-20.69,8.71-5.04,1.62-9.79,3.64-14.73,5.43-3.79,1.38-7.86,2.22-11.53,3.93-2.6,1.21-4.7,3.06-7.51,3.77-4.15-4.81,10.8-15.99,12.64-19.84,3.99-8.38-8.22-7.25-12.34-5.65"/><path class="cls-2" d="m146.95,223.16c2.44-2.28,5.34-2.46,8.56-3.31,4.12-1.08,7.9-3.15,11.91-4.57,8.21-2.91,16.04-6.78,24.26-9.65,1.96-.68,3.89-1.44,5.85-2.1,1.62-.55,3.21-1.01,4.92-.67,3.28.65,6.42,2.08,9.63,3.01,2.45.71,4.92,1.39,7.44,1.76,2.66.39,5.8.73,8.08-1.02,3.07-2.37,1.92-6.91,1.3-10.15-.15-.78-.32-1.56-.42-2.35.08.63-.01-.54-.02-.7-.03-.63-.06-1.26-.08-1.9-.1-2.52-.17-5.05-.21-7.57l-5.59,1.51c3.69,6.18,11.46,9.08,17.98,11.15,2.2.7,4.5,1,6.79,1.3,2.8.36,5.65.59,8.48.47,2.57-.1,6.25-.37,8-2.58,1-1.27,1.24-3,0-4.24-1.11-1.11-3.14-1.2-4.24,0-2.42,2.64-6.87,4.98-6.8,9.09.09,5.53,7.69,5.48,11.53,6.2,5.71,1.08,11.12,2.94,16.63,4.78,2.86.96,5.75,1.86,8.7,2.54s5.89,1.09,8.83,1.61c2.73.48,5.41,1.11,8.1,1.75,2.17.52,4.42.98,6.29,2.07,1.62.95,2.4,2.44,2.89,4.43s.57,3.99.45,6.16c-.02.42-.06.84-.1,1.25.05-.46-.03.22-.05.32-.05.27-.1.53-.15.8-.1.48-.23.95-.38,1.41-.08.25-.16.51-.27.76.17-.42-.21.42-.22.43-.81,1.52-1.62,2.08-3.15,2.19-4.44.3-8.95-2.13-13.34-3.29-6.66-1.75-13.42-3.2-20.28-3.79-6.35-.54-12.7-1.88-19.1-1.45-1.58.11-3.05,1.29-3,3,.12,4.34,1.22,8.55,2.38,12.71s1.99,8.2,2.81,12.37c.88,4.47,1.86,8.9,2.9,13.33.98,4.15,1.08,8.42,1.51,12.65.23,2.32.53,4.64,1.06,6.91.32,1.39.87,2.7,1.21,4.08.05.21.09.42.14.63,0,0,.08.52.05.22-.01-.13.02.62,0,.78.02-.17.14-.32,0-.14-.21.27.05-.12.06-.14.1-.11.31-.33.37-.43.11-.18.3-.07-.08,0s-.71.16-1.07.22-.04,0,.03,0c-.14.02-.29.03-.43.05-1.04.13-2.08.27-3.11.51-3.93.93-7.43,2.97-11.46,3.57-4.23.63-8.53.44-12.75,1.12-2.07.33-4.06.88-5.91,1.89-.58.32-1.14.71-1.75.97.51-.21-.55.12-.37.09-.07.01-.85,0-1.12-.03-1.79-.21-3.53-.93-5.27-1.4-2.15-.58-4.33-.71-6.55-.86-7.7-.55-15.6-1.38-23.03-3.61-1.21-.36-2.4-.76-3.59-1.2-1.48-.55-2.04-.77-3.49-1.48-1.24-.6-2.43-1.28-3.57-2.05-.11-.08-.22-.16-.33-.24.1.07.41.34-.02-.02-.19-.16-.39-.33-.57-.5-.2-.19-.39-.4-.58-.6-.46-.49.09.29-.19-.28-.05-.1-.35-.7-.18-.28s-.06-.26-.08-.39c.07.48.09-.66.06-.47.02-.14.18-.73.27-1.03.48-1.63,1.25-3.16,1.71-4.79,1.19-4.23,1.48-8.66,2.66-12.87,1.05-3.76,2.88-7.21,4.57-10.7,1.85-3.82,3.35-7.78,4.94-11.71,2.72-6.74,5.62-13.95,6.14-21.29.1-1.45.05-3.03-.46-4.4s-2.06-2.69-3.69-2.1c-7.27,2.65-14.02,6.51-21.38,8.94-3.84,1.27-7.59,2.78-11.36,4.21-3.58,1.36-7.25,2.36-10.86,3.6-2.09.72-4.13,1.57-6.03,2.68-1.57.92-3.07,1.93-4.83,2.42l2.92.77c.81.99-.38-.86.21.36-.05-.11-.08-.25-.1-.38-.08-.4.17.82.04.25-.02-.08,0-.24,0-.33.08-.61-.23.71-.02.12.1-.28.18-.6.26-.89.16-.64-.33.57,0-.03.07-.12.12-.26.19-.38.17-.33.36-.66.55-.97.21-.34.43-.67.66-1,.12-.18.81-1.09.44-.61,2.24-2.85,4.85-5.36,7.34-7.98,2.3-2.42,4.49-4.94,4.69-8.45.23-3.86-2.9-6.35-6.42-6.93s-7.25-.26-10.49.97c-1.51.57-2.55,2.02-2.1,3.69.4,1.45,2.17,2.67,3.69,2.1,1.17-.44,2.39-.69,3.62-.89.46-.07-.76.06-.02,0,.15-.01.3-.03.45-.05.38-.03.76-.06,1.14-.07.76-.03,1.5.02,2.26.06.18,0,.56.11-.15-.03.17.03.35.06.52.09.3.06.59.15.88.23.78.21-.33-.29.32.14.09.06.21.14.3.18.54.24-.51-.41-.07-.04.6.49-.27-.47.13.18-.3-.49-.17-.32-.02.1-.24-.65-.01-.46-.04-.14-.01.17-.01.35-.02.52.05-.8-.13.33-.22.61-.25.79.3-.44-.14.36-.04.07-.07.14-.11.21-.1.18-.22.35-.33.52-.43.7.22-.22-.08.12-.23.26-.45.54-.69.81-1.03,1.17-2.13,2.28-3.21,3.39-2.48,2.56-4.99,5.14-7.01,8.1-2.17,3.17-3.41,7.07-.73,10.33.66.81,1.97,1.03,2.92.77,3.42-.94,6.11-3.3,9.38-4.56,3.53-1.36,7.23-2.23,10.79-3.55,3.78-1.41,7.52-2.94,11.33-4.26s7.46-2.64,11.09-4.28c3.94-1.78,7.81-3.71,11.87-5.19l-3.69-2.1c.1.27.17.54.24.82.08.33,0-.09,0-.14.02.19.03.38.04.57.03.79-.02,1.59-.11,2.38-.03.29-.21,1.3-.34,1.94-.17.83-.36,1.66-.57,2.49-.97,3.8-2.22,7.51-3.64,11.17-1.56,4.01-3.07,8.09-4.89,11.99s-3.78,7.49-5.2,11.45c-1.51,4.2-1.88,8.69-2.86,13.02-.43,1.89-1.05,3.63-1.72,5.44-.71,1.91-1.23,3.94-.85,5.98.53,2.78,2.85,4.8,5.08,6.29,2.54,1.7,5.43,2.9,8.29,3.95,6.96,2.56,14.44,3.63,21.78,4.42,2.34.25,4.68.45,7.02.6,2.05.14,3.86.48,5.83,1.07s4.03,1.23,6.09,1.19c1.93-.04,3.52-.8,5.16-1.73,3.39-1.91,7.84-1.76,11.68-1.98,2.34-.13,4.68-.34,6.98-.79s4.26-1.25,6.36-2.07c1.83-.72,3.69-1.32,5.64-1.62-.59.09.01,0,.26-.02.57-.07,1.15-.14,1.72-.24.83-.14,1.68-.39,2.42-.8,3.64-2.05,2.54-6.63,1.49-9.85-1.27-3.88-1.49-7.95-1.82-11.99-.2-2.4-.44-4.8-.85-7.17s-1.02-4.56-1.53-6.84c-1.03-4.59-1.91-9.21-2.8-13.83-.82-4.21-2.23-8.27-3.18-12.45-.46-2-.78-3.99-.84-6.04l-3,3c5.76-.39,11.48.67,17.18,1.27,2.97.31,5.91.57,8.85,1.1s5.9,1.21,8.82,1.92c2.56.63,5.05,1.36,7.55,2.2,2.31.77,4.62,1.5,7.04,1.84,2.68.38,5.5.3,7.92-1.05,2.14-1.2,3.5-3.26,4.4-5.48,1.69-4.19,1.67-9.31.74-13.68-.53-2.5-1.65-5.02-3.51-6.83s-4.29-2.81-6.72-3.54c-5.39-1.61-10.96-2.5-16.5-3.47-6-1.04-11.71-3.05-17.46-4.99-3.09-1.05-6.22-1.94-9.42-2.62-2.78-.59-5.61-.89-8.38-1.48-.47-.1-.91-.26-1.37-.39l.22.08c-.3-.19-.3-.17-.02.04.13.34.25.52.28.91-.02-.21.11-.47-.03.21.11-.54-.28.34.06-.11-.01.02.44-.67.2-.34-.15.22.41-.48.49-.57,1.34-1.45,2.99-2.58,4.32-4.03l-4.24-4.24c-.08.1-.42.59-.09.16.44-.55-.08.2-.14.07,0,0-.21.1-.22.12.34-.33.53-.17.22-.09-.22.06-.43.14-.65.2-.46.13-.93.21-1.4.28.75-.11-.12,0-.3.02-.35.03-.69.05-1.04.07-2.55.12-5.12-.06-7.66-.35-.32-.04-.63-.08-.95-.12.53.07-.03,0-.24-.04-.56-.08-1.11-.17-1.66-.27-.83-.15-1.67-.31-2.48-.53-2.69-.75-5.34-1.75-7.71-2.89-1.6-.77-3.16-1.63-4.59-2.67-1.06-.77-2.24-1.97-2.89-3.08-1.5-2.52-5.64-1.5-5.59,1.51.06,3.98-.05,8.11.57,12.05.24,1.55.64,3.07.83,4.62-.04-.34.03.4.03.51.02.35,0,.69.02,1.04.01.37.04-.09.04-.14,0,.03-.05.34-.08.35l-.03.11.16-.36c-.32.48.38-.4.14-.16-.1.1.57-.35.07-.08-.29.16.54-.04.21-.09-.07-.01-.21.07-.28.08-.35.06-.52.06-.04.03-.32.02-.63.04-.94.04-.57,0-1.14-.05-1.7-.1-.14-.01-.28-.03-.42-.05.54.07.05,0-.05-.02-.34-.06-.67-.11-1.01-.18-2.37-.45-4.68-1.14-7-1.8-3.57-1.02-6.99-2.69-10.72-3.04-3.93-.37-7.81,1.69-11.43,2.93-8.09,2.78-15.79,6.57-23.83,9.49-4.39,1.59-8.63,3.86-13.17,4.98-1.77.44-3.59.73-5.3,1.35-2.1.76-3.89,1.88-5.53,3.4-2.83,2.64,1.42,6.87,4.24,4.24h0Z"/><path class="cls-4" d="m221.15,160.88c-7,3-8.05-3.99-6.96-6.48.55-1.26,1.94-3.88,4.71-2.81,1.51.59,1.73,1.53,2.24,2.29l.36-.15c.49-2.74,1.8-6.81,2.64-8.85.39.12,2.78-.03,3.19-.04,8.21-.32,18.56-5.7,18.81-14.96l.29-.22c.1,1.97,3.8,5.85,5.55,7.49,2.1,1.97,4.58,3.48,7.33,4.33,3.29,1.02,10.95,2.86,13.46-.53l.37.93s2.17,23.14-3.83,34.14c-2.97,5.44-5.5,10.17-11.18,12.76-9.7,4.42-23.09,1.73-30.74-5.59-3.93-3.76-5.56-9.13-6.06-14.41-.29-3.12-.45-4.76-.19-7.9.24,5.55.43,25.75.67,31.3.13,3.03.33,6.7.09,9.88-4.71-1.3-9.29.47-13.76-2.18l-.04-.07c-3.14-1.69-6.3-3.41-9.89-3.95-2.72-.41-5.64.26-8.21-.92,1.19-4.24,4.28-8.29,5.64-12.64,2.09-6.68,2.64-13.19,2.55-20.12-.24-18.44,9.34-38.42,26.58-46.35,5.15-2.37,12.13-4.41,17.79-2.47,2.94,1.01,3.87,3.65,5.05,4.95l.53.57c1-8,13.67-6.74,17-6,6.31,1.4,11.59,5.03,15.27,10.25,4.77,6.77,3.85,16.74,3.19,24.52-.82,9.64-3.02,19.07-3.3,28.76-.17,6.02.96,10.92,3.7,15.99-1.85,5.48-18.93,3.68-21.85,3.48l-2.61,4.27c1.55-3.02,3.89-6.14,4.97-9.38-2.08.29-4.19.78-6.34.98-2.31.22-4.57.44-6.89.26-1.18-.09-2.55-.52-3.7-.11"/><path class="cls-5" d="m220.75,159.43c-1.23.51-2.97,1.15-4.18.25-.87-.65-1.19-1.89-1.24-2.89-.06-1.16.16-1.93.84-2.91.41-.6.94-1.11,1.72-1.03,1.09.12,1.46.99,1.96,1.79.47.75,1.28.86,2.05.54,1.49-.63,1.51-3.2,1.91-4.61.51-1.79,1.08-3.56,1.78-5.28l-1.85,1.05c2.16.42,4.85,0,6.99-.37,2.73-.48,5.42-1.43,7.85-2.77,5.01-2.76,8.83-7.43,9.06-13.3l-.74,1.3.29-.22-2.26-1.3c.29,2.83,2.78,5.3,4.66,7.24,2.44,2.52,5.22,4.57,8.54,5.77,2.56.92,5.33,1.5,8.04,1.69s5.88-.11,7.66-2.35l-2.51-.66c.09.22.47,1.33.31.55.02.11.02.23.03.34.05.62.09,1.23.13,1.85.15,2.43.22,4.86.22,7.29,0,6.6-.35,13.42-2.31,19.76-1.04,3.36-2.84,6.49-4.74,9.43-2.11,3.26-4.85,5.91-8.52,7.31-7.37,2.81-16.07,1.71-22.91-2.05-4.14-2.28-7.5-5.54-9.16-10.03s-2.13-9.99-1.74-14.9h-3c.42,9.94.31,19.9.61,29.84.12,3.78.41,7.56.15,11.34l1.9-1.45c-2.77-.71-5.58-.52-8.41-.68-1.35-.08-2.7-.29-3.95-.82-.2-.08-1.02-.36-.52-.03-.13-.09-.26-.34-.41-.46-.54-.45-1.3-.74-1.92-1.06-2.54-1.33-5.19-2.57-8.03-3.08s-5.92.15-8.66-.99l1.05,1.85c1.17-3.98,3.64-7.42,5.15-11.27,1.62-4.13,2.36-8.7,2.78-13.1.39-4.15.16-8.31.39-12.46.2-3.47.74-6.91,1.6-10.27,3.43-13.43,12.04-25.9,25.03-31.5,4.08-1.76,8.76-3.12,13.23-2.53,1.99.26,3.73.9,4.99,2.51.84,1.07,1.52,2.22,2.45,3.22.7.76,2.35.47,2.51-.66.71-4.95,6.54-5.54,10.6-5.44,5.49.13,10.92,2.08,15.16,5.85,2.75,2.45,4.99,5.43,6.09,8.98s1.28,7.29,1.18,10.99c-.21,8.56-1.68,16.99-2.81,25.46-.67,5-1.32,10.15-.93,15.2.35,4.54,1.68,8.83,3.82,12.84l-.15-1.16c-.13.35-.55.78-1.04,1.09-.72.45-1.53.72-2.35.94-2.07.55-4.23.7-6.36.77-3.56.11-7.1-.17-10.65-.41-.52-.04-1.03.31-1.3.74-.87,1.42-1.74,2.85-2.61,4.27l2.59,1.51c1.7-3.26,3.9-6.24,5.12-9.74.42-1.2-.82-1.99-1.85-1.85-2.89.42-5.73.96-8.65,1.16-1.46.1-2.94.16-4.39,0-1.34-.15-2.56-.4-3.89-.03-1.86.51-1.07,3.4.8,2.89,1.21-.33,2.56.13,3.8.2,1.56.09,3.12,0,4.67-.13,2.85-.24,5.64-.78,8.47-1.19l-1.85-1.85c-1.13,3.23-3.24,6.01-4.82,9.03-.89,1.71,1.58,3.17,2.59,1.51.87-1.42,1.74-2.85,2.61-4.27l-1.3.74c2.75.19,5.48.41,8.24.44,3.54.03,7.39-.04,10.75-1.26,1.43-.52,2.84-1.27,3.72-2.55.51-.74.79-1.48.44-2.36-.55-1.43-1.37-2.74-1.89-4.2-2.09-5.91-1.75-12.13-1.09-18.27.72-6.72,1.99-13.37,2.65-20.09.53-5.35,1.03-10.83.38-16.19-.66-5.41-2.71-10.1-6.52-14.04-3.6-3.71-8.33-6.39-13.39-7.45-6.26-1.32-17.55-1.19-18.73,7.07l2.51-.66c-.79-.85-1.37-1.81-2.07-2.73-1.1-1.46-2.43-2.56-4.17-3.17-4-1.41-8.54-.88-12.54.23-7.33,2.03-14,6.17-19.22,11.68s-8.83,11.87-11.27,18.82c-1.22,3.48-2.11,7.07-2.63,10.72-.56,3.88-.55,7.71-.61,11.62-.08,5.41-.69,10.79-2.22,16-1.4,4.77-4.51,8.79-5.92,13.55-.25.85.31,1.54,1.05,1.85,2.79,1.17,5.76.5,8.66.99s5.54,1.83,8.11,3.2c.13.07.26.14.39.21.25.19.28.13.07-.18.08.03.18.29.25.34.59.42,1.21.73,1.88,1,1.31.54,2.69.8,4.1.93,2.82.27,5.66-.08,8.44.63.99.26,1.83-.47,1.9-1.45.39-5.68-.17-11.47-.28-17.16s-.19-11.44-.3-17.16c-.04-2.29-.08-4.58-.18-6.86-.08-1.95-2.85-1.91-3,0-.38,4.73.01,9.83,1.4,14.38s3.96,8.2,7.71,11.03c6.8,5.14,16.07,7.2,24.43,5.61,4.11-.78,8.05-2.56,11.02-5.56s5.05-6.73,6.83-10.39c3.13-6.45,3.74-14.07,3.95-21.13.1-3.3.05-6.61-.13-9.9-.08-1.51-.07-2.96-.63-4.37-.36-.92-1.73-1.64-2.51-.66-1.36,1.71-3.88,1.61-5.85,1.45-2.21-.19-4.44-.72-6.55-1.42-2.88-.97-5.29-2.76-7.39-4.91-.86-.88-1.71-1.79-2.47-2.77-.52-.67-1.44-1.75-1.53-2.57-.1-.98-1.26-2.07-2.26-1.3-.48.37-.89.68-1.01,1.32s-.09,1.26-.21,1.88c-.25,1.24-.7,2.41-1.35,3.5-1.28,2.16-3.22,3.85-5.36,5.13s-4.67,2.24-7.21,2.75c-1.1.22-2.2.34-3.32.39-.45.02-.9.05-1.35.06-.31.01-.63.02-.94.02-.1,0-.76-.06-.39,0-.87-.17-1.52.25-1.85,1.05-1.15,2.84-2.07,5.83-2.64,8.85l.69-.9-.36.15,2.05.54c-.83-1.33-1.58-2.43-3.14-2.98-1.46-.52-3-.34-4.24.59-1.68,1.27-2.66,3.41-2.74,5.49-.07,1.94.54,4.09,1.97,5.45,2.01,1.9,4.87,1.63,7.25.65,1.76-.72.99-3.63-.8-2.89h0Z"/><path class="cls-5" d="m139.65,242.88c.15,3.23,3.17,5.74,5.74,7.3l.76-2.8s0,0,0,0c0,0,.39.05.39.05,0,0,.66,2.48.66,2.48.02-.23-.42.4-.14.14.23-.22-.28.1.03-.01.24-.09.48-.18.72-.27,2.32-.82,4.69-1.52,7.05-2.23,3.71-1.12,7.33-2.49,10.94-3.89,8.74-3.39,17.39-7,26.02-10.66,2.09-.88,4.18-1.77,6.26-2.67,1.77-.76.24-3.35-1.51-2.59-6.21,2.68-12.45,5.29-18.71,7.87-4.8,1.97-9.61,3.92-14.45,5.77-4.32,1.65-8.69,3.04-13.1,4.43-1.54.48-3.36.86-4.78,1.67-1.34.77-1.04,2.89.63,2.91,1.51.03,2.01-2.04.76-2.8-1.55-.94-4.16-2.72-4.26-4.7s-3.09-1.93-3,0h0Z"/><path class="cls-3" d="m344.91,391.86c0,11.05-42.98,20-96,20-7.54,0-14.87-.18-21.91-.52-8.07,3.85-25.23,6.52-45.09,6.52-27.61,0-50-5.15-50-11.5,0-4.13,9.47-7.75,23.7-9.78-1.76-1.51-2.7-3.09-2.7-4.72,0-11.05,42.98-20,96-20s96,8.95,96,20Z"/><path class="cls-3" d="m343.41,391.86c0,.15-.01.3-.02.46.01-.16.04-.1-.04.16-.04.13-.08.27-.12.4-.02.07-.05.13-.07.2-.11.31.12-.24-.02.04-.4.81-.57,1.01-1.08,1.56-1.29,1.37-2.77,2.28-4.53,3.21-5.22,2.76-11.08,4.35-16.79,5.71-18.43,4.38-37.6,5.88-56.49,6.51-11.49.38-22.99.34-34.48-.14-1.19-.05-2.51-.32-3.63.13-.65.26-1.28.57-1.94.81-1.53.57-3.09,1.05-4.66,1.47-4.07,1.1-8.24,1.84-12.42,2.41-10.71,1.46-21.6,1.81-32.39,1.45-9.62-.32-19.35-1.15-28.73-3.42-3.05-.74-6.15-1.61-8.95-3.04-.95-.48-1.88-1.03-2.57-1.67-.15-.13-.29-.27-.42-.42-.05-.05-.37-.47-.2-.23-.11-.16-.21-.32-.3-.49-.14-.27,0,.13-.11-.3-.11-.4-.03-.06-.04-.21,0-.1.04-.55,0-.27.05-.38.2-.63.46-.98.65-.85,1.79-1.55,2.79-2.08,3.49-1.88,7.49-2.87,11.34-3.7,2.65-.58,5.33-1.03,8.01-1.42,1.11-.16,1.44-1.81.66-2.51-1.22-1.09-2.35-2.34-2.24-4.07.02-.25-.08.29.03-.11.03-.12.06-.24.09-.35.04-.14.09-.27.14-.4-.04.1-.03.04.1-.19.58-.99,1.52-1.98,2.48-2.69,3.52-2.61,7.83-4.14,11.97-5.44,14.21-4.47,29.33-6.26,44.12-7.49,19.59-1.63,39.34-1.84,58.97-.82,16.31.85,32.79,2.42,48.71,6.24,5.18,1.24,10.44,2.69,15.26,5.01,1.55.75,3.42,1.8,4.57,2.73.57.46,1.1.97,1.58,1.53.24.28-.04-.07.11.14.09.13.18.26.26.39.09.14.45.89.31.53.11.26.18.53.25.8.1.37,0-.09.03.11.02.13.02.27.02.41.02,1.93,3.02,1.93,3,0-.04-3.3-2.72-5.72-5.28-7.39-4.16-2.72-9.08-4.35-13.81-5.72-15.47-4.49-31.83-6.24-47.85-7.36-20.55-1.44-41.24-1.43-61.79.05-15.98,1.14-32.3,2.91-47.72,7.47-4.63,1.37-9.45,2.99-13.49,5.7-2.58,1.73-5.35,4.33-5.04,7.74.2,2.16,1.54,3.9,3.11,5.29l.66-2.51c-5.15.74-10.33,1.69-15.26,3.39-2.86.98-6.2,2.23-8.21,4.61-1.45,1.71-1.78,3.96-.47,5.85s3.64,3.17,5.78,4.1c7.67,3.31,16.32,4.45,24.56,5.29,11.54,1.18,23.24,1.3,34.81.5,9.06-.63,18.43-1.66,27.09-4.54.73-.24,1.46-.51,2.18-.79.38-.15.76-.31,1.13-.47.17-.07.35-.19.53-.23l.2-.09c-.21.21-.09.26.36.15,1.29.28,2.85.12,4.18.17,1.49.05,2.99.1,4.48.14,6.05.16,12.11.2,18.16.13,20.7-.26,41.65-1.6,61.97-5.77,6.72-1.38,13.47-3.07,19.77-5.84,3.56-1.57,8-3.81,9.51-7.68.27-.69.41-1.42.42-2.16.02-1.93-2.98-1.93-3,0Z"/><ellipse class="cls-3" cx="130.91" cy="392.36" rx="9" ry="2"/><path class="cls-3" d="m138.41,392.36c.01-.13.15-.73.28-.66-.01,0,.14-.02-.04.02-.07.02-.17.1-.24.14-.19.1-.71.26-1.1.36-1.22.32-2.49.46-3.75.55-2.84.19-5.83.18-8.62-.44-.46-.1-.94-.22-1.38-.39-.06-.02-.11-.05-.28-.14-.34-.17-.08-.13.03.11-.13-.31.1.49.1.45,0-.02-.22.65-.12.49,0,0-.36.21-.12.14.37-.1.49-.25.94-.39,2.6-.78,5.48-.82,8.17-.73,1.54.05,3.09.17,4.6.51.47.1,1.09.26,1.43.41-.02,0,.32.23.4.22-.11,0-.27-.37-.29-.67.16,1.91,3.16,1.93,3,0-.25-2.93-4.93-3.15-7.07-3.35-3.61-.33-7.72-.37-11.22.76-1.06.34-2.31.89-2.64,2.07-.35,1.27.63,2.25,1.69,2.73,1.43.65,3.02.87,4.57,1.05,2.05.24,4.12.28,6.18.18,1.89-.1,3.87-.27,5.68-.83,1.32-.41,2.67-1.09,2.8-2.62.16-1.92-2.84-1.91-3,0Z"/><path class="cls-3" d="m278.41,424.86c0,1.93-7.84,3.5-17.5,3.5s-17.5-1.57-17.5-3.5c0-.55.65-1.08,1.81-1.54-.58.03-1.19.04-1.81.04-4.97,0-9-.9-9-2s4.03-2,9-2,9,.9,9,2c0,.16-.09.32-.25.47,2.57-.3,5.56-.47,8.75-.47,9.66,0,17.5,1.57,17.5,3.5Z"/><path class="cls-3" d="m276.91,424.86c.02-.23.09-.42.13-.4-.04-.02-.02.06-.14.12-.35.19-.68.38-1.06.52-1.26.48-2.62.74-3.95.97-3.93.68-7.97.83-11.95.78s-7.62-.25-11.33-1.03c-1.09-.23-2.25-.47-3.25-.98-.15-.08-.3-.18-.45-.26-.17-.09-.06-.09-.1-.06.16-.1-.17.5,0,.69-.03-.03,1.09-.57,1.15-.59,1.39-.6.65-2.86-.76-2.8-2.72.12-5.58.09-8.23-.6-.36-.09-.7-.24-1.05-.34,0,0-.31-.21-.34-.2.48-.18.22.86.19,1.01-.11.54-.18.31.29.1.43-.19.91-.29,1.37-.39,2.68-.61,5.55-.63,8.28-.47,1.28.08,2.56.21,3.8.5.4.1.83.19,1.21.36.08.03.25.16.33.16l.15.1c-.4-.2-.45-.62-.12-1.27-.7.88-.38,2.72,1.06,2.56,5.42-.61,10.95-.65,16.39-.12,2.05.2,4.1.49,6.09,1.03.64.18,1.3.36,1.9.68.1.06.61.32.42.25.18.06,0,.13,0-.03,0,.27-.04-.25-.04-.28.13,1.92,3.13,1.93,3,0-.1-1.54-1.37-2.35-2.67-2.9-2.01-.83-4.19-1.19-6.33-1.48-6.18-.84-12.55-.86-18.74-.16l1.06,2.56c2.51-3.13-2.44-4.35-4.61-4.67-4.02-.58-8.46-.64-12.41.39-1.09.28-2.45.73-3.03,1.78-.63,1.15.03,2.36,1.07,2.97,1.3.76,2.91.99,4.38,1.19,2.19.29,4.4.36,6.61.27l-.76-2.8c-1.34.57-2.87,1.65-2.49,3.33.19.85.86,1.47,1.58,1.91,2.24,1.37,5.22,1.69,7.77,2.03,4.11.54,8.29.66,12.43.53,3.62-.12,7.31-.4,10.85-1.23,1.97-.46,5.15-1.24,5.32-3.72.13-1.93-2.87-1.92-3,0Z"/><path class="cls-3" d="m394.7,403.34c3.6,1.14,5.71,2.52,5.71,4.02,0,3.87-14.1,7-31.5,7s-31.5-3.13-31.5-7,14.1-7,31.5-7h.23c1.3-1.42,8.09-2.5,16.27-2.5,9.11,0,16.5,1.34,16.5,3,0,1.03-2.86,1.94-7.21,2.48Z"/><path class="cls-3" d="m394.3,404.79c1.31.43,2.72.89,3.85,1.72.28.2.48.44.7.69.18.2.04.27.06.2-.07.32.18-.22-.02.07-.05.07-.07.15-.13.21.19-.22-.28.28-.37.36-.36.31-1.05.7-1.62.97-3.95,1.91-8.71,2.52-13.01,3.04-6.58.78-13.24.97-19.86.73-5.8-.21-11.67-.7-17.33-2.01-1.83-.42-3.7-.91-5.4-1.71-.49-.23-1.25-.64-1.54-.87-.19-.15-.38-.32-.54-.51.06.07-.27-.46-.13-.17-.14-.28.09-.16-.03-.03-.01.01.04-.41-.01-.12-.04.25.03-.1.05-.12-.18.35.02-.01.05-.06.04-.06.16-.2-.01,0,.09-.1.18-.21.28-.31.28-.27.31-.28.59-.46,1.4-.91,3.03-1.44,4.63-1.89,5.18-1.47,10.62-2.05,15.97-2.38,1.53-.09,3.07-.16,4.61-.2.96-.03,1.91-.04,2.87-.05.62,0,1.39.12,1.96-.21.15-.08.26-.22.39-.32-.27.2.14-.08.16-.1.24-.13.45-.22.7-.31.94-.35,1.96-.55,2.94-.73,6.76-1.24,14.12-1.19,20.91-.27,1.24.17,2.48.38,3.69.71.45.12.91.24,1.34.43.05.02.26.13.31.16.27.15.2.08.17.09.11-.06-.04.11-.08-.23-.01-.12.14-.7.13-.72.03.05-.7.36-.89.43-1.58.59-3.32.84-4.98,1.05-1.89.24-1.91,3.25,0,3s3.82-.49,5.63-1.11c1.05-.36,2.28-.84,2.83-1.89,1.17-2.24-1.64-3.51-3.3-4-3.34-.99-6.98-1.23-10.44-1.39-4.29-.19-8.63-.12-12.9.38-2.58.3-6.47.49-8.44,2.47l1.06-.44c-5.17,0-10.34.24-15.47.87-3.97.49-8.02,1.11-11.81,2.45-2.09.74-5.03,1.85-5.79,4.19-.71,2.2,1.09,3.92,2.84,4.89,2.93,1.63,6.4,2.37,9.67,2.97,4.9.89,9.88,1.33,14.84,1.53,9.95.39,20.46.11,30.13-2.48,2.6-.7,6.21-1.66,7.78-4.09,2.55-3.95-3.48-6.39-6.25-7.29-1.84-.6-2.63,2.3-.8,2.89Z"/><path class="cls-1" d="m298.91,389.36c-.53,6.83-18.05,8.94-23.55,9.77-16.88,1.93-34,1.64-50.8-.71-29.97-4.33-30.22-13.73,0-18.11,16.81-2.35,33.92-2.65,50.8-.71,5.55.83,23,2.94,23.55,9.77h0Zm-2,0c-1.09-4.93-17.13-7.31-21.78-8.07-16.69-2.34-33.77-2.64-50.53-.71-30.04,3.78-30.22,13.74,0,17.56,16.77,1.92,33.84,1.63,50.53-.71,4.74-.78,20.65-3.13,21.78-8.07h0Z"/><path class="cls-1" d="m387.91,407.61c-.68,5.39-22.95,3.9-27.3,3.17-11.28-1.4-11.36-4.92,0-6.33,4.33-.73,26.59-2.23,27.3,3.17h0Zm-2,0c0,.13.04.16.02.13-2.1-1.4-4.9-1.56-7.37-2-5.89-.79-11.92-.99-17.86-.5-2.53.31-5.23.51-7.48,1.76-.29.18-.51.43-.51.62,0,.19.22.44.51.62,2.26,1.25,4.95,1.44,7.48,1.76,5.93.49,11.97.29,17.86-.5,2.47-.45,5.28-.6,7.37-2,.02-.04-.02,0-.02.13h0Z"/><path class="cls-1" d="m320.05,390.11c-.52,5.41-10.41,7.89-14.81,9.25-29.42,7.28-60.42,7.52-90.43,4.2-44.83-5.51-44.7-21.3-.06-27.38,24.11-3.17,48.7-3.05,72.74.64,7.02,1.22,31.96,5.16,32.56,13.29h0Zm-.28,0c-.62-5.21-10.35-7.52-14.65-8.77-11.73-2.84-23.84-3.78-35.87-4.28-12.04-.45-24.12-.43-36.14.29-9.06.46-47.39,3.43-49.55,12.76,1.24,7.13,24.97,10.65,31.51,11.62,17.93,2.43,36.15,2.87,54.22,2.08,12.05-.6,24.18-1.7,35.89-4.72,4.33-1.33,14.05-3.81,14.6-8.97h0Z"/><path class="cls-4" d="m356,339c1.14-2.67,10.44-10.8,9.66-3.44-.27,2.49-2.58.43-4.66.44-2.89.02-2.69.82-5,3"/><path class="cls-4" d="m356.65,339.38c.1-.23.23-.45.37-.66.22-.32.3-.43.52-.7.53-.64,1.11-1.23,1.72-1.79s1.27-1.11,1.96-1.6c.34-.23.68-.46,1.04-.66.17-.09.33-.18.51-.27.21-.1.27-.13.41-.18s.28-.1.43-.14c.07-.02.15-.03.22-.05.03,0,.06-.01.09-.02.11-.02-.18.01.01,0,.12,0,.24,0,.37,0,0,0-.11-.04.04,0,.06.02.13.04.19.06-.19-.07.16.14.03.02.04.04.09.08.13.13.06.07-.03-.09.04.07.01.03.1.2.07.12s.04.13.05.16c.05.17.07.32.08.4.04.44.04.92-.04,1.35-.04.2-.09.36-.18.43.1-.08.06,0-.03-.01-.07,0-.02,0,0,0-.05,0-.11,0-.17,0-.99-.1-2.05-.65-3.11-.76s-2.42.02-3.35.65c-.99.68-1.73,1.72-2.6,2.55-.7.67.36,1.73,1.06,1.06.5-.48.97-.98,1.44-1.48.29-.31.63-.69.92-.87.75-.48,1.99-.54,2.92-.32,1.03.23,2.23.93,3.31.62,1.25-.36,1.37-1.85,1.33-2.94-.03-.79-.21-1.65-.82-2.2s-1.36-.59-2.1-.46c-1.71.3-3.29,1.55-4.58,2.64-.78.66-1.52,1.37-2.2,2.15-.52.59-1.07,1.24-1.39,1.97-.16.37-.11.8.27,1.03.32.19.86.1,1.03-.27h0Z"/><path class="cls-4" d="m370.91,317.86c-2.23-1.91,1.88-7.38,3.69-4.89.72.99.24,1.9-.65,2.24-1.06.41-3.86.73-3.04,2.65"/><path class="cls-4" d="m371.44,317.33c-.06-.05-.16-.21-.23-.23.08.02.09.13.05.06-.01-.02-.03-.04-.04-.06-.04-.05-.06-.11-.1-.17-.08-.15.02.09,0,0-.01-.05-.03-.1-.05-.15s-.03-.1-.04-.15c0-.03,0-.05-.01-.08-.03-.12.01.15,0,.06,0-.11-.02-.22-.01-.32,0-.06,0-.11,0-.17,0-.03,0-.06,0-.08.01-.14-.02.02,0,.05-.03-.07.06-.29.07-.36.03-.12.07-.24.11-.36.02-.06.04-.11.06-.17.04-.12-.02.04-.02.05,0-.03.02-.06.04-.08.06-.13.12-.25.19-.37.12-.23.27-.43.42-.64.05-.08-.1.12-.03.04.02-.02.04-.05.06-.07.04-.05.08-.09.12-.14.08-.09.17-.19.26-.27.08-.08.17-.16.26-.23.15-.13-.09.05.01-.01.06-.04.11-.08.17-.12.09-.06.18-.11.27-.15.02-.01.05-.02.07-.03.08-.04-.01.05-.08.03.03,0,.13-.05.15-.06.05-.01.09-.03.14-.04.03,0,.21-.03.05-.01s.02,0,.05,0c.05,0,.1,0,.15,0,.11,0-.09-.01-.1-.02.02.01.06,0,.08.01.04.01.09.02.13.03.15.04-.01,0-.02-.01.03.03.1.05.14.08.15.09-.09-.09,0,0,.04.04.08.07.11.1.01.01.1.12.11.12-.03,0-.1-.14-.04-.05.05.07.1.14.14.22.03.05.05.09.07.14-.02-.04-.02-.09,0,.03,0,.05.02.09.03.14,0-.03,0-.14,0,0,0,.04,0,.09,0,.13,0-.03.04-.15,0-.01-.01.04-.02.08-.03.12-.03.12.04-.03,0,.02-.02.02-.05.07-.06.11-.04.09.08-.06,0,0-.03.03-.06.06-.09.09-.01.02-.12.1-.05.05s-.04.02-.06.04c-.04.02-.08.05-.12.07-.02,0-.14.07-.06.04.07-.03-.02,0-.04.01-.46.16-.94.27-1.4.43-.62.21-1.3.48-1.74.97-.54.6-.66,1.4-.35,2.15.15.37.5.64.92.52.35-.1.68-.55.52-.92-.03-.08-.06-.16-.09-.24-.01-.04-.02-.08-.03-.12-.02-.08-.05-.05,0,.06-.02-.05,0-.13,0-.18,0-.02.01-.17,0-.03-.01.13,0,.01.01-.02,0-.03.02-.06.03-.1.02-.09-.1.17-.02.05,0-.01.07-.14.08-.14.03,0-.12.13-.04.06.02-.02.04-.04.05-.06.03-.03.21-.19.11-.11s.08-.05.1-.07c.05-.03.1-.06.16-.09.06-.03.12-.07.19-.1.03-.01.06-.03.09-.04.15-.07-.07.02,0,0,.28-.09.55-.2.83-.28.65-.19,1.31-.34,1.85-.77.84-.68.94-1.84.39-2.74-.32-.53-.84-.99-1.46-1.11-.59-.11-1.17.02-1.7.3-1.05.56-1.83,1.61-2.28,2.69-.52,1.23-.61,2.81.48,3.77.3.27.76.3,1.06,0,.27-.27.31-.79,0-1.06h0Z"/><path class="cls-4" d="m381.65,335.81c.07-1.57,4.37-2.29,5.3-.65.61,1.08-.07,3-1.54,2.35-1.11-.49-2.27-2.96-3.76-1.34"/><path class="cls-4" d="m382.4,335.81c0-.12-.05.17,0,.06.01-.03.03-.09.03-.12,0-.03-.09.16-.02.05.02-.04.05-.07.07-.11.05-.1-.11.11-.02.03.03-.03.06-.07.1-.1.03-.03.07-.05.09-.08.05-.06-.07.05-.07.05.02-.02.05-.04.07-.05.08-.05.17-.11.26-.15.04-.02.09-.04.13-.07.08-.04.16-.06.03-.01.22-.07.43-.15.65-.21.12-.03.23-.05.35-.07.15-.03-.02,0,.02,0,.06,0,.13-.01.19-.02.24-.02.48-.02.72-.01.05,0,.11,0,.16.01.04,0,.07,0,.11.01,0,0-.15-.03-.07,0,.11.03.22.04.33.07s.21.06.31.1c.14.05-.04-.02,0,0,.04.03.1.05.14.07.04.02.08.05.12.07.14.09,0,0,0,0,.06.07.13.14.2.2-.07-.07-.07-.1-.02-.01.01.02.1.19.06.09s.02.06.03.09c.02.06.03.12.05.19.03.13,0-.14,0,.05,0,.06,0,.11,0,.17s-.01.11,0,.17c0,.08,0-.05.01-.06,0,.04-.01.07-.02.11-.01.06-.03.12-.05.19,0,.03-.07.18-.03.09s-.03.05-.04.08c-.03.05-.07.1-.1.15.07-.11.03-.05-.03.02-.02.02-.04.03-.05.05.01-.01.12-.06.05-.04-.02,0-.16.1-.06.04.09-.05-.06.01-.1.03-.11.04.15,0-.03,0-.03,0-.06,0-.08,0,.01,0,.13.04.06,0-.06-.02-.12-.03-.18-.05-.03,0-.06-.02-.09-.03.04.02.1.06.03,0-.08-.06-.18-.12-.27-.17-.07-.04.05.04.05.04-.02-.02-.04-.03-.06-.05-.05-.04-.1-.08-.15-.13-.19-.17-.37-.35-.55-.53-.45-.43-.96-.89-1.58-1.04-.78-.2-1.5.14-2.03.7-.28.29-.29.77,0,1.06s.78.3,1.06,0c.06-.06.12-.12.19-.19.09-.08-.09.05,0,0,.03-.02.05-.04.08-.05.04-.02.21-.1.12-.07-.13.04.22-.04.06-.02-.13.02.07,0,.1,0,.12-.01-.13-.05.02,0,.05.02.11.03.17.05-.16-.06-.01,0,.05.04.06.03.11.07.16.1s.17.13.05.03c.11.09.22.19.33.29.21.19.41.4.62.59.5.46,1.05.85,1.75.89s1.33-.37,1.68-.96c.67-1.13.38-2.68-.72-3.42-.95-.63-2.27-.62-3.34-.41-1.14.23-2.52.89-2.6,2.21-.03.4.36.75.75.75.43,0,.72-.34.75-.75h0Z"/><path class="cls-4" d="m373,352c2.38-1.37,8.16-4.55,9.91-.97.77,1.57-.41,3.78-2.25,2.81-1.39-.73-2.01-1.86-3.71-2.24-1.28-.28-2.94-.34-4.09.33l.14.06Z"/><path class="cls-4" d="m373.38,352.65c1.15-.66,2.33-1.31,3.57-1.79s2.63-.96,3.91-.63c1.11.28,1.96,1.55,1.34,2.65-.3.53-.8.53-1.29.25-.76-.43-1.37-1.06-2.09-1.53-1.74-1.15-4.5-1.31-6.33-.3-.45.25-.53,1.07,0,1.3l.14.06c.38.16.8.11,1.03-.27.19-.31.1-.87-.27-1.03l-.14-.06v1.3c.92-.51,2.06-.51,3.08-.34s1.76.62,2.55,1.25,1.62,1.31,2.64,1.33c.87.02,1.65-.53,2.05-1.29.81-1.58.11-3.58-1.43-4.42-1.44-.78-3.21-.49-4.7-.01-1.68.54-3.27,1.37-4.79,2.25-.84.48-.08,1.78.76,1.3Z"/><path class="cls-4" d="m352.87,358.32c1.25-2.68,5.75-8,9-4.96,1.13,1.05,1.07,2.66-.14,3.7-1.36,1.17-3.11.17-4.55-.16-1.85-.42-3.09-.49-4.18,1.1"/><path class="cls-4" d="m353.52,358.7c.58-1.23,1.41-2.35,2.36-3.32s2.13-1.96,3.42-2.15c1.17-.17,2.85.71,2.62,2.14-.13.83-.88,1.49-1.72,1.49-.91,0-1.77-.41-2.64-.64-.93-.24-1.95-.43-2.91-.26s-1.73.85-2.3,1.66.74,1.54,1.3.76c.49-.7,1.09-1.02,1.94-.98.96.04,1.87.36,2.78.63,1.06.32,2.18.51,3.22.02s1.7-1.51,1.83-2.6c.23-1.97-1.58-3.57-3.43-3.73-1.67-.14-3.24.85-4.44,1.91-1.35,1.18-2.55,2.7-3.32,4.32-.41.87.88,1.63,1.3.76h0Z"/><path class="cls-4" d="m335.05,362.05c.25-5.15,3.15-11.99,8.43-13.73,2.86-.94,3.77,1.39,2.7,3.79-1.16,2.6-3.76,2.92-6.04,4.03-2.58,1.25-4.3,3.28-5.14,5.85"/><path class="cls-4" d="m335.8,362.05c.24-4.51,2.27-9.86,6.32-12.28.79-.47,2.14-1.22,3.08-.82.85.36.72,1.55.52,2.27-.75,2.6-3.44,3.14-5.62,4.12-2.8,1.26-4.84,3.56-5.82,6.46-.31.92,1.14,1.31,1.45.4,1.01-3,3.26-4.85,6.14-5.97,1.25-.49,2.53-.96,3.57-1.86s1.74-2.24,1.9-3.62c.13-1.09-.16-2.3-1.12-2.94-1.15-.77-2.6-.39-3.77.12-2.43,1.05-4.29,3.1-5.58,5.37-1.52,2.65-2.4,5.71-2.56,8.76-.05.96,1.45.96,1.5,0h0Z"/><path class="cls-4" d="m343.36,374.09c1.2-.53,3.33-.61,4.48.36.72.61,1.69,2.52,1.11,3.44-1.16,1.81-2.4-.59-2.76-1.45-.48-1.19-1.9-2.82-3.32-2.22"/><path class="cls-4" d="m343.74,374.74c-.15.06.07-.02.08-.03.06-.02.12-.04.18-.06.14-.04.27-.08.41-.11.3-.06.44-.08.79-.09.61-.02,1.06.03,1.63.24.35.14.71.45.89.73.33.48.51.86.63,1.42,0-.01.04.23.02.12s0,.13,0,.11c0,.07,0,.14,0,.21,0,.04-.03.14,0,0-.01.06-.03.12-.05.18.04-.13.03-.05,0-.01-.11.15-.12.18-.23.29-.14.15.1-.06-.06.04l-.05.03c.08-.03.1-.04.05-.02h-.03c-.08.03-.07.02.05,0-.18-.02.18.04,0,0-.03,0-.07-.02-.1-.03.18.05.03.01-.02-.02-.03-.02-.06-.04-.09-.06.15.1-.05-.05-.08-.08-.08-.08-.15-.16-.22-.24.09.11,0,0-.02-.03-.03-.05-.06-.09-.1-.14-.13-.2-.25-.41-.36-.62-.04-.09-.09-.17-.13-.26-.02-.05-.04-.09-.06-.14.09.19.03.07,0,.02-.13-.3-.26-.59-.44-.87-.78-1.21-2.25-2.45-3.78-1.84-.38.15-.64.5-.52.92.1.36.54.67.92.52.08-.03.16-.05.24-.08.19-.07-.08-.01.11-.02.08,0,.16,0,.23,0-.15-.02.1.03.11.03,0,0,.23.08.12.03.07.03.15.07.22.11.13.08.25.16.32.22.25.21.47.46.63.68.1.14.18.28.27.42.03.06.06.12.09.17.01.02.12.25.06.13.44.97.99,2.23,2.1,2.59.66.21,1.33-.06,1.76-.58.5-.61.62-1.27.49-2.04-.21-1.22-.99-2.57-2.12-3.14-1.44-.72-3.25-.64-4.71-.02-.37.16-.46.71-.27,1.03.23.39.65.43,1.03.27h0Z"/><path class="cls-4" d="m128.82,285.21c-.38-1.18-.32-2.91-1.28-3.71-1.02-.85-3.51-1.87-4.23-.34-.32.69-.1,1.8.68,2.13s1.57-.52,2.33-.48c1.03.05,2.14,1.47,2.51,2.4"/><path class="cls-4" d="m129.54,285.01c-.41-1.29-.33-2.75-1.26-3.82-.36-.41-.88-.73-1.36-.97-.59-.29-1.21-.5-1.87-.58-.57-.07-1.19,0-1.68.33-.61.4-.93,1.07-.97,1.79-.03.68.23,1.45.76,1.89.34.29.74.46,1.18.47.42,0,.81-.15,1.19-.31.2-.09.25-.12.4-.17.08-.03.17-.05.25-.07s0,0-.02,0c.06,0,.12,0,.17,0,.09,0-.03,0-.04,0,.04.01.08.02.13.03.03,0,.06.02.1.03.11.04-.09-.05.01,0,.07.04.15.08.22.12.03.02.06.04.09.06.01,0,.12.09.08.05,0,0,.14.13.19.17.07.06.13.13.2.2s.13.14.19.21c.03.03.05.06.08.09-.05-.06.02.03.03.04.11.16.22.32.32.49.04.07.08.15.12.22.02.04.12.27.06.12.15.37.5.64.92.52.36-.1.68-.55.52-.92-.48-1.18-1.4-2.42-2.65-2.85-.71-.24-1.35.02-2,.3-.14.06.16-.06-.08.03-.07.03-.15.06-.22.08s-.15.04-.22.05c.15-.02-.08-.01-.1-.01.16.02-.08-.06,0,0s-.1-.06-.09-.06c.13.08-.03-.03-.05-.05-.06-.06-.06-.06-.01,0-.03-.04-.05-.07-.07-.11-.01-.02-.1-.21-.04-.06-.02-.04-.03-.09-.04-.13-.02-.07-.03-.13-.05-.2.03.16,0-.04,0-.07,0-.07,0-.13,0-.2,0-.2-.05.12.01-.06.01-.04.02-.08.03-.12.03-.08.03-.08,0,0,.02-.04.04-.07.06-.11.02-.03.14-.18.02-.04.04-.04.08-.08.12-.12.11-.12-.13.05.02-.02.03-.01.07-.04.09-.05.13-.1-.14.02.02-.01.05-.01.11-.03.16-.05.04,0,.22-.03.02-.01.07,0,.14-.01.2-.01.11,0,.22,0,.33.02-.19-.02.02,0,.05.01.06.01.13.03.19.04.26.06.51.14.75.25-.14-.06.13.06.18.09.11.06.23.12.34.18.1.06.21.12.31.19.04.03.08.05.12.08.16.11-.07-.07.04.03.05.04.1.08.14.13.02.02.19.23.11.11.08.12.15.24.21.37.1.2-.04-.13.04.09.03.09.07.19.09.28.04.15.08.3.11.44.15.66.22,1.35.42,2,.12.39.52.63.92.52s.65-.53.52-.92h0Z"/><path class="cls-4" d="m129.39,298.07c.58-1.97-.81-6.63-3.73-4.94-2.05,1.19-1.09,3.7,1.08,3.29,1.22-.23,2.94-.06,2.65,1.78"/><path class="cls-4" d="m130.11,298.26c.32-1.12.15-2.44-.23-3.52-.4-1.14-1.16-2.37-2.43-2.66-1.46-.34-3.19.67-3.59,2.12-.18.66-.07,1.41.34,1.97.47.65,1.19.99,1.98,1.03.24.01.49-.02.73-.06.04,0,.09-.02.13-.02.03,0,.18-.03.05,0-.11.02,0,0,.03,0,.04,0,.09,0,.13-.01.18-.01.35-.02.53,0,.03,0,.07,0,.1,0,.03,0,.18.02.05,0-.11-.02,0,0,.03,0,.04,0,.08.02.12.03.08.02.16.05.24.07.12.03-.03,0-.05-.02.04.02.08.04.13.07.03.02.05.04.08.05.11.05-.07-.08-.02-.02.02.03.06.05.08.08.02.02.1.13.03.03s.04.1.07.13c-.08-.12-.03-.1-.02-.04.01.05.03.1.04.15.01.04,0,.13,0-.03,0,.06,0,.12,0,.18,0,.04,0,.09,0,.13,0,.03-.03.23,0,.08-.06.4.1.81.52.92.35.1.86-.12.92-.52.11-.77.04-1.6-.57-2.16-.51-.46-1.19-.63-1.87-.65-.32,0-.64.03-.96.08-.07.01-.14.02-.21.04-.09.02.03,0,.04,0-.04,0-.08,0-.13.01-.08,0-.16,0-.24,0-.04,0-.08,0-.12,0,.09,0,.1.02,0,0-.06-.01-.12-.03-.18-.05-.08-.02-.2-.1-.06-.02-.06-.03-.12-.06-.18-.1-.03-.02-.05-.04-.08-.05.06.04.1.09.02.01-.04-.04-.08-.08-.12-.12-.02-.02-.04-.05-.06-.07.12.12.06.08.03.04-.03-.05-.06-.11-.09-.16-.02-.03-.1-.11.02.05-.02-.02-.03-.06-.03-.09-.02-.06-.03-.12-.05-.18-.03-.1-.01.04,0,.06,0-.01,0-.09,0-.09,0-.06,0-.11,0-.17,0-.03,0-.14,0-.02,0,.13,0-.02.01-.05.02-.07.04-.13.05-.19.01-.04.06-.12-.02.03.02-.03.03-.06.05-.1.03-.06.06-.11.1-.16.02-.03.04-.06.06-.09.04-.07-.09.09,0,0,.06-.06.11-.12.17-.17.03-.03.06-.06.1-.08,0,0-.09.07-.02.02.15-.11.31-.2.47-.28.03-.02.07-.03.1-.05-.02.01-.15.05-.03.01.06-.02.12-.04.17-.06.06-.02.13-.03.19-.05.02,0,.05-.02.07-.01-.17-.02-.09,0-.01,0,.05,0,.11,0,.16,0,.03,0,.23.03.1,0s.04.01.07.02c.06.02.12.04.18.06.16.05-.14-.08.02,0,.04.02.09.05.13.07.05.03.1.06.14.1.11.07-.05-.04-.05-.04.01,0,.07.06.08.07.08.08.16.16.24.24.05.06.12.16.03.03.04.06.08.12.12.17.15.22.26.46.38.7.04.08-.03-.06-.03-.06.02.05.04.1.06.14.02.06.05.13.07.19.05.15.09.3.13.45s.07.3.1.46c.01.08.02.15.04.23.02.1-.02-.15,0-.05,0,.04.01.08.01.12.03.29.04.57.03.86,0,.06,0,.12-.01.18-.02.21.03-.13,0,.03-.02.12-.05.25-.08.37-.11.39.14.82.52.92s.81-.13.92-.52h0Z"/><path class="cls-4" d="m227.5,349.5c-.1-2.28,2.84-9.85-2.93-9.21-3.11.35-3.49,4.61-.61,5.61,1.27.44,2.01-.35,3.02.82.59.69.37,1.93.52,2.78"/><path class="cls-4" d="m228.25,349.5c-.03-.7.07-1,.18-1.68.14-.84.29-1.68.38-2.53.18-1.56.24-3.41-.84-4.68-1.19-1.41-3.76-1.45-5.2-.43-1.7,1.21-2.01,3.69-.71,5.3.85,1.05,2.06,1.33,3.35,1.31.53,0,.99.2,1.16.77.2.68.09,1.44.2,2.14.06.4.56.62.92.52.43-.12.59-.52.52-.92-.19-1.22.07-2.45-.97-3.37-.45-.39-.95-.6-1.54-.64-.48-.03-.95.06-1.42-.07-.74-.22-1.26-.78-1.45-1.45s-.09-1.36.35-1.94,1.22-.82,2.01-.82c.41,0,.64.02,1.02.15.2.07.39.19.59.39.02.02.13.15.09.1s.07.11.09.14c.03.06.06.12.1.17.02.04.04.08.06.12-.03-.07-.02-.05,0,0,.05.14.1.29.13.43.02.08.04.16.05.25,0,.04.04.29.03.17.09.72.04,1.46-.03,2.18s-.22,1.55-.36,2.37c-.11.66-.25,1.34-.22,2.01.03.96,1.53.97,1.5,0h0Z"/><path class="cls-4" d="m217.91,361.86c-1.03-3.52-8.72-4.5-7.73-.25.8,3.41,5.29-2.48,7.73.25"/><path class="cls-4" d="m218.63,361.66c-.48-1.59-1.91-2.62-3.41-3.18-1.39-.51-3.13-.68-4.48.04-1.43.76-1.76,2.6-1.04,3.98.8,1.53,2.55.84,3.75.3.82-.37,1.35-.67,2.23-.87.1-.02.19-.04.29-.05-.17.02.11,0,.15,0,.09,0,.19,0,.28,0,.21.01-.02-.02.14.02.09.03.18.05.27.08.03.01.12.06,0,0,.05.02.1.05.14.08.03.02.25.18.15.1.09.08.18.16.26.25.65.71,1.71-.35,1.06-1.06-1.1-1.2-2.7-1.1-4.1-.55-.67.26-1.31.58-1.97.87-.12.05.07-.02-.09.04-.07.03-.13.05-.2.08-.14.05-.29.1-.44.14-.05.01-.1.02-.16.04-.2.05.05,0-.05,0-.05,0-.11,0-.16,0-.17,0-.03-.03-.02,0,0-.01-.13-.04-.14-.04.13.04.09.05,0-.01,0,0,.12.08,0,0-.02-.02-.04-.05-.06-.07.03.03.08.12.03.03-.03-.06-.06-.11-.09-.17-.05-.1.04.12,0,.01,0-.03-.02-.06-.03-.09-.02-.08-.04-.16-.06-.24,0-.04-.05-.34-.04-.19-.01-.15-.01-.3,0-.45,0-.14-.04.12,0-.06.02-.07.03-.14.06-.22s.08-.18.01-.05c.03-.05.06-.11.09-.16.04-.07.11-.15.02-.04.04-.05.09-.1.14-.15.03-.02.16-.14.08-.08-.09.07.07-.05.1-.06.05-.03.11-.07.16-.09.04-.02.28-.12.1-.05.13-.05.26-.09.39-.12.07-.02.14-.03.21-.04.03,0,.06-.01.09-.02.15-.03-.08,0,.02,0,.32-.03.63-.04.95-.01.08,0,.16.01.24.02.12.01-.11-.02,0,0,.03,0,.07.01.1.02.18.03.37.07.55.11s.37.1.54.16c.09.03.18.06.27.1.02,0,.13.05.02,0,.04.02.09.04.13.06.35.16.68.36,1,.58.02.01.13.1.06.05s.09.07.08.07c.07.06.14.12.2.18.13.12.25.25.36.39-.09-.11.05.08.07.11.05.07.09.15.13.22.03.05.12.25.1.2-.02-.06.05.16.07.21.28.92,1.73.53,1.45-.4h0Z"/><path class="cls-4" d="m210,348c.44-2.48-4.58-8.43-7.8-5.5-2.13,1.94,1.02,3.45,2.6,3.69,2.18.34,3.2-1.2,5.2,1.8"/><path class="cls-4" d="m210.72,348.2c.26-1.59-.68-3.15-1.63-4.35-1.03-1.3-2.52-2.55-4.2-2.83-.87-.14-1.74-.03-2.51.41-.84.49-1.69,1.39-1.65,2.42.08,1.82,2.4,2.85,3.95,3.07.91.13,1.75-.09,2.65-.09.09,0,.17,0,.26.01-.16-.01.07.01.12.03.25.06.23.06.45.19.46.29.86.82,1.18,1.3.54.8,1.84.05,1.3-.76s-1.23-1.68-2.2-2.07c-.63-.25-1.29-.21-1.95-.13s-1.33.12-1.96-.04c-.68-.18-1.41-.48-1.89-.92-.06-.05-.11-.11-.17-.17-.07-.08-.09-.11-.09-.11-.04-.06-.08-.12-.11-.19-.04-.08,0,0,0,.02-.02-.05-.03-.11-.04-.17-.02-.09,0,.02,0,.03,0-.03,0-.08,0-.11.03-.12-.03.11,0-.02,0-.04.02-.08.03-.11.03-.08.11-.23.22-.36.26-.3.49-.47.86-.65.08-.04.01,0,0,0,.05-.02.09-.04.14-.05.07-.02.14-.04.21-.06.24-.06.14-.04.38-.05.61-.02,1.2.17,1.77.5.65.37,1.16.8,1.69,1.37s1,1.22,1.37,1.98c.13.27.23.52.32.91.02.07.03.14.04.22,0,.02.02.12,0,.02-.01-.11,0,.05,0,.08,0,.07,0,.13,0,.2,0,.05-.04.31,0,.09-.06.4.1.81.52.92.36.1.86-.12.92-.52h0Z"/><path class="cls-4" d="m188,352c-1.21-.12-1.73.25-2.58,1.26s-.18,4.06-2.48,2.26c-3.84-3,4.21-7.2,5.56-3.44"/><path class="cls-4" d="m188,351.25c-1.02-.09-1.88.21-2.61.93-.29.29-.61.61-.79.98-.15.29-.25.6-.32.92-.07.28-.12.57-.19.86-.03.12-.07.25-.11.37-.05.15.09-.15,0,.01,0,.01-.07.15-.09.15,0,0,.16-.15.01-.03.19-.15.11-.08.07-.06-.08.04.2-.07.08-.03-.16.05.14,0,.04,0-.02,0-.05,0-.07,0,.25.03.1.02.04,0-.03,0-.06-.02-.09-.03-.15-.04.09.07.02,0-.07-.05-.16-.08-.24-.13-.08-.05-.16-.1-.24-.16.01,0-.19-.14-.11-.08.05.04-.08-.06-.09-.08-.11-.1-.22-.2-.32-.32-.03-.03-.05-.07-.08-.09-.07-.07.08.12.03.04-.04-.07-.09-.14-.14-.21-.03-.05-.05-.1-.08-.15-.06-.12.03.07.03.06-.01,0-.03-.08-.03-.1-.02-.06-.03-.11-.05-.17,0-.03,0-.05-.01-.08-.03-.14,0,.18,0,.05,0-.05.03-.31,0-.34,0,0-.04.2-.01.09,0-.02,0-.05.01-.07.01-.06.03-.12.05-.19,0-.03.02-.06.03-.09.04-.14-.02.06-.02.05,0,0,.06-.13.07-.14.06-.12.13-.22.2-.33.09-.14-.11.12.02-.03.04-.04.07-.09.11-.13.1-.11.21-.21.32-.31.05-.04.09-.08.14-.12.12-.1-.11.08-.02.02.03-.02.05-.04.07-.05.12-.09.25-.17.37-.24s.25-.14.38-.2c.06-.03.12-.05.17-.08.02,0,.16-.07.04-.02-.11.05.02,0,.04-.02.27-.1.55-.19.84-.25.08-.02.17-.03.25-.05.05,0,.13,0-.06,0,.05,0,.09-.01.14-.01.15-.01.3-.02.45-.01.07,0,.15,0,.22.01.21.01-.14-.03.06,0,.14.03.28.07.43.11.02,0,.09.02.1.04-.02-.04-.17-.08-.03,0,.06.03.12.06.18.1s.11.08.17.11c-.19-.12-.02,0,.04.04s.09.1.14.15c.08.08-.03-.04-.04-.05.02.04.05.07.07.11.04.07.09.14.12.21.01.03.02.06.04.08.02.05.01.03-.03-.07.01.03.02.06.03.09.14.38.51.64.92.52.37-.1.66-.54.52-.92-1.12-3.05-5.21-2.22-7.04-.35-.96.97-1.38,2.42-.58,3.63.22.33.49.62.79.87.38.3.79.61,1.27.74.87.23,1.5-.31,1.78-1.1.11-.32.17-.66.24-.99.04-.18.08-.36.13-.53.02-.07.05-.14.07-.22.05-.15-.09.15,0,.02.02-.04.04-.08.06-.11.01-.02.03-.05.04-.07.1-.17-.09.09,0-.01.11-.11.2-.24.31-.35.09-.1.19-.2.29-.29.04-.04.09-.08.13-.11-.12.1.04-.03.06-.04.04-.03.09-.06.13-.08.03-.02.24-.11.07-.04.1-.04.19-.07.3-.09.03,0,.23-.03.06-.01.07,0,.14-.01.21-.01.16,0,.31,0,.47.02.4.04.75-.37.75-.75,0-.44-.34-.71-.75-.75h0Z"/><ellipse class="cls-3" cx="339.41" cy="402.36" rx="5.5" ry=".5"/><path class="cls-3" d="m344.14,402.15c.03-.12.31-.4.31-.4,0,0,.07-.02-.04,0-.12.03-.24.06-.36.08-.37.06-.75.09-1.12.12-1.17.09-2.34.12-3.52.12s-2.3-.03-3.44-.11c-.38-.03-.77-.06-1.15-.12-.13-.02-.25-.06-.38-.08-.03,0-.09-.04-.12-.04.11-.02.35.36.36.42v.42c-.03.12-.31.4-.31.4,0,0-.07.02.04,0,.12-.03.24-.06.36-.08.37-.06.75-.09,1.12-.12,1.17-.09,2.34-.12,3.52-.12s2.3.03,3.44.11c.38.03.77.06,1.15.12.13.02.25.06.38.08.03,0,.09.04.12.04-.11.02-.35-.36-.36-.42.21,1,1.75.58,1.54-.42-.13-.62-.89-.75-1.41-.82-.93-.14-1.87-.19-2.81-.22-2.25-.08-4.56-.1-6.79.21-.56.08-1.33.17-1.52.82-.2.7.45,1.08,1.03,1.2,2.03.43,4.24.35,6.3.32,1.16-.02,2.32-.06,3.48-.21.58-.07,1.58-.14,1.74-.87.21-1-1.32-1.43-1.54-.42Z"/><path class="cls-5" d="m195.71,228.48c-1.49,4.67-2.98,9.34-4.47,14.01l-8.8,27.58c-2.07,6.48-4.14,12.97-6.21,19.45-.11.36-.28.73-.35,1.1-.28,1.53,1.53,3.55,2.46,4.62,2.71,3.11,6.43,5.33,10.12,7.06,12.73,5.96,27.39,7.64,41.28,8.11,2.21.08,4.49.26,6.7.1,1.18-.08,2.13-1.65,1.06-2.56-.29-.24-1.45-.98-.39-.13l-1.06,2.56c.68-.06,1.16-.29,1.53-.88.22-.36.67-1.17.67-1.6,0-.12.54-.67-.27.16-.58.59-.15.3.35.29.54-.01,1.07-.03,1.61-.04,1.1-.04,2.19-.08,3.29-.15,3.71-.21,7.41-.58,11.08-1.17,4.93-.79,9.84-2,14.39-4.09,2.33-1.07,4.63-2.43,6.45-4.26.83-.84,1.77-1.79,1.62-3.04-.18-1.53-.61-3.08-.9-4.59-.7-3.55-1.39-7.11-2.09-10.66-1.84-9.37-3.67-18.74-5.48-28.11-1.17-6.06-2.36-12.12-3.46-18.19-.09-.51,0,.01,0-.03l-1.9,1.45c8.66,1.52,17.31,3.03,25.97,4.55l16.87,2.96,4.71.83c.78.14,1.43.24,2.22.08,6.19-1.26,10.39-6.79,11.53-12.77,1.4-7.37-2.31-14.95-9.17-18.17-1.04-.49-2.05-.82-3.19-.92-.14-.01-.29-.02-.43-.03.59.05-.15-.03-.36-.07-1.65-.3-3.29-.68-4.93-1.06-5.63-1.3-11.23-2.69-16.83-4.1-9.87-2.47-19.72-4.99-29.56-7.55-.18-.05-.36-.09-.54-.14-1.87-.49-2.67,2.41-.8,2.89,8.08,2.1,16.16,4.17,24.25,6.22,5.92,1.5,11.84,2.98,17.78,4.41,3.58.86,7.26,1.99,10.93,2.39.7.08.59,0,1.2.19,1.03.3,1.98.84,2.92,1.48,2.67,1.81,4.77,4.56,5.63,7.69,1.74,6.35-1.63,14.12-7.83,16.26-.55.19-1.25.22-1.76.46.07-.03,1.07.1.33-.04-1.21-.23-2.42-.42-3.63-.64-5.05-.89-10.11-1.77-15.16-2.66-9.61-1.68-19.22-3.37-28.83-5.05l-.55-.1c-.92-.16-1.93.4-1.9,1.45.06,2.23.8,4.6,1.22,6.78.94,4.97,1.91,9.93,2.87,14.9,2.14,11.04,4.3,22.07,6.47,33.11.5,2.54,1,5.07,1.49,7.61l.15-1.16c-.04.08-.12.28-.19.32-.06.03-.5.63-.04.07-.14.17-.27.33-.42.49-.42.46-.88.87-1.35,1.27-.06.05-.52.41-.2.16-.15.12-.31.23-.47.35-.39.28-.79.54-1.2.79-5.72,3.53-12.76,4.94-19.33,5.76-3.17.4-6.36.64-9.56.77-.98.04-1.97.07-2.95.09-.73.02-1.54-.1-2.14.38-.43.34-.6.81-.8,1.3-.07.18-.17.37-.22.56-.23.84-.56-.08.88-.21-1.14.1-2.17,1.67-1.06,2.56.23.19.4.3.69.41.39.15.22.16-.3-.28l1.06-2.56c-3.09.22-6.31-.06-9.4-.21s-5.96-.37-8.93-.68c-5.12-.54-10.22-1.36-15.22-2.57-6.82-1.65-14.03-3.96-19.65-8.33-2-1.55-3.59-3.21-4.61-5.46l.15,1.16c2.23-7,4.47-14.01,6.7-21.01,3.56-11.16,7.12-22.31,10.68-33.47.81-2.55,1.63-5.11,2.44-7.66.59-1.84-2.31-2.63-2.89-.8h0Z"/><path class="cls-4" d="m245.88,343.32l14.38,42.21c.2.56.77.91,1.36.81,6.73-1.05,44.58-7.44,45.43-18.92.93-12.6-24.57-10.27-24.57-10.27l-8.15-24.14-28.45,10.3Z"/><path class="cls-5" d="m244.43,343.72c2.46,7.23,4.93,14.46,7.39,21.7,1.66,4.87,3.32,9.74,4.98,14.61l1.54,4.53c.35,1.03.6,2.18,1.55,2.83,1.43.98,4.07.1,5.68-.18,2.28-.4,4.56-.84,6.83-1.31,5.91-1.23,11.79-2.68,17.52-4.6,5.13-1.72,10.51-3.76,14.72-7.26,3.46-2.87,5.18-7.31,2.85-11.51s-7.85-5.77-12.32-6.44c-3.96-.59-8-.72-12-.46-.24.02-.47.03-.71.05l1.45,1.1c-2.37-7.03-4.75-14.06-7.12-21.09l-1.03-3.05c-.24-.72-1.05-1.34-1.85-1.05-8.31,3.01-16.62,6.02-24.93,9.02-1.17.42-2.35.85-3.52,1.27-1.8.65-1.02,3.55.8,2.89,8.31-3.01,16.62-6.02,24.93-9.02,1.17-.42,2.35-.85,3.52-1.27l-1.85-1.05c2.37,7.03,4.75,14.06,7.12,21.09l1.03,3.05c.2.58.77,1.16,1.45,1.1,2.72-.25,5.48-.23,8.2-.06,4.16.25,9.22.81,12.58,3.51,1.51,1.21,2.33,2.81,2.31,4.77-.02,1.45-.72,2.75-1.89,3.96-3.29,3.38-8.17,5.27-12.52,6.84-9.38,3.39-19.27,5.49-29.1,7.08-.08.01-.73.06-.75.12l.4.24h0s0-.02,0-.03c.01-.02-.04-.07-.03-.1.05-.19-.25-.72-.31-.91l-1.32-3.88-4.55-13.36c-2.67-7.83-5.26-15.69-8-23.5-.05-.14-.1-.29-.15-.43-.62-1.82-3.52-1.04-2.89.8Z"/><path class="cls-4" d="m218.85,268.33l-6.59-6.11s-13.73,14.47-21.03,18.16l6.49,7.51s13.32-8.87,21.13-19.56Z"/><path class="cls-5" d="m219.91,267.27c-2.2-2.04-4.39-4.07-6.59-6.11-.58-.54-1.55-.61-2.12,0-2.48,2.61-5.05,5.13-7.67,7.6-3.97,3.74-8.16,7.82-13.06,10.33-.92.47-.9,1.67-.3,2.36,2.16,2.5,4.32,5.01,6.49,7.51.41.47,1.3.58,1.82.23,8.13-5.43,15.86-12.22,21.67-20.1,1.15-1.55-1.46-3.05-2.59-1.51-3.75,5.08-8.41,9.48-13.26,13.48-2.36,1.95-4.79,3.84-7.33,5.54l1.82.23c-2.16-2.5-4.32-5.01-6.49-7.51l-.3,2.36c5.02-2.58,9.37-6.77,13.45-10.59,2.7-2.53,5.34-5.12,7.88-7.8h-2.12c2.2,2.04,4.39,4.07,6.59,6.11,1.41,1.31,3.54-.8,2.12-2.12Z"/><path class="cls-4" d="m252.95,268.64l6.59-6.11s5.28,6.98,11.79,12.49l2,13s-12.56-8.69-20.38-19.38Z"/><path class="cls-5" d="m254.01,269.71c2.2-2.04,4.39-4.07,6.59-6.11l-2.36-.3c3.05,4.02,6.49,7.79,10.21,11.19.32.3.65.59.98.88.23.2.73.64.45.08.05.1.04.28.06.4.11.68.21,1.36.31,2.04l.96,6.22c.22,1.44.44,2.88.66,4.32l2.2-1.69c-7.41-5.14-14.48-11.58-19.84-18.84-1.13-1.54-3.74-.04-2.59,1.51,5.68,7.7,13.05,14.46,20.91,19.92,1.2.83,2.38-.54,2.2-1.69-.51-3.31-1.02-6.61-1.53-9.92-.16-1.04-.09-2.71-.74-3.59-.53-.72-1.43-1.29-2.09-1.9-.74-.68-1.46-1.37-2.17-2.08-1.24-1.24-2.45-2.52-3.62-3.83-.97-1.09-1.92-2.19-2.83-3.32-.28-.34-.55-.68-.82-1.03-.08-.09-.38-.48-.06-.07-.02-.03-.05-.06-.07-.1-.59-.78-1.58-1.02-2.36-.3-2.2,2.04-4.39,4.07-6.59,6.11-1.42,1.32.71,3.43,2.12,2.12Z"/><path class="cls-1" d="m142.55,240.71c2.5-1.11,3.48-5.62,4.6-7.82,1.36-2.66,4.44-3.01,6.09-5.27,1.12-1.53,1.56-4.56.14-6.15-1.24-1.38-4.47-.33-5.96.4-.96.47-2,1.35-2.82,2.06-.73.64-1.27,2.15-2.06,2.48l-.22-.39c-.59-5.23.73-6.84-.46-12.28-.81-3.67-3.62-3.58-5.13-.12s-.14,6.33-.29,9.85c-1.1-2.44-2.06-4.7-2.96-7.2s-2.77-3.5-4.32-.94c-2.43,4.04,1.98,7.07,1.46,10.95-.43-2.32-8.3-12.28-9.4-6.26-.65,3.59,3.24,8.79,5.34,11.45-2.05-.38-4.61-4.04-6.94-3.22-2.88,1.02-1.39,5.16.22,6.5,1.94,1.62,5.27,3.12,7.66,3.99s4.86,2.06,7.33,2.6c1.91.42,7.51,1.4,8.79-.4"/><path class="cls-5" d="m143.31,242c2.44-1.21,3.44-4.13,4.36-6.5.44-1.14.83-2.29,1.77-3.13,1.03-.91,2.33-1.47,3.42-2.3,2.26-1.73,3.44-4.69,2.72-7.51-.79-3.11-3.64-3.66-6.42-2.93-1.5.4-2.88,1.07-4.11,2.01-.71.54-1.44,1.09-2,1.8-.39.49-.7,1.36-1.26,1.67l2.05.54c-.13-.23-.14-.41-.07-.08-.11-.45-.08-.99-.1-1.45-.03-.71-.02-1.42.01-2.13.06-1.31.2-2.61.19-3.92-.02-2.55-.2-6.57-2.65-8.07s-4.82.71-5.79,2.86c-1.58,3.51-.4,6.96-.49,10.61l2.8-.76c-.67-1.48-1.32-2.97-1.91-4.48-.52-1.31-.88-2.8-1.67-3.98-1.31-1.93-3.71-2.57-5.45-.77s-2.12,4.32-1.4,6.61c.64,2.06,2.06,3.94,1.84,6.18l2.95-.4c-.33-1.53-1.48-2.98-2.41-4.19-1.21-1.56-2.57-3.09-4.23-4.18-1.39-.9-3.32-1.39-4.62-.05-1.65,1.7-1.26,4.6-.52,6.6,1.15,3.14,3.17,5.86,5.22,8.46l1.46-2.51c-1.33-.32-2.42-1.54-3.53-2.28-1.25-.82-2.71-1.39-4.2-.94-3.17.96-3.12,4.64-1.88,7.09,1.47,2.92,5.07,4.37,7.92,5.57,3.43,1.44,6.97,3,10.65,3.62,2.52.42,6.89,1.25,8.78-1.07,1.21-1.49-.9-3.62-2.12-2.12-.64.79-2.19.63-3.1.6-1.31-.05-2.6-.24-3.88-.5-1.93-.4-3.75-1.13-5.57-1.85s-3.76-1.41-5.57-2.3c-1.35-.67-3.12-1.44-4.06-2.67-.53-.7-1.21-2.07-.83-2.97.53-1.24,2.1-.03,2.75.42,1.22.86,2.36,1.94,3.85,2.31s2.35-1.37,1.46-2.51c-1.74-2.21-3.57-4.62-4.51-7.29-.36-1.01-.71-2.27-.29-3.32.18-.44.13-.11.04-.19.07.06-.14-.08.05.02-.23-.12.08.02.17.05,1.33.45,2.75,2.07,3.73,3.25.59.71,1.13,1.46,1.62,2.24.19.31.37.62.53.94s.11.15.21.59c.39,1.77,2.79,1.18,2.95-.4.18-1.78-.45-3.4-1.15-5.01-.59-1.36-1.39-2.88-.9-4.39.13-.4.65-1.6,1.1-1.49.64.16.99,1.66,1.17,2.14.84,2.26,1.8,4.48,2.79,6.69.65,1.43,2.76.62,2.8-.76.07-2.75-.92-5.64-.16-8.34.15-.54.82-2.62,1.66-2.61.53,0,.75.84.87,1.25.64,2.21.61,4.54.46,6.81-.13,2.01-.56,4.8.47,6.59.41.71,1.35.93,2.05.54,1.3-.72,1.81-2.27,2.94-3.2s2.3-1.6,3.72-1.98c1.06-.28,2.3-.58,2.69.68s0,2.77-.78,3.73c-.91,1.1-2.34,1.67-3.48,2.48s-2.14,1.84-2.74,3.16c-.97,2.14-1.56,5.69-3.85,6.83-1.73.86-.21,3.45,1.51,2.59h0Z"/><path class="cls-5" d="m245.65,192.88c-.36,3.87-.72,7.74-1.08,11.6-.86,9.24-1.72,18.49-2.59,27.73-1.04,11.17-2.08,22.35-3.13,33.52-.9,9.66-1.8,19.32-2.7,28.98l-.89,9.58c-.14,1.49-.38,3.02-.42,4.52,0,.07-.01.14-.02.2-.18,1.92,2.82,1.91,3,0,.36-3.87.72-7.74,1.08-11.6.86-9.24,1.72-18.49,2.59-27.73,1.04-11.17,2.08-22.35,3.13-33.52.9-9.66,1.8-19.32,2.7-28.98l.89-9.58c.14-1.49.38-3.02.42-4.52,0-.07.01-.14.02-.2.18-1.92-2.82-1.91-3,0h0Z"/><path class="cls-5" d="m233.87,241.5c3.86,0,3.87-6,0-6s-3.87,6,0,6h0Z"/><path class="cls-5" d="m230.97,266c3.86,0,3.87-6,0-6s-3.87,6,0,6h0Z"/><path class="cls-5" d="m228.07,290.49c3.86,0,3.87-6,0-6s-3.87,6,0,6h0Z"/><path class="cls-5" d="m236.77,217.01c3.86,0,3.87-6,0-6s-3.87,6,0,6h0Z"/><line class="cls-2" x1="143.15" y1="216.88" x2="200.15" y2="196.88"/><path class="cls-5" d="m143.59,218.48c6.45-2.26,12.9-4.52,19.34-6.79,10.19-3.58,20.38-7.15,30.57-10.73,2.36-.83,4.72-1.66,7.09-2.49,2-.7,1.14-3.9-.88-3.2-6.45,2.26-12.9,4.52-19.34,6.79-10.19,3.58-20.38,7.15-30.57,10.73-2.36.83-4.72,1.66-7.09,2.49-2,.7-1.14,3.9.88,3.2h0Z"/><path class="cls-5" d="m222.4,195.17c2.99,2.1,6.15,4.16,9.86,4.66.77.1,1.65-.19,1.85-1.05.16-.7-.22-1.73-1.05-1.85-.88-.12-1.74-.32-2.57-.6s-1.31-.5-2.15-.94c-1.55-.82-2.98-1.81-4.41-2.82-.64-.45-1.7-.14-2.05.54-.41.77-.15,1.57.54,2.05h0Z"/><path class="cls-5" d="m144.71,236.28c.23.6.33,1.25.43,1.88.04.21.07.42.1.64.04.24-.03-.22,0,.02.01.09.02.18.03.27.04.34.08.69.09,1.03.06,2.22-.47,4.54-.95,6.7-.18.79.24,1.62,1.05,1.85.75.21,1.67-.25,1.85-1.05.28-1.26.53-2.53.71-3.82.17-1.2.38-2.46.35-3.68-.02-.85-.16-1.7-.29-2.54-.11-.7-.22-1.43-.47-2.09-.29-.76-1.01-1.28-1.85-1.05-.73.2-1.34,1.08-1.05,1.85h0Z"/><path class="cls-1" d="m269.12,175.69c-2.97,5.44-5.5,10.17-11.19,12.76-3.47,1.58-7.4,2.26-11.38,2.13-7.15-.21-14.44-3.01-19.35-7.72-3.88-3.71-5.53-8.99-6.05-14.22v-.04c-.01-.05-.02-.1-.02-.15-.29-3.12-.45-4.77-.18-7.9-7,3-8.06-3.99-6.96-6.48.55-1.26,1.94-3.88,4.71-2.81,1.52.59,1.74,1.53,2.25,2.29l.36-.15c.49-2.75,1.8-6.82,2.64-8.85.38.12,2.78-.03,3.18-.04,8.22-.32,18.56-5.7,18.82-14.96l.29-.22c.1,1.97,3.8,5.85,5.54,7.49,2.1,1.97,4.59,3.48,7.34,4.33,3.28,1.02,10.94,2.86,13.46-.53l.37.93s2.17,23.14-3.83,34.14Z"/><path class="cls-5" d="m267.83,174.93c-1.99,3.64-3.96,7.47-7.22,10.13-3.79,3.1-9.04,4.13-13.82,4.02-8.96-.21-19.22-4.64-22.56-13.53-1.76-4.67-2.17-10.06-1.77-15,.07-.9-1.03-1.8-1.9-1.45-1.23.51-2.97,1.15-4.18.25-.87-.64-1.19-1.89-1.24-2.89-.06-1.16.16-1.93.84-2.91.41-.6.94-1.11,1.72-1.03,1.09.11,1.46.99,1.97,1.79.32.5,1.08.95,1.69.69.8-.33,1.26-.64,1.47-1.52.24-1.02.46-2.04.74-3.06.52-1.85,1.11-3.69,1.84-5.47l-1.85,1.05c2.14.43,4.86,0,6.98-.37,2.74-.48,5.42-1.43,7.85-2.77,5.01-2.76,8.82-7.43,9.07-13.31l-.74,1.3.29-.22-2.26-1.3c.29,2.83,2.78,5.3,4.66,7.24,2.43,2.52,5.23,4.56,8.54,5.76,2.56.92,5.33,1.5,8.04,1.69s5.88-.11,7.66-2.35l-2.51-.66c.09.24.48,1.27.32.53.02.07.01.16.02.23.03.46.07.93.1,1.39.12,1.88.2,3.76.24,5.64.11,5.71-.08,11.49-1.12,17.12-.57,3.09-1.37,6.21-2.87,9-.91,1.7,1.68,3.22,2.59,1.51,2.87-5.35,3.72-11.67,4.15-17.65.37-5.05.35-10.14.03-15.19-.08-1.22-.12-2.25-.57-3.38-.37-.92-1.73-1.64-2.51-.66-1.36,1.7-3.88,1.61-5.85,1.44-2.21-.19-4.44-.72-6.54-1.43-2.88-.97-5.29-2.76-7.4-4.91-.86-.88-1.71-1.79-2.46-2.77-.52-.67-1.44-1.75-1.53-2.57-.1-.99-1.25-2.06-2.26-1.3-.48.37-.89.67-1.01,1.32s-.09,1.26-.21,1.88c-.25,1.24-.7,2.41-1.35,3.5-1.28,2.16-3.22,3.85-5.36,5.13s-4.68,2.24-7.22,2.75c-1.1.22-2.2.34-3.32.39-.45.02-.9.04-1.35.06-.31.01-.63.02-.94.02-.1,0-.76-.07-.38,0-.87-.18-1.52.25-1.85,1.05-1.15,2.84-2.08,5.84-2.64,8.85l1.05-1.05-.36.15,1.69.69c-.84-1.33-1.59-2.43-3.15-2.98-1.45-.52-3-.34-4.24.6-1.68,1.26-2.66,3.41-2.73,5.49-.07,1.94.54,4.09,1.98,5.45,2.01,1.9,4.87,1.63,7.25.65l-1.9-1.45c-.4,4.93.02,10.35,1.61,15.06,1.64,4.87,4.76,8.65,9.05,11.44,8.63,5.61,21.54,7.27,30.56,1.62,4.59-2.87,7.21-7.61,9.74-12.23.93-1.7-1.66-3.21-2.59-1.51Z"/><path class="cls-5" d="m242.74,171.53c1.78,2.4,2.27,5.59,4.88,7.36,3.1,2.1,7.42.74,9.87-1.72,1.54-1.55,2.62-3.5,3.47-5.5.27-.62.28-1.3-.23-1.82-.45-.45-1.27-.6-1.82-.23-2.05,1.36-4.57,1.73-6.99,1.63s-4.91-.75-6.92-2.16c-.66-.47-1.67-.12-2.05.54-.44.75-.13,1.59.54,2.05,2.43,1.71,5.5,2.45,8.43,2.57s6.04-.4,8.51-2.04l-2.05-2.05c-1.36,3.18-3.74,7.25-7.8,6.69-1.48-.2-2.21-1.17-2.92-2.49-.78-1.45-1.32-3.02-2.31-4.34-.48-.65-1.3-.98-2.05-.54-.64.37-1.02,1.4-.54,2.05h0Z"/><ellipse class="cls-4" cx="247.15" cy="157.01" rx="1.82" ry="2.99"/><path class="cls-5" d="m247.47,157.01c0,.13,0,.27-.02.4,0,.03-.03.15-.02.19-.05-.19.05-.29.01-.12-.06.26-.15.51-.22.77,0-.02.16-.34.05-.13-.03.05-.05.1-.07.14-.05.08-.13.17-.16.26,0-.02.25-.29.1-.13-.03.03-.06.07-.1.1-.01.01-.09.1-.1.09,0,0,.36-.23.12-.1-.04.02-.08.04-.11.06-.14.1.35-.12.19-.08-.07.02-.38.08-.07.03l.14-.02s-.08,0-.12,0c.01-.02.41.09.22.03-.04-.01-.08-.02-.12-.03-.22-.05.3.16.16.07-.05-.03-.33-.22-.09-.04s-.03-.05-.07-.09c-.22-.22.18.29.01.01-.06-.1-.12-.21-.17-.31-.11-.2.04.11.05.13-.01-.05-.04-.11-.06-.16-.04-.11-.07-.23-.1-.34-.02-.08-.02-.3-.08-.36.08.09.03.32.02.11,0-.1-.02-.2-.02-.29-.01-.27.03-.53.03-.79,0,.03-.07.37-.01.12.01-.06.02-.12.04-.18.03-.13.07-.26.11-.39.02-.05.04-.11.06-.16.06-.18-.14.29-.05.13.05-.09.1-.19.15-.28.03-.04.06-.08.08-.13.09-.16-.22.25-.1.13.07-.07.16-.15.22-.22-.18.24-.27.18-.15.11.03-.02.08-.04.11-.07.17-.12-.16.09-.19.07,0,0,.1-.03.12-.04.04-.01.08-.01.12-.03-.37.11-.34.03-.19.04.18,0-.38-.08-.22-.03.05.01.1.03.15.04.2.05-.19-.06-.19-.08,0,0,.16.09.16.1.12.07.04.13-.15-.11.03.04.09.08.12.12.03.03.06.07.09.11.12.12-.2-.31-.08-.1.07.11.13.22.2.34s0,.16-.05-.13c.01.07.05.14.07.2.04.13.08.26.11.39.01.06.02.12.04.18.08.32-.02-.36,0-.02.01.17.02.33.02.49,0,.78.68,1.54,1.5,1.5s1.51-.66,1.5-1.5c-.02-1.52-.56-3.34-1.98-4.13-1.53-.85-3.26-.04-4.03,1.43s-.87,3.25-.29,4.74c.32.8.75,1.47,1.46,1.98.63.45,1.5.59,2.24.37,1.84-.55,2.58-2.64,2.59-4.39,0-.78-.7-1.54-1.5-1.5s-1.49.66-1.5,1.5Z"/><path class="cls-5" d="m186.55,199.78c-3.3-2.25-4.48-6.34-6.55-9.57-2.17-3.4-5.74-6.12-6.71-10.18l-1.05,1.85c4.02-1.39,8.74.31,12.73,1.05,4.13.77,8.78,1.38,12.24-1.52,1.48-1.24-.65-3.36-2.12-2.12-2.93,2.46-7.88,1.05-11.2.38-3.96-.81-8.47-2.05-12.45-.68-.79.27-1.25,1.01-1.05,1.85,1.08,4.52,4.85,7.39,7.19,11.19s3.69,7.8,7.44,10.35c1.6,1.09,3.1-1.51,1.51-2.59h0Z"/><path class="cls-5" d="m172.73,181.99c8.1-2.3,16.5-3.48,24.83-4.67.81-.12,1.24-1.13,1.05-1.85-.23-.86-1.05-1.16-1.85-1.05-8.32,1.19-16.72,2.37-24.83,4.67-1.85.53-1.07,3.42.8,2.89h0Z"/><ellipse class="cls-4" cx="259.1" cy="156.39" rx="1.82" ry="2.99"/><path class="cls-5" d="m259.43,156.39c0,.13,0,.27-.02.4,0,.03-.03.15-.02.19-.05-.19.05-.29.01-.12-.06.26-.15.51-.22.77,0-.02.16-.34.05-.13-.03.05-.05.1-.07.14-.05.08-.13.17-.16.26,0-.02.25-.29.1-.13-.03.03-.06.07-.1.1-.01.01-.09.1-.1.09,0,0,.36-.23.12-.1-.04.02-.08.04-.11.06-.14.1.35-.12.19-.08-.07.02-.38.08-.07.03l.14-.02s-.08,0-.12,0c.01-.02.41.09.22.03-.04-.01-.08-.02-.12-.03-.22-.05.3.16.16.07-.05-.03-.33-.22-.09-.04s-.03-.05-.07-.09c-.22-.22.18.29.01.01-.06-.1-.12-.21-.17-.31-.11-.2.04.11.05.13-.01-.05-.04-.11-.06-.16-.04-.11-.07-.23-.1-.34-.02-.08-.02-.3-.08-.36.08.09.03.32.02.11,0-.1-.02-.2-.02-.29-.01-.27.03-.53.03-.79,0,.03-.07.37-.01.12.01-.06.02-.12.04-.18.03-.13.07-.26.11-.39.02-.05.04-.11.06-.16.06-.18-.14.29-.05.13.05-.09.1-.19.15-.28.03-.04.06-.08.08-.13.09-.16-.22.25-.1.13.07-.07.16-.15.22-.22-.18.24-.27.18-.15.11.03-.02.08-.04.11-.07.17-.12-.16.09-.19.07,0,0,.1-.03.12-.04.04-.01.08-.01.12-.03-.37.11-.34.03-.19.04.18,0-.38-.08-.22-.03.05.01.1.03.15.04.2.05-.19-.06-.19-.08,0,0,.16.09.16.1.12.07.04.13-.15-.11.03.04.09.08.12.12.03.03.06.07.09.11.12.12-.2-.31-.08-.1.07.11.13.22.2.34s0,.16-.05-.13c.01.07.05.14.07.2.04.13.08.26.11.39.01.06.02.12.04.18.08.32-.02-.36,0-.02.01.17.02.33.02.49,0,.78.68,1.54,1.5,1.5s1.51-.66,1.5-1.5c-.02-1.52-.56-3.34-1.98-4.13-1.53-.85-3.26-.04-4.03,1.43s-.87,3.25-.29,4.74c.32.8.75,1.47,1.46,1.98.63.45,1.5.59,2.24.37,1.84-.55,2.58-2.64,2.59-4.39,0-.78-.7-1.54-1.5-1.5s-1.49.66-1.5,1.5Z"/><path class="cls-1" d="m204.5,407.5c-.49,2.25-7.53,3.02-9.61,3.41-10.46,1.32-21.07,1.39-31.53-.14-10.11-1.52-9.56-5.2.21-6.58,8.69-1.28,17.56-1.22,26.28-.39-7-.22-14.01-.08-20.95.62-23.63,2.74-6.23,6.01,5.01,6.48,4.63.33,29.08.7,30.59-3.41h0Z"/><path class="cls-1" d="m212.85,410.7c-13.59,6.69-39.43,6.59-54.32,3.86-15.89-2.79-17.91-10.59-.71-13.79,9.05-1.72,18.29-1.89,27.44-1.31,0,0,0,.2,0,.2-9.12.16-18.26.82-27.09,2.75-14.89,3.6-12.79,7.22.76,10.17,8.84,1.79,17.98,2.22,27.06,2.13,8.98-.35,18.41-.55,26.77-4.18,0,0,.1.17.1.17h0Z"/></svg>