<svg width="48" height="361" viewBox="0 0 48 361" fill="none" xmlns="http://www.w3.org/2000/svg">
<path d="M4.26069 2.73981C6.83069 1.46981 9.78069 2.60983 10.8207 5.28983C12.2607 9.02983 14.0207 13.6898 15.8907 18.6798C30.2107 57.0098 39.8607 97.6898 43.8907 139.44C45.2107 153.13 45.9507 166.85 45.9507 180.54C45.9707 194.2 45.2307 207.9 43.9207 221.56C39.9107 263.35 30.2507 304.07 15.9107 342.43C14.0507 347.42 12.2907 352.06 10.8507 355.79C9.82066 358.47 6.87066 359.61 4.29066 358.34L4.25068 358.32C2.21068 357.31 1.1907 355.01 1.7707 352.81C6.4807 335.15 9.95066 317.08 12.7307 298.91C18.5907 259.93 20.9707 220.28 20.9507 180.53C20.9907 140.78 18.6107 101.13 12.7507 62.1398C9.97068 43.9698 6.49071 25.8998 1.78071 8.23981C1.19071 6.04981 2.22069 3.73981 4.26069 2.73981Z" fill="#D1DAED" stroke="#4D67B0" stroke-width="2.5" stroke-miterlimit="10" stroke-linecap="round" stroke-linejoin="round"/>
</svg>
