<svg width="64" height="64" viewBox="0 0 64 64" fill="none" xmlns="http://www.w3.org/2000/svg">
<path d="M38.5341 11.9605V10.5H26.2301V11.9605C14.6265 14.7344 6 25.1647 6 37.6159C6 52.186 17.8137 63.9997 32.3838 63.9997C46.954 63.9997 58.7677 52.186 58.7677 37.6159C58.7642 25.1612 50.1377 14.7309 38.5341 11.9605Z" fill="#0EA84C"/>
<path d="M8.04541 27.4238L42.4393 13.2284C41.182 12.71 39.879 12.2827 38.5341 11.9605V10.5H36.986L12.0732 20.7831C10.4236 22.7725 9.05761 25.0071 8.04541 27.4238Z" fill="#47BFFE"/>
<path d="M26.23 6.9033V11.2288H38.534V6.9033H33.0913C33.7777 5.95064 35.1577 3.90521 35.1577 2.77393C35.1577 1.24687 33.9143 0 32.3838 0C30.8567 0 29.6098 1.24336 29.6098 2.77393C29.6098 3.90521 30.9863 5.95064 31.6763 6.9033H26.23ZM34.163 2.77393C34.163 3.4534 33.1893 5.05051 32.3803 6.19231C31.5712 5.05051 30.5975 3.4534 30.5975 2.77393C30.5975 1.78974 31.3961 0.99119 32.3803 0.99119C33.3644 0.99119 34.163 1.79325 34.163 2.77393Z" fill="#EFE1BD"/>
<path d="M27.3053 63.5061L54.2425 52.3859C55.542 50.4666 56.5892 48.3616 57.3527 46.1235L20.6787 61.2611C22.7522 62.2873 24.9727 63.0508 27.3053 63.5061Z" fill="#47BFFE"/>
<path d="M12.4933 54.9423L58.701 35.8715C58.5959 34.2709 58.3507 32.7054 57.9725 31.1958L9.7124 51.1106C10.525 52.4731 11.4601 53.7515 12.4933 54.9423Z" fill="#47BFFE"/>
<path d="M6.50068 42.7406L54.3404 22.9939C53.4473 21.6594 52.4351 20.4091 51.3213 19.2603L6.00684 37.9633C6.02785 39.5954 6.19597 41.1925 6.50068 42.7406Z" fill="#47BFFE"/>
</svg>
