<svg width="131" height="45" viewBox="0 0 131 45" fill="none" xmlns="http://www.w3.org/2000/svg">
<path d="M23.5182 33.2851C23.6742 33.3295 23.833 33.3489 23.989 33.3489C24.3261 33.3489 24.6576 33.2518 24.9446 33.0659C27.3627 31.49 29.5162 29.3371 31.3883 26.6431L36.3778 28.6407L22.22 36.8502L6.01172 29.1179L8.79481 27.3977C15.8292 31.1099 23.1393 33.1797 23.5126 33.2851H23.5182Z" fill="#F9FAFC"/>
<path d="M15.1719 4.40039C12.9376 14.9128 5.05078 23.139 5.05078 23.139C12.9376 28.5186 23.9892 31.6094 23.9892 31.6094C34.049 25.0534 36.3446 9.16134 36.3446 9.16134C28.2739 8.29849 15.1719 4.40039 15.1719 4.40039ZM22.9724 15.5315C23.1479 14.5243 24.109 13.8501 25.1203 14.0222C26.1315 14.197 26.8085 15.1541 26.6358 16.1613C26.4603 17.1684 25.4992 17.8426 24.4879 17.6706C23.4766 17.4958 22.7996 16.5386 22.9724 15.5315ZM16.8156 14.4716C16.9911 13.4645 17.9522 12.7903 18.9635 12.9623C19.9747 13.1371 20.6517 14.0943 20.479 15.1014C20.3035 16.1085 19.3424 16.7827 18.3311 16.6107C17.3198 16.4359 16.6428 15.4787 16.8156 14.4716ZM27.0007 20.9139C26.2263 22.3039 23.8722 25.7775 18.8102 24.7038C15.0465 23.9047 14.4559 20.2009 14.3389 18.7415C14.3111 18.3891 14.6732 18.1422 14.9964 18.2865C16.4952 18.9524 20.4678 20.384 26.5829 20.2258C26.9422 20.2175 27.1763 20.6004 27.0007 20.9139Z" fill="#F9FAFC"/>
<path d="M38.5482 30.5273V28.2773C38.5482 27.9573 38.367 27.669 38.0827 27.5291L38.0245 27.5031L32.3244 25.2226C33.5038 23.3116 34.5578 21.1636 35.4837 18.7787L35.5728 18.5473C37.4505 13.631 38.0495 9.5802 38.0745 9.41096C38.1398 8.97402 38.0313 8.52977 37.7788 8.16734L37.7264 8.09592C37.4547 7.74737 37.0582 7.5158 36.6217 7.44708L36.5339 7.4356C28.7167 6.59493 15.8014 2.77445 15.6733 2.73561C15.5295 2.69192 15.3835 2.6696 15.2373 2.66467L15.1746 2.66355C14.8626 2.66355 14.5534 2.74686 14.2832 2.90778L14.2057 2.95593C13.8263 3.20625 13.5609 3.59517 13.4669 4.04253C11.3636 13.9247 3.86452 21.8594 3.78875 21.9376L3.75607 21.9725C3.42431 22.3381 3.26385 22.8274 3.31783 23.3193C3.37077 23.827 3.64389 24.2848 4.06455 24.5733C5.04796 25.2419 6.07591 25.8773 7.12061 26.4766L4.05339 28.3716C3.80827 28.5242 3.65774 28.7932 3.65771 29.079V31.2348L3.65899 31.3064C3.68481 32.0432 4.10832 32.6992 4.77492 33.0271L21.0974 41.0702C21.4343 41.2366 21.7982 41.325 22.1591 41.3354L22.2313 41.3365C22.6909 41.3365 23.1478 41.2116 23.5545 40.9675L37.3391 32.6637C38.0857 32.2142 38.5482 31.3957 38.5482 30.5273ZM39.5276 30.5273C39.5276 31.7398 38.8848 32.8765 37.8443 33.5028L37.8442 33.5027L24.06 41.8065L24.0587 41.8073C23.5001 42.1426 22.869 42.316 22.2313 42.316C21.6971 42.316 21.1585 42.1929 20.6636 41.9484V41.9482L4.34194 33.9057V33.9055C3.3201 33.4026 2.67824 32.3745 2.67824 31.2348V29.079C2.67826 28.4507 3.00691 27.8691 3.53576 27.5399L3.53863 27.5383L5.23102 26.4926C4.64887 26.1341 4.07453 25.7646 3.51376 25.3833L3.51057 25.3811C2.85508 24.9315 2.4285 24.2179 2.34442 23.426L2.34426 23.4261C2.25674 22.6286 2.52851 21.8368 3.08173 21.2598L3.08332 21.258L3.08508 21.2563C3.08865 21.2525 3.55264 20.7628 4.27992 19.877C5.00959 18.9883 5.99949 17.7067 7.05174 16.1244C9.16289 12.9499 11.4927 8.6127 12.5088 3.83863C12.6659 3.09451 13.1269 2.45292 13.7819 2.06637V2.06621L13.7874 2.06302V2.06318C14.2106 1.81243 14.6914 1.68408 15.1746 1.68408C15.4291 1.68408 15.693 1.71803 15.958 1.79854L15.9578 1.7987C15.9605 1.79949 15.9735 1.80315 15.9995 1.81082C16.0271 1.81899 16.0669 1.8306 16.1181 1.84557C16.2204 1.87553 16.3682 1.91873 16.5573 1.97327C16.9354 2.08236 17.4782 2.23721 18.1507 2.42474C19.4958 2.79988 21.3584 3.3052 23.4598 3.83528C27.6766 4.89901 32.8021 6.04897 36.6372 6.46155C37.347 6.53684 38.0021 6.88753 38.4557 7.43975L38.4989 7.49379L38.5011 7.49666C38.9495 8.07626 39.1531 8.81752 39.0433 9.55444C39.0132 9.75785 38.4013 13.8867 36.4878 18.8967L36.4877 18.897C35.6768 21.0181 34.7645 22.966 33.7511 24.7383L38.3883 26.5938L38.3897 26.5943C39.0779 26.8709 39.5276 27.5356 39.5276 28.2773V30.5273Z" fill="#F9FAFC"/>
<g clip-path="url(#clip0_898_472)">
<g clip-path="url(#clip1_898_472)">
<path d="M127.671 33.3734C126.99 31.7601 124.695 32.7538 123.269 33.3734C121.843 33.9931 118.867 33.9931 120.603 30.3367C122.339 26.6773 125.315 19.9198 121.968 18.9904C118.622 18.0609 117.505 21.7174 117.195 22.5854C116.885 23.4535 113.6 32.1342 112.297 33.4348C110.996 34.7355 108.392 35.4194 107.647 32.3183C107.647 32.3183 119.054 7.02156 112.794 5.65954C106.533 4.29752 105.168 17.8125 105.168 19.9812C105.168 19.9812 95.9934 15.7666 91.0948 26.0577C86.1962 36.3488 85.144 34.0544 84.6471 32.3826C84.1502 30.7079 85.8864 26.2448 86.5703 23.7633C87.2513 21.2848 86.5703 19.9198 85.144 19.4843C83.7177 19.0518 81.7974 20.0426 80.9293 23.4535C80.0613 26.8644 77.7669 34.9868 75.2883 34.9225C72.8098 34.8611 74.0695 28.9863 75.6595 25.3855C77.3343 21.5917 77.2729 19.7942 74.9785 19.1745C73.0612 18.6572 71.6933 19.2359 70.267 21.7174C69.2849 23.4243 64.702 33.1192 60.0986 34.0544C56.2084 34.8436 55.1942 31.8857 58.2046 24.3888C62.7408 13.0864 69.773 5.31465 64.5792 3.08749C63.8953 2.79521 61.788 2.24865 59.0581 6.83743C56.3311 11.4291 50.3862 24.9412 50.9152 34.5513C51.3828 43.0333 62.3842 42.9222 67.9025 33.4348C67.9025 33.4348 68.2736 39.8825 73.295 40.1923C78.3164 40.5021 80.3623 36.7814 80.3623 36.7814C80.3623 36.7814 80.8592 40.0666 84.083 39.9439C87.3069 39.8211 90.1566 35.6035 90.1566 35.6035C90.1566 35.6035 92.3311 40.9347 97.2911 40.9347C102.251 40.9347 104.42 37.1526 104.42 37.1526C104.42 37.1526 105.349 40.1894 108.699 40.1894C112.048 40.1894 115.456 35.7877 115.456 35.7877C115.456 35.7877 116.634 39.8182 121.162 39.5084C125.689 39.1986 128.355 34.981 127.671 33.3705V33.3734ZM95.8648 29.7141C97.9107 22.7082 104.607 24.0585 104.607 24.0585C102.993 37.2637 94.041 35.963 95.8648 29.7141Z" fill="#F9FAFC"/>
<path d="M120.279 11.3996C120.279 11.3996 121.086 8.73405 123.564 9.16662C126.043 9.59919 125.672 12.6389 124.929 13.8489C124.274 14.9128 123.146 16.0732 121.147 15.1817C119.148 14.2903 120.279 11.3996 120.279 11.3996Z" fill="#F9FAFC"/>
</g>
</g>
<defs>
<clipPath id="clip0_898_472">
<rect width="78.3576" height="39.1788" fill="white" transform="translate(50.23 2.41064)"/>
</clipPath>
<clipPath id="clip1_898_472">
<rect width="76.8957" height="38.0372" fill="white" transform="translate(50.8828 2.90039)"/>
</clipPath>
</defs>
</svg>
