<svg width="181" height="32" viewBox="0 0 181 32" fill="none" xmlns="http://www.w3.org/2000/svg">
<path d="M0.600608 25.3438C0.508413 25.199 0.459473 25.0312 0.459473 24.8598C0.459473 24.6885 0.508413 24.5207 0.600608 24.3759C6.29027 15.0095 4.41993 1.59985 4.41993 1.45935C4.39839 1.32358 4.40999 1.18466 4.45374 1.05427C4.49753 0.923876 4.57214 0.805826 4.6714 0.710038C4.77422 0.615977 4.8962 0.544988 5.02908 0.501891C5.16197 0.458795 5.30265 0.444598 5.44153 0.460267C18.9742 2.34916 26.8485 0.460267 26.9271 0.460267C27.1461 0.398465 27.3804 0.420262 27.584 0.52137C27.7876 0.622479 27.9457 0.795582 28.0273 1.00664C34.0628 14.947 26.3299 30.4954 25.9998 31.151C25.9198 31.3015 25.7999 31.4275 25.6532 31.5157C25.5064 31.6036 25.3382 31.6503 25.1668 31.6506C5.06431 31.6506 0.757781 25.6248 0.600608 25.3438ZM6.38459 2.41161C6.69894 5.92404 7.2176 16.4613 2.48669 24.7505C3.82266 25.9682 9.16654 29.746 24.601 29.8397C25.8426 27.139 31.2495 14.0572 26.6128 2.396C19.9107 3.43062 13.0883 3.43588 6.38459 2.41161Z" fill="#F9FAFC"/>
<path d="M19.3265 14.9855C20.4261 14.9855 21.3176 14.111 21.3176 13.0323C21.3176 11.9536 20.4261 11.0791 19.3265 11.0791C18.2269 11.0791 17.3354 11.9536 17.3354 13.0323C17.3354 14.111 18.2269 14.9855 19.3265 14.9855Z" fill="#F9FAFC"/>
<path d="M13.3375 14.9855C14.4371 14.9855 15.3285 14.111 15.3285 13.0323C15.3285 11.9536 14.4371 11.0791 13.3375 11.0791C12.2379 11.0791 11.3464 11.9536 11.3464 13.0323C11.3464 14.111 12.2379 14.9855 13.3375 14.9855Z" fill="#F9FAFC"/>
<path d="M9.02351 15.6984H8.89711C8.6943 15.69 8.4962 15.7599 8.34548 15.8933C8.19476 16.0267 8.10343 16.2128 8.0912 16.4115C7.96985 18.3003 8.5259 20.1712 9.66303 21.7001C10.8001 23.2289 12.4466 24.3193 14.3172 24.7824C16.4522 25.3432 18.7266 25.0534 20.6447 23.9761C22.5628 22.8988 23.969 21.1214 24.5569 19.0313C24.5724 18.9273 24.5667 18.8214 24.54 18.7196C24.5134 18.6178 24.4663 18.5223 24.4016 18.4386C24.3369 18.3549 24.2558 18.2847 24.163 18.2321C24.0703 18.1795 23.9678 18.1455 23.8616 18.1322L9.02351 15.6984Z" fill="#F9FAFC"/>
<path d="M44.4458 24.5381C44.2677 24.5381 44.122 24.4814 44.0086 24.3681C43.8953 24.2547 43.8386 24.1171 43.8386 23.9552V8.14506C43.8386 7.96696 43.8953 7.82125 44.0086 7.70791C44.122 7.59458 44.2677 7.53791 44.4458 7.53791H46.3644C46.5911 7.53791 46.7611 7.60267 46.8744 7.7322C46.9877 7.84553 47.0606 7.93458 47.093 7.99935L51.7802 16.7423L56.5159 7.99935C56.5483 7.93458 56.6212 7.84553 56.7345 7.7322C56.8478 7.60267 57.0178 7.53791 57.2445 7.53791H59.1388C59.3169 7.53791 59.4626 7.59458 59.5759 7.70791C59.6893 7.82125 59.7459 7.96696 59.7459 8.14506V23.9552C59.7459 24.1171 59.6893 24.2547 59.5759 24.3681C59.4626 24.4814 59.3169 24.5381 59.1388 24.5381H57.0988C56.9207 24.5381 56.775 24.4814 56.6616 24.3681C56.5645 24.2547 56.5159 24.1171 56.5159 23.9552V13.4394L53.1159 19.9238C53.0349 20.0695 52.9297 20.199 52.8002 20.3123C52.6706 20.4095 52.5006 20.458 52.2902 20.458H51.2944C51.0678 20.458 50.8897 20.4095 50.7601 20.3123C50.6468 20.199 50.5497 20.0695 50.4687 19.9238L47.0687 13.4394V23.9552C47.0687 24.1171 47.012 24.2547 46.8987 24.3681C46.7853 24.4814 46.6477 24.5381 46.4858 24.5381H44.4458ZM68.6722 24.7809C66.875 24.7809 65.4502 24.2628 64.3978 23.2266C63.3455 22.1904 62.7788 20.7171 62.6978 18.8066C62.6816 18.6447 62.6735 18.4423 62.6735 18.1994C62.6735 17.9404 62.6816 17.738 62.6978 17.5923C62.7626 16.3618 63.0378 15.3094 63.5236 14.4351C64.0255 13.5446 64.7136 12.8646 65.5879 12.3951C66.4622 11.9094 67.4903 11.6665 68.6722 11.6665C69.9836 11.6665 71.0846 11.9418 71.9751 12.4922C72.8656 13.0265 73.5375 13.7794 73.9908 14.7508C74.4441 15.7061 74.6708 16.8152 74.6708 18.078V18.588C74.6708 18.7499 74.6141 18.8876 74.5008 19.0009C74.3875 19.1142 74.2418 19.1709 74.0637 19.1709H66.0007C66.0007 19.1709 66.0007 19.1952 66.0007 19.2437C66.0007 19.2923 66.0007 19.3328 66.0007 19.3652C66.0169 19.9318 66.1221 20.458 66.3164 20.9438C66.5269 21.4133 66.8264 21.7938 67.215 22.0852C67.6198 22.3766 68.0974 22.5224 68.6479 22.5224C69.1012 22.5224 69.4817 22.4576 69.7893 22.3281C70.097 22.1823 70.3479 22.0204 70.5422 21.8423C70.7365 21.6642 70.8741 21.5185 70.9551 21.4052C71.1008 21.2109 71.2141 21.0976 71.2951 21.0652C71.3922 21.0166 71.5298 20.9923 71.7079 20.9923H73.7965C73.9584 20.9923 74.0879 21.0409 74.1851 21.1381C74.2984 21.2352 74.347 21.3566 74.3308 21.5023C74.3146 21.7614 74.177 22.0771 73.9179 22.4495C73.6751 22.8219 73.3189 23.1862 72.8494 23.5424C72.3798 23.8986 71.7889 24.1981 71.0765 24.4409C70.3803 24.6676 69.5789 24.7809 68.6722 24.7809ZM66.0007 17.1309H71.3679V17.058C71.3679 16.4266 71.2627 15.8761 71.0522 15.4066C70.8417 14.9208 70.5341 14.5485 70.1293 14.2894C69.7246 14.0142 69.2388 13.8765 68.6722 13.8765C68.1055 13.8765 67.6198 14.0142 67.215 14.2894C66.8103 14.5485 66.5026 14.9208 66.2922 15.4066C66.0979 15.8761 66.0007 16.4266 66.0007 17.058V17.1309ZM82.9085 24.5381C81.9371 24.5381 81.1194 24.3681 80.4556 24.0281C79.7918 23.6881 79.298 23.1862 78.9742 22.5224C78.6504 21.8423 78.4884 21.0004 78.4884 19.9966V14.4837H76.5699C76.4079 14.4837 76.2703 14.427 76.157 14.3137C76.0437 14.2004 75.987 14.0546 75.987 13.8765V12.4922C75.987 12.3303 76.0437 12.1927 76.157 12.0794C76.2703 11.9661 76.4079 11.9094 76.5699 11.9094H78.4884V7.87792C78.4884 7.71601 78.537 7.57839 78.6342 7.46506C78.7475 7.35172 78.8932 7.29505 79.0713 7.29505H81.0385C81.2004 7.29505 81.338 7.35172 81.4513 7.46506C81.5647 7.57839 81.6213 7.71601 81.6213 7.87792V11.9094H84.6571C84.819 11.9094 84.9566 11.9661 85.0699 12.0794C85.1833 12.1927 85.2399 12.3303 85.2399 12.4922V13.8765C85.2399 14.0546 85.1833 14.2004 85.0699 14.3137C84.9566 14.427 84.819 14.4837 84.6571 14.4837H81.6213V19.7538C81.6213 20.4176 81.7347 20.9357 81.9613 21.3081C82.2042 21.6804 82.6171 21.8666 83.1999 21.8666H84.8757C85.0376 21.8666 85.1752 21.9233 85.2885 22.0366C85.4018 22.15 85.4585 22.2876 85.4585 22.4495V23.9552C85.4585 24.1171 85.4018 24.2547 85.2885 24.3681C85.1752 24.4814 85.0376 24.5381 84.8757 24.5381H82.9085ZM88.1958 24.5381C88.0339 24.5381 87.8963 24.4814 87.7829 24.3681C87.6696 24.2547 87.6129 24.1171 87.6129 23.9552V12.5165C87.6129 12.3384 87.6696 12.1927 87.7829 12.0794C87.8963 11.9661 88.0339 11.9094 88.1958 11.9094H90.163C90.3249 11.9094 90.4625 11.9661 90.5758 12.0794C90.7054 12.1927 90.7701 12.3384 90.7701 12.5165V13.5123C91.1425 12.9942 91.6201 12.5975 92.203 12.3222C92.802 12.047 93.4902 11.9094 94.2673 11.9094H95.263C95.4411 11.9094 95.5787 11.9661 95.6759 12.0794C95.7892 12.1927 95.8459 12.3303 95.8459 12.4922V14.2408C95.8459 14.4027 95.7892 14.5404 95.6759 14.6537C95.5787 14.767 95.4411 14.8237 95.263 14.8237H93.3687C92.5916 14.8237 91.9844 15.0423 91.5473 15.4794C91.1263 15.9004 90.9158 16.4994 90.9158 17.2766V23.9552C90.9158 24.1171 90.8592 24.2547 90.7458 24.3681C90.6325 24.4814 90.4868 24.5381 90.3087 24.5381H88.1958ZM103.16 24.7809C101.865 24.7809 100.772 24.5543 99.8812 24.1009C99.0069 23.6476 98.3349 23.0081 97.8654 22.1823C97.4121 21.3566 97.153 20.3933 97.0883 19.2923C97.0721 19.0009 97.064 18.6447 97.064 18.2237C97.064 17.8028 97.0721 17.4466 97.0883 17.1552C97.153 16.038 97.4202 15.0747 97.8897 14.2651C98.3754 13.4394 99.0554 12.7999 99.9297 12.3465C100.82 11.8932 101.897 11.6665 103.16 11.6665C104.423 11.6665 105.491 11.8932 106.366 12.3465C107.256 12.7999 107.936 13.4394 108.406 14.2651C108.891 15.0747 109.166 16.038 109.231 17.1552C109.247 17.4466 109.256 17.8028 109.256 18.2237C109.256 18.6447 109.247 19.0009 109.231 19.2923C109.166 20.3933 108.899 21.3566 108.43 22.1823C107.976 23.0081 107.305 23.6476 106.414 24.1009C105.54 24.5543 104.455 24.7809 103.16 24.7809ZM103.16 22.3766C104.018 22.3766 104.682 22.1095 105.151 21.5752C105.621 21.0247 105.88 20.2233 105.928 19.1709C105.945 18.928 105.953 18.6123 105.953 18.2237C105.953 17.8352 105.945 17.5194 105.928 17.2766C105.88 16.2242 105.621 15.4309 105.151 14.8966C104.682 14.3461 104.018 14.0708 103.16 14.0708C102.302 14.0708 101.638 14.3461 101.168 14.8966C100.699 15.4309 100.44 16.2242 100.391 17.2766C100.375 17.5194 100.367 17.8352 100.367 18.2237C100.367 18.6123 100.375 18.928 100.391 19.1709C100.44 20.2233 100.699 21.0247 101.168 21.5752C101.638 22.1095 102.302 22.3766 103.16 22.3766ZM118.37 24.5381C118.208 24.5381 118.071 24.4814 117.957 24.3681C117.844 24.2547 117.787 24.1171 117.787 23.9552V8.14506C117.787 7.96696 117.844 7.82125 117.957 7.70791C118.071 7.59458 118.208 7.53791 118.37 7.53791H124.66C126.619 7.53791 128.166 7.99125 129.299 8.89793C130.432 9.8046 130.999 11.1241 130.999 12.8565C130.999 14.0546 130.7 15.0504 130.1 15.8437C129.518 16.6371 128.732 17.2118 127.745 17.568L131.29 23.7609C131.339 23.8581 131.363 23.9471 131.363 24.0281C131.363 24.1738 131.307 24.2952 131.193 24.3924C131.096 24.4895 130.983 24.5381 130.853 24.5381H128.643C128.368 24.5381 128.158 24.4652 128.012 24.3195C127.866 24.1738 127.753 24.0281 127.672 23.8824L124.539 18.1266H121.163V23.9552C121.163 24.1171 121.107 24.2547 120.993 24.3681C120.896 24.4814 120.758 24.5381 120.58 24.5381H118.37ZM121.163 15.3823H124.588C125.575 15.3823 126.312 15.1637 126.798 14.7266C127.283 14.2732 127.526 13.6418 127.526 12.8323C127.526 12.0227 127.283 11.3913 126.798 10.9379C126.328 10.4684 125.591 10.2337 124.588 10.2337H121.163V15.3823ZM139.135 24.7809C137.338 24.7809 135.913 24.2628 134.86 23.2266C133.808 22.1904 133.241 20.7171 133.16 18.8066C133.144 18.6447 133.136 18.4423 133.136 18.1994C133.136 17.9404 133.144 17.738 133.16 17.5923C133.225 16.3618 133.5 15.3094 133.986 14.4351C134.488 13.5446 135.176 12.8646 136.05 12.3951C136.925 11.9094 137.953 11.6665 139.135 11.6665C140.446 11.6665 141.547 11.9418 142.438 12.4922C143.328 13.0265 144 13.7794 144.453 14.7508C144.907 15.7061 145.133 16.8152 145.133 18.078V18.588C145.133 18.7499 145.077 18.8876 144.963 19.0009C144.85 19.1142 144.704 19.1709 144.526 19.1709H136.463C136.463 19.1709 136.463 19.1952 136.463 19.2437C136.463 19.2923 136.463 19.3328 136.463 19.3652C136.479 19.9318 136.585 20.458 136.779 20.9438C136.989 21.4133 137.289 21.7938 137.678 22.0852C138.082 22.3766 138.56 22.5224 139.11 22.5224C139.564 22.5224 139.944 22.4576 140.252 22.3281C140.559 22.1823 140.81 22.0204 141.005 21.8423C141.199 21.6642 141.337 21.5185 141.418 21.4052C141.563 21.2109 141.677 21.0976 141.758 21.0652C141.855 21.0166 141.992 20.9923 142.17 20.9923H144.259C144.421 20.9923 144.55 21.0409 144.648 21.1381C144.761 21.2352 144.809 21.3566 144.793 21.5023C144.777 21.7614 144.639 22.0771 144.38 22.4495C144.138 22.8219 143.781 23.1862 143.312 23.5424C142.842 23.8986 142.251 24.1981 141.539 24.4409C140.843 24.6676 140.041 24.7809 139.135 24.7809ZM136.463 17.1309H141.83V17.058C141.83 16.4266 141.725 15.8761 141.515 15.4066C141.304 14.9208 140.997 14.5485 140.592 14.2894C140.187 14.0142 139.701 13.8765 139.135 13.8765C138.568 13.8765 138.082 14.0142 137.678 14.2894C137.273 14.5485 136.965 14.9208 136.755 15.4066C136.56 15.8761 136.463 16.4266 136.463 17.058V17.1309ZM153.371 24.5381C152.4 24.5381 151.582 24.3681 150.918 24.0281C150.254 23.6881 149.76 23.1862 149.437 22.5224C149.113 21.8423 148.951 21.0004 148.951 19.9966V14.4837H147.032C146.87 14.4837 146.733 14.427 146.619 14.3137C146.506 14.2004 146.449 14.0546 146.449 13.8765V12.4922C146.449 12.3303 146.506 12.1927 146.619 12.0794C146.733 11.9661 146.87 11.9094 147.032 11.9094H148.951V7.87792C148.951 7.71601 149 7.57839 149.097 7.46506C149.21 7.35172 149.356 7.29505 149.534 7.29505H151.501C151.663 7.29505 151.8 7.35172 151.914 7.46506C152.027 7.57839 152.084 7.71601 152.084 7.87792V11.9094H155.12C155.281 11.9094 155.419 11.9661 155.532 12.0794C155.646 12.1927 155.702 12.3303 155.702 12.4922V13.8765C155.702 14.0546 155.646 14.2004 155.532 14.3137C155.419 14.427 155.281 14.4837 155.12 14.4837H152.084V19.7538C152.084 20.4176 152.197 20.9357 152.424 21.3081C152.667 21.6804 153.08 21.8666 153.662 21.8666H155.338C155.5 21.8666 155.638 21.9233 155.751 22.0366C155.864 22.15 155.921 22.2876 155.921 22.4495V23.9552C155.921 24.1171 155.864 24.2547 155.751 24.3681C155.638 24.4814 155.5 24.5381 155.338 24.5381H153.371ZM158.658 24.5381C158.496 24.5381 158.359 24.4814 158.245 24.3681C158.132 24.2547 158.075 24.1171 158.075 23.9552V12.5165C158.075 12.3384 158.132 12.1927 158.245 12.0794C158.359 11.9661 158.496 11.9094 158.658 11.9094H160.625C160.787 11.9094 160.925 11.9661 161.038 12.0794C161.168 12.1927 161.233 12.3384 161.233 12.5165V13.5123C161.605 12.9942 162.083 12.5975 162.665 12.3222C163.265 12.047 163.953 11.9094 164.73 11.9094H165.726C165.904 11.9094 166.041 11.9661 166.138 12.0794C166.252 12.1927 166.308 12.3303 166.308 12.4922V14.2408C166.308 14.4027 166.252 14.5404 166.138 14.6537C166.041 14.767 165.904 14.8237 165.726 14.8237H163.831C163.054 14.8237 162.447 15.0423 162.01 15.4794C161.589 15.9004 161.378 16.4994 161.378 17.2766V23.9552C161.378 24.1171 161.322 24.2547 161.208 24.3681C161.095 24.4814 160.949 24.5381 160.771 24.5381H158.658ZM173.622 24.7809C172.327 24.7809 171.234 24.5543 170.344 24.1009C169.469 23.6476 168.797 23.0081 168.328 22.1823C167.875 21.3566 167.616 20.3933 167.551 19.2923C167.535 19.0009 167.526 18.6447 167.526 18.2237C167.526 17.8028 167.535 17.4466 167.551 17.1552C167.616 16.038 167.883 15.0747 168.352 14.2651C168.838 13.4394 169.518 12.7999 170.392 12.3465C171.283 11.8932 172.359 11.6665 173.622 11.6665C174.885 11.6665 175.954 11.8932 176.828 12.3465C177.718 12.7999 178.398 13.4394 178.868 14.2651C179.354 15.0747 179.629 16.038 179.694 17.1552C179.71 17.4466 179.718 17.8028 179.718 18.2237C179.718 18.6447 179.71 19.0009 179.694 19.2923C179.629 20.3933 179.362 21.3566 178.892 22.1823C178.439 23.0081 177.767 23.6476 176.877 24.1009C176.002 24.5543 174.917 24.7809 173.622 24.7809ZM173.622 22.3766C174.48 22.3766 175.144 22.1095 175.614 21.5752C176.083 21.0247 176.342 20.2233 176.391 19.1709C176.407 18.928 176.415 18.6123 176.415 18.2237C176.415 17.8352 176.407 17.5194 176.391 17.2766C176.342 16.2242 176.083 15.4309 175.614 14.8966C175.144 14.3461 174.48 14.0708 173.622 14.0708C172.764 14.0708 172.1 14.3461 171.631 14.8966C171.161 15.4309 170.902 16.2242 170.854 17.2766C170.837 17.5194 170.829 17.8352 170.829 18.2237C170.829 18.6123 170.837 18.928 170.854 19.1709C170.902 20.2233 171.161 21.0247 171.631 21.5752C172.1 22.1095 172.764 22.3766 173.622 22.3766Z" fill="#F9FAFC"/>
</svg>
