<svg xmlns="http://www.w3.org/2000/svg" viewBox="0 0 160.43 26.84"><defs><style>.cls-1{isolation:isolate;}.cls-2{fill:#fff;}</style></defs><title>Group 1589</title><g id="Layer_2" data-name="Layer 2"><g id="Layer_1-2" data-name="Layer 1"><g id="Group_1589" data-name="Group 1589"><g id="Metro_Retro" data-name="Metro Retro" class="cls-1"><g class="cls-1"><path class="cls-2" d="M37.19,20.19a.49.49,0,0,1-.16-.38V5.49a.53.53,0,0,1,.15-.39.46.46,0,0,1,.38-.16h1.78a.73.73,0,0,1,.66.42l4.25,7.88L48.5,5.36a.73.73,0,0,1,.66-.42h1.76a.5.5,0,0,1,.39.16.53.53,0,0,1,.16.39V19.81a.52.52,0,0,1-.16.39.56.56,0,0,1-.39.14H49a.51.51,0,0,1-.37-.15.52.52,0,0,1-.15-.38V10.35l-3.06,5.81a.79.79,0,0,1-.73.49h-.92a.86.86,0,0,1-.75-.49L40,10.35v9.46a.56.56,0,0,1-.14.38.53.53,0,0,1-.39.15H37.56A.5.5,0,0,1,37.19,20.19Z"/><path class="cls-2" d="M55.68,19.15a5.61,5.61,0,0,1-1.53-4l0-.55a6.19,6.19,0,0,1,1.44-4.33,5.86,5.86,0,0,1,8,0A6.1,6.1,0,0,1,65,14.49V15a.51.51,0,0,1-.16.38.53.53,0,0,1-.39.15H57.16v.18a3.45,3.45,0,0,0,.67,2,2.07,2.07,0,0,0,1.73.8,2.47,2.47,0,0,0,2-1,1.35,1.35,0,0,1,.3-.3,1.11,1.11,0,0,1,.38-.05h1.93a.58.58,0,0,1,.35.11.38.38,0,0,1,.14.31,2.05,2.05,0,0,1-.63,1.24A5.1,5.1,0,0,1,62.29,20a6.39,6.39,0,0,1-2.71.53A5.33,5.33,0,0,1,55.68,19.15ZM62,13.61v0a3.16,3.16,0,0,0-.65-2.08,2.39,2.39,0,0,0-3.53,0,3.21,3.21,0,0,0-.64,2.08v0Z"/><path class="cls-2" d="M69.48,19.3a4.27,4.27,0,0,1-1-3.07v-5H66.73a.52.52,0,0,1-.37-.16.51.51,0,0,1-.16-.37V9.43a.51.51,0,0,1,.16-.37.49.49,0,0,1,.37-.16h1.74V5.25a.49.49,0,0,1,.15-.38A.54.54,0,0,1,69,4.72h1.83a.5.5,0,0,1,.38.15.48.48,0,0,1,.14.38V8.9H74.1a.51.51,0,0,1,.38.16.5.5,0,0,1,.15.37v1.3a.5.5,0,0,1-.15.37.55.55,0,0,1-.38.16H71.35V16a2.56,2.56,0,0,0,.33,1.43,1.22,1.22,0,0,0,1.08.48H74.3a.49.49,0,0,1,.53.53v1.38a.56.56,0,0,1-.14.38.53.53,0,0,1-.39.15H72.5A4.05,4.05,0,0,1,69.48,19.3Z"/><path class="cls-2" d="M76.94,20.19a.52.52,0,0,1-.15-.38V9.45a.53.53,0,0,1,.15-.39.49.49,0,0,1,.37-.16h1.81a.55.55,0,0,1,.55.55v.9A3.75,3.75,0,0,1,82.84,8.9h.92a.53.53,0,0,1,.39.15.52.52,0,0,1,.14.38V11a.55.55,0,0,1-.14.37.53.53,0,0,1-.39.15H82a2.06,2.06,0,0,0-2.22,2.23v6a.52.52,0,0,1-.15.38.54.54,0,0,1-.38.15h-2A.51.51,0,0,1,76.94,20.19Z"/><path class="cls-2" d="M86.93,19.24a5.1,5.1,0,0,1-1.52-3.65l0-1,0-1A5.08,5.08,0,0,1,87,10a6.59,6.59,0,0,1,7.94,0,5,5,0,0,1,1.54,3.64c0,.18,0,.5,0,1s0,.79,0,1a5.13,5.13,0,0,1-1.51,3.65,6.71,6.71,0,0,1-8,0Zm5.8-1.63a3.38,3.38,0,0,0,.67-2.13c0-.15,0-.43,0-.86s0-.71,0-.86a3.39,3.39,0,0,0-.68-2.14,2.55,2.55,0,0,0-3.59,0,3.33,3.33,0,0,0-.68,2.14l0,.86,0,.86a3.26,3.26,0,0,0,.68,2.13,2.58,2.58,0,0,0,3.6,0Z"/><path class="cls-2" d="M104.33,20.19a.52.52,0,0,1-.15-.38V5.49a.52.52,0,0,1,.14-.39.48.48,0,0,1,.39-.16h5.69a6.48,6.48,0,0,1,4.24,1.26,4.33,4.33,0,0,1,1.53,3.56,4.6,4.6,0,0,1-.77,2.7A4.31,4.31,0,0,1,113.24,14l3.19,5.61a.64.64,0,0,1,.07.24.43.43,0,0,1-.15.33.43.43,0,0,1-.31.13h-2a.84.84,0,0,1-.55-.16,1.69,1.69,0,0,1-.35-.43l-2.82-5.22h-3v5.28a.52.52,0,0,1-.15.38.57.57,0,0,1-.4.15h-2A.52.52,0,0,1,104.33,20.19Zm6-8.16a2.91,2.91,0,0,0,2-.59,2.14,2.14,0,0,0,.66-1.7A2.22,2.22,0,0,0,112.32,8a2.86,2.86,0,0,0-2-.6h-3.06V12Z"/><path class="cls-2" d="M119.65,19.15a5.61,5.61,0,0,1-1.53-4l0-.55a6.19,6.19,0,0,1,1.44-4.33,5.86,5.86,0,0,1,8,0A6.05,6.05,0,0,1,129,14.49V15a.54.54,0,0,1-.15.38.55.55,0,0,1-.4.15h-7.3v.18a3.38,3.38,0,0,0,.67,2,2.06,2.06,0,0,0,1.73.8,2.45,2.45,0,0,0,2-1,1.57,1.57,0,0,1,.31-.3,1,1,0,0,1,.37-.05h1.94a.55.55,0,0,1,.34.11.35.35,0,0,1,.14.31,2,2,0,0,1-.62,1.24,5.15,5.15,0,0,1-1.8,1.24,6.32,6.32,0,0,1-2.7.53A5.36,5.36,0,0,1,119.65,19.15ZM126,13.61v0a3.16,3.16,0,0,0-.65-2.08,2.19,2.19,0,0,0-1.77-.78,2.14,2.14,0,0,0-1.76.78,3.15,3.15,0,0,0-.64,2.08v0Z"/><path class="cls-2" d="M133.46,19.3a4.23,4.23,0,0,1-1-3.07v-5h-1.74a.55.55,0,0,1-.38-.16.5.5,0,0,1-.15-.37V9.43a.5.5,0,0,1,.15-.37.51.51,0,0,1,.38-.16h1.74V5.25a.49.49,0,0,1,.15-.38.51.51,0,0,1,.37-.15h1.83a.53.53,0,0,1,.39.15.52.52,0,0,1,.14.38V8.9h2.75a.49.49,0,0,1,.37.16.47.47,0,0,1,.16.37v1.3a.47.47,0,0,1-.16.37.52.52,0,0,1-.37.16h-2.75V16a2.56,2.56,0,0,0,.33,1.43,1.22,1.22,0,0,0,1.08.48h1.54a.52.52,0,0,1,.38.14.53.53,0,0,1,.15.39v1.38a.52.52,0,0,1-.15.38.49.49,0,0,1-.38.15h-1.81A4,4,0,0,1,133.46,19.3Z"/><path class="cls-2" d="M140.92,20.19a.49.49,0,0,1-.16-.38V9.45a.5.5,0,0,1,.16-.39.47.47,0,0,1,.37-.16h1.81a.5.5,0,0,1,.39.16.53.53,0,0,1,.15.39v.9a3.76,3.76,0,0,1,3.17-1.45h.93a.49.49,0,0,1,.38.15.48.48,0,0,1,.14.38V11a.5.5,0,0,1-.14.37.49.49,0,0,1-.38.15H146a2.06,2.06,0,0,0-2.22,2.23v6a.53.53,0,0,1-.16.38.51.51,0,0,1-.37.15h-2A.5.5,0,0,1,140.92,20.19Z"/><path class="cls-2" d="M150.9,19.24a5.13,5.13,0,0,1-1.51-3.65l0-1,0-1A5,5,0,0,1,150.93,10a6.59,6.59,0,0,1,7.94,0,5.08,5.08,0,0,1,1.54,3.64c0,.18,0,.5,0,1s0,.79,0,1a5.1,5.1,0,0,1-1.52,3.65,6.71,6.71,0,0,1-8,0Zm5.8-1.63a3.32,3.32,0,0,0,.67-2.13c0-.15,0-.43,0-.86s0-.71,0-.86a3.33,3.33,0,0,0-.68-2.14,2.24,2.24,0,0,0-1.78-.74,2.28,2.28,0,0,0-1.81.74,3.39,3.39,0,0,0-.68,2.14l0,.86,0,.86a3.32,3.32,0,0,0,.68,2.13,2.27,2.27,0,0,0,1.81.73A2.22,2.22,0,0,0,156.7,17.61Z"/></g></g><g id="Group_843" data-name="Group 843"><g id="Group_258" data-name="Group 258"><path id="Path_313" data-name="Path 313" class="cls-2" d="M.13,21.44a.76.76,0,0,1,0-.82C4.92,12.54,3.37,1,3.34.9A.76.76,0,0,1,3.57.23.8.8,0,0,1,4.23,0c11.39,1.64,18,0,18.09,0a.79.79,0,0,1,.91.46c5.1,12-1.41,25.35-1.68,25.92a.77.77,0,0,1-.71.43C3.89,26.84.27,21.67.13,21.44ZM5,1.69c.27,3,.7,12.08-3.28,19.2,1.11,1.05,5.62,4.31,18.61,4.38,1.05-2.33,5.6-13.58,1.68-23.6C20.13,2.06,14.21,2.9,5,1.69Z"/></g><g id="Group_260" data-name="Group 260"><g id="Group_259" data-name="Group 259"><ellipse id="Ellipse_79" data-name="Ellipse 79" class="cls-2" cx="15.83" cy="10.9" rx="1.66" ry="1.69"/></g></g><g id="Group_262" data-name="Group 262"><g id="Group_261" data-name="Group 261"><ellipse id="Ellipse_80" data-name="Ellipse 80" class="cls-2" cx="10.82" cy="10.9" rx="1.66" ry="1.69"/></g></g><g id="Group_264" data-name="Group 264"><g id="Group_263" data-name="Group 263"><path id="Path_314" data-name="Path 314" class="cls-2" d="M19.63,15.27a.7.7,0,0,1,.57.81h0A7,7,0,0,1,6.42,13.81a.7.7,0,0,1,.77-.62h0Z"/></g></g></g></g></g></g></svg>