<svg xmlns="http://www.w3.org/2000/svg" id="Layer_2" data-name="Layer 2" viewBox="0 0 62.96 58.63"><defs><style>      .cls-1, .cls-2 {        fill: #3b65ef;        stroke-width: 0px;      }      .cls-2 {        opacity: .1;      }      .cls-3 {        fill: none;        stroke: #3b65ef;        stroke-linecap: round;        stroke-miterlimit: 10;        stroke-width: 2.19px;      }    </style></defs><g id="Layer_1-2" data-name="Layer 1"><g><path class="cls-1" d="M6.03,49.97c-.26-.4-.28-.91-.03-1.32,7.71-12.95,5.22-31.39,5.19-31.57-.05-.39.08-.78.35-1.06.28-.28.67-.41,1.06-.35,18.23,2.62,28.86.05,28.96.03.59-.15,1.21.16,1.45.72,8.16,19.2-2.26,40.62-2.71,41.52-.21.42-.64.69-1.12.69-27.12,0-32.92-8.3-33.16-8.65ZM13.84,18.35c.45,4.84,1.14,19.34-5.24,30.77,1.79,1.69,9,6.88,29.79,7.01,1.66-3.73,8.96-21.73,2.71-37.8-3.06.59-12.54,1.95-27.27.02Z"></path><path class="cls-2" d="M39.6,58.56s18.2-4.21,22.94-10.05c0,0,1.82-1.46-2.19-1.46s-8.03.73-17.87.73l-2.88,10.78Z"></path><path class="cls-1" d="M1.77,26.79s-.07-.05-.09-.1l-.21-.63c-.02-.05-.02-.1-.02-.13,0-.03.02-.08.03-.12l1.18-3.04-1.85.63s-.08.01-.12,0c-.04-.02-.07-.05-.08-.09l-.22-.65s-.01-.09,0-.13c.02-.04.05-.07.1-.08l3.17-1.07s.09-.01.13,0c.04.02.07.05.09.1l.21.63c.03.08.02.16,0,.24l-1.11,3.02,1.9-.64s.09-.01.13,0c.04.02.07.05.09.1l.22.66s.01.09,0,.13c-.02.04-.05.07-.1.08l-3.3,1.12s-.09.01-.13,0Z"></path><path class="cls-1" d="M.33,17.8s-.08-.1-.08-.17l-.05-.95c0-.08,0-.14.03-.19s.05-.1.09-.15l2.76-3.71-2.77.16c-.06,0-.12-.02-.17-.06-.05-.04-.08-.1-.08-.16L0,11.6c0-.07.01-.13.06-.18s.1-.08.16-.08l4.74-.27c.07,0,.13.02.18.06.05.04.08.1.08.17l.05.94c0,.12-.03.23-.1.32l-2.65,3.72,2.85-.16c.07,0,.13.02.18.06.05.04.08.1.08.17l.06.99c0,.07-.02.13-.06.17-.04.05-.1.07-.17.08l-4.93.28c-.07,0-.13-.02-.18-.06Z"></path><path class="cls-1" d="M5.53,7.12c-.02-.08-.01-.16.03-.24l.62-1.07c.05-.09.11-.15.16-.19.06-.03.13-.07.21-.1l5.63-2.06-3.12-1.8c-.07-.04-.12-.1-.14-.18-.02-.08-.01-.16.03-.23l.63-1.09c.04-.08.11-.13.18-.15s.16-.01.23.03l5.33,3.08c.08.04.13.11.15.19.02.08.01.16-.03.24l-.61,1.06c-.08.13-.19.22-.34.28l-5.52,2.14,3.2,1.85c.08.04.13.11.15.19.02.08.01.16-.03.24l-.64,1.11c-.04.08-.11.12-.19.14-.08.02-.16,0-.24-.04l-5.55-3.21c-.08-.04-.13-.11-.15-.19Z"></path><path class="cls-3" d="M25.7,31c0,2.01-1.63,3.65-3.65,3.65s-3.65-1.63-3.65-3.65"></path><path class="cls-3" d="M37.37,31c0,2.01-1.63,3.65-3.65,3.65s-3.65-1.63-3.65-3.65"></path><circle class="cls-1" cx="18.22" cy="42.49" r="3.83"></circle></g></g></svg>