<svg width="27" height="27" viewBox="0 0 27 27" fill="none" xmlns="http://www.w3.org/2000/svg">
<path d="M11.9518 17.3974L8.07232 13.5041L11.8382 9.75663C11.526 9.43454 11.2066 9.09835 10.892 8.7457C9.81035 7.57269 9.17053 6.06375 9.08122 4.47512L0 13.4994L13.5828 27L14.4107 26.0044C15.1512 25.1361 15.5515 24.0314 15.538 22.8933C15.5246 21.7552 15.0982 20.6602 14.3374 19.8095C13.2102 18.5435 11.9624 17.4056 11.9518 17.3974ZM15.0482 9.60264L18.9241 13.4947L15.1582 17.2387C15.4705 17.5596 15.791 17.8969 16.1044 18.2484C17.1879 19.4226 17.8279 20.9341 17.9152 22.5249L26.9965 13.4994L13.4172 0L12.5893 0.995646C11.8482 1.86354 11.4474 2.96824 11.4606 4.10648C11.4739 5.24472 11.9003 6.33991 12.6614 7.19052C13.7898 8.45535 15.0376 9.59441 15.0482 9.60264Z" fill="#627496"/>
</svg>
