<svg width="32" height="32" viewBox="0 0 32 32" fill="none" xmlns="http://www.w3.org/2000/svg">
    <g clip-path="url(#clip0_438_2965)">
        <path
            d="M13.9518 20.3974L10.0723 16.5041L13.8382 12.7566C13.526 12.4345 13.2066 12.0984 12.892 11.7457C11.8103 10.5727 11.1705 9.06375 11.0812 7.47512L2 16.4994L15.5828 30L16.4107 29.0044C17.1512 28.1361 17.5515 27.0314 17.538 25.8933C17.5246 24.7552 17.0982 23.6602 16.3374 22.8095C15.2102 21.5435 13.9624 20.4056 13.9518 20.3974ZM17.0482 12.6026L20.9241 16.4947L17.1582 20.2387C17.4705 20.5596 17.791 20.8969 18.1044 21.2484C19.1879 22.4226 19.8279 23.9341 19.9152 25.5249L28.9965 16.4994L15.4172 3L14.5893 3.99565C13.8482 4.86354 13.4474 5.96824 13.4606 7.10648C13.4739 8.24472 13.9003 9.33991 14.6614 10.1905C15.7898 11.4554 17.0376 12.5944 17.0482 12.6026Z"
            fill="currentColor" />
    </g>
    <defs>
        <clipPath id="clip0_438_2965">
            <rect width="27" height="27" fill="white" transform="translate(2 3)" />
        </clipPath>
    </defs>
</svg>