<svg width="28" height="25" viewBox="0 0 28 25" fill="none" xmlns="http://www.w3.org/2000/svg">
<path d="M8.74996 0C6.40646 0 4.49996 2.019 4.49996 4.5C4.49996 6.981 6.40646 9 8.74996 9C11.0935 9 13 6.981 13 4.5C13 2.019 11.0935 0 8.74996 0ZM19.75 0C17.4065 0 15.5 2.019 15.5 4.5C15.5 6.981 17.4065 9 19.75 9C22.0935 9 24 6.981 24 4.5C24 2.019 22.0935 0 19.75 0ZM8.74996 2C9.99046 2 11 3.1215 11 4.5C11 5.8785 9.99046 7 8.74996 7C7.50946 7 6.49996 5.8785 6.49996 4.5C6.49996 3.1215 7.50946 2 8.74996 2ZM19.75 2C20.9905 2 22 3.1215 22 4.5C22 5.8785 20.9905 7 19.75 7C18.5095 7 17.5 5.8785 17.5 4.5C17.5 3.1215 18.5095 2 19.75 2ZM8.74899 10.0684C5.41349 10.0684 2.45676 11.7316 1.21676 14.3066C0.43926 15.9221 1.78114 17.5 3.28414 17.5H14.2158C14.2075 17.4987 14.1987 17.4955 14.1904 17.4941C14.2221 17.4955 14.2533 17.5 14.2851 17.5H17C17.312 16.751 17.7629 16.076 18.3164 15.5H14.2841C14.1286 15.5 13.9395 15.3438 14.0185 15.1738C14.9135 13.3163 17.2175 12.0674 19.75 12.0674C21.4875 12.0674 23.1158 12.6545 24.2568 13.623C25.5008 13.867 26.6151 14.4675 27.4951 15.3115C27.5041 14.9695 27.4362 14.6261 27.2822 14.3066C26.0422 11.7316 23.0855 10.0684 19.75 10.0684C17.6537 10.0684 15.7081 10.7261 14.2431 11.8535C12.7793 10.7296 10.842 10.0684 8.74899 10.0684ZM8.74899 12.0684C10.2802 12.0684 11.7231 12.5285 12.8261 13.2998C12.5942 13.6174 12.3882 13.9526 12.2177 14.3066C12.0211 14.7152 11.9601 15.1212 12.0029 15.5H3.28414C3.12864 15.5 2.94002 15.3433 3.01852 15.1738C3.91352 13.3163 6.21649 12.0684 8.74899 12.0684ZM23 15C20.2385 15 18 17.2385 18 20C18 22.7615 20.2385 25 23 25C25.7615 25 28 22.7615 28 20C28 17.2385 25.7615 15 23 15ZM23 17C23.2765 17 23.5 17.224 23.5 17.5V19.5H25.5C25.7765 19.5 26 19.724 26 20C26 20.276 25.7765 20.5 25.5 20.5H23.5V22.5C23.5 22.776 23.2765 23 23 23C22.7235 23 22.5 22.776 22.5 22.5V20.5H20.5C20.2235 20.5 20 20.276 20 20C20 19.724 20.2235 19.5 20.5 19.5H22.5V17.5C22.5 17.224 22.7235 17 23 17Z" fill="#627496"/>
</svg>
