<svg width="32" height="32" viewBox="0 0 32 32" fill="none" xmlns="http://www.w3.org/2000/svg">
    <path
        d="M9.74996 4C7.40646 4 5.49996 6.019 5.49996 8.5C5.49996 10.981 7.40646 13 9.74996 13C12.0935 13 14 10.981 14 8.5C14 6.019 12.0935 4 9.74996 4ZM20.75 4C18.4065 4 16.5 6.019 16.5 8.5C16.5 10.981 18.4065 13 20.75 13C23.0935 13 25 10.981 25 8.5C25 6.019 23.0935 4 20.75 4ZM9.74996 6C10.9905 6 12 7.1215 12 8.5C12 9.8785 10.9905 11 9.74996 11C8.50946 11 7.49996 9.8785 7.49996 8.5C7.49996 7.1215 8.50946 6 9.74996 6ZM20.75 6C21.9905 6 23 7.1215 23 8.5C23 9.8785 21.9905 11 20.75 11C19.5095 11 18.5 9.8785 18.5 8.5C18.5 7.1215 19.5095 6 20.75 6ZM9.74899 14.0684C6.41349 14.0684 3.45676 15.7316 2.21676 18.3066C1.43926 19.9221 2.78114 21.5 4.28414 21.5H15.2158C15.2075 21.4987 15.1987 21.4955 15.1904 21.4941C15.2221 21.4955 15.2533 21.5 15.2851 21.5H18C18.312 20.751 18.7629 20.076 19.3164 19.5H15.2841C15.1286 19.5 14.9395 19.3438 15.0185 19.1738C15.9135 17.3163 18.2175 16.0674 20.75 16.0674C22.4875 16.0674 24.1158 16.6545 25.2568 17.623C26.5008 17.867 27.6151 18.4675 28.4951 19.3115C28.5041 18.9695 28.4362 18.6261 28.2822 18.3066C27.0422 15.7316 24.0855 14.0684 20.75 14.0684C18.6537 14.0684 16.7081 14.7261 15.2431 15.8535C13.7793 14.7296 11.842 14.0684 9.74899 14.0684ZM9.74899 16.0684C11.2802 16.0684 12.7231 16.5285 13.8261 17.2998C13.5942 17.6174 13.3882 17.9526 13.2177 18.3066C13.0211 18.7152 12.9601 19.1212 13.0029 19.5H4.28414C4.12864 19.5 3.94002 19.3433 4.01852 19.1738C4.91352 17.3163 7.21649 16.0684 9.74899 16.0684ZM24 19C21.2385 19 19 21.2385 19 24C19 26.7615 21.2385 29 24 29C26.7615 29 29 26.7615 29 24C29 21.2385 26.7615 19 24 19ZM24 21C24.2765 21 24.5 21.224 24.5 21.5V23.5H26.5C26.7765 23.5 27 23.724 27 24C27 24.276 26.7765 24.5 26.5 24.5H24.5V26.5C24.5 26.776 24.2765 27 24 27C23.7235 27 23.5 26.776 23.5 26.5V24.5H21.5C21.2235 24.5 21 24.276 21 24C21 23.724 21.2235 23.5 21.5 23.5H23.5V21.5C23.5 21.224 23.7235 21 24 21Z"
        fill="currentColor" />
</svg>