<svg width="32" height="32" viewBox="0 0 32 32" fill="none" xmlns="http://www.w3.org/2000/svg">
    <path
        d="M8.5 6C6.8455 6 5.5 7.3455 5.5 9V23C5.5 24.6545 6.8455 26 8.5 26H23.5C25.1545 26 26.5 24.6545 26.5 23V9C26.5 7.3455 25.1545 6 23.5 6H8.5ZM8.5 11.5H23.5C24.0515 11.5 24.5 11.9485 24.5 12.5V23C24.5 23.5515 24.0515 24 23.5 24H8.5C7.9485 24 7.5 23.5515 7.5 23V12.5C7.5 11.9485 7.9485 11.5 8.5 11.5ZM18.8262 14.0322C18.5053 14.0377 18.1923 14.197 18.0039 14.4863L15.1885 18.8115L13.9121 17.3428C13.5506 16.9258 12.9195 16.8807 12.502 17.2432C12.085 17.6052 12.0398 18.2373 12.4023 18.6543L14.5479 21.123C14.7429 21.3475 15.0227 21.4566 15.3027 21.4551C15.6277 21.4536 15.9516 21.3037 16.1406 21.0137C16.1426 21.0102 19.6797 15.5781 19.6797 15.5781C19.9812 15.1151 19.8507 14.4958 19.3877 14.1943C19.2141 14.0813 19.0187 14.0289 18.8262 14.0322Z"
        fill="currentColor" />
</svg>