<svg width="22" height="20" viewBox="0 0 22 20" fill="none" xmlns="http://www.w3.org/2000/svg">
<path d="M3.5 0C1.8455 0 0.5 1.3455 0.5 3V17C0.5 18.6545 1.8455 20 3.5 20H18.5C20.1545 20 21.5 18.6545 21.5 17V3C21.5 1.3455 20.1545 0 18.5 0H3.5ZM3.5 5.5H18.5C19.0515 5.5 19.5 5.9485 19.5 6.5V17C19.5 17.5515 19.0515 18 18.5 18H3.5C2.9485 18 2.5 17.5515 2.5 17V6.5C2.5 5.9485 2.9485 5.5 3.5 5.5ZM13.8262 8.03223C13.5053 8.03769 13.1923 8.19695 13.0039 8.48633L10.1885 12.8115L8.91211 11.3428C8.55061 10.9258 7.91945 10.8807 7.50195 11.2432C7.08495 11.6052 7.03984 12.2373 7.40234 12.6543L9.54785 15.123C9.74285 15.3475 10.0227 15.4566 10.3027 15.4551C10.6277 15.4536 10.9516 15.3037 11.1406 15.0137C11.1426 15.0102 14.6797 9.57812 14.6797 9.57812C14.9812 9.11512 14.8507 8.49584 14.3877 8.19434C14.2141 8.08127 14.0187 8.02895 13.8262 8.03223Z" fill="#627496"/>
</svg>
