<svg width="32" height="32" viewBox="0 0 32 32" fill="none" xmlns="http://www.w3.org/2000/svg">
    <path
        d="M7 7C5.62 7 4.5 8.12 4.5 9.5V21C4.5 22.38 5.62 23.5 7 23.5H7.51953C7.83453 22.775 8.27984 22.105 8.83984 21.5H7C6.725 21.5 6.5 21.275 6.5 21V9.5C6.5 9.225 6.725 9 7 9H25C25.275 9 25.5 9.225 25.5 9.5V21C25.5 21.275 25.275 21.5 25 21.5H23.1602C23.7202 22.105 24.1655 22.775 24.4805 23.5H25C26.38 23.5 27.5 22.38 27.5 21V9.5C27.5 8.12 26.38 7 25 7H7ZM16 11C13.932 11 12.25 12.7945 12.25 15C12.25 17.2055 13.932 19 16 19C18.068 19 19.75 17.2055 19.75 15C19.75 12.7945 18.068 11 16 11ZM16 13C16.965 13 17.75 13.897 17.75 15C17.75 16.103 16.965 17 16 17C15.035 17 14.25 16.103 14.25 15C14.25 13.897 15.035 13 16 13ZM16 20C12.263 20 8.99173 22.3216 8.55273 25.2861C8.48923 25.7136 8.61591 26.1476 8.89941 26.4766C9.18641 26.8091 9.60154 27 10.04 27H21.96C22.3985 27 22.8131 26.8096 23.1006 26.4766C23.3841 26.1476 23.5108 25.7131 23.4473 25.2861C23.0078 22.3216 19.737 20 16 20ZM16 22C18.3375 22 20.5438 23.2499 21.2568 24.8594C21.2708 24.8904 21.2675 24.9256 21.249 24.9541C21.2305 24.9826 21.199 25 21.165 25H10.835C10.801 25 10.7695 24.9826 10.751 24.9541C10.7325 24.9256 10.7297 24.8904 10.7432 24.8594C11.4562 23.2504 13.6625 22 16 22Z"
        fill="currentColor" />
</svg>