<svg width="24" height="20" viewBox="0 0 24 20" fill="none" xmlns="http://www.w3.org/2000/svg">
<path d="M3 0C1.62 0 0.5 1.12 0.5 2.5V14C0.5 15.38 1.62 16.5 3 16.5H3.51953C3.83453 15.775 4.27984 15.105 4.83984 14.5H3C2.725 14.5 2.5 14.275 2.5 14V2.5C2.5 2.225 2.725 2 3 2H21C21.275 2 21.5 2.225 21.5 2.5V14C21.5 14.275 21.275 14.5 21 14.5H19.1602C19.7202 15.105 20.1655 15.775 20.4805 16.5H21C22.38 16.5 23.5 15.38 23.5 14V2.5C23.5 1.12 22.38 0 21 0H3ZM12 4C9.932 4 8.25 5.7945 8.25 8C8.25 10.2055 9.932 12 12 12C14.068 12 15.75 10.2055 15.75 8C15.75 5.7945 14.068 4 12 4ZM12 6C12.965 6 13.75 6.897 13.75 8C13.75 9.103 12.965 10 12 10C11.035 10 10.25 9.103 10.25 8C10.25 6.897 11.035 6 12 6ZM12 13C8.263 13 4.99173 15.3216 4.55273 18.2861C4.48923 18.7136 4.61591 19.1476 4.89941 19.4766C5.18641 19.8091 5.60154 20 6.04004 20H17.96C18.3985 20 18.8131 19.8096 19.1006 19.4766C19.3841 19.1476 19.5108 18.7131 19.4473 18.2861C19.0078 15.3216 15.737 13 12 13ZM12 15C14.3375 15 16.5438 16.2499 17.2568 17.8594C17.2708 17.8904 17.2675 17.9256 17.249 17.9541C17.2305 17.9826 17.199 18 17.165 18H6.83496C6.80096 18 6.76948 17.9826 6.75098 17.9541C6.73248 17.9256 6.72966 17.8904 6.74316 17.8594C7.45616 16.2504 9.6625 15 12 15Z" fill="#627496"/>
</svg>

