<svg width="480" height="240" viewBox="0 0 480 240" fill="none" xmlns="http://www.w3.org/2000/svg">
<g clip-path="url(#clip0_793_6)">
<path d="M474.383 189.67C470.211 179.787 456.156 185.874 447.419 189.67C438.682 193.466 420.455 193.466 431.09 171.068C441.725 148.651 459.952 107.257 439.451 101.563C418.951 95.8694 412.112 118.268 410.214 123.585C408.316 128.903 388.191 182.079 380.206 190.046C372.239 198.014 356.286 202.203 351.72 183.207C351.72 183.207 421.601 28.2449 383.25 19.9015C344.899 11.5581 336.537 94.3476 336.537 107.633C336.537 107.633 280.336 81.8146 250.328 144.856C220.321 207.897 213.875 193.842 210.831 183.601C207.788 173.341 218.423 146.001 222.612 130.801C226.784 115.618 222.612 107.257 213.875 104.589C205.138 101.939 193.375 108.009 188.057 128.903C182.739 149.797 168.685 199.553 153.502 199.159C138.319 198.783 146.036 162.796 155.776 140.738C166.035 117.498 165.659 106.487 151.604 102.691C139.859 99.5219 131.479 103.067 122.742 118.268C116.726 128.724 88.6523 188.112 60.4531 193.842C36.6224 198.676 30.4096 180.557 48.8511 134.632C76.6385 65.3963 119.716 17.7888 87.9004 4.14568C83.7107 2.35525 70.8018 -0.992858 54.0791 27.1169C37.3744 55.2446 0.957052 138.016 4.19773 196.886C7.06242 248.844 74.4542 248.163 108.258 190.046C108.258 190.046 110.531 229.543 141.291 231.441C172.051 233.339 184.584 210.547 184.584 210.547C184.584 210.547 187.627 230.671 207.376 229.919C227.124 229.167 244.581 203.331 244.581 203.331C244.581 203.331 257.902 235.989 288.285 235.989C318.669 235.989 331.954 212.82 331.954 212.82C331.954 212.82 337.647 231.423 358.166 231.423C378.684 231.423 399.561 204.459 399.561 204.459C399.561 204.459 406.776 229.149 434.51 227.251C462.244 225.353 478.572 199.517 474.383 189.652V189.67ZM279.548 167.254C292.081 124.337 333.1 132.609 333.1 132.609C323.217 213.501 268.376 205.533 279.548 167.254Z" fill="#F9FAFC"/>
<path d="M429.104 55.065C429.104 55.065 434.045 38.7363 449.228 41.3861C464.411 44.036 462.137 62.6564 457.59 70.0688C453.579 76.586 446.668 83.694 434.421 78.2332C422.175 72.7724 429.104 55.065 429.104 55.065Z" fill="#F9FAFC"/>
</g>
<defs>
<clipPath id="clip0_793_6">
<rect width="471.044" height="233.007" fill="white" transform="translate(4 3)"/>
</clipPath>
</defs>
</svg>
