<svg width="240" height="250" viewBox="0 0 240 250" fill="none" xmlns="http://www.w3.org/2000/svg">
<path d="M136.371 194.13C137.327 194.401 138.299 194.52 139.255 194.52C141.32 194.52 143.351 193.926 145.109 192.787C159.922 183.133 173.113 169.945 184.582 153.442L215.146 165.679L128.418 215.969L29.1306 168.602L46.1792 158.065C89.2699 180.805 134.05 193.484 136.337 194.13H136.371Z" fill="#F9FAFC"/>
<path d="M85.2424 17.1886C71.5557 81.5848 23.2429 131.977 23.2429 131.977C71.5557 164.931 139.255 183.864 139.255 183.864C200.879 143.704 214.941 46.353 214.941 46.353C165.502 41.0674 85.2424 17.1886 85.2424 17.1886ZM133.026 85.3748C134.101 79.2054 139.989 75.0755 146.184 76.1292C152.379 77.1999 156.526 83.0634 155.467 89.2328C154.392 95.4022 148.505 99.5321 142.31 98.4784C136.115 97.4077 131.968 91.5442 133.026 85.3748ZM95.3111 78.8825C96.3862 72.7131 102.274 68.5832 108.469 69.6369C114.664 70.7076 118.81 76.5711 117.752 82.7405C116.677 88.9099 110.79 93.0398 104.595 91.9861C98.4 90.9154 94.253 85.0519 95.3111 78.8825ZM157.703 118.346C152.959 126.861 138.538 148.139 107.53 141.562C84.4744 136.667 80.8565 113.978 80.1397 105.039C79.9691 102.88 82.1876 101.368 84.1672 102.251C93.3485 106.33 117.684 115.1 155.143 114.131C157.345 114.08 158.778 116.426 157.703 118.346Z" fill="#F9FAFC"/>
<path d="M228.44 177.236V163.453C228.44 161.493 227.33 159.727 225.589 158.87L225.232 158.71L190.315 144.741C197.54 133.034 203.996 119.876 209.668 105.267L210.214 103.849C221.716 73.733 225.385 48.9191 225.539 47.8823C225.939 45.2057 225.274 42.4843 223.727 40.2642L223.406 39.8267C221.742 37.6916 219.313 36.273 216.639 35.8521L216.101 35.7818C168.215 30.632 89.0992 7.22868 88.3142 6.99075C87.4332 6.72309 86.539 6.58637 85.6433 6.55618L85.2595 6.54934C83.3481 6.54934 81.4539 7.05969 79.7985 8.04543L79.3239 8.34035C76.9998 9.87376 75.3745 12.2562 74.7985 14.9966C61.9144 75.5324 15.9765 124.138 15.5124 124.618L15.3122 124.832C13.2799 127.071 12.297 130.068 12.6276 133.082C12.9519 136.192 14.625 138.996 17.2019 140.763C23.226 144.859 29.523 148.751 35.9226 152.422L17.1335 164.031C15.6319 164.965 14.7098 166.613 14.7097 168.364V181.57L14.7175 182.008C14.8757 186.522 17.47 190.541 21.5534 192.549L121.541 241.819C123.605 242.839 125.834 243.38 128.045 243.444L128.487 243.451C131.303 243.451 134.101 242.685 136.592 241.19L221.034 190.323C225.607 187.569 228.44 182.555 228.44 177.236ZM234.44 177.236C234.44 184.663 230.502 191.626 224.129 195.463L224.128 195.462L139.689 246.33L139.681 246.334C136.259 248.389 132.393 249.451 128.487 249.451C125.214 249.451 121.915 248.696 118.883 247.199V247.198L18.9011 197.931V197.93C12.6415 194.849 8.70969 188.551 8.70967 181.57V168.364C8.70981 164.515 10.723 160.952 13.9626 158.936L13.9802 158.926L24.3474 152.52C20.7813 150.325 17.263 148.061 13.8278 145.725L13.8083 145.711C9.79297 142.957 7.17979 138.586 6.66475 133.735L6.66377 133.736C6.12763 128.85 7.79247 124 11.1813 120.465L11.1911 120.455L11.2019 120.444C11.2238 120.421 14.066 117.421 18.5212 111.995C22.991 106.551 29.0549 98.6999 35.5007 89.0073C48.433 69.5609 62.705 42.9924 68.9294 13.7476C69.8916 9.18928 72.7155 5.25908 76.7282 2.89114V2.89016L76.7614 2.87063V2.8716C79.3543 1.33559 82.2994 0.549339 85.2595 0.549339C86.8186 0.549341 88.435 0.757303 90.0583 1.25051L90.0573 1.25149C90.0735 1.2563 90.153 1.27872 90.3122 1.32571C90.4818 1.37577 90.7254 1.44684 91.0388 1.5386C91.6654 1.72209 92.571 1.98671 93.7292 2.32082C96.0457 2.98911 99.3708 3.93769 103.49 5.08645C111.73 7.38443 123.14 10.4799 136.012 13.7271C161.844 20.2432 193.241 27.2876 216.734 29.815C221.082 30.2762 225.095 32.4244 227.874 35.8072L228.138 36.1382L228.152 36.1558C230.898 39.7063 232.146 44.2471 231.473 48.7613C231.289 50.0073 227.54 75.2998 215.819 105.99L215.818 105.992C210.851 118.985 205.263 130.917 199.054 141.774L227.461 153.14L227.469 153.143C231.685 154.837 234.44 158.91 234.44 163.453V177.236Z" fill="#F9FAFC"/>
</svg>
