<svg width="240" height="250" viewBox="0 0 240 250" fill="none" xmlns="http://www.w3.org/2000/svg">
<g clip-path="url(#clip0_793_2)">
<path d="M83.963 4C85.0045 4.00002 86.0462 4.13874 87.0704 4.45117C87.8691 4.69425 168.363 28.6198 217.065 33.8633C219.999 34.1758 222.69 35.6698 224.495 38.0137C226.301 40.3576 227.083 43.3263 226.666 46.2432C226.51 47.3023 222.777 72.6516 211.074 103.418C205.183 118.908 198.43 132.84 190.853 145.177L226.391 159.459C228.364 160.252 229.657 162.166 229.657 164.292V178.373C229.657 183.855 226.783 188.907 222.111 191.736L222.109 191.737L136.199 243.703L136.19 243.709C131.543 246.508 125.771 246.778 120.88 244.35L19.1524 194.015L19.1456 194.012C14.8988 191.903 12.1905 187.565 12.1905 182.801V169.311C12.1907 167.509 13.1219 165.835 14.6524 164.885L33.7462 153.031C27.2339 149.291 20.8405 145.322 14.7208 141.13C12.0817 139.324 10.3798 136.459 10.0499 133.281C9.72016 130.104 10.7971 126.944 13.002 124.635C13.4867 124.114 60.2129 74.4637 73.3194 12.6289C73.9445 9.66021 75.7849 7.07358 78.4063 5.52832C80.1079 4.52129 82.0183 4 83.963 4ZM185.054 154.073C173.37 170.957 159.937 184.402 144.854 194.276C143.065 195.44 140.998 196.048 138.898 196.048C137.925 196.048 136.936 195.926 135.964 195.648C133.621 194.985 88.0599 182.037 44.2051 158.8L26.8809 169.554L127.891 217.935L216.117 166.557L185.054 154.073ZM83.963 14.8867C70.0531 80.6022 20.9909 132.025 20.8848 132.136C69.9892 165.785 138.778 185.123 138.915 185.161C201.544 144.166 215.895 44.84 215.918 44.6807C165.671 39.2691 84.1325 14.9373 83.963 14.8867Z" fill="#3B65EF"/>
<path d="M105.612 91.4535C112.008 91.4535 117.193 86.2686 117.193 79.8727C117.193 73.4768 112.008 68.2919 105.612 68.2919C99.2159 68.2919 94.031 73.4768 94.031 79.8727C94.031 86.2686 99.2159 91.4535 105.612 91.4535Z" fill="#3B65EF"/>
<path d="M143.967 98.0862C150.363 98.0862 155.548 92.9013 155.548 86.5054C155.548 80.1095 150.363 74.9246 143.967 74.9246C137.571 74.9246 132.386 80.1095 132.386 86.5054C132.386 92.9013 137.571 98.0862 143.967 98.0862Z" fill="#3B65EF"/>
<path d="M82.8525 101.767C92.1935 105.934 116.953 114.893 155.063 113.904C157.303 113.852 158.762 116.248 157.668 118.21C152.841 126.908 138.17 148.646 106.622 141.927C83.165 136.927 79.4841 113.747 78.7549 104.615C78.5813 102.41 80.8384 100.864 82.8525 101.767Z" fill="#3B65EF"/>
</g>
<defs>
<clipPath id="clip0_793_2">
<rect width="219.637" height="242" fill="white" transform="translate(10 4)"/>
</clipPath>
</defs>
</svg>
