<svg width="800" height="270" viewBox="0 0 800 270" fill="none" xmlns="http://www.w3.org/2000/svg">
<path d="M145.893 204.13C146.849 204.401 147.821 204.52 148.777 204.52C150.842 204.52 152.873 203.926 154.631 202.787C169.444 193.133 182.635 179.945 194.103 163.442L224.668 175.679L137.94 225.969L38.6526 178.602L55.7012 168.065C98.7919 190.805 143.572 203.484 145.859 204.13H145.893Z" fill="#F9FAFC"/>
<path d="M94.7644 27.1886C81.0777 91.5848 32.7649 141.977 32.7649 141.977C81.0777 174.931 148.777 193.864 148.777 193.864C210.401 153.704 224.463 56.353 224.463 56.353C175.024 51.0674 94.7644 27.1886 94.7644 27.1886ZM142.548 95.3748C143.623 89.2054 149.511 85.0755 155.706 86.1292C161.901 87.1999 166.048 93.0634 164.989 99.2328C163.914 105.402 158.027 109.532 151.832 108.478C145.637 107.408 141.49 101.544 142.548 95.3748ZM104.833 88.8825C105.908 82.7131 111.796 78.5832 117.991 79.6369C124.186 80.7076 128.332 86.5711 127.274 92.7405C126.199 98.9099 120.312 103.04 114.117 101.986C107.922 100.915 103.775 95.0519 104.833 88.8825ZM167.225 128.346C162.481 136.861 148.06 158.139 117.052 151.562C93.9964 146.667 90.3785 123.978 89.6617 115.039C89.4911 112.88 91.7096 111.368 93.6892 112.251C102.871 116.33 127.206 125.1 164.665 124.131C166.867 124.08 168.3 126.426 167.225 128.346Z" fill="#F9FAFC"/>
<path d="M237.962 187.236V173.453C237.962 171.493 236.852 169.727 235.111 168.87L234.754 168.71L199.837 154.741C207.062 143.034 213.518 129.876 219.19 115.267L219.736 113.849C231.238 83.733 234.907 58.9191 235.061 57.8823C235.461 55.2057 234.796 52.4843 233.249 50.2642L232.928 49.8267C231.264 47.6916 228.835 46.273 226.161 45.8521L225.623 45.7818C177.737 40.632 98.6212 17.2287 97.8361 16.9907C96.9551 16.7231 96.0609 16.5864 95.1652 16.5562L94.7814 16.5493C92.8701 16.5493 90.9759 17.0597 89.3205 18.0454L88.8459 18.3404C86.5218 19.8738 84.8964 22.2562 84.3205 24.9966C71.4363 85.5324 25.4985 134.138 25.0344 134.618L24.8342 134.832C22.8019 137.071 21.819 140.068 22.1496 143.082C22.4739 146.192 24.147 148.996 26.7238 150.763C32.748 154.859 39.045 158.751 45.4445 162.422L26.6555 174.031C25.1539 174.965 24.2318 176.613 24.2316 178.364V191.57L24.2395 192.008C24.3977 196.522 26.992 200.541 31.0754 202.549L131.063 251.819C133.127 252.839 135.356 253.38 137.567 253.444L138.009 253.451C140.825 253.451 143.623 252.685 146.114 251.19L230.556 200.323C235.129 197.569 237.962 192.555 237.962 187.236ZM243.962 187.236C243.962 194.663 240.024 201.626 233.651 205.463L233.65 205.462L149.211 256.33L149.203 256.334C145.781 258.389 141.915 259.451 138.009 259.451C134.736 259.451 131.437 258.696 128.405 257.199V257.198L28.423 207.931V207.93C22.1635 204.849 18.2317 198.551 18.2316 191.57V178.364C18.2318 174.515 20.245 170.952 23.4846 168.936L23.5021 168.926L33.8693 162.52C30.3032 160.325 26.785 158.061 23.3498 155.725L23.3303 155.711C19.3149 152.957 16.7018 148.586 16.1867 143.735L16.1857 143.736C15.6496 138.85 17.3144 134 20.7033 130.465L20.7131 130.455L20.7238 130.444C20.7457 130.421 23.588 127.421 28.0432 121.995C32.5129 116.551 38.5768 108.7 45.0227 99.0073C57.955 79.5609 72.227 52.9924 78.4514 23.7476C79.4136 19.1893 82.2375 15.2591 86.2502 12.8911V12.8902L86.2834 12.8706V12.8716C88.8762 11.3356 91.8213 10.5493 94.7814 10.5493C96.3406 10.5493 97.9569 10.7573 99.5803 11.2505L99.5793 11.2515C99.5954 11.2563 99.675 11.2787 99.8342 11.3257C100.004 11.3758 100.247 11.4468 100.561 11.5386C101.187 11.7221 102.093 11.9867 103.251 12.3208C105.568 12.9891 108.893 13.9377 113.012 15.0864C121.252 17.3844 132.662 20.4799 145.534 23.7271C171.366 30.2432 202.763 37.2876 226.256 39.815C230.604 40.2762 234.617 42.4244 237.396 45.8072L237.66 46.1382L237.674 46.1558C240.42 49.7063 241.668 54.2471 240.995 58.7613C240.811 60.0073 237.062 85.2998 225.341 115.99L225.34 115.992C220.373 128.985 214.785 140.917 208.576 151.774L236.983 163.14L236.991 163.143C241.207 164.837 243.962 168.91 243.962 173.453V187.236Z" fill="#F9FAFC"/>
<g clip-path="url(#clip0_793_7)">
<path d="M783.905 204.67C779.733 194.787 765.678 200.874 756.941 204.67C748.203 208.466 729.977 208.466 740.612 186.068C751.247 163.651 769.474 122.257 748.973 116.563C728.473 110.869 721.633 133.268 719.736 138.585C717.838 143.903 697.713 197.079 689.728 205.046C681.761 213.014 665.808 217.203 661.242 198.207C661.242 198.207 731.123 43.2449 692.772 34.9015C654.421 26.5581 646.059 109.348 646.059 122.633C646.059 122.633 589.858 96.8146 559.85 159.856C529.843 222.897 523.397 208.842 520.353 198.601C517.31 188.341 527.945 161.001 532.134 145.801C536.306 130.618 532.134 122.257 523.397 119.589C514.66 116.939 502.897 123.009 497.579 143.903C492.261 164.797 478.207 214.553 463.024 214.159C447.841 213.783 455.558 177.796 465.298 155.738C475.557 132.498 475.181 121.487 461.126 117.691C449.381 114.522 441.001 118.067 432.264 133.268C426.248 143.724 398.174 203.112 369.975 208.842C346.144 213.676 339.932 195.557 358.373 149.632C386.161 80.3963 429.238 32.7888 397.422 19.1457C393.233 17.3552 380.324 14.0071 363.601 42.1169C346.896 70.2446 310.479 153.016 313.72 211.886C316.584 263.844 383.976 263.163 417.78 205.046C417.78 205.046 420.053 244.543 450.813 246.441C481.573 248.339 494.106 225.547 494.106 225.547C494.106 225.547 497.149 245.671 516.898 244.919C536.646 244.167 554.103 218.331 554.103 218.331C554.103 218.331 567.424 250.989 597.807 250.989C628.191 250.989 641.476 227.82 641.476 227.82C641.476 227.82 647.169 246.423 667.688 246.423C688.206 246.423 709.083 219.459 709.083 219.459C709.083 219.459 716.298 244.149 744.032 242.251C771.766 240.353 788.094 214.517 783.905 204.652V204.67ZM589.07 182.254C601.603 139.337 642.622 147.609 642.622 147.609C632.739 228.501 577.898 220.533 589.07 182.254Z" fill="#F9FAFC"/>
<path d="M738.626 70.065C738.626 70.065 743.567 53.7363 758.75 56.3861C773.933 59.036 771.659 77.6564 767.112 85.0688C763.101 91.586 756.19 98.694 743.943 93.2332C731.697 87.7724 738.626 70.065 738.626 70.065Z" fill="#F9FAFC"/>
</g>
<defs>
<clipPath id="clip0_793_7">
<rect width="471.044" height="233.007" fill="white" transform="translate(313.522 18)"/>
</clipPath>
</defs>
</svg>
