<svg width="800" height="270" viewBox="0 0 800 270" fill="none" xmlns="http://www.w3.org/2000/svg">
<g clip-path="url(#clip0_793_4)">
<path d="M93.554 14C94.5956 14 95.6372 14.1387 96.6614 14.4512C97.4601 14.6942 177.954 38.6198 226.656 43.8633C229.59 44.1759 232.281 45.6698 234.086 48.0137C235.892 50.3576 236.674 53.3263 236.257 56.2432C236.101 57.3023 232.368 82.6516 220.665 113.418C214.774 128.908 208.021 142.84 200.444 155.177L235.982 169.459C237.955 170.252 239.248 172.166 239.248 174.292V188.373C239.248 193.855 236.374 198.907 231.702 201.736L231.701 201.737L145.79 253.703L145.782 253.709C141.134 256.508 135.362 256.778 130.471 254.35L28.7435 204.015L28.7366 204.012C24.4898 201.903 21.7806 197.565 21.7806 192.801V179.311C21.7808 177.509 22.713 175.835 24.2435 174.885L43.3372 163.031C36.8249 159.291 30.4316 155.322 24.3118 151.13C21.6727 149.324 19.9708 146.459 19.6409 143.281C19.3112 140.104 20.3882 136.944 22.5931 134.635C23.0828 134.109 69.8047 84.4603 82.9105 22.6289C83.5356 19.6602 85.3759 17.0736 87.9974 15.5283C89.6989 14.5213 91.6094 14 93.554 14ZM194.644 164.073C182.96 180.957 169.528 194.402 154.445 204.276C152.656 205.44 150.589 206.048 148.489 206.048C147.517 206.048 146.527 205.926 145.555 205.648C143.212 204.985 97.6509 192.037 53.7962 168.8L36.472 179.554L137.482 227.935L225.708 176.557L194.644 164.073ZM93.554 24.8867C79.6475 90.5868 30.6049 142.001 30.4759 142.136C79.6065 175.803 148.442 195.143 148.506 195.161C211.138 154.164 225.488 54.8295 225.509 54.6807C175.276 49.2706 93.7686 24.9507 93.554 24.8867Z" fill="#3B65EF"/>
<path d="M115.203 101.454C121.599 101.454 126.784 96.2686 126.784 89.8727C126.784 83.4768 121.599 78.2919 115.203 78.2919C108.807 78.2919 103.622 83.4768 103.622 89.8727C103.622 96.2686 108.807 101.454 115.203 101.454Z" fill="#3B65EF"/>
<path d="M153.558 108.086C159.954 108.086 165.139 102.901 165.139 96.5054C165.139 90.1095 159.954 84.9246 153.558 84.9246C147.162 84.9246 141.977 90.1095 141.977 96.5054C141.977 102.901 147.162 108.086 153.558 108.086Z" fill="#3B65EF"/>
<path d="M92.4437 111.767C101.785 115.934 126.544 124.893 164.655 123.904C166.894 123.852 168.353 126.248 167.259 128.21C162.432 136.908 147.761 158.646 116.213 151.927C92.7562 146.927 89.0753 123.747 88.3461 114.615C88.1725 112.41 90.4296 110.864 92.4437 111.767Z" fill="#3B65EF"/>
</g>
<g clip-path="url(#clip1_793_4)">
<path d="M783.974 204.67C779.802 194.787 765.747 200.874 757.01 204.67C748.273 208.466 730.046 208.466 740.681 186.068C751.316 163.651 769.543 122.257 749.042 116.563C728.542 110.869 721.703 133.268 719.805 138.585C717.907 143.903 697.782 197.079 689.797 205.046C681.83 213.014 665.877 217.203 661.311 198.207C661.311 198.207 731.192 43.2449 692.841 34.9015C654.49 26.5581 646.128 109.348 646.128 122.633C646.128 122.633 589.927 96.8146 559.919 159.856C529.912 222.897 523.466 208.842 520.422 198.601C517.379 188.341 528.014 161.001 532.203 145.801C536.375 130.618 532.203 122.257 523.466 119.589C514.729 116.939 502.966 123.009 497.648 143.903C492.331 164.797 478.276 214.553 463.093 214.159C447.91 213.783 455.627 177.796 465.367 155.738C475.626 132.498 475.25 121.487 461.195 117.691C449.45 114.522 441.071 118.067 432.333 133.268C426.317 143.724 398.243 203.112 370.044 208.842C346.213 213.676 340.001 195.557 358.442 149.632C386.23 80.3963 429.307 32.7888 397.491 19.1457C393.302 17.3552 380.393 14.0071 363.67 42.1169C346.965 70.2446 310.548 153.016 313.789 211.886C316.653 263.844 384.045 263.163 417.849 205.046C417.849 205.046 420.122 244.543 450.882 246.441C481.642 248.339 494.175 225.547 494.175 225.547C494.175 225.547 497.218 245.671 516.967 244.919C536.715 244.167 554.172 218.331 554.172 218.331C554.172 218.331 567.493 250.989 597.876 250.989C628.26 250.989 641.545 227.82 641.545 227.82C641.545 227.82 647.239 246.423 667.757 246.423C688.275 246.423 709.152 219.459 709.152 219.459C709.152 219.459 716.367 244.149 744.101 242.251C771.835 240.353 788.163 214.517 783.974 204.652V204.67ZM589.139 182.254C601.672 139.337 642.691 147.609 642.691 147.609C632.808 228.501 577.967 220.533 589.139 182.254Z" fill="#3B65EF"/>
<path d="M738.695 70.065C738.695 70.065 743.636 53.7363 758.819 56.3861C774.002 59.036 771.728 77.6564 767.181 85.0688C763.17 91.586 756.259 98.694 744.012 93.2332C731.766 87.7724 738.695 70.065 738.695 70.065Z" fill="#3B65EF"/>
</g>
<defs>
<clipPath id="clip0_793_4">
<rect width="219.637" height="242" fill="white" transform="translate(19.5911 14)"/>
</clipPath>
<clipPath id="clip1_793_4">
<rect width="471.044" height="233.007" fill="white" transform="translate(313.591 18)"/>
</clipPath>
</defs>
</svg>
