<svg width="220" height="220" viewBox="0 0 220 220" fill="none" xmlns="http://www.w3.org/2000/svg">
<g clip-path="url(#clip0_832_14)">
<path d="M175.902 218.984C42.0057 218.984 11.0903 178.928 8.4404 175.011C6.5394 172.092 6.5394 168.309 8.4404 165.391C42.5625 108.553 35.4386 28.4029 33.672 12.9068C33.6528 12.6764 33.6144 12.4652 33.6144 12.3116C33.2111 9.54646 34.1904 6.74295 36.2067 4.78434C38.1461 2.86413 40.8536 1.90402 43.6571 2.23046C123 13.3869 173.118 5.16838 186.598 2.38408C186.828 2.32647 187.001 2.30727 187.135 2.26886C191.609 1.13594 196.179 3.517 197.812 7.81827C237.771 100.737 189.689 202.681 184.063 213.991C182.469 217.064 179.358 218.965 175.902 218.965V218.984ZM13.4138 172.131C14.1434 173.244 42.1401 213.204 175.902 213.204C177.189 213.204 178.341 212.494 178.936 211.38C184.409 200.358 231.454 100.641 192.473 9.96891C191.84 8.29832 190.112 7.45343 188.479 7.87588L187.769 8.02949C174.078 10.8522 123.135 19.2243 42.9466 7.95269C41.9865 7.83747 40.988 8.18311 40.2583 8.91279C39.5286 9.60407 39.2022 10.5642 39.3366 11.5051L39.4134 12.254C41.2184 28.0765 48.4768 109.916 13.3369 168.425C12.6265 169.538 12.6265 170.863 13.2793 171.881L13.433 172.131H13.4138Z" fill="#F9FAFC"/>
<path d="M185.464 18.2641C170.199 21.1444 122.942 27.846 49.5134 18.3601C51.6065 42.0747 55.1589 113.276 23.3218 169.462C32.3468 177.738 68.2547 203.219 171.927 203.872C180.337 185.553 216.61 97.1464 185.445 18.2641H185.464ZM139.456 80.1909C146.522 80.0757 152.36 85.7211 152.475 92.8067C152.59 99.8731 146.945 105.711 139.879 105.826C132.812 105.941 126.975 100.296 126.86 93.2099C126.744 86.1436 132.39 80.3061 139.456 80.1909ZM96.405 80.863C103.471 80.7478 109.309 86.3932 109.424 93.4596C109.539 100.526 103.894 106.363 96.8082 106.479C89.7419 106.594 83.9044 100.948 83.7892 93.882C83.674 86.8156 89.3194 80.9782 96.3858 80.863H96.405ZM159.906 126.564C155.509 136.645 141.607 162.107 106.16 157.998C79.8144 154.945 73.3433 129.79 71.5767 119.805C71.1542 117.405 73.4777 115.465 75.8011 116.233C86.5159 119.843 114.705 127.14 156.565 122.09C159.023 121.802 160.886 124.298 159.887 126.564H159.906Z" fill="#F9FAFC"/>
</g>
<defs>
<clipPath id="clip0_832_14">
<rect width="206.538" height="216.984" fill="white" transform="translate(7 2)"/>
</clipPath>
</defs>
</svg>
