<svg width="220" height="220" viewBox="0 0 220 220" fill="none" xmlns="http://www.w3.org/2000/svg">
<g clip-path="url(#clip0_832_12)">
<path d="M11.088 172.556C9.80141 170.578 9.80141 168.024 11.088 166.047C49.2617 102.526 36.7036 11.9304 36.7036 11.028C36.4347 9.16535 37.0876 7.30274 38.451 5.9778C39.7951 4.65285 41.6769 3.99998 43.5779 4.2112C134.481 16.9806 187.459 4.2112 187.978 4.2112C191.05 3.38551 194.257 5.01769 195.351 7.93641C235.887 102.2 183.926 207.37 181.718 211.824C180.643 213.898 178.492 215.204 176.13 215.204C40.9088 215.204 12.0097 174.476 11.0688 172.556H11.088ZM49.7802 17.4799C51.8732 41.1945 55.4256 112.396 23.5885 168.581C32.6135 176.857 68.5215 202.339 172.194 202.991C180.604 184.673 216.877 96.2661 185.731 17.3838C170.465 20.2642 123.209 26.9657 49.7802 17.4799Z" fill="#3B65EF"/>
<path d="M139.915 104.926C146.989 104.926 152.723 99.1919 152.723 92.1183C152.723 85.0448 146.989 79.3105 139.915 79.3105C132.842 79.3105 127.107 85.0448 127.107 92.1183C127.107 99.1919 132.842 104.926 139.915 104.926Z" fill="#3B65EF"/>
<path d="M96.864 105.598C103.938 105.598 109.672 99.864 109.672 92.7904C109.672 85.7169 103.938 79.9826 96.864 79.9826C89.7904 79.9826 84.0562 85.7169 84.0562 92.7904C84.0562 99.864 89.7904 105.598 96.864 105.598Z" fill="#3B65EF"/>
<path d="M76.0682 115.353C86.7829 118.963 114.972 126.26 156.832 121.21C159.29 120.922 161.153 123.418 160.154 125.684C155.757 135.765 141.855 161.227 106.407 157.118C80.0622 154.064 73.5911 128.91 71.8245 118.925C71.402 116.524 73.7255 114.585 76.049 115.353H76.0682Z" fill="#3B65EF"/>
</g>
<defs>
<clipPath id="clip0_832_12">
<rect width="200.643" height="211.204" fill="white" transform="translate(10.1279 4)"/>
</clipPath>
</defs>
</svg>
