<svg width="220" height="220" viewBox="0 0 220 220" fill="none" xmlns="http://www.w3.org/2000/svg">
<g clip-path="url(#clip0_781_61)">
<path d="M132.234 212.674C102.24 212.674 58.3246 210.562 19.4595 200.48L15.0815 199.348C12.0667 198.56 9.57046 196.525 8.22631 193.721C6.88216 190.918 6.82456 187.692 8.07269 184.85L9.89689 180.721C10.1849 180.049 39.7946 110.96 30.3279 42.8503L29.7519 38.7219C29.3486 35.8032 30.1935 32.8268 32.0561 30.561C33.9187 28.2951 36.6838 26.8934 39.6218 26.7206L43.7694 26.4901C47.5714 26.2789 137.649 20.9407 189.629 8.24815L193.488 7.30725C196.292 6.61597 199.191 7.09602 201.649 8.63219C204.088 10.1684 205.758 12.5878 206.354 15.4297L207.16 19.3278C207.41 20.4991 213.094 48.5726 212.498 85.1718C211.673 134.656 199.498 176.42 177.301 205.953L176.264 207.336C174.421 209.774 171.636 211.31 168.583 211.522L166.836 211.656C166.279 211.694 152.837 212.674 132.253 212.674H132.234ZM195.985 12.7606C195.6 12.7606 195.216 12.799 194.832 12.8951L190.973 13.836C138.513 26.663 47.9171 32.0204 44.0958 32.2508L39.929 32.4812C38.5656 32.558 37.3559 33.1725 36.4918 34.2286C35.6277 35.2847 35.2629 36.5905 35.4549 37.9346L36.031 42.0631C45.7472 111.901 15.4847 182.334 15.1775 183.045L13.3533 187.193C12.7772 188.479 12.8156 189.958 13.4301 191.225C14.0445 192.492 15.1775 193.433 16.5408 193.779L20.9189 194.912C59.2079 204.839 102.605 206.913 132.253 206.913C152.607 206.913 165.856 205.953 166.413 205.915L168.161 205.78C169.543 205.684 170.811 204.993 171.655 203.879L172.692 202.497C194.16 173.943 205.912 133.35 206.718 85.0758C207.314 49.091 201.745 21.632 201.515 20.4799L200.708 16.5819C200.439 15.2953 199.671 14.2008 198.577 13.4903C197.79 12.9911 196.925 12.7414 196.023 12.7414L195.985 12.7606Z" fill="#F9FAFC"/>
<path d="M193.028 22.2465C138.667 35.5344 44.5762 40.8726 44.5762 40.8726C54.8301 114.532 23.0698 186.54 23.0698 186.54C86.84 203.073 165.761 197.293 165.761 197.293C215.533 131.046 193.028 22.2273 193.028 22.2273V22.2465ZM139.07 83.6357C146.136 83.6357 151.878 89.3771 151.878 96.4435C151.878 103.51 146.136 109.251 139.07 109.251C132.003 109.251 126.262 103.51 126.262 96.4435C126.262 89.3771 132.003 83.6357 139.07 83.6357ZM96.0186 83.6357C103.085 83.6357 108.826 89.3771 108.826 96.4435C108.826 103.51 103.085 109.251 96.0186 109.251C88.9523 109.251 83.2108 103.51 83.2108 96.4435C83.2108 89.3771 88.9523 83.6357 96.0186 83.6357ZM159.981 128.434C156.371 138.823 144.466 165.283 108.826 163.9C82.3275 162.883 73.9362 138.304 71.4207 128.473C70.8063 126.111 72.9953 123.998 75.3572 124.594C86.3216 127.378 114.99 132.486 156.332 124.229C158.771 123.749 160.807 126.092 159.981 128.434Z" fill="#F9FAFC"/>
</g>
<defs>
<clipPath id="clip0_781_61">
<rect width="205.328" height="205.674" fill="white" transform="translate(7.17041 7)"/>
</clipPath>
</defs>
</svg>
