<svg width="220" height="220" viewBox="0 0 220 220" fill="none" xmlns="http://www.w3.org/2000/svg">
<g clip-path="url(#clip0_781_60)">
<path d="M191.997 22.0399C191.997 22.0399 214.502 130.858 164.73 197.106C164.73 197.106 151.366 198.085 131.203 198.085C102.362 198.085 59.5795 196.088 22.0394 186.352C22.0394 186.352 53.7997 114.344 43.5458 40.6851C43.5458 40.6851 137.636 35.3277 191.997 22.0591M191.997 10.0002C191.037 10.0002 190.077 10.1154 189.136 10.3458C136.484 23.2112 43.7954 28.607 42.8545 28.6454C39.4941 28.8374 36.3834 30.4312 34.2327 33.0235C32.1013 35.6158 31.1412 38.9953 31.6021 42.3173C41.2607 111.579 11.3246 180.803 11.0174 181.494C9.59644 184.72 9.67325 188.407 11.2094 191.594C12.7456 194.763 15.6067 197.105 19.0055 197.989C57.6401 208.012 101.325 210.105 131.184 210.105C151.558 210.105 165.038 209.145 165.594 209.088C169.07 208.838 172.258 207.091 174.331 204.306C196.529 174.773 208.204 134.603 209.049 84.9076C209.663 48.5004 204.018 20.7341 203.768 19.582C203.115 16.3753 201.176 13.591 198.411 11.8436C196.471 10.6146 194.244 9.98096 191.978 9.98096L191.997 10.0002Z" fill="#3B65EF"/>
<path d="M94.9694 109.064C102.043 109.064 107.777 103.329 107.777 96.2558C107.777 89.1822 102.043 83.448 94.9694 83.448C87.8959 83.448 82.1616 89.1822 82.1616 96.2558C82.1616 103.329 87.8959 109.064 94.9694 109.064Z" fill="#3B65EF"/>
<path d="M138.04 109.064C145.113 109.064 150.848 103.329 150.848 96.2558C150.848 89.1822 145.113 83.448 138.04 83.448C130.966 83.448 125.232 89.1822 125.232 96.2558C125.232 103.329 130.966 109.064 138.04 109.064Z" fill="#3B65EF"/>
<path d="M74.308 124.406C85.2725 127.191 113.941 132.298 155.283 124.041C157.722 123.561 159.757 125.904 158.932 128.247C155.322 138.635 143.416 165.095 107.777 163.713C81.2784 162.695 72.8871 138.117 70.3716 128.285C69.7571 125.923 71.9462 123.811 74.308 124.406Z" fill="#3B65EF"/>
</g>
<defs>
<clipPath id="clip0_781_60">
<rect width="199.107" height="200.105" fill="white" transform="translate(10 10)"/>
</clipPath>
</defs>
</svg>
