<svg width="500" height="500" viewBox="0 0 500 500" fill="none" xmlns="http://www.w3.org/2000/svg">
<g clip-path="url(#clip0_918_1773)">
<path d="M176.46 0C172.442 0 168.496 1.07619 164.981 3.15684C159.564 6.34955 155.761 11.6946 154.47 17.829C127.386 145.609 30.8151 248.206 29.8465 249.247C25.2906 254.018 23.0665 260.547 23.748 267.111C24.4296 273.676 27.9452 279.595 33.3979 283.326C136.82 354.176 277.945 394.282 283.9 395.968C285.909 396.542 287.954 396.793 289.963 396.793C294.303 396.793 298.572 395.537 302.267 393.134C360.023 355.324 406.084 292.187 439.087 205.41C463.266 141.842 470.979 89.4676 471.301 87.2794C472.162 81.2527 470.548 75.1184 466.817 70.2755C463.086 65.4326 457.526 62.3475 451.464 61.7018C350.839 50.8681 184.531 1.43493 182.881 0.932702C180.765 0.286985 178.612 0 176.46 0Z" fill="white"/>
<path d="M93.8939 307.437L38.9363 341.552V369.425C38.9363 375.165 42.2007 380.403 47.3306 382.95L257.511 486.946C264.291 490.318 272.327 489.959 278.82 486.049L456.32 378.681C462.778 374.771 466.724 367.811 466.724 360.278V331.185L383.175 297.607" fill="white" stroke="white" stroke-width="21.5239" stroke-linecap="round" stroke-linejoin="round"/>
<path d="M466.688 360.272V335.161L267.592 451.103L38.9363 341.582V369.456C38.9363 375.195 42.2007 380.433 47.3306 382.98L257.511 486.976C264.291 490.348 272.327 489.989 278.82 486.079L456.32 378.711C462.778 374.801 466.724 367.841 466.724 360.308L466.688 360.272Z" fill="white" stroke="white" stroke-width="16.0712" stroke-linecap="round" stroke-linejoin="round"/>
<path d="M221.193 180.692C234.408 180.692 245.121 169.979 245.121 156.764C245.121 143.549 234.408 132.837 221.193 132.837C207.979 132.837 197.266 143.549 197.266 156.764C197.266 169.979 207.979 180.692 221.193 180.692Z" fill="white"/>
<path d="M300.44 194.394C313.655 194.394 324.368 183.682 324.368 170.467C324.368 157.252 313.655 146.54 300.44 146.54C287.225 146.54 276.513 157.252 276.513 170.467C276.513 183.682 287.225 194.394 300.44 194.394Z" fill="white"/>
<path d="M174.17 201.999C193.47 210.609 244.625 229.119 323.367 227.074C327.994 226.967 331.008 231.917 328.748 235.971C318.775 253.943 288.462 298.857 223.281 284.974C174.816 274.642 167.211 226.752 165.704 207.882C165.346 203.326 170.009 200.134 174.17 201.999Z" fill="white"/>
<path d="M176.46 22.4925C176.46 22.4925 345.171 72.8584 449.096 84.0508C449.096 84.0508 419.501 289.532 289.999 374.3C289.999 374.3 147.69 334.338 46.1329 264.744C46.1329 264.744 147.69 158.416 176.46 22.4925ZM176.46 0C172.442 0 168.496 1.07619 164.981 3.15684C159.564 6.34955 155.761 11.6946 154.47 17.829C127.386 145.609 30.8151 248.206 29.8465 249.247C25.2906 254.018 23.0665 260.547 23.748 267.111C24.4296 273.676 27.9452 279.595 33.3979 283.326C136.82 354.176 277.945 394.282 283.9 395.968C285.909 396.542 287.954 396.793 289.963 396.793C294.303 396.793 298.572 395.537 302.267 393.134C360.023 355.324 406.084 292.187 439.087 205.41C463.266 141.842 470.979 89.4676 471.301 87.2794C472.162 81.2527 470.548 75.1184 466.817 70.2755C463.086 65.4326 457.526 62.3475 451.464 61.7018C350.839 50.8681 184.531 1.43493 182.881 0.932702C180.765 0.286985 178.612 0 176.46 0Z" fill="#3B65EF"/>
<path d="M93.8939 307.437L38.9363 341.552V369.425C38.9363 375.165 42.2007 380.403 47.3306 382.95L257.511 486.946C264.291 490.318 272.327 489.959 278.82 486.049L456.32 378.681C462.778 374.771 466.724 367.811 466.724 360.278V331.185L383.175 297.607" stroke="#3B65EF" stroke-width="21.5239" stroke-linecap="round" stroke-linejoin="round"/>
<path d="M466.688 360.272V335.161L267.592 451.103L38.9363 341.582V369.456C38.9363 375.195 42.2007 380.433 47.3306 382.98L257.511 486.976C264.291 490.348 272.327 489.989 278.82 486.079L456.32 378.711C462.778 374.801 466.724 367.841 466.724 360.308L466.688 360.272Z" fill="#3B65EF" stroke="#3B65EF" stroke-width="16.0712" stroke-linecap="round" stroke-linejoin="round"/>
<path d="M221.193 180.692C234.408 180.692 245.121 169.979 245.121 156.764C245.121 143.549 234.408 132.837 221.193 132.837C207.979 132.837 197.266 143.549 197.266 156.764C197.266 169.979 207.979 180.692 221.193 180.692Z" fill="#3B65EF"/>
<path d="M300.44 194.394C313.655 194.394 324.368 183.682 324.368 170.467C324.368 157.252 313.655 146.54 300.44 146.54C287.225 146.54 276.513 157.252 276.513 170.467C276.513 183.682 287.225 194.394 300.44 194.394Z" fill="#3B65EF"/>
<path d="M174.17 201.999C193.47 210.609 244.625 229.119 323.367 227.074C327.994 226.967 331.008 231.917 328.748 235.971C318.775 253.943 288.462 298.857 223.281 284.974C174.816 274.642 167.211 226.752 165.704 207.882C165.346 203.326 170.009 200.134 174.17 201.999Z" fill="#3B65EF"/>
</g>
<defs>
<clipPath id="clip0_918_1773">
<rect width="453.795" height="500" fill="white" transform="translate(23.6487)"/>
</clipPath>
</defs>
</svg>
