<svg width="500" height="500" viewBox="0 0 500 500" fill="none" xmlns="http://www.w3.org/2000/svg">
    <path
        d="M130.102 294.161L87.8469 320.391V341.822C87.8469 346.235 90.3568 350.262 94.301 352.22L255.902 432.179C261.115 434.772 267.293 434.496 272.285 431.49L408.759 348.938C413.724 345.932 416.758 340.581 416.758 334.789V312.42L352.52 286.604"
        fill="white" stroke="white" stroke-width="16.549" stroke-linecap="round"
        stroke-linejoin="round" />
    <path
        d="M416.73 334.784V315.477L263.652 404.621L87.8469 320.414V341.845C87.8469 346.258 90.3568 350.285 94.301 352.243L255.902 432.203C261.115 434.795 267.293 434.519 272.285 431.513L408.759 348.961C413.724 345.955 416.758 340.604 416.758 334.812L416.73 334.784Z"
        fill="white" stroke="white" stroke-width="12.3566" stroke-linecap="round"
        stroke-linejoin="round" />
    <path
        d="M227.978 196.711C238.138 196.711 246.375 188.475 246.375 178.314C246.375 168.154 238.138 159.917 227.978 159.917C217.818 159.917 209.581 168.154 209.581 178.314C209.581 188.475 217.818 196.711 227.978 196.711Z"
        fill="white" />
    <path
        d="M288.908 207.247C299.068 207.247 307.305 199.01 307.305 188.85C307.305 178.69 299.068 170.453 288.908 170.453C278.748 170.453 270.511 178.69 270.511 188.85C270.511 199.01 278.748 207.247 288.908 207.247Z"
        fill="white" />
    <path
        d="M191.824 213.094C206.662 219.713 245.994 233.946 306.535 232.373C310.093 232.291 312.41 236.097 310.673 239.214C303.005 253.032 279.699 287.564 229.583 276.89C192.32 268.947 186.473 232.125 185.314 217.617C185.038 214.114 188.624 211.66 191.824 213.094Z"
        fill="white" />
    <path
        d="M193.584 75.0775C193.584 75.0775 323.3 113.802 403.204 122.408C403.204 122.408 380.449 280.395 280.88 345.57C280.88 345.57 171.464 314.844 93.38 261.336C93.38 261.336 171.464 179.584 193.584 75.0775ZM193.584 57.7838C190.495 57.7838 187.461 58.6113 184.758 60.211C180.593 62.6658 177.669 66.7754 176.676 71.4919C155.852 169.738 81.6027 248.621 80.858 249.421C77.3551 253.089 75.645 258.109 76.1691 263.156C76.6931 268.204 79.3961 272.755 83.5885 275.623C163.106 330.097 271.612 360.933 276.191 362.23C277.735 362.671 279.308 362.864 280.852 362.864C284.19 362.864 287.472 361.899 290.313 360.051C334.719 330.98 370.134 282.436 395.509 215.716C414.099 166.841 420.029 126.572 420.277 124.89C420.939 120.256 419.698 115.54 416.829 111.816C413.961 108.093 409.686 105.721 405.025 105.224C327.658 96.8945 199.79 58.8871 198.521 58.5009C196.894 58.0045 195.239 57.7838 193.584 57.7838Z"
        fill="#3B65EF" />
    <path
        d="M130.102 294.161L87.8469 320.391V341.822C87.8469 346.235 90.3568 350.262 94.301 352.22L255.902 432.179C261.115 434.772 267.293 434.496 272.285 431.49L408.759 348.938C413.724 345.932 416.758 340.581 416.758 334.789V312.42L352.52 286.604"
        stroke="#3B65EF" stroke-width="16.549" stroke-linecap="round" stroke-linejoin="round" />
    <path
        d="M416.73 334.784V315.477L263.652 404.621L87.8469 320.414V341.845C87.8469 346.258 90.3568 350.285 94.301 352.243L255.902 432.203C261.115 434.795 267.293 434.519 272.285 431.513L408.759 348.961C413.724 345.955 416.758 340.604 416.758 334.812L416.73 334.784Z"
        fill="#3B65EF" stroke="#3B65EF" stroke-width="12.3566" stroke-linecap="round"
        stroke-linejoin="round" />
    <path
        d="M227.978 196.711C238.138 196.711 246.375 188.475 246.375 178.314C246.375 168.154 238.138 159.917 227.978 159.917C217.818 159.917 209.581 168.154 209.581 178.314C209.581 188.475 217.818 196.711 227.978 196.711Z"
        fill="#3B65EF" />
    <path
        d="M288.908 207.247C299.068 207.247 307.305 199.01 307.305 188.85C307.305 178.69 299.068 170.453 288.908 170.453C278.748 170.453 270.511 178.69 270.511 188.85C270.511 199.01 278.748 207.247 288.908 207.247Z"
        fill="#3B65EF" />
    <path
        d="M191.824 213.094C206.662 219.713 245.994 233.946 306.535 232.373C310.093 232.291 312.41 236.097 310.673 239.214C303.005 253.032 279.699 287.564 229.583 276.89C192.32 268.947 186.473 232.125 185.314 217.617C185.038 214.114 188.624 211.66 191.824 213.094Z"
        fill="#3B65EF" />
    </g>
</svg>