<svg xmlns="http://www.w3.org/2000/svg" version="1.1" xmlns:xlink="http://www.w3.org/1999/xlink" xmlns:svgjs="http://svgjs.dev/svgjs" width="35" height="36"><svg width="35" height="36" viewBox="0 0 35 36" fill="none" xmlns="http://www.w3.org/2000/svg">
<path d="M0.162719 28.7287C0.0564242 28.5617 0 28.3683 0 28.1707C0 27.9732 0.0564242 27.7798 0.162719 27.6128C6.72249 16.814 4.56613 1.35362 4.56613 1.19164C4.5413 1.0351 4.55466 0.874934 4.60511 0.724601C4.65559 0.574268 4.74162 0.438165 4.85605 0.327728C4.9746 0.219282 5.11523 0.137437 5.26844 0.0877496C5.42165 0.038062 5.58385 0.0216947 5.74396 0.0397592C21.3461 2.21752 30.4247 0.0397592 30.5153 0.0397592C30.7678 -0.0314932 31.0379 -0.00636331 31.2727 0.110207C31.5074 0.226778 31.6897 0.426354 31.7838 0.669692C38.7422 16.742 29.8267 34.6681 29.4462 35.424C29.3539 35.5975 29.2158 35.7428 29.0465 35.8445C28.8773 35.9458 28.6835 35.9997 28.4858 36C5.30906 36 0.343928 29.0527 0.162719 28.7287ZM6.83125 2.28952C7.19366 6.3391 7.79165 18.4878 2.33724 28.0447C3.87752 29.4486 10.0386 33.8041 27.8334 33.9122C29.265 30.7984 35.4987 15.7161 30.1529 2.27152C22.4259 3.46437 14.5601 3.47044 6.83125 2.28952Z" fill="#3B65EF"></path>
<path d="M21.7524 16.7859C23.0202 16.7859 24.048 15.7777 24.048 14.534C24.048 13.2903 23.0202 12.2821 21.7524 12.2821C20.4846 12.2821 19.4568 13.2903 19.4568 14.534C19.4568 15.7777 20.4846 16.7859 21.7524 16.7859Z" fill="#3B65EF"></path>
<path d="M14.8475 16.7859C16.1153 16.7859 17.143 15.7777 17.143 14.534C17.143 13.2903 16.1153 12.2821 14.8475 12.2821C13.5797 12.2821 12.5519 13.2903 12.5519 14.534C12.5519 15.7777 13.5797 16.7859 14.8475 16.7859Z" fill="#3B65EF"></path>
<path d="M9.87367 17.6081H9.72794C9.49411 17.5984 9.26572 17.679 9.09195 17.8328C8.91818 17.9865 8.81288 18.2011 8.79879 18.4303C8.65887 20.6079 9.29996 22.7649 10.611 24.5275C11.922 26.2902 13.8203 27.5474 15.9769 28.0812C18.4384 28.7278 21.0607 28.3937 23.2721 27.1517C25.4835 25.9096 27.1048 23.8604 27.7825 21.4507C27.8005 21.3308 27.7939 21.2086 27.7631 21.0913C27.7324 20.974 27.6782 20.8638 27.6035 20.7673C27.5289 20.6708 27.4354 20.5899 27.3285 20.5292C27.2216 20.4686 27.1034 20.4294 26.9809 20.4141L9.87367 17.6081Z" fill="#3B65EF"></path>
</svg><style>@media (prefers-color-scheme: light) { :root { filter: none; } }
@media (prefers-color-scheme: dark) { :root { filter: none; } }
</style></svg>