<svg xmlns="http://www.w3.org/2000/svg" width="569" height="118" viewBox="0 0 569 118" fill="none"><path d="M8.92409 86.7203C8.66235 86.3075 8.52341 85.8292 8.52341 85.3409C8.52341 84.8526 8.66235 84.3743 8.92409 83.9616C25.0767 57.2648 19.7669 19.0438 19.7669 18.6433C19.7057 18.2564 19.7387 17.8604 19.8629 17.4887C19.9872 17.1171 20.199 16.7806 20.4808 16.5076C20.7727 16.2395 21.119 16.0372 21.4963 15.9143C21.8735 15.7915 22.2729 15.751 22.6672 15.7957C61.0854 21.1795 83.4403 15.7957 83.6634 15.7957C84.285 15.6195 84.9502 15.6817 85.5282 15.9698C86.1062 16.258 86.5551 16.7514 86.7868 17.353C103.921 57.0868 81.9678 101.404 81.0307 103.272C80.8036 103.702 80.4634 104.061 80.0467 104.312C79.63 104.563 79.1526 104.696 78.6659 104.696C21.5963 104.696 9.37029 87.5212 8.92409 86.7203ZM25.3444 21.3575C26.2368 31.3688 27.7093 61.4028 14.2785 85.0295C18.0713 88.5001 33.2422 99.2678 77.0595 99.5348C80.5845 91.8372 95.934 54.5506 82.7709 21.313C63.7441 24.262 44.3758 24.277 25.3444 21.3575Z" fill="white"></path><path d="M61.7993 57.4873C64.9044 57.4873 67.4215 54.9772 67.4215 51.8809C67.4215 48.7846 64.9044 46.2746 61.7993 46.2746C58.6943 46.2746 56.1772 48.7846 56.1772 51.8809C56.1772 54.9772 58.6943 57.4873 61.7993 57.4873Z" fill="white"></path><path d="M44.8882 57.4873C47.9932 57.4873 50.5104 54.9772 50.5104 51.8809C50.5104 48.7846 47.9932 46.2746 44.8882 46.2746C41.7831 46.2746 39.266 48.7846 39.266 51.8809C39.266 54.9772 41.7831 57.4873 44.8882 57.4873Z" fill="white"></path><path d="M32.7068 59.534H32.3498C31.7772 59.5097 31.2178 59.7105 30.7922 60.0933C30.3666 60.4761 30.1088 61.0103 30.0742 61.5808C29.7315 67.0022 31.3017 72.3724 34.5126 76.7606C37.7234 81.1489 42.3727 84.2788 47.6546 85.6079C53.6833 87.2177 60.1056 86.3858 65.5218 83.2936C70.938 80.2014 74.9088 75.0997 76.5687 69.1004C76.6126 68.802 76.5965 68.4979 76.5212 68.2058C76.4459 67.9137 76.313 67.6394 76.1302 67.3992C75.9474 67.1589 75.7184 66.9574 75.4566 66.8063C75.1948 66.6553 74.9054 66.5579 74.6054 66.5197L32.7068 59.534Z" fill="white"></path><path d="M119.226 85.8304C119.054 85.6624 118.918 85.4615 118.826 85.2398C118.734 85.018 118.688 84.78 118.69 84.5401V35.2844C118.68 34.7938 118.856 34.3175 119.181 33.9496C119.356 33.7748 119.565 33.6373 119.796 33.5455C120.026 33.4538 120.272 33.4096 120.52 33.4156H126.677C127.15 33.4274 127.611 33.5658 128.011 33.8163C128.412 34.0668 128.737 34.4202 128.953 34.8395L143.589 61.9367L158.224 34.8395C158.451 34.4001 158.797 34.0334 159.223 33.7815C159.649 33.5296 160.138 33.4028 160.634 33.4156H166.702C166.957 33.4034 167.212 33.4446 167.45 33.5365C167.689 33.6285 167.905 33.7692 168.085 33.9496C168.261 34.1243 168.398 34.3327 168.49 34.5622C168.582 34.7916 168.627 35.0373 168.621 35.2844V84.5401C168.632 84.7878 168.59 85.0351 168.498 85.2654C168.406 85.4956 168.265 85.7035 168.085 85.8749C167.703 86.2063 167.209 86.3811 166.702 86.3643H160.054C159.568 86.3643 159.103 86.1721 158.76 85.83C158.417 85.4879 158.224 85.0239 158.224 84.5401V52.0144L147.694 71.9926C147.489 72.484 147.142 72.9034 146.697 73.1967C146.252 73.4901 145.729 73.644 145.195 73.6389H141.982C141.445 73.6356 140.92 73.4788 140.469 73.187C140.018 72.8952 139.661 72.4807 139.439 71.9926L128.864 52.0144V84.5401C128.875 84.7772 128.837 85.014 128.753 85.236C128.668 85.4579 128.539 85.6602 128.373 85.8304C128.203 86.012 127.995 86.154 127.763 86.2463C127.532 86.3386 127.283 86.3789 127.034 86.3643H120.475C120.004 86.3577 119.555 86.1658 119.226 85.8304Z" fill="white"></path><path d="M182.944 82.2708C179.45 78.5528 177.559 73.6158 177.679 68.5219V66.6086C177.366 61.1848 179.155 55.8484 182.676 51.7029C184.435 49.8833 186.562 48.458 188.917 47.522C191.271 46.5861 193.798 46.1608 196.33 46.2746C198.906 46.122 201.485 46.5283 203.888 47.4654C206.292 48.4026 208.463 49.8483 210.252 51.7029C213.662 55.7658 215.415 60.9601 215.16 66.2527V67.81C215.168 68.0507 215.124 68.2903 215.032 68.5129C214.94 68.7354 214.801 68.9357 214.624 69.1003C214.444 69.2807 214.228 69.4214 213.989 69.5134C213.751 69.6053 213.496 69.6465 213.241 69.6343H188.12V70.2572C188.1 72.7771 188.916 75.2329 190.44 77.2429C191.125 78.1488 192.017 78.8794 193.041 79.3745C194.065 79.8696 195.192 80.115 196.33 80.0905C197.698 80.119 199.053 79.8185 200.28 79.2144C201.507 78.6103 202.571 77.7204 203.38 76.62C203.672 76.2175 204.035 75.8708 204.451 75.5966C204.877 75.5038 205.319 75.5038 205.745 75.5966H212.438C212.856 75.5684 213.269 75.6952 213.598 75.9525C213.756 76.0814 213.883 76.2446 213.968 76.4297C214.053 76.6148 214.094 76.8169 214.089 77.0204C213.93 78.7108 213.17 80.2888 211.947 81.4699C210.22 83.3759 208.106 84.8927 205.745 85.9193C202.801 87.1803 199.622 87.8022 196.419 87.7436C193.918 87.7938 191.433 87.3343 189.115 86.3932C186.798 85.4521 184.698 84.0494 182.944 82.2708ZM204.674 63.227C204.801 60.6652 204.01 58.1419 202.443 56.1079C201.709 55.2089 200.773 54.4947 199.711 54.0232C198.649 53.5517 197.491 53.336 196.33 53.3937C195.175 53.336 194.024 53.5518 192.969 54.0236C191.914 54.4954 190.986 55.2097 190.262 56.1079C188.711 58.148 187.936 60.6707 188.075 63.227H204.674Z" fill="white"></path><path d="M230.598 82.7602C228.095 79.8371 226.845 76.0494 227.118 72.2149V55.129H221.094C220.854 55.1316 220.615 55.0856 220.393 54.9938C220.17 54.9021 219.969 54.7664 219.8 54.595C219.485 54.2386 219.311 53.78 219.31 53.3047V48.9442C219.302 48.4674 219.478 48.0058 219.8 47.6539C219.969 47.4825 220.17 47.3468 220.393 47.2551C220.615 47.1633 220.854 47.1173 221.094 47.1199H227.118V34.4834C227.104 34.2354 227.144 33.9871 227.236 33.7564C227.329 33.5257 227.471 33.3182 227.654 33.1486C227.819 32.9886 228.015 32.8629 228.229 32.7789C228.443 32.6949 228.673 32.6542 228.903 32.6591H235.239C235.477 32.6507 235.713 32.6897 235.936 32.7737C236.158 32.8578 236.361 32.9852 236.533 33.1486C236.71 33.3204 236.845 33.5294 236.93 33.7605C237.015 33.9915 237.047 34.2385 237.024 34.4834V47.0309H246.528C246.769 47.0283 247.007 47.0743 247.23 47.1661C247.452 47.2578 247.654 47.3935 247.822 47.5649C247.998 47.7295 248.137 47.9298 248.23 48.1524C248.322 48.3749 248.365 48.6145 248.357 48.8552V53.3047C248.357 53.7885 248.165 54.2525 247.822 54.5947C247.479 54.9368 247.013 55.129 246.528 55.129H237.024V71.1916C236.922 72.9152 237.325 74.6313 238.184 76.1305C238.609 76.6979 239.172 77.1472 239.82 77.4354C240.469 77.7237 241.18 77.8412 241.887 77.7768H247.197C247.442 77.7649 247.686 77.802 247.916 77.8861C248.146 77.9702 248.357 78.0995 248.536 78.2662C248.869 78.6293 249.046 79.109 249.027 79.6011V84.54C249.026 85.0153 248.851 85.4739 248.536 85.8303C248.366 86.012 248.158 86.154 247.926 86.2462C247.695 86.3385 247.446 86.3788 247.197 86.3643H240.95C239.07 86.4988 237.181 86.2485 235.401 85.6288C233.621 85.009 231.987 84.0328 230.598 82.7602Z" fill="white"></path><path d="M256.3 85.8304C256.128 85.6624 255.992 85.4615 255.9 85.2398C255.808 85.018 255.762 84.78 255.764 84.5401V48.9443C255.758 48.6972 255.803 48.4515 255.895 48.222C255.987 47.9926 256.125 47.7842 256.3 47.6094C256.468 47.438 256.67 47.3024 256.892 47.2106C257.115 47.1189 257.353 47.0729 257.594 47.0755H263.841C264.089 47.0694 264.335 47.1136 264.565 47.2053C264.795 47.2971 265.004 47.4345 265.18 47.6093C265.355 47.784 265.493 47.9925 265.585 48.222C265.677 48.4515 265.721 48.6972 265.715 48.9443V52.0589C266.987 50.3944 268.648 49.0659 270.554 48.1894C272.46 47.313 274.551 46.9153 276.647 47.031H279.815C280.06 47.0077 280.308 47.0395 280.54 47.1242C280.772 47.2089 280.981 47.3443 281.153 47.5204C281.321 47.6989 281.45 47.9089 281.535 48.1382C281.619 48.3675 281.656 48.6114 281.644 48.8553V54.3726C281.643 54.8479 281.469 55.3065 281.153 55.663C280.983 55.8446 280.775 55.9866 280.544 56.0789C280.313 56.1712 280.064 56.2115 279.815 56.1969H273.836C272.812 56.1442 271.789 56.294 270.824 56.6376C269.859 56.9813 268.972 57.512 268.214 58.1992C267.508 58.946 266.962 59.8281 266.609 60.7919C266.256 61.7557 266.104 62.7811 266.161 63.8055V84.5401C266.164 84.78 266.118 85.018 266.025 85.2398C265.933 85.4615 265.797 85.6624 265.626 85.8304C265.46 86.0062 265.26 86.1447 265.036 86.2368C264.813 86.3289 264.573 86.3724 264.332 86.3643H257.594C257.353 86.3669 257.115 86.321 256.892 86.2292C256.67 86.1374 256.468 86.0018 256.3 85.8304Z" fill="white"></path><path d="M290.747 82.5822C289.083 80.9446 287.767 78.9896 286.878 76.8338C285.989 74.678 285.544 72.3656 285.571 70.0347V66.7421V63.405C285.56 61.0709 286.025 58.7589 286.938 56.6096C287.851 54.4602 289.192 52.5183 290.881 50.902C294.818 47.9316 299.62 46.3243 304.557 46.3243C309.494 46.3243 314.296 47.9316 318.233 50.902C319.922 52.5183 321.263 54.4602 322.176 56.6096C323.089 58.7589 323.554 61.0709 323.543 63.405C323.603 64.5165 323.603 65.6305 323.543 66.7421C323.603 67.8536 323.603 68.9676 323.543 70.0792C323.564 72.4133 323.112 74.7276 322.215 76.8835C321.318 79.0395 319.994 80.9929 318.322 82.6267C314.34 85.5707 309.514 87.16 304.557 87.16C299.6 87.16 294.774 85.5707 290.791 82.6267L290.747 82.5822ZM310.737 76.9759C312.318 74.8596 313.136 72.2724 313.057 69.6342C313.057 69.1448 313.057 68.1659 313.057 66.6976C313.057 65.2293 313.057 64.2504 313.057 63.7609C313.133 61.1025 312.299 58.4973 310.692 56.3748C309.03 54.784 306.816 53.8957 304.512 53.8957C302.209 53.8957 299.994 54.784 298.332 56.3748C296.725 58.4973 295.891 61.1025 295.967 63.7609V69.6342C295.883 72.2802 296.719 74.8738 298.332 76.9759C299.996 78.5798 302.22 79.4764 304.535 79.4764C306.849 79.4764 309.073 78.5798 310.737 76.9759Z" fill="white"></path><path d="M350.761 85.8304C350.589 85.6624 350.453 85.4615 350.361 85.2398C350.269 85.018 350.223 84.78 350.226 84.5401V35.2844C350.211 35.0402 350.247 34.7956 350.332 34.566C350.416 34.3363 350.547 34.1265 350.717 33.9496C350.887 33.7679 351.095 33.6259 351.326 33.5336C351.558 33.4414 351.807 33.4011 352.055 33.4156H371.688C376.925 33.1427 382.091 34.7181 386.279 37.8651C388.051 39.3558 389.449 41.2381 390.363 43.3622C391.277 45.4863 391.681 47.7938 391.544 50.1011C391.653 53.384 390.733 56.6191 388.912 59.356C387.069 61.9083 384.459 63.8095 381.46 64.7844L392.66 83.9171C392.791 84.181 392.867 84.4686 392.883 84.7625C392.884 84.9784 392.84 85.1921 392.756 85.3909C392.672 85.5897 392.548 85.7695 392.392 85.9194C392.079 86.1858 391.687 86.3421 391.277 86.3643H384.137C383.448 86.4132 382.765 86.2073 382.219 85.7859C381.738 85.3665 381.331 84.8703 381.014 84.3176L371.287 66.5197H360.89V84.5401C360.901 84.7772 360.863 85.014 360.779 85.236C360.695 85.4579 360.565 85.6602 360.399 85.8304C360.216 86.0065 359.999 86.1444 359.762 86.236C359.524 86.3277 359.271 86.3713 359.016 86.3643H352.055C351.814 86.3724 351.574 86.3289 351.35 86.2368C351.127 86.1447 350.926 86.0062 350.761 85.8304ZM371.465 57.8432C373.91 58.0294 376.338 57.3172 378.292 55.841C379.08 55.0878 379.691 54.1714 380.085 53.1565C380.478 52.1417 380.643 51.0531 380.568 49.9677C380.634 48.8764 380.466 47.7836 380.073 46.7628C379.681 45.742 379.073 44.8169 378.292 44.0499C376.358 42.5267 373.923 41.7806 371.465 41.9586H360.89V57.8432H371.465Z" fill="white"></path><path d="M403.592 82.2708C400.082 78.5632 398.188 73.6191 398.327 68.5219V66.6087C398.02 61.1932 399.79 55.8641 403.28 51.7029C407.044 48.2127 411.994 46.2726 417.134 46.2726C422.275 46.2726 427.224 48.2127 430.989 51.7029C434.388 55.7702 436.124 60.9654 435.853 66.2527V67.81C435.861 68.0507 435.817 68.2904 435.725 68.5129C435.632 68.7354 435.493 68.9357 435.317 69.1004C435.142 69.2751 434.933 69.4126 434.703 69.5044C434.473 69.5962 434.226 69.6404 433.979 69.6343H408.679V70.2572C408.7 72.7705 409.512 75.2137 410.999 77.2429C411.705 78.1422 412.616 78.8614 413.655 79.341C414.695 79.8206 415.834 80.047 416.978 80.0016C418.323 80.0016 419.648 79.6877 420.849 79.0851C422.05 78.4824 423.093 77.6077 423.894 76.531C424.175 76.1189 424.54 75.7702 424.965 75.5076C425.391 75.4119 425.833 75.4119 426.259 75.5076H432.908C433.338 75.4881 433.762 75.6134 434.112 75.8636C434.27 75.9925 434.397 76.1557 434.482 76.3408C434.567 76.5259 434.609 76.7279 434.603 76.9314C434.425 78.6256 433.65 80.202 432.417 81.3809C430.716 83.2964 428.614 84.8155 426.259 85.8304C423.301 87.095 420.107 87.7168 416.889 87.6547C414.423 87.6948 411.975 87.2387 409.69 86.3136C407.406 85.3886 405.332 84.0135 403.592 82.2708ZM425.322 63.2271C425.449 60.6653 424.658 58.142 423.091 56.1079C422.353 55.2143 421.416 54.5039 420.355 54.0329C419.294 53.5619 418.138 53.3431 416.978 53.3937C415.824 53.336 414.672 53.5519 413.617 54.0236C412.562 54.4954 411.634 55.2097 410.91 56.1079C409.343 58.142 408.552 60.6653 408.679 63.2271H425.322Z" fill="white"></path><path d="M451.157 82.7602C448.654 79.8371 447.404 76.0494 447.677 72.215V55.129H441.743C441.257 55.129 440.792 54.9368 440.449 54.5947C440.106 54.2525 439.913 53.7885 439.913 53.3047V48.9442C439.905 48.7035 439.949 48.4639 440.041 48.2413C440.133 48.0188 440.272 47.8185 440.449 47.6539C440.617 47.4825 440.818 47.3468 441.041 47.2551C441.263 47.1633 441.502 47.1173 441.743 47.1199H447.722V34.4834C447.707 34.2354 447.747 33.9872 447.84 33.7564C447.933 33.5257 448.075 33.3182 448.257 33.1486C448.615 32.8342 449.074 32.6603 449.551 32.6592H455.843C456.088 32.6389 456.335 32.6723 456.566 32.7568C456.797 32.8413 457.007 32.975 457.181 33.1486C457.355 33.3222 457.489 33.5316 457.574 33.7621C457.659 33.9926 457.692 34.2388 457.672 34.4834V47.0309H467.132C467.617 47.0309 468.082 47.2231 468.425 47.5653C468.768 47.9074 468.961 48.3714 468.961 48.8552V53.3047C468.964 53.5447 468.917 53.7827 468.825 54.0044C468.733 54.2262 468.597 54.4271 468.426 54.595C468.26 54.7708 468.06 54.9094 467.836 55.0015C467.613 55.0935 467.373 55.137 467.132 55.129H457.672V71.1916C457.556 72.9109 457.944 74.6266 458.788 76.1305C459.219 76.7015 459.79 77.1526 460.446 77.4408C461.103 77.7291 461.822 77.8447 462.536 77.7768H467.845C468.083 77.7684 468.32 77.8073 468.542 77.8914C468.764 77.9754 468.967 78.1029 469.139 78.2662C469.319 78.4377 469.46 78.6455 469.552 78.8758C469.645 79.106 469.687 79.3533 469.675 79.6011V84.54C469.678 84.78 469.631 85.018 469.539 85.2397C469.447 85.4615 469.311 85.6624 469.139 85.8303C468.976 86.0085 468.776 86.1486 468.552 86.2409C468.328 86.3332 468.087 86.3753 467.845 86.3643H461.599C459.703 86.5086 457.799 86.2631 456.003 85.6432C454.207 85.0232 452.558 84.0419 451.157 82.7602Z" fill="white"></path><path d="M476.903 85.8304C476.732 85.6624 476.595 85.4615 476.503 85.2398C476.411 85.018 476.365 84.78 476.368 84.54V48.9443C476.362 48.6972 476.406 48.4515 476.498 48.222C476.59 47.9926 476.728 47.7841 476.903 47.6094C477.069 47.4337 477.269 47.2951 477.493 47.203C477.716 47.1109 477.956 47.0674 478.197 47.0755H484.4C484.655 47.0632 484.91 47.1044 485.148 47.1964C485.386 47.2883 485.603 47.429 485.783 47.6094C485.958 47.7841 486.096 47.9926 486.188 48.222C486.28 48.4515 486.324 48.6972 486.318 48.9443V52.0589C487.586 50.4032 489.241 49.083 491.139 48.2141C493.037 47.3452 495.121 46.9542 497.206 47.0755H500.418C500.663 47.0609 500.909 47.0969 501.139 47.1811C501.369 47.2653 501.58 47.396 501.757 47.5649C501.924 47.7433 502.054 47.9534 502.138 48.1827C502.223 48.412 502.26 48.6558 502.248 48.8998V54.4171C502.247 54.8924 502.072 55.351 501.757 55.7075C501.582 55.8822 501.373 56.0197 501.143 56.1115C500.913 56.2032 500.666 56.2474 500.418 56.2414H494.395C493.37 56.1532 492.339 56.2895 491.373 56.6407C490.407 56.9919 489.53 57.5495 488.803 58.2744C488.076 58.9993 487.517 59.874 487.165 60.8372C486.813 61.8003 486.676 62.8286 486.765 63.85V84.54C486.765 85.0239 486.572 85.4879 486.229 85.83C485.886 86.1721 485.42 86.3643 484.935 86.3643H478.197C477.956 86.3723 477.716 86.3289 477.493 86.2368C477.269 86.1447 477.069 86.0061 476.903 85.8304Z" fill="white"></path><path d="M511.35 82.5822C507.999 79.2598 506.105 74.7474 506.085 70.0347V63.3605C506.129 58.6569 508.038 54.1617 511.395 50.8575C515.339 47.8835 520.149 46.2743 525.094 46.2743C530.038 46.2743 534.848 47.8835 538.792 50.8575C540.472 52.4802 541.808 54.4232 542.721 56.5711C543.633 58.7191 544.103 61.028 544.102 63.3605C544.102 63.9835 544.102 65.0958 544.102 66.6976C544.102 68.2994 544.102 69.4118 544.102 70.0347C544.094 74.741 542.217 79.2525 538.881 82.5822C534.899 85.5263 530.073 87.1156 525.116 87.1156C520.159 87.1156 515.333 85.5263 511.35 82.5822ZM531.34 76.9759C532.925 74.8637 533.729 72.27 533.616 69.6343C533.616 69.1448 533.616 68.166 533.616 66.6976C533.616 65.2293 533.616 64.2504 533.616 63.761C533.727 61.1048 532.907 58.4931 531.296 56.3749C529.634 54.7841 527.419 53.8958 525.116 53.8958C522.812 53.8958 520.598 54.7841 518.936 56.3749C517.309 58.4871 516.473 61.0994 516.571 63.761V66.6976V69.6343C516.464 72.2833 517.302 74.8845 518.936 76.9759C520.6 78.5799 522.824 79.4764 525.138 79.4764C527.452 79.4764 529.676 78.5799 531.34 76.9759Z" fill="white"></path></svg>