<svg xmlns="http://www.w3.org/2000/svg" width="569" height="107" viewBox="0 0 569 107" fill="none"><path d="M0.478347 84.7911C0.165871 84.2984 0 83.7274 0 83.1444C0 82.5614 0.165871 81.9904 0.478347 81.4976C19.7622 49.6255 13.4231 3.99513 13.4231 3.51705C13.3501 3.05504 13.3894 2.58232 13.5377 2.13862C13.6861 1.69492 13.939 1.29322 14.2754 0.967272C14.6239 0.647198 15.0373 0.405638 15.4877 0.258988C15.9381 0.112338 16.4149 0.0640307 16.8856 0.117347C62.7515 6.5449 89.4399 0.117347 89.7063 0.117347C90.4484 -0.0929505 91.2426 -0.0187809 91.9326 0.325271C92.6227 0.669323 93.1587 1.25836 93.4352 1.97656C113.891 49.413 87.682 102.321 86.5633 104.552C86.2921 105.064 85.886 105.493 85.3885 105.793C84.891 106.092 84.3211 106.251 83.74 106.252C15.6071 106.252 1.01105 85.7473 0.478347 84.7911ZM20.0819 6.75739C21.1473 18.7095 22.9052 54.5657 6.8708 82.7725C11.3988 86.9159 29.5107 99.771 81.8223 100.09C86.0306 90.8999 104.356 46.3851 88.6409 6.70426C65.9256 10.2249 42.8026 10.2428 20.0819 6.75739V6.75739Z" fill="white"></path><path d="M63.6038 49.8911C67.3108 49.8911 70.3159 46.8945 70.3159 43.1979C70.3159 39.5014 67.3108 36.5048 63.6038 36.5048C59.8968 36.5048 56.8917 39.5014 56.8917 43.1979C56.8917 46.8945 59.8968 49.8911 63.6038 49.8911Z" fill="white"></path><path d="M43.4143 49.8911C47.1213 49.8911 50.1264 46.8945 50.1264 43.1979C50.1264 39.5014 47.1213 36.5048 43.4143 36.5048C39.7074 36.5048 36.7023 39.5014 36.7023 43.1979C36.7023 46.8945 39.7074 49.8911 43.4143 49.8911Z" fill="white"></path><path d="M28.8714 52.3346H28.4453C27.7616 52.3056 27.0938 52.5453 26.5857 53.0023C26.0776 53.4594 25.7697 54.0971 25.7285 54.7782C25.3194 61.2506 27.1939 67.6618 31.0273 72.9007C34.8606 78.1397 40.4111 81.8764 46.717 83.4631C53.9144 85.3849 61.5817 84.3918 68.0478 80.7002C74.514 77.0086 79.2545 70.9178 81.2362 63.7555C81.2887 63.3993 81.2694 63.0362 81.1795 62.6874C81.0897 62.3387 80.931 62.0113 80.7127 61.7245C80.4945 61.4376 80.2211 61.197 79.9085 61.0167C79.596 60.8365 79.2505 60.7201 78.8923 60.6745L28.8714 52.3346Z" fill="white"></path><path d="M143.754 78.7559C143.582 78.5879 143.446 78.387 143.354 78.1653C143.262 77.9435 143.216 77.7055 143.218 77.4655V28.2099C143.208 27.7193 143.383 27.2429 143.709 26.875C143.884 26.7003 144.093 26.5628 144.323 26.471C144.553 26.3792 144.8 26.335 145.048 26.3411H151.205C151.678 26.3528 152.138 26.4912 152.539 26.7418C152.939 26.9923 153.265 27.3457 153.481 27.7649L168.116 54.8622L182.752 27.7649C182.978 27.3255 183.325 26.9588 183.751 26.707C184.177 26.4551 184.666 26.3283 185.161 26.3411H191.23C191.485 26.3289 191.74 26.37 191.978 26.462C192.216 26.554 192.433 26.6947 192.613 26.875C192.788 27.0498 192.926 27.2582 193.018 27.4876C193.11 27.7171 193.155 27.9628 193.148 28.2099V77.4655C193.16 77.7133 193.118 77.9606 193.026 78.1909C192.934 78.4211 192.793 78.629 192.613 78.8004C192.23 79.1317 191.736 79.3066 191.23 79.2898H184.581C184.096 79.2898 183.631 79.0976 183.288 78.7555C182.945 78.4134 182.752 77.9494 182.752 77.4655V44.9399L172.221 64.918C172.017 65.4095 171.67 65.8288 171.225 66.1222C170.779 66.4155 170.256 66.5695 169.723 66.5643H166.51C165.973 66.5611 165.447 66.4042 164.997 66.1125C164.546 65.8207 164.188 65.4062 163.967 64.918L153.392 44.9399V77.4655C153.403 77.7027 153.365 77.9395 153.28 78.1615C153.196 78.3834 153.067 78.5857 152.901 78.7559C152.731 78.9375 152.523 79.0795 152.291 79.1718C152.06 79.2641 151.811 79.3044 151.562 79.2898H145.003C144.532 79.2831 144.083 79.0912 143.754 78.7559V78.7559Z" fill="white"></path><path d="M207.472 75.1962C203.978 71.4782 202.087 66.5412 202.206 61.4474V59.5341C201.893 54.1103 203.683 48.7739 207.204 44.6284C208.963 42.8087 211.09 41.3835 213.444 40.4475C215.799 39.5115 218.326 39.0863 220.858 39.2C223.434 39.0474 226.012 39.4537 228.416 40.3909C230.819 41.328 232.99 42.7737 234.779 44.6284C238.19 48.6913 239.942 53.8856 239.688 59.1781V60.7355C239.696 60.9762 239.652 61.2158 239.56 61.4383C239.467 61.6609 239.328 61.8612 239.152 62.0258C238.972 62.2062 238.755 62.3469 238.517 62.4388C238.279 62.5308 238.024 62.572 237.769 62.5597H212.648V63.1827C212.628 65.7026 213.444 68.1583 214.968 70.1683C215.653 71.0743 216.545 71.8049 217.569 72.3C218.593 72.7951 219.72 73.0405 220.858 73.016C222.226 73.0445 223.581 72.7439 224.808 72.1398C226.035 71.5357 227.098 70.6458 227.908 69.5454C228.2 69.1429 228.563 68.7963 228.979 68.522C229.405 68.4293 229.846 68.4293 230.273 68.522H236.966C237.383 68.4939 237.796 68.6206 238.126 68.878C238.284 69.0069 238.41 69.1701 238.495 69.3552C238.58 69.5403 238.622 69.7423 238.617 69.9459C238.458 71.6362 237.698 73.2143 236.475 74.3953C234.748 76.3013 232.634 77.8182 230.273 78.8448C227.329 80.1058 224.15 80.7276 220.947 80.6691C218.446 80.7192 215.96 80.2597 213.643 79.3187C211.326 78.3776 209.226 76.9748 207.472 75.1962V75.1962ZM229.202 56.1525C229.328 53.5907 228.538 51.0674 226.971 49.0333C226.237 48.1343 225.301 47.4202 224.239 46.9487C223.177 46.4771 222.019 46.2615 220.858 46.3192C219.703 46.2614 218.551 46.4773 217.496 46.9491C216.442 47.4209 215.514 48.1351 214.789 49.0333C213.238 51.0734 212.464 53.5962 212.603 56.1525H229.202Z" fill="white"></path><path d="M255.126 75.6857C252.623 72.7626 251.372 68.9748 251.646 65.1404V48.0545H245.622C245.381 48.057 245.143 48.0111 244.92 47.9193C244.698 47.8276 244.497 47.6919 244.328 47.5205C244.013 47.1641 243.838 46.7054 243.837 46.2302V41.8697C243.83 41.3929 244.005 40.9313 244.328 40.5793C244.497 40.4079 244.698 40.2723 244.92 40.1805C245.143 40.0888 245.381 40.0428 245.622 40.0454H251.646V27.4089C251.631 27.1608 251.672 26.9126 251.764 26.6819C251.857 26.4512 251.999 26.2437 252.181 26.0741C252.347 25.9141 252.542 25.7884 252.757 25.7044C252.971 25.6204 253.2 25.5797 253.431 25.5846H259.767C260.004 25.5762 260.241 25.6151 260.463 25.6992C260.685 25.7832 260.889 25.9107 261.061 26.0741C261.237 26.2458 261.373 26.4549 261.458 26.6859C261.543 26.9169 261.575 27.164 261.552 27.4089V39.9564H271.056C271.296 39.9538 271.535 39.9998 271.757 40.0915C271.98 40.1833 272.181 40.319 272.35 40.4904C272.526 40.655 272.665 40.8553 272.757 41.0778C272.85 41.3004 272.893 41.54 272.885 41.7807V46.2302C272.885 46.714 272.692 47.178 272.349 47.5201C272.006 47.8623 271.541 48.0545 271.056 48.0545H261.552V64.117C261.45 65.8407 261.853 67.5568 262.712 69.056C263.136 69.6234 263.7 70.0727 264.348 70.3609C264.996 70.6491 265.708 70.7667 266.415 70.7023H271.725C271.97 70.6903 272.214 70.7275 272.444 70.8116C272.674 70.8957 272.885 71.0249 273.064 71.1917C273.397 71.5548 273.574 72.0345 273.554 72.5265V77.4655C273.553 77.9407 273.379 78.3994 273.064 78.7558C272.894 78.9374 272.685 79.0794 272.454 79.1717C272.223 79.264 271.974 79.3043 271.725 79.2897H265.478C263.597 79.4243 261.709 79.174 259.929 78.5542C258.149 77.9344 256.514 76.9583 255.126 75.6857V75.6857Z" fill="white"></path><path d="M280.828 78.7558C280.656 78.5879 280.52 78.387 280.428 78.1652C280.336 77.9435 280.29 77.7055 280.292 77.4655V41.8697C280.286 41.6227 280.33 41.3769 280.422 41.1475C280.515 40.918 280.652 40.7096 280.828 40.5349C280.996 40.3635 281.198 40.2278 281.42 40.1361C281.642 40.0443 281.881 39.9984 282.122 40.0009H288.368C288.616 39.9948 288.863 40.039 289.093 40.1308C289.323 40.2225 289.532 40.3599 289.707 40.5347C289.883 40.7095 290.02 40.9179 290.112 41.1474C290.204 41.3769 290.249 41.6226 290.243 41.8697V44.9844C291.515 43.3199 293.176 41.9914 295.082 41.1149C296.987 40.2384 299.079 39.8407 301.175 39.9564H304.343C304.588 39.9331 304.836 39.9649 305.068 40.0496C305.299 40.1343 305.509 40.2697 305.681 40.4459C305.848 40.6243 305.978 40.8344 306.062 41.0637C306.147 41.293 306.184 41.5368 306.172 41.7807V47.2981C306.171 47.7733 305.996 48.232 305.681 48.5884C305.511 48.77 305.303 48.912 305.072 49.0043C304.84 49.0966 304.591 49.1369 304.343 49.1224H298.363C297.34 49.0697 296.317 49.2194 295.352 49.5631C294.387 49.9067 293.5 50.4374 292.741 51.1246C292.036 51.8714 291.49 52.7536 291.137 53.7174C290.784 54.6812 290.632 55.7065 290.689 56.731V77.4655C290.691 77.7055 290.645 77.9435 290.553 78.1652C290.461 78.387 290.325 78.5879 290.153 78.7558C289.988 78.9316 289.787 79.0702 289.564 79.1622C289.341 79.2543 289.101 79.2978 288.859 79.2898H282.122C281.881 79.2924 281.642 79.2464 281.42 79.1546C281.198 79.0629 280.996 78.9272 280.828 78.7558V78.7558Z" fill="white"></path><path d="M315.275 75.5077C313.611 73.8701 312.295 71.9151 311.406 69.7593C310.517 67.6035 310.072 65.2911 310.099 62.9602V59.6676V56.3305C310.088 53.9964 310.553 51.6844 311.466 49.535C312.378 47.3857 313.72 45.4438 315.409 43.8275C319.346 40.8571 324.148 39.2498 329.085 39.2498C334.022 39.2498 338.824 40.8571 342.761 43.8275C344.449 45.4438 345.791 47.3857 346.704 49.535C347.617 51.6844 348.082 53.9964 348.071 56.3305C348.131 57.442 348.131 58.556 348.071 59.6676C348.131 60.7791 348.131 61.8931 348.071 63.0047C348.091 65.3388 347.64 67.653 346.743 69.809C345.846 71.965 344.522 73.9184 342.85 75.5522C338.868 78.4962 334.042 80.0855 329.085 80.0855C324.127 80.0855 319.301 78.4962 315.319 75.5522L315.275 75.5077ZM335.265 69.9014C336.846 67.7851 337.664 65.1978 337.585 62.5597C337.585 62.0703 337.585 61.0914 337.585 59.6231C337.585 58.1548 337.585 57.1759 337.585 56.6864C337.661 54.0279 336.827 51.4228 335.22 49.3003C333.558 47.7095 331.344 46.8212 329.04 46.8212C326.736 46.8212 324.522 47.7095 322.86 49.3003C321.253 51.4228 320.419 54.0279 320.495 56.6864V62.5597C320.411 65.2057 321.247 67.7993 322.86 69.9014C324.524 71.5053 326.748 72.4019 329.062 72.4019C331.377 72.4019 333.601 71.5053 335.265 69.9014V69.9014Z" fill="white"></path><path d="M375.289 78.7558C375.117 78.5879 374.981 78.387 374.889 78.1652C374.797 77.9435 374.751 77.7055 374.754 77.4655V28.2098C374.739 27.9657 374.775 27.7211 374.86 27.4914C374.944 27.2618 375.075 27.0519 375.244 26.875C375.415 26.6934 375.623 26.5514 375.854 26.4591C376.085 26.3668 376.334 26.3265 376.583 26.3411H396.216C401.453 26.0682 406.619 27.6435 410.807 30.7905C412.578 32.2813 413.977 34.1635 414.891 36.2877C415.805 38.4118 416.209 40.7192 416.072 43.0266C416.181 46.3095 415.261 49.5445 413.44 52.2815C411.596 54.8337 408.987 56.7349 405.988 57.7098L417.188 76.8426C417.319 77.1065 417.394 77.394 417.411 77.688C417.411 77.9038 417.368 78.1176 417.284 78.3164C417.2 78.5152 417.076 78.6949 416.92 78.8448C416.607 79.1112 416.215 79.2676 415.804 79.2898H408.665C407.976 79.3386 407.293 79.1327 406.747 78.7114C406.266 78.2919 405.859 77.7957 405.542 77.243L395.814 59.4451H385.418V77.4655C385.429 77.7026 385.391 77.9395 385.307 78.1614C385.222 78.3834 385.093 78.5857 384.927 78.7558C384.744 78.9319 384.527 79.0698 384.289 79.1615C384.052 79.2532 383.798 79.2968 383.544 79.2898H376.583C376.342 79.2978 376.101 79.2543 375.878 79.1623C375.655 79.0702 375.454 78.9316 375.289 78.7558V78.7558ZM395.993 50.7687C398.437 50.9548 400.866 50.2426 402.82 48.7664C403.607 48.0133 404.219 47.0969 404.612 46.082C405.006 45.0671 405.171 43.9785 405.096 42.8931C405.162 41.8018 404.993 40.709 404.601 39.6883C404.208 38.6675 403.601 37.7424 402.82 36.9753C400.886 35.4521 398.451 34.7061 395.993 34.8841H385.418V50.7687H395.993Z" fill="white"></path><path d="M428.12 75.1963C424.609 71.4887 422.716 66.5446 422.854 61.4474V59.5342C422.547 54.1187 424.318 48.7896 427.807 44.6284C431.572 41.1381 436.522 39.1981 441.662 39.1981C446.802 39.1981 451.752 41.1381 455.517 44.6284C458.915 48.6957 460.652 53.8909 460.38 59.1782V60.7355C460.388 60.9762 460.345 61.2159 460.252 61.4384C460.16 61.6609 460.021 61.8612 459.845 62.0259C459.67 62.2006 459.461 62.3381 459.231 62.4299C459 62.5217 458.754 62.5659 458.506 62.5598H433.206V63.1827C433.228 65.696 434.04 68.1392 435.527 70.1684C436.233 71.0677 437.143 71.7869 438.183 72.2665C439.222 72.7461 440.361 72.9725 441.506 72.9271C442.85 72.9271 444.176 72.6132 445.377 72.0105C446.578 71.4079 447.621 70.5332 448.422 69.4565C448.703 69.0444 449.068 68.6957 449.493 68.4331C449.919 68.3374 450.361 68.3374 450.787 68.4331H457.435C457.866 68.4135 458.29 68.5389 458.64 68.7891C458.798 68.9179 458.925 69.0812 459.01 69.2663C459.095 69.4514 459.136 69.6534 459.131 69.8569C458.952 71.5511 458.178 73.1275 456.945 74.3064C455.244 76.2219 453.142 77.741 450.787 78.7559C447.829 80.0205 444.635 80.6423 441.417 80.5802C438.951 80.6203 436.503 80.1642 434.218 79.2391C431.933 78.314 429.859 76.939 428.12 75.1963ZM449.85 56.1526C449.977 53.5907 449.186 51.0675 447.619 49.0334C446.88 48.1398 445.944 47.4294 444.883 46.9584C443.822 46.4874 442.666 46.2686 441.506 46.3192C440.351 46.2615 439.199 46.4774 438.145 46.9491C437.09 47.4209 436.162 48.1352 435.437 49.0334C433.871 51.0675 433.08 53.5907 433.206 56.1526V56.1526H449.85Z" fill="white"></path><path d="M475.685 75.6856C473.182 72.7626 471.931 68.9748 472.205 65.1404V48.0544H466.27C465.785 48.0544 465.32 47.8622 464.977 47.5201C464.634 47.178 464.441 46.714 464.441 46.2301V41.8697C464.433 41.629 464.476 41.3893 464.569 41.1668C464.661 40.9443 464.8 40.744 464.976 40.5793C465.145 40.4079 465.346 40.2723 465.569 40.1805C465.791 40.0888 466.03 40.0428 466.27 40.0454H472.249V27.4089C472.235 27.1608 472.275 26.9126 472.368 26.6819C472.46 26.4512 472.603 26.2436 472.785 26.074C473.142 25.7597 473.602 25.5857 474.079 25.5846H480.37C480.616 25.5644 480.863 25.5977 481.094 25.6822C481.325 25.7668 481.535 25.9005 481.709 26.0741C481.883 26.2477 482.017 26.457 482.102 26.6875C482.187 26.918 482.22 27.1642 482.2 27.4089V39.9564H491.659C492.144 39.9564 492.61 40.1486 492.953 40.4907C493.296 40.8328 493.489 41.2968 493.489 41.7807V46.2301C493.491 46.4701 493.445 46.7081 493.353 46.9299C493.261 47.1516 493.125 47.3525 492.953 47.5205C492.788 47.6963 492.587 47.8348 492.364 47.9269C492.141 48.019 491.901 48.0625 491.659 48.0544H482.2V64.117C482.084 65.8363 482.472 67.552 483.315 69.0559C483.747 69.6269 484.318 70.0781 484.974 70.3663C485.63 70.6545 486.35 70.7702 487.063 70.7022H492.373C492.611 70.6938 492.847 70.7328 493.07 70.8168C493.292 70.9008 493.495 71.0283 493.667 71.1917C493.847 71.3631 493.988 71.5709 494.08 71.8012C494.172 72.0315 494.214 72.2788 494.203 72.5265V77.4654C494.205 77.7054 494.159 77.9434 494.067 78.1652C493.975 78.3869 493.839 78.5878 493.667 78.7558C493.504 78.9339 493.303 79.0741 493.08 79.1663C492.856 79.2586 492.615 79.3007 492.373 79.2897H486.126C484.231 79.434 482.327 79.1886 480.531 78.5686C478.734 77.9486 477.085 76.9674 475.685 75.6856V75.6856Z" fill="white"></path><path d="M501.431 78.7559C501.259 78.5879 501.123 78.387 501.031 78.1652C500.939 77.9435 500.893 77.7055 500.896 77.4655V41.8697C500.89 41.6227 500.934 41.377 501.026 41.1475C501.118 40.918 501.256 40.7096 501.431 40.5349C501.596 40.3591 501.797 40.2206 502.02 40.1285C502.243 40.0364 502.484 39.9929 502.725 40.001H508.927C509.183 39.9887 509.437 40.0299 509.676 40.1219C509.914 40.2138 510.13 40.3545 510.311 40.5349C510.486 40.7096 510.624 40.918 510.716 41.1475C510.808 41.377 510.852 41.6227 510.846 41.8697V44.9844C512.113 43.3287 513.769 42.0084 515.667 41.1396C517.565 40.2707 519.648 39.8797 521.733 40.001H524.946C525.191 39.9864 525.436 40.0224 525.667 40.1066C525.897 40.1908 526.107 40.3215 526.285 40.4904C526.452 40.6688 526.582 40.8789 526.666 41.1082C526.75 41.3375 526.788 41.5813 526.776 41.8252V47.3426C526.774 47.8178 526.6 48.2765 526.285 48.6329C526.11 48.8077 525.901 48.9451 525.67 49.0369C525.44 49.1287 525.194 49.1729 524.946 49.1669H518.922C517.898 49.0787 516.867 49.215 515.901 49.5662C514.935 49.9174 514.058 50.475 513.331 51.1999C512.604 51.9248 512.045 52.7995 511.693 53.7626C511.341 54.7258 511.204 55.7541 511.292 56.7755V77.4655C511.292 77.9493 511.1 78.4133 510.756 78.7555C510.413 79.0976 509.948 79.2898 509.463 79.2898H502.725C502.484 79.2978 502.243 79.2543 502.02 79.1623C501.797 79.0702 501.596 78.9316 501.431 78.7559V78.7559Z" fill="white"></path><path d="M535.878 75.5077C532.526 72.1853 530.633 67.6729 530.613 62.9602V56.286C530.656 51.5824 532.565 47.0872 535.923 43.783C539.867 40.809 544.677 39.1998 549.621 39.1998C554.566 39.1998 559.376 40.809 563.32 43.783C565 45.4057 566.336 47.3487 567.248 49.4966C568.161 51.6445 568.63 53.9534 568.63 56.286C568.63 56.9089 568.63 58.0213 568.63 59.6231C568.63 61.2249 568.63 62.3373 568.63 62.9602C568.621 67.6665 566.744 72.178 563.409 75.5077C559.427 78.4518 554.601 80.0411 549.644 80.0411C544.686 80.0411 539.86 78.4518 535.878 75.5077V75.5077ZM555.868 69.9014C557.453 67.7892 558.257 65.1955 558.144 62.5598C558.144 62.0703 558.144 61.0915 558.144 59.6231C558.144 58.1548 558.144 57.1759 558.144 56.6865C558.255 54.0303 557.434 51.4186 555.823 49.3003C554.162 47.7096 551.947 46.8213 549.644 46.8213C547.34 46.8213 545.126 47.7096 543.464 49.3003C541.837 51.4126 541 54.0249 541.099 56.6865V59.6231V62.5598C540.992 65.2088 541.83 67.8099 543.464 69.9014C545.128 71.5053 547.352 72.4019 549.666 72.4019C551.98 72.4019 554.204 71.5053 555.868 69.9014V69.9014Z" fill="white"></path></svg>