<svg xmlns="http://www.w3.org/2000/svg" width="111" height="115" viewBox="0 0 111 115" fill="none"><path d="M1.03793 91.7724C0.698453 91.2391 0.51825 90.6211 0.51825 89.9901C0.51825 89.3591 0.698453 88.7411 1.03793 88.2078C21.988 53.7114 15.1011 4.32407 15.1011 3.80662C15.0219 3.30658 15.0646 2.79494 15.2257 2.31471C15.3868 1.83448 15.6617 1.3997 16.0271 1.04691C16.4057 0.700486 16.8549 0.439037 17.3442 0.280312C17.8335 0.121587 18.3514 0.0693027 18.8629 0.127009C68.6917 7.08378 97.6862 0.127009 97.9756 0.127009C98.7818 -0.100604 99.6446 -0.0203272 100.394 0.352052C101.144 0.724432 101.726 1.36197 102.027 2.1393C124.25 53.4814 95.7764 110.745 94.5611 113.16C94.2665 113.715 93.8252 114.179 93.2848 114.503C92.7443 114.828 92.1251 114.999 91.4938 115C17.4739 115 1.61666 92.8073 1.03793 91.7724ZM22.3353 7.31376C23.4927 20.2499 25.4026 59.0583 7.98272 89.5877C12.9019 94.0722 32.5788 107.986 89.4104 108.331C93.9824 98.3842 113.891 50.2043 96.8181 7.25626C72.1401 11.0667 47.0192 11.0861 22.3353 7.31376Z" fill="white"></path><path d="M69.3504 53.7226C73.5227 53.7226 76.9051 50.5282 76.9051 46.5876C76.9051 42.647 73.5227 39.4526 69.3504 39.4526C65.178 39.4526 61.7956 42.647 61.7956 46.5876C61.7956 50.5282 65.178 53.7226 69.3504 53.7226Z" fill="white"></path><path d="M47.5255 53.7226C51.6979 53.7226 55.0803 50.5282 55.0803 46.5876C55.0803 42.647 51.6979 39.4526 47.5255 39.4526C43.3532 39.4526 39.9708 42.647 39.9708 46.5876C39.9708 50.5282 43.3532 53.7226 47.5255 53.7226Z" fill="white"></path><path d="M31.6959 56.2435H31.2326C30.4894 56.2115 29.7634 56.4749 29.211 56.9771C28.6585 57.4792 28.3239 58.1798 28.279 58.9281C27.8343 66.0392 29.8722 73.083 34.0397 78.839C38.2072 84.5949 44.2416 88.7003 51.0972 90.4436C58.922 92.5551 67.2577 91.4639 74.2875 87.408C81.3173 83.3521 86.4711 76.6603 88.6256 68.7913C88.6826 68.3999 88.6617 68.001 88.564 67.6178C88.4662 67.2347 88.2937 66.875 88.0565 66.5599C87.8192 66.2447 87.522 65.9804 87.1822 65.7823C86.8424 65.5842 86.4668 65.4564 86.0774 65.4063L31.6959 56.2435Z" fill="white"></path></svg>